<svg width="79" height="93" viewBox="0 0 79 93" fill="none" xmlns="http://www.w3.org/2000/svg">
<path d="M65.0254 48.3628L77.6543 58.8052H0.702148L13.5049 48.3628H65.0254Z" fill="#6BDAFF" stroke="#00402A" stroke-width="0.5"/>
<path d="M75.5894 59.1733V91.9917H54.4048V59.1733L64.9946 50.4985L75.5894 59.1733Z" fill="#6BDAFF" stroke="#00402A" stroke-width="0.5"/>
<g opacity="0.4">
<path d="M75.5894 59.1733V91.9917H54.4048V59.1733L64.9946 50.4985L75.5894 59.1733Z" fill="#6BDAFF" stroke="#00402A" stroke-width="0.5"/>
</g>
<g opacity="0.5">
<path d="M72.4639 87.1699V87.4561H71.1055V87.1699H72.4639Z" fill="#6BDAFF" stroke="#00402A" stroke-width="0.5"/>
<path d="M71.4282 88.1597V88.4458H70.0688V88.1597H71.4282Z" fill="#6BDAFF" stroke="#00402A" stroke-width="0.5"/>
<path d="M73.5005 88.1597V88.4458H72.1421V88.1597H73.5005Z" fill="#6BDAFF" stroke="#00402A" stroke-width="0.5"/>
<path d="M59.1245 76.1479V76.4341H57.7661V76.1479H59.1245Z" fill="#6BDAFF" stroke="#00402A" stroke-width="0.5"/>
<path d="M70.4111 61.897V61.6108H71.7695V61.897H70.4111Z" fill="#6BDAFF" stroke="#00402A" stroke-width="0.5"/>
<path d="M71.4517 60.9077V60.6216H72.8101V60.9077H71.4517Z" fill="#6BDAFF" stroke="#00402A" stroke-width="0.5"/>
</g>
<path d="M2.70117 91.9956L2.70117 59.3091L53.9043 59.3091L53.9043 91.9956H2.70117Z" fill="#6BDAFF" stroke="#00402A" stroke-width="0.5"/>
<g opacity="0.6">
<path d="M2.70117 91.9956L2.70117 59.3091L53.9043 59.3091L53.9043 91.9956H2.70117Z" fill="#6BDAFF" stroke="#00402A" stroke-width="0.5"/>
</g>
<g opacity="0.5">
<path d="M49.5669 62.5923V62.3062H50.9253V62.5923H49.5669Z" fill="#6BDAFF" stroke="#00402A" stroke-width="0.5"/>
<path d="M50.6035 61.606V61.3198H51.9619V61.606H50.6035Z" fill="#6BDAFF" stroke="#00402A" stroke-width="0.5"/>
<path d="M48.5337 61.606V61.3198H49.8921V61.606H48.5337Z" fill="#6BDAFF" stroke="#00402A" stroke-width="0.5"/>
<path d="M23.0815 61.3169V61.603H21.7231V61.3169H23.0815Z" fill="#6BDAFF" stroke="#00402A" stroke-width="0.5"/>
<path d="M40.1895 75.4312V75.7173H38.8311V75.4312H40.1895Z" fill="#6BDAFF" stroke="#00402A" stroke-width="0.5"/>
<path d="M6.69043 90.7495V91.0356H5.33203V90.7495H6.69043Z" fill="#6BDAFF" stroke="#00402A" stroke-width="0.5"/>
<path d="M51.606 83.2812V83.5674H50.2466V83.2812H51.606Z" fill="#6BDAFF" stroke="#00402A" stroke-width="0.5"/>
<path d="M52.6416 84.2705V84.5566H51.2832V84.2705H52.6416Z" fill="#6BDAFF" stroke="#00402A" stroke-width="0.5"/>
<path d="M4.29541 70.6641V70.3779H5.65381V70.6641H4.29541Z" fill="#6BDAFF" stroke="#00402A" stroke-width="0.5"/>
<path d="M5.33203 69.6743V69.3882H6.69043V69.6743H5.33203Z" fill="#6BDAFF" stroke="#00402A" stroke-width="0.5"/>
</g>
<path d="M26.8584 77.1406V91.9922H7.73633V77.1406H26.8584Z" fill="#00402A" stroke="#00402A" stroke-width="0.5"/>
<path d="M26.8584 77.1406V80.2344H7.73633V77.1406H26.8584Z" fill="#6BDAFF" stroke="#00402A" stroke-width="0.5"/>
<g opacity="0.1">
<mask id="path-24-inside-1_99_20040" fill="white">
<path d="M27.1082 77.1597H7.48633V77.3888H27.1082V77.1597Z"/>
</mask>
<path d="M27.1082 77.1597H7.48633V77.3888H27.1082V77.1597Z" fill="#6BDAFF"/>
<path d="M7.48633 77.1597V76.6597H6.98633V77.1597H7.48633ZM27.1082 77.1597H27.6082V76.6597H27.1082V77.1597ZM27.1082 77.3888V77.8888H27.6082V77.3888H27.1082ZM7.48633 77.3888H6.98633V77.8888H7.48633V77.3888ZM7.48633 77.1597V77.6597H27.1082V77.1597V76.6597H7.48633V77.1597ZM27.1082 77.1597H26.6082V77.3888H27.1082H27.6082V77.1597H27.1082ZM27.1082 77.3888V76.8888H7.48633V77.3888V77.8888H27.1082V77.3888ZM7.48633 77.3888H7.98633V77.1597H7.48633H6.98633V77.3888H7.48633Z" fill="#00402A" mask="url(#path-24-inside-1_99_20040)"/>
</g>
<g opacity="0.1">
<mask id="path-26-inside-2_99_20040" fill="white">
<path d="M27.1082 77.7236H7.48633V77.9528H27.1082V77.7236Z"/>
</mask>
<path d="M27.1082 77.7236H7.48633V77.9528H27.1082V77.7236Z" fill="#6BDAFF"/>
<path d="M7.48633 77.7236V77.2236H6.98633V77.7236H7.48633ZM27.1082 77.7236H27.6082V77.2236H27.1082V77.7236ZM27.1082 77.9528V78.4528H27.6082V77.9528H27.1082ZM7.48633 77.9528H6.98633V78.4528H7.48633V77.9528ZM7.48633 77.7236V78.2236H27.1082V77.7236V77.2236H7.48633V77.7236ZM27.1082 77.7236H26.6082V77.9528H27.1082H27.6082V77.7236H27.1082ZM27.1082 77.9528V77.4528H7.48633V77.9528V78.4528H27.1082V77.9528ZM7.48633 77.9528H7.98633V77.7236H7.48633H6.98633V77.9528H7.48633Z" fill="#00402A" mask="url(#path-26-inside-2_99_20040)"/>
</g>
<g opacity="0.1">
<mask id="path-28-inside-3_99_20040" fill="white">
<path d="M27.1082 78.291H7.48633V78.5202H27.1082V78.291Z"/>
</mask>
<path d="M27.1082 78.291H7.48633V78.5202H27.1082V78.291Z" fill="#6BDAFF"/>
<path d="M7.48633 78.291V77.791H6.98633V78.291H7.48633ZM27.1082 78.291H27.6082V77.791H27.1082V78.291ZM27.1082 78.5202V79.0202H27.6082V78.5202H27.1082ZM7.48633 78.5202H6.98633V79.0202H7.48633V78.5202ZM7.48633 78.291V78.791H27.1082V78.291V77.791H7.48633V78.291ZM27.1082 78.291H26.6082V78.5202H27.1082H27.6082V78.291H27.1082ZM27.1082 78.5202V78.0202H7.48633V78.5202V79.0202H27.1082V78.5202ZM7.48633 78.5202H7.98633V78.291H7.48633H6.98633V78.5202H7.48633Z" fill="#00402A" mask="url(#path-28-inside-3_99_20040)"/>
</g>
<g opacity="0.1">
<mask id="path-30-inside-4_99_20040" fill="white">
<path d="M27.1082 78.855H7.48633V79.0842H27.1082V78.855Z"/>
</mask>
<path d="M27.1082 78.855H7.48633V79.0842H27.1082V78.855Z" fill="#6BDAFF"/>
<path d="M7.48633 78.855V78.355H6.98633V78.855H7.48633ZM27.1082 78.855H27.6082V78.355H27.1082V78.855ZM27.1082 79.0842V79.5842H27.6082V79.0842H27.1082ZM7.48633 79.0842H6.98633V79.5842H7.48633V79.0842ZM7.48633 78.855V79.355H27.1082V78.855V78.355H7.48633V78.855ZM27.1082 78.855H26.6082V79.0842H27.1082H27.6082V78.855H27.1082ZM27.1082 79.0842V78.5842H7.48633V79.0842V79.5842H27.1082V79.0842ZM7.48633 79.0842H7.98633V78.855H7.48633H6.98633V79.0842H7.48633Z" fill="#00402A" mask="url(#path-30-inside-4_99_20040)"/>
</g>
<g opacity="0.1">
<mask id="path-32-inside-5_99_20040" fill="white">
<path d="M27.1082 79.4229H7.48633V79.652H27.1082V79.4229Z"/>
</mask>
<path d="M27.1082 79.4229H7.48633V79.652H27.1082V79.4229Z" fill="#6BDAFF"/>
<path d="M7.48633 79.4229V78.9229H6.98633V79.4229H7.48633ZM27.1082 79.4229H27.6082V78.9229H27.1082V79.4229ZM27.1082 79.652V80.152H27.6082V79.652H27.1082ZM7.48633 79.652H6.98633V80.152H7.48633V79.652ZM7.48633 79.4229V79.9229H27.1082V79.4229V78.9229H7.48633V79.4229ZM27.1082 79.4229H26.6082V79.652H27.1082H27.6082V79.4229H27.1082ZM27.1082 79.652V79.152H7.48633V79.652V80.152H27.1082V79.652ZM7.48633 79.652H7.98633V79.4229H7.48633H6.98633V79.652H7.48633Z" fill="#00402A" mask="url(#path-32-inside-5_99_20040)"/>
</g>
<g opacity="0.1">
<mask id="path-34-inside-6_99_20040" fill="white">
<path d="M27.1082 79.9863H7.48633V80.2155H27.1082V79.9863Z"/>
</mask>
<path d="M27.1082 79.9863H7.48633V80.2155H27.1082V79.9863Z" fill="#6BDAFF"/>
<path d="M7.48633 79.9863V79.4863H6.98633V79.9863H7.48633ZM27.1082 79.9863H27.6082V79.4863H27.1082V79.9863ZM27.1082 80.2155V80.7155H27.6082V80.2155H27.1082ZM7.48633 80.2155H6.98633V80.7155H7.48633V80.2155ZM7.48633 79.9863V80.4863H27.1082V79.9863V79.4863H7.48633V79.9863ZM27.1082 79.9863H26.6082V80.2155H27.1082H27.6082V79.9863H27.1082ZM27.1082 80.2155V79.7155H7.48633V80.2155V80.7155H27.1082V80.2155ZM7.48633 80.2155H7.98633V79.9863H7.48633H6.98633V80.2155H7.48633Z" fill="#00402A" mask="url(#path-34-inside-6_99_20040)"/>
</g>
<path d="M48.8555 77.1406V91.9922H29.7334V77.1406H48.8555Z" fill="#00402A" stroke="#00402A" stroke-width="0.5"/>
<path d="M48.8555 77.1406V80.2344H29.7334V77.1406H48.8555Z" fill="#6BDAFF" stroke="#00402A" stroke-width="0.5"/>
<g opacity="0.1">
<mask id="path-38-inside-7_99_20040" fill="white">
<path d="M49.1052 77.1597H29.4834V77.3888H49.1052V77.1597Z"/>
</mask>
<path d="M49.1052 77.1597H29.4834V77.3888H49.1052V77.1597Z" fill="#6BDAFF"/>
<path d="M29.4834 77.1597V76.6597H28.9834V77.1597H29.4834ZM49.1052 77.1597H49.6052V76.6597H49.1052V77.1597ZM49.1052 77.3888V77.8888H49.6052V77.3888H49.1052ZM29.4834 77.3888H28.9834V77.8888H29.4834V77.3888ZM29.4834 77.1597V77.6597H49.1052V77.1597V76.6597H29.4834V77.1597ZM49.1052 77.1597H48.6052V77.3888H49.1052H49.6052V77.1597H49.1052ZM49.1052 77.3888V76.8888H29.4834V77.3888V77.8888H49.1052V77.3888ZM29.4834 77.3888H29.9834V77.1597H29.4834H28.9834V77.3888H29.4834Z" fill="#00402A" mask="url(#path-38-inside-7_99_20040)"/>
</g>
<g opacity="0.1">
<mask id="path-40-inside-8_99_20040" fill="white">
<path d="M49.1052 77.7236H29.4834V77.9528H49.1052V77.7236Z"/>
</mask>
<path d="M49.1052 77.7236H29.4834V77.9528H49.1052V77.7236Z" fill="#6BDAFF"/>
<path d="M29.4834 77.7236V77.2236H28.9834V77.7236H29.4834ZM49.1052 77.7236H49.6052V77.2236H49.1052V77.7236ZM49.1052 77.9528V78.4528H49.6052V77.9528H49.1052ZM29.4834 77.9528H28.9834V78.4528H29.4834V77.9528ZM29.4834 77.7236V78.2236H49.1052V77.7236V77.2236H29.4834V77.7236ZM49.1052 77.7236H48.6052V77.9528H49.1052H49.6052V77.7236H49.1052ZM49.1052 77.9528V77.4528H29.4834V77.9528V78.4528H49.1052V77.9528ZM29.4834 77.9528H29.9834V77.7236H29.4834H28.9834V77.9528H29.4834Z" fill="#00402A" mask="url(#path-40-inside-8_99_20040)"/>
</g>
<g opacity="0.1">
<mask id="path-42-inside-9_99_20040" fill="white">
<path d="M49.1052 78.291H29.4834V78.5202H49.1052V78.291Z"/>
</mask>
<path d="M49.1052 78.291H29.4834V78.5202H49.1052V78.291Z" fill="#6BDAFF"/>
<path d="M29.4834 78.291V77.791H28.9834V78.291H29.4834ZM49.1052 78.291H49.6052V77.791H49.1052V78.291ZM49.1052 78.5202V79.0202H49.6052V78.5202H49.1052ZM29.4834 78.5202H28.9834V79.0202H29.4834V78.5202ZM29.4834 78.291V78.791H49.1052V78.291V77.791H29.4834V78.291ZM49.1052 78.291H48.6052V78.5202H49.1052H49.6052V78.291H49.1052ZM49.1052 78.5202V78.0202H29.4834V78.5202V79.0202H49.1052V78.5202ZM29.4834 78.5202H29.9834V78.291H29.4834H28.9834V78.5202H29.4834Z" fill="#00402A" mask="url(#path-42-inside-9_99_20040)"/>
</g>
<g opacity="0.1">
<mask id="path-44-inside-10_99_20040" fill="white">
<path d="M49.1052 78.855H29.4834V79.0842H49.1052V78.855Z"/>
</mask>
<path d="M49.1052 78.855H29.4834V79.0842H49.1052V78.855Z" fill="#6BDAFF"/>
<path d="M29.4834 78.855V78.355H28.9834V78.855H29.4834ZM49.1052 78.855H49.6052V78.355H49.1052V78.855ZM49.1052 79.0842V79.5842H49.6052V79.0842H49.1052ZM29.4834 79.0842H28.9834V79.5842H29.4834V79.0842ZM29.4834 78.855V79.355H49.1052V78.855V78.355H29.4834V78.855ZM49.1052 78.855H48.6052V79.0842H49.1052H49.6052V78.855H49.1052ZM49.1052 79.0842V78.5842H29.4834V79.0842V79.5842H49.1052V79.0842ZM29.4834 79.0842H29.9834V78.855H29.4834H28.9834V79.0842H29.4834Z" fill="#00402A" mask="url(#path-44-inside-10_99_20040)"/>
</g>
<g opacity="0.1">
<mask id="path-46-inside-11_99_20040" fill="white">
<path d="M49.1052 79.4229H29.4834V79.652H49.1052V79.4229Z"/>
</mask>
<path d="M49.1052 79.4229H29.4834V79.652H49.1052V79.4229Z" fill="#6BDAFF"/>
<path d="M29.4834 79.4229V78.9229H28.9834V79.4229H29.4834ZM49.1052 79.4229H49.6052V78.9229H49.1052V79.4229ZM49.1052 79.652V80.152H49.6052V79.652H49.1052ZM29.4834 79.652H28.9834V80.152H29.4834V79.652ZM29.4834 79.4229V79.9229H49.1052V79.4229V78.9229H29.4834V79.4229ZM49.1052 79.4229H48.6052V79.652H49.1052H49.6052V79.4229H49.1052ZM49.1052 79.652V79.152H29.4834V79.652V80.152H49.1052V79.652ZM29.4834 79.652H29.9834V79.4229H29.4834H28.9834V79.652H29.4834Z" fill="#00402A" mask="url(#path-46-inside-11_99_20040)"/>
</g>
<g opacity="0.1">
<mask id="path-48-inside-12_99_20040" fill="white">
<path d="M49.1052 79.9863H29.4834V80.2155H49.1052V79.9863Z"/>
</mask>
<path d="M49.1052 79.9863H29.4834V80.2155H49.1052V79.9863Z" fill="#6BDAFF"/>
<path d="M29.4834 79.9863V79.4863H28.9834V79.9863H29.4834ZM49.1052 79.9863H49.6052V79.4863H49.1052V79.9863ZM49.1052 80.2155V80.7155H49.6052V80.2155H49.1052ZM29.4834 80.2155H28.9834V80.7155H29.4834V80.2155ZM29.4834 79.9863V80.4863H49.1052V79.9863V79.4863H29.4834V79.9863ZM49.1052 79.9863H48.6052V80.2155H49.1052H49.6052V79.9863H49.1052ZM49.1052 80.2155V79.7155H29.4834V80.2155V80.7155H49.1052V80.2155ZM29.4834 80.2155H29.9834V79.9863H29.4834H28.9834V80.2155H29.4834Z" fill="#00402A" mask="url(#path-48-inside-12_99_20040)"/>
</g>
<mask id="path-50-inside-13_99_20040" fill="white">
<path d="M30.1313 63.2417L29.502 63.751V63.2417H30.1313Z"/>
</mask>
<path d="M30.1313 63.2417L29.502 63.751V63.2417H30.1313Z" fill="#6BDAFF"/>
<path d="M30.1313 63.2417L30.4458 63.6304L31.544 62.7417H30.1313V63.2417ZM29.502 63.751H29.002V64.7988L29.8165 64.1397L29.502 63.751ZM29.502 63.2417V62.7417H29.002V63.2417H29.502ZM30.1313 63.2417L29.8167 62.853L29.1874 63.3623L29.502 63.751L29.8165 64.1397L30.4458 63.6304L30.1313 63.2417ZM29.502 63.751H30.002V63.2417H29.502H29.002V63.751H29.502ZM29.502 63.2417V63.7417H30.1313V63.2417V62.7417H29.502V63.2417Z" fill="#00402A" mask="url(#path-50-inside-13_99_20040)"/>
<path d="M26.8877 63.4951V73.0967H18.7588V63.4951H26.8877Z" fill="#6BDAFF" stroke="#00402A" stroke-width="0.5"/>
<path d="M26.4014 63.4917L18.7549 69.6665V69.2905L25.9336 63.4917H26.4014Z" fill="#6BDAFF" stroke="#00402A" stroke-width="0.5"/>
<mask id="path-54-inside-14_99_20040" fill="white">
<path d="M18.5049 72.1171L27.1372 65.1509V65.6602L18.5049 72.6264V72.1171Z"/>
</mask>
<path d="M18.5049 72.1171L27.1372 65.1509V65.6602L18.5049 72.6264V72.1171Z" fill="#6BDAFF"/>
<path d="M18.5049 72.1171L18.1909 71.728L18.0049 71.8781V72.1171H18.5049ZM27.1372 65.1509H27.6372V64.1049L26.8232 64.7618L27.1372 65.1509ZM27.1372 65.6602L27.4512 66.0493L27.6372 65.8992V65.6602H27.1372ZM18.5049 72.6264H18.0049V73.6724L18.8189 73.0155L18.5049 72.6264ZM18.5049 72.1171L18.8189 72.5062L27.4512 65.54L27.1372 65.1509L26.8232 64.7618L18.1909 71.728L18.5049 72.1171ZM27.1372 65.1509H26.6372V65.6602H27.1372H27.6372V65.1509H27.1372ZM27.1372 65.6602L26.8232 65.2711L18.1909 72.2373L18.5049 72.6264L18.8189 73.0155L27.4512 66.0493L27.1372 65.6602ZM18.5049 72.6264H19.0049V72.1171H18.5049H18.0049V72.6264H18.5049Z" fill="#00402A" mask="url(#path-54-inside-14_99_20040)"/>
<mask id="path-56-inside-15_99_20040" fill="white">
<path d="M19.7781 63.2417L18.5049 64.2675V63.7619L19.1488 63.2417H19.7781Z"/>
</mask>
<path d="M19.7781 63.2417L18.5049 64.2675V63.7619L19.1488 63.2417H19.7781Z" fill="#6BDAFF"/>
<path d="M19.7781 63.2417L20.0918 63.631L21.1956 62.7417H19.7781V63.2417ZM18.5049 64.2675H18.0049V65.3125L18.8186 64.6569L18.5049 64.2675ZM18.5049 63.7619L18.1907 63.373L18.0049 63.5231V63.7619H18.5049ZM19.1488 63.2417V62.7417H18.972L18.8345 62.8528L19.1488 63.2417ZM19.7781 63.2417L19.4644 62.8524L18.1912 63.8782L18.5049 64.2675L18.8186 64.6569L20.0918 63.631L19.7781 63.2417ZM18.5049 64.2675H19.0049V63.7619H18.5049H18.0049V64.2675H18.5049ZM18.5049 63.7619L18.8191 64.1508L19.463 63.6306L19.1488 63.2417L18.8345 62.8528L18.1907 63.373L18.5049 63.7619ZM19.1488 63.2417V63.7417H19.7781V63.2417V62.7417H19.1488V63.2417Z" fill="#00402A" mask="url(#path-56-inside-15_99_20040)"/>
<path d="M15.8657 63.4951V73.0967H7.73682V63.4951H15.8657Z" fill="#6BDAFF" stroke="#00402A" stroke-width="0.5"/>
<path d="M10.0132 63.4917L7.73291 65.3335V63.9429L8.2915 63.4917H10.0132Z" fill="#00402A" stroke="#00402A" stroke-width="0.5"/>
<path d="M15.8647 65.7959L7.73291 72.3613V71.9854L15.8647 65.4189V65.7959Z" fill="#6BDAFF" stroke="#00402A" stroke-width="0.5"/>
<mask id="path-61-inside-16_99_20040" fill="white">
<path d="M16.115 69.291V69.8003L11.7243 73.3471H11.0913L16.115 69.291Z"/>
</mask>
<path d="M16.115 69.291V69.8003L11.7243 73.3471H11.0913L16.115 69.291Z" fill="#6BDAFF"/>
<path d="M16.115 69.291H16.615V68.2447L15.8009 68.902L16.115 69.291ZM16.115 69.8003L16.4292 70.1893L16.615 70.0392V69.8003H16.115ZM11.7243 73.3471V73.8471H11.901L12.0385 73.736L11.7243 73.3471ZM11.0913 73.3471L10.7772 72.9581L9.67609 73.8471H11.0913V73.3471ZM16.115 69.291H15.615V69.8003H16.115H16.615V69.291H16.115ZM16.115 69.8003L15.8008 69.4114L11.4101 72.9581L11.7243 73.3471L12.0385 73.736L16.4292 70.1893L16.115 69.8003ZM11.7243 73.3471V72.8471H11.0913V73.3471V73.8471H11.7243V73.3471ZM11.0913 73.3471L11.4054 73.7361L16.4291 69.68L16.115 69.291L15.8009 68.902L10.7772 72.9581L11.0913 73.3471Z" fill="#00402A" mask="url(#path-61-inside-16_99_20040)"/>
<path d="M37.8774 63.4956V73.0972H29.7485V63.4956H37.8774Z" fill="#6BDAFF" stroke="#00402A" stroke-width="0.5"/>
<path d="M37.8774 69.4907L33.4126 73.0972H31.6899L37.8774 68.1001V69.4907Z" fill="#00402A" stroke="#00402A" stroke-width="0.5"/>
<mask id="path-65-inside-17_99_20040" fill="white">
<path d="M29.502 72.4267L38.127 65.4604V65.9734L29.502 72.9396V72.4267Z"/>
</mask>
<path d="M29.502 72.4267L38.127 65.4604V65.9734L29.502 72.9396V72.4267Z" fill="#6BDAFF"/>
<path d="M29.502 72.4267L29.1878 72.0377L29.002 72.1878V72.4267H29.502ZM38.127 65.4604H38.627V64.4139L37.8128 65.0715L38.127 65.4604ZM38.127 65.9734L38.4412 66.3623L38.627 66.2122V65.9734H38.127ZM29.502 72.9396H29.002V73.9861L29.8161 73.3286L29.502 72.9396ZM29.502 72.4267L29.8161 72.8157L38.4412 65.8494L38.127 65.4604L37.8128 65.0715L29.1878 72.0377L29.502 72.4267ZM38.127 65.4604H37.627V65.9734H38.127H38.627V65.4604H38.127ZM38.127 65.9734L37.8128 65.5844L29.1878 72.5506L29.502 72.9396L29.8161 73.3286L38.4412 66.3623L38.127 65.9734ZM29.502 72.9396H30.002V72.4267H29.502H29.002V72.9396H29.502Z" fill="#00402A" mask="url(#path-65-inside-17_99_20040)"/>
<path d="M48.8701 63.4951V73.0967H40.7412V63.4951H48.8701Z" fill="#6BDAFF" stroke="#00402A" stroke-width="0.5"/>
<path d="M48.8696 67.6426L42.1167 73.0967H40.7446V72.8154L48.8696 66.252V67.6426Z" fill="#00402A" stroke="#00402A" stroke-width="0.5"/>
<path d="M45.3105 63.4917L40.7451 67.1782V65.7876L43.585 63.4917H45.3105Z" fill="#00402A" stroke="#00402A" stroke-width="0.5"/>
<mask id="path-70-inside-18_99_20040" fill="white">
<path d="M41.51 63.2417L40.4951 64.0638V63.5509L40.8734 63.2417H41.51Z"/>
</mask>
<path d="M41.51 63.2417L40.4951 64.0638V63.5509L40.8734 63.2417H41.51Z" fill="#6BDAFF"/>
<path d="M41.51 63.2417L41.8248 63.6302L42.9217 62.7417H41.51V63.2417ZM40.4951 64.0638H39.9951V65.1123L40.8098 64.4523L40.4951 64.0638ZM40.4951 63.5509L40.1787 63.1637L39.9951 63.3138V63.5509H40.4951ZM40.8734 63.2417V62.7417H40.6951L40.557 62.8545L40.8734 63.2417ZM41.51 63.2417L41.1953 62.8532L40.1804 63.6753L40.4951 64.0638L40.8098 64.4523L41.8248 63.6302L41.51 63.2417ZM40.4951 64.0638H40.9951V63.5509H40.4951H39.9951V64.0638H40.4951ZM40.4951 63.5509L40.8115 63.938L41.1899 63.6288L40.8734 63.2417L40.557 62.8545L40.1787 63.1637L40.4951 63.5509ZM40.8734 63.2417V63.7417H41.51V63.2417V62.7417H40.8734V63.2417Z" fill="#00402A" mask="url(#path-70-inside-18_99_20040)"/>
<path d="M64.9951 56.7617C66.2613 56.7618 67.2881 57.7885 67.2881 59.0547C67.288 60.3208 66.2612 61.3476 64.9951 61.3477C63.7289 61.3477 62.7023 60.3208 62.7021 59.0547C62.7021 57.7884 63.7289 56.7617 64.9951 56.7617Z" fill="#00402A" stroke="#00402A" stroke-width="0.5"/>
<path d="M68.1313 76.7363V91.9912H61.8618V76.7363H68.1313Z" fill="#3CC2FF" stroke="#00402A" stroke-width="0.5"/>
<path d="M68.6313 91.9912V76.7363H68.9536V91.9912H68.6313Z" fill="#6BDAFF" stroke="#00402A" stroke-width="0.5"/>
<path d="M3.2583 1.54492C4.76919 0.049352 6.65127 0.00458661 8.46826 0.62793C10.2922 1.25368 12.0088 2.54318 13.1001 3.63672C14.2567 4.79693 15.2599 5.07372 16.2329 5.26367C17.1915 5.45077 18.0752 5.55214 19.1167 6.31738C20.1208 7.05523 20.4546 8.25701 20.5796 9.56641C20.6419 10.2192 20.6511 10.8764 20.6733 11.502C20.6953 12.1183 20.7301 12.7108 20.8521 13.1973C20.9727 13.6783 21.1998 14.2268 21.4634 14.8066C21.5959 15.098 21.739 15.4016 21.8853 15.7109C22.0318 16.0209 22.1819 16.3375 22.3276 16.6592C22.9146 17.9547 23.4214 19.2922 23.4214 20.4912V29.2051C23.3869 28.7146 23.3358 28.1785 23.2573 27.625C22.9893 25.7353 22.4055 23.5667 21.103 22.3311C20.5326 21.7906 19.6737 21.6303 18.8022 21.4922C17.9033 21.3497 16.9431 21.227 16.0317 20.8184C15.1625 20.4281 14.6191 19.6566 14.1304 18.8096C13.8932 18.3984 13.6572 17.9496 13.4175 17.5615C13.1743 17.1678 12.9047 16.7984 12.5708 16.5244L12.4106 16.4014C11.5927 15.8121 10.5566 15.6269 9.62549 15.4531C8.59662 15.2611 7.70909 15.0838 7.13428 14.5205C6.27027 13.6739 5.98301 12.7397 5.8335 11.8828C5.79593 11.6675 5.76716 11.4579 5.73975 11.2539C5.71254 11.0515 5.68666 10.8516 5.65479 10.665C5.59194 10.2974 5.50102 9.93986 5.30322 9.65918C5.21335 9.53169 5.06192 9.35197 4.88428 9.14258C4.70269 8.92853 4.48492 8.67294 4.25244 8.38281C3.78703 7.80196 3.26713 7.0884 2.8667 6.31152C2.46549 5.5331 2.19217 4.70696 2.20361 3.89648C2.21494 3.09515 2.50388 2.29174 3.2583 1.54492Z" fill="#3CC2FF" stroke="#00402A" stroke-width="0.5"/>
<path d="M26.1016 30.2529L27.3516 48.5303H19.2598L20.5098 30.2529H26.1016Z" fill="#3CC2FF" stroke="#00402A" stroke-width="0.5"/>
<path d="M20.1714 29.7524V29.519H26.4409V29.7524H20.1714Z" fill="#6BDAFF" stroke="#00402A" stroke-width="0.5"/>
<path opacity="0.1" d="M20.1714 29.7524V29.519H26.4409V29.7524H20.1714Z" fill="#6BDAFF" stroke="#00402A" stroke-width="0.5"/>
<path d="M27.8306 43.8354V44.3638H18.9175V43.8354H27.8306Z" fill="#6BDAFF" stroke="#00402A" stroke-width="0.5"/>
<path opacity="0.1" d="M27.8306 43.8354V44.3638H18.9175V43.8354H27.8306Z" fill="#6BDAFF" stroke="#00402A" stroke-width="0.5"/>
<path d="M27.8306 42.0239V42.5522H18.9175V42.0239H27.8306Z" fill="#6BDAFF" stroke="#00402A" stroke-width="0.5"/>
<path opacity="0.1" d="M27.8306 42.0239V42.5522H18.9175V42.0239H27.8306Z" fill="#6BDAFF" stroke="#00402A" stroke-width="0.5"/>
<path d="M27.8306 40.2095V40.7378H18.9175V40.2095H27.8306Z" fill="#6BDAFF" stroke="#00402A" stroke-width="0.5"/>
<path opacity="0.1" d="M27.8306 40.2095V40.7378H18.9175V40.2095H27.8306Z" fill="#6BDAFF" stroke="#00402A" stroke-width="0.5"/>
</svg>
