<svg width="129" height="76" viewBox="0 0 129 76" fill="none" xmlns="http://www.w3.org/2000/svg">
<path d="M98.2847 0.25L124.31 18.7314L81.7671 23.8701L55.561 0.25H98.2847Z" fill="#00A443" stroke="#00402A" stroke-width="0.5"/>
<path d="M81.4458 21.0894V75.5776H28.7017V21.0903L55.1528 3.1792L81.4458 21.0894Z" fill="#00A443" stroke="#00402A" stroke-width="0.5"/>
<path d="M81.4341 19.0312V23.6465L55.2144 5.02539L55.0698 4.92285L54.9253 5.02539L28.7017 23.6475V19.0312L55.0688 0.306641L81.4341 19.0312Z" fill="#008C39" stroke="#00402A" stroke-width="0.5"/>
<path d="M124.733 19.1533V23.8828H81.9346V19.1533H124.733Z" fill="#00402A" stroke="#00402A" stroke-width="0.5"/>
<path d="M124.733 24.3818V75.5771H81.9346V24.3818H124.733Z" fill="#00A443" stroke="#00402A" stroke-width="0.5"/>
<path d="M72.6538 50.0771V75.5771H36.981V50.0771H72.6538Z" fill="#00A443" stroke="#00402A" stroke-width="0.5"/>
<path d="M54.4585 32.0459L72.2397 44.6748L36.8169 49.5625L18.8696 32.0459H54.4585Z" fill="#00A443" stroke="#00402A" stroke-width="0.5"/>
<path d="M36.4854 46.3955V75.5781H0.25V46.3955L18.4219 35.4561L36.4854 46.3955Z" fill="#00A443" stroke="#00402A" stroke-width="0.5"/>
<path d="M36.4814 44.9668V49.3438L18.5107 36.583L18.3652 36.4805L18.2207 36.583L0.25 49.3438V44.9658L18.3652 32.1025L36.4814 44.9668Z" fill="#00402A" stroke="#00402A" stroke-width="0.5"/>
<path d="M72.6538 45.0859V49.5771H36.981V45.0859H72.6538Z" fill="#00402A" stroke="#00402A" stroke-width="0.5"/>
<path d="M18.0737 53.6875H18.438C21.4173 53.6875 23.8218 56.0554 23.8218 58.9609V75.5781H12.6938V58.9609C12.6938 56.0517 15.0982 53.6875 18.0737 53.6875Z" fill="#00402A" stroke="#00402A" stroke-width="0.5"/>
<path d="M19.0298 53.6875H19.3374C21.7763 53.6875 23.8218 56.0133 23.8218 58.9609V75.5781H14.5464V58.9609C14.5464 56.0097 16.5873 53.6877 19.0298 53.6875Z" fill="#008C39" stroke="#00402A" stroke-width="0.5"/>
<path d="M56.061 53.6914H56.4253C59.4007 53.6915 61.8052 56.0556 61.8052 58.9648V68.8857H50.6812V58.9648C50.6812 56.0592 53.0856 53.6914 56.061 53.6914Z" fill="#00402A" stroke="#00402A" stroke-width="0.5"/>
<path d="M55.1646 53.6914H55.4722C57.9148 53.6914 59.9556 56.0135 59.9556 58.9648V68.8857H50.6812V58.9648C50.6812 56.0172 52.7221 53.6916 55.1646 53.6914Z" fill="#008C39" stroke="#00402A" stroke-width="0.5"/>
<path d="M105.68 53.6914H106.044C109.024 53.6915 111.427 56.0558 111.427 58.9648V66.7354H100.296V58.9648C100.296 56.0593 102.701 53.6914 105.68 53.6914Z" fill="#00402A" stroke="#00402A" stroke-width="0.5"/>
<path d="M104.78 53.6914H105.087C107.53 53.6914 109.571 56.0135 109.571 58.9648V66.7354H100.296V58.9648C100.296 56.0172 102.337 53.6916 104.78 53.6914Z" fill="#008C39" stroke="#00402A" stroke-width="0.5"/>
<path d="M54.1289 16.3286H54.4932C57.4726 16.3287 59.876 18.6929 59.876 21.5981V27.02H48.7451V21.5981C48.7451 18.6929 51.1531 16.3286 54.1289 16.3286Z" fill="#00402A" stroke="#00402A" stroke-width="0.5"/>
<path d="M55.085 16.3286H55.3926C57.8353 16.3286 59.877 18.6506 59.877 21.5981V27.02H50.6016V21.5981C50.6016 18.6508 52.6423 16.3288 55.085 16.3286Z" fill="#008C39" stroke="#00402A" stroke-width="0.5"/>
<path d="M105.68 33.6123H106.044C109.024 33.6124 111.427 35.9767 111.427 38.8857V44.3076H100.296V38.8857C100.296 35.9802 102.701 33.6123 105.68 33.6123Z" fill="#00402A" stroke="#00402A" stroke-width="0.5"/>
<path d="M104.78 33.6123H105.087C107.53 33.6123 109.571 35.9344 109.571 38.8857V44.3076H100.296V38.8857C100.296 35.9381 102.337 33.6125 104.78 33.6123Z" fill="#008C39" stroke="#00402A" stroke-width="0.5"/>
<path d="M100.893 59.9326C107.181 59.9327 112.288 64.864 112.423 70.9854H89.3628C89.4983 64.864 94.6052 59.9326 100.893 59.9326Z" fill="#00402A" stroke="#00402A" stroke-width="0.5"/>
<path d="M117.828 64.6704C121.447 64.6707 124.387 67.4805 124.521 70.9849H111.134C111.268 67.4804 114.209 64.6704 117.828 64.6704Z" fill="#00A443" stroke="#00402A" stroke-width="0.5"/>
<path d="M69.6665 64.0864C73.6308 64.0865 76.8523 67.1718 76.9868 71.0151H62.3462C62.4807 67.1718 65.7022 64.0864 69.6665 64.0864Z" fill="#00402A" stroke="#00402A" stroke-width="0.5"/>
<path d="M58.7788 67.1309C61.0305 67.1309 62.8607 68.8507 62.9927 71.0146H54.5659C54.6979 68.8508 56.5272 67.1309 58.7788 67.1309Z" fill="#00A443" stroke="#00402A" stroke-width="0.5"/>
<path d="M128.548 69.3857V75.5771H93.418V69.3857H128.548Z" fill="#00A443" stroke="#00402A" stroke-width="0.5"/>
<path d="M92.9175 69.3857V75.5771H86.9722V69.3857H92.9175Z" fill="#00A443" stroke="#00402A" stroke-width="0.5"/>
<path d="M77.2549 69.3857V75.5771H50.6357V69.3857H77.2549Z" fill="#00A443" stroke="#00402A" stroke-width="0.5"/>
<path d="M50.1353 69.3857V75.5771H44.1899V69.3857H50.1353Z" fill="#00A443" stroke="#00402A" stroke-width="0.5"/>
</svg>
