<svg width="142" height="90" viewBox="0 0 142 90" fill="none" xmlns="http://www.w3.org/2000/svg">
<path d="M136.233 43.5054V89.4556H67.458V43.5054H136.233Z" fill="#5BD38C" stroke="#00402A" stroke-width="0.5"/>
<path d="M72.4507 45.7275H1.82275L37.1362 7.86816L72.4507 45.7275Z" fill="#00402A" stroke="#00402A" stroke-width="0.5"/>
<path d="M72.0269 7.75439V89.4526H10.0054V41.98L33.3706 16.9341L41.9312 7.75342L72.0269 7.75439Z" fill="#5BD38C" stroke="#00402A" stroke-width="0.5"/>
<path d="M107.662 6.81592L110.964 10.3589L111.81 11.2651L115.941 15.6899V15.6909L116.785 16.6011H116.786L120.911 21.0278L121.756 21.9351H121.757L125.888 26.3608L126.734 27.2681L130.86 31.6938L131.706 32.6011L135.836 37.0269L136.683 37.9341L141.546 43.145V45.5669H73.439L70.9282 42.8755L65.9976 37.5913L65.1519 36.6841L61.02 32.2583L60.1743 31.3511L56.0493 26.9253L55.2026 26.0181L51.0718 21.5923L50.2261 20.6851L46.1001 16.2593L45.2544 15.3511V15.3501L41.1226 10.9243L40.2769 10.0171L37.2925 6.81592H107.662Z" fill="#5BD38C" stroke="#00402A" stroke-width="0.5"/>
<path d="M103.428 23.1299L119.145 40.085H88.9243L73.1899 23.1299H103.428Z" fill="#5BD38C" stroke="#00402A" stroke-width="0.5"/>
<path d="M83.8726 24.0713L88.0571 28.5947H79.8901L75.7007 24.0713H83.8726Z" fill="#00402A" stroke="#00402A" stroke-width="0.5"/>
<path d="M88.8965 29.4087L93.0811 33.9321H84.9141L80.7246 29.4087H88.8965Z" fill="#26BF64" stroke="#00402A" stroke-width="0.5"/>
<path d="M93.9199 34.7466L98.1045 39.27H89.9375L85.748 34.7466H93.9199Z" fill="#00402A" stroke="#00402A" stroke-width="0.5"/>
<path d="M93.292 24.0713L97.4766 28.5947H89.3096L85.1201 24.0713H93.292Z" fill="#26BF64" stroke="#00402A" stroke-width="0.5"/>
<path d="M98.3159 29.4087L102.5 33.9321H94.3335L90.144 29.4087H98.3159Z" fill="#00402A" stroke="#00402A" stroke-width="0.5"/>
<path d="M103.339 34.7466L107.524 39.27H99.3569L95.1675 34.7466H103.339Z" fill="#26BF64" stroke="#00402A" stroke-width="0.5"/>
<path d="M102.711 24.0713L106.896 28.5947H98.729L94.5396 24.0713H102.711Z" fill="#00402A" stroke="#00402A" stroke-width="0.5"/>
<path d="M107.735 29.4087L111.92 33.9321H103.753L99.5635 29.4087H107.735Z" fill="#26BF64" stroke="#00402A" stroke-width="0.5"/>
<path d="M112.759 34.7466L116.943 39.27H108.776L104.587 34.7466H112.759Z" fill="#00402A" stroke="#00402A" stroke-width="0.5"/>
<path d="M83.9678 1.57373L99.6846 18.5288H69.4639L53.7295 1.57373H83.9678Z" fill="#5BD38C" stroke="#00402A" stroke-width="0.5"/>
<path d="M64.4121 2.5166L68.5967 7.04004H60.4297L56.2402 2.5166H64.4121Z" fill="#26BF64" stroke="#00402A" stroke-width="0.5"/>
<path d="M69.436 7.85254L73.6206 12.376H65.4536L61.2642 7.85254H69.436Z" fill="#00402A" stroke="#00402A" stroke-width="0.5"/>
<path d="M74.4595 13.1904L78.644 17.7139H70.4771L66.2876 13.1904H74.4595Z" fill="#26BF64" stroke="#00402A" stroke-width="0.5"/>
<path d="M73.8315 2.5166L78.0161 7.04004H69.8491L65.6597 2.5166H73.8315Z" fill="#00402A" stroke="#00402A" stroke-width="0.5"/>
<path d="M78.8555 7.85254L83.04 12.376H74.873L70.6836 7.85254H78.8555Z" fill="#26BF64" stroke="#00402A" stroke-width="0.5"/>
<path d="M83.8789 13.1904L88.0635 17.7139H79.8965L75.707 13.1904H83.8789Z" fill="#00402A" stroke="#00402A" stroke-width="0.5"/>
<path d="M83.251 2.5166L87.4355 7.04004H79.2686L75.0791 2.5166H83.251Z" fill="#26BF64" stroke="#00402A" stroke-width="0.5"/>
<path d="M88.2749 7.85254L92.4595 12.376H84.2925L80.103 7.85254H88.2749Z" fill="#00402A" stroke="#00402A" stroke-width="0.5"/>
<path d="M93.2983 13.1904L97.4829 17.7139H89.3159L85.1265 13.1904H93.2983Z" fill="#26BF64" stroke="#00402A" stroke-width="0.5"/>
<path d="M141.546 43.457V45.7266H73.4375L71.3203 43.457H141.546Z" fill="#5BD38C" stroke="#00402A" stroke-width="0.5"/>
<path d="M37.1377 6.85303C37.2285 6.85308 37.3184 6.87096 37.4023 6.90576C37.4865 6.94071 37.5636 6.99258 37.6279 7.05713V7.05615L73.6982 45.728H71.8857L37.3203 8.67139L37.1377 8.4751L36.9541 8.67139L2.38867 45.728H0.575195L36.6465 7.05615L36.6475 7.05713C36.7118 6.99258 36.788 6.94071 36.8721 6.90576C36.9561 6.87086 37.0467 6.85303 37.1377 6.85303Z" fill="#5BD38C" stroke="#00402A" stroke-width="0.5"/>
<path d="M138.047 46.2266V47.959H8.70752V46.2266H138.047Z" fill="#5BD38C" stroke="#00402A" stroke-width="0.5"/>
<path d="M138.047 46.2266V47.959H72.6743V46.2266H138.047Z" fill="#5BD38C" stroke="#00402A" stroke-width="0.5"/>
<path d="M37.8472 28.5581C38.9324 28.3426 40.0576 28.4535 41.0796 28.8774C42.1016 29.3014 42.9749 30.0193 43.5894 30.9399C44.2037 31.8605 44.532 32.9424 44.5317 34.0493C44.532 35.4241 44.0262 36.7516 43.1108 37.7769C42.1954 38.8021 40.9342 39.4537 39.5688 39.6079H39.5679C39.3568 39.6322 39.1446 39.6443 38.9321 39.645C37.8261 39.6441 36.745 39.316 35.8257 38.7007C34.9061 38.0851 34.1899 37.21 33.7671 36.187C33.3444 35.1642 33.2343 34.0391 33.4507 32.9536C33.6671 31.868 34.2002 30.8708 34.9829 30.0884C35.7655 29.3061 36.7622 28.7737 37.8472 28.5581Z" fill="#26BF64" stroke="#00402A" stroke-width="0.5"/>
<path d="M126.547 60.6631V89.4531H111.27V60.6631H126.547Z" fill="#5BD38C" stroke="#00402A" stroke-width="0.5"/>
<path d="M127.46 59.7505V89.4536H126.129V61.0288H111.27V59.7505H127.46Z" fill="#26BF64" stroke="#00402A" stroke-width="0.5"/>
<path d="M101.293 60.6616V77.8159H94.1318V60.6616H101.293Z" fill="#00402A" stroke="#00402A" stroke-width="0.5"/>
<path d="M102.205 59.75V77.8174H100.874V61.0283H94.1318V59.75H102.205Z" fill="#26BF64" stroke="#00402A" stroke-width="0.5"/>
<path d="M84.9092 60.6616V77.8159H77.748V60.6616H84.9092Z" fill="#00402A" stroke="#00402A" stroke-width="0.5"/>
<path d="M85.8228 59.75V77.8174H84.4907V61.0283H77.7485V59.75H85.8228Z" fill="#26BF64" stroke="#00402A" stroke-width="0.5"/>
<path d="M62.5474 60.6631V89.4531H18.5747V60.6631H62.5474Z" fill="#26BF64" stroke="#00402A" stroke-width="0.5"/>
<path d="M62.5474 63.7256V63.79H18.5747V63.7256H62.5474Z" fill="#5BD38C" stroke="#00402A" stroke-width="0.5"/>
<path d="M62.5474 67.4106V67.4751H18.5747V67.4106H62.5474Z" fill="#5BD38C" stroke="#00402A" stroke-width="0.5"/>
<path d="M62.5474 71.0928V71.1572H18.5747V71.0928H62.5474Z" fill="#5BD38C" stroke="#00402A" stroke-width="0.5"/>
<path d="M62.5474 74.7773V74.8418H18.5747V74.7773H62.5474Z" fill="#5BD38C" stroke="#00402A" stroke-width="0.5"/>
<path d="M62.5474 78.4614V78.5259H18.5747V78.4614H62.5474Z" fill="#5BD38C" stroke="#00402A" stroke-width="0.5"/>
<path d="M62.5474 82.1479V82.2124H18.5747V82.1479H62.5474Z" fill="#5BD38C" stroke="#00402A" stroke-width="0.5"/>
<path d="M62.5474 85.8301V85.8945H18.5747V85.8301H62.5474Z" fill="#5BD38C" stroke="#00402A" stroke-width="0.5"/>
<path d="M62.5474 59.7505V61.0288H19.0337V89.4536H17.6665V59.7505H62.5474Z" fill="#5BD38C" stroke="#00402A" stroke-width="0.5"/>
<path d="M122.091 64.8867V73.9375H115.112V64.8867H122.091Z" fill="#26BF64" stroke="#00402A" stroke-width="0.5"/>
<path d="M117.336 3.99268V16.9497H108.16L104.867 13.4194V3.99268H117.336Z" fill="#5BD38C" stroke="#00402A" stroke-width="0.5"/>
<path d="M107.8 3.99268V16.564L104.867 13.4194V3.99268H107.8Z" fill="#5BD38C" stroke="#00402A" stroke-width="0.5"/>
<path d="M118.079 0.25V3.74902H104.122V0.25H118.079Z" fill="#5BD38C" stroke="#00402A" stroke-width="0.5"/>
<path d="M107.821 0.25V3.74902H104.122V0.25H107.821Z" fill="#5BD38C" stroke="#00402A" stroke-width="0.5"/>
</svg>
