<svg width="93" height="89" viewBox="0 0 93 89" fill="none" xmlns="http://www.w3.org/2000/svg">
<path d="M23.3633 8.50879H20.6506V21.2165H23.3633V8.50879Z" fill="#008C39"/>
<path d="M21.3608 7.74316H22.6626C22.8484 7.74316 23.0267 7.81699 23.1581 7.9484C23.2895 8.07981 23.3633 8.25805 23.3633 8.44389V11.7125H20.6506V8.45336C20.6506 8.265 20.7255 8.08436 20.8586 7.95118C20.9918 7.81799 21.1725 7.74316 21.3608 7.74316Z" fill="#FFCD52"/>
<path d="M32.9362 8.50879H30.2235V21.2165H32.9362V8.50879Z" fill="#008C39"/>
<path d="M30.9337 7.74316H32.2355C32.4213 7.74316 32.5995 7.81699 32.7309 7.9484C32.8624 8.07981 32.9362 8.25805 32.9362 8.44389V11.7125H30.2235V8.45336C30.2235 8.265 30.2983 8.08436 30.4315 7.95118C30.5647 7.81799 30.7454 7.74316 30.9337 7.74316Z" fill="#FFCD52"/>
<path d="M25.9164 58.4751V40.3262H28.1727V58.4751C28.1727 62.8365 31.7084 66.3721 36.0698 66.3721H43.4707V68.6285H36.0698C30.4622 68.6285 25.9164 64.0826 25.9164 58.4751Z" fill="#00402A"/>
<path d="M16.3143 21.2168V34.2092C16.3209 36.4241 17.2037 38.5465 18.7699 40.1127C20.3362 41.6789 22.4585 42.5617 24.6734 42.5683H28.9134C31.1284 42.5619 33.2509 41.6791 34.8171 40.1128C36.3833 38.5466 37.2661 36.4242 37.2726 34.2092V21.2168H16.3143Z" fill="#00A443"/>
<path d="M32.8939 38.3517L32.6349 38.2486C33.0873 37.0868 33.3172 35.8503 33.3128 34.6035V22.8633H33.5913V34.6035C33.5956 35.8855 33.3591 37.157 32.8939 38.3517Z" fill="#FFFEFF"/>
<path d="M20.6936 38.3517C20.2282 37.157 19.9916 35.8856 19.9962 34.6035V22.8633H20.2747V34.6035C20.2704 35.8502 20.5001 37.0867 20.952 38.2486L20.6936 38.3517Z" fill="#FFFEFF"/>
<path d="M38.5732 17.4785H15.0142C14.6272 17.4785 14.3135 17.7922 14.3135 18.1792V20.5165C14.3135 20.9035 14.6272 21.2172 15.0142 21.2172H38.5732C38.9602 21.2172 39.2739 20.9035 39.2739 20.5165V18.1792C39.2739 17.7922 38.9602 17.4785 38.5732 17.4785Z" fill="#5BD38C"/>
<path d="M37.2726 21.2168H16.3143V21.4953H37.2726V21.2168Z" fill="#FFFEFF"/>
<path d="M24.4106 34.4568C25.116 34.9281 25.9452 35.1796 26.7935 35.1796C27.9305 35.178 29.0205 34.7256 29.8245 33.9216C30.6285 33.1176 31.0809 32.0276 31.0825 30.8906C31.0825 30.0423 30.831 29.2131 30.3597 28.5077C29.8884 27.8024 29.2185 27.2527 28.4348 26.928C27.6511 26.6034 26.7887 26.5185 25.9567 26.684C25.1248 26.8495 24.3605 27.258 23.7607 27.8578C23.1609 28.4576 22.7524 29.2219 22.5869 30.0538C22.4214 30.8858 22.5063 31.7482 22.8309 32.5319C23.1556 33.3156 23.7053 33.9855 24.4106 34.4568Z" fill="#FFFEFF"/>
<path d="M42.9111 77.173C43.6213 77.2284 44.3315 77.2618 45.0644 77.2618C45.486 77.2618 45.9075 77.2512 46.3185 77.2284V61.0234H42.9111V77.173Z" fill="#D8CFC7"/>
<path d="M46.3185 72.8555V62.1777H42.9111V70.8237L46.3185 72.8555Z" fill="#93D380"/>
<path d="M51.0912 59.4578L26.026 58.0146V59.4578L34.5171 69.8135H59.5716V68.3703L51.0912 59.4578Z" fill="#00402A"/>
<path d="M51.0913 58.0151H26.0261L34.5171 68.3708H59.5717L51.0913 58.0151Z" fill="#0DA9FF"/>
<path d="M47.939 58.0156H46.9728L55.4532 68.3713H56.4186L47.939 58.0156ZM41.7008 58.0156H40.7384L49.2294 68.3713H50.1842L41.7008 58.0156ZM35.4626 58.0156H34.4972L42.9882 68.3713H43.9544L35.4626 58.0156ZM29.2252 58.0156H28.259L36.75 68.3713H37.7162L29.2252 58.0156Z" fill="#6BDAFF"/>
<path d="M28.2707 60.7456L28.8784 61.49H53.9435L53.3215 60.7456H28.2707ZM31.0902 64.1871L31.6978 64.9307H56.763L56.1554 64.1871H31.0902Z" fill="#6BDAFF"/>
<path d="M16.8825 77.173C17.5813 77.2284 18.3029 77.2618 19.0244 77.2618C19.446 77.2618 19.8683 77.2512 20.2784 77.2284V61.0234H16.8825V77.173Z" fill="#D8CFC7"/>
<path d="M20.2784 72.8555V62.1777H16.8817V70.8237L20.2784 72.8555Z" fill="#93D380"/>
<path d="M25.0517 59.4578L0.000160217 58.0146V59.4578L8.48055 69.8135H33.5457V68.3703L25.0517 59.4578Z" fill="#00402A"/>
<path d="M25.0515 58.0151H3.8147e-05L8.48043 68.3708H33.5456L25.0515 58.0151Z" fill="#0DA9FF"/>
<path d="M21.9014 58.0156H20.9353L29.427 68.3713H30.3924L21.9014 58.0156ZM15.6632 58.0156H14.6978L23.1888 68.3713H24.1542L15.6632 58.0156ZM9.42503 58.0156H8.45737L16.9484 68.3713H17.9145L9.42503 58.0156ZM3.18761 58.0156H2.22145L10.7125 68.3713H11.6786L3.18761 58.0156Z" fill="#6BDAFF"/>
<path d="M2.22918 60.7456L2.83682 61.49H27.902L27.2943 60.7456H2.22918ZM5.04863 64.1871L5.66994 64.9307H30.723L30.1153 64.1871H5.04863Z" fill="#6BDAFF"/>
<path d="M51.8793 88.5387C52.5902 88.5941 53.3004 88.6276 54.0326 88.6276C54.4549 88.6276 54.8765 88.6169 55.2874 88.5941V72.3892H51.8793V88.5387Z" fill="#D8CFC7"/>
<path d="M55.2874 84.221V73.5425H51.88V82.1892L55.2874 84.221Z" fill="#00A443"/>
<path d="M60.0602 70.8235L34.995 69.3804V70.8235L43.4883 81.18H68.5383V79.7368L60.0602 70.8235Z" fill="#00402A"/>
<path d="M60.0601 69.3813H34.995L43.4883 79.7371H68.5382L60.0601 69.3813Z" fill="#0DA9FF"/>
<path d="M56.9071 69.3813H55.9417L64.4221 79.7371H65.3875L56.9071 69.3813ZM50.6697 69.3813H49.7012L58.193 79.7371H59.147L50.6697 69.3813ZM44.4315 69.3813H43.4661L51.9571 79.7371H52.9225L44.4315 69.3813ZM38.1933 69.3813H37.2279L45.7189 79.7371H46.6843L38.1933 69.3813Z" fill="#6BDAFF"/>
<path d="M37.2387 72.1118L37.8463 72.8554H62.9115L62.2902 72.1118H37.2387ZM40.0581 75.5526L40.6658 76.2962H65.731L65.1233 75.5526H40.0581Z" fill="#6BDAFF"/>
<path d="M25.8516 88.5387C26.5511 88.5941 27.2727 88.6276 27.9943 88.6276C28.4158 88.6276 28.8374 88.6169 29.2483 88.5941V72.3892H25.8516V88.5387Z" fill="#D8CFC7"/>
<path d="M29.2474 84.221V73.5425H25.8514V82.1892L29.2474 84.221Z" fill="#00A443"/>
<path d="M34.0207 70.8235L8.96918 69.3804V70.8235L17.4496 81.1792H42.5147V79.7361L34.0207 70.8235Z" fill="#00402A"/>
<path d="M34.0207 69.3813H8.96925L17.4496 79.7371H42.5148L34.0207 69.3813Z" fill="#0DA9FF"/>
<path d="M30.8651 69.3813H29.8997L38.3907 79.7371H39.3568L30.8651 69.3813ZM24.6276 69.3813H23.6615L32.1563 79.7371H33.1217L24.6276 69.3813ZM18.3895 69.3813H17.4241L25.9151 79.7371H26.8805L18.3895 69.3813ZM12.1513 69.3813H11.1965L19.6769 79.7371H20.6423L12.1513 69.3813Z" fill="#6BDAFF"/>
<path d="M11.1992 72.1118L11.8069 72.8554H36.872L36.2644 72.1118H11.1992ZM14.0187 75.5526L14.6407 76.2962H39.6922L39.0846 75.5526H14.0187Z" fill="#6BDAFF"/>
<path d="M75.2875 18.2373L74.7276 86.5724H76.9838L76.4238 18.2373H75.2875Z" fill="#DCEBE1"/>
<path d="M75.4748 18.4022C75.4748 18.4022 67.2862 21.5354 66.9688 21.9705C66.6514 22.4055 59.5146 27.2836 59.5146 27.2836L59.978 28.0026C59.978 28.0026 68.9576 23.9224 69.4911 23.6532C70.0245 23.3841 75.879 18.9805 75.879 18.9805L75.4748 18.4022Z" fill="#DCEBE1"/>
<path d="M75.9117 0.316191C75.9117 0.316191 74.5329 8.97137 74.75 9.46452C74.9672 9.95766 75.6245 18.5729 75.6245 18.5729L76.4792 18.5295C76.4792 18.5295 77.4373 8.71375 77.4699 8.11116C77.5025 7.50857 76.6204 0.237804 76.6204 0.237804L75.9117 0.316191Z" fill="#DCEBE1"/>
<path d="M76.3437 19.058C76.3437 19.058 83.1534 24.58 83.6879 24.6381C84.2225 24.6961 92.0165 28.4333 92.0165 28.4333L92.4015 27.6727C92.4015 27.6727 84.38 21.9372 83.8728 21.6055C83.3737 21.2784 76.629 18.4065 76.629 18.4065L76.3437 19.058Z" fill="#DCEBE1"/>
<path d="M92.4536 28.211C92.3275 28.423 92.0546 28.4978 91.8397 28.3862L91.0467 27.9827L91.648 27.115L92.3245 27.5913C92.521 27.7353 92.5814 28.0053 92.4536 28.211Z" fill="#00A443"/>
<path d="M76.3038 0.106052C76.5514 0.113193 76.7445 0.319514 76.75 0.563639L76.7767 1.45703L75.7285 1.34198L75.8294 0.515948C75.8464 0.279293 76.0562 0.0989115 76.3038 0.106052Z" fill="#00A443"/>
<path d="M59.497 27.7662C59.3772 27.5534 59.4461 27.2821 59.6554 27.1496L60.4026 26.6648L60.8554 27.6188L60.0969 27.9633C59.8806 28.0704 59.6185 27.9853 59.497 27.7662Z" fill="#00A443"/>
<path d="M76.5303 20.7328C77.4206 20.4886 77.9443 19.569 77.7001 18.6788C77.4559 17.7886 76.5363 17.2648 75.6461 17.509C74.7558 17.7532 74.2321 18.6729 74.4763 19.5631C74.7205 20.4533 75.6401 20.977 76.5303 20.7328Z" fill="#00A443"/>
<path d="M72.939 62.6538L72.0587 63.5342L78.9937 70.4692L79.8741 69.5889L72.939 62.6538Z" fill="#FFCD52"/>
<path d="M72.9405 70.1123L72.0602 70.9927L78.9952 77.9277L79.8756 77.0474L72.9405 70.1123Z" fill="#FFCD52"/>
<path d="M72.94 77.9903L72.0596 78.8706L78.9947 85.8057L79.875 84.9253L72.94 77.9903Z" fill="#FFCD52"/>
<path d="M72.7701 62.0312H71.5251V88.6274H72.7701V62.0312Z" fill="#FFB536"/>
<path d="M80.1804 62.0312H78.9354V88.6274H80.1804V62.0312Z" fill="#FFB536"/>
<path d="M80.1804 62.0312H71.5252V63.2762H80.1804V62.0312Z" fill="#FFB536"/>
<path d="M80.1803 69.6699H71.5251V70.9149H80.1803V69.6699Z" fill="#FFB536"/>
<path d="M80.1803 77.3081H71.5251V78.5531H80.1803V77.3081Z" fill="#FFB536"/>
<path d="M80.1803 84.9414H71.5251V88.6274H80.1803V84.9414Z" fill="#FF9C1A"/>
</svg>
