<svg width="125" height="78" viewBox="0 0 125 78" fill="none" xmlns="http://www.w3.org/2000/svg">
<path d="M114.403 7.75391H94.8181V23.488H114.403V7.75391Z" fill="#E3850D"/>
<path d="M101.288 7.75391H94.8181V23.488H101.288V7.75391Z" fill="#FFCD52"/>
<path d="M96.7809 9.26367H95.9809V12.2216H96.7809V9.26367Z" fill="#DCEBE1"/>
<path d="M99.3016 12.6436H98.5017V15.6015H99.3016V12.6436Z" fill="#DCEBE1"/>
<path d="M113.904 7.30511C112.881 3.11404 109.116 0 104.609 0C100.102 0 96.3361 3.11404 95.3137 7.30511H113.9H113.904Z" fill="#FF9C1A"/>
<path d="M115.62 4.52246H93.5968V7.75357H115.62V4.52246Z" fill="#699282"/>
<path d="M115.621 4.52246H102.209V7.75357H115.621V4.52246Z" fill="#00402A"/>
<path d="M39.3717 7.75391H19.7868V23.488H39.3717V7.75391Z" fill="#E3850D"/>
<path d="M26.2566 7.75391H19.7868V23.488H26.2566V7.75391Z" fill="#FFCD52"/>
<path d="M21.7534 9.26367H20.9535V12.2216H21.7534V9.26367Z" fill="#DCEBE1"/>
<path d="M24.2743 12.6436H23.4744V15.6015H24.2743V12.6436Z" fill="#DCEBE1"/>
<path d="M38.8722 7.30511C37.8499 3.11404 34.0843 0 29.5773 0C25.0703 0 21.3048 3.11404 20.2824 7.30511H38.8683H38.8722Z" fill="#FF9C1A"/>
<path d="M40.5931 4.52246H18.5693V7.75357H40.5931V4.52246Z" fill="#699282"/>
<path d="M40.5892 4.52246H27.2048V7.75357H40.5892V4.52246Z" fill="#00402A"/>
<path d="M105.967 24.3193H21.3096V40.3071H105.967V24.3193Z" fill="#FFF5EC"/>
<path d="M105.967 37.1152H20.9536V40.3112H105.967V37.1152Z" fill="#00402A"/>
<path d="M105.967 24.3193H20.9536V27.0431H105.967V24.3193Z" fill="#00402A"/>
<path d="M30.4368 28.0029H29.6369V35.1988H30.4368V28.0029Z" fill="#89837E"/>
<path d="M32.6063 28.0029H31.8064V35.1988H32.6063V28.0029Z" fill="#89837E"/>
<path d="M34.776 28.0029H33.976V35.1988H34.776V28.0029Z" fill="#89837E"/>
<path d="M49.1553 28.0029H48.3554V35.1988H49.1553V28.0029Z" fill="#89837E"/>
<path d="M51.3251 28.0029H50.5251V35.1988H51.3251V28.0029Z" fill="#89837E"/>
<path d="M53.4945 28.0029H52.6946V35.1988H53.4945V28.0029Z" fill="#89837E"/>
<path d="M69.2007 28.0029H68.4008V35.1988H69.2007V28.0029Z" fill="#89837E"/>
<path d="M71.3742 28.0029H70.5743V35.1988H71.3742V28.0029Z" fill="#89837E"/>
<path d="M73.5438 28.0029H72.7439V35.1988H73.5438V28.0029Z" fill="#89837E"/>
<path d="M89.25 28.0029H88.45V35.1988H89.25V28.0029Z" fill="#89837E"/>
<path d="M91.4196 28.0029H90.6197V35.1988H91.4196V28.0029Z" fill="#89837E"/>
<path d="M93.5892 28.0029H92.7893V35.1988H93.5892V28.0029Z" fill="#89837E"/>
<path d="M24.1894 77.3243H0L18.4806 24.3193H24.1894V77.3243Z" fill="#DCEBE1"/>
<path d="M27.6936 77.3243H3.50415L21.9886 24.3193H27.6936V77.3243Z" fill="#89837E"/>
<path d="M27.6935 25.7983V24.3193H18.4805L17.9655 25.7983H27.6935Z" fill="#89837E"/>
<path d="M36.4187 77.3243H7.74963L27.8184 40.229H36.4187V77.3243Z" fill="#6BDAFF"/>
<g style="mix-blend-mode:soft-light">
<path d="M26.2926 45.8285C27.3033 44.0061 28.3178 42.1798 29.3285 40.3574" stroke="#DCEBE1" stroke-width="0.8" stroke-miterlimit="10"/>
<path d="M21.9066 53.7269C22.9172 51.9045 23.9318 50.0782 24.9424 48.2559" stroke="#DCEBE1" stroke-width="0.8" stroke-miterlimit="10"/>
<path d="M15.4993 65.2777C16.0612 64.2631 16.6231 63.2524 17.185 62.2378" stroke="#DCEBE1" stroke-width="0.8" stroke-miterlimit="10"/>
<path d="M9.75525 75.6187C10.9961 73.3827 12.237 71.1467 13.4779 68.9106" stroke="#DCEBE1" stroke-width="0.8" stroke-miterlimit="10"/>
<path d="M28.033 45.8909C29.0553 44.0451 30.0816 42.2032 31.1039 40.3574" stroke="#DCEBE1" stroke-width="0.8" stroke-miterlimit="10"/>
<path d="M22.2305 56.3451C23.5962 53.8866 24.962 51.4243 26.3277 48.9658" stroke="#DCEBE1" stroke-width="0.8" stroke-miterlimit="10"/>
<path d="M17.1108 65.5666C18.5898 62.9013 20.0687 60.2361 21.5476 57.5747" stroke="#DCEBE1" stroke-width="0.8" stroke-miterlimit="10"/>
<path d="M27.1315 50.7105C28.3724 48.4784 29.6094 46.2463 30.8503 44.0103" stroke="#DCEBE1" stroke-width="0.8" stroke-miterlimit="10"/>
<path d="M22.4021 59.2368C23.3035 57.6134 24.2049 55.9901 25.1063 54.3667" stroke="#DCEBE1" stroke-width="0.8" stroke-miterlimit="10"/>
<path d="M13.2789 75.6695C14.1569 74.0852 15.0348 72.5047 15.9128 70.9204" stroke="#DCEBE1" stroke-width="0.8" stroke-miterlimit="10"/>
<path d="M28.232 51.9282C29.1334 50.3048 30.0348 48.6815 30.9361 47.0581" stroke="#DCEBE1" stroke-width="0.8" stroke-miterlimit="10"/>
<path d="M23.1631 61.0631C24.404 58.8309 25.6409 56.5988 26.8818 54.3628" stroke="#DCEBE1" stroke-width="0.8" stroke-miterlimit="10"/>
<path d="M19.335 67.9549C19.9945 66.7686 20.6539 65.5823 21.3095 64.396" stroke="#DCEBE1" stroke-width="0.8" stroke-miterlimit="10"/>
<path d="M15.0544 75.6699C15.6046 74.6826 16.1509 73.6914 16.7011 72.7041" stroke="#DCEBE1" stroke-width="0.8" stroke-miterlimit="10"/>
<path d="M24.7669 61.3675C25.3405 60.3373 25.9102 59.3071 26.4839 58.2769" stroke="#DCEBE1" stroke-width="0.8" stroke-miterlimit="10"/>
<path d="M16.8298 75.6697C18.9175 71.9118 21.0012 68.1539 23.0889 64.3921" stroke="#DCEBE1" stroke-width="0.8" stroke-miterlimit="10"/>
<path d="M21.3642 70.6981C23.1904 67.4592 24.9659 64.193 26.7296 60.9229" stroke="#DCEBE1" stroke-width="0.8" stroke-miterlimit="10"/>
</g>
<path d="M43.8406 77.3243H19.6512L38.1317 24.3193H43.8406V77.3243Z" fill="#DCEBE1"/>
<path d="M47.3447 77.3243H23.1553L41.6359 24.3193H47.3447V77.3243Z" fill="#89837E"/>
<path d="M47.3447 25.7983V24.3193H38.1318L37.6167 25.7983H47.3447Z" fill="#89837E"/>
<path d="M55.9021 77.3243H27.233L47.3018 40.229H55.9021V77.3243Z" fill="#6BDAFF"/>
<g style="mix-blend-mode:soft-light">
<path d="M45.6044 45.8285C46.615 44.0061 47.6296 42.1798 48.6402 40.3574" stroke="#DCEBE1" stroke-width="0.8" stroke-miterlimit="10"/>
<path d="M41.2223 53.7269C42.233 51.9045 43.2475 50.0782 44.2582 48.2559" stroke="#DCEBE1" stroke-width="0.8" stroke-miterlimit="10"/>
<path d="M34.8111 65.2777C35.373 64.2631 35.9349 63.2524 36.4968 62.2378" stroke="#DCEBE1" stroke-width="0.8" stroke-miterlimit="10"/>
<path d="M29.071 75.6187C30.3119 73.3827 31.5528 71.1467 32.7937 68.9106" stroke="#DCEBE1" stroke-width="0.8" stroke-miterlimit="10"/>
<path d="M47.3448 45.8909C48.3671 44.0451 49.3934 42.2032 50.4157 40.3574" stroke="#DCEBE1" stroke-width="0.8" stroke-miterlimit="10"/>
<path d="M41.5424 56.3451C42.9081 53.8866 44.2739 51.4243 45.6396 48.9658" stroke="#DCEBE1" stroke-width="0.8" stroke-miterlimit="10"/>
<path d="M36.4227 65.5666C37.9016 62.9013 39.3805 60.2361 40.8594 57.5747" stroke="#DCEBE1" stroke-width="0.8" stroke-miterlimit="10"/>
<path d="M46.4473 50.7105C47.6881 48.4784 48.9251 46.2463 50.166 44.0103" stroke="#DCEBE1" stroke-width="0.8" stroke-miterlimit="10"/>
<path d="M41.714 59.2368C42.6154 57.6134 43.5168 55.9901 44.4182 54.3667" stroke="#DCEBE1" stroke-width="0.8" stroke-miterlimit="10"/>
<path d="M32.5946 75.6695C33.4726 74.0852 34.3506 72.5047 35.2286 70.9204" stroke="#DCEBE1" stroke-width="0.8" stroke-miterlimit="10"/>
<path d="M47.5438 51.9282C48.4452 50.3048 49.3466 48.6815 50.248 47.0581" stroke="#DCEBE1" stroke-width="0.8" stroke-miterlimit="10"/>
<path d="M42.4749 61.0631C43.7157 58.8309 44.9527 56.5988 46.1936 54.3628" stroke="#DCEBE1" stroke-width="0.8" stroke-miterlimit="10"/>
<path d="M38.6508 67.9549C39.3102 66.7686 39.9697 65.5823 40.6252 64.396" stroke="#DCEBE1" stroke-width="0.8" stroke-miterlimit="10"/>
<path d="M34.3663 75.6699C34.9165 74.6826 35.4628 73.6914 36.013 72.7041" stroke="#DCEBE1" stroke-width="0.8" stroke-miterlimit="10"/>
<path d="M44.0787 61.3675C44.6523 60.3373 45.222 59.3071 45.7956 58.2769" stroke="#DCEBE1" stroke-width="0.8" stroke-miterlimit="10"/>
<path d="M36.1417 75.6697C38.2293 71.9118 40.3131 68.1539 42.4007 64.3921" stroke="#DCEBE1" stroke-width="0.8" stroke-miterlimit="10"/>
<path d="M40.676 70.6981C42.5022 67.4592 44.2777 64.193 46.0415 60.9229" stroke="#DCEBE1" stroke-width="0.8" stroke-miterlimit="10"/>
</g>
<path d="M63.3552 77.3243H39.1658L57.6464 24.3193H63.3552V77.3243Z" fill="#DCEBE1"/>
<path d="M66.8593 77.3243H42.6699L61.1505 24.3193H66.8593V77.3243Z" fill="#89837E"/>
<path d="M63.3552 24.3193H61.1505H57.6463L57.0922 25.9115H60.5964H63.3552H66.8593V24.3193H63.3552Z" fill="#89837E"/>
<path d="M75.5689 77.3243H46.8998L66.9686 40.229H75.5689V77.3243Z" fill="#6BDAFF"/>
<g style="mix-blend-mode:soft-light">
<path d="M65.5286 45.8285C66.5393 44.0061 67.5538 42.1798 68.5645 40.3574" stroke="#DCEBE1" stroke-width="0.8" stroke-miterlimit="10"/>
<path d="M61.1426 53.7269C62.1533 51.9045 63.1678 50.0782 64.1785 48.2559" stroke="#DCEBE1" stroke-width="0.8" stroke-miterlimit="10"/>
<path d="M54.7314 65.2777C55.2933 64.2631 55.8552 63.2524 56.4171 62.2378" stroke="#DCEBE1" stroke-width="0.8" stroke-miterlimit="10"/>
<path d="M48.9913 75.6187C50.2322 73.3827 51.4731 71.1467 52.714 68.9106" stroke="#DCEBE1" stroke-width="0.8" stroke-miterlimit="10"/>
<path d="M67.2651 45.8909C68.2874 44.0451 69.3137 42.2032 70.3361 40.3574" stroke="#DCEBE1" stroke-width="0.8" stroke-miterlimit="10"/>
<path d="M61.4626 56.3451C62.8284 53.8866 64.1941 51.4243 65.5599 48.9658" stroke="#DCEBE1" stroke-width="0.8" stroke-miterlimit="10"/>
<path d="M56.3469 65.5666C57.8258 62.9013 59.3047 60.2361 60.7836 57.5747" stroke="#DCEBE1" stroke-width="0.8" stroke-miterlimit="10"/>
<path d="M66.3676 50.7105C67.6084 48.4784 68.8454 46.2463 70.0863 44.0103" stroke="#DCEBE1" stroke-width="0.8" stroke-miterlimit="10"/>
<path d="M61.6342 59.2368C62.5356 57.6134 63.437 55.9901 64.3384 54.3667" stroke="#DCEBE1" stroke-width="0.8" stroke-miterlimit="10"/>
<path d="M52.515 75.6695C53.393 74.0852 54.271 72.5047 55.149 70.9204" stroke="#DCEBE1" stroke-width="0.8" stroke-miterlimit="10"/>
<path d="M67.4641 51.9282C68.3655 50.3048 69.2669 48.6815 70.1683 47.0581" stroke="#DCEBE1" stroke-width="0.8" stroke-miterlimit="10"/>
<path d="M62.3951 61.0631C63.636 58.8309 64.873 56.5988 66.1139 54.3628" stroke="#DCEBE1" stroke-width="0.8" stroke-miterlimit="10"/>
<path d="M58.5711 67.9549C59.2306 66.7686 59.8901 65.5823 60.5456 64.396" stroke="#DCEBE1" stroke-width="0.8" stroke-miterlimit="10"/>
<path d="M54.2904 75.6699C54.8406 74.6826 55.3869 73.6914 55.9371 72.7041" stroke="#DCEBE1" stroke-width="0.8" stroke-miterlimit="10"/>
<path d="M63.999 61.3675L65.7159 58.2769" stroke="#DCEBE1" stroke-width="0.8" stroke-miterlimit="10"/>
<path d="M56.0621 75.6697C58.1497 71.9118 60.2335 68.1539 62.3211 64.3921" stroke="#DCEBE1" stroke-width="0.8" stroke-miterlimit="10"/>
<path d="M60.5963 70.6981C62.4225 67.4592 64.198 64.193 65.9618 60.9229" stroke="#DCEBE1" stroke-width="0.8" stroke-miterlimit="10"/>
</g>
<path d="M83.0025 77.3243H58.8131L77.2976 24.3193H83.0025V77.3243Z" fill="#DCEBE1"/>
<path d="M86.5106 77.3243H62.3212L80.8018 24.3193H86.5106V77.3243Z" fill="#89837E"/>
<path d="M86.5105 25.7983V24.3193H77.2975L76.7824 25.7983H86.5105Z" fill="#89837E"/>
<path d="M95.2357 77.3243H66.5667L86.6354 40.229H95.2357V77.3243Z" fill="#6BDAFF"/>
<g style="mix-blend-mode:soft-light">
<path d="M85.1056 45.8285C86.1162 44.0061 87.1308 42.1798 88.1415 40.3574" stroke="#DCEBE1" stroke-width="0.8" stroke-miterlimit="10"/>
<path d="M80.7195 53.7269C81.7302 51.9045 82.7448 50.0782 83.7554 48.2559" stroke="#DCEBE1" stroke-width="0.8" stroke-miterlimit="10"/>
<path d="M74.3123 65.2777C74.8742 64.2631 75.4361 63.2524 75.998 62.2378" stroke="#DCEBE1" stroke-width="0.8" stroke-miterlimit="10"/>
<path d="M68.5722 75.6187C69.8131 73.3827 71.054 71.1467 72.2949 68.9106" stroke="#DCEBE1" stroke-width="0.8" stroke-miterlimit="10"/>
<path d="M86.846 45.8909C87.8683 44.0451 88.8946 42.2032 89.917 40.3574" stroke="#DCEBE1" stroke-width="0.8" stroke-miterlimit="10"/>
<path d="M81.0435 56.3451C82.4093 53.8866 83.7751 51.4243 85.1408 48.9658" stroke="#DCEBE1" stroke-width="0.8" stroke-miterlimit="10"/>
<path d="M75.9239 65.5666C77.4028 62.9013 78.8817 60.2361 80.3607 57.5747" stroke="#DCEBE1" stroke-width="0.8" stroke-miterlimit="10"/>
<path d="M85.9485 50.7105C87.1894 48.4784 88.4264 46.2463 89.6673 44.0103" stroke="#DCEBE1" stroke-width="0.8" stroke-miterlimit="10"/>
<path d="M81.2152 59.2368C82.1166 57.6134 83.018 55.9901 83.9194 54.3667" stroke="#DCEBE1" stroke-width="0.8" stroke-miterlimit="10"/>
<path d="M72.092 75.6695C72.97 74.0852 73.848 72.5047 74.726 70.9204" stroke="#DCEBE1" stroke-width="0.8" stroke-miterlimit="10"/>
<path d="M87.045 51.9282C87.9464 50.3048 88.8478 48.6815 89.7492 47.0581" stroke="#DCEBE1" stroke-width="0.8" stroke-miterlimit="10"/>
<path d="M81.9761 61.0631C83.217 58.8309 84.4539 56.5988 85.6948 54.3628" stroke="#DCEBE1" stroke-width="0.8" stroke-miterlimit="10"/>
<path d="M78.1521 67.9549C78.8115 66.7686 79.471 65.5823 80.1266 64.396" stroke="#DCEBE1" stroke-width="0.8" stroke-miterlimit="10"/>
<path d="M73.8675 75.6699C74.4177 74.6826 74.964 73.6914 75.5142 72.7041" stroke="#DCEBE1" stroke-width="0.8" stroke-miterlimit="10"/>
<path d="M83.5799 61.3675C84.1535 60.3373 84.7233 59.3071 85.2969 58.2769" stroke="#DCEBE1" stroke-width="0.8" stroke-miterlimit="10"/>
<path d="M75.6429 75.6697C77.7306 71.9118 79.8143 68.1539 81.902 64.3921" stroke="#DCEBE1" stroke-width="0.8" stroke-miterlimit="10"/>
<path d="M80.1773 70.6981C82.0035 67.4592 83.779 64.193 85.5427 60.9229" stroke="#DCEBE1" stroke-width="0.8" stroke-miterlimit="10"/>
</g>
<path d="M102.654 77.3243H78.4644L96.9449 24.3193H102.654V77.3243Z" fill="#DCEBE1"/>
<path d="M122.352 77.3243H81.9686L100.449 24.3193H122.352V77.3243Z" fill="#89837E"/>
<path d="M106.158 25.7983V24.3193H96.945L96.4299 25.7983H106.158Z" fill="#89837E"/>
<path d="M101.869 20.3193H16.8298V24.4597H101.869V20.3193Z" fill="#FF9C1A"/>
<path d="M101.881 24.4595L124.139 24.4595V20.3191L101.881 20.3191V24.4595Z" fill="#00402A"/>
</svg>
