<svg width="82" height="88" viewBox="0 0 82 88" fill="none" xmlns="http://www.w3.org/2000/svg">
<g clip-path="url(#clip0_7394_15639)">
<path d="M37.3598 14.8604H38.0915C38.1236 14.8608 38.1554 14.8548 38.1851 14.8427C38.2149 14.8305 38.2419 14.8125 38.2647 14.7896C38.2874 14.7668 38.3053 14.7396 38.3173 14.7096C38.3294 14.6797 38.3354 14.6476 38.3349 14.6153V11.7547C38.335 11.723 38.3286 11.6917 38.3162 11.6625C38.3039 11.6334 38.2857 11.6072 38.263 11.5853C38.2402 11.5635 38.2132 11.5466 38.1837 11.5355C38.1542 11.5245 38.1229 11.5197 38.0915 11.5213H37.3598C37.2972 11.5212 37.237 11.5454 37.1916 11.5889C37.1463 11.6324 37.1193 11.6917 37.1164 11.7547V14.6153C37.1159 14.6476 37.1218 14.6797 37.1339 14.7096C37.146 14.7396 37.1639 14.7668 37.1866 14.7896C37.2093 14.8125 37.2363 14.8305 37.2661 14.8427C37.2959 14.8548 37.3277 14.8608 37.3598 14.8604Z" fill="#89837E"/>
<path d="M36.871 14.7427H38.5777C38.6503 14.7415 38.7196 14.7121 38.7711 14.6605C38.8225 14.6089 38.8521 14.5392 38.8536 14.4661V13.9643C38.8521 13.8911 38.8226 13.8213 38.7712 13.7695C38.7197 13.7177 38.6504 13.688 38.5777 13.6865H36.871C36.7983 13.688 36.7289 13.7177 36.6775 13.7695C36.6261 13.8213 36.5965 13.8911 36.595 13.9643V14.4708C36.5977 14.5431 36.6278 14.6116 36.6791 14.6622C36.7305 14.7127 36.7991 14.7416 36.871 14.7427Z" fill="#89837E"/>
<path d="M36.871 13.398H38.5777C38.6504 13.3965 38.7197 13.3668 38.7712 13.315C38.8226 13.2632 38.8521 13.1935 38.8536 13.1203V12.6195C38.8521 12.5463 38.8226 12.4766 38.7712 12.4248C38.7197 12.373 38.6504 12.3433 38.5777 12.3418H36.871C36.7983 12.3433 36.7289 12.373 36.6775 12.4248C36.6261 12.4766 36.5965 12.5463 36.595 12.6195V13.1203C36.5965 13.1935 36.6261 13.2632 36.6775 13.315C36.7289 13.3668 36.7983 13.3965 36.871 13.398Z" fill="#89837E"/>
<path d="M34.2112 14.8601H34.9533C34.9847 14.8601 35.0158 14.8537 35.0448 14.8413C35.0737 14.8288 35.0997 14.8105 35.1214 14.7876C35.1431 14.7647 35.16 14.7376 35.1709 14.7079C35.1819 14.6782 35.1867 14.6466 35.1851 14.615V11.7544C35.1851 11.6925 35.1607 11.6331 35.1172 11.5893C35.0737 11.5455 35.0148 11.521 34.9533 11.521H34.2112C34.1497 11.521 34.0907 11.5455 34.0472 11.5893C34.0037 11.6331 33.9793 11.6925 33.9793 11.7544V14.615C33.9777 14.6466 33.9826 14.6782 33.9935 14.7079C34.0045 14.7376 34.0213 14.7647 34.043 14.7876C34.0647 14.8105 34.0908 14.8288 34.1197 14.8413C34.1486 14.8537 34.1797 14.8601 34.2112 14.8601Z" fill="#89837E"/>
<path d="M33.7334 14.7425H35.4412C35.5121 14.7402 35.5795 14.7108 35.6296 14.6603C35.6798 14.6098 35.709 14.542 35.7113 14.4706V13.9687C35.7102 13.8956 35.6809 13.8259 35.6296 13.7741C35.5784 13.7222 35.5092 13.6924 35.4366 13.6909H33.7287C33.6925 13.6908 33.6566 13.6979 33.6231 13.7118C33.5896 13.7257 33.5592 13.7462 33.5336 13.7721C33.5081 13.7979 33.4879 13.8285 33.4742 13.8623C33.4605 13.8961 33.4536 13.9323 33.4539 13.9687V14.4706C33.4542 14.507 33.4617 14.543 33.476 14.5764C33.4902 14.6099 33.511 14.6402 33.537 14.6656C33.563 14.6909 33.5938 14.7107 33.6275 14.7239C33.6612 14.7371 33.6972 14.7434 33.7334 14.7425Z" fill="#89837E"/>
<path d="M33.7334 13.398H35.4413C35.5139 13.3965 35.5831 13.3667 35.6343 13.3149C35.6856 13.2631 35.7149 13.1934 35.716 13.1203V12.6195C35.7149 12.5464 35.6856 12.4767 35.6343 12.4249C35.5831 12.3731 35.5139 12.3433 35.4413 12.3418H33.7334C33.6972 12.3416 33.6613 12.3487 33.6278 12.3626C33.5943 12.3765 33.5639 12.397 33.5383 12.4229C33.5128 12.4487 33.4926 12.4794 33.4789 12.5131C33.4652 12.5469 33.4583 12.5831 33.4586 12.6195V13.1203C33.4583 13.1567 33.4652 13.1928 33.4789 13.2266C33.4926 13.2604 33.5128 13.2911 33.5383 13.3169C33.5639 13.3428 33.5943 13.3632 33.6278 13.3771C33.6613 13.391 33.6972 13.3982 33.7334 13.398Z" fill="#89837E"/>
<path d="M13.8442 14.8604H14.5758C14.6079 14.8608 14.6398 14.8548 14.6695 14.8427C14.6993 14.8305 14.7263 14.8125 14.749 14.7896C14.7717 14.7668 14.7896 14.7396 14.8017 14.7096C14.8137 14.6797 14.8197 14.6476 14.8192 14.6153V11.7547C14.8193 11.723 14.8129 11.6917 14.8006 11.6625C14.7882 11.6334 14.7701 11.6072 14.7473 11.5853C14.7245 11.5635 14.6976 11.5466 14.6681 11.5355C14.6386 11.5245 14.6072 11.5197 14.5758 11.5213H13.8442C13.7827 11.5213 13.7237 11.5458 13.6802 11.5896C13.6367 11.6334 13.6123 11.6927 13.6123 11.7547V14.6153C13.6107 14.6469 13.6155 14.6785 13.6265 14.7082C13.6374 14.7379 13.6543 14.765 13.6759 14.7879C13.6976 14.8108 13.7237 14.8291 13.7527 14.8415C13.7816 14.854 13.8127 14.8604 13.8442 14.8604Z" fill="#89837E"/>
<path d="M13.3559 14.7427H15.0626C15.1352 14.7415 15.2046 14.7121 15.256 14.6605C15.3075 14.6089 15.3371 14.5392 15.3385 14.4661V13.9643C15.3371 13.8911 15.3075 13.8213 15.2561 13.7695C15.2047 13.7177 15.1353 13.688 15.0626 13.6865H13.3559C13.2832 13.688 13.2139 13.7177 13.1624 13.7695C13.111 13.8213 13.0814 13.8911 13.08 13.9643V14.4708C13.0826 14.5431 13.1127 14.6116 13.1641 14.6622C13.2154 14.7127 13.2841 14.7416 13.3559 14.7427Z" fill="#89837E"/>
<path d="M13.3559 13.398H15.0626C15.1353 13.3965 15.2047 13.3668 15.2561 13.315C15.3075 13.2632 15.3371 13.1935 15.3385 13.1203V12.6195C15.3371 12.5463 15.3075 12.4766 15.2561 12.4248C15.2047 12.373 15.1353 12.3433 15.0626 12.3418H13.3559C13.2832 12.3433 13.2139 12.373 13.1624 12.4248C13.111 12.4766 13.0814 12.5463 13.08 12.6195V13.1203C13.0814 13.1935 13.111 13.2632 13.1624 13.315C13.2139 13.3668 13.2832 13.3965 13.3559 13.398Z" fill="#89837E"/>
<path d="M10.7054 14.8604H11.437C11.5013 14.8594 11.5627 14.8333 11.6082 14.7875C11.6536 14.7418 11.6795 14.68 11.6804 14.6153V11.7547C11.6775 11.6917 11.6505 11.6324 11.6051 11.5889C11.5598 11.5454 11.4996 11.5212 11.437 11.5213H10.7054C10.6739 11.5197 10.6426 11.5245 10.6131 11.5355C10.5836 11.5466 10.5566 11.5635 10.5338 11.5853C10.5111 11.6072 10.4929 11.6334 10.4806 11.6625C10.4682 11.6917 10.4618 11.723 10.4619 11.7547V14.6153C10.4614 14.6476 10.4674 14.6797 10.4795 14.7096C10.4915 14.7396 10.5094 14.7668 10.5321 14.7896C10.5549 14.8125 10.5819 14.8305 10.6116 14.8427C10.6414 14.8548 10.6732 14.8608 10.7054 14.8604Z" fill="#89837E"/>
<path d="M10.2188 14.7427H11.9254C11.9981 14.7415 12.0674 14.7121 12.1188 14.6605C12.1703 14.6089 12.1999 14.5392 12.2014 14.4661V13.9643C12.1999 13.8911 12.1704 13.8213 12.119 13.7695C12.0675 13.7177 11.9982 13.688 11.9254 13.6865H10.2188C10.146 13.688 10.0767 13.7177 10.0253 13.7695C9.97386 13.8213 9.94429 13.8911 9.94281 13.9643V14.4708C9.94547 14.5431 9.97558 14.6116 10.0269 14.6622C10.0783 14.7127 10.1469 14.7416 10.2188 14.7427Z" fill="#89837E"/>
<path d="M10.2188 13.398H11.9254C11.9982 13.3965 12.0675 13.3668 12.119 13.315C12.1704 13.2632 12.1999 13.1935 12.2014 13.1203V12.6195C12.1999 12.5463 12.1704 12.4766 12.119 12.4248C12.0675 12.373 11.9982 12.3433 11.9254 12.3418H10.2188C10.146 12.3433 10.0767 12.373 10.0253 12.4248C9.97386 12.4766 9.94429 12.5463 9.94281 12.6195V13.1203C9.94429 13.1935 9.97386 13.2632 10.0253 13.315C10.0767 13.3668 10.146 13.3965 10.2188 13.398Z" fill="#89837E"/>
<path d="M37.3594 25.1484H38.091C38.1222 25.1491 38.1533 25.1437 38.1824 25.1324C38.2115 25.1211 38.2382 25.1041 38.2608 25.0825C38.2834 25.0608 38.3015 25.0348 38.3142 25.0061C38.3268 24.9774 38.3337 24.9463 38.3345 24.9149V22.0567C38.3351 22.0243 38.3292 21.9922 38.3172 21.9622C38.3052 21.9321 38.2873 21.9048 38.2646 21.8819C38.2418 21.8591 38.2147 21.841 38.1849 21.829C38.1551 21.8169 38.1231 21.8109 38.091 21.8116H37.3594C37.295 21.8122 37.2334 21.8383 37.1879 21.8841C37.1423 21.9299 37.1165 21.9919 37.1159 22.0567V24.9173C37.118 24.9803 37.1448 25.04 37.1904 25.0832C37.236 25.1265 37.2967 25.1499 37.3594 25.1484Z" fill="#89837E"/>
<path d="M36.8701 25.0306H38.5767C38.6494 25.0294 38.7187 25 38.7702 24.9484C38.8216 24.8968 38.8512 24.8271 38.8527 24.754V24.2627C38.8529 24.2262 38.8458 24.19 38.832 24.1562C38.8182 24.1224 38.7979 24.0918 38.7722 24.0659C38.7466 24.0401 38.7161 24.0196 38.6825 24.0057C38.649 23.9918 38.613 23.9847 38.5767 23.9849H36.8701C36.8338 23.9847 36.7978 23.9918 36.7643 24.0057C36.7307 24.0196 36.7003 24.0401 36.6746 24.0659C36.649 24.0918 36.6286 24.1224 36.6148 24.1562C36.601 24.19 36.594 24.2262 36.5941 24.2627V24.754C36.5956 24.8271 36.6252 24.8968 36.6767 24.9484C36.7281 25 36.7975 25.0294 36.8701 25.0306Z" fill="#89837E"/>
<path d="M36.8701 23.6907H38.5767C38.6495 23.6893 38.7188 23.6595 38.7703 23.6077C38.8217 23.5559 38.8512 23.4861 38.8527 23.4129V22.9228C38.8512 22.8496 38.8217 22.7798 38.7703 22.728C38.7188 22.6762 38.6495 22.6465 38.5767 22.645H36.8701C36.7973 22.6465 36.728 22.6762 36.6766 22.728C36.6252 22.7798 36.5956 22.8496 36.5941 22.9228V23.4129C36.5956 23.4861 36.6252 23.5559 36.6766 23.6077C36.728 23.6595 36.7973 23.6893 36.8701 23.6907Z" fill="#89837E"/>
<path d="M34.2103 25.1483H34.9523C35.0138 25.1483 35.0728 25.1237 35.1163 25.0799C35.1598 25.0361 35.1842 24.9768 35.1842 24.9149V22.0566C35.1858 22.025 35.181 21.9934 35.17 21.9638C35.1591 21.9341 35.1422 21.9069 35.1205 21.884C35.0988 21.861 35.0728 21.8428 35.0438 21.8303C35.0149 21.8179 34.9838 21.8115 34.9523 21.8115H34.2103C34.1788 21.8115 34.1477 21.8179 34.1188 21.8303C34.0899 21.8428 34.0638 21.861 34.0421 21.884C34.0204 21.9069 34.0035 21.9341 33.9926 21.9638C33.9817 21.9934 33.9768 22.025 33.9784 22.0566V24.9172C33.979 24.9787 34.0037 25.0375 34.0471 25.0808C34.0905 25.124 34.1492 25.1483 34.2103 25.1483Z" fill="#89837E"/>
<path d="M33.7325 25.0307H35.4404C35.5129 25.0295 35.5821 25 35.6334 24.9484C35.6846 24.8968 35.714 24.8271 35.7152 24.7541V24.2628C35.7155 24.2263 35.7086 24.1901 35.6949 24.1564C35.6812 24.1226 35.661 24.092 35.6354 24.0661C35.6099 24.0403 35.5795 24.0198 35.546 24.0059C35.5125 23.9919 35.4766 23.9848 35.4404 23.985H33.7325C33.696 23.9839 33.6597 23.9903 33.6257 24.0039C33.5918 24.0174 33.561 24.0379 33.5353 24.0639C33.5095 24.09 33.4893 24.121 33.476 24.1552C33.4627 24.1895 33.4565 24.2261 33.4577 24.2628V24.7541C33.4574 24.7905 33.4643 24.8267 33.478 24.8604C33.4917 24.8941 33.512 24.9247 33.5375 24.9504C33.5631 24.9762 33.5935 24.9966 33.627 25.0103C33.6605 25.0241 33.6964 25.031 33.7325 25.0307Z" fill="#89837E"/>
<path d="M33.7324 23.6907H35.4402C35.5128 23.6892 35.582 23.6594 35.6333 23.6076C35.6845 23.5558 35.7138 23.486 35.715 23.4129V22.9228C35.7138 22.8497 35.6845 22.7799 35.6333 22.7281C35.582 22.6763 35.5128 22.6465 35.4402 22.645H33.7324C33.6962 22.6449 33.6602 22.6519 33.6268 22.6658C33.5933 22.6797 33.5629 22.7002 33.5373 22.7261C33.5117 22.7519 33.4915 22.7826 33.4778 22.8163C33.4641 22.8501 33.4573 22.8863 33.4576 22.9228V23.4129C33.4573 23.4494 33.4641 23.4856 33.4778 23.5194C33.4915 23.5531 33.5117 23.5838 33.5373 23.6096C33.5629 23.6355 33.5933 23.656 33.6268 23.6699C33.6602 23.6838 33.6962 23.6909 33.7324 23.6907Z" fill="#89837E"/>
<path d="M13.8442 25.1484H14.5758C14.607 25.1491 14.638 25.1437 14.6672 25.1324C14.6963 25.1211 14.7229 25.1041 14.7455 25.0825C14.7682 25.0608 14.7863 25.0348 14.799 25.0061C14.8116 24.9774 14.8185 24.9463 14.8192 24.9149V22.0567C14.8199 22.0243 14.814 21.9922 14.802 21.9622C14.79 21.9321 14.7721 21.9048 14.7493 21.8819C14.7266 21.8591 14.6995 21.841 14.6697 21.829C14.6399 21.8169 14.6079 21.8109 14.5758 21.8116H13.8442C13.8127 21.8115 13.7816 21.8179 13.7527 21.8304C13.7237 21.8428 13.6976 21.8611 13.6759 21.884C13.6543 21.9069 13.6374 21.9341 13.6265 21.9638C13.6155 21.9935 13.6107 22.0251 13.6123 22.0567V24.9173C13.6129 24.9788 13.6376 25.0375 13.681 25.0808C13.7244 25.1241 13.7831 25.1484 13.8442 25.1484Z" fill="#89837E"/>
<path d="M13.3559 25.0306H15.0626C15.1352 25.0294 15.2046 25 15.256 24.9484C15.3075 24.8968 15.3371 24.8271 15.3385 24.754V24.2627C15.3387 24.2262 15.3317 24.19 15.3178 24.1562C15.304 24.1224 15.2837 24.0918 15.2581 24.0659C15.2324 24.0401 15.2019 24.0196 15.1684 24.0057C15.1348 23.9918 15.0989 23.9847 15.0626 23.9849H13.3559C13.3196 23.9847 13.2837 23.9918 13.2501 24.0057C13.2166 24.0196 13.1861 24.0401 13.1605 24.0659C13.1348 24.0918 13.1145 24.1224 13.1007 24.1562C13.0868 24.19 13.0798 24.2262 13.08 24.2627V24.754C13.0814 24.8271 13.111 24.8968 13.1625 24.9484C13.214 25 13.2833 25.0294 13.3559 25.0306Z" fill="#89837E"/>
<path d="M13.3559 23.6907H15.0626C15.1353 23.6893 15.2047 23.6595 15.2561 23.6077C15.3075 23.5559 15.3371 23.4861 15.3385 23.4129V22.9228C15.3371 22.8496 15.3075 22.7798 15.2561 22.728C15.2047 22.6762 15.1353 22.6465 15.0626 22.645H13.3559C13.2832 22.6465 13.2139 22.6762 13.1624 22.728C13.111 22.7798 13.0814 22.8496 13.08 22.9228V23.4129C13.0814 23.4861 13.111 23.5559 13.1624 23.6077C13.2139 23.6595 13.2832 23.6893 13.3559 23.6907Z" fill="#89837E"/>
<path d="M10.7054 25.1484H11.437C11.4995 25.1481 11.5596 25.1239 11.6049 25.0805C11.6502 25.0371 11.6772 24.9778 11.6805 24.9149V22.0567C11.6799 21.9919 11.654 21.9299 11.6085 21.8841C11.563 21.8383 11.5014 21.8122 11.437 21.8116H10.7054C10.6732 21.8109 10.6413 21.8169 10.6115 21.829C10.5816 21.841 10.5546 21.8591 10.5318 21.8819C10.5091 21.9048 10.4912 21.9321 10.4792 21.9622C10.4672 21.9922 10.4613 22.0243 10.4619 22.0567V24.9173C10.464 24.9803 10.4908 25.04 10.5364 25.0832C10.582 25.1265 10.6427 25.1499 10.7054 25.1484Z" fill="#89837E"/>
<path d="M10.2188 25.0306H11.9254C11.9981 25.0294 12.0674 25 12.1188 24.9484C12.1703 24.8968 12.1999 24.8271 12.2014 24.754V24.2627C12.2016 24.2262 12.1945 24.19 12.1807 24.1562C12.1669 24.1224 12.1466 24.0918 12.1209 24.0659C12.0953 24.0401 12.0648 24.0196 12.0312 24.0057C11.9977 23.9918 11.9617 23.9847 11.9254 23.9849H10.2188C10.1825 23.9847 10.1465 23.9918 10.113 24.0057C10.0794 24.0196 10.049 24.0401 10.0233 24.0659C9.99765 24.0918 9.97733 24.1224 9.96351 24.1562C9.9497 24.19 9.94266 24.2262 9.94281 24.2627V24.754C9.9443 24.8271 9.9739 24.8968 10.0254 24.9484C10.0768 25 10.1462 25.0294 10.2188 25.0306Z" fill="#89837E"/>
<path d="M10.2188 23.6907H11.9254C11.9982 23.6893 12.0675 23.6595 12.119 23.6077C12.1704 23.5559 12.1999 23.4861 12.2014 23.4129V22.9228C12.1999 22.8496 12.1704 22.7798 12.119 22.728C12.0675 22.6762 11.9982 22.6465 11.9254 22.645H10.2188C10.146 22.6465 10.0767 22.6762 10.0253 22.728C9.97386 22.7798 9.94429 22.8496 9.94281 22.9228V23.4129C9.94429 23.4861 9.97386 23.5559 10.0253 23.6077C10.0767 23.6595 10.146 23.6893 10.2188 23.6907Z" fill="#89837E"/>
<path d="M34.0874 45.7352H33.3558C33.3244 45.7368 33.293 45.7319 33.2635 45.7209C33.234 45.7098 33.2071 45.6929 33.1843 45.6711C33.1615 45.6492 33.1434 45.623 33.131 45.5938C33.1187 45.5647 33.1123 45.5334 33.1124 45.5017V42.6412C33.1117 42.6088 33.1176 42.5766 33.1296 42.5466C33.1416 42.5165 33.1595 42.4893 33.1823 42.4664C33.205 42.4435 33.2321 42.4255 33.2619 42.4134C33.2917 42.4013 33.3237 42.3954 33.3558 42.396H34.0874C34.1519 42.3966 34.2136 42.4226 34.2593 42.4684C34.3051 42.5142 34.3312 42.5762 34.3321 42.6412V45.5017C34.3288 45.5648 34.3016 45.6242 34.256 45.6676C34.2105 45.7111 34.1502 45.7353 34.0874 45.7352Z" fill="#89837E"/>
<path d="M34.5713 45.6186H32.8645C32.7918 45.6172 32.7225 45.5874 32.6711 45.5357C32.6196 45.4839 32.5901 45.4141 32.5886 45.3409V44.8495C32.5901 44.7763 32.6196 44.7065 32.6711 44.6548C32.7225 44.603 32.7918 44.5733 32.8645 44.5718H34.5713C34.644 44.5733 34.7133 44.603 34.7647 44.6548C34.8162 44.7065 34.8457 44.7763 34.8472 44.8495V45.3409C34.8457 45.4141 34.8162 45.4839 34.7647 45.5357C34.7133 45.5874 34.644 45.6172 34.5713 45.6186Z" fill="#89837E"/>
<path d="M34.5713 44.2728H32.8645C32.8283 44.2731 32.7924 44.2662 32.7589 44.2524C32.7253 44.2386 32.6948 44.2183 32.6692 44.1926C32.6435 44.1668 32.6232 44.1362 32.6093 44.1025C32.5955 44.0688 32.5885 44.0326 32.5886 43.9962V43.5049C32.5901 43.4317 32.6196 43.3619 32.6711 43.3101C32.7225 43.2583 32.7918 43.2285 32.8645 43.2271H34.5713C34.644 43.2285 34.7133 43.2583 34.7647 43.3101C34.8162 43.3619 34.8457 43.4317 34.8472 43.5049V43.9962C34.8474 44.0326 34.8403 44.0688 34.8265 44.1025C34.8126 44.1362 34.7923 44.1668 34.7666 44.1926C34.741 44.2183 34.7105 44.2386 34.6769 44.2524C34.6434 44.2662 34.6075 44.2731 34.5713 44.2728Z" fill="#89837E"/>
<path d="M37.2319 45.7351H36.4899C36.4284 45.7351 36.3694 45.7105 36.3259 45.6667C36.2824 45.623 36.258 45.5636 36.258 45.5017V42.6411C36.2564 42.6095 36.2613 42.5778 36.2722 42.5482C36.2832 42.5185 36.3 42.4914 36.3217 42.4684C36.3434 42.4455 36.3695 42.4273 36.3984 42.4148C36.4273 42.4023 36.4584 42.396 36.4899 42.396H37.2319C37.2634 42.396 37.2945 42.4023 37.3234 42.4148C37.3523 42.4273 37.3784 42.4455 37.4001 42.4684C37.4218 42.4914 37.4386 42.5185 37.4496 42.5482C37.4605 42.5778 37.4654 42.6095 37.4638 42.6411V45.5017C37.4638 45.5636 37.4394 45.623 37.3959 45.6667C37.3524 45.7105 37.2934 45.7351 37.2319 45.7351Z" fill="#89837E"/>
<path d="M37.7097 45.6186H36.0019C35.9293 45.6171 35.8601 45.5874 35.8088 45.5356C35.7576 45.4838 35.7283 45.414 35.7271 45.3409V44.8495C35.7283 44.7764 35.7576 44.7066 35.8088 44.6548C35.8601 44.603 35.9293 44.5733 36.0019 44.5718H37.7097C37.7824 44.5733 37.8515 44.603 37.9028 44.6548C37.954 44.7066 37.9833 44.7764 37.9845 44.8495V45.3409C37.9833 45.414 37.954 45.4838 37.9028 45.5356C37.8515 45.5874 37.7824 45.6171 37.7097 45.6186Z" fill="#89837E"/>
<path d="M37.7098 44.2728H36.0019C35.9657 44.2731 35.9298 44.2662 35.8964 44.2524C35.8629 44.2386 35.8325 44.2182 35.8069 44.1925C35.7813 44.1667 35.7611 44.1362 35.7474 44.1025C35.7337 44.0688 35.7268 44.0326 35.7271 43.9962V43.5049C35.7283 43.4318 35.7576 43.362 35.8088 43.3102C35.8601 43.2584 35.9293 43.2286 36.0019 43.2271H37.7098C37.7824 43.2286 37.8516 43.2584 37.9028 43.3102C37.954 43.362 37.9834 43.4318 37.9845 43.5049V43.9962C37.9848 44.0326 37.9779 44.0688 37.9642 44.1025C37.9505 44.1362 37.9303 44.1667 37.9047 44.1925C37.8792 44.2182 37.8487 44.2386 37.8153 44.2524C37.7818 44.2662 37.7459 44.2731 37.7098 44.2728Z" fill="#89837E"/>
<path d="M43.2475 45.7352H42.5159C42.4845 45.7368 42.4531 45.7319 42.4236 45.7209C42.3941 45.7098 42.3672 45.6929 42.3444 45.6711C42.3216 45.6492 42.3035 45.623 42.2911 45.5938C42.2788 45.5647 42.2724 45.5334 42.2724 45.5017V42.6412C42.2718 42.6088 42.2777 42.5766 42.2897 42.5466C42.3017 42.5165 42.3196 42.4893 42.3424 42.4664C42.3651 42.4435 42.3922 42.4255 42.422 42.4134C42.4518 42.4013 42.4838 42.3954 42.5159 42.396H43.2475C43.279 42.396 43.3101 42.4024 43.339 42.4148C43.368 42.4273 43.3941 42.4456 43.4158 42.4685C43.4374 42.4914 43.4543 42.5185 43.4652 42.5482C43.4762 42.5779 43.481 42.6095 43.4794 42.6412V45.5017C43.4794 45.5636 43.455 45.623 43.4115 45.6668C43.368 45.7106 43.309 45.7352 43.2475 45.7352Z" fill="#89837E"/>
<path d="M43.7323 45.6186H42.0245C41.9519 45.6171 41.8826 45.5874 41.8314 45.5356C41.7801 45.4838 41.7509 45.414 41.7497 45.3409V44.8495C41.7509 44.7764 41.7801 44.7066 41.8314 44.6548C41.8826 44.603 41.9519 44.5733 42.0245 44.5718H43.7323C43.8049 44.5733 43.8741 44.603 43.9254 44.6548C43.9766 44.7066 44.0059 44.7764 44.0071 44.8495V45.3409C44.0059 45.414 43.9766 45.4838 43.9254 45.5356C43.8741 45.5874 43.8049 45.6171 43.7323 45.6186Z" fill="#89837E"/>
<path d="M43.7323 44.2728H42.0245C41.9883 44.2731 41.9524 44.2662 41.9189 44.2524C41.8855 44.2386 41.8551 44.2182 41.8295 44.1925C41.8039 44.1667 41.7837 44.1362 41.77 44.1025C41.7563 44.0688 41.7494 44.0326 41.7497 43.9962V43.5049C41.7509 43.4318 41.7802 43.362 41.8314 43.3102C41.8827 43.2584 41.9519 43.2286 42.0245 43.2271H43.7323C43.8049 43.2286 43.8741 43.2584 43.9254 43.3102C43.9766 43.362 44.0059 43.4318 44.0071 43.5049V43.9962C44.0074 44.0326 44.0005 44.0688 43.9868 44.1025C43.9731 44.1362 43.9529 44.1667 43.9273 44.1925C43.9018 44.2182 43.8713 44.2386 43.8378 44.2524C43.8044 44.2662 43.7685 44.2731 43.7323 44.2728Z" fill="#89837E"/>
<path d="M14.7135 45.7352H15.4452C15.4766 45.7368 15.508 45.7319 15.5375 45.7209C15.567 45.7098 15.5939 45.6929 15.6167 45.6711C15.6394 45.6492 15.6576 45.623 15.6699 45.5938C15.6823 45.5647 15.6887 45.5334 15.6886 45.5017V42.6412C15.6893 42.6088 15.6834 42.5766 15.6714 42.5466C15.6594 42.5165 15.6414 42.4893 15.6187 42.4664C15.596 42.4435 15.5689 42.4255 15.5391 42.4134C15.5092 42.4013 15.4773 42.3954 15.4452 42.396H14.7135C14.6813 42.3954 14.6493 42.4013 14.6195 42.4134C14.5896 42.4255 14.5624 42.4435 14.5396 42.4664C14.5168 42.4892 14.4987 42.5165 14.4866 42.5465C14.4744 42.5765 14.4684 42.6087 14.4689 42.6412V45.5017C14.4696 45.5333 14.4766 45.5643 14.4893 45.5931C14.502 45.6219 14.5203 45.6479 14.543 45.6696C14.5658 45.6913 14.5925 45.7083 14.6218 45.7195C14.6511 45.7307 14.6822 45.7361 14.7135 45.7352Z" fill="#89837E"/>
<path d="M14.2257 45.6186H15.9323C16.0051 45.6172 16.0744 45.5874 16.1258 45.5357C16.1773 45.4839 16.2068 45.4141 16.2083 45.3409V44.8495C16.2068 44.7763 16.1773 44.7065 16.1258 44.6548C16.0744 44.603 16.0051 44.5733 15.9323 44.5718H14.2257C14.1529 44.5733 14.0836 44.603 14.0322 44.6548C13.9808 44.7065 13.9512 44.7763 13.9497 44.8495V45.3409C13.9512 45.4141 13.9808 45.4839 14.0322 45.5357C14.0836 45.5874 14.1529 45.6172 14.2257 45.6186Z" fill="#89837E"/>
<path d="M14.2257 44.2728H15.9323C15.9686 44.2731 16.0045 44.2662 16.0381 44.2524C16.0716 44.2386 16.1021 44.2183 16.1278 44.1926C16.1534 44.1668 16.1738 44.1362 16.1876 44.1025C16.2014 44.0688 16.2084 44.0326 16.2083 43.9962V43.5049C16.2068 43.4317 16.1773 43.3619 16.1259 43.3101C16.0744 43.2583 16.0051 43.2285 15.9323 43.2271H14.2257C14.1529 43.2285 14.0836 43.2583 14.0322 43.3101C13.9808 43.3619 13.9512 43.4317 13.9497 43.5049V43.9962C13.9496 44.0326 13.9566 44.0688 13.9704 44.1025C13.9843 44.1362 14.0046 44.1668 14.0303 44.1926C14.0559 44.2183 14.0864 44.2386 14.12 44.2524C14.1535 44.2662 14.1894 44.2731 14.2257 44.2728Z" fill="#89837E"/>
<path d="M11.5645 45.7351H12.3066C12.3681 45.7351 12.427 45.7105 12.4705 45.6667C12.514 45.623 12.5385 45.5636 12.5385 45.5017V42.6411C12.54 42.6095 12.5352 42.5778 12.5242 42.5482C12.5133 42.5185 12.4965 42.4914 12.4748 42.4684C12.4531 42.4455 12.427 42.4273 12.3981 42.4148C12.3691 42.4023 12.338 42.396 12.3066 42.396H11.5645C11.533 42.396 11.5019 42.4023 11.473 42.4148C11.4441 42.4273 11.418 42.4455 11.3963 42.4684C11.3746 42.4914 11.3578 42.5185 11.3468 42.5482C11.3359 42.5778 11.3311 42.6095 11.3326 42.6411V45.5017C11.3326 45.5636 11.357 45.623 11.4005 45.6667C11.444 45.7105 11.503 45.7351 11.5645 45.7351Z" fill="#89837E"/>
<path d="M11.0866 45.6187H12.7829C12.8573 45.6196 12.9291 45.591 12.9827 45.539C13.0364 45.487 13.0674 45.4158 13.0693 45.3409V44.8495C13.0674 44.7746 13.0364 44.7034 12.9827 44.6514C12.9291 44.5994 12.8573 44.5709 12.7829 44.5718H11.0866C11.0504 44.5716 11.0145 44.5787 10.981 44.5926C10.9475 44.6065 10.9171 44.627 10.8916 44.6529C10.866 44.6787 10.8458 44.7094 10.8321 44.7432C10.8184 44.777 10.8115 44.8131 10.8118 44.8495V45.3409C10.8115 45.3774 10.8184 45.4135 10.8321 45.4473C10.8458 45.481 10.866 45.5118 10.8916 45.5376C10.9171 45.5634 10.9475 45.5839 10.981 45.5978C11.0145 45.6117 11.0504 45.6188 11.0866 45.6187Z" fill="#89837E"/>
<path d="M11.0867 44.2728H12.783C12.8201 44.2744 12.857 44.2684 12.8917 44.2552C12.9264 44.242 12.9581 44.2219 12.9848 44.1961C13.0116 44.1702 13.0329 44.1392 13.0474 44.1048C13.0619 44.0705 13.0694 44.0335 13.0694 43.9962V43.5049C13.0675 43.43 13.0365 43.3588 12.9829 43.3068C12.9293 43.2548 12.8575 43.2261 12.783 43.2271H11.0867C11.0505 43.2269 11.0146 43.234 10.9811 43.2479C10.9476 43.2619 10.9172 43.2824 10.8917 43.3082C10.8661 43.334 10.8459 43.3647 10.8322 43.3985C10.8185 43.4322 10.8116 43.4684 10.812 43.5049V43.9962C10.8108 44.0328 10.8172 44.0693 10.8306 44.1034C10.844 44.1375 10.8642 44.1685 10.8899 44.1944C10.9157 44.2203 10.9464 44.2406 10.9803 44.2541C11.0141 44.2676 11.0504 44.2739 11.0867 44.2728Z" fill="#89837E"/>
<path d="M5.55308 45.7352H6.2847C6.31611 45.7368 6.34753 45.7319 6.37702 45.7209C6.4065 45.7098 6.43343 45.6929 6.4562 45.6711C6.47898 45.6492 6.49712 45.623 6.50949 45.5938C6.52186 45.5647 6.52821 45.5334 6.52817 45.5017V42.6412C6.5288 42.6088 6.52295 42.5766 6.51094 42.5466C6.49893 42.5165 6.48099 42.4893 6.45826 42.4664C6.43552 42.4435 6.40843 42.4255 6.37861 42.4134C6.34878 42.4013 6.31685 42.3954 6.2847 42.396H5.55308C5.52163 42.396 5.4905 42.4024 5.46158 42.4148C5.43266 42.4273 5.40656 42.4456 5.38487 42.4685C5.36318 42.4914 5.34635 42.5185 5.3354 42.5482C5.32446 42.5779 5.31964 42.6095 5.32121 42.6412V45.5017C5.32121 45.5636 5.34563 45.623 5.38911 45.6668C5.4326 45.7106 5.49158 45.7352 5.55308 45.7352Z" fill="#89837E"/>
<path d="M5.0647 45.6186H6.77255C6.84516 45.6171 6.91439 45.5874 6.96563 45.5356C7.01688 45.4838 7.04615 45.414 7.04733 45.3409V44.8495C7.04615 44.7764 7.01688 44.7066 6.96563 44.6548C6.91439 44.603 6.84516 44.5733 6.77255 44.5718H5.0647C4.99209 44.5733 4.9229 44.603 4.87165 44.6548C4.82041 44.7066 4.7911 44.7764 4.78992 44.8495V45.3409C4.7911 45.414 4.82041 45.4838 4.87165 45.5356C4.9229 45.5874 4.99209 45.6171 5.0647 45.6186Z" fill="#89837E"/>
<path d="M5.06471 44.2728H6.77256C6.80873 44.2731 6.84463 44.2662 6.87811 44.2524C6.91158 44.2386 6.94198 44.2182 6.96755 44.1925C6.99313 44.1667 7.01337 44.1362 7.02707 44.1025C7.04077 44.0688 7.04765 44.0326 7.04734 43.9962V43.5049C7.04616 43.4318 7.01689 43.362 6.96564 43.3102C6.9144 43.2584 6.84517 43.2286 6.77256 43.2271H5.06471C4.9921 43.2286 4.92291 43.2584 4.87166 43.3102C4.82042 43.362 4.79111 43.4318 4.78993 43.5049V43.9962C4.78962 44.0326 4.7965 44.0688 4.8102 44.1025C4.8239 44.1362 4.84414 44.1667 4.86972 44.1925C4.89529 44.2182 4.92572 44.2386 4.9592 44.2524C4.99268 44.2662 5.02854 44.2731 5.06471 44.2728Z" fill="#89837E"/>
<path d="M14.8722 61.0387L29.0475 46.7695L29.7895 47.527L15.6247 61.7972L14.8722 61.0387Z" fill="#89837E"/>
<path d="M33.1925 61.8822L18.9963 47.5268L19.7488 46.7798L33.9449 61.1236L33.1925 61.8822Z" fill="#89837E"/>
<path d="M18.9963 46.7063L29.0475 36.5991L29.7895 37.3566L19.7488 47.4637L18.9963 46.7063Z" fill="#89837E"/>
<path d="M29.0475 47.4653L18.9963 37.358L19.7488 36.6006L29.7895 46.7077L29.0475 47.4653Z" fill="#89837E"/>
<path d="M18.9963 36.5359L29.0475 26.4287L29.7895 27.1862L19.7488 37.2934L18.9963 36.5359Z" fill="#89837E"/>
<path d="M29.0475 37.2934L18.9963 27.1862L19.7488 26.4287L29.7895 36.5359L29.0475 37.2934Z" fill="#89837E"/>
<path d="M18.9963 26.365L29.0475 16.2578L29.7895 17.0153L19.7488 27.1225L18.9963 26.365Z" fill="#89837E"/>
<path d="M29.0475 27.1235L18.9963 17.0163L19.7488 16.2588L29.7895 26.366L29.0475 27.1235Z" fill="#89837E"/>
<path d="M18.9963 16.1946L29.0475 6.0874L29.7895 6.84484L19.7488 16.952L18.9963 16.1946Z" fill="#89837E"/>
<path d="M29.0475 16.952L18.9963 6.84484L19.7488 6.0874L29.7895 16.1946L29.0475 16.952Z" fill="#89837E"/>
<path d="M29.7262 31.5107L48.683 41.7452L48.4291 42.7489H0.36918L0.115234 41.7452L19.0825 31.5107L19.5811 32.4445L2.47933 41.6763H46.3189L29.2276 32.4445L29.7262 31.5107Z" fill="#00A443"/>
<path d="M29.6728 14.8501L41.4991 21.2319L41.2452 22.2356L7.56232 22.225L7.31885 21.2213L19.0871 14.8711L19.5857 15.8048L9.67251 21.1513L39.1362 21.1618L29.1812 15.7826L29.6728 14.8501Z" fill="#00A443"/>
<path d="M29.6412 4.64697L41.4941 11.0509L41.2402 12.0546H7.55616L7.30225 11.0509L19.1552 4.64697L19.6538 5.59696L9.68258 10.9867H39.1196L29.1322 5.58649L29.6412 4.64697Z" fill="#00A443"/>
<path d="M24.3925 82.8215H8.55341L8.74356 82.1387L18.8167 47.0798V1.61621H29.9799V47.0798L40.0519 82.1387L40.2432 82.8215H24.3925ZM9.96329 81.7548H38.8333L28.941 47.3039L28.9097 47.1546V2.68295H19.8869V47.1499L19.8556 47.2992L9.96329 81.7548Z" fill="#89837E"/>
<path d="M39.0557 11.2319C38.9905 11.2118 38.9355 11.1673 38.9018 11.1076C38.8682 11.0479 38.8586 10.9776 38.8749 10.9109C38.896 10.8466 38.9409 10.793 39.0003 10.7613C39.0597 10.7295 39.129 10.7221 39.1937 10.7405C39.5323 10.8363 156.379 44.5086 284.72 0.164169C284.752 0.152098 284.786 0.146644 284.82 0.148213C284.854 0.149781 284.887 0.158334 284.918 0.173287C284.949 0.188241 284.976 0.209344 284.998 0.235261C285.021 0.261179 285.038 0.291405 285.048 0.324091C285.068 0.387885 285.062 0.456832 285.033 0.516639C285.003 0.576446 284.952 0.622445 284.889 0.645004C156.39 45.0419 39.3954 11.3276 39.0557 11.2319Z" fill="#89837E"/>
<path d="M8.6809 12.5227C8.61672 12.5022 8.56302 12.4573 8.53119 12.3976C8.49937 12.3379 8.49195 12.2681 8.51049 12.2029C8.51741 12.1702 8.53125 12.1393 8.55108 12.1124C8.57091 12.0855 8.59624 12.0632 8.62538 12.047C8.65453 12.0308 8.68681 12.0212 8.72 12.0187C8.75319 12.0162 8.78651 12.0209 8.81773 12.0325C9.15744 12.1492 119.209 52.7472 247.546 13.1739C247.614 13.1588 247.684 13.169 247.745 13.2025C247.805 13.236 247.851 13.2906 247.874 13.356C247.894 13.4196 247.888 13.4884 247.859 13.5479C247.829 13.6075 247.778 13.6532 247.716 13.6758C119.22 53.2805 9.02989 12.6301 8.6809 12.5227Z" fill="#89837E"/>
<path d="M39.0564 21.1673C39.0236 21.1582 38.993 21.1427 38.9662 21.1216C38.9395 21.1006 38.9171 21.0744 38.9003 21.0447C38.8836 21.0149 38.8728 20.9822 38.8686 20.9482C38.8645 20.9143 38.867 20.8799 38.8761 20.8469C38.8851 20.814 38.9005 20.7831 38.9214 20.7562C38.9423 20.7292 38.9683 20.7067 38.9979 20.6899C39.0274 20.673 39.06 20.6621 39.0937 20.658C39.1274 20.6538 39.1616 20.6563 39.1943 20.6654C39.5329 20.7623 156.38 54.444 284.721 10.0891C284.785 10.07 284.855 10.076 284.916 10.1058C284.976 10.1356 285.024 10.187 285.049 10.2501C285.069 10.3152 285.064 10.3858 285.035 10.4473C285.005 10.5088 284.953 10.5564 284.89 10.5804C156.39 54.9774 39.3961 21.263 39.0564 21.1673Z" fill="#89837E"/>
<path d="M8.68068 22.4594C8.61658 22.4384 8.56306 22.3934 8.53129 22.3335C8.49952 22.2737 8.49199 22.2038 8.51027 22.1385C8.51719 22.1057 8.53103 22.0748 8.55085 22.0479C8.57068 22.021 8.59601 21.9987 8.62516 21.9825C8.65431 21.9664 8.68659 21.9568 8.71977 21.9543C8.75296 21.9518 8.78629 21.9565 8.8175 21.9681C9.15722 22.0743 119.972 61.9148 248.311 22.352C248.376 22.3348 248.444 22.3428 248.503 22.3744C248.562 22.406 248.607 22.4589 248.629 22.5224C248.64 22.554 248.645 22.5875 248.643 22.621C248.641 22.6544 248.633 22.6872 248.618 22.7172C248.603 22.7472 248.582 22.7739 248.557 22.7956C248.531 22.8173 248.502 22.8336 248.47 22.8434C119.982 62.4587 9.02967 22.5656 8.68068 22.4594Z" fill="#89837E"/>
<path d="M39.0557 41.3388C38.9905 41.3187 38.9355 41.2742 38.9018 41.2146C38.8682 41.1549 38.8586 41.0844 38.8749 41.0178C38.896 40.9535 38.9409 40.8999 39.0003 40.8681C39.0597 40.8364 39.129 40.829 39.1937 40.8474C39.5323 40.9326 156.379 74.6155 284.72 30.2711C284.752 30.259 284.786 30.2536 284.82 30.2551C284.854 30.2567 284.887 30.2653 284.918 30.2802C284.949 30.2952 284.976 30.3162 284.999 30.3421C285.021 30.368 285.038 30.3983 285.048 30.431C285.068 30.4948 285.062 30.5636 285.032 30.6234C285.003 30.6831 284.952 30.7291 284.889 30.7519C156.39 75.1489 39.3954 41.431 39.0557 41.3388Z" fill="#89837E"/>
<path d="M8.6809 42.6298C8.61672 42.6093 8.56302 42.5644 8.53119 42.5047C8.49937 42.445 8.49195 42.3751 8.51049 42.31C8.51741 42.2772 8.53125 42.2463 8.55108 42.2194C8.57091 42.1925 8.59624 42.1702 8.62538 42.1541C8.65453 42.1379 8.68681 42.1282 8.72 42.1257C8.75319 42.1232 8.78651 42.1279 8.81773 42.1395C9.15744 42.2562 126.005 80.2819 254.344 40.7192C254.41 40.6982 254.482 40.7046 254.544 40.7367C254.605 40.7688 254.652 40.8242 254.673 40.8908C254.685 40.9222 254.689 40.9556 254.687 40.9889C254.685 41.0223 254.677 41.0549 254.662 41.0848C254.647 41.1147 254.626 41.1412 254.601 41.1628C254.576 41.1844 254.546 41.2007 254.514 41.2105C126.025 80.827 9.02989 42.7371 8.6809 42.6298Z" fill="#89837E"/>
</g>
<defs>
<clipPath id="clip0_7394_15639">
<rect width="82" height="88" rx="16" fill="white"/>
</clipPath>
</defs>
</svg>
