<svg width="60" height="60" viewBox="0 0 60 60" fill="none" xmlns="http://www.w3.org/2000/svg">
<path d="M31.5125 40.0751C31.275 40.0751 31.0312 39.9813 30.85 39.8001L20.3125 29.3188C19.9437 28.9563 19.9437 28.3626 20.3125 27.9938C20.675 27.6251 21.2687 27.6251 21.6375 27.9938L32.175 38.4751C32.5437 38.8376 32.5437 39.4313 32.175 39.8001C31.9937 39.9813 31.75 40.0751 31.5125 40.0751Z" fill="#00A443"/>
<path d="M31.5125 49.4809C31.3937 49.4809 31.2687 49.4559 31.1562 49.4122C30.8062 49.2684 30.575 48.9247 30.575 48.5434V39.1372C30.575 38.6184 30.9937 38.1997 31.5125 38.1997C32.0312 38.1997 32.45 38.6184 32.45 39.1372V46.2747C35.7062 42.8747 37.4937 38.4309 37.4937 33.7122C37.4937 33.1934 37.9125 32.7747 38.4312 32.7747C38.95 32.7747 39.3687 33.1934 39.3687 33.7122C39.3687 39.0684 37.2812 44.0997 33.5 47.8809L32.175 49.2059C31.9937 49.3872 31.7562 49.4809 31.5125 49.4809Z" fill="#FF9C1A"/>
<path d="M20.975 29.5933H11.5688C11.1875 29.5933 10.85 29.3621 10.7 29.0121C10.5563 28.6621 10.6375 28.2558 10.9063 27.9933L12.2313 26.6683C16.0188 22.8808 21.05 20.7996 26.4 20.7996C26.9188 20.7996 27.3375 21.2183 27.3375 21.7371C27.3375 22.2558 26.9188 22.6746 26.4 22.6746C21.6813 22.6746 17.2313 24.4621 13.8375 27.7183H20.975C21.4938 27.7183 21.9125 28.1371 21.9125 28.6558C21.9125 29.1746 21.4938 29.5933 20.975 29.5933Z" fill="#FF9C1A"/>
<path d="M25.9374 42.2312C25.6937 42.2312 25.4562 42.1375 25.2749 41.9562L18.0249 34.7062C17.7624 34.4437 17.6812 34.0625 17.8062 33.7187C22.0812 22.2375 29.4687 17.2812 34.9124 15.1437C40.8249 12.825 45.6812 13.2312 45.8812 13.25C46.3312 13.2937 46.6874 13.65 46.7312 14.1C46.7499 14.3 48.2749 33.9812 26.2624 42.175C26.1562 42.2125 26.0437 42.2312 25.9374 42.2312ZM19.7749 33.8062L22.9687 37L26.1624 40.2C44.0124 33.2625 44.9499 18.7125 44.8937 15.075C41.2499 14.9937 26.7062 15.9562 19.7687 33.8062H19.7749Z" fill="#00A443"/>
<path d="M16.1227 34.9587L10.8945 40.1869L12.2204 41.5127L17.4485 36.2845L16.1227 34.9587Z" fill="#FF9C1A"/>
<path d="M23.4531 42.29L18.225 47.5182L19.5508 48.844L24.779 43.6158L23.4531 42.29Z" fill="#FF9C1A"/>
<path d="M19.7415 38.6665L12.5643 45.8436L13.8902 47.1695L21.0673 39.9923L19.7415 38.6665Z" fill="#FF9C1A"/>
<path d="M34.65 29.5625C33.6062 29.5625 32.5625 29.1625 31.7687 28.3688C31 27.6 30.575 26.575 30.575 25.4875C30.575 24.4 31 23.375 31.7687 22.6063C33.3562 21.0188 35.9437 21.0188 37.5375 22.6063C38.3062 23.375 38.7312 24.4 38.7312 25.4875C38.7312 26.575 38.3062 27.6 37.5375 28.3688C36.7437 29.1625 35.7 29.5625 34.6562 29.5625H34.65ZM34.65 23.2875C34.0875 23.2875 33.525 23.5 33.0937 23.9313C32.675 24.35 32.45 24.9 32.45 25.4875C32.45 26.075 32.6812 26.6313 33.0937 27.0438C33.95 27.9 35.35 27.9 36.2062 27.0438C36.625 26.625 36.85 26.075 36.85 25.4875C36.85 24.9 36.6187 24.3438 36.2062 23.9313C35.775 23.5 35.2125 23.2875 34.65 23.2875Z" fill="#00A443"/>
</svg>
