<svg width="63" height="80" viewBox="0 0 63 80" fill="none" xmlns="http://www.w3.org/2000/svg">
<mask id="path-1-inside-1_99_19608" fill="white">
<path d="M61.7417 77.0593H57.7949L41.1294 46.4024V46.3602H41.1082L40.9389 46.0645V31.1638H61.7417L61.7946 31.1954V30.6252V27.89C61.7946 27.3409 61.3396 26.8868 60.7894 26.8868C60.2391 26.8868 59.7841 27.3409 59.7841 27.89V28.4497L40.9283 18.3645V13.1477H52.8746L52.9592 13.1899V11.5108L52.8534 11.458V9.11363C52.8534 8.56449 52.3984 8.11039 51.8482 8.11039C51.298 8.11039 50.843 8.56449 50.843 9.11363V10.3809L31.5004 0L12.2214 10.3175V9.10307C12.2214 8.55393 11.7664 8.09983 11.2161 8.09983C10.6659 8.09983 10.2109 8.55393 10.2109 9.10307V11.3947L10.0416 11.4792V13.1583L10.0945 13.1266H21.9879V18.5969L3.60821 28.4392V27.8795C3.60821 27.3303 3.15322 26.8762 2.60299 26.8762C2.05277 26.8762 1.59777 27.3303 1.59777 27.8795V30.6146V31.1849L1.65068 31.1532H21.9879V46.0539L21.8186 46.3602H21.7974V46.3919L5.13191 77.0487H1.1851C0.529063 77.0487 0 77.5767 0 78.2315C0 78.8862 0.529063 79.4142 1.1851 79.4142H5.84086C6.40166 79.4142 6.86724 79.0341 6.99422 78.506L31.4793 65.3583L55.9431 78.4955C56.0701 79.0235 56.5357 79.4142 57.0965 79.4142H61.7523C62.4083 79.4142 62.9374 78.8862 62.9374 78.2315C62.9374 77.5767 62.4083 77.0487 61.7523 77.0487L61.7417 77.0593ZM24.0935 5.60757H38.8544C38.8544 5.60757 38.8861 5.60757 38.9073 5.60757L39.4893 5.92439C39.5845 6.05111 39.648 6.22008 39.6586 6.38904L31.8919 11.5108H30.8867L23.2788 6.49465V6.41017C23.2788 6.25176 23.3317 6.09335 23.4058 5.96663L24.083 5.60757H24.0935ZM39.6586 11.5108H34.3256L39.6586 7.99423V11.5108ZM23.2894 8.11039L28.453 11.5214H23.2894V8.11039ZM23.2894 46.6559V46.6136L31.5322 39.517L39.6692 46.5291V46.6664L39.7856 46.8882L31.4793 50.088L23.173 46.8882L23.2894 46.6664V46.6559ZM40.4416 48.0921L44.1768 54.9563L33.3945 50.8061L40.4522 48.0921H40.4416ZM39.6586 44.8289L32.5056 38.6616L39.6586 32.4944V44.8289ZM39.5739 30.8786L31.5216 37.8168L23.3529 30.7836L31.384 25.4823L39.5739 30.8786ZM32.6115 24.6797L39.6586 20.0331V29.3262L32.6115 24.6797ZM31.3946 23.8771L23.4798 18.6602L31.3946 13.4434L39.3094 18.6602L31.3946 23.8771ZM30.1778 24.6797L23.2894 29.2206V20.1387L30.1778 24.6797ZM30.5481 38.6616L23.2894 44.9134V32.4099L30.5481 38.6616ZM29.5535 50.8061L18.7712 54.9563L22.5064 48.0921L29.5641 50.8061H29.5535ZM31.4687 51.5453L44.1979 56.4454L31.4687 63.2568L18.7394 56.4454L31.4687 51.5453ZM58.7472 29.548H40.9495V19.9908L58.7472 29.548ZM39.6586 17.2979L33.331 13.1266H39.6586V17.2979ZM40.9495 11.5108V6.70586L49.8907 11.5108H40.9495ZM36.5159 4.32977H26.4849L31.5004 1.63686L36.5159 4.32977ZM13.1102 11.5108L22.009 6.73754V11.5108H13.1102ZM29.4477 13.1266L23.2894 17.1923V13.1266H29.4477ZM4.66634 29.548L21.9984 20.2337V29.548H4.66634ZM7.20584 76.2461L17.2686 57.7337L29.5111 64.3129L7.20584 76.2461ZM45.6793 57.7337L55.7421 76.2461L33.4368 64.3129L45.6793 57.7337Z"/>
</mask>
<path d="M61.7417 77.0593H57.7949L41.1294 46.4024V46.3602H41.1082L40.9389 46.0645V31.1638H61.7417L61.7946 31.1954V30.6252V27.89C61.7946 27.3409 61.3396 26.8868 60.7894 26.8868C60.2391 26.8868 59.7841 27.3409 59.7841 27.89V28.4497L40.9283 18.3645V13.1477H52.8746L52.9592 13.1899V11.5108L52.8534 11.458V9.11363C52.8534 8.56449 52.3984 8.11039 51.8482 8.11039C51.298 8.11039 50.843 8.56449 50.843 9.11363V10.3809L31.5004 0L12.2214 10.3175V9.10307C12.2214 8.55393 11.7664 8.09983 11.2161 8.09983C10.6659 8.09983 10.2109 8.55393 10.2109 9.10307V11.3947L10.0416 11.4792V13.1583L10.0945 13.1266H21.9879V18.5969L3.60821 28.4392V27.8795C3.60821 27.3303 3.15322 26.8762 2.60299 26.8762C2.05277 26.8762 1.59777 27.3303 1.59777 27.8795V30.6146V31.1849L1.65068 31.1532H21.9879V46.0539L21.8186 46.3602H21.7974V46.3919L5.13191 77.0487H1.1851C0.529063 77.0487 0 77.5767 0 78.2315C0 78.8862 0.529063 79.4142 1.1851 79.4142H5.84086C6.40166 79.4142 6.86724 79.0341 6.99422 78.506L31.4793 65.3583L55.9431 78.4955C56.0701 79.0235 56.5357 79.4142 57.0965 79.4142H61.7523C62.4083 79.4142 62.9374 78.8862 62.9374 78.2315C62.9374 77.5767 62.4083 77.0487 61.7523 77.0487L61.7417 77.0593ZM24.0935 5.60757H38.8544C38.8544 5.60757 38.8861 5.60757 38.9073 5.60757L39.4893 5.92439C39.5845 6.05111 39.648 6.22008 39.6586 6.38904L31.8919 11.5108H30.8867L23.2788 6.49465V6.41017C23.2788 6.25176 23.3317 6.09335 23.4058 5.96663L24.083 5.60757H24.0935ZM39.6586 11.5108H34.3256L39.6586 7.99423V11.5108ZM23.2894 8.11039L28.453 11.5214H23.2894V8.11039ZM23.2894 46.6559V46.6136L31.5322 39.517L39.6692 46.5291V46.6664L39.7856 46.8882L31.4793 50.088L23.173 46.8882L23.2894 46.6664V46.6559ZM40.4416 48.0921L44.1768 54.9563L33.3945 50.8061L40.4522 48.0921H40.4416ZM39.6586 44.8289L32.5056 38.6616L39.6586 32.4944V44.8289ZM39.5739 30.8786L31.5216 37.8168L23.3529 30.7836L31.384 25.4823L39.5739 30.8786ZM32.6115 24.6797L39.6586 20.0331V29.3262L32.6115 24.6797ZM31.3946 23.8771L23.4798 18.6602L31.3946 13.4434L39.3094 18.6602L31.3946 23.8771ZM30.1778 24.6797L23.2894 29.2206V20.1387L30.1778 24.6797ZM30.5481 38.6616L23.2894 44.9134V32.4099L30.5481 38.6616ZM29.5535 50.8061L18.7712 54.9563L22.5064 48.0921L29.5641 50.8061H29.5535ZM31.4687 51.5453L44.1979 56.4454L31.4687 63.2568L18.7394 56.4454L31.4687 51.5453ZM58.7472 29.548H40.9495V19.9908L58.7472 29.548ZM39.6586 17.2979L33.331 13.1266H39.6586V17.2979ZM40.9495 11.5108V6.70586L49.8907 11.5108H40.9495ZM36.5159 4.32977H26.4849L31.5004 1.63686L36.5159 4.32977ZM13.1102 11.5108L22.009 6.73754V11.5108H13.1102ZM29.4477 13.1266L23.2894 17.1923V13.1266H29.4477ZM4.66634 29.548L21.9984 20.2337V29.548H4.66634ZM7.20584 76.2461L17.2686 57.7337L29.5111 64.3129L7.20584 76.2461ZM45.6793 57.7337L55.7421 76.2461L33.4368 64.3129L45.6793 57.7337Z" fill="#0DA9FF" stroke="#00402A" mask="url(#path-1-inside-1_99_19608)"/>
</svg>
