<svg width="108" height="98" viewBox="0 0 108 98" fill="none" xmlns="http://www.w3.org/2000/svg">
<path d="M19.6191 20.3149L20.2314 94.9966H18.2529L18.8652 20.3149H19.6191Z" fill="#3CC2FF" stroke="#00402A" stroke-width="0.5"/>
<path d="M18.9239 20.827C18.8981 20.8463 18.8707 20.8686 18.8403 20.8914C18.6631 21.0244 18.4092 21.2148 18.1028 21.4441C17.49 21.9028 16.6665 22.5175 15.8251 23.1412C14.9837 23.765 14.1247 24.3974 13.4397 24.8922C13.0971 25.1397 12.7989 25.3525 12.5686 25.5119C12.3312 25.6763 12.1816 25.7726 12.1272 25.8001C11.8383 25.9457 9.23027 27.1378 6.68315 28.2989C5.41163 28.8785 4.1582 29.4494 3.22287 29.8749C2.75531 30.0876 2.36692 30.2643 2.09569 30.3876C2.00594 30.4284 1.92865 30.4626 1.86587 30.4912L1.60482 30.0858C1.64521 30.0581 1.69184 30.0274 1.74318 29.9922C1.95862 29.8444 2.26693 29.6325 2.63775 29.3772C3.37959 28.8664 4.37272 28.1798 5.37664 27.4786C6.38011 26.7777 7.39585 26.0614 8.18289 25.4896C8.57623 25.2039 8.9148 24.9532 9.16603 24.7582C9.2913 24.661 9.39679 24.5759 9.47777 24.5066C9.55114 24.4439 9.62549 24.3762 9.6673 24.3189C9.65596 24.3345 9.65124 24.3349 9.6732 24.3183C9.69128 24.3047 9.71867 24.2862 9.75723 24.2629C9.83412 24.2163 9.942 24.1582 10.0793 24.0895C10.3532 23.9523 10.729 23.7802 11.1744 23.5855C12.0646 23.1966 13.2212 22.7214 14.3685 22.2608C15.5152 21.8005 16.6513 21.3553 17.5008 21.0249C17.9254 20.8598 18.2784 20.7236 18.5252 20.6285C18.605 20.5977 18.6737 20.5707 18.7302 20.549L18.9239 20.827Z" fill="#3CC2FF" stroke="#00402A" stroke-width="0.5"/>
<path d="M19.8646 0.537404C19.8683 0.567799 19.8732 0.600672 19.8775 0.63614C19.904 0.855998 19.9415 1.17113 19.9867 1.55098C20.0771 2.31105 20.1972 3.33209 20.3162 4.37293C20.4352 5.41383 20.5527 6.47484 20.6385 7.31635C20.6814 7.737 20.7164 8.10171 20.7393 8.38135C20.7628 8.66899 20.7721 8.84746 20.7688 8.90994C20.7513 9.23448 20.4794 12.0914 20.2109 14.8796C20.0769 16.2708 19.9438 17.6413 19.8444 18.664C19.7947 19.1754 19.7538 19.6002 19.7249 19.8968C19.7154 19.9944 19.7069 20.0782 19.7002 20.1466L19.218 20.1715C19.2142 20.123 19.2107 20.0673 19.2059 20.0057C19.1857 19.7454 19.1567 19.3728 19.1209 18.9243C19.0494 18.0269 18.9509 16.8248 18.8455 15.6055C18.7401 14.3863 18.6276 13.1485 18.526 12.1813C18.4752 11.6982 18.427 11.2805 18.3839 10.9656C18.3624 10.8085 18.3413 10.6742 18.3218 10.5695C18.313 10.5221 18.3036 10.4738 18.2926 10.4297L18.2601 10.3262C18.2602 10.3261 18.2583 10.3199 18.2566 10.3059C18.2539 10.2833 18.2521 10.2501 18.2512 10.2051C18.2494 10.1151 18.2532 9.99266 18.2623 9.83948C18.2806 9.53372 18.3195 9.12232 18.3736 8.63936C18.4818 7.67414 18.6482 6.43543 18.8228 5.21192C18.9973 3.989 19.1797 2.78286 19.3181 1.88223C19.3872 1.43212 19.4453 1.05834 19.4862 0.797135C19.4998 0.710414 19.511 0.635652 19.5205 0.57508L19.8646 0.537404Z" fill="#3CC2FF" stroke="#00402A" stroke-width="0.5"/>
<path d="M20.3148 20.6171C20.5187 20.7041 20.8108 20.8291 21.1627 20.98C21.8667 21.2817 22.8108 21.688 23.7721 22.1052C24.7337 22.5225 25.7121 22.9504 26.4836 23.2965C26.8693 23.4696 27.2022 23.6221 27.4554 23.7419C27.7165 23.8654 27.8747 23.9461 27.9256 23.9795C28.199 24.1583 30.538 25.8222 32.8183 27.4484C33.9562 28.2599 35.0771 29.0595 35.9131 29.6567C36.331 29.9552 36.6774 30.2037 36.9198 30.377C36.9998 30.4342 37.0689 30.4832 37.1249 30.5232L36.9089 30.9501C36.8653 30.9292 36.815 30.9059 36.7599 30.8796C36.5242 30.767 36.1868 30.6063 35.7803 30.4131C34.9669 30.0265 33.876 29.5099 32.7667 28.9917C31.6578 28.4736 30.5289 27.953 29.6402 27.5577C29.1962 27.3601 28.8103 27.1931 28.516 27.0732C28.369 27.0132 28.2426 26.9641 28.1421 26.9286C28.0512 26.8964 27.9561 26.8658 27.8859 26.8581L27.9006 26.8602C27.8993 26.8598 27.8936 26.8578 27.8824 26.853C27.8616 26.8441 27.8316 26.8297 27.7921 26.8079C27.7134 26.7646 27.6092 26.7002 27.4812 26.6158C27.2254 26.4471 26.8884 26.207 26.497 25.9186C25.7152 25.3425 24.7259 24.5794 23.7534 23.8166C22.7811 23.0539 21.8263 22.2923 21.1152 21.7221C20.7599 21.4372 20.465 21.2004 20.2592 21.0344C20.1907 20.9791 20.1315 20.9318 20.0837 20.8931L20.222 20.5777C20.2505 20.5899 20.2816 20.6029 20.3148 20.6171Z" fill="#3CC2FF" stroke="#00402A" stroke-width="0.5"/>
<path d="M37.217 30.5604C37.3316 30.6471 37.3578 30.7986 37.2915 30.9055L37.2885 30.9094C37.2181 31.0277 37.0628 31.0705 36.9429 31.0082L36.9417 31.0075L36.3238 30.693L36.6784 30.1806L37.217 30.5604Z" fill="#3CC2FF" stroke="#00402A" stroke-width="0.5"/>
<path d="M19.7284 0.36652C19.8604 0.370571 19.9725 0.483027 19.9757 0.625764L19.9763 0.627648L19.9968 1.32276L19.3807 1.25479L19.4617 0.597652L19.4624 0.585317C19.4707 0.469156 19.579 0.362209 19.7284 0.36652Z" fill="#3CC2FF" stroke="#00402A" stroke-width="0.5"/>
<path d="M2.40369 30.2638L1.80129 30.5373L1.79401 30.5404C1.68145 30.5961 1.53513 30.5565 1.46306 30.4266L1.46281 30.4256L1.44235 30.3806C1.40676 30.2722 1.44818 30.1472 1.55258 30.081L1.55514 30.0793L2.13693 29.701L2.40369 30.2638Z" fill="#3CC2FF" stroke="#00402A" stroke-width="0.5"/>
<path d="M19.0778 19.5047C19.924 19.2725 20.7982 19.7704 21.0303 20.6166C21.2625 21.4629 20.7646 22.3371 19.9184 22.5692C19.0721 22.8013 18.1979 22.3035 17.9658 21.4572C17.7337 20.611 18.2316 19.7368 19.0778 19.5047Z" fill="#3CC2FF" stroke="#00402A" stroke-width="0.5"/>
<path d="M16.0338 69.2842L23.3098 76.5602L22.6946 77.1755L15.4185 69.8994L16.0338 69.2842Z" fill="#3CC2FF" stroke="#00402A" stroke-width="0.5"/>
<path d="M16.0357 77.4902L23.3118 84.7663L22.6965 85.3816L15.4204 78.1055L16.0357 77.4902Z" fill="#3CC2FF" stroke="#00402A" stroke-width="0.5"/>
<path d="M16.0352 86.1577L23.3113 93.4338L22.696 94.049L15.42 86.7729L16.0352 86.1577Z" fill="#3CC2FF" stroke="#00402A" stroke-width="0.5"/>
<path d="M15.5981 68.4961V97.2568H14.728V68.4961H15.5981Z" fill="#3CC2FF" stroke="#00402A" stroke-width="0.5"/>
<path d="M23.751 68.4961V97.2568H22.8809V68.4961H23.751Z" fill="#3CC2FF" stroke="#00402A" stroke-width="0.5"/>
<path d="M23.7505 68.4961V69.3662H14.728V68.4961H23.7505Z" fill="#3CC2FF" stroke="#00402A" stroke-width="0.5"/>
<path d="M23.7505 76.8999V77.77H14.728V76.8999H23.7505Z" fill="#3CC2FF" stroke="#00402A" stroke-width="0.5"/>
<path d="M23.7505 85.3037V86.1738H14.728V85.3037H23.7505Z" fill="#3CC2FF" stroke="#00402A" stroke-width="0.5"/>
<path d="M23.7505 93.7017V97.2573H14.728V93.7017H23.7505Z" fill="#3CC2FF" stroke="#00402A" stroke-width="0.5"/>
<path d="M49.8906 61.5688V68.9937H47.4688V61.5688H49.8906Z" fill="#00A443" stroke="#00402A" stroke-width="0.5"/>
<path d="M63.1201 43.5498V62.4678H34.25V43.5498H63.1201Z" fill="#00402A" stroke="#00402A" stroke-width="0.5"/>
<path d="M41.3047 44.9688V52.1641H36.2412V44.9688H41.3047Z" fill="#00A443" stroke="#00402A" stroke-width="0.5"/>
<path d="M47.9092 44.9688V52.1641H42.8457V44.9688H47.9092Z" fill="#00A443" stroke="#00402A" stroke-width="0.5"/>
<path d="M54.5239 44.9688V52.1641H49.4604V44.9688H54.5239Z" fill="#00A443" stroke="#00402A" stroke-width="0.5"/>
<path d="M61.1284 44.9688V52.1641H56.0649V44.9688H61.1284Z" fill="#00A443" stroke="#00402A" stroke-width="0.5"/>
<path d="M41.3047 53.8735V61.0688H36.2412V53.8735H41.3047Z" fill="#00A443" stroke="#00402A" stroke-width="0.5"/>
<path d="M47.9092 53.8735V61.0688H42.8457V53.8735H47.9092Z" fill="#00A443" stroke="#00402A" stroke-width="0.5"/>
<path d="M54.5239 53.8735V61.0688H49.4604V53.8735H54.5239Z" fill="#00A443" stroke="#00402A" stroke-width="0.5"/>
<path d="M61.1284 53.8735V61.0688H56.0649V53.8735H61.1284Z" fill="#00A443" stroke="#00402A" stroke-width="0.5"/>
<path d="M83.9639 61.269V68.6938H81.542V61.269H83.9639Z" fill="#00402A" stroke="#00402A" stroke-width="0.5"/>
<path d="M97.1831 43.25V62.168H68.313V43.25H97.1831Z" fill="#00A443" stroke="#00402A" stroke-width="0.5"/>
<path d="M75.3677 44.6689V51.8643H70.3042V44.6689H75.3677Z" fill="#008C39" stroke="#00402A" stroke-width="0.5"/>
<path d="M81.9722 44.6689V51.8643H76.9087V44.6689H81.9722Z" fill="#008C39" stroke="#00402A" stroke-width="0.5"/>
<path d="M88.5869 44.6689V51.8643H83.5234V44.6689H88.5869Z" fill="#008C39" stroke="#00402A" stroke-width="0.5"/>
<path d="M95.1914 44.6689V51.8643H90.1279V44.6689H95.1914Z" fill="#008C39" stroke="#00402A" stroke-width="0.5"/>
<path d="M75.3677 53.5635V60.7588H70.3042V53.5635H75.3677Z" fill="#008C39" stroke="#00402A" stroke-width="0.5"/>
<path d="M81.9722 53.5635V60.7588H76.9087V53.5635H81.9722Z" fill="#008C39" stroke="#00402A" stroke-width="0.5"/>
<path d="M88.5869 53.5635V60.7588H83.5234V53.5635H88.5869Z" fill="#008C39" stroke="#00402A" stroke-width="0.5"/>
<path d="M95.1914 53.5635V60.7588H90.1279V53.5635H95.1914Z" fill="#008C39" stroke="#00402A" stroke-width="0.5"/>
<path d="M60.4678 89.9814V97.4062H58.0459V89.9814H60.4678Z" fill="#00402A" stroke="#00402A" stroke-width="0.5"/>
<path d="M73.6875 71.9624V90.8804H44.8174V71.9624H73.6875Z" fill="#00A443" stroke="#00402A" stroke-width="0.5"/>
<path d="M51.8818 73.3716V80.5669H46.8184V73.3716H51.8818Z" fill="#008C39" stroke="#00402A" stroke-width="0.5"/>
<path d="M58.4863 73.3716V80.5669H53.4229V73.3716H58.4863Z" fill="#008C39" stroke="#00402A" stroke-width="0.5"/>
<path d="M65.0908 73.3716V80.5669H60.0273V73.3716H65.0908Z" fill="#008C39" stroke="#00402A" stroke-width="0.5"/>
<path d="M71.6953 73.3716V80.5669H66.6318V73.3716H71.6953Z" fill="#008C39" stroke="#00402A" stroke-width="0.5"/>
<path d="M51.8818 82.2764V89.4717H46.8184V82.2764H51.8818Z" fill="#008C39" stroke="#00402A" stroke-width="0.5"/>
<path d="M58.4863 82.2764V89.4717H53.4229V82.2764H58.4863Z" fill="#008C39" stroke="#00402A" stroke-width="0.5"/>
<path d="M65.0908 82.2764V89.4717H60.0273V82.2764H65.0908Z" fill="#008C39" stroke="#00402A" stroke-width="0.5"/>
<path d="M71.6953 82.2764V89.4717H66.6318V82.2764H71.6953Z" fill="#008C39" stroke="#00402A" stroke-width="0.5"/>
<path d="M94.5308 89.6816V97.1064H92.1089V89.6816H94.5308Z" fill="#00A443" stroke="#00402A" stroke-width="0.5"/>
<path d="M107.75 71.6523V90.5703H78.8804V71.6523H107.75Z" fill="#00402A" stroke="#00402A" stroke-width="0.5"/>
<path d="M85.9448 73.0718V80.2671H80.8813V73.0718H85.9448Z" fill="#00A443" stroke="#00402A" stroke-width="0.5"/>
<path d="M92.5493 73.0718V80.2671H87.4858V73.0718H92.5493Z" fill="#00A443" stroke="#00402A" stroke-width="0.5"/>
<path d="M99.1538 73.0718V80.2671H94.0903V73.0718H99.1538Z" fill="#00A443" stroke="#00402A" stroke-width="0.5"/>
<path d="M105.758 73.0718V80.2671H100.695V73.0718H105.758Z" fill="#00A443" stroke="#00402A" stroke-width="0.5"/>
<path d="M85.9448 81.9761V89.1714H80.8813V81.9761H85.9448Z" fill="#00A443" stroke="#00402A" stroke-width="0.5"/>
<path d="M92.5493 81.9761V89.1714H87.4858V81.9761H92.5493Z" fill="#00A443" stroke="#00402A" stroke-width="0.5"/>
<path d="M99.1538 81.9761V89.1714H94.0903V81.9761H99.1538Z" fill="#00A443" stroke="#00402A" stroke-width="0.5"/>
<path d="M105.758 81.9761V89.1714H100.695V81.9761H105.758Z" fill="#00A443" stroke="#00402A" stroke-width="0.5"/>
</svg>
