<?xml version="1.0" encoding="UTF-8"?>
<svg width="169px" height="167px" viewBox="0 0 169 167" version="1.1" xmlns="http://www.w3.org/2000/svg" xmlns:xlink="http://www.w3.org/1999/xlink">
    <title>Group</title>
    <g id="Page-1" stroke="none" stroke-width="1" fill="none" fill-rule="evenodd">
        <g id="Group" transform="translate(0.8027, 0.8944)" fill-rule="nonzero">
            <path d="M45.8813,42.1695663 L39.3263,39.7835663 L38.1353,38.5905663 L35.7513,40.3805663 L32.1763,40.9765663 L28.0053,42.1695663 L22.6423,46.9405663 L21.4513,50.5185663 L14.8963,55.8865663 L15.4923,57.0785663 L16.6843,59.4645663 L11.9173,66.0245663 L10.7253,68.4105663 L5.9586,69.0065663 L1.7876,67.8135663 L0,69.0065663 L1.1918,70.1995663 L2.3835,73.1815663 L7.7462,80.3375663 L7.1504,85.1085663 L9.5333,87.4945663 L11.3213,87.4945663 L11.9173,92.2655663 L9.5333,92.2655663 L10.1293,95.2475663 L10.7253,97.6325663 L9.5333,100.018566 L9.5333,105.981566 L11.3213,108.367566 L11.3213,113.138566 L12.5133,114.927566 L11.3213,117.909566 L8.3421,123.277566 L8.3421,126.258566 L12.5133,128.048566 L11.9173,129.837566 L13.1093,132.819566 L10.1293,134.011566 L9.5333,136.397566 L7.7462,140.572566 L8.9379,145.939566 L14.3003,151.306566 L12.5133,152.499566 L12.5133,154.885566 L9.5333,155.481566 L5.9586,159.059566 L5.3628,162.638566 C6.1572,163.632566 7.6267,165.620566 7.1501,165.620566 L9.5333,165.620566 L10.7253,163.830566 L13.7043,165.620566 L18.4713,163.234566 L20.2593,165.620566 L22.0463,163.234566 L25.0263,162.638566 L29.1973,162.638566 L32.1763,160.849566 L32.7723,158.463566 L32.1763,155.481566 L33.9643,154.885566 L37.5393,151.903566 L40.5183,150.710566 L44.0933,149.517566 L45.2853,147.728566 L47.6683,145.939566 L50.6483,145.939566 L51.8393,144.746566 L53.6273,140.572566 L56.6063,139.975566 L59.5853,138.186566 L61.9693,136.993566 L64.9483,135.204566 L68.5243,138.186566 L71.5033,142.361566 L74.4823,144.746566 L78.0573,145.343566 L78.0573,147.728566 L76.2693,150.114566 L74.4823,151.903566 L76.8653,152.499566 L80.4413,153.692566 L84.0163,155.481566 L86.3993,158.463566 L89.3783,160.849566 L93.5493,162.041566 L94.1453,159.059566 L95.9333,156.077566 L98.9123,155.481566 L101.8923,153.096566 L104.2753,152.499566 L104.8713,156.077566 L104.2753,158.463566 L102.4873,159.656566 L106.6583,161.445566 L109.0423,160.252566 L113.8093,159.656566 L118.5763,152.499566 L119.7673,145.939566 L121.5553,140.572566 L125.1303,139.379566 L128.1103,143.553566 L130.6473,143.510566 L131.6843,144.746566 L132.8763,142.957566 L132.8763,139.379566 L138.8353,132.819566 L139.4313,129.837566 L141.0993,129.038566 L139.4313,126.855566 L128.7053,126.258566 L128.1103,124.469566 L130.4933,120.295566 L133.4723,119.698566 L135.2603,118.505566 L137.8833,119.391566 L141.8143,116.716566 L142.4103,113.734566 L152.3543,108.537566 L160.8823,101.807566 L163.2083,96.0755663 L162.8063,93.6635663 L161.6003,92.8595663 L162.0733,91.0725663 L165.6483,91.0725663 L168.0323,86.8975663 L166.8403,83.3195663 L166.0223,70.3485663 L162.8063,69.5445663 L161.6003,68.7405663 L162.0733,66.6205663 L162.0733,59.4945663 L153.7313,54.6935663 L151.3483,60.0605663 L139.4313,60.0605663 L137.6433,57.6755663 L132.8763,60.0605663 L127.5133,60.0605663 L127.5133,54.0965663 L124.5343,51.1145663 L120.9593,52.3075663 L115.5963,51.1145663 L114.4053,46.3435663 L108.4463,46.9405663 L104.8713,51.7115663 L101.2963,51.7115663 L94.1453,48.7295663 L89.9743,50.5185663 L88.7833,55.8865663 L85.2073,61.2535663 L78.0573,62.4465663 L73.2903,54.6935663 L69.1193,52.3075663 L61.9693,54.0965663 L57.7983,51.1145663 L53.0313,46.3435663 L45.8813,42.1695663 Z" id="Path" fill="#00402A"></path>
            <path d="M40.8253,14.9145663 C43.2823,22.4665663 30.2113,41.8855663 23.3693,50.6505663 C7.1865,27.7255663 4.4894,21.3575663 5.9878,13.9405663 C7.4862,6.52356628 14.9783,-0.219333719 23.3693,0.00546628111 C31.7603,0.230566281 39.2523,5.99856628 40.8253,14.9145663 Z" id="Path" fill="#FF9C1A"></path>
            <circle id="Oval" fill="#FFFEFF" cx="23.4463" cy="17.7595663" r="8.61571"></circle>
        </g>
    </g>
</svg>