<?xml version="1.0" encoding="UTF-8"?>
<svg width="135px" height="90px" viewBox="0 0 135 90" version="1.1" xmlns="http://www.w3.org/2000/svg" xmlns:xlink="http://www.w3.org/1999/xlink">
    <title>Group</title>
    <g id="Page-1" stroke="none" stroke-width="1" fill="none" fill-rule="evenodd">
        <g id="Group" transform="translate(0.8574, -1.0002)" fill-rule="nonzero">
            <polygon id="Path" fill="#00402A" points="13.8938 52.5361981 11.4624 54.2581981 11.4624 60.8001981 14.2411 59.0791981 15.6305 59.4231981 17.0199 58.7341981 19.1039 59.7671981 20.4933 62.1781981 20.4933 64.9331981 19.1039 66.9991981 17.0199 67.6871981 14.9358 69.7531981 13.1991 69.7531981 12.5044 73.1971981 9.031 76.9841981 9.031 79.0501981 10.4203 82.4941981 13.1991 81.8051981 14.2411 85.5931981 13.1991 87.3151981 13.1991 89.0361981 14.9358 90.0691981 20.146 90.0691981 23.9668 87.6591981 26.3982 88.0031981 26.3982 85.9371981 29.5246 82.4941981 31.2606 82.8381981 34.7346 81.8051981 35.4296 76.9841981 36.8186 76.2961981 37.8606 81.8051981 36.8186 84.2151981 38.9026 85.5931981 38.9026 83.8711981 40.9866 83.1821981 40.9866 81.8051981 46.1966 81.8051981 47.5866 79.7391981 50.3646 80.4281981 53.1436 78.3621981 56.9646 81.8051981 63.2166 81.8051981 61.1326 83.8711981 61.1326 88.0031981 65.3006 86.9701981 69.4686 85.5931981 68.7746 83.1821981 70.8586 82.1491981 71.5526 83.8711981 74.3316 83.1821981 74.3316 86.2821981 76.4156 86.9701981 76.4156 90.4141981 79.5416 87.3151981 79.8896 85.5931981 81.2786 84.5601981 83.0156 86.2821981 86.1416 86.2821981 95.5196 82.1491981 98.2986 76.6401981 96.9086 74.2301981 97.6036 69.7531981 99.3406 71.1311981 100.7296 69.0651981 105.2456 71.1311981 106.9816 73.8851981 109.4136 73.5411981 110.9056 73.4231981 111.8316 72.1871981 111.4976 71.1311981 112.5396 69.7531981 114.2766 65.2771981 113.2346 62.8661981 109.4136 63.2111981 107.6766 59.7671981 109.4136 59.7671981 111.4976 59.0791981 112.1926 56.3241981 114.2766 54.9471981 115.3186 53.2251981 116.0126 49.4371981 117.4026 49.4371981 119.1386 48.0601981 121.2226 45.6501981 122.9596 44.2721981 125.0436 44.2721981 126.7806 45.6501981 127.8226 46.3381981 128.8646 44.9611981 127.8226 42.2061981 129.2116 41.1731981 131.6436 37.3851981 133.3796 36.0081981 134.0746 32.5651981 132.6856 29.1211981 127.8226 25.6781981 124.0016 23.6121981 125.7386 21.2021981 126.3516 18.1241981 127.8226 16.0361981 124.4976 14.1081981 122.0266 14.4171981 120.5286 12.5931981 117.4026 10.8711981 114.3036 10.4011981 112.1406 12.5641981 109.4136 13.2821981 103.8556 22.5791981 102.1196 30.4991981 100.0346 30.4991981 98.6456 29.4661981 89.2676 21.8901981 89.2676 19.4801981 84.4046 19.4801981 80.5836 18.1021981 77.4576 20.1681981 74.6786 23.2681981 73.6366 24.9891981 72.2476 24.9891981 66.6896 22.5791981 64.6056 23.9561981 61.8276 27.4001981 59.7436 27.4001981 58.0066 24.9891981 57.3116 22.5791981 54.5326 19.4801981 52.1016 21.2021981 47.9336 17.7581981 47.9336 13.2821981 49.3226 11.5601981 47.9336 7.08419811 44.4596 8.46119811 43.0706 8.46119811 41.6816 7.08419811 38.5556 4.32919811 37.5136 4.32919811 34.3866 5.01819811 32.3026 5.01819811 29.1766 3.98519811 23.9668 3.98519811 20.8407 5.70619811 18.7566 5.70619811 15.6305 3.29619811 12.5044 7.08419811 10.7677 7.77219811 9.031 10.1831981 5.9049 11.2161981 3.1261 11.2161981 1.0421 9.15019811 0 9.15019811 0.6947 12.5931981 5.2102 17.4141981 6.5996 17.7581981 6.5996 20.1681981 2.4314 24.3011981 2.4314 27.7441981 4.8628 29.1211981 7.2942 34.2861981 12.8517 40.4841981 14.2411 40.4841981 14.9358 42.8951981 13.5464 42.8951981 12.8517 45.3051981 15.6305 47.3711981 15.6305 50.1261981 14.2411 50.1261981"></polygon>
            <path d="M112.2296,15.2151981 C114.5716,22.4131981 102.1136,40.9211981 95.5916,49.2751981 C80.1686,27.4251981 77.5976,21.3561981 79.0256,14.2871981 C80.4536,7.21719811 87.5946,0.791198109 95.5916,1.00519811 C103.5896,1.21919811 110.7296,6.71819811 112.2296,15.2151981 Z" id="Path" fill="#FF9C1A"></path>
            <circle id="Oval" fill="#FFFEFF" cx="95.6636" cy="17.9271981" r="8.21164"></circle>
        </g>
    </g>
</svg>