<svg width="40" height="40" viewBox="0 0 40 40" fill="none" xmlns="http://www.w3.org/2000/svg">
<path fill-rule="evenodd" clip-rule="evenodd" d="M19.992 7.49827C13.0922 7.49827 7.49876 13.0917 7.49876 19.9915C7.49876 26.8913 13.0922 32.4847 19.992 32.4847C26.8918 32.4847 32.4852 26.8913 32.4852 19.9915C32.4852 13.0917 26.8918 7.49827 19.992 7.49827ZM6.24902 19.9915C6.24902 12.4015 12.402 6.24854 19.992 6.24854C27.582 6.24854 33.735 12.4015 33.735 19.9915C33.735 27.5815 27.582 33.7345 19.992 33.7345C12.402 33.7345 6.24902 27.5815 6.24902 19.9915Z" fill="#00A443"/>
<path fill-rule="evenodd" clip-rule="evenodd" d="M11.3657 19.3668H14.3679V20.6166H10.7186C10.3735 20.6166 10.0938 20.3368 10.0938 19.9917C10.0938 14.5225 14.527 10.0938 19.9917 10.0938C25.4566 10.0938 29.8896 14.5268 29.8896 19.9917C29.8896 20.3368 29.6099 20.6166 29.2648 20.6166H25.6155V19.3668H28.6176C28.2972 14.8836 24.5562 11.3435 19.9917 11.3435C15.4268 11.3435 11.6859 14.8802 11.3657 19.3668Z" fill="#00A443"/>
<path fill-rule="evenodd" clip-rule="evenodd" d="M19.3672 14.368V10.7146H20.6169V14.368H19.3672Z" fill="#00A443"/>
<path fill-rule="evenodd" clip-rule="evenodd" d="M18.6999 23.741H11.2432V22.4912H18.6999V23.741Z" fill="#00A443"/>
<path fill-rule="evenodd" clip-rule="evenodd" d="M28.7402 23.741H21.2793V22.4912H28.7402V23.741Z" fill="#00A443"/>
<path fill-rule="evenodd" clip-rule="evenodd" d="M19.9917 21.8662C19.3015 21.8662 18.7419 22.4257 18.7419 23.1159C18.7419 23.8061 19.3015 24.3657 19.9917 24.3657C20.6819 24.3657 21.2414 23.8061 21.2414 23.1159C21.2414 22.4257 20.6819 21.8662 19.9917 21.8662ZM17.4922 23.1159C17.4922 21.7355 18.6112 20.6165 19.9917 20.6165C21.3721 20.6165 22.4911 21.7355 22.4911 23.1159C22.4911 24.4964 21.3721 25.6154 19.9917 25.6154C18.6112 25.6154 17.4922 24.4964 17.4922 23.1159Z" fill="#00A443"/>
<path fill-rule="evenodd" clip-rule="evenodd" d="M17.4266 16.5881L19.9885 21.7162L18.8706 22.2748L16.3086 17.1467L17.4266 16.5881Z" fill="#00A443"/>
</svg>
