<svg width="32" height="32" viewBox="0 0 32 32" fill="none" xmlns="http://www.w3.org/2000/svg">
<rect x="0.5" y="0.5" width="31" height="31" rx="15.5" fill="#FFFEFF"/>
<rect x="0.5" y="0.5" width="31" height="31" rx="15.5" stroke="#00A443"/>
<path fill-rule="evenodd" clip-rule="evenodd" d="M11.2266 11.2271C11.5195 10.9342 11.9944 10.9342 12.2873 11.2271L20.7726 19.7124C21.0655 20.0053 21.0655 20.4802 20.7726 20.7731C20.4797 21.066 20.0048 21.066 19.7119 20.7731L11.2266 12.2878C10.9337 11.9949 10.9337 11.52 11.2266 11.2271Z" fill="#00A443"/>
<path fill-rule="evenodd" clip-rule="evenodd" d="M20.7725 11.227C21.0654 11.5199 21.0654 11.9948 20.7725 12.2876L12.2872 20.7729C11.9943 21.0658 11.5195 21.0658 11.2266 20.7729C10.9337 20.48 10.9337 20.0052 11.2266 19.7123L19.7119 11.227C20.0048 10.9341 20.4796 10.9341 20.7725 11.227Z" fill="#00A443"/>
</svg>
