<svg width="156" height="51" viewBox="0 0 156 51" fill="none" xmlns="http://www.w3.org/2000/svg">
<path d="M154.667 13.5652H155.167V14.0652H154.667V13.5652ZM5.33366 48C5.33366 49.4728 4.13976 50.6667 2.66699 50.6667C1.19423 50.6667 0.000320435 49.4728 0.000320435 48C0.000320435 46.5272 1.19423 45.3333 2.66699 45.3333C4.13976 45.3333 5.33366 46.5272 5.33366 48ZM2.66699 13.5652H2.16699V13.0652H2.66699V13.5652ZM154.667 0L155.167 0V13.5652H154.667H154.167V0L154.667 0ZM154.667 13.5652V14.0652L2.66699 14.0652V13.5652V13.0652L154.667 13.0652V13.5652ZM2.66699 13.5652H3.16699V48H2.66699H2.16699V13.5652H2.66699Z" fill="#00402A"/>
</svg>
