<?xml version="1.0" encoding="UTF-8"?>
<svg width="224px" height="451px" viewBox="0 0 224 451" version="1.1" xmlns="http://www.w3.org/2000/svg" xmlns:xlink="http://www.w3.org/1999/xlink">
    <title>Group</title>
    <g id="Page-1" stroke="none" stroke-width="1" fill="none" fill-rule="evenodd">
        <g id="Group" transform="translate(0, 0.3743)" fill-rule="nonzero">
            <path d="M222.713995,50.0657 L220.180995,49.1767 L218.870995,46.4807 L216.535995,44.5117 L212.389995,42.7887 L210.050995,43.0107 L205.938995,41.8437 L205.352995,43.7897 L202.935995,44.7057 L201.484995,44.2337 L199.177995,41.3177 L198.845995,40.5417 L199.594995,40.7637 L199.681995,39.9287 L198.622995,39.1807 L199.014995,37.1507 L198.067995,36.8477 L197.980995,36.3157 L199.540995,33.3747 L199.791995,30.6787 L201.101995,29.7617 L200.377995,28.1227 C200.377995,28.1227 201.681995,24.8747 201.487995,24.8747 C201.323995,24.8747 197.456995,23.9867 197.456995,23.9047 C197.597995,23.8767 199.461995,19.6537 199.461995,19.6537 L199.292995,18.1017 L196.456995,16.0467 L195.813995,18.4867 L194.281995,19.1277 L186.022995,19.4907 C186.022995,19.4907 184.684995,14.7927 184.461995,14.7927 C184.238995,14.7927 181.706995,13.9627 181.706995,13.9627 L181.847995,16.6257 L180.841995,18.9307 L178.058995,18.1837 L176.835995,18.9307 L172.745995,18.5457 L172.272995,16.3497 L170.632995,15.6557 L168.632995,16.9347 L167.714995,17.9607 L166.486995,17.8797 L165.984995,17.6297 L165.091995,18.0147 L164.289995,18.0147 L163.007995,15.7957 L159.057995,14.2667 L158.111995,15.5737 L156.917995,15.0147 L156.052995,18.6277 L157.280995,20.4327 L155.193995,24.3777 L154.905995,24.5067 L154.116995,24.8747 L147.818995,27.8217 L144.840995,27.9567 L144.034995,26.3737 L142.448995,27.5097 L142.448995,28.8457 L139.862995,31.0417 L140.113995,28.5947 C140.113995,28.5947 138.412995,27.8467 138.412995,27.6787 L138.412995,25.4877 L136.161995,25.9607 L135.406995,24.5997 L133.933995,25.5167 L134.378995,27.2087 L130.124995,28.7667 L127.451995,29.0697 L127.899995,25.4907 L129.209995,24.9057 L129.237995,23.9617 L124.592995,24.2117 L121.5,21.6027 L119.329995,23.1267 L117.214995,22.6537 L115.763995,24.2117 L111.676995,24.2647 L112.067995,25.3787 L110.287895,25.9047 L110.287895,27.3527 L108.423095,26.2947 C108.423095,26.2947 109.369595,24.1327 109.369595,23.9637 C109.369595,23.7957 108.423095,19.8257 108.423095,19.8257 L107.363895,20.2697 L106.724495,24.2117 L104.197595,25.2967 L102.639795,24.6837 C102.639795,24.6837 100.634095,27.4617 100.634095,27.5437 C100.634095,27.6027 100.301695,28.9657 100.301695,28.9657 L98.5185954,28.6847 L97.9100954,29.1887 L97.0452954,29.8997 L96.7691954,30.1327 L95.1212954,30.9907 L91.1718954,30.7687 L90.5154954,30.3247 L90.1464954,30.0737 L90.0760954,29.6187 L89.8957954,28.4347 L90.7295954,26.6887 L89.8957954,24.2707 L87.6421954,24.9117 L86.6421954,22.1897 L86.6421954,20.4157 L89.4253954,17.4977 L90.2027954,14.5787 L91.5915954,14.4967 L92.6507954,13.0797 L95.0677954,12.5542 L95.9578954,10.6338 L94.7353954,6.6918 L93.0676954,5.8343 L92.0620954,6.4697 C92.0620954,6.4697 90.9211954,5.9973 90.9492954,6.166 C90.9492954,6.3347 88.6393954,7.5269 88.6393954,7.5269 C88.8083954,7.4454 88.3886954,0.5033 88.3886954,0.5033 L87.8900954,-2.84217094e-14 L86.0252954,1.4733 L84.6082954,0.5033 L83.3856954,1.4452 L83.3856954,2.4433 L82.7715954,2.2746 L80.6025954,4.2203 L79.5968954,4.1613 L78.9602954,5.913 L76.2587954,5.3 L75.1178954,6.6356 L73.8952954,5.913 C73.8952954,5.913 72.1994954,7.2485 72.1121954,6.9983 C72.0304954,6.7481 71.8614954,5.9945 71.8614954,5.9945 L65.9936954,6.2448 L65.5203954,6.6075 L65.5203954,7.9964 L64.7710954,8.6347 L59.4244954,8.8568 L57.4243954,10.4679 L56.5877954,13.1587 L50.6382954,16.4677 L50.4438954,18.1327 C50.4973954,17.9637 50.5255954,17.8567 50.5255954,17.7417 C50.5255954,17.3227 51.0805954,16.3527 51.0805954,16.3527 C51.0805954,16.3527 51.0805954,16.7437 50.9171954,17.4917 C50.7480954,18.2397 50.7762954,18.5487 50.6945954,19.1027 C50.6072954,19.6537 50.4438954,19.7437 49.6353954,20.1877 C48.8607954,20.6327 49.2522954,20.3507 48.6635954,20.8237 C48.0494954,21.3297 48.3874954,21.3297 47.8606954,21.8277 C47.3536954,22.3527 47.7733954,22.1847 47.6043954,22.3277 C47.4409954,22.4627 47.2184954,22.4967 47.0493954,22.3527 C46.8550954,22.2127 46.3000954,22.5467 46.0775954,22.8537 C45.8803954,23.1287 45.3535954,23.7987 44.7958954,24.3237 C44.2408954,24.8557 43.8774954,25.0497 43.5197954,25.5217 C43.1844954,25.9937 42.5760954,26.7417 42.5760954,26.7417 L42.1591954,28.1307 L42.1591954,29.2697 C42.1591954,29.2697 42.4351954,30.0707 42.2661954,30.6057 C42.1027954,31.1307 42.1591954,31.9607 42.1591954,31.9607 C42.1309954,32.4387 42.1591954,32.9367 42.1309954,33.4367 C42.1027954,33.6587 42.0154954,33.6587 41.8267954,33.7407 C41.5168954,33.8277 41.2942954,33.9087 40.9900954,33.9627 C41.1309954,34.1847 41.2661954,34.3817 41.2661954,34.6567 C41.2407954,34.9607 41.1844954,35.1547 41.4069954,35.4047 C41.5703954,35.5457 41.8520954,35.6267 41.9619954,35.8207 C42.1027954,36.0437 42.0436954,36.3217 42.0154954,36.5437 C42.0154954,36.7937 42.0436954,37.0157 42.1844954,37.2667 C42.3816954,37.5477 42.4633954,37.6567 42.4633954,37.9917 C42.4915954,38.2957 42.6041954,38.2417 42.8267954,38.4047 C43.0492954,38.5737 42.9957954,38.8497 42.9957954,39.1277 C42.9957954,39.3837 42.9647954,39.5467 42.6858954,39.6587 C42.4351954,39.7407 42.2999954,39.7407 42.2999954,40.0777 C42.2661954,40.6577 43.1309954,40.1597 43.1844954,40.8007 C43.1844954,41.2447 43.0774954,42.0487 43.6577954,42.1867 C43.6577954,42.1867 45.4944954,41.8777 45.7761954,41.6277 C46.0268954,41.3767 46.1620954,40.9887 46.7761954,41.0737 C47.3902954,41.1547 47.8888954,41.2417 48.3339954,41.0197 C48.7790954,40.7977 49.0860954,40.7977 49.4748954,40.7107 C49.8607954,40.6287 50.1114954,40.6287 50.8072954,40.4607 C51.5030954,40.2917 52.0608954,40.2387 52.0608954,40.2387 C52.0608954,40.2387 52.5058954,40.3257 51.9481954,40.4887 C51.3650954,40.6827 51.3650954,40.7977 50.7255954,40.9327 C50.0861954,41.0737 49.5846954,41.1827 48.9424954,41.3767 C48.2747954,41.5457 47.0240954,41.5457 46.7198954,41.8497 C46.4099954,42.1587 45.7761954,42.2687 45.6042954,42.7937 C45.4099954,43.3257 45.3282954,43.6297 45.0775954,43.8797 C44.7958954,44.1547 44.2943954,44.1827 44.2943954,44.1827 C44.3507954,44.4057 44.5450954,44.4337 44.5450954,44.7147 C44.5732954,44.9027 44.6042954,45.0177 44.6324954,45.2117 C44.6605954,45.4067 44.6324954,45.6567 44.6324954,45.8197 C44.6324954,45.9597 44.6605954,46.0137 44.6859954,46.1567 C44.7141954,46.2387 44.6859954,46.3787 44.7394954,46.4607 C44.8521954,46.6007 44.9873954,46.4887 45.1310954,46.5137 C45.2408954,46.5417 45.3000954,46.6017 45.3535954,46.6827 C45.4634954,46.7957 45.4887954,46.8237 45.5169954,46.9587 C45.5169954,47.0737 45.5507954,47.1547 45.5761954,47.2677 C45.6014954,47.4307 45.6296954,47.5717 45.7113954,47.7397 C45.7169954,47.7457 45.7169954,47.7507 45.7169954,47.7567 C45.7930954,47.9677 45.7704954,48.1587 45.8521954,48.3477 C45.8775954,48.4287 45.8887954,48.4987 45.8944954,48.5697 C45.9113954,48.6957 45.9141954,48.8137 45.9310954,48.9607 C45.9310954,49.0417 45.9902954,49.1007 45.9902954,49.1567 C46.0183954,49.2667 45.9902954,49.4047 46.0183954,49.4887 C46.0465954,49.6297 46.2409954,49.7367 46.2944954,49.9047 C46.3198954,50.0147 46.2944954,50.0737 46.3761954,50.2087 C46.4296954,50.3207 46.5169954,50.3487 46.5451954,50.4897 C46.6268954,50.7397 46.5733954,51.0157 46.5986954,51.2657 C46.6268954,51.6227 46.6268954,51.9607 46.5451954,52.3177 C46.5169954,52.4857 46.4916954,52.6797 46.6860954,52.7617 C46.8493954,52.8767 47.0719954,52.7087 47.2691954,52.7897 C47.5198954,52.9027 47.4916954,53.5437 47.5198954,53.7657 C47.5451954,54.0407 47.7423954,54.5667 47.4634954,54.7637 C47.2691954,54.8737 46.9930954,54.8197 46.8212954,54.9857 C46.6522954,55.1827 46.8212954,55.4047 46.9902954,55.5117 C47.1846954,55.6267 47.4071954,55.6267 47.5987954,55.7057 C47.7677954,55.7867 47.8550954,55.9807 48.0184954,56.0427 C48.2128954,56.1527 48.4100954,56.0707 48.6043954,56.0707 C48.7987954,56.0707 48.9903954,56.1527 49.1593954,56.2597 C49.3001954,56.3467 49.4353954,56.4817 49.3001954,56.6507 C49.1593954,56.7907 48.9367954,56.6507 48.7733954,56.6507 C48.3564954,56.6507 47.9621954,56.8727 47.7423954,57.2067 C47.4916954,57.5917 47.6606954,57.8707 47.6606954,58.2867 C47.6888954,58.6497 47.7423954,58.9807 47.7958954,59.3187 C47.7958954,59.5127 47.8550954,59.6757 47.8550954,59.8447 C47.8550954,59.9317 47.8381954,60.0247 47.8353954,60.1087 C47.8297954,60.2187 47.8240954,60.3197 47.8550954,60.4237 C47.9311954,60.6347 48.1114954,60.7777 48.2747954,60.9267 C48.2804954,60.9377 48.2916954,60.9437 48.2973954,60.9547 C48.4916954,61.1767 48.4635954,61.2867 48.4100954,61.5337 C48.3564954,61.7567 48.3818954,61.9787 48.3818954,62.2287 C48.3818954,62.3697 48.4353954,62.7267 48.3818954,62.8697 C48.2945954,63.0637 48.0466954,62.9517 47.9085954,63.0637 C47.7677954,63.1737 47.8550954,63.4207 47.8550954,63.5897 L47.8550954,64.6467 C47.8550954,64.8687 47.8832954,65.0907 47.8550954,65.2797 C47.8212954,65.4757 47.6860954,65.5887 47.5987954,65.7857 C47.4099954,66.1707 47.5170954,66.6427 47.5705954,67.0587 C47.5987954,67.2817 47.5451954,67.4757 47.6578954,67.7007 C47.7677954,67.9227 47.9902954,68.1167 48.1311954,68.3387 C48.2409954,68.5327 48.2663954,68.7237 48.3536954,68.9177 C48.4071954,69.0587 48.5480954,69.1937 48.6297954,69.3337 C48.6297954,69.3337 49.1565954,69.6097 49.4917954,69.9467 L49.6551954,69.9467 C49.6551954,69.9467 50.5452954,71.4177 50.6326954,71.6927 C50.7142954,71.9427 50.7959954,72.4747 50.8551954,72.9127 C50.8833954,73.3317 51.1593954,73.3907 51.4636954,73.6417 C51.7396954,73.9167 51.7396954,74.4177 51.7396954,74.4177 C51.7396954,74.4177 51.4889954,74.8617 51.4072954,75.1657 C51.3255954,75.4747 51.4607954,76.6947 51.4607954,76.9707 C51.4607954,77.2737 52.0213954,78.7507 52.2692954,79.4977 C52.5481954,80.2207 52.2411954,80.6647 52.1819954,81.1097 C52.1565954,81.5287 52.4326954,83.5247 52.5735954,83.8877 C52.7143954,84.2187 53.6608954,86.2997 53.8242954,86.6907 C54.0186954,87.0817 54.6327954,88.7457 54.6608954,89.1367 C54.7172954,89.5217 55.8299954,90.0537 55.9116954,90.3847 C56.0271954,90.7477 57.0243954,90.3847 57.3032954,90.3847 C57.6130954,90.3847 58.5314954,90.6607 58.6948954,90.7757 C58.8920954,90.9107 59.6131954,90.7757 59.8356954,90.7757 L60.6188954,90.7757 L60.6188954,91.1607 L59.8948954,91.2487 C59.8948954,91.2487 59.1398954,91.2197 58.7539954,91.2197 C58.3680954,91.2197 58.1398954,90.7757 57.9990954,90.7757 C57.8891954,90.7757 56.9736954,90.9107 56.7482954,91.0517 C56.5257954,91.1587 56.0243954,91.6587 55.8834954,91.8277 C55.7482954,91.9957 56.1341954,92.9947 56.2750954,93.2417 C56.4158954,93.5227 56.6637954,94.2177 56.7482954,94.6307 C56.8299954,95.0747 57.1933954,95.8227 57.1933954,96.3287 C57.1933954,96.8347 57.1116954,97.6027 57.0243954,98.3847 C56.9595954,98.8507 57.0356954,99.3827 57.1285954,99.8497 C57.1961954,100.1587 57.2609954,100.4397 57.3032954,100.6307 C57.3088954,100.6427 57.3088954,100.6587 57.3088954,100.6677 C57.4440954,101.1627 57.4440954,102.5877 57.5257954,103.2457 C57.6130954,103.8817 57.6130954,104.7947 57.5004954,105.4357 C57.3651954,106.0777 57.2215954,105.6587 57.1144954,105.8527 C56.9736954,106.0207 57.0271954,106.7157 57.1144954,107.4357 C57.1961954,108.1827 56.5820954,109.7407 56.5820954,110.0167 C56.5820954,110.2667 55.9736954,113.1797 55.8327954,113.6547 C55.7257954,114.1267 55.2186954,115.9887 55.2186954,115.9887 C55.2186954,115.9887 54.6637954,118.5977 54.7200954,118.8477 C54.8073954,119.4017 54.3341954,121.1257 54.1115954,121.6257 C53.8890954,122.1517 53.5510954,122.9867 53.3284954,123.9847 C53.1059954,124.9827 52.8552954,126.9567 52.4382954,127.6237 C52.0523954,128.2617 51.2438954,131.1747 51.1621954,131.6467 C51.0467954,132.1197 50.7171954,133.3447 50.7706954,134.2897 C50.7988954,135.2597 50.1875954,137.0397 50.3255954,137.2897 C50.4664954,137.5657 51.2720954,137.5117 51.3312954,136.9527 C51.3565954,136.4017 51.9396954,135.0917 51.9396954,134.7337 C51.9396954,134.3967 51.9396954,133.2047 52.0270954,133.0107 C52.1087954,132.7887 52.8580954,132.2347 52.9453954,131.9257 C53.0270954,131.6217 52.9735954,130.6237 53.0270954,130.1787 C53.0552954,129.7347 53.1087954,129.2627 53.3312954,129.0407 C53.5538954,128.8467 54.0552954,128.4557 54.1960954,128.1517 C54.3369954,127.8487 54.2777954,126.4877 54.2777954,125.9337 C54.2777954,125.3797 53.8327954,124.6827 54.1425954,124.1537 C54.4468954,123.6527 55.1172954,123.4057 55.4750954,122.8997 C55.5088954,122.8747 55.5341954,122.8467 55.5341954,122.7927 C55.8919954,122.2387 56.0609954,121.4037 56.0609954,121.0717 C56.0609954,120.7097 56.5877954,119.4607 56.5877954,119.4607 C56.5877954,119.4607 56.5060954,119.7647 56.5877954,120.2907 C56.6722954,120.8157 56.6158954,121.2937 56.8975954,120.9847 C57.1482954,120.6817 57.5060954,120.2907 57.5060954,120.2907 C57.5060954,120.2907 58.1201954,119.9867 58.0638954,120.2907 C58.0046954,120.5997 57.8412954,121.1537 57.4497954,121.4577 C57.0581954,121.7667 56.5313954,122.2387 56.3623954,122.3207 C56.1989954,122.4017 55.4440954,123.2367 55.4158954,123.7627 C55.3595954,124.2887 55.1116954,124.6237 55.3595954,125.0957 C55.6383954,125.5677 55.9144954,126.7067 56.0299954,127.3197 C56.1116954,127.9267 56.2806954,128.5677 56.4496954,128.9587 C56.6130954,129.3437 56.8074954,130.0977 56.8356954,130.8457 C56.8947954,131.5677 57.2806954,132.0377 57.3680954,132.3437 C57.4497954,132.6537 57.4497954,133.0387 57.4497954,133.4297 C57.4497954,133.8207 56.7539954,134.7037 56.6130954,134.7037 C56.5032954,134.7037 54.9989954,134.7907 54.1960954,134.7907 C53.3932954,134.7907 52.5819954,134.5967 52.4129954,134.8717 C52.2495954,135.1217 52.2495954,135.2067 52.0270954,135.8757 C51.8044954,136.5107 51.5819954,137.0087 51.5819954,137.4557 C51.5819954,137.9027 51.0495954,137.9877 50.8607954,138.3447 C50.6382954,138.6817 50.0776954,139.6797 49.9706954,140.3717 C49.8832954,141.0657 50.1649954,141.5387 49.9706954,142.5367 C49.8720954,143.1077 49.7086954,143.9257 49.5565954,144.6627 C49.4748954,145.0527 49.4043954,145.3907 49.3452954,145.6777 C49.3255954,145.7957 49.2917954,145.9497 49.2748954,146.0347 C49.1621954,146.7007 48.2438954,148.5877 48.2438954,148.9247 C48.2438954,149.2817 47.6888954,150.7047 47.2972954,151.5337 C46.8775954,152.3407 46.1845954,156.3397 45.9338954,157.0337 C45.6859954,157.7287 44.4605954,161.5917 44.4605954,161.9487 C44.4605954,162.2857 43.6239954,164.5917 43.5422954,164.8957 C43.4605954,165.1987 42.4548954,167.2267 42.4295954,167.5917 C42.3760954,167.9237 41.9309954,170.6737 41.8210954,171.1427 C41.6802954,171.6157 41.2069954,173.2267 40.9027954,173.8927 C40.5928954,174.5337 39.7618954,175.1667 40.2069954,175.8607 C40.6210954,176.5557 42.1253954,178.0847 42.5985954,178.5297 C43.0718954,178.9457 43.5168954,178.9197 44.6324954,179.0807 C45.7733954,179.2487 46.6043954,179.3307 46.8015954,179.6117 C47.0240954,179.8617 46.6043954,180.1657 45.9366954,179.9157 L44.9366954,179.6117 L44.0183954,179.8617 C44.2155954,180.5567 44.7141954,180.2187 44.6859954,180.6097 C44.6324954,181.0007 44.6042954,181.3857 44.4634954,181.3857 C44.3225954,181.3297 44.0718954,181.1077 43.7676954,180.6377 C43.4633954,180.1657 43.6267954,179.3027 43.1535954,179.7217 C42.6802954,180.1657 42.5985954,180.5227 42.3224954,181.7237 C42.0717954,182.9437 42.0126954,184.3327 41.7619954,185.3307 C41.6914954,185.6117 41.6267954,185.8317 41.5590954,186.0257 C41.4633954,186.3177 41.3647954,186.5567 41.2661954,186.8127 C41.1900954,187.0067 41.1140954,187.2067 41.0379954,187.4677 C40.7590954,188.2747 40.1196954,190.4117 40.0632954,190.8027 C40.0351954,191.1937 38.1984954,196.6877 37.9758954,197.2717 C37.7533954,197.8257 36.0321954,201.7427 35.9701954,202.1587 C35.9420954,202.6027 36.2518954,202.8537 35.3617954,205.1027 C34.4969954,207.3807 34.1673954,207.7937 33.5785954,208.8787 C33.0236954,209.9897 32.8827954,210.4897 32.4095954,211.1567 C31.9362954,211.7977 31.4911954,212.4577 31.1869954,212.8767 C30.8770954,213.3217 30.0742954,214.6257 29.7953954,215.1267 C29.5474954,215.6527 29.4854954,217.1817 29.6009954,217.5977 C29.6826954,218.0427 29.7700954,218.5957 29.5474954,219.2087 C29.3249954,219.8167 28.7108954,220.3727 28.3784954,221.5677 C28.0150954,222.7347 27.5417954,223.8987 27.4009954,224.4247 C27.2938954,224.9507 27.5164954,225.6447 27.6234954,225.6787 C27.7643954,225.7327 27.9333954,225.7327 27.8178954,226.2047 C27.6826954,226.6737 27.5136954,227.2277 27.2093954,227.8977 C26.8995954,228.5357 27.0150954,229.4267 26.9868954,229.7027 C26.9276954,230.0057 26.9276954,230.0927 26.6234954,230.0647 C26.3192954,230.0057 26.3755954,229.7807 25.9839954,230.0647 C25.5980954,230.3687 25.6797954,230.5907 24.8431954,231.0637 C24.0374954,231.5357 23.6740954,232.0617 23.2289954,232.5307 C22.8148954,233.0037 21.0063954,234.5047 21.0063954,234.5047 C21.0063954,234.5047 20.4204854,235.9757 20.1416054,236.2507 C19.8655354,236.5347 18.9725554,237.4177 18.8655054,237.5867 C18.7528254,237.7547 18.6429654,239.1437 18.6429654,239.1437 C18.6429654,239.1437 18.9753654,240.4177 19.2796054,240.7547 C19.5613054,241.1127 19.6148254,241.5877 19.8655354,242.1157 C20.0880754,242.6697 19.9190654,242.9737 19.9190654,242.9737 C19.9190654,242.9737 19.5021454,242.8387 19.1162254,242.4477 C18.6964954,242.0287 18.0035054,242.0877 17.8880154,241.8067 C17.7809654,241.5027 17.3077154,241.2277 16.8344654,241.2277 C16.3893754,241.2277 16.2485254,241.5317 15.4963954,242.1157 C14.7470754,242.7237 14.2456554,243.2547 14.0512754,243.4177 C13.8822654,243.6117 13.4653454,243.9497 12.9104054,244.4747 C12.3244654,245.0007 11.7413514,244.9727 11.7413514,244.9727 L9.93284542,245.4447 C9.93284542,245.4447 9.23705542,246.3897 9.07084542,246.3057 C8.90746542,246.2517 8.32153542,245.9147 8.21166542,245.6927 C8.09617542,245.4427 7.15248542,245.1667 6.82007542,244.9977 C6.45668542,244.8037 5.90174542,245.7457 5.43130542,246.3057 C4.95805542,246.8877 6.01160542,246.6627 6.92994542,246.7777 C7.84827542,246.8847 7.34685542,247.1347 7.51587542,247.1937 C7.67925542,247.2477 8.26519542,247.5257 8.48773542,247.7737 C8.73844542,247.9957 9.01450542,248.6367 9.13000542,248.8587 C9.23986542,249.0807 9.82580542,251.1617 9.93284542,251.6867 C9.97228542,251.8217 9.98918542,251.9737 10.0089054,252.1197 C10.0652454,252.4297 10.1356694,252.7157 10.2145454,252.9777 C10.2455324,253.0647 10.2511664,253.1717 10.2962384,253.2447 C10.4849774,253.6637 10.5187804,253.9397 10.5187804,254.9907 C10.5187804,256.0427 10.2370804,256.1577 10.2370804,256.1577 L10.2962384,258.0497 C10.2962384,258.0497 9.60044542,259.9647 9.54128542,260.3807 C9.48776542,260.7947 9.06803542,261.6577 9.01450542,261.9917 C8.96098542,262.3517 8.79196542,262.8497 8.54125542,263.4347 C8.31871542,264.0137 8.31871542,264.2357 8.20885542,264.5447 C8.09335542,264.8207 7.51305542,265.1807 7.51305542,265.1807 C7.51305542,265.1807 7.14966542,266.3787 7.03980542,266.5697 C6.92712542,266.7377 6.40034542,267.9587 6.34400542,268.1807 C6.28485542,268.4307 5.31017542,269.5157 5.31017542,269.5157 L5.31017542,271.9907 C5.31017542,272.2377 4.89044542,273.8487 4.72987542,274.0177 C4.56085542,274.2057 4.61719542,275.7637 4.50733542,276.1267 C4.36648542,276.5117 4.42000542,277.8477 4.61719542,278.0127 C4.78621542,278.1817 4.89326542,279.8747 5.00875542,280.2627 C5.11861542,280.6757 4.95523542,283.0937 4.78621542,283.6727 C4.61719542,284.2577 3.72702542,285.9507 3.72702542,285.9507 C3.45096542,286.3417 3.34110542,287.7307 3.11855542,288.4247 C2.86784542,289.1197 2.47628542,289.8677 2.22839542,290.6147 C2.00585542,291.3967 1.31005542,293.2297 0.836795421,294.0347 C0.391695421,294.8407 0.250895421,295.4767 0.250895421,296.3647 C0.250895421,297.2537 0.614295421,297.6187 0.783295421,298.0297 C0.943895421,298.4207 1.53259542,300.0037 1.25653542,301.0887 C0.946695421,302.1937 0.724095421,302.1407 0.140995421,302.8347 C-0.444904579,303.5297 0.943895421,303.6447 1.58611542,304.0837 C2.22839542,304.5277 2.05937542,304.1707 2.92418542,304.4457 C3.81435542,304.7527 4.73269542,304.5617 5.11861542,304.4997 C5.53553542,304.4457 6.70458542,303.8667 6.98346542,304.0807 C7.29333542,304.2777 7.67925542,304.3897 8.09617542,304.5587 C8.48773542,304.7497 8.90464542,304.9157 10.2370804,305.1407 C11.5751484,305.3627 11.6878284,304.8617 12.2146054,304.6957 C12.7132154,304.4997 15.2738554,304.1707 15.4963954,304.0837 C15.7471054,304.0017 17.2513754,304.1707 17.5302554,304.0837 C17.8344954,304.0017 18.8655054,304.6967 19.6711654,304.4457 C20.5078054,304.2237 21.7585954,303.5827 21.9528954,303.5827 C22.1218954,303.5827 23.9867954,303.3607 24.3726954,303.1107 C24.7895954,302.8887 25.7079954,301.9717 25.9332954,301.6677 C26.1839954,301.3927 26.2966954,300.2257 26.2966954,299.8347 C26.2966954,299.4157 26.5192954,298.6147 26.5192954,298.4457 C26.5192954,298.2517 26.9304954,295.1957 26.9304954,294.8947 C26.9304954,294.6187 27.8488954,292.4207 27.8488954,292.4207 C27.8488954,292.4207 29.6038954,290.2837 29.7108954,290.0617 C29.8235954,289.8387 30.5756954,288.7817 30.9390954,288.5907 C31.2714954,288.4217 32.1898954,286.9207 32.4405954,286.5077 C32.6630954,286.1167 33.0827954,284.1427 33.2518954,283.3417 C33.4151954,282.5317 33.2518954,282.3967 33.3053954,282.1777 C33.3588954,281.9547 34.3335954,281.2047 35.0265954,280.7347 C35.7223954,280.2907 35.8631954,280.0377 36.1955954,279.7567 C36.5589954,279.4527 36.6659954,278.1787 36.6659954,277.7877 C36.6659954,277.3697 37.2519954,276.6777 37.5308954,276.1237 C37.8068954,275.5927 38.0575954,275.7077 38.3956954,275.3417 C38.7533954,275.0127 39.6717954,274.7627 40.0379954,274.7627 L42.0689954,274.7627 C42.1872954,274.7627 42.3224954,274.7567 42.4605954,274.7517 C42.8520954,274.7407 43.2746954,274.7037 43.6070954,274.6367 C43.7422954,274.6107 43.8690954,274.5767 43.9591954,274.5407 C44.3760954,274.3717 44.9845954,274.3997 45.2972954,274.0147 C45.3085954,273.9977 45.3225954,273.9757 45.3338954,273.9557 C45.6211954,273.5927 45.8775954,273.0677 45.8775954,273.0677 C45.8775954,273.0677 46.9057954,272.8167 47.0465954,272.6257 C47.1761954,272.4967 47.7029954,272.4317 48.1226954,272.3107 C48.2522954,272.2747 48.3733954,272.2297 48.4635954,272.1817 C48.8297954,271.9317 49.0776954,271.2367 49.4100954,270.7337 C49.7762954,270.2077 50.1678954,269.0967 50.3283954,268.8747 C50.5255954,268.6527 50.9706954,268.3497 51.2748954,268.2427 C51.5565954,268.1267 51.9171954,268.2427 51.9171954,268.2427 C51.9171954,268.2427 51.5565954,268.8247 51.3903954,268.8747 C51.2213954,268.9337 51.1143954,269.7917 50.7480954,270.1567 C50.4156954,270.4887 49.8297954,271.5457 49.6325954,271.8747 C49.4691954,272.2377 48.7733954,272.5697 48.4635954,273.0697 C48.2635954,273.3627 47.9536954,273.2927 47.7367954,273.1997 C47.6015954,273.1407 47.4916954,273.0697 47.4916954,273.0697 L46.5451954,273.5087 L46.4521954,273.5507 L46.2944954,273.6267 L45.8747954,274.5437 L45.5225954,275.2917 L45.1253954,276.1267 C45.1253954,276.1267 44.5479954,276.1067 43.9732954,276.0337 C43.6098954,275.9887 43.2464954,275.9237 43.0380954,275.8167 C42.7985954,275.6817 42.3844954,275.5727 41.9844954,275.4907 C41.5112954,275.3987 41.0492954,275.3447 40.8971954,275.3447 C40.5872954,275.3447 39.0350954,275.7107 39.0350954,275.7107 L37.7505954,277.3747 C37.7505954,277.3747 37.4744954,278.4317 37.4744954,278.5977 C37.4744954,278.7637 37.1955954,279.9307 37.1364954,280.0997 C37.0829954,280.2677 35.6659954,280.7937 34.9701954,281.1507 C34.2743954,281.4857 34.5250954,282.0117 34.2208954,282.8207 C33.9447954,283.6257 33.9983954,284.7897 33.8828954,285.4307 C33.7729954,286.0717 33.3560954,286.8197 33.1334954,287.5677 C32.8827954,288.3157 32.8292954,288.2087 32.9391954,288.4867 C33.0799954,288.7907 33.8292954,291.2647 33.8292954,291.2647 C33.8292954,291.2647 34.6884954,291.7797 35.1814954,292.0237 C35.2152954,292.0407 35.2518954,292.0637 35.2744954,292.0717 C35.4687954,292.1817 35.6237954,292.4147 35.7476954,292.6537 C35.8941954,292.9287 35.9983954,293.1967 36.0575954,293.3427 C36.0659954,293.3597 36.0800954,293.3907 36.0828954,293.4017 C36.1814954,293.6237 37.0350954,294.6917 37.4688954,295.1587 C37.5223954,295.2237 37.5984954,295.3107 37.6434954,295.3497 C37.8294954,295.5187 37.8125954,296.1037 37.7674954,296.6467 C37.7420954,296.9897 37.7082954,297.3237 37.6970954,297.5147 C37.6801954,297.8187 37.4913954,298.0297 37.2406954,298.2457 C37.0829954,298.3807 36.9082954,298.5157 36.7251954,298.6787 C36.2518954,299.0697 36.1392954,299.1517 35.4434954,299.4267 C34.7476954,299.7107 33.7194954,299.9587 32.8827954,300.1217 C32.0799954,300.2907 32.4658954,301.4827 32.1334954,301.6507 C31.7672954,301.8197 30.4038954,302.1487 30.0742954,302.3177 C29.7700954,302.4867 29.8235954,303.6527 29.5474954,304.1227 C29.2376954,304.5667 29.9333954,304.4007 30.0742954,304.4007 C30.2150954,304.4007 30.6883954,303.7597 30.6883954,303.5917 C30.6883954,303.4227 32.1869954,303.6507 32.7137954,303.6507 C33.2405954,303.6507 33.1870954,303.2317 33.6320954,303.1187 C34.1053954,303.0087 34.4152954,303.4277 34.5786954,303.6507 C34.7729954,303.9007 34.6377954,304.5667 34.5786954,305.1457 C34.5532954,305.7337 34.1673954,305.3147 33.8292954,304.6737 C33.4715954,304.0357 33.0236954,304.7017 32.7165954,304.6737 C32.4405954,304.6737 32.3306954,305.7307 32.3306954,305.8937 C32.3306954,306.0877 32.0207954,306.4817 31.7982954,306.7577 C31.5475954,307.0327 31.3869954,307.3417 31.3869954,307.3417 C31.3869954,307.3417 30.7446954,307.1197 30.0770954,306.4787 C29.4066954,305.8377 29.6038954,305.3117 29.2122954,305.1967 C28.7925954,305.0867 28.7671954,305.7277 28.2122954,306.3637 C27.6262954,307.0047 27.5164954,307.1707 27.7389954,307.3957 C27.9615954,307.6427 28.4347954,307.6987 28.7108954,308.0337 C29.0150954,308.3907 29.4066954,309.5577 29.6573954,310.2517 C29.8798954,310.9467 29.7728954,311.1687 29.6573954,312.4477 C29.5502954,313.6967 29.4066954,312.0317 29.2122954,311.6947 C28.9897954,311.3377 28.6037954,310.6427 28.2685954,310.3677 C27.9108954,310.0577 27.3220954,308.9197 27.1530954,308.7287 C26.9896954,308.5597 25.9868954,309.0347 25.9868954,309.2567 C25.9868954,309.4787 25.6008954,311.4467 25.6008954,311.4467 C25.6008954,311.4467 25.1276954,311.0027 24.9050954,310.5277 C24.6825954,310.0557 24.1473954,309.0857 23.5670954,308.9167 C22.9810954,308.7257 23.2881954,307.8087 23.2881954,307.1147 C23.2881954,306.4197 23.3979954,305.2527 23.3444954,304.9187 C23.2881954,304.5617 22.6486954,304.6147 22.3979954,304.9187 C22.1754954,305.1937 21.2035954,305.4437 20.7838754,305.5567 C20.3641454,305.6667 19.5613054,305.9477 19.1697454,306.0567 C18.7528254,306.1637 17.8880154,306.1387 17.7246254,306.0827 C17.5302554,306.0007 16.7189654,306.3607 16.6091054,306.4757 C16.4964254,306.5827 16.6091054,307.5277 16.6091054,307.9187 C16.6091054,308.3347 17.5274354,308.9757 17.7246254,309.1977 C17.8880154,309.4477 18.7528254,310.2217 18.7528254,310.2217 C19.2514354,311.6917 19.8120154,313.1397 20.0627254,314.6637 L20.8937354,316.6127 L21.1162954,317.9397 C21.1162954,317.9397 21.2035954,318.8557 21.0627954,319.0777 C20.9528954,319.3287 20.3134354,319.4407 20.3134354,319.8317 C20.3134354,320.2417 20.2599154,321.4677 20.3134354,321.9687 C20.3697754,322.4947 20.4233054,323.7147 20.3697754,324.2457 C20.3134354,324.7437 19.5669354,325.7417 19.5669354,325.7417 L18.7021254,327.2437 C18.7021254,327.2437 18.3387354,328.3507 18.9246654,328.5167 C19.5049654,328.6857 20.4261154,329.2117 20.7331754,328.5167 C21.0120954,327.8227 21.3162954,327.6537 21.7613954,327.4067 C22.2345954,327.1847 22.2880954,327.0207 22.7613954,327.0207 C23.2064954,327.0207 24.0994954,327.4937 24.2656954,327.0207 C24.4346954,326.5487 24.7388954,326.2677 24.7388954,326.2677 C24.7388954,326.2677 25.1304954,326.3267 25.4346954,326.2677 C25.7107954,326.2137 25.8262954,325.6887 25.8262954,325.6887 L26.7727954,325.8567 C26.7727954,325.8567 26.5220954,326.2137 27.6319954,326.2677 C28.7192954,326.3267 29.0235954,326.2677 29.9418954,325.9107 C30.8601954,325.5727 30.0573954,325.2697 31.4996954,324.8787 C32.9447954,324.4657 33.7278954,323.7707 33.7278954,323.7707 C33.7278954,323.7707 33.8377954,323.6017 34.1138954,323.1857 C34.4236954,322.7947 34.2546954,322.6317 34.5870954,322.5477 C34.9250954,322.4947 35.4518954,322.4947 35.9251954,322.4947 C36.3702954,322.4947 37.2068954,322.9137 37.3702954,322.2717 C37.5392954,321.6307 37.2631954,321.1057 37.7082954,320.5797 C38.1815954,320.0817 37.0660954,320.0197 38.7618954,319.7167 C40.4351954,319.4377 41.2407954,319.5477 41.4886954,319.7167 C41.7112954,319.8847 42.3534954,319.8317 42.6858954,320.1887 C43.0492954,320.5257 43.5225954,320.7737 43.7450954,321.0517 C43.9676954,321.3557 43.6915954,321.7467 44.8577954,321.9147 C45.9986954,322.1067 46.9451954,322.1067 47.3310954,321.9147 C47.7480954,321.7467 48.7198954,321.5247 48.8917954,321.2767 C48.8917954,321.2767 49.5875954,320.9397 49.2550954,320.6637 C48.8917954,320.3607 48.1930954,320.1917 47.9170954,319.9697 C47.6409954,319.7187 47.4437954,319.3287 47.2212954,319.1397 C46.9986954,318.9717 46.2493954,318.6367 46.2493954,318.6367 C46.2493954,318.6367 45.4127954,318.5017 45.8859954,318.1647 C46.3592954,317.8067 46.9141954,317.6917 46.9141954,317.6917 C46.9141954,317.6917 46.9451954,317.1947 47.3339954,317.0597 C47.7508954,316.9437 48.5029954,317.0007 48.5029954,317.1947 C48.5029954,317.3627 48.8945954,317.5287 48.8945954,317.5287 C48.8945954,317.5287 49.6438954,317.2447 49.6438954,317.0567 C49.6438954,316.8877 50.4269954,315.9707 50.4804954,315.6087 C50.5058954,315.4147 50.6157954,314.9137 50.7030954,314.5567 C50.7565954,314.2787 50.8128954,314.0597 50.8128954,314.0597 C50.8128954,314.0597 51.2833954,314.0597 51.0354954,314.8067 C50.8128954,315.5547 50.7593954,316.4187 50.7593954,316.7217 C50.7593954,317.0007 50.8748954,318.5837 50.8748954,318.6367 C50.8748954,318.6957 51.1790954,319.8597 51.4579954,320.3067 C51.7340954,320.7787 52.2664954,321.0017 52.2072954,321.5267 C52.1537954,322.0527 51.9847954,323.0847 51.9847954,323.4417 C51.9847954,323.7767 52.0974954,325.1657 52.2072954,325.3907 C52.3227954,325.6377 52.7960954,325.9697 52.9622954,325.9157 C53.1256954,325.8627 54.2946954,325.5257 54.4073954,325.9157 C54.5144954,326.3327 54.4608954,326.6107 54.9341954,327.3047 C55.4045954,327.9997 55.6299954,328.0527 56.3257954,328.5787 C57.0215954,329.1107 57.7173954,329.3327 57.7173954,329.3327 C57.7173954,329.3327 57.4947954,329.7457 56.6891954,329.3327 C55.8524954,328.9137 54.9341954,328.5227 54.9341954,328.5227 C54.9341954,328.5227 53.9059954,328.0507 53.5960954,328.0507 C53.3200954,328.0507 52.1791954,327.9967 51.6523954,327.8817 C51.1255954,327.7747 49.5931954,327.7747 49.5931954,327.7747 C49.5931954,327.7747 49.6466954,328.1657 49.2607954,328.3537 C48.8410954,328.5227 48.2550954,328.5757 48.2550954,328.5757 C48.2550954,328.5757 47.8099954,328.4407 47.5057954,329.1607 C47.2296954,329.8837 47.0606954,329.3827 46.9508954,330.1337 C46.8099954,330.8817 47.4494954,332.5207 47.7001954,332.9397 C47.9226954,333.3837 48.6719954,334.9947 48.6719954,335.4677 L48.6719954,337.2447 C48.6719954,337.6017 49.1987954,339.0497 49.1987954,339.0497 C49.1987954,339.0497 49.4804954,339.4067 49.3677954,339.9667 C49.3677954,339.9667 49.3959954,342.0747 49.3959954,342.3787 C49.3959954,342.6827 49.1734954,346.5457 49.1734954,346.5457 C49.1734954,346.5457 48.8691954,347.2937 48.8156954,347.8817 C48.7874954,348.4887 48.7283954,349.1547 48.7283954,349.2957 C48.7283954,349.4027 48.3423954,351.1567 48.1733954,351.5447 C48.0043954,351.9297 47.6465954,353.1557 47.5592954,353.3727 C47.4775954,353.5667 47.0324954,354.3197 47.0324954,354.5707 C47.0324954,354.8457 46.5057954,357.0977 46.3085954,357.4827 C46.0859954,357.8737 45.7225954,359.0947 45.6127954,359.3167 C45.4718954,359.5137 44.6127954,361.5687 44.3310954,361.8157 C44.0802954,362.0917 44.1676954,364.2627 44.1084954,364.4787 C44.0802954,364.6757 43.5535954,365.7327 43.4126954,365.9017 C43.3028954,366.0647 42.3844954,366.2867 41.9112954,366.5087 C41.4379954,366.7307 42.5253954,367.1497 42.6323954,367.1497 C42.7732954,367.1497 43.3816954,367.9847 43.5225954,368.5107 C43.6323954,369.0367 44.3000954,368.9017 44.5507954,368.8427 C44.7986954,368.8147 44.8606954,368.5107 44.9958954,368.5107 L45.8071954,368.5107 C45.8071954,368.5107 46.5029954,369.0367 46.7789954,369.1487 C47.0296954,369.2837 47.5564954,370.2877 47.6409954,370.5917 C47.7226954,370.8977 47.7761954,372.4527 47.8043954,372.6747 C47.8635954,372.8967 47.8916954,374.0637 47.8916954,374.3117 L47.8916954,378.1467 C47.8916954,378.2107 47.8804954,378.4277 47.8691954,378.6887 C47.8437954,379.3017 47.7987954,380.2357 47.7761954,380.4467 C47.7226954,380.7557 47.3310954,383.0327 47.1677954,383.4187 C46.9986954,383.8097 47.1930954,384.4757 47.3029954,384.7257 C47.3902954,385.0047 48.1142954,386.0867 48.2494954,386.5057 C48.3902954,386.9497 48.3902954,387.2537 48.3902954,387.9477 C48.3902954,388.6427 48.1142954,389.3367 48.0860954,389.5847 C48.0268954,389.8597 47.7226954,391.2767 47.5789954,391.6397 C47.4719954,391.9717 47.0803954,393.4197 47.0803954,393.6667 C47.0803954,393.9147 46.9451954,394.7467 46.8043954,394.9157 C46.6944954,395.1097 46.5254954,396.3047 46.5254954,396.3047 C46.5254954,396.3047 46.6944954,397.1927 46.5254954,397.3027 C46.3564954,397.4457 46.9986954,398.6637 47.0803954,398.8857 C47.1677954,399.0827 47.5536954,399.1897 47.6944954,399.3017 C47.8015954,399.4427 48.2494954,399.7737 48.2494954,399.9147 C48.2494954,400.0557 48.0268954,400.6627 47.8043954,401.1097 C47.5818954,401.5817 48.4719954,402.7487 48.4719954,402.7487 C48.4719954,402.7487 48.1677954,404.1377 48.1142954,404.5537 C48.0860954,404.9987 48.1142954,405.4707 48.1142954,405.9147 C48.1142954,406.3257 48.1959954,407.3287 48.1677954,407.5207 C48.1508954,407.5767 48.1254954,407.7427 48.0916954,407.9397 C48.0550954,408.2147 48.0043954,408.5467 47.9452954,408.8277 C47.9170954,408.9567 47.8916954,409.0807 47.8635954,409.1627 C47.7226954,409.5477 47.8635954,410.3297 47.8043954,410.5517 C47.7761954,410.7737 46.7789954,412.6597 46.5282954,412.8567 C46.2803954,413.0197 45.4127954,416.6327 45.2465954,416.8557 C45.0831954,417.0517 44.4690954,418.2697 44.2464954,418.7447 C44.0239954,419.2167 43.6070954,419.3237 43.1337954,419.4897 C42.6323954,419.6617 42.3844954,419.9617 42.0802954,420.0187 C41.7703954,420.0517 42.3844954,420.5777 42.5253954,420.7127 C42.6351954,420.8257 42.7760954,421.5757 42.9112954,421.7977 C43.0239954,421.9917 43.2211954,422.8837 43.2211954,422.8837 C43.2211954,422.8837 43.7760954,423.7997 43.9169954,423.9937 C44.0239954,424.2167 43.5253954,424.5757 43.3845954,424.7697 C43.2492954,424.9927 43.2211954,425.9087 43.0267954,426.1587 C42.8577954,426.4347 42.1647954,427.5457 42.0802954,427.7707 C41.9929954,427.9927 41.3844954,429.0777 41.2435954,429.2127 C41.1337954,429.3537 40.6886954,429.8257 40.5477954,430.0757 C40.4069954,430.3257 40.7703954,430.7707 40.9393954,431.2147 C41.1365954,431.6337 40.6914954,432.6317 40.5477954,432.7727 C40.4069954,432.9077 40.0745954,434.6337 39.9055954,435.1597 C39.7421954,435.6567 39.2970954,436.3797 38.9054954,436.8797 C38.5139954,437.4117 37.8463954,437.9377 37.8463954,437.9377 L37.4603954,439.4947 C37.4603954,439.4947 36.4293954,441.1317 36.1223954,441.5757 C35.8180954,442.0197 35.5082954,442.7427 35.0631954,443.7937 C34.6490954,444.8257 35.2856954,444.2667 35.5673954,444.4887 C35.8180954,444.7107 36.0687954,444.4327 36.2040954,444.4327 C36.3392954,444.4327 37.2096954,444.5137 37.2096954,444.8237 C37.2096954,445.1327 37.9054954,446.0437 38.0688954,446.2657 C38.2660954,446.4877 39.0463954,446.2657 39.2097954,446.1247 C39.3787954,446.0157 39.4322954,445.5997 39.4322954,445.5997 C39.4322954,445.5997 39.7703954,445.2957 39.7703954,445.1267 C39.7703954,444.9577 40.2435954,444.7107 40.5477954,444.4887 C40.8520954,444.2667 40.9111954,444.1847 41.0492954,443.8817 C41.1618954,443.5717 41.4379954,442.8777 41.4379954,442.8777 C41.4379954,442.8777 41.7421954,443.2687 42.0802954,443.0997 C42.4379954,442.9307 42.9394954,443.0177 43.3845954,443.0177 C43.8295954,443.0177 43.8549954,442.6277 44.0239954,442.4337 C44.2211954,442.2707 44.0239954,441.7977 44.0239954,441.7977 C44.0239954,441.7977 44.7732954,441.7977 45.0239954,441.7107 C45.3056954,441.6287 45.4972954,441.4347 45.5563954,441.2667 C45.6099954,441.1037 46.0296954,441.0167 46.1930954,440.7937 C46.3874954,440.5997 47.3057954,441.1037 47.4747954,441.2387 C47.6437954,441.3537 48.1705954,441.2667 48.5621954,441.2667 C48.9536954,441.2667 49.5903954,441.1317 50.2579954,440.7937 C50.9002954,440.4627 50.9002954,440.4907 51.2044954,440.1557 C51.5086954,439.7957 52.4270954,439.7957 52.8721954,439.6577 C53.2918954,439.5487 53.4298954,439.8807 53.6805954,440.1027 C53.9566954,440.3247 54.3763954,440.5747 54.7341954,440.6337 C55.0693954,440.6587 55.6778954,440.2427 55.7651954,439.7987 C55.8468954,439.3547 55.7651954,439.0787 55.7651954,438.6597 C55.7651954,438.2687 56.4609954,438.0187 56.5426954,437.8837 C56.6243954,437.7717 57.2919954,437.3807 57.5173954,437.1637 C57.7398954,436.9417 58.3793954,436.7737 59.4694954,436.6887 C60.5483954,436.5797 63.1710954,436.7737 63.6977954,436.7227 C64.1963954,436.6887 64.3372954,436.8857 64.4752954,436.9447 C64.5879954,436.9697 64.8921954,437.1667 65.3400954,437.1927 C65.7851954,437.2457 65.6443954,437.0797 65.8950954,437.0237 C66.1767954,436.9677 65.4809954,436.4107 65.4217954,436.3007 C65.3936954,436.1607 65.0893954,435.8817 65.0358954,435.1617 C64.9766954,434.4147 65.7316954,435.4127 65.7316954,435.4127 C65.7316954,435.4127 66.5063954,437.6897 66.6499954,437.7717 C66.7851954,437.8587 67.9542954,438.2437 67.9542954,438.2437 C67.9542954,438.2437 69.0415954,438.3587 69.2894954,438.4127 C69.5683954,438.4687 70.3514954,438.7187 70.5402954,438.7697 C70.7627954,438.8037 71.3768954,439.1067 71.8219954,439.1067 C72.2416954,439.1067 72.9346954,439.2477 73.1318954,439.1067 C73.2952954,438.9637 74.0163954,438.8847 74.0163954,438.8847 C74.0163954,438.8847 74.7121954,438.6347 74.9347954,438.5817 C75.1572954,438.5527 75.5488954,438.6627 75.5488954,438.6627 C75.5488954,438.6627 75.8249954,438.4937 75.9403954,438.2717 C76.0756954,438.0777 76.5207954,438.1907 76.7995954,438.2437 C77.1094954,438.2717 77.4953954,438.8037 77.7179954,438.8037 C77.9404954,438.8037 78.8869954,439.5517 78.8869954,439.5517 C78.8869954,439.5517 79.7771954,440.0517 79.8926954,440.2707 C80.0278954,440.4927 80.6419954,440.1897 80.7827954,440.2457 C80.8898954,440.2707 81.8081954,439.8807 81.8081954,439.8807 C81.8081954,439.8807 82.4222954,439.8807 82.6729954,439.8547 C82.9490954,439.8017 83.3687954,439.7197 83.3687954,439.7197 L86.0646954,439.7197 C86.0646954,439.7197 86.3745954,439.4637 86.4562954,439.3287 C86.5378954,439.1887 89.4337954,439.1067 89.5436954,439.1067 C89.6844954,439.1067 90.1577954,439.5517 90.1577954,439.5517 C90.1577954,439.5517 90.9070954,440.1047 91.2169954,440.1587 C91.5211954,440.1897 92.2422954,440.7967 92.2422954,440.7967 C92.2422954,440.7967 93.4648954,441.1057 93.9972954,441.4377 C94.4958954,441.8007 94.9973954,441.9357 95.7747954,441.9357 C96.5522954,441.9357 97.6396954,443.1307 97.6396954,443.1307 C97.6396954,443.1307 98.4762954,443.9627 98.5861954,444.0477 C98.7269954,444.1347 98.9495954,444.3567 99.1720954,444.4377 C99.3664954,444.5197 99.6706954,445.0197 100.034095,445.2137 C100.366495,445.4357 100.560895,445.5207 100.893295,445.8237 C101.256695,446.1277 102.256695,447.0447 102.729995,447.4097 C103.203195,447.7417 103.290595,447.7417 103.513095,447.8827 C103.735595,447.9917 103.898995,448.1327 104.208895,448.4367 C104.513095,448.7457 104.622995,448.7987 104.986395,448.7987 C105.318795,448.7987 105.208895,448.9087 105.459595,448.9927 C105.735695,449.0747 105.822995,449.2717 106.237095,449.6617 C106.682195,450.0477 106.769495,449.6907 106.992095,449.6617 C107.214595,449.6027 107.465295,449.4397 108.214695,449.0777 C108.938595,448.7487 108.634395,449.1307 108.910395,449.0777 C109.161195,449.0497 109.606195,448.8267 109.935795,448.7487 C110.301995,448.6617 110.549895,448.3577 110.941495,448.0787 C111.326995,447.8317 111.549995,447.5197 111.772995,447.4127 C111.994995,447.2727 112.245995,447.1037 112.495995,446.8867 C112.777995,446.6647 112.495995,446.6027 112.495995,446.4087 C112.495995,446.1927 112.191995,446.1337 111.941995,446.2737 C111.690995,446.4087 111.636995,446.4427 111.414995,446.5777 C111.191995,446.6927 110.718995,447.1037 110.409095,447.3007 C110.104895,447.5227 109.797795,447.6907 109.408995,447.8007 C109.017495,447.8847 109.603395,447.2187 109.603395,447.2187 C109.603395,447.2187 109.907695,447.1907 110.076695,446.9967 C110.245695,446.8277 110.101995,446.4987 110.327395,446.5777 C110.578095,446.6647 110.631595,446.1957 110.772495,446.0517 C110.879495,445.9117 111.797995,445.5257 112.245995,445.4387 C112.690995,445.3577 112.859995,445.2167 113.028995,444.9667 C113.191995,444.7167 112.969995,444.4947 112.859995,444.4947 C112.718995,444.4947 112.411995,444.7417 112.191995,444.8317 C111.997995,444.9137 111.887995,444.9667 111.774995,445.0537 C111.636995,445.1357 111.025995,445.4387 110.882295,445.5257 C110.775295,445.6077 110.383695,445.9117 110.330195,446.1077 C110.304895,446.2767 110.107695,446.6057 109.856895,446.5807 C109.606195,446.5267 109.634395,446.4117 109.606195,446.1977 C109.552695,445.9757 109.301995,446.1977 108.938595,446.1977 C108.606195,446.1977 108.687895,445.9757 108.687895,445.9757 C108.687895,445.9757 109.017495,445.6137 109.327395,445.6667 C109.631595,445.6947 109.800595,445.5037 110.104795,445.6137 C110.409095,445.7537 110.380895,445.4447 110.693595,445.1947 C110.997795,444.9157 111.414995,444.8097 111.552995,444.6687 C111.693995,444.5257 112.191995,444.3307 112.498995,444.2247 C112.808995,444.1427 113.166995,444.0277 113.639995,443.7267 C114.141995,443.4227 114.031995,443.7547 114.084995,443.8957 C114.112995,444.0307 113.862995,444.1987 113.667995,444.8117 C113.504995,445.4197 113.977995,445.6157 113.977995,445.6157 L114.476995,445.1437 L114.974995,445.1437 L115.419995,444.7277 C115.419995,444.7277 115.946995,444.2017 116.197995,444.1207 C116.448995,444.0327 116.642995,443.8107 116.642995,443.8107 C116.642995,443.8107 116.952995,443.4507 117.062995,443.4257 C117.205995,443.3667 117.563995,443.4257 117.839995,443.2037 C118.149995,442.9817 118.344995,442.5907 118.372995,442.1997 C118.428995,441.8147 118.372995,442.1997 118.284995,442.0647 C118.203995,441.9497 118.372995,441.8707 118.594995,441.7277 C118.817995,441.5927 119.067995,441.5057 119.067995,441.5057 C119.067995,441.5057 119.541995,441.3427 119.594995,440.8107 C119.620995,440.2847 119.927995,440.8647 119.927995,440.8647 C119.927995,440.8647 119.541995,441.3427 119.594995,441.4497 C119.648995,441.5897 120.290995,441.2807 120.431995,441.0307 C120.541995,440.7547 121.513995,440.3357 121.625995,440.2567 C121.763995,440.1697 123.462995,439.1997 123.713995,439.0367 C123.992995,438.8677 125.800995,437.6477 125.994995,437.4257 C126.189995,437.2037 126.189995,437.0347 126.076995,436.8947 C125.941995,436.7847 126.023995,436.5907 126.076995,436.4807 C126.104995,436.3407 126.800995,436.0897 126.800995,436.0897 L127.693995,435.6427 C127.693995,435.6427 128.166995,435.1737 128.279995,434.8667 C128.414995,434.5577 129.333995,434.5047 129.502995,434.3107 C129.671995,434.0877 129.975995,433.7817 129.975995,433.7817 L130.502995,433.7817 C130.502995,433.7817 131.589995,433.3097 131.696995,433.1717 C131.840995,433.0367 132.674995,432.8117 132.674995,432.8117 C132.674995,432.8117 133.645995,432.8647 133.843995,432.5617 C134.065995,432.2517 134.476995,432.5617 134.476995,432.5617 C134.476995,432.5617 135.423995,432.1707 135.536995,432.0017 C135.676995,431.8327 136.203995,431.7797 136.338995,431.7797 L139.815995,431.7797 L139.093995,426.9187 L137.871995,425.9487 L138.789995,423.6987 L137.257995,421.0077 L137.479995,414.1477 L136.088995,412.8117 L137.006995,411.5667 C137.006995,411.5667 136.398995,411.1217 136.175995,411.1217 C135.953995,411.1217 136.561995,409.3427 136.561995,409.3427 L135.561995,407.8997 L136.088995,406.0387 L134.5,405.3187 L133.696995,403.1817 L132.778995,403.1817 L132.668995,402.8027 L132.428995,401.9447 L132.000995,400.4067 L132.414995,399.9627 L133.223995,400.4067 L133.305995,399.7657 L132.412995,399.2397 L133.471995,398.4867 L133.862995,396.9877 L133.471995,396.2117 L134.471995,396.2117 L134.781995,394.5417 L135.699995,394.8227 L135.699995,392.7387 L136.254995,393.0177 L136.254995,391.4597 L137.786995,391.4597 L136.727995,390.0457 L138.260995,384.9617 L138.981995,384.6867 L138.786995,383.1827 L139.812995,382.6567 L140.508995,383.1827 L146.854995,376.5497 L146.854995,375.1887 L148.159995,373.6307 L147.854995,371.6287 L148.691995,371.6287 L149.105995,369.6857 L149.860995,369.9927 L149.860995,366.5197 L150.082995,365.7717 L149.387995,364.6867 L150.415995,363.6637 L152.029995,364.1327 L153.277995,362.8877 L154.505995,362.9687 L155.280995,363.9137 L158.759995,362.7747 L158.063995,362.3557 L158.063995,360.6917 L160.069995,359.5777 L161.041995,360.3847 L162.210995,360.3567 L162.601995,361.6587 L163.905995,362.1307 L164.627995,361.2737 L166.632995,361.2737 L166.382995,359.2717 L167.410995,358.4367 L167.300995,355.1357 L167.632995,354.4947 L168.773995,354.1377 L168.996995,352.6357 L170.027995,350.2767 L168.576995,350.0267 L168.576995,349.0817 L171.500995,345.5837 L170.858995,345.6117 L170.858995,344.6137 L170.249995,345.3897 L169.939995,344.9457 L169.272995,344.9457 L168.494995,346.2247 L167.996995,345.3897 L167.382995,346.0847 L165.796995,346.0847 L166.241995,346.6977 L164.824995,347.8057 L163.852995,347.5017 L162.987995,348.1147 L162.987995,347.3917 L162.128995,347.5017 L162.128995,348.3117 L160.987995,349.0847 L160.987995,348.2497 L159.846995,347.4177 L159.426995,347.1077 L159.379995,346.6867 L159.286995,345.7807 C159.286995,345.7807 157.286995,343.3347 157.286995,343.0847 C157.286995,342.8337 156.812995,339.8627 156.812995,339.8627 L155.502995,339.6687 L152.945995,334.9757 C152.945995,334.9757 149.384995,331.3657 149.384995,331.1377 C149.519995,331.0557 149.519995,329.9987 149.519995,329.9987 L149.243995,327.9487 L148.128995,327.0327 L147.823995,327.4177 L146.601995,326.0287 L146.496995,326.0597 C146.232995,326.2507 145.987995,326.4817 145.987995,326.6327 C145.987995,326.8947 146.249995,327.8057 145.987995,328.1937 C145.727995,328.5847 145.770995,328.8457 145.291995,328.9757 C144.815995,329.1047 144.336995,329.2367 144.074995,329.4087 C143.815995,329.5827 143.423995,330.0017 143.119995,330.0017 C142.815995,330.0017 142.074995,330.3217 142.336995,330.4967 C142.598995,330.6677 142.987995,330.6257 143.161995,330.4967 C143.336995,330.3667 143.857995,330.1477 144.074995,330.2347 C144.291995,330.3217 144.139995,330.5917 143.868995,330.6087 C143.598995,330.6257 143.378995,330.6257 143.336995,330.8427 C143.294995,331.0587 143.553995,331.4527 143.598995,331.5817 C143.640995,331.7107 143.925995,331.8857 143.868995,332.1017 C143.815995,332.3187 144.119995,332.4477 143.682995,332.5797 C143.248995,332.7097 142.530995,332.9647 142.282995,333.0747 C142.032995,333.1867 141.423995,333.3617 141.381995,333.5777 C141.336995,333.7947 141.381995,334.0107 141.381995,334.4467 C141.381995,334.8827 141.358995,335.7937 141.358995,335.7937 C141.358995,335.7937 141.294995,336.3587 141.077995,336.4877 C140.860995,336.6177 140.206995,337.1407 140.510995,337.2247 C140.815995,337.3117 141.206995,337.2247 141.815995,337.2247 C142.423995,337.2247 142.553995,336.9207 142.815995,336.6177 C143.077995,336.3137 142.815995,335.9227 143.553995,335.9227 L144.085995,335.9227 C144.291995,335.9227 144.372995,335.9427 144.595995,336.0527 C144.942995,336.2267 145.161995,336.5307 145.420995,336.2267 C145.437995,336.2047 145.457995,336.1787 145.480995,336.1507 L145.485995,336.1397 C145.725995,335.8417 145.964995,335.4727 146.204995,335.3157 C146.463995,335.1447 146.637995,335.2287 147.116995,335.2287 C147.595995,335.2287 147.466995,335.5747 147.987995,335.4477 C148.412995,335.3437 148.420995,335.2397 148.705995,335.2037 C148.770995,335.1977 148.835995,335.1867 148.944995,335.1867 C149.511995,335.1867 149.857995,334.8827 149.899995,335.1867 C149.944995,335.4927 149.725995,335.9677 149.725995,335.9677 C149.725995,335.9677 149.742995,336.3957 149.573995,336.4627 C149.530995,336.4797 149.485995,336.4907 149.421995,336.4457 C149.074995,336.2297 148.550995,336.0547 148.550995,336.0547 C148.550995,336.0547 148.463995,336.0497 148.359995,336.0497 C148.130995,336.0387 147.767995,336.0267 147.680995,336.0547 C147.550995,336.0977 146.767995,336.5327 146.592995,336.6207 C146.527995,336.6517 146.353995,336.6627 146.158995,336.6797 C145.815995,336.6987 145.398995,336.7277 145.288995,336.8507 C145.271995,336.8737 145.234995,336.9047 145.212995,336.9267 C144.984995,337.1717 144.440995,337.6747 144.246995,337.8347 C144.026995,338.0097 143.767995,338.3127 143.595995,338.3977 C143.420995,338.4847 142.595995,338.4027 142.463995,338.5717 C142.333995,338.7457 141.637995,338.7007 141.637995,338.8757 L141.637995,339.6117 L141.378995,340.0447 C141.378995,340.0447 140.986995,339.7247 141.032995,340.2957 C141.074995,340.8687 141.291995,341.2597 141.465995,341.5207 C141.637995,341.7827 141.727995,342.1287 142.074995,342.2157 C142.423995,342.3027 143.203995,342.4317 143.291995,342.6067 C143.378995,342.7807 143.877995,342.9977 143.868995,343.1267 C143.857995,343.2557 143.553995,343.0847 143.248995,343.1267 C142.944995,343.1687 142.294995,342.9097 142.161995,342.8647 C142.032995,342.8227 141.423995,342.6487 141.206995,342.5197 C140.989995,342.3897 140.944995,342.0867 140.685995,342.0867 C140.426995,342.0867 139.860995,342.2157 139.727995,342.3897 C139.598995,342.5647 139.381995,342.7807 139.468995,342.9097 C139.555995,343.0397 140.077995,343.1717 139.446995,343.3877 C138.815995,343.6047 138.426995,343.9087 137.905995,343.9087 C137.578995,343.9087 137.285995,343.8047 137.082995,343.7897 C136.967995,343.7787 136.876995,343.7957 136.860995,343.9087 C136.843995,343.9927 136.871995,344.0657 136.888995,344.1417 C136.919995,344.3327 136.986995,344.5327 136.860995,344.9067 C136.688995,345.4267 136.905995,345.6877 136.643995,345.9047 C136.381995,346.1207 135.034995,346.0337 134.772995,346.1887 C134.671995,346.2477 134.426995,346.3287 134.158995,346.4167 C133.876995,346.5037 133.578995,346.5847 133.338995,346.6387 C133.209995,346.6667 133.088995,346.6887 133.034995,346.6887 C132.775995,346.6887 132.513995,346.1687 132.338995,345.9077 C132.164995,345.6457 132.251995,345.0837 132.338995,345.1257 C132.426995,345.1707 132.293995,345.2577 132.989995,345.3447 C133.685995,345.4327 133.597995,345.4317 133.555995,344.9537 C133.513995,344.4757 133.338995,343.9557 133.293995,343.3487 C133.251995,342.7417 133.076995,341.7437 132.947995,341.4817 C132.817995,341.2207 132.747995,341.0907 132.234995,340.8297 C131.727995,340.5707 131.251995,340.5087 131.251995,340.2977 C131.251995,340.0867 131.076995,339.9187 131.251995,339.7887 C131.426995,339.6597 131.685995,339.0077 131.555995,338.8777 C131.423995,338.7487 131.485995,338.7097 131.175995,338.5747 C130.859995,338.4427 130.730995,338.2287 130.555995,338.2287 C130.381995,338.2287 130.121995,338.6677 129.904995,338.5747 C129.688995,338.4877 129.513995,338.0097 129.600995,337.7057 C129.688995,337.4017 129.733995,336.6087 129.992995,336.8537 C130.254995,337.0987 130.513995,337.6637 130.775995,337.7057 C131.034995,337.7477 131.383995,337.7477 131.471995,338.0097 C131.558995,338.2707 131.874995,338.6167 131.865995,338.8327 C131.859995,339.0527 131.913995,339.3537 131.865995,339.5697 C131.817995,339.7867 131.859995,340.2897 132.209995,340.2977 C132.555995,340.3097 132.947995,340.3937 133.166995,340.6547 C133.383995,340.9137 133.643995,340.8717 133.775995,341.6957 C133.907995,342.5197 133.907995,342.9097 133.950995,343.3877 C133.992995,343.8657 133.907995,344.3867 134.121995,344.4737 C134.305995,344.5497 134.800995,344.6817 135.079995,344.7177 L134.885995,344.4567 L136.096995,343.8377 L136.150995,343.7397 C136.243995,343.4947 136.367995,343.2077 136.513995,343.0397 C136.541995,343.0087 136.572995,342.9747 136.606995,342.9407 C136.854995,342.6847 137.164995,342.4627 137.164995,341.9967 L137.164995,340.0447 C137.164995,339.8287 137.426995,338.2647 137.468995,337.9197 C137.510995,337.5707 137.555995,336.4427 137.902995,336.3137 C138.248995,336.1847 138.685995,336.2267 138.465995,335.8357 C138.248995,335.4447 137.944995,334.8797 137.944995,334.6637 C137.944995,334.4467 138.031995,334.1857 138.074995,333.8397 C138.116995,333.4937 138.336995,333.1847 138.116995,333.0747 C137.899995,332.9707 137.682995,332.6667 137.812995,332.6667 C137.941995,332.6667 137.984995,332.4927 138.246995,332.7547 C138.505995,333.0157 138.984995,333.2747 138.984995,333.2747 L140.158995,332.7967 C140.158995,332.7967 140.420995,332.4927 140.637995,332.5797 C140.854995,332.6667 141.116995,332.8837 141.158995,332.6667 C141.203995,332.4507 140.409995,331.7557 140.409995,331.7557 C140.409995,331.7557 140.941995,331.2777 140.158995,331.2777 C139.375995,331.2777 138.984995,331.3677 138.508995,331.2357 C138.029995,331.1067 137.682995,330.6707 137.857995,330.5637 C138.031995,330.4567 138.508995,330.2487 138.682995,330.0077 C138.854995,329.7627 139.203995,329.3717 139.724995,329.2427 C140.246995,329.1127 140.409995,329.0677 140.409995,329.0677 C140.409995,329.0677 140.595995,329.2427 140.941995,329.3297 C141.288995,329.4137 141.984995,329.6757 142.203995,329.4137 C142.420995,329.1527 142.248995,328.9807 142.029995,328.8067 C141.812995,328.6327 141.203995,328.5877 141.682995,328.0247 C142.161995,327.4597 142.336995,327.0687 142.640995,327.1557 C142.944995,327.2437 143.423995,328.0247 143.640995,327.2887 C143.857995,326.5517 143.727995,326.5907 144.119995,325.9867 C144.511995,325.3787 144.770995,324.3807 144.989995,324.3387 C145.206995,324.2967 145.353995,324.6847 145.798995,324.8817 C146.004995,324.9747 146.271995,324.9857 146.511995,324.9297 L147.085995,324.3107 L147.908995,323.4217 L147.961995,322.7647 L147.984995,322.4807 L147.995995,322.3337 L147.801995,322.5167 L147.077995,323.1947 L146.587995,322.9387 C146.254995,323.1077 145.930995,323.2757 145.989995,322.8147 C146.077995,322.1657 146.034995,321.9907 146.209995,321.3387 C146.384995,320.6867 146.339995,320.3827 146.601995,319.8627 C146.863995,319.3427 146.818995,319.6907 146.992995,319.0387 C147.167995,318.3897 147.080995,317.8667 147.251995,317.3457 C147.285995,317.2477 147.305995,317.1777 147.328995,317.1067 L147.328995,317.0847 C147.328995,317.0847 147.350995,317.0257 147.387995,316.9387 C147.443995,316.7757 147.494995,316.6457 147.604995,316.4297 C147.925995,315.6707 148.435995,314.5087 148.550995,314.4697 C148.719995,314.4417 150.164995,313.4717 150.164995,313.3027 C150.111995,313.1677 150.305995,311.2217 150.305995,311.2217 L151.387995,310.5277 L150.023995,310.0557 L149.164995,308.3627 C149.164995,308.3627 149.942995,307.4177 149.942995,307.2777 C149.942995,307.1367 150.111995,301.7247 150.111995,301.7247 L153.522995,299.4777 L154.235995,299.0107 L154.508995,298.8367 L154.508995,297.8637 L159.291995,293.6407 L161.376995,293.8627 L163.241995,290.3647 L165.300995,289.3667 L165.860995,288.0877 L164.551995,286.1977 L171.283995,275.6767 L170.114995,274.1747 L170.559995,272.7327 L169.337995,270.2587 L165.689995,267.6207 L164.379995,267.3177 L161.069995,268.9287 L158.260995,268.3967 L157.815995,266.9547 L158.984995,265.3967 L159.038995,262.6807 L153.891995,261.7927 L151.553995,259.5427 C151.553995,259.5427 151.829995,257.4597 151.747995,257.2907 C151.694995,257.1277 151.246995,256.4587 151.246995,256.4587 L151.105995,255.3737 L152.077995,254.1247 L151.550995,252.6487 L146.598995,248.1777 L147.071995,245.6507 L146.153995,244.2617 L147.680995,242.0687 L147.294995,239.0087 L148.071995,238.1517 L146.291995,236.3997 L144.649995,236.2057 L144.513995,235.3147 L143.649995,236.0117 L142.339995,235.3147 L142.648995,234.6197 L141.646995,233.8187 L141.451995,231.8167 L138.953995,231.2377 L136.806995,227.9617 L134.245995,226.6827 L133.524995,223.5167 L132.245995,222.7967 L132.299995,220.8007 L131.327995,220.1227 L131.302995,220.1057 L137.561995,220.1057 C137.561995,220.1057 140.175995,221.4327 140.282995,221.4917 C140.423995,221.5207 142.902995,221.0197 142.902995,221.0197 L145.544995,222.0437 C145.544995,222.0437 148.494995,220.1027 148.719995,220.1027 C148.854995,220.1847 151.387995,219.7127 151.415995,219.6587 C151.530995,219.6587 157.646995,221.0477 157.646995,221.0477 L159.511995,219.8527 L163.210995,220.5477 L166.303995,219.6587 L167.883995,215.5737 L168.776995,214.6847 L168.108995,213.1607 C168.108995,213.1607 168.804995,210.9117 168.945995,210.8587 C169.086995,210.8297 169.863995,210.6077 169.863995,210.6077 L169.641995,209.9137 L170.168995,208.1617 L170.810995,207.2167 L172.342995,207.2167 C172.342995,207.2167 173.286995,204.7707 173.509995,204.7707 C173.731995,204.7707 174.954995,204.2737 174.954995,204.2737 L175.818995,199.8027 C175.818995,199.8027 174.900995,199.1367 174.900995,199.0267 C175.035995,198.9677 176.678995,197.4437 176.678995,197.4437 L176.345995,194.9717 L176.678995,194.7217 L176.345995,193.9737 L177.069995,192.7197 L177.069995,191.7757 L178.041995,190.8867 L176.847995,190.2517 L176.900995,188.3057 L175.818995,187.5047 L176.069995,186.8627 L174.261995,186.5317 L174.148995,184.4757 L173.263995,183.1687 C173.263995,183.1687 172.427995,183.3377 172.509995,183.1687 C172.596995,182.9997 172.872995,181.8327 172.872995,181.8327 L172.204995,182.3057 L171.787995,181.5297 L171.286995,182.2517 L171.286995,181.5297 L170.261995,181.5297 L169.032995,182.3927 L169.032995,181.2287 C169.032995,181.2287 167.477995,181.1417 167.728995,180.9167 C168.004995,180.6947 168.173995,180.0587 168.173995,180.0587 L167.168995,179.1707 L167.728995,178.6697 L167.168995,177.3627 L167.810995,176.2237 L166.920995,175.3067 L167.418995,174.5847 L167.782995,172.0287 L170.173995,170.5867 L171.038995,171.0587 L171.985995,169.5347 L172.038995,169.4477 L172.816995,169.3607 L176.433995,168.9747 L178.047995,167.9437 L177.771995,165.6967 L180.472995,163.3317 L182.864995,162.9187 L182.641995,160.8357 L183.478995,159.9997 L179.466995,155.8357 L178.858995,152.1417 L180.945995,148.9197 L181.027995,147.4487 L182.695995,146.8077 L181.695995,144.4237 L182.168995,143.3657 L179.438995,142.0927 L179.526995,139.3427 L181.390995,136.7027 L182.641995,133.7027 L181.695995,132.9267 L181.526995,128.9307 C181.526995,128.9307 180.162995,127.4017 180.162995,127.2327 C180.331995,127.2327 180.331995,123.2347 180.413995,123.1277 C180.526995,122.9867 181.109995,121.2067 181.109995,121.2067 L180.472995,119.5147 L180.526995,117.4307 L182.221995,117.4307 L181.864995,114.1017 L180.250995,114.1017 L178.610995,112.1817 L179.137995,108.7957 L175.072995,103.6287 L174.154995,101.4097 L173.914995,101.2097 L173.599995,100.9407 L174.179995,100.3807 L174.740995,99.8547 L177.827995,100.9937 L181.554995,100.2987 L182.086995,98.6067 L185.700995,93.9977 L184.255995,92.0527 L184.202995,91.3577 L188.982995,87.5287 L189.650995,84.6637 L194.073995,81.1117 L196.552995,80.7217 L199.084995,80.4707 C199.084995,80.4707 200.197995,80.0857 200.476995,79.5827 C200.723995,79.1097 200.895995,78.6377 200.895995,78.6377 L201.476995,78.8597 L201.476995,79.5827 L202.673995,79.7767 L204.177995,78.6377 L203.340995,77.8087 L204.650995,76.5547 L205.898995,77.0267 L206.681995,76.5547 L207.822995,72.9467 L210.825995,71.3637 L209.738995,70.3937 L209.738995,69.2017 L211.546995,68.0887 L212.324995,69.6737 L214.775995,68.8387 L214.775995,67.8407 L213.910995,66.6737 L215.606995,65.8107 L216.389995,62.1187 L217.025995,61.5937 L217.025995,60.4267 L218.558995,59.8137 L218.558995,58.6467 L219.423995,58.6467 L218.586995,57.0357 L220.341995,56.3947 L222.259995,52.8687 L223.372995,52.1207 L222.730995,50.0367 L222.713995,50.0657 Z M98.5523954,373.1167 C98.4678954,372.8997 98.0311954,372.4217 98.3354954,372.4217 C98.6396954,372.4217 98.8565954,372.2897 98.9213954,372.4217 C98.9861954,372.5507 99.0734954,372.9277 99.1608954,373.1277 C99.2481954,373.3327 99.4650954,373.6367 99.4650954,373.8977 C99.4650954,374.1597 99.2058954,374.7667 99.1185954,374.5507 C99.0312954,374.3307 98.6847954,374.6627 98.9241954,373.8977 C99.0593954,373.4597 98.6424954,373.3327 98.5551954,373.1167 L98.5523954,373.1167 Z M95.8649954,369.9927 C95.8649954,369.9927 95.5099954,369.6887 95.4677954,369.5597 C95.4254954,369.4297 95.5550954,369.0397 95.4677954,368.5617 C95.3804954,368.0837 95.2508954,367.6507 95.6423954,367.4757 C96.0339954,367.3017 96.5128954,367.2597 96.8593954,367.0427 C97.2058954,366.8267 97.5551954,366.6097 97.6847954,366.5647 C97.8142954,366.5227 98.5100954,366.2617 98.5100954,366.5647 L98.5100954,367.3887 C98.5100954,367.5607 98.2931954,367.8667 98.0762954,367.9507 C97.8593954,368.0387 97.4677954,368.0807 97.5551954,368.4287 C97.6424954,368.7747 98.0762954,368.9947 98.2509954,369.0367 C98.4255954,369.0817 98.4255954,369.2527 98.5129954,369.4277 C98.5974954,369.5987 99.3382954,369.5987 98.5974954,369.5987 C97.8565954,369.5987 97.5100954,369.5567 97.3804954,369.5567 C97.3804954,369.5567 97.3100954,369.5117 97.1466954,369.7757 C96.9889954,370.0347 96.8593954,371.2067 96.8593954,371.2067 C96.6846954,371.0357 96.2931954,370.6447 96.2931954,370.6447 L95.8649954,369.9927 Z M82.2955954,388.9967 C81.8926954,388.7777 81.2560954,388.2437 80.9630954,387.8977 C80.6757954,387.5487 80.3264954,387.0287 80.6165954,386.6297 C80.9095954,386.2217 80.9687954,386.2807 81.4025954,386.1087 C81.8335954,385.9347 81.9997954,385.9347 82.2927954,386.1087 C82.5856954,386.2837 83.3941954,386.8037 83.3941954,386.8037 C83.3941954,386.8037 84.2110954,387.4367 83.3941954,387.2647 C82.5856954,387.0907 82.6335954,387.0907 82.2927954,387.0317 C81.9518954,386.9777 81.7771954,387.1387 81.8898954,387.4927 C82.0025954,387.8437 82.9603954,389.3737 82.2927954,388.9997 L82.2955954,388.9967 Z M77.1376954,402.9967 C76.8981954,402.8277 75.9910954,402.2317 75.9910954,402.0967 C75.9910954,401.9617 76.7404954,402.0967 76.7404954,402.0967 C76.7404954,402.0967 76.6812954,402.1447 76.9742954,402.5157 C77.2615954,402.8837 77.7488954,403.4317 77.1347954,402.9987 L77.1376954,402.9967 Z M71.6332954,403.2917 C71.6332954,403.2917 71.3458954,403.2327 71.1120954,402.8247 C70.8782954,402.4227 70.8782954,402.3077 71.1120954,402.1897 C71.3458954,402.0767 71.3402954,402.3077 71.6613954,402.1897 C71.9825954,402.0767 72.0952954,402.0687 72.4445954,402.1557 C72.7910954,402.2487 73.3205954,402.6537 73.0867954,402.7097 C72.8529954,402.7687 72.6783954,403.1537 72.6783954,403.1537 C72.6783954,403.1537 73.0867954,403.1367 73.3741954,403.1537 C73.6614954,403.1707 73.8952954,402.3837 74.3037954,403.1537 C74.7037954,403.9237 74.9403954,404.3877 74.9995954,404.6157 C75.0530954,404.8497 75.6953954,405.7177 75.6953954,405.7177 C75.6953954,405.7177 75.1150954,405.8337 74.7657954,405.7177 C74.4192954,405.5997 73.1403954,405.2567 72.7938954,404.9647 C72.4473954,404.6777 71.6388954,404.2107 71.6388954,404.2107 C71.6980954,403.8627 71.6388954,403.2887 71.6388954,403.2887 L71.6332954,403.2917 Z M108.648495,340.0537 C108.448495,340.1127 108.163895,340.2867 107.975195,340.2867 C107.904795,340.2807 107.851295,340.2387 107.817495,340.1577 C107.800595,340.1237 107.772395,340.1157 107.766795,340.0537 C107.724495,339.5337 107.234295,339.3587 107.234295,339.3587 L107.028695,339.9237 C107.028695,339.9237 106.828695,340.5427 106.507595,339.9237 C106.332895,339.5947 106.115995,339.0557 106.115995,338.7937 C106.115995,338.5887 106.149795,338.4847 106.127295,338.2957 C106.121595,338.2487 106.132895,338.2197 106.115995,338.1447 C106.028695,337.7957 105.682195,337.1037 105.682195,336.9717 C105.682195,336.8397 106.465295,336.7977 106.507595,336.9717 C106.549795,337.1457 106.811795,337.2757 106.941395,337.4917 C107.073795,337.7087 106.507595,337.7507 106.594895,338.0547 C106.682195,338.3577 107.073795,338.3747 107.290695,338.3857 C107.507595,338.4027 107.769595,337.8827 107.899095,337.5367 C108.028695,337.1887 108.465395,336.9267 108.552695,337.1037 C108.639995,337.2757 108.727295,337.6667 108.552695,337.8407 C108.377995,338.0147 108.290695,338.5347 108.335795,338.7097 C108.377995,338.8807 108.651295,339.5337 108.651295,339.5337 C108.651295,339.5337 108.763995,339.7077 108.780895,339.8567 C108.786495,339.9437 108.763995,340.0197 108.651295,340.0537 L108.648495,340.0537 Z M94.1184954,269.4547 C94.2057954,269.6707 94.1606954,270.0617 93.8564954,269.9327 C93.5521954,269.7997 93.2479954,269.5417 92.9437954,269.4997 C92.6394954,269.4567 91.9859954,269.0217 91.8112954,269.3277 C91.6366954,269.6317 90.8985954,270.1937 90.5520954,270.8887 C90.2027954,271.5827 89.5520954,272.5777 89.5520954,272.5777 C89.5520954,272.5777 89.0421954,273.2727 88.9858954,272.7947 C88.9689954,272.6597 88.8562954,271.7517 88.9858954,271.4057 C89.1154954,271.0567 90.0732954,269.8877 90.2901954,269.7127 C90.5070954,269.5387 90.8563954,268.8017 91.2478954,268.3237 C91.6394954,267.8457 92.4648954,266.6737 92.5099954,266.5437 C92.5521954,266.4147 93.6395954,265.3297 93.8141954,265.3297 C93.9888954,265.3297 94.5522954,265.0227 94.2057954,265.6757 C93.8564954,266.3247 93.4226954,267.8427 93.2507954,268.0177 C93.0761954,268.1887 92.8169954,268.4087 92.9465954,268.6667 C93.0761954,268.9287 94.0338954,269.2317 94.1212954,269.4487 L94.1184954,269.4547 Z M101.986295,276.0087 C101.986295,275.9217 102.811695,275.6627 102.811695,275.6627 C102.811695,275.6627 102.811695,275.3137 103.203195,275.3557 C103.594795,275.3987 104.073695,275.0047 103.941295,275.3507 C103.811695,275.7017 103.682095,275.9917 103.420095,276.0397 C103.160995,276.0927 103.313095,276.2217 102.975095,276.4837 C102.636995,276.7427 101.986295,277.3047 101.986295,276.8747 L101.986295,276.0057 L101.986295,276.0087 Z M103.963795,273.4047 C104.203295,273.2307 104.465195,272.8287 104.682195,272.9657 C104.899095,273.1007 105.552595,273.1457 105.811795,273.1457 C106.070895,273.1457 106.465295,273.0587 106.507595,273.2757 C106.549795,273.4917 107.028695,273.5367 106.507595,273.7507 C105.986395,273.9697 106.203295,274.2287 105.682195,274.1837 C105.160995,274.1387 103.980695,274.5487 103.963795,274.1837 C103.946895,273.9197 103.724395,273.5767 103.963795,273.4017 L103.963795,273.4047 Z M111.374995,273.3597 C111.374995,273.3597 110.637295,273.2187 110.766795,272.9657 C110.896395,272.7107 111.059995,272.4517 111.059995,272.4517 L111.591995,272.4517 C111.591995,272.4517 112.025995,272.1447 112.067995,272.4517 C112.110995,272.7557 112.633995,273.2757 111.371995,273.3597 L111.374995,273.3597 Z M92.6817954,346.8207 C92.5944954,346.6917 92.8986954,346.3437 93.0733954,346.2587 C93.2479954,346.1717 93.6395954,346.1717 93.6817954,346.2587 C93.7268954,346.3437 93.8113954,346.9307 93.9860954,346.8967 C94.1606954,346.8667 94.5494954,346.5177 94.5494954,346.5177 C94.5494954,346.5177 95.2902954,346.2137 95.3747954,346.5177 C95.4621954,346.8207 95.7663954,347.5577 95.8536954,347.6027 C95.9409954,347.6447 95.2451954,347.7767 95.0705954,347.8227 C94.8987954,347.8647 92.6789954,348.3847 92.6789954,347.6027 C92.6789954,347.6027 92.7662954,346.9537 92.6789954,346.8207 L92.6817954,346.8207 Z M110.766795,35.8857 C111.200995,35.8857 111.504995,35.7987 111.983995,35.8857 C112.462995,35.9727 113.124995,35.8097 113.662995,35.8497 C114.200995,35.8857 114.766995,35.9727 115.070995,35.5817 C115.374995,35.1917 115.679995,34.9747 115.679995,34.7137 C115.679995,34.4517 115.721995,33.7597 116.158995,33.9767 C116.591995,34.1927 116.898995,34.0187 116.853995,34.5837 C116.811995,35.1487 116.766995,34.9297 116.636995,35.7567 C116.507995,36.5807 117.115995,37.1007 116.158995,37.3617 C115.203995,37.6237 115.332995,37.8817 114.636995,37.7947 C113.941995,37.7077 112.898995,37.4037 112.507995,37.4917 C112.115995,37.5787 110.552695,38.5767 110.769695,37.5787 C110.975295,36.6057 110.203395,36.5377 110.203395,36.3637 C110.203395,36.1897 110.332995,35.8857 110.769695,35.8857 L110.766795,35.8857 Z M133.068995,423.9687 L132.682995,424.1877 C132.682995,424.1877 131.302995,423.2037 131.857995,422.5827 C132.057995,422.3497 132.068995,421.7137 132.068995,421.7137 C132.068995,421.7137 132.285995,421.1067 132.372995,421.7137 C132.459995,422.3207 132.502995,422.4957 132.676995,422.7987 C132.851995,423.1057 133.459995,423.3647 133.502995,423.5387 C133.544995,423.7127 133.068995,423.9717 133.068995,423.9717 L133.068995,423.9687 Z M132.936995,418.7647 L133.589995,418.7647 C133.589995,418.7647 133.851995,418.8487 133.981995,419.1547 C134.110995,419.4587 134.721995,419.5877 134.243995,419.8047 C133.764995,420.0217 133.634995,420.2377 133.417995,420.0657 C133.200995,419.8917 132.766995,419.5007 132.634995,419.5457 C132.505995,419.5877 132.113995,420.1477 132.026995,420.1257 C131.938995,420.1087 131.417995,420.4067 131.288995,420.1257 C131.158995,419.8497 130.724995,419.7177 130.592995,419.5007 C130.462995,419.2847 129.854995,419.0847 129.854995,419.0847 C129.854995,419.0847 128.504995,419.5877 129.028995,418.8067 C129.104995,418.6937 129.549995,418.5477 129.549995,418.5477 C129.549995,418.5477 129.679995,418.6347 130.071995,418.2887 C130.462995,417.9437 130.028995,417.8987 130.462995,417.9437 C130.896995,417.9887 130.896995,418.4637 131.028995,418.5507 C131.158995,418.6377 131.648995,419.1577 131.859995,419.1577 C132.071995,419.1577 132.941995,418.7667 132.941995,418.7667 L132.936995,418.7647 Z M152.716995,276.8747 L153.150995,276.8747 C153.325995,276.8747 154.367995,276.3547 154.454995,276.1797 C154.542995,276.0087 155.116995,275.6177 154.874995,275.3557 C154.629995,275.0977 154.077995,274.8807 153.787995,274.5327 C153.497995,274.1867 152.976995,273.9697 153.412995,273.8377 C153.846995,273.7087 154.367995,273.8377 154.367995,273.8377 C154.367995,273.8377 154.857995,274.0567 154.874995,274.3157 C154.891995,274.5747 154.680995,274.9657 154.933995,275.0527 C155.193995,275.1397 155.454995,275.0527 155.454995,275.0527 L156.063995,275.0097 C156.063995,275.0097 156.367995,274.5607 156.584995,274.6757 C156.801995,274.7937 156.976995,274.9227 157.193995,275.1427 C157.412995,275.3587 157.714995,275.2547 157.933995,275.5447 C158.150995,275.8367 158.410995,275.7917 158.325995,276.3567 C158.241995,276.9197 158.488995,277.5297 158.342995,277.7457 C158.195995,277.9627 158.457995,278.6147 158.195995,278.3107 C157.933995,278.0077 158.063995,277.9657 157.891995,277.7457 C157.717995,277.5297 157.545995,277.4877 157.415995,277.5297 C157.283995,277.5717 157.024995,277.8327 156.891995,277.4427 C156.762995,277.0517 157.066995,277.2707 156.762995,277.0517 C156.457995,276.8347 156.590995,276.7897 156.153995,276.8347 C155.719995,276.8767 156.066995,277.0517 155.719995,276.8767 C155.373995,276.7027 154.990995,276.5737 154.877995,276.7477 C154.762995,276.9197 154.370995,277.1807 154.370995,277.1807 C154.370995,277.1807 152.632995,277.9627 152.719995,277.3107 C152.719995,277.3107 152.545995,276.8767 152.719995,276.8767 L152.716995,276.8747 Z M156.547995,196.3417 C156.325995,196.5157 156.063995,197.1657 155.933995,196.6447 C155.818995,196.1957 155.500995,196.3417 155.238995,195.9087 C154.978995,195.4757 154.716995,195.0847 154.846995,194.8227 C154.976995,194.5647 155.285995,194.7807 155.373995,194.3027 C155.455995,193.8277 155.285995,193.6537 155.373995,193.4787 C155.455995,193.3047 155.933995,193.1757 155.933995,193.1757 C155.933995,193.1757 156.542995,193.2627 156.542995,193.5217 C156.542995,193.7797 156.500995,193.9117 156.542995,194.3027 C156.584995,194.6937 156.280995,195.0847 156.542995,195.3457 C156.801995,195.6077 156.764995,196.1697 156.547995,196.3447 L156.547995,196.3417 Z" id="Shape" fill="#00402A"></path>
            <path d="M117.900995,38.1017 C120.285995,45.4317 107.599895,64.2787 100.958495,72.7867 C85.2519954,50.5357 82.6341954,44.3547 84.0884954,37.1567 C85.5427954,29.9577 92.8143954,23.4127 100.958495,23.6307 C109.102695,23.8497 116.373995,29.4487 117.900995,38.1017 Z" id="Path" fill="#FF9C1A"></path>
            <circle id="Oval" fill="#FFFEFF" cx="101.033195" cy="40.8637" r="8.36229"></circle>
        </g>
    </g>
</svg>