<?xml version="1.0" encoding="UTF-8"?>
<svg width="132px" height="151px" viewBox="0 0 132 151" version="1.1" xmlns="http://www.w3.org/2000/svg" xmlns:xlink="http://www.w3.org/1999/xlink">
    <title>Group</title>
    <g id="Page-1" stroke="none" stroke-width="1" fill="none" fill-rule="evenodd">
        <g id="Group" transform="translate(0.1436, 0.7949)" fill-rule="nonzero">
            <polygon id="Path" fill="#00402A" points="112.6404 20.5491 123.2954 21.6911 122.9144 22.8321 121.7734 23.9741 119.4904 24.7351 119.8704 27.3991 118.3484 29.3021 118.3484 30.8241 117.5874 33.4881 116.4454 36.5321 113.7814 40.7181 111.1184 45.6651 109.2154 51.3731 108.0734 53.2761 105.7904 55.9401 105.0294 58.9841 105.0294 62.4091 104.6484 63.9311 106.5514 66.9751 106.5514 70.0201 107.6934 73.8251 109.5954 78.3911 112.6404 82.9581 113.7814 85.6221 113.4014 87.9051 115.6844 88.6661 115.3044 90.9491 113.4014 94.3741 114.5434 95.1351 114.9234 98.1801 116.0654 102.3661 117.5874 104.2681 119.8704 109.5961 121.3924 114.1621 124.4374 116.4461 127.8614 121.7731 130.9064 124.0561 123.2954 128.6231 118.3484 127.4811 115.6844 125.1981 111.4984 125.1981 106.9324 132.0481 99.3214 132.0481 97.0384 134.7121 89.8074 135.0921 84.0994 138.8981 87.9054 140.8001 92.4714 141.9421 90.1884 146.1281 83.7194 144.9861 82.5774 148.4111 78.3914 149.9331 80.6744 143.0841 78.3914 141.1811 72.6834 141.1811 68.4974 143.0841 64.3114 140.0391 61.6474 141.5611 57.8424 138.8981 49.8504 138.5171 50.2314 137.7561 52.5144 136.9951 53.2754 135.4731 54.0364 133.1891 53.2754 130.9061 52.5144 129.3841 52.8954 127.4811 53.2754 125.9591 52.8954 124.4371 50.9924 122.5341 50.6124 119.8701 49.8504 118.3481 48.7094 118.3481 47.9484 117.5871 46.4264 117.9681 44.5234 119.4901 42.2404 119.4901 38.4344 119.4901 37.2934 120.6321 35.3904 120.6321 33.8684 119.8701 33.1074 118.3481 28.9214 114.1621 27.0184 111.1181 25.1154 109.5961 22.0714 105.7901 23.2134 102.7461 25.1154 99.7021 25.8764 97.0381 27.0184 94.3741 29.3014 92.0911 29.6824 89.8081 31.2044 87.1441 31.2044 86.0021 30.0624 84.8611 30.0624 83.3381 30.4434 81.8161 31.9654 79.1531 32.3464 76.8691 30.4434 76.1081 28.5404 76.4891 25.1154 76.8691 24.3544 75.3471 23.2134 75.3471 20.1684 74.2061 16.3634 73.8251 15.9824 72.6831 14.4604 73.0641 10.6554 69.6391 6.8497 71.1611 6.4692 68.1171 4.947 67.3561 0 62.4091 1.1416 60.1251 1.1416 57.4621 1.9027 54.7981 2.6637 52.1341 1.9027 50.9921 1.9027 48.7091 6.4692 44.5231 8.3719 38.4351 13.6994 33.8681 17.8854 36.1511 21.3104 36.1511 24.3544 32.7261 22.8324 31.9651 22.8324 27.0181 26.6374 20.1691 26.6374 15.9828 28.1604 15.6022 28.5404 9.5136 29.6824 7.6109 27.3994 4.9471 28.5404 3.0444 31.9654 3.8054 32.7264 2.2833 33.8684 2.2833 36.5324 2.2833 39.5764 1.5222 40.3374 0 41.4794 0 42.2404 1.5222 44.9034 1.5222 46.4264 0.3806 47.9484 0.3806 50.6124 3.0444 54.4174 3.8054 55.1784 7.6109 53.2754 9.5136 55.1784 11.0357 54.0364 13.319 56.3204 14.8411 60.5064 14.8411 65.0724 11.7968 74.2054 17.1244 76.8694 17.1244 76.8694 13.319 80.6744 13.319 83.3384 20.1691 90.5684 25.1161 98.9404 23.2131 102.7464 17.1244 106.5514 14.0801 111.1184 14.0801"></polygon>
            <path d="M71.3804,53.1171 C73.7374,60.3591 61.2024,78.9811 54.6404,87.3871 C39.1224,65.4031 36.5364,59.2961 37.9734,52.1831 C39.4094,45.0711 46.5944,38.6051 54.6404,38.8201 C62.6874,39.0361 69.8714,44.5681 71.3804,53.1171 Z" id="Path" fill="#FF9C1A"></path>
            <circle id="Oval" fill="#FFFEFF" cx="54.7144" cy="55.8461" r="8.26208"></circle>
        </g>
    </g>
</svg>