<?xml version="1.0" encoding="UTF-8"?>
<svg width="131px" height="142px" viewBox="0 0 131 142" version="1.1" xmlns="http://www.w3.org/2000/svg" xmlns:xlink="http://www.w3.org/1999/xlink">
    <title>Group</title>
    <g id="Page-1" stroke="none" stroke-width="1" fill="none" fill-rule="evenodd">
        <g id="Group" transform="translate(0.716, -0.0002)" fill-rule="nonzero">
            <path d="M35.471,46.5502436 L30.404,44.7052436 L29.483,43.7832436 L27.64,45.1662436 L24.876,45.6272436 L21.651,46.5502436 L17.505,50.2382436 L16.584,53.0052436 L11.517,57.1542436 L11.977,58.0762436 L12.899,59.9212436 L9.213,64.9932436 L8.292,66.8372436 L4.607,67.2982436 L1.382,66.3762436 L0,67.2982436 L0.921,68.2202436 L1.843,70.5252436 L5.989,76.0582436 L5.528,79.7472436 L7.371,81.5912436 L8.753,81.5912436 L9.213,85.2802436 L7.371,85.2802436 L7.831,87.5852436 L8.292,89.4292436 L7.371,91.2742436 L7.37,95.8842436 L8.753,97.7292436 L8.753,101.417244 L9.674,102.801244 L8.753,105.106244 L6.449,109.256244 L6.449,111.561244 L9.674,112.944244 L9.213,114.327244 L10.135,116.633244 L7.831,117.555244 L7.37,119.399244 L5.989,122.627244 L6.91,126.776244 L11.056,130.926244 L9.674,131.848244 L9.674,133.692244 L7.37,134.154244 L4.607,136.920244 L4.146,139.686244 C4.76,140.455244 5.896,141.992244 5.528,141.992244 L7.37,141.992244 L8.292,140.609244 L10.595,141.992244 L14.28,140.148244 L15.662,141.992244 L17.044,140.148244 L19.348,139.686244 L22.572,139.686244 L24.876,138.303244 L25.336,136.459244 L24.876,134.154244 L26.258,133.692244 L29.022,131.387244 L31.325,130.465244 L34.089,129.543244 L35.011,128.160244 L36.853,126.776244 L39.157,126.776244 L40.078,125.854244 L41.46,122.627244 L43.763,122.166244 L46.067,120.782244 L47.91,119.860244 L50.213,118.477244 L52.977,120.782244 L55.28,124.010244 L57.583,125.854244 L60.347,126.315244 L60.347,128.160244 L58.965,130.004244 L57.583,131.387244 L59.426,131.848244 L62.19,132.770244 L64.954,134.154244 L66.797,136.459244 L69.1,138.303244 L72.325,139.225244 L72.786,136.920244 L74.168,134.615244 L76.471,134.154244 L78.774,132.309244 L80.617,131.848244 L81.078,134.615244 L80.617,136.459244 L79.235,137.381244 L82.46,138.764244 L84.302,137.842244 L87.988,137.381244 L91.673,131.848244 L92.594,126.776244 L93.976,122.627244 L96.74,121.705244 L99.044,124.932244 L101.005,124.899244 L101.808,125.854244 L102.729,124.471244 L102.729,121.705244 L107.336,116.633244 L107.796,114.327244 L109.086,113.710244 L107.796,112.022244 L99.504,111.561244 L99.044,110.178244 L100.887,106.950244 L103.19,106.489244 L104.572,105.567244 L106.6,106.251244 L109.639,104.184244 L110.1,101.878244 L117.788,97.8602436 L124.381,92.6572436 L126.179,88.2262436 L125.868,86.3612436 L124.936,85.7392436 L125.302,84.3582436 L128.066,84.3582436 L129.909,81.1302436 L128.987,78.3642436 L128.355,68.3352436 L125.868,67.7142436 L124.936,67.0922436 L125.302,65.4542436 L125.302,59.9442436 L118.853,56.2322436 L117.01,60.3822436 L107.796,60.3822436 L106.414,58.5382436 L102.729,60.3822436 L98.583,60.3822436 L98.583,55.7712436 L96.28,53.4662436 L93.516,54.3882436 L89.37,53.4662436 L88.448,49.7772436 L83.842,50.2382436 L81.078,53.9272436 L78.314,53.9272436 L72.786,51.6212436 L69.561,53.0052436 L68.639,57.1542436 L65.875,61.3042436 L60.347,62.2262436 L56.662,56.2322436 L53.437,54.3882436 L47.909,55.7712436 L44.685,53.4662436 L40.999,49.7772436 L35.471,46.5502436 Z" id="Path" fill="#00402A"></path>
            <path d="M47.299,14.3562436 C49.664,21.6262436 37.083,40.3182436 30.496,48.7562436 C14.919,26.6882436 12.323,20.5582436 13.765,13.4192436 C15.207,6.27924359 22.419,-0.210756409 30.496,0.00524359059 C38.573,0.222243591 45.785,5.77524359 47.299,14.3562436 Z" id="Path" fill="#FF9C1A"></path>
            <circle id="Oval" fill="#FFFEFF" cx="30.57" cy="17.0962436" r="8.29334"></circle>
        </g>
    </g>
</svg>