<svg width="53" height="90" viewBox="0 0 53 90" fill="none" xmlns="http://www.w3.org/2000/svg">
<path d="M30.8149 84.0585L29.901 88.8943L26.2573 86.8378L27.587 83.274L30.8149 84.0585Z" fill="#E3850D" stroke="#00402A" stroke-width="0.5" stroke-linecap="round" stroke-linejoin="round"/>
<path d="M32.2219 83.2713L29.9078 84.5773L27.5938 83.2713L29.9078 81.9651L32.2219 83.2713Z" fill="#FFCD52" stroke="#00402A" stroke-width="0.5" stroke-linecap="round" stroke-linejoin="round"/>
<path d="M33.5465 86.834L29.9009 88.8943V84.5802L32.215 83.274L33.5465 86.834Z" fill="#FFCD52" stroke="#00402A" stroke-width="0.5" stroke-linecap="round" stroke-linejoin="round"/>
<path d="M46.8972 74.9208L45.9853 79.7529L42.3416 77.6965L43.6712 74.1327L46.8972 74.9208Z" fill="#E3850D" stroke="#00402A" stroke-width="0.5" stroke-linecap="round" stroke-linejoin="round"/>
<path d="M48.2995 74.1327L45.9855 75.4388L43.6714 74.1327L45.9855 72.8266L48.2995 74.1327Z" fill="#FFCD52" stroke="#00402A" stroke-width="0.5" stroke-linecap="round" stroke-linejoin="round"/>
<path d="M49.6281 77.6965L45.9844 79.7529V75.4388L48.2984 74.1327L49.6281 77.6965Z" fill="#FFCD52" stroke="#00402A" stroke-width="0.5" stroke-linecap="round" stroke-linejoin="round"/>
<path d="M9.47286 72.1224L8.56096 76.9545L4.91724 74.898L6.24689 71.3342L9.47286 72.1224Z" fill="#E3850D" stroke="#00402A" stroke-width="0.5" stroke-linecap="round" stroke-linejoin="round"/>
<path d="M10.875 71.3343L8.5609 72.6404L6.24683 71.3343L8.5609 70.0283L10.875 71.3343Z" fill="#FFCD52" stroke="#00402A" stroke-width="0.5" stroke-linecap="round" stroke-linejoin="round"/>
<path d="M12.2045 74.898L8.56079 76.9545V72.6393L10.8749 71.3333L12.2045 74.898Z" fill="#FFCD52" stroke="#00402A" stroke-width="0.5" stroke-linecap="round" stroke-linejoin="round"/>
<path d="M25.7011 62.945L24.7892 67.7771L21.1455 65.7206L22.4752 62.1569L25.7011 62.945Z" fill="#E3850D" stroke="#00402A" stroke-width="0.5" stroke-linecap="round" stroke-linejoin="round"/>
<path d="M27.1035 62.1568L24.7894 63.4629L22.4753 62.1568L24.7894 60.8508L27.1035 62.1568Z" fill="#FFF5EC" stroke="#00402A" stroke-width="0.5" stroke-linecap="round" stroke-linejoin="round"/>
<path d="M28.4338 65.7206L24.79 67.7771V63.4629L27.1041 62.1569L28.4338 65.7206Z" fill="#FFCD52" stroke="#00402A" stroke-width="0.5" stroke-linecap="round" stroke-linejoin="round"/>
<path d="M52.6259 41.2808V41.7883C52.6131 41.9392 52.5603 42.0841 52.4726 42.2089C52.3849 42.3337 52.2654 42.434 52.126 42.4999C51.7514 42.6949 51.3334 42.7969 50.909 42.7969C50.4846 42.7969 50.0666 42.6949 49.692 42.4999C49.5499 42.4338 49.428 42.3322 49.3387 42.2055C49.2495 42.0787 49.1959 41.9312 49.1833 41.7779V41.2704C49.1957 41.4237 49.2491 41.5711 49.3382 41.6979C49.4273 41.8246 49.549 41.9262 49.691 41.9924C50.0656 42.1874 50.4836 42.2894 50.908 42.2894C51.3325 42.2894 51.7504 42.1874 52.125 41.9924C52.2647 41.9267 52.3844 41.8265 52.4723 41.7017C52.5602 41.5768 52.6131 41.4318 52.6259 41.2808Z" fill="#FFF5EC" stroke="#00402A" stroke-width="0.5" stroke-linecap="round" stroke-linejoin="round"/>
<path d="M52.1191 40.5588C52.268 40.6135 52.3963 40.7111 52.4872 40.8386C52.578 40.9661 52.6271 41.1176 52.6279 41.273C52.6288 41.4284 52.5813 41.5804 52.4919 41.7088C52.4024 41.8373 52.2751 41.9362 52.1269 41.9924C51.7523 42.1874 51.3343 42.2894 50.9099 42.2894C50.4854 42.2894 50.0675 42.1874 49.6929 41.9924C49.5441 41.9377 49.4157 41.8402 49.3249 41.7126C49.234 41.5851 49.1849 41.4336 49.1841 41.2782C49.1833 41.1228 49.2307 40.9708 49.3202 40.8423C49.4097 40.7139 49.5369 40.615 49.6852 40.5588C50.0598 40.3638 50.4777 40.2618 50.9022 40.2618C51.3266 40.2618 51.7445 40.3638 52.1191 40.5588Z" fill="#FFF5EC" stroke="#00402A" stroke-width="0.5" stroke-linecap="round" stroke-linejoin="round"/>
<path d="M52.6259 40.2629V40.7704C52.6131 40.9213 52.5603 41.0663 52.4726 41.1911C52.3849 41.3159 52.2654 41.4162 52.126 41.482C51.7514 41.677 51.3334 41.779 50.909 41.779C50.4846 41.779 50.0666 41.677 49.692 41.482C49.5499 41.4159 49.428 41.3143 49.3387 41.1876C49.2495 41.0608 49.1959 40.9134 49.1833 40.76V40.2526C49.1957 40.4059 49.2491 40.5533 49.3382 40.68C49.4273 40.8068 49.549 40.9083 49.691 40.9746C50.0656 41.1696 50.4836 41.2716 50.908 41.2716C51.3325 41.2716 51.7504 41.1696 52.125 40.9746C52.2647 40.9088 52.3843 40.8085 52.4722 40.6837C52.56 40.5589 52.613 40.4139 52.6259 40.2629Z" fill="#FFF5EC" stroke="#00402A" stroke-width="0.5" stroke-linecap="round" stroke-linejoin="round"/>
<path d="M52.1191 39.5408C52.268 39.5955 52.3963 39.6931 52.4871 39.8206C52.578 39.9482 52.6271 40.0997 52.6279 40.2551C52.6288 40.4105 52.5813 40.5625 52.4918 40.6909C52.4024 40.8194 52.2751 40.9183 52.1269 40.9745C51.7522 41.1695 51.3343 41.2715 50.9099 41.2715C50.4854 41.2715 50.0675 41.1695 49.6929 40.9745C49.5444 40.9194 49.4165 40.8217 49.326 40.6942C49.2355 40.5667 49.1866 40.4155 49.1858 40.2603C49.185 40.1051 49.2322 39.9533 49.3214 39.8249C49.4105 39.6965 49.5373 39.5974 49.6851 39.5408C50.0598 39.3458 50.4777 39.2438 50.9021 39.2438C51.3266 39.2438 51.7445 39.3458 52.1191 39.5408Z" fill="#FFF5EC" stroke="#00402A" stroke-width="0.5" stroke-linecap="round" stroke-linejoin="round"/>
<path d="M52.6259 39.2234V39.7309C52.6131 39.8818 52.5603 40.0267 52.4726 40.1515C52.3849 40.2763 52.2654 40.3767 52.126 40.4425C51.7514 40.6376 51.3334 40.7395 50.909 40.7395C50.4846 40.7395 50.0666 40.6376 49.692 40.4425C49.5499 40.3764 49.428 40.2748 49.3387 40.1481C49.2495 40.0214 49.1959 39.8739 49.1833 39.7205V39.213C49.1957 39.3663 49.2491 39.5137 49.3382 39.6405C49.4273 39.7672 49.549 39.8688 49.691 39.935C50.0656 40.13 50.4836 40.232 50.908 40.232C51.3325 40.232 51.7504 40.13 52.125 39.935C52.2647 39.8693 52.3844 39.7691 52.4723 39.6443C52.5602 39.5195 52.6131 39.3744 52.6259 39.2234Z" fill="#FFF5EC" stroke="#00402A" stroke-width="0.5" stroke-linecap="round" stroke-linejoin="round"/>
<path d="M52.1191 38.5014C52.268 38.5561 52.3963 38.6537 52.4872 38.7812C52.578 38.9088 52.6271 39.0602 52.6279 39.2156C52.6288 39.371 52.5813 39.523 52.4919 39.6515C52.4024 39.7799 52.2751 39.8788 52.1269 39.935C51.7523 40.13 51.3343 40.232 50.9099 40.232C50.4854 40.232 50.0675 40.13 49.6929 39.935C49.5441 39.8803 49.4157 39.7828 49.3249 39.6553C49.234 39.5277 49.1849 39.3762 49.1841 39.2208C49.1833 39.0654 49.2307 38.9134 49.3202 38.785C49.4097 38.6565 49.5369 38.5576 49.6852 38.5014C50.0598 38.3064 50.4777 38.2044 50.9022 38.2044C51.3266 38.2044 51.7445 38.3064 52.1191 38.5014Z" fill="#FFF5EC" stroke="#00402A" stroke-width="0.5" stroke-linecap="round" stroke-linejoin="round"/>
<path d="M52.6259 38.1451V38.6526C52.6131 38.8034 52.5603 38.9484 52.4726 39.0732C52.3849 39.198 52.2654 39.2984 52.126 39.3642C51.7514 39.5592 51.3334 39.6612 50.909 39.6612C50.4846 39.6612 50.0666 39.5592 49.692 39.3642C49.5499 39.2981 49.428 39.1965 49.3387 39.0698C49.2495 38.943 49.1959 38.7956 49.1833 38.6422V38.1347C49.1957 38.288 49.2491 38.4354 49.3382 38.5622C49.4273 38.6889 49.549 38.7905 49.691 38.8567C50.0656 39.0517 50.4836 39.1537 50.908 39.1537C51.3325 39.1537 51.7504 39.0517 52.125 38.8567C52.2648 38.7911 52.3845 38.6909 52.4724 38.5661C52.5603 38.4413 52.6132 38.2961 52.6259 38.1451Z" fill="#FFF5EC" stroke="#00402A" stroke-width="0.5" stroke-linecap="round" stroke-linejoin="round"/>
<path d="M52.1191 37.4268C52.268 37.4815 52.3963 37.5791 52.4871 37.7066C52.578 37.8342 52.6271 37.9857 52.6279 38.1411C52.6288 38.2965 52.5813 38.4484 52.4918 38.5769C52.4024 38.7053 52.2751 38.8043 52.1269 38.8605C51.7522 39.0555 51.3343 39.1575 50.9099 39.1575C50.4854 39.1575 50.0675 39.0555 49.6929 38.8605C49.5444 38.8054 49.4165 38.7077 49.326 38.5802C49.2355 38.4527 49.1866 38.3014 49.1858 38.1463C49.185 37.9911 49.2322 37.8393 49.3214 37.7109C49.4105 37.5825 49.5373 37.4834 49.6851 37.4268C50.0598 37.2318 50.4777 37.1298 50.9021 37.1298C51.3266 37.1298 51.7445 37.2318 52.1191 37.4268Z" fill="#FFF5EC" stroke="#00402A" stroke-width="0.5" stroke-linecap="round" stroke-linejoin="round"/>
<path d="M52.6259 37.0743V37.5818C52.6132 37.7327 52.5604 37.8777 52.4727 38.0025C52.385 38.1273 52.2655 38.2276 52.126 38.2934C51.7514 38.4884 51.3334 38.5904 50.909 38.5904C50.4846 38.5904 50.0666 38.4884 49.692 38.2934C49.5498 38.2273 49.4279 38.1258 49.3386 37.999C49.2493 37.8723 49.1958 37.7248 49.1833 37.5714V37.0639C49.1956 37.2172 49.249 37.3647 49.3381 37.4914C49.4272 37.6182 49.5489 37.7198 49.691 37.7859C50.0656 37.9809 50.4836 38.0829 50.908 38.0829C51.3325 38.0829 51.7504 37.9809 52.125 37.7859C52.2648 37.7203 52.3845 37.6201 52.4724 37.4953C52.5603 37.3705 52.6132 37.2253 52.6259 37.0743Z" fill="#FFF5EC" stroke="#00402A" stroke-width="0.5" stroke-linecap="round" stroke-linejoin="round"/>
<path d="M52.1191 36.3494C52.268 36.4041 52.3963 36.5017 52.4872 36.6292C52.578 36.7567 52.6271 36.9082 52.6279 37.0636C52.6288 37.219 52.5813 37.371 52.4919 37.4995C52.4024 37.6279 52.2751 37.7268 52.1269 37.783C51.7523 37.978 51.3343 38.08 50.9099 38.08C50.4854 38.08 50.0675 37.978 49.6929 37.783C49.5441 37.7283 49.4157 37.6308 49.3249 37.5032C49.234 37.3757 49.1849 37.2242 49.1841 37.0688C49.1833 36.9134 49.2307 36.7615 49.3202 36.633C49.4097 36.5045 49.5369 36.4057 49.6852 36.3494C50.0598 36.1544 50.4777 36.0524 50.9022 36.0524C51.3266 36.0524 51.7445 36.1544 52.1191 36.3494Z" fill="#FFF5EC" stroke="#00402A" stroke-width="0.5" stroke-linecap="round" stroke-linejoin="round"/>
<path d="M52.6259 35.9998V36.5072C52.6132 36.6581 52.5604 36.8032 52.4727 36.928C52.385 37.0528 52.2655 37.153 52.126 37.2189C51.7514 37.4139 51.3334 37.5159 50.909 37.5159C50.4846 37.5159 50.0666 37.4139 49.692 37.2189C49.5498 37.1528 49.4279 37.0513 49.3386 36.9245C49.2493 36.7978 49.1958 36.6503 49.1833 36.4969V35.9893C49.1956 36.1427 49.249 36.2902 49.3381 36.4169C49.4272 36.5437 49.5489 36.6452 49.691 36.7114C50.0656 36.9064 50.4836 37.0084 50.908 37.0084C51.3325 37.0084 51.7504 36.9064 52.125 36.7114C52.2648 36.6458 52.3845 36.5456 52.4724 36.4207C52.5603 36.2959 52.6132 36.1508 52.6259 35.9998Z" fill="#FFF5EC" stroke="#00402A" stroke-width="0.5" stroke-linecap="round" stroke-linejoin="round"/>
<path d="M52.1191 35.2777C52.268 35.3324 52.3963 35.43 52.4871 35.5575C52.578 35.6851 52.6271 35.8365 52.6279 35.9919C52.6288 36.1473 52.5813 36.2993 52.4918 36.4278C52.4024 36.5562 52.2751 36.6551 52.1269 36.7114C51.7522 36.9064 51.3343 37.0084 50.9099 37.0084C50.4854 37.0084 50.0675 36.9064 49.6929 36.7114C49.5444 36.6563 49.4165 36.5585 49.326 36.4311C49.2355 36.3036 49.1866 36.1523 49.1858 35.9971C49.185 35.8419 49.2322 35.6902 49.3214 35.5618C49.4105 35.4334 49.5373 35.3343 49.6851 35.2777C50.0598 35.0827 50.4777 34.9807 50.9021 34.9807C51.3266 34.9807 51.7445 35.0827 52.1191 35.2777Z" fill="#FFF5EC" stroke="#00402A" stroke-width="0.5" stroke-linecap="round" stroke-linejoin="round"/>
<path d="M52.6259 34.9252V35.4327C52.6132 35.5835 52.5604 35.7286 52.4727 35.8534C52.385 35.9782 52.2655 36.0785 52.126 36.1443C51.7514 36.3393 51.3334 36.4413 50.909 36.4413C50.4846 36.4413 50.0666 36.3393 49.692 36.1443C49.5498 36.0782 49.4279 35.9767 49.3386 35.8499C49.2493 35.7232 49.1958 35.5757 49.1833 35.4223V34.9148C49.1956 35.0681 49.249 35.2156 49.3381 35.3423C49.4272 35.4691 49.5489 35.5707 49.691 35.6368C50.0656 35.8318 50.4836 35.9338 50.908 35.9338C51.3325 35.9338 51.7504 35.8318 52.125 35.6368C52.2648 35.5712 52.3845 35.471 52.4724 35.3461C52.5603 35.2213 52.6132 35.0762 52.6259 34.9252Z" fill="#FFF5EC" stroke="#00402A" stroke-width="0.5" stroke-linecap="round" stroke-linejoin="round"/>
<path d="M52.1191 34.2032C52.268 34.2579 52.3963 34.3554 52.4872 34.4829C52.578 34.6105 52.6271 34.762 52.6279 34.9174C52.6288 35.0728 52.5813 35.2248 52.4919 35.3532C52.4024 35.4817 52.2751 35.5806 52.1269 35.6368C51.7523 35.8318 51.3343 35.9338 50.9099 35.9338C50.4854 35.9338 50.0675 35.8318 49.6929 35.6368C49.5441 35.5821 49.4157 35.4845 49.3249 35.357C49.234 35.2295 49.1849 35.078 49.1841 34.9226C49.1833 34.7672 49.2307 34.6152 49.3202 34.4868C49.4097 34.3583 49.5369 34.2594 49.6852 34.2032C50.0598 34.0082 50.4777 33.9062 50.9022 33.9062C51.3266 33.9062 51.7445 34.0082 52.1191 34.2032Z" fill="#FFCD52" stroke="#00402A" stroke-width="0.5" stroke-linecap="round" stroke-linejoin="round"/>
<path d="M51.4133 34.9216C51.4138 34.7567 51.1874 34.6223 50.9075 34.6214C50.6277 34.6206 50.4004 34.7536 50.3999 34.9185C50.3993 35.0835 50.6258 35.2178 50.9056 35.2187C51.1855 35.2195 51.4128 35.0865 51.4133 34.9216Z" fill="#FFF5EC" stroke="#00402A" stroke-width="0.5" stroke-linecap="round" stroke-linejoin="round"/>
<path d="M50.8969 35.0604C50.8309 35.0604 50.7676 35.0349 50.7209 34.9894C50.6741 34.9438 50.6477 34.882 50.6475 34.8175V32.6638C50.6514 32.6018 50.6794 32.5437 50.7256 32.5012C50.7719 32.4587 50.833 32.4351 50.8965 32.4351C50.9599 32.4351 51.021 32.4587 51.0673 32.5012C51.1136 32.5437 51.1415 32.6018 51.1455 32.6638V34.8175C51.1455 34.8819 51.1193 34.9438 51.0727 34.9893C51.0261 35.0349 50.9629 35.0604 50.8969 35.0604Z" fill="#FFF5EC" stroke="#00402A" stroke-width="0.5" stroke-linecap="round" stroke-linejoin="round"/>
<path d="M3.69478 13.844V14.3515C3.68206 14.5024 3.62924 14.6474 3.54155 14.7722C3.45387 14.897 3.33435 14.9973 3.19483 15.0631C2.82004 15.2581 2.40196 15.3601 1.97736 15.3601C1.55276 15.3601 1.13467 15.2581 0.759883 15.0631C0.617802 14.997 0.496063 14.8954 0.406935 14.7687C0.317806 14.6419 0.264436 14.4944 0.252197 14.3411V13.8336C0.264817 13.987 0.318449 14.1344 0.407721 14.2611C0.496992 14.3878 0.618767 14.4894 0.76085 14.5556C1.13547 14.7506 1.5534 14.8526 1.97784 14.8526C2.40229 14.8526 2.82022 14.7506 3.19483 14.5556C3.33447 14.49 3.45409 14.3897 3.5418 14.2649C3.62951 14.1401 3.68225 13.9949 3.69478 13.844Z" fill="#FFF5EC" stroke="#00402A" stroke-width="0.5" stroke-linecap="round" stroke-linejoin="round"/>
<path d="M3.69307 13.844C3.69483 13.2839 2.92561 12.8276 1.97497 12.8248C1.02433 12.8219 0.252262 13.2736 0.250502 13.8336C0.248741 14.3937 1.01796 14.85 1.9686 14.8528C2.91924 14.8557 3.69131 14.404 3.69307 13.844Z" fill="#FFF5EC" stroke="#00402A" stroke-width="0.5" stroke-linecap="round" stroke-linejoin="round"/>
<path d="M3.69478 12.8262V13.3337C3.68206 13.4846 3.62924 13.6296 3.54155 13.7544C3.45387 13.8793 3.33435 13.9795 3.19483 14.0453C2.82004 14.2403 2.40196 14.3423 1.97736 14.3423C1.55276 14.3423 1.13467 14.2403 0.759883 14.0453C0.617802 13.9792 0.496063 13.8776 0.406935 13.7509C0.317806 13.6241 0.264436 13.4766 0.252197 13.3233V12.8158C0.264817 12.9691 0.318449 13.1166 0.407721 13.2433C0.496992 13.37 0.618767 13.4716 0.76085 13.5379C1.13547 13.7329 1.5534 13.8349 1.97784 13.8349C2.40229 13.8349 2.82022 13.7329 3.19483 13.5379C3.33447 13.4722 3.45409 13.3719 3.5418 13.2471C3.62951 13.1222 3.68225 12.9771 3.69478 12.8262Z" fill="#FFF5EC" stroke="#00402A" stroke-width="0.5" stroke-linecap="round" stroke-linejoin="round"/>
<path d="M3.18506 12.1042C3.3335 12.1593 3.46138 12.257 3.55189 12.3845C3.6424 12.512 3.69129 12.6632 3.69213 12.8184C3.69297 12.9736 3.64571 13.1254 3.55658 13.2538C3.46745 13.3822 3.34063 13.4812 3.1928 13.5379C2.81818 13.7329 2.40025 13.8349 1.97581 13.8349C1.55136 13.8349 1.13343 13.7329 0.758811 13.5379C0.609979 13.4832 0.48165 13.3856 0.390797 13.258C0.299944 13.1305 0.250849 12.979 0.250011 12.8236C0.249172 12.6682 0.296629 12.5162 0.386101 12.3878C0.475573 12.2593 0.602842 12.1604 0.751075 12.1042C1.12569 11.9092 1.54362 11.8072 1.96807 11.8072C2.39251 11.8072 2.81045 11.9092 3.18506 12.1042Z" fill="#FFF5EC" stroke="#00402A" stroke-width="0.5" stroke-linecap="round" stroke-linejoin="round"/>
<path d="M3.69478 11.7866V12.294C3.68206 12.4449 3.62924 12.59 3.54155 12.7148C3.45387 12.8396 3.33435 12.9399 3.19483 13.0057C2.82004 13.2007 2.40196 13.3027 1.97736 13.3027C1.55276 13.3027 1.13467 13.2007 0.759883 13.0057C0.617802 12.9395 0.496063 12.838 0.406935 12.7113C0.317806 12.5845 0.264436 12.437 0.252197 12.2837V11.7762C0.264817 11.9295 0.318449 12.0769 0.407721 12.2037C0.496992 12.3304 0.618767 12.4319 0.76085 12.4982C1.13547 12.6932 1.5534 12.7952 1.97784 12.7952C2.40229 12.7952 2.82022 12.6932 3.19483 12.4982C3.33447 12.4325 3.45409 12.3323 3.5418 12.2075C3.62951 12.0826 3.68225 11.9375 3.69478 11.7866Z" fill="#FFF5EC" stroke="#00402A" stroke-width="0.5" stroke-linecap="round" stroke-linejoin="round"/>
<path d="M3.69307 11.7865C3.69483 11.2264 2.92561 10.7701 1.97497 10.7673C1.02433 10.7644 0.252262 11.2161 0.250502 11.7761C0.248741 12.3362 1.01796 12.7925 1.9686 12.7953C2.91924 12.7982 3.69131 12.3465 3.69307 11.7865Z" fill="#FFF5EC" stroke="#00402A" stroke-width="0.5" stroke-linecap="round" stroke-linejoin="round"/>
<path d="M3.69478 10.7121V11.2196C3.68206 11.3705 3.62924 11.5156 3.54155 11.6404C3.45387 11.7652 3.33435 11.8654 3.19483 11.9313C2.82004 12.1263 2.40196 12.2283 1.97736 12.2283C1.55276 12.2283 1.13467 12.1263 0.759883 11.9313C0.617802 11.8651 0.496063 11.7635 0.406935 11.6368C0.317806 11.51 0.264436 11.3625 0.252197 11.2092V10.7017C0.264817 10.8551 0.318449 11.0025 0.407721 11.1292C0.496992 11.2559 0.618767 11.3575 0.76085 11.4238C1.13547 11.6188 1.5534 11.7208 1.97784 11.7208C2.40229 11.7208 2.82022 11.6188 3.19483 11.4238C3.33447 11.3581 3.45409 11.2578 3.5418 11.133C3.62951 11.0082 3.68225 10.863 3.69478 10.7121Z" fill="#FFF5EC" stroke="#00402A" stroke-width="0.5" stroke-linecap="round" stroke-linejoin="round"/>
<path d="M3.18506 9.99012C3.3335 10.0452 3.46138 10.1429 3.55189 10.2704C3.6424 10.3979 3.69129 10.5492 3.69213 10.7043C3.69297 10.8595 3.64571 11.0113 3.55658 11.1397C3.46745 11.2681 3.34063 11.3672 3.1928 11.4238C2.81818 11.6188 2.40025 11.7208 1.97581 11.7208C1.55136 11.7208 1.13343 11.6188 0.758811 11.4238C0.609979 11.3691 0.48165 11.2715 0.390797 11.144C0.299944 11.0164 0.250849 10.8649 0.250011 10.7095C0.249172 10.5541 0.296629 10.4021 0.386101 10.2737C0.475573 10.1452 0.602842 10.0463 0.751075 9.99012C1.12569 9.79511 1.54362 9.69312 1.96807 9.69312C2.39251 9.69312 2.81045 9.79511 3.18506 9.99012Z" fill="#FFF5EC" stroke="#00402A" stroke-width="0.5" stroke-linecap="round" stroke-linejoin="round"/>
<path d="M3.69478 9.63757V10.1451C3.68206 10.2959 3.62924 10.441 3.54155 10.5658C3.45387 10.6906 3.33435 10.7909 3.19483 10.8567C2.82004 11.0517 2.40196 11.1537 1.97736 11.1537C1.55276 11.1537 1.13467 11.0517 0.759883 10.8567C0.617937 10.7906 0.496286 10.6892 0.407167 10.5626C0.318048 10.436 0.2646 10.2888 0.252197 10.1356V9.62811C0.264885 9.78133 0.318554 9.92857 0.407827 10.0551C0.497101 10.1817 0.618842 10.2831 0.76085 10.3492C1.13547 10.5442 1.5534 10.6462 1.97784 10.6462C2.40229 10.6462 2.82022 10.5442 3.19483 10.3492C3.33447 10.2835 3.45409 10.1833 3.5418 10.0585C3.62951 9.93363 3.68225 9.78851 3.69478 9.63757Z" fill="#FFF5EC" stroke="#00402A" stroke-width="0.5" stroke-linecap="round" stroke-linejoin="round"/>
<path d="M3.69301 9.63735C3.69473 9.07731 2.92548 8.62105 1.97483 8.61826C1.02419 8.61548 0.252146 9.06722 0.250427 9.62726C0.248708 10.1873 1.01796 10.6436 1.96861 10.6463C2.91925 10.6491 3.69129 10.1974 3.69301 9.63735Z" fill="#FFF5EC" stroke="#00402A" stroke-width="0.5" stroke-linecap="round" stroke-linejoin="round"/>
<path d="M3.69478 8.565V9.07248C3.68206 9.22337 3.62924 9.3684 3.54155 9.49321C3.45387 9.61802 3.33435 9.71829 3.19483 9.7841C2.82004 9.9791 2.40196 10.0811 1.97736 10.0811C1.55276 10.0811 1.13467 9.9791 0.759883 9.7841C0.617817 9.7182 0.496062 9.61682 0.40692 9.49021C0.317779 9.3636 0.264407 9.21624 0.252197 9.06302V8.55554C0.264885 8.70875 0.318554 8.856 0.407827 8.98256C0.497101 9.10911 0.618842 9.21053 0.76085 9.27662C1.13547 9.47162 1.5534 9.57362 1.97784 9.57362C2.40229 9.57362 2.82022 9.47162 3.19483 9.27662C3.33447 9.21096 3.45409 9.11075 3.5418 8.9859C3.62951 8.86106 3.68225 8.71594 3.69478 8.565Z" fill="#FFF5EC" stroke="#00402A" stroke-width="0.5" stroke-linecap="round" stroke-linejoin="round"/>
<path d="M3.18506 7.84105C3.33389 7.89575 3.46222 7.99333 3.55308 8.12086C3.64393 8.2484 3.69302 8.39987 3.69386 8.55526C3.6947 8.71066 3.64724 8.86264 3.55777 8.9911C3.4683 9.11956 3.34103 9.21843 3.1928 9.27466C2.81818 9.46967 2.40025 9.57166 1.97581 9.57166C1.55136 9.57166 1.13343 9.46967 0.758811 9.27466C0.609979 9.21996 0.48165 9.12238 0.390797 8.99485C0.299944 8.86732 0.250849 8.71585 0.250011 8.56045C0.249172 8.40506 0.296629 8.25307 0.386101 8.12461C0.475573 7.99615 0.602842 7.89728 0.751075 7.84105C1.12585 7.64653 1.54372 7.5448 1.96807 7.5448C2.39242 7.5448 2.81029 7.64653 3.18506 7.84105Z" fill="#FFF5EC" stroke="#00402A" stroke-width="0.5" stroke-linecap="round" stroke-linejoin="round"/>
<path d="M3.69478 7.48852V7.996C3.68206 8.14689 3.62924 8.29192 3.54155 8.41673C3.45387 8.54155 3.33435 8.64181 3.19483 8.70762C2.82004 8.90263 2.40196 9.00462 1.97736 9.00462C1.55276 9.00462 1.13467 8.90263 0.759883 8.70762C0.617817 8.64172 0.496062 8.54034 0.40692 8.41373C0.317779 8.28712 0.264407 8.13977 0.252197 7.98655V7.47906C0.264885 7.63228 0.318554 7.77952 0.407827 7.90608C0.497101 8.03263 0.618842 8.13405 0.76085 8.20014C1.13547 8.39514 1.5534 8.49714 1.97784 8.49714C2.40229 8.49714 2.82022 8.39514 3.19483 8.20014C3.33447 8.13448 3.45409 8.03421 3.5418 7.90937C3.62951 7.78452 3.68225 7.63947 3.69478 7.48852Z" fill="#FFF5EC" stroke="#00402A" stroke-width="0.5" stroke-linecap="round" stroke-linejoin="round"/>
<path d="M3.69307 7.48849C3.69483 6.92845 2.92561 6.47214 1.97497 6.46929C1.02433 6.46643 0.252262 6.91812 0.250502 7.47815C0.248741 8.03819 1.01796 8.4945 1.9686 8.49735C2.91924 8.50021 3.69131 8.04852 3.69307 7.48849Z" fill="#FFCD52" stroke="#00402A" stroke-width="0.5" stroke-linecap="round" stroke-linejoin="round"/>
<path d="M2.3284 7.27305C2.37196 7.28947 2.40941 7.31838 2.43583 7.356C2.46224 7.39362 2.47638 7.4382 2.47638 7.48382C2.47638 7.52944 2.46224 7.57397 2.43583 7.61158C2.40941 7.6492 2.37196 7.67812 2.3284 7.69453C2.21807 7.75179 2.09505 7.78174 1.97013 7.78174C1.8452 7.78174 1.72218 7.75179 1.61184 7.69453C1.56828 7.67812 1.53083 7.6492 1.50442 7.61158C1.47801 7.57397 1.46387 7.52944 1.46387 7.48382C1.46387 7.4382 1.47801 7.39362 1.50442 7.356C1.53083 7.31838 1.56828 7.28947 1.61184 7.27305C1.72213 7.21564 1.84517 7.18561 1.97013 7.18561C2.09508 7.18561 2.21812 7.21564 2.3284 7.27305Z" fill="#FFF5EC" stroke="#00402A" stroke-width="0.5" stroke-linecap="round" stroke-linejoin="round"/>
<path d="M1.9619 7.6247C1.8959 7.62445 1.83268 7.59865 1.7861 7.55295C1.73952 7.50725 1.71337 7.44539 1.71337 7.38088V5.22804C1.71125 5.19481 1.71612 5.16154 1.72768 5.13022C1.73923 5.09889 1.75723 5.07021 1.78056 5.04594C1.80389 5.02168 1.83206 5.00229 1.86333 4.98907C1.8946 4.97585 1.92831 4.96906 1.96238 4.96906C1.99645 4.96906 2.03016 4.97585 2.06143 4.98907C2.0927 5.00229 2.12087 5.02168 2.1442 5.04594C2.16753 5.07021 2.18553 5.09889 2.19709 5.13022C2.20864 5.16154 2.21351 5.19481 2.21139 5.22804V7.38088C2.21139 7.4129 2.20493 7.44457 2.19239 7.47415C2.17986 7.50374 2.16148 7.53065 2.13831 7.55329C2.11514 7.57593 2.08764 7.59388 2.05737 7.60613C2.0271 7.61838 1.99466 7.6247 1.9619 7.6247Z" fill="#FFF5EC" stroke="#00402A" stroke-width="0.5" stroke-linecap="round" stroke-linejoin="round"/>
<path d="M43.3727 25.0524C43.3727 25.0467 43.392 21.4896 43.392 21.4896H42.7905L42.775 24.4873L36.5736 18.6024L36.3637 18.8132L36.5146 18.559L27.4836 13.4595C27.4667 13.4507 27.4493 13.4432 27.4314 13.4368L20.3934 11.0477L27.3308 7.13427L36.1432 12.2517L36.4507 11.7461L27.4836 6.54073C27.4375 6.51403 27.3849 6.49995 27.3313 6.49995C27.2777 6.49995 27.2251 6.51403 27.179 6.54073L19.6362 10.7935L17.4537 10.0525V6.47837H16.8522V9.8484L2.04423 4.82263L1.85083 5.37741L16.5234 10.3607L11.8295 13.2714L12.1515 13.7685L17.2487 10.6073L18.9496 11.1847L18.1412 11.6403L18.4429 12.1497L19.7001 11.439L26.6075 13.7836L18.1403 18.5618L18.442 19.0712L27.3279 14.0567L36.1867 19.0494L42.5004 25.0401L38.348 27.4755L38.6575 27.9792L42.9472 25.4645L50.7375 32.8548L51.1562 32.4332L43.3727 25.0524Z" fill="#3CC2FF" stroke="#00402A" stroke-width="0.5" stroke-linecap="round" stroke-linejoin="round"/>
<path d="M18.4441 36.6104L27.329 31.5421L36.214 36.6104L36.5176 36.1019L27.4837 30.9477C27.4377 30.9212 27.3853 30.9073 27.3319 30.9073C27.2785 30.9073 27.2261 30.9212 27.1801 30.9477L18.1433 36.1019L18.4441 36.6104Z" fill="#3CC2FF" stroke="#00402A" stroke-width="0.5" stroke-linecap="round" stroke-linejoin="round"/>
<path d="M36.2169 27.2251L36.5147 26.7148L27.4779 21.671C27.4322 21.6457 27.3806 21.6324 27.328 21.6324C27.2755 21.6324 27.2238 21.6457 27.1781 21.671L18.1414 26.7743L18.4431 27.2828L27.33 22.2683L36.2169 27.2251Z" fill="#FFF5EC" stroke="#00402A" stroke-width="0.5" stroke-linecap="round" stroke-linejoin="round"/>
<path d="M40.5932 58.5185L40.4868 58.1112L40.628 57.8655L26.5511 50.0934L27.5733 41.7354L36.2155 46.6109L36.5163 46.1024L27.4834 41.0029C27.4375 40.977 27.3855 40.9633 27.3325 40.9633C27.2795 40.9633 27.2275 40.977 27.1816 41.0029L18.1449 46.1062L18.4466 46.6147L26.9621 41.81L25.9555 50.0443L13.9548 56.8524L14.0805 57.0651L13.8871 57.4563L18.169 59.4409L8.35767 71.1274L8.8228 71.5054L18.7328 59.7131L24.6403 62.4537C24.6809 62.4723 24.7251 62.482 24.7699 62.4821C24.795 62.4818 24.82 62.4786 24.8444 62.4726L34.0417 60.1677L45.8335 74.3897L46.3006 74.0193L34.6828 60.007L40.5932 58.5185ZM34.266 59.4976L27.4321 51.2558L39.8331 58.1018L34.266 59.4976ZM14.6307 57.1482L25.0948 51.2076L18.5665 58.9759L14.6307 57.1482ZM24.5204 61.7402L19.1264 59.2358L25.7988 51.2974L24.5204 61.7402ZM25.1209 61.7893L26.4409 50.9978L33.6249 59.662L25.1209 61.7893Z" fill="#3CC2FF" stroke="#00402A" stroke-width="0.5" stroke-linecap="round" stroke-linejoin="round"/>
<path d="M2.02464 5.04174L3.73626 5.53226L11.8196 9.15557L11.6871 9.23021C11.6301 9.26291 11.5857 9.313 11.5607 9.37274C11.5357 9.43248 11.5314 9.49855 11.5485 9.5609C11.5657 9.62324 11.6032 9.6784 11.6555 9.71785C11.7078 9.7573 11.7719 9.77885 11.8379 9.77928C11.8909 9.77909 11.9429 9.76542 11.9888 9.73959L12.4887 9.45609L18.2261 12.0276L18.4378 11.5768L13.0225 9.15084L17.4786 6.62284C17.4873 6.61717 27.0791 7.1114 27.0791 7.1114L27.1313 6.52548L1.97339 4.80646L2.02464 5.04174ZM12.3572 8.85032L5.61808 5.82615L5.78151 5.68725L16.47 6.51227L12.3572 8.85032Z" fill="#3CC2FF" stroke="#00402A" stroke-width="0.5" stroke-linecap="round" stroke-linejoin="round"/>
<path d="M36.6033 11.8595C36.6033 11.8595 27.581 0.463114 27.4669 0.364829C27.4128 0.313477 27.3462 0.276392 27.2735 0.25708L27.1613 0.935643H27.1294L27.5007 51.7L28.5403 64.2758L29.9434 82.2487L30.0304 83.4877L30.1678 83.4404L36.171 69.4537L45.9302 74.4624C45.9834 74.49 46.0439 74.5012 46.1038 74.4946C46.1636 74.488 46.22 74.464 46.2657 74.4256C46.3113 74.3874 46.3441 74.3367 46.36 74.2801C46.3758 74.2235 46.374 74.1636 46.3547 74.1081L36.67 46.3075V22.8287L38.3671 23.9523C38.3194 23.9909 38.285 24.0429 38.2687 24.1013C38.2525 24.1597 38.2551 24.2216 38.2763 24.2785C38.2975 24.3354 38.3362 24.3844 38.3871 24.4189C38.438 24.4534 38.4986 24.4717 38.5605 24.4712C38.6143 24.4717 38.6672 24.4577 38.7133 24.4306L38.9067 24.3095L49.7731 31.5052L50.6918 32.8112L51.1859 32.4767C51.1859 32.4767 36.6129 11.8775 36.6033 11.8595ZM36.0617 26.8017L36.0405 26.7894L36.0173 26.8262L28.4745 31.0846L34.8327 21.6133L36.0656 22.4299V26.7998L36.0617 26.8017ZM36.0617 27.9301V36.187L28.3111 40.5597L36.0617 27.9301ZM34.5938 20.8582L34.0397 20.4916L35.3287 19.7639L34.5938 20.8582ZM35.1083 21.1984L36.0617 19.7809V21.8326L35.1083 21.1984ZM33.4866 20.1249L28.2202 16.6376L36.0617 12.4435V18.6714L33.4866 20.1249ZM27.9475 4.74042L29.5344 3.92861L35.8577 11.8831L28.1332 16.0139L27.9475 4.74042ZM28.1409 17.1867L32.9944 20.3999L28.1602 23.1311L28.1409 17.1867ZM28.1564 23.8096L33.5475 20.7675L34.3124 21.2731L28.1718 30.4155L28.1564 23.8096ZM28.1757 31.9266L35.3742 27.8629L28.1989 39.5627L28.1757 31.9266ZM28.1979 41.3016L35.5105 37.1745L28.2163 49.377L28.1979 41.3016ZM28.2192 50.5763L36.0588 37.4619V46.1866L28.2192 50.6103V50.5763ZM28.2192 51.2879L35.6353 47.1032L29.1659 62.7353L28.2192 51.2879ZM30.5913 80.9049L29.4309 65.9976L35.6256 69.1768L30.5913 80.9049ZM35.8587 68.6324L29.3796 65.3058L29.3574 65.028L39.9579 59.1054L35.8587 68.6324ZM45.5289 73.5949L36.3925 68.9065L40.5332 59.2566L45.5289 73.5949ZM40.1957 58.2851L29.311 64.3797L29.2829 64.0423L36.3006 47.0834L40.1957 58.2851ZM38.8158 23.6556L36.67 22.2286V13.0417L42.5437 21.3232L38.8158 23.6556ZM47.7646 29.582L39.3573 24.0147L42.8782 21.8052L48.1379 29.2182L47.7646 29.582Z" fill="#6BDAFF" stroke="#00402A" stroke-width="0.5" stroke-linecap="round" stroke-linejoin="round"/>
<path d="M51.1127 32.4011L38.7232 24.1583L27.5861 16.7491L27.3317 0.618087C27.3317 0.455539 27.323 0.240089 27.2292 0.250484C27.1872 0.250137 27.1455 0.258324 27.1069 0.274595C27.0682 0.290867 27.0335 0.314844 27.0049 0.344966L18.0561 11.8235L2.07033 4.83015C2.00463 4.80182 1.93072 4.79745 1.86197 4.81775C1.79323 4.83804 1.73418 4.8817 1.69551 4.94084C1.65685 4.99998 1.64111 5.07069 1.65115 5.14019C1.66119 5.20968 1.69634 5.27332 1.75024 5.31969L17.9913 19.142V46.3019L8.30953 71.2048C8.29207 71.2493 8.28598 71.2973 8.29178 71.3446C8.29759 71.3919 8.3151 71.4371 8.34283 71.4763C8.37055 71.5155 8.40763 71.5475 8.45087 71.5695C8.4941 71.5916 8.54218 71.603 8.59093 71.6027C8.62144 71.603 8.65178 71.5985 8.68086 71.5895L20.317 68.004L29.6284 83.4744C29.6552 83.5184 29.6931 83.5549 29.7385 83.5804C29.7839 83.6058 29.8352 83.6195 29.8876 83.6199H29.9117C29.9511 83.6168 29.9895 83.6062 30.0246 83.5887C30.0598 83.5711 30.0911 83.5469 30.1166 83.5175C30.1422 83.4881 30.1617 83.4541 30.1738 83.4173C30.1859 83.3806 30.1905 83.3418 30.1873 83.3034L27.6296 51.4439V29.5055L27.6122 24.3587L50.8371 32.919C50.871 32.9317 50.9071 32.9381 50.9434 32.9378C51.0077 32.9378 51.0703 32.9177 51.122 32.8804C51.1737 32.8431 51.2118 32.7905 51.2307 32.7305C51.2496 32.6705 51.2484 32.6061 51.2271 32.5468C51.2059 32.4875 51.1658 32.4364 51.1127 32.4011ZM27.0281 29.5064V31.2368L19.4293 19.9784L27.0097 24.1896L27.0281 29.5064ZM24.9974 3.86906L26.9391 4.79329L26.9788 16.3664L18.6073 12.0863L24.9974 3.86906ZM18.5889 12.7412L26.9817 17.0308L27.0039 23.511L18.5909 18.8377L18.5889 12.7412ZM18.5889 19.8423L26.1742 31.0799L18.5889 26.7997V19.8423ZM27.0242 32.2385V40.3801L19.1131 27.7751L27.0242 32.2385ZM18.5889 28.1002L26.445 40.6193L18.5889 36.187V28.1002ZM27.0242 41.6248V50.288L19.1266 37.1689L27.0242 41.6248ZM18.5889 37.4732L26.533 50.6689L18.5889 46.1865V37.4732ZM11.5742 12.9018L5.1087 7.39979L5.13094 6.81381L11.5897 9.6414L11.5742 12.9018ZM12.1737 13.4122L12.1902 9.90414L17.9874 12.4426V18.3605L12.1737 13.4122ZM18.3317 47.0692L27.6015 64.3495L14.4385 57.0829L18.3317 47.0692ZM9.09281 70.8439L14.1687 57.787L20.0037 67.4813L9.09281 70.8439ZM15.0516 58.0942L27.7379 65.0979L20.5926 67.2999L15.0516 58.0942ZM29.4863 82.0758L20.9078 67.8197L28.1605 65.5837L29.4863 82.0758ZM28.0232 63.8627L19.0405 47.1146L27.0416 51.6291L28.0232 63.8627ZM38.1043 27.5936L27.6102 23.7255L27.588 17.4598L38.1208 24.4692L38.1043 27.5936ZM47.2668 30.9712L38.7048 27.8148L38.7194 24.8643L47.2997 30.5724L47.2668 30.9712Z" fill="#0DA9FF" stroke="#00402A" stroke-width="0.5" stroke-linecap="round" stroke-linejoin="round"/>
</svg>
