<svg width="42" height="86" viewBox="0 0 42 86" fill="none" xmlns="http://www.w3.org/2000/svg">
<path fill-rule="evenodd" clip-rule="evenodd" d="M17.9514 29.9978C18.0314 30.194 18.2359 30.3781 18.5486 30.5743C18.953 30.7609 19.4491 30.8637 20.0369 30.8637H20.3214C20.7775 30.8326 21.1913 30.7394 21.5675 30.5743C21.993 30.359 22.2046 30.1007 22.2046 29.8017L22.1647 29.6773C22.1341 29.4309 21.9413 29.2132 21.5675 29.029C21.1936 28.8329 20.7775 28.73 20.3214 28.6989H20.0369C19.4491 28.6989 18.953 28.8113 18.5486 29.029C18.2242 29.1941 18.022 29.3783 17.9514 29.6055V29.9978Z" fill="#26BF64" stroke="#00402A" stroke-width="0.5" stroke-linecap="round" stroke-linejoin="round"/>
<path fill-rule="evenodd" clip-rule="evenodd" d="M22.2047 29.7921C22.2047 30.0911 21.9931 30.3495 21.5676 30.5648C21.1937 30.7298 20.7776 30.8231 20.3214 30.8542H20.037C19.4492 30.8542 18.9531 30.7609 18.5487 30.5648C18.2242 30.3686 18.022 30.1844 17.9515 29.9883L17.9303 60.425L17.9092 70.8019V82.7742H17.9891C17.9586 82.8555 17.9374 82.9297 17.9092 82.9799V83.3507C17.9891 83.7621 18.3136 84.1018 18.8708 84.3697C19.2964 84.585 19.783 84.7405 20.3191 84.8242C20.613 84.8553 20.9163 84.8649 21.2407 84.8649H21.6052C22.3857 84.8122 23.0323 84.6496 23.5707 84.3697C24.1891 84.0707 24.5135 83.7215 24.5323 83.3076V83.267C24.5629 83.2359 24.5723 83.1952 24.5723 83.1426C24.5723 83.09 24.5629 83.0301 24.5323 82.9775L24.2478 76.6003L24.1679 74.7655L23.9845 70.7995L23.519 60.4227L22.2024 29.7897L22.2047 29.7921Z" fill="#FFFEFF" stroke="#00402A" stroke-width="0.5" stroke-linecap="round" stroke-linejoin="round"/>
<path fill-rule="evenodd" clip-rule="evenodd" d="M27.8475 26.4624C28.1814 26.1634 28.4753 25.8739 28.708 25.606L28.9714 25.3166C29.357 24.8334 29.5591 24.4315 29.5591 24.111C29.5591 23.4005 28.6892 23.2355 26.947 23.6158C25.186 23.9961 23.0677 24.831 20.6084 26.1083C19.5339 26.6537 18.5323 27.2111 17.6013 27.7876C17.3074 28.0029 17.1545 28.3641 17.1545 28.8497C17.1545 29.23 17.2462 29.6127 17.4179 29.9931L17.439 30.0744H17.4602C17.5002 30.1462 17.5519 30.2299 17.6013 30.3208L18.3607 31.2585C18.5229 31.3709 18.664 31.4642 18.8074 31.5479C19.0707 31.6819 19.3129 31.7441 19.5268 31.713C19.7384 31.6316 19.9524 31.5384 20.164 31.4235C20.3262 31.3709 20.4673 31.2896 20.6107 31.1771C21.3607 30.7968 22.0802 30.4045 22.7785 29.9931C23.4979 29.5816 24.1868 29.1798 24.824 28.7659C25.4117 28.3545 25.9784 27.9622 26.5144 27.5819C26.6767 27.4479 26.8177 27.3235 26.9611 27.2111C27.2856 26.9527 27.5889 26.6968 27.8522 26.46L27.8475 26.4624Z" fill="#FFFEFF" stroke="#00402A" stroke-width="0.5" stroke-linecap="round" stroke-linejoin="round"/>
<path fill-rule="evenodd" clip-rule="evenodd" d="M10.4469 0.723603L10.2047 0.455688L9.88027 1.35272C10.9735 7.83285 12.128 13.6241 13.3341 18.7144C13.6585 19.9918 13.9618 21.2189 14.2557 22.3934C15.0363 25.3309 15.8051 27.8545 16.5857 29.9572C16.6374 30.0385 16.6774 30.1222 16.708 30.2035L16.628 30.7178L16.5881 30.8925L12.2526 31.1604L12.0903 31.1819L7.71487 34.7772L0.25 40.9081V41.7644L1.25159 42.0945C1.85818 41.8362 2.45772 41.5683 3.03375 41.3004L7.28696 39.2599C7.42803 39.1882 7.57145 39.1045 7.71252 39.0327C9.16082 38.2696 10.508 37.5089 11.7635 36.7459C14.4368 35.0571 16.4517 33.4376 17.7895 31.8828L17.9517 31.945L18.7111 32.2129L23.1666 37.241L26.7826 39.4872L40.5956 48.0293L40.7978 47.6992L41.1622 47.0916C36.0485 42.8672 31.4708 39.3126 27.4292 36.4277C27.2176 36.2938 27.0036 36.1383 26.792 35.9732C23.8249 33.9017 21.3021 32.3062 19.2472 31.1915C18.9533 31.0264 18.6594 30.8829 18.3655 30.737C18.335 30.7059 18.3138 30.6963 18.2856 30.6963L17.5262 29.5936L17.6484 23.8741L17.2017 22.4006L10.8819 1.19484L10.4469 0.721209V0.723603Z" fill="#FFFEFF" stroke="#00402A" stroke-width="0.5" stroke-linecap="round" stroke-linejoin="round"/>
<path fill-rule="evenodd" clip-rule="evenodd" d="M16.5858 30.8925L12.2503 31.1604L12.4925 30.9738L16.6234 30.7059L16.5835 30.8925H16.5858ZM12.1704 36.5282C10.9149 37.2913 9.55827 38.052 8.11937 38.815L7.29883 39.248C7.4399 39.1762 7.58332 39.0925 7.72438 39.0208C9.17269 38.2577 10.5199 37.497 11.7754 36.7339C14.4486 35.0451 16.4636 33.4257 17.8014 31.8708L17.9636 31.933C16.6258 33.4066 14.6932 34.9423 12.1704 36.5282ZM10.5998 0.25L11.2793 0.981974L17.5898 22.1877L18.0365 23.6612L17.9142 29.3807L18.6736 30.4834C18.7042 30.4834 18.7254 30.493 18.7536 30.5241C19.0475 30.6581 19.3414 30.8135 19.6353 30.9786C21.7019 32.0909 24.2129 33.6888 27.1801 35.7604C27.3917 35.9254 27.6056 36.0689 27.8172 36.2149C31.8588 39.0997 36.4365 42.6543 41.5502 46.8787L40.9836 47.8164L40.7814 47.692L41.1458 47.0844C36.0321 42.86 31.4544 39.3054 27.4128 36.4206C27.2012 36.2866 26.9873 36.1311 26.7757 35.9661C23.8085 33.8945 21.2858 32.299 19.2309 31.1843C18.937 31.0193 18.6431 30.8757 18.3492 30.7298C18.3186 30.6987 18.2975 30.6892 18.2692 30.6892L17.5098 29.5864L17.6321 23.867L17.1854 22.3934L10.8867 1.19965L10.4399 0.726024L10.6022 0.252394L10.5998 0.25Z" fill="#B0A9A3" stroke="#00402A" stroke-width="0.5" stroke-linecap="round" stroke-linejoin="round"/>
<path fill-rule="evenodd" clip-rule="evenodd" d="M17.9731 29.7802C17.6298 29.1822 17.2043 28.7612 16.6964 28.5219C16.1792 28.254 15.7442 28.2325 15.3892 28.4597C15.3492 28.4813 15.2975 28.5124 15.2575 28.5626C15.2176 28.6033 15.147 28.6655 15.0647 28.7277C14.042 29.5936 13.5153 30.6963 13.4636 32.0455C13.4636 32.1794 13.5153 32.2823 13.6259 32.3445C14.3853 32.7153 15.2152 32.9329 16.1063 32.9736H16.5624C16.8258 32.9736 17.0985 32.9521 17.3736 32.9114L17.6063 32.8492H17.7074C17.7991 32.8085 17.8791 32.7559 17.9708 32.7153C18.314 32.5 18.488 32.0981 18.488 31.5192C18.4974 30.9308 18.3258 30.3543 17.9708 29.7778L17.9731 29.7802Z" fill="#FF9C1A" stroke="#00402A" stroke-width="0.5" stroke-linecap="round" stroke-linejoin="round"/>
</svg>
