<svg width="56" height="87" viewBox="0 0 56 87" fill="none" xmlns="http://www.w3.org/2000/svg">
<path d="M8.02832 73.4267V75.7484L5.87559 74.5115V72.1699L8.02832 73.4267Z" fill="#007F33" stroke="#00402A" stroke-width="0.5" stroke-linecap="round" stroke-linejoin="round"/>
<path d="M8.02843 73.4267V75.7484L10.1812 74.5115V72.1699L8.02843 73.4267Z" fill="#699282" stroke="#00402A" stroke-width="0.5" stroke-linecap="round" stroke-linejoin="round"/>
<path d="M10.1812 72.1699L8.02843 70.9164L5.8757 72.1699L8.02843 73.4267L10.1812 72.1699Z" fill="#FFF5EC" stroke="#00402A" stroke-width="0.5" stroke-linecap="round" stroke-linejoin="round"/>
<path d="M8.02808 61.302V72.9009L6.94344 72.2724V60.6571L8.02808 61.302Z" fill="#007F33" stroke="#00402A" stroke-width="0.5" stroke-linecap="round" stroke-linejoin="round"/>
<path d="M8.02847 61.302V72.9009L9.11304 72.2724V60.6571L8.02847 61.302Z" fill="#699282" stroke="#00402A" stroke-width="0.5" stroke-linecap="round" stroke-linejoin="round"/>
<path d="M25.6108 83.5306V85.8722L23.4581 84.6187V82.2772L25.6108 83.5306Z" fill="#007F33" stroke="#00402A" stroke-width="0.5" stroke-linecap="round" stroke-linejoin="round"/>
<path d="M25.6107 83.5306V85.8722L27.7634 84.6187V82.2772L25.6107 83.5306Z" fill="#699282" stroke="#00402A" stroke-width="0.5" stroke-linecap="round" stroke-linejoin="round"/>
<path d="M27.7634 82.2772L25.6107 81.0237L23.458 82.2772L25.6107 83.5307L27.7634 82.2772Z" fill="#FFF5EC" stroke="#00402A" stroke-width="0.5" stroke-linecap="round" stroke-linejoin="round"/>
<path d="M25.6101 77.3591V83.0047L24.509 82.3796V76.7307L25.6101 77.3591Z" fill="#FFF5EC" stroke="#00402A" stroke-width="0.5" stroke-linecap="round" stroke-linejoin="round"/>
<path d="M25.6102 77.3591V83.0047L26.6948 82.3796V76.7307L25.6102 77.3591Z" fill="#FFF5EC" stroke="#00402A" stroke-width="0.5" stroke-linecap="round" stroke-linejoin="round"/>
<path d="M51.0266 68.8989V71.2207L48.8739 69.9838V67.6422L51.0266 68.8989Z" fill="#007F33" stroke="#00402A" stroke-width="0.5" stroke-linecap="round" stroke-linejoin="round"/>
<path d="M51.0262 68.8989V71.2207L53.179 69.9838V67.6422L51.0262 68.8989Z" fill="#699282" stroke="#00402A" stroke-width="0.5" stroke-linecap="round" stroke-linejoin="round"/>
<path d="M53.179 67.6422L51.0262 66.3887L48.8735 67.6422L51.0262 68.8989L53.179 67.6422Z" fill="#FFF5EC" stroke="#00402A" stroke-width="0.5" stroke-linecap="round" stroke-linejoin="round"/>
<path d="M51.0261 62.7241V68.3731L49.9217 67.7447V62.0825L51.0261 62.7241Z" fill="#FFF5EC" stroke="#00402A" stroke-width="0.5" stroke-linecap="round" stroke-linejoin="round"/>
<path d="M51.0265 62.7241V68.3731L52.1111 67.7447V62.0825L51.0265 62.7241Z" fill="#FFF5EC" stroke="#00402A" stroke-width="0.5" stroke-linecap="round" stroke-linejoin="round"/>
<path d="M32.2902 43.5648L55.6526 65.337L25.627 82.6674L2.26463 60.9118L32.2902 43.5648Z" fill="#FFFEFF" stroke="#00402A" stroke-width="0.5" stroke-linecap="round" stroke-linejoin="round"/>
<path d="M25.627 82.6674V83.4645L55.6526 66.134V65.337L25.627 82.6674Z" fill="#699282" stroke="#00402A" stroke-width="0.5" stroke-linecap="round" stroke-linejoin="round"/>
<path d="M2.26455 60.9117L25.627 82.6674V83.4645L2.26455 61.8444V60.9117Z" fill="#007F33" stroke="#00402A" stroke-width="0.5" stroke-linecap="round" stroke-linejoin="round"/>
<path d="M32.5612 44.8513L37.0188 49.0053C36.9857 49.293 36.9692 49.4121 36.9328 49.6833L31.136 53.0402C30.8483 53.0072 30.6433 52.9906 30.3557 52.9543L25.9642 48.8664C25.9973 48.5257 26.0138 48.4099 26.0502 48.0693L31.7643 44.762C32.0685 44.7785 32.2736 44.8116 32.5612 44.848V44.8513Z" fill="#B4DEF7" stroke="#00402A" stroke-width="0.5" stroke-linecap="round" stroke-linejoin="round"/>
<path d="M25.3061 49.0417L29.7637 53.1957C29.7306 53.4834 29.714 53.6025 29.6777 53.8737L23.8809 57.2306C23.5932 57.1976 23.3882 57.181 23.1005 57.1446L18.7091 53.0568C18.7422 52.7161 18.7587 52.6004 18.7951 52.2597L24.5092 48.9524C24.8134 48.9855 25.0184 49.002 25.3061 49.0384V49.0417Z" fill="#3CC2FF" stroke="#00402A" stroke-width="0.5" stroke-linecap="round" stroke-linejoin="round"/>
<path d="M18.0312 53.2288L22.4888 57.3828C22.4557 57.6705 22.4391 57.7896 22.4028 58.0608L16.606 61.4178C16.3183 61.3847 16.1133 61.3682 15.8256 61.3318L11.4342 57.2439C11.4673 56.9033 11.4838 56.7875 11.5202 56.4469L17.2343 53.1395C17.5385 53.1726 17.7435 53.1891 18.0312 53.2255V53.2288Z" fill="#3CC2FF" stroke="#00402A" stroke-width="0.5" stroke-linecap="round" stroke-linejoin="round"/>
<path d="M10.7764 57.4192L15.2339 61.5733C15.2008 61.861 15.1843 61.9801 15.1479 62.2512L9.35117 65.6082C9.06344 65.5751 8.85842 65.5586 8.57075 65.5222L4.17936 61.4343C4.21238 61.0936 4.22892 60.9779 4.26529 60.6372L9.97942 57.3299C10.2836 57.363 10.4887 57.3994 10.7764 57.4159V57.4192Z" fill="#3CC2FF" stroke="#00402A" stroke-width="0.5" stroke-linecap="round" stroke-linejoin="round"/>
<path d="M38.2757 50.1595L42.7332 54.3135C42.7001 54.6013 42.6836 54.7204 42.6472 54.9916L36.8504 58.3485C36.5627 58.3155 36.3577 58.2989 36.07 58.2625L31.6786 54.1747C31.7116 53.834 31.7282 53.7182 31.7646 53.3776L37.4787 50.0703C37.7829 50.1033 37.9879 50.1199 38.2757 50.1563V50.1595Z" fill="#3CC2FF" stroke="#00402A" stroke-width="0.5" stroke-linecap="round" stroke-linejoin="round"/>
<path d="M31.0207 54.3665L35.4783 58.5205C35.4452 58.8082 35.4286 58.9273 35.3923 59.1985L29.5955 62.5555C29.3078 62.5224 29.1028 62.5059 28.8151 62.4695L24.4237 58.3816C24.4568 58.041 24.4733 57.9252 24.5097 57.5846L30.2238 54.2772C30.528 54.2937 30.733 54.3268 31.0207 54.3632V54.3665Z" fill="#3CC2FF" stroke="#00402A" stroke-width="0.5" stroke-linecap="round" stroke-linejoin="round"/>
<path d="M23.7619 58.5536L28.2195 62.7076C28.1864 62.9954 28.1699 63.1144 28.1335 63.3856L22.3367 66.7425C22.049 66.7095 21.844 66.6929 21.5563 66.6566L17.1649 62.5687C17.198 62.228 17.2145 62.1123 17.2509 61.7716L22.965 58.4643C23.2692 58.4974 23.4742 58.5139 23.7619 58.5503V58.5536Z" fill="#B4DEF7" stroke="#00402A" stroke-width="0.5" stroke-linecap="round" stroke-linejoin="round"/>
<path d="M16.4902 62.744L20.9478 66.898C20.9147 67.1858 20.8981 67.3048 20.8618 67.576L15.065 70.933C14.7772 70.8999 14.5722 70.8834 14.2845 70.847L9.89316 66.7591C9.92625 66.4185 9.94279 66.3027 9.97916 65.9621L15.6932 62.6547C15.9975 62.6878 16.2025 62.7043 16.4902 62.7407V62.744Z" fill="#3CC2FF" stroke="#00402A" stroke-width="0.5" stroke-linecap="round" stroke-linejoin="round"/>
<path d="M43.9897 55.4844L48.4473 59.6384C48.4142 59.9261 48.3976 60.0452 48.3613 60.3164L42.5645 63.6733C42.2768 63.6402 42.0718 63.6237 41.7841 63.5873L37.3927 59.4995C37.4258 59.1588 37.4423 59.0431 37.4787 58.7024L43.1928 55.3951C43.497 55.4281 43.702 55.4447 43.9897 55.481V55.4844Z" fill="#B4DEF7" stroke="#00402A" stroke-width="0.5" stroke-linecap="round" stroke-linejoin="round"/>
<path d="M36.7314 59.6913L41.189 63.8453C41.1559 64.133 41.1393 64.2521 41.103 64.5233L35.3062 67.8802C35.0185 67.8472 34.8135 67.8306 34.5258 67.7943L30.1344 63.7064C30.1675 63.3657 30.184 63.25 30.2204 62.9093L35.9345 59.602C36.2387 59.6185 36.4437 59.6516 36.7314 59.688V59.6913Z" fill="#3CC2FF" stroke="#00402A" stroke-width="0.5" stroke-linecap="round" stroke-linejoin="round"/>
<path d="M29.4766 63.8785L33.9341 68.0325C33.9011 68.3202 33.8845 68.4393 33.8481 68.7105L28.0513 72.0674C27.7636 72.0344 27.5586 72.0178 27.2709 71.9814L22.8796 67.8936C22.9126 67.5529 22.9291 67.4372 22.9655 67.0965L28.6796 63.7892C28.9838 63.8222 29.1888 63.8388 29.4766 63.8752V63.8785Z" fill="#3CC2FF" stroke="#00402A" stroke-width="0.5" stroke-linecap="round" stroke-linejoin="round"/>
<path d="M22.2016 68.0655L26.6592 72.2195C26.6261 72.5073 26.6096 72.6263 26.5732 72.8975L20.7764 76.2544C20.4887 76.2214 20.2837 76.2048 19.996 76.1685L15.6046 72.0806C15.6377 71.7399 15.6542 71.6242 15.6906 71.2835L21.4047 67.9762C21.7089 68.0093 21.9139 68.0258 22.2016 68.0622V68.0655Z" fill="#3CC2FF" stroke="#00402A" stroke-width="0.5" stroke-linecap="round" stroke-linejoin="round"/>
<path d="M49.7036 60.8092L54.1611 64.9632C54.1281 65.251 54.1115 65.37 54.0752 65.6412L48.2784 68.9982C47.9906 68.9651 47.7856 68.9486 47.498 68.9122L43.1066 64.8243C43.1397 64.4837 43.1562 64.3679 43.1926 64.0272L48.9066 60.7199C49.2108 60.753 49.4159 60.7695 49.7036 60.8059V60.8092Z" fill="#3CC2FF" stroke="#00402A" stroke-width="0.5" stroke-linecap="round" stroke-linejoin="round"/>
<path d="M42.4453 64.9963L46.9028 69.1503C46.8698 69.438 46.8533 69.5572 46.8169 69.8284L41.0201 73.1853C40.7324 73.1522 40.5274 73.1357 40.2397 73.0993L35.8483 69.0114C35.8813 68.6708 35.8979 68.555 35.9342 68.2144L41.6484 64.907C41.9526 64.9401 42.1576 64.9566 42.4453 64.993V64.9963Z" fill="#B4DEF7" stroke="#00402A" stroke-width="0.5" stroke-linecap="round" stroke-linejoin="round"/>
<path d="M35.1901 69.2032L39.6477 73.3572C39.6146 73.645 39.5981 73.7641 39.5617 74.0353L33.7649 77.3922C33.4773 77.3592 33.2722 77.3426 32.9846 77.3063L28.5931 73.2184C28.6262 72.8777 28.6427 72.7619 28.6791 72.4213L34.3932 69.114C34.6975 69.1305 34.9025 69.1636 35.1901 69.2V69.2032Z" fill="#3CC2FF" stroke="#00402A" stroke-width="0.5" stroke-linecap="round" stroke-linejoin="round"/>
<path d="M27.9316 73.3903L32.3892 77.5443C32.3561 77.8321 32.3395 77.9346 32.3032 78.2223L26.5064 81.5793C26.2187 81.5462 26.0137 81.5297 25.726 81.4933L21.3346 77.4054C21.3677 77.0648 21.3842 76.949 21.4206 76.6084L27.1347 73.301C27.4389 73.3341 27.6439 73.3506 27.9316 73.387V73.3903Z" fill="#B4DEF7" stroke="#00402A" stroke-width="0.5" stroke-linecap="round" stroke-linejoin="round"/>
<path d="M6.01392 30.112V32.4337L3.86118 31.1968V28.8552L6.01392 30.112Z" fill="#007F33" stroke="#00402A" stroke-width="0.5" stroke-linecap="round" stroke-linejoin="round"/>
<path d="M6.01378 30.112V32.4337L8.1665 31.1968V28.8552L6.01378 30.112Z" fill="#699282" stroke="#00402A" stroke-width="0.5" stroke-linecap="round" stroke-linejoin="round"/>
<path d="M8.1665 28.8551L6.01378 27.6016L3.86105 28.8551L6.01378 30.112L8.1665 28.8551Z" fill="#FFF5EC" stroke="#00402A" stroke-width="0.5" stroke-linecap="round" stroke-linejoin="round"/>
<path d="M6.01367 17.9873V29.5861L4.92904 28.9577V17.3423L6.01367 17.9873Z" fill="#007F33" stroke="#00402A" stroke-width="0.5" stroke-linecap="round" stroke-linejoin="round"/>
<path d="M6.01382 17.9873V29.5861L7.09839 28.9577V17.3423L6.01382 17.9873Z" fill="#699282" stroke="#00402A" stroke-width="0.5" stroke-linecap="round" stroke-linejoin="round"/>
<path d="M23.5962 40.2159V42.5574L21.4435 41.3039V38.9624L23.5962 40.2159Z" fill="#007F33" stroke="#00402A" stroke-width="0.5" stroke-linecap="round" stroke-linejoin="round"/>
<path d="M23.5961 40.2159V42.5574L25.7488 41.3039V38.9624L23.5961 40.2159Z" fill="#699282" stroke="#00402A" stroke-width="0.5" stroke-linecap="round" stroke-linejoin="round"/>
<path d="M25.7488 38.9624L23.5961 37.7089L21.4433 38.9624L23.5961 40.2159L25.7488 38.9624Z" fill="#FFF5EC" stroke="#00402A" stroke-width="0.5" stroke-linecap="round" stroke-linejoin="round"/>
<path d="M23.5955 34.0444V39.69L22.4943 39.0649V33.416L23.5955 34.0444Z" fill="#FFF5EC" stroke="#00402A" stroke-width="0.5" stroke-linecap="round" stroke-linejoin="round"/>
<path d="M23.5955 34.0444V39.69L24.6802 39.0649V33.416L23.5955 34.0444Z" fill="#FFF5EC" stroke="#00402A" stroke-width="0.5" stroke-linecap="round" stroke-linejoin="round"/>
<path d="M49.012 25.5842V27.906L46.8593 26.6691V24.3275L49.012 25.5842Z" fill="#007F33" stroke="#00402A" stroke-width="0.5" stroke-linecap="round" stroke-linejoin="round"/>
<path d="M49.0116 25.5842V27.906L51.1643 26.6691V24.3275L49.0116 25.5842Z" fill="#699282" stroke="#00402A" stroke-width="0.5" stroke-linecap="round" stroke-linejoin="round"/>
<path d="M51.1643 24.3274L49.0116 23.0739L46.8589 24.3274L49.0116 25.5842L51.1643 24.3274Z" fill="#FFF5EC" stroke="#00402A" stroke-width="0.5" stroke-linecap="round" stroke-linejoin="round"/>
<path d="M49.0115 19.4094V25.0583L47.907 24.4299V18.7678L49.0115 19.4094Z" fill="#FFF5EC" stroke="#00402A" stroke-width="0.5" stroke-linecap="round" stroke-linejoin="round"/>
<path d="M49.0118 19.4094V25.0583L50.0964 24.4299V18.7678L49.0118 19.4094Z" fill="#FFF5EC" stroke="#00402A" stroke-width="0.5" stroke-linecap="round" stroke-linejoin="round"/>
<path d="M30.2755 0.25L53.6379 22.0222L23.6123 39.3527L0.249985 17.597L30.2755 0.25Z" fill="#FFFEFF" stroke="#00402A" stroke-width="0.5" stroke-linecap="round" stroke-linejoin="round"/>
<path d="M23.6123 39.3527V40.1497L53.6379 22.8193V22.0222L23.6123 39.3527Z" fill="#699282" stroke="#00402A" stroke-width="0.5" stroke-linecap="round" stroke-linejoin="round"/>
<path d="M0.249899 17.597L23.6123 39.3527V40.1497L0.249899 18.5297V17.597Z" fill="#007F33" stroke="#00402A" stroke-width="0.5" stroke-linecap="round" stroke-linejoin="round"/>
<path d="M30.5466 1.5365L35.0042 5.69052C34.9711 5.97825 34.9545 6.09732 34.9182 6.36851L29.1214 9.72544C28.8337 9.6924 28.6287 9.67584 28.341 9.63951L23.9496 5.55161C23.9826 5.21095 23.9992 5.09519 24.0356 4.75454L29.7497 1.4472C30.0539 1.46374 30.2589 1.49681 30.5466 1.53319V1.5365Z" fill="#B4DEF7" stroke="#00402A" stroke-width="0.5" stroke-linecap="round" stroke-linejoin="round"/>
<path d="M23.2915 5.72693L27.749 9.88092C27.7159 10.1687 27.6994 10.2877 27.663 10.5589L21.8662 13.9159C21.5786 13.8828 21.3736 13.8663 21.0858 13.8299L16.6944 9.74203C16.7275 9.40138 16.7441 9.28561 16.7804 8.94496L22.4946 5.63763C22.7988 5.67071 23.0038 5.68724 23.2915 5.72362V5.72693Z" fill="#3CC2FF" stroke="#00402A" stroke-width="0.5" stroke-linecap="round" stroke-linejoin="round"/>
<path d="M16.0166 9.91405L20.4741 14.0681C20.441 14.3558 20.4245 14.4749 20.3881 14.7461L14.5913 18.103C14.3037 18.0699 14.0987 18.0534 13.8109 18.017L9.41953 13.9292C9.45261 13.5885 9.46916 13.4728 9.50553 13.1321L15.2197 9.82477C15.5239 9.85781 15.7289 9.87437 16.0166 9.9107V9.91405Z" fill="#3CC2FF" stroke="#00402A" stroke-width="0.5" stroke-linecap="round" stroke-linejoin="round"/>
<path d="M8.76174 14.1045L13.2192 18.2585C13.1862 18.5462 13.1697 18.6653 13.1332 18.9365L7.33652 22.2935C7.04879 22.2603 6.84377 22.2439 6.5561 22.2075L2.16471 18.1195C2.19773 17.7789 2.21427 17.6632 2.25064 17.3225L7.96477 14.0151C8.26898 14.0483 8.474 14.0846 8.76174 14.1011V14.1045Z" fill="#3CC2FF" stroke="#00402A" stroke-width="0.5" stroke-linecap="round" stroke-linejoin="round"/>
<path d="M36.261 6.84478L40.7185 10.9988C40.6855 11.2866 40.6689 11.4056 40.6326 11.6768L34.8357 15.0337C34.5481 15.0007 34.343 14.9841 34.0554 14.9477L29.664 10.8599C29.697 10.5192 29.7135 10.4035 29.7499 10.0628L35.464 6.75549C35.7683 6.78854 35.9733 6.8051 36.261 6.84149V6.84478Z" fill="#3CC2FF" stroke="#00402A" stroke-width="0.5" stroke-linecap="round" stroke-linejoin="round"/>
<path d="M29.0061 11.0517L33.4636 15.2058C33.4305 15.4935 33.414 15.6126 33.3776 15.8838L27.5808 19.2407C27.2932 19.2076 27.0882 19.1911 26.8005 19.1547L22.409 15.0669C22.4421 14.7262 22.4587 14.6105 22.495 14.2698L28.2092 10.9625C28.5134 10.979 28.7184 11.0121 29.0061 11.0484V11.0517Z" fill="#3CC2FF" stroke="#00402A" stroke-width="0.5" stroke-linecap="round" stroke-linejoin="round"/>
<path d="M21.7473 15.2388L26.2048 19.3928C26.1717 19.6806 26.1552 19.7996 26.1188 20.0709L20.3221 23.4278C20.0344 23.3947 19.8294 23.3782 19.5417 23.3419L15.1502 19.2539C15.1833 18.9133 15.1999 18.7975 15.2362 18.4569L20.9504 15.1495C21.2546 15.1826 21.4596 15.1991 21.7473 15.2355V15.2388Z" fill="#B4DEF7" stroke="#00402A" stroke-width="0.5" stroke-linecap="round" stroke-linejoin="round"/>
<path d="M14.4755 19.4293L18.9331 23.5833C18.9 23.871 18.8835 23.9901 18.8471 24.2613L13.0503 27.6182C12.7626 27.5852 12.5576 27.5686 12.2699 27.5322L7.87851 23.4444C7.9116 23.1037 7.92814 22.988 7.96451 22.6473L13.6786 19.34C13.9829 19.373 14.1879 19.3896 14.4755 19.426V19.4293Z" fill="#3CC2FF" stroke="#00402A" stroke-width="0.5" stroke-linecap="round" stroke-linejoin="round"/>
<path d="M41.9751 12.1696L46.4326 16.3236C46.3995 16.6113 46.383 16.7304 46.3466 17.0016L40.5498 20.3586C40.2622 20.3255 40.0571 20.309 39.7695 20.2726L35.378 16.1847C35.4111 15.8441 35.4277 15.7283 35.464 15.3877L41.1782 12.0803C41.4824 12.1134 41.6874 12.1299 41.9751 12.1663V12.1696Z" fill="#B4DEF7" stroke="#00402A" stroke-width="0.5" stroke-linecap="round" stroke-linejoin="round"/>
<path d="M34.717 16.3765L39.1746 20.5305C39.1415 20.8183 39.1249 20.9373 39.0886 21.2085L33.2918 24.5655C33.0041 24.5324 32.7991 24.5159 32.5114 24.4795L28.12 20.3916C28.1531 20.051 28.1696 19.9352 28.206 19.5946L33.9201 16.2872C34.2243 16.3038 34.4293 16.3368 34.717 16.3732V16.3765Z" fill="#3CC2FF" stroke="#00402A" stroke-width="0.5" stroke-linecap="round" stroke-linejoin="round"/>
<path d="M27.4619 20.5637L31.9194 24.7177C31.8864 25.0055 31.8699 25.1245 31.8335 25.3957L26.0367 28.7527C25.749 28.7196 25.544 28.7031 25.2563 28.6667L20.8649 24.5788C20.8979 24.2382 20.9145 24.1224 20.9508 23.7818L26.665 20.4744C26.9692 20.5075 27.1742 20.524 27.4619 20.5604V20.5637Z" fill="#3CC2FF" stroke="#00402A" stroke-width="0.5" stroke-linecap="round" stroke-linejoin="round"/>
<path d="M20.187 24.7507L24.6445 28.9047C24.6114 29.1925 24.595 29.3115 24.5585 29.5828L18.7618 32.9397C18.4741 32.9066 18.2691 32.8901 17.9814 32.8538L13.5899 28.7658C13.623 28.4252 13.6396 28.3094 13.6759 27.9688L19.3901 24.6614C19.6943 24.6946 19.8993 24.711 20.187 24.7474V24.7507Z" fill="#3CC2FF" stroke="#00402A" stroke-width="0.5" stroke-linecap="round" stroke-linejoin="round"/>
<path d="M47.6889 17.4944L52.1465 21.6484C52.1134 21.9362 52.0969 22.0553 52.0605 22.3265L46.2637 25.6834C45.976 25.6504 45.771 25.6338 45.4833 25.5974L41.0919 21.5096C41.125 21.1689 41.1416 21.0531 41.1779 20.7125L46.892 17.4052C47.1962 17.4382 47.4012 17.4548 47.6889 17.4912V17.4944Z" fill="#3CC2FF" stroke="#00402A" stroke-width="0.5" stroke-linecap="round" stroke-linejoin="round"/>
<path d="M40.4307 21.6816L44.8882 25.8356C44.8552 26.1233 44.8386 26.2424 44.8023 26.5136L39.0055 29.8705C38.7177 29.8374 38.5127 29.8209 38.225 29.7845L33.8337 25.6967C33.8667 25.356 33.8832 25.2403 33.9196 24.8996L39.6337 21.5923C39.9379 21.6253 40.143 21.6419 40.4307 21.6782V21.6816Z" fill="#B4DEF7" stroke="#00402A" stroke-width="0.5" stroke-linecap="round" stroke-linejoin="round"/>
<path d="M33.1755 25.8885L37.6331 30.0425C37.6 30.3303 37.5834 30.4493 37.5471 30.7205L31.7503 34.0774C31.4626 34.0444 31.2576 34.0278 30.9699 33.9915L26.5785 29.9036C26.6115 29.5629 26.6281 29.4472 26.6645 29.1065L32.3786 25.7992C32.6828 25.8158 32.8878 25.8488 33.1755 25.8852V25.8885Z" fill="#3CC2FF" stroke="#00402A" stroke-width="0.5" stroke-linecap="round" stroke-linejoin="round"/>
<path d="M25.9169 30.0756L30.3745 34.2296C30.3414 34.5173 30.3249 34.6198 30.2885 34.9076L24.4917 38.2645C24.2041 38.2315 23.999 38.2149 23.7114 38.1785L19.3199 34.0907C19.353 33.75 19.3695 33.6343 19.4059 33.2936L25.12 29.9863C25.4243 30.0193 25.6293 30.0359 25.9169 30.0723V30.0756Z" fill="#B4DEF7" stroke="#00402A" stroke-width="0.5" stroke-linecap="round" stroke-linejoin="round"/>
</svg>
