<svg width="77" height="76" viewBox="0 0 77 76" fill="none" xmlns="http://www.w3.org/2000/svg">
<path d="M75.7993 14.3837C75.7993 13.5614 75.5277 12.7755 75.0544 12.1273L57.7642 21.9509L58.896 23.9885L69.2718 42.6676L75.7993 38.965C75.7993 38.9366 75.7993 38.9083 75.7993 38.8799V14.3918C75.7993 14.3918 75.7993 14.3918 75.7993 14.3878V14.3837Z" fill="#E0D7D0" stroke="#11422B" stroke-width="0.5" stroke-linejoin="round"/>
<path d="M73.4904 42.3961L70.1031 44.1624L69.2759 42.6716L75.7993 38.965C75.7664 40.557 74.791 41.8209 73.4904 42.4002V42.3961Z" fill="#E0D7D0" stroke="#11422B" stroke-width="0.5" stroke-linejoin="round"/>
<path d="M75.0544 12.1314C74.7375 11.6979 74.326 11.3252 73.8403 11.0498L73.4246 10.8108L55.7558 0.772462C55.6158 0.691443 55.4718 0.622576 55.3277 0.561812C54.0477 0.0189822 52.669 0.21748 51.6153 0.906144L47.3514 3.20304L48.1499 4.64114L56.8176 20.2455L57.7683 21.955L75.0544 12.1314Z" fill="#E0D7D0" stroke="#11422B" stroke-width="0.5" stroke-linejoin="round"/>
<path d="M47.5858 34.2334L65.6704 44.5107C68.2839 45.9974 71.5518 44.138 71.5518 41.1686V16.6806C71.5518 15.3032 70.8027 14.0272 69.5927 13.3385L51.5081 3.05715C48.8946 1.57045 45.6267 3.42984 45.6267 6.3992V30.8873C45.6267 32.2646 46.3717 33.5407 47.5858 34.2293V34.2334Z" fill="white" stroke="#11422B" stroke-width="0.5" stroke-linejoin="round"/>
<path d="M50.5038 19.9659C50.5038 24.5759 53.7923 30.1825 57.8504 32.4875C61.9085 34.7925 65.197 32.925 65.197 28.315C65.197 23.705 61.9085 18.0984 57.8504 15.7934C53.7923 13.4884 50.5038 15.3559 50.5038 19.97V19.9659Z" fill="white" stroke="#11422B" stroke-width="0.5" stroke-linejoin="round"/>
<path d="M54.2616 14.8212C53.3396 15.6921 52.7881 17.1059 52.7881 18.9856C52.7881 19.9213 52.9239 20.8976 53.175 21.878C53.4096 22.8056 53.7471 23.7333 54.1669 24.6407C54.5373 25.4347 54.9695 26.2125 55.4592 26.9457C56.0149 27.7802 56.6363 28.562 57.3113 29.2629C58.1797 30.1662 59.1305 30.9359 60.1306 31.503C61.4353 32.2444 62.6618 32.5522 63.7236 32.4753C62.3819 33.7432 60.2582 33.8526 57.8505 32.4834C56.9244 31.9568 56.0437 31.26 55.2288 30.4457C54.5414 29.7571 53.9035 28.9833 53.3355 28.1529C52.8375 27.4278 52.3889 26.6581 52.0061 25.8682C51.574 24.9729 51.22 24.0533 50.9648 23.1338C50.6685 22.0602 50.508 20.9908 50.508 19.9699C50.508 16.8426 52.0226 14.9792 54.2616 14.8212Z" fill="#E0D7D0" stroke="#11422B" stroke-width="0.5" stroke-linejoin="round"/>
<path d="M63.02 28.8659L61.8882 28.2218V25.2767L63.02 25.9168V28.8659Z" fill="#E0D7D0" stroke="#11422B" stroke-width="0.5" stroke-linejoin="round"/>
<path d="M63.02 28.8659L61.8882 28.2218L63.02 27.8694V28.8659Z" fill="#5BD38C" stroke="#11422B" stroke-width="0.5" stroke-linejoin="round"/>
<path d="M56.5911 25.933L55.4592 25.2929V22.3438L56.5911 22.9839V25.933Z" fill="#E0D7D0" stroke="#11422B" stroke-width="0.5" stroke-linejoin="round"/>
<path d="M56.5911 25.933L55.4592 25.2929L56.5911 24.9365V25.933Z" fill="#5BD38C" stroke="#11422B" stroke-width="0.5" stroke-linejoin="round"/>
<path d="M59.46 21.1366L58.3281 20.4925V17.5434L59.46 18.1875V21.1366Z" fill="#E0D7D0" stroke="#11422B" stroke-width="0.5" stroke-linejoin="round"/>
<path d="M59.46 21.1367L58.3281 20.4926L59.46 20.1401V21.1367Z" fill="#5BD38C" stroke="#11422B" stroke-width="0.5" stroke-linejoin="round"/>
<path d="M50.648 28.3028C50.6315 28.3596 49.8866 28.716 49.4997 28.9186L43.3467 32.05L42.2642 30.1865C42.2642 30.1865 49.224 26.4799 49.7672 26.4232C49.8125 26.4191 50.1829 26.7432 50.2858 27.0227C50.471 27.521 50.6727 28.2299 50.6521 28.3028H50.648Z" fill="#171C17" stroke="#11422B" stroke-width="0.5" stroke-linejoin="round"/>
<path d="M49.051 28.2217C49.3844 28.0475 49.6684 27.8977 49.763 27.6505C49.833 27.4602 49.8206 27.2657 49.726 27.1118C49.6519 26.9943 49.5449 26.9173 49.4296 26.9052C49.4091 26.9052 49.3885 26.9011 49.3679 26.9011C49.1045 26.889 48.804 26.9862 48.6353 27.0794C48.6147 27.0915 42.6592 30.0973 42.6592 30.0973L43.2807 31.1627L49.0551 28.2217H49.051Z" fill="#423C37" stroke="#11422B" stroke-width="0.5" stroke-linejoin="round"/>
<path d="M48.199 22.198C48.1826 22.2548 47.4376 22.6112 47.0507 22.8138L40.8977 25.9452L39.8153 24.0817C39.8153 24.0817 46.775 20.3751 47.3183 20.3184C47.3635 20.3143 47.7339 20.6384 47.8368 20.9179C48.022 21.4162 48.2237 22.1251 48.2031 22.198H48.199Z" fill="#171C17" stroke="#11422B" stroke-width="0.5" stroke-linejoin="round"/>
<path d="M46.5981 22.121C46.9315 21.9468 47.2155 21.7969 47.3101 21.5498C47.3801 21.3594 47.3678 21.165 47.2731 21.0111C47.199 20.8936 47.092 20.8166 46.9768 20.8045C46.9562 20.8045 46.9356 20.8004 46.915 20.8004C46.6516 20.7883 46.3512 20.8855 46.1824 20.9787C46.1618 20.9908 40.2064 23.9966 40.2064 23.9966L40.8278 25.062L46.6022 22.121H46.5981Z" fill="#423C37" stroke="#11422B" stroke-width="0.5" stroke-linejoin="round"/>
<path d="M44.3221 21.323C44.3056 21.3798 43.5607 21.7362 43.1738 21.9388L37.0208 25.0702L35.9383 23.2067C35.9383 23.2067 42.898 19.5001 43.4413 19.4434C43.4866 19.4393 43.857 19.7634 43.9599 20.0429C44.1451 20.5412 44.3468 21.2501 44.3262 21.323H44.3221Z" fill="#171C17" stroke="#11422B" stroke-width="0.5" stroke-linejoin="round"/>
<path d="M42.7253 21.2419C43.0587 21.0677 43.3427 20.9179 43.4373 20.6707C43.5073 20.4804 43.495 20.2859 43.4003 20.132C43.3262 20.0145 43.2192 19.9375 43.104 19.9254C43.0834 19.9254 43.0628 19.9213 43.0422 19.9213C42.7788 19.9092 42.4784 20.0064 42.3096 20.0996C42.289 20.1117 36.3336 23.1175 36.3336 23.1175L36.955 24.1829L42.7294 21.2419H42.7253Z" fill="#423C37" stroke="#11422B" stroke-width="0.5" stroke-linejoin="round"/>
<path d="M34.436 19.6094L36.6297 18.6939C37.8603 17.9242 39.5848 18.0377 41.4492 19.2165C44.9476 21.4243 47.627 26.5244 47.4335 30.6078C47.343 32.5239 46.6392 33.8729 45.5526 34.5454L43.1326 36.0564L42.474 34.8127C41.9225 34.6466 41.3422 34.3833 40.7496 34.0066C37.2512 31.7988 34.5718 26.6986 34.7653 22.6153C34.7982 21.9469 34.9052 21.3473 35.0781 20.8207L34.436 19.6054V19.6094Z" fill="#00A443" stroke="#11422B" stroke-width="0.5" stroke-linejoin="round"/>
<path d="M22.8667 32.0378L28.4806 27.1199L33.012 20.6222C34.2509 19.1233 36.3951 18.9491 38.7658 20.4439C42.3547 22.7084 45.104 27.9382 44.9065 32.1269C44.8036 34.2861 43.9393 35.7444 42.6387 36.344C42.2148 36.5384 41.7456 36.6438 41.2394 36.6519H32.5346L25.9453 37.9765L22.8708 32.0378H22.8667Z" fill="#5BD38C" stroke="#11422B" stroke-width="0.5" stroke-linejoin="round"/>
<path d="M33.0121 20.6181C33.3373 20.209 33.7612 19.8728 34.2468 19.6581C34.7325 19.4433 35.2717 19.3461 35.8026 19.3623C36.3376 19.3785 36.8644 19.496 37.3624 19.6783C37.8605 19.8606 38.3379 20.0996 38.7906 20.3751C39.692 20.9301 40.4863 21.6471 41.1901 22.4289C41.8939 23.2148 42.503 24.0736 43.0339 24.977C43.5566 25.8844 43.9929 26.8445 44.318 27.837C44.6432 28.8294 44.8737 29.8584 44.9478 30.9035L44.9766 31.2965C44.9766 31.4261 44.9766 31.5598 44.9766 31.6894V32.0824C44.9683 32.212 44.9519 32.3416 44.9436 32.4753C44.8942 32.9938 44.7955 33.5124 44.6267 34.0106C44.4539 34.5048 44.2151 34.9829 43.8818 35.388C43.7171 35.5946 43.5237 35.7769 43.322 35.9429C43.1121 36.105 42.8858 36.2387 42.6471 36.348C42.8817 36.2306 43.1039 36.0888 43.3056 35.9227C43.5031 35.7525 43.6883 35.5703 43.8447 35.3596C44.1658 34.9505 44.3839 34.4724 44.5444 33.9823C44.7049 33.4921 44.7914 32.9776 44.8325 32.4632C44.8407 32.3335 44.8531 32.2039 44.8531 32.0783V31.6894C44.8531 31.5598 44.8531 31.4302 44.849 31.3005L44.816 30.9157C44.7255 29.8867 44.4991 28.874 44.1699 27.8896C43.8447 26.9052 43.4044 25.9614 42.8858 25.0661C42.3713 24.1668 41.7663 23.3161 41.079 22.5342C40.3875 21.7565 39.6055 21.0556 38.7289 20.4885C38.2885 20.209 37.8234 19.9659 37.3378 19.7836C36.8521 19.5973 36.3376 19.4758 35.8149 19.4515C35.2922 19.4231 34.7654 19.5001 34.2839 19.7026C33.8023 19.9011 33.3702 20.2211 33.0286 20.6181H33.0121Z" fill="white" stroke="#11422B" stroke-width="0.5" stroke-linejoin="round"/>
<path d="M24.1673 37.1987L25.0728 37.7699C25.8589 38.2642 26.4186 37.9239 26.575 37.0043C26.575 37.0043 26.7067 36.3116 26.6532 35.3029C26.608 34.3833 25.7437 33.1437 24.9575 32.6495L24.0521 32.0783C23.266 31.5841 22.5951 31.9244 22.5498 32.844L22.4593 34.7925C22.414 35.712 23.3812 36.7045 24.1673 37.2028V37.1987Z" fill="#00A443" stroke="#11422B" stroke-width="0.5" stroke-linejoin="round"/>
<path d="M32.4359 36.6722C32.9092 36.2509 33.0327 35.7121 33.078 34.7804C33.1891 32.4551 31.6621 29.5465 29.6701 28.2907C28.9787 27.8573 28.3243 27.679 27.7604 27.7236L27.8469 27.6871C28.5301 27.2577 29.4849 27.3225 30.5221 27.9788C32.4647 29.2022 33.9546 32.0378 33.8476 34.3064C33.7982 35.3677 33.4072 36.1212 32.8022 36.4899L32.4359 36.6722Z" fill="#00A443" stroke="#11422B" stroke-width="0.5" stroke-linejoin="round"/>
<path d="M30.876 36.9111C31.3082 36.5263 31.584 35.8903 31.6251 35.0355C31.7239 32.9088 30.3287 30.2554 28.5095 29.1049C27.8798 28.7079 27.3242 28.5418 26.8056 28.5823L26.8426 28.5499C27.4682 28.161 28.3408 28.2177 29.2874 28.8173C31.0613 29.9353 32.4236 32.5239 32.3248 34.598C32.2795 35.5702 31.9214 36.2549 31.3699 36.5951L30.8719 36.9071L30.876 36.9111Z" fill="#00A443" stroke="#11422B" stroke-width="0.5" stroke-linejoin="round"/>
<path d="M29.6248 37.2352C30.0282 36.8747 30.201 36.3642 30.2381 35.5662C30.3327 33.5772 29.028 31.0939 27.3241 30.0204C26.7356 29.6477 26.2087 29.4938 25.7272 29.5343L25.7684 29.506C26.3528 29.1414 27.1718 29.194 28.0567 29.7531C29.7154 30.8023 30.9871 33.2207 30.8966 35.1611C30.8554 36.0685 30.5179 36.7126 30.0035 37.0286L29.6248 37.2352Z" fill="#00A443" stroke="#11422B" stroke-width="0.5" stroke-linejoin="round"/>
<path d="M28.2214 37.5147C28.5877 37.1866 28.7729 36.7248 28.8059 35.9956C28.8923 34.1848 27.7028 31.9244 26.1553 30.9481C25.6203 30.6078 25.1099 30.4701 24.6695 30.5065L24.7395 30.4782C25.2704 30.146 26.0154 30.1946 26.8221 30.705C28.3325 31.657 29.4891 33.8607 29.4068 35.627C29.3697 36.4534 29.0651 37.0367 28.596 37.3284L28.2255 37.5147H28.2214Z" fill="#00A443" stroke="#11422B" stroke-width="0.5" stroke-linejoin="round"/>
<path d="M26.9456 37.774C27.2872 37.4701 27.4518 37.0205 27.4806 36.348C27.5588 34.679 26.464 32.5928 25.0317 31.6894C24.5378 31.3775 24.1386 31.2438 23.7312 31.2803L23.8176 31.2033C24.225 31.017 24.9 30.9967 25.645 31.4666C27.0402 32.3457 28.1103 34.3793 28.0321 36.0077C27.9951 36.7734 27.7152 37.3122 27.283 37.5755L26.9414 37.7699L26.9456 37.774Z" fill="#00A443" stroke="#11422B" stroke-width="0.5" stroke-linejoin="round"/>
<path d="M33.3864 52.4182C32.9625 56.1573 30.3737 59.7262 26.6366 61.7355C24.6117 62.8211 19.397 65.6527 14.3511 68.3871C9.39991 71.0729 4.72032 73.6088 2.92997 74.573C2.65422 74.7188 2.35788 74.7917 2.06567 74.7917C1.42361 74.7917 0.802135 74.4555 0.472878 73.8641C-0.00866318 73.0012 0.316479 71.9155 1.19725 71.4416C2.98347 70.4815 7.65895 67.9456 12.6102 65.2639C17.6561 62.5254 22.8748 59.6978 24.9039 58.6041C27.5791 57.166 29.497 54.5855 29.7893 52.0212C29.8592 51.3852 29.9251 50.0241 29.8963 49.4043C29.8675 48.8169 29.6987 48.3794 29.423 48.189C29.4065 48.1769 29.39 48.1688 29.3695 48.1566C29.0114 47.9581 28.1924 47.9824 26.9576 48.6468C25.7106 49.3152 23.9737 50.2348 22.1299 51.207C20.0926 52.2846 17.9853 53.3986 16.3308 54.2857L13.5856 55.8332C11.6553 56.8702 9.86087 57.1619 8.39978 56.6839C8.20223 56.6191 8.0129 56.5381 7.83181 56.4449C7.77419 56.4165 7.71657 56.3841 7.65895 56.3517C6.9922 55.9669 6.46539 55.3916 6.13613 54.6787C5.76983 53.8887 5.47761 52.4952 5.33768 51.7377C4.95491 49.6757 5.41587 47.314 6.63825 45.0819C7.88943 42.7972 9.85263 40.8568 12.1657 39.6131L22.8419 33.8486C23.7186 33.3746 24.8216 33.6947 25.3031 34.5616C25.7847 35.4244 25.4595 36.5101 24.5829 36.9841L13.9066 42.7486C10.2272 44.7255 8.44505 48.6225 8.90602 51.0976C9.09945 52.1347 9.12416 52.9611 9.6057 53.2851C9.90203 53.4836 10.6881 53.3216 11.8323 52.7099L14.5775 51.1624C16.2444 50.2672 18.364 49.1451 20.4177 48.0634C22.2534 47.0912 23.9861 46.1797 25.2208 45.5154C28.2088 43.9112 30.2132 44.531 31.1433 45.0455C32.5592 45.8273 33.4276 47.3545 33.5181 49.2301C33.5593 50.0687 33.4852 51.604 33.3947 52.4142L33.3864 52.4182Z" fill="#00A443" stroke="#11422B" stroke-width="0.5" stroke-linejoin="round"/>
</svg>
