<svg width="90" height="69" viewBox="0 0 90 69" fill="none" xmlns="http://www.w3.org/2000/svg">
<path d="M5.70571 0.890381H84.1171C87.1277 0.890381 89.5728 3.44864 89.5728 6.59847V62.6341C89.5728 65.7839 87.1277 68.3422 84.1171 68.3422H5.70571C2.69514 68.3422 0.25 65.7839 0.25 62.6341V6.59847C0.25 3.44864 2.69514 0.890381 5.70571 0.890381Z" fill="#00402A" stroke="white" stroke-width="0.5"/>
<path d="M5.70556 2.79443H84.1186C86.1251 2.79443 87.7547 4.49936 87.7547 6.59866V62.6343C87.7547 64.7336 86.1251 66.4402 84.117 66.4402H5.70556C3.69908 66.4402 2.06787 64.7353 2.06787 62.6343V6.59866C2.06787 4.49936 3.69741 2.79443 5.7039 2.79443H5.70556Z" fill="#00402A" stroke="white" stroke-width="0.5"/>
<path d="M14.751 0.890437H18.9758C18.9758 0.537935 18.7022 0.25 18.3637 0.25H15.3614C15.0245 0.25 14.751 0.53619 14.751 0.890437Z" fill="#00402A" stroke="white" stroke-width="0.5"/>
<path d="M9.16504 0.890437H13.3898C13.3898 0.537935 13.1163 0.25 12.7777 0.25H9.77549C9.43857 0.25 9.16504 0.53619 9.16504 0.890437Z" fill="#00402A" stroke="white" stroke-width="0.5"/>
<path d="M57.4371 65.5991H31.1826C30.9258 65.5991 30.7173 65.381 30.7173 65.1105C30.7173 64.84 30.9258 64.6237 31.1826 64.6237H57.4371C57.6939 64.6237 57.9041 64.8418 57.9041 65.1105C57.9041 65.3793 57.6956 65.5991 57.4371 65.5991Z" fill="#00402A" stroke="white" stroke-width="0.5"/>
<mask id="path-6-inside-1_99_17036" fill="white">
<path d="M82.4543 10.8735H44.6113C44.5446 10.8735 44.4912 10.8178 44.4912 10.7481C44.4912 10.6785 44.5446 10.6228 44.6113 10.6228H82.4543C82.521 10.6228 82.5744 10.6785 82.5744 10.7481C82.5744 10.8178 82.521 10.8735 82.4543 10.8735Z"/>
</mask>
<path d="M82.4543 10.8735H44.6113C44.5446 10.8735 44.4912 10.8178 44.4912 10.7481C44.4912 10.6785 44.5446 10.6228 44.6113 10.6228H82.4543C82.521 10.6228 82.5744 10.6785 82.5744 10.7481C82.5744 10.8178 82.521 10.8735 82.4543 10.8735Z" fill="#00402A"/>
<path d="M82.4543 10.8735V10.3735H44.6113V10.8735V11.3735H82.4543V10.8735ZM44.6113 10.8735V10.3735C44.8406 10.3735 44.9912 10.5619 44.9912 10.7481H44.4912H43.9912C43.9912 11.0736 44.2485 11.3735 44.6113 11.3735V10.8735ZM44.4912 10.7481H44.9912C44.9912 10.9343 44.8406 11.1228 44.6113 11.1228V10.6228V10.1228C44.2485 10.1228 43.9912 10.4227 43.9912 10.7481H44.4912ZM44.6113 10.6228V11.1228H82.4543V10.6228V10.1228H44.6113V10.6228ZM82.4543 10.6228V11.1228C82.225 11.1228 82.0744 10.9343 82.0744 10.7481H82.5744H83.0744C83.0744 10.4227 82.8171 10.1228 82.4543 10.1228V10.6228ZM82.5744 10.7481H82.0744C82.0744 10.5619 82.225 10.3735 82.4543 10.3735V10.8735V11.3735C82.8171 11.3735 83.0744 11.0736 83.0744 10.7481H82.5744Z" fill="white" mask="url(#path-6-inside-1_99_17036)"/>
<mask id="path-8-inside-2_99_17036" fill="white">
<path d="M82.4543 15.4035H44.6113C44.5446 15.4035 44.4912 15.3478 44.4912 15.2782C44.4912 15.2085 44.5446 15.1528 44.6113 15.1528H82.4543C82.521 15.1528 82.5744 15.2085 82.5744 15.2782C82.5744 15.3478 82.521 15.4035 82.4543 15.4035Z"/>
</mask>
<path d="M82.4543 15.4035H44.6113C44.5446 15.4035 44.4912 15.3478 44.4912 15.2782C44.4912 15.2085 44.5446 15.1528 44.6113 15.1528H82.4543C82.521 15.1528 82.5744 15.2085 82.5744 15.2782C82.5744 15.3478 82.521 15.4035 82.4543 15.4035Z" fill="#00402A"/>
<path d="M82.4543 15.4035V14.9035H44.6113V15.4035V15.9035H82.4543V15.4035ZM44.6113 15.4035V14.9035C44.8406 14.9035 44.9912 15.092 44.9912 15.2782H44.4912H43.9912C43.9912 15.6036 44.2485 15.9035 44.6113 15.9035V15.4035ZM44.4912 15.2782H44.9912C44.9912 15.4643 44.8406 15.6528 44.6113 15.6528V15.1528V14.6528C44.2485 14.6528 43.9912 14.9527 43.9912 15.2782H44.4912ZM44.6113 15.1528V15.6528H82.4543V15.1528V14.6528H44.6113V15.1528ZM82.4543 15.1528V15.6528C82.225 15.6528 82.0744 15.4643 82.0744 15.2782H82.5744H83.0744C83.0744 14.9527 82.8171 14.6528 82.4543 14.6528V15.1528ZM82.5744 15.2782H82.0744C82.0744 15.092 82.225 14.9035 82.4543 14.9035V15.4035V15.9035C82.8171 15.9035 83.0744 15.6036 83.0744 15.2782H82.5744Z" fill="white" mask="url(#path-8-inside-2_99_17036)"/>
<mask id="path-10-inside-3_99_17036" fill="white">
<path d="M82.4543 19.9336H44.6113C44.5446 19.9336 44.4912 19.8762 44.4912 19.8083C44.4912 19.7404 44.5446 19.683 44.6113 19.683H82.4543C82.521 19.683 82.5744 19.7387 82.5744 19.8083C82.5744 19.8779 82.521 19.9336 82.4543 19.9336Z"/>
</mask>
<path d="M82.4543 19.9336H44.6113C44.5446 19.9336 44.4912 19.8762 44.4912 19.8083C44.4912 19.7404 44.5446 19.683 44.6113 19.683H82.4543C82.521 19.683 82.5744 19.7387 82.5744 19.8083C82.5744 19.8779 82.521 19.9336 82.4543 19.9336Z" fill="#00402A"/>
<path d="M82.4543 19.9336V19.4336H44.6113V19.9336V20.4336H82.4543V19.9336ZM44.6113 19.9336V19.4336C44.845 19.4336 44.9912 19.625 44.9912 19.8083H44.4912H43.9912C43.9912 20.1274 44.2441 20.4336 44.6113 20.4336V19.9336ZM44.4912 19.8083H44.9912C44.9912 19.9916 44.845 20.183 44.6113 20.183V19.683V19.183C44.2441 19.183 43.9912 19.4892 43.9912 19.8083H44.4912ZM44.6113 19.683V20.183H82.4543V19.683V19.183H44.6113V19.683ZM82.4543 19.683V20.183C82.225 20.183 82.0744 19.9945 82.0744 19.8083H82.5744H83.0744C83.0744 19.4829 82.8171 19.183 82.4543 19.183V19.683ZM82.5744 19.8083H82.0744C82.0744 19.6221 82.225 19.4336 82.4543 19.4336V19.9336V20.4336C82.8171 20.4336 83.0744 20.1338 83.0744 19.8083H82.5744Z" fill="white" mask="url(#path-10-inside-3_99_17036)"/>
<mask id="path-12-inside-4_99_17036" fill="white">
<path d="M82.4543 24.4637H44.6113C44.5446 24.4637 44.4912 24.4062 44.4912 24.3383C44.4912 24.2705 44.5446 24.213 44.6113 24.213H82.4543C82.521 24.213 82.5744 24.2687 82.5744 24.3383C82.5744 24.408 82.521 24.4637 82.4543 24.4637Z"/>
</mask>
<path d="M82.4543 24.4637H44.6113C44.5446 24.4637 44.4912 24.4062 44.4912 24.3383C44.4912 24.2705 44.5446 24.213 44.6113 24.213H82.4543C82.521 24.213 82.5744 24.2687 82.5744 24.3383C82.5744 24.408 82.521 24.4637 82.4543 24.4637Z" fill="#00402A"/>
<path d="M82.4543 24.4637V23.9637H44.6113V24.4637V24.9637H82.4543V24.4637ZM44.6113 24.4637V23.9637C44.845 23.9637 44.9912 24.155 44.9912 24.3383H44.4912H43.9912C43.9912 24.6574 44.2441 24.9637 44.6113 24.9637V24.4637ZM44.4912 24.3383H44.9912C44.9912 24.5217 44.845 24.713 44.6113 24.713V24.213V23.713C44.2442 23.713 43.9912 24.0192 43.9912 24.3383H44.4912ZM44.6113 24.213V24.713H82.4543V24.213V23.713H44.6113V24.213ZM82.4543 24.213V24.713C82.225 24.713 82.0744 24.5245 82.0744 24.3383H82.5744H83.0744C83.0744 24.0129 82.8171 23.713 82.4543 23.713V24.213ZM82.5744 24.3383H82.0744C82.0744 24.1521 82.225 23.9637 82.4543 23.9637V24.4637V24.9637C82.8171 24.9637 83.0744 24.6638 83.0744 24.3383H82.5744Z" fill="white" mask="url(#path-12-inside-4_99_17036)"/>
<mask id="path-14-inside-5_99_17036" fill="white">
<path d="M82.4543 28.9921H44.6113C44.5446 28.9921 44.4912 28.9364 44.4912 28.8668C44.4912 28.7972 44.5446 28.7415 44.6113 28.7415H82.4543C82.521 28.7415 82.5744 28.7972 82.5744 28.8668C82.5744 28.9364 82.521 28.9921 82.4543 28.9921Z"/>
</mask>
<path d="M82.4543 28.9921H44.6113C44.5446 28.9921 44.4912 28.9364 44.4912 28.8668C44.4912 28.7972 44.5446 28.7415 44.6113 28.7415H82.4543C82.521 28.7415 82.5744 28.7972 82.5744 28.8668C82.5744 28.9364 82.521 28.9921 82.4543 28.9921Z" fill="#00402A"/>
<path d="M82.4543 28.9921V28.4921H44.6113V28.9921V29.4921H82.4543V28.9921ZM44.6113 28.9921V28.4921C44.8406 28.4921 44.9912 28.6806 44.9912 28.8668H44.4912H43.9912C43.9912 29.1922 44.2485 29.4921 44.6113 29.4921V28.9921ZM44.4912 28.8668H44.9912C44.9912 29.053 44.8406 29.2415 44.6113 29.2415V28.7415V28.2415C44.2485 28.2415 43.9912 28.5413 43.9912 28.8668H44.4912ZM44.6113 28.7415V29.2415H82.4543V28.7415V28.2415H44.6113V28.7415ZM82.4543 28.7415V29.2415C82.225 29.2415 82.0744 29.053 82.0744 28.8668H82.5744H83.0744C83.0744 28.5413 82.8171 28.2415 82.4543 28.2415V28.7415ZM82.5744 28.8668H82.0744C82.0744 28.6806 82.225 28.4921 82.4543 28.4921V28.9921V29.4921C82.8171 29.4921 83.0744 29.1922 83.0744 28.8668H82.5744Z" fill="white" mask="url(#path-14-inside-5_99_17036)"/>
<path d="M47.1245 25.4154H49.4512C49.5396 25.4154 49.6113 25.4904 49.6113 25.5829V28.5757C49.6113 28.6682 49.5396 28.7432 49.4512 28.7432H47.1245C47.0361 28.7432 46.9644 28.6682 46.9644 28.5757V25.5829C46.9644 25.4904 47.0361 25.4154 47.1245 25.4154Z" fill="#FF9C1A" stroke="white" stroke-width="0.5"/>
<path d="M52.207 20.5869H54.5337C54.6221 20.5869 54.6938 20.662 54.6938 20.7544V28.5758C54.6938 28.6683 54.6221 28.7433 54.5337 28.7433H52.207C52.1186 28.7433 52.0469 28.6683 52.0469 28.5758V20.7544C52.0469 20.662 52.1186 20.5869 52.207 20.5869Z" fill="#E3850D" stroke="white" stroke-width="0.5"/>
<path d="M57.2871 16.7671H59.6138C59.7022 16.7671 59.7739 16.8421 59.7739 16.9346V28.5759C59.7739 28.6684 59.7022 28.7434 59.6138 28.7434H57.2871C57.1987 28.7434 57.127 28.6684 57.127 28.5759V16.9346C57.127 16.8421 57.1987 16.7671 57.2871 16.7671Z" fill="#FF9C1A" stroke="white" stroke-width="0.5"/>
<path d="M62.3691 22.3914H64.6958C64.7842 22.3914 64.8559 22.4664 64.8559 22.5589V28.5741C64.8559 28.6666 64.7842 28.7416 64.6958 28.7416H62.3691C62.2807 28.7416 62.209 28.6666 62.209 28.5741V22.5589C62.209 22.4664 62.2807 22.3914 62.3691 22.3914Z" fill="#E3850D" stroke="white" stroke-width="0.5"/>
<path d="M67.4497 13.7848H69.7764C69.8648 13.7848 69.9365 13.8598 69.9365 13.9523V28.5759C69.9365 28.6684 69.8648 28.7434 69.7764 28.7434H67.4497C67.3613 28.7434 67.2896 28.6684 67.2896 28.5759V13.9523C67.2896 13.8598 67.3613 13.7848 67.4497 13.7848Z" fill="#FF9C1A" stroke="white" stroke-width="0.5"/>
<path d="M72.5317 17.8997H74.8584C74.9468 17.8997 75.0185 17.9747 75.0185 18.0672V28.5759C75.0185 28.6684 74.9468 28.7435 74.8584 28.7435H72.5317C72.4433 28.7435 72.3716 28.6684 72.3716 28.5759V18.0672C72.3716 17.9747 72.4433 17.8997 72.5317 17.8997Z" fill="#E3850D" stroke="white" stroke-width="0.5"/>
<path d="M79.9388 11.9386H77.6137C77.5253 11.9386 77.4536 12.0136 77.4536 12.1061V28.5743C77.4536 28.6668 77.5253 28.7418 77.6137 28.7418H79.9388C80.0272 28.7418 80.0989 28.6668 80.0989 28.5743V12.1061C80.0989 12.0136 80.0272 11.9386 79.9388 11.9386Z" fill="#FF9C1A" stroke="white" stroke-width="0.5"/>
<path d="M79.1152 56.3899C79.427 56.3901 79.66 56.6504 79.6602 56.9485C79.6602 57.2467 79.4271 57.5079 79.1152 57.5081H47.5879C47.276 57.5079 47.043 57.2467 47.043 56.9485C47.0431 56.6504 47.2761 56.3901 47.5879 56.3899H79.1152Z" fill="#00402A" stroke="white" stroke-width="0.5"/>
<path d="M79.1152 51.9192C79.427 51.9194 79.66 52.1797 79.6602 52.4778C79.6602 52.776 79.4271 53.0371 79.1152 53.0374H47.5879C47.276 53.0372 47.043 52.776 47.043 52.4778C47.0431 52.1797 47.2761 51.9194 47.5879 51.9192H79.1152Z" fill="#00402A" stroke="white" stroke-width="0.5"/>
<path d="M79.1152 47.4465C79.427 47.4467 79.66 47.707 79.6602 48.0051C79.6602 48.3014 79.4289 48.5655 79.1152 48.5657H47.5879C47.2742 48.5655 47.043 48.3015 47.043 48.0051C47.0431 47.707 47.2761 47.4467 47.5879 47.4465H79.1152Z" fill="#00402A" stroke="white" stroke-width="0.5"/>
<path d="M79.1152 42.9757C79.427 42.9759 79.66 43.2362 79.6602 43.5343C79.6602 43.8306 79.4289 44.0946 79.1152 44.0948H47.5879C47.2742 44.0947 47.043 43.8306 47.043 43.5343C47.0431 43.2362 47.2761 42.9759 47.5879 42.9757H79.1152Z" fill="#00402A" stroke="white" stroke-width="0.5"/>
<path d="M79.1152 38.5067C79.4279 38.5069 79.66 38.7699 79.6602 39.0653C79.6602 39.3608 79.428 39.6247 79.1152 39.6249H47.5879C47.276 39.6247 47.043 39.3635 47.043 39.0653C47.0431 38.7672 47.2761 38.5069 47.5879 38.5067H79.1152Z" fill="#00402A" stroke="white" stroke-width="0.5"/>
<path d="M61.0332 56.2032C61.4413 56.2033 61.7566 56.5467 61.7568 56.9484C61.7568 57.3496 61.4437 57.6944 61.0332 57.6945H47.5898C47.1816 57.6944 46.8662 57.3502 46.8662 56.9484C46.8665 56.5473 47.1796 56.2033 47.5898 56.2032H61.0332Z" fill="#00402A" stroke="white" stroke-width="0.5"/>
<path d="M61.0335 57.7865C61.4755 57.7865 61.8341 57.4113 61.8341 56.9488C61.8341 56.4864 61.4755 56.1112 61.0335 56.1112C60.5915 56.1112 60.2329 56.4864 60.2329 56.9488C60.2329 57.4113 60.5915 57.7865 61.0335 57.7865Z" fill="#00402A" stroke="white" stroke-width="0.5"/>
<path d="M62.6528 51.7324C63.0609 51.7324 63.3762 52.0759 63.3765 52.4775C63.3765 52.8788 63.0633 53.2236 62.6528 53.2236H47.5884C47.1802 53.2236 46.8647 52.8794 46.8647 52.4775C46.865 52.0765 47.1781 51.7325 47.5884 51.7324H62.6528Z" fill="#00402A" stroke="white" stroke-width="0.5"/>
<path d="M62.6526 53.3156C63.0946 53.3156 63.4532 52.9404 63.4532 52.478C63.4532 52.0156 63.0946 51.6404 62.6526 51.6404C62.2107 51.6404 61.8521 52.0156 61.8521 52.478C61.8521 52.9404 62.2107 53.3156 62.6526 53.3156Z" fill="#00402A" stroke="white" stroke-width="0.5"/>
<path d="M75.2075 47.2617L75.2827 47.2656C75.6542 47.3049 75.929 47.6314 75.9292 48.0068C75.9292 48.4074 75.6167 48.7528 75.2075 48.7529H47.5884C47.1802 48.7529 46.8647 48.4087 46.8647 48.0068C46.865 47.6058 47.1781 47.2617 47.5884 47.2617H75.2075Z" fill="#00402A" stroke="white" stroke-width="0.5"/>
<path d="M75.2073 48.8447C75.6493 48.8447 76.0079 48.4695 76.0079 48.0071C76.0079 47.5446 75.6493 47.1694 75.2073 47.1694C74.7653 47.1694 74.4067 47.5446 74.4067 48.0071C74.4067 48.4695 74.7653 48.8447 75.2073 48.8447Z" fill="#00402A" stroke="white" stroke-width="0.5"/>
<path d="M69.2681 42.7908C69.6778 42.7909 69.9917 43.1349 69.9917 43.5349C69.9915 43.9337 69.6789 44.2799 69.2681 44.28H47.5884C47.1803 44.28 46.8649 43.9366 46.8647 43.5349C46.8647 43.1325 47.1791 42.7908 47.5884 42.7908H69.2681Z" fill="#00402A" stroke="white" stroke-width="0.5"/>
<path d="M69.2679 44.372C69.7099 44.372 70.0685 43.9968 70.0685 43.5344C70.0685 43.072 69.7099 42.6968 69.2679 42.6968C68.8259 42.6968 68.4673 43.072 68.4673 43.5344C68.4673 43.9968 68.8259 44.372 69.2679 44.372Z" fill="#00402A" stroke="white" stroke-width="0.5"/>
<path d="M53.0308 38.3181C53.4411 38.3181 53.7541 38.6622 53.7544 39.0632C53.7544 39.4645 53.4412 39.8093 53.0308 39.8093H47.5884C47.1802 39.8093 46.8647 39.4651 46.8647 39.0632C46.865 38.6622 47.1781 38.3181 47.5884 38.3181H53.0308Z" fill="#00402A" stroke="white" stroke-width="0.5"/>
<path d="M53.0306 39.9012C53.4726 39.9012 53.8312 39.526 53.8312 39.0636C53.8312 38.6011 53.4726 38.226 53.0306 38.226C52.5886 38.226 52.23 38.6011 52.23 39.0636C52.23 39.526 52.5886 39.9012 53.0306 39.9012Z" fill="#00402A" stroke="white" stroke-width="0.5"/>
<path d="M27.9511 13.7711H21.2861V16.5039H27.9511V13.7711Z" fill="#00402A" stroke="white" stroke-width="0.5"/>
<path d="M27.9511 16.791H21.2861V19.5194H27.9511V16.791Z" fill="#00402A" stroke="white" stroke-width="0.5"/>
<path d="M7.41553 11.3776V13.4838H14.0805V10.7554H8.01028C7.68171 10.7554 7.41553 11.0339 7.41553 11.3776Z" fill="#00402A" stroke="white" stroke-width="0.5"/>
<path d="M21.0095 13.7711H14.355V16.5039H21.0095V13.7711Z" fill="#00402A" stroke="white" stroke-width="0.5"/>
<path d="M40.9608 10.7554H34.8906V13.4838H41.5556V11.3776C41.5556 11.0339 41.2894 10.7554 40.9608 10.7554Z" fill="#00402A" stroke="white" stroke-width="0.5"/>
<path d="M27.9509 19.6631H21.2964V22.3915H27.9509V19.6631Z" fill="#00402A" stroke="white" stroke-width="0.5"/>
<path d="M14.0803 16.5508H7.42578V19.2835H14.0803V16.5508Z" fill="#00402A" stroke="white" stroke-width="0.5"/>
<path d="M34.8905 10.7554H28.2256V13.4838H34.8905V10.7554Z" fill="#00402A" stroke="white" stroke-width="0.5"/>
<path d="M23.8398 42.494L10.5682 51.1148C5.80833 43.7839 7.8905 33.9799 15.2214 29.2187C17.8608 27.5042 20.6934 26.665 23.8398 26.665V42.494Z" fill="#26BF64" stroke="white" stroke-width="0.5"/>
<path d="M23.84 42.494L16.4105 56.4696C13.9421 55.1556 12.0913 53.4612 10.5684 51.1148L23.84 42.494Z" fill="#007F33" stroke="white" stroke-width="0.5"/>
<path d="M23.8401 42.494L18.9495 57.5483C17.9517 57.2243 17.3361 56.9627 16.4106 56.4696L23.8401 42.494Z" fill="#00A443" stroke="white" stroke-width="0.5"/>
<path d="M23.8398 42.494L34.0113 54.6203C29.7262 58.2163 24.2683 59.2768 18.9492 57.5483L23.8398 42.494Z" fill="#26BF64" stroke="white" stroke-width="0.5"/>
<path d="M23.8398 42.4941L38.5116 36.5637C41.1309 43.0474 39.3666 50.1228 34.0113 54.6183L23.8398 42.492V42.4941Z" fill="#008C39" stroke="white" stroke-width="0.5"/>
<path d="M23.8398 42.494V26.665C30.4827 26.665 36.0231 30.4039 38.5116 36.5637L23.8398 42.494Z" fill="#007F33" stroke="white" stroke-width="0.5"/>
</svg>
