<svg width="61" height="71" viewBox="0 0 61 71" fill="none" xmlns="http://www.w3.org/2000/svg">
<path d="M14.2858 0.25H47.4544C48.4982 0.25 49.3451 1.09958 49.3451 2.14544V68.6434C49.3451 69.6899 48.4976 70.5389 47.4544 70.5389H14.2852C13.2414 70.5389 12.3945 69.6893 12.3945 68.6434V2.14603C12.3945 1.09958 13.242 0.25 14.2858 0.25Z" fill="#008C39" stroke="white" stroke-width="0.5"/>
<path d="M51.2982 2.14603V68.644C51.2982 69.6864 50.4473 70.5395 49.407 70.5395H16.2383C15.198 70.5395 14.3477 69.6864 14.3477 68.644V2.14603C14.3477 1.10309 15.198 0.25 16.2383 0.25H49.407C50.4473 0.25 51.2982 1.10309 51.2982 2.14603Z" fill="#26BF64" stroke="white" stroke-width="0.5"/>
<path d="M38.238 2.91054H28.6327C28.427 2.91054 28.2593 2.7418 28.2593 2.53614C28.2593 2.3299 28.4276 2.16174 28.6327 2.16174H38.238C38.4437 2.16174 38.6114 2.33049 38.6114 2.53614C38.6114 2.74239 38.4431 2.91054 38.238 2.91054Z" fill="#00402A" stroke="white" stroke-width="0.5"/>
<path d="M26.9267 2.91054C26.721 2.91054 26.5532 2.7418 26.5532 2.53614C26.5532 2.3299 26.7215 2.16174 26.9267 2.16174C27.1324 2.16174 27.3001 2.33049 27.3001 2.53614C27.3001 2.74239 27.1318 2.91054 26.9267 2.91054Z" fill="#00402A" stroke="white" stroke-width="0.5"/>
<path d="M49.3271 4.58008H16.5605V68.2059H49.3271V4.58008Z" fill="#00402A" stroke="white" stroke-width="0.5"/>
<path d="M60.4472 10.4221V29.9677C60.4472 30.3034 60.1725 30.5788 59.8364 30.5788H20.3547C20.0198 30.5788 19.7451 30.3034 19.7451 29.9677V10.4221C19.7451 10.0852 20.0198 9.80981 20.3547 9.80981H59.8364C60.1725 9.80981 60.4472 10.0852 60.4472 10.4221Z" fill="#00402A" stroke="white" stroke-width="0.5"/>
<path d="M60.4474 10.4221V29.9671C60.4474 30.3034 60.1283 30.5788 59.7379 30.5788H40.0967V9.80981H59.7379C60.1283 9.80981 60.4474 10.0852 60.4474 10.4221Z" fill="#B4DEF7" stroke="white" stroke-width="0.5"/>
<path d="M49.7381 17.3967H42.7891C42.546 17.3967 42.3467 17.1969 42.3467 16.9532C42.3467 16.7094 42.546 16.5096 42.7891 16.5096H49.7381C49.9812 16.5096 50.1805 16.7094 50.1805 16.9532C50.1805 17.1969 49.9812 17.3967 49.7381 17.3967Z" fill="#00402A" stroke="white" stroke-width="0.5"/>
<path d="M42.7359 17.8402H48.021C48.2361 17.8402 48.4102 18.0148 48.4102 18.2304V18.3371C48.4102 18.5527 48.2361 18.7273 48.021 18.7273H42.7359C42.5208 18.7273 42.3467 18.5527 42.3467 18.3371V18.2304C42.3467 18.0148 42.5208 17.8402 42.7359 17.8402Z" fill="#00402A" stroke="white" stroke-width="0.5"/>
<path d="M29.8462 12.3832C27.6236 12.3832 25.8218 14.1896 25.8218 16.4178C25.8218 18.646 29.8462 23.6 29.8462 23.6C29.8462 23.6 33.8707 18.646 33.8707 16.4178C33.8707 14.1896 32.0688 12.3832 29.8462 12.3832ZM29.8462 18.2623C28.8071 18.2623 27.9649 17.418 27.9649 16.3762C27.9649 15.3344 28.8071 14.4901 29.8462 14.4901C30.8854 14.4901 31.7275 15.3344 31.7275 16.3762C31.7275 17.418 30.8854 18.2623 29.8462 18.2623Z" fill="#26BF64" stroke="white" stroke-width="0.5"/>
<path d="M29.507 26.9485H22.5586C22.3155 26.9485 22.1162 26.7487 22.1162 26.5049C22.1162 26.2612 22.3155 26.0614 22.5586 26.0614H29.507C29.7501 26.0614 29.9494 26.2612 29.9494 26.5049C29.9494 26.7487 29.7501 26.9485 29.507 26.9485Z" fill="#00402A" stroke="white" stroke-width="0.5"/>
<path d="M22.5054 27.3923H27.7905C28.0056 27.3923 28.1798 27.5669 28.1798 27.7826V27.8892C28.1798 28.1048 28.0056 28.2794 27.7905 28.2794H22.5054C22.2904 28.2794 22.1162 28.1048 22.1162 27.8892V27.7826C22.1162 27.5669 22.2904 27.3923 22.5054 27.3923Z" fill="#00402A" stroke="white" stroke-width="0.5"/>
<path d="M40.9521 34.427V53.9726C40.9521 54.3089 40.6774 54.5843 40.3419 54.5843H0.860738C0.524686 54.5843 0.25 54.3089 0.25 53.9726V34.427C0.25 34.0913 0.524686 33.8159 0.860738 33.8159H40.3419C40.6774 33.8159 40.9521 34.0913 40.9521 34.427Z" fill="#00402A" stroke="white" stroke-width="0.5"/>
<path d="M40.9519 34.4271V53.9721C40.9519 54.309 40.6772 54.5844 40.3418 54.5844H22.7817V33.8154H40.3418C40.6772 33.8154 40.9519 34.0908 40.9519 34.4271Z" fill="#00402A" stroke="white" stroke-width="0.5"/>
<path d="M31.734 48.4327C31.3851 48.4327 31.0613 48.2476 30.8842 47.9441L28.2893 43.497C28.0146 43.0265 28.1724 42.4218 28.6423 42.1464C29.1116 41.871 29.7147 42.0298 29.9894 42.5003L31.6545 45.3531L34.7894 38.8876C35.0273 38.3972 35.6164 38.1927 36.1056 38.4311C36.5947 38.6696 36.7987 39.2602 36.5608 39.7506L32.6206 47.8779C32.4616 48.2054 32.1361 48.4187 31.7725 48.4327C31.7597 48.4327 31.7474 48.4333 31.7345 48.4333L31.734 48.4327Z" fill="#00402A" stroke="white" stroke-width="0.5"/>
<path d="M31.7336 50.7207C28.3632 50.7207 25.6216 47.9716 25.6216 44.5932C25.6216 41.2148 28.3638 38.4657 31.7336 38.4657C35.1035 38.4657 37.8457 41.2148 37.8457 44.5932C37.8457 47.9716 35.1035 50.7207 31.7336 50.7207ZM31.7336 39.1834C28.7583 39.1834 26.3375 41.6103 26.3375 44.5932C26.3375 47.5761 28.7583 50.003 31.7336 50.003C34.709 50.003 37.1298 47.5761 37.1298 44.5932C37.1298 41.6103 34.709 39.1834 31.7336 39.1834Z" fill="#00402A" stroke="white" stroke-width="0.5"/>
<path d="M5.54722 37.2059C4.33801 37.2059 3.35791 38.1885 3.35791 39.4008C3.35791 40.613 4.33801 41.5956 5.54722 41.5956C6.75642 41.5956 7.73652 40.613 7.73652 39.4008C7.73652 38.1885 6.75642 37.2059 5.54722 37.2059ZM7.06384 39.4705H5.54722C5.50864 39.4705 5.47708 39.4389 5.47708 39.4002V37.7655C5.47708 37.7268 5.50864 37.6952 5.54722 37.6952C5.58579 37.6952 5.61735 37.7268 5.61735 37.7655V39.3299H7.06384C7.10241 39.3299 7.13397 39.3615 7.13397 39.4002C7.13397 39.4389 7.10241 39.4705 7.06384 39.4705Z" fill="#00402A" stroke="white" stroke-width="0.5"/>
<path d="M16.8118 38.5835H9.86283C9.6197 38.5835 9.42041 38.3837 9.42041 38.14C9.42041 37.8962 9.6197 37.6964 9.86283 37.6964H16.8118C17.0549 37.6964 17.2542 37.8962 17.2542 38.14C17.2542 38.3843 17.0549 38.5835 16.8118 38.5835Z" fill="#00402A" stroke="white" stroke-width="0.5"/>
<path d="M15.0947 39.0271H9.80965C9.59468 39.0271 9.42041 39.2018 9.42041 39.4173V39.524C9.42041 39.7395 9.59468 39.9142 9.80965 39.9142H15.0947C15.3097 39.9142 15.484 39.7395 15.484 39.524V39.4173C15.484 39.2018 15.3097 39.0271 15.0947 39.0271Z" fill="#00402A" stroke="white" stroke-width="0.5"/>
<path d="M5.32864 45.7013C4.24041 45.7013 3.35791 46.586 3.35791 47.677C3.35791 48.768 5.32864 51.1943 5.32864 51.1943C5.32864 51.1943 7.29936 48.7686 7.29936 47.677C7.29936 46.5854 6.41686 45.7013 5.32864 45.7013ZM5.32864 48.5799C4.82018 48.5799 4.40756 48.1662 4.40756 47.6565C4.40756 47.1467 4.82018 46.7331 5.32864 46.7331C5.8371 46.7331 6.24971 47.1467 6.24971 47.6565C6.24971 48.1662 5.8371 48.5799 5.32864 48.5799Z" fill="#00402A" stroke="white" stroke-width="0.5"/>
<path d="M16.2835 47.1416H9.33451C9.09138 47.1416 8.89209 46.9418 8.89209 46.6981C8.89209 46.4543 9.09138 46.2545 9.33451 46.2545H16.2835C16.5266 46.2545 16.7259 46.4543 16.7259 46.6981C16.7259 46.9418 16.5266 47.1416 16.2835 47.1416Z" fill="#00402A" stroke="white" stroke-width="0.5"/>
<path d="M14.5664 47.585H9.28133C9.06636 47.585 8.89209 47.7597 8.89209 47.9752V48.0818C8.89209 48.2973 9.06636 48.472 9.28133 48.472H14.5664C14.7814 48.472 14.9556 48.2973 14.9556 48.0818V47.9752C14.9556 47.7597 14.7814 47.585 14.5664 47.585Z" fill="#00402A" stroke="white" stroke-width="0.5"/>
</svg>
