<svg width="459" height="221" viewBox="0 0 459 221" fill="none" xmlns="http://www.w3.org/2000/svg">
<path d="M293.983 0V79.4473H278.196V95.0078H266.238V77.3291H242.923V85.1211H235.928V25.8535H205.67V95.0078H185.449V76.5127H175.205V40.332H150.74V95.0078H144.646V76.374H123.563V95.0078H108.127V88.4609H94.646V75.2275H64.394V95.0078H33.4429V0H10.9546V79.4473H-4.83252V95.0078H-16.4351V177.003H551.006V95.0078H541.294V77.3291H526.53V85.1211H518.957V25.8535H488.705V95.0078H468.483V76.5127H458.233V14.3623H433.768V95.0078H427.68V76.374H406.597V95.0078H391.156V88.4609H377.68V75.2275H347.423V95.0078H316.477V0H293.983Z" fill="#B4DEF7"/>
<path d="M144.635 31.1028C151.881 31.1028 157.754 25.2294 157.754 17.9841C157.754 10.7389 151.881 4.86548 144.635 4.86548C137.39 4.86548 131.517 10.7389 131.517 17.9841C131.517 25.2294 137.39 31.1028 144.635 31.1028Z" fill="#FFCD52"/>
<path d="M226.221 13.8261C226.808 11.4655 229.089 9.70423 231.81 9.70423C232.312 9.70423 232.795 9.76539 233.26 9.87547C234.605 7.2091 237.528 5.36222 240.91 5.36222C241.785 5.36222 242.629 5.48453 243.424 5.71692C245.252 2.92213 248.561 1.05078 252.346 1.05078C256.847 1.05078 260.682 3.6988 262.137 7.4048C263.165 6.87275 264.351 6.56698 265.611 6.56698C269.555 6.56698 272.754 9.52688 272.754 13.184C272.754 13.398 272.741 13.612 272.717 13.8261H226.221Z" fill="#FFFEFF"/>
<path d="M121.521 36.6059C121.521 33.1311 119.23 31.3725 117.139 31.3725C116.598 31.3725 116.076 31.4481 115.585 31.5918C114.454 29.8638 112.409 28.7067 110.068 28.7067C107.285 28.7067 104.914 30.344 104.014 32.6355C103.379 32.3065 102.645 32.1174 101.866 32.1174C99.4273 32.1174 97.4496 33.9476 97.4496 36.2088C97.4496 36.3412 97.4572 36.4735 97.4723 36.6059C102.986 36.6059 121.521 36.6059 121.521 36.6059Z" fill="#FFFEFF"/>
<path d="M20.8549 37.726H9.51294V105.639H20.8549V37.726Z" fill="#89837E"/>
<path d="M33.1462 106.368C33.1462 106.368 42.5396 61.1669 97.2814 59.4119C152.023 57.6569 181.026 151.883 181.026 151.883H150.234C150.234 151.883 142.497 74.4866 102.15 68.0848C61.803 61.6831 40.4398 106.368 40.4398 106.368H33.1462Z" fill="#0792E5"/>
<path d="M10.4348 106.368C10.4348 106.368 5.21706 61.167 -25.1937 59.412C-55.6045 57.657 -71.7175 151.883 -71.7175 151.883H-54.6116C-54.6116 151.883 -50.3135 74.4867 -27.8986 68.085C-5.48373 61.6832 6.38044 106.368 6.38044 106.368H10.4348Z" fill="#0DA9FF"/>
<path d="M19.9324 106.368C19.9324 106.368 25.1501 61.1669 55.5609 59.4119C85.9717 57.6569 102.085 151.883 102.085 151.883H84.9788C84.9788 151.883 80.6807 74.4866 58.2658 68.0848C35.8509 61.6831 23.9856 106.368 23.9856 106.368H19.9324Z" fill="#0DA9FF"/>
<path d="M44.2804 101.78H-13.9131V145.67H44.2804V101.78Z" fill="#89837E"/>
<path d="M48.0885 101.78H-17.7227V109.455H48.0885V101.78Z" fill="#D8CFC7"/>
<path d="M20.7996 146.562C20.5234 97.6401 18.1151 59.3916 15.1832 59.3916C12.2514 59.3916 9.84425 97.6401 9.56812 146.562H20.7996Z" fill="#0DA9FF"/>
<path d="M22.6614 138.419C24.3771 132.819 21.5929 134.654 18.3321 136.662C15.0713 138.67 14.5695 131.391 12.0591 131.642C9.54865 131.893 13.2452 136.16 10.8945 137.164C8.54376 138.167 4.52303 133.895 3.6466 135.027C2.77017 136.159 6.91337 138.821 5.71999 140C4.52661 141.179 2.90463 140.176 1.45673 141.18C1.27333 141.276 1.11972 141.42 1.01252 141.597C0.90532 141.774 0.848633 141.977 0.848633 142.184C0.848633 142.391 0.90532 142.594 1.01252 142.771C1.11972 142.948 1.27333 143.093 1.45673 143.189H25.1082C25.1082 143.189 27.3689 141.682 26.1143 140.929C24.8597 140.177 22.234 139.811 22.6614 138.419Z" fill="#6BDAFF"/>
<path d="M107.701 137.793C109.418 132.194 106.634 134.028 103.372 136.035C100.11 138.043 99.6094 130.764 97.0989 131.015C94.5885 131.266 98.2851 135.534 95.9344 136.537C93.5836 137.541 89.5629 133.267 88.6865 134.401C87.81 135.534 91.9532 138.194 90.7599 139.374C89.5665 140.554 87.9445 139.549 86.4966 140.553C86.3135 140.649 86.1603 140.793 86.0533 140.97C85.9464 141.147 85.8899 141.35 85.8899 141.557C85.8899 141.764 85.9464 141.966 86.0533 142.143C86.1603 142.32 86.3135 142.465 86.4966 142.561H110.148C110.148 142.561 112.41 141.054 111.154 140.302C109.898 139.549 107.274 139.188 107.701 137.793Z" fill="#6BDAFF"/>
<path d="M147.851 138.504C145.986 132.424 149.009 134.415 152.551 136.595C156.093 138.775 156.633 130.873 159.362 131.145C162.091 131.418 158.074 136.05 160.626 137.14C163.179 138.23 167.544 133.59 168.496 134.821C169.448 136.051 164.95 138.941 166.245 140.223C167.54 141.505 169.302 140.413 170.875 141.503C171.073 141.608 171.24 141.764 171.356 141.956C171.473 142.148 171.534 142.369 171.534 142.593C171.534 142.818 171.473 143.038 171.356 143.23C171.24 143.422 171.073 143.579 170.875 143.683H145.192C145.192 143.683 142.735 142.048 144.099 141.231C145.463 140.413 148.314 140.017 147.851 138.504Z" fill="#0DA9FF"/>
<path d="M171.436 140.418C170.261 136.588 172.165 137.842 174.397 139.218C176.629 140.593 176.971 135.617 178.689 135.783C180.407 135.95 177.878 138.874 179.485 139.562C181.093 140.25 183.846 137.325 184.445 138.1C185.044 138.876 182.211 140.695 183.026 141.503C183.841 142.311 184.953 141.623 185.943 142.31C186.069 142.375 186.174 142.474 186.248 142.595C186.321 142.716 186.36 142.855 186.36 142.997C186.36 143.138 186.321 143.277 186.248 143.398C186.174 143.519 186.069 143.618 185.943 143.683H169.76C169.76 143.683 168.212 142.653 169.07 142.138C169.929 141.623 171.727 141.372 171.436 140.418Z" fill="#0DA9FF"/>
<path d="M79.6904 139.731C78.5162 135.901 80.4204 137.155 82.6523 138.531C84.8841 139.907 85.2263 134.93 86.9443 135.097C88.6624 135.263 86.1327 138.188 87.7415 138.874C89.3503 139.561 92.1008 136.638 92.6999 137.413C93.299 138.189 90.4656 140.009 91.282 140.815C92.0984 141.622 93.203 140.935 94.1983 141.623C94.3239 141.689 94.4291 141.787 94.5025 141.908C94.576 142.029 94.6148 142.168 94.6148 142.31C94.6148 142.451 94.576 142.59 94.5025 142.711C94.4291 142.832 94.3239 142.931 94.1983 142.997H78.0144C78.0144 142.997 76.4668 141.967 77.3253 141.452C78.1837 140.937 79.9822 140.686 79.6904 139.731Z" fill="#6BDAFF"/>
<path d="M16.7415 41.4186L16.7967 40.7464C16.8351 40.313 16.9047 39.6852 17.0176 38.8713C17.348 36.5323 17.8244 34.2162 18.4439 31.9366C19.4056 28.3656 20.7618 24.9128 22.4875 21.6419C24.7562 17.2778 27.925 13.4445 31.7848 10.3953C36.4854 6.81902 42.1 4.64166 47.983 4.11355C51.1125 3.80644 54.2661 3.83945 57.3884 4.21199L58.583 4.33203L59.8352 4.5577C60.6923 4.71982 61.539 4.93267 62.3708 5.19512C63.2365 5.46881 64.0132 5.78811 64.8284 6.11462C65.598 6.49755 66.4144 6.82528 67.1516 7.26823C73.2049 10.6498 77.9952 15.7071 82.1829 21.0813C86.3137 26.5424 89.9998 32.3262 93.2054 38.3768C99.4087 50.1562 104.792 62.3493 109.318 74.8691C113.728 86.7783 117.326 98.055 120.221 107.771C123.116 117.487 125.284 125.657 126.746 131.391C127.459 134.272 128.019 136.53 128.402 138.072L128.965 140.473L120.75 142.247L120.257 139.936C119.914 138.414 119.408 136.181 118.766 133.34C117.445 127.658 115.458 119.549 112.806 109.895C110.154 100.24 106.822 89.0387 102.727 77.2375C98.5605 64.9171 93.5502 52.8983 87.732 41.2661C84.7982 35.4392 81.4029 29.8563 77.5786 24.5709C73.7884 19.4643 69.4615 14.8332 64.5211 11.9582C63.9208 11.5705 63.2725 11.3112 62.6542 10.9787C62.0275 10.717 61.3683 10.4301 60.7644 10.2248C60.1367 10.0053 59.495 9.82803 58.8435 9.69424L57.8458 9.48778L56.7749 9.35932C54.0202 8.96966 51.2314 8.87991 48.4573 9.09164C43.4594 9.42523 38.6581 11.1665 34.6086 14.1141C31.201 16.7041 28.3823 19.988 26.3389 23.7486C24.7042 26.7024 23.4028 29.8286 22.4587 33.0698C21.8421 35.1679 21.3565 37.3023 21.0048 39.4607C20.8847 40.205 20.8126 40.7812 20.7646 41.1509C20.7166 41.5206 20.707 41.7067 20.707 41.7067L16.7415 41.4186Z" fill="#0DA9FF"/>
<path d="M13.632 41.4185L13.5768 40.7462C13.5384 40.3129 13.4688 39.6851 13.3559 38.8712C13.0255 36.5322 12.5491 34.2161 11.9296 31.9364C10.9679 28.3655 9.61169 24.9127 7.88605 21.6418C5.61731 17.2777 2.44843 13.4444 -1.41129 10.3952C-6.11192 6.81889 -11.7265 4.64154 -17.6096 4.11343C-20.739 3.80632 -23.8926 3.83932 -27.0149 4.21186L-28.2095 4.33191L-29.4617 4.55757C-30.3188 4.7197 -31.1655 4.93255 -31.9973 5.195C-32.863 5.46869 -33.6397 5.78799 -34.4549 6.1145C-35.2245 6.49743 -36.0421 6.82516 -36.7781 7.26811C-42.8314 10.6497 -47.6217 15.707 -51.8094 21.0812C-55.9402 26.5423 -59.6262 32.326 -62.8319 38.3766C-69.0352 50.1561 -74.419 62.3491 -78.9449 74.869C-83.3547 86.7782 -86.9528 98.0549 -89.8474 107.771C-92.742 117.487 -94.9103 125.657 -96.3726 131.391C-97.0858 134.272 -97.6453 136.53 -98.0282 138.072L-98.5913 140.472L-90.3769 142.247L-89.8835 139.936C-89.5401 138.414 -89.0347 136.181 -88.3924 133.34C-87.0717 127.658 -85.0859 119.549 -82.4326 109.894C-79.7794 100.24 -76.4501 89.0386 -72.3538 77.2374C-68.187 64.917 -63.1767 52.8981 -57.3585 41.266C-54.4247 35.4391 -51.0294 29.8562 -47.2051 24.5708C-43.4149 19.4642 -39.088 14.8331 -34.1488 11.9581C-33.5485 11.5704 -32.899 11.3111 -32.2819 10.9785C-31.654 10.7169 -30.9949 10.43 -30.391 10.2247C-29.7632 10.0052 -29.1215 9.82791 -28.47 9.69412L-27.4724 9.48766L-26.4014 9.3592C-23.6467 8.96953 -20.8579 8.87979 -18.0838 9.09152C-13.0859 9.42511 -8.2846 11.1664 -4.23505 14.114C-0.827927 16.7045 1.99068 19.9883 4.03457 23.7485C5.6693 26.7022 6.97071 29.8285 7.91485 33.0696C8.53176 35.1676 9.01694 37.3021 9.36755 39.4606C9.4876 40.2049 9.56085 40.7811 9.60767 41.1508C9.6545 41.5205 9.66531 41.7066 9.66531 41.7066L13.632 41.4185Z" fill="#0DA9FF"/>
<path d="M13.915 41.5046C13.915 41.5046 13.9318 40.7843 13.963 39.4459C13.9943 38.1074 14.0831 36.1688 14.2596 33.6923C14.4361 31.2159 14.6966 28.2113 15.1864 24.7565C15.6927 20.8038 16.5615 16.9061 17.7821 13.1126C18.5469 10.672 19.7692 8.39918 21.3838 6.41549C22.5186 5.08224 24.0277 4.12039 25.7155 3.65455C26.1958 3.57173 26.688 3.50812 27.1791 3.4649C27.6558 3.45972 28.1323 3.49142 28.6042 3.55973C29.0551 3.61229 29.4983 3.71744 29.9248 3.87304L30.5539 4.0795L30.7112 4.13352C30.4711 4.01348 31.1326 4.33518 31.0798 4.31117L31.1278 4.33879L31.3247 4.44803C31.4723 4.53686 31.5456 4.56087 31.7569 4.70372C32.0066 4.88138 32.2527 5.07103 32.4917 5.2715C32.8668 5.58741 33.2105 5.93877 33.5181 6.32067C33.7815 6.62442 34.0246 6.94521 34.2457 7.28098C34.4672 7.5846 34.6708 7.90085 34.8556 8.2281C35.5639 9.43219 36.1835 10.6864 36.7093 11.9806C37.7168 14.4736 38.5885 17.0194 39.3206 19.6068C40.8165 24.7757 42.0231 30.1199 43.1312 35.5602C44.2394 41.0004 45.2214 46.5331 46.1327 52.0718C49.7608 74.2289 52.3505 96.458 54.1706 113.145C55.071 121.489 55.7637 128.448 56.2308 133.324L56.9439 141.006L46.823 141.739C46.823 141.739 46.6489 138.969 46.3428 134.124C46.0366 129.28 45.542 122.329 44.8949 114.008C43.5838 97.3715 41.6665 75.1772 38.7371 53.1809C37.9963 47.6855 37.1895 42.2032 36.2663 36.8482C35.343 31.4932 34.3189 26.2534 33.0511 21.3305C32.457 18.9555 31.7356 16.6142 30.8901 14.3166C30.511 13.2911 30.0589 12.2942 29.537 11.3336C29.4317 11.1215 29.3113 10.9173 29.1768 10.7225C29.0697 10.5433 28.9493 10.3724 28.8167 10.2112C28.7194 10.0911 28.5345 9.85946 28.6029 9.93989C28.6133 9.93935 28.6234 9.93672 28.6327 9.93218C28.6419 9.92764 28.6502 9.92129 28.657 9.91348C28.5515 9.83368 28.4399 9.76225 28.3232 9.69981L28.1299 9.57977L28.0819 9.54976C27.9979 9.50535 28.6258 9.82225 28.3472 9.6854L28.2908 9.6686L28.0711 9.59656C27.9294 9.54975 27.7722 9.45373 27.6689 9.47653C27.5657 9.49934 27.436 9.4165 27.3388 9.42611C27.2474 9.44998 27.1521 9.45409 27.059 9.43812C26.5311 9.60852 26.061 9.92229 25.7011 10.3444C24.5517 11.737 23.6653 13.327 23.0851 15.0368C21.8794 18.4641 20.9876 21.9937 20.421 25.5824C19.8579 28.8463 19.5241 31.7429 19.2768 34.1281C19.0295 36.5133 18.9034 38.4015 18.823 39.6824C18.7426 40.9632 18.7185 41.6306 18.7185 41.6306L13.915 41.5046Z" fill="#6BDAFF"/>
<path d="M16.452 41.5047C16.452 41.5047 16.4352 40.7845 16.404 39.446C16.3728 38.1076 16.2839 36.1689 16.1062 33.6925C15.9285 31.216 15.6704 28.2114 15.1806 24.7566C14.6744 20.8039 13.8055 16.9062 12.5849 13.1127C11.8201 10.6721 10.5978 8.39931 8.98319 6.41561C7.84839 5.08236 6.33933 4.12051 4.65149 3.65468C4.17125 3.57185 3.67898 3.50824 3.18795 3.46502C2.71118 3.45984 2.23475 3.49154 1.76288 3.55985C1.31195 3.61242 0.868711 3.71757 0.442226 3.87316L-0.186863 4.07962L-0.344154 4.13364C-0.104036 4.0136 -0.765566 4.3353 -0.71274 4.31129L-0.761948 4.33892L-0.957636 4.44816C-1.10531 4.53699 -1.17856 4.56099 -1.38986 4.70384C-1.63959 4.8815 -1.8857 5.07116 -2.12462 5.27162C-2.49975 5.58789 -2.84386 5.93921 -3.15231 6.32079C-3.41495 6.62485 -3.65759 6.94562 -3.87867 7.2811C-4.10014 7.58473 -4.30377 7.90097 -4.48856 8.22822C-5.19688 9.43232 -5.81643 10.6865 -6.34227 11.9807C-7.34976 14.4738 -8.22145 17.0195 -8.95352 19.6069C-10.4495 24.7758 -11.6561 30.1201 -12.7642 35.5603C-13.8723 41.0005 -14.8544 46.5332 -15.7656 52.0719C-19.3938 74.229 -21.9835 96.4581 -23.8036 113.145C-24.704 121.489 -25.3967 128.448 -25.8638 133.324L-26.5769 141.006L-16.456 141.739C-16.456 141.739 -16.2819 138.969 -15.9757 134.124C-15.6696 129.28 -15.175 122.329 -14.5278 114.008C-13.2168 97.3716 -11.2995 75.1773 -8.37005 53.1811C-7.62929 47.6856 -6.82252 42.2033 -5.89927 36.8483C-4.97602 31.4933 -3.95192 26.2535 -2.6853 21.3307C-2.09063 18.9558 -1.36923 16.6145 -0.524233 14.3167C-0.145193 13.2913 0.306969 12.2944 0.828804 11.3337C0.934093 11.1217 1.05448 10.9175 1.189 10.7227C1.29611 10.5435 1.41649 10.3725 1.54916 10.2113C1.64641 10.0913 1.83131 9.85959 1.76288 9.94001C1.75256 9.93947 1.74244 9.93684 1.73316 9.9323C1.72388 9.92776 1.7156 9.92141 1.70883 9.9136C1.81435 9.8338 1.92596 9.76236 2.04261 9.69994L2.23588 9.57989L2.28392 9.54989C2.36796 9.50547 1.74004 9.82237 2.01858 9.68552L2.07383 9.66872L2.29473 9.59668C2.4364 9.54987 2.59366 9.45385 2.69691 9.47666C2.80016 9.49946 2.92985 9.41663 3.0271 9.42623C3.11842 9.45014 3.21377 9.45425 3.3068 9.43824C3.8347 9.60864 4.30484 9.92242 4.66468 10.3445C5.81427 11.7368 6.70039 13.3269 7.27956 15.0369C8.48619 18.464 9.37831 21.9937 9.94485 25.5825C10.5079 28.8464 10.8417 31.743 11.089 34.1282C11.3363 36.5134 11.4624 38.4016 11.5428 39.6825C11.6233 40.9633 11.6473 41.6307 11.6473 41.6307L16.452 41.5047Z" fill="#6BDAFF"/>
<path d="M230.489 140.16H-200.121V184.051H230.489V140.16Z" fill="#89837E"/>
<path d="M82.5518 172.781H71.7466V176.682H82.5518V172.781Z" fill="#615D5A"/>
<path d="M87.9542 178.298H77.1489V182.199H87.9542V178.298Z" fill="#615D5A"/>
<path d="M75.9483 178.298H65.1431V182.199H75.9483V178.298Z" fill="#615D5A"/>
<path d="M80.4505 155.048H69.6453V158.95H80.4505V155.048Z" fill="#615D5A"/>
<path d="M85.8533 149.931H75.0481V153.832H85.8533V149.931Z" fill="#615D5A"/>
<path d="M40.1015 175.989H50.9067V172.088H40.1015V175.989Z" fill="#615D5A"/>
<path d="M34.6987 170.473H45.5039V166.571H34.6987V170.473Z" fill="#615D5A"/>
<path d="M15.2807 181.391H26.0859V177.49H15.2807V181.391Z" fill="#615D5A"/>
<path d="M40.1015 165.008H50.9067V161.107H40.1015V165.008Z" fill="#615D5A"/>
<path d="M4.47527 153.574H15.2805V149.673H4.47527V153.574Z" fill="#615D5A"/>
<path d="M-0.927321 158.692H9.87793V154.79H-0.927321V158.692Z" fill="#615D5A"/>
<path d="M118.867 154.241H108.062V158.143H118.867V154.241Z" fill="#615D5A"/>
<path d="M124.27 159.758H113.464V163.66H124.27V159.758Z" fill="#615D5A"/>
<path d="M143.686 148.84H132.881V152.741H143.686V148.84Z" fill="#615D5A"/>
<path d="M118.867 165.223H108.062V169.124H118.867V165.223Z" fill="#615D5A"/>
<path d="M184.506 154.241H173.701V158.143H184.506V154.241Z" fill="#615D5A"/>
<path d="M189.909 159.758H179.104V163.66H189.909V159.758Z" fill="#615D5A"/>
<path d="M177.903 159.758H167.098V163.66H177.903V159.758Z" fill="#615D5A"/>
<path d="M154.492 176.657H143.687V180.558H154.492V176.657Z" fill="#615D5A"/>
<path d="M159.894 171.541H149.089V175.442H159.894V171.541Z" fill="#615D5A"/>
<path d="M230.461 176.88H221.425V180.782H230.461V176.88Z" fill="#615D5A"/>
<path d="M230.463 149.474H222.237V153.376H230.463V149.474Z" fill="#615D5A"/>
<path d="M215.334 158.494H226.139V154.592H215.334V158.494Z" fill="#615D5A"/>
<path d="M209.931 153.376H220.737V149.475H209.931V153.376Z" fill="#615D5A"/>
<path d="M24.664 37.726H5.70435V45.4014H24.664V37.726Z" fill="#D8CFC7"/>
<path d="M133.276 140.736C134.992 135.138 132.207 136.971 128.947 138.979C125.686 140.987 125.184 133.708 122.674 133.959C120.163 134.21 123.86 138.477 121.509 139.481C119.158 140.484 115.138 136.211 114.261 137.343C113.385 138.475 117.527 141.137 116.335 142.317C115.142 143.497 113.518 142.493 112.07 143.496C111.887 143.592 111.734 143.737 111.627 143.914C111.52 144.091 111.463 144.294 111.463 144.5C111.463 144.707 111.52 144.91 111.627 145.087C111.734 145.264 111.887 145.408 112.07 145.504H135.722C135.722 145.504 137.982 143.998 136.728 143.245C135.473 142.493 132.849 142.131 133.276 140.736Z" fill="#6BDAFF"/>
<path d="M43.9358 138.419C42.2201 132.819 45.0031 134.654 48.2651 136.662C51.5271 138.67 52.0277 131.391 54.5382 131.642C57.0486 131.893 53.352 136.16 55.7027 137.164C58.0535 138.167 62.0742 133.895 62.9506 135.027C63.8271 136.159 59.6839 138.821 60.8772 140C62.0706 141.179 63.6926 140.176 65.1405 141.18C65.3236 141.276 65.4768 141.421 65.5838 141.598C65.6907 141.775 65.7472 141.978 65.7472 142.184C65.7472 142.391 65.6907 142.594 65.5838 142.771C65.4768 142.948 65.3236 143.092 65.1405 143.189H41.489C41.489 143.189 39.2271 141.682 40.4829 140.929C41.7387 140.177 44.3632 139.811 43.9358 138.419Z" fill="#6BDAFF"/>
<path d="M234.298 140.16H-203.929V147.836H234.298V140.16Z" fill="#D8CFC7"/>
<path d="M622 162.928H-659V208.881H622V162.928Z" fill="#D8CFC7"/>
<path d="M622 145.433H-659V164.412H622V145.433Z" fill="#B0A9A3"/>
<path d="M286.424 110.257C286.424 120.845 295.03 124.71 305.645 124.71C316.261 124.71 324.867 120.845 324.867 110.257C324.867 99.6701 316.261 86.3552 305.645 86.3552C295.03 86.3552 286.424 99.6701 286.424 110.257Z" fill="#5BD38C"/>
<path d="M306.333 107.776V145.432" stroke="#00402A" stroke-width="2" stroke-miterlimit="10"/>
<path d="M315.963 112.481C315.963 112.481 314.291 118.596 306.216 118.04" stroke="#00402A" stroke-width="2" stroke-miterlimit="10"/>
<path d="M296.456 108.59C296.456 108.59 297.843 113.593 306.203 113.593" stroke="#00402A" stroke-width="2" stroke-miterlimit="10"/>
<path d="M317.691 101.794C317.691 116.166 329.371 120.62 343.781 120.62C358.191 120.62 369.871 116.184 369.871 101.794C369.871 87.404 358.191 43.7472 343.781 43.7472C329.371 43.7472 317.691 87.4221 317.691 101.794Z" fill="#007F33"/>
<path d="M344.179 95.7894V145.433" stroke="#00402A" stroke-width="2" stroke-miterlimit="10"/>
<path d="M352.098 82.2109C352.098 82.2109 351.357 96.1321 344.016 96.1321C336.676 96.1321 337.037 86.9715 337.037 86.9715" stroke="#00402A" stroke-width="2" stroke-miterlimit="10"/>
<path d="M355.768 100.531C355.768 100.531 352.098 110.431 344.016 109.692C335.935 108.953 333.367 102.371 333.367 102.371" stroke="#00402A" stroke-width="2" stroke-miterlimit="10"/>
<path d="M621.681 177.95H-659V226.676H621.681V177.95Z" fill="#00A443"/>
<path d="M320.755 175.015C321.247 175.015 321.708 175.138 322.2 175.169C326.505 166.182 335.67 159.955 346.31 159.955C351.815 159.955 356.889 161.612 361.133 164.434C365.685 152.349 377.34 143.73 391.025 143.73C405.94 143.73 418.457 153.944 421.963 167.746C425.161 166.489 428.636 165.752 432.265 165.752C447.672 165.752 460.158 178.205 460.158 193.572H300.058C301.226 183.144 309.991 175.015 320.724 175.015H320.755Z" fill="#00402A"/>
<path d="M70.7474 175.015C70.2554 175.015 69.7941 175.138 69.302 175.169C64.9966 166.182 55.8323 159.955 45.1917 159.955C39.6869 159.955 34.6126 161.612 30.3687 164.434C25.8173 152.349 14.1619 143.73 0.476784 143.73C-14.4384 143.73 -26.9549 153.944 -30.4608 167.746C-33.6591 166.489 -37.1341 165.752 -40.763 165.752C-56.1703 165.752 -68.656 178.205 -68.656 193.572H91.4442C90.2756 183.144 81.511 175.015 70.7782 175.015H70.7474Z" fill="#00402A"/>
<path d="M230.563 84.0414C230.563 84.0414 227.455 80.5778 224.273 81.7122C221.091 82.8467 217.691 85.3317 217.496 91.3526C217.316 96.9009 213.725 100.644 210.892 103.645C208.059 106.645 206.872 117.232 222.241 117.618C237.61 118.005 235.083 109.283 233.726 104.958C232.369 100.633 232.298 94.4745 233.998 91.7747C235.697 89.075 233.431 83.6864 230.563 84.041L230.563 84.0414Z" fill="#00402A"/>
<path d="M245.369 135.222C243.303 137.128 240.131 138.67 237.877 139.613C236.267 140.286 234.54 140.632 232.795 140.629L228.455 140.62C228.455 140.62 247.842 132.938 245.368 135.222H245.369Z" fill="#26BF64"/>
<path d="M251.71 138.88L248.254 148.189L243.743 160.343C243.743 160.343 242.519 160.462 241.347 160.124C240.267 159.811 239.029 158.995 239.029 158.995C239.029 158.995 239.967 145.944 242.303 138.452C242.902 136.529 243.888 134.974 244.629 134.098C248.251 129.812 251.71 138.879 251.71 138.879L251.71 138.88Z" fill="#26BF64"/>
<path d="M247.473 125.76C245.21 125.029 239.364 125.597 232.99 125.574L231.632 123.332L217.622 122.236C217.622 122.236 213.914 127.586 215.118 135.891C215.544 138.828 217.918 140.426 220.279 140.426C221.92 140.426 227.425 140.633 230.132 140.633C237.099 140.633 243.081 137.066 244.039 136.699C244.932 136.355 248.159 141.186 250.449 144.26C254.285 149.407 264.507 158.147 264.507 158.147C264.507 158.147 266.463 157.421 267.341 157.091C268.286 156.736 268.631 156.276 268.631 156.276C268.631 156.276 252.579 127.408 247.474 125.759L247.473 125.76Z" fill="#5BD38C"/>
<path d="M228.004 101.938C228.916 102.749 226.519 104.002 224.714 103.852C222.791 103.692 220.52 98.5469 220.542 98.5456C221.251 98.5129 222.029 97.8928 222.628 93.8228L222.93 93.9312L228.004 95.759C228.004 95.759 227.399 97.3707 227.399 98.9407C227.399 99.8639 227.755 101.717 228.004 101.938Z" fill="#FFAD80"/>
<path d="M228.066 97.6732C228.066 97.6732 221.51 96.1123 222.543 91.8692C223.576 87.6262 223.77 84.6326 228.174 85.4464C232.579 86.2598 233.029 88.085 233.028 89.5853C233.027 91.0855 230.56 98.4031 228.066 97.6737V97.6732Z" fill="#FFAD80"/>
<path d="M231.01 86.7325C231.01 86.7325 227.108 91.149 224.651 90.6519C221.672 90.0494 221.089 89.6216 221.089 89.6216C221.089 89.6216 222.997 88.3072 224.28 86.0237C224.658 85.3506 225.367 84.9292 226.138 84.9327C228.305 84.9417 230.408 84.7541 231.01 86.7325Z" fill="#00402A"/>
<path d="M230.254 86.6122C230.254 86.6122 231.602 88.5652 231.935 89.682C232.508 91.6028 232.245 92.8168 231.799 93.7589C231.799 93.7589 234.512 89.4772 233.403 87.1773C232.227 84.7384 230.254 86.6122 230.254 86.6122Z" fill="#00402A"/>
<path d="M227.398 98.9409C227.398 98.9409 233.597 100.552 234.306 103.155C235.015 105.758 239.028 120.474 239.028 120.474C239.028 120.474 236.344 122.927 234.925 121.507C233.507 120.088 229.605 106.434 229.605 106.434L227.398 98.9409Z" fill="#FFFEFF"/>
<path d="M233.214 111.914C231.597 120.474 232.754 123.854 231.619 124.378C231.174 124.583 230.207 124.891 228.837 124.981C224.528 125.267 216.953 124.557 216.665 123.76C215.671 121.001 216.373 120.144 215.544 115.921C215.457 115.472 215.35 114.986 215.225 114.456C214.533 111.556 213.86 110.569 216.313 105.909C218.537 101.688 220.848 98.2624 221.056 98.3859C223.257 99.6938 225.609 103.661 226.527 103.443C227.5 103.213 227.398 98.942 227.398 98.942C227.398 98.942 234.487 105.171 233.213 111.914H233.214Z" fill="#FF9C1A"/>
<path d="M248.255 148.189L243.471 161.554C243.471 161.554 242.384 161.29 241.211 160.953C240.132 160.64 238.893 159.824 238.893 159.824C238.893 159.824 239.966 145.944 242.303 138.453L248.254 148.189H248.255Z" fill="#5BD38C"/>
<path d="M223.782 122.093C223.782 122.093 226.314 121.792 227.925 121.543C229.537 121.295 231.449 122.412 231.945 122.838C232.441 123.263 231.679 123.759 231.201 123.298C231.201 123.298 232.195 123.685 231.98 123.972C231.766 124.259 230.9 124.185 230.51 123.848C230.51 123.848 231.148 124.096 230.917 124.344C230.687 124.593 230.085 124.734 229.607 124.344C229.129 123.954 228.191 123.458 227.571 123.812C226.951 124.167 224.154 124.586 224.154 124.586C224.154 124.586 224.381 123.743 223.782 122.093L223.782 122.093Z" fill="#FFAD80"/>
<path d="M221.052 98.3827C221.052 98.3827 215.96 98.7597 213.985 101.519C211.203 105.402 205.416 121.599 208.578 123.806C212.14 126.292 224.44 124.788 224.44 124.788C224.44 124.788 224.711 122.697 224.714 121.979C224.717 121.104 214.764 119.646 214.244 118.867C213.9 118.349 219.224 110.36 219.224 109.042C219.224 107.723 221.052 98.3827 221.052 98.3827Z" fill="#FFFEFF"/>
<path d="M269.169 157.896C269.169 157.896 268.58 157.825 267.657 155.943L264.594 157.693C264.594 157.693 265.46 159.821 266.045 160.891L269.169 157.896Z" fill="#FFF5EC"/>
<path d="M265.541 160.019C265.541 160.019 267.193 159.752 268.801 157.604C268.801 157.604 270.915 157.4 272.771 157.444C273.625 157.464 274.476 157.311 275.146 157.14C275.95 156.934 276.79 157.285 277.201 158.005L277.393 158.342C277.536 158.593 277.449 158.912 277.198 159.055L267.744 164.457C267.494 164.6 267.175 164.513 267.032 164.262L266.438 163.221C266.438 163.221 265.575 161.882 265.54 160.02L265.541 160.019Z" fill="#FFFEFF"/>
<path d="M266.824 163.91L277.186 157.991L277.457 158.467C277.563 158.653 277.498 158.891 277.312 158.997L267.625 164.531C267.439 164.638 267.202 164.573 267.096 164.387L266.824 163.91Z" fill="#FFAD80"/>
<path d="M269.701 158.701C269.625 158.697 269.566 158.631 269.57 158.555L269.625 157.527C269.63 157.451 269.695 157.392 269.772 157.395C269.848 157.4 269.907 157.466 269.903 157.542L269.847 158.57C269.842 158.646 269.777 158.705 269.701 158.701Z" fill="#00402A"/>
<path d="M270.416 158.669C270.34 158.665 270.281 158.599 270.285 158.523L270.34 157.495C270.345 157.419 270.411 157.36 270.487 157.364C270.563 157.368 270.622 157.434 270.618 157.51L270.562 158.538C270.558 158.614 270.492 158.673 270.416 158.669Z" fill="#00402A"/>
<path d="M271.181 158.628C271.105 158.623 271.046 158.557 271.05 158.481L271.106 157.453C271.11 157.377 271.176 157.318 271.252 157.322C271.328 157.326 271.387 157.392 271.383 157.468L271.327 158.496C271.323 158.572 271.257 158.631 271.181 158.628Z" fill="#00402A"/>
<path d="M271.977 158.605C271.901 158.601 271.842 158.535 271.846 158.459L271.902 157.431C271.906 157.355 271.972 157.296 272.048 157.3C272.124 157.304 272.183 157.37 272.179 157.446L272.123 158.474C272.119 158.55 272.053 158.609 271.977 158.605Z" fill="#00402A"/>
<path d="M272.772 158.483C272.696 158.479 272.637 158.413 272.641 158.337L272.697 157.308C272.701 157.232 272.767 157.173 272.843 157.177C272.919 157.181 272.978 157.247 272.974 157.324L272.918 158.352C272.914 158.428 272.848 158.487 272.772 158.483Z" fill="#00402A"/>
<path d="M265.683 161.243C265.683 161.243 266.586 161.292 267.768 163.364L266.827 163.902C266.827 163.902 265.945 162.66 265.683 161.243Z" fill="#00402A"/>
<path d="M267.127 159.607C266.723 159.838 266.243 160.04 265.68 160.176C265.575 160.202 265.468 160.137 265.443 160.031C265.418 159.926 265.482 159.819 265.588 159.794C267.864 159.244 268.667 157.512 268.674 157.494C268.719 157.395 268.835 157.351 268.934 157.396C269.033 157.44 269.077 157.556 269.033 157.655C269.005 157.716 268.49 158.828 267.127 159.607V159.607Z" fill="#00402A"/>
<path d="M267.939 154.954L263.768 157.336C263.589 157.439 263.526 157.668 263.629 157.848L264.132 158.73C264.234 158.91 264.463 158.972 264.642 158.87L268.813 156.487C268.993 156.384 269.055 156.155 268.953 155.976L268.45 155.093C268.348 154.914 268.119 154.851 267.939 154.954Z" fill="#008C39"/>
<path d="M242.228 164.083C242.228 164.083 242.214 162.915 243.15 161.249L239.257 159.975C239.257 159.975 239.204 161.553 238.099 162.792L242.228 164.082V164.083Z" fill="#FFF5EC"/>
<path d="M238.619 161.929C238.619 161.929 239.651 163.249 242.307 163.62C242.307 163.62 243.507 165.375 244.365 167.022C244.76 167.781 245.305 168.453 245.779 168.957C246.347 169.561 246.447 170.468 246.015 171.177L245.814 171.507C245.663 171.753 245.342 171.831 245.095 171.681L235.804 166.004C235.557 165.854 235.48 165.532 235.63 165.285L236.254 164.262C236.254 164.262 237.007 162.858 238.62 161.928L238.619 161.929Z" fill="#FFFEFF"/>
<path d="M245.21 171.75L235.689 165.934C235.506 165.823 235.448 165.584 235.56 165.4L235.845 164.932L246.029 171.153L245.744 171.621C245.632 171.805 245.393 171.862 245.21 171.75Z" fill="#FFAD80"/>
<path d="M241.782 164.938C241.749 164.87 241.777 164.786 241.846 164.753L242.773 164.305C242.841 164.272 242.925 164.301 242.958 164.369C242.991 164.438 242.962 164.522 242.893 164.555L241.967 165.003C241.898 165.036 241.815 165.007 241.782 164.938Z" fill="#00402A"/>
<path d="M242.155 165.549C242.122 165.48 242.151 165.397 242.219 165.364L243.146 164.916C243.215 164.883 243.298 164.911 243.331 164.98C243.364 165.049 243.335 165.133 243.267 165.166L242.34 165.614C242.271 165.647 242.188 165.618 242.155 165.549Z" fill="#00402A"/>
<path d="M242.562 166.2C242.529 166.132 242.558 166.048 242.627 166.015L243.553 165.567C243.622 165.534 243.705 165.563 243.738 165.632C243.771 165.7 243.743 165.784 243.674 165.817L242.747 166.265C242.679 166.298 242.595 166.269 242.562 166.2Z" fill="#00402A"/>
<path d="M242.966 166.887C242.933 166.818 242.961 166.735 243.03 166.702L243.957 166.254C244.025 166.22 244.109 166.249 244.142 166.318C244.175 166.387 244.146 166.471 244.077 166.504L243.151 166.952C243.082 166.985 242.999 166.956 242.966 166.887Z" fill="#00402A"/>
<path d="M243.456 167.525C243.423 167.456 243.452 167.372 243.521 167.339L244.447 166.891C244.516 166.858 244.599 166.887 244.633 166.956C244.666 167.025 244.637 167.108 244.568 167.141L243.642 167.589C243.573 167.623 243.489 167.594 243.456 167.525Z" fill="#00402A"/>
<path d="M237.617 162.645C237.617 162.645 238.012 163.46 236.77 165.497L235.845 164.933C235.845 164.933 236.505 163.56 237.617 162.645Z" fill="#00402A"/>
<path d="M239.746 163.12C239.349 162.877 238.941 162.554 238.549 162.126C238.476 162.046 238.482 161.922 238.562 161.848C238.642 161.775 238.766 161.78 238.839 161.861C240.42 163.59 242.323 163.456 242.342 163.455C242.45 163.446 242.545 163.527 242.554 163.635C242.563 163.743 242.482 163.838 242.374 163.847C242.309 163.852 241.086 163.938 239.747 163.12H239.746Z" fill="#00402A"/>
<path d="M243.773 160.538L239.176 159.146C238.978 159.086 238.769 159.198 238.709 159.396L238.415 160.368C238.356 160.567 238.468 160.776 238.665 160.836L243.262 162.228C243.46 162.288 243.669 162.176 243.729 161.977L244.023 161.005C244.082 160.807 243.971 160.598 243.773 160.538Z" fill="#008C39"/>
<path d="M230.225 125.46H250.71L256.749 110.425C256.808 110.278 256.7 110.118 256.542 110.118H236.792C236.566 110.118 236.363 110.255 236.279 110.464L230.225 125.459L230.225 125.46Z" fill="#00402A"/>
<path d="M250.95 124.862H224.128C223.876 124.862 223.672 125.066 223.672 125.319C223.672 125.571 223.876 125.775 224.128 125.775H250.278C250.533 125.775 250.756 125.603 250.821 125.356L250.95 124.862V124.862Z" fill="#00402A"/>
<path d="M245.482 117.505C245.609 117.062 245.353 116.704 244.911 116.704C244.469 116.704 244.008 117.063 243.881 117.505C243.754 117.948 244.01 118.306 244.452 118.306C244.894 118.306 245.355 117.948 245.482 117.505Z" fill="#FFFEFF"/>
<path d="M288.325 57.2506C284.521 58.4284 281.619 75.2115 280.429 78.6233C279.535 81.1813 270.904 97.2182 270.904 97.2182C270.904 97.2182 262.975 99.4241 263.719 100.661C264.701 102.199 266.124 103.406 267.804 104.123C269.04 104.37 272.879 101.28 273.25 100.413C273.498 99.6486 273.623 98.8493 273.621 98.0454C273.621 98.0454 282.823 84.1802 283.982 81.2514C284.852 79.047 290.56 64.3281 290.56 64.3281C290.904 63.6381 291.083 62.878 291.083 62.1073C291.083 61.3367 290.904 60.5765 290.56 59.8866C289.445 57.1836 288.325 57.2506 288.325 57.2506Z" fill="#FFAD80"/>
<path d="M286.678 57.2505C286.678 57.2505 283.639 59.7914 280.449 76.132L271.29 94.741L275.745 96.5341L286.323 79.2244L288.662 71.111C288.959 68.0975 288.959 65.0622 288.662 62.0488C288.124 58.327 286.678 57.2505 286.678 57.2505Z" fill="#C66D00"/>
<path d="M286.678 57.2506C286.678 57.2506 283.639 59.7915 280.449 76.1322L286.678 57.2506Z" fill="#C66D00"/>
<path opacity="0.2" d="M286.678 57.2505C286.678 57.2505 283.639 59.7914 280.449 76.132L271.29 94.741L275.745 96.5341L286.323 79.2244L288.662 71.111C288.959 68.0975 288.959 65.0622 288.662 62.0488C288.124 58.327 286.678 57.2505 286.678 57.2505Z" fill="white"/>
<path opacity="0.2" d="M286.373 79.1498L286.516 78.6404L285.849 70.5549L284.423 82.3388L286.373 79.1498Z" fill="black"/>
<path d="M301.687 116.851C302.512 119.032 303.268 121.247 303.954 123.417C306.289 131.294 308.047 139.331 309.213 147.463C318.515 166.239 325.041 194.452 325.041 194.452L321.598 195.6L298.984 145.386L292.277 128.11L301.687 116.851Z" fill="#FFAD80"/>
<path d="M325.184 191.83C324.976 191.425 320.093 194.191 320.093 194.191C319.225 196.759 317.775 199.093 315.857 201.011C313.19 203.18 315.751 204.169 319.115 202.536L327.441 198.498C329.832 197.337 327.349 196.029 325.184 191.83Z" fill="#00402A"/>
<path d="M319.847 195.112C319.86 195.097 319.869 195.08 319.874 195.061C319.876 195.045 319.876 195.028 319.874 195.012C319.872 194.996 319.869 194.981 319.863 194.966C319.855 194.947 319.843 194.93 319.828 194.916C319.777 194.866 318.788 193.905 317.971 193.953C317.846 193.959 317.724 193.991 317.613 194.049C317.502 194.107 317.405 194.188 317.328 194.286C317.248 194.358 317.193 194.453 317.17 194.558C317.148 194.663 317.159 194.772 317.202 194.871C317.346 195.128 317.826 195.22 318.35 195.238C317.938 195.359 317.568 195.592 317.28 195.91C317.232 195.976 317.198 196.052 317.18 196.133C317.162 196.213 317.161 196.296 317.177 196.377C317.246 196.712 317.424 196.821 317.559 196.854C317.733 196.88 317.911 196.846 318.063 196.759C318.749 196.318 319.353 195.76 319.847 195.112ZM319.345 195.252C318.755 195.927 317.968 196.654 317.629 196.572C317.601 196.564 317.512 196.544 317.473 196.323C317.466 196.28 317.467 196.236 317.477 196.193C317.487 196.151 317.506 196.111 317.533 196.076C317.677 195.901 317.862 195.764 318.072 195.678C318.481 195.493 318.907 195.351 319.345 195.252ZM317.994 194.247C318.517 194.312 319.005 194.545 319.384 194.91C318.5 194.989 317.59 194.947 317.467 194.727C317.428 194.659 317.511 194.537 317.565 194.472C317.62 194.401 317.69 194.344 317.77 194.304C317.84 194.27 317.916 194.251 317.994 194.247Z" fill="#C66D00"/>
<path d="M286.635 116.725C287.629 123.233 289.439 129.59 292.023 135.647C294.831 142.154 297.925 146.943 300.177 151.881C304.157 160.621 314.452 181.394 314.452 181.394L321.343 176.198C321.343 176.198 310.347 149.738 309.602 144.542C309.12 141.18 308.657 123.095 308.388 110.767C308.243 104.048 308.156 99.041 308.156 99.041L288.475 83.3438C285.539 94.221 284.913 105.591 286.635 116.725Z" fill="#C66D00"/>
<path opacity="0.2" d="M292.023 135.646C294.831 142.154 297.925 146.943 300.177 151.881C304.157 160.621 314.452 181.394 314.452 181.394L321.343 176.198C321.343 176.198 310.347 149.738 309.602 144.542C309.12 141.18 308.657 123.095 308.388 110.767L302.562 98.547L295.008 101.579L297.474 111.055L292.023 135.646Z" fill="black"/>
<path d="M299.226 155.672C295.075 170.329 290.087 184.738 284.286 198.825L280.906 197.512L290.81 155.676L299.226 155.672Z" fill="#FFAD80"/>
<path d="M286.073 196.895C286.172 196.449 280.646 195.466 280.646 195.466C278.336 196.891 275.729 197.764 273.027 198.018C269.588 197.987 270.928 200.381 274.562 201.269L283.552 203.466C286.134 204.092 285.058 201.506 286.073 196.895Z" fill="#00402A"/>
<path d="M279.869 196.021C279.889 196.017 279.907 196.009 279.924 195.997C279.937 195.988 279.949 195.977 279.958 195.963C279.968 195.951 279.975 195.936 279.98 195.921C279.984 195.902 279.984 195.882 279.98 195.862C279.929 195.148 279.643 194.471 279.166 193.936C279.066 193.861 278.95 193.808 278.828 193.781C278.705 193.754 278.579 193.754 278.456 193.781C278.18 193.837 278.023 193.961 277.988 194.15C277.935 194.44 278.252 194.821 278.637 195.166C278.245 194.995 277.812 194.938 277.389 195C277.309 195.021 277.234 195.058 277.168 195.109C277.103 195.16 277.048 195.224 277.009 195.296C276.945 195.385 276.91 195.492 276.908 195.601C276.906 195.71 276.937 195.818 276.998 195.909C277.115 196.039 277.273 196.126 277.445 196.156C278.255 196.251 279.075 196.206 279.869 196.021ZM279.401 195.807C278.515 195.951 277.445 196.007 277.241 195.733C277.222 195.709 277.168 195.638 277.275 195.437C277.296 195.398 277.325 195.364 277.359 195.337C277.394 195.31 277.434 195.291 277.477 195.281C277.7 195.238 277.93 195.251 278.147 195.318C278.578 195.439 278.995 195.603 279.392 195.807H279.401ZM279.002 194.173C279.365 194.558 279.592 195.05 279.649 195.575C278.918 195.072 278.246 194.46 278.289 194.212C278.305 194.134 278.445 194.094 278.528 194.078C278.608 194.059 278.692 194.058 278.773 194.076C278.854 194.093 278.93 194.129 278.996 194.179L279.002 194.173Z" fill="#C66D00"/>
<path d="M309.291 81.2358C309.291 81.2358 316.92 97.3101 314.223 112.476C311.526 127.642 303.38 147.114 301.184 151.836C298.988 156.558 290.786 184.524 290.786 184.524L283.69 182.215C283.69 182.215 290.031 154.46 292.023 144.791C292.959 140.224 301.019 107.696 301.019 107.696C301.019 107.696 287.216 97.4503 288.194 81.4181L309.291 81.2358Z" fill="#C66D00"/>
<path d="M301.744 84.8561L290.714 85.0244L290.585 81.7123L301.626 81.8307L301.744 84.8561Z" fill="black"/>
<path d="M289.613 81.7015L289.743 85.0401L288.628 85.0573L288.324 81.6891L289.613 81.7015Z" fill="black"/>
<path d="M302.599 81.8407L308.452 81.903L308.71 84.7508L302.718 84.8412L302.599 81.8407Z" fill="black"/>
<path d="M293.16 81.9504H297.454V85.2033H293.16V81.9504Z" fill="white"/>
<path d="M311.946 55.847C311.946 55.847 298.079 52.7951 286.635 57.2491C286.251 65.4336 286.819 73.635 288.325 81.6891L309.51 81.8449C309.51 81.8449 308.365 76.0808 313.069 64.9372L311.946 55.847Z" fill="#FFFEFF"/>
<path d="M305.654 54.8264C305.654 54.8264 301.082 65.7768 301.108 69.3023C301.135 72.8278 312.465 93.9495 314.805 94.9295C315.602 95.1646 316.446 95.1965 317.259 95.022C318.072 94.8476 318.828 94.4724 319.459 93.9309C319.459 93.9309 311.701 74.1457 311.866 72.1688C312.032 70.1918 313.847 63.9322 313.847 62.3634C313.847 60.7946 313.067 55.8468 313.067 55.8468L305.654 54.8264Z" fill="#C66D00"/>
<path opacity="0.2" d="M319.456 93.9312C318.825 94.4731 318.068 94.8486 317.254 95.0233C316.441 95.1981 315.597 95.1664 314.798 94.9313C312.459 93.9499 301.131 72.8265 301.107 69.301C301.082 65.7755 305.656 54.8298 305.656 54.8298L313.066 55.8487C313.066 55.8487 313.846 60.7934 313.846 62.3622C313.671 63.8759 313.382 65.3742 312.982 66.8443C312.519 68.5993 312.147 70.3772 311.868 72.1707C312.282 74.4351 312.927 76.6511 313.794 78.7839C316.052 85.2257 319.456 93.9312 319.456 93.9312Z" fill="white"/>
<path d="M292.023 55.4232C292.023 55.4232 292.959 67.2787 292.671 69.723C292.382 72.1673 286.643 91.9587 286.643 91.9587V81.2358C286.643 81.2358 284.679 64.2549 286.635 57.2444L292.023 55.4232Z" fill="#C66D00"/>
<path opacity="0.2" d="M292.023 55.4232C292.023 55.4232 292.959 67.2787 292.671 69.723C292.382 72.1673 286.643 91.9587 286.643 91.9587V81.2358C286.643 81.2358 284.679 64.2549 286.635 57.2444L292.023 55.4232Z" fill="white"/>
<path opacity="0.2" d="M311.126 63.8626L311.094 63.3064C311.094 63.3064 311.909 64.763 312.978 66.8443C312.516 68.5994 312.144 70.3773 311.865 72.1708C312.279 74.4352 312.924 76.6512 313.791 78.784C309.502 73.6835 311.126 63.8626 311.126 63.8626Z" fill="black"/>
<path d="M313.471 104.936L310.82 132.113H317.118L350.112 128.144L344.48 102.406L313.471 104.936Z" fill="#00402A"/>
<path d="M326.789 98.2136C325.443 98.2136 322.541 99.6827 322.143 100.797C321.869 101.93 321.736 103.094 321.745 104.26H322.846C322.731 103.233 322.876 102.193 323.269 101.237C323.635 100.634 324.152 100.137 324.769 99.7943C325.387 99.4519 326.083 99.2765 326.789 99.2855C328.467 99.1538 330.143 99.5563 331.577 100.435C332.197 101.301 332.588 102.309 332.713 103.366L333.826 103.275C333.72 102.026 333.284 100.827 332.563 99.8011C331.507 98.6499 328.137 98.2136 326.789 98.2136Z" fill="#00402A"/>
<path opacity="0.2" d="M344.484 102.406C344.484 102.406 339.62 116.361 334.604 117.259C329.588 118.156 316.227 104.71 316.227 104.71L317.122 132.113L350.116 128.142L344.484 102.406Z" fill="white"/>
<path opacity="0.3" d="M335.548 114.699C335.548 114.933 335.478 115.162 335.348 115.357C335.218 115.552 335.033 115.703 334.816 115.793C334.6 115.883 334.361 115.906 334.131 115.861C333.901 115.815 333.69 115.702 333.524 115.536C333.359 115.371 333.246 115.16 333.2 114.93C333.154 114.701 333.178 114.462 333.267 114.246C333.357 114.03 333.509 113.845 333.704 113.715C333.899 113.585 334.128 113.515 334.363 113.515C334.677 113.515 334.978 113.64 335.201 113.862C335.423 114.084 335.548 114.385 335.548 114.699Z" fill="black"/>
<path d="M321.178 88.556L324.319 96.0993C323.826 96.8697 323.632 97.7931 323.773 98.6963C324.137 100.01 324.699 101.26 325.438 102.406L330.501 101.91C330.501 101.91 329.59 96.0946 326.125 95.4808L323.993 88.556H321.178Z" fill="#FFAD80"/>
<path d="M313.069 55.8469C316.977 57.1665 319.454 75.3205 319.454 75.3205L326.316 93.6397L322.849 94.3002C322.849 94.3002 314.006 76.9064 314.006 76.7599C314.006 76.6135 311.199 65.0166 311.199 65.0166C311.021 63.0473 311.021 61.066 311.199 59.0967C311.415 57.8254 312.078 56.6729 313.069 55.8469Z" fill="#C66D00"/>
<path opacity="0.2" d="M313.069 55.8469C316.977 57.1665 319.454 75.3205 319.454 75.3205L326.316 93.6397L322.849 94.3002C322.849 94.3002 314.006 76.9064 314.006 76.7599C314.006 76.6135 311.199 65.0166 311.199 65.0166C311.021 63.0473 311.021 61.066 311.199 59.0967C311.415 57.8254 312.078 56.6729 313.069 55.8469Z" fill="white"/>
<path d="M288.429 33.7109C287.572 34.5246 286.892 35.5073 286.434 36.5968C285.976 37.6863 285.749 38.859 285.767 40.0406C286.187 43.2656 286.838 46.4565 287.714 49.5889L293.993 31.304C291.988 31.7025 290.092 32.523 288.429 33.7109Z" fill="#00402A"/>
<path d="M293.993 31.3042C297.354 29.7681 300.649 31.5815 302.56 32.9229C303.6 33.8012 304.441 34.8897 305.029 36.1166C305.616 37.3436 305.937 38.6811 305.969 40.0408C305.969 42.6191 306.041 45.7302 304.349 47.0716C303.917 47.4556 303.409 47.7453 302.859 47.9223C302.308 48.0994 301.727 48.1598 301.152 48.0997L288.43 36.372C289.821 34.2365 291.736 32.4919 293.993 31.3042Z" fill="#00402A"/>
<path d="M296.445 59.109C301.315 57.911 302.56 55.6287 302.56 55.6287C300.322 53.9602 300.367 51.1108 300.688 49.3006C300.782 48.728 300.924 48.1646 301.114 47.6165L295.29 49.4081C295.523 50.2194 295.696 51.0468 295.807 51.8835C295.897 52.499 295.911 53.1232 295.849 53.7421C295.649 55.5632 294.638 55.705 294.638 55.705C293.81 57.7739 296.445 59.109 296.445 59.109Z" fill="#FFAD80"/>
<path opacity="0.2" d="M295.8 51.8866C295.891 52.5021 295.905 53.1264 295.842 53.7452C296.909 53.3742 297.889 52.7887 298.72 52.0248C299.552 51.2608 300.218 50.3348 300.677 49.3037C300.771 48.7312 300.913 48.1677 301.103 47.6196L295.279 49.4112C295.514 50.2224 295.688 51.0498 295.8 51.8866Z" fill="black"/>
<path d="M294.061 34.2371C288.903 34.9818 287.642 37.9761 288.032 43.343C288.52 50.0419 290.674 54.5489 296.922 52.2011C305.397 49.0121 302.627 33.0017 294.061 34.2371Z" fill="#FFAD80"/>
<path d="M300.953 42.1078C300.953 42.1078 297.929 38.2224 297.822 34.9026C297.822 34.9026 286.998 32.2059 287.996 42.6421C287.996 42.6421 285.667 33.583 294.504 32.0999C303.341 30.6168 305.177 43.5784 301.156 48.0994C301.151 48.0994 302.828 44.5412 300.953 42.1078Z" fill="#00402A"/>
<path d="M300.269 43.3187C300.232 42.7156 300.437 42.1226 300.837 41.6698C301.238 41.2169 301.801 40.9409 302.405 40.9025C304.029 40.8464 305.264 44.0182 301.402 45.3752C300.849 45.5699 300.446 45.0589 300.269 43.3187Z" fill="#FFAD80"/>
<path d="M312.061 33.7108C311.988 34.5576 311.669 35.3648 311.144 36.0338C310.619 36.7028 309.911 37.2047 309.105 37.4783C308.299 37.7519 307.431 37.7854 306.607 37.5747C305.782 37.364 305.037 36.9182 304.462 36.2916C303.887 35.6651 303.507 34.8849 303.368 34.0463C303.229 33.2076 303.338 32.3467 303.681 31.5687C304.023 30.7906 304.585 30.129 305.298 29.6645C306.011 29.2001 306.843 28.9529 307.694 28.953C308.904 29.008 310.043 29.5395 310.861 30.4312C311.68 31.3228 312.111 32.5021 312.061 33.7108Z" fill="#00402A"/>
<path d="M289.637 33.2727C288.32 34.5286 287.445 36.1754 287.141 37.9682C287.127 39.2721 288.905 40.1959 288.905 40.1959L291.059 37.3762V39.8594L297.826 34.9023L295.853 31.3986C295.853 31.3986 290.8 32.257 289.637 33.2727Z" fill="#00402A"/>
</svg>
