<svg width="459" height="220" viewBox="0 0 459 220" fill="none" xmlns="http://www.w3.org/2000/svg">
<rect x="-65" y="181.931" width="568.147" height="4.67336" fill="#26BF64"/>
<rect x="-65" y="186" width="568" height="34" fill="#005321"/>
<g opacity="0.5">
<g style="mix-blend-mode:multiply" opacity="0.95">
<path d="M126.664 172.425H37.708C37.285 172.425 36.9395 172.08 36.9395 171.658V37.7216C36.9395 37.299 37.285 36.9539 37.708 36.9539H126.664C127.087 36.9539 127.432 37.299 127.432 37.7216V171.658C127.432 172.08 127.087 172.425 126.664 172.425ZM38.4766 170.89H125.895V38.4953H38.4766V170.89Z" fill="#6BDAFF"/>
<path d="M126.062 56.5875H37.7019C37.2789 56.5875 36.9333 56.2423 36.9333 55.8197C36.9333 55.3972 37.2789 55.052 37.7019 55.052H126.062C126.485 55.052 126.83 55.3972 126.83 55.8197C126.83 56.2423 126.485 56.5875 126.062 56.5875Z" fill="#6BDAFF"/>
<path d="M80.9614 172.074C80.5384 172.074 80.1929 171.729 80.1929 171.307V55.8197C80.1929 55.3972 80.5384 55.052 80.9614 55.052C81.3844 55.052 81.73 55.3972 81.73 55.8197V171.307C81.73 171.729 81.3844 172.074 80.9614 172.074Z" fill="#6BDAFF"/>
<path d="M393.815 172.425H304.859C304.436 172.425 304.091 172.08 304.091 171.658V37.7216C304.091 37.299 304.436 36.9539 304.859 36.9539H393.815C394.238 36.9539 394.583 37.299 394.583 37.7216V171.658C394.583 172.08 394.238 172.425 393.815 172.425ZM305.628 170.89H393.046V38.4953H305.628V170.89Z" fill="#6BDAFF"/>
<path d="M393.213 56.5875H304.854C304.431 56.5875 304.085 56.2423 304.085 55.8197C304.085 55.3972 304.431 55.052 304.854 55.052H393.213C393.636 55.052 393.982 55.3972 393.982 55.8197C393.982 56.2423 393.636 56.5875 393.213 56.5875Z" fill="#6BDAFF"/>
<path d="M348.113 172.074C347.69 172.074 347.344 171.729 347.344 171.307V55.8197C347.344 55.3972 347.69 55.052 348.113 55.052C348.536 55.052 348.882 55.3972 348.882 55.8197V171.307C348.882 171.729 348.536 172.074 348.113 172.074Z" fill="#6BDAFF"/>
<path d="M54.6252 8.95527C55.0482 8.95527 55.3938 8.61008 55.3938 8.18754V-2.76303C55.3938 -3.18558 55.0482 -3.53076 54.6252 -3.53076C54.2022 -3.53076 53.8567 -3.18558 53.8567 -2.76303V8.18158C53.8567 8.60413 54.2022 8.94931 54.6252 8.94931V8.95527Z" fill="#6BDAFF"/>
<path d="M26.2602 21.7329C26.6832 21.7329 27.0288 21.3877 27.0288 20.9652V10.0205C27.0288 9.59799 26.6832 9.25281 26.2602 9.25281C25.8372 9.25281 25.4917 9.59799 25.4917 10.0205V20.9652C25.4917 21.3877 25.8372 21.7329 26.2602 21.7329Z" fill="#6BDAFF"/>
<path d="M9.31023 9.87176H64.5686C64.9916 9.87176 65.3372 9.52658 65.3372 9.10403C65.3372 8.68148 64.9916 8.3363 64.5686 8.3363H9.31023C8.88723 8.3363 8.54169 8.68148 8.54169 9.10403C8.54169 9.52658 8.88723 9.87176 9.31023 9.87176Z" fill="#6BDAFF"/>
<path d="M10.0491 21.7331H49.5908C50.0138 21.7331 50.3594 21.3879 50.3594 20.9654C50.3594 20.5428 50.0138 20.1976 49.5908 20.1976H10.0491C9.62609 20.1976 9.28052 20.5428 9.28052 20.9654C9.28052 21.3879 9.62609 21.7331 10.0491 21.7331Z" fill="#6BDAFF"/>
<path d="M380.694 8.95527C380.271 8.95527 379.926 8.61008 379.926 8.18754V-2.76303C379.926 -3.18558 380.271 -3.53076 380.694 -3.53076C381.117 -3.53076 381.463 -3.18558 381.463 -2.76303V8.18158C381.463 8.60413 381.117 8.94931 380.694 8.94931V8.95527Z" fill="#6BDAFF"/>
<path d="M409.059 21.7329C408.636 21.7329 408.291 21.3877 408.291 20.9652V10.0205C408.291 9.59799 408.636 9.25281 409.059 9.25281C409.482 9.25281 409.828 9.59799 409.828 10.0205V20.9652C409.828 21.3877 409.482 21.7329 409.059 21.7329Z" fill="#6BDAFF"/>
<path d="M426.009 9.87176H370.751C370.328 9.87176 369.982 9.52658 369.982 9.10403C369.982 8.68148 370.328 8.3363 370.751 8.3363H426.009C426.432 8.3363 426.777 8.68148 426.777 9.10403C426.777 9.52658 426.432 9.87176 426.009 9.87176Z" fill="#6BDAFF"/>
<path d="M425.27 21.7331H385.728C385.305 21.7331 384.96 21.3879 384.96 20.9654C384.96 20.5428 385.305 20.1976 385.728 20.1976H425.27C425.693 20.1976 426.039 20.5428 426.039 20.9654C426.039 21.3879 425.693 21.7331 425.27 21.7331Z" fill="#6BDAFF"/>
<path d="M368.653 203.108C368.23 203.108 367.885 202.762 367.885 202.34V191.395C367.885 190.973 368.23 190.628 368.653 190.628C369.076 190.628 369.422 190.973 369.422 191.395V202.34C369.422 202.762 369.076 203.108 368.653 203.108Z" fill="#6BDAFF"/>
<path d="M340.289 215.891C339.866 215.891 339.52 215.546 339.52 215.123V204.179C339.52 203.756 339.866 203.411 340.289 203.411C340.712 203.411 341.057 203.756 341.057 204.179V215.123C341.057 215.546 340.712 215.891 340.289 215.891Z" fill="#6BDAFF"/>
<path d="M378.603 204.024H323.345C322.922 204.024 322.576 203.679 322.576 203.257C322.576 202.834 322.922 202.489 323.345 202.489H378.603C379.026 202.489 379.372 202.834 379.372 203.257C379.372 203.679 379.026 204.024 378.603 204.024Z" fill="#6BDAFF"/>
<path d="M363.619 215.891H324.077C323.654 215.891 323.309 215.546 323.309 215.124C323.309 214.701 323.654 214.356 324.077 214.356H363.619C364.042 214.356 364.388 214.701 364.388 215.124C364.388 215.546 364.042 215.891 363.619 215.891Z" fill="#6BDAFF"/>
</g>
</g>
<rect opacity="0.4" x="145.269" y="24.1514" width="81.4178" height="132.138" rx="16" fill="#5BD38C"/>
<rect x="138.934" y="20.0784" width="81.7594" height="132.138" rx="16" fill="#5BD38C"/>
<path d="M46.8624 97.2373C47.0494 97.2373 47.2279 97.1608 47.3554 97.0333L82.0907 62.3028C82.1758 62.2178 82.2353 62.1073 82.2693 61.9968C83.6634 57.4833 83.1449 52.7914 82.7283 50.4114L90.4728 54.8313C90.8128 55.0268 91.2379 54.9078 91.4334 54.5678C91.6289 54.2279 91.5099 53.8029 91.1699 53.6074L82.0567 48.4224C81.8102 48.2779 81.5042 48.3034 81.2831 48.4734C81.0621 48.6434 80.9601 48.9409 81.0366 49.2129C81.0536 49.2724 82.5753 55.0948 81.1726 60.7133C79.7275 59.7613 76.6671 57.4578 75.681 54.4998C75.6044 54.2704 75.4089 54.0919 75.1794 54.0409C74.9414 53.9814 74.6948 54.0579 74.5248 54.2279L41.8723 86.876C41.6597 87.0885 41.6087 87.4114 41.7362 87.6834L46.2418 96.8378C46.3438 97.0418 46.5308 97.1863 46.7604 97.2203C46.8029 97.2203 46.8369 97.2288 46.8794 97.2288L46.8624 97.2373ZM80.4585 61.9373L47.0579 95.3334L43.2069 87.5049L74.7543 55.9703C76.1655 58.8943 79.0559 61.0363 80.4585 61.9458V61.9373Z" fill="#5BD38C"/>
<path d="M46.7934 209.945C47.1793 209.945 47.4897 209.626 47.4897 209.231V96.654C47.4897 96.37 47.3219 96.1033 47.0619 96C46.8018 95.8881 46.5081 95.9484 46.3068 96.1549C45.2581 97.2306 41.1806 96.7573 38.4372 96.1291C39.6118 91.9124 42.8502 87.8851 42.8838 87.842C43.1271 87.5409 43.0851 87.0934 42.7915 86.8438C42.4978 86.5943 42.0616 86.6373 41.8183 86.9385C41.6589 87.1278 37.9757 91.7145 36.9186 96.5077C36.8347 96.8864 37.0613 97.265 37.422 97.3597C38.5211 97.6437 43.4207 98.814 46.1054 97.876V209.248C46.1054 209.644 46.4159 209.962 46.8018 209.962L46.7934 209.945Z" fill="#5BD38C"/>
<path d="M37.5481 210.391C37.9883 210.391 38.3423 210.071 38.3423 209.674V96.8699C38.3423 96.4723 37.9883 96.1525 37.5481 96.1525C37.108 96.1525 36.754 96.4723 36.754 96.8699V209.682C36.754 210.08 37.108 210.4 37.5481 210.4V210.391Z" fill="#5BD38C"/>
<rect width="45.8183" height="5.64203" transform="matrix(-1 0 0 1 65.6304 209.323)" fill="#007F33"/>
<path d="M90.3687 53.579H94.6872C94.7342 53.579 94.7722 53.617 94.7722 53.664V55.976C94.7722 56.0229 94.7342 56.0609 94.6872 56.0609H90.3687C90.3217 56.0609 90.2837 56.0229 90.2837 55.976V53.664C90.2837 53.617 90.3217 53.579 90.3687 53.579Z" fill="#5BD38C"/>
<path d="M92.528 94.2593C79.5745 94.2593 69.0736 93.3041 69.0736 92.1258C69.0736 90.9475 79.4045 89.2358 92.358 89.2358C105.312 89.2358 115.982 90.9475 115.982 92.1258C115.982 93.3041 105.482 94.2593 92.528 94.2593Z" fill="#5BD38C"/>
<path d="M69.1074 91.0716C69.1074 90.9526 69.1244 90.8421 69.1329 90.7231C69.1499 90.4936 69.1669 90.2641 69.1924 90.0346C69.2094 89.8986 69.2264 89.7541 69.2434 89.6181C69.2689 89.4141 69.2945 89.2101 69.3285 89.0061C69.354 88.8616 69.3795 88.7171 69.405 88.5641C69.439 88.3686 69.473 88.1816 69.5155 87.9946C69.5495 87.8416 69.5835 87.6971 69.6175 87.5441C69.66 87.3656 69.7025 87.1786 69.7535 87.0001C69.796 86.8471 69.8385 86.6941 69.881 86.5411C69.932 86.3711 69.983 86.1926 70.0425 86.0226C70.0936 85.8696 70.1446 85.7166 70.2041 85.5636C70.2636 85.3936 70.3231 85.2321 70.3911 85.0706C70.4506 84.9176 70.5101 84.7647 70.5781 84.6117C70.6461 84.4502 70.7141 84.2972 70.7821 84.1442C70.8501 83.9912 70.9182 83.8382 70.9947 83.6767C71.0627 83.5322 71.1392 83.3792 71.2157 83.2347C71.2922 83.0817 71.3772 82.9202 71.4622 82.7672C71.5387 82.6312 71.6152 82.4952 71.6917 82.3592C71.7853 82.1977 71.8788 82.0362 71.9723 81.8747C72.0403 81.7557 72.1168 81.6452 72.1933 81.5262C72.3038 81.3562 72.4058 81.1862 72.5248 81.0162C72.5759 80.9397 72.6269 80.8717 72.6779 80.7952C73.0094 80.3107 73.3665 79.8432 73.7405 79.3927C74.1145 78.9337 74.5141 78.5002 74.9221 78.0667C74.9647 78.0242 74.9987 77.9817 75.0412 77.9392C75.2282 77.7522 75.4237 77.5652 75.6192 77.3782C75.6702 77.3272 75.7212 77.2762 75.7723 77.2337C75.9678 77.0552 76.1633 76.8767 76.3673 76.7068C76.4268 76.6558 76.4778 76.6133 76.5373 76.5623C76.7414 76.3923 76.9454 76.2223 77.1579 76.0608C77.2174 76.0183 77.2684 75.9758 77.3279 75.9248C77.5405 75.7548 77.7615 75.5933 77.9825 75.4403C78.0335 75.4063 78.0845 75.3638 78.144 75.3298C78.3736 75.1683 78.6031 75.0068 78.8411 74.8538C78.8836 74.8283 78.9346 74.7943 78.9771 74.7688C79.2237 74.6073 79.4787 74.4543 79.7337 74.3013C79.7678 74.2843 79.7933 74.2673 79.8273 74.2503C80.0993 74.0888 80.3713 73.9358 80.6519 73.7828C80.6519 73.7828 80.6689 73.7828 80.6689 73.7743C81.0174 73.5873 81.366 73.4173 81.723 73.2473C84.5368 70.8503 86.4411 68.4449 87.4187 66.0479C88.0563 62.3674 88.6769 58.687 89.3144 55.015H95.7157C96.3533 58.6955 96.9739 62.3759 97.6115 66.0479C98.5891 68.4449 100.493 70.8503 103.307 73.2473C104.956 74.0208 106.487 74.9728 107.881 76.0693C107.889 76.0693 107.898 76.0863 107.906 76.0948C108.144 76.2818 108.374 76.4688 108.595 76.6643C108.612 76.6812 108.637 76.6983 108.654 76.7153C108.875 76.9107 109.096 77.1062 109.309 77.3017C109.317 77.3102 109.334 77.3187 109.343 77.3357C109.819 77.7777 110.27 78.2452 110.703 78.7297C111.052 79.1207 111.392 79.5202 111.706 79.9282C111.749 79.9877 111.791 80.0387 111.834 80.0982C111.961 80.2682 112.089 80.4467 112.216 80.6252C112.284 80.7187 112.352 80.8122 112.412 80.9057C112.522 81.0672 112.633 81.2372 112.743 81.4072C112.811 81.5177 112.888 81.6282 112.956 81.7472C113.058 81.9087 113.151 82.0702 113.245 82.2317C113.321 82.3592 113.389 82.4867 113.457 82.6142C113.542 82.7672 113.627 82.9287 113.712 83.0817C113.789 83.2262 113.857 83.3707 113.925 83.5152C114.002 83.6597 114.07 83.8127 114.138 83.9572C114.223 84.1442 114.299 84.3312 114.384 84.5182C114.452 84.6797 114.52 84.8326 114.58 84.9941C114.682 85.2491 114.775 85.4956 114.86 85.7591C114.903 85.8781 114.937 86.0056 114.979 86.1246C115.039 86.3201 115.107 86.5156 115.166 86.7111C115.209 86.8471 115.243 86.9831 115.277 87.1106C115.328 87.2976 115.379 87.4931 115.421 87.6801C115.455 87.8161 115.481 87.9521 115.515 88.0966C115.557 88.2921 115.591 88.4876 115.634 88.6831C115.659 88.8191 115.685 88.9551 115.702 89.0911C115.736 89.2951 115.761 89.4991 115.787 89.7031C115.804 89.8306 115.821 89.9666 115.838 90.1026C115.863 90.3321 115.88 90.5531 115.897 90.7826C115.897 90.8931 115.914 91.0036 115.923 91.1226C115.94 91.4626 115.948 91.8111 115.948 92.1511C115.948 92.1171 115.94 92.0831 115.923 92.0491C115.923 92.0321 115.897 92.0151 115.889 92.0066C115.872 91.9896 115.863 91.9641 115.838 91.9471C115.821 91.9301 115.787 91.9131 115.761 91.8961C115.736 91.8791 115.719 91.8621 115.685 91.8451C115.651 91.8281 115.608 91.8111 115.574 91.7856C115.54 91.7686 115.515 91.7516 115.481 91.7346C115.438 91.7176 115.379 91.6921 115.328 91.6751C115.294 91.6581 115.26 91.6496 115.217 91.6326C115.158 91.6156 115.09 91.5901 115.022 91.5731C114.979 91.5646 114.945 91.5476 114.903 91.5391C114.826 91.5136 114.75 91.4966 114.665 91.4711C114.622 91.4626 114.58 91.4456 114.537 91.4371C114.452 91.4116 114.35 91.3946 114.257 91.3691C114.214 91.3606 114.172 91.3521 114.129 91.3351C114.027 91.3096 113.908 91.2926 113.797 91.2671C113.755 91.2586 113.712 91.2501 113.67 91.2416C113.551 91.2161 113.423 91.1991 113.296 91.1736C113.253 91.1736 113.202 91.1566 113.16 91.1481C113.024 91.1226 112.879 91.1056 112.735 91.0801C112.692 91.0801 112.65 91.0631 112.599 91.0631C112.446 91.0376 112.293 91.0206 112.131 90.9951C112.089 90.9951 112.046 90.9866 111.995 90.9781C111.834 90.9526 111.664 90.9356 111.502 90.9101C111.451 90.9101 111.409 90.8931 111.358 90.8931C111.188 90.8761 111.009 90.8506 110.822 90.8336C110.771 90.8336 110.72 90.8251 110.669 90.8166C110.482 90.7996 110.295 90.7741 110.108 90.7571C110.057 90.7571 109.998 90.7486 109.946 90.7401C109.759 90.7231 109.555 90.7061 109.36 90.6806C105.092 90.2811 99.1162 90.0261 92.4938 90.0261C86.8491 90.0261 81.672 90.2046 77.6255 90.5106C77.3024 90.5361 76.9794 90.5616 76.6734 90.5871C76.6649 90.5871 76.6479 90.5871 76.6394 90.5871C76.3588 90.6126 76.0783 90.6381 75.8148 90.6636C75.7383 90.6636 75.6702 90.6806 75.6022 90.6806C75.3982 90.6976 75.1942 90.7231 74.9902 90.7401C74.9051 90.7486 74.8201 90.7571 74.7351 90.7656C74.5566 90.7826 74.3781 90.7996 74.2081 90.8251C74.1231 90.8336 74.038 90.8421 73.953 90.8506C73.7915 90.8676 73.63 90.8931 73.4685 90.9101C73.3835 90.9186 73.3069 90.9271 73.2304 90.9441C73.0774 90.9611 72.9244 90.9866 72.7799 91.0036C72.7034 91.0121 72.6354 91.0206 72.5589 91.0376C72.4058 91.0631 72.2613 91.0801 72.1168 91.1056C72.0573 91.1141 71.9978 91.1226 71.9468 91.1311C71.7513 91.1651 71.5727 91.1991 71.3942 91.2246C71.2157 91.2586 71.0457 91.2926 70.8842 91.3266C70.8416 91.3351 70.8076 91.3436 70.7736 91.3521C70.6631 91.3776 70.5441 91.4031 70.4421 91.4286C70.3911 91.4371 70.3486 91.4541 70.3061 91.4626C70.2211 91.4881 70.1361 91.5051 70.0595 91.5306C70.017 91.5476 69.9745 91.5561 69.932 91.5731C69.864 91.5986 69.796 91.6156 69.7365 91.6411C69.694 91.6581 69.66 91.6666 69.626 91.6836C69.575 91.7091 69.524 91.7261 69.473 91.7516C69.439 91.7686 69.4135 91.7856 69.388 91.7941C69.3455 91.8196 69.3115 91.8451 69.2774 91.8621C69.2604 91.8791 69.2349 91.8876 69.2179 91.9046C69.1839 91.9301 69.1669 91.9556 69.1414 91.9811C69.1329 91.9896 69.1159 92.0066 69.1074 92.0151C69.0819 92.0576 69.0734 92.0916 69.0734 92.1341C69.0734 91.7771 69.0819 91.4286 69.0989 91.0801L69.1074 91.0716Z" fill="#00A443"/>
<path d="M87.0617 90.2218C87.0617 91.8793 89.4334 93.2223 92.3493 93.2223C95.2652 93.2223 97.637 91.8793 97.637 90.2218" fill="#FFFEFF"/>
<path d="M87.6823 91.361C88.9332 92.6648 90.622 93.0609 92.3579 93.0609C94.5363 92.9348 96.123 92.4265 97.0335 91.361L118.286 156.81H66.4297L86.8322 93.4859L87.6823 91.361Z" fill="url(#paint0_linear_80_38388)"/>
<path d="M254.584 117.493C253.74 118.217 252.036 122.672 252.514 123.359C252.9 123.914 253.8 121.314 253.8 121.314L254.584 117.493Z" fill="#B97964"/>
<path d="M259.016 113.816C259.016 113.816 254.44 116.474 254.368 117.68C254.296 118.886 252.783 124.252 254.408 124.223C254.618 124.219 255.252 122.373 255.428 122.389C255.609 122.406 255.187 123.591 255.436 124.185C255.757 124.952 258.043 124.6 258.372 123.709C258.803 122.55 259.151 121.361 259.415 120.152C259.415 120.152 261.986 118.459 262.374 116.66C262.762 114.861 259.016 113.816 259.016 113.816Z" fill="#B97964"/>
<path d="M260.552 116.816C260.268 117.427 259.8 117.932 259.214 118.259C258.627 118.587 257.953 118.719 257.287 118.638C257.228 119.681 257.023 120.712 256.677 121.697C256.649 121.83 256.592 121.954 256.511 122.062C256.429 122.17 256.325 122.259 256.206 122.322C256.071 122.356 255.928 122.344 255.8 122.289C255.672 122.234 255.566 122.139 255.496 122.017C255.363 121.771 255.291 121.496 255.286 121.216C255.175 119.939 255.225 118.654 255.435 117.39" stroke="#A24E3F" stroke-width="0.5" stroke-linecap="round" stroke-linejoin="round"/>
<path d="M269.922 97.2499L271.445 93.5457L271.395 93.5312C272.687 89.7597 275.824 80.6877 278.224 75.4986C279.903 69.7677 284.757 71.5958 284.757 71.5958C288.024 73.6869 289.723 80.4273 281.981 94.0052L277.661 102.427C277.3 103.342 276.678 104.13 275.873 104.691L262.895 119.271L257.392 113.575L269.922 97.2499Z" fill="#3A3735"/>
<path d="M285.887 55.8659C282.97 56.7174 283.296 52.6557 284.233 50.805C285.835 47.5954 288.803 55.0144 285.887 55.8659Z" fill="#263238"/>
<path d="M291 76.2434C292.592 75.8418 294.079 75.0987 295.358 74.0648C296.638 73.031 297.681 71.7308 298.416 70.2535C297.563 69.7794 296.853 69.0834 296.36 68.2383C295.236 66.3053 294.45 64.193 294.034 61.9928C293.764 60.7284 293.557 59.4512 293.414 58.1659L291.088 61.9132L288.503 66.0133C288.891 66.6315 289.231 67.2792 289.519 67.9504C290.295 69.8402 290.256 71.6602 287.969 73.0582C287.657 74.4629 287.937 77.1104 291 76.2434Z" fill="#B97964"/>
<path d="M295.097 65.6448C295.097 65.6448 293.92 69.7043 289.814 68.8195L289.519 67.9473L295.097 65.6448Z" fill="#A24E3F"/>
<path d="M297.414 52.6658C297.116 51.7927 296.65 50.9874 296.043 50.2957C295.435 49.604 294.699 49.0396 293.875 48.6347C293.051 48.2299 292.156 47.9924 291.241 47.936C290.326 47.8796 289.409 48.0053 288.542 48.3059C283.515 50.0557 282.492 57.5606 283.376 62.1766C284.358 67.3155 290.488 69.9787 294.489 66.2689C297.157 63.8009 297.212 60.8098 297.745 55.7489C297.864 54.7092 297.751 53.6558 297.414 52.6658Z" fill="#B97964"/>
<path d="M281.787 51.8041C281.787 51.8041 282.261 52.3584 282.695 52.171C282.477 51.815 282.37 51.401 282.39 50.9831C282.409 50.5652 282.553 50.163 282.803 49.829C282.803 49.829 283.129 50.6097 283.502 50.6097C283.7 48.7206 284.469 46.9381 285.704 45.5019C287.845 42.8476 295.012 45.8298 295.012 45.8298C295.012 45.8298 296.432 44.5568 299.441 46.6969C302.326 48.7485 302.691 52.9897 301.774 54.7546C301.004 56.5522 299.162 58.3405 296.645 59.3179C295.383 57.8778 295.266 55.6263 295.371 54.0613C294.989 53.9671 294.638 53.7737 294.353 53.5003C293.228 52.4224 294.004 48.4628 289.582 49.244C289.196 49.0133 288.752 48.9002 288.303 48.9182C287.854 48.9362 287.42 49.0846 287.054 49.3455C285.704 50.2438 285.029 54.8592 283.129 53.6018C281.228 52.3443 281.787 51.8041 281.787 51.8041Z" fill="#3A3735"/>
<path d="M300.472 59.991C299.945 61.2861 298.93 62.3179 297.649 62.8603C295.948 63.5665 294.88 62.0848 295.168 60.3517C295.437 58.8143 296.635 56.544 298.435 56.5919C300.235 56.6398 301.099 58.3932 300.472 59.991Z" fill="#B97964"/>
<path d="M296.53 60.6608C296.522 60.7463 296.445 60.8087 296.36 60.8003C296.274 60.7918 296.211 60.7153 296.22 60.6297L296.53 60.6608ZM298.275 57.8777C298.475 57.851 298.679 57.8781 298.865 57.9545L298.944 57.9898L298.971 58.0069C299.028 58.0517 299.048 58.132 299.014 58.1995C298.98 58.2669 298.904 58.2993 298.834 58.2806L298.805 58.269L298.747 58.2434C298.611 58.1876 298.463 58.1679 298.316 58.1873C298.149 58.2095 297.991 58.2813 297.865 58.3939L297.858 58.4L297.851 58.4055C297.482 58.6627 297.172 58.9975 296.944 59.3868C296.716 59.7761 296.575 60.211 296.53 60.6608L296.375 60.6449L296.22 60.6297C296.269 60.1352 296.425 59.6572 296.675 59.229C296.925 58.803 297.263 58.4362 297.666 58.1538C297.838 58.004 298.049 57.9076 298.275 57.8777Z" fill="#A24E3F"/>
<path d="M278.07 198.29L273.956 209.445L270.228 208.235L271.512 196.461L278.07 198.29Z" fill="#3A3735"/>
<path d="M274.361 214.142L270.98 214.116C270.648 213.928 270.278 213.817 269.898 213.792C269.498 213.839 268.104 214.094 268.104 214.094L259.128 214.026C259.194 213.683 259.284 213.345 259.397 213.014C259.506 212.69 259.651 212.378 259.828 212.085C260.047 211.704 260.36 211.387 260.737 211.164C261.113 210.941 261.541 210.82 261.978 210.812C263.236 210.742 267.211 208.12 267.211 208.12C267.631 207.962 267.998 207.688 268.268 207.329C268.539 206.97 268.702 206.541 268.739 206.092C268.773 205.517 269.624 204.821 270.027 204.764C270.848 204.651 271.301 205.177 271.414 206.002L271.545 206.961L273.443 206.677C273.443 206.677 275.378 205.716 275.279 206.663C275.221 207.203 274.879 209.609 274.661 211.518C274.61 211.963 274.562 212.384 274.519 212.751C274.425 213.578 274.361 214.142 274.361 214.142Z" fill="#3A3735"/>
<g opacity="0.2">
<path d="M259.126 214.024L268.102 214.092C268.102 214.092 269.496 213.836 269.896 213.79C270.276 213.816 270.646 213.926 270.978 214.115L274.358 214.14C274.358 214.14 274.423 213.577 274.517 212.757L259.393 213.013C259.281 213.344 259.192 213.682 259.126 214.024Z" fill="white"/>
</g>
<path d="M304.913 196.519L306.56 208.659L310.497 208.859L311.771 197.156L304.913 196.519Z" fill="#3A3735"/>
<path d="M313.848 214.293H305.041C305.041 214.293 304.849 213.921 305.069 212.932C305.102 212.778 305.146 212.608 305.203 212.424C305.206 212.414 305.208 212.405 305.211 212.396C305.293 212.122 305.388 211.785 305.488 211.422C305.892 209.941 306.367 208.007 306.367 208.007C306.367 208.007 307.83 204.855 309.546 205.642C311.05 206.332 310.693 208.308 310.693 208.308C310.867 209.16 311.321 209.928 311.981 210.49C312.686 211.121 313.387 211.611 313.727 212.397C313.792 212.55 313.842 212.709 313.875 212.871C313.879 212.892 313.883 212.914 313.886 212.935C313.958 213.386 313.945 213.847 313.848 214.293Z" fill="#3A3735"/>
<g opacity="0.2">
<path d="M305.07 212.933C304.85 213.923 305.042 214.294 305.042 214.294H313.848C313.945 213.847 313.957 213.385 313.884 212.933H305.07Z" fill="white"/>
</g>
<path d="M314.014 119.519L295.002 119.681L283.945 117.736C283.945 117.736 275.302 154.529 274.613 161.159C273.923 167.788 266.648 205.159 266.648 205.159L276.295 206.705C276.295 206.705 287.225 167.357 287.963 163.77C288.606 160.644 295.716 140.603 297.531 135.506C297.713 136.549 297.901 137.598 298.092 138.636C298.551 143.334 300.024 158.317 300.665 163.889C300.665 163.889 303.078 197.598 303.419 207.16L312.481 206.702C313.599 193.574 313.979 145.756 313.979 145.756C314.603 135.744 314.014 119.519 314.014 119.519Z" fill="#0DA9FF"/>
<g opacity="0.5">
<path d="M288.177 124.592C287.632 126.355 286.662 127.957 285.355 129.255C284.047 130.552 282.441 131.506 280.679 132.032C280.641 132.044 280.608 132.071 280.589 132.106C280.57 132.142 280.565 132.184 280.576 132.223C280.586 132.262 280.612 132.295 280.647 132.316C280.681 132.337 280.723 132.343 280.762 132.333C282.575 131.792 284.228 130.81 285.573 129.474C286.919 128.138 287.916 126.49 288.476 124.674C288.534 124.484 288.235 124.4 288.177 124.592Z" fill="#00402A"/>
<path d="M297.835 124.591C297.625 127.698 297.417 130.806 297.211 133.916C297.201 134.117 296.892 134.117 296.902 133.916C297.012 132.323 297.118 130.726 297.221 129.127C296.458 129.719 295.566 129.002 295.316 128.21C294.973 126.866 294.996 125.453 295.381 124.121C295.392 124.081 295.417 124.047 295.453 124.026C295.489 124.006 295.531 124 295.57 124.011C295.61 124.021 295.644 124.047 295.665 124.083C295.685 124.119 295.691 124.161 295.68 124.201C295.451 125.099 295.366 126.027 295.426 126.951C295.428 127.447 295.528 127.938 295.72 128.395C295.964 128.875 296.583 129.281 297.077 128.846C297.098 128.825 297.126 128.812 297.155 128.807C297.184 128.803 297.214 128.807 297.241 128.82C297.335 127.412 297.43 125.999 297.524 124.591C297.535 124.39 297.845 124.39 297.835 124.591Z" fill="#00402A"/>
<path d="M306.927 125.12C306.909 127.106 307.642 129.024 308.977 130.489C310.311 131.953 312.149 132.855 314.119 133.011C314.315 133.027 314.314 132.721 314.119 132.706C312.23 132.55 310.469 131.681 309.191 130.274C307.913 128.866 307.213 127.025 307.232 125.12C307.232 125.08 307.216 125.041 307.187 125.012C307.159 124.983 307.12 124.967 307.079 124.967C307.039 124.967 307 124.983 306.972 125.012C306.943 125.041 306.927 125.08 306.927 125.12Z" fill="#00402A"/>
</g>
<path d="M300.222 69.2922H297.793L295.984 67.5637C295.984 67.5637 291.422 72.634 291.357 72.4628C291.291 72.2915 289.914 69.2922 289.914 69.2922L289.039 70.3539L286.852 70.4715L282.325 78.1534L283.302 89.1922L295.285 92.658L300.222 69.2922Z" fill="#263238"/>
<path d="M300.222 69.2922H297.793L295.984 67.5637C295.984 67.5637 291.422 72.634 291.357 72.4628C291.291 72.2915 289.914 69.2922 289.914 69.2922L289.039 70.3539L286.852 70.4715L282.325 78.1534L286.799 105.068L295.285 92.658L300.222 69.2922Z" fill="#FFFEFF"/>
<path d="M289.844 75.6934C288.947 80.4224 288.421 85.2151 288.272 90.0272C288.776 91.0681 290.107 96.1847 290.713 97.2095C291.155 96.0385 292.052 93.0589 292.58 91.8795C292.107 86.7874 290.643 78.2728 290.914 75.5627L289.844 75.6934Z" fill="#6BDAFF"/>
<path d="M289.984 78.1261L289.369 74.9783L291.066 73.2473L292.306 74.9497L289.984 78.1261Z" fill="#6BDAFF"/>
<path d="M314.596 123.152L295.368 125.119L292.04 117.14L288.885 124.379L281.62 122.041L284.618 107.288C283.09 96.6165 280.757 88.9814 279.815 83.0352C278.608 75.4053 281.868 71.5508 281.868 71.5508C287.444 70.2497 287.871 70.3252 287.871 70.3252C282.829 78.0992 290.713 97.2046 290.713 97.2046C295.235 84.4264 300.224 69.291 300.224 69.291C303.641 69.4292 306.999 70.2306 310.114 71.6513C310.114 71.6513 309.198 97.7989 311.805 105.203C314.411 112.608 314.596 123.152 314.596 123.152Z" fill="#3A3735"/>
<path opacity="0.2" d="M302.086 69.9311C301.565 71.5753 301.743 73.3564 301.964 75.0968C302.184 76.8298 302.438 78.6346 302.03 80.3626C301.63 82.0573 300.423 83.7055 298.709 84.0782C299.3 87.3747 297.565 90.5404 295.401 92.8384C295.02 93.2433 294.589 93.6322 294.153 94.0215C293.715 94.4117 293.273 94.8024 292.863 95.215C292.042 96.0403 291.363 96.9422 291.132 98.0706C290.875 99.3256 290.994 100.709 291.208 102.107C291.42 103.497 291.728 104.913 291.833 106.199C292.116 109.694 292.139 113.205 291.904 116.703L291.686 116.689C291.921 113.201 291.897 109.7 291.616 106.216C291.511 104.94 291.208 103.551 290.992 102.14C290.778 100.737 290.653 99.3217 290.918 98.0267C291.162 96.8365 291.876 95.8973 292.708 95.0607C293.124 94.6425 293.572 94.2468 294.008 93.8581C294.444 93.4684 294.868 93.0855 295.242 92.6885C297.409 90.3872 299.105 87.2471 298.477 84.0142L298.456 83.9064L298.564 83.8862C300.218 83.5811 301.421 81.9931 301.817 80.3126C302.214 78.6306 301.968 76.8679 301.747 75.1243C301.526 73.388 301.34 71.5613 301.877 69.8652L302.086 69.9311Z" fill="black"/>
<path opacity="0.2" d="M286.7 70.6962L286.788 70.7614C285.611 72.3323 284.601 74.0232 283.774 75.8059C282.954 77.5885 282.71 79.5855 283.076 81.5154L283.125 81.6897C283.259 82.0858 283.518 82.417 283.788 82.7667C284.092 83.1596 284.409 83.5762 284.506 84.1144C284.588 84.5644 284.469 85.1125 284.35 85.6321C284.229 86.1654 284.107 86.6709 284.151 87.0767C284.343 88.8606 285.381 90.6997 286.689 92.4357C287.996 94.1701 289.561 95.7859 290.794 97.1291L290.633 97.2766C289.406 95.9396 287.83 94.3126 286.515 92.5673C285.2 90.8233 284.132 88.9445 283.934 87.0999C283.886 86.649 284.02 86.101 284.138 85.5834C284.244 85.1184 284.337 84.6768 284.31 84.3076L284.291 84.154C284.205 83.6755 283.923 83.2984 283.615 82.9002C283.313 82.5087 282.985 82.0952 282.863 81.5641L282.862 81.5605C282.486 79.5847 282.736 77.5397 283.576 75.7145L283.735 75.3786C284.537 73.7053 285.501 72.1152 286.613 70.631L286.7 70.6962Z" fill="black"/>
<path d="M310.179 96.6593L310.179 93.3984L307.626 84.646L302.808 96.6593L310.528 98.5772L310.179 96.6593Z" fill="#292523"/>
<path d="M301.813 94.7929L311.07 95.2772L309.002 89.7408L306.623 82.0012L306.483 70.6998C306.483 70.6998 311.921 70.1489 314.044 76.0294C314.526 77.3617 315.473 79.3899 316.105 81.6626C317.711 87.4362 320.126 93.3041 321.053 100.113C321.698 104.849 316.934 107.291 315.565 107.07C311.939 106.485 300.401 100.596 300.401 100.596L301.813 94.7929Z" fill="#3A3735"/>
<path d="M299.524 104.738C299.796 104.61 300.006 104.379 300.108 104.094C300.21 103.81 300.196 103.495 300.069 103.22L292.916 85.8427C292.726 85.445 292.418 85.1169 292.034 84.9045C291.651 84.692 291.212 84.6059 290.779 84.658L277.123 86.5607C276.936 86.5673 276.755 86.6204 276.594 86.7154C276.433 86.8103 276.298 86.9441 276.201 87.1048C276.104 87.2654 276.048 87.4481 276.037 87.6363C276.027 87.8246 276.063 88.0127 276.142 88.1838L283.296 105.561C283.486 105.959 283.794 106.288 284.178 106.502C284.561 106.715 285 106.802 285.434 106.751L299.09 104.843C299.24 104.838 299.388 104.802 299.524 104.738Z" fill="#615D5A"/>
<path d="M298.123 104.934C298.395 104.807 298.605 104.576 298.708 104.291C298.81 104.007 298.796 103.692 298.67 103.417L291.516 86.0394C291.326 85.6424 291.019 85.3145 290.637 85.101C290.255 84.8875 289.817 84.799 289.384 84.8477L275.721 86.7571C275.535 86.7637 275.353 86.8168 275.192 86.9118C275.031 87.0067 274.897 87.1405 274.799 87.3012C274.702 87.4619 274.646 87.6445 274.636 87.8327C274.626 88.021 274.662 88.2091 274.741 88.3802L281.9 105.757C282.09 106.154 282.397 106.482 282.779 106.695C283.161 106.908 283.599 106.997 284.032 106.948L297.694 105.039C297.843 105.033 297.988 104.997 298.123 104.934Z" fill="#89837E"/>
<path d="M284.732 94.8689C284.723 94.7313 284.74 94.5934 284.784 94.463C284.828 94.3326 284.896 94.2123 284.986 94.1089C285.076 94.0055 285.185 93.9211 285.307 93.8605C285.429 93.7999 285.562 93.7642 285.698 93.7556C286.091 93.7143 286.487 93.7988 286.83 93.9971C287.173 94.1954 287.447 94.4975 287.612 94.8607C287.671 94.9832 287.705 95.1162 287.713 95.252C287.729 95.5276 287.637 95.7981 287.455 96.0039C287.274 96.2097 287.019 96.334 286.747 96.3495C286.354 96.391 285.958 96.3071 285.614 96.1097C285.27 95.9123 284.996 95.6112 284.829 95.2488C284.774 95.1293 284.741 95.0005 284.732 94.8689Z" fill="#B0A9A3"/>
<path d="M295.179 92.2032C295.179 92.2032 291.347 92.5373 291.262 93.0017C291.177 93.4661 291.127 94.3595 292.534 94.646C292.534 94.646 291.613 95.6183 293.109 97.1977L293.436 97.493C293.436 97.493 292.784 98.8865 294.5 99.9152C296.217 100.944 298.646 100.857 300.243 100.529C301.84 100.201 302.259 95.3674 302.086 95.1381L300.192 94.7462C298.383 92.5589 294.866 90.6867 294.866 90.6867L295.179 92.2032Z" fill="#B97964"/>
<path opacity="0.2" d="M302.242 111.564C305.39 111.118 307.244 110.32 310.33 109.549L308.343 106.722C305.883 107.413 303.407 108.046 300.917 108.621L302.242 111.564Z" fill="black"/>
<path d="M152.475 94.4315C152.527 94.9349 150.311 104.353 150.909 107.581C151.508 110.81 155.937 123.155 155.192 125.162C154.447 127.17 145.006 124.377 145.006 124.377L132.722 77.8966C133.471 77.2044 140.848 76.7689 143.568 78.8992C143.859 79.1269 145.103 80.2751 145.422 80.5297C148.057 82.6279 151.66 86.6448 152.475 94.4315Z" fill="#3A3735"/>
<path d="M162.315 70.2793C162.17 70.3544 163.38 66.7157 162.622 66.3908C162.2 66.2109 162.135 66.2236 161.458 67.7778C160.781 69.3321 159.075 74.1525 159.066 75.001C159.056 75.8496 160.103 76.8783 160.427 77.4191C160.75 77.9599 159.745 83.7199 159.745 83.7199L163.826 82.0458L164.19 77.526C164.19 77.526 166.24 73.6128 165.984 73.0454C165.728 72.478 164.723 72.0916 164.723 72.0916C164.723 72.0916 165.305 70.8669 163.678 70.8676C163.678 70.8676 163.617 69.602 162.315 70.2793Z" fill="#FDC7B5"/>
<path d="M159.658 75.0757C159.676 74.7972 159.753 74.5257 159.883 74.2787C160.012 74.0318 160.193 73.8149 160.412 73.6423C160.786 73.4776 161.208 73.4586 161.595 73.589C162.15 73.7257 162.681 73.9443 163.172 74.2379C163.219 74.2584 163.261 74.289 163.295 74.3276C163.329 74.3661 163.355 74.4117 163.369 74.4611C163.37 74.5101 163.359 74.5585 163.338 74.6029C163.317 74.6473 163.287 74.6866 163.249 74.7179C162.996 74.9667 162.662 75.1157 162.308 75.1375C161.954 75.1593 161.603 75.0525 161.322 74.8368C161.371 75.2722 161.291 75.7127 161.09 76.1024" stroke="#EFA188" stroke-width="0.15" stroke-miterlimit="10"/>
<path d="M162.345 70.2512C161.863 71.1135 161.628 72.0919 161.665 73.079C161.654 73.268 161.714 73.4543 161.832 73.6016" stroke="#EFA188" stroke-width="0.15" stroke-miterlimit="10"/>
<path d="M165.898 73.0813L164.96 74.8376C164.886 74.9989 164.784 75.1455 164.658 75.2702C164.595 75.3315 164.516 75.3747 164.43 75.395C164.345 75.4153 164.255 75.412 164.171 75.3856C164.087 75.3425 164.017 75.2763 163.97 75.1948C163.923 75.1132 163.899 75.0197 163.903 74.9254C163.886 74.7606 163.906 74.594 163.96 74.4376C164.269 73.6514 164.445 72.9151 164.753 72.1315" stroke="#EFA188" stroke-width="0.15" stroke-miterlimit="10"/>
<path d="M162.779 74.0184C162.912 72.9646 163.207 71.9378 163.655 70.9748" stroke="#EFA188" stroke-width="0.15" stroke-miterlimit="10"/>
<path d="M160.046 78.3724L156.923 87.5435C156.923 87.5435 155.999 86.2427 153.419 84.2771C150.786 82.2708 146.283 78.977 143.652 79.9065C142.786 80.2136 141.517 80.4976 141.117 80.9533C137.957 84.551 148.486 92.1736 148.486 92.1736C148.486 92.1736 157.112 97.2389 159.831 97.143C162.55 97.0472 164.622 80.8667 164.622 80.8667L160.046 78.3724Z" fill="#3A3735"/>
<path d="M151.595 99.5498C152.143 96.2818 154.944 90.3314 146.664 81.5485" stroke="black" stroke-width="0.25" stroke-miterlimit="10"/>
<path d="M108.932 213.945C108.683 213.306 108.315 212.72 107.848 212.218C107.848 212.218 107.112 209.598 109.186 204.118L107.301 202.302C106.973 201.998 106.56 201.801 106.116 201.737C105.673 201.673 105.221 201.745 104.82 201.943C104.704 201.992 104.598 202.063 104.51 202.154C104.09 202.616 103.701 203.106 103.346 203.62C102.161 205.383 101.083 207.217 100.119 209.11L100.512 209.352L102.652 205.974C103.381 204.823 103.511 206.726 103.038 208.131C102.565 209.535 102.344 211.201 104.924 212.734C107.943 214.511 109.294 215.087 108.932 213.945Z" fill="#3A3735"/>
<path d="M109.849 202.112C109.849 202.112 108.988 204.669 108.279 207.635C107.837 209.12 107.691 210.678 107.848 212.219C107.848 212.219 105.691 211.464 105.598 209.687C105.505 207.909 106.903 202.836 104.795 201.96C105.146 201.722 105.524 201.528 105.921 201.381C106.516 201.11 109.849 202.112 109.849 202.112Z" fill="#FDC7B5"/>
<path d="M146.475 213.452C145.941 213.014 145.33 212.679 144.673 212.466C144.673 212.466 142.731 210.533 141.826 204.753L139.281 204.074C138.847 203.965 138.39 203.991 137.972 204.148C137.553 204.305 137.192 204.586 136.937 204.954C136.86 205.053 136.804 205.167 136.773 205.289C136.635 205.896 136.538 206.511 136.484 207.13C136.323 209.241 136.291 211.359 136.388 213.473L136.851 213.495L137.045 209.518C137.11 208.163 138.167 209.761 138.451 211.216C138.734 212.67 139.367 214.229 142.379 214.327C145.893 214.421 147.357 214.274 146.475 213.452Z" fill="#3A3735"/>
<path d="M141.41 202.684C141.41 202.684 141.926 205.33 142.778 208.259C143.13 209.772 143.773 211.201 144.671 212.467C144.671 212.467 142.417 212.843 141.453 211.338C140.489 209.833 139.196 204.732 136.922 204.98C137.11 204.605 137.344 204.253 137.617 203.934C138.005 203.412 141.41 202.684 141.41 202.684Z" fill="#FDC7B5"/>
<path d="M147.751 109.748C147.751 109.748 154.319 125.849 149.105 151.582C148.968 166.565 143.655 203.218 143.655 203.218C141.886 203.713 136.291 203.372 134.488 203.003C134.488 203.003 134.33 173.864 135.588 149.455C131.782 124.404 132.041 111.144 132.041 111.144L147.751 109.748Z" fill="#0DA9FF"/>
<path d="M144.358 110.597C144.358 110.597 137.978 143.531 133.653 157.67C129.108 172.515 112.067 203.545 111.556 204.538C109.484 204.087 105.134 202.304 103.866 201.191C103.866 201.191 113.863 170.898 119.728 154.735C121.058 146.449 121.969 141.6 121.734 132.83C121.298 116.572 128.954 109.578 128.954 109.578L144.358 110.597Z" fill="#0DA9FF"/>
<path d="M140.759 128.211L146.207 123.838L141.626 130.596L136.388 151.748L135.483 151.043L140.759 128.211Z" fill="#007ACB"/>
<path d="M148.841 88.637C148.841 88.637 151.596 94.791 149.864 98.414C146.355 108.928 150.715 109.4 149.369 111.341C147.359 112.924 134.979 115.044 128.482 110.008C129.345 105.732 129.545 98.384 126.378 86.2101C126.214 85.5395 126.192 84.8419 126.314 84.1623C126.435 83.4826 126.697 82.8359 127.084 82.2637C127.47 81.6915 127.972 81.2065 128.557 80.8399C129.142 80.4733 129.798 80.2332 130.481 80.135C131.259 80.0256 132.088 79.9188 132.939 79.8415C135.477 79.5378 138.035 79.4402 140.588 79.5496C141.107 79.5743 140.684 79.487 142.265 79.8599C142.265 79.8599 145.43 82.2074 146.325 83.6191C147.258 85.2427 148.098 86.9181 148.841 88.637Z" fill="white"/>
<path d="M147.026 98.6223C146.004 100.913 144.208 102.771 141.952 103.868C143.492 104.093 145.035 103.588 146.507 103.091C145.711 103.868 144.698 104.385 143.602 104.576C142.506 104.766 141.378 104.621 140.365 104.159C142.497 102.339 144.894 100.442 147.026 98.6223Z" fill="#D8CFC7"/>
<path d="M121.017 73.9224C121.273 73.1009 121.894 72.4755 122.384 71.7822C123.259 70.4235 123.864 68.9086 124.165 67.3208C124.468 65.7306 124.868 64.1602 125.361 62.6185C125.85 61.0863 126.819 59.7521 128.125 58.8135C128.771 58.3695 129.535 58.1294 130.318 58.1241C131.102 58.1189 131.869 58.3488 132.521 58.7841L133.195 58.8993C132.004 63.8961 132.41 69.1654 131.59 74.2438C131.382 75.5288 131.064 76.8648 130.209 77.81C128.842 79.3238 126.516 79.3653 124.602 78.7615C123.531 78.4691 122.562 77.8867 121.801 77.0784C121.419 76.6585 121.147 76.1503 121.011 75.5994C120.874 75.0485 120.876 74.4723 121.017 73.9224Z" fill="#E3850D"/>
<path d="M131.753 58.9189C133.286 57.4256 134.699 56.5414 136.723 56.2306C138.499 55.9581 141.013 56.1575 142.634 57.0327C144.838 58.223 146.172 60.7914 147.012 63.3514C147.952 66.2174 146.801 69.7342 145.458 72.3699C144.902 73.4613 144.406 73.9089 143.313 73.7995L142.907 74.3739C139.594 75.3843 136.585 78.8868 130.382 69.387C128.331 66.2432 129.175 61.431 131.753 58.9189Z" fill="#E3850D"/>
<path d="M140.182 79.3439C139.663 78.8974 139.859 77.9332 139.935 76.9954C140.007 76.2394 140.171 75.495 140.423 74.7789L139.399 73.7874L134.108 69.3691C134.514 72.5871 135.639 77.7576 133.232 79.731L131.871 79.9046C132.759 80.5037 135.204 83.4745 140.488 83.7022C143.349 83.8258 142.705 80.9335 141.877 79.7211C140.574 79.4381 140.182 79.3439 140.182 79.3439Z" fill="#FDC7B5"/>
<path d="M139.967 77.4113C138.559 77.1583 136.506 76.3389 136.091 74.7883C135.942 74.233 135.874 73.6592 135.888 73.0846L140.17 75.4436C140.151 76.0575 139.831 76.5393 139.967 77.4113Z" fill="#EFA188"/>
<path d="M131.823 64.3392C132.738 69.2188 133.02 71.2975 135.838 73.6455C140.076 77.177 145.921 75.3339 146.495 70.3639C147.012 65.893 145.429 58.6633 140.332 57.037C135.311 55.4348 130.909 59.4581 131.823 64.3392Z" fill="#FDC7B5"/>
<path d="M134.567 72.7775C129.539 69.8657 128.375 57.3398 137.089 56.2521C145.803 55.1644 147.05 66.9422 147.05 66.9422C143.541 59.8788 135.931 59.8072 135.931 59.8072C137.785 63.5486 134.491 66.2027 134.491 66.2027C133.394 68.7821 134.566 71.6156 134.567 72.7775Z" fill="#E3850D"/>
<path d="M138.357 63.1555C138.871 62.9656 139.43 62.9372 139.961 63.0742C140.491 63.2112 140.967 63.507 141.325 63.922C141.682 64.337 141.905 64.8513 141.962 65.3961C142.019 65.941 141.908 66.4902 141.644 66.9704C141.381 67.4505 140.976 67.8386 140.486 68.0826C139.996 68.3267 139.442 68.415 138.9 68.3358C138.358 68.2566 137.853 68.0137 137.453 67.6395C137.053 67.2654 136.777 66.7779 136.661 66.2424C136.48 65.6083 136.557 64.9283 136.874 64.3503C137.192 63.7722 137.725 63.3429 138.357 63.1555Z" stroke="#263238" stroke-width="0.5" stroke-linecap="round" stroke-linejoin="round"/>
<path d="M144.934 62.5635C145.447 62.3736 146.007 62.3452 146.537 62.4822C147.068 62.6192 147.544 62.915 147.901 63.33C148.259 63.7449 148.481 64.2593 148.538 64.8041C148.595 65.3489 148.485 65.8982 148.221 66.3783C147.957 66.8585 147.553 67.2465 147.063 67.4906C146.572 67.7346 146.019 67.823 145.477 67.7438C144.935 67.6646 144.43 67.4216 144.03 67.0475C143.63 66.6734 143.353 66.1859 143.238 65.6504C143.057 65.0162 143.133 64.3362 143.451 63.7582C143.768 63.1802 144.301 62.7508 144.934 62.5635Z" stroke="#263238" stroke-width="0.5" stroke-linecap="round" stroke-linejoin="round"/>
<path d="M141.983 65.4209C141.983 65.4209 142.616 64.8084 143.165 65.2459" stroke="#263238" stroke-width="0.5" stroke-linecap="round" stroke-linejoin="round"/>
<path d="M136.656 66.2435L133.003 66.4748C132.524 66.5079 132.086 66.7502 131.784 67.1485L131.659 67.3199" stroke="#263238" stroke-width="0.5" stroke-linecap="round" stroke-linejoin="round"/>
<path d="M130.684 68.4859C131.302 69.354 132.236 69.9437 133.285 70.127C134.638 70.3347 135.126 68.1808 134.554 66.9148C134.282 66.3435 133.816 65.887 133.239 65.626C132.663 65.365 132.012 65.3162 131.403 65.4883C130.159 65.8549 129.902 67.3924 130.684 68.4859Z" fill="#FDC7B5"/>
<path d="M132.429 66.6642C132.231 66.6106 132.02 66.6339 131.838 66.7295C131.657 66.8252 131.518 66.986 131.45 67.1797C131.305 67.6068 131.593 68.5646 132.91 68.7987" stroke="#EFA188" stroke-width="0.5" stroke-linecap="round" stroke-linejoin="round"/>
<path d="M135.747 59.8433C135.974 60.2286 136.087 60.6705 136.072 61.1175C136.058 61.5645 135.917 61.9982 135.665 62.368C135.112 63.0486 134.38 63.5621 133.552 63.8513C132.211 64.3914 130.771 64.6448 129.326 64.595" stroke="#C66D00" stroke-width="0.25" stroke-miterlimit="10"/>
<path d="M132.082 58.6688C130.446 60.1921 129.408 62.2492 129.154 64.4699C129.003 66.5554 129.553 68.5726 131.844 71.455" stroke="#C66D00" stroke-width="0.25" stroke-miterlimit="10"/>
<path d="M135.332 59.991C135.015 60.9774 134.339 61.8092 133.438 62.3221C132.526 62.8318 131.458 62.988 130.438 62.7608" stroke="#C66D00" stroke-width="0.25" stroke-miterlimit="10"/>
<path d="M133.419 78.0484C133.703 79.6663 137.635 96.4742 138.1 101.417C138.566 106.36 133.067 126.686 131.668 127.983C130.269 129.28 119.694 122.172 120.105 122.055C120.515 121.938 125.354 110.689 126.236 106.275C127.118 101.86 125.808 84.5753 125.632 82.6939C125.457 80.8124 128.373 80.9581 131.264 79.7484L132.723 77.8995L133.419 78.0484Z" fill="#3A3735"/>
<path opacity="0.3" d="M123.977 111.974L125.226 119.521L123.955 119.759C123.955 119.759 125.966 124.63 125.762 125.828L122.898 124.46L121.28 117.228L123.977 111.974Z" fill="black"/>
<path d="M128.723 80.7406C127.079 80.8327 124.239 81.8226 123.694 83.2128C121.647 88.4384 117.581 100.723 116.728 103.685C116.187 105.562 118.137 119.787 118.137 119.787L124.197 118.893C124.197 118.893 122.797 105.27 123.205 104.351C124.731 100.915 130.464 91.6022 131.165 88.4916C131.866 85.3809 132.533 82.5158 130.782 81.233C130.162 80.8633 129.444 80.6915 128.723 80.7406Z" fill="#3A3735"/>
<path d="M119.564 119.579C119.764 120.571 119.364 121.588 119.233 122.339C119.023 123.546 119.889 124.653 119.741 125.17C119.346 126.548 117.628 128.667 118.31 129.153C118.992 129.638 120.562 127.108 120.562 127.108C120.562 127.108 119.225 130.017 119.873 130.453C120.771 131.057 120.898 130.676 120.898 130.676C120.975 130.845 121.11 130.98 121.278 131.056C121.447 131.133 121.638 131.145 121.815 131.091C122.211 130.972 123.368 129.311 123.808 126.732C123.808 126.732 123.864 127.574 123.834 128.941C123.822 129.487 123.443 130.098 123.595 130.748C123.805 131.658 125.133 130.222 125.265 128.666C125.397 127.109 124.555 124.317 123.925 122.347C123.856 122.131 123.763 121.874 123.658 121.594L122.906 119.082" fill="#FDC7B5"/>
<path d="M120.792 130.624C121.884 128.924 122.451 127.885 122.251 125.228" stroke="#EFA188" stroke-width="0.25" stroke-miterlimit="10"/>
<path d="M120.503 127.191C120.575 126.966 120.647 126.742 120.719 126.518C120.815 126.249 120.885 125.97 120.929 125.687C120.973 125.403 120.936 125.111 120.824 124.846" stroke="#EFA188" stroke-width="0.25" stroke-miterlimit="10"/>
<path d="M136.864 96.0671C135.666 94.3457 134.493 92.6069 133.346 90.8509C132.922 90.3289 132.679 89.6825 132.655 89.0099C132.707 88.3624 133.163 87.778 133.125 87.1295C133.073 86.1738 132.033 85.6231 131.442 84.8609C130.915 84.1106 130.692 83.1882 130.818 82.2799C130.971 81.3635 131.236 80.4694 131.607 79.6179" stroke="black" stroke-width="0.25" stroke-miterlimit="10"/>
<path d="M126.578 98.2877C127.801 96.045 128.828 93.7005 129.646 91.2805" stroke="black" stroke-width="0.25" stroke-miterlimit="10"/>
<path d="M131.331 114.905L126.334 112.058" stroke="black" stroke-width="0.25" stroke-miterlimit="10"/>
<path d="M339.485 96.2436C339.598 96.2251 344.244 98.5847 344.244 98.5847L346.474 93.1476L342.721 93.176C342.721 93.176 339.297 96.1682 339.392 96.2061" fill="#FDC7B5"/>
<path d="M342.912 93.2388C342.912 93.2388 342.841 91.4958 341.774 90.5307C340.707 89.5657 340.11 88.5097 339.268 87.8477C338.425 87.1856 338.704 88.609 339.005 89.336C339.306 90.0629 339.64 90.8902 339.06 91.029C338.48 91.1678 333.56 89.7109 332.778 89.9955C331.996 90.2801 332.718 90.7654 332.718 90.7654C332.718 90.7654 331.612 90.4474 331.257 90.8887C330.901 91.3301 331.536 91.74 331.536 91.74C331.536 91.74 330.786 91.5523 330.715 92.0985C330.644 92.6447 334.416 94.445 334.541 94.6193C334.541 94.6193 332.643 93.1604 332.106 93.6232C331.57 94.0861 332.891 94.9243 333.931 95.6153C334.994 96.3399 336.275 96.6708 337.554 96.5515C338.818 96.4017 341.018 96.8131 341.794 95.5579C342.252 94.8291 342.627 94.0512 342.912 93.2388Z" fill="#FDC7B5"/>
<path d="M331.663 91.8996C332.924 92.2716 334.171 92.6855 335.393 93.1413C335.284 93.4676 335.199 93.8013 335.138 94.1398C335.112 94.3091 335.374 94.2896 335.406 94.1224C335.603 93.0688 336.027 92.0714 336.648 91.2001C336.751 91.0528 336.535 90.944 336.433 91.0913C336.277 91.3129 336.133 91.5429 336.002 91.7803C335.998 91.7687 335.991 91.7582 335.983 91.7496C335.974 91.7409 335.964 91.7344 335.952 91.7304C335.013 91.2976 334.026 90.9803 333.012 90.7852C332.854 90.7583 332.76 91.0089 332.924 91.0409C333.916 91.2303 334.881 91.5398 335.799 91.9625C335.835 91.9765 335.667 92.3475 335.7 92.3335C335.604 92.5093 335.531 92.6963 335.481 92.8902C334.259 92.4338 333.015 92.0198 331.751 91.648C331.598 91.605 331.51 91.8547 331.663 91.8996Z" fill="#EFA188"/>
<path d="M336.945 92.7958C337.612 92.5995 338.324 92.633 338.97 92.8909C339.615 93.1489 340.156 93.6165 340.506 94.2192C340.581 94.3575 340.822 94.2157 340.747 94.0779C340.022 92.7599 338.542 92.1807 336.902 92.5517C336.885 92.5534 336.868 92.5587 336.854 92.5671C336.839 92.5755 336.826 92.5869 336.816 92.6005C336.805 92.6142 336.798 92.6298 336.794 92.6464C336.79 92.663 336.79 92.6803 336.793 92.6971C336.796 92.7139 336.802 92.7299 336.811 92.7442C336.821 92.7584 336.833 92.7705 336.847 92.7798C336.862 92.7891 336.878 92.7953 336.895 92.798C336.911 92.8008 336.928 92.8 336.945 92.7958Z" fill="#EFA188"/>
<path d="M361.852 72.052C361.914 72.1593 361.981 72.2677 362.055 72.3725C359.798 74.1334 362.1 76.4506 362.796 76.8105C363.326 77.0927 363.894 77.2976 364.482 77.4192C367.261 78.0183 369.644 76.5419 370.922 75.8135C372.76 74.765 372.676 71.042 373.723 69.1123C375.092 66.5879 377.4 60.3525 375.316 55.6743C374.862 54.5468 374.21 53.5101 373.392 52.6133C372.252 51.4944 370.517 51.3152 368.993 51.8095C367.475 52.3922 366.13 53.3562 365.088 54.6094C363.087 56.7361 361.627 59.3175 360.834 62.1334C360.118 64.7841 360.962 65.6588 361.537 67.3388L361.526 67.3918C361.062 68.9385 361.074 70.7154 361.852 72.052Z" fill="#3A3735"/>
<path d="M367.198 77.6742C367.198 77.6742 371.078 77.2309 375.121 77.2249C377.452 77.2209 376.786 74.6626 379.577 76.6193C380.585 74.7545 380.081 72.4333 378.968 70.625C378.735 70.2396 378.455 69.8854 378.134 69.5705C377.896 69.3368 377.637 69.1264 377.36 68.9424C377.209 68.8428 377.053 68.752 376.892 68.6703C376.474 68.4397 376.027 68.2653 375.564 68.1516C374.79 67.959 373.983 67.9329 373.198 68.0752C372.071 68.3048 371.019 68.8152 370.14 69.5595C369.717 69.9088 369.331 70.3008 368.988 70.7293C368.81 70.9437 368.645 71.1681 368.493 71.4014C368.295 71.7038 368.116 72.0183 367.956 72.343C367.947 72.3743 367.941 72.4064 367.937 72.4388C367.546 73.4841 367.401 74.6065 367.515 75.7176C367.573 76.4165 367.099 77.0975 367.198 77.6742Z" fill="#3A3735"/>
<path d="M369.412 82.3958C370.235 83.2486 370.986 82.964 372.084 82.5127C378.617 80.1521 376.684 76.9822 376.684 76.9822C375.444 75.5209 375.392 73.7734 375.839 71.1088C375.848 71.0311 375.852 70.9528 375.849 70.8746C375.845 70.5192 375.731 70.1739 375.524 69.8861C375.394 69.6952 375.228 69.5318 375.035 69.4054C374.843 69.2789 374.627 69.1919 374.401 69.1492C374.175 69.1065 373.943 69.109 373.718 69.1565C373.492 69.204 373.279 69.2957 373.089 69.4262L370.164 70.266C370.156 70.3065 370.148 70.3469 370.139 70.3923C370.131 71.8492 370.172 72.9806 370.162 73.8708C370.152 73.9785 370.15 74.0868 370.155 74.1948C370.14 74.3034 370.136 74.4133 370.142 74.5228C370.072 75.742 368.02 77.5319 367.183 77.9568C366.677 78.2499 366.621 79.521 369.412 82.3958Z" fill="#FDC7B5"/>
<path d="M370.167 70.2577C370.165 70.3026 370.156 70.3469 370.141 70.389C370.133 71.8459 370.174 72.9772 370.164 73.8674C370.17 73.9754 370.167 74.0837 370.157 74.1914C370.151 74.3049 370.137 74.4179 370.116 74.5294C372.338 73.922 374.322 72.6448 375.8 70.8698C375.798 70.5197 375.695 70.1779 375.502 69.8862C375.244 69.4983 374.843 69.229 374.387 69.1375C373.931 69.046 373.458 69.1396 373.071 69.3979L370.167 70.2577Z" fill="#EFA188"/>
<path d="M377.621 61.2363C377.515 65.9526 377.574 67.9446 375.344 70.5058C371.987 74.3525 366.363 73.3258 365.068 68.6971C363.937 64.53 364.275 57.5303 368.701 55.3663C373.127 53.2024 377.722 56.5134 377.621 61.2363Z" fill="#FDC7B5"/>
<path d="M372.447 61.4218C373.718 62.1418 374.772 63.1929 375.498 64.4644L375.625 64.6686C375.787 64.9528 375.943 65.2464 376.092 65.5493C376.337 66.0716 376.548 66.61 376.721 67.1609C376.818 67.4499 376.897 67.7445 376.958 68.0431C377.02 68.3647 377.118 68.7885 377.173 69.167C377.191 69.2913 377.208 69.4166 377.22 69.5385C377.456 71.6933 377.121 73.8726 376.25 75.8558C376.249 75.8713 376.246 75.8866 376.241 75.9012L376.34 75.8513C376.322 78.425 377.718 77.0919 377.718 77.0919C377.718 77.0919 381.314 78.4669 382.626 79.0136C387.445 81.0317 389.001 76.4484 386.925 72.9725C386.461 72.3943 385.968 71.8399 385.448 71.3114C385.813 71.3083 386.172 71.216 386.494 71.0423C386.815 70.8687 387.09 70.619 387.294 70.3148C387.498 70.0106 387.625 69.6611 387.664 69.2964C387.704 68.9318 387.654 68.563 387.52 68.2219C387.061 66.6447 385.936 65.3431 384.777 64.2392C384.566 64.0395 384.33 63.8502 384.131 63.669C384.291 63.7347 384.461 63.7686 384.634 63.7689C384.971 63.7781 385.305 63.6899 385.594 63.5146C385.884 63.3393 386.117 63.0843 386.266 62.7798C387.235 60.3833 382.788 61.4567 379.767 53.6336C378.614 50.638 375.713 51.5127 373.009 52.0819L372.873 52.1124C370.038 52.7389 368.488 53.9652 368.082 55.4006C367.478 57.3432 369.062 59.6973 372.447 61.4218Z" fill="#3A3735"/>
<path d="M376.233 61.1116C375.223 61.6223 375.385 66.3465 377.795 66.1488C380.206 65.951 379.549 59.4375 376.233 61.1116Z" fill="#3A3735"/>
<path d="M380.267 65.2883C379.816 66.2687 378.996 67.0291 377.988 67.4022C376.687 67.8516 375.82 65.7616 376.161 64.3856C376.324 63.7656 376.701 63.2242 377.226 62.8586C377.75 62.4931 378.387 62.3273 379.022 62.391C380.316 62.5418 380.843 64.0476 380.267 65.2883Z" fill="#FDC7B5"/>
<path d="M377.434 65.2579C377.426 64.7713 377.61 64.3013 377.946 63.9507C378.281 63.6001 378.742 63.3974 379.226 63.3871" stroke="#EFA188" stroke-width="0.5" stroke-linecap="round" stroke-linejoin="round"/>
<path d="M375.763 54.0019C376.291 55.6495 377.758 55.5726 378.679 57.038C379.599 58.5034 380.134 60.5104 379.111 61.9004C378.775 62.2669 378.46 62.6519 378.167 63.0537C377.489 64.256 378.258 65.7433 378.287 67.1238C378.307 68.4084 378.382 69.9242 377.352 70.6097C376.929 70.8929 376.58 71.2747 376.336 71.7226C376.091 72.1705 375.958 72.6712 375.948 73.182C375.937 73.506 376.942 75.7128 376.996 76.0323C377.064 76.4961 375.76 75.0453 375.298 75.1137C375.132 75.1383 374.963 75.1128 374.812 75.0403C374.66 74.9678 374.534 74.8517 374.448 74.7068C374.42 74.6584 374.395 74.6084 374.374 74.557C373.979 73.7855 373.758 72.936 373.728 72.069C373.697 71.202 373.857 70.3389 374.197 69.5413C374.594 68.6291 375.03 67.7409 375.426 66.8287C375.874 65.9317 376.044 64.9206 375.915 63.9255C375.483 61.6867 370.189 56.6406 374.409 52.545C374.436 52.517 374.469 52.4948 374.505 52.4795C374.542 52.4643 374.58 52.4563 374.62 52.4562C374.799 52.4675 374.973 52.5246 375.124 52.6221C375.276 52.7196 375.4 52.8542 375.486 53.0134C375.614 53.3315 375.707 53.6631 375.763 54.0019Z" fill="#3A3735"/>
<path d="M363.964 77.4689C362.777 78.0549 361.717 78.8724 360.847 79.8737C359.977 80.875 359.314 82.0401 358.896 83.3014C357.376 87.8712 356.504 94.8845 356.504 94.8845C356.504 94.8845 346.104 92.4825 343.713 92.131L341.73 97.7014C341.73 97.7014 355.461 104.145 356.807 104.505C360.787 105.572 362.837 98.6535 362.837 98.6535L364.233 77.3346L363.964 77.4689Z" fill="#00A443"/>
<path d="M385.204 204.979L384.685 205.705L383.657 205.26L383.017 208.444L378.68 214.53C378.68 214.53 377.03 214.796 378.332 211.338C378.395 211.168 378.441 210.993 378.47 210.814C378.856 208.745 378.006 204.779 378.006 204.779L380.386 201.44C380.611 201.45 380.835 201.474 381.056 201.513C382.039 201.679 384.01 202.162 385.204 204.979Z" fill="#FF9C1A"/>
<path opacity="0.2" d="M385.204 204.979L384.685 205.705L383.657 205.26L383.017 208.444L378.68 214.53C378.68 214.53 377.03 214.796 378.332 211.338C378.395 211.168 378.441 210.993 378.47 210.814C378.856 208.745 378.006 204.779 378.006 204.779L380.386 201.44C380.611 201.45 380.835 201.474 381.056 201.513C382.039 201.679 384.01 202.162 385.204 204.979Z" fill="#00402A"/>
<path d="M381.054 201.514L381.064 201.521C380.264 201.607 380.964 205.172 380.644 207.172C380.354 208.956 379.589 210.64 378.468 210.817C378.854 208.748 377.461 204.034 377.461 204.034L379.375 201.348C379.375 201.348 380.632 201.444 381.054 201.514Z" fill="#EFA188"/>
<path d="M378.566 214.304H377.682L377.437 213.2L374.513 214.534H367.103C367.103 214.534 365.924 213.336 369.453 212.378C369.626 212.33 369.794 212.266 369.953 212.184C371.835 211.29 374.513 208.272 374.513 208.272H378.577C378.701 208.462 378.812 208.66 378.91 208.865C379.356 209.773 380.123 211.675 378.566 214.304Z" fill="#FF9C1A"/>
<path d="M378.912 208.867V208.88C378.375 208.273 375.931 210.936 374.142 211.842C372.544 212.649 370.749 213.005 369.953 212.186C371.834 211.292 374.822 207.188 374.822 207.188L378.089 207.287C378.089 207.287 378.721 208.48 378.912 208.867Z" fill="#FDC7B5"/>
<path d="M371.831 172.887C369.814 167.302 367.345 161.808 364.378 157.36C376.502 122.407 376.125 106.769 376.125 106.769L361.522 106.757L359.966 112.602C359.966 112.602 356.317 127.155 355.253 135.508L352.206 154.081V154.131C351.996 157.981 352.846 161.814 354.662 165.21C356.647 168.916 360.157 173.316 362.083 177.31C364.617 182.581 367.009 187.865 369.052 192.593C371.204 197.576 372.956 201.93 374.048 204.956C375.082 205.074 378.204 203.188 379.103 201.479C379.103 201.483 376.892 186.907 371.831 172.887Z" fill="#3A3735"/>
<path d="M367.753 146.965C369.532 141.023 371.524 137.638 372.429 133.225C372.437 132.195 369.031 127.787 367.296 126.01C367.298 126.01 365.211 134.436 367.753 146.965Z" fill="#292523"/>
<path d="M369.051 192.597C371.204 197.58 372.955 201.934 374.047 204.96C375.082 205.078 378.204 203.192 379.103 201.483C379.103 201.483 376.892 186.904 371.831 172.888C370.803 178.676 369.652 185.99 369.051 192.597Z" fill="#292523"/>
<path d="M365.211 107.091C365.211 107.091 370.769 145.701 371.416 154.394C371.416 154.394 374.85 196.561 374.234 207.16L381.892 207.534C381.892 207.534 387.042 175.596 384.438 155.101C384.212 152.429 386.584 135.003 386.959 128.061C387.862 111.36 381.118 106.772 381.118 106.772L365.211 107.091Z" fill="#3A3735"/>
<path opacity="0.2" d="M374.907 107.669L376.124 126.847L387.04 125.54V123.567L374.907 107.669Z" fill="#00402A"/>
<path d="M380.187 108.149C380.614 103.283 382.333 94.3689 385.294 85.004C386.257 81.9584 384.624 78.5215 384.624 78.5215C384.624 78.5215 380.594 78.4166 380.187 78.3717C379.74 78.3217 379.282 78.2718 378.823 78.2344C375.71 77.9015 372.578 77.7942 369.45 77.9133C368.675 77.9593 367.88 78.0247 367.097 78.0901C366.845 78.1165 365.209 78.14 364.961 78.1675C364.961 78.1675 360.527 83.3804 360.29 87.0605C360.161 89.1165 359.173 90.0012 359.282 94.9191C359.302 98.2582 361.714 103.124 361.934 107.819L380.187 108.149Z" fill="white"/>
<path d="M376.738 125.289L389.584 123.941L381.444 101.027C381.444 101.027 382.118 100.798 383.283 96.4107C383.845 94.2759 384.433 92.0107 384.931 89.9936C385.485 87.9869 385.921 85.9492 386.237 83.891C386.366 81.4356 383.404 77.5407 383.404 77.5407L375.886 76.6106C375.886 76.6106 374.449 81.828 374.144 91.801C373.84 101.774 376.738 125.289 376.738 125.289Z" fill="#00A443"/>
<path d="M369.398 76.0321C369.398 76.0321 362.936 83.8672 361.349 89.5205C360.305 93.2375 362.363 103.949 362.123 106.782C361.725 111.452 359.674 117.167 357.013 125.54L355.252 125.29L360.1 106.76C360.1 106.76 357.856 92.7962 358.453 89.3018C359.049 85.8074 364.231 77.3362 364.231 77.3362L366.597 77.1729L369.398 76.0321Z" fill="#00A443"/>
<path d="M376.081 75.5117C376.081 75.5117 373.174 81.2763 374.274 95.7822L379.103 85.3548L377.355 82.505L379.675 77.8478C379.675 77.8478 377.193 76.2441 376.151 75.3964L376.081 75.5117Z" fill="#FF9C1A"/>
<path d="M382.346 95.2248C382.523 95.7111 382.852 96.1269 383.284 96.4101C383.846 94.2752 384.434 92.01 384.932 89.9929C383.626 88.3952 382.521 87.0597 382.521 87.0597C382.521 87.0597 381.015 91.7938 382.346 95.2248Z" fill="#007F33"/>
<path d="M376.081 75.5117C376.081 75.5117 373.174 81.2763 374.274 95.7822L379.103 85.3548L377.355 82.505L379.675 77.8478C379.675 77.8478 377.193 76.2441 376.151 75.3964L376.081 75.5117Z" fill="#007F33"/>
<path d="M361.199 95.8664C360.56 93.8811 360.261 91.8012 360.315 89.7153C360.514 86.7631 360.559 84.5608 360.559 84.5608L363.893 82.0854L363.454 79.0673C363.454 79.0673 365.061 78.0753 366.554 77.0593C367.575 76.3653 369.577 75.3148 369.84 75.3962C369.84 75.3962 361.326 86.2214 361.284 90.6505C361.242 94.9222 361.199 95.8664 361.199 95.8664Z" fill="#FF9C1A"/>
<path d="M361.199 95.8664C360.56 93.8811 360.261 91.8012 360.315 89.7153C360.514 86.7631 360.559 84.5608 360.559 84.5608L363.893 82.0854L363.454 79.0673C363.454 79.0673 365.061 78.0753 366.554 77.0593C367.575 76.3653 369.577 75.3148 369.84 75.3962C369.84 75.3962 361.326 86.2214 361.284 90.6505C361.242 94.9222 361.199 95.8664 361.199 95.8664Z" fill="#007F33"/>
<path d="M359.665 103.87L358.4 92.5208V104.617C358.836 104.392 359.258 104.143 359.665 103.87Z" fill="#C66D00"/>
<path d="M371.584 112.096C371.883 112.01 372.136 111.808 372.288 111.533C372.439 111.259 372.477 110.935 372.392 110.632L367.932 91.6645C367.803 91.226 367.542 90.8393 367.184 90.5587C366.827 90.2781 366.392 90.1176 365.94 90.0996L351.647 89.7975C351.455 89.7735 351.26 89.798 351.08 89.8687C350.899 89.9394 350.739 90.0541 350.613 90.2026C350.487 90.3511 350.4 90.5288 350.358 90.7198C350.317 90.9109 350.323 91.1093 350.376 91.2975L354.836 110.265C354.965 110.704 355.226 111.091 355.583 111.373C355.941 111.655 356.376 111.816 356.829 111.835L371.122 112.132C371.277 112.151 371.434 112.139 371.584 112.096Z" fill="#615D5A"/>
<path d="M370.117 112.066C370.416 111.98 370.67 111.778 370.822 111.504C370.973 111.229 371.011 110.905 370.927 110.603L366.467 91.6352C366.338 91.1974 366.077 90.8111 365.721 90.5296C365.365 90.2481 364.932 90.0854 364.48 90.064L350.18 89.7677C349.988 89.7438 349.793 89.7682 349.613 89.8389C349.432 89.9096 349.272 90.0243 349.146 90.1728C349.02 90.3213 348.933 90.499 348.891 90.69C348.85 90.8811 348.856 91.0795 348.908 91.2677L353.374 110.235C353.503 110.673 353.764 111.059 354.12 111.341C354.476 111.622 354.909 111.785 355.361 111.806L369.661 112.102C369.814 112.12 369.969 112.108 370.117 112.066Z" fill="#89837E"/>
<path d="M358.067 99.5562C358.08 99.4139 358.121 99.2757 358.187 99.1494C358.253 99.0231 358.343 98.9112 358.452 98.8202C358.561 98.7291 358.687 98.6607 358.822 98.6188C358.957 98.5768 359.099 98.5623 359.24 98.5759C359.648 98.5983 360.04 98.75 360.359 99.0095C360.677 99.2691 360.907 99.6233 361.016 100.022C361.057 100.157 361.07 100.299 361.056 100.44C361.027 100.724 360.887 100.986 360.668 101.167C360.449 101.348 360.167 101.433 359.886 101.404C359.477 101.382 359.085 101.231 358.766 100.972C358.446 100.713 358.215 100.36 358.104 99.9612C358.067 99.8298 358.054 99.6924 358.067 99.5562Z" fill="#B0A9A3"/>
<path d="M368.227 98.8L372.434 100.02L373.315 102.842C372.911 105.134 368.558 104.156 368.558 104.156L367.667 104.724C366.943 105.186 365.221 104.678 365.073 103.826L364.97 101.64C364.893 101.196 365.472 100.342 365.823 100.066L367.156 99.0121C367.305 98.8938 367.48 98.8129 367.666 98.776C367.852 98.7391 368.044 98.7473 368.227 98.8Z" fill="#FDC7B5"/>
<path d="M383.197 77.525C386.03 77.4027 392.571 91.0947 395.126 97.768C395.882 99.7451 394.217 102.279 392.755 102.685C389.475 103.594 373.055 104.505 373.055 104.505L372.432 99.5923L386.398 96.6526L381.929 89.8815C381.929 89.8815 380.257 86.466 380.569 83.2981C380.881 80.1302 383.197 77.525 383.197 77.525Z" fill="#00A443"/>
<path d="M386.4 96.6525C386.4 96.6525 388.469 96.3305 389.782 97.4304C389.782 97.4304 388.366 95.1537 385.825 95.7828L386.4 96.6525Z" fill="#007F33"/>
<path d="M374.643 104.412L382.458 103.876L382.919 105.174L374.785 106.215L374.643 104.412Z" fill="#007F33"/>
<path d="M367.69 78.2828L369.979 75.1224L371.07 77.0037L374.372 74.5573L376.15 75.398L374.545 80.1301C374.545 80.1301 370.533 81.7777 370.321 81.7777C370.11 81.7777 367.69 78.2828 367.69 78.2828Z" fill="white"/>
<path d="M367.585 78.4326L368.522 80.7607L370.851 78.4326L372.436 81.1666L374.803 80.0018L372.28 82.0094L370.82 79.0138L368.149 81.5416L367.585 78.4326Z" fill="#3A3735"/>
<path d="M179.298 88.8888C179.298 88.8888 175.894 101 178.073 103.109C180.252 105.217 187.869 103.812 187.48 103.656C187.092 103.5 189.424 88.9339 189.58 89.4624C189.735 89.9908 179.298 88.8888 179.298 88.8888Z" fill="#B97964"/>
<rect x="194.624" y="61.5771" width="43.6783" height="43.6783" rx="21.8391" fill="white"/>
<path d="M223.279 95.5143L221.932 95.2913C222.319 92.9618 224.311 91.2693 226.668 91.2693C229.03 91.2693 231.018 92.9618 231.405 95.2913L230.058 95.5143C229.785 93.8445 228.361 92.6342 226.673 92.6342C224.985 92.6342 223.556 93.8445 223.279 95.5143Z" fill="#FF9C1A"/>
<path d="M226.7 90.6595C224.998 90.6595 223.615 89.2764 223.615 87.5748C223.615 85.8731 224.998 84.49 226.7 84.49C228.402 84.49 229.785 85.8731 229.785 87.5748C229.785 89.2764 228.402 90.6595 226.7 90.6595ZM226.7 85.8504C225.749 85.8504 224.98 86.6239 224.98 87.5702C224.98 88.5211 225.754 89.29 226.7 89.29C227.646 89.29 228.42 88.5166 228.42 87.5702C228.42 86.6239 227.651 85.8504 226.7 85.8504Z" fill="#00A443"/>
<path d="M202.836 95.5143L201.49 95.2913C201.876 92.9618 203.869 91.2693 206.226 91.2693C208.587 91.2693 210.575 92.9618 210.962 95.2913L209.615 95.5143C209.342 93.8445 207.918 92.6342 206.23 92.6342C204.538 92.6342 203.114 93.8445 202.836 95.5143Z" fill="#FF9C1A"/>
<path d="M206.258 90.6595C204.556 90.6595 203.173 89.2764 203.173 87.5748C203.173 85.8731 204.556 84.49 206.258 84.49C207.959 84.49 209.342 85.8731 209.342 87.5748C209.347 89.2764 207.959 90.6595 206.258 90.6595ZM206.258 85.8504C205.307 85.8504 204.538 86.6239 204.538 87.5702C204.538 88.5211 205.311 89.29 206.258 89.29C207.204 89.29 207.977 88.5166 207.977 87.5702C207.982 86.6239 207.209 85.8504 206.258 85.8504Z" fill="#00A443"/>
<path d="M213.073 95.5143L211.727 95.2913C212.113 92.9618 214.106 91.2693 216.463 91.2693C218.824 91.2693 220.813 92.9618 221.199 95.2913L219.853 95.5143C219.58 93.8445 218.155 92.6342 216.467 92.6342C214.775 92.6342 213.351 93.8445 213.073 95.5143Z" fill="#FF9C1A"/>
<path d="M216.495 90.6595C214.793 90.6595 213.41 89.2764 213.41 87.5748C213.41 85.8731 214.793 84.49 216.495 84.49C218.196 84.49 219.579 85.8731 219.579 87.5748C219.584 89.2764 218.196 90.6595 216.495 90.6595ZM216.495 85.8504C215.544 85.8504 214.775 86.6239 214.775 87.5702C214.775 88.5211 215.548 89.29 216.495 89.29C217.446 89.29 218.215 88.5166 218.215 87.5702C218.219 86.6239 217.446 85.8504 216.495 85.8504Z" fill="#00A443"/>
<path d="M207.955 81.8966L206.608 81.6736C206.995 79.3441 208.988 77.6516 211.345 77.6516C213.706 77.6516 215.694 79.3441 216.081 81.6736L214.734 81.8966C214.461 80.2268 213.037 79.0166 211.349 79.0166C209.661 79.0166 208.232 80.2268 207.955 81.8966Z" fill="#FF9C1A"/>
<path d="M211.376 77.042C209.675 77.042 208.292 75.6588 208.292 73.9572C208.292 72.2556 209.675 70.8724 211.376 70.8724C213.078 70.8724 214.461 72.2556 214.461 73.9572C214.466 75.6588 213.078 77.042 211.376 77.042ZM211.376 72.2328C210.425 72.2328 209.656 73.0063 209.656 73.9527C209.656 74.9036 210.43 75.6725 211.376 75.6725C212.327 75.6725 213.096 74.899 213.096 73.9527C213.101 73.0063 212.327 72.2328 211.376 72.2328Z" fill="#00A443"/>
<path d="M218.192 81.8966L216.845 81.6736C217.232 79.3441 219.225 77.6516 221.582 77.6516C223.943 77.6516 225.931 79.3441 226.318 81.6736L224.971 81.8966C224.698 80.2268 223.274 79.0166 221.586 79.0166C219.898 79.0166 218.469 80.2268 218.192 81.8966Z" fill="#FF9C1A"/>
<path d="M221.613 77.042C219.912 77.042 218.529 75.6588 218.529 73.9572C218.529 72.2556 219.912 70.8724 221.613 70.8724C223.315 70.8724 224.698 72.2556 224.698 73.9572C224.703 75.6588 223.315 77.042 221.613 77.042ZM221.613 72.2328C220.662 72.2328 219.894 73.0063 219.894 73.9527C219.894 74.9036 220.667 75.6725 221.613 75.6725C222.56 75.6725 223.333 74.899 223.333 73.9527C223.338 73.0063 222.564 72.2328 221.613 72.2328Z" fill="#00A443"/>
<path d="M183.533 198.246L183.522 208.753L188.38 209.133L190.087 199.262C187.865 197.65 185.679 197.267 183.533 198.246Z" fill="#B97964"/>
<path d="M183.479 207.656C183.001 209.042 182.97 214.716 182.97 214.716L193.266 214.728C193.877 212.677 192.931 211.276 191.73 211.09C191.214 211.011 190.607 210.435 190.165 209.931C190.161 209.866 189.532 206.714 189.143 206.563C189.143 206.563 188.874 206.236 188.646 206.563C188.444 207.007 188.3 207.475 188.219 207.955C186.612 205.785 185.037 206.075 183.479 207.656Z" fill="#3A3735"/>
<path d="M204.489 196.877L204.477 208.735L209.153 209.123L211.452 198.022C209.573 196.506 207.394 195.763 204.489 196.877Z" fill="#B97964"/>
<path d="M204.265 207.682C203.787 209.068 203.756 214.742 203.756 214.742L215.584 214.756C216.196 212.704 214.918 211.488 213.717 211.302C213.201 211.223 211.393 210.46 210.948 209.957C210.945 209.891 210.316 206.74 209.927 206.589C209.927 206.589 209.658 206.261 209.43 206.589C209.228 207.032 209.084 207.5 209.003 207.981C207.399 205.81 205.825 206.1 204.265 207.682Z" fill="#3A3735"/>
<path d="M181.519 203.424L191.869 203.978C194.191 196.418 196.487 169.314 196.724 161.177C197.007 151.455 200.473 127.052 197.409 121.975C194.344 116.897 180.481 120.941 180.481 120.941C180.481 120.941 182.208 150.653 181.518 160.129C180.92 168.342 179.995 192.484 181.519 203.424Z" fill="#3A3735"/>
<path d="M192.987 201.239L192.314 204.712L181.097 204.348L180.685 201.012L192.987 201.239Z" fill="#292523"/>
<path d="M202.191 203.424L212.453 203.978C213.702 195.609 218.722 165.135 218.309 159.295C217.806 152.165 211.863 121.301 209.652 118.921C207.441 116.541 191.261 122.709 191.261 122.709C191.261 122.709 197.911 149.251 203.155 160.73C204.244 163.116 201.349 193.247 202.191 203.424Z" fill="#3A3735"/>
<path d="M213.626 201.499L213.103 204.712L201.699 203.977L201.469 200.614L213.626 201.499Z" fill="#292523"/>
<path d="M197.735 146.11L194.722 135.994L189.376 134.242L193.555 137.497L196.915 155.934L197.735 146.11Z" fill="#292523"/>
<path d="M204.641 61.9835C204.577 62.2468 204.498 62.5061 204.403 62.7601C203.725 64.5934 202.385 66.1034 200.649 66.9901C199.307 67.6986 197.774 67.9542 196.276 67.7191C194.779 67.484 193.396 66.7706 192.334 65.6846C189.551 62.9105 189.624 59.7053 189.309 54.2816C189.226 53.1148 189.419 51.9448 189.873 50.8674C190.661 49.0377 192.133 47.5922 193.972 46.8424C195.812 46.0926 197.87 46.0985 199.705 46.8588H199.708C205.071 49.0269 205.811 57.0944 204.641 61.9835Z" fill="#B97964"/>
<path d="M201.635 66.376C201.317 66.6066 200.981 66.8118 200.63 66.9898C199.707 67.4747 198.689 67.7494 197.648 67.7945C196.608 67.8397 195.57 67.6541 194.609 67.2509C194.858 66.5978 195.189 65.9792 195.594 65.4099C197.658 65.1536 199.752 65.4885 201.635 66.376Z" fill="#A24E3F"/>
<path d="M190.576 73.4127C193.287 75.8408 199.916 74.9463 199.916 74.9463C199.916 74.9463 204.054 73.8237 203.182 72.5512C200.749 72.1531 199.566 71.0299 199.077 69.5875C198.813 68.6972 198.73 67.7628 198.832 66.8396C198.871 66.3247 198.94 65.8125 199.037 65.3055L190.841 59.3138C191.912 63.2693 193.227 70.5469 190.576 73.4127Z" fill="#B97964"/>
<path d="M201.635 57.0491L202.817 57.4863L202.229 55.0973C202.229 55.0973 203.961 52.4864 202.229 50.2216C202.229 50.2216 207.015 48.7853 204.312 46.3047C203.307 45.3778 202.056 46.3047 198.753 44.8886C196.962 44.112 191.356 44.0533 191.079 46.3047C191.079 46.3047 187.04 46.3047 186.603 53.0931C186.479 55.0884 186.798 57.0866 187.538 58.9426C188.277 60.7987 189.419 62.4661 190.88 63.824C190.88 63.824 195.758 64.96 198.151 63.0279C200.544 61.0957 201.635 57.0491 201.635 57.0491Z" fill="#3A3735"/>
<path d="M198.515 57.434C198.621 57.947 198.839 58.4297 199.155 58.8467C199.471 59.2636 199.875 59.6041 200.34 59.843C201.457 60.3127 202.197 58.759 202.032 57.1276C201.878 55.6784 201.119 53.6417 199.923 53.9162C198.727 54.1907 198.125 55.972 198.515 57.434Z" fill="#B97964"/>
<path d="M183.854 71.2788C183.854 71.2788 182.168 71.7936 181.329 72.1022C179.581 72.7456 178.427 74.7011 177.794 76.6202C176.248 81.3109 173.749 92.415 173.749 92.415L182.815 94.33L187.652 83.8679L183.854 71.2788Z" fill="#407BFF"/>
<path d="M183.854 71.2788C183.854 71.2788 181.427 71.7348 180.15 72.7921C179.178 73.5991 178.404 74.7686 177.794 76.622C176.248 81.3128 173.749 92.4168 173.749 92.4168L182.815 94.3318L187.652 83.8697L183.854 71.2788Z" fill="#FFCD52"/>
<path d="M205.81 71.817C203.136 71.5275 194.91 69.6608 183.851 71.2785L181.264 112.346C181.037 116.258 180.599 120.155 179.952 124.02C191.19 128.867 204.485 127.481 212.001 123.407C211.914 123.578 211.668 119.097 211.283 112.532C210.602 100.965 209.491 82.9292 208.056 72.4872C208.019 72.2296 206.077 71.8457 205.81 71.817Z" fill="#FF9C1A"/>
<path d="M191.108 70.8516C191.322 70.0516 191.791 69.3439 192.443 68.8368L198.601 69.3133L201.489 71.2255L191.108 70.8516Z" fill="#FFCD52"/>
<path d="M205.523 84.5996C206.509 89.2252 207.929 98.2925 210.603 101.453L209.968 92.2759L205.523 84.5996Z" fill="#C66D00"/>
<path d="M182.236 94.2013L183.301 82.0701L179.996 93.6373L182.236 94.2013Z" fill="#C66D00"/>
<path d="M210.244 88.2582C209.899 88.3918 216.568 103.462 219.283 103.596C221.999 103.731 234.746 97.9042 234.746 97.9042L231.886 94.4759L222.251 95.0308L217.337 84.524L210.244 88.2582Z" fill="#B97964"/>
<path d="M206.891 72.3342C203.433 74.629 201.716 79.8231 210.991 95.8609L221.004 89.7194C218.978 85.966 216.832 83.2367 214.448 77.801C209.638 70.8506 206.891 72.3342 206.891 72.3342Z" fill="#407BFF"/>
<path d="M206.891 72.3342C203.433 74.629 201.716 79.8231 210.991 95.8609L221.004 89.7194C218.978 85.966 216.832 83.2367 214.448 77.801C209.638 70.8506 206.891 72.3342 206.891 72.3342Z" fill="#FFCD52"/>
<path d="M239.236 94.3745C239.236 93.495 238.967 92.5389 238.496 92.5097C238.024 92.4805 235.506 92.5065 235.506 92.5065C235.506 91.7971 236.831 91.0206 236.399 90.5355C235.836 89.9031 232.572 92.6054 232.367 93.1567C232.216 93.6294 232.013 94.0834 231.76 94.5099L233.485 98.4857C233.485 98.4857 236.677 100.598 237.418 99.8536C237.63 99.6575 237.799 99.4195 237.915 99.1546C238.031 98.8897 238.091 98.6037 238.092 98.3143C238.092 98.3143 238.832 97.283 238.765 96.6068C238.697 95.9306 239.236 95.2536 239.236 94.3745Z" fill="#B97964"/>
<defs>
<linearGradient id="paint0_linear_80_38388" x1="92.3579" y1="156.81" x2="92.3579" y2="91.0718" gradientUnits="userSpaceOnUse">
<stop stop-color="white" stop-opacity="0"/>
<stop offset="1" stop-color="#FFCD52"/>
</linearGradient>
</defs>
</svg>
