<svg width="94" height="25" viewBox="0 0 94 25" fill="none" xmlns="http://www.w3.org/2000/svg">
<path d="M23.0703 12.0739C23.0703 13.3824 22.8223 14.4957 22.3262 15.4137C21.834 16.3317 21.1621 17.0328 20.3105 17.5172C19.4629 17.9977 18.5098 18.2379 17.4512 18.2379C16.3848 18.2379 15.4277 17.9957 14.5801 17.5114C13.7324 17.027 13.0625 16.3258 12.5703 15.4078C12.0781 14.4899 11.832 13.3785 11.832 12.0739C11.832 10.7653 12.0781 9.65198 12.5703 8.73401C13.0625 7.81604 13.7324 7.11682 14.5801 6.63635C15.4277 6.15198 16.3848 5.90979 17.4512 5.90979C18.5098 5.90979 19.4629 6.15198 20.3105 6.63635C21.1621 7.11682 21.834 7.81604 22.3262 8.73401C22.8223 9.65198 23.0703 10.7653 23.0703 12.0739ZM20.498 12.0739C20.498 11.2262 20.3711 10.5114 20.1172 9.92932C19.8672 9.34729 19.5137 8.90588 19.0566 8.6051C18.5996 8.30432 18.0645 8.15393 17.4512 8.15393C16.8379 8.15393 16.3027 8.30432 15.8457 8.6051C15.3887 8.90588 15.0332 9.34729 14.7793 9.92932C14.5293 10.5114 14.4043 11.2262 14.4043 12.0739C14.4043 12.9215 14.5293 13.6364 14.7793 14.2184C15.0332 14.8004 15.3887 15.2418 15.8457 15.5426C16.3027 15.8434 16.8379 15.9938 17.4512 15.9938C18.0645 15.9938 18.5996 15.8434 19.0566 15.5426C19.5137 15.2418 19.8672 14.8004 20.1172 14.2184C20.3711 13.6364 20.498 12.9215 20.498 12.0739ZM34.9868 6.07385V18.0739H32.7954L27.5747 10.5211H27.4868V18.0739H24.9497V6.07385H27.1763L32.356 13.6207H32.4614V6.07385H34.9868ZM36.626 8.16565V6.07385H46.4814V8.16565H42.8076V18.0739H40.2998V8.16565H36.626ZM48.7065 18.0739H45.9878L50.1304 6.07385H53.3999L57.5366 18.0739H54.8179L51.812 8.81604H51.7183L48.7065 18.0739ZM48.5366 13.3571H54.9585V15.3375H48.5366V13.3571ZM69.0049 10.275H66.4385C66.3916 9.94299 66.2959 9.64807 66.1514 9.39026C66.0068 9.12854 65.8213 8.90588 65.5947 8.72229C65.3682 8.5387 65.1064 8.39807 64.8096 8.30041C64.5166 8.20276 64.1982 8.15393 63.8545 8.15393C63.2334 8.15393 62.6924 8.30823 62.2314 8.61682C61.7705 8.92151 61.4131 9.36682 61.1592 9.95276C60.9053 10.5348 60.7783 11.2418 60.7783 12.0739C60.7783 12.9293 60.9053 13.6481 61.1592 14.2301C61.417 14.8121 61.7764 15.2516 62.2373 15.5485C62.6982 15.8453 63.2314 15.9938 63.8369 15.9938C64.1768 15.9938 64.4912 15.9489 64.7803 15.859C65.0732 15.7692 65.333 15.6383 65.5596 15.4664C65.7861 15.2906 65.9736 15.0778 66.1221 14.8278C66.2744 14.5778 66.3799 14.2926 66.4385 13.9723L69.0049 13.984C68.9385 14.5348 68.7725 15.066 68.5068 15.5778C68.2451 16.0856 67.8916 16.5406 67.4463 16.943C67.0049 17.3414 66.4775 17.6578 65.8643 17.8922C65.2549 18.1227 64.5654 18.2379 63.7959 18.2379C62.7256 18.2379 61.7686 17.9957 60.9248 17.5114C60.085 17.027 59.4209 16.3258 58.9326 15.4078C58.4482 14.4899 58.2061 13.3785 58.2061 12.0739C58.2061 10.7653 58.4521 9.65198 58.9443 8.73401C59.4365 7.81604 60.1045 7.11682 60.9482 6.63635C61.792 6.15198 62.7412 5.90979 63.7959 5.90979C64.4912 5.90979 65.1357 6.00745 65.7295 6.20276C66.3271 6.39807 66.8564 6.68323 67.3174 7.05823C67.7783 7.42932 68.1533 7.8844 68.4424 8.42346C68.7354 8.96252 68.9229 9.57971 69.0049 10.275ZM70.3672 8.16565V6.07385H80.2227V8.16565H76.5488V18.0739H74.041V8.16565H70.3672ZM92.3252 12.0739C92.3252 13.3824 92.0771 14.4957 91.5811 15.4137C91.0889 16.3317 90.417 17.0328 89.5654 17.5172C88.7178 17.9977 87.7646 18.2379 86.7061 18.2379C85.6396 18.2379 84.6826 17.9957 83.835 17.5114C82.9873 17.027 82.3174 16.3258 81.8252 15.4078C81.333 14.4899 81.0869 13.3785 81.0869 12.0739C81.0869 10.7653 81.333 9.65198 81.8252 8.73401C82.3174 7.81604 82.9873 7.11682 83.835 6.63635C84.6826 6.15198 85.6396 5.90979 86.7061 5.90979C87.7646 5.90979 88.7178 6.15198 89.5654 6.63635C90.417 7.11682 91.0889 7.81604 91.5811 8.73401C92.0771 9.65198 92.3252 10.7653 92.3252 12.0739ZM89.7529 12.0739C89.7529 11.2262 89.626 10.5114 89.3721 9.92932C89.1221 9.34729 88.7686 8.90588 88.3115 8.6051C87.8545 8.30432 87.3193 8.15393 86.7061 8.15393C86.0928 8.15393 85.5576 8.30432 85.1006 8.6051C84.6436 8.90588 84.2881 9.34729 84.0342 9.92932C83.7842 10.5114 83.6592 11.2262 83.6592 12.0739C83.6592 12.9215 83.7842 13.6364 84.0342 14.2184C84.2881 14.8004 84.6436 15.2418 85.1006 15.5426C85.5576 15.8434 86.0928 15.9938 86.7061 15.9938C87.3193 15.9938 87.8545 15.8434 88.3115 15.5426C88.7686 15.2418 89.1221 14.8004 89.3721 14.2184C89.626 13.6364 89.7529 12.9215 89.7529 12.0739Z" fill="#1C1A16"/>
<path d="M6.95081 0.840515C8.14301 0.513243 9.3293 0.39578 10.5065 0.489929H10.5114C10.6595 0.503398 10.8198 0.533845 10.9606 0.604187C11.1064 0.677092 11.2643 0.813799 11.317 1.0368H11.318C11.3185 1.03884 11.3185 1.04158 11.319 1.04364C11.3201 1.04854 11.3219 1.05331 11.3229 1.05829H11.3209C11.3461 1.17901 11.3378 1.33407 11.236 1.4743C11.1417 1.60395 11.0137 1.65768 10.9381 1.68036C10.7922 1.72408 10.6268 1.71767 10.4957 1.70575H10.4948C9.34614 1.59945 8.25729 1.72697 7.22327 2.08563L7.21448 2.08856C6.15988 2.43295 5.22976 2.90297 4.42151 3.49774L4.42249 3.49872C3.62217 4.10437 2.99585 4.73381 2.53479 5.38348C2.09023 6.04191 1.91275 6.55295 1.91272 6.93427C1.91272 7.80253 2.23866 8.39949 2.87659 8.80048C3.18564 8.99467 3.54088 9.1452 3.94299 9.25653C4.73799 8.29406 5.62421 7.38291 6.6012 6.52313C7.74368 5.51775 8.95653 4.63663 10.2379 3.88153C11.5385 3.10599 12.8435 2.49832 14.153 2.06122C15.4721 1.59834 16.746 1.36302 17.9713 1.36298C18.3049 1.36298 18.6415 1.43212 18.9772 1.56122C19.1912 1.64352 19.3836 1.77622 19.5192 1.9743C19.6546 2.17221 19.7086 2.3995 19.7086 2.6286C19.7086 3.40094 19.3498 4.16041 18.7311 4.90009L18.7321 4.90106C18.1355 5.64076 17.3243 6.35352 16.3121 7.04364L16.3102 7.04559C15.3223 7.7118 14.2233 8.31843 13.0143 8.86591C11.8031 9.41438 10.557 9.85994 9.27698 10.2028L9.27112 10.2038C8.2187 10.4717 7.20087 10.628 6.21838 10.6735C5.9522 10.9696 5.69163 11.2674 5.43811 11.5681C4.51046 12.6724 3.76622 13.7262 3.19983 14.7282C2.66013 15.7228 2.41767 16.5398 2.4176 17.194C2.4176 17.9527 2.64308 18.4075 3.00549 18.6755C3.12384 18.7587 3.2481 18.8303 3.37756 18.8923C3.44445 17.9535 3.6464 17.0302 3.98596 16.1247L3.98889 16.1169L4.16272 15.7018C4.58378 14.7451 5.12137 13.8669 5.776 13.069C6.52613 12.1324 7.39821 11.3882 8.39221 10.8425L8.77502 10.6393C9.67593 10.1969 10.6349 9.97437 11.6471 9.9743C12.2935 9.9743 12.8789 10.1563 13.3854 10.5251H13.3864C13.955 10.9141 14.2252 11.504 14.2252 12.2155C14.2252 13.0097 13.957 13.8675 13.4674 14.779C12.992 15.706 12.3099 16.5983 11.4293 17.4557C10.56 18.3016 9.52983 19.0024 8.34436 19.5602L8.34045 19.5622C7.22903 20.0734 6.02729 20.3391 4.74084 20.3708C4.76419 20.4784 4.79211 20.5903 4.82385 20.7067C4.92289 21.0698 5.02078 21.3925 5.1178 21.6755L5.21448 21.945L5.21741 21.9528L5.37756 22.4421C5.40367 22.5334 5.43144 22.6446 5.44104 22.7468L5.45374 22.9225C5.45381 23.1022 5.41101 23.2908 5.28674 23.4567C5.22883 23.5339 5.13779 23.6174 5.00745 23.6608C4.87496 23.7049 4.74887 23.6921 4.64905 23.6589C4.47521 23.6009 4.34818 23.4717 4.26917 23.3796L4.27014 23.3786C4.14935 23.2472 4.05124 23.0629 3.97034 22.8796C3.87723 22.6685 3.77971 22.3992 3.67639 22.0778C3.50912 21.5574 3.40856 20.9522 3.36975 20.2682C2.62569 20.1108 2.00631 19.7785 1.54456 19.2429L1.53967 19.236L1.53381 19.2302C0.937348 18.4846 0.626587 17.6558 0.626587 16.7565C0.626657 15.6087 0.889747 14.4368 1.40393 13.2448L1.40686 13.238C1.84665 12.2628 2.41259 11.3007 3.09924 10.3493C2.66513 10.213 2.27018 10.0345 1.91663 9.81122L1.90491 9.80341C0.909951 9.13114 0.458695 8.01929 0.458618 6.59833C0.458618 5.77173 0.793617 4.97746 1.401 4.2243C2.00053 3.45858 2.78331 2.78651 3.73889 2.2038L3.74377 2.20087C4.72232 1.61845 5.79128 1.16562 6.94885 0.841492L6.95081 0.840515ZM11.3785 11.2272C10.6031 11.2272 9.82319 11.4654 9.03284 11.9645L9.026 11.9684H9.02502C8.22482 12.4528 7.49115 13.11 6.82581 13.947L6.8219 13.9518C6.15547 14.7688 5.61785 15.672 5.20862 16.6628C4.87465 17.4991 4.68887 18.3296 4.64709 19.1559C5.24633 19.1505 5.86944 18.9855 6.52112 18.6393L6.526 18.6374C7.23002 18.2747 7.91814 17.8023 8.5885 17.2184C9.26207 16.6318 9.85764 16.003 10.3766 15.3327L10.3824 15.3259L10.5797 15.0749C11.0264 14.4912 11.3768 13.9219 11.6354 13.3679L11.6412 13.3561L11.7526 13.1227C11.9929 12.5913 12.0973 12.1575 12.0973 11.8122C12.0973 11.46 11.9984 11.3912 11.9664 11.3737L11.9576 11.3688L11.9498 11.364C11.8099 11.2801 11.626 11.2273 11.3785 11.2272ZM17.8707 2.5827C17.2297 2.58271 16.4055 2.80821 15.3815 3.30927C14.3584 3.8099 13.2498 4.50064 12.0553 5.38544L12.0533 5.38641C10.8797 6.25009 9.71553 7.21442 8.56116 8.27997C8.20562 8.61466 7.85895 8.95256 7.52112 9.29364C7.98542 9.20986 8.46302 9.09699 8.95374 8.95184C10.1407 8.57811 11.307 8.10628 12.4518 7.53387C13.6009 6.93693 14.6358 6.31919 15.5582 5.68231C16.4831 5.02127 17.2083 4.41297 17.7418 3.85809C18.0081 3.58113 18.1932 3.34587 18.3092 3.15106C18.4275 2.9523 18.4556 2.82779 18.4557 2.76337C18.4557 2.73135 18.4515 2.7108 18.4489 2.69891C18.4479 2.69861 18.447 2.69825 18.4459 2.69794L18.4176 2.68915L18.3912 2.67743C18.2593 2.61881 18.0894 2.5827 17.8707 2.5827Z" fill="#1C1A16" stroke="#F2EEE2" stroke-width="0.916667"/>
</svg>
