<svg width="117" height="25" viewBox="0 0 117 25" fill="none" xmlns="http://www.w3.org/2000/svg">
<path d="M19.9219 6.12915L22.3418 10.219H22.4355L24.8672 6.12915H27.7324L24.0703 12.1292L27.8145 18.1292H24.8965L22.4355 14.0334H22.3418L19.8809 18.1292H16.9746L20.7305 12.1292L17.0449 6.12915H19.9219ZM29.3379 18.1292V6.12915H34.0723C34.9824 6.12915 35.7578 6.30298 36.3984 6.65063C37.0391 6.99438 37.5273 7.4729 37.8633 8.08618C38.2031 8.69556 38.373 9.39868 38.373 10.1956C38.373 10.9924 38.2012 11.6956 37.8574 12.3049C37.5137 12.9143 37.0156 13.3889 36.3633 13.7288C35.7148 14.0686 34.9297 14.2385 34.0078 14.2385H30.9902V12.2053H33.5977C34.0859 12.2053 34.4883 12.1213 34.8047 11.9534C35.125 11.7815 35.3633 11.5452 35.5195 11.2444C35.6797 10.9397 35.7598 10.5901 35.7598 10.1956C35.7598 9.79712 35.6797 9.44946 35.5195 9.15259C35.3633 8.85181 35.125 8.61938 34.8047 8.45532C34.4844 8.28735 34.0781 8.20337 33.5859 8.20337H31.875V18.1292H29.3379ZM40.021 18.1292V6.12915H48.1069V8.22095H42.5581V11.0803H47.6909V13.1721H42.5581V16.0374H48.1304V18.1292H40.021ZM50.124 18.1292V6.12915H54.8584C55.7646 6.12915 56.5381 6.29126 57.1787 6.61548C57.8232 6.93579 58.3135 7.39087 58.6494 7.98071C58.9893 8.56665 59.1592 9.2561 59.1592 10.0491C59.1592 10.8459 58.9873 11.5315 58.6436 12.1057C58.2998 12.676 57.8018 13.1135 57.1494 13.4182C56.501 13.7229 55.7158 13.8752 54.7939 13.8752H51.624V11.8362H54.3838C54.8682 11.8362 55.2705 11.7698 55.5908 11.637C55.9111 11.5042 56.1494 11.3049 56.3057 11.0393C56.4658 10.7737 56.5459 10.4436 56.5459 10.0491C56.5459 9.65063 56.4658 9.3147 56.3057 9.04126C56.1494 8.76782 55.9092 8.56079 55.585 8.42017C55.2646 8.27563 54.8604 8.20337 54.3721 8.20337H52.6611V18.1292H50.124ZM56.6045 12.6682L59.5869 18.1292H56.7861L53.8682 12.6682H56.6045ZM63.4893 6.12915V18.1292H60.9521V6.12915H63.4893ZM65.5767 18.1292V6.12915H73.6626V8.22095H68.1138V11.0803H73.2466V13.1721H68.1138V16.0374H73.686V18.1292H65.5767ZM85.7168 6.12915V18.1292H83.5254L78.3047 10.5764H78.2168V18.1292H75.6797V6.12915H77.9063L83.0859 13.676H83.1914V6.12915H85.7168ZM98.4009 10.3303H95.8345C95.7876 9.99829 95.6919 9.70337 95.5474 9.44556C95.4028 9.18384 95.2173 8.96118 94.9907 8.77759C94.7642 8.59399 94.5024 8.45337 94.2056 8.35571C93.9126 8.25806 93.5942 8.20923 93.2505 8.20923C92.6294 8.20923 92.0884 8.36353 91.6274 8.67212C91.1665 8.97681 90.8091 9.42212 90.5552 10.0081C90.3013 10.5901 90.1743 11.2971 90.1743 12.1292C90.1743 12.9846 90.3013 13.7034 90.5552 14.2854C90.813 14.8674 91.1724 15.3069 91.6333 15.6038C92.0942 15.9006 92.6274 16.0491 93.2329 16.0491C93.5728 16.0491 93.8872 16.0042 94.1763 15.9143C94.4692 15.8245 94.729 15.6936 94.9556 15.5217C95.1821 15.3459 95.3696 15.1331 95.5181 14.8831C95.6704 14.6331 95.7759 14.3479 95.8345 14.0276L98.4009 14.0393C98.3345 14.5901 98.1685 15.1213 97.9028 15.6331C97.6411 16.1409 97.2876 16.5959 96.8423 16.9983C96.4009 17.3967 95.8735 17.7131 95.2603 17.9475C94.6509 18.178 93.9614 18.2932 93.1919 18.2932C92.1216 18.2932 91.1646 18.051 90.3208 17.5667C89.481 17.0823 88.8169 16.3811 88.3286 15.4631C87.8442 14.5452 87.6021 13.4338 87.6021 12.1292C87.6021 10.8206 87.8481 9.70728 88.3403 8.78931C88.8325 7.87134 89.5005 7.17212 90.3442 6.69165C91.188 6.20728 92.1372 5.96509 93.1919 5.96509C93.8872 5.96509 94.5317 6.06274 95.1255 6.25806C95.7231 6.45337 96.2524 6.73852 96.7134 7.11352C97.1743 7.48462 97.5493 7.9397 97.8384 8.47876C98.1313 9.01782 98.3188 9.63501 98.4009 10.3303ZM102.757 6.12915V18.1292H100.22V6.12915H102.757ZM106.913 18.1292H104.194L108.337 6.12915H111.606L115.743 18.1292H113.024L110.019 8.87134H109.925L106.913 18.1292ZM106.743 13.4124H113.165V15.3928H106.743V13.4124Z" fill="#1C1A16"/>
<path d="M16.6559 0.458649C18.1678 0.45868 19.3844 0.727294 20.235 1.33463H20.236C21.0988 1.92784 21.5415 2.77259 21.5416 3.82193C21.5416 4.77028 21.0642 5.65128 20.2301 6.46255L20.2311 6.46353C19.4099 7.28473 18.2969 7.939 16.9156 8.43912C15.5199 8.94447 13.9552 9.193 12.2281 9.19302C11.5508 9.19302 10.9151 9.16752 10.3219 9.11978C10.33 9.136 10.3379 9.15239 10.3463 9.16861C10.3731 9.17247 10.4002 9.17631 10.4274 9.18033H10.4264C11.0793 9.25417 11.6725 9.40117 12.2008 9.62759C12.7691 9.87115 13.2047 10.2843 13.2047 10.9137C13.2047 11.1982 13.0921 11.4823 12.8092 11.652L12.778 11.6715L12.7438 11.6852C12.5609 11.7583 12.3618 11.7868 12.1588 11.7868C11.473 11.7868 10.8083 11.601 10.1705 11.2438L10.1588 11.2379L10.3942 10.8444L10.1588 11.237C9.80797 11.0264 9.4893 10.7794 9.20081 10.4987C8.63144 10.5795 8.06397 10.7415 7.49866 10.9879C6.64124 11.3617 5.84902 11.8562 5.1217 12.4733L5.12073 12.4743C4.41762 13.0675 3.85188 13.7222 3.41858 14.4372C3.0164 15.1385 2.8278 15.807 2.82776 16.4479C2.82776 16.926 2.93581 17.3235 3.13733 17.6559C3.36316 17.991 3.68751 18.2712 4.12756 18.4919C4.25576 18.5493 4.39615 18.5976 4.54846 18.6393C4.62552 18.1454 4.75925 17.6496 4.94885 17.153C5.26527 16.3011 5.70467 15.5209 6.26526 14.8141C6.82907 14.0802 7.49502 13.4882 8.26233 13.0426C9.0474 12.5868 9.89957 12.3581 10.8102 12.3581C11.6051 12.3582 12.2729 12.6149 12.7262 13.1891H12.7252C13.1335 13.6828 13.3433 14.2554 13.3434 14.8913C13.3434 15.6172 13.0383 16.3869 12.5055 17.1862L12.5016 17.192C11.9424 18.0054 11.1175 18.6827 10.0563 19.2379L10.0573 19.2389C8.98069 19.8148 7.65534 20.0885 6.1051 20.0885C5.98456 20.0885 5.86448 20.0851 5.74475 20.0807C5.77505 20.6729 5.84561 21.196 5.95862 21.652L6.01721 21.8444C6.13757 22.215 6.2793 22.4907 6.43323 22.6872L6.51135 22.779L6.53577 22.8053L6.55627 22.8356C6.66819 23.0037 6.7185 23.2189 6.64417 23.442C6.61084 23.542 6.53876 23.6601 6.40393 23.735C6.27606 23.8061 6.14884 23.8064 6.06604 23.7946C5.91828 23.7734 5.79138 23.6968 5.71252 23.6442C5.53589 23.5264 5.38682 23.348 5.25745 23.154C5.12412 22.954 4.99077 22.7053 4.85803 22.4157L4.8551 22.4088L4.85217 22.401C4.60964 21.8189 4.49348 20.9893 4.47424 19.9499C4.14238 19.8926 3.81384 19.8181 3.48889 19.7253L3.48108 19.7233L3.47327 19.7204C2.62153 19.4447 1.9054 19.0008 1.33948 18.3835C0.739984 17.7293 0.458618 16.8841 0.458618 15.8942C0.458712 14.6142 0.86254 13.4452 1.65881 12.4001L1.66272 12.3942C2.47043 11.3662 3.50811 10.5513 4.76526 9.94693L4.76819 9.94595C5.85776 9.432 7.00117 9.13802 8.19495 9.06021C8.15726 8.96738 8.12207 8.874 8.09241 8.77896C7.93488 8.7402 7.78228 8.69832 7.6344 8.65396C6.45261 8.29943 5.49714 7.86498 4.7926 7.33658L4.78479 7.33072C4.11911 6.80769 3.61261 6.29704 3.29651 5.79654L3.2887 5.78482L3.28186 5.7731C3.02948 5.31423 2.85251 4.96346 2.77014 4.7438C2.73045 4.63788 2.68909 4.50294 2.68909 4.36685C2.68912 4.29559 2.70058 4.19067 2.75842 4.08463C2.81076 3.98882 2.89011 3.91433 2.98499 3.86685C3.15514 3.7715 3.3381 3.78064 3.48206 3.83463C3.61651 3.88517 3.72312 3.97415 3.80042 4.05142L3.84045 4.09146L3.86975 4.14029C3.9487 4.27194 4.09198 4.54795 4.2926 4.94888L4.37268 5.08463C4.57685 5.40712 4.89359 5.77173 5.3385 6.17838C5.8298 6.60707 6.57306 7.00843 7.59924 7.36588C7.70659 7.40082 7.81857 7.43217 7.9342 7.46353C7.97863 6.18812 8.38909 5.02826 9.16272 3.99673L9.1637 3.99576C9.9944 2.89629 11.068 2.03215 12.3746 1.40298L12.3776 1.40201C13.7094 0.772435 15.1378 0.458649 16.6559 0.458649ZM10.8444 13.5856C10.1718 13.5856 9.53985 13.7676 8.94104 14.1393L8.93127 14.1452C8.31667 14.5055 7.75878 14.9956 7.26038 15.6237C6.7838 16.2302 6.4038 16.9156 6.11975 17.6803L6.11877 17.6842C5.97704 18.0549 5.87396 18.4235 5.81018 18.7907C5.8163 18.7907 5.82259 18.7917 5.82874 18.7917C6.523 18.7916 7.22305 18.6443 7.93225 18.3434C8.65113 18.0155 9.30367 17.6019 9.89026 17.1022L9.89612 17.0973L10.1217 16.9059C10.6318 16.4607 11.0317 16.0151 11.3278 15.571L11.3297 15.568C11.6981 15.0263 11.8385 14.6099 11.8385 14.3034C11.8385 14.0862 11.7672 13.9429 11.6266 13.8278L11.6168 13.82L11.608 13.8122C11.4642 13.6816 11.2313 13.5856 10.8444 13.5856ZM17.0358 1.72134C16.0728 1.7214 15.1787 1.94457 14.3473 2.39224C13.4915 2.85311 12.7352 3.43333 12.0778 4.13443L12.0787 4.13541C11.4349 4.82364 10.9303 5.5274 10.5602 6.24576L10.5573 6.25162C10.2124 6.90091 10.0518 7.41186 10.027 7.79947C10.5325 7.83911 11.0813 7.86099 11.6744 7.86099C12.6065 7.86099 13.5764 7.75008 14.5846 7.52603L14.5865 7.52505C15.6171 7.30101 16.552 6.98893 17.3932 6.59048L17.3971 6.58853C18.2562 6.19203 18.9322 5.73806 19.4381 5.23404C19.9264 4.7253 20.1402 4.21203 20.1403 3.68423C20.1403 3.14206 19.9241 2.69313 19.4479 2.31216C18.9909 1.9466 18.2166 1.72134 17.0358 1.72134Z" fill="#1C1A16" stroke="#F2EEE2" stroke-width="0.916667"/>
</svg>
