<svg width="130" height="24" viewBox="0 0 130 24" fill="none" xmlns="http://www.w3.org/2000/svg">
<path d="M33.3613 17.8852H30.6426L34.7852 5.88519H38.0547L42.1914 17.8852H39.4727L36.4668 8.62738H36.373L33.3613 17.8852ZM33.1914 13.1684H39.6133V15.1489H33.1914V13.1684ZM43.6357 17.8852V5.88519H48.4404C49.3232 5.88519 50.0596 6.01605 50.6494 6.27777C51.2393 6.53949 51.6826 6.90277 51.9795 7.36761C52.2764 7.82855 52.4248 8.3598 52.4248 8.96136C52.4248 9.43011 52.3311 9.84222 52.1436 10.1977C51.9561 10.5493 51.6982 10.8383 51.3701 11.0649C51.0459 11.2875 50.6748 11.4457 50.2568 11.5395V11.6567C50.7139 11.6762 51.1416 11.8051 51.54 12.0434C51.9424 12.2817 52.2686 12.6157 52.5186 13.0453C52.7686 13.4711 52.8936 13.9789 52.8936 14.5688C52.8936 15.2055 52.7354 15.7739 52.4189 16.2739C52.1064 16.77 51.6436 17.1625 51.0303 17.4516C50.417 17.7407 49.6611 17.8852 48.7627 17.8852H43.6357ZM46.1729 15.811H48.2412C48.9482 15.811 49.4639 15.6762 49.7881 15.4067C50.1123 15.1332 50.2744 14.77 50.2744 14.3168C50.2744 13.9848 50.1943 13.6918 50.0342 13.4379C49.874 13.184 49.6455 12.9848 49.3486 12.8403C49.0557 12.6957 48.7061 12.6235 48.2998 12.6235H46.1729V15.811ZM46.1729 10.9067H48.0537C48.4014 10.9067 48.71 10.8461 48.9795 10.725C49.2529 10.6 49.4678 10.4243 49.624 10.1977C49.7842 9.97113 49.8643 9.69965 49.8643 9.38324C49.8643 8.94965 49.71 8.60004 49.4014 8.33441C49.0967 8.06879 48.6631 7.93597 48.1006 7.93597H46.1729V10.9067ZM57.0815 5.88519V17.8852H54.5444V5.88519H57.0815ZM59.1689 17.8852V5.88519H61.7061V15.7934H66.8506V17.8852H59.1689ZM71.0679 5.88519V17.8852H68.5308V5.88519H71.0679ZM77.4092 17.8852H73.1553V5.88519H77.4443C78.6514 5.88519 79.6904 6.12543 80.5615 6.6059C81.4326 7.08246 82.1025 7.768 82.5713 8.66254C83.0439 9.55707 83.2803 10.6274 83.2803 11.8735C83.2803 13.1235 83.0439 14.1977 82.5713 15.0961C82.1025 15.9946 81.4287 16.684 80.5498 17.1645C79.6748 17.645 78.6279 17.8852 77.4092 17.8852ZM75.6924 15.7114H77.3037C78.0537 15.7114 78.6846 15.5786 79.1963 15.3129C79.7119 15.0434 80.0986 14.6274 80.3564 14.0649C80.6182 13.4985 80.749 12.768 80.749 11.8735C80.749 10.9868 80.6182 10.2621 80.3564 9.69965C80.0986 9.13715 79.7139 8.72308 79.2021 8.45746C78.6904 8.19183 78.0596 8.05902 77.3096 8.05902H75.6924V15.7114ZM86.5513 17.8852H83.8325L87.9751 5.88519H91.2446L95.3813 17.8852H92.6626L89.6567 8.62738H89.563L86.5513 17.8852ZM86.3813 13.1684H92.8032V15.1489H86.3813V13.1684ZM101.08 17.8852H96.8257V5.88519H101.115C102.322 5.88519 103.361 6.12543 104.232 6.6059C105.103 7.08246 105.773 7.768 106.242 8.66254C106.714 9.55707 106.951 10.6274 106.951 11.8735C106.951 13.1235 106.714 14.1977 106.242 15.0961C105.773 15.9946 105.099 16.684 104.22 17.1645C103.345 17.645 102.298 17.8852 101.08 17.8852ZM99.3628 15.7114H100.974C101.724 15.7114 102.355 15.5786 102.867 15.3129C103.382 15.0434 103.769 14.6274 104.027 14.0649C104.289 13.4985 104.419 12.768 104.419 11.8735C104.419 10.9868 104.289 10.2621 104.027 9.69965C103.769 9.13715 103.384 8.72308 102.873 8.45746C102.361 8.19183 101.73 8.05902 100.98 8.05902H99.3628V15.7114ZM108.83 17.8852V5.88519H116.916V7.97699H111.367V10.8364H116.5V12.9282H111.367V15.7934H116.939V17.8852H108.83ZM125.443 9.33636C125.396 8.86371 125.195 8.49652 124.839 8.2348C124.484 7.97308 124.001 7.84222 123.392 7.84222C122.978 7.84222 122.628 7.90082 122.343 8.01801C122.058 8.13129 121.839 8.28949 121.687 8.49261C121.539 8.69574 121.464 8.92621 121.464 9.18402C121.457 9.39886 121.501 9.58636 121.599 9.74652C121.701 9.90668 121.839 10.0453 122.015 10.1625C122.191 10.2758 122.394 10.3754 122.625 10.4614C122.855 10.5434 123.101 10.6137 123.363 10.6723L124.441 10.9301C124.964 11.0473 125.445 11.2036 125.882 11.3989C126.32 11.5942 126.699 11.8344 127.019 12.1196C127.339 12.4047 127.587 12.7407 127.763 13.1274C127.943 13.5141 128.035 13.9575 128.039 14.4575C128.035 15.1918 127.847 15.8286 127.476 16.3676C127.109 16.9028 126.578 17.3188 125.882 17.6157C125.191 17.9086 124.357 18.0551 123.38 18.0551C122.412 18.0551 121.568 17.9067 120.849 17.6098C120.134 17.3129 119.576 16.8735 119.173 16.2914C118.775 15.7055 118.566 14.9809 118.546 14.1176H121.001C121.029 14.52 121.144 14.8559 121.347 15.1254C121.554 15.3911 121.83 15.5922 122.173 15.7289C122.521 15.8618 122.914 15.9282 123.351 15.9282C123.781 15.9282 124.154 15.8657 124.47 15.7407C124.791 15.6157 125.039 15.4418 125.214 15.2192C125.39 14.9965 125.478 14.7407 125.478 14.4516C125.478 14.1821 125.398 13.9555 125.238 13.7719C125.082 13.5883 124.851 13.4321 124.546 13.3032C124.246 13.1743 123.876 13.0571 123.439 12.9516L122.132 12.6235C121.121 12.3774 120.322 11.9926 119.736 11.4692C119.15 10.9457 118.859 10.2407 118.863 9.35394C118.859 8.62738 119.052 7.99261 119.443 7.44965C119.837 6.90668 120.378 6.48285 121.066 6.17816C121.753 5.87347 122.535 5.72113 123.41 5.72113C124.3 5.72113 125.078 5.87347 125.742 6.17816C126.41 6.48285 126.929 6.90668 127.3 7.44965C127.671 7.99261 127.863 8.62152 127.875 9.33636H125.443Z" fill="#1C1A16"/>
<mask id="path-2-outside-1_7_213" maskUnits="userSpaceOnUse" x="-0.083374" y="-0.0833435" width="40" height="24" fill="black">
<rect fill="white" x="-0.083374" y="-0.0833435" width="40" height="24"/>
<path d="M20.4745 22.8537C20.0443 22.8537 19.5873 22.6924 19.1034 22.3698C18.6195 22.0472 18.3776 21.5095 18.3776 20.7568C18.3776 19.5739 18.727 18.27 19.426 16.8452C20.1519 15.3935 21.0928 13.9283 22.2488 12.4497C23.4317 10.9711 24.7221 9.5463 26.12 8.17524C27.5449 6.80417 28.9563 5.56753 30.3542 4.4653C31.779 3.36307 33.0829 2.50279 34.2658 1.88447C35.4755 1.23926 36.4299 0.916656 37.1289 0.916656C38.0429 0.916656 38.5 1.29303 38.5 2.04577C38.5 2.44902 38.1908 3.09423 37.5725 3.98139C36.981 4.84167 35.9998 5.80948 34.6287 6.88483C33.2576 7.96017 31.443 9.02207 29.1848 10.0705C26.9534 11.119 24.1844 12.0465 20.8777 12.853C19.3454 13.2294 17.7861 13.6057 16.2 13.9821C14.6407 14.3585 13.1621 14.7752 11.7642 15.2322C10.3931 15.6892 9.21023 16.2134 8.21553 16.8049C7.24772 17.3963 6.57563 18.0953 6.19926 18.9018C6.14549 19.0362 6.06484 19.09 5.95731 19.0631C5.87666 19.0362 5.8901 18.9153 5.99763 18.7002C6.32024 17.9474 6.96545 17.2754 7.93326 16.6839C8.92795 16.0656 10.1108 15.5145 11.4819 15.0306C12.8798 14.5467 14.3719 14.1031 15.958 13.6998C17.5442 13.2697 19.1169 12.8664 20.6761 12.4901C23.3645 11.8449 25.6765 11.0921 27.6121 10.2318C29.5746 9.34468 31.2145 8.44408 32.5318 7.53003C33.8491 6.61599 34.8976 5.75571 35.6772 4.9492C36.4837 4.11581 37.0617 3.43028 37.4112 2.8926C37.7607 2.32805 37.9354 1.97856 37.9354 1.84414C37.9354 1.46777 37.7203 1.27959 37.2902 1.27959C36.645 1.27959 35.8385 1.57531 34.8707 2.16675C33.9297 2.75819 32.8947 3.55125 31.7656 4.54595C30.6365 5.54064 29.4805 6.65631 28.2976 7.89296C27.1416 9.12961 26.0125 10.4066 24.9103 11.7239C23.8349 13.0412 22.8671 14.3182 22.0068 15.5548C21.1466 16.7914 20.461 17.9071 19.9502 18.9018C19.4663 19.8696 19.2244 20.6358 19.2244 21.2004C19.2244 21.7918 19.3588 22.1547 19.6276 22.2892C19.9234 22.3967 20.246 22.4505 20.5955 22.4505C21.2407 22.4505 21.9128 22.2219 22.6117 21.7649C23.3107 21.281 23.9693 20.6627 24.5877 19.9099C25.2329 19.1572 25.7706 18.3641 26.2007 17.5307C26.6308 16.6705 26.9131 15.8774 27.0475 15.1515C27.1013 14.9365 27.1954 14.8693 27.3298 14.9499C27.4911 15.0037 27.5583 15.2591 27.5314 15.7161C27.5045 16.3075 27.276 17.02 26.8459 17.8534C26.4158 18.6599 25.8512 19.4395 25.1522 20.1922C24.4533 20.945 23.7005 21.5767 22.894 22.0875C22.0875 22.5983 21.281 22.8537 20.4745 22.8537ZM4.18299 22.8537C3.21518 22.8537 2.43555 22.679 1.84411 22.3295C1.22579 21.9531 0.916626 21.4289 0.916626 20.7568C0.916626 20.4073 1.05104 20.1116 1.31988 19.8696C1.56183 19.6008 1.89788 19.4664 2.32802 19.4664C2.86569 19.4664 3.13453 19.6814 3.13453 20.1116C3.13453 20.4342 3.04043 20.6492 2.85225 20.7568C2.63718 20.8643 2.46244 20.9181 2.32802 20.9181C2.05918 20.9181 1.871 20.8912 1.76346 20.8374C1.62904 20.7837 1.56183 20.7568 1.56183 20.7568C1.56183 21.0256 1.69625 21.3751 1.96509 21.8052C2.20704 22.2085 2.82536 22.4101 3.82006 22.4101C4.8954 22.4101 5.93042 22.1144 6.92512 21.523C7.9467 20.9046 8.92795 20.0981 9.86888 19.1034C10.8367 18.0819 11.7776 16.9796 12.6917 15.7968C13.6326 14.587 14.5735 13.3907 15.5144 12.2078C16.2672 11.24 17.0737 10.2587 17.934 9.26403C18.7942 8.26933 19.668 7.34185 20.5551 6.48157C21.4423 5.59441 22.2757 4.85511 23.0553 4.26367C23.2704 4.10237 23.4586 3.99483 23.6199 3.94107C23.808 3.8873 23.8753 3.92762 23.8215 4.06204C23.7946 4.14269 23.4989 4.41153 22.9343 4.86855C22.3967 5.32557 21.7111 5.83636 20.8777 6.40092C20.0443 6.96548 19.1706 7.46282 18.2566 7.89296C17.3425 8.3231 16.5091 8.53817 15.7564 8.53817C15.165 8.53817 14.7079 8.40375 14.3853 8.13491C14.0896 7.86608 13.9418 7.48971 13.9418 7.0058C13.9418 6.38748 14.0896 5.8498 14.3853 5.39278C14.7079 4.93576 15.0574 4.54595 15.4338 4.22334C15.837 3.90074 16.1865 3.61846 16.4823 3.37651C16.8049 3.13456 16.9662 2.8926 16.9662 2.65065C16.9662 2.27428 16.7511 2.01889 16.321 1.88447C15.9177 1.72317 15.4338 1.64252 14.8692 1.64252C13.8208 1.64252 12.9067 1.84414 12.1271 2.2474C11.3744 2.62377 10.8367 3.00014 10.5141 3.37651C10.3528 3.53781 10.2184 3.57814 10.1108 3.49749C10.0033 3.38995 10.0033 3.28242 10.1108 3.17488C10.2453 3.01358 10.5275 2.78507 10.9577 2.48935C11.3878 2.19363 11.9389 1.92479 12.611 1.68284C13.2831 1.414 14.0358 1.27959 14.8692 1.27959C15.1112 1.27959 15.4472 1.31991 15.8774 1.40056C16.3344 1.45433 16.7377 1.60219 17.0871 1.84414C17.4635 2.08609 17.6517 2.50279 17.6517 3.09423C17.6517 3.82009 17.4904 4.41153 17.1678 4.86855C16.8452 5.32557 16.4823 5.70194 16.079 5.99767C15.6757 6.2665 15.3128 6.49501 14.9902 6.6832C14.6676 6.87138 14.5063 7.08645 14.5063 7.3284C14.5063 7.51659 14.6273 7.70478 14.8692 7.89296C15.1112 8.05426 15.4607 8.13491 15.9177 8.13491C16.6704 8.13491 17.4501 7.91985 18.2566 7.48971C19.09 7.05957 19.9099 6.5219 20.7164 5.87669C21.5498 5.23148 22.3563 4.57283 23.136 3.90074C23.9156 3.20177 24.628 2.59688 25.2732 2.08609C25.9453 1.54842 26.5367 1.21238 27.0475 1.07796C27.1819 1.02419 27.276 1.02419 27.3298 1.07796C27.4105 1.10484 27.3432 1.18549 27.1282 1.31991C26.3754 1.72316 25.542 2.42214 24.628 3.41684C23.7408 4.38465 22.7865 5.5272 21.7649 6.8445C20.7433 8.1618 19.668 9.54631 18.5389 10.998C17.4366 12.4497 16.2941 13.8746 15.1112 15.2725C13.9552 16.6705 12.7723 17.9474 11.5625 19.1034C10.3528 20.2326 9.12958 21.1466 7.89293 21.8456C6.65628 22.5177 5.41964 22.8537 4.18299 22.8537Z"/>
</mask>
<path d="M20.4745 22.8537C20.0443 22.8537 19.5873 22.6924 19.1034 22.3698C18.6195 22.0472 18.3776 21.5095 18.3776 20.7568C18.3776 19.5739 18.727 18.27 19.426 16.8452C20.1519 15.3935 21.0928 13.9283 22.2488 12.4497C23.4317 10.9711 24.7221 9.5463 26.12 8.17524C27.5449 6.80417 28.9563 5.56753 30.3542 4.4653C31.779 3.36307 33.0829 2.50279 34.2658 1.88447C35.4755 1.23926 36.4299 0.916656 37.1289 0.916656C38.0429 0.916656 38.5 1.29303 38.5 2.04577C38.5 2.44902 38.1908 3.09423 37.5725 3.98139C36.981 4.84167 35.9998 5.80948 34.6287 6.88483C33.2576 7.96017 31.443 9.02207 29.1848 10.0705C26.9534 11.119 24.1844 12.0465 20.8777 12.853C19.3454 13.2294 17.7861 13.6057 16.2 13.9821C14.6407 14.3585 13.1621 14.7752 11.7642 15.2322C10.3931 15.6892 9.21023 16.2134 8.21553 16.8049C7.24772 17.3963 6.57563 18.0953 6.19926 18.9018C6.14549 19.0362 6.06484 19.09 5.95731 19.0631C5.87666 19.0362 5.8901 18.9153 5.99763 18.7002C6.32024 17.9474 6.96545 17.2754 7.93326 16.6839C8.92795 16.0656 10.1108 15.5145 11.4819 15.0306C12.8798 14.5467 14.3719 14.1031 15.958 13.6998C17.5442 13.2697 19.1169 12.8664 20.6761 12.4901C23.3645 11.8449 25.6765 11.0921 27.6121 10.2318C29.5746 9.34468 31.2145 8.44408 32.5318 7.53003C33.8491 6.61599 34.8976 5.75571 35.6772 4.9492C36.4837 4.11581 37.0617 3.43028 37.4112 2.8926C37.7607 2.32805 37.9354 1.97856 37.9354 1.84414C37.9354 1.46777 37.7203 1.27959 37.2902 1.27959C36.645 1.27959 35.8385 1.57531 34.8707 2.16675C33.9297 2.75819 32.8947 3.55125 31.7656 4.54595C30.6365 5.54064 29.4805 6.65631 28.2976 7.89296C27.1416 9.12961 26.0125 10.4066 24.9103 11.7239C23.8349 13.0412 22.8671 14.3182 22.0068 15.5548C21.1466 16.7914 20.461 17.9071 19.9502 18.9018C19.4663 19.8696 19.2244 20.6358 19.2244 21.2004C19.2244 21.7918 19.3588 22.1547 19.6276 22.2892C19.9234 22.3967 20.246 22.4505 20.5955 22.4505C21.2407 22.4505 21.9128 22.2219 22.6117 21.7649C23.3107 21.281 23.9693 20.6627 24.5877 19.9099C25.2329 19.1572 25.7706 18.3641 26.2007 17.5307C26.6308 16.6705 26.9131 15.8774 27.0475 15.1515C27.1013 14.9365 27.1954 14.8693 27.3298 14.9499C27.4911 15.0037 27.5583 15.2591 27.5314 15.7161C27.5045 16.3075 27.276 17.02 26.8459 17.8534C26.4158 18.6599 25.8512 19.4395 25.1522 20.1922C24.4533 20.945 23.7005 21.5767 22.894 22.0875C22.0875 22.5983 21.281 22.8537 20.4745 22.8537ZM4.18299 22.8537C3.21518 22.8537 2.43555 22.679 1.84411 22.3295C1.22579 21.9531 0.916626 21.4289 0.916626 20.7568C0.916626 20.4073 1.05104 20.1116 1.31988 19.8696C1.56183 19.6008 1.89788 19.4664 2.32802 19.4664C2.86569 19.4664 3.13453 19.6814 3.13453 20.1116C3.13453 20.4342 3.04043 20.6492 2.85225 20.7568C2.63718 20.8643 2.46244 20.9181 2.32802 20.9181C2.05918 20.9181 1.871 20.8912 1.76346 20.8374C1.62904 20.7837 1.56183 20.7568 1.56183 20.7568C1.56183 21.0256 1.69625 21.3751 1.96509 21.8052C2.20704 22.2085 2.82536 22.4101 3.82006 22.4101C4.8954 22.4101 5.93042 22.1144 6.92512 21.523C7.9467 20.9046 8.92795 20.0981 9.86888 19.1034C10.8367 18.0819 11.7776 16.9796 12.6917 15.7968C13.6326 14.587 14.5735 13.3907 15.5144 12.2078C16.2672 11.24 17.0737 10.2587 17.934 9.26403C18.7942 8.26933 19.668 7.34185 20.5551 6.48157C21.4423 5.59441 22.2757 4.85511 23.0553 4.26367C23.2704 4.10237 23.4586 3.99483 23.6199 3.94107C23.808 3.8873 23.8753 3.92762 23.8215 4.06204C23.7946 4.14269 23.4989 4.41153 22.9343 4.86855C22.3967 5.32557 21.7111 5.83636 20.8777 6.40092C20.0443 6.96548 19.1706 7.46282 18.2566 7.89296C17.3425 8.3231 16.5091 8.53817 15.7564 8.53817C15.165 8.53817 14.7079 8.40375 14.3853 8.13491C14.0896 7.86608 13.9418 7.48971 13.9418 7.0058C13.9418 6.38748 14.0896 5.8498 14.3853 5.39278C14.7079 4.93576 15.0574 4.54595 15.4338 4.22334C15.837 3.90074 16.1865 3.61846 16.4823 3.37651C16.8049 3.13456 16.9662 2.8926 16.9662 2.65065C16.9662 2.27428 16.7511 2.01889 16.321 1.88447C15.9177 1.72317 15.4338 1.64252 14.8692 1.64252C13.8208 1.64252 12.9067 1.84414 12.1271 2.2474C11.3744 2.62377 10.8367 3.00014 10.5141 3.37651C10.3528 3.53781 10.2184 3.57814 10.1108 3.49749C10.0033 3.38995 10.0033 3.28242 10.1108 3.17488C10.2453 3.01358 10.5275 2.78507 10.9577 2.48935C11.3878 2.19363 11.9389 1.92479 12.611 1.68284C13.2831 1.414 14.0358 1.27959 14.8692 1.27959C15.1112 1.27959 15.4472 1.31991 15.8774 1.40056C16.3344 1.45433 16.7377 1.60219 17.0871 1.84414C17.4635 2.08609 17.6517 2.50279 17.6517 3.09423C17.6517 3.82009 17.4904 4.41153 17.1678 4.86855C16.8452 5.32557 16.4823 5.70194 16.079 5.99767C15.6757 6.2665 15.3128 6.49501 14.9902 6.6832C14.6676 6.87138 14.5063 7.08645 14.5063 7.3284C14.5063 7.51659 14.6273 7.70478 14.8692 7.89296C15.1112 8.05426 15.4607 8.13491 15.9177 8.13491C16.6704 8.13491 17.4501 7.91985 18.2566 7.48971C19.09 7.05957 19.9099 6.5219 20.7164 5.87669C21.5498 5.23148 22.3563 4.57283 23.136 3.90074C23.9156 3.20177 24.628 2.59688 25.2732 2.08609C25.9453 1.54842 26.5367 1.21238 27.0475 1.07796C27.1819 1.02419 27.276 1.02419 27.3298 1.07796C27.4105 1.10484 27.3432 1.18549 27.1282 1.31991C26.3754 1.72316 25.542 2.42214 24.628 3.41684C23.7408 4.38465 22.7865 5.5272 21.7649 6.8445C20.7433 8.1618 19.668 9.54631 18.5389 10.998C17.4366 12.4497 16.2941 13.8746 15.1112 15.2725C13.9552 16.6705 12.7723 17.9474 11.5625 19.1034C10.3528 20.2326 9.12958 21.1466 7.89293 21.8456C6.65628 22.5177 5.41964 22.8537 4.18299 22.8537Z" fill="#1C1A16"/>
<path d="M20.4745 22.8537C20.0443 22.8537 19.5873 22.6924 19.1034 22.3698C18.6195 22.0472 18.3776 21.5095 18.3776 20.7568C18.3776 19.5739 18.727 18.27 19.426 16.8452C20.1519 15.3935 21.0928 13.9283 22.2488 12.4497C23.4317 10.9711 24.7221 9.5463 26.12 8.17524C27.5449 6.80417 28.9563 5.56753 30.3542 4.4653C31.779 3.36307 33.0829 2.50279 34.2658 1.88447C35.4755 1.23926 36.4299 0.916656 37.1289 0.916656C38.0429 0.916656 38.5 1.29303 38.5 2.04577C38.5 2.44902 38.1908 3.09423 37.5725 3.98139C36.981 4.84167 35.9998 5.80948 34.6287 6.88483C33.2576 7.96017 31.443 9.02207 29.1848 10.0705C26.9534 11.119 24.1844 12.0465 20.8777 12.853C19.3454 13.2294 17.7861 13.6057 16.2 13.9821C14.6407 14.3585 13.1621 14.7752 11.7642 15.2322C10.3931 15.6892 9.21023 16.2134 8.21553 16.8049C7.24772 17.3963 6.57563 18.0953 6.19926 18.9018C6.14549 19.0362 6.06484 19.09 5.95731 19.0631C5.87666 19.0362 5.8901 18.9153 5.99763 18.7002C6.32024 17.9474 6.96545 17.2754 7.93326 16.6839C8.92795 16.0656 10.1108 15.5145 11.4819 15.0306C12.8798 14.5467 14.3719 14.1031 15.958 13.6998C17.5442 13.2697 19.1169 12.8664 20.6761 12.4901C23.3645 11.8449 25.6765 11.0921 27.6121 10.2318C29.5746 9.34468 31.2145 8.44408 32.5318 7.53003C33.8491 6.61599 34.8976 5.75571 35.6772 4.9492C36.4837 4.11581 37.0617 3.43028 37.4112 2.8926C37.7607 2.32805 37.9354 1.97856 37.9354 1.84414C37.9354 1.46777 37.7203 1.27959 37.2902 1.27959C36.645 1.27959 35.8385 1.57531 34.8707 2.16675C33.9297 2.75819 32.8947 3.55125 31.7656 4.54595C30.6365 5.54064 29.4805 6.65631 28.2976 7.89296C27.1416 9.12961 26.0125 10.4066 24.9103 11.7239C23.8349 13.0412 22.8671 14.3182 22.0068 15.5548C21.1466 16.7914 20.461 17.9071 19.9502 18.9018C19.4663 19.8696 19.2244 20.6358 19.2244 21.2004C19.2244 21.7918 19.3588 22.1547 19.6276 22.2892C19.9234 22.3967 20.246 22.4505 20.5955 22.4505C21.2407 22.4505 21.9128 22.2219 22.6117 21.7649C23.3107 21.281 23.9693 20.6627 24.5877 19.9099C25.2329 19.1572 25.7706 18.3641 26.2007 17.5307C26.6308 16.6705 26.9131 15.8774 27.0475 15.1515C27.1013 14.9365 27.1954 14.8693 27.3298 14.9499C27.4911 15.0037 27.5583 15.2591 27.5314 15.7161C27.5045 16.3075 27.276 17.02 26.8459 17.8534C26.4158 18.6599 25.8512 19.4395 25.1522 20.1922C24.4533 20.945 23.7005 21.5767 22.894 22.0875C22.0875 22.5983 21.281 22.8537 20.4745 22.8537ZM4.18299 22.8537C3.21518 22.8537 2.43555 22.679 1.84411 22.3295C1.22579 21.9531 0.916626 21.4289 0.916626 20.7568C0.916626 20.4073 1.05104 20.1116 1.31988 19.8696C1.56183 19.6008 1.89788 19.4664 2.32802 19.4664C2.86569 19.4664 3.13453 19.6814 3.13453 20.1116C3.13453 20.4342 3.04043 20.6492 2.85225 20.7568C2.63718 20.8643 2.46244 20.9181 2.32802 20.9181C2.05918 20.9181 1.871 20.8912 1.76346 20.8374C1.62904 20.7837 1.56183 20.7568 1.56183 20.7568C1.56183 21.0256 1.69625 21.3751 1.96509 21.8052C2.20704 22.2085 2.82536 22.4101 3.82006 22.4101C4.8954 22.4101 5.93042 22.1144 6.92512 21.523C7.9467 20.9046 8.92795 20.0981 9.86888 19.1034C10.8367 18.0819 11.7776 16.9796 12.6917 15.7968C13.6326 14.587 14.5735 13.3907 15.5144 12.2078C16.2672 11.24 17.0737 10.2587 17.934 9.26403C18.7942 8.26933 19.668 7.34185 20.5551 6.48157C21.4423 5.59441 22.2757 4.85511 23.0553 4.26367C23.2704 4.10237 23.4586 3.99483 23.6199 3.94107C23.808 3.8873 23.8753 3.92762 23.8215 4.06204C23.7946 4.14269 23.4989 4.41153 22.9343 4.86855C22.3967 5.32557 21.7111 5.83636 20.8777 6.40092C20.0443 6.96548 19.1706 7.46282 18.2566 7.89296C17.3425 8.3231 16.5091 8.53817 15.7564 8.53817C15.165 8.53817 14.7079 8.40375 14.3853 8.13491C14.0896 7.86608 13.9418 7.48971 13.9418 7.0058C13.9418 6.38748 14.0896 5.8498 14.3853 5.39278C14.7079 4.93576 15.0574 4.54595 15.4338 4.22334C15.837 3.90074 16.1865 3.61846 16.4823 3.37651C16.8049 3.13456 16.9662 2.8926 16.9662 2.65065C16.9662 2.27428 16.7511 2.01889 16.321 1.88447C15.9177 1.72317 15.4338 1.64252 14.8692 1.64252C13.8208 1.64252 12.9067 1.84414 12.1271 2.2474C11.3744 2.62377 10.8367 3.00014 10.5141 3.37651C10.3528 3.53781 10.2184 3.57814 10.1108 3.49749C10.0033 3.38995 10.0033 3.28242 10.1108 3.17488C10.2453 3.01358 10.5275 2.78507 10.9577 2.48935C11.3878 2.19363 11.9389 1.92479 12.611 1.68284C13.2831 1.414 14.0358 1.27959 14.8692 1.27959C15.1112 1.27959 15.4472 1.31991 15.8774 1.40056C16.3344 1.45433 16.7377 1.60219 17.0871 1.84414C17.4635 2.08609 17.6517 2.50279 17.6517 3.09423C17.6517 3.82009 17.4904 4.41153 17.1678 4.86855C16.8452 5.32557 16.4823 5.70194 16.079 5.99767C15.6757 6.2665 15.3128 6.49501 14.9902 6.6832C14.6676 6.87138 14.5063 7.08645 14.5063 7.3284C14.5063 7.51659 14.6273 7.70478 14.8692 7.89296C15.1112 8.05426 15.4607 8.13491 15.9177 8.13491C16.6704 8.13491 17.4501 7.91985 18.2566 7.48971C19.09 7.05957 19.9099 6.5219 20.7164 5.87669C21.5498 5.23148 22.3563 4.57283 23.136 3.90074C23.9156 3.20177 24.628 2.59688 25.2732 2.08609C25.9453 1.54842 26.5367 1.21238 27.0475 1.07796C27.1819 1.02419 27.276 1.02419 27.3298 1.07796C27.4105 1.10484 27.3432 1.18549 27.1282 1.31991C26.3754 1.72316 25.542 2.42214 24.628 3.41684C23.7408 4.38465 22.7865 5.5272 21.7649 6.8445C20.7433 8.1618 19.668 9.54631 18.5389 10.998C17.4366 12.4497 16.2941 13.8746 15.1112 15.2725C13.9552 16.6705 12.7723 17.9474 11.5625 19.1034C10.3528 20.2326 9.12958 21.1466 7.89293 21.8456C6.65628 22.5177 5.41964 22.8537 4.18299 22.8537Z" stroke="#F2EEE2" stroke-width="1.83333" mask="url(#path-2-outside-1_7_213)"/>
</svg>
