<svg width="266" height="284" viewBox="0 0 266 284" fill="none" xmlns="http://www.w3.org/2000/svg">
<g clip-path="url(#clip0_26_542)">
<path d="M78.0234 284.06L78.2721 284.056L78.2721 270.575L78.0234 270.579L77.7748 270.583L77.7748 284.064L78.0234 284.06ZM19.2305 61.1126L19.4424 60.9778L2.2119 32.8763L2 33.0111L1.78809 33.1459L19.0186 61.2473L19.2305 61.1126ZM78.0234 270.579L78.2721 270.575C78.272 196.262 57.9096 123.715 19.4424 60.9778L19.2305 61.1126L19.0186 61.2473C57.4377 123.906 77.7748 196.362 77.7748 270.583L78.0234 270.579Z" fill="#1C1A16"/>
<path d="M186.937 284.148L186.689 284.144L186.689 270.645L186.937 270.649L187.186 270.653L187.186 284.152L186.937 284.148ZM245.713 61.2108L245.501 61.076L262.788 32.8764L263 33.0111L263.212 33.1459L245.925 61.3455L245.713 61.2108ZM186.937 270.649L186.689 270.645C186.689 196.343 207.045 123.806 245.501 61.076L245.713 61.2108L245.925 61.3455C207.517 123.998 187.186 196.443 187.186 270.653L186.937 270.649Z" fill="#1C1A16"/>
<ellipse cx="132.5" cy="29.9375" rx="132" ry="19.5" stroke="#1C1A16" stroke-width="0.5"/>
</g>
<defs>
<clipPath id="clip0_26_542">
<rect width="265.5" height="284" fill="white"/>
</clipPath>
</defs>
</svg>
