<svg width="150" height="24" viewBox="0 0 150 24" fill="none" xmlns="http://www.w3.org/2000/svg">
<path d="M31.293 17.8852V5.88519H39.3789V7.97699H33.8301V10.8364H38.9629V12.9282H33.8301V15.7934H39.4023V17.8852H31.293ZM41.396 17.8852V5.88519H46.1304C47.0366 5.88519 47.8101 6.0473 48.4507 6.37152C49.0952 6.69183 49.5854 7.14691 49.9214 7.73676C50.2612 8.32269 50.4312 9.01215 50.4312 9.80511C50.4312 10.602 50.2593 11.2875 49.9155 11.8618C49.5718 12.4321 49.0737 12.8696 48.4214 13.1743C47.7729 13.4789 46.9878 13.6313 46.0659 13.6313H42.896V11.5922H45.6558C46.1401 11.5922 46.5425 11.5258 46.8628 11.393C47.1831 11.2602 47.4214 11.061 47.5776 10.7953C47.7378 10.5297 47.8179 10.1996 47.8179 9.80511C47.8179 9.40668 47.7378 9.07074 47.5776 8.7973C47.4214 8.52386 47.1812 8.31683 46.8569 8.17621C46.5366 8.03168 46.1323 7.95941 45.644 7.95941H43.9331V17.8852H41.396ZM47.8765 12.4243L50.8589 17.8852H48.0581L45.1401 12.4243H47.8765ZM52.2241 17.8852V5.88519H56.9585C57.8647 5.88519 58.6382 6.0473 59.2788 6.37152C59.9233 6.69183 60.4136 7.14691 60.7495 7.73676C61.0894 8.32269 61.2593 9.01215 61.2593 9.80511C61.2593 10.602 61.0874 11.2875 60.7437 11.8618C60.3999 12.4321 59.9019 12.8696 59.2495 13.1743C58.6011 13.4789 57.8159 13.6313 56.894 13.6313H53.7241V11.5922H56.4839C56.9683 11.5922 57.3706 11.5258 57.6909 11.393C58.0112 11.2602 58.2495 11.061 58.4058 10.7953C58.5659 10.5297 58.646 10.1996 58.646 9.80511C58.646 9.40668 58.5659 9.07074 58.4058 8.7973C58.2495 8.52386 58.0093 8.31683 57.6851 8.17621C57.3647 8.03168 56.9604 7.95941 56.4722 7.95941H54.7612V17.8852H52.2241ZM58.7046 12.4243L61.687 17.8852H58.8862L55.9683 12.4243H58.7046ZM65.1206 17.8852H62.4019L66.5444 5.88519H69.814L73.9507 17.8852H71.2319L68.2261 8.62738H68.1323L65.1206 17.8852ZM64.9507 13.1684H71.3726V15.1489H64.9507V13.1684ZM75.395 5.88519H78.5239L81.8286 13.9477H81.9692L85.2739 5.88519H88.4028V17.8852H85.9419V10.0746H85.8423L82.7368 17.8266H81.061L77.9556 10.0453H77.856V17.8852H75.395V5.88519ZM93.0303 5.88519V17.8852H90.4932V5.88519H93.0303ZM95.1177 17.8852V5.88519H103.204V7.97699H97.6548V10.8364H102.788V12.9282H97.6548V15.7934H103.227V17.8852H95.1177ZM115.258 5.88519V17.8852H113.066L107.846 10.3325H107.758V17.8852H105.221V5.88519H107.447L112.627 13.4321H112.732V5.88519H115.258ZM116.897 7.97699V5.88519H126.752V7.97699H123.079V17.8852H120.571V7.97699H116.897ZM128.978 17.8852H126.259L130.401 5.88519H133.671L137.808 17.8852H135.089L132.083 8.62738H131.989L128.978 17.8852ZM128.808 13.1684H135.229V15.1489H128.808V13.1684ZM145.488 9.33636C145.441 8.86371 145.24 8.49652 144.884 8.2348C144.529 7.97308 144.046 7.84222 143.437 7.84222C143.023 7.84222 142.673 7.90082 142.388 8.01801C142.103 8.13129 141.884 8.28949 141.732 8.49261C141.583 8.69574 141.509 8.92621 141.509 9.18402C141.501 9.39886 141.546 9.58636 141.644 9.74652C141.746 9.90668 141.884 10.0453 142.06 10.1625C142.236 10.2758 142.439 10.3754 142.669 10.4614C142.9 10.5434 143.146 10.6137 143.408 10.6723L144.486 10.9301C145.009 11.0473 145.49 11.2036 145.927 11.3989C146.365 11.5942 146.744 11.8344 147.064 12.1196C147.384 12.4047 147.632 12.7407 147.808 13.1274C147.988 13.5141 148.08 13.9575 148.083 14.4575C148.08 15.1918 147.892 15.8286 147.521 16.3676C147.154 16.9028 146.623 17.3188 145.927 17.6157C145.236 17.9086 144.402 18.0551 143.425 18.0551C142.457 18.0551 141.613 17.9067 140.894 17.6098C140.179 17.3129 139.621 16.8735 139.218 16.2914C138.82 15.7055 138.611 14.9809 138.591 14.1176H141.046C141.074 14.52 141.189 14.8559 141.392 15.1254C141.599 15.3911 141.875 15.5922 142.218 15.7289C142.566 15.8618 142.958 15.9282 143.396 15.9282C143.826 15.9282 144.199 15.8657 144.515 15.7407C144.835 15.6157 145.083 15.4418 145.259 15.2192C145.435 14.9965 145.523 14.7407 145.523 14.4516C145.523 14.1821 145.443 13.9555 145.283 13.7719C145.126 13.5883 144.896 13.4321 144.591 13.3032C144.291 13.1743 143.921 13.0571 143.484 12.9516L142.177 12.6235C141.166 12.3774 140.367 11.9926 139.781 11.4692C139.195 10.9457 138.904 10.2407 138.908 9.35394C138.904 8.62738 139.097 7.99261 139.488 7.44965C139.882 6.90668 140.423 6.48285 141.111 6.17816C141.798 5.87347 142.58 5.72113 143.455 5.72113C144.345 5.72113 145.123 5.87347 145.787 6.17816C146.455 6.48285 146.974 6.90668 147.345 7.44965C147.716 7.99261 147.908 8.62152 147.919 9.33636H145.488Z" fill="#1C1A16"/>
<mask id="path-2-outside-1_9_296" maskUnits="userSpaceOnUse" x="-0.083374" y="-0.083313" width="40" height="24" fill="black">
<rect fill="white" x="-0.083374" y="-0.083313" width="40" height="24"/>
<path d="M20.4745 22.8537C20.0443 22.8537 19.5873 22.6924 19.1034 22.3698C18.6195 22.0472 18.3776 21.5096 18.3776 20.7568C18.3776 19.5739 18.727 18.2701 19.426 16.8452C20.1519 15.3935 21.0928 13.9284 22.2488 12.4498C23.4317 10.9712 24.7221 9.54634 26.12 8.17527C27.5449 6.8042 28.9563 5.56756 30.3542 4.46533C31.779 3.3631 33.0829 2.50282 34.2658 1.8845C35.4755 1.23929 36.4299 0.916687 37.1289 0.916687C38.0429 0.916687 38.5 1.29306 38.5 2.0458C38.5 2.44905 38.1908 3.09426 37.5725 3.98142C36.981 4.8417 35.9998 5.80951 34.6287 6.88486C33.2576 7.9602 31.443 9.02211 29.1848 10.0706C26.9534 11.119 24.1844 12.0465 20.8777 12.853C19.3454 13.2294 17.7861 13.6058 16.2 13.9821C14.6407 14.3585 13.1621 14.7752 11.7642 15.2322C10.3931 15.6892 9.21023 16.2135 8.21553 16.8049C7.24772 17.3964 6.57563 18.0953 6.19926 18.9018C6.14549 19.0363 6.06484 19.09 5.95731 19.0631C5.87666 19.0363 5.8901 18.9153 5.99763 18.7002C6.32024 17.9475 6.96545 17.2754 7.93326 16.6839C8.92795 16.0656 10.1108 15.5145 11.4819 15.0306C12.8798 14.5467 14.3719 14.1031 15.958 13.6999C17.5442 13.2697 19.1169 12.8665 20.6761 12.4901C23.3645 11.8449 25.6765 11.0921 27.6121 10.2319C29.5746 9.34471 31.2145 8.44411 32.5318 7.53006C33.8491 6.61602 34.8976 5.75574 35.6772 4.94923C36.4837 4.11584 37.0617 3.43031 37.4112 2.89263C37.7607 2.32808 37.9354 1.97859 37.9354 1.84417C37.9354 1.4678 37.7203 1.27962 37.2902 1.27962C36.645 1.27962 35.8385 1.57534 34.8707 2.16678C33.9297 2.75822 32.8947 3.55128 31.7656 4.54598C30.6365 5.54067 29.4805 6.65634 28.2976 7.89299C27.1416 9.12964 26.0125 10.4066 24.9103 11.7239C23.8349 13.0412 22.8671 14.3182 22.0068 15.5548C21.1466 16.7915 20.461 17.9071 19.9502 18.9018C19.4663 19.8697 19.2244 20.6358 19.2244 21.2004C19.2244 21.7918 19.3588 22.1548 19.6276 22.2892C19.9234 22.3967 20.246 22.4505 20.5955 22.4505C21.2407 22.4505 21.9128 22.222 22.6117 21.765C23.3107 21.281 23.9693 20.6627 24.5877 19.91C25.2329 19.1572 25.7706 18.3642 26.2007 17.5308C26.6308 16.6705 26.9131 15.8774 27.0475 15.1516C27.1013 14.9365 27.1954 14.8693 27.3298 14.9499C27.4911 15.0037 27.5583 15.2591 27.5314 15.7161C27.5045 16.3076 27.276 17.02 26.8459 17.8534C26.4158 18.6599 25.8512 19.4395 25.1522 20.1923C24.4533 20.945 23.7005 21.5768 22.894 22.0876C22.0875 22.5983 21.281 22.8537 20.4745 22.8537ZM4.18299 22.8537C3.21518 22.8537 2.43555 22.679 1.84411 22.3295C1.22579 21.9531 0.916626 21.4289 0.916626 20.7568C0.916626 20.4073 1.05104 20.1116 1.31988 19.8697C1.56183 19.6008 1.89788 19.4664 2.32802 19.4664C2.86569 19.4664 3.13453 19.6815 3.13453 20.1116C3.13453 20.4342 3.04043 20.6493 2.85225 20.7568C2.63718 20.8643 2.46244 20.9181 2.32802 20.9181C2.05918 20.9181 1.871 20.8912 1.76346 20.8375C1.62904 20.7837 1.56183 20.7568 1.56183 20.7568C1.56183 21.0257 1.69625 21.3751 1.96509 21.8053C2.20704 22.2085 2.82536 22.4102 3.82006 22.4102C4.8954 22.4102 5.93042 22.1144 6.92512 21.523C7.9467 20.9047 8.92795 20.0982 9.86888 19.1035C10.8367 18.0819 11.7776 16.9797 12.6917 15.7968C13.6326 14.587 14.5735 13.3907 15.5144 12.2078C16.2672 11.24 17.0737 10.2588 17.934 9.26406C18.7942 8.26936 19.668 7.34188 20.5551 6.4816C21.4423 5.59444 22.2757 4.85514 23.0553 4.2637C23.2704 4.1024 23.4586 3.99486 23.6199 3.9411C23.808 3.88733 23.8753 3.92765 23.8215 4.06207C23.7946 4.14272 23.4989 4.41156 22.9343 4.86858C22.3967 5.3256 21.7111 5.83639 20.8777 6.40095C20.0443 6.96551 19.1706 7.46285 18.2566 7.89299C17.3425 8.32313 16.5091 8.5382 15.7564 8.5382C15.165 8.5382 14.7079 8.40378 14.3853 8.13494C14.0896 7.86611 13.9418 7.48974 13.9418 7.00583C13.9418 6.38751 14.0896 5.84984 14.3853 5.39281C14.7079 4.93579 15.0574 4.54598 15.4338 4.22338C15.837 3.90077 16.1865 3.61849 16.4823 3.37654C16.8049 3.13459 16.9662 2.89263 16.9662 2.65068C16.9662 2.27431 16.7511 2.01892 16.321 1.8845C15.9177 1.7232 15.4338 1.64255 14.8692 1.64255C13.8208 1.64255 12.9067 1.84417 12.1271 2.24743C11.3744 2.6238 10.8367 3.00017 10.5141 3.37654C10.3528 3.53784 10.2184 3.57817 10.1108 3.49752C10.0033 3.38998 10.0033 3.28245 10.1108 3.17491C10.2453 3.01361 10.5275 2.7851 10.9577 2.48938C11.3878 2.19366 11.9389 1.92482 12.611 1.68287C13.2831 1.41403 14.0358 1.27962 14.8692 1.27962C15.1112 1.27962 15.4472 1.31994 15.8774 1.40059C16.3344 1.45436 16.7377 1.60222 17.0871 1.84417C17.4635 2.08613 17.6517 2.50282 17.6517 3.09426C17.6517 3.82012 17.4904 4.41156 17.1678 4.86858C16.8452 5.3256 16.4823 5.70198 16.079 5.9977C15.6757 6.26653 15.3128 6.49504 14.9902 6.68323C14.6676 6.87141 14.5063 7.08648 14.5063 7.32844C14.5063 7.51662 14.6273 7.70481 14.8692 7.89299C15.1112 8.05429 15.4607 8.13494 15.9177 8.13494C16.6704 8.13494 17.4501 7.91988 18.2566 7.48974C19.09 7.0596 19.9099 6.52193 20.7164 5.87672C21.5498 5.23151 22.3563 4.57286 23.136 3.90077C23.9156 3.2018 24.628 2.59691 25.2732 2.08612C25.9453 1.54845 26.5367 1.21241 27.0475 1.07799C27.1819 1.02422 27.276 1.02422 27.3298 1.07799C27.4105 1.10487 27.3432 1.18552 27.1282 1.31994C26.3754 1.7232 25.542 2.42217 24.628 3.41687C23.7408 4.38468 22.7865 5.52723 21.7649 6.84453C20.7433 8.16183 19.668 9.54634 18.5389 10.9981C17.4366 12.4498 16.2941 13.8746 15.1112 15.2726C13.9552 16.6705 12.7723 17.9475 11.5625 19.1035C10.3528 20.2326 9.12958 21.1466 7.89293 21.8456C6.65628 22.5177 5.41964 22.8537 4.18299 22.8537Z"/>
</mask>
<path d="M20.4745 22.8537C20.0443 22.8537 19.5873 22.6924 19.1034 22.3698C18.6195 22.0472 18.3776 21.5096 18.3776 20.7568C18.3776 19.5739 18.727 18.2701 19.426 16.8452C20.1519 15.3935 21.0928 13.9284 22.2488 12.4498C23.4317 10.9712 24.7221 9.54634 26.12 8.17527C27.5449 6.8042 28.9563 5.56756 30.3542 4.46533C31.779 3.3631 33.0829 2.50282 34.2658 1.8845C35.4755 1.23929 36.4299 0.916687 37.1289 0.916687C38.0429 0.916687 38.5 1.29306 38.5 2.0458C38.5 2.44905 38.1908 3.09426 37.5725 3.98142C36.981 4.8417 35.9998 5.80951 34.6287 6.88486C33.2576 7.9602 31.443 9.02211 29.1848 10.0706C26.9534 11.119 24.1844 12.0465 20.8777 12.853C19.3454 13.2294 17.7861 13.6058 16.2 13.9821C14.6407 14.3585 13.1621 14.7752 11.7642 15.2322C10.3931 15.6892 9.21023 16.2135 8.21553 16.8049C7.24772 17.3964 6.57563 18.0953 6.19926 18.9018C6.14549 19.0363 6.06484 19.09 5.95731 19.0631C5.87666 19.0363 5.8901 18.9153 5.99763 18.7002C6.32024 17.9475 6.96545 17.2754 7.93326 16.6839C8.92795 16.0656 10.1108 15.5145 11.4819 15.0306C12.8798 14.5467 14.3719 14.1031 15.958 13.6999C17.5442 13.2697 19.1169 12.8665 20.6761 12.4901C23.3645 11.8449 25.6765 11.0921 27.6121 10.2319C29.5746 9.34471 31.2145 8.44411 32.5318 7.53006C33.8491 6.61602 34.8976 5.75574 35.6772 4.94923C36.4837 4.11584 37.0617 3.43031 37.4112 2.89263C37.7607 2.32808 37.9354 1.97859 37.9354 1.84417C37.9354 1.4678 37.7203 1.27962 37.2902 1.27962C36.645 1.27962 35.8385 1.57534 34.8707 2.16678C33.9297 2.75822 32.8947 3.55128 31.7656 4.54598C30.6365 5.54067 29.4805 6.65634 28.2976 7.89299C27.1416 9.12964 26.0125 10.4066 24.9103 11.7239C23.8349 13.0412 22.8671 14.3182 22.0068 15.5548C21.1466 16.7915 20.461 17.9071 19.9502 18.9018C19.4663 19.8697 19.2244 20.6358 19.2244 21.2004C19.2244 21.7918 19.3588 22.1548 19.6276 22.2892C19.9234 22.3967 20.246 22.4505 20.5955 22.4505C21.2407 22.4505 21.9128 22.222 22.6117 21.765C23.3107 21.281 23.9693 20.6627 24.5877 19.91C25.2329 19.1572 25.7706 18.3642 26.2007 17.5308C26.6308 16.6705 26.9131 15.8774 27.0475 15.1516C27.1013 14.9365 27.1954 14.8693 27.3298 14.9499C27.4911 15.0037 27.5583 15.2591 27.5314 15.7161C27.5045 16.3076 27.276 17.02 26.8459 17.8534C26.4158 18.6599 25.8512 19.4395 25.1522 20.1923C24.4533 20.945 23.7005 21.5768 22.894 22.0876C22.0875 22.5983 21.281 22.8537 20.4745 22.8537ZM4.18299 22.8537C3.21518 22.8537 2.43555 22.679 1.84411 22.3295C1.22579 21.9531 0.916626 21.4289 0.916626 20.7568C0.916626 20.4073 1.05104 20.1116 1.31988 19.8697C1.56183 19.6008 1.89788 19.4664 2.32802 19.4664C2.86569 19.4664 3.13453 19.6815 3.13453 20.1116C3.13453 20.4342 3.04043 20.6493 2.85225 20.7568C2.63718 20.8643 2.46244 20.9181 2.32802 20.9181C2.05918 20.9181 1.871 20.8912 1.76346 20.8375C1.62904 20.7837 1.56183 20.7568 1.56183 20.7568C1.56183 21.0257 1.69625 21.3751 1.96509 21.8053C2.20704 22.2085 2.82536 22.4102 3.82006 22.4102C4.8954 22.4102 5.93042 22.1144 6.92512 21.523C7.9467 20.9047 8.92795 20.0982 9.86888 19.1035C10.8367 18.0819 11.7776 16.9797 12.6917 15.7968C13.6326 14.587 14.5735 13.3907 15.5144 12.2078C16.2672 11.24 17.0737 10.2588 17.934 9.26406C18.7942 8.26936 19.668 7.34188 20.5551 6.4816C21.4423 5.59444 22.2757 4.85514 23.0553 4.2637C23.2704 4.1024 23.4586 3.99486 23.6199 3.9411C23.808 3.88733 23.8753 3.92765 23.8215 4.06207C23.7946 4.14272 23.4989 4.41156 22.9343 4.86858C22.3967 5.3256 21.7111 5.83639 20.8777 6.40095C20.0443 6.96551 19.1706 7.46285 18.2566 7.89299C17.3425 8.32313 16.5091 8.5382 15.7564 8.5382C15.165 8.5382 14.7079 8.40378 14.3853 8.13494C14.0896 7.86611 13.9418 7.48974 13.9418 7.00583C13.9418 6.38751 14.0896 5.84984 14.3853 5.39281C14.7079 4.93579 15.0574 4.54598 15.4338 4.22338C15.837 3.90077 16.1865 3.61849 16.4823 3.37654C16.8049 3.13459 16.9662 2.89263 16.9662 2.65068C16.9662 2.27431 16.7511 2.01892 16.321 1.8845C15.9177 1.7232 15.4338 1.64255 14.8692 1.64255C13.8208 1.64255 12.9067 1.84417 12.1271 2.24743C11.3744 2.6238 10.8367 3.00017 10.5141 3.37654C10.3528 3.53784 10.2184 3.57817 10.1108 3.49752C10.0033 3.38998 10.0033 3.28245 10.1108 3.17491C10.2453 3.01361 10.5275 2.7851 10.9577 2.48938C11.3878 2.19366 11.9389 1.92482 12.611 1.68287C13.2831 1.41403 14.0358 1.27962 14.8692 1.27962C15.1112 1.27962 15.4472 1.31994 15.8774 1.40059C16.3344 1.45436 16.7377 1.60222 17.0871 1.84417C17.4635 2.08613 17.6517 2.50282 17.6517 3.09426C17.6517 3.82012 17.4904 4.41156 17.1678 4.86858C16.8452 5.3256 16.4823 5.70198 16.079 5.9977C15.6757 6.26653 15.3128 6.49504 14.9902 6.68323C14.6676 6.87141 14.5063 7.08648 14.5063 7.32844C14.5063 7.51662 14.6273 7.70481 14.8692 7.89299C15.1112 8.05429 15.4607 8.13494 15.9177 8.13494C16.6704 8.13494 17.4501 7.91988 18.2566 7.48974C19.09 7.0596 19.9099 6.52193 20.7164 5.87672C21.5498 5.23151 22.3563 4.57286 23.136 3.90077C23.9156 3.2018 24.628 2.59691 25.2732 2.08612C25.9453 1.54845 26.5367 1.21241 27.0475 1.07799C27.1819 1.02422 27.276 1.02422 27.3298 1.07799C27.4105 1.10487 27.3432 1.18552 27.1282 1.31994C26.3754 1.7232 25.542 2.42217 24.628 3.41687C23.7408 4.38468 22.7865 5.52723 21.7649 6.84453C20.7433 8.16183 19.668 9.54634 18.5389 10.9981C17.4366 12.4498 16.2941 13.8746 15.1112 15.2726C13.9552 16.6705 12.7723 17.9475 11.5625 19.1035C10.3528 20.2326 9.12958 21.1466 7.89293 21.8456C6.65628 22.5177 5.41964 22.8537 4.18299 22.8537Z" fill="#1C1A16"/>
<path d="M20.4745 22.8537C20.0443 22.8537 19.5873 22.6924 19.1034 22.3698C18.6195 22.0472 18.3776 21.5096 18.3776 20.7568C18.3776 19.5739 18.727 18.2701 19.426 16.8452C20.1519 15.3935 21.0928 13.9284 22.2488 12.4498C23.4317 10.9712 24.7221 9.54634 26.12 8.17527C27.5449 6.8042 28.9563 5.56756 30.3542 4.46533C31.779 3.3631 33.0829 2.50282 34.2658 1.8845C35.4755 1.23929 36.4299 0.916687 37.1289 0.916687C38.0429 0.916687 38.5 1.29306 38.5 2.0458C38.5 2.44905 38.1908 3.09426 37.5725 3.98142C36.981 4.8417 35.9998 5.80951 34.6287 6.88486C33.2576 7.9602 31.443 9.02211 29.1848 10.0706C26.9534 11.119 24.1844 12.0465 20.8777 12.853C19.3454 13.2294 17.7861 13.6058 16.2 13.9821C14.6407 14.3585 13.1621 14.7752 11.7642 15.2322C10.3931 15.6892 9.21023 16.2135 8.21553 16.8049C7.24772 17.3964 6.57563 18.0953 6.19926 18.9018C6.14549 19.0363 6.06484 19.09 5.95731 19.0631C5.87666 19.0363 5.8901 18.9153 5.99763 18.7002C6.32024 17.9475 6.96545 17.2754 7.93326 16.6839C8.92795 16.0656 10.1108 15.5145 11.4819 15.0306C12.8798 14.5467 14.3719 14.1031 15.958 13.6999C17.5442 13.2697 19.1169 12.8665 20.6761 12.4901C23.3645 11.8449 25.6765 11.0921 27.6121 10.2319C29.5746 9.34471 31.2145 8.44411 32.5318 7.53006C33.8491 6.61602 34.8976 5.75574 35.6772 4.94923C36.4837 4.11584 37.0617 3.43031 37.4112 2.89263C37.7607 2.32808 37.9354 1.97859 37.9354 1.84417C37.9354 1.4678 37.7203 1.27962 37.2902 1.27962C36.645 1.27962 35.8385 1.57534 34.8707 2.16678C33.9297 2.75822 32.8947 3.55128 31.7656 4.54598C30.6365 5.54067 29.4805 6.65634 28.2976 7.89299C27.1416 9.12964 26.0125 10.4066 24.9103 11.7239C23.8349 13.0412 22.8671 14.3182 22.0068 15.5548C21.1466 16.7915 20.461 17.9071 19.9502 18.9018C19.4663 19.8697 19.2244 20.6358 19.2244 21.2004C19.2244 21.7918 19.3588 22.1548 19.6276 22.2892C19.9234 22.3967 20.246 22.4505 20.5955 22.4505C21.2407 22.4505 21.9128 22.222 22.6117 21.765C23.3107 21.281 23.9693 20.6627 24.5877 19.91C25.2329 19.1572 25.7706 18.3642 26.2007 17.5308C26.6308 16.6705 26.9131 15.8774 27.0475 15.1516C27.1013 14.9365 27.1954 14.8693 27.3298 14.9499C27.4911 15.0037 27.5583 15.2591 27.5314 15.7161C27.5045 16.3076 27.276 17.02 26.8459 17.8534C26.4158 18.6599 25.8512 19.4395 25.1522 20.1923C24.4533 20.945 23.7005 21.5768 22.894 22.0876C22.0875 22.5983 21.281 22.8537 20.4745 22.8537ZM4.18299 22.8537C3.21518 22.8537 2.43555 22.679 1.84411 22.3295C1.22579 21.9531 0.916626 21.4289 0.916626 20.7568C0.916626 20.4073 1.05104 20.1116 1.31988 19.8697C1.56183 19.6008 1.89788 19.4664 2.32802 19.4664C2.86569 19.4664 3.13453 19.6815 3.13453 20.1116C3.13453 20.4342 3.04043 20.6493 2.85225 20.7568C2.63718 20.8643 2.46244 20.9181 2.32802 20.9181C2.05918 20.9181 1.871 20.8912 1.76346 20.8375C1.62904 20.7837 1.56183 20.7568 1.56183 20.7568C1.56183 21.0257 1.69625 21.3751 1.96509 21.8053C2.20704 22.2085 2.82536 22.4102 3.82006 22.4102C4.8954 22.4102 5.93042 22.1144 6.92512 21.523C7.9467 20.9047 8.92795 20.0982 9.86888 19.1035C10.8367 18.0819 11.7776 16.9797 12.6917 15.7968C13.6326 14.587 14.5735 13.3907 15.5144 12.2078C16.2672 11.24 17.0737 10.2588 17.934 9.26406C18.7942 8.26936 19.668 7.34188 20.5551 6.4816C21.4423 5.59444 22.2757 4.85514 23.0553 4.2637C23.2704 4.1024 23.4586 3.99486 23.6199 3.9411C23.808 3.88733 23.8753 3.92765 23.8215 4.06207C23.7946 4.14272 23.4989 4.41156 22.9343 4.86858C22.3967 5.3256 21.7111 5.83639 20.8777 6.40095C20.0443 6.96551 19.1706 7.46285 18.2566 7.89299C17.3425 8.32313 16.5091 8.5382 15.7564 8.5382C15.165 8.5382 14.7079 8.40378 14.3853 8.13494C14.0896 7.86611 13.9418 7.48974 13.9418 7.00583C13.9418 6.38751 14.0896 5.84984 14.3853 5.39281C14.7079 4.93579 15.0574 4.54598 15.4338 4.22338C15.837 3.90077 16.1865 3.61849 16.4823 3.37654C16.8049 3.13459 16.9662 2.89263 16.9662 2.65068C16.9662 2.27431 16.7511 2.01892 16.321 1.8845C15.9177 1.7232 15.4338 1.64255 14.8692 1.64255C13.8208 1.64255 12.9067 1.84417 12.1271 2.24743C11.3744 2.6238 10.8367 3.00017 10.5141 3.37654C10.3528 3.53784 10.2184 3.57817 10.1108 3.49752C10.0033 3.38998 10.0033 3.28245 10.1108 3.17491C10.2453 3.01361 10.5275 2.7851 10.9577 2.48938C11.3878 2.19366 11.9389 1.92482 12.611 1.68287C13.2831 1.41403 14.0358 1.27962 14.8692 1.27962C15.1112 1.27962 15.4472 1.31994 15.8774 1.40059C16.3344 1.45436 16.7377 1.60222 17.0871 1.84417C17.4635 2.08613 17.6517 2.50282 17.6517 3.09426C17.6517 3.82012 17.4904 4.41156 17.1678 4.86858C16.8452 5.3256 16.4823 5.70198 16.079 5.9977C15.6757 6.26653 15.3128 6.49504 14.9902 6.68323C14.6676 6.87141 14.5063 7.08648 14.5063 7.32844C14.5063 7.51662 14.6273 7.70481 14.8692 7.89299C15.1112 8.05429 15.4607 8.13494 15.9177 8.13494C16.6704 8.13494 17.4501 7.91988 18.2566 7.48974C19.09 7.0596 19.9099 6.52193 20.7164 5.87672C21.5498 5.23151 22.3563 4.57286 23.136 3.90077C23.9156 3.2018 24.628 2.59691 25.2732 2.08612C25.9453 1.54845 26.5367 1.21241 27.0475 1.07799C27.1819 1.02422 27.276 1.02422 27.3298 1.07799C27.4105 1.10487 27.3432 1.18552 27.1282 1.31994C26.3754 1.7232 25.542 2.42217 24.628 3.41687C23.7408 4.38468 22.7865 5.52723 21.7649 6.84453C20.7433 8.16183 19.668 9.54634 18.5389 10.9981C17.4366 12.4498 16.2941 13.8746 15.1112 15.2726C13.9552 16.6705 12.7723 17.9475 11.5625 19.1035C10.3528 20.2326 9.12958 21.1466 7.89293 21.8456C6.65628 22.5177 5.41964 22.8537 4.18299 22.8537Z" stroke="#F2EEE2" stroke-width="1.83333" mask="url(#path-2-outside-1_9_296)"/>
</svg>
