<svg width="92" height="24" viewBox="0 0 92 24" fill="none" xmlns="http://www.w3.org/2000/svg">
<path d="M29.1301 17.8972H24.8762V5.89716H29.1653C30.3723 5.89716 31.4114 6.13739 32.2825 6.61786C33.1536 7.09442 33.8235 7.77997 34.2922 8.6745C34.7649 9.56903 35.0012 10.6393 35.0012 11.8854C35.0012 13.1354 34.7649 14.2097 34.2922 15.1081C33.8235 16.0065 33.1497 16.696 32.2708 17.1765C31.3958 17.6569 30.3489 17.8972 29.1301 17.8972ZM27.4133 15.7233H29.0247C29.7747 15.7233 30.4055 15.5905 30.9172 15.3249C31.4329 15.0554 31.8196 14.6393 32.0774 14.0768C32.3391 13.5104 32.47 12.78 32.47 11.8854C32.47 10.9987 32.3391 10.2741 32.0774 9.71161C31.8196 9.14911 31.4348 8.73505 30.9231 8.46942C30.4114 8.2038 29.7805 8.07098 29.0305 8.07098H27.4133V15.7233ZM39.4177 5.89716V17.8972H36.8806V5.89716H39.4177ZM52.5325 11.8972C52.5325 13.2057 52.2844 14.319 51.7883 15.237C51.2961 16.155 50.6243 16.8561 49.7727 17.3405C48.925 17.821 47.9719 18.0612 46.9133 18.0612C45.8469 18.0612 44.8899 17.819 44.0422 17.3347C43.1946 16.8503 42.5247 16.1491 42.0325 15.2311C41.5403 14.3132 41.2942 13.2018 41.2942 11.8972C41.2942 10.5886 41.5403 9.47528 42.0325 8.55731C42.5247 7.63934 43.1946 6.94012 44.0422 6.45966C44.8899 5.97528 45.8469 5.73309 46.9133 5.73309C47.9719 5.73309 48.925 5.97528 49.7727 6.45966C50.6243 6.94012 51.2961 7.63934 51.7883 8.55731C52.2844 9.47528 52.5325 10.5886 52.5325 11.8972ZM49.9602 11.8972C49.9602 11.0495 49.8333 10.3347 49.5793 9.75262C49.3293 9.17059 48.9758 8.72919 48.5188 8.42841C48.0618 8.12762 47.5266 7.97723 46.9133 7.97723C46.3 7.97723 45.7649 8.12762 45.3079 8.42841C44.8508 8.72919 44.4954 9.17059 44.2415 9.75262C43.9915 10.3347 43.8665 11.0495 43.8665 11.8972C43.8665 12.7448 43.9915 13.4597 44.2415 14.0417C44.4954 14.6237 44.8508 15.0651 45.3079 15.3659C45.7649 15.6667 46.3 15.8171 46.9133 15.8171C47.5266 15.8171 48.0618 15.6667 48.5188 15.3659C48.9758 15.0651 49.3293 14.6237 49.5793 14.0417C49.8333 13.4597 49.9602 12.7448 49.9602 11.8972ZM54.4119 5.89716H57.5408L60.8455 13.9597H60.9861L64.2908 5.89716H67.4197V17.8972H64.9587V10.0866H64.8591L61.7537 17.8386H60.0779L56.9724 10.0573H56.8728V17.8972H54.4119V5.89716ZM71.5784 17.8972H68.8596L73.0022 5.89716H76.2717L80.4084 17.8972H77.6897L74.6838 8.63934H74.5901L71.5784 17.8972ZM71.4084 13.1804H77.8303V15.1608H71.4084V13.1804ZM88.0886 9.34833C88.0417 8.87567 87.8406 8.50848 87.4851 8.24676C87.1296 7.98505 86.6472 7.85419 86.0378 7.85419C85.6238 7.85419 85.2742 7.91278 84.989 8.02997C84.7039 8.14325 84.4851 8.30145 84.3328 8.50458C84.1843 8.7077 84.1101 8.93817 84.1101 9.19598C84.1023 9.41083 84.1472 9.59833 84.2449 9.75848C84.3464 9.91864 84.4851 10.0573 84.6609 10.1745C84.8367 10.2878 85.0398 10.3874 85.2703 10.4733C85.5007 10.5554 85.7468 10.6257 86.0085 10.6843L87.0867 10.9421C87.6101 11.0593 88.0906 11.2155 88.5281 11.4108C88.9656 11.6061 89.3445 11.8464 89.6648 12.1315C89.9851 12.4167 90.2332 12.7526 90.4089 13.1393C90.5886 13.5261 90.6804 13.9694 90.6843 14.4694C90.6804 15.2038 90.4929 15.8405 90.1218 16.3796C89.7546 16.9147 89.2234 17.3307 88.5281 17.6276C87.8367 17.9206 87.0027 18.0671 86.0261 18.0671C85.0574 18.0671 84.2136 17.9186 83.4949 17.6218C82.78 17.3249 82.2214 16.8854 81.8191 16.3034C81.4207 15.7175 81.2117 14.9929 81.1921 14.1296H83.6472C83.6746 14.5319 83.7898 14.8679 83.9929 15.1374C84.2 15.403 84.4753 15.6042 84.8191 15.7409C85.1667 15.8737 85.5593 15.9401 85.9968 15.9401C86.4265 15.9401 86.7996 15.8776 87.116 15.7526C87.4363 15.6276 87.6843 15.4538 87.8601 15.2311C88.0359 15.0085 88.1238 14.7526 88.1238 14.4636C88.1238 14.194 88.0437 13.9675 87.8835 13.7839C87.7273 13.6003 87.4968 13.444 87.1921 13.3151C86.8914 13.1862 86.5222 13.069 86.0847 12.9636L84.7781 12.6354C83.7664 12.3893 82.9675 12.0046 82.3816 11.4811C81.7957 10.9577 81.5046 10.2526 81.5085 9.36591C81.5046 8.63934 81.698 8.00458 82.0886 7.46161C82.4832 6.91864 83.0242 6.49481 83.7117 6.19012C84.3992 5.88544 85.1804 5.73309 86.0554 5.73309C86.946 5.73309 87.7234 5.88544 88.3875 6.19012C89.0554 6.49481 89.575 6.91864 89.946 7.46161C90.3171 8.00458 90.5085 8.63348 90.5203 9.34833H88.0886Z" fill="#1C1A16"/>
<path d="M27.6715 0.458679C28.3402 0.458687 29.0343 0.500372 29.7535 0.582703C30.1523 0.61224 30.513 0.6329 30.8356 0.646179C31.3357 0.576076 31.8381 0.54071 32.3424 0.54071C32.589 0.540727 32.8385 0.563011 33.0377 0.650085C33.143 0.696145 33.2653 0.774112 33.3531 0.905945C33.4335 1.02647 33.4616 1.15927 33.4557 1.28583L33.4518 1.35712C33.4322 1.51969 33.347 1.65076 33.2418 1.74091C33.1353 1.83215 33.0111 1.88159 32.9088 1.91083C32.7024 1.9698 32.4351 1.98993 32.1373 1.98993C31.9512 1.98993 31.6417 1.97855 31.2135 1.96063C29.9148 2.24444 28.7343 2.72295 27.6696 3.39423L27.6676 3.3952C26.4736 4.13814 25.3563 5.05549 24.316 6.14911L24.3121 6.15302C23.2629 7.22911 22.2517 8.42888 21.2799 9.75165L21.278 9.75458L18.2047 13.8522C17.5314 14.77 16.7978 15.6566 16.0055 16.5134C16.7159 16.4097 17.4205 16.2141 18.1188 15.9167L18.5787 15.7057C19.843 15.0732 20.9607 14.2572 21.9342 13.2575L21.9391 13.2526C22.9438 12.2478 23.7183 11.1704 24.2672 10.0202L24.2682 10.0163C24.8394 8.84785 25.077 7.72599 25.0016 6.64423C24.987 6.44031 24.9866 6.24485 25.0192 6.08173C25.0441 5.95729 25.1328 5.63694 25.4703 5.55243C25.6325 5.5119 25.8014 5.5463 25.9352 5.64911C26.0475 5.73549 26.1068 5.84784 26.1383 5.92352C26.2003 6.07243 26.2271 6.25783 26.2418 6.4411C26.3873 7.83776 26.154 9.22879 25.5514 10.6061L25.5494 10.6091C24.9526 11.9449 24.115 13.1637 23.0416 14.2653C21.9655 15.3698 20.7195 16.2618 19.3063 16.9401L19.3033 16.9421C17.9054 17.5982 16.4457 17.9274 14.9293 17.9274C14.8216 17.9274 14.715 17.9248 14.61 17.9206C13.6351 18.833 12.6302 19.6675 11.5934 20.4216C10.3981 21.3107 9.21005 22.0234 8.02991 22.5573L8.02112 22.5612C6.83173 23.0709 5.70475 23.3356 4.64514 23.3356C3.97663 23.3356 3.33307 23.2491 2.71643 23.0729L2.6969 23.0671C2.06963 22.8579 1.54017 22.5509 1.12561 22.1364C0.681487 21.6923 0.458701 21.1375 0.458618 20.5016C0.458618 19.9457 0.706132 19.4903 1.15588 19.1657L1.29456 19.0563C1.62274 18.8115 1.97733 18.6502 2.35022 18.6501C2.7634 18.6501 3.21233 18.7607 3.44495 19.1677C3.58063 19.4051 3.6695 19.6611 3.66956 19.9274C3.66956 20.2834 3.4604 20.5632 3.22229 20.7673L3.19592 20.7897L3.1676 20.8083C2.90432 20.9728 2.62493 21.0801 2.33264 21.1179L2.33362 21.1188C2.33174 21.1191 2.32964 21.1186 2.32776 21.1188L2.32581 21.1198L2.32483 21.1188C2.31545 21.1201 2.30596 21.1206 2.29651 21.1218C2.3737 21.2355 2.4732 21.3617 2.60217 21.4987H2.60315C2.88836 21.8029 3.40553 22.0094 4.276 22.0095C5.40535 22.0095 6.45203 21.7536 7.42249 21.2429C8.41401 20.721 9.37504 19.9993 10.3033 19.071C10.8652 18.4928 11.4224 17.8701 11.9762 17.2038C11.7737 17.0836 11.5808 16.949 11.399 16.7975L11.3932 16.7927C10.4712 15.9979 10.0455 14.8274 10.0455 13.3718C10.0456 12.01 10.3802 10.6948 11.0406 9.43134C11.6948 8.15267 12.6007 6.97926 13.7526 5.91083C14.903 4.81646 16.2198 3.86523 17.6998 3.05536L17.7028 3.05341C19.2079 2.2451 20.7966 1.61755 22.4674 1.17157C24.1735 0.696114 25.9089 0.458679 27.6715 0.458679ZM27.1061 1.81708C26.1344 1.89743 25.0768 2.13378 23.9313 2.5368C22.4897 3.04404 21.0437 3.74035 19.5934 4.62665L19.5905 4.62762C18.1662 5.48757 16.8507 6.45465 15.6432 7.52802C14.4391 8.59832 13.4849 9.68695 12.774 10.7927C12.0694 11.8887 11.7408 12.8965 11.7408 13.8229C11.7409 14.6055 11.9461 15.2718 12.3453 15.8405C12.4521 15.9752 12.5951 16.097 12.7799 16.2018C12.8826 16.0694 12.9861 15.936 13.0885 15.8005L13.0924 15.7946C14.0456 14.5691 15.0129 13.2889 15.9938 11.9538V11.9528C17.0689 10.4917 18.2272 9.08644 19.4674 7.73602V7.73505C20.7407 6.35109 22.0717 5.13045 23.4606 4.07489C24.6417 3.15416 25.8572 2.40149 27.1061 1.81708Z" fill="#1C1A16" stroke="#F2EEE2" stroke-width="0.916667"/>
</svg>
