<svg width="243" height="82" viewBox="0 0 243 82" fill="none" xmlns="http://www.w3.org/2000/svg">
<path d="M2.51691 58.462H7.06764L11.874 70.1883H12.0786L16.885 58.462H21.4357V75.915H17.8565V64.5553H17.7116L13.1949 75.8298H10.7577L6.24101 64.5126H6.09614V75.915H2.51691V58.462ZM27.4842 75.915H23.53L29.555 58.462H34.3103L40.3268 75.915H36.3726L32.0008 62.4503H31.8644L27.4842 75.915ZM27.237 69.0549H36.5771V71.9353H27.237V69.0549ZM42.4274 75.915V58.462H49.3132C50.6312 58.462 51.7561 58.6978 52.6879 59.1694C53.6253 59.6352 54.3383 60.2971 54.8269 61.155C55.3212 62.0072 55.5683 63.0099 55.5683 64.1632C55.5683 65.3222 55.3183 66.3193 54.8184 67.1545C54.3184 67.9839 53.5941 68.6202 52.6453 69.0634C51.7022 69.5065 50.5602 69.7281 49.2194 69.7281H44.6091V66.7624H48.6229C49.3274 66.7624 49.9126 66.6659 50.3784 66.4727C50.8443 66.2795 51.1909 65.9898 51.4181 65.6035C51.651 65.2171 51.7675 64.7371 51.7675 64.1632C51.7675 63.5837 51.651 63.0952 51.4181 62.6975C51.1909 62.2998 50.8415 61.9987 50.3699 61.7941C49.904 61.5839 49.316 61.4788 48.6059 61.4788H46.1174V75.915H42.4274ZM51.8527 67.9726L56.1904 75.915H52.1169L47.873 67.9726H51.8527ZM57.5113 61.5044V58.462H71.8453V61.5044H66.502V75.915H62.8546V61.5044H57.5113ZM77.8959 58.462V75.915H74.2059V58.462H77.8959ZM74.7598 56.7747L76.5664 52.8972H79.9241L77.3249 56.7747H74.7598ZM95.53 58.462V75.915H92.3427L84.7497 64.9302H84.6218V75.915H80.9318V58.462H84.1702L91.7036 69.4383H91.857V58.462H95.53ZM104.133 75.915V58.462H111.121C112.405 58.462 113.476 58.6524 114.334 59.033C115.192 59.4137 115.836 59.942 116.268 60.6181C116.7 61.2885 116.916 62.0612 116.916 62.9361C116.916 63.6178 116.779 64.2172 116.507 64.7342C116.234 65.2455 115.859 65.6659 115.382 65.9955C114.91 66.3193 114.371 66.5494 113.763 66.6857V66.8562C114.427 66.8846 115.05 67.0721 115.629 67.4186C116.214 67.7652 116.689 68.2509 117.052 68.8759C117.416 69.4952 117.598 70.2337 117.598 71.0916C117.598 72.0177 117.368 72.8443 116.907 73.5715C116.453 74.293 115.78 74.864 114.888 75.2844C113.996 75.7048 112.896 75.915 111.59 75.915H104.133ZM107.823 72.8983H110.831C111.859 72.8983 112.609 72.7023 113.081 72.3102C113.553 71.9126 113.788 71.3842 113.788 70.7252C113.788 70.2422 113.672 69.8161 113.439 69.4469C113.206 69.0776 112.874 68.7878 112.442 68.5776C112.016 68.3674 111.507 68.2623 110.916 68.2623H107.823V72.8983ZM107.823 65.7654H110.558C111.064 65.7654 111.513 65.6773 111.905 65.5012C112.303 65.3194 112.615 65.0637 112.842 64.7342C113.075 64.4047 113.192 64.0098 113.192 63.5497C113.192 62.919 112.967 62.4106 112.519 62.0242C112.075 61.6379 111.445 61.4447 110.627 61.4447H107.823V65.7654ZM123.007 75.915H119.053L125.078 58.462H129.833L135.85 75.915H131.895L127.524 62.4503H127.387L123.007 75.915ZM122.76 69.0549H132.1V71.9353H122.76V69.0549ZM137.95 75.915V58.462H144.836C146.154 58.462 147.279 58.6978 148.211 59.1694C149.148 59.6352 149.861 60.2971 150.35 61.155C150.844 62.0072 151.091 63.0099 151.091 64.1632C151.091 65.3222 150.841 66.3193 150.341 67.1545C149.841 67.9839 149.117 68.6202 148.168 69.0634C147.225 69.5065 146.083 69.7281 144.742 69.7281H140.132V66.7624H144.146C144.85 66.7624 145.435 66.6659 145.901 66.4727C146.367 66.2795 146.714 65.9898 146.941 65.6035C147.174 65.2171 147.29 64.7371 147.29 64.1632C147.29 63.5837 147.174 63.0952 146.941 62.6975C146.714 62.2998 146.364 61.9987 145.893 61.7941C145.427 61.5839 144.839 61.4788 144.129 61.4788H141.64V75.915H137.95ZM147.375 67.9726L151.713 75.915H147.64L143.396 67.9726H147.375ZM156.707 75.915H152.753L158.778 58.462H163.533L169.55 75.915H165.595L161.224 62.4503H161.087L156.707 75.915ZM156.46 69.0549H165.8V71.9353H156.46V69.0549ZM171.65 75.915V58.462H175.34V65.6631H182.831V58.462H186.513V75.915H182.831V68.7055H175.34V75.915H171.65ZM205.593 67.1885C205.593 69.0918 205.233 70.711 204.511 72.0461C203.795 73.3812 202.818 74.401 201.579 75.1055C200.347 75.8043 198.96 76.1537 197.421 76.1537C195.87 76.1537 194.478 75.8014 193.245 75.0969C192.012 74.3924 191.038 73.3727 190.322 72.0375C189.606 70.7024 189.248 69.0861 189.248 67.1885C189.248 65.2853 189.606 63.6661 190.322 62.331C191.038 60.9959 192.012 59.979 193.245 59.2802C194.478 58.5757 195.87 58.2234 197.421 58.2234C198.96 58.2234 200.347 58.5757 201.579 59.2802C202.818 59.979 203.795 60.9959 204.511 62.331C205.233 63.6661 205.593 65.2853 205.593 67.1885ZM201.852 67.1885C201.852 65.9557 201.668 64.916 201.298 64.0695C200.935 63.223 200.421 62.581 199.756 62.1435C199.091 61.7061 198.313 61.4873 197.421 61.4873C196.529 61.4873 195.75 61.7061 195.086 62.1435C194.421 62.581 193.904 63.223 193.535 64.0695C193.171 64.916 192.989 65.9557 192.989 67.1885C192.989 68.4214 193.171 69.4611 193.535 70.3076C193.904 71.1541 194.421 71.7961 195.086 72.2335C195.75 72.671 196.529 72.8897 197.421 72.8897C198.313 72.8897 199.091 72.671 199.756 72.2335C200.421 71.7961 200.935 71.1541 201.298 70.3076C201.668 69.4611 201.852 68.4214 201.852 67.1885ZM222.925 58.462V75.915H219.738L212.145 64.9302H212.017V75.915H208.327V58.462H211.565L219.099 69.4383H219.252V58.462H222.925ZM228.982 75.915H225.028L231.053 58.462H235.808L241.825 75.915H237.87L233.499 62.4503H233.362L228.982 75.915ZM228.735 69.0549H238.075V71.9353H228.735V69.0549Z" fill="#1C1A16"/>
<mask id="path-2-outside-1_7_80" maskUnits="userSpaceOnUse" x="0" y="0" width="167" height="79" fill="black">
<rect fill="white" width="167" height="79"/>
<path d="M72.1152 22.0215C73.357 22.0216 73.9775 22.5608 73.9775 23.6387C73.9775 24.1777 73.872 24.6348 73.6611 25.0098C73.4503 25.3846 73.2392 25.7482 73.0283 26.0996C72.6067 26.5917 72.3955 27.2131 72.3955 27.9629C72.396 28.1971 72.7948 28.4544 73.5908 28.7354C74.411 28.9931 75.4074 29.251 76.5791 29.5088C77.7743 29.7431 78.9464 29.9541 80.0947 30.1416C81.243 30.3056 82.1456 30.4111 82.8018 30.458C83.2463 30.4814 83.5154 30.5638 83.6094 30.7041C83.7264 30.8211 83.785 30.9151 83.7852 30.9854C83.7852 31.2197 83.446 31.6066 82.7666 32.1455C81.4777 33.1298 80.1532 34.3253 78.7939 35.7314C77.4347 37.1141 76.1688 38.5549 74.9971 40.0547C73.8254 41.531 72.8769 42.926 72.1504 44.2383C71.4239 45.5507 71.0605 46.629 71.0605 47.4727C71.0606 48.5738 71.5053 49.1248 72.3955 49.125C73.5438 49.125 74.7981 48.7381 76.1572 47.9648C77.5165 47.1915 78.8878 46.2186 80.2705 45.0469C81.6766 43.8752 82.9884 42.6678 84.207 41.4258C85.449 40.1604 86.5158 39.036 87.4062 38.0518C88.1121 37.253 88.6503 36.6541 89.0176 36.2529C89.2425 35.9617 89.4786 35.6705 89.7266 35.3799C91.742 32.9192 93.7219 31.0321 95.667 29.7197C97.6356 28.3839 99.5109 27.4589 101.292 26.9434C103.073 26.4278 104.701 26.17 106.178 26.1699C107.701 26.1699 108.92 26.4278 109.834 26.9434C110.748 27.4589 111.217 28.1614 111.24 29.0518C111.24 29.7313 111.1 30.423 110.818 31.126C111.545 30.2355 112.166 29.4618 112.682 28.8057C113.197 28.1496 113.678 27.5057 114.123 26.873C114.381 26.9433 114.709 27.0137 115.107 27.084C115.529 27.1308 115.94 27.1543 116.338 27.1543C116.642 27.1543 117.076 27.1426 117.638 27.1191C118.2 27.0957 118.634 27.0605 118.938 27.0137L107.619 41.6016C105.44 44.4372 103.401 47.0627 101.503 49.4766C99.6282 51.8903 97.8816 54.1164 96.2646 56.1553C101.163 53.6477 105.686 50.777 109.834 47.543C113.091 44.9855 116.208 42.0578 119.19 38.7637C119.916 37.7841 120.758 36.6917 121.716 35.4854C123.637 33.0716 126.157 30.0483 129.273 26.416C129.484 26.4394 129.988 26.4629 130.785 26.4863C131.582 26.5098 132.203 26.5215 132.648 26.5215H133.527C133.738 26.498 133.938 26.4746 134.125 26.4512C130.703 30.482 127.903 33.7981 125.724 36.3994C123.568 39.0007 121.903 41.0744 120.731 42.6211C119.56 44.1678 118.751 45.3516 118.306 46.1719C117.86 46.992 117.638 47.6485 117.638 48.1406C117.638 48.7497 117.966 49.1015 118.622 49.1953C119.278 49.289 119.806 49.3359 120.204 49.3359C121.47 49.3359 122.853 48.914 124.353 48.0703C125.852 47.2032 127.34 46.1365 128.816 44.8711C130.316 43.5821 131.699 42.2811 132.965 40.9688C134.09 39.8236 135.034 38.8196 135.802 37.96C136.201 37.2043 136.615 36.5202 137.043 35.9072C138.191 34.2902 139.585 32.743 141.226 31.2666C142.866 29.7667 144.659 28.5487 146.604 27.6113C148.573 26.6505 150.588 26.1699 152.65 26.1699C153.892 26.1699 154.959 26.4981 155.85 27.1543C156.763 27.787 157.268 28.8061 157.361 30.2119C157.479 32.2039 157.092 34.302 156.201 36.5049C155.311 38.6843 154.103 40.7112 152.58 42.5859C152.744 43.2656 153.272 43.6055 154.162 43.6055C155.029 43.6055 155.979 43.2656 157.01 42.5859C158.041 41.8829 159.036 41.0623 159.997 40.125C160.981 39.1877 161.825 38.3211 162.528 37.5244C163.231 36.7278 163.7 36.212 163.935 35.9775L164.708 36.5752C164.263 36.997 163.63 37.6535 162.81 38.5439C161.989 39.411 161.075 40.3127 160.067 41.25C159.083 42.1639 158.064 42.9493 157.01 43.6055C155.979 44.2617 155.006 44.5898 154.092 44.5898C152.967 44.5898 152.205 44.2382 151.807 43.5352C150.072 45.5037 148.116 47.1329 145.937 48.4219C143.78 49.6874 141.659 50.3203 139.573 50.3203C137.605 50.3203 136.152 49.8747 135.215 48.9844C134.277 48.0704 133.75 46.9569 133.633 45.6445C133.566 44.1391 133.855 42.529 134.5 40.8145C134.137 41.2009 133.756 41.6048 133.352 42.0234C132.063 43.3358 130.644 44.6251 129.098 45.8906C127.574 47.156 125.993 48.2111 124.353 49.0547C122.735 49.8984 121.153 50.3203 119.606 50.3203C118.177 50.3203 117.029 50.0622 116.162 49.5469C115.272 49.0079 114.826 48.2928 114.826 47.4023C114.826 46.6993 115.002 45.8905 115.354 44.9766C115.552 44.4477 115.856 43.8299 116.263 43.1221C114.049 45.2802 111.79 47.2354 109.482 48.9844C105.03 52.3355 100.179 55.265 94.9297 57.7725C91.4378 62.0846 88.449 65.5647 85.9648 68.2129C83.5043 70.8843 81.3366 72.9113 79.4619 74.2939C77.5636 75.7001 75.7821 76.6495 74.1182 77.1416C72.4309 77.6571 70.6383 77.915 68.7402 77.915C67.7559 77.915 66.9355 77.6572 66.2793 77.1416C65.5997 76.626 65.2598 76.0986 65.2598 75.5596C65.2364 74.5755 65.5999 73.5212 66.3496 72.3965C67.0761 71.295 68.3654 70.0643 70.2168 68.7051C72.0682 67.3458 74.6224 65.8221 77.8799 64.1348C81.114 62.4474 85.2153 60.5496 90.1836 58.4404C92.1053 56.0969 94.2258 53.4714 96.5459 50.5654C98.8894 47.6595 101.492 44.4137 104.351 40.8281L104.069 40.6875C100.999 44.1794 98.2449 46.6642 95.8076 48.1406C93.3706 49.5934 91.4138 50.3203 89.9375 50.3203C88.4611 50.3203 87.371 49.91 86.668 49.0898C85.9649 48.2696 85.5898 47.1444 85.543 45.7148C85.543 44.1447 85.8594 42.4686 86.4922 40.6875C86.5711 40.4732 86.6559 40.2589 86.7471 40.0449C86.0537 40.8 85.2899 41.6127 84.4531 42.4805C83.1877 43.7694 81.8055 45.0119 80.3057 46.207C78.8292 47.4022 77.2938 48.3868 75.7002 49.1602C74.1068 49.9334 72.5016 50.3203 70.8848 50.3203C69.5725 50.3203 68.5058 49.992 67.6855 49.3359C66.8653 48.6563 66.4551 47.7772 66.4551 46.6992C66.4551 44.8244 67.8264 42.5623 70.5684 39.9141C73.3103 37.266 77.0251 34.3716 81.7119 31.2314C79.3215 30.833 77.2586 30.4345 75.5244 30.0361C73.8138 29.6378 72.4432 29.204 71.4121 28.7354C70.9434 29.6727 70.2635 30.8215 69.373 32.1807C68.4825 33.5399 67.3456 35.005 65.9629 36.5752C65.2175 37.4511 64.619 38.1182 64.1699 38.5791L63.8516 38.9727C63.0827 39.9081 62.1345 40.9602 61.0068 42.1289C59.7413 43.4647 58.2762 44.7657 56.6123 46.0312C54.9484 47.2968 53.0965 48.3516 51.0576 49.1953C49.0423 50.0389 46.8746 50.4609 44.5547 50.4609C42.258 50.4609 40.6171 49.8632 39.6328 48.668C38.6485 47.4728 38.1338 46.0076 38.0869 44.2734C38.0635 43.0079 38.3213 41.6014 38.8604 40.0547C39.3992 38.5084 39.9611 37.325 40.5469 36.5049C42.2811 34.091 44.1564 32.1219 46.1719 30.5986C48.1871 29.0755 50.1556 27.9628 52.0771 27.2598C54.0223 26.5333 55.7335 26.1699 57.21 26.1699C58.6394 26.1699 59.6358 26.4044 60.1982 26.873C60.7839 27.3417 61.0889 27.8811 61.1123 28.4902C61.1824 29.404 60.69 30.4702 59.6357 31.6885C58.6046 32.8837 56.7879 34.1847 54.1865 35.5908C51.5852 36.9969 47.9526 38.4728 43.2891 40.0195C42.4688 41.3319 41.9179 42.4688 41.6367 43.4297C41.3555 44.3671 41.2148 45.211 41.2148 45.9609C41.2149 47.0624 41.5782 47.918 42.3047 48.5273C43.0546 49.1367 43.9337 49.4414 44.9414 49.4414C47.1442 49.4414 49.2064 49.031 51.1279 48.2109C53.0731 47.3673 54.8429 46.3124 56.4365 45.0469C58.0536 43.7814 59.4718 42.5038 60.6904 41.2148C61.3687 40.4844 61.9763 39.8071 62.5166 39.1855C62.5823 39.0683 62.7435 38.8812 63 38.624C63.242 38.3382 63.4684 38.0658 63.6777 37.8057C64.4509 36.8216 64.9668 36.212 65.2246 35.9775L66.0791 34.8828C66.9096 33.8019 67.6681 32.7606 68.3535 31.7588C69.2674 30.4232 69.9708 29.2518 70.4629 28.2441C69.6194 27.7052 69.127 27.1072 68.9863 26.4512C68.7988 25.3263 69.0215 24.3066 69.6543 23.3926C70.287 22.4787 71.1075 22.0215 72.1152 22.0215ZM88.9531 59.9521C83.4459 62.3425 79.0514 64.4514 75.7705 66.2793C72.4662 68.1307 70.0877 69.7951 68.6348 71.2715C67.1585 72.7712 66.42 74.2004 66.4199 75.5596C66.4199 75.8173 66.6427 76.1104 67.0879 76.4385C67.5332 76.79 68.1192 76.9658 68.8457 76.9658C70.0409 76.9658 71.2365 76.7197 72.4316 76.2275C73.6033 75.7588 74.9271 74.9031 76.4033 73.6611C77.8563 72.4425 79.591 70.7205 81.6064 68.4941C83.6218 66.2678 86.0707 63.4205 88.9531 59.9521ZM60.4092 1C61.8151 1.00007 62.9279 1.3752 63.748 2.125C64.5683 2.87493 64.9434 3.95325 64.873 5.35938C64.7792 7.1638 63.9822 9.19079 62.4824 11.4404C61.006 13.6901 58.9908 15.8929 56.4365 18.0488C53.8821 20.2049 50.941 22.0802 47.6133 23.6738C44.2855 25.2674 40.7115 26.3106 36.8916 26.8027C34.8996 29.8727 32.8719 32.8255 30.8096 35.6611C28.7473 38.4732 26.5915 40.9808 24.3418 43.1836C22.1155 45.3865 19.737 47.1329 17.2061 48.4219C14.6985 49.6874 11.991 50.3203 9.08496 50.3203C6.5308 50.3203 4.53887 49.8513 3.10938 48.9141C1.70326 47.9767 1.00001 46.8397 1 45.5039C1 44.4727 1.36335 43.7343 2.08984 43.2891C2.8163 42.8204 3.54308 42.5859 4.26953 42.5859C4.66783 42.586 5.05481 42.7149 5.42969 42.9727C5.82794 43.2304 6.02733 43.6408 6.02734 44.2031C6.02734 44.6483 5.82796 45.0587 5.42969 45.4336C5.03135 45.7851 4.56234 45.9609 4.02344 45.9609C3.32045 45.9609 2.78121 45.8437 2.40625 45.6094V45.7852C2.40628 46.8163 2.99232 47.6954 4.16406 48.4219C5.35913 49.1248 6.81197 49.4765 8.52246 49.4766C11.0301 49.4766 13.2922 48.8554 15.3076 47.6133C17.323 46.3478 19.1857 44.6834 20.8965 42.6211C22.6073 40.5588 24.2248 38.2742 25.748 35.7666C27.2947 33.2592 28.8293 30.7398 30.3525 28.209L31.0557 27.0488C27.353 26.9082 24.0368 26.3573 21.1074 25.3965C18.2015 24.4122 15.9285 23.076 14.2881 21.3887C12.6711 19.7014 11.9327 17.7448 12.0732 15.5186C12.1904 13.4328 12.9406 11.5106 14.3232 9.75293C15.7058 7.97203 17.5454 6.43729 19.8418 5.14844C22.1619 3.83605 24.7756 2.81634 27.6816 2.08984C30.611 1.36341 33.6811 1 36.8916 1C38.6256 1.00002 40.137 1.16416 41.4258 1.49219C42.7382 1.82028 43.3945 2.14847 43.3945 2.47656C43.3944 2.57022 43.2538 2.61719 42.9727 2.61719C42.8087 2.61718 42.6445 2.60546 42.4805 2.58203C42.3399 2.53519 42.1757 2.49999 41.9883 2.47656C41.2384 2.28911 40.4647 2.1367 39.668 2.01953C38.8947 1.87898 37.9576 1.8086 36.8564 1.80859C34.1379 1.80859 31.4656 2.16022 28.8408 2.86328C26.2397 3.5429 23.861 4.51581 21.7051 5.78125C19.5727 7.04666 17.8504 8.55797 16.5381 10.3154C15.2491 12.0731 14.5459 14.0305 14.4287 16.1865C14.3351 17.5925 14.8859 19.0452 16.0811 20.5449C17.2997 22.0448 19.1975 23.3224 21.7754 24.377C24.3532 25.4315 27.6342 26.0293 31.6182 26.1699C37.2192 17.3582 42.3637 10.9596 47.0508 6.97559C51.7377 2.99175 56.1909 1 60.4092 1ZM107.092 27.2598C105.99 27.26 104.162 28.103 101.608 29.79C99.0539 31.454 96.324 34.1029 93.418 37.7354C91.7072 39.8679 90.4413 41.7424 89.6211 43.3594C88.8243 44.953 88.4375 46.3126 88.4609 47.4375C88.5313 48.656 89.1056 49.2656 90.1836 49.2656C91.4959 49.2656 93.4409 48.4333 96.0186 46.7695C98.5965 45.0822 101.691 42.1295 105.3 37.9111L108.041 34.5713C108.603 33.751 109.107 32.872 109.553 31.9346C110.021 30.9972 110.256 30.1415 110.256 29.3682C110.232 27.9623 109.177 27.2598 107.092 27.2598ZM153.74 27.4355C152.381 27.4356 150.706 28.2436 148.714 29.8604C146.745 31.454 144.542 33.763 142.104 36.7861C140.37 38.9655 139.151 40.8049 138.448 42.3047C137.769 43.8046 137.477 45.1056 137.57 46.207C137.57 46.8398 137.78 47.5079 138.202 48.2109C138.647 48.9139 139.409 49.2656 140.487 49.2656C141.308 49.2656 142.257 49.0312 143.335 48.5625C144.413 48.0938 145.491 47.4726 146.569 46.6992C148.374 45.4103 150.002 43.8982 151.455 42.1641V42.0234C151.455 40.5707 151.83 39.4227 152.58 38.5791C153.353 37.712 154.104 37.1611 154.83 36.9268C155.978 34.5363 156.494 32.3914 156.377 30.4932C156.307 29.3452 156.002 28.5488 155.463 28.1035C154.947 27.6582 154.373 27.4355 153.74 27.4355ZM56.9639 27.0137C55.3937 27.0137 53.6942 27.8566 51.8662 29.5439C50.0382 31.2313 47.906 33.6809 45.4688 36.8916C44.9532 37.5477 44.496 38.1808 44.0977 38.79C48.6441 37.1964 52.2297 35.5555 54.8545 33.8682C57.4793 32.1574 58.792 30.5282 58.792 28.9814C58.7919 27.6694 58.1823 27.0137 56.9639 27.0137ZM60.374 1.87891C57.468 1.97265 54.3737 3.7298 51.0928 7.15137C47.8352 10.5729 44.1559 15.5064 40.0547 21.9512C39.6329 22.6073 39.2118 23.2521 38.79 23.8848C38.3682 24.5175 37.958 25.1622 37.5596 25.8184C40.9342 25.2559 44.1332 24.2127 47.1562 22.6895C50.1792 21.1428 52.8626 19.3503 55.2061 17.3115C57.5496 15.2726 59.4015 13.1863 60.7607 11.0537C62.1432 8.92134 62.8808 6.97624 62.9746 5.21875C63.0918 3.95324 62.8456 3.07418 62.2363 2.58203C61.6272 2.09009 61.0066 1.85558 60.374 1.87891ZM138.94 13.9717C139.597 13.9717 140.112 14.1944 140.487 14.6396C140.886 15.0615 141.085 15.5772 141.085 16.1865C141.085 17.0535 140.71 17.8146 139.96 18.4707C139.234 19.1268 138.437 19.455 137.57 19.4551C136.914 19.4551 136.387 19.2558 135.988 18.8574C135.613 18.4357 135.426 17.9089 135.426 17.2764C135.426 16.4561 135.766 15.706 136.445 15.0264C137.148 14.3234 137.98 13.9718 138.94 13.9717Z"/>
</mask>
<path d="M72.1152 22.0215C73.357 22.0216 73.9775 22.5608 73.9775 23.6387C73.9775 24.1777 73.872 24.6348 73.6611 25.0098C73.4503 25.3846 73.2392 25.7482 73.0283 26.0996C72.6067 26.5917 72.3955 27.2131 72.3955 27.9629C72.396 28.1971 72.7948 28.4544 73.5908 28.7354C74.411 28.9931 75.4074 29.251 76.5791 29.5088C77.7743 29.7431 78.9464 29.9541 80.0947 30.1416C81.243 30.3056 82.1456 30.4111 82.8018 30.458C83.2463 30.4814 83.5154 30.5638 83.6094 30.7041C83.7264 30.8211 83.785 30.9151 83.7852 30.9854C83.7852 31.2197 83.446 31.6066 82.7666 32.1455C81.4777 33.1298 80.1532 34.3253 78.7939 35.7314C77.4347 37.1141 76.1688 38.5549 74.9971 40.0547C73.8254 41.531 72.8769 42.926 72.1504 44.2383C71.4239 45.5507 71.0605 46.629 71.0605 47.4727C71.0606 48.5738 71.5053 49.1248 72.3955 49.125C73.5438 49.125 74.7981 48.7381 76.1572 47.9648C77.5165 47.1915 78.8878 46.2186 80.2705 45.0469C81.6766 43.8752 82.9884 42.6678 84.207 41.4258C85.449 40.1604 86.5158 39.036 87.4062 38.0518C88.1121 37.253 88.6503 36.6541 89.0176 36.2529C89.2425 35.9617 89.4786 35.6705 89.7266 35.3799C91.742 32.9192 93.7219 31.0321 95.667 29.7197C97.6356 28.3839 99.5109 27.4589 101.292 26.9434C103.073 26.4278 104.701 26.17 106.178 26.1699C107.701 26.1699 108.92 26.4278 109.834 26.9434C110.748 27.4589 111.217 28.1614 111.24 29.0518C111.24 29.7313 111.1 30.423 110.818 31.126C111.545 30.2355 112.166 29.4618 112.682 28.8057C113.197 28.1496 113.678 27.5057 114.123 26.873C114.381 26.9433 114.709 27.0137 115.107 27.084C115.529 27.1308 115.94 27.1543 116.338 27.1543C116.642 27.1543 117.076 27.1426 117.638 27.1191C118.2 27.0957 118.634 27.0605 118.938 27.0137L107.619 41.6016C105.44 44.4372 103.401 47.0627 101.503 49.4766C99.6282 51.8903 97.8816 54.1164 96.2646 56.1553C101.163 53.6477 105.686 50.777 109.834 47.543C113.091 44.9855 116.208 42.0578 119.19 38.7637C119.916 37.7841 120.758 36.6917 121.716 35.4854C123.637 33.0716 126.157 30.0483 129.273 26.416C129.484 26.4394 129.988 26.4629 130.785 26.4863C131.582 26.5098 132.203 26.5215 132.648 26.5215H133.527C133.738 26.498 133.938 26.4746 134.125 26.4512C130.703 30.482 127.903 33.7981 125.724 36.3994C123.568 39.0007 121.903 41.0744 120.731 42.6211C119.56 44.1678 118.751 45.3516 118.306 46.1719C117.86 46.992 117.638 47.6485 117.638 48.1406C117.638 48.7497 117.966 49.1015 118.622 49.1953C119.278 49.289 119.806 49.3359 120.204 49.3359C121.47 49.3359 122.853 48.914 124.353 48.0703C125.852 47.2032 127.34 46.1365 128.816 44.8711C130.316 43.5821 131.699 42.2811 132.965 40.9688C134.09 39.8236 135.034 38.8196 135.802 37.96C136.201 37.2043 136.615 36.5202 137.043 35.9072C138.191 34.2902 139.585 32.743 141.226 31.2666C142.866 29.7667 144.659 28.5487 146.604 27.6113C148.573 26.6505 150.588 26.1699 152.65 26.1699C153.892 26.1699 154.959 26.4981 155.85 27.1543C156.763 27.787 157.268 28.8061 157.361 30.2119C157.479 32.2039 157.092 34.302 156.201 36.5049C155.311 38.6843 154.103 40.7112 152.58 42.5859C152.744 43.2656 153.272 43.6055 154.162 43.6055C155.029 43.6055 155.979 43.2656 157.01 42.5859C158.041 41.8829 159.036 41.0623 159.997 40.125C160.981 39.1877 161.825 38.3211 162.528 37.5244C163.231 36.7278 163.7 36.212 163.935 35.9775L164.708 36.5752C164.263 36.997 163.63 37.6535 162.81 38.5439C161.989 39.411 161.075 40.3127 160.067 41.25C159.083 42.1639 158.064 42.9493 157.01 43.6055C155.979 44.2617 155.006 44.5898 154.092 44.5898C152.967 44.5898 152.205 44.2382 151.807 43.5352C150.072 45.5037 148.116 47.1329 145.937 48.4219C143.78 49.6874 141.659 50.3203 139.573 50.3203C137.605 50.3203 136.152 49.8747 135.215 48.9844C134.277 48.0704 133.75 46.9569 133.633 45.6445C133.566 44.1391 133.855 42.529 134.5 40.8145C134.137 41.2009 133.756 41.6048 133.352 42.0234C132.063 43.3358 130.644 44.6251 129.098 45.8906C127.574 47.156 125.993 48.2111 124.353 49.0547C122.735 49.8984 121.153 50.3203 119.606 50.3203C118.177 50.3203 117.029 50.0622 116.162 49.5469C115.272 49.0079 114.826 48.2928 114.826 47.4023C114.826 46.6993 115.002 45.8905 115.354 44.9766C115.552 44.4477 115.856 43.8299 116.263 43.1221C114.049 45.2802 111.79 47.2354 109.482 48.9844C105.03 52.3355 100.179 55.265 94.9297 57.7725C91.4378 62.0846 88.449 65.5647 85.9648 68.2129C83.5043 70.8843 81.3366 72.9113 79.4619 74.2939C77.5636 75.7001 75.7821 76.6495 74.1182 77.1416C72.4309 77.6571 70.6383 77.915 68.7402 77.915C67.7559 77.915 66.9355 77.6572 66.2793 77.1416C65.5997 76.626 65.2598 76.0986 65.2598 75.5596C65.2364 74.5755 65.5999 73.5212 66.3496 72.3965C67.0761 71.295 68.3654 70.0643 70.2168 68.7051C72.0682 67.3458 74.6224 65.8221 77.8799 64.1348C81.114 62.4474 85.2153 60.5496 90.1836 58.4404C92.1053 56.0969 94.2258 53.4714 96.5459 50.5654C98.8894 47.6595 101.492 44.4137 104.351 40.8281L104.069 40.6875C100.999 44.1794 98.2449 46.6642 95.8076 48.1406C93.3706 49.5934 91.4138 50.3203 89.9375 50.3203C88.4611 50.3203 87.371 49.91 86.668 49.0898C85.9649 48.2696 85.5898 47.1444 85.543 45.7148C85.543 44.1447 85.8594 42.4686 86.4922 40.6875C86.5711 40.4732 86.6559 40.2589 86.7471 40.0449C86.0537 40.8 85.2899 41.6127 84.4531 42.4805C83.1877 43.7694 81.8055 45.0119 80.3057 46.207C78.8292 47.4022 77.2938 48.3868 75.7002 49.1602C74.1068 49.9334 72.5016 50.3203 70.8848 50.3203C69.5725 50.3203 68.5058 49.992 67.6855 49.3359C66.8653 48.6563 66.4551 47.7772 66.4551 46.6992C66.4551 44.8244 67.8264 42.5623 70.5684 39.9141C73.3103 37.266 77.0251 34.3716 81.7119 31.2314C79.3215 30.833 77.2586 30.4345 75.5244 30.0361C73.8138 29.6378 72.4432 29.204 71.4121 28.7354C70.9434 29.6727 70.2635 30.8215 69.373 32.1807C68.4825 33.5399 67.3456 35.005 65.9629 36.5752C65.2175 37.4511 64.619 38.1182 64.1699 38.5791L63.8516 38.9727C63.0827 39.9081 62.1345 40.9602 61.0068 42.1289C59.7413 43.4647 58.2762 44.7657 56.6123 46.0312C54.9484 47.2968 53.0965 48.3516 51.0576 49.1953C49.0423 50.0389 46.8746 50.4609 44.5547 50.4609C42.258 50.4609 40.6171 49.8632 39.6328 48.668C38.6485 47.4728 38.1338 46.0076 38.0869 44.2734C38.0635 43.0079 38.3213 41.6014 38.8604 40.0547C39.3992 38.5084 39.9611 37.325 40.5469 36.5049C42.2811 34.091 44.1564 32.1219 46.1719 30.5986C48.1871 29.0755 50.1556 27.9628 52.0771 27.2598C54.0223 26.5333 55.7335 26.1699 57.21 26.1699C58.6394 26.1699 59.6358 26.4044 60.1982 26.873C60.7839 27.3417 61.0889 27.8811 61.1123 28.4902C61.1824 29.404 60.69 30.4702 59.6357 31.6885C58.6046 32.8837 56.7879 34.1847 54.1865 35.5908C51.5852 36.9969 47.9526 38.4728 43.2891 40.0195C42.4688 41.3319 41.9179 42.4688 41.6367 43.4297C41.3555 44.3671 41.2148 45.211 41.2148 45.9609C41.2149 47.0624 41.5782 47.918 42.3047 48.5273C43.0546 49.1367 43.9337 49.4414 44.9414 49.4414C47.1442 49.4414 49.2064 49.031 51.1279 48.2109C53.0731 47.3673 54.8429 46.3124 56.4365 45.0469C58.0536 43.7814 59.4718 42.5038 60.6904 41.2148C61.3687 40.4844 61.9763 39.8071 62.5166 39.1855C62.5823 39.0683 62.7435 38.8812 63 38.624C63.242 38.3382 63.4684 38.0658 63.6777 37.8057C64.4509 36.8216 64.9668 36.212 65.2246 35.9775L66.0791 34.8828C66.9096 33.8019 67.6681 32.7606 68.3535 31.7588C69.2674 30.4232 69.9708 29.2518 70.4629 28.2441C69.6194 27.7052 69.127 27.1072 68.9863 26.4512C68.7988 25.3263 69.0215 24.3066 69.6543 23.3926C70.287 22.4787 71.1075 22.0215 72.1152 22.0215ZM88.9531 59.9521C83.4459 62.3425 79.0514 64.4514 75.7705 66.2793C72.4662 68.1307 70.0877 69.7951 68.6348 71.2715C67.1585 72.7712 66.42 74.2004 66.4199 75.5596C66.4199 75.8173 66.6427 76.1104 67.0879 76.4385C67.5332 76.79 68.1192 76.9658 68.8457 76.9658C70.0409 76.9658 71.2365 76.7197 72.4316 76.2275C73.6033 75.7588 74.9271 74.9031 76.4033 73.6611C77.8563 72.4425 79.591 70.7205 81.6064 68.4941C83.6218 66.2678 86.0707 63.4205 88.9531 59.9521ZM60.4092 1C61.8151 1.00007 62.9279 1.3752 63.748 2.125C64.5683 2.87493 64.9434 3.95325 64.873 5.35938C64.7792 7.1638 63.9822 9.19079 62.4824 11.4404C61.006 13.6901 58.9908 15.8929 56.4365 18.0488C53.8821 20.2049 50.941 22.0802 47.6133 23.6738C44.2855 25.2674 40.7115 26.3106 36.8916 26.8027C34.8996 29.8727 32.8719 32.8255 30.8096 35.6611C28.7473 38.4732 26.5915 40.9808 24.3418 43.1836C22.1155 45.3865 19.737 47.1329 17.2061 48.4219C14.6985 49.6874 11.991 50.3203 9.08496 50.3203C6.5308 50.3203 4.53887 49.8513 3.10938 48.9141C1.70326 47.9767 1.00001 46.8397 1 45.5039C1 44.4727 1.36335 43.7343 2.08984 43.2891C2.8163 42.8204 3.54308 42.5859 4.26953 42.5859C4.66783 42.586 5.05481 42.7149 5.42969 42.9727C5.82794 43.2304 6.02733 43.6408 6.02734 44.2031C6.02734 44.6483 5.82796 45.0587 5.42969 45.4336C5.03135 45.7851 4.56234 45.9609 4.02344 45.9609C3.32045 45.9609 2.78121 45.8437 2.40625 45.6094V45.7852C2.40628 46.8163 2.99232 47.6954 4.16406 48.4219C5.35913 49.1248 6.81197 49.4765 8.52246 49.4766C11.0301 49.4766 13.2922 48.8554 15.3076 47.6133C17.323 46.3478 19.1857 44.6834 20.8965 42.6211C22.6073 40.5588 24.2248 38.2742 25.748 35.7666C27.2947 33.2592 28.8293 30.7398 30.3525 28.209L31.0557 27.0488C27.353 26.9082 24.0368 26.3573 21.1074 25.3965C18.2015 24.4122 15.9285 23.076 14.2881 21.3887C12.6711 19.7014 11.9327 17.7448 12.0732 15.5186C12.1904 13.4328 12.9406 11.5106 14.3232 9.75293C15.7058 7.97203 17.5454 6.43729 19.8418 5.14844C22.1619 3.83605 24.7756 2.81634 27.6816 2.08984C30.611 1.36341 33.6811 1 36.8916 1C38.6256 1.00002 40.137 1.16416 41.4258 1.49219C42.7382 1.82028 43.3945 2.14847 43.3945 2.47656C43.3944 2.57022 43.2538 2.61719 42.9727 2.61719C42.8087 2.61718 42.6445 2.60546 42.4805 2.58203C42.3399 2.53519 42.1757 2.49999 41.9883 2.47656C41.2384 2.28911 40.4647 2.1367 39.668 2.01953C38.8947 1.87898 37.9576 1.8086 36.8564 1.80859C34.1379 1.80859 31.4656 2.16022 28.8408 2.86328C26.2397 3.5429 23.861 4.51581 21.7051 5.78125C19.5727 7.04666 17.8504 8.55797 16.5381 10.3154C15.2491 12.0731 14.5459 14.0305 14.4287 16.1865C14.3351 17.5925 14.8859 19.0452 16.0811 20.5449C17.2997 22.0448 19.1975 23.3224 21.7754 24.377C24.3532 25.4315 27.6342 26.0293 31.6182 26.1699C37.2192 17.3582 42.3637 10.9596 47.0508 6.97559C51.7377 2.99175 56.1909 1 60.4092 1ZM107.092 27.2598C105.99 27.26 104.162 28.103 101.608 29.79C99.0539 31.454 96.324 34.1029 93.418 37.7354C91.7072 39.8679 90.4413 41.7424 89.6211 43.3594C88.8243 44.953 88.4375 46.3126 88.4609 47.4375C88.5313 48.656 89.1056 49.2656 90.1836 49.2656C91.4959 49.2656 93.4409 48.4333 96.0186 46.7695C98.5965 45.0822 101.691 42.1295 105.3 37.9111L108.041 34.5713C108.603 33.751 109.107 32.872 109.553 31.9346C110.021 30.9972 110.256 30.1415 110.256 29.3682C110.232 27.9623 109.177 27.2598 107.092 27.2598ZM153.74 27.4355C152.381 27.4356 150.706 28.2436 148.714 29.8604C146.745 31.454 144.542 33.763 142.104 36.7861C140.37 38.9655 139.151 40.8049 138.448 42.3047C137.769 43.8046 137.477 45.1056 137.57 46.207C137.57 46.8398 137.78 47.5079 138.202 48.2109C138.647 48.9139 139.409 49.2656 140.487 49.2656C141.308 49.2656 142.257 49.0312 143.335 48.5625C144.413 48.0938 145.491 47.4726 146.569 46.6992C148.374 45.4103 150.002 43.8982 151.455 42.1641V42.0234C151.455 40.5707 151.83 39.4227 152.58 38.5791C153.353 37.712 154.104 37.1611 154.83 36.9268C155.978 34.5363 156.494 32.3914 156.377 30.4932C156.307 29.3452 156.002 28.5488 155.463 28.1035C154.947 27.6582 154.373 27.4355 153.74 27.4355ZM56.9639 27.0137C55.3937 27.0137 53.6942 27.8566 51.8662 29.5439C50.0382 31.2313 47.906 33.6809 45.4688 36.8916C44.9532 37.5477 44.496 38.1808 44.0977 38.79C48.6441 37.1964 52.2297 35.5555 54.8545 33.8682C57.4793 32.1574 58.792 30.5282 58.792 28.9814C58.7919 27.6694 58.1823 27.0137 56.9639 27.0137ZM60.374 1.87891C57.468 1.97265 54.3737 3.7298 51.0928 7.15137C47.8352 10.5729 44.1559 15.5064 40.0547 21.9512C39.6329 22.6073 39.2118 23.2521 38.79 23.8848C38.3682 24.5175 37.958 25.1622 37.5596 25.8184C40.9342 25.2559 44.1332 24.2127 47.1562 22.6895C50.1792 21.1428 52.8626 19.3503 55.2061 17.3115C57.5496 15.2726 59.4015 13.1863 60.7607 11.0537C62.1432 8.92134 62.8808 6.97624 62.9746 5.21875C63.0918 3.95324 62.8456 3.07418 62.2363 2.58203C61.6272 2.09009 61.0066 1.85558 60.374 1.87891ZM138.94 13.9717C139.597 13.9717 140.112 14.1944 140.487 14.6396C140.886 15.0615 141.085 15.5772 141.085 16.1865C141.085 17.0535 140.71 17.8146 139.96 18.4707C139.234 19.1268 138.437 19.455 137.57 19.4551C136.914 19.4551 136.387 19.2558 135.988 18.8574C135.613 18.4357 135.426 17.9089 135.426 17.2764C135.426 16.4561 135.766 15.706 136.445 15.0264C137.148 14.3234 137.98 13.9718 138.94 13.9717Z" fill="#1C1A16"/>
<path d="M72.1152 22.0215L72.1153 21.0215H72.1152V22.0215ZM73.9775 23.6387L74.9775 23.6387V23.6387H73.9775ZM73.6611 25.0098L74.5327 25.5V25.5L73.6611 25.0098ZM73.0283 26.0996L73.7877 26.7503L73.8425 26.6863L73.8858 26.6141L73.0283 26.0996ZM72.3955 27.9629H71.3955V27.965L72.3955 27.9629ZM73.5908 28.7354L73.2579 29.6783L73.2744 29.6841L73.291 29.6893L73.5908 28.7354ZM76.5791 29.5088L76.3642 30.4854L76.3754 30.4879L76.3867 30.4901L76.5791 29.5088ZM80.0947 30.1416L79.9336 31.1285L79.9434 31.1301L79.9533 31.1316L80.0947 30.1416ZM82.8018 30.458L82.7305 31.4555L82.7398 31.4561L82.7491 31.4566L82.8018 30.458ZM83.6094 30.7041L82.7785 31.2606L82.833 31.3419L82.9023 31.4112L83.6094 30.7041ZM83.7852 30.9854H84.7852V30.9832L83.7852 30.9854ZM82.7666 32.1455L83.3735 32.9403L83.3808 32.9347L83.388 32.929L82.7666 32.1455ZM78.7939 35.7314L79.5071 36.4325L79.5129 36.4265L78.7939 35.7314ZM74.9971 40.0547L75.7804 40.6764L75.7851 40.6703L74.9971 40.0547ZM72.1504 44.2383L71.2755 43.754L71.2755 43.754L72.1504 44.2383ZM71.0605 47.4727H70.0605V47.4727L71.0605 47.4727ZM72.3955 49.125L72.3953 50.125H72.3955V49.125ZM76.1572 47.9648L76.6517 48.834L76.6517 48.834L76.1572 47.9648ZM80.2705 45.0469L79.6303 44.2786L79.624 44.284L80.2705 45.0469ZM84.207 41.4258L83.4933 40.7253L83.4932 40.7254L84.207 41.4258ZM87.4062 38.0518L88.1478 38.7227L88.1556 38.714L87.4062 38.0518ZM89.0176 36.2529L89.7552 36.9281L89.7835 36.8973L89.809 36.8641L89.0176 36.2529ZM89.7266 35.3799L90.4873 36.029L90.4938 36.0213L90.5002 36.0135L89.7266 35.3799ZM95.667 29.7197L96.2263 30.5487L96.2285 30.5472L95.667 29.7197ZM101.292 26.9434L101.014 25.9828V25.9828L101.292 26.9434ZM106.178 26.1699V25.1699H106.178L106.178 26.1699ZM109.834 26.9434L110.325 26.0724L110.325 26.0724L109.834 26.9434ZM111.24 29.0518H112.24V29.0385L112.24 29.0253L111.24 29.0518ZM110.818 31.126L109.89 30.7546L111.593 31.7581L110.818 31.126ZM112.682 28.8057L113.468 29.4235L113.468 29.4235L112.682 28.8057ZM114.123 26.873L114.386 25.9083L113.709 25.7237L113.305 26.2976L114.123 26.873ZM115.107 27.084L114.934 28.0688L114.965 28.0743L114.997 28.0779L115.107 27.084ZM116.338 27.1543V28.1543H116.338L116.338 27.1543ZM117.638 27.1191L117.679 28.1183L117.679 28.1183L117.638 27.1191ZM118.938 27.0137L119.729 27.6267L121.267 25.6439L118.786 26.0253L118.938 27.0137ZM107.619 41.6016L106.829 40.9885L106.826 40.9922L107.619 41.6016ZM101.503 49.4766L100.717 48.8584L100.713 48.8632L101.503 49.4766ZM96.2646 56.1553L95.4811 55.5339L96.7204 57.0454L96.2646 56.1553ZM109.834 47.543L110.449 48.3316L110.452 48.3294L109.834 47.543ZM119.19 38.7637L119.932 39.4348L119.965 39.3983L119.994 39.3587L119.19 38.7637ZM121.716 35.4854L120.933 34.8625L120.933 34.8635L121.716 35.4854ZM129.273 26.416L129.384 25.4221L128.859 25.3638L128.515 25.7648L129.273 26.416ZM130.785 26.4863L130.756 27.4859V27.4859L130.785 26.4863ZM132.648 26.5215V27.5215V27.5215V26.5215ZM133.527 26.5215V27.5215H133.583L133.638 27.5154L133.527 26.5215ZM134.125 26.4512L134.887 27.0983L136.549 25.1403L134.001 25.4589L134.125 26.4512ZM125.724 36.3994L124.957 35.7572L124.954 35.7613L125.724 36.3994ZM120.731 42.6211L119.934 42.0172V42.0172L120.731 42.6211ZM118.306 46.1719L117.427 45.6948L117.427 45.6948L118.306 46.1719ZM117.638 48.1406H116.638V48.1408L117.638 48.1406ZM118.622 49.1953L118.481 50.1852L118.481 50.1853L118.622 49.1953ZM120.204 49.3359L120.204 50.3359H120.204V49.3359ZM124.353 48.0703L124.843 48.9419L124.853 48.936L124.353 48.0703ZM128.816 44.8711L129.467 45.6304L129.468 45.6295L128.816 44.8711ZM132.965 40.9688L132.251 40.268L132.245 40.2746L132.965 40.9688ZM135.802 37.96L136.548 38.6261L136.629 38.5351L136.686 38.4272L135.802 37.96ZM137.043 35.9072L136.228 35.3282L136.223 35.3348L137.043 35.9072ZM141.226 31.2666L141.895 32.0099L141.9 32.0046L141.226 31.2666ZM146.604 27.6113L147.039 28.5122L147.043 28.51L146.604 27.6113ZM152.65 26.1699V25.1699H152.65L152.65 26.1699ZM155.85 27.1543L155.256 27.9594L155.268 27.9681L155.28 27.9764L155.85 27.1543ZM157.361 30.2119L158.36 30.1532L158.359 30.1453L157.361 30.2119ZM156.201 36.5049L157.127 36.8831L157.128 36.8797L156.201 36.5049ZM152.58 42.5859L151.804 41.9553L151.492 42.3395L151.608 42.8206L152.58 42.5859ZM154.162 43.6055V44.6055V44.6055V43.6055ZM157.01 42.5859L157.56 43.4209L157.567 43.4166L157.573 43.4122L157.01 42.5859ZM159.997 40.125L159.307 39.4008L159.299 39.4092L159.997 40.125ZM162.528 37.5244L163.278 38.186V38.186L162.528 37.5244ZM163.935 35.9775L164.546 35.1863L163.85 34.6482L163.227 35.2705L163.935 35.9775ZM164.708 36.5752L165.396 37.3011L166.244 36.498L165.319 35.7839L164.708 36.5752ZM162.81 38.5439L163.536 39.2312L163.545 39.2214L162.81 38.5439ZM160.067 41.25L160.748 41.9828L160.748 41.9822L160.067 41.25ZM157.01 43.6055L156.481 42.7564L156.473 42.7618L157.01 43.6055ZM154.092 44.5898V45.5898V45.5898V44.5898ZM151.807 43.5352L152.677 43.0421L151.984 41.8206L151.056 42.8741L151.807 43.5352ZM145.937 48.4219L146.443 49.2843L146.446 49.2826L145.937 48.4219ZM139.573 50.3203L139.573 51.3203H139.573V50.3203ZM135.215 48.9844L134.517 49.7004L134.526 49.7095L135.215 48.9844ZM133.633 45.6445L132.634 45.6886L132.635 45.7111L132.637 45.7335L133.633 45.6445ZM134.5 40.8145L135.436 41.1664L133.771 40.1303L134.5 40.8145ZM133.352 42.0234L134.065 42.7242L134.071 42.7178L133.352 42.0234ZM129.098 45.8906L128.464 45.1166L128.459 45.1214L129.098 45.8906ZM124.353 49.0547L123.895 48.1654L123.89 48.1681L124.353 49.0547ZM119.606 50.3203L119.606 51.3203H119.606V50.3203ZM116.162 49.5469L115.644 50.4024L115.651 50.4065L116.162 49.5469ZM114.826 47.4023H113.826V47.4024L114.826 47.4023ZM115.354 44.9766L116.287 45.3356L116.29 45.3277L115.354 44.9766ZM116.263 43.1221L117.13 43.6207L115.565 42.4061L116.263 43.1221ZM109.482 48.9844L110.084 49.7834L110.086 49.7813L109.482 48.9844ZM94.9297 57.7725L94.4987 56.8701L94.2948 56.9675L94.1525 57.1431L94.9297 57.7725ZM85.9648 68.2129L85.2355 67.5287L85.2293 67.5354L85.9648 68.2129ZM79.4619 74.2939L78.8684 73.4892L78.8667 73.4904L79.4619 74.2939ZM74.1182 77.1416L73.8345 76.1826L73.826 76.1852L74.1182 77.1416ZM68.7402 77.915V78.915H68.7402L68.7402 77.915ZM66.2793 77.1416L66.8971 76.3553L66.8905 76.35L66.8837 76.3449L66.2793 77.1416ZM65.2598 75.5596H66.2598V75.5477L66.2595 75.5358L65.2598 75.5596ZM66.3496 72.3965L67.1817 72.9511L67.1844 72.9471L66.3496 72.3965ZM70.2168 68.7051L69.625 67.899V67.899L70.2168 68.7051ZM77.8799 64.1348L78.3398 65.0227L78.3424 65.0213L77.8799 64.1348ZM90.1836 58.4404L90.5744 59.3609L90.8008 59.2648L90.9569 59.0745L90.1836 58.4404ZM96.5459 50.5654L95.7675 49.9377L95.7644 49.9415L96.5459 50.5654ZM104.351 40.8281L105.132 41.4516L105.902 40.486L104.798 39.9337L104.351 40.8281ZM104.069 40.6875L104.517 39.7931L103.827 39.4484L103.318 40.0272L104.069 40.6875ZM95.8076 48.1406L96.3197 48.9996L96.3257 48.9959L95.8076 48.1406ZM89.9375 50.3203V51.3203H89.9375L89.9375 50.3203ZM86.668 49.0898L85.9087 49.7406L85.9087 49.7407L86.668 49.0898ZM85.543 45.7148H84.543V45.7312L84.5435 45.7476L85.543 45.7148ZM86.4922 40.6875L85.5538 40.3418L85.5499 40.3527L86.4922 40.6875ZM86.7471 40.0449L87.667 40.4369L86.0105 39.3686L86.7471 40.0449ZM84.4531 42.4805L85.1667 43.1811L85.173 43.1746L84.4531 42.4805ZM80.3057 46.207L79.6824 45.4249L79.6765 45.4298L80.3057 46.207ZM75.7002 49.1602L76.1368 50.0598L76.1368 50.0598L75.7002 49.1602ZM70.8848 50.3203V51.3203H70.8848L70.8848 50.3203ZM67.6855 49.3359L67.0475 50.106L67.0542 50.1115L67.0609 50.1169L67.6855 49.3359ZM66.4551 46.6992H65.4551V46.6993L66.4551 46.6992ZM70.5684 39.9141L69.8737 39.1948L69.8737 39.1948L70.5684 39.9141ZM81.7119 31.2314L82.2685 32.0622L84.3623 30.6594L81.8763 30.2451L81.7119 31.2314ZM75.5244 30.0361L75.2976 31.0101L75.3005 31.0107L75.5244 30.0361ZM71.4121 28.7354L71.8259 27.825L70.9486 27.4262L70.5177 28.2881L71.4121 28.7354ZM69.373 32.1807L70.2095 32.7287V32.7287L69.373 32.1807ZM65.9629 36.5752L65.2124 35.9143L65.2068 35.9206L65.2014 35.9271L65.9629 36.5752ZM64.1699 38.5791L63.4536 37.8813L63.4215 37.9143L63.3925 37.9502L64.1699 38.5791ZM63.8516 38.9727L64.6241 39.6076L64.629 39.6016L63.8516 38.9727ZM61.0068 42.1289L60.2872 41.4345L60.2809 41.4412L61.0068 42.1289ZM56.6123 46.0312L57.2177 46.8272H57.2177L56.6123 46.0312ZM51.0576 49.1953L50.6753 48.2713L50.6715 48.2729L51.0576 49.1953ZM44.5547 50.4609V51.4609V51.4609V50.4609ZM39.6328 48.668L38.8609 49.3037L38.8609 49.3037L39.6328 48.668ZM38.0869 44.2734L37.087 44.2919L37.0873 44.3005L38.0869 44.2734ZM38.8604 40.0547L37.9161 39.7256L37.916 39.7256L38.8604 40.0547ZM40.5469 36.5049L39.7347 35.9214L39.7331 35.9237L40.5469 36.5049ZM46.1719 30.5986L45.5689 29.8009L45.5689 29.8009L46.1719 30.5986ZM52.0771 27.2598L52.4208 28.1989L52.427 28.1966L52.0771 27.2598ZM57.21 26.1699L57.21 25.1699H57.21V26.1699ZM60.1982 26.873L59.5581 27.6413L59.5657 27.6476L59.5734 27.6538L60.1982 26.873ZM61.1123 28.4902L60.113 28.5287L60.1138 28.5477L60.1152 28.5667L61.1123 28.4902ZM59.6357 31.6885L58.8796 31.0341L58.8786 31.0352L59.6357 31.6885ZM54.1865 35.5908L54.662 36.4705L54.662 36.4705L54.1865 35.5908ZM43.2891 40.0195L42.9743 39.0704L42.6321 39.1838L42.4411 39.4895L43.2891 40.0195ZM41.6367 43.4297L42.5946 43.717L42.5965 43.7106L41.6367 43.4297ZM41.2148 45.9609H40.2148V45.961L41.2148 45.9609ZM42.3047 48.5273L41.6621 49.2935L41.668 49.2985L41.6741 49.3035L42.3047 48.5273ZM44.9414 49.4414V50.4414V50.4414V49.4414ZM51.1279 48.2109L51.5205 49.1307L51.5258 49.1284L51.1279 48.2109ZM56.4365 45.0469L55.8202 44.2593L55.8146 44.2638L56.4365 45.0469ZM60.6904 41.2148L61.4171 41.9019L61.4232 41.8953L60.6904 41.2148ZM62.5166 39.1855L63.2713 39.8416L63.3388 39.764L63.389 39.6743L62.5166 39.1855ZM63 38.624L63.708 39.3302L63.7369 39.3013L63.7633 39.2701L63 38.624ZM63.6777 37.8057L64.4568 38.4327L64.4641 38.4235L63.6777 37.8057ZM65.2246 35.9775L65.8974 36.7174L65.9604 36.66L66.0129 36.5928L65.2246 35.9775ZM66.0791 34.8828L66.8674 35.4981L66.8721 35.4921L66.0791 34.8828ZM68.3535 31.7588L69.1788 32.3235V32.3235L68.3535 31.7588ZM70.4629 28.2441L71.3615 28.683L71.7528 27.8816L71.0013 27.4014L70.4629 28.2441ZM68.9863 26.4512L67.9999 26.6156L68.0037 26.6383L68.0086 26.6609L68.9863 26.4512ZM69.6543 23.3926L68.8321 22.8233L68.8321 22.8234L69.6543 23.3926ZM88.9531 59.9521L89.7222 60.5913L88.555 59.0348L88.9531 59.9521ZM75.7705 66.2793L75.2838 65.4057L75.2817 65.4069L75.7705 66.2793ZM68.6348 71.2715L69.3474 71.973L69.3475 71.9729L68.6348 71.2715ZM66.4199 75.5596L65.4199 75.5595V75.5596H66.4199ZM67.0879 76.4385L67.7075 75.6536L67.6945 75.6433L67.6811 75.6334L67.0879 76.4385ZM68.8457 76.9658V77.9658H68.8457L68.8457 76.9658ZM72.4316 76.2275L72.0602 75.299L72.0509 75.3029L72.4316 76.2275ZM76.4033 73.6611L75.7607 72.8949L75.7596 72.8959L76.4033 73.6611ZM81.6064 68.4941L82.3478 69.1653V69.1653L81.6064 68.4941ZM60.4092 1L60.4092 0H60.4092V1ZM63.748 2.125L64.4228 1.38697L64.4228 1.38694L63.748 2.125ZM64.873 5.35938L65.8717 5.41131L65.8718 5.40931L64.873 5.35938ZM62.4824 11.4404L61.6503 10.8857L61.6464 10.8918L62.4824 11.4404ZM56.4365 18.0488L57.0815 18.813L57.0815 18.813L56.4365 18.0488ZM47.6133 23.6738L48.0452 24.5757H48.0452L47.6133 23.6738ZM36.8916 26.8027L36.7638 25.8109L36.3047 25.8701L36.0527 26.2584L36.8916 26.8027ZM30.8096 35.6611L31.616 36.2525L31.6183 36.2493L30.8096 35.6611ZM24.3418 43.1836L23.6422 42.4691L23.6384 42.4728L24.3418 43.1836ZM17.2061 48.4219L17.6566 49.3146L17.6599 49.313L17.2061 48.4219ZM9.08496 50.3203L9.08495 51.3203H9.08496V50.3203ZM3.10938 48.9141L2.55466 49.7461L2.56106 49.7503L3.10938 48.9141ZM1 45.5039H0V45.5039L1 45.5039ZM2.08984 43.2891L2.61241 44.1417L2.62225 44.1356L2.63195 44.1294L2.08984 43.2891ZM4.26953 42.5859L4.26969 41.5859H4.26953V42.5859ZM5.42969 42.9727L4.86316 43.7967L4.87462 43.8046L4.8863 43.8121L5.42969 42.9727ZM6.02734 44.2031H7.02734V44.2031L6.02734 44.2031ZM5.42969 45.4336L6.09131 46.1834L6.10339 46.1728L6.11512 46.1617L5.42969 45.4336ZM4.02344 45.9609V46.9609H4.02355L4.02344 45.9609ZM2.40625 45.6094L2.93618 44.7613L1.40625 43.8053V45.6094H2.40625ZM2.40625 45.7852H1.40625V45.7852L2.40625 45.7852ZM4.16406 48.4219L3.63712 49.2718L3.64704 49.2779L3.65709 49.2838L4.16406 48.4219ZM8.52246 49.4766L8.52244 50.4766H8.52246V49.4766ZM15.3076 47.6133L15.8323 48.4646L15.8394 48.4602L15.3076 47.6133ZM20.8965 42.6211L21.6661 43.2596V43.2596L20.8965 42.6211ZM25.748 35.7666L24.8969 35.2416L24.8934 35.2474L25.748 35.7666ZM30.3525 28.209L29.4973 27.6907L29.4957 27.6933L30.3525 28.209ZM31.0557 27.0488L31.9109 27.5671L32.7915 26.114L31.0936 26.0495L31.0557 27.0488ZM21.1074 25.3965L20.7866 26.3437L20.7958 26.3467L21.1074 25.3965ZM14.2881 21.3887L13.5661 22.0806L13.5711 22.0858L14.2881 21.3887ZM12.0732 15.5186L13.0713 15.5816L13.0717 15.5746L12.0732 15.5186ZM14.3232 9.75293L15.1092 10.3712L15.1131 10.3662L14.3232 9.75293ZM19.8418 5.14844L20.3312 6.02048L20.3341 6.01884L19.8418 5.14844ZM27.6816 2.08984L27.4409 1.11924L27.4391 1.1197L27.6816 2.08984ZM36.8916 1L36.8916 0H36.8916V1ZM41.4258 1.49219L41.1791 2.4613L41.1832 2.46233L41.4258 1.49219ZM43.3945 2.47656L44.3945 2.47796V2.47656H43.3945ZM42.9727 2.61719L42.9726 3.61719H42.9727V2.61719ZM42.4805 2.58203L42.1643 3.53075L42.2498 3.55924L42.339 3.57198L42.4805 2.58203ZM41.9883 2.47656L41.7458 3.44671L41.8043 3.46135L41.8642 3.46884L41.9883 2.47656ZM39.668 2.01953L39.4891 3.00341L39.5058 3.00643L39.5225 3.00889L39.668 2.01953ZM36.8564 1.80859L36.8565 0.808594H36.8564V1.80859ZM28.8408 2.86328L29.0936 3.83082L29.0996 3.82923L28.8408 2.86328ZM21.7051 5.78125L21.1989 4.91882L21.1947 4.92127L21.7051 5.78125ZM16.5381 10.3154L15.7368 9.7171L15.7317 9.72407L16.5381 10.3154ZM14.4287 16.1865L15.4266 16.253L15.4272 16.2408L14.4287 16.1865ZM16.0811 20.5449L15.299 21.1682L15.3049 21.1755L16.0811 20.5449ZM21.7754 24.377L21.3968 25.3025H21.3968L21.7754 24.377ZM31.6182 26.1699L31.5829 27.1693L32.155 27.1895L32.4621 26.7064L31.6182 26.1699ZM47.0508 6.97559L46.4031 6.21364L46.4031 6.21365L47.0508 6.97559ZM107.092 27.2598V26.2598H107.092L107.092 27.2598ZM101.608 29.79L102.154 30.628L102.16 30.6244L101.608 29.79ZM93.418 37.7354L94.198 38.3611L94.1988 38.36L93.418 37.7354ZM89.6211 43.3594L88.7293 42.907L88.7267 42.9122L89.6211 43.3594ZM88.4609 47.4375L87.4612 47.4583L87.4615 47.4767L87.4626 47.4951L88.4609 47.4375ZM90.1836 49.2656V50.2656H90.1836L90.1836 49.2656ZM96.0186 46.7695L96.5609 47.6097L96.5662 47.6062L96.0186 46.7695ZM105.3 37.9111L106.06 38.5612L106.066 38.5535L106.073 38.5456L105.3 37.9111ZM108.041 34.5713L108.814 35.2057L108.841 35.1724L108.866 35.1368L108.041 34.5713ZM109.553 31.9346L108.658 31.4874L108.654 31.4964L108.649 31.5055L109.553 31.9346ZM110.256 29.3682H111.256V29.3598L111.256 29.3514L110.256 29.3682ZM153.74 27.4355V26.4355H153.74L153.74 27.4355ZM148.714 29.8604L149.343 30.6376L149.344 30.6368L148.714 29.8604ZM142.104 36.7861L141.326 36.1585L141.322 36.1635L142.104 36.7861ZM138.448 42.3047L137.543 41.8802L137.537 41.892L138.448 42.3047ZM137.57 46.207L138.57 46.207V46.1645L138.567 46.1222L137.57 46.207ZM138.202 48.2109L137.345 48.7254L137.351 48.7358L137.357 48.746L138.202 48.2109ZM140.487 49.2656L140.487 50.2656H140.487V49.2656ZM143.335 48.5625L143.734 49.4796L143.734 49.4796L143.335 48.5625ZM146.569 46.6992L145.988 45.8855L145.986 45.8867L146.569 46.6992ZM151.455 42.1641L152.222 42.8063L152.455 42.5276V42.1641H151.455ZM151.455 42.0234L150.455 42.0234V42.0234H151.455ZM152.58 38.5791L151.834 37.9135L151.833 37.9148L152.58 38.5791ZM154.83 36.9268L155.137 37.8785L155.546 37.7467L155.731 37.3598L154.83 36.9268ZM156.377 30.4932L155.379 30.5543L155.379 30.5548L156.377 30.4932ZM155.463 28.1035L154.809 28.8603L154.817 28.8674L154.826 28.8743L155.463 28.1035ZM56.9639 27.0137L56.9639 26.0137H56.9639V27.0137ZM51.8662 29.5439L51.1879 28.8091V28.8091L51.8662 29.5439ZM45.4688 36.8916L46.2551 37.5094L46.2602 37.5029L46.2652 37.4962L45.4688 36.8916ZM44.0977 38.79L43.2607 38.2428L41.6488 40.7081L44.4284 39.7337L44.0977 38.79ZM54.8545 33.8682L55.3953 34.7094L55.4005 34.7059L54.8545 33.8682ZM58.792 28.9814H59.792V28.9813L58.792 28.9814ZM60.374 1.87891L60.4063 2.8784L60.4109 2.87823L60.374 1.87891ZM51.0928 7.15137L50.371 6.45924L50.3685 6.46184L51.0928 7.15137ZM40.0547 21.9512L40.8959 22.4919L40.8983 22.488L40.0547 21.9512ZM38.79 23.8848L39.6221 24.4395V24.4395L38.79 23.8848ZM37.5596 25.8184L36.7048 25.2994L35.5732 27.1632L37.724 26.8048L37.5596 25.8184ZM47.1562 22.6895L47.6062 23.5825L47.6117 23.5797L47.1562 22.6895ZM55.2061 17.3115L55.8624 18.066L55.8624 18.066L55.2061 17.3115ZM60.7607 11.0537L59.9216 10.5097L59.9175 10.5162L60.7607 11.0537ZM62.9746 5.21875L61.9789 5.12655L61.9771 5.14597L61.976 5.16544L62.9746 5.21875ZM62.2363 2.58203L62.8647 1.80409L62.8646 1.80405L62.2363 2.58203ZM138.94 13.9717V12.9717H138.94L138.94 13.9717ZM140.487 14.6396L139.722 15.2838L139.741 15.3056L139.76 15.3263L140.487 14.6396ZM141.085 16.1865L142.085 16.1866V16.1865H141.085ZM139.96 18.4707L139.301 17.7181L139.296 17.7233L139.29 17.7286L139.96 18.4707ZM137.57 19.4551V20.4551H137.57L137.57 19.4551ZM135.988 18.8574L135.241 19.5217L135.26 19.5437L135.281 19.5645L135.988 18.8574ZM135.426 17.2764H134.426V17.2765L135.426 17.2764ZM136.445 15.0264L135.738 14.3193V14.3193L136.445 15.0264ZM72.1152 22.0215L72.1151 23.0215C72.6138 23.0215 72.801 23.1328 72.8563 23.1809C72.8847 23.2056 72.9775 23.2935 72.9775 23.6387H73.9775H74.9775C74.9775 22.906 74.7601 22.1853 74.1678 21.6709C73.6024 21.1799 72.8585 21.0216 72.1153 21.0215L72.1152 22.0215ZM73.9775 23.6387L72.9775 23.6387C72.9775 24.0487 72.8975 24.3276 72.7896 24.5195L73.6611 25.0098L74.5327 25.5C74.8466 24.9421 74.9775 24.3066 74.9775 23.6387L73.9775 23.6387ZM73.6611 25.0098L72.7896 24.5195C72.583 24.8866 72.3767 25.2421 72.1708 25.5851L73.0283 26.0996L73.8858 26.6141C74.1017 26.2543 74.3175 25.8826 74.5327 25.5L73.6611 25.0098ZM73.0283 26.0996L72.2689 25.449C71.6682 26.1501 71.3955 27.0139 71.3955 27.9629H72.3955H73.3955C73.3955 27.4124 73.5452 27.0333 73.7877 26.7503L73.0283 26.0996ZM72.3955 27.9629L71.3955 27.965C71.3963 28.3217 71.5508 28.5966 71.6943 28.7733C71.8349 28.9464 72.0038 29.0757 72.1523 29.1716C72.4492 29.3634 72.834 29.5287 73.2579 29.6783L73.5908 28.7354L73.9237 27.7924C73.5517 27.6611 73.339 27.5572 73.2374 27.4916C73.1867 27.4588 73.206 27.4622 73.2468 27.5125C73.2905 27.5662 73.395 27.7212 73.3955 27.9608L72.3955 27.9629ZM73.5908 28.7354L73.291 29.6893C74.1477 29.9586 75.1742 30.2236 76.3642 30.4854L76.5791 29.5088L76.794 28.5321C75.6407 28.2784 74.6744 28.0277 73.8906 27.7814L73.5908 28.7354ZM76.5791 29.5088L76.3867 30.4901C77.5918 30.7264 78.7743 30.9393 79.9336 31.1285L80.0947 30.1416L80.2559 29.1547C79.1185 28.969 77.9568 28.7599 76.7715 28.5275L76.5791 29.5088ZM80.0947 30.1416L79.9533 31.1316C81.1102 31.2968 82.0397 31.4061 82.7305 31.4555L82.8018 30.458L82.873 29.4605C82.2515 29.4162 81.3758 29.3145 80.2361 29.1517L80.0947 30.1416ZM82.8018 30.458L82.7491 31.4566C82.8357 31.4612 82.9039 31.4681 82.9558 31.4758C83.0087 31.4837 83.0366 31.4911 83.0453 31.4937C83.0557 31.4969 83.0291 31.4903 82.9835 31.4624C82.9369 31.4338 82.8532 31.3722 82.7785 31.2606L83.6094 30.7041L84.4402 30.1476C84.204 29.795 83.8492 29.648 83.6288 29.5807C83.3853 29.5065 83.117 29.4732 82.8544 29.4594L82.8018 30.458ZM83.6094 30.7041L82.9023 31.4112C82.9307 31.4396 82.9182 31.4325 82.893 31.3921C82.8792 31.3701 82.8548 31.3272 82.8326 31.2652C82.8103 31.2031 82.7854 31.1077 82.7852 30.9875L83.7852 30.9854L84.7852 30.9832C84.7845 30.6833 84.6656 30.4548 84.5892 30.3324C84.5054 30.1982 84.4051 30.0856 84.3165 29.997L83.6094 30.7041ZM83.7852 30.9854H82.7852C82.7852 30.8124 82.8437 30.7108 82.8439 30.7103C82.8487 30.7016 82.8351 30.7277 82.779 30.7916C82.6666 30.9198 82.4649 31.1084 82.1452 31.362L82.7666 32.1455L83.388 32.929C83.7477 32.6437 84.0553 32.3694 84.2823 32.1108C84.3959 31.9813 84.5096 31.8331 84.5992 31.6691C84.6843 31.5133 84.7852 31.2755 84.7852 30.9854H83.7852ZM82.7666 32.1455L82.1597 31.3507C80.8238 32.3709 79.4622 33.6014 78.075 35.0364L78.7939 35.7314L79.5129 36.4265C80.8442 35.0493 82.1315 33.8887 83.3735 32.9403L82.7666 32.1455ZM78.7939 35.7314L78.0808 35.0304C76.6957 36.4394 75.4047 37.9087 74.209 39.439L74.9971 40.0547L75.7851 40.6703C76.9329 39.2011 78.1738 37.7888 79.5071 36.4325L78.7939 35.7314ZM74.9971 40.0547L74.2138 39.433C73.0159 40.9424 72.0343 42.3833 71.2755 43.754L72.1504 44.2383L73.0253 44.7226C73.7195 43.4687 74.6349 42.1196 75.7804 40.6763L74.9971 40.0547ZM72.1504 44.2383L71.2755 43.754C70.5218 45.1155 70.0605 46.3741 70.0605 47.4727H71.0605H72.0605C72.0605 46.8839 72.326 45.9858 73.0253 44.7226L72.1504 44.2383ZM71.0605 47.4727L70.0605 47.4727C70.0606 48.1318 70.1895 48.8116 70.6163 49.34C71.0761 49.9092 71.7328 50.1249 72.3953 50.125L72.3955 49.125L72.3957 48.125C72.2745 48.125 72.2143 48.1061 72.193 48.0973C72.1777 48.091 72.176 48.0881 72.1722 48.0833C72.1541 48.0609 72.0606 47.9146 72.0605 47.4726L71.0605 47.4727ZM72.3955 49.125V50.125C73.7688 50.125 75.1942 49.6633 76.6517 48.834L76.1572 47.9648L75.6627 47.0957C74.402 47.813 73.3188 48.125 72.3955 48.125V49.125ZM76.1572 47.9648L76.6517 48.834C78.0725 48.0256 79.4943 47.0154 80.917 45.8098L80.2705 45.0469L79.624 44.284C78.2813 45.4218 76.9604 46.3573 75.6627 47.0957L76.1572 47.9648ZM80.2705 45.0469L80.9107 45.8151C82.3413 44.6229 83.6778 43.393 84.9208 42.1261L84.207 41.4258L83.4932 40.7254C82.299 41.9426 81.0118 43.1274 79.6303 44.2787L80.2705 45.0469ZM84.207 41.4258L84.9207 42.1262C86.169 40.8544 87.2456 39.7198 88.1478 38.7227L87.4062 38.0518L86.6647 37.3808C85.7859 38.3522 84.729 39.4664 83.4933 40.7253L84.207 41.4258ZM87.4062 38.0518L88.1556 38.714C88.8591 37.9179 89.3932 37.3236 89.7552 36.9281L89.0176 36.2529L88.2799 35.5778C87.9075 35.9847 87.3651 36.5882 86.6569 37.3896L87.4062 38.0518ZM89.0176 36.2529L89.809 36.8641C90.0241 36.5856 90.25 36.3071 90.4873 36.029L89.7266 35.3799L88.9659 34.7308C88.7072 35.0339 88.4609 35.3377 88.2261 35.6417L89.0176 36.2529ZM89.7266 35.3799L90.5002 36.0135C92.4744 33.6031 94.3847 31.7912 96.2263 30.5487L95.667 29.7197L95.1077 28.8908C93.0591 30.273 91.0095 32.2353 88.9529 34.7462L89.7266 35.3799ZM95.667 29.7197L96.2285 30.5472C98.1332 29.2547 99.9135 28.3835 101.57 27.9039L101.292 26.9434L101.014 25.9828C99.1083 26.5344 97.1379 27.5131 95.1055 28.8923L95.667 29.7197ZM101.292 26.9434L101.57 27.9039C103.283 27.4082 104.816 27.17 106.178 27.1699L106.178 26.1699L106.178 25.1699C104.587 25.17 102.863 25.4475 101.014 25.9828L101.292 26.9434ZM106.178 26.1699V27.1699C107.602 27.1699 108.631 27.4131 109.343 27.8143L109.834 26.9434L110.325 26.0724C109.209 25.4425 107.8 25.1699 106.178 25.1699V26.1699ZM109.834 26.9434L109.343 27.8143C110.015 28.1936 110.228 28.6074 110.241 29.0782L111.24 29.0518L112.24 29.0253C112.205 27.7155 111.481 26.7241 110.325 26.0724L109.834 26.9434ZM111.24 29.0518H110.24C110.24 29.5903 110.129 30.1562 109.89 30.7546L110.818 31.126L111.747 31.4973C112.07 30.6897 112.24 29.8723 112.24 29.0518H111.24ZM110.818 31.126L111.593 31.7581C112.322 30.8645 112.948 30.0859 113.468 29.4235L112.682 28.8057L111.895 28.1878C111.385 28.8378 110.767 29.6065 110.043 30.4939L110.818 31.126ZM112.682 28.8057L113.468 29.4235C113.993 28.7551 114.485 28.097 114.941 27.4485L114.123 26.873L113.305 26.2976C112.871 26.9143 112.401 27.5442 111.895 28.1878L112.682 28.8057ZM114.123 26.873L113.86 27.8378C114.158 27.9191 114.519 27.9956 114.934 28.0688L115.107 27.084L115.281 26.0992C114.899 26.0318 114.604 25.9676 114.386 25.9083L114.123 26.873ZM115.107 27.084L114.997 28.0779C115.453 28.1285 115.9 28.1543 116.338 28.1543V27.1543V26.1543C115.979 26.1543 115.605 26.1331 115.218 26.0901L115.107 27.084ZM116.338 27.1543L116.338 28.1543C116.663 28.1543 117.113 28.1419 117.679 28.1183L117.638 27.1191L117.596 26.12C117.038 26.1432 116.621 26.1543 116.338 26.1543L116.338 27.1543ZM117.638 27.1191L117.679 28.1183C118.254 28.0943 118.731 28.0573 119.09 28.0021L118.938 27.0137L118.786 26.0253C118.537 26.0637 118.146 26.0971 117.596 26.12L117.638 27.1191ZM118.938 27.0137L118.148 26.4006L106.829 40.9885L107.619 41.6016L108.409 42.2146L119.729 27.6267L118.938 27.0137ZM107.619 41.6016L106.826 40.9922C104.649 43.8255 102.612 46.448 100.717 48.8584L101.503 49.4766L102.289 50.0947C104.19 47.6774 106.231 45.049 108.412 42.211L107.619 41.6016ZM101.503 49.4766L100.713 48.8632C98.8402 51.2746 97.0958 53.498 95.4811 55.5339L96.2646 56.1553L97.0481 56.7767C98.6675 54.7349 100.416 52.5061 102.293 50.09L101.503 49.4766ZM96.2646 56.1553L96.7204 57.0454C101.672 54.5104 106.249 51.6062 110.449 48.3316L109.834 47.543L109.219 46.7543C105.123 49.9478 100.653 52.785 95.8089 55.2651L96.2646 56.1553ZM109.834 47.543L110.452 48.3294C113.756 45.7344 116.915 42.7675 119.932 39.4348L119.19 38.7637L118.449 38.0925C115.502 41.3481 112.425 44.2366 109.216 46.7565L109.834 47.543ZM119.19 38.7637L119.994 39.3587C120.711 38.3905 121.546 37.3073 122.499 36.1072L121.716 35.4854L120.933 34.8635C119.97 36.0761 119.12 37.1778 118.387 38.1686L119.19 38.7637ZM121.716 35.4854L122.498 36.1082C124.409 33.7077 126.92 30.6947 130.032 27.0672L129.273 26.416L128.515 25.7648C125.394 29.402 122.866 32.4355 120.933 34.8625L121.716 35.4854ZM129.273 26.416L129.163 27.4099C129.423 27.4388 129.973 27.4629 130.756 27.4859L130.785 26.4863L130.815 25.4868C130.004 25.4629 129.546 25.4401 129.384 25.4221L129.273 26.416ZM130.785 26.4863L130.756 27.4859C131.556 27.5094 132.189 27.5215 132.648 27.5215V26.5215V25.5215C132.218 25.5215 131.608 25.5101 130.815 25.4868L130.785 26.4863ZM132.648 26.5215V27.5215H133.527V26.5215V25.5215H132.648V26.5215ZM133.527 26.5215L133.638 27.5154C133.853 27.4915 134.057 27.4675 134.249 27.4434L134.125 26.4512L134.001 25.4589C133.819 25.4817 133.624 25.5046 133.417 25.5276L133.527 26.5215ZM134.125 26.4512L133.363 25.804C129.94 29.8357 127.138 33.1536 124.957 35.7572L125.724 36.3994L126.49 37.0416C128.668 34.4426 131.467 31.1283 134.887 27.0983L134.125 26.4512ZM125.724 36.3994L124.954 35.7613C122.794 38.3668 121.119 40.4534 119.934 42.0172L120.731 42.6211L121.529 43.225C122.687 41.6954 124.341 39.6347 126.494 37.0375L125.724 36.3994ZM120.731 42.6211L119.934 42.0172C118.757 43.5709 117.91 44.8046 117.427 45.6948L118.306 46.1719L119.185 46.649C119.592 45.8987 120.362 44.7647 121.529 43.225L120.731 42.6211ZM118.306 46.1719L117.427 45.6948C116.961 46.552 116.638 47.3908 116.638 48.1406H117.638H118.638C118.638 47.9063 118.759 47.432 119.185 46.6489L118.306 46.1719ZM117.638 48.1406L116.638 48.1408C116.638 48.6285 116.773 49.137 117.153 49.5435C117.522 49.9393 118.011 50.1181 118.481 50.1852L118.622 49.1953L118.764 48.2054C118.673 48.1924 118.624 48.1747 118.604 48.1656C118.586 48.1577 118.597 48.1591 118.615 48.1789C118.635 48.1998 118.644 48.22 118.646 48.2258C118.646 48.2281 118.638 48.204 118.638 48.1405L117.638 48.1406ZM118.622 49.1953L118.481 50.1853C119.157 50.2819 119.738 50.3359 120.204 50.3359L120.204 49.3359L120.204 48.3359C119.874 48.3359 119.399 48.2962 118.763 48.2054L118.622 49.1953ZM120.204 49.3359V50.3359C121.692 50.3359 123.245 49.8407 124.843 48.9419L124.353 48.0703L123.862 47.1987C122.46 47.9872 121.247 48.3359 120.204 48.3359V49.3359ZM124.353 48.0703L124.853 48.936C126.412 48.0346 127.95 46.9309 129.467 45.6304L128.816 44.8711L128.166 44.1118C126.73 45.3421 125.292 46.3719 123.852 47.2046L124.353 48.0703ZM128.816 44.8711L129.468 45.6295C130.99 44.3219 132.396 42.9995 133.685 41.6629L132.965 40.9688L132.245 40.2746C131.003 41.5627 129.643 42.8424 128.165 44.1127L128.816 44.8711ZM132.965 40.9688L133.678 41.6695C134.811 40.5161 135.767 39.5003 136.548 38.6261L135.802 37.96L135.056 37.2938C134.301 38.1389 133.368 39.1311 132.251 40.268L132.965 40.9688ZM135.802 37.96L136.686 38.4272C137.069 37.7032 137.461 37.0547 137.863 36.4796L137.043 35.9072L136.223 35.3348C135.769 35.9856 135.334 36.7055 134.918 37.4927L135.802 37.96ZM137.043 35.9072L137.858 36.4862C138.96 34.9353 140.303 33.4424 141.895 32.0099L141.226 31.2666L140.557 30.5233C138.867 32.0436 137.423 33.6451 136.228 35.3282L137.043 35.9072ZM141.226 31.2666L141.9 32.0046C143.471 30.5687 145.184 29.4062 147.039 28.5122L146.604 27.6113L146.17 26.7105C144.135 27.6913 142.261 28.9648 140.551 30.5286L141.226 31.2666ZM146.604 27.6113L147.043 28.51C148.884 27.6116 150.75 27.1699 152.65 27.1699L152.65 26.1699L152.65 25.1699C150.427 25.1699 148.262 25.6895 146.166 26.7127L146.604 27.6113ZM152.65 26.1699V27.1699C153.706 27.1699 154.559 27.4452 155.256 27.9594L155.85 27.1543L156.443 26.3492C155.36 25.551 154.078 25.1699 152.65 25.1699V26.1699ZM155.85 27.1543L155.28 27.9764C155.879 28.3908 156.284 29.0881 156.364 30.2785L157.361 30.2119L158.359 30.1453C158.251 28.5241 157.648 27.1832 156.419 26.3322L155.85 27.1543ZM157.361 30.2119L156.363 30.2706C156.47 32.0891 156.12 34.0387 155.274 36.1301L156.201 36.5049L157.128 36.8797C158.064 34.5652 158.487 32.3188 158.36 30.1532L157.361 30.2119ZM156.201 36.5049L155.275 36.1266C154.423 38.2126 153.267 40.1548 151.804 41.9553L152.58 42.5859L153.356 43.2165C154.94 41.2676 156.198 39.1561 157.127 36.8831L156.201 36.5049ZM152.58 42.5859L151.608 42.8206C151.743 43.3791 152.052 43.8656 152.557 44.1911C153.037 44.5002 153.602 44.6055 154.162 44.6055V43.6055V42.6055C153.832 42.6055 153.688 42.5408 153.64 42.51C153.619 42.4965 153.608 42.4846 153.599 42.4706C153.588 42.455 153.569 42.4201 153.552 42.3513L152.58 42.5859ZM154.162 43.6055V44.6055C155.291 44.6055 156.432 44.1645 157.56 43.4209L157.01 42.5859L156.459 41.751C155.525 42.3666 154.767 42.6055 154.162 42.6055V43.6055ZM157.01 42.5859L157.573 43.4122C158.656 42.6738 159.696 41.8155 160.695 40.8408L159.997 40.125L159.299 39.4092C158.376 40.3091 157.426 41.092 156.446 41.7597L157.01 42.5859ZM159.997 40.125L160.687 40.8491C161.686 39.8974 162.551 39.0097 163.278 38.186L162.528 37.5244L161.778 36.8628C161.099 37.6326 160.276 38.478 159.307 39.4009L159.997 40.125ZM162.528 37.5244L163.278 38.186C163.986 37.3844 164.433 36.893 164.642 36.6846L163.935 35.9775L163.227 35.2705C162.967 35.531 162.477 36.0712 161.778 36.8628L162.528 37.5244ZM163.935 35.9775L163.323 36.7688L164.097 37.3665L164.708 36.5752L165.319 35.7839L164.546 35.1863L163.935 35.9775ZM164.708 36.5752L164.02 35.8493C163.549 36.2953 162.898 36.9721 162.074 37.8665L162.81 38.5439L163.545 39.2214C164.362 38.3349 164.976 37.6988 165.396 37.3011L164.708 36.5752ZM162.81 38.5439L162.083 37.8567C161.28 38.7059 160.381 39.5926 159.386 40.5178L160.067 41.25L160.748 41.9822C161.769 41.0328 162.699 40.116 163.536 39.2312L162.81 38.5439ZM160.067 41.25L159.387 40.5172C158.446 41.3913 157.477 42.1368 156.481 42.7564L157.01 43.6055L157.538 44.4545C158.651 43.7618 159.721 42.9365 160.748 41.9828L160.067 41.25ZM157.01 43.6055L156.473 42.7618C155.549 43.3495 154.761 43.5898 154.092 43.5898V44.5898V45.5898C155.25 45.5898 156.408 45.1739 157.547 44.4491L157.01 43.6055ZM154.092 44.5898V43.5898C153.168 43.5898 152.831 43.3147 152.677 43.0421L151.807 43.5352L150.937 44.0282C151.579 45.1618 152.765 45.5898 154.092 45.5898V44.5898ZM151.807 43.5352L151.056 42.8741C149.389 44.7668 147.513 46.3277 145.427 47.5611L145.937 48.4219L146.446 49.2826C148.719 47.9382 150.756 46.2406 152.557 44.1962L151.807 43.5352ZM145.937 48.4219L145.43 47.5595C143.397 48.7528 141.449 49.3203 139.573 49.3203V50.3203V51.3203C141.869 51.3203 144.164 50.6219 146.443 49.2843L145.937 48.4219ZM139.573 50.3203L139.573 49.3203C137.731 49.3203 136.578 48.9001 135.904 48.2593L135.215 48.9844L134.526 49.7095C135.726 50.8492 137.479 51.3203 139.573 51.3203L139.573 50.3203ZM135.215 48.9844L135.913 48.2684C135.148 47.5223 134.725 46.6317 134.629 45.5556L133.633 45.6445L132.637 45.7335C132.775 47.282 133.407 48.6185 134.517 49.7004L135.215 48.9844ZM133.633 45.6445L134.632 45.6005C134.573 44.2556 134.829 42.7811 135.436 41.1664L134.5 40.8145L133.564 40.4625C132.882 42.277 132.56 44.0226 132.634 45.6886L133.633 45.6445ZM134.5 40.8145L133.771 40.1303C133.41 40.5148 133.032 40.9149 132.632 41.3291L133.352 42.0234L134.071 42.7178C134.48 42.2946 134.865 41.8871 135.229 41.4986L134.5 40.8145ZM133.352 42.0234L132.638 41.3227C131.377 42.6072 129.985 43.8722 128.464 45.1167L129.098 45.8906L129.731 46.6646C131.303 45.3781 132.749 44.0645 134.065 42.7241L133.352 42.0234ZM129.098 45.8906L128.459 45.1214C126.987 46.3438 125.466 47.3575 123.895 48.1654L124.353 49.0547L124.81 49.944C126.52 49.0646 128.162 47.9682 129.737 46.6598L129.098 45.8906ZM124.353 49.0547L123.89 48.1681C122.39 48.9506 120.966 49.3203 119.606 49.3203V50.3203V51.3203C121.341 51.3203 123.081 50.8461 124.815 49.9413L124.353 49.0547ZM119.606 50.3203L119.606 49.3203C118.286 49.3203 117.334 49.0802 116.673 48.6873L116.162 49.5469L115.651 50.4065C116.724 51.0442 118.068 51.3203 119.606 51.3203L119.606 50.3203ZM116.162 49.5469L116.68 48.6914C116.029 48.2975 115.826 47.8784 115.826 47.4023L114.826 47.4023L113.826 47.4024C113.826 48.7071 114.514 49.7183 115.644 50.4024L116.162 49.5469ZM114.826 47.4023H115.826C115.826 46.8599 115.963 46.1767 116.287 45.3355L115.354 44.9766L114.42 44.6176C114.041 45.6044 113.826 46.5386 113.826 47.4023H114.826ZM115.354 44.9766L116.29 45.3277C116.462 44.8676 116.738 44.3013 117.13 43.6207L116.263 43.1221L115.396 42.6235C114.973 43.3586 114.641 44.0278 114.417 44.6254L115.354 44.9766ZM116.263 43.1221L115.565 42.4061C113.379 44.5375 111.151 46.4653 108.878 48.1874L109.482 48.9844L110.086 49.7813C112.43 48.0055 114.72 46.0228 116.961 43.838L116.263 43.1221ZM109.482 48.9844L108.881 48.1854C104.484 51.4948 99.6905 54.3901 94.4987 56.8701L94.9297 57.7725L95.3607 58.6748C100.667 56.1399 105.576 53.1762 110.084 49.7834L109.482 48.9844ZM94.9297 57.7725L94.1525 57.1431C90.6689 61.445 87.6969 64.9048 85.2355 67.5287L85.9648 68.2129L86.6942 68.897C89.2011 66.2246 92.2067 62.7241 95.7068 58.4018L94.9297 57.7725ZM85.9648 68.2129L85.2293 67.5354C82.7909 70.1828 80.6717 72.1591 78.8684 73.4892L79.4619 74.2939L80.0555 75.0987C82.0016 73.6635 84.2177 71.5858 86.7004 68.8904L85.9648 68.2129ZM79.4619 74.2939L78.8667 73.4904C77.0307 74.8504 75.3539 75.7333 73.8345 76.1827L74.1182 77.1416L74.4018 78.1005C76.2103 77.5656 78.0966 76.5498 80.0571 75.0975L79.4619 74.2939ZM74.1182 77.1416L73.826 76.1852C72.2403 76.6697 70.5467 76.915 68.7402 76.915L68.7402 77.915L68.7402 78.915C70.7299 78.915 72.6216 78.6445 74.4104 78.098L74.1182 77.1416ZM68.7402 77.915V76.915C67.9382 76.915 67.3468 76.7086 66.8971 76.3553L66.2793 77.1416L65.6615 77.9279C66.5241 78.6057 67.5737 78.915 68.7402 78.915V77.915ZM66.2793 77.1416L66.8837 76.3449C66.3064 75.907 66.2598 75.6386 66.2598 75.5596H65.2598H64.2598C64.2598 76.5585 64.893 77.3451 65.6749 77.9383L66.2793 77.1416ZM65.2598 75.5596L66.2595 75.5358C66.2425 74.8212 66.5043 73.9673 67.1817 72.9511L66.3496 72.3965L65.5175 71.8418C64.6955 73.0751 64.2303 74.3297 64.26 75.5833L65.2598 75.5596ZM66.3496 72.3965L67.1844 72.9471C67.8145 71.9918 68.9928 70.8443 70.8086 69.5112L70.2168 68.7051L69.625 67.899C67.738 69.2844 66.3377 70.5983 65.5148 71.8459L66.3496 72.3965ZM70.2168 68.7051L70.8086 69.5112C72.6012 68.1951 75.1048 66.6984 78.3398 65.0227L77.8799 64.1348L77.4199 63.2468C74.14 64.9458 71.5352 66.4966 69.625 67.899L70.2168 68.7051ZM77.8799 64.1348L78.3424 65.0213C81.5448 63.3506 85.62 61.4642 90.5744 59.3609L90.1836 58.4404L89.7928 57.5199C84.8106 59.635 80.6831 61.5443 77.4173 63.2482L77.8799 64.1348ZM90.1836 58.4404L90.9569 59.0745C92.8819 56.7268 95.0052 54.0979 97.3274 51.1894L96.5459 50.5654L95.7644 49.9415C93.4463 52.845 91.3287 55.4669 89.4103 57.8064L90.1836 58.4404ZM96.5459 50.5654L97.3243 51.1932C99.6692 48.2856 102.272 45.0384 105.132 41.4516L104.351 40.8281L103.569 40.2047C100.711 43.789 98.1097 47.0334 95.7675 49.9377L96.5459 50.5654ZM104.351 40.8281L104.798 39.9337L104.517 39.7931L104.069 40.6875L103.622 41.5819L103.903 41.7226L104.351 40.8281ZM104.069 40.6875L103.318 40.0272C100.279 43.4844 97.6022 45.8843 95.2895 47.2853L95.8076 48.1406L96.3257 48.9959C98.8876 47.4441 101.72 44.8743 104.82 41.3478L104.069 40.6875ZM95.8076 48.1406L95.2956 47.2817C92.8942 48.7132 91.1326 49.3203 89.9375 49.3203L89.9375 50.3203L89.9375 51.3203C91.6951 51.3203 93.847 50.4736 96.3197 48.9996L95.8076 48.1406ZM89.9375 50.3203V49.3203C88.6407 49.3203 87.8777 48.9645 87.4272 48.439L86.668 49.0898L85.9087 49.7407C86.8644 50.8555 88.2815 51.3203 89.9375 51.3203V50.3203ZM86.668 49.0898L87.4272 48.4391C86.9141 47.8404 86.5843 46.9582 86.5424 45.6821L85.543 45.7148L84.5435 45.7476C84.5954 47.3305 85.0158 48.6989 85.9087 49.7406L86.668 49.0898ZM85.543 45.7148H86.543C86.543 44.2793 86.8324 42.7171 87.4345 41.0223L86.4922 40.6875L85.5499 40.3527C84.8865 42.2201 84.543 44.01 84.543 45.7148H85.543ZM86.4922 40.6875L87.4305 41.0332C87.504 40.8338 87.5826 40.635 87.667 40.4369L86.7471 40.0449L85.8271 39.6529C85.7291 39.8828 85.6383 40.1126 85.5538 40.3418L86.4922 40.6875ZM86.7471 40.0449L86.0105 39.3686C85.3228 40.1175 84.5646 40.9242 83.7333 41.7863L84.4531 42.4805L85.173 43.1746C86.0152 42.3012 86.7846 41.4825 87.4836 40.7213L86.7471 40.0449ZM84.4531 42.4805L83.7396 41.7799C82.5041 43.0383 81.1523 44.2537 79.6825 45.425L80.3057 46.207L80.9289 46.9891C82.4587 45.77 83.8713 44.5005 85.1667 43.1811L84.4531 42.4805ZM80.3057 46.207L79.6765 45.4298C78.2551 46.5804 76.7838 47.5228 75.2636 48.2605L75.7002 49.1602L76.1368 50.0598C77.8038 49.2508 79.4034 48.2241 80.9349 46.9843L80.3057 46.207ZM75.7002 49.1602L75.2636 48.2605C73.793 48.9741 72.3363 49.3203 70.8847 49.3203L70.8848 50.3203L70.8848 51.3203C72.6669 51.3203 74.4206 50.8926 76.1368 50.0598L75.7002 49.1602ZM70.8848 50.3203V49.3203C69.7417 49.3203 68.9126 49.0369 68.3102 48.555L67.6855 49.3359L67.0609 50.1169C68.0989 50.9471 69.4033 51.3203 70.8848 51.3203V50.3203ZM67.6855 49.3359L68.3236 48.5659C67.7358 48.0789 67.4551 47.4836 67.4551 46.6992L66.4551 46.6992L65.4551 46.6993C65.4551 48.0708 65.9948 49.2337 67.0475 50.106L67.6855 49.3359ZM66.4551 46.6992H67.4551C67.4551 45.2678 68.5419 43.2615 71.2631 40.6334L70.5684 39.9141L69.8737 39.1948C67.1109 41.863 65.4551 44.381 65.4551 46.6992H66.4551ZM70.5684 39.9141L71.2631 40.6334C73.9473 38.0409 77.6099 35.1835 82.2685 32.0622L81.7119 31.2314L81.1553 30.4007C76.4402 33.5598 72.6732 36.491 69.8737 39.1948L70.5684 39.9141ZM81.7119 31.2314L81.8763 30.2451C79.4993 29.8489 77.4572 29.4541 75.7483 29.0615L75.5244 30.0361L75.3005 31.0107C77.06 31.415 79.1437 31.8172 81.5475 32.2178L81.7119 31.2314ZM75.5244 30.0361L75.7512 29.0622C74.0741 28.6716 72.7737 28.2558 71.8259 27.825L71.4121 28.7354L70.9983 29.6457C72.1127 30.1522 73.5536 30.6039 75.2976 31.0101L75.5244 30.0361ZM71.4121 28.7354L70.5177 28.2881C70.0731 29.1774 69.416 30.2904 68.5366 31.6326L69.373 32.1807L70.2095 32.7287C71.1111 31.3526 71.8138 30.168 72.3065 29.1826L71.4121 28.7354ZM69.373 32.1807L68.5366 31.6326C67.6781 32.9429 66.5722 34.3701 65.2124 35.9143L65.9629 36.5752L66.7134 37.2361C68.119 35.6399 69.2869 34.1369 70.2095 32.7287L69.373 32.1807ZM65.9629 36.5752L65.2014 35.9271C64.4622 36.7956 63.8801 37.4435 63.4536 37.8813L64.1699 38.5791L64.8862 39.2769C65.3578 38.7929 65.9728 38.1065 66.7244 37.2233L65.9629 36.5752ZM64.1699 38.5791L63.3925 37.9502L63.0741 38.3437L63.8516 38.9727L64.629 39.6016L64.9474 39.208L64.1699 38.5791ZM63.8516 38.9727L63.079 38.3377C62.3315 39.2471 61.4022 40.279 60.2872 41.4345L61.0068 42.1289L61.7265 42.8233C62.8668 41.6415 63.8338 40.5691 64.6241 39.6076L63.8516 38.9727ZM61.0068 42.1289L60.2809 41.4412C59.0572 42.7328 57.6335 43.9982 56.0069 45.2353L56.6123 46.0312L57.2177 46.8272C58.9189 45.5333 60.4255 44.1966 61.7328 42.8167L61.0068 42.1289ZM56.6123 46.0312L56.0069 45.2353C54.4152 46.4459 52.639 47.4587 50.6753 48.2713L51.0576 49.1953L51.44 50.1193C53.554 49.2446 55.4815 48.1476 57.2177 46.8272L56.6123 46.0312ZM51.0576 49.1953L50.6715 48.2729C48.7859 49.0621 46.7503 49.4609 44.5547 49.4609V50.4609V51.4609C46.999 51.4609 49.2988 51.0156 51.4437 50.1178L51.0576 49.1953ZM44.5547 50.4609V49.4609C42.4089 49.4609 41.1217 48.9028 40.4047 48.0323L39.6328 48.668L38.8609 49.3037C40.1125 50.8235 42.1072 51.4609 44.5547 51.4609V50.4609ZM39.6328 48.668L40.4047 48.0323C39.5793 47.0299 39.1282 45.7868 39.0865 44.2464L38.0869 44.2734L37.0873 44.3005C37.1394 46.2285 37.7178 47.9156 38.8609 49.3037L39.6328 48.668ZM38.0869 44.2734L39.0867 44.2549C39.066 43.1367 39.2937 41.85 39.8047 40.3838L38.8604 40.0547L37.916 39.7256C37.349 41.3528 37.0609 42.8792 37.0871 44.2919L38.0869 44.2734ZM38.8604 40.0547L39.8046 40.3838C40.3293 38.8785 40.8538 37.7957 41.3606 37.0861L40.5469 36.5049L39.7331 35.9237C39.0685 36.8543 38.4692 38.1383 37.9161 39.7256L38.8604 40.0547ZM40.5469 36.5049L41.359 37.0884C43.0447 34.742 44.8521 32.8496 46.7748 31.3964L46.1719 30.5986L45.5689 29.8009C43.4607 31.3943 41.5175 33.44 39.7347 35.9214L40.5469 36.5049ZM46.1719 30.5986L46.7748 31.3964C48.7287 29.9197 50.6109 28.8611 52.4208 28.1989L52.0771 27.2598L51.7335 26.3207C49.7004 27.0646 47.6455 28.2314 45.5689 29.8009L46.1719 30.5986ZM52.0771 27.2598L52.427 28.1966C54.3022 27.4962 55.8908 27.1699 57.21 27.1699V26.1699V25.1699C55.5762 25.1699 53.7423 25.5704 51.7273 26.323L52.0771 27.2598ZM57.21 26.1699L57.2099 27.1699C58.5965 27.1699 59.2814 27.4107 59.5581 27.6413L60.1982 26.873L60.8384 26.1048C59.9902 25.398 58.6824 25.1699 57.21 25.1699L57.21 26.1699ZM60.1982 26.873L59.5734 27.6538C59.9894 27.9867 60.1033 28.2753 60.113 28.5287L61.1123 28.4902L62.1116 28.4518C62.0745 27.4868 61.5784 26.6967 60.8231 26.0923L60.1982 26.873ZM61.1123 28.4902L60.1152 28.5667C60.1541 29.0729 59.8817 29.8761 58.8796 31.0341L59.6357 31.6885L60.3919 32.3428C61.4983 31.0643 62.2107 29.7351 62.1094 28.4138L61.1123 28.4902ZM59.6357 31.6885L58.8786 31.0352C57.9686 32.0899 56.2821 33.3214 53.711 34.7111L54.1865 35.5908L54.662 36.4705C57.2936 35.048 59.2405 33.6774 60.3929 32.3417L59.6357 31.6885ZM54.1865 35.5908L53.711 34.7111C51.1837 36.0772 47.6136 37.5317 42.9743 39.0704L43.2891 40.0195L43.6039 40.9687C48.2916 39.414 51.9867 37.9166 54.662 36.4705L54.1865 35.5908ZM43.2891 40.0195L42.4411 39.4895C41.5957 40.8421 40.9939 42.0661 40.677 43.1488L41.6367 43.4297L42.5965 43.7106C42.842 42.8716 43.342 41.8217 44.1371 40.5495L43.2891 40.0195ZM41.6367 43.4297L40.6789 43.1423C40.3777 44.1463 40.2148 45.0892 40.2148 45.9609H41.2148H42.2148C42.2148 45.3328 42.3333 44.588 42.5945 43.717L41.6367 43.4297ZM41.2148 45.9609L40.2148 45.961C40.2149 47.3048 40.6712 48.4625 41.6621 49.2935L42.3047 48.5273L42.9473 47.7612C42.4852 47.3736 42.2149 46.8199 42.2148 45.9609L41.2148 45.9609ZM42.3047 48.5273L41.6741 49.3035C42.6104 50.0642 43.7147 50.4414 44.9414 50.4414V49.4414V48.4414C44.1527 48.4414 43.4989 48.2091 42.9353 47.7512L42.3047 48.5273ZM44.9414 49.4414V50.4414C47.2717 50.4414 49.4682 50.0066 51.5205 49.1307L51.1279 48.2109L50.7354 47.2912C48.9445 48.0555 47.0166 48.4414 44.9414 48.4414V49.4414ZM51.1279 48.2109L51.5258 49.1284C53.5478 48.2514 55.3935 47.1521 57.0584 45.83L56.4365 45.0469L55.8146 44.2638C54.2923 45.4727 52.5983 46.4832 50.73 47.2935L51.1279 48.2109ZM56.4365 45.0469L57.0528 45.8344C58.7031 44.5428 60.1594 43.2321 61.4171 41.9019L60.6904 41.2148L59.9638 40.5278C58.7842 41.7755 57.404 43.0199 55.8202 44.2594L56.4365 45.0469ZM60.6904 41.2148L61.4232 41.8953C62.1085 41.1573 62.7235 40.4718 63.2713 39.8416L62.5166 39.1855L61.7619 38.5295C61.2291 39.1424 60.6288 39.8116 59.9576 40.5344L60.6904 41.2148ZM62.5166 39.1855L63.389 39.6743C63.3726 39.7036 63.3777 39.6874 63.4445 39.6098C63.5036 39.5411 63.5897 39.4488 63.708 39.3302L63 38.624L62.292 37.9178C62.0452 38.1652 61.7866 38.4426 61.6442 38.6968L62.5166 39.1855ZM63 38.624L63.7633 39.2701C64.0087 38.9802 64.2407 38.7011 64.4567 38.4327L63.6777 37.8057L62.8987 37.1786C62.6961 37.4304 62.4753 37.6961 62.2367 37.9779L63 38.624ZM63.6777 37.8057L64.4641 38.4235C65.2528 37.4196 65.7142 36.8839 65.8974 36.7174L65.2246 35.9775L64.5518 35.2377C64.2193 35.5401 63.6491 36.2236 62.8914 37.1878L63.6777 37.8057ZM65.2246 35.9775L66.0129 36.5928L66.8674 35.4981L66.0791 34.8828L65.2908 34.2675L64.4363 35.3622L65.2246 35.9775ZM66.0791 34.8828L66.8721 35.4921C67.7122 34.3985 68.4817 33.3424 69.1788 32.3235L68.3535 31.7588L67.5282 31.1941C66.8544 32.1789 66.1069 33.2053 65.2861 34.2736L66.0791 34.8828ZM68.3535 31.7588L69.1788 32.3235C70.109 30.9639 70.8409 29.7489 71.3615 28.683L70.4629 28.2441L69.5643 27.8053C69.1007 28.7546 68.4257 29.8824 67.5282 31.1941L68.3535 31.7588ZM70.4629 28.2441L71.0013 27.4014C70.2732 26.9363 70.0264 26.5318 69.9641 26.2415L68.9863 26.4512L68.0086 26.6609C68.2277 27.6826 68.9655 28.4742 69.9245 29.0868L70.4629 28.2441ZM68.9863 26.4512L69.9727 26.2868C69.8268 25.4111 69.996 24.6558 70.4765 23.9618L69.6543 23.3926L68.8321 22.8234C68.0471 23.9573 67.7709 25.2415 67.9999 26.6156L68.9863 26.4512ZM69.6543 23.3926L70.4765 23.9618C70.945 23.2851 71.4734 23.0215 72.1152 23.0215V22.0215V21.0215C70.7417 21.0215 69.6291 21.6722 68.8321 22.8233L69.6543 23.3926ZM88.9531 59.9521L88.555 59.0348C83.0331 61.4315 78.6053 63.5552 75.2838 65.4057L75.7705 66.2793L76.2572 67.1529C79.4976 65.3475 83.8586 63.2535 89.3513 60.8695L88.9531 59.9521ZM75.7705 66.2793L75.2817 65.4069C71.951 67.273 69.4747 68.9923 67.922 70.5701L68.6348 71.2715L69.3475 71.9729C70.7008 70.5978 72.9814 68.9883 76.2593 67.1517L75.7705 66.2793ZM68.6348 71.2715L67.9221 70.57C66.3601 72.1568 65.42 73.8249 65.4199 75.5595L66.4199 75.5596L67.4199 75.5596C67.42 74.576 67.9569 73.3857 69.3474 71.973L68.6348 71.2715ZM66.4199 75.5596H65.4199C65.4199 75.9831 65.6021 76.3295 65.7908 76.5778C65.9811 76.8281 66.2297 77.0483 66.4947 77.2435L67.0879 76.4385L67.6811 75.6334C67.5009 75.5006 67.4155 75.4102 67.3831 75.3676C67.3491 75.3228 67.4199 75.3938 67.4199 75.5596H66.4199ZM67.0879 76.4385L66.4682 77.2234C67.1344 77.7493 67.9583 77.9658 68.8457 77.9658V76.9658V75.9658C68.2801 75.9658 67.932 75.8308 67.7075 75.6536L67.0879 76.4385ZM68.8457 76.9658L68.8457 77.9658C70.1818 77.9658 71.5064 77.69 72.8124 77.1522L72.4316 76.2275L72.0509 75.3029C70.9666 75.7493 69.8999 75.9658 68.8457 75.9658L68.8457 76.9658ZM72.4316 76.2275L72.8031 77.156C74.1115 76.6325 75.5279 75.7044 77.0471 74.4264L76.4033 73.6611L75.7596 72.8959C74.3263 74.1017 73.0951 74.885 72.0602 75.2991L72.4316 76.2275ZM76.4033 73.6611L77.0459 74.4273C78.5479 73.1676 80.317 71.4086 82.3478 69.1653L81.6064 68.4941L80.8651 67.823C78.8651 70.0324 77.1647 71.7174 75.7607 72.8949L76.4033 73.6611ZM81.6064 68.4941L82.3478 69.1653C84.3761 66.9247 86.8347 64.0657 89.7222 60.5913L88.9531 59.9521L88.1841 59.313C85.3066 62.7752 82.8676 65.611 80.8651 67.823L81.6064 68.4941ZM60.4092 1L60.4091 2C61.6338 2.00006 62.4825 2.3229 63.0733 2.86306L63.748 2.125L64.4228 1.38694C63.3733 0.427503 61.9963 7.66516e-05 60.4092 0L60.4092 1ZM63.748 2.125L63.0733 2.86303C63.6168 3.35996 63.934 4.11491 63.8743 5.30944L64.873 5.35938L65.8718 5.40931C65.9527 3.79159 65.5198 2.3899 64.4228 1.38697L63.748 2.125ZM64.873 5.35938L63.8744 5.30744C63.7934 6.86448 63.0964 8.71663 61.6504 10.8857L62.4824 11.4404L63.3145 11.9951C64.8679 9.66496 65.765 7.46312 65.8717 5.41131L64.873 5.35938ZM62.4824 11.4404L61.6464 10.8918C60.2339 13.044 58.2891 15.1766 55.7915 17.2846L56.4365 18.0488L57.0815 18.813C59.6925 16.6092 61.7782 14.3362 63.3185 11.9891L62.4824 11.4404ZM56.4365 18.0488L55.7915 17.2846C53.3083 19.3806 50.4403 21.2113 47.1814 22.7719L47.6133 23.6738L48.0452 24.5757C51.4418 22.9492 54.456 21.0291 57.0815 18.813L56.4365 18.0488ZM47.6133 23.6738L47.1814 22.7719C43.9537 24.3176 40.4828 25.3318 36.7638 25.8109L36.8916 26.8027L37.0194 27.7945C40.9402 27.2894 44.6174 26.2172 48.0452 24.5757L47.6133 23.6738ZM36.8916 26.8027L36.0527 26.2584C34.07 29.3141 32.0523 32.2522 30.0008 35.073L30.8096 35.6611L31.6183 36.2493C33.6914 33.3988 35.7292 30.4314 37.7305 27.347L36.8916 26.8027ZM30.8096 35.6611L30.0032 35.0698C27.9697 37.8426 25.8491 40.3081 23.6422 42.4691L24.3418 43.1836L25.0414 43.8981C27.3339 41.6534 29.525 39.1038 31.616 36.2525L30.8096 35.6611ZM24.3418 43.1836L23.6384 42.4728C21.478 44.6105 19.1822 46.2933 16.7522 47.5308L17.2061 48.4219L17.6599 49.313C20.2918 47.9726 22.753 46.1624 25.0452 43.8944L24.3418 43.1836ZM17.2061 48.4219L16.7555 47.5291C14.3925 48.7216 11.84 49.3203 9.08496 49.3203V50.3203V51.3203C12.1419 51.3203 15.0044 50.6531 17.6566 49.3146L17.2061 48.4219ZM9.08496 50.3203L9.08497 49.3203C6.63542 49.3203 4.8624 48.8677 3.65769 48.0778L3.10938 48.9141L2.56106 49.7503C4.21533 50.835 6.42618 51.3203 9.08495 51.3203L9.08496 50.3203ZM3.10938 48.9141L3.66408 48.082C2.45291 47.2746 2.00001 46.4163 2 45.5039L1 45.5039L0 45.5039C1.90735e-05 47.2631 0.953617 48.6787 2.55467 49.7461L3.10938 48.9141ZM1 45.5039H2C2 44.7355 2.24851 44.3647 2.61241 44.1417L2.08984 43.2891L1.56728 42.4365C0.47818 43.104 0 44.21 0 45.5039H1ZM2.08984 43.2891L2.63195 44.1294C3.22798 43.7449 3.76939 43.5859 4.26953 43.5859V42.5859V41.5859C3.31677 41.5859 2.40461 41.896 1.54774 42.4487L2.08984 43.2891ZM4.26953 42.5859L4.26937 43.5859C4.43777 43.586 4.63059 43.6368 4.86316 43.7967L5.42969 42.9727L5.99622 42.1486C5.47904 41.7931 4.89789 41.586 4.26969 41.5859L4.26953 42.5859ZM5.42969 42.9727L4.8863 43.8121C4.94375 43.8493 5.02733 43.9072 5.02734 44.2032L6.02734 44.2031L7.02734 44.2031C7.02732 43.3744 6.71214 42.6116 5.97307 42.1332L5.42969 42.9727ZM6.02734 44.2031H5.02734C5.02734 44.3115 4.99112 44.4731 4.74425 44.7055L5.42969 45.4336L6.11512 46.1617C6.6648 45.6443 7.02734 44.9852 7.02734 44.2031H6.02734ZM5.42969 45.4336L4.76807 44.6838C4.55539 44.8714 4.32263 44.9609 4.02333 44.9609L4.02344 45.9609L4.02355 46.9609C4.80205 46.9609 5.50732 46.6987 6.09131 46.1834L5.42969 45.4336ZM4.02344 45.9609V44.9609C3.40721 44.9609 3.08432 44.8539 2.93618 44.7613L2.40625 45.6094L1.87632 46.4574C2.47811 46.8335 3.23368 46.9609 4.02344 46.9609V45.9609ZM2.40625 45.6094H1.40625V45.7852H2.40625H3.40625V45.6094H2.40625ZM2.40625 45.7852L1.40625 45.7852C1.40629 47.2757 2.28248 48.4319 3.63712 49.2718L4.16406 48.4219L4.691 47.572C3.70216 46.9589 3.40626 46.3569 3.40625 45.7851L2.40625 45.7852ZM4.16406 48.4219L3.65709 49.2838C5.03787 50.096 6.67495 50.4765 8.52244 50.4766L8.52246 49.4766L8.52249 48.4766C6.94899 48.4765 5.6804 48.1536 4.67103 47.5599L4.16406 48.4219ZM8.52246 49.4766V50.4766C11.2039 50.4766 13.6496 49.8097 15.8323 48.4646L15.3076 47.6133L14.783 46.762C12.9347 47.901 10.8562 48.4766 8.52246 48.4766V49.4766ZM15.3076 47.6133L15.8394 48.4602C17.9553 47.1315 19.8962 45.3932 21.6661 43.2596L20.8965 42.6211L20.1268 41.9826C18.4753 43.9735 16.6907 45.564 14.7758 46.7664L15.3076 47.6133ZM20.8965 42.6211L21.6661 43.2596C23.4108 41.1564 25.0563 38.8314 26.6027 36.2858L25.748 35.7666L24.8934 35.2474C23.3932 37.717 21.8037 39.9612 20.1268 41.9826L20.8965 42.6211ZM25.748 35.7666L26.5992 36.2916C28.1478 33.781 29.6843 31.2586 31.2093 28.7246L30.3525 28.209L29.4957 27.6933C27.9744 30.2211 26.4416 32.7374 24.8969 35.2416L25.748 35.7666ZM30.3525 28.209L31.2077 28.7273L31.9109 27.5671L31.0557 27.0488L30.2005 26.5305L29.4973 27.6907L30.3525 28.209ZM31.0557 27.0488L31.0936 26.0495C27.4659 25.9118 24.2442 25.3729 21.4191 24.4463L21.1074 25.3965L20.7958 26.3467C23.8293 27.3417 27.24 27.9046 31.0177 28.0481L31.0557 27.0488ZM21.1074 25.3965L21.4282 24.4493C18.6285 23.501 16.5069 22.2363 15.0051 20.6916L14.2881 21.3887L13.5711 22.0858C15.3502 23.9157 17.7745 25.3234 20.7866 26.3436L21.1074 25.3965ZM14.2881 21.3887L15.0101 20.6968C13.5762 19.2005 12.9493 17.5139 13.0713 15.5816L12.0732 15.5186L11.0752 15.4556C10.9162 17.9757 11.7661 20.2023 13.5661 22.0806L14.2881 21.3887ZM12.0732 15.5186L13.0717 15.5746C13.1765 13.7084 13.8439 11.9797 15.1092 10.3712L14.3232 9.75293L13.5373 9.13465C12.0372 11.0415 11.2043 13.1572 11.0748 15.4625L12.0732 15.5186ZM14.3232 9.75293L15.1131 10.3662C16.4013 8.70695 18.1319 7.25485 20.3312 6.02048L19.8418 5.14844L19.3524 4.2764C16.9589 5.61973 15.0104 7.23711 13.5333 9.13969L14.3232 9.75293ZM19.8418 5.14844L20.3341 6.01884C22.5669 4.75589 25.0949 3.76729 27.9242 3.05999L27.6816 2.08984L27.4391 1.1197C24.4564 1.86539 21.7569 2.91622 19.3494 4.27804L19.8418 5.14844ZM27.6816 2.08984L27.9223 3.06044C30.7681 2.35473 33.7571 2 36.8916 2V1V0C33.6051 0 30.4538 0.372085 27.4409 1.11924L27.6816 2.08984ZM36.8916 1L36.8916 2C38.566 2.00002 39.991 2.15888 41.1791 2.46129L41.4258 1.49219L41.6724 0.523084C40.283 0.169435 38.6852 1.63913e-05 36.8916 0L36.8916 1ZM41.4258 1.49219L41.1832 2.46233C41.8173 2.62084 42.2255 2.76399 42.4551 2.8788C42.5721 2.93731 42.5893 2.96252 42.5644 2.93762C42.5375 2.9107 42.3945 2.75337 42.3945 2.47656H43.3945H44.3945C44.3945 2.03571 44.1695 1.71432 43.9785 1.52333C43.7896 1.33437 43.5606 1.19551 43.3495 1.08995C42.9229 0.87662 42.3467 0.691631 41.6683 0.522045L41.4258 1.49219ZM43.3945 2.47656L42.3945 2.47516C42.3949 2.21591 42.5045 1.98724 42.6614 1.83048C42.794 1.69811 42.9268 1.64862 42.9726 1.63336C43.0586 1.60469 43.0838 1.61719 42.9727 1.61719V2.61719V3.61719C43.1426 3.61719 43.3787 3.6062 43.6053 3.53063C43.8058 3.46377 44.3935 3.18833 44.3945 2.47796L43.3945 2.47656ZM42.9727 2.61719L42.9727 1.61719C42.8564 1.61718 42.7395 1.60888 42.6219 1.59208L42.4805 2.58203L42.339 3.57198C42.5494 3.60204 42.7609 3.61718 42.9726 3.61719L42.9727 2.61719ZM42.4805 2.58203L42.7966 1.63332C42.5794 1.56093 42.3483 1.51378 42.1123 1.48428L41.9883 2.47656L41.8642 3.46884C42.0031 3.4862 42.1004 3.50944 42.1643 3.53075L42.4805 2.58203ZM41.9883 2.47656L42.2308 1.50642C41.4476 1.31064 40.6415 1.15194 39.8135 1.03017L39.668 2.01953L39.5225 3.00889C40.2879 3.12145 41.0292 3.26757 41.7458 3.44671L41.9883 2.47656ZM39.668 2.01953L39.8468 1.03565C38.9965 0.881087 37.9958 0.808605 36.8565 0.808594L36.8564 1.80859L36.8564 2.80859C37.9194 2.8086 38.793 2.87688 39.4891 3.00341L39.668 2.01953ZM36.8564 1.80859V0.808594C34.0506 0.808594 31.2913 1.17166 28.5821 1.89733L28.8408 2.86328L29.0996 3.82923C31.6399 3.14878 34.2253 2.80859 36.8564 2.80859V1.80859ZM28.8408 2.86328L28.588 1.89576C25.9046 2.59689 23.4397 3.60356 21.1989 4.91883L21.7051 5.78125L22.2113 6.64367C24.2823 5.42807 26.5748 4.48892 29.0936 3.8308L28.8408 2.86328ZM21.7051 5.78125L21.1947 4.92127C18.9638 6.24515 17.1376 7.84121 15.7368 9.71712L16.5381 10.3154L17.3394 10.9137C18.5632 9.27473 20.1815 7.84817 22.2154 6.64123L21.7051 5.78125ZM16.5381 10.3154L15.7317 9.72407C14.3291 11.6367 13.558 13.7804 13.4302 16.1323L14.4287 16.1865L15.4272 16.2408C15.5338 14.2806 16.1692 12.5094 17.3445 10.9068L16.5381 10.3154ZM14.4287 16.1865L13.4309 16.1201C13.3155 17.8528 14.0053 19.5447 15.299 21.1681L16.0811 20.5449L16.8631 19.9217C15.7666 18.5457 15.3546 17.3322 15.4265 16.253L14.4287 16.1865ZM16.0811 20.5449L15.3049 21.1755C16.6656 22.8501 18.7277 24.2106 21.3968 25.3025L21.7754 24.377L22.154 23.4514C19.6674 22.4342 17.9338 21.2394 16.8572 19.9143L16.0811 20.5449ZM21.7754 24.377L21.3968 25.3025C24.1199 26.4165 27.5276 27.0262 31.5829 27.1693L31.6182 26.1699L31.6534 25.1705C27.7409 25.0324 24.5866 24.4465 22.154 23.4514L21.7754 24.377ZM31.6182 26.1699L32.4621 26.7064C38.0413 17.929 43.1227 11.6269 47.6984 7.73753L47.0508 6.97559L46.4031 6.21365C41.6047 10.2923 36.3971 16.7874 30.7742 25.6335L31.6182 26.1699ZM47.0508 6.97559L47.6984 7.73753C52.2854 3.83866 56.5162 2 60.4092 2V1V0C55.8656 0 51.1901 2.14483 46.4031 6.21364L47.0508 6.97559ZM107.092 27.2598L107.092 26.2598C106.322 26.2599 105.43 26.5441 104.476 26.9843C103.499 27.435 102.357 28.097 101.057 28.9556L101.608 29.79L102.16 30.6244C103.414 29.796 104.463 29.193 105.314 28.8003C106.187 28.3973 106.76 28.2598 107.092 28.2598L107.092 27.2598ZM101.608 29.79L101.063 28.9521C98.3849 30.6963 95.5784 33.4341 92.6371 37.1107L93.418 37.7354L94.1988 38.36C97.0696 34.7716 99.7229 32.2116 102.154 30.628L101.608 29.79ZM93.418 37.7354L92.6379 37.1096C90.9036 39.2716 89.5922 41.2058 88.7293 42.907L89.6211 43.3594L90.5129 43.8118C91.2905 42.2789 92.5109 40.4642 94.198 38.3611L93.418 37.7354ZM89.6211 43.3594L88.7267 42.9122C87.8954 44.5747 87.4329 46.1033 87.4612 47.4583L88.4609 47.4375L89.4607 47.4167C89.4421 46.5219 89.7532 45.3312 90.5155 43.8066L89.6211 43.3594ZM88.4609 47.4375L87.4626 47.4951C87.5053 48.2344 87.7086 48.9552 88.2166 49.4943C88.7432 50.0531 89.4526 50.2656 90.1836 50.2656V49.2656V48.2656C89.8366 48.2656 89.7199 48.1733 89.6722 48.1227C89.6059 48.0524 89.4869 47.8591 89.4593 47.3799L88.4609 47.4375ZM90.1836 49.2656L90.1836 50.2656C91.0326 50.2656 91.9902 50.0014 93.0199 49.5609C94.0616 49.1152 95.2438 48.4598 96.5608 47.6097L96.0186 46.7695L95.4763 45.9293C94.2156 46.743 93.1365 47.3356 92.2332 47.7221C91.318 48.1136 90.6469 48.2656 90.1836 48.2656L90.1836 49.2656ZM96.0186 46.7695L96.5662 47.6062C99.2627 45.8413 102.43 42.8039 106.06 38.5612L105.3 37.9111L104.54 37.261C100.952 41.4551 97.9302 44.3231 95.4709 45.9328L96.0186 46.7695ZM105.3 37.9111L106.073 38.5456L108.814 35.2057L108.041 34.5713L107.268 33.9369L104.527 37.2767L105.3 37.9111ZM108.041 34.5713L108.866 35.1368C109.459 34.2714 109.989 33.3465 110.456 32.3636L109.553 31.9346L108.649 31.5055C108.226 32.3975 107.748 33.2307 107.216 34.0058L108.041 34.5713ZM109.553 31.9346L110.447 32.3818C110.962 31.3524 111.256 30.3418 111.256 29.3682H110.256H109.256C109.256 29.9412 109.081 30.6419 108.658 31.4874L109.553 31.9346ZM110.256 29.3682L111.256 29.3514C111.239 28.3619 110.835 27.5102 110.002 26.9546C109.235 26.4438 108.217 26.2598 107.092 26.2598V27.2598V28.2598C108.052 28.2598 108.604 28.427 108.893 28.619C109.113 28.7661 109.249 28.9686 109.256 29.385L110.256 29.3682ZM153.74 27.4355L153.74 26.4355C152.022 26.4356 150.116 27.4339 148.084 29.0839L148.714 29.8604L149.344 30.6368C151.295 29.0533 152.74 28.4356 153.74 28.4355L153.74 27.4355ZM148.714 29.8604L148.085 29.0831C146.04 30.7381 143.787 33.1061 141.326 36.1585L142.104 36.7861L142.883 37.4138C145.297 34.4198 147.45 32.1699 149.343 30.6376L148.714 29.8604ZM142.104 36.7861L141.322 36.1635C139.568 38.3685 138.294 40.278 137.543 41.8803L138.448 42.3047L139.354 42.7291C140.009 41.3317 141.173 39.5626 142.887 37.4088L142.104 36.7861ZM138.448 42.3047L137.537 41.892C136.819 43.4775 136.46 44.9569 136.574 46.2918L137.57 46.207L138.567 46.1222C138.493 45.2542 138.718 44.1316 139.359 42.7174L138.448 42.3047ZM137.57 46.207L136.57 46.2071C136.57 47.0664 136.856 47.9111 137.345 48.7254L138.202 48.2109L139.06 47.6964C138.705 47.1047 138.57 46.6132 138.57 46.207L137.57 46.207ZM138.202 48.2109L137.357 48.746C138.04 49.8235 139.181 50.2656 140.487 50.2656L140.487 49.2656L140.487 48.2656C139.638 48.2656 139.255 48.0044 139.047 47.6759L138.202 48.2109ZM140.487 49.2656V50.2656C141.491 50.2656 142.58 49.9811 143.734 49.4796L143.335 48.5625L142.936 47.6454C141.934 48.0813 141.124 48.2656 140.487 48.2656V49.2656ZM143.335 48.5625L143.734 49.4796C144.884 48.9793 146.024 48.3212 147.152 47.5118L146.569 46.6992L145.986 45.8867C144.959 46.624 143.942 47.2083 142.936 47.6454L143.335 48.5625ZM146.569 46.6992L147.151 47.513C149.025 46.1738 150.716 44.6038 152.222 42.8063L151.455 42.1641L150.689 41.5218C149.289 43.1927 147.722 44.6468 145.988 45.8855L146.569 46.6992ZM151.455 42.1641H152.455V42.0234H151.455H150.455V42.1641H151.455ZM151.455 42.0234L152.455 42.0235C152.455 40.7436 152.783 39.8565 153.328 39.2434L152.58 38.5791L151.833 37.9148C150.878 38.9889 150.455 40.3979 150.455 42.0234L151.455 42.0234ZM152.58 38.5791L153.326 39.2447C154.038 38.4465 154.646 38.0369 155.137 37.8785L154.83 36.9268L154.523 35.9751C153.561 36.2854 152.669 36.9775 151.834 37.9135L152.58 38.5791ZM154.83 36.9268L155.731 37.3598C156.926 34.873 157.506 32.5543 157.375 30.4316L156.377 30.4932L155.379 30.5548C155.482 32.2285 155.031 34.1996 153.929 36.4937L154.83 36.9268ZM156.377 30.4932L157.375 30.432C157.298 29.1786 156.956 28.0398 156.1 27.3327L155.463 28.1035L154.826 28.8743C155.048 29.0578 155.315 29.5118 155.379 30.5543L156.377 30.4932ZM155.463 28.1035L156.117 27.3467C155.434 26.7576 154.632 26.4355 153.74 26.4355V27.4355V28.4355C154.114 28.4355 154.46 28.5589 154.809 28.8603L155.463 28.1035ZM56.9639 27.0137V26.0137C55.0307 26.0137 53.0978 27.0462 51.1879 28.8091L51.8662 29.5439L52.5445 30.2787C54.2905 28.667 55.7567 28.0137 56.9639 28.0137V27.0137ZM51.8662 29.5439L51.1879 28.8091C49.2986 30.5531 47.126 33.0546 44.6723 36.287L45.4688 36.8916L46.2652 37.4962C48.686 34.3073 50.7779 31.9095 52.5445 30.2787L51.8662 29.5439ZM45.4688 36.8916L44.6824 36.2738C44.1515 36.9495 43.677 37.6061 43.2607 38.2428L44.0977 38.79L44.9346 39.3373C45.3151 38.7555 45.7549 38.146 46.2551 37.5094L45.4688 36.8916ZM44.0977 38.79L44.4284 39.7337C49.0135 38.1266 52.6794 36.4552 55.3952 34.7093L54.8545 33.8682L54.3137 33.027C51.78 34.6558 48.2747 36.2663 43.7669 37.8463L44.0977 38.79ZM54.8545 33.8682L55.4005 34.7059C56.7617 33.8187 57.8398 32.917 58.5862 31.9907C59.3354 31.0609 59.792 30.0521 59.792 28.9814H58.792H57.792C57.792 29.4575 57.5922 30.0366 57.0289 30.7359C56.4627 31.4385 55.572 32.2068 54.3085 33.0304L54.8545 33.8682ZM58.792 28.9814L59.792 28.9813C59.7919 28.1887 59.6092 27.408 59.0674 26.8249C58.5126 26.2278 57.7469 26.0137 56.9639 26.0137L56.9639 27.0137L56.9638 28.0137C57.3993 28.0137 57.5475 28.1274 57.6022 28.1863C57.6698 28.259 57.7919 28.4622 57.792 28.9816L58.792 28.9814ZM60.374 1.87891L60.3418 0.879426C57.0515 0.985563 53.7245 2.96204 50.371 6.45925L51.0928 7.15137L51.8146 7.84349C55.023 4.49755 57.8845 2.95973 60.4063 2.87839L60.374 1.87891ZM51.0928 7.15137L50.3685 6.46184C47.0476 9.94996 43.3285 14.9439 39.211 21.4143L40.0547 21.9512L40.8983 22.488C44.9832 16.0689 48.6229 11.1959 51.817 7.8409L51.0928 7.15137ZM40.0547 21.9512L39.2135 21.4104C38.7943 22.0626 38.3762 22.7027 37.958 23.3301L38.79 23.8848L39.6221 24.4395C40.0474 23.8015 40.4716 23.152 40.8959 22.4919L40.0547 21.9512ZM38.79 23.8848L37.958 23.3301C37.5282 23.9747 37.1104 24.6312 36.7048 25.2994L37.5596 25.8184L38.4144 26.3373C38.8055 25.6931 39.2082 25.0604 39.6221 24.4395L38.79 23.8848ZM37.5596 25.8184L37.724 26.8048C41.1969 26.2259 44.4923 25.1515 47.6062 23.5825L47.1562 22.6895L46.7063 21.7964C43.774 23.2739 40.6714 24.2859 37.3952 24.832L37.5596 25.8184ZM47.1562 22.6895L47.6117 23.5797C50.7002 21.9995 53.4523 20.1627 55.8624 18.066L55.2061 17.3115L54.5497 16.5571C52.2729 18.5379 49.6582 20.2861 46.7008 21.7992L47.1562 22.6895ZM55.2061 17.3115L55.8624 18.066C58.2625 15.9779 60.183 13.8207 61.604 11.5912L60.7607 11.0537L59.9175 10.5162C58.62 12.552 56.8367 14.5674 54.5497 16.5571L55.2061 17.3115ZM60.7607 11.0537L61.5998 11.5977C63.0379 9.37954 63.8668 7.26478 63.9732 5.27206L62.9746 5.21875L61.976 5.16544C61.8948 6.68769 61.2485 8.46315 59.9217 10.5097L60.7607 11.0537ZM62.9746 5.21875L63.9703 5.31095C64.0987 3.92471 63.8653 2.61227 62.8647 1.80409L62.2363 2.58203L61.608 3.35997C61.826 3.53608 62.0849 3.98177 61.9789 5.12655L62.9746 5.21875ZM62.2363 2.58203L62.8646 1.80405C62.1142 1.19801 61.2645 0.845388 60.3372 0.879585L60.374 1.87891L60.4109 2.87823C60.7486 2.86577 61.1402 2.98218 61.608 3.36001L62.2363 2.58203ZM138.94 13.9717V14.9717C139.344 14.9717 139.563 15.0945 139.722 15.2838L140.487 14.6396L141.252 13.9955C140.662 13.2943 139.849 12.9717 138.94 12.9717V13.9717ZM140.487 14.6396L139.76 15.3263C139.974 15.5525 140.085 15.8184 140.085 16.1865H141.085H142.085C142.085 15.336 141.798 14.5705 141.214 13.953L140.487 14.6396ZM141.085 16.1865L140.085 16.1864C140.085 16.7203 139.87 17.2203 139.301 17.7181L139.96 18.4707L140.618 19.2233C141.549 18.4089 142.085 17.3866 142.085 16.1866L141.085 16.1865ZM139.96 18.4707L139.29 17.7286C138.721 18.2418 138.157 18.455 137.57 18.4551L137.57 19.4551L137.57 20.4551C138.717 20.455 139.746 20.0117 140.63 19.2128L139.96 18.4707ZM137.57 19.4551V18.4551C137.132 18.4551 136.875 18.3303 136.695 18.1503L135.988 18.8574L135.281 19.5645C135.898 20.1814 136.696 20.4551 137.57 20.4551V19.4551ZM135.988 18.8574L136.736 18.1931C136.543 17.9767 136.426 17.6954 136.426 17.2762L135.426 17.2764L134.426 17.2765C134.426 18.1223 134.684 18.8948 135.241 19.5217L135.988 18.8574ZM135.426 17.2764H136.426C136.426 16.7667 136.626 16.2603 137.152 15.7335L136.445 15.0264L135.738 14.3193C134.906 15.1517 134.426 16.1455 134.426 17.2764H135.426ZM136.445 15.0264L137.152 15.7335C137.675 15.2106 138.255 14.9718 138.941 14.9717L138.94 13.9717L138.94 12.9717C137.704 12.9718 136.621 13.4362 135.738 14.3193L136.445 15.0264Z" fill="#F2EEE2" mask="url(#path-2-outside-1_7_80)"/>
</svg>
