<svg width="116" height="24" viewBox="0 0 116 24" fill="none" xmlns="http://www.w3.org/2000/svg">
<path d="M33.1536 11.8931C33.1536 13.2017 32.9055 14.3149 32.4094 15.2329C31.9172 16.1509 31.2454 16.8521 30.3938 17.3364C29.5461 17.8169 28.593 18.0571 27.5344 18.0571C26.468 18.0571 25.511 17.8149 24.6633 17.3306C23.8157 16.8462 23.1458 16.145 22.6536 15.2271C22.1614 14.3091 21.9153 13.1978 21.9153 11.8931C21.9153 10.5845 22.1614 9.47119 22.6536 8.55322C23.1458 7.63525 23.8157 6.93603 24.6633 6.45557C25.511 5.97119 26.468 5.729 27.5344 5.729C28.593 5.729 29.5461 5.97119 30.3938 6.45557C31.2454 6.93603 31.9172 7.63525 32.4094 8.55322C32.9055 9.47119 33.1536 10.5845 33.1536 11.8931ZM30.5813 11.8931C30.5813 11.0454 30.4543 10.3306 30.2004 9.74853C29.9504 9.1665 29.5969 8.7251 29.1399 8.42432C28.6829 8.12354 28.1477 7.97314 27.5344 7.97314C26.9211 7.97314 26.386 8.12354 25.929 8.42432C25.4719 8.7251 25.1165 9.1665 24.8625 9.74853C24.6125 10.3306 24.4875 11.0454 24.4875 11.8931C24.4875 12.7407 24.6125 13.4556 24.8625 14.0376C25.1165 14.6196 25.4719 15.061 25.929 15.3618C26.386 15.6626 26.9211 15.813 27.5344 15.813C28.1477 15.813 28.6829 15.6626 29.1399 15.3618C29.5969 15.061 29.9504 14.6196 30.2004 14.0376C30.4543 13.4556 30.5813 12.7407 30.5813 11.8931ZM35.033 17.8931V5.89307H42.9783V7.98486H37.5701V10.8442H42.4509V12.936H37.5701V17.8931H35.033ZM44.2278 7.98486V5.89307H54.0833V7.98486H50.4094V17.8931H47.9016V7.98486H44.2278ZM66.0349 9.34424C65.988 8.87158 65.7869 8.50439 65.4314 8.24268C65.0759 7.98096 64.5935 7.8501 63.9841 7.8501C63.5701 7.8501 63.2205 7.90869 62.9353 8.02588C62.6501 8.13916 62.4314 8.29736 62.2791 8.50049C62.1306 8.70361 62.0564 8.93408 62.0564 9.19189C62.0486 9.40674 62.0935 9.59424 62.1912 9.75439C62.2927 9.91455 62.4314 10.0532 62.6072 10.1704C62.783 10.2837 62.9861 10.3833 63.2166 10.4692C63.447 10.5513 63.6931 10.6216 63.9548 10.6802L65.033 10.938C65.5564 11.0552 66.0369 11.2114 66.4744 11.4067C66.9119 11.6021 67.2908 11.8423 67.6111 12.1274C67.9314 12.4126 68.1794 12.7485 68.3552 13.1353C68.5349 13.522 68.6267 13.9653 68.6306 14.4653C68.6267 15.1997 68.4392 15.8364 68.0681 16.3755C67.7009 16.9106 67.1697 17.3267 66.4744 17.6235C65.783 17.9165 64.949 18.063 63.9724 18.063C63.0037 18.063 62.1599 17.9146 61.4412 17.6177C60.7263 17.3208 60.1677 16.8813 59.7654 16.2993C59.3669 15.7134 59.158 14.9888 59.1384 14.1255H61.5935C61.6208 14.5278 61.7361 14.8638 61.9392 15.1333C62.1462 15.3989 62.4216 15.6001 62.7654 15.7368C63.113 15.8696 63.5056 15.936 63.9431 15.936C64.3728 15.936 64.7458 15.8735 65.0623 15.7485C65.3826 15.6235 65.6306 15.4497 65.8064 15.2271C65.9822 15.0044 66.0701 14.7485 66.0701 14.4595C66.0701 14.1899 65.99 13.9634 65.8298 13.7798C65.6736 13.5962 65.4431 13.4399 65.1384 13.311C64.8376 13.1821 64.4685 13.0649 64.031 12.9595L62.7244 12.6313C61.7126 12.3853 60.9138 12.0005 60.3279 11.4771C59.7419 10.9536 59.4509 10.2485 59.4548 9.36182C59.4509 8.63525 59.6443 8.00049 60.0349 7.45752C60.4294 6.91455 60.9705 6.49072 61.658 6.18603C62.3455 5.88135 63.1267 5.729 64.0017 5.729C64.8923 5.729 65.6697 5.88135 66.3337 6.18603C67.0017 6.49072 67.5212 6.91455 67.8923 7.45752C68.2634 8.00049 68.4548 8.62939 68.4666 9.34424H66.0349ZM70.3372 17.8931V5.89307H72.8743V11.1841H73.0325L77.3508 5.89307H80.3918L75.9387 11.2661L80.4446 17.8931H77.4094L74.1223 12.9595L72.8743 14.4829V17.8931H70.3372ZM84.2502 5.89307V17.8931H81.7131V5.89307H84.2502ZM86.3376 17.8931V5.89307H88.8748V15.8013H94.0193V17.8931H86.3376ZM95.6995 17.8931V5.89307H98.2366V15.8013H103.381V17.8931H95.6995ZM111.571 9.34424C111.524 8.87158 111.323 8.50439 110.968 8.24268C110.612 7.98096 110.13 7.8501 109.52 7.8501C109.106 7.8501 108.757 7.90869 108.471 8.02588C108.186 8.13916 107.968 8.29736 107.815 8.50049C107.667 8.70361 107.593 8.93408 107.593 9.19189C107.585 9.40674 107.63 9.59424 107.727 9.75439C107.829 9.91455 107.968 10.0532 108.143 10.1704C108.319 10.2837 108.522 10.3833 108.753 10.4692C108.983 10.5513 109.229 10.6216 109.491 10.6802L110.569 10.938C111.093 11.0552 111.573 11.2114 112.01 11.4067C112.448 11.6021 112.827 11.8423 113.147 12.1274C113.468 12.4126 113.716 12.7485 113.891 13.1353C114.071 13.522 114.163 13.9653 114.167 14.4653C114.163 15.1997 113.975 15.8364 113.604 16.3755C113.237 16.9106 112.706 17.3267 112.01 17.6235C111.319 17.9165 110.485 18.063 109.509 18.063C108.54 18.063 107.696 17.9146 106.977 17.6177C106.262 17.3208 105.704 16.8813 105.302 16.2993C104.903 15.7134 104.694 14.9888 104.675 14.1255H107.13C107.157 14.5278 107.272 14.8638 107.475 15.1333C107.682 15.3989 107.958 15.6001 108.302 15.7368C108.649 15.8696 109.042 15.936 109.479 15.936C109.909 15.936 110.282 15.8735 110.598 15.7485C110.919 15.6235 111.167 15.4497 111.343 15.2271C111.518 15.0044 111.606 14.7485 111.606 14.4595C111.606 14.1899 111.526 13.9634 111.366 13.7798C111.21 13.5962 110.979 13.4399 110.675 13.311C110.374 13.1821 110.005 13.0649 109.567 12.9595L108.26 12.6313C107.249 12.3853 106.45 12.0005 105.864 11.4771C105.278 10.9536 104.987 10.2485 104.991 9.36182C104.987 8.63525 105.18 8.00049 105.571 7.45752C105.966 6.91455 106.507 6.49072 107.194 6.18603C107.882 5.88135 108.663 5.729 109.538 5.729C110.428 5.729 111.206 5.88135 111.87 6.18603C112.538 6.49072 113.057 6.91455 113.428 7.45752C113.8 8.00049 113.991 8.62939 114.003 9.34424H111.571Z" fill="#1C1A16"/>
<path d="M27.1383 0.458679C27.9203 0.458718 28.5919 0.615854 29.0739 1.00848C29.5738 1.41587 29.7916 2.01122 29.7916 2.70575C29.7915 3.83931 29.317 5.00365 28.442 6.18915L28.441 6.18817C27.5941 7.37235 26.4609 8.47565 25.0494 9.49969L25.0485 9.49872C23.6591 10.5263 22.1067 11.3722 20.3922 12.0358L20.3864 12.0378C19.3428 12.4249 18.2919 12.6934 17.235 12.8474C16.8188 13.4543 16.3963 14.0634 15.9674 14.6745L15.9684 14.6755C14.9014 16.2075 13.7787 17.6314 12.6002 18.947L12.5973 18.9509C11.4063 20.2527 10.1396 21.3123 8.79651 22.1237L8.79358 22.1247C7.45275 22.9234 6.03097 23.3278 4.53479 23.3278C3.20506 23.3278 2.14354 23.0977 1.47327 22.528V22.527C0.829123 22.0024 0.458618 21.3548 0.458618 20.5925C0.458761 20.126 0.695728 19.7406 1.05725 19.4391L1.19202 19.3278C1.51458 19.0836 1.88735 18.9558 2.29846 18.9557C2.64298 18.9557 2.98738 19.0326 3.2467 19.2673C3.51464 19.5097 3.61094 19.8457 3.61096 20.1862C3.61096 20.3917 3.56424 20.5974 3.4469 20.78C3.32932 20.9629 3.16155 21.0908 2.97327 21.1745C2.75301 21.2724 2.52736 21.3475 2.31897 21.3679C2.32483 21.3749 2.33049 21.3822 2.33655 21.3893L2.47034 21.5397L2.4762 21.5456L2.48108 21.5515C2.72198 21.8267 3.27347 22.0456 4.33167 22.0456C5.38061 22.0456 6.32091 21.7599 7.16467 21.1891L7.16956 21.1852C8.06862 20.5944 8.91364 19.7916 9.70081 18.7682C10.502 17.7267 11.2918 16.5621 12.0699 15.2741C12.533 14.5077 13.0105 13.7277 13.5016 12.9333C12.9126 12.8848 12.3237 12.8111 11.735 12.7106H11.733C10.6153 12.515 9.58753 12.2063 8.65393 11.7819C7.70713 11.3515 6.93016 10.784 6.33752 10.0729C5.72277 9.33523 5.4176 8.45667 5.4176 7.46161C5.41766 6.32142 5.79658 5.29688 6.54065 4.40399C7.17201 3.64638 7.95363 3.00449 8.87952 2.47626L9.28577 2.25653C10.4024 1.67076 11.5882 1.22499 12.8414 0.91864L12.8434 0.917664C14.1215 0.612037 15.3634 0.458693 16.568 0.458679C17.7698 0.458679 18.8162 0.611456 19.694 0.933289H19.693C19.8092 0.969379 19.9664 1.03541 20.0807 1.17255C20.1518 1.25787 20.2051 1.36861 20.2145 1.49872C20.2234 1.62408 20.1894 1.73239 20.149 1.81317C20.0718 1.97532 19.9301 2.05567 19.8248 2.08856C19.7183 2.12181 19.6148 2.121 19.5436 2.11591C19.3953 2.10528 19.2192 2.06231 19.0348 2.00555H19.0338C17.9412 1.70277 16.7218 1.63592 15.3688 1.81805L15.36 1.81903C13.9991 1.9761 12.6906 2.34236 11.4332 2.91864L11.4293 2.92059C10.2047 3.4678 9.21613 4.16486 8.45178 5.00555L8.4469 5.01141L8.44592 5.01044C7.70419 5.80166 7.3512 6.66879 7.3512 7.62469C7.35124 8.30693 7.55937 8.87732 7.97229 9.35907C8.41071 9.87054 8.99089 10.3063 9.72424 10.6618C10.5013 10.9979 11.3606 11.2585 12.3043 11.4421C12.9693 11.5494 13.634 11.617 14.2985 11.6511C14.3832 11.5155 14.4678 11.3792 14.5533 11.2429L14.5582 11.236L15.2242 10.239C15.8996 9.25147 16.6057 8.28693 17.3424 7.3454C18.33 6.05609 19.3477 4.90138 20.3951 3.88153L20.399 3.87665C21.4796 2.85157 22.5818 2.02797 23.7057 1.40985C24.8459 0.782759 25.9919 0.458679 27.1383 0.458679ZM27.1783 1.78192C26.3963 1.78201 25.5764 2.11358 24.7115 2.85126H24.7106C23.8519 3.57979 22.9547 4.58037 22.0201 5.862L22.0172 5.86591C21.0754 7.13059 20.1052 8.53136 19.1071 10.069L19.1051 10.072C18.833 10.4838 18.557 10.8964 18.2789 11.3102C18.5848 11.235 18.8886 11.1489 19.1901 11.0505C20.481 10.6019 21.6634 10.0233 22.7389 9.31512C23.8271 8.5985 24.7786 7.832 25.5944 7.0163C26.4125 6.17109 27.0352 5.36303 27.4713 4.59344C27.911 3.79033 28.1022 3.13825 28.1022 2.62372C28.1021 2.26834 28.0092 2.08393 27.901 1.98212C27.7875 1.87541 27.5749 1.78192 27.1783 1.78192Z" fill="#1C1A16" stroke="#F2EEE2" stroke-width="0.916667"/>
</svg>
