<svg width="53" height="63" viewBox="0 0 53 63" fill="none" xmlns="http://www.w3.org/2000/svg">
<path d="M48.091 35.6681L5.80057 10.9853C5.01746 10.5331 4.30801 10.4924 3.79583 10.7895L1.10935 12.343C1.11098 12.3419 1.11282 12.3416 1.11431 12.3405C0.605694 12.6335 0.28946 13.2587 0.287181 14.1486L0.25002 27.4968C0.244223 29.2734 1.5036 31.4633 3.05704 32.361L37.1962 52.3366L41.3781 62.2555L43.9095 60.8622L43.9225 56.2198L45.3499 57.044C46.1702 57.5179 46.9121 57.5319 47.4309 57.1785C47.4042 57.1969 47.3789 57.2182 47.351 57.2342L50.0368 55.6807C50.5439 55.3866 50.8593 54.7633 50.8616 53.881L50.8993 40.531C50.9049 38.7459 49.6371 36.561 48.091 35.6681ZM1.76387 12.1551C1.75396 12.1556 1.74499 12.1579 1.73523 12.1585C1.74499 12.1581 1.75396 12.1557 1.76387 12.1551ZM1.31412 12.2464C1.28741 12.2563 1.26298 12.2707 1.23687 12.2824C1.26298 12.2708 1.28741 12.2565 1.31412 12.2465V12.2464ZM1.5313 12.1843C1.51267 12.188 1.49588 12.1949 1.47759 12.1992C1.49588 12.1948 1.51267 12.1881 1.5313 12.1845V12.1843ZM2.00864 12.1595C2.00936 12.1597 2.0101 12.1597 2.01082 12.1595H2.00864ZM47.5285 57.1096C47.5466 57.0947 47.5625 57.0765 47.5796 57.061C47.5623 57.0774 47.5464 57.0953 47.5286 57.1102L47.5285 57.1096ZM47.6918 56.9525C47.6987 56.945 47.7041 56.9358 47.7108 56.9277C47.7039 56.9363 47.6986 56.9455 47.6916 56.953L47.6918 56.9525Z" fill="#FFFEFF" stroke="#00402A" stroke-width="0.5" stroke-miterlimit="10" stroke-linejoin="round"/>
<path d="M48.0913 35.6681L5.80084 10.9851C5.01774 10.533 4.30828 10.4923 3.7961 10.7894L1.10962 12.3429C1.62269 12.0456 2.33232 12.0875 3.11438 12.5383L45.405 37.2215C46.952 38.1141 48.2181 40.2994 48.2134 42.0853L48.1762 55.4336C48.1726 56.315 47.8572 56.939 47.3508 57.2341L50.0366 55.6806C50.5437 55.3865 50.8591 54.7631 50.8614 53.8808L50.8992 40.5309C50.9051 38.7458 49.6374 36.5609 48.0913 35.6681Z" fill="#D8CFC7" stroke="#00402A" stroke-width="0.5" stroke-miterlimit="10" stroke-linejoin="round"/>
<path d="M43.9309 53.3703L43.9098 60.862L41.3784 62.2553L41.3995 54.7625L43.9309 53.3703Z" fill="#D8CFC7" stroke="#00402A" stroke-width="0.5" stroke-miterlimit="10" stroke-linejoin="round"/>
<path d="M3.11421 12.5383C1.55869 11.6408 0.292086 12.3629 0.287181 14.1486L0.25002 27.4969C0.244223 29.2735 1.5036 31.4634 3.05704 32.361L37.1962 52.3366L41.3781 62.2556L41.3992 54.7628L45.3499 57.044C46.8958 57.9368 48.1707 57.2108 48.1762 55.4337L48.2134 42.0854C48.2184 40.2995 46.952 38.1142 45.4051 37.2215L3.11421 12.5383Z" fill="#FFFEFF" stroke="#00402A" stroke-width="0.5" stroke-miterlimit="10" stroke-linejoin="round"/>
<path d="M8.05669 28.9965C8.05669 28.3559 7.83189 27.6461 7.4683 27.0164C7.10472 26.3867 6.60248 25.8372 6.04774 25.5169C5.493 25.1965 4.99078 25.1663 4.6272 25.3762L5.48851 24.8797C5.85209 24.6698 6.35431 24.7001 6.90905 25.0204C7.46379 25.3407 7.9661 25.8903 8.32959 26.52C8.69307 27.1496 8.91802 27.8594 8.91802 28.5C8.91802 29.1406 8.69312 29.5907 8.32954 29.8006L7.46823 30.2971C7.83181 30.0871 8.05669 29.6369 8.05669 28.9965Z" fill="#00A443" stroke="#00402A" stroke-width="0.5" stroke-miterlimit="10" stroke-linejoin="round"/>
<path d="M4.62705 25.376C4.99064 25.1662 5.49285 25.1964 6.0476 25.5167C6.60234 25.837 7.10463 26.3866 7.46816 27.0163C7.8317 27.6459 8.05654 28.3557 8.05654 28.9963C8.05654 29.6369 7.83167 30.087 7.46809 30.2969C7.1045 30.5068 6.60229 30.4765 6.04755 30.1562C5.49281 29.8358 4.99059 29.2864 4.62701 28.6567C4.26342 28.027 4.03857 27.3172 4.03857 26.6766C4.03857 26.0361 4.26342 25.5859 4.62705 25.376Z" fill="#5BD38C" stroke="#00402A" stroke-width="0.5" stroke-miterlimit="10" stroke-linejoin="round"/>
<path d="M14.9742 32.9939C14.9742 32.3533 14.7493 31.6436 14.3858 31.0139C14.0222 30.3841 13.52 29.8346 12.9652 29.5143C12.4104 29.194 11.9083 29.1637 11.5447 29.3736L12.406 28.8771C12.7696 28.6673 13.2718 28.6975 13.8265 29.0178C14.3812 29.3381 14.8835 29.8878 15.2471 30.5174C15.6106 31.147 15.8355 31.8568 15.8355 32.4974C15.8355 33.138 15.6106 33.5881 15.247 33.798L14.3857 34.2945C14.7493 34.0846 14.9741 33.6345 14.9742 32.9939Z" fill="#00A443" stroke="#00402A" stroke-width="0.5" stroke-miterlimit="10" stroke-linejoin="round"/>
<path d="M11.5445 29.3736C11.9081 29.1637 12.4103 29.194 12.9651 29.5143C13.5198 29.8345 14.0221 30.3842 14.3856 31.0138C14.7492 31.6435 14.974 32.3533 14.974 32.9939C14.974 33.6345 14.7491 34.0846 14.3856 34.2945C14.0221 34.5044 13.5198 34.4741 12.965 34.1538C12.4102 33.8334 11.9081 33.2839 11.5445 32.6542C11.1809 32.0245 10.956 31.3147 10.9561 30.6742C10.9561 30.0336 11.1808 29.5835 11.5445 29.3736Z" fill="#5BD38C" stroke="#00402A" stroke-width="0.5" stroke-miterlimit="10" stroke-linejoin="round"/>
<path d="M21.8909 37.0421C21.8909 36.4015 21.6661 35.6918 21.3025 35.0621C20.9389 34.4324 20.4368 33.8828 19.882 33.5625C19.3272 33.2422 18.825 33.2119 18.4614 33.4218L19.3227 32.9254C19.6863 32.7155 20.1885 32.7457 20.7433 33.066C21.298 33.3863 21.8003 33.9359 22.1638 34.5656C22.5274 35.1953 22.7522 35.905 22.7522 36.5456C22.7522 37.1863 22.5273 37.6363 22.1638 37.8462L21.3025 38.3427C21.666 38.1328 21.8909 37.6827 21.8909 37.0421Z" fill="#00A443" stroke="#00402A" stroke-width="0.5" stroke-miterlimit="10" stroke-linejoin="round"/>
<path d="M18.4618 33.4219C18.8254 33.212 19.3276 33.2423 19.8823 33.5625C20.4371 33.8828 20.9393 34.4325 21.3029 35.0621C21.6664 35.6917 21.8912 36.4015 21.8912 37.0421C21.8912 37.6828 21.6664 38.1329 21.3028 38.3427C20.9392 38.5526 20.4371 38.5223 19.8823 38.202C19.3275 37.8817 18.8253 37.3322 18.4617 36.7025C18.0981 36.0728 17.8733 35.363 17.8733 34.7225C17.8733 34.0819 18.0982 33.6318 18.4618 33.4219Z" fill="#5BD38C" stroke="#00402A" stroke-width="0.5" stroke-miterlimit="10" stroke-linejoin="round"/>
<path d="M30.277 52.6648C29.8651 53.5966 29.367 54.139 28.9017 54.7693C28.4365 55.3995 27.5061 56.42 27.311 56.7202C27.1159 57.0204 26.7108 57.8157 26.6657 58.2659C26.6207 58.7161 26.9959 59.0313 27.7165 59.1663C28.4371 59.3014 29.5923 59.2263 30.2076 58.971C30.8228 58.7156 31.3932 58.0555 31.5883 57.4853C31.7834 56.915 32.0084 56.1947 32.5337 55.6695C33.059 55.1442 33.3891 54.7841 33.3891 54.7841C33.3891 54.7841 33.314 53.4482 33.1339 52.9082C32.9539 52.3683 30.277 52.6648 30.277 52.6648Z" fill="#00402A" stroke="#00402A" stroke-width="0.5" stroke-miterlimit="10" stroke-linejoin="round"/>
<path d="M33.3891 54.7842C33.3891 54.7842 33.0589 55.1443 32.5337 55.6696C32.0085 56.1949 31.7833 56.9152 31.5882 57.4854C31.3931 58.0557 30.8229 58.716 30.2076 58.9711C29.5923 59.2263 28.4368 59.3012 27.7165 59.1665C27.0642 59.0442 26.6962 58.7739 26.6657 58.3897C26.6657 58.3897 26.441 58.8363 27.0113 59.1665C27.5815 59.4967 28.4969 59.5267 29.0972 59.4366C29.6975 59.3465 30.3275 59.2115 30.7929 58.8513C31.2584 58.4912 31.4533 58.2361 31.5883 57.8459C31.7233 57.4557 31.8584 56.9755 31.9635 56.7804C32.0686 56.5853 32.1286 56.4802 32.1286 56.4802L32.3239 56.6454C32.3239 56.6454 33.0443 56.045 33.1793 55.79C33.3144 55.5349 33.3968 54.9068 33.3891 54.7842Z" fill="#00402A" stroke="#00402A" stroke-width="0.5" stroke-miterlimit="10" stroke-linejoin="round"/>
<path d="M35.8802 41.7733C35.8802 41.7733 36.3004 43.1239 36.3905 43.8142C36.4805 44.5046 36.8256 45.8852 37.1258 46.1703C37.426 46.4555 37.591 46.5155 38.0713 46.4555C38.5515 46.3954 38.9116 46.0202 39.1367 45.0448C39.3619 44.0694 39.4219 43.9193 39.2268 42.9288C39.0317 41.9383 38.9266 41.6382 39.1367 41.083C39.3468 40.5278 39.8794 39.7024 39.9583 39.2672C40.0372 38.832 40.3072 38.1116 39.4668 37.7665C38.6264 37.4214 36.9157 37.6764 36.9157 37.6764L35.6401 38.907L35.8802 41.7733Z" fill="#00402A" stroke="#00402A" stroke-width="0.5" stroke-miterlimit="10" stroke-linejoin="round"/>
<path d="M39.9581 37.5856C39.6483 37.3884 39.2261 37.4837 38.8846 37.6256C39.0838 37.6477 39.2794 37.695 39.4667 37.7665C40.3071 38.1116 40.0369 38.832 39.9581 39.2672C39.8793 39.7024 39.3466 40.5277 39.1366 41.083C38.9265 41.6382 39.0315 41.9384 39.2266 42.9288C39.4217 43.9192 39.3616 44.0693 39.1366 45.0448C38.9115 46.0202 38.5513 46.3954 38.0711 46.4554C37.9612 46.4709 37.8502 46.4775 37.7393 46.4752C37.7393 46.4752 38.2533 46.6107 38.5063 46.4752C38.9532 46.2357 39.2416 45.7801 39.4667 44.6246C39.6918 43.469 39.5717 43.424 39.4667 42.7937C39.3616 42.1634 39.1666 41.4131 39.4517 40.9479H39.8569C39.8569 40.9479 40.3071 40.0325 40.6222 39.3872C40.9373 38.7419 40.5696 37.9751 39.9581 37.5856Z" fill="#00402A" stroke="#00402A" stroke-width="0.5" stroke-miterlimit="10" stroke-linejoin="round"/>
<path d="M37.5778 27.3525C37.5778 27.3525 35.8695 27.5206 32.901 28.5567C29.9326 29.5929 27.0201 32.2253 26.1239 33.0654C25.2278 33.9055 25.4238 35.5858 26.4038 36.37C27.3837 37.1541 31.9208 38.8344 31.9208 38.8344L34.3572 36.4259L32.9289 34.6897L38.6699 32.8134L42.8365 30.9455L43.7174 29.6606L37.5778 27.3525Z" fill="#2F6852" stroke="#00402A" stroke-width="0.5" stroke-miterlimit="10" stroke-linejoin="round"/>
<path d="M42.0025 30.3128C42.0025 30.3128 38.3059 32.1133 35.3934 33.9336C32.481 35.7538 31.1927 37.7422 30.9407 38.8064C30.6887 39.8705 30.8847 43.9588 30.6327 46.5354C30.3806 49.1119 29.9045 52.0525 29.7365 52.6965C29.5685 53.3406 29.126 54.3234 30.0054 54.7842C30.8848 55.245 32.4249 54.3488 32.985 53.8447C33.5452 53.3406 33.4331 53.3407 33.8252 52.1644C34.2172 50.9882 35.2365 46.3549 35.7391 44.7153C36.2416 43.0757 35.7913 40.7172 35.7913 40.7172C35.7913 40.7172 41.1343 37.2661 42.8146 36.51C44.4949 35.7539 46.2591 33.9336 46.7072 33.0654C47.1553 32.1972 47.2393 29.3688 47.1273 28.8367C47.0153 28.3047 42.0025 30.3128 42.0025 30.3128Z" fill="#2F6852" stroke="#00402A" stroke-width="0.5" stroke-miterlimit="10" stroke-linejoin="round"/>
<path d="M29.7282 25.7262C29.8452 25.6668 29.9746 25.6359 30.1058 25.6359C30.237 25.6359 30.3664 25.6668 30.4834 25.7262L41.6465 32.1712C41.8548 32.2915 41.8548 32.4876 41.6465 32.6081L34.2473 36.8798C34.1302 36.9391 34.0008 36.97 33.8696 36.9701C33.7384 36.9702 33.6089 36.9394 33.4917 36.8803L22.3286 30.4344C22.1204 30.3152 22.1204 30.1184 22.3286 29.998L29.7282 25.7262Z" fill="white" stroke="#00402A" stroke-width="0.5" stroke-miterlimit="10" stroke-linejoin="round"/>
<path d="M25.9434 30.1029C25.9524 30.0998 25.9603 30.0939 25.9658 30.0861C25.9714 30.0783 25.9744 30.0689 25.9744 30.0593C25.9744 30.0497 25.9714 30.0404 25.9658 30.0326C25.9603 30.0248 25.9524 30.0189 25.9434 30.0157L25.4832 29.7497C25.4597 29.738 25.4338 29.7318 25.4075 29.7318C25.3812 29.7318 25.3553 29.738 25.3318 29.7497L24.8721 30.0157C24.863 30.0188 24.855 30.0246 24.8494 30.0325C24.8438 30.0403 24.8407 30.0497 24.8407 30.0593C24.8407 30.069 24.8438 30.0784 24.8494 30.0862C24.855 30.094 24.863 30.0999 24.8721 30.1029L25.3318 30.3688C25.3553 30.3806 25.3812 30.3867 25.4075 30.3867C25.4338 30.3867 25.4597 30.3806 25.4832 30.3688L25.9434 30.1029Z" fill="white" stroke="#00402A" stroke-width="0.5" stroke-miterlimit="10" stroke-linejoin="round"/>
<path d="M26.6476 30.5095C26.6568 30.5065 26.6647 30.5006 26.6703 30.4928C26.6759 30.4849 26.679 30.4755 26.679 30.4659C26.679 30.4563 26.6759 30.4469 26.6703 30.439C26.6647 30.4312 26.6568 30.4253 26.6476 30.4223L26.1875 30.1565C26.164 30.1447 26.1382 30.1386 26.1119 30.1386C26.0857 30.1386 26.0599 30.1447 26.0364 30.1565L25.5763 30.4223C25.5672 30.4253 25.5593 30.4312 25.5536 30.439C25.548 30.4469 25.545 30.4563 25.545 30.4659C25.545 30.4755 25.548 30.4849 25.5536 30.4928C25.5593 30.5006 25.5672 30.5065 25.5763 30.5095L26.0364 30.7751C26.06 30.7868 26.0859 30.793 26.1122 30.793C26.1385 30.793 26.1644 30.7868 26.188 30.7751L26.6476 30.5095Z" fill="white" stroke="#00402A" stroke-width="0.5" stroke-miterlimit="10" stroke-linejoin="round"/>
<path d="M27.3522 30.9159C27.3614 30.9129 27.3693 30.907 27.3749 30.8992C27.3805 30.8914 27.3835 30.8821 27.3835 30.8725C27.3835 30.8629 27.3805 30.8535 27.3749 30.8457C27.3693 30.8379 27.3614 30.8321 27.3522 30.829L26.892 30.5631C26.8686 30.5514 26.8428 30.5453 26.8167 30.5453C26.7906 30.5453 26.7648 30.5514 26.7414 30.5631L26.2808 30.829C26.2717 30.8321 26.2638 30.838 26.2583 30.8458C26.2527 30.8536 26.2497 30.8629 26.2497 30.8725C26.2497 30.882 26.2527 30.8914 26.2583 30.8992C26.2638 30.907 26.2717 30.9128 26.2808 30.9159L26.7414 31.1818C26.7647 31.1937 26.7905 31.2 26.8167 31.2C26.8429 31.2 26.8687 31.1937 26.892 31.1818L27.3522 30.9159Z" fill="white" stroke="#00402A" stroke-width="0.5" stroke-miterlimit="10" stroke-linejoin="round"/>
<path d="M28.0561 31.3227C28.0652 31.3196 28.073 31.3137 28.0786 31.3058C28.0842 31.298 28.0872 31.2887 28.0872 31.2791C28.0872 31.2695 28.0842 31.2601 28.0786 31.2523C28.073 31.2445 28.0652 31.2386 28.0561 31.2354L27.596 30.9699C27.5726 30.958 27.5468 30.9518 27.5205 30.9518C27.4943 30.9518 27.4684 30.958 27.445 30.9699L26.9843 31.2354C26.9753 31.2386 26.9675 31.2445 26.962 31.2523C26.9564 31.2602 26.9535 31.2695 26.9535 31.2791C26.9535 31.2886 26.9564 31.298 26.962 31.3058C26.9675 31.3136 26.9753 31.3195 26.9843 31.3227L27.445 31.5885C27.4684 31.6003 27.4943 31.6065 27.5205 31.6065C27.5467 31.6065 27.5726 31.6003 27.596 31.5885L28.0561 31.3227Z" fill="white" stroke="#00402A" stroke-width="0.5" stroke-miterlimit="10" stroke-linejoin="round"/>
<path d="M28.7604 31.7294C28.7695 31.7263 28.7775 31.7204 28.7831 31.7125C28.7887 31.7046 28.7917 31.6952 28.7917 31.6855C28.7917 31.6758 28.7887 31.6664 28.7831 31.6585C28.7775 31.6507 28.7695 31.6447 28.7604 31.6416L28.3005 31.376C28.277 31.3643 28.2511 31.3582 28.2248 31.3582C28.1985 31.3582 28.1726 31.3643 28.1491 31.376L27.6891 31.6416C27.68 31.6448 27.6721 31.6507 27.6665 31.6586C27.6609 31.6664 27.6578 31.6759 27.6578 31.6855C27.6578 31.6952 27.6609 31.7046 27.6665 31.7125C27.6721 31.7203 27.68 31.7263 27.6891 31.7294L28.1491 31.9948C28.1726 32.0068 28.1985 32.013 28.2248 32.013C28.2511 32.013 28.2771 32.0068 28.3005 31.9948L28.7604 31.7294Z" fill="white" stroke="#00402A" stroke-width="0.5" stroke-miterlimit="10" stroke-linejoin="round"/>
<path d="M29.4644 32.1357C29.4734 32.1326 29.4813 32.1267 29.4868 32.1189C29.4924 32.1111 29.4954 32.1018 29.4954 32.0923C29.4954 32.0827 29.4924 32.0734 29.4868 32.0656C29.4813 32.0578 29.4734 32.0519 29.4644 32.0488L29.0038 31.783C28.9804 31.7712 28.9545 31.765 28.9283 31.765C28.9021 31.765 28.8762 31.7712 28.8528 31.783L28.3926 32.0488C28.3836 32.0519 28.3757 32.0578 28.3702 32.0656C28.3646 32.0734 28.3617 32.0827 28.3617 32.0923C28.3617 32.1018 28.3646 32.1111 28.3702 32.1189C28.3757 32.1267 28.3836 32.1326 28.3926 32.1357L28.8528 32.4015C28.8762 32.4133 28.9021 32.4194 28.9283 32.4194C28.9545 32.4194 28.9804 32.4133 29.0038 32.4015L29.4644 32.1357Z" fill="white" stroke="#00402A" stroke-width="0.5" stroke-miterlimit="10" stroke-linejoin="round"/>
<path d="M30.1687 32.5424C30.1778 32.5392 30.1856 32.5333 30.1912 32.5255C30.1967 32.5176 30.1997 32.5083 30.1997 32.4987C30.1997 32.4891 30.1967 32.4797 30.1912 32.4719C30.1856 32.464 30.1778 32.4581 30.1687 32.455L29.708 32.1896C29.6848 32.1776 29.659 32.1713 29.6328 32.1713C29.6066 32.1713 29.5807 32.1776 29.5575 32.1896L29.0969 32.455C29.0878 32.4581 29.08 32.464 29.0744 32.4719C29.0688 32.4797 29.0659 32.4891 29.0659 32.4987C29.0659 32.5083 29.0688 32.5176 29.0744 32.5255C29.08 32.5333 29.0878 32.5392 29.0969 32.5424L29.5575 32.8083C29.5808 32.82 29.6066 32.8261 29.6328 32.8261C29.6589 32.8261 29.6847 32.82 29.708 32.8083L30.1687 32.5424Z" fill="white" stroke="#00402A" stroke-width="0.5" stroke-miterlimit="10" stroke-linejoin="round"/>
<path d="M30.8729 32.9485C30.882 32.9455 30.89 32.9397 30.8956 32.9319C30.9013 32.9241 30.9043 32.9148 30.9043 32.9051C30.9043 32.8955 30.9013 32.8862 30.8956 32.8784C30.89 32.8706 30.882 32.8648 30.8729 32.8618L30.4131 32.596C30.3896 32.5842 30.3637 32.578 30.3374 32.578C30.3112 32.578 30.2853 32.5842 30.2618 32.596L29.8016 32.8618C29.7925 32.8648 29.7845 32.8706 29.7789 32.8784C29.7733 32.8862 29.7702 32.8955 29.7702 32.9051C29.7702 32.9148 29.7733 32.9241 29.7789 32.9319C29.7845 32.9397 29.7925 32.9455 29.8016 32.9485L30.2618 33.2144C30.2852 33.2263 30.3112 33.2326 30.3374 33.2326C30.3637 33.2326 30.3896 33.2263 30.4131 33.2144L30.8729 32.9485Z" fill="white" stroke="#00402A" stroke-width="0.5" stroke-miterlimit="10" stroke-linejoin="round"/>
<path d="M31.5773 33.3554C31.5864 33.3523 31.5944 33.3464 31.6 33.3386C31.6056 33.3307 31.6086 33.3213 31.6086 33.3117C31.6086 33.302 31.6056 33.2926 31.6 33.2848C31.5944 33.2769 31.5864 33.2711 31.5773 33.268L31.1171 33.0026C31.0936 32.9906 31.0677 32.9844 31.0414 32.9844C31.015 32.9844 30.9891 32.9906 30.9656 33.0026L30.506 33.268C30.4969 33.2711 30.489 33.277 30.4834 33.2849C30.4778 33.2927 30.4748 33.3021 30.4748 33.3117C30.4748 33.3213 30.4778 33.3307 30.4834 33.3385C30.489 33.3463 30.4969 33.3522 30.506 33.3554L30.9656 33.6212C30.9891 33.6329 31.0151 33.639 31.0414 33.639C31.0676 33.639 31.0936 33.6329 31.1171 33.6212L31.5773 33.3554Z" fill="white" stroke="#00402A" stroke-width="0.5" stroke-miterlimit="10" stroke-linejoin="round"/>
<path d="M32.2812 33.7621C32.2903 33.759 32.2982 33.7531 32.3039 33.7453C32.3095 33.7375 32.3125 33.7281 32.3125 33.7185C32.3125 33.7088 32.3095 33.6994 32.3039 33.6916C32.2982 33.6838 32.2903 33.6779 32.2812 33.6748L31.8215 33.4089C31.798 33.3971 31.7721 33.3909 31.7458 33.3909C31.7195 33.3909 31.6936 33.3971 31.6701 33.4089L31.2099 33.6748C31.2009 33.6779 31.193 33.6838 31.1874 33.6917C31.1819 33.6995 31.1789 33.7088 31.1789 33.7185C31.1789 33.7281 31.1819 33.7374 31.1874 33.7452C31.193 33.7531 31.2009 33.7589 31.2099 33.7621L31.6701 34.0274C31.6935 34.0394 31.7195 34.0456 31.7458 34.0456C31.7721 34.0456 31.7981 34.0394 31.8215 34.0274L32.2812 33.7621Z" fill="white" stroke="#00402A" stroke-width="0.5" stroke-miterlimit="10" stroke-linejoin="round"/>
<path d="M32.9852 34.1686C32.9944 34.1656 33.0024 34.1597 33.0081 34.1518C33.0138 34.1439 33.0168 34.1344 33.0168 34.1247C33.0168 34.115 33.0138 34.1055 33.0081 34.0976C33.0024 34.0898 32.9944 34.0839 32.9852 34.0808L32.5254 33.8153C32.5019 33.8036 32.4759 33.7975 32.4496 33.7975C32.4232 33.7975 32.3973 33.8036 32.3737 33.8153L31.914 34.0808C31.9048 34.0839 31.8968 34.0898 31.8911 34.0976C31.8854 34.1055 31.8823 34.115 31.8823 34.1247C31.8823 34.1344 31.8854 34.1439 31.8911 34.1518C31.8968 34.1597 31.9048 34.1656 31.914 34.1686L32.3737 34.4342C32.3973 34.4459 32.4232 34.452 32.4496 34.452C32.4759 34.452 32.5019 34.4459 32.5254 34.4342L32.9852 34.1686Z" fill="white" stroke="#00402A" stroke-width="0.5" stroke-miterlimit="10" stroke-linejoin="round"/>
<path d="M33.69 34.5755C33.699 34.5723 33.7069 34.5663 33.7124 34.5585C33.718 34.5506 33.7209 34.5412 33.7209 34.5316C33.7209 34.522 33.718 34.5126 33.7124 34.5047C33.7069 34.4969 33.699 34.4909 33.69 34.4877L33.2299 34.2222C33.2064 34.2102 33.1805 34.2039 33.1541 34.2039C33.1278 34.2039 33.1018 34.2102 33.0784 34.2222L32.6187 34.4877C32.6095 34.4909 32.6016 34.4968 32.596 34.5047C32.5904 34.5125 32.5874 34.5219 32.5874 34.5316C32.5874 34.5413 32.5904 34.5507 32.596 34.5586C32.6016 34.5664 32.6095 34.5724 32.6187 34.5755L33.0784 34.8409C33.1018 34.8528 33.1278 34.8591 33.1541 34.8591C33.1805 34.8591 33.2064 34.8528 33.2299 34.8409L33.69 34.5755Z" fill="white" stroke="#00402A" stroke-width="0.5" stroke-miterlimit="10" stroke-linejoin="round"/>
<path d="M34.3944 34.9817C34.4035 34.9785 34.4113 34.9726 34.4169 34.9647C34.4224 34.9568 34.4254 34.9474 34.4253 34.9378C34.4252 34.9282 34.4222 34.9188 34.4165 34.911C34.4109 34.9033 34.403 34.8974 34.3938 34.8944L33.9342 34.6288C33.9107 34.6171 33.8848 34.611 33.8585 34.611C33.8322 34.611 33.8063 34.6171 33.7828 34.6288L33.3226 34.8944C33.3135 34.8975 33.3057 34.9034 33.3002 34.9113C33.2946 34.9191 33.2917 34.9284 33.2917 34.938C33.2917 34.9476 33.2946 34.9569 33.3002 34.9648C33.3057 34.9726 33.3135 34.9785 33.3226 34.9817L33.7828 35.2472C33.8062 35.2592 33.8322 35.2654 33.8585 35.2654C33.8848 35.2654 33.9107 35.2592 33.9342 35.2472L34.3944 34.9817Z" fill="white" stroke="#00402A" stroke-width="0.5" stroke-miterlimit="10" stroke-linejoin="round"/>
<path d="M25.2695 30.5177C25.2786 30.5145 25.2864 30.5086 25.292 30.5008C25.2976 30.493 25.3005 30.4836 25.3005 30.474C25.3005 30.4644 25.2976 30.455 25.292 30.4472C25.2864 30.4394 25.2786 30.4335 25.2695 30.4303L24.7872 30.1518C24.7638 30.1399 24.7378 30.1337 24.7115 30.1337C24.6852 30.1337 24.6592 30.1399 24.6358 30.1518L24.4315 30.2701C24.4224 30.2732 24.4144 30.279 24.4088 30.2868C24.4032 30.2946 24.4002 30.304 24.4002 30.3136C24.4002 30.3232 24.4032 30.3326 24.4088 30.3404C24.4144 30.3482 24.4224 30.354 24.4315 30.3571L24.9134 30.6355C24.9369 30.6474 24.9629 30.6537 24.9893 30.6537C25.0156 30.6537 25.0416 30.6474 25.0651 30.6355L25.2695 30.5177Z" fill="white" stroke="#00402A" stroke-width="0.5" stroke-miterlimit="10" stroke-linejoin="round"/>
<path d="M25.9993 30.9386C26.0085 30.9355 26.0164 30.9296 26.022 30.9218C26.0276 30.9139 26.0306 30.9045 26.0305 30.8949C26.0305 30.8853 26.0274 30.8759 26.0217 30.8681C26.016 30.8604 26.0079 30.8546 25.9988 30.8517L25.517 30.5733C25.4936 30.5613 25.4677 30.5551 25.4415 30.5551C25.4152 30.5551 25.3894 30.5613 25.366 30.5733L25.1612 30.691C25.152 30.6941 25.1441 30.7 25.1384 30.7079C25.1328 30.7157 25.1297 30.7252 25.1297 30.7349C25.1297 30.7446 25.1328 30.754 25.1384 30.7619C25.1441 30.7698 25.152 30.7757 25.1612 30.7788L25.6436 31.0569C25.667 31.0689 25.6929 31.0752 25.7192 31.0752C25.7455 31.0752 25.7715 31.0689 25.7949 31.0569L25.9993 30.9386Z" fill="white" stroke="#00402A" stroke-width="0.5" stroke-miterlimit="10" stroke-linejoin="round"/>
<path d="M26.7292 31.3599C26.7383 31.3568 26.7462 31.351 26.7519 31.3431C26.7575 31.3353 26.7605 31.3259 26.7605 31.3162C26.7605 31.3066 26.7575 31.2971 26.7519 31.2893C26.7462 31.2815 26.7383 31.2756 26.7292 31.2725L26.2468 30.994C26.2234 30.9823 26.1975 30.9761 26.1713 30.9761C26.1451 30.9761 26.1192 30.9823 26.0958 30.994L25.891 31.1123C25.8819 31.1154 25.874 31.1213 25.8684 31.1292C25.8628 31.137 25.8598 31.1464 25.8598 31.1561C25.8598 31.1657 25.8628 31.1751 25.8684 31.1829C25.874 31.1908 25.8819 31.1967 25.891 31.1998L26.3734 31.4782C26.3968 31.4899 26.4225 31.496 26.4487 31.496C26.4748 31.496 26.5006 31.4899 26.524 31.4782L26.7292 31.3599Z" fill="white" stroke="#00402A" stroke-width="0.5" stroke-miterlimit="10" stroke-linejoin="round"/>
<path d="M27.4586 31.7811C27.4677 31.778 27.4756 31.7721 27.4812 31.7643C27.4867 31.7564 27.4897 31.7471 27.4897 31.7375C27.4897 31.7279 27.4867 31.7185 27.4812 31.7107C27.4756 31.7029 27.4677 31.697 27.4586 31.6939L26.9763 31.4155C26.9529 31.4038 26.9271 31.3977 26.901 31.3977C26.8748 31.3977 26.8491 31.4038 26.8257 31.4155L26.6204 31.5339C26.6114 31.537 26.6035 31.5429 26.5979 31.5507C26.5924 31.5585 26.5894 31.5679 26.5894 31.5775C26.5894 31.5871 26.5924 31.5965 26.5979 31.6043C26.6035 31.6121 26.6114 31.618 26.6204 31.6212L27.1028 31.8995C27.1263 31.9112 27.1522 31.9173 27.1784 31.9173C27.2047 31.9173 27.2306 31.9112 27.2541 31.8995L27.4586 31.7811Z" fill="white" stroke="#00402A" stroke-width="0.5" stroke-miterlimit="10" stroke-linejoin="round"/>
<path d="M28.1876 32.2024C28.1968 32.1993 28.2047 32.1935 28.2103 32.1857C28.216 32.1778 28.219 32.1684 28.219 32.1588C28.219 32.1492 28.216 32.1398 28.2103 32.1319C28.2047 32.1241 28.1968 32.1183 28.1876 32.1152L27.7062 31.8367C27.6827 31.825 27.6567 31.8189 27.6304 31.8189C27.6041 31.8189 27.5781 31.825 27.5545 31.8367L27.3501 31.9546C27.341 31.9578 27.3331 31.9637 27.3275 31.9715C27.3219 31.9793 27.3189 31.9887 27.3189 31.9983C27.3189 32.0079 27.3219 32.0173 27.3275 32.0252C27.3331 32.033 27.341 32.0389 27.3501 32.042L27.8324 32.3204C27.8558 32.3322 27.8816 32.3383 27.9077 32.3383C27.9339 32.3383 27.9597 32.3322 27.983 32.3204L28.1876 32.2024Z" fill="white" stroke="#00402A" stroke-width="0.5" stroke-miterlimit="10" stroke-linejoin="round"/>
<path d="M28.9171 32.6238C28.9262 32.6207 28.9341 32.6148 28.9397 32.6069C28.9452 32.5991 28.9482 32.5897 28.9482 32.5801C28.9482 32.5705 28.9452 32.5611 28.9397 32.5533C28.9341 32.5455 28.9262 32.5396 28.9171 32.5364L28.4352 32.258C28.4117 32.2461 28.3858 32.2399 28.3595 32.2399C28.3332 32.2399 28.3073 32.2461 28.2838 32.258L28.0791 32.376C28.07 32.3791 28.0622 32.385 28.0566 32.3928C28.051 32.4006 28.048 32.41 28.048 32.4196C28.048 32.4292 28.051 32.4386 28.0566 32.4464C28.0622 32.4542 28.07 32.4601 28.0791 32.4633L28.5615 32.7416C28.585 32.7532 28.6109 32.7592 28.6371 32.7592C28.6634 32.7592 28.6892 32.7532 28.7128 32.7416L28.9171 32.6238Z" fill="white" stroke="#00402A" stroke-width="0.5" stroke-miterlimit="10" stroke-linejoin="round"/>
<path d="M29.6469 33.0446C29.656 33.0416 29.6639 33.0358 29.6696 33.028C29.6752 33.0202 29.6782 33.0108 29.6782 33.0012C29.6782 32.9916 29.6752 32.9822 29.6696 32.9744C29.6639 32.9666 29.656 32.9608 29.6469 32.9578L29.1649 32.6795C29.1415 32.6675 29.1156 32.6613 29.0893 32.6613C29.063 32.6613 29.0371 32.6675 29.0137 32.6795L28.8092 32.7973C28.7674 32.8216 28.7674 32.8604 28.8092 32.8842L29.2913 33.1626C29.3147 33.1746 29.3406 33.1808 29.3669 33.1808C29.3932 33.1808 29.4191 33.1746 29.4425 33.1626L29.6469 33.0446Z" fill="white" stroke="#00402A" stroke-width="0.5" stroke-miterlimit="10" stroke-linejoin="round"/>
<path d="M30.3766 33.4661C30.3857 33.463 30.3936 33.4571 30.3992 33.4492C30.4047 33.4414 30.4077 33.432 30.4077 33.4224C30.4077 33.4128 30.4047 33.4034 30.3992 33.3956C30.3936 33.3877 30.3857 33.3818 30.3766 33.3787L29.8943 33.1003C29.8708 33.0886 29.8449 33.0825 29.8187 33.0825C29.7924 33.0825 29.7665 33.0886 29.743 33.1003L29.5386 33.2186C29.5295 33.2217 29.5216 33.2276 29.5161 33.2354C29.5105 33.2431 29.5075 33.2525 29.5075 33.2621C29.5075 33.2716 29.5105 33.281 29.5161 33.2887C29.5216 33.2965 29.5295 33.3024 29.5386 33.3055L30.0209 33.584C30.0443 33.5959 30.0702 33.6021 30.0964 33.6021C30.1227 33.6021 30.1485 33.5959 30.1719 33.584L30.3766 33.4661Z" fill="white" stroke="#00402A" stroke-width="0.5" stroke-miterlimit="10" stroke-linejoin="round"/>
<path d="M31.1064 33.8874C31.1155 33.8843 31.1235 33.8784 31.1291 33.8706C31.1347 33.8628 31.1377 33.8534 31.1377 33.8438C31.1377 33.8341 31.1347 33.8247 31.1291 33.8169C31.1235 33.8091 31.1155 33.8032 31.1064 33.8001L30.624 33.5218C30.6007 33.5098 30.5748 33.5035 30.5485 33.5035C30.5223 33.5035 30.4964 33.5098 30.4731 33.5218L30.2683 33.64C30.2593 33.6431 30.2514 33.649 30.2459 33.6568C30.2403 33.6646 30.2374 33.6739 30.2374 33.6835C30.2374 33.693 30.2403 33.7024 30.2459 33.7102C30.2514 33.718 30.2593 33.7239 30.2683 33.727L30.7506 34.0052C30.7741 34.0171 30.8 34.0234 30.8263 34.0234C30.8526 34.0234 30.8785 34.0171 30.9019 34.0052L31.1064 33.8874Z" fill="white" stroke="#00402A" stroke-width="0.5" stroke-miterlimit="10" stroke-linejoin="round"/>
<path d="M31.8349 34.3084C31.844 34.3053 31.852 34.2995 31.8576 34.2917C31.8632 34.2839 31.8662 34.2745 31.8662 34.2649C31.8662 34.2553 31.8632 34.246 31.8576 34.2381C31.852 34.2303 31.844 34.2245 31.8349 34.2214L31.3525 33.9426C31.3292 33.9308 31.3034 33.9247 31.2772 33.9247C31.2511 33.9247 31.2253 33.9308 31.2019 33.9426L30.9972 34.0608C30.9881 34.064 30.9802 34.0699 30.9747 34.0777C30.9691 34.0856 30.9661 34.0949 30.9661 34.1045C30.9661 34.1142 30.9691 34.1235 30.9747 34.1314C30.9802 34.1392 30.9881 34.1451 30.9972 34.1483L31.4791 34.4267C31.5025 34.4386 31.5284 34.4448 31.5547 34.4448C31.5809 34.4448 31.6069 34.4386 31.6303 34.4267L31.8349 34.3084Z" fill="white" stroke="#00402A" stroke-width="0.5" stroke-miterlimit="10" stroke-linejoin="round"/>
<path d="M32.5657 34.7301C32.5748 34.727 32.5827 34.7211 32.5883 34.7132C32.5939 34.7053 32.5969 34.6959 32.5969 34.6862C32.5969 34.6766 32.5939 34.6671 32.5883 34.6593C32.5827 34.6514 32.5748 34.6455 32.5657 34.6423L32.0832 34.3643C32.0599 34.3524 32.0341 34.3463 32.008 34.3463C31.9818 34.3463 31.956 34.3524 31.9327 34.3643L31.7282 34.4822C31.719 34.4853 31.7109 34.4911 31.7052 34.4989C31.6995 34.5068 31.6965 34.5162 31.6965 34.5259C31.6965 34.5356 31.6995 34.5451 31.7052 34.5529C31.7109 34.5607 31.719 34.5666 31.7282 34.5696L32.2101 34.8479C32.2336 34.8597 32.2595 34.8658 32.2858 34.8658C32.312 34.8658 32.338 34.8597 32.3615 34.8479L32.5657 34.7301Z" fill="white" stroke="#00402A" stroke-width="0.5" stroke-miterlimit="10" stroke-linejoin="round"/>
<path d="M33.2944 35.1509C33.3034 35.1477 33.3113 35.1418 33.3169 35.134C33.3224 35.1262 33.3254 35.1168 33.3254 35.1072C33.3254 35.0976 33.3224 35.0883 33.3169 35.0804C33.3113 35.0726 33.3034 35.0667 33.2944 35.0636L32.8125 34.7851C32.7891 34.7732 32.7631 34.767 32.7369 34.767C32.7106 34.767 32.6846 34.7732 32.6612 34.7851L32.4562 34.9035C32.4472 34.9066 32.4393 34.9125 32.4338 34.9203C32.4282 34.9281 32.4252 34.9374 32.4252 34.947C32.4252 34.9566 32.4282 34.9659 32.4338 34.9737C32.4393 34.9815 32.4472 34.9874 32.4562 34.9905L32.9387 35.2688C32.9621 35.2808 32.988 35.2871 33.0144 35.2871C33.0407 35.2871 33.0666 35.2808 33.0901 35.2688L33.2944 35.1509Z" fill="white" stroke="#00402A" stroke-width="0.5" stroke-miterlimit="10" stroke-linejoin="round"/>
<path d="M34.0241 35.5719C34.0332 35.5688 34.0412 35.563 34.0468 35.5552C34.0524 35.5474 34.0554 35.538 34.0554 35.5284C34.0554 35.5188 34.0524 35.5094 34.0468 35.5016C34.0412 35.4938 34.0332 35.488 34.0241 35.485L33.5422 35.2061C33.5186 35.1944 33.4927 35.1884 33.4664 35.1884C33.4402 35.1884 33.4142 35.1944 33.3907 35.2061L33.1865 35.3248C33.1774 35.328 33.1695 35.3338 33.164 35.3416C33.1584 35.3494 33.1554 35.3588 33.1554 35.3684C33.1554 35.3779 33.1584 35.3873 33.164 35.3951C33.1695 35.4029 33.1774 35.4088 33.1865 35.4119L33.6689 35.6902C33.6922 35.7022 33.7181 35.7084 33.7443 35.7084C33.7705 35.7084 33.7964 35.7022 33.8198 35.6902L34.0241 35.5719Z" fill="white" stroke="#00402A" stroke-width="0.5" stroke-miterlimit="10" stroke-linejoin="round"/>
<path d="M34.7562 35.9942C34.7975 35.9707 34.7975 35.9314 34.7557 35.9072L34.2742 35.6288C34.2506 35.6171 34.2246 35.611 34.1983 35.611C34.1719 35.611 34.146 35.6171 34.1224 35.6288L33.9181 35.747C33.9089 35.7501 33.901 35.756 33.8954 35.7638C33.8897 35.7717 33.8867 35.7811 33.8867 35.7907C33.8867 35.8004 33.8897 35.8098 33.8954 35.8176C33.901 35.8255 33.9089 35.8313 33.9181 35.8344L34.4 36.1127C34.4234 36.1247 34.4494 36.1309 34.4758 36.1309C34.5022 36.1309 34.5282 36.1247 34.5517 36.1127L34.7562 35.9942Z" fill="white" stroke="#00402A" stroke-width="0.5" stroke-miterlimit="10" stroke-linejoin="round"/>
<path d="M35.4522 35.5927C35.4613 35.5896 35.4692 35.5836 35.4748 35.5758C35.4804 35.5679 35.4834 35.5585 35.4834 35.5488C35.4834 35.5392 35.4804 35.5297 35.4748 35.5219C35.4692 35.514 35.4613 35.5081 35.4522 35.5049L34.6399 35.0363C34.6164 35.0246 34.5905 35.0184 34.5643 35.0184C34.538 35.0184 34.5121 35.0246 34.4886 35.0363L34.0289 35.3017C34.0196 35.3047 34.0115 35.3106 34.0058 35.3184C34.0001 35.3263 33.997 35.3358 33.997 35.3456C33.997 35.3553 34.0001 35.3648 34.0058 35.3727C34.0115 35.3806 34.0196 35.3865 34.0289 35.3895L34.8411 35.8581C34.8644 35.87 34.8902 35.8762 34.9164 35.8762C34.9426 35.8762 34.9684 35.87 34.9917 35.8581L35.4522 35.5927Z" fill="white" stroke="#00402A" stroke-width="0.5" stroke-miterlimit="10" stroke-linejoin="round"/>
<path d="M28.7675 28.4729C28.7766 28.4697 28.7845 28.4638 28.79 28.456C28.7956 28.4482 28.7986 28.4388 28.7986 28.4292C28.7986 28.4196 28.7956 28.4102 28.79 28.4024C28.7845 28.3946 28.7766 28.3887 28.7675 28.3855L28.3069 28.1201C28.2837 28.1081 28.2578 28.1019 28.2317 28.1019C28.2055 28.1019 28.1797 28.1081 28.1564 28.1201L27.6963 28.3855C27.6872 28.3887 27.6793 28.3945 27.6737 28.4024C27.6681 28.4102 27.6651 28.4196 27.6651 28.4292C27.6651 28.4388 27.6681 28.4482 27.6737 28.456C27.6793 28.4638 27.6872 28.4697 27.6963 28.4729L28.1564 28.7384C28.1797 28.7502 28.2055 28.7564 28.2317 28.7564C28.2578 28.7564 28.2836 28.7502 28.3069 28.7384L28.7675 28.4729Z" fill="white" stroke="#00402A" stroke-width="0.5" stroke-miterlimit="10" stroke-linejoin="round"/>
<path d="M29.4714 28.8794C29.4804 28.8763 29.4883 28.8704 29.4939 28.8626C29.4994 28.8548 29.5024 28.8454 29.5024 28.8358C29.5024 28.8262 29.4994 28.8168 29.4939 28.809C29.4883 28.8012 29.4804 28.7953 29.4714 28.7921L29.0111 28.5263C28.9877 28.5145 28.9618 28.5084 28.9355 28.5084C28.9093 28.5084 28.8834 28.5145 28.8599 28.5263L28.4 28.7921C28.3909 28.7952 28.3829 28.8011 28.3773 28.8089C28.3717 28.8168 28.3687 28.8261 28.3687 28.8358C28.3687 28.8454 28.3717 28.8548 28.3773 28.8627C28.3829 28.8705 28.3909 28.8763 28.4 28.8794L28.8599 29.145C28.8834 29.1569 28.9093 29.1631 28.9355 29.1631C28.9618 29.1631 28.9877 29.1569 29.0111 29.145L29.4714 28.8794Z" fill="white" stroke="#00402A" stroke-width="0.5" stroke-miterlimit="10" stroke-linejoin="round"/>
<path d="M30.1754 29.2863C30.1846 29.2832 30.1925 29.2773 30.1981 29.2695C30.2038 29.2617 30.2068 29.2522 30.2068 29.2426C30.2068 29.2329 30.2038 29.2235 30.1981 29.2157C30.1925 29.2078 30.1846 29.202 30.1754 29.1989L29.7155 28.933C29.6922 28.921 29.6664 28.9148 29.6402 28.9148C29.614 28.9148 29.5882 28.921 29.5649 28.933L29.1044 29.1989C29.0953 29.202 29.0873 29.2078 29.0817 29.2157C29.0761 29.2235 29.0731 29.2329 29.0731 29.2426C29.0731 29.2522 29.0761 29.2617 29.0817 29.2695C29.0873 29.2773 29.0953 29.2832 29.1044 29.2863L29.5649 29.5517C29.5883 29.5633 29.614 29.5694 29.6402 29.5694C29.6663 29.5694 29.6921 29.5633 29.7155 29.5517L30.1754 29.2863Z" fill="white" stroke="#00402A" stroke-width="0.5" stroke-miterlimit="10" stroke-linejoin="round"/>
<path d="M37.2126 33.7625C37.2217 33.7594 37.2295 33.7535 37.2351 33.7458C37.2407 33.738 37.2437 33.7286 37.2437 33.719C37.2437 33.7095 37.2407 33.7001 37.2351 33.6923C37.2295 33.6846 37.2217 33.6787 37.2126 33.6756L36.7524 33.4097C36.7289 33.3981 36.703 33.3921 36.6768 33.3921C36.6505 33.3921 36.6247 33.3981 36.6011 33.4097L36.4925 33.4724C36.4834 33.4756 36.4756 33.4815 36.47 33.4893C36.4645 33.4971 36.4615 33.5065 36.4615 33.5161C36.4615 33.5257 36.4645 33.5351 36.47 33.5429C36.4756 33.5507 36.4834 33.5566 36.4925 33.5598L36.9526 33.8256C36.9761 33.8373 37.002 33.8434 37.0283 33.8434C37.0545 33.8434 37.0804 33.8373 37.1039 33.8256L37.2126 33.7625Z" fill="white" stroke="#00402A" stroke-width="0.5" stroke-miterlimit="10" stroke-linejoin="round"/>
<path d="M36.8669 33.1494C36.876 33.1462 36.8838 33.1404 36.8894 33.1326C36.895 33.1248 36.8979 33.1154 36.8979 33.1059C36.8979 33.0963 36.895 33.087 36.8894 33.0792C36.8838 33.0714 36.876 33.0655 36.8669 33.0624L36.4072 32.7965C36.3837 32.7845 36.3578 32.7783 36.3315 32.7783C36.3052 32.7783 36.2793 32.7845 36.2559 32.7965L36.1476 32.8592C36.1384 32.8623 36.1305 32.8681 36.1249 32.8759C36.1192 32.8837 36.1162 32.8931 36.1162 32.9027C36.1162 32.9123 36.1192 32.9217 36.1249 32.9295C36.1305 32.9373 36.1384 32.9432 36.1476 32.9462L36.6077 33.212C36.6312 33.2238 36.657 33.2299 36.6832 33.2299C36.7094 33.2299 36.7353 33.2238 36.7587 33.212L36.8669 33.1494Z" fill="white" stroke="#00402A" stroke-width="0.5" stroke-miterlimit="10" stroke-linejoin="round"/>
<path d="M37.5708 33.556C37.5798 33.5529 37.5877 33.547 37.5933 33.5391C37.5988 33.5313 37.6018 33.5219 37.6018 33.5123C37.6018 33.5027 37.5988 33.4934 37.5933 33.4856C37.5877 33.4777 37.5798 33.4718 37.5708 33.4687L37.1106 33.2028C37.0873 33.1911 37.0615 33.1849 37.0353 33.1849C37.0092 33.1849 36.9834 33.1911 36.96 33.2028L36.851 33.2656C36.8419 33.2688 36.8341 33.2748 36.8285 33.2826C36.823 33.2905 36.82 33.2999 36.82 33.3095C36.82 33.3191 36.823 33.3285 36.8285 33.3364C36.8341 33.3442 36.8419 33.3502 36.851 33.3534L37.3116 33.6183C37.3349 33.6303 37.3608 33.6365 37.387 33.6365C37.4133 33.6365 37.4391 33.6303 37.4625 33.6183L37.5708 33.556Z" fill="white" stroke="#00402A" stroke-width="0.5" stroke-miterlimit="10" stroke-linejoin="round"/>
<path d="M38.2751 33.9624C38.2842 33.9593 38.2921 33.9534 38.2976 33.9456C38.3032 33.9378 38.3062 33.9285 38.3062 33.9189C38.3062 33.9093 38.3032 33.9 38.2976 33.8922C38.2921 33.8844 38.2842 33.8785 38.2751 33.8754L37.815 33.6096C37.7916 33.5976 37.7657 33.5914 37.7393 33.5914C37.713 33.5914 37.6871 33.5976 37.6636 33.6096L37.5554 33.6723C37.5463 33.6754 37.5383 33.6812 37.5327 33.689C37.5271 33.6968 37.5241 33.7062 37.5241 33.7158C37.5241 33.7255 37.5271 33.7348 37.5327 33.7427C37.5383 33.7505 37.5463 33.7563 37.5554 33.7594L38.0152 34.0255C38.0387 34.0373 38.0646 34.0434 38.0909 34.0434C38.1171 34.0434 38.1431 34.0373 38.1665 34.0255L38.2751 33.9624Z" fill="white" stroke="#00402A" stroke-width="0.5" stroke-miterlimit="10" stroke-linejoin="round"/>
<path d="M30.8799 29.6924C30.889 29.6893 30.8969 29.6834 30.9025 29.6756C30.9081 29.6678 30.9111 29.6584 30.9111 29.6488C30.9111 29.6392 30.9081 29.6298 30.9025 29.622C30.8969 29.6141 30.889 29.6083 30.8799 29.6052L30.4193 29.3392C30.3959 29.3276 30.3701 29.3215 30.344 29.3215C30.3179 29.3215 30.2921 29.3276 30.2687 29.3392L29.8083 29.6052C29.7993 29.6083 29.7915 29.6142 29.7859 29.622C29.7804 29.6299 29.7774 29.6392 29.7774 29.6488C29.7774 29.6584 29.7804 29.6677 29.7859 29.6755C29.7915 29.6834 29.7993 29.6893 29.8083 29.6924L30.2687 29.9583C30.2921 29.9701 30.318 29.9763 30.3443 29.9763C30.3706 29.9763 30.3964 29.9701 30.4199 29.9583L30.8799 29.6924Z" fill="white" stroke="#00402A" stroke-width="0.5" stroke-miterlimit="10" stroke-linejoin="round"/>
<path d="M34.7557 31.9305C34.7648 31.9273 34.7727 31.9214 34.7783 31.9136C34.7839 31.9058 34.7869 31.8964 34.7869 31.8868C34.7869 31.8772 34.7839 31.8678 34.7783 31.86C34.7727 31.8521 34.7648 31.8462 34.7557 31.8431L31.1238 29.746C31.1005 29.7343 31.0747 29.7281 31.0485 29.7281C31.0224 29.7281 30.9966 29.7343 30.9732 29.746L30.5128 30.0118C30.5036 30.0148 30.4955 30.0207 30.4898 30.0286C30.4841 30.0365 30.481 30.046 30.481 30.0557C30.481 30.0654 30.4841 30.0749 30.4898 30.0828C30.4955 30.0907 30.5036 30.0966 30.5128 30.0996L34.1445 32.1963C34.168 32.2079 34.1939 32.214 34.2201 32.214C34.2464 32.214 34.2723 32.2079 34.2958 32.1963L34.7557 31.9305Z" fill="white" stroke="#00402A" stroke-width="0.5" stroke-miterlimit="10" stroke-linejoin="round"/>
<path d="M35.4575 32.3359C35.4665 32.3327 35.4744 32.3268 35.48 32.319C35.4855 32.3112 35.4885 32.3018 35.4885 32.2922C35.4885 32.2826 35.4855 32.2733 35.48 32.2655C35.4744 32.2576 35.4665 32.2517 35.4575 32.2486L34.9975 31.9827C34.974 31.9709 34.948 31.9648 34.9217 31.9648C34.8954 31.9648 34.8694 31.9709 34.8459 31.9827L34.3857 32.2486C34.3765 32.2517 34.3686 32.2576 34.363 32.2654C34.3574 32.2732 34.3543 32.2826 34.3543 32.2922C34.3543 32.3019 34.3574 32.3113 34.363 32.3191C34.3686 32.3269 34.3765 32.3328 34.3857 32.3359L34.8459 32.6013C34.8693 32.6132 34.8953 32.6194 34.9216 32.6194C34.9479 32.6194 34.9738 32.6132 34.9973 32.6013L35.4575 32.3359Z" fill="white" stroke="#00402A" stroke-width="0.5" stroke-miterlimit="10" stroke-linejoin="round"/>
<path d="M36.1617 32.7422C36.1708 32.739 36.1787 32.7332 36.1843 32.7253C36.1899 32.7175 36.1929 32.7081 36.1929 32.6985C36.1929 32.6889 36.1899 32.6795 36.1843 32.6717C36.1787 32.6638 36.1708 32.6579 36.1617 32.6548L35.702 32.3895C35.6785 32.3777 35.6526 32.3716 35.6264 32.3716C35.6001 32.3716 35.5742 32.3777 35.5508 32.3895L35.0905 32.6548C35.0813 32.6579 35.0734 32.6638 35.0678 32.6716C35.0622 32.6795 35.0592 32.6889 35.0592 32.6985C35.0592 32.7081 35.0622 32.7175 35.0678 32.7254C35.0734 32.7332 35.0813 32.7391 35.0905 32.7422L35.5508 33.008C35.5742 33.0197 35.6001 33.0259 35.6264 33.0259C35.6526 33.0259 35.6785 33.0197 35.702 33.008L36.1617 32.7422Z" fill="white" stroke="#00402A" stroke-width="0.5" stroke-miterlimit="10" stroke-linejoin="round"/>
<path d="M27.7064 30.3074C27.7156 30.3042 27.7235 30.2983 27.7291 30.2904C27.7348 30.2825 27.7378 30.2731 27.7378 30.2634C27.7378 30.2538 27.7348 30.2443 27.7291 30.2365C27.7235 30.2286 27.7156 30.2227 27.7064 30.2195L27.2461 29.9538C27.2227 29.942 27.1969 29.9359 27.1708 29.9359C27.1446 29.9359 27.1188 29.942 27.0955 29.9538L26.6351 30.2195C26.6259 30.2226 26.6178 30.2284 26.6121 30.2363C26.6064 30.2442 26.6034 30.2537 26.6034 30.2634C26.6034 30.2732 26.6064 30.2827 26.6121 30.2905C26.6178 30.2984 26.6259 30.3043 26.6351 30.3074L27.0955 30.5728C27.1188 30.5847 27.1446 30.5909 27.1708 30.5909C27.197 30.5909 27.2228 30.5847 27.2461 30.5728L27.7064 30.3074Z" fill="white" stroke="#00402A" stroke-width="0.5" stroke-miterlimit="10" stroke-linejoin="round"/>
<path d="M26.9997 29.8995C27.0088 29.8964 27.0167 29.8906 27.0224 29.8828C27.028 29.875 27.031 29.8656 27.031 29.856C27.031 29.8464 27.028 29.837 27.0224 29.8292C27.0167 29.8214 27.0088 29.8156 26.9997 29.8126L26.1875 29.3436C26.1641 29.3318 26.1382 29.3257 26.112 29.3257C26.0858 29.3257 26.0599 29.3318 26.0365 29.3436L25.5764 29.6088C25.5673 29.6119 25.5593 29.6178 25.5537 29.6257C25.5481 29.6335 25.5451 29.6429 25.5451 29.6526C25.5451 29.6622 25.5481 29.6716 25.5537 29.6795C25.5593 29.6873 25.5673 29.6932 25.5764 29.6963L26.3886 30.1653C26.412 30.177 26.4378 30.1831 26.464 30.1831C26.4903 30.1831 26.5161 30.177 26.5395 30.1653L26.9997 29.8995Z" fill="white" stroke="#00402A" stroke-width="0.5" stroke-miterlimit="10" stroke-linejoin="round"/>
<path d="M28.4103 30.714C28.4194 30.7109 28.4274 30.705 28.433 30.6971C28.4386 30.6892 28.4417 30.6798 28.4417 30.6701C28.4417 30.6604 28.4386 30.651 28.433 30.6431C28.4274 30.6352 28.4194 30.6293 28.4103 30.6262L27.9501 30.3608C27.9265 30.349 27.9005 30.3428 27.8742 30.3428C27.8478 30.3428 27.8218 30.349 27.7983 30.3608L27.3386 30.6262C27.3295 30.6294 27.3216 30.6353 27.316 30.6432C27.3104 30.651 27.3074 30.6605 27.3074 30.6701C27.3074 30.6798 27.3104 30.6892 27.316 30.6971C27.3216 30.7049 27.3295 30.7109 27.3386 30.714L27.7984 30.9794C27.8219 30.9913 27.8479 30.9976 27.8743 30.9976C27.9007 30.9976 27.9267 30.9913 27.9502 30.9794L28.4103 30.714Z" fill="white" stroke="#00402A" stroke-width="0.5" stroke-miterlimit="10" stroke-linejoin="round"/>
<path d="M29.1141 31.1204C29.1232 31.1172 29.1312 31.1113 29.1367 31.1034C29.1423 31.0956 29.1453 31.0861 29.1453 31.0764C29.1452 31.0668 29.1421 31.0574 29.1364 31.0496C29.1307 31.0417 29.1227 31.0359 29.1135 31.0329L28.6537 30.7675C28.6303 30.7556 28.6044 30.7494 28.5781 30.7494C28.5518 30.7494 28.5259 30.7556 28.5025 30.7675L28.0423 31.0329C28.0332 31.0361 28.0253 31.042 28.0198 31.0498C28.0142 31.0577 28.0112 31.067 28.0112 31.0766C28.0112 31.0863 28.0142 31.0956 28.0198 31.1035C28.0253 31.1113 28.0332 31.1172 28.0423 31.1204L28.5025 31.3862C28.526 31.3979 28.5519 31.404 28.5781 31.404C28.6043 31.404 28.6302 31.3979 28.6537 31.3862L29.1141 31.1204Z" fill="white" stroke="#00402A" stroke-width="0.5" stroke-miterlimit="10" stroke-linejoin="round"/>
<path d="M29.8187 31.527C29.8278 31.5238 29.8357 31.5179 29.8413 31.51C29.8469 31.5021 29.8499 31.4927 29.8499 31.4831C29.8499 31.4734 29.8469 31.464 29.8413 31.4562C29.8357 31.4483 29.8278 31.4424 29.8187 31.4392L29.3583 31.1733C29.3349 31.1618 29.3091 31.1558 29.283 31.1558C29.2569 31.1558 29.2312 31.1618 29.2077 31.1733L28.7475 31.4392C28.7383 31.4423 28.7304 31.4482 28.7247 31.4561C28.7191 31.4639 28.716 31.4734 28.716 31.4831C28.716 31.4928 28.7191 31.5022 28.7247 31.5101C28.7304 31.518 28.7383 31.5239 28.7475 31.527L29.2077 31.7924C29.231 31.8043 29.2568 31.8106 29.283 31.8106C29.3092 31.8106 29.335 31.8043 29.3583 31.7924L29.8187 31.527Z" fill="white" stroke="#00402A" stroke-width="0.5" stroke-miterlimit="10" stroke-linejoin="round"/>
<path d="M30.5233 31.9331C30.5324 31.93 30.5403 31.9241 30.5459 31.9163C30.5514 31.9085 30.5544 31.8991 30.5544 31.8895C30.5544 31.8798 30.5514 31.8705 30.5459 31.8626C30.5403 31.8548 30.5324 31.8489 30.5233 31.8458L30.0631 31.5804C30.0396 31.5686 30.0137 31.5625 29.9874 31.5625C29.9612 31.5625 29.9353 31.5686 29.9118 31.5804L29.4516 31.8458C29.4426 31.8489 29.4347 31.8548 29.4291 31.8627C29.4236 31.8705 29.4206 31.8799 29.4206 31.8895C29.4206 31.8991 29.4236 31.9084 29.4291 31.9162C29.4347 31.9241 29.4426 31.93 29.4516 31.9331L29.9118 32.199C29.9353 32.2107 29.9612 32.2168 29.9874 32.2168C30.0137 32.2168 30.0396 32.2107 30.0631 32.199L30.5233 31.9331Z" fill="white" stroke="#00402A" stroke-width="0.5" stroke-miterlimit="10" stroke-linejoin="round"/>
<path d="M31.227 32.34C31.236 32.3368 31.2437 32.3308 31.2492 32.323C31.2546 32.3152 31.2576 32.3059 31.2576 32.2964C31.2576 32.2869 31.2546 32.2776 31.2492 32.2697C31.2437 32.2619 31.236 32.256 31.227 32.2527L30.7666 31.9873C30.7433 31.9753 30.7175 31.9691 30.6914 31.9691C30.6652 31.9691 30.6394 31.9753 30.6161 31.9873L30.1559 32.2527C30.1467 32.2558 30.1388 32.2617 30.1331 32.2695C30.1275 32.2773 30.1244 32.2867 30.1244 32.2964C30.1244 32.306 30.1275 32.3155 30.1331 32.3233C30.1388 32.3311 30.1467 32.337 30.1559 32.34L30.6161 32.6054C30.6394 32.6173 30.6652 32.6235 30.6914 32.6235C30.7175 32.6235 30.7433 32.6173 30.7666 32.6054L31.227 32.34Z" fill="white" stroke="#00402A" stroke-width="0.5" stroke-miterlimit="10" stroke-linejoin="round"/>
<path d="M31.9308 32.7466C31.9399 32.7435 31.9478 32.7376 31.9534 32.7298C31.9589 32.722 31.9619 32.7126 31.9619 32.703C31.9619 32.6934 31.9589 32.684 31.9534 32.6762C31.9478 32.6684 31.9399 32.6625 31.9308 32.6594L31.4706 32.394C31.4472 32.3821 31.4213 32.3759 31.395 32.3759C31.3688 32.3759 31.3429 32.3821 31.3195 32.394L30.8596 32.6594C30.8504 32.6624 30.8425 32.6683 30.8369 32.6761C30.8312 32.684 30.8282 32.6934 30.8282 32.703C30.8282 32.7126 30.8312 32.722 30.8369 32.7299C30.8425 32.7377 30.8504 32.7436 30.8596 32.7466L31.3195 33.0122C31.3428 33.024 31.3686 33.0302 31.3948 33.0302C31.4209 33.0302 31.4467 33.024 31.4701 33.0122L31.9308 32.7466Z" fill="white" stroke="#00402A" stroke-width="0.5" stroke-miterlimit="10" stroke-linejoin="round"/>
<path d="M32.6351 33.1535C32.6444 33.1505 32.6524 33.1446 32.6582 33.1367C32.6639 33.1288 32.667 33.1193 32.667 33.1096C32.667 33.0998 32.6639 33.0903 32.6582 33.0824C32.6524 33.0745 32.6444 33.0687 32.6351 33.0656L32.1749 32.7999C32.1514 32.7881 32.1255 32.782 32.0992 32.782C32.073 32.782 32.0471 32.7881 32.0236 32.7999L31.5635 33.0656C31.5543 33.0687 31.5463 33.0746 31.5406 33.0825C31.535 33.0904 31.5319 33.0999 31.5319 33.1096C31.5319 33.1193 31.535 33.1287 31.5406 33.1366C31.5463 33.1445 31.5543 33.1504 31.5635 33.1535L32.0236 33.4193C32.0472 33.4309 32.073 33.4368 32.0992 33.4368C32.1255 33.4368 32.1513 33.4309 32.1749 33.4193L32.6351 33.1535Z" fill="white" stroke="#00402A" stroke-width="0.5" stroke-miterlimit="10" stroke-linejoin="round"/>
<path d="M33.3396 33.5597C33.3487 33.5566 33.3566 33.5507 33.3622 33.5429C33.3678 33.5351 33.3708 33.5257 33.3708 33.516C33.3708 33.5064 33.3678 33.497 33.3622 33.4892C33.3566 33.4813 33.3487 33.4755 33.3396 33.4724L32.8792 33.207C32.8558 33.195 32.8299 33.1888 32.8036 33.1888C32.7773 33.1888 32.7514 33.195 32.7279 33.207L32.2678 33.4724C32.2587 33.4755 32.2508 33.4814 32.2452 33.4892C32.2396 33.497 32.2366 33.5064 32.2366 33.516C32.2366 33.5256 32.2396 33.535 32.2452 33.5429C32.2508 33.5507 32.2587 33.5566 32.2678 33.5597L32.7279 33.8255C32.7514 33.8372 32.7773 33.8434 32.8036 33.8434C32.8298 33.8434 32.8557 33.8372 32.8792 33.8255L33.3396 33.5597Z" fill="white" stroke="#00402A" stroke-width="0.5" stroke-miterlimit="10" stroke-linejoin="round"/>
<path d="M34.0434 33.9666C34.0527 33.9635 34.0607 33.9576 34.0664 33.9497C34.0721 33.9418 34.0752 33.9324 34.0752 33.9226C34.0752 33.9129 34.0721 33.9034 34.0664 33.8955C34.0607 33.8876 34.0527 33.8818 34.0434 33.8787L33.5835 33.6133C33.5602 33.6014 33.5344 33.5952 33.5082 33.5952C33.482 33.5952 33.4562 33.6014 33.4329 33.6133L32.9722 33.8787C32.963 33.8818 32.955 33.8877 32.9494 33.8956C32.9437 33.9035 32.9407 33.9129 32.9407 33.9226C32.9407 33.9323 32.9437 33.9418 32.9494 33.9497C32.955 33.9575 32.963 33.9634 32.9722 33.9666L33.4329 34.2324C33.4563 34.2441 33.4821 34.2502 33.5082 34.2502C33.5344 34.2502 33.5601 34.2441 33.5835 34.2324L34.0434 33.9666Z" fill="white" stroke="#00402A" stroke-width="0.5" stroke-miterlimit="10" stroke-linejoin="round"/>
<path d="M34.7476 34.3732C34.7567 34.37 34.7646 34.3641 34.7702 34.3562C34.7758 34.3483 34.7788 34.3389 34.7788 34.3292C34.7788 34.3196 34.7758 34.3102 34.7702 34.3023C34.7646 34.2944 34.7567 34.2885 34.7476 34.2853L34.2871 34.02C34.2637 34.0082 34.2378 34.002 34.2116 34.002C34.1854 34.002 34.1595 34.0082 34.1361 34.02L33.676 34.2853C33.6669 34.2885 33.659 34.2945 33.6534 34.3023C33.6478 34.3102 33.6448 34.3196 33.6448 34.3292C33.6448 34.3389 33.6478 34.3483 33.6534 34.3562C33.659 34.364 33.6669 34.37 33.676 34.3732L34.1361 34.6385C34.1595 34.6505 34.1854 34.6567 34.2116 34.6567C34.2379 34.6567 34.2637 34.6505 34.2871 34.6385L34.7476 34.3732Z" fill="white" stroke="#00402A" stroke-width="0.5" stroke-miterlimit="10" stroke-linejoin="round"/>
<path d="M35.4522 34.7798C35.4613 34.7766 35.4692 34.7707 35.4748 34.7628C35.4804 34.755 35.4834 34.7455 35.4834 34.7359C35.4834 34.7262 35.4804 34.7168 35.4748 34.7089C35.4692 34.7011 35.4613 34.6951 35.4522 34.692L34.9919 34.4266C34.9685 34.4149 34.9427 34.4088 34.9166 34.4088C34.8904 34.4088 34.8647 34.4149 34.8413 34.4266L34.3809 34.692C34.3717 34.6951 34.3638 34.701 34.3581 34.7089C34.3525 34.7167 34.3494 34.7262 34.3494 34.7359C34.3494 34.7456 34.3525 34.755 34.3581 34.7629C34.3638 34.7708 34.3717 34.7767 34.3809 34.7798L34.8413 35.0454C34.8646 35.0573 34.8904 35.0634 34.9166 35.0634C34.9427 35.0634 34.9685 35.0573 34.9919 35.0454L35.4522 34.7798Z" fill="white" stroke="#00402A" stroke-width="0.5" stroke-miterlimit="10" stroke-linejoin="round"/>
<path d="M36.1563 35.1861C36.1653 35.1829 36.1732 35.177 36.1787 35.1692C36.1843 35.1614 36.1873 35.152 36.1873 35.1424C36.1873 35.1328 36.1843 35.1234 36.1787 35.1156C36.1732 35.1078 36.1653 35.1018 36.1563 35.0987L35.6961 34.8334C35.6727 34.8214 35.6468 34.8151 35.6204 34.8151C35.5941 34.8151 35.5682 34.8214 35.5447 34.8334L35.0849 35.0987C35.0757 35.1018 35.0678 35.1076 35.0622 35.1155C35.0566 35.1233 35.0535 35.1327 35.0535 35.1424C35.0535 35.152 35.0566 35.1615 35.0622 35.1693C35.0678 35.1771 35.0757 35.183 35.0849 35.1861L35.5447 35.4519C35.5682 35.4636 35.5942 35.4698 35.6204 35.4698C35.6467 35.4698 35.6726 35.4636 35.6961 35.4519L36.1563 35.1861Z" fill="white" stroke="#00402A" stroke-width="0.5" stroke-miterlimit="10" stroke-linejoin="round"/>
<path d="M28.5761 29.9964C28.5852 29.9934 28.5932 29.9875 28.5988 29.9797C28.6044 29.9718 28.6074 29.9624 28.6074 29.9528C28.6074 29.9432 28.6044 29.9338 28.5988 29.9259C28.5932 29.9181 28.5852 29.9122 28.5761 29.9092L28.1162 29.6436C28.0928 29.6317 28.0669 29.6254 28.0406 29.6254C28.0143 29.6254 27.9884 29.6317 27.965 29.6436L27.5047 29.9092C27.4956 29.9123 27.4877 29.9182 27.4822 29.926C27.4766 29.9338 27.4736 29.9432 27.4736 29.9528C27.4736 29.9624 27.4766 29.9718 27.4822 29.9796C27.4877 29.9874 27.4956 29.9933 27.5047 29.9964L27.965 30.2622C27.9884 30.274 28.0143 30.2801 28.0406 30.2801C28.0669 30.2801 28.0928 30.274 28.1162 30.2622L28.5761 29.9964Z" fill="white" stroke="#00402A" stroke-width="0.5" stroke-miterlimit="10" stroke-linejoin="round"/>
<path d="M27.8719 29.5898C27.881 29.5867 27.8889 29.5809 27.8945 29.5731C27.9001 29.5653 27.9031 29.5559 27.9031 29.5463C27.9031 29.5368 27.9001 29.5274 27.8945 29.5196C27.8889 29.5118 27.881 29.5059 27.8719 29.5029L26.8923 28.9368C26.8689 28.925 26.8431 28.9188 26.817 28.9188C26.7908 28.9188 26.765 28.925 26.7417 28.9368L26.281 29.2028C26.272 29.206 26.2641 29.2119 26.2586 29.2197C26.253 29.2275 26.25 29.2368 26.25 29.2464C26.25 29.256 26.253 29.2654 26.2586 29.2732C26.2641 29.281 26.272 29.2869 26.281 29.29L27.2608 29.8552C27.2842 29.8671 27.3101 29.8734 27.3364 29.8734C27.3627 29.8734 27.3886 29.8671 27.412 29.8552L27.8719 29.5898Z" fill="white" stroke="#00402A" stroke-width="0.5" stroke-miterlimit="10" stroke-linejoin="round"/>
<path d="M29.2802 30.4031C29.2893 30.3999 29.2971 30.394 29.3027 30.3862C29.3083 30.3784 29.3113 30.369 29.3113 30.3594C29.3113 30.3498 29.3083 30.3405 29.3027 30.3326C29.2971 30.3248 29.2893 30.3189 29.2802 30.3158L28.8195 30.05C28.7962 30.0383 28.7704 30.0322 28.7442 30.0322C28.7181 30.0322 28.6923 30.0383 28.669 30.05L28.2084 30.3158C28.1993 30.3189 28.1914 30.3248 28.1858 30.3326C28.1802 30.3404 28.1772 30.3498 28.1772 30.3594C28.1772 30.369 28.1802 30.3784 28.1858 30.3862C28.1914 30.3941 28.1993 30.3999 28.2084 30.4031L28.669 30.6685C28.6923 30.6805 28.7181 30.6867 28.7442 30.6867C28.7704 30.6867 28.7962 30.6805 28.8195 30.6685L29.2802 30.4031Z" fill="white" stroke="#00402A" stroke-width="0.5" stroke-miterlimit="10" stroke-linejoin="round"/>
<path d="M29.9843 30.8094C30.0261 30.7851 30.0261 30.7463 29.9843 30.7224L29.5241 30.4567C29.5006 30.4449 29.4747 30.4388 29.4485 30.4388C29.4223 30.4388 29.3964 30.4449 29.3729 30.4567L28.913 30.7224C28.8713 30.7463 28.8713 30.7852 28.913 30.8094L29.3731 31.0752C29.3966 31.0869 29.4224 31.0931 29.4486 31.0931C29.4748 31.0931 29.5007 31.0869 29.5241 31.0752L29.9843 30.8094Z" fill="white" stroke="#00402A" stroke-width="0.5" stroke-miterlimit="10" stroke-linejoin="round"/>
<path d="M30.6881 31.216C30.6972 31.2129 30.7051 31.207 30.7107 31.1992C30.7162 31.1914 30.7192 31.182 30.7192 31.1724C30.7192 31.1628 30.7162 31.1534 30.7107 31.1456C30.7051 31.1378 30.6972 31.1319 30.6881 31.1288L30.2279 30.863C30.2044 30.8512 30.1785 30.8451 30.1522 30.8451C30.126 30.8451 30.1001 30.8512 30.0766 30.863L29.6163 31.1288C29.6072 31.1319 29.5993 31.1378 29.5937 31.1456C29.588 31.1534 29.585 31.1628 29.585 31.1724C29.585 31.182 29.588 31.1914 29.5937 31.1992C29.5993 31.207 29.6072 31.2129 29.6163 31.216L30.0766 31.4819C30.1001 31.4935 30.126 31.4995 30.1522 31.4995C30.1785 31.4995 30.2043 31.4935 30.2279 31.4819L30.6881 31.216Z" fill="white" stroke="#00402A" stroke-width="0.5" stroke-miterlimit="10" stroke-linejoin="round"/>
<path d="M31.3925 31.6223C31.4016 31.6192 31.4096 31.6134 31.4152 31.6056C31.4208 31.5978 31.4238 31.5884 31.4238 31.5788C31.4238 31.5692 31.4208 31.5598 31.4152 31.552C31.4096 31.5442 31.4016 31.5384 31.3925 31.5354L30.9324 31.2696C30.9089 31.2578 30.883 31.2517 30.8567 31.2517C30.8305 31.2517 30.8046 31.2578 30.7811 31.2696L30.3213 31.5354C30.3122 31.5385 30.3044 31.5443 30.2988 31.5521C30.2932 31.5599 30.2902 31.5692 30.2902 31.5788C30.2902 31.5884 30.2932 31.5977 30.2988 31.6055C30.3044 31.6133 30.3122 31.6192 30.3213 31.6223L30.7811 31.8882C30.8046 31.8999 30.8305 31.906 30.8567 31.906C30.883 31.906 30.9088 31.8999 30.9324 31.8882L31.3925 31.6223Z" fill="white" stroke="#00402A" stroke-width="0.5" stroke-miterlimit="10" stroke-linejoin="round"/>
<path d="M32.0961 32.029C32.1052 32.0259 32.1132 32.02 32.1188 32.0122C32.1244 32.0044 32.1274 31.995 32.1274 31.9853C32.1274 31.9757 32.1244 31.9663 32.1188 31.9585C32.1132 31.9506 32.1052 31.9448 32.0961 31.9417L31.6363 31.6761C31.6128 31.6643 31.5869 31.6581 31.5606 31.6581C31.5343 31.6581 31.5084 31.6643 31.485 31.6761L31.0248 31.9417C31.0157 31.9448 31.0079 31.9507 31.0023 31.9585C30.9967 31.9664 30.9937 31.9757 30.9937 31.9853C30.9937 31.9949 30.9967 32.0043 31.0023 32.0121C31.0079 32.0199 31.0157 32.0258 31.0248 32.029L31.485 32.2946C31.5085 32.3063 31.5344 32.3123 31.5606 32.3123C31.5869 32.3123 31.6128 32.3063 31.6363 32.2946L32.0961 32.029Z" fill="white" stroke="#00402A" stroke-width="0.5" stroke-miterlimit="10" stroke-linejoin="round"/>
<path d="M32.8006 32.4359C32.8099 32.4329 32.818 32.427 32.8237 32.4191C32.8294 32.4112 32.8325 32.4017 32.8325 32.392C32.8325 32.3822 32.8294 32.3727 32.8237 32.3648C32.818 32.3569 32.8099 32.3511 32.8006 32.3481L32.3407 32.0823C32.3172 32.0705 32.2913 32.0644 32.2651 32.0644C32.2388 32.0644 32.2129 32.0705 32.1895 32.0823L31.7291 32.3481C31.7199 32.3511 31.7118 32.357 31.7061 32.3649C31.7004 32.3728 31.6974 32.3822 31.6974 32.392C31.6974 32.4017 31.7004 32.4112 31.7061 32.4191C31.7118 32.427 31.7199 32.4329 31.7291 32.4359L32.1895 32.7017C32.2129 32.7134 32.2388 32.7196 32.2651 32.7196C32.2913 32.7196 32.3172 32.7134 32.3407 32.7017L32.8006 32.4359Z" fill="white" stroke="#00402A" stroke-width="0.5" stroke-miterlimit="10" stroke-linejoin="round"/>
<path d="M33.5047 32.8421C33.5138 32.8391 33.5217 32.8332 33.5273 32.8254C33.5329 32.8176 33.5359 32.8082 33.5359 32.7986C33.5359 32.789 33.5329 32.7796 33.5273 32.7718C33.5217 32.764 33.5138 32.7582 33.5047 32.7551L33.0444 32.4893C33.0211 32.4776 32.9953 32.4715 32.9691 32.4715C32.943 32.4715 32.9172 32.4776 32.8938 32.4893L32.4334 32.7551C32.4243 32.7583 32.4164 32.7641 32.4108 32.772C32.4052 32.7798 32.4022 32.7892 32.4022 32.7988C32.4022 32.8084 32.4052 32.8178 32.4108 32.8256C32.4164 32.8335 32.4243 32.8394 32.4334 32.8425L32.8938 33.108C32.9172 33.1199 32.943 33.1261 32.9691 33.1261C32.9953 33.1261 33.0211 33.1199 33.0444 33.108L33.5047 32.8421Z" fill="white" stroke="#00402A" stroke-width="0.5" stroke-miterlimit="10" stroke-linejoin="round"/>
<path d="M34.2092 33.2488C34.2182 33.2457 34.2261 33.2398 34.2317 33.232C34.2372 33.2243 34.2402 33.2149 34.2402 33.2053C34.2402 33.1958 34.2372 33.1864 34.2317 33.1786C34.2261 33.1708 34.2182 33.165 34.2092 33.1619L33.749 32.896C33.7255 32.8842 33.6996 32.8781 33.6734 32.8781C33.6471 32.8781 33.6212 32.8842 33.5978 32.896L33.1377 33.1619C33.1286 33.165 33.1207 33.1708 33.1151 33.1786C33.1095 33.1864 33.1065 33.1957 33.1065 33.2053C33.1065 33.2149 33.1095 33.2243 33.1151 33.2321C33.1207 33.2399 33.1286 33.2457 33.1377 33.2488L33.5978 33.5146C33.6212 33.5263 33.6471 33.5324 33.6734 33.5324C33.6996 33.5324 33.7255 33.5263 33.749 33.5146L34.2092 33.2488Z" fill="white" stroke="#00402A" stroke-width="0.5" stroke-miterlimit="10" stroke-linejoin="round"/>
<path d="M34.9137 33.6554C34.9228 33.6523 34.9306 33.6464 34.9362 33.6386C34.9418 33.6308 34.9448 33.6214 34.9448 33.6118C34.9448 33.6021 34.9418 33.5928 34.9362 33.5849C34.9306 33.5771 34.9228 33.5712 34.9137 33.5681L34.4536 33.3022C34.4301 33.2905 34.4042 33.2844 34.3779 33.2844C34.3517 33.2844 34.3258 33.2905 34.3023 33.3022L33.8424 33.5681C33.8333 33.5712 33.8253 33.5771 33.8197 33.5849C33.8141 33.5927 33.8111 33.6021 33.8111 33.6118C33.8111 33.6214 33.8141 33.6308 33.8197 33.6386C33.8253 33.6465 33.8333 33.6523 33.8424 33.6554L34.3023 33.9208C34.3257 33.9328 34.3516 33.939 34.3779 33.939C34.4042 33.939 34.4301 33.9328 34.4536 33.9208L34.9137 33.6554Z" fill="white" stroke="#00402A" stroke-width="0.5" stroke-miterlimit="10" stroke-linejoin="round"/>
<path d="M35.6171 34.0622C35.6262 34.0591 35.6341 34.0532 35.6398 34.0454C35.6454 34.0376 35.6484 34.0282 35.6484 34.0185C35.6484 34.0088 35.6454 33.9994 35.6398 33.9916C35.6341 33.9838 35.6262 33.9779 35.6171 33.9748L35.1568 33.709C35.1333 33.697 35.1074 33.6908 35.0811 33.6908C35.0548 33.6908 35.0289 33.697 35.0055 33.709L34.5453 33.9748C34.5363 33.978 34.5285 33.984 34.523 33.9918C34.5175 33.9996 34.5146 34.0089 34.5146 34.0185C34.5146 34.0281 34.5175 34.0374 34.523 34.0452C34.5285 34.053 34.5363 34.059 34.5453 34.0622L35.0055 34.328C35.029 34.3397 35.0549 34.3458 35.0811 34.3458C35.1074 34.3458 35.1333 34.3397 35.1568 34.328L35.6171 34.0622Z" fill="white" stroke="#00402A" stroke-width="0.5" stroke-miterlimit="10" stroke-linejoin="round"/>
<path d="M36.8603 34.7798C36.8695 34.7767 36.8775 34.7708 36.8832 34.763C36.8888 34.7551 36.8918 34.7456 36.8918 34.7359C36.8918 34.7262 36.8888 34.7168 36.8832 34.7089C36.8775 34.701 36.8695 34.6951 36.8603 34.692L35.8613 34.1156C35.838 34.1039 35.8122 34.0978 35.786 34.0978C35.7599 34.0978 35.7341 34.1039 35.7108 34.1156L35.2507 34.3814C35.2092 34.4053 35.2092 34.4442 35.2507 34.4687L36.2492 35.0453C36.2726 35.0572 36.2985 35.0634 36.3248 35.0634C36.3511 35.0634 36.377 35.0572 36.4004 35.0453L36.8603 34.7798Z" fill="white" stroke="#00402A" stroke-width="0.5" stroke-miterlimit="10" stroke-linejoin="round"/>
<path d="M29.6388 29.7971C29.6479 29.794 29.6558 29.7881 29.6613 29.7803C29.6669 29.7725 29.6699 29.7632 29.6699 29.7536C29.6699 29.744 29.6669 29.7346 29.6613 29.7268C29.6558 29.719 29.6479 29.7132 29.6388 29.7101L29.1786 29.4442C29.1553 29.4323 29.1294 29.4261 29.1031 29.4261C29.0769 29.4261 29.051 29.4323 29.0277 29.4442L28.5676 29.7101C28.5584 29.7131 28.5505 29.7189 28.5448 29.7268C28.5392 29.7346 28.5362 29.7439 28.5362 29.7536C28.5362 29.7632 28.5392 29.7726 28.5448 29.7804C28.5505 29.7882 28.5584 29.794 28.5676 29.7971L29.0277 30.0628C29.0511 30.0745 29.0769 30.0807 29.1031 30.0807C29.1294 30.0807 29.1552 30.0745 29.1786 30.0628L29.6388 29.7971Z" fill="white" stroke="#00402A" stroke-width="0.5" stroke-miterlimit="10" stroke-linejoin="round"/>
<path d="M28.9331 29.3899C28.9748 29.3648 28.9748 29.3263 28.9331 29.3021L27.596 28.5304C27.5726 28.5184 27.5467 28.5121 27.5205 28.5121C27.4942 28.5121 27.4684 28.5184 27.445 28.5304L26.9843 28.7957C26.9753 28.7989 26.9675 28.8048 26.9619 28.8127C26.9564 28.8205 26.9535 28.8299 26.9535 28.8394C26.9535 28.849 26.9564 28.8584 26.9619 28.8662C26.9675 28.874 26.9753 28.8799 26.9843 28.8832L28.3221 29.6549C28.3454 29.6667 28.3712 29.6728 28.3973 29.6728C28.4235 29.6728 28.4493 29.6667 28.4726 29.6549L28.9331 29.3899Z" fill="white" stroke="#00402A" stroke-width="0.5" stroke-miterlimit="10" stroke-linejoin="round"/>
<path d="M30.3429 30.2038C30.352 30.2006 30.3599 30.1947 30.3655 30.1869C30.371 30.179 30.374 30.1696 30.374 30.16C30.374 30.1504 30.371 30.141 30.3655 30.1332C30.3599 30.1254 30.352 30.1195 30.3429 30.1163L29.8827 29.851C29.8593 29.839 29.8334 29.8328 29.8071 29.8328C29.7808 29.8328 29.7548 29.839 29.7314 29.851L29.2711 30.1163C29.262 30.1195 29.2542 30.1254 29.2486 30.1332C29.2431 30.1411 29.2401 30.1504 29.2401 30.16C29.2401 30.1696 29.2431 30.179 29.2486 30.1868C29.2542 30.1947 29.262 30.2006 29.2711 30.2038L29.7318 30.4695C29.7552 30.4813 29.7811 30.4874 29.8073 30.4874C29.8335 30.4874 29.8593 30.4813 29.8827 30.4695L30.3429 30.2038Z" fill="white" stroke="#00402A" stroke-width="0.5" stroke-miterlimit="10" stroke-linejoin="round"/>
<path d="M31.0471 30.6101C31.0562 30.607 31.0641 30.6012 31.0697 30.5934C31.0753 30.5856 31.0784 30.5762 31.0784 30.5666C31.0784 30.557 31.0753 30.5476 31.0697 30.5398C31.0641 30.532 31.0562 30.5262 31.0471 30.5232L30.5868 30.2573C30.5634 30.2456 30.5376 30.2394 30.5114 30.2394C30.4851 30.2394 30.4593 30.2456 30.4359 30.2573L29.9758 30.5232C29.9667 30.5263 29.9589 30.5321 29.9533 30.5399C29.9477 30.5477 29.9447 30.557 29.9447 30.5666C29.9447 30.5762 29.9477 30.5855 29.9533 30.5933C29.9589 30.6011 29.9667 30.607 29.9758 30.6101L30.4359 30.8758C30.4592 30.8877 30.4851 30.894 30.5114 30.894C30.5376 30.894 30.5635 30.8877 30.5868 30.8758L31.0471 30.6101Z" fill="white" stroke="#00402A" stroke-width="0.5" stroke-miterlimit="10" stroke-linejoin="round"/>
<path d="M31.7516 31.0167C31.7607 31.0136 31.7686 31.0077 31.7741 30.9998C31.7797 30.992 31.7827 30.9826 31.7827 30.973C31.7827 30.9634 31.7797 30.954 31.7741 30.9462C31.7686 30.9383 31.7607 30.9324 31.7516 30.9293L31.2914 30.664C31.268 30.652 31.2421 30.6458 31.2158 30.6458C31.1895 30.6458 31.1636 30.652 31.1402 30.664L30.6804 30.9293C30.6712 30.9324 30.6633 30.9383 30.6576 30.9461C30.652 30.9539 30.649 30.9633 30.649 30.973C30.649 30.9826 30.652 30.9921 30.6576 30.9999C30.6633 31.0077 30.6712 31.0136 30.6804 31.0167L31.1402 31.2821C31.1636 31.294 31.1895 31.3003 31.2158 31.3003C31.2421 31.3003 31.268 31.294 31.2914 31.2821L31.7516 31.0167Z" fill="white" stroke="#00402A" stroke-width="0.5" stroke-miterlimit="10" stroke-linejoin="round"/>
<path d="M32.456 31.4234C32.4651 31.4203 32.473 31.4144 32.4787 31.4066C32.4843 31.3988 32.4873 31.3894 32.4873 31.3798C32.4873 31.3701 32.4843 31.3607 32.4787 31.3529C32.473 31.3451 32.4651 31.3392 32.456 31.3361L31.9954 31.0702C31.972 31.0585 31.9462 31.0524 31.9201 31.0524C31.8939 31.0524 31.8682 31.0585 31.8448 31.0702L31.3844 31.3361C31.3754 31.3393 31.3676 31.3452 31.362 31.353C31.3565 31.3608 31.3535 31.3702 31.3535 31.3798C31.3535 31.3893 31.3565 31.3987 31.362 31.4065C31.3676 31.4143 31.3754 31.4202 31.3844 31.4234L31.8448 31.6892C31.8683 31.7008 31.8942 31.7068 31.9204 31.7068C31.9466 31.7068 31.9725 31.7008 31.9961 31.6892L32.456 31.4234Z" fill="white" stroke="#00402A" stroke-width="0.5" stroke-miterlimit="10" stroke-linejoin="round"/>
<path d="M33.1603 31.8298C33.1694 31.8266 33.1774 31.8207 33.183 31.8129C33.1886 31.805 33.1917 31.7955 33.1917 31.7859C33.1917 31.7762 33.1886 31.7668 33.183 31.7589C33.1774 31.751 33.1694 31.7451 33.1603 31.7419L32.6996 31.4766C32.6762 31.4649 32.6504 31.4588 32.6243 31.4588C32.5981 31.4588 32.5723 31.4649 32.549 31.4766L32.0888 31.7419C32.0796 31.7451 32.0717 31.751 32.0661 31.7589C32.0605 31.7668 32.0574 31.7762 32.0574 31.7859C32.0574 31.7955 32.0605 31.805 32.0661 31.8129C32.0717 31.8207 32.0796 31.8266 32.0888 31.8298L32.549 32.0951C32.5723 32.107 32.598 32.1132 32.6242 32.1133C32.6504 32.1134 32.6762 32.1073 32.6996 32.0956L33.1603 31.8298Z" fill="white" stroke="#00402A" stroke-width="0.5" stroke-miterlimit="10" stroke-linejoin="round"/>
<path d="M33.8642 32.2369C33.906 32.2118 33.906 32.1732 33.8642 32.149L33.4039 31.8834C33.3807 31.8714 33.3549 31.8651 33.3287 31.8651C33.3024 31.8651 33.2766 31.8714 33.2534 31.8834L32.7932 32.149C32.7513 32.1731 32.7513 32.2118 32.7932 32.2369L33.2534 32.5022C33.2767 32.5139 33.3025 32.5201 33.3287 32.5201C33.3548 32.5201 33.3806 32.5139 33.4039 32.5022L33.8642 32.2369Z" fill="white" stroke="#00402A" stroke-width="0.5" stroke-miterlimit="10" stroke-linejoin="round"/>
<path d="M34.5679 32.6433C34.577 32.6402 34.585 32.6343 34.5906 32.6264C34.5962 32.6185 34.5992 32.6091 34.5991 32.5994C34.5991 32.5897 34.596 32.5803 34.5903 32.5725C34.5846 32.5647 34.5766 32.5589 34.5674 32.5558L34.1077 32.29C34.0842 32.2783 34.0583 32.2722 34.0321 32.2722C34.0058 32.2722 33.9799 32.2783 33.9564 32.29L33.4961 32.5558C33.4871 32.559 33.4792 32.5649 33.4737 32.5728C33.4682 32.5806 33.4652 32.59 33.4652 32.5996C33.4652 32.6092 33.4682 32.6185 33.4737 32.6263C33.4792 32.6342 33.4871 32.6401 33.4961 32.6433L33.9564 32.9086C33.9798 32.9205 34.0058 32.9268 34.0321 32.9268C34.0584 32.9268 34.0843 32.9205 34.1077 32.9086L34.5679 32.6433Z" fill="white" stroke="#00402A" stroke-width="0.5" stroke-miterlimit="10" stroke-linejoin="round"/>
<path d="M35.2721 33.0499C35.2812 33.0469 35.2892 33.041 35.2948 33.0331C35.3004 33.0253 35.3035 33.0159 35.3035 33.0062C35.3035 32.9966 35.3004 32.9872 35.2948 32.9793C35.2892 32.9715 35.2812 32.9656 35.2721 32.9625L34.8124 32.6966C34.7889 32.6849 34.763 32.6788 34.7367 32.6788C34.7105 32.6788 34.6845 32.6849 34.661 32.6966L34.2008 32.9625C34.1917 32.9657 34.1839 32.9716 34.1783 32.9795C34.1728 32.9873 34.1698 32.9966 34.1698 33.0062C34.1698 33.0158 34.1728 33.0252 34.1783 33.033C34.1839 33.0409 34.1917 33.0468 34.2008 33.0499L34.661 33.3153C34.6845 33.327 34.7104 33.3331 34.7367 33.3331C34.763 33.3331 34.7889 33.327 34.8124 33.3153L35.2721 33.0499Z" fill="white" stroke="#00402A" stroke-width="0.5" stroke-miterlimit="10" stroke-linejoin="round"/>
<path d="M35.9767 33.4562C35.9858 33.4531 35.9938 33.4472 35.9994 33.4394C36.005 33.4315 36.0081 33.4221 36.0081 33.4125C36.0081 33.4028 36.005 33.3934 35.9994 33.3856C35.9938 33.3777 35.9858 33.3718 35.9767 33.3688L35.5165 33.1029C35.4931 33.0912 35.4673 33.0851 35.4411 33.0851C35.4149 33.0851 35.389 33.0912 35.3656 33.1029L34.9049 33.3688C34.8959 33.372 34.888 33.3779 34.8825 33.3858C34.8769 33.3936 34.874 33.403 34.874 33.4126C34.8741 33.4222 34.8771 33.4316 34.8827 33.4394C34.8884 33.4472 34.8963 33.4531 34.9054 33.4562L35.3657 33.7218C35.3891 33.7336 35.415 33.7398 35.4412 33.7398C35.4674 33.7398 35.4932 33.7336 35.5166 33.7218L35.9767 33.4562Z" fill="white" stroke="#00402A" stroke-width="0.5" stroke-miterlimit="10" stroke-linejoin="round"/>
<path d="M37.5642 34.3732C37.5733 34.37 37.5813 34.3641 37.5869 34.3562C37.5925 34.3483 37.5955 34.3389 37.5955 34.3293C37.5955 34.3196 37.5925 34.3102 37.5869 34.3023C37.5813 34.2944 37.5733 34.2885 37.5642 34.2853L36.2204 33.5095C36.197 33.4978 36.1711 33.4916 36.1448 33.4916C36.1185 33.4916 36.0926 33.4978 36.0692 33.5095L35.609 33.7754C35.5999 33.7785 35.5921 33.7843 35.5865 33.7921C35.5809 33.7999 35.578 33.8092 35.578 33.8188C35.578 33.8284 35.5809 33.8377 35.5865 33.8455C35.5921 33.8533 35.5999 33.8592 35.609 33.8623L36.9528 34.6385C36.9762 34.6505 37.0021 34.6567 37.0284 34.6567C37.0548 34.6567 37.0807 34.6505 37.1041 34.6385L37.5642 34.3732Z" fill="white" stroke="#00402A" stroke-width="0.5" stroke-miterlimit="10" stroke-linejoin="round"/>
<path d="M31.6215 29.4497C31.6132 29.4525 31.6059 29.4578 31.6008 29.4649C31.5957 29.4719 31.5929 29.4805 31.5929 29.4892C31.5929 29.498 31.5957 29.5065 31.6008 29.5136C31.6059 29.5207 31.6132 29.526 31.6215 29.5287L34.7371 31.3278C34.7583 31.3385 34.7817 31.3441 34.8054 31.3441C34.8292 31.3441 34.8526 31.3385 34.8738 31.3278L37.141 30.0186C37.1492 30.0157 37.1563 30.0104 37.1613 30.0034C37.1663 29.9963 37.1689 29.9879 37.1689 29.9793C37.1689 29.9706 37.1663 29.9622 37.1613 29.9552C37.1563 29.9482 37.1492 29.9428 37.141 29.94L34.0247 28.1406C34.0036 28.13 33.9803 28.1246 33.9568 28.1246C33.9332 28.1246 33.9099 28.13 33.8889 28.1406L31.6215 29.4497Z" fill="#D8CFC7" stroke="#00402A" stroke-width="0.5" stroke-miterlimit="10" stroke-linejoin="round"/>
<path d="M21.988 20.9453C21.988 20.7054 22.1582 20.6073 22.3659 20.7276L33.5296 27.1725C33.6394 27.2443 33.7309 27.3409 33.7965 27.4546C33.8621 27.5682 33.9001 27.6957 33.9075 27.8267V36.6766C33.9075 36.9163 33.7373 37.0147 33.5296 36.8947L22.3659 30.4493C22.2561 30.3775 22.1647 30.2809 22.099 30.1673C22.0334 30.0537 21.9954 29.9263 21.988 29.7953V20.9453Z" fill="white" stroke="#00402A" stroke-width="0.5" stroke-miterlimit="10" stroke-linejoin="round"/>
<path d="M21.7514 7.73668C21.5817 7.83563 21.682 8.05782 21.8382 8.19669C21.9944 8.33556 22.411 8.64799 22.602 8.81289C22.793 8.97779 23.1227 9.26424 23.2442 9.41177C23.3657 9.5593 23.2009 9.61141 23.2009 9.61141C23.2009 9.61141 22.602 9.53327 22.437 9.5593C22.4002 9.56239 22.3646 9.57386 22.3329 9.59284C22.3012 9.61182 22.2743 9.63781 22.2542 9.6688C22.234 9.6998 22.2213 9.73499 22.2169 9.77167C22.2125 9.80836 22.2165 9.84556 22.2287 9.88044C22.2797 10.0331 22.3436 10.1812 22.4197 10.3231C22.4197 10.3231 22.1159 10.4273 22.1333 10.705C22.1393 10.8451 22.1567 10.9844 22.1854 11.1216C22.1854 11.1216 22.0552 11.0175 21.8903 11.2865C21.7254 11.5555 21.708 11.8506 21.8642 11.9548C22.0205 12.059 22.4631 12.3801 22.7148 12.6492C22.9664 12.9183 23.548 13.2393 23.8084 13.4042C24.0688 13.5691 24.2597 13.6646 24.2597 13.6646C24.2597 13.6646 25.0929 14.4805 25.119 14.4458C25.145 14.4111 26.6813 12.8054 26.6813 12.8054L25.9609 12.2325C25.9609 12.2325 25.8915 11.3906 25.7873 10.9219C25.6831 10.4532 25.3103 10.1929 25.0671 9.97591C24.8942 9.81099 24.7399 9.62762 24.607 9.42909C24.607 9.42909 24.6591 8.89964 24.4075 8.85624C24.3393 8.84134 24.2683 8.84562 24.2024 8.8686C24.1365 8.89159 24.0783 8.93238 24.0342 8.98645C24.0342 8.98645 23.5484 8.47427 23.2097 8.22267C22.871 7.97106 22.3504 7.77131 22.1421 7.70188C21.9338 7.63245 21.8557 7.6759 21.7514 7.73668Z" fill="#D9A782" stroke="#00402A" stroke-width="0.5" stroke-miterlimit="10" stroke-linejoin="round"/>
<path d="M26.082 12.2325L24.4629 14.0898L25.4397 14.9928L27.1148 12.9445L26.082 12.2325Z" fill="#FFFEFF" stroke="#00402A" stroke-width="0.5" stroke-miterlimit="10" stroke-linejoin="round"/>
<path d="M26.3515 12.2326L24.6501 14.4469C24.6501 14.4469 28.2173 17.8481 28.6687 18.3515C29.1201 18.8549 31.1423 20.504 31.4548 20.5126C31.7672 20.5213 32.7292 20.3206 33.9413 19.234C35.1534 18.1473 37.0465 16.581 37.0465 16.581L38.177 11.1022L39.238 8.42786C39.238 8.42786 37.4824 8.54091 36.5154 9.5442C35.5485 10.5475 34.1592 13.3259 33.5191 14.2657C32.8789 15.2055 31.9441 16.1724 31.9441 16.1724L26.3515 12.2326Z" fill="#2F6852" stroke="#00402A" stroke-width="0.5" stroke-miterlimit="10" stroke-linejoin="round"/>
<path d="M45.0928 6.87048L44.9385 7.85688C44.9437 8.25183 44.9955 8.64479 45.0928 9.02761C45.2506 9.61999 44.4087 11.8432 43.2379 12.1721C42.067 12.501 40.716 11.9012 40.716 11.9012L40.0625 8.70773L45.0928 6.87048Z" fill="#D9A782" stroke="#00402A" stroke-width="0.5" stroke-miterlimit="10" stroke-linejoin="round"/>
<path d="M36.9158 26.6814L37.5776 27.3525C37.5776 27.3525 37.5978 27.6124 38.7566 28.3709C39.9154 29.1294 40.9404 29.3508 42.5124 29.4397C44.0843 29.5286 45.6216 19.372 45.6216 19.372L46.4611 13.3728L45.1663 9.68358C45.1663 9.68358 42.2632 11.7663 41.0389 11.5905C39.8147 11.4147 40.0621 9.02957 40.0621 9.02957C40.0621 9.02957 38.973 8.86171 38.3237 11.8241C37.6744 14.7865 37.2607 22.2711 37.2607 22.2711L36.9158 26.6814Z" fill="#FFFEFF" stroke="#00402A" stroke-width="0.5" stroke-miterlimit="10" stroke-linejoin="round"/>
<path d="M45.3842 9.02936C45.3842 9.02936 43.323 11.9371 42.5129 14.6225C41.6821 17.3765 41.4089 21.0474 41.3659 23.561C41.3184 26.3431 41.4187 29.9556 42.1543 30.4868C42.89 31.0179 45.0145 32.162 44.9328 33.592C44.8511 35.0221 46.8126 35.5125 46.8126 35.5125C46.8126 35.5125 47.8749 35.0221 47.8749 33.7964C47.8749 32.5706 47.3437 29.7922 47.0987 26.7684C46.8536 23.7447 48.2836 19.373 48.4879 17.9837C48.6923 16.5945 48.9782 12.7946 48.9782 12.7946L45.3842 9.02936Z" fill="#2F6852" stroke="#00402A" stroke-width="0.5" stroke-miterlimit="10" stroke-linejoin="round"/>
<path d="M37.578 27.3526C37.578 27.3526 37.5661 27.1361 37.7392 24.9745C37.9123 22.8128 38.1093 18.3642 38.324 15.8281C38.5387 13.292 39.5073 10.1713 40.0624 9.02938L39.2382 8.42786C39.2382 8.42786 37.8384 9.17622 37.274 11.1302C36.7095 13.0841 36.4186 16.2854 36.4186 17.0338C36.4186 17.7821 37.1253 20.0271 36.8343 21.316C36.5432 22.6049 35.8096 27.6904 35.8096 27.6904L37.578 27.3526Z" fill="#2F6852" stroke="#00402A" stroke-width="0.5" stroke-miterlimit="10" stroke-linejoin="round"/>
<path d="M40.0625 12.166L40.4539 13.6946L41.7088 12.6291L41.0395 11.5905L40.0625 12.166Z" fill="#00A443" stroke="#00402A" stroke-width="0.5" stroke-miterlimit="10" stroke-linejoin="round"/>
<path d="M40.3976 12.6424C39.038 15.993 38.7568 27.3524 38.7568 27.3524L39.295 28.5088L40.0622 27.6904C40.0622 27.6904 40.5362 18.9238 40.6397 17.2344C40.7431 15.5449 40.8853 12.9246 40.8853 12.9246L40.3976 12.6424Z" fill="#00A443" stroke="#00402A" stroke-width="0.5" stroke-miterlimit="10" stroke-linejoin="round"/>
<path d="M41.0391 11.5905C41.0391 11.5905 43.5472 10.64 45.1212 8.6391L45.6217 9.38297C45.6217 9.38297 43.6879 12.0361 41.4964 13.1565L41.0391 11.5905Z" fill="#FFFEFF" stroke="#00402A" stroke-width="0.5" stroke-miterlimit="10" stroke-linejoin="round"/>
<path d="M39.9577 12.6291L41.0391 11.5905C41.0391 11.5905 40.2654 10.3099 40.3988 9.21607L39.7585 9.02936C39.7585 9.02936 39.7176 11.4285 39.9577 12.6291Z" fill="#FFFEFF" stroke="#00402A" stroke-width="0.5" stroke-miterlimit="10" stroke-linejoin="round"/>
<path d="M45.4275 8.83337C45.4275 8.83337 43.3223 11.9371 42.5123 14.6224C41.7234 17.2375 41.4374 20.6784 41.3738 23.1711C41.5827 22.5238 43.5506 16.4734 44.6912 14.664L43.9013 13.6661L45.1662 13.8739L46.2051 9.64616L45.4275 8.83337Z" fill="#003020" stroke="#00402A" stroke-width="0.5" stroke-miterlimit="10" stroke-linejoin="round"/>
<path d="M39.6213 8.7077C38.7508 9.78196 38.0453 11.2048 38.0453 11.2048L38.4404 12.0837L37.6054 12.2815C37.6054 12.2815 37.3812 15.138 37.4734 17.6427C37.5189 18.6962 37.697 19.7398 38.0036 20.7487C38.1048 18.9852 38.2117 17.1476 38.3234 15.828C38.5381 13.292 39.5068 10.1713 40.0618 9.02932L39.6213 8.7077Z" fill="#003020" stroke="#00402A" stroke-width="0.5" stroke-miterlimit="10" stroke-linejoin="round"/>
<path d="M38.4531 5.15403C38.4037 5.33557 38.2353 5.60945 37.9878 5.96586C37.7402 6.32228 37.5324 6.60947 37.6016 6.77775C37.6709 6.94603 38.0571 7.03516 38.1066 7.11436C38.1357 7.1593 38.1544 7.2102 38.1613 7.26333C38.1681 7.31645 38.163 7.37044 38.1462 7.4213C38.1066 7.54011 38.1363 7.59951 38.1957 7.70844C38.2551 7.81737 38.166 7.89657 38.1759 7.98565C38.1858 8.07473 38.3343 8.22326 38.3244 8.40147C38.3145 8.57967 38.3244 9.12428 38.6313 9.3519C38.9383 9.57953 40.3937 9.59944 41.2847 9.44103C42.1758 9.28263 43.0272 8.38161 43.4035 8.09458C43.7798 7.80755 45.0866 7.41143 45.0866 7.41143C45.0866 7.41143 45.3936 6.6194 45.7005 6.16392C46.0075 5.70845 46.3441 4.83722 46.1461 3.53031C45.9481 2.22341 44.9084 1.19372 43.5223 0.817448C42.1362 0.441181 40.6808 1.00558 39.9085 1.461C39.1363 1.91642 38.6511 2.84711 38.4531 3.40158C38.2551 3.95606 38.2551 4.25307 38.3046 4.52035C38.3541 4.78764 38.5026 4.97197 38.4531 5.15403Z" fill="#D9A782" stroke="#00402A" stroke-width="0.5" stroke-miterlimit="10" stroke-linejoin="round"/>
<path d="M44.9381 7.85686C44.9381 7.85686 44.6113 7.55985 44.5816 7.18363C44.5519 6.80742 44.4848 6.418 44.1966 6.19201C43.9084 5.96602 43.5124 6.02215 43.225 6.19201C42.9377 6.36187 42.7894 6.48068 42.4825 6.45074C42.1756 6.4208 41.9676 6.07453 41.9775 5.79732C41.9875 5.5201 41.9676 5.23297 41.5815 4.97555C41.1954 4.71814 41.2053 4.58941 41.1162 4.1736C41.0271 3.75778 40.6806 3.47064 40.0964 3.44091C39.5123 3.41119 38.6905 3.17358 38.5717 2.43102C38.4529 1.68847 39.6509 0.935983 40.3241 0.589496C40.9974 0.243009 42.9775 0.124151 43.8785 0.411289C44.7795 0.698427 45.9277 1.61914 46.2051 2.47057C46.4824 3.322 46.5219 4.27255 46.3834 4.90617C46.245 5.5398 45.2153 6.94602 44.9381 7.85686Z" fill="#615D5A" stroke="#00402A" stroke-width="0.5" stroke-miterlimit="10" stroke-linejoin="round"/>
<path d="M42.483 6.45099C42.7899 6.48071 42.9384 6.36191 43.2255 6.19225C43.5127 6.0226 43.9087 5.96605 44.1971 6.19225C44.4855 6.41846 44.5525 6.80766 44.5821 7.18388C44.6118 7.56009 44.9386 7.85716 44.9386 7.85716C45.1593 7.13192 45.8558 6.09404 46.201 5.38074C44.2816 5.17481 42.2137 4.60946 41.1404 4.28705C41.2077 4.61537 41.2337 4.74363 41.5822 4.97596C41.9683 5.23337 41.9881 5.52051 41.9782 5.79772C41.9683 6.07493 42.176 6.42131 42.483 6.45099Z" fill="#615D5A" stroke="#00402A" stroke-width="0.5" stroke-miterlimit="10" stroke-linejoin="round"/>
<path d="M43.2052 6.5995C43.3839 6.27213 43.6606 6.03515 43.9478 6.08468C44.2349 6.13421 44.6606 6.5005 44.423 6.98564C44.1854 7.47079 43.5122 7.95588 43.3142 8.03514C43.1161 8.11439 42.4923 7.9064 43.2052 6.5995Z" fill="#D9A782" stroke="#00402A" stroke-width="0.5" stroke-miterlimit="10" stroke-linejoin="round"/>
<path d="M41.6125 27.8121C41.6125 27.8121 40.7707 27.7817 39.8211 27.6906C38.8716 27.5995 38.5957 27.842 37.9357 28.0648C37.2757 28.2876 36.6519 28.7925 36.4588 28.9708C36.2658 29.1491 35.8873 29.8322 35.8094 29.9956C35.7314 30.1589 35.8967 30.2849 36.1695 30.2291C36.4424 30.1733 36.6718 29.8384 36.6842 29.8199C36.6966 29.8013 37.2982 29.3671 37.2982 29.3671C37.2982 29.3671 36.8145 29.857 36.6284 30.0865C36.4534 30.3033 36.3055 30.5407 36.1881 30.7935C36.1199 30.9609 36.1137 31.1159 36.2316 31.1717C36.3494 31.2276 36.5664 31.2151 36.7525 31.0725C36.9385 30.9299 37.1555 30.5762 37.3478 30.3904C37.5401 30.2046 37.9867 29.7963 38.0858 29.7801C38.1848 29.764 38.8857 29.4788 38.8857 29.4788C38.8857 29.4788 38.2532 29.9005 38.0361 30.0927C37.8191 30.285 37.354 30.7935 37.0997 31.0229C36.8455 31.2523 36.6842 31.5997 36.7897 31.7237C36.8951 31.8477 36.9881 31.9159 37.199 31.7981C37.4098 31.6803 37.9555 31.1842 38.1353 31.0229C38.3152 30.8616 38.892 30.4276 38.892 30.4276L39.6051 30.1237C39.6051 30.1237 39.5431 30.4089 39.4314 30.4896C39.3198 30.5703 38.7865 31.2711 38.6253 31.4074C38.4641 31.5437 38.0577 31.9719 38.154 32.1205C38.2503 32.2692 38.3866 32.2262 38.7013 32.0836C39.016 31.941 39.5059 31.4138 39.5059 31.4138C39.5059 31.4138 40.0764 30.9363 40.1694 30.8495C40.2624 30.7627 41.5129 30.5547 41.7578 30.434C42.0027 30.3133 42.3337 29.8325 42.3337 29.8325L43.0096 29.5782L42.2406 27.4819L41.6125 27.8121Z" fill="#D9A782" stroke="#00402A" stroke-width="0.5" stroke-miterlimit="10" stroke-linejoin="round"/>
<path d="M41.3232 27.6903L42.2182 30.2277L42.9333 29.9522L42.0922 27.3526L41.3232 27.6903Z" fill="#FFFEFF" stroke="#00402A" stroke-width="0.5" stroke-miterlimit="10" stroke-linejoin="round"/>
<path d="M41.7202 27.3886L42.7434 30.3157C42.7434 30.3157 50.449 26.8912 50.8985 26.6051C51.3479 26.3191 52.4207 25.3794 52.303 24.317C52.1853 23.2546 51.7155 19.2709 51.2252 17.3301C50.7349 15.3893 50.0607 13.3055 48.978 12.7947C47.8952 12.284 46.4586 14.7356 46.4619 15.8592C46.4652 16.9828 47.1597 20.0728 47.5684 21.5207C47.977 22.9685 48.4059 23.8675 48.4059 23.8675L41.7202 27.3886Z" fill="#2F6852" stroke="#00402A" stroke-width="0.5" stroke-miterlimit="10" stroke-linejoin="round"/>
</svg>
