<svg width="70" height="76" viewBox="0 0 70 76" fill="none" xmlns="http://www.w3.org/2000/svg">
<path d="M44.434 55.1196C43.3119 54.4015 42.3782 53.4335 41.7089 52.2942C41.0396 51.1549 40.6535 49.8765 40.582 48.563L40.697 8.95966C40.7062 5.88384 38.4956 2.12699 35.7711 0.579765L35.1893 0.25L0.25 20.1923L0.832398 20.5226C3.55696 22.0676 5.767 25.8261 5.75837 28.9025L5.64338 68.5054C5.71445 69.8189 6.10038 71.0975 6.76975 72.2368C7.43912 73.3762 8.37302 74.3441 9.49537 75.0619L9.71844 75.1884L44.6571 55.2461L44.434 55.1196Z" fill="#F7F9FC" stroke="#00402A" stroke-width="0.5" stroke-linecap="round" stroke-linejoin="round"/>
<path d="M29.4377 21.5652V16.36C29.4889 15.8531 29.6602 15.365 29.938 14.9348C30.2157 14.5046 30.5922 14.1443 31.0372 13.8827L36.3362 10.8775C37.2182 10.3777 37.9357 10.6753 37.9357 11.5416V16.7462C37.8846 17.2532 37.7133 17.7414 37.4355 18.1717C37.1578 18.602 36.7813 18.9624 36.3362 19.2241L31.0372 22.2287C30.1552 22.729 29.4377 22.4314 29.4377 21.5652ZM31.0372 14.8026C30.8527 14.9109 30.6967 15.0603 30.5816 15.2385C30.4664 15.4168 30.3954 15.6191 30.3743 15.8292V21.0344C30.3743 21.393 30.6715 21.5167 31.0372 21.3094L36.3362 18.3042C36.5207 18.1958 36.6767 18.0465 36.7918 17.8682C36.9069 17.6899 36.9779 17.4876 36.9991 17.2776V12.0724C36.9991 11.7132 36.7019 11.5901 36.3362 11.7974L31.0372 14.8026Z" fill="#DCEBE1" stroke="#00402A" stroke-width="0.5" stroke-linecap="round" stroke-linejoin="round"/>
<path d="M33.1148 19.1779C33.0672 19.2111 33.0123 19.2331 32.9546 19.2421C32.8968 19.2512 32.8377 19.247 32.7819 19.2298L31.2952 18.5917L31.9621 17.568L33.0096 18.0197L34.774 13.8975L35.5927 13.8795L33.523 18.7126C33.4489 18.883 33.3298 19.031 33.1781 19.1412C33.1574 19.1525 33.1361 19.166 33.1148 19.1779Z" fill="#00A443" stroke="#00402A" stroke-width="0.5" stroke-linecap="round" stroke-linejoin="round"/>
<path d="M29.4375 32.7049V27.4996C29.4886 26.9927 29.6599 26.5046 29.9376 26.0744C30.2154 25.6442 30.5919 25.2839 31.0369 25.0224L36.336 22.0171C37.2179 21.5174 37.9354 21.815 37.9354 22.6812V27.8859C37.8844 28.3928 37.7131 28.8809 37.4353 29.3111C37.1575 29.7413 36.7811 30.1016 36.336 30.3631L31.0369 33.3684C30.155 33.8692 29.4375 33.5711 29.4375 32.7049ZM31.0369 25.9417C30.8524 26.0501 30.6964 26.1995 30.5812 26.3779C30.4661 26.5563 30.3952 26.7587 30.374 26.9689V32.1735C30.374 32.5327 30.6713 32.6563 31.0369 32.4491L36.336 29.4439C36.5205 29.3354 36.6766 29.186 36.7917 29.0076C36.9068 28.8292 36.9778 28.6268 36.9989 28.4167V23.2126C36.9989 22.8534 36.7016 22.7303 36.336 22.9376L31.0369 25.9417Z" fill="#DCEBE1" stroke="#00402A" stroke-width="0.5" stroke-linecap="round" stroke-linejoin="round"/>
<path d="M33.1146 30.318C33.0669 30.3513 33.0121 30.3733 32.9543 30.3823C32.8966 30.3913 32.8375 30.3871 32.7817 30.3699L31.2949 29.7318L31.9619 28.7081L33.0094 29.1598L34.7738 25.0377L35.5925 25.0196L33.5227 29.8527C33.4485 30.0231 33.3294 30.171 33.1778 30.2813C33.1571 30.2926 33.1358 30.3061 33.1146 30.318Z" fill="#00A443" stroke="#00402A" stroke-width="0.5" stroke-linecap="round" stroke-linejoin="round"/>
<path d="M29.4375 43.845V38.6403C29.4887 38.1334 29.66 37.6452 29.9377 37.215C30.2155 36.7847 30.5919 36.4242 31.0369 36.1625L36.336 33.1579C37.2179 32.6575 37.9354 32.9557 37.9354 33.8213V39.0266C37.8844 39.5335 37.7131 40.0216 37.4353 40.4518C37.1575 40.882 36.7811 41.2423 36.336 41.5039L31.0369 44.5091C30.155 45.0088 29.4375 44.7113 29.4375 43.845ZM31.0369 37.0824C30.8524 37.1909 30.6964 37.3403 30.5812 37.5186C30.4661 37.697 30.3952 37.8994 30.374 38.1095V43.3142C30.374 43.6734 30.6713 43.7965 31.0369 43.5892L36.336 40.5846C36.5205 40.4761 36.6766 40.3267 36.7917 40.1483C36.9068 39.9699 36.9778 39.7676 36.9989 39.5574V34.3527C36.9989 33.9936 36.7016 33.8699 36.336 34.0771L31.0369 37.0824Z" fill="#DCEBE1" stroke="#00402A" stroke-width="0.5" stroke-linecap="round" stroke-linejoin="round"/>
<path d="M33.1146 41.4576C33.0669 41.4907 33.012 41.5126 32.9543 41.5216C32.8966 41.5306 32.8375 41.5265 32.7817 41.5095L31.2949 40.8714L31.9619 39.8476L33.0094 40.2994L34.7738 36.1772L35.5925 36.1597L33.5227 40.9928C33.4485 41.1632 33.3294 41.3111 33.1778 41.4214C33.1571 41.4327 33.1358 41.4463 33.1146 41.4576Z" fill="#00A443" stroke="#00402A" stroke-width="0.5" stroke-linecap="round" stroke-linejoin="round"/>
<path d="M29.4375 54.985V49.7803C29.4886 49.2733 29.6599 48.7851 29.9376 48.3548C30.2154 47.9246 30.5919 47.5642 31.0369 47.3025L36.336 44.2978C37.2179 43.7975 37.9354 44.0951 37.9354 44.9613V50.1665C37.8843 50.6734 37.7129 51.1615 37.4352 51.5917C37.1575 52.0219 36.781 52.3822 36.336 52.6438L31.0369 55.649C30.155 56.1488 29.4375 55.8512 29.4375 54.985ZM31.0369 48.2224C30.8525 48.3308 30.6965 48.48 30.5814 48.6583C30.4663 48.8366 30.3952 49.0389 30.374 49.2489V54.4542C30.374 54.8133 30.6713 54.9364 31.0369 54.7292L36.336 51.7239C36.5205 51.6156 36.6765 51.4663 36.7917 51.288C36.9068 51.1097 36.9778 50.9074 36.9989 50.6974V45.4921C36.9989 45.1335 36.7016 45.0099 36.336 45.2171L31.0369 48.2224Z" fill="#DCEBE1" stroke="#00402A" stroke-width="0.5" stroke-linecap="round" stroke-linejoin="round"/>
<path d="M33.1146 52.5979C33.0669 52.6311 33.012 52.653 32.9543 52.662C32.8966 52.671 32.8375 52.6668 32.7817 52.6498L31.2949 52.0118L31.9619 50.988L33.0094 51.4398L34.7738 47.3176L35.5925 47.2995L33.5227 52.1326C33.4488 52.3032 33.3297 52.4511 33.1778 52.5612C33.1571 52.5725 33.1358 52.5855 33.1146 52.5979Z" fill="#00A443" stroke="#00402A" stroke-width="0.5" stroke-linecap="round" stroke-linejoin="round"/>
<path d="M12.014 28.7761L8.52417 30.7525V29.8326L12.014 27.8562V28.7761Z" fill="#DCEBE1" stroke="#00402A" stroke-width="0.5" stroke-linecap="round" stroke-linejoin="round"/>
<path d="M27.0932 20.0613L14.3621 27.3175V26.3976L27.0937 19.1415L27.0932 20.0613Z" fill="#DCEBE1" stroke="#00402A" stroke-width="0.5" stroke-linecap="round" stroke-linejoin="round"/>
<path d="M21.2785 26.6332L8.67505 33.7776V32.8577L21.2785 25.7139V26.6332Z" fill="#DCEBE1" stroke="#00402A" stroke-width="0.5" stroke-linecap="round" stroke-linejoin="round"/>
<path d="M21.9112 33.8129L8.52295 41.4186V40.4971L21.9112 32.8931V33.8129Z" fill="#DCEBE1" stroke="#00402A" stroke-width="0.5" stroke-linecap="round" stroke-linejoin="round"/>
<path d="M27.0936 30.7253L24.261 32.3544V31.4345L27.0936 29.8054V30.7253Z" fill="#DCEBE1" stroke="#00402A" stroke-width="0.5" stroke-linecap="round" stroke-linejoin="round"/>
<path d="M21.2786 37.297L8.67627 44.4431V43.5238L21.2786 36.3749V37.297Z" fill="#DCEBE1" stroke="#00402A" stroke-width="0.5" stroke-linecap="round" stroke-linejoin="round"/>
<path d="M16.053 48.4796L8.52148 52.7491V51.8293L16.053 47.5597V48.4796Z" fill="#DCEBE1" stroke="#00402A" stroke-width="0.5" stroke-linecap="round" stroke-linejoin="round"/>
<path d="M27.0935 42.0556L18.4041 47.0209V46.101L27.0963 41.1357L27.0935 42.0556Z" fill="#DCEBE1" stroke="#00402A" stroke-width="0.5" stroke-linecap="round" stroke-linejoin="round"/>
<path d="M27.1263 45.3112L8.67529 55.7741V54.8543L27.1263 44.3936V45.3112Z" fill="#DCEBE1" stroke="#00402A" stroke-width="0.5" stroke-linecap="round" stroke-linejoin="round"/>
<path d="M12.0142 62.0058L8.52441 63.9821V63.0623L12.0142 61.0859V62.0058Z" fill="#DCEBE1" stroke="#00402A" stroke-width="0.5" stroke-linecap="round" stroke-linejoin="round"/>
<path d="M27.093 53.2909L14.3613 60.5471V59.6272L27.093 52.3711V53.2909Z" fill="#DCEBE1" stroke="#00402A" stroke-width="0.5" stroke-linecap="round" stroke-linejoin="round"/>
<path d="M25.3812 57.4997L8.67505 67.0095V66.0896L25.3812 56.5798V57.4997Z" fill="#DCEBE1" stroke="#00402A" stroke-width="0.5" stroke-linecap="round" stroke-linejoin="round"/>
<path d="M50.2948 21.6808C50.5734 21.9476 50.7037 22.8228 50.7037 22.8228L47.3228 21.4339L48.5082 20.9615C48.5082 20.9615 50.0158 21.414 50.2948 21.6808Z" fill="#F7B7A9" stroke="#00402A" stroke-width="0.5"/>
<path d="M51.0055 19.6273L49.0279 22.9173L48.716 22.6515L50.6941 19.3619L51.0055 19.6273Z" fill="#00402A" stroke="#00402A" stroke-width="0.5"/>
<path d="M52.2003 65.4453C52.8999 64.8716 55.2155 63.2105 55.4822 61.9186L57.4662 63.3429C57.4662 63.3429 57.6356 64.0903 57.4563 64.7824C57.4563 64.7824 57.2004 65.1193 56.1262 65.3737C55.0799 65.6211 54.3685 66.4481 53.6355 66.773C52.9025 67.0983 51.7203 66.8534 51.5453 66.6828C51.5453 66.6828 51.3223 66.5503 51.3432 66.2728C51.3432 66.2728 51.5016 66.0191 52.2012 65.4453L52.2003 65.4453Z" fill="#00402A" stroke="#00402A" stroke-width="0.5"/>
<path d="M60.1043 68.7066L62.0167 65.5496L64.3089 66.4571C64.3089 66.4571 64.4552 66.8198 64.5327 67.3383C64.6098 67.8563 62.4153 69.9257 61.8824 70.2829C61.3387 70.6475 59.5414 70.7012 59.2752 70.3556C58.9709 69.9608 59.2191 69.3817 60.1043 68.7066Z" fill="#00402A" stroke="#00402A" stroke-width="0.5"/>
<path d="M64.9495 37.0765C64.9654 37.9161 64.6718 39.8827 64.6718 39.8827L64.3201 51.8732C64.3201 51.8732 65.0848 54.5828 64.78 57.8649C64.4775 61.1179 64.0228 64.7914 63.9614 65.3848C63.9732 65.4512 64.0504 65.8564 64.2998 66.4452C64.2765 66.4681 62.5198 69.5785 61.4024 69.2508C60.8857 69.0991 60.4818 68.8757 60.0647 68.7088C60.0695 68.7051 60.0734 68.7014 60.0786 68.6977L61.9985 65.5364C61.9985 65.5364 61.1872 53.5248 60.8432 52.4699C60.4992 51.415 58.7789 40.5817 58.7789 40.5817L54.9423 34.0148L63.8647 33.4387C63.8647 33.4387 64.879 33.2987 64.9499 37.076L64.9495 37.0765Z" fill="#F1B287" stroke="#00402A" stroke-width="0.5"/>
<path d="M55.352 62.22C55.3373 61.8597 55.2412 60.1737 54.5549 52.21C54.1968 48.0527 54.1729 47.7315 54.7073 33.6976L59.642 39.2958L57.8107 50.0613C57.8107 50.0613 58.1218 54.0195 58.0486 55.7806C57.9754 57.5413 57.2385 62.2837 57.2385 62.2837C57.2385 62.2837 57.1593 62.6243 57.4473 63.338C57.3603 63.3645 56.99 64.3102 54.1923 65.5557C53.5229 65.8539 52.8771 65.6595 52.2466 65.3703C52.9516 64.791 54.8483 63.4067 55.3511 62.22L55.352 62.22Z" fill="#F1B287" stroke="#00402A" stroke-width="0.5"/>
<path d="M55.1476 15.2005C55.3618 14.425 56.8765 13.0285 58.714 14.4545C58.714 14.4545 58.5706 15.2551 57.6827 18.0107C56.9231 20.3671 55.3437 26.6499 55.3437 26.6499L55.1513 26.9846C54.2956 26.971 53.4497 26.8851 52.6373 26.5699L52.9426 25.8031C52.9426 25.8031 55.0083 15.7073 55.1476 15.2009L55.1476 15.2005Z" fill="#F7B7A9" stroke="#00402A" stroke-width="0.5"/>
<path opacity="0.07" d="M55.1476 15.2005C55.3618 14.425 56.8765 13.0285 58.714 14.4545C58.714 14.4545 58.5706 15.2551 57.6827 18.0103C56.9231 20.3671 55.3437 26.6499 55.3437 26.6499L55.1508 26.9846C54.2956 26.971 53.4492 26.8851 52.6369 26.57L52.9422 25.8031C52.9422 25.8031 55.0079 15.7073 55.1476 15.2009L55.1476 15.2005Z" fill="black" stroke="#00402A" stroke-width="0.5"/>
<path d="M55.1509 15.2C55.3649 14.4248 56.8783 13.0288 58.7143 14.4543C58.7143 14.4543 58.5709 15.2547 57.6838 18.0089C56.9249 20.3649 55.3469 26.6457 55.3469 26.6457L55.1938 26.9805C50.4949 25.2508 50.6887 21.7787 49.8573 21.4513L53.4565 22.5135C53.4565 22.5135 55.0114 15.7067 55.1509 15.2005L55.1509 15.2Z" fill="#F0FBFF" stroke="#00402A" stroke-width="0.5"/>
<path d="M55.0493 28.8331L54.8995 24.4993C55.3293 24.0635 55.1564 22.0311 55.2534 21.4013C55.6212 19.0088 55.914 17.6569 56.8645 15.3885C57.0929 14.8431 57.2072 14.2706 57.2247 13.708C57.7956 13.6578 58.5778 13.6409 59.4575 13.7451C61.4175 13.9767 63.8081 14.8066 65.1486 17.2116C65.9181 18.5922 64.3938 22.97 64.1776 28.4098C64.1696 28.6205 64.1898 28.8319 64.2399 29.0361L64.4561 32.6252C64.4561 32.6252 64.637 33.2281 64.8417 34.2066L64.8613 34.287L64.8592 34.2889C65.137 35.6369 65.4519 37.6623 65.4212 39.8343L65.2627 45.5178C65.2627 45.5178 63.298 48.3121 57.2119 46.3308C56.4825 46.0934 55.8778 45.8641 55.3567 45.6441C52.5352 44.4527 52.5014 43.5684 52.5014 43.5684L54.5865 31.7574L55.0498 28.833L55.0493 28.8331Z" fill="#5BD38C" stroke="#00402A" stroke-width="0.5"/>
<path d="M55.0864 29.5235C56.008 30.0945 57.5223 30.6895 58.684 30.6839C58.8375 30.6832 58.9993 30.6653 59.1636 30.6416C60.7018 31.0228 62.3291 31.0531 63.6531 30.5258L64.4086 33.6267C64.4086 33.6267 64.5893 34.2299 64.7938 35.208L64.8134 35.2885L64.8112 35.2899C65.0888 36.6375 65.4029 38.6623 65.3727 40.8336L65.5671 49.6417C65.5671 49.6417 63.6046 52.4351 57.5254 50.4544C52.8509 48.9312 52.8203 47.6928 52.8203 47.6928L55.0586 32.4722L55.0869 29.5235L55.0864 29.5235Z" fill="#00402A" stroke="#00402A" stroke-width="0.5"/>
<path d="M59.4965 16.9768C59.8042 16.6637 60.144 16.3831 60.433 16.0514C60.9341 15.4765 61.283 14.901 61.5716 14.2474C62.9374 14.7459 64.2692 15.6376 65.1491 17.2137C65.9201 18.5947 64.2415 26.1575 64.2385 29.0412C64.2385 29.0412 65.1916 35.2931 65.3379 36.2009C65.7094 38.5048 66.4003 48.1596 66.4003 48.1596C66.4003 48.1596 64.1559 50.2865 59.1675 49.4296C58.4097 49.2997 57.8303 48.9628 57.3087 48.7427C57.3283 39.954 56.7405 30.4232 57.3151 22.5585C57.5523 21.7385 59.3349 17.4866 59.4966 16.9772L59.4965 16.9768Z" fill="#F0FBFF" stroke="#00402A" stroke-width="0.5"/>
<path d="M54.6022 31.7506L54.8991 28.8828L54.9016 24.0315C54.9016 24.0315 53.5975 23.1161 54.0311 21.2014L54.7759 18.8532L55.524 16.7847C55.6502 16.1693 55.0809 15.5987 55.1762 15.1869C55.3949 14.243 56.433 13.8696 56.433 13.8696C56.433 13.8696 56.5798 13.7627 57.0671 13.71C57.6473 13.6471 56.6367 18.0447 56.1668 20.3006C55.9774 21.2097 55.6982 21.7162 55.5765 22.619C54.6133 29.7653 55.3518 39.7555 54.1909 47.7992C51.6956 46.6572 52.1449 45.984 52.1449 45.984L54.6026 31.7511L54.6022 31.7506Z" fill="#F0FBFF" stroke="#00402A" stroke-width="0.5"/>
<path d="M57.5761 15.6667C57.3909 15.3539 57.6991 13.8673 59.6408 13.4387C60.8909 13.1627 61.6581 14.272 61.6581 14.272C61.6581 14.272 61.8036 15.4386 59.9235 16.0968C59.4943 16.247 59.2868 16.2617 58.9926 16.2633C58.746 16.2643 57.5867 17.7564 57.5867 17.7564C57.5867 17.7564 57.6685 15.8238 57.5761 15.6671L57.5761 15.6667Z" fill="#F1B287" stroke="#00402A" stroke-width="0.5"/>
<path d="M61.2908 13.5675L62.0915 14.4545C61.8385 16.6455 59.5579 17.5183 59.5579 17.5183L58.9913 16.2639C60.1809 15.9527 61.2908 13.5675 61.2908 13.5675Z" fill="white" stroke="#00402A" stroke-width="0.5"/>
<path d="M57.9843 13.9419L58.0003 14.3394C57.5218 15.0747 57.5773 15.6625 57.5773 15.6625L57.2439 15.4109C57.4911 14.3861 57.7965 13.9472 57.7965 13.9472L57.9843 13.9419Z" fill="white" stroke="#00402A" stroke-width="0.5"/>
<path d="M59.3273 17.0107C61.1175 15.4613 61.4546 13.7603 61.4546 13.7603L62.7611 14.7966L61.8752 16.4445L60.9807 16.6345L61.2493 17.5898L60.2076 18.4442C59.166 19.2986 57.297 22.6549 57.297 22.6549C57.3746 21.3873 58.9009 17.3803 59.3277 17.0107L59.3273 17.0107Z" fill="white" stroke="#00402A" stroke-width="0.5"/>
<path d="M56.8278 14.8171L56.6859 14.6007L57.0596 13.6959L57.4008 13.6726L57.8064 13.9467C57.8064 13.9467 57.4561 14.7997 57.2524 15.4108C57.1355 15.7622 56.9716 17.0356 56.4507 19.1968C56.245 20.0501 55.6975 21.9014 55.6975 21.9014C55.833 19.9263 56.1199 16.0478 56.1199 16.0478L56.8274 14.8172L56.8278 14.8171Z" fill="white" stroke="#00402A" stroke-width="0.5"/>
<path d="M61.2894 13.4974L61.6209 13.6662C61.7167 13.7645 62.6166 14.8649 61.5951 17.9458C60.5848 20.993 61.0021 22.7008 61.0065 22.7181L60.7503 22.7861C60.7312 22.7145 60.2974 20.992 61.3429 17.8641C62.3454 14.867 61.2991 13.5082 61.289 13.497L61.2894 13.4974Z" fill="#0DA9FF" stroke="#00402A" stroke-width="0.5"/>
<path d="M57.2635 13.5429L57.3952 13.6737C57.308 13.6887 55.4429 14.2102 55.6048 17.8382L55.3973 17.8754C55.3628 13.7132 57.2279 13.6124 57.2635 13.5433L57.2635 13.5429Z" fill="#0DA9FF" stroke="#00402A" stroke-width="0.5"/>
<path d="M60.8248 21.8491C61.2954 21.8352 61.6859 22.2083 61.697 22.6823C61.708 23.1562 61.3353 23.5519 60.8647 23.5657C60.3941 23.5796 60.0036 23.2065 59.9926 22.7325C59.9815 22.2586 60.3542 21.8629 60.8248 21.8491Z" fill="#849CBA" stroke="#00402A" stroke-width="0.5"/>
<path d="M60.8308 22.0819C61.1732 22.0718 61.4587 22.3445 61.4667 22.6894C61.4747 23.0342 61.2023 23.3234 60.86 23.3335C60.5176 23.3436 60.2321 23.0709 60.2241 22.726C60.2161 22.3812 60.4885 22.092 60.8308 22.0819ZM60.8538 23.0699C61.0526 23.064 61.2096 22.8973 61.205 22.6971C61.2003 22.4969 61.0357 22.3397 60.837 22.3456C60.6382 22.3514 60.4812 22.5182 60.4858 22.7183C60.4905 22.9185 60.6551 23.0757 60.8538 23.0699Z" fill="#6C818C" stroke="#00402A" stroke-width="0.5"/>
<path d="M54.2919 18.7124C54.5358 18.2577 54.9377 17.9728 55.4854 17.8659C55.9274 17.7813 56.2655 17.875 56.4963 18.1475C57.4043 19.2185 56.2664 22.7946 55.9536 23.7116C55.9892 23.7591 56.0078 23.8132 55.9882 23.8667L55.8516 24.2341C55.8179 24.325 55.7037 24.3666 55.5966 24.327C55.4899 24.2875 55.4308 24.1816 55.4645 24.0908L55.6011 23.7229C55.6257 23.6564 55.6968 23.6298 55.7733 23.6289C56.0851 22.7039 57.1699 19.2472 56.3462 18.276C56.1623 18.0586 55.8893 17.987 55.5223 18.0605C55.0349 18.1554 54.68 18.4056 54.4654 18.8051C53.8464 19.958 54.5138 22.0416 54.7631 22.7282C54.8288 22.7365 54.8878 22.7632 54.9096 22.8226L55.0429 23.19C55.076 23.2811 55.0152 23.387 54.9081 23.4266C54.8011 23.4667 54.6872 23.4251 54.6541 23.3345L54.5208 22.967C54.499 22.9063 54.529 22.8458 54.5765 22.7959C54.3147 22.0853 53.6281 19.9506 54.2924 18.7128L54.2919 18.7124Z" fill="#0DA9FF" stroke="#00402A" stroke-width="0.5"/>
<path d="M46.7824 21.2366L52.6292 23.0167C52.8288 23.0747 52.9881 23.2273 53.0555 23.4255L55.4401 30.0982C55.537 30.3832 55.2756 30.6609 54.989 30.5777L49.1422 28.7976C48.9425 28.7396 48.7833 28.5871 48.7158 28.3884L46.3312 21.7157C46.2344 21.4307 46.4958 21.153 46.7824 21.2362L46.7824 21.2366Z" fill="#0DA9FF" stroke="#00402A" stroke-width="0.5"/>
<path d="M51.6925 25.7623C52.1031 25.6687 52.9288 25.6866 52.9288 25.6866L54.8626 25.5505L56.9546 26.6865L57.034 28.6202L56.6133 28.3024C56.6133 28.3024 55.089 28.3035 54.8005 28.1881C54.512 28.0727 53.91 28.1307 53.7767 27.8871L53.644 27.6438C53.644 27.6438 53.2463 27.4582 53.1468 27.349C53.0721 27.2672 52.9971 27.0441 52.9466 26.9429C52.9466 26.9429 52.5467 26.7546 52.4753 26.6985C52.4062 26.644 52.3633 26.5985 52.3742 26.4543C52.3792 26.3889 52.4509 26.2772 52.4509 26.2772L51.6241 26.2181C51.6241 26.2181 51.4622 26.2022 51.4912 25.9678C51.5018 25.884 51.5253 25.8012 51.6921 25.7632L51.6925 25.7623Z" fill="#F7B7A9" stroke="#00402A" stroke-width="0.5"/>
<path d="M64.41 26.5874C63.4849 24.1406 62.4832 19.9262 62.3961 19.5946C62.2809 19.1548 62.3736 16.915 63.971 16.6125C64.4428 16.5233 64.9139 16.7802 65.1181 17.2179C65.3786 17.7755 65.7901 18.7626 66.2928 20.3347C66.688 21.5695 67.3332 23.5623 67.6373 25.1061C67.7916 25.7156 68.2447 27.6552 68.0483 28.6952C67.993 28.9881 66.6948 29.3102 65.2517 29.5982C62.6648 30.1137 56.7798 28.9683 56.7798 28.9683C56.332 27.3721 57.0843 26.4024 57.0843 26.4024C59.5838 26.7041 61.3799 26.5637 64.41 26.5878L64.41 26.5874Z" fill="#F0FBFF" stroke="#00402A" stroke-width="0.5"/>
<path d="M56.3842 26.3912L53.9051 25.833L53.5999 24.9855L53.8479 24.9786C55.4327 25.532 56.3842 26.3908 56.3842 26.3908L56.3842 26.3912Z" fill="#F7B7A9" stroke="#00402A" stroke-width="0.5"/>
<path fill-rule="evenodd" clip-rule="evenodd" d="M66.0484 14.1568C63.9518 14.0516 63.6619 11.2752 63.5366 8.50866C63.4423 6.42909 62.7911 3.78514 60.2713 3.80483C59.3734 3.81176 58.2798 4.21064 58.2791 5.28161C58.2777 7.57686 59.9612 17.2115 66.0484 14.1568Z" fill="#C66D00" stroke="#00402A" stroke-width="0.5"/>
<path fill-rule="evenodd" clip-rule="evenodd" d="M61.5619 14.2434C61.8186 15.8711 58.6862 16.6201 58.1346 15.5991C58.0302 14.4654 57.9225 13.6494 57.2346 12.444L60.1995 11.0957L60.9495 10.7222C60.6289 12.3478 60.9545 12.8922 61.5623 14.2439L61.5619 14.2434Z" fill="#E8A476" stroke="#00402A" stroke-width="0.5"/>
<path fill-rule="evenodd" clip-rule="evenodd" d="M57.4336 5.36394C57.0407 5.55982 59.7104 5.35904 59.208 5.71494L60.4253 9.43633L60.6557 11.2064L60.7573 11.2536C60.7791 11.3437 60.7954 11.403 60.8273 11.4884C62.9318 10.1175 63.1017 6.68532 61.1277 5.30293C60.1639 4.62804 58.7564 4.7051 57.4336 5.36438L57.4336 5.36394Z" fill="#C66D00" stroke="#00402A" stroke-width="0.5"/>
<path fill-rule="evenodd" clip-rule="evenodd" d="M56.9016 10.7979L58.2134 9.98188L57.7104 7.67079L56.6682 6.01312C54.9044 7.11601 55.8041 10.6339 56.9016 10.7979Z" fill="#C66D00" stroke="#00402A" stroke-width="0.5"/>
<path fill-rule="evenodd" clip-rule="evenodd" d="M58.2733 13.535C59.9235 12.8367 60.4153 12.0103 60.8134 10.3198C61.5377 9.83405 61.8499 9.42899 61.9302 8.97702C62.1202 7.904 61.5525 6.72588 60.7566 6.06779C60.0611 5.49266 59.2429 5.31402 58.3092 5.49083C56.4946 5.83482 55.8116 6.99728 55.6579 8.55725C55.6283 8.85812 55.7892 9.49914 55.8759 9.80216C56.0215 10.3092 55.7845 10.1702 55.8012 10.6892C55.8084 10.9166 55.9606 11.7239 56.2679 12.6017C56.4453 13.1087 56.4678 13.6307 56.7266 13.7127C56.9889 13.7959 57.5196 13.8539 58.2729 13.535L58.2733 13.535Z" fill="#F1B287" stroke="#00402A" stroke-width="0.5"/>
<path fill-rule="evenodd" clip-rule="evenodd" d="M60.9443 9.21048C61.6228 8.88524 61.7165 9.69737 61.6614 10.2033C61.6233 10.5507 61.3406 10.5599 61.2687 10.8391C61.1829 11.1721 60.9512 11.3505 60.7394 11.3703C60.309 11.4105 60.5046 10.742 60.5281 10.4835C60.433 10.0756 60.5138 9.41712 60.9447 9.21046L60.9443 9.21048Z" fill="#E8A476" stroke="#00402A" stroke-width="0.5"/>
<path fill-rule="evenodd" clip-rule="evenodd" d="M60.7438 10.2069C60.8576 9.8552 60.8769 9.41878 61.3594 9.41232C60.9462 9.49676 60.895 9.88546 60.7438 10.2069Z" fill="#DB9669" stroke="#00402A" stroke-width="0.5"/>
<path fill-rule="evenodd" clip-rule="evenodd" d="M55.7211 7.13253C55.7689 7.1255 55.8703 7.1473 55.9354 7.1744C56.4029 7.36923 57.3571 8.32033 58.3849 9.01169C59.3069 9.63193 60.5448 10.0459 61.3038 9.54116C62.895 8.48314 62.4018 5.65134 59.5617 5.0159C57.9247 4.85467 56.134 5.60229 55.7216 7.13252L55.7211 7.13253Z" fill="#C66D00" stroke="#00402A" stroke-width="0.5"/>
</svg>
