<svg width="44" height="85" viewBox="0 0 44 85" fill="none" xmlns="http://www.w3.org/2000/svg">
<path d="M7.63116 25.643C7.63116 25.7102 7.23831 26.7366 7.03215 27.1506C6.826 27.5647 9.33825 30.2498 10.6772 30.0116C12.0162 29.7733 11.8121 27.0829 11.8121 27.0829L7.63169 25.6435L7.63116 25.643Z" fill="#D9A782" stroke="#00402A" stroke-width="0.5" stroke-miterlimit="10" stroke-linejoin="round"/>
<path d="M12.0657 67.2551C12.0657 67.2551 13.035 68.2479 13.8932 68.684C14.7515 69.1201 16.2083 70.1229 16.6074 70.496C17.0066 70.8691 17.3158 71.6457 16.9856 71.9097C16.6553 72.1736 16.2861 72.3421 15.3531 72.2287C14.4202 72.1154 13.5283 72.001 12.8241 71.3188C12.1194 70.6366 11.1627 70.3742 10.6353 70.3364C10.1078 70.2987 8.94236 70.2892 8.88504 69.7739C8.82772 69.2591 8.99654 67.5993 9.33101 67.1192C9.66601 66.639 12.0652 67.2551 12.0652 67.2551H12.0657Z" fill="#00402A" stroke="#00402A" stroke-width="0.5" stroke-miterlimit="10" stroke-linejoin="round"/>
<path d="M10.6349 70.3361C11.1624 70.3739 12.1196 70.6363 12.8237 71.3184C13.5279 72.0006 14.4204 72.1155 15.3528 72.2284C16.2853 72.3417 16.6544 72.1733 16.9852 71.9093C17.0904 71.8253 17.1304 71.6894 17.1235 71.5315C17.1235 71.5315 17.2261 72.0468 16.7743 72.2824C16.3226 72.518 15.1972 72.5495 14.321 72.3291C13.4448 72.1087 12.9384 71.6795 12.5923 71.3751C12.2463 71.0708 11.7919 70.737 11.4943 70.7176L11.2581 71.0104C11.2581 71.0104 10.7827 71.0687 10.0391 70.9863C9.29545 70.9039 8.90102 70.6405 8.90102 70.6405L8.88471 69.7736C8.94204 70.2883 10.1074 70.2983 10.6349 70.3361Z" fill="#00402A" stroke="#00402A" stroke-width="0.5" stroke-miterlimit="10" stroke-linejoin="round"/>
<path d="M7.14903 71.2344C7.14903 71.2344 7.87584 72.5709 8.13827 73.0605C8.40069 73.5496 9.24161 75.0351 9.34679 75.4109C9.45198 75.7866 9.59187 76.293 9.09278 76.5464C8.5937 76.7999 7.42935 76.7999 6.51006 76.3717C5.59078 75.9435 5.36307 75.2886 5.21423 74.5634C5.0654 73.8382 5.01281 73.4278 4.72409 72.912C4.43536 72.3967 4.28654 72.0383 4.28654 72.0383L4.61943 70.4047L7.14956 71.2344H7.14903Z" fill="#00402A" stroke="#00402A" stroke-width="0.5" stroke-miterlimit="10" stroke-linejoin="round"/>
<path d="M4.28606 72.0379C4.28606 72.0379 4.43489 72.3963 4.72361 72.9116C5.01234 73.4269 5.06493 73.8378 5.21376 74.563C5.36259 75.2882 5.59031 75.9431 6.50959 76.3713C7.42887 76.7995 8.59323 76.7995 9.09231 76.5461C9.31792 76.4317 9.41206 76.2648 9.43888 76.0822C9.43888 76.0822 9.6524 76.5025 9.1712 76.7817C8.68947 77.0614 7.46411 77.0042 6.74572 76.7182C6.02786 76.4322 5.58137 75.9515 5.40624 75.4362C5.23112 74.9209 5.03863 74.0818 4.99498 73.9076C4.95133 73.7329 4.82879 73.768 4.82879 73.768L4.28606 72.877C4.28606 72.877 4.22874 72.3186 4.28606 72.0379Z" fill="#00402A" stroke="#00402A" stroke-width="0.5" stroke-miterlimit="10" stroke-linejoin="round"/>
<path d="M9.30677 46.751L11.4004 44.6877C11.4004 44.6877 12.8519 43.8292 13.4683 42.9319C13.4683 42.9319 13.6997 45.1878 13.879 46.623C14.0583 48.0582 14.3497 52.081 13.7512 56.3215C13.1532 60.562 13.1532 65.6826 13.4051 67.9442C13.4051 67.9442 13.9779 68.8316 12.681 69.1066C10.3512 69.6004 8.87342 68.9827 8.87342 68.9827C8.87342 68.9827 9.007 62.8478 8.94547 58.4189C8.88394 53.99 9.30624 46.7521 9.30624 46.7521L9.30677 46.751Z" fill="#2F6852" stroke="#00402A" stroke-width="0.5" stroke-miterlimit="10" stroke-linejoin="round"/>
<path d="M11.3997 44.6878C11.3997 44.6878 11.2172 48.6586 9.99444 49.3796C9.99444 49.3796 9.81721 53.0817 9.52533 55.3423C9.23345 57.6025 8.22056 61.3602 7.85926 63.0662C7.49796 64.7716 7.60157 69.4309 7.68466 70.471C7.76828 71.511 7.84559 72.5191 7.84559 72.5191C7.84559 72.5191 8.04911 73.4385 6.49243 73.2023C4.93575 72.9667 4.08274 71.1259 4.08274 71.1259C4.08274 71.1259 3.28231 64.4946 3.44902 63.0804C3.68568 61.0742 4.31361 59.0581 4.31361 58.0333C4.31361 56.4107 3.64361 49.8104 3.62941 47.3147C3.61573 44.8189 4.81059 42.8637 4.81059 42.8637C4.81059 42.8637 5.81139 44.2643 8.03492 44.4584C10.2584 44.6526 11.3991 44.6888 11.3991 44.6888L11.3997 44.6878Z" fill="#2F6852" stroke="#00402A" stroke-width="0.5" stroke-miterlimit="10" stroke-linejoin="round"/>
<path d="M16.9447 37.5908L17.2386 38.0877C17.2386 38.0877 18.5855 38.2683 18.9931 38.4152C19.4006 38.5621 19.8534 39.025 20.057 39.1945C20.2605 39.3639 20.5098 39.4542 20.4756 39.9622C20.4414 40.4701 20.4982 40.9445 20.3851 41.0348C20.2721 41.125 20.0964 40.9498 20.0964 40.9498C20.0964 40.9498 19.9891 41.5091 19.8871 41.7684C19.7851 42.0281 19.621 42.1918 19.5647 42.2485C19.5079 42.3047 19.3665 42.2485 19.3665 42.2485C19.3665 42.2485 19.3665 42.4799 19.1061 42.4799C19.1061 42.4799 18.9931 42.7171 18.8516 42.7339C18.7101 42.7507 18.6197 42.6379 18.6649 42.4458C18.7101 42.2538 18.8458 42.0843 18.8458 42.0843L18.7664 41.7678L18.5229 41.5249C18.5229 41.5249 17.1703 40.966 16.7853 40.5142C16.4004 40.0624 16.0154 39.2721 16.0154 39.2721L15.155 38.4136L16.9431 37.5892L16.9447 37.5908Z" fill="#D9A782" stroke="#00402A" stroke-width="0.5" stroke-miterlimit="10" stroke-linejoin="round"/>
<path d="M17.2932 37.9781C17.2932 37.9781 16.1667 38.2111 16.0221 39.577L15.309 38.8655C15.309 38.8655 14.7589 38.6598 14.5517 38.4635C14.3445 38.2672 13.0707 36.9963 13.0707 36.9963L12.5527 29.8979L13.1428 26.2299C13.1428 26.2299 14.3955 26.2194 14.8514 27.6767C15.3069 29.1334 15.0171 30.9831 15.1207 32.0678C15.2243 33.1525 15.2969 33.7418 15.4005 33.938C15.5041 34.1343 16.9535 37.1201 17.0261 37.3064C17.0986 37.4922 17.2932 37.9781 17.2932 37.9781Z" fill="#FFFEFF" stroke="#00402A" stroke-width="0.5" stroke-miterlimit="10" stroke-linejoin="round"/>
<path d="M11.4001 45.3478C10.3772 45.798 8.62275 46.1822 7.22858 45.7534C5.8344 45.3247 4.08051 44.3392 4.09208 43.9105C4.10365 43.4818 4.59169 42.4847 4.71949 41.6619C4.84728 40.8391 3.90644 38.4394 3.84807 37.1412C3.79022 35.8429 4.32926 28.9477 4.32926 28.9477L6.79365 27.227C6.79365 27.227 8.8815 29.7495 10.3719 29.6823C11.8623 29.6146 11.5736 27.1845 11.5736 27.1845L12.7006 26.1298L13.1434 26.2316C13.1434 26.2316 13.9554 26.803 14.037 28.1936C14.1185 29.5842 13.8744 30.1866 14.037 31.4502C14.1995 32.7138 14.1989 34.1044 14.0543 34.6497C13.9097 35.1944 13.6309 35.7044 13.6309 35.7044C13.6309 35.7044 13.5063 37.8176 13.3249 38.7548C13.1434 39.692 13.3985 41.2684 13.4453 41.5932C13.4916 41.918 13.9796 43.1696 13.2649 43.9929C12.5507 44.8157 12.6107 44.8168 11.4011 45.3494L11.4001 45.3478Z" fill="#FFFEFF" stroke="#00402A" stroke-width="0.5" stroke-miterlimit="10" stroke-linejoin="round"/>
<path d="M11.4729 30.43L10.6514 31.7975L9.58121 30.6866L10.3722 29.6812L11.4729 30.43Z" fill="#00A443" stroke="#00402A" stroke-width="0.5" stroke-miterlimit="10" stroke-linejoin="round"/>
<path d="M10.3721 31.1908H10.9085C10.9085 31.1908 11.7268 36.0342 11.9361 39.1644C12.1428 42.2562 11.8178 43.9428 11.8178 43.9428L10.9642 45.0784L10.3663 43.8735C10.3663 43.8735 10.9137 36.0626 10.3715 31.1902L10.3721 31.1908Z" fill="#00A443" stroke="#00402A" stroke-width="0.5" stroke-miterlimit="10" stroke-linejoin="round"/>
<path d="M7.10175 26.7029C7.10175 26.7029 7.95845 28.4367 10.3718 29.6814L9.66291 31.1906C9.66291 31.1906 6.8835 29.046 6.48539 27.3185L7.10122 26.7029H7.10175Z" fill="#FFFEFF" stroke="#00402A" stroke-width="0.5" stroke-miterlimit="10" stroke-linejoin="round"/>
<path d="M10.3718 29.6814L11.4725 30.8726C11.4725 30.8726 12.1925 29.0066 11.9727 28.1921L11.1933 27.9733C11.1933 27.9733 10.8956 29.1587 10.3718 29.6809V29.6814Z" fill="#FFFEFF" stroke="#00402A" stroke-width="0.5" stroke-miterlimit="10" stroke-linejoin="round"/>
<path d="M7.70864 40.0631C7.70864 40.0631 8.81778 40.0069 9.06706 39.8826C9.31581 39.7582 10.5159 38.8771 10.8777 38.8546C11.2401 38.832 12.2588 38.8435 12.5754 38.7302C12.8925 38.6174 13.2207 38.3686 13.3111 38.6735C13.4016 38.9784 12.9714 39.3174 12.7226 39.4077C12.4733 39.4979 11.7039 39.5772 11.7039 39.5772C11.7039 39.5772 12.1904 39.7577 12.9829 39.8033C13.7755 39.8484 14.4997 39.8149 14.8168 39.8936C15.1339 39.9728 15.1797 40.2436 15.1565 40.3228C15.1339 40.4021 15.0487 40.4865 15.0487 40.4865C15.0487 40.4865 15.3148 40.5826 15.2128 40.7521C15.1108 40.9216 14.9751 41.057 14.9751 41.057C14.9751 41.057 14.8168 41.2149 14.6753 41.3561C14.5338 41.4972 14.3303 41.5539 14.3303 41.5539C14.3303 41.5539 14.1489 41.9212 13.9454 42.0309C13.7418 42.1411 13.1307 42.1972 12.7231 42.3216C12.3156 42.446 11.512 42.299 11.2632 42.3216C11.014 42.3442 9.4862 42.096 9.12385 42.096H7.70917V40.0631H7.70864Z" fill="#D9A782" stroke="#00402A" stroke-width="0.5" stroke-miterlimit="10" stroke-linejoin="round"/>
<path d="M8.98653 39.8013V42.1837L7.86215 42.2351C7.86215 42.2351 7.36517 42.4313 7.01281 42.4623C6.66098 42.4933 2.2702 42.9892 1.5455 42.7724C0.820804 42.5552 0.220221 41.9869 0.251249 41.2533C0.282277 40.5197 0.447936 37.9368 0.69669 36.6758C0.944917 35.4154 1.58494 31.74 2.0509 30.8721C2.51685 30.0041 4.33017 28.9462 4.33017 28.9462C4.33017 28.9462 5.19844 31.0657 5.38514 32.502C5.57131 33.9382 5.31519 35.4259 4.99439 36.5935C4.67358 37.761 3.80374 39.9204 3.80374 39.9204C3.80374 39.9204 5.23262 39.7966 6.17505 39.7966C7.11747 39.7966 7.93525 39.8999 7.93525 39.8999L8.98706 39.8007L8.98653 39.8013Z" fill="#FFFEFF" stroke="#00402A" stroke-width="0.5" stroke-miterlimit="10" stroke-linejoin="round"/>
<path d="M13.3016 25.2162C13.3016 25.2162 13.3568 25.8113 13.3016 26.0317C13.2464 26.2521 13.147 26.5166 13.147 26.5166C13.147 26.5166 13.4105 27.2549 13.2364 27.3257C13.0623 27.3966 12.8967 27.4155 12.8967 27.4155C12.8967 27.4155 12.8162 27.6285 12.7263 27.9596C12.6364 28.2907 12.5317 28.8155 12.0721 28.9483C11.6124 29.0805 10.2098 28.8591 8.72205 27.3667C7.23479 25.8743 6.80933 24.618 6.79355 23.4242C6.77777 22.2304 7.39151 20.6677 9.14646 20.2279C10.9014 19.7882 12.3419 21.1389 12.8415 21.724C13.3411 22.3091 13.5851 23.5024 13.5772 23.8561C13.5693 24.2092 13.5772 24.7277 13.5772 24.7277L13.3006 25.2157L13.3016 25.2162Z" fill="#D9A782" stroke="#00402A" stroke-width="0.5" stroke-miterlimit="10" stroke-linejoin="round"/>
<path d="M6.88862 21.9876C7.25834 21.0058 8.5021 19.6399 10.4458 19.8361C12.3901 20.0324 13.413 21.4854 13.5781 22.0978C13.7438 22.7102 13.4835 23.5509 12.7987 23.8332C12.114 24.116 10.3591 23.7623 10.2329 23.9665C10.1066 24.1706 9.91784 24.5867 9.67014 24.6067C9.42244 24.6261 9.35932 24.9168 9.35144 25.1367C9.34355 25.3565 9.21786 25.5528 8.97384 25.5764C8.72982 25.6 8.3601 25.0894 8.23389 24.9404C8.1082 24.7914 7.61227 24.8145 7.61227 24.8145L7.21626 25.5203C6.61568 23.9722 6.51839 22.9689 6.88862 21.9876Z" fill="#615D5A" stroke="#00402A" stroke-width="0.5" stroke-miterlimit="10" stroke-linejoin="round"/>
<path d="M8.1638 25.2002C8.07598 24.9205 7.80198 24.7793 7.52641 24.7699C7.25083 24.7604 6.99892 24.9095 7.17247 25.4043C7.3455 25.8992 7.81144 26.5735 8.04284 26.6133C8.27424 26.6532 8.41624 26.0015 8.16433 25.2002H8.1638Z" fill="#D9A782" stroke="#00402A" stroke-width="0.5" stroke-miterlimit="10" stroke-linejoin="round"/>
<path d="M33.1689 82.006C34.1187 81.4172 34.6914 80.8705 34.8113 80.4953C34.9312 80.1195 34.7082 79.5308 34.7082 79.5308C34.7082 79.5308 34.2891 78.8481 34.4605 77.7471C34.6315 76.6462 35.7127 74.0933 35.8069 72.2792C35.9015 70.4651 35.0511 68.3446 35.2168 67.3554C35.3825 66.3663 36.3265 63.8921 36.6099 62.2433C36.8934 60.594 37.2946 58.5207 37.2946 58.5207C37.2946 58.5207 38.9002 57.8375 39.1837 55.3874C39.4672 52.9373 38.7114 51.924 38.7114 51.924H32.1239C32.1239 51.924 31.1794 55.3165 31.1558 58.6618C31.1321 62.0071 31.5097 65.4233 31.628 66.837C31.7458 68.2507 31.9115 70.3471 32.0766 73.1744C32.2418 76.0013 32.2417 77.9334 31.9588 79.0643C31.6753 80.1951 31.2836 81.5867 30.9386 81.7116C30.5941 81.8365 30.034 83.0078 30.7981 82.9863C31.5623 82.9647 33.1684 82.0065 33.1684 82.0065L33.1689 82.006Z" fill="#FFCDA8" stroke="#00402A" stroke-width="0.5" stroke-miterlimit="10" stroke-linejoin="round"/>
<path d="M41.1117 76.8832C41.5209 76.7221 41.8411 76.0651 41.6918 75.6742C41.5424 75.2827 41.2768 74.2626 41.4204 73.2955C41.564 72.3289 42.4181 69.6474 42.245 68.3439C42.072 67.0404 41.6471 66.0665 41.3005 65.2027C40.9539 64.339 40.6394 63.098 40.8598 61.8574C41.0802 60.6164 41.5272 56.2505 41.5272 56.2505C41.5272 56.2505 42.1661 55.1354 41.9142 53.4388C41.6623 51.7428 41.0644 50.2662 41.0644 50.2662L37.2868 54.036L36.6888 58.7005C36.6888 58.7005 36.9565 62.0616 37.4919 63.8048C38.0273 65.548 38.6095 66.3178 38.7983 68.218C38.9871 70.1186 39.4593 73.2126 39.3962 74.3906C39.3331 75.5687 39.3031 76.253 39.3031 76.253C39.3031 76.253 38.864 76.5374 38.7493 76.8061C38.6342 77.0742 38.6216 77.7123 38.8561 77.8357C39.0907 77.959 41.1117 76.8832 41.1117 76.8832Z" fill="#FFCDA8" stroke="#00402A" stroke-width="0.5" stroke-miterlimit="10" stroke-linejoin="round"/>
<path d="M41.1294 61.1866C41.1294 61.1866 40.2954 62.5578 38.2354 63.453C34.197 65.2078 32.4189 64.4133 31.2529 63.5349C31.2529 63.5349 30.9143 60.5296 30.9621 57.9179C31.0095 55.3062 32.0329 51.4834 32.0329 51.4834L40.9086 49.9637C40.9086 49.9637 41.527 50.7708 41.8841 52.4332C42.2412 54.0951 42.1218 55.3776 41.8841 56.7545C41.6464 58.1315 41.13 61.1871 41.13 61.1871L41.1294 61.1866Z" fill="#00A443" stroke="#00402A" stroke-width="0.5" stroke-miterlimit="10" stroke-linejoin="round"/>
<path d="M41.8938 37.0883L42.0032 36.9792C42.0032 36.9792 43.522 37.7322 43.0781 39.7593C42.6343 41.7865 41.2007 45.7929 40.9135 46.5323C40.6269 47.2717 40.3161 47.4622 39.36 47.2476C38.4039 47.0329 41.8933 37.0883 41.8933 37.0883H41.8938Z" fill="#FFFEFF" stroke="#00402A" stroke-width="0.5" stroke-miterlimit="10" stroke-linejoin="round"/>
<path d="M34.7473 79.4919C34.7473 79.4919 35.5188 79.8356 35.6419 80.6469C35.7649 81.4576 35.3873 81.6544 35.0918 82.3507C34.7962 83.0471 34.6321 84.7342 34.6321 84.7342H34.3119C34.3119 84.7342 34.4922 82.8256 34.1804 82.5638C33.8685 82.3019 33.1622 82.6294 32.6205 83.1373C32.0789 83.6453 31.2169 84.2839 30.4044 84.0793C29.5919 83.8746 28.2377 82.3597 28.073 82.1135C27.909 81.8674 28.032 81.6628 28.4754 81.6549C28.9187 81.6465 30.9382 81.7121 30.9382 81.7121C30.9382 81.7121 30.5606 82.1219 30.7494 82.3754C30.9382 82.6294 31.3321 82.7847 31.9889 82.0805C32.6458 81.3763 34.1888 79.6561 34.7473 79.4924V79.4919Z" fill="#00402A" stroke="#00402A" stroke-width="0.5" stroke-miterlimit="10" stroke-linejoin="round"/>
<path d="M41.692 75.6741C41.692 75.6741 42.2668 76.3789 42.3489 76.7798C42.4309 77.1812 42.3983 77.4431 42.1438 77.9347C41.8892 78.4259 41.8892 79.1223 41.8892 79.6056C41.8892 80.0889 41.9387 80.4494 41.9387 80.4494H41.6347C41.6347 80.4494 41.4622 79.18 41.3638 78.8767C41.2655 78.5734 41.0189 78.3934 41.0189 78.3934C41.0189 78.3934 39.8613 78.8845 39.5332 78.8929C39.205 78.9013 38.6549 78.8845 38.4577 78.2375C38.2605 77.5905 38.2526 76.3127 38.2363 76.1815C38.22 76.0504 38.4577 75.8541 38.7943 75.9522C39.1308 76.0504 39.3033 76.2225 39.3033 76.2225V76.9514C39.3033 76.9514 38.7696 77.2793 38.8437 77.4756C38.9173 77.6724 39.3033 77.7049 39.4511 77.4184C39.5989 77.1319 40.1159 75.6736 41.692 75.6736V75.6741Z" fill="#00402A" stroke="#00402A" stroke-width="0.5" stroke-miterlimit="10" stroke-linejoin="round"/>
<path d="M33.8864 40.4115C33.8864 40.4115 33.0208 39.87 32.6353 39.7125C32.2498 39.5556 31.5335 39.532 31.5335 39.532C31.5335 39.532 31.1796 39.3289 31.077 39.3599C30.9745 39.3909 31.0139 39.5871 31.0139 39.5871C31.0139 39.5871 30.4706 39.6107 30.2114 39.6343C29.9516 39.658 29.8964 39.7655 29.9516 39.8841C30.0068 40.0032 30.0694 40.0662 30.4791 40.0583C30.8882 40.0505 31.29 40.0662 31.29 40.0662L31.5377 40.3134C31.5377 40.3134 31.1086 40.3328 30.7625 40.4115C30.4165 40.4902 29.7786 40.7416 29.5898 40.8355C29.401 40.93 29.4562 41.0711 29.5188 41.1577C29.5819 41.2443 29.8806 41.1105 30.2666 41.0165C30.6521 40.9221 30.7073 40.9069 31.0223 40.8675C31.3373 40.8282 31.8333 40.8282 31.8333 40.8282V40.93C31.8333 40.93 31.0465 41.0554 30.7709 41.0947C30.4954 41.1341 29.9132 41.3618 29.787 41.3855C29.6613 41.4091 29.6218 41.7622 29.96 41.7071C30.2987 41.652 30.8809 41.5817 31.1485 41.5502C31.4162 41.5187 31.8648 41.4558 31.8648 41.4558L31.9043 41.6678C31.9043 41.6678 31.4793 41.8247 31.2195 41.8798C30.9597 41.9349 30.275 42.0131 30.3223 42.1862C30.3697 42.3589 30.9755 42.3982 31.3926 42.3589C31.8096 42.3195 33.4625 42.3195 33.4625 42.3195L33.8875 40.411L33.8864 40.4115Z" fill="#FFCDA8" stroke="#00402A" stroke-width="0.5" stroke-miterlimit="10" stroke-linejoin="round"/>
<path d="M38.2088 37.5449L40.1183 36.7562C40.1183 36.7562 40.9282 36.6019 41.5472 36.7562C42.1662 36.9105 42.9845 37.8151 43.0729 38.808C43.1612 39.8008 42.1131 41.4517 41.5188 42.7609C40.9251 44.0697 40.1625 46.4158 40.4591 47.4407C40.7563 48.4655 41.2501 49.863 41.8233 51.6644C41.8233 51.6644 40.3776 53.0388 38.3113 53.7598C36.245 54.4808 32.3549 54.2751 31.4251 53.4507L32.0147 50.1075L32.2003 45.3417C32.2003 45.3417 31.1238 44.6994 31.1117 43.4526C31.0991 42.2058 31.9742 41.8631 32.661 41.0487C33.3478 40.2343 34.5264 39.5563 34.5264 39.5563C34.5264 39.5563 36.0978 37.9358 38.2077 37.5459L38.2088 37.5449Z" fill="#FFFEFF" stroke="#00402A" stroke-width="0.5" stroke-miterlimit="10" stroke-linejoin="round"/>
<path d="M33.445 33.0423C33.445 33.0423 33.1841 33.3661 33.0574 33.513C32.9311 33.6599 32.7413 33.8955 32.7918 33.9795C32.8423 34.0635 33.2635 34.3117 33.2635 34.3117C33.2635 34.3117 33.2761 34.4796 33.2341 34.6522C33.192 34.8243 33.2046 34.8495 33.2593 34.9256C33.314 35.0012 33.3708 35.0579 33.3708 35.0579C33.3708 35.0579 33.293 35.1775 33.3771 35.3244C33.4613 35.4714 33.5412 35.4924 33.5412 35.4924C33.5412 35.4924 33.4907 35.8959 33.6253 36.0764C33.76 36.2569 34.0382 36.4883 34.4889 36.4925C34.9396 36.4967 35.5165 36.5303 35.5922 36.5597C35.668 36.5891 35.9882 36.9087 36.0193 37.3169C36.0508 37.7252 35.7989 39.194 35.7989 39.194C35.7989 39.194 37.6327 39.6967 38.7818 38.9505C39.9309 38.2043 39.9546 37.011 39.9546 37.011C39.9546 37.011 39.0653 35.9431 39.1521 35.3302C39.2389 34.7173 39.6717 34.3169 39.8763 33.7754C40.0808 33.2333 40.3958 31.647 39.6401 30.524C38.8844 29.401 37.6254 29.2126 36.2796 29.4089C34.9338 29.6051 34.1544 30.0291 33.8084 30.7832C33.4623 31.5373 33.4623 32.7227 33.4623 32.7227L33.445 33.0423Z" fill="#FFCDA8" stroke="#00402A" stroke-width="0.5" stroke-miterlimit="10" stroke-linejoin="round"/>
<path d="M37.8493 42.3646C35.8419 42.0912 36.1259 40.1202 36.1259 40.1202C35.975 40.7788 36.0539 41.7852 36.0539 41.7852C35.2277 40.2178 36.1391 37.5909 36.382 36.8394C36.6255 36.0875 36.9121 34.7945 36.7239 34.3075C36.5351 33.82 35.8283 34.1742 35.8283 34.1742C33.7935 34.4439 33.4985 31.3668 33.4985 31.3668C33.7299 30.4511 34.2253 29.0301 37.1246 28.9199C40.0239 28.8091 40.8817 31.5625 40.7444 32.7931C40.6072 34.0236 40.9779 36.3021 41.7926 37.318C42.6072 38.3339 41.9051 39.9051 41.9051 39.9051C41.9051 39.9051 42.2206 38.7695 41.882 38.0941C41.882 38.0941 42.0161 39.9386 41.0863 40.8627C41.0863 40.8627 41.1909 40.6124 41.2682 40.286C41.2682 40.286 40.6498 41.377 39.7631 41.7622C38.8764 42.1473 38.0229 42.2759 37.4317 42.0712L37.8488 42.3651L37.8493 42.3646Z" fill="#C66D00" stroke="#00402A" stroke-width="0.5" stroke-miterlimit="10" stroke-linejoin="round"/>
<path d="M35.9107 34.3424C36.0601 33.9577 36.4382 33.9577 36.6822 34.0202C36.9262 34.0826 37.115 34.452 36.8631 34.9705C36.6112 35.4889 35.9423 35.6458 35.8318 35.4102C35.7214 35.1746 35.9107 34.3424 35.9107 34.3424Z" fill="#F5C9C6" stroke="#00402A" stroke-width="0.5" stroke-miterlimit="10" stroke-linejoin="round"/>
<path d="M28.7553 48.6495C28.7553 48.6495 26.8583 48.0056 26.5123 47.7778C26.1663 47.5501 25.7802 46.859 25.4105 46.5683C25.0408 46.2776 24.5686 45.9716 24.3561 45.7675C24.1436 45.5634 23.5767 45.0922 23.3879 45.3514C23.1991 45.6106 23.5062 45.7203 23.6398 45.8777C23.7734 46.0346 24.2141 46.5924 24.2456 46.6942C24.2772 46.796 24.3871 46.9928 24.1789 46.8947C23.9706 46.7966 23.3879 46.4744 23.3879 46.4744C23.3879 46.4744 23.1812 45.9087 23.0787 45.6652C22.9766 45.4217 22.9393 45.3745 22.8446 45.4217C22.75 45.4689 22.7973 45.9165 22.8446 46.2382C22.892 46.5599 23.0019 46.7331 23.2696 47.0626C23.5373 47.3922 24.1115 47.8949 24.5049 48.1226C24.8983 48.3503 26.9998 49.6932 27.3616 49.9524C27.724 50.2116 29.5263 51.4606 30.5965 51.9706C31.6667 52.4812 32.556 52.7793 32.6033 52.646C32.6507 52.5127 31.6667 49.8585 31.2497 49.5914C30.8326 49.3243 29.318 48.8452 28.7548 48.6489L28.7553 48.6495Z" fill="#FFCDA8" stroke="#00402A" stroke-width="0.5" stroke-miterlimit="10" stroke-linejoin="round"/>
<path d="M34.5275 39.5547C34.5275 39.5547 35.8544 40.8446 35.7955 42.7279C35.7366 44.6113 35.6182 45.5369 35.0434 47.605C34.4686 49.6725 33.097 52.6153 32.8315 52.821C32.5659 53.0273 30.9882 52.3797 30.2656 52.0119C29.543 51.644 25.2374 48.7012 25.2374 48.7012C25.2374 48.7012 25.0901 48.2305 25.3552 47.8773C25.6208 47.5242 26.3875 47.4948 26.3875 47.4948C26.3875 47.4948 26.9776 47.8479 27.8475 48.157C28.7173 48.4661 31.1354 49.2753 31.1354 49.2753C31.1354 49.2753 31.9911 46.0234 32.0941 45.1407C32.1972 44.2581 32.3008 41.7891 32.6989 40.9637C33.097 40.1383 34.5275 39.5547 34.5275 39.5547Z" fill="#FFFEFF" stroke="#00402A" stroke-width="0.5" stroke-miterlimit="10" stroke-linejoin="round"/>
<path d="M7.71608 1.45887L8.63086 0.926871C8.13395 0.64012 7.68221 0.613709 7.3547 0.806134L6.43993 1.33813C6.76744 1.14948 7.21917 1.17212 7.71608 1.45887Z" fill="white" stroke="#00402A" stroke-width="0.5" stroke-linejoin="round"/>
<path d="M24.0159 21.901L24.9307 21.3653L24.5768 20.8408L23.662 21.3728L24.0159 21.901Z" fill="white" stroke="#00402A" stroke-width="0.5" stroke-linejoin="round"/>
<path d="M29.7456 30.3746L31.1336 29.3994L29.368 23.2154L27.9801 24.1906L29.7456 30.3746Z" fill="#D8CFC7" stroke="#00402A" stroke-width="0.5" stroke-linejoin="round"/>
<path d="M27.871 23.8064L28.782 23.2744L24.5771 20.8408L23.6623 21.3728L27.871 23.8064Z" fill="white" stroke="#00402A" stroke-width="0.5" stroke-linejoin="round"/>
<path d="M27.9798 24.1918L28.8945 23.6598L28.7816 23.2749L27.8706 23.8069L27.9798 24.1918Z" fill="white" stroke="#00402A" stroke-width="0.5" stroke-linejoin="round"/>
<path d="M30.7242 25.1649L31.639 24.6329C31.9627 24.4442 32.1623 24.0481 32.166 23.4821L31.2512 24.0141C31.2512 24.5801 31.048 24.9762 30.728 25.1649H30.7242Z" fill="white" stroke="#00402A" stroke-width="0.5" stroke-linejoin="round"/>
<path d="M31.2703 17.1586L32.1851 16.6266C32.1851 15.4909 31.3832 14.0911 30.3969 13.5214L29.4822 14.0534C30.4685 14.6231 31.2741 16.0229 31.2703 17.1586Z" fill="white" stroke="#00402A" stroke-width="0.5" stroke-linejoin="round"/>
<path d="M7.99763 0.372167C8.32514 0.183515 8.77688 0.206154 9.27379 0.492905L31.04 13.0873C32.0263 13.6571 32.8319 15.0569 32.8281 16.1925L32.8093 23.0519C32.8093 23.6179 32.606 24.0141 32.2823 24.2027L30.7241 25.1656C31.0478 24.9769 31.2473 24.5808 31.2473 24.0148L31.2661 17.1554C31.2661 16.0197 30.4643 14.6199 29.478 14.0502L7.71181 1.45576C7.2149 1.16901 6.76316 1.1426 6.43565 1.33502L7.35042 0.803024L7.99763 0.372167Z" fill="#D8CFC7" stroke="#00402A" stroke-width="0.5" stroke-linejoin="round"/>
<path d="M5.91651 2.48525C5.91651 1.34957 6.72963 0.885483 7.71593 1.45899L29.4821 14.0534C30.4684 14.6231 31.274 16.0229 31.2703 17.1586L31.2514 24.018C31.2514 25.1537 30.4383 25.6178 29.452 25.0481L27.9801 24.1953L29.7456 30.3794L24.0161 21.9051L7.68205 12.4536C6.69576 11.8839 5.89016 10.4841 5.89392 9.34842L5.91275 2.4928L5.91651 2.48525Z" fill="white" stroke="#00402A" stroke-width="0.5" stroke-linejoin="round"/>
<path d="M27.1946 17.5266L23.4387 15.4779V13.7707L27.1946 15.8193V17.5266Z" fill="#00A443" stroke="#00402A" stroke-width="0.5" stroke-linejoin="round"/>
<path d="M27.1946 19.1735V20.9072L12.5467 12.4936V10.7664L27.1946 19.1735Z" fill="#00A443" stroke="#00402A" stroke-width="0.5" stroke-linejoin="round"/>
</svg>
