<svg width="62" height="78" viewBox="0 0 62 78" fill="none" xmlns="http://www.w3.org/2000/svg">
<path fill-rule="evenodd" clip-rule="evenodd" d="M42.2649 35.4869C30.8522 49.9669 15.1584 40.3759 1.89136 55.4913V20.2553C15.1592 5.13894 30.853 14.7308 42.2649 0.25L43.7191 0.970546L42.2649 35.4869Z" fill="#FF9C1A" stroke="#00402A" stroke-width="0.5" stroke-linejoin="round"/>
<path fill-rule="evenodd" clip-rule="evenodd" d="M43.7195 36.2084C32.3068 50.6883 16.613 41.0973 3.34595 56.2137V20.9759C16.613 5.85958 32.3068 15.4514 43.7195 0.970642V36.2076V36.2084Z" fill="#FFCD52" stroke="#00402A" stroke-width="0.5" stroke-linejoin="round"/>
<path fill-rule="evenodd" clip-rule="evenodd" d="M5.10769 18.3999C5.10769 18.3645 5.10769 73.701 5.10769 73.701C5.10769 74.3651 4.01959 74.9047 2.67921 74.9047H2.66392C2.14408 74.903 0.250732 74.3626 0.250732 73.701C0.250732 73.701 0.250732 18.3637 0.250732 18.3999C0.250732 19.064 1.33883 19.6036 2.67921 19.6036C4.01959 19.6036 5.10769 19.064 5.10769 18.3999Z" fill="#D8CFC7" stroke="#00402A" stroke-width="0.5" stroke-linejoin="round"/>
<path fill-rule="evenodd" clip-rule="evenodd" d="M2.67848 17.1964C4.01885 17.1964 5.10696 17.736 5.10696 18.4001C5.10696 19.0643 4.01885 19.6038 2.67848 19.6038C1.3381 19.6038 0.25 19.0643 0.25 18.4001C0.25 17.736 1.3381 17.1964 2.67848 17.1964Z" fill="#FFFAF6" stroke="#00402A" stroke-width="0.5" stroke-linejoin="round"/>
<path fill-rule="evenodd" clip-rule="evenodd" d="M29.7748 22.3123C38.6801 22.4498 40.6328 26.0343 42.1721 30.7255C49.1208 51.9051 52.4548 56.959 53.8372 60.1135C55.0351 62.8484 56.4249 67.5308 61.6108 74.1313C54.9892 73.3061 52.0012 67.9936 46.0749 65.5405C43.2853 64.3862 38.6926 64.5286 36.7339 63.977C33.0315 62.9338 31.6118 64.5388 30.2464 43.4914C29.8336 37.1304 29.4473 35.3459 28.5076 31.9906C26.7658 25.7681 31.221 23.4032 29.7748 22.3127V22.3123Z" fill="#007ACB" stroke="#00402A" stroke-width="0.5" stroke-linejoin="round"/>
<path fill-rule="evenodd" clip-rule="evenodd" d="M29.7748 22.3123C38.6801 22.4498 40.6327 26.0343 42.1721 30.7255C49.1208 51.9051 52.4548 56.959 53.8372 60.1135C55.0351 62.8484 56.4249 67.5308 61.6108 74.1313C56.8606 73.5392 53.9802 70.6379 50.5435 68.1395C39.8336 59.6228 39.7793 41.7557 38.2499 35.38C37.3631 31.6823 32.3092 29.9661 30.8521 30.9576C29.1018 32.1491 30.3147 35.3873 29.8242 37.9672C29.4946 35.0367 28.6876 33.8209 28.2693 30.9313C27.9313 28.5981 28.3147 27.2287 28.3466 27.0995C29.0196 24.3791 30.7554 23.0521 29.7743 22.3123H29.7748Z" fill="#007ACB" stroke="#00402A" stroke-width="0.5" stroke-linejoin="round"/>
<path fill-rule="evenodd" clip-rule="evenodd" d="M29.7267 22.2752C33.4999 21.8343 35.9769 22.9224 36.4042 23.1028C37.9106 23.7378 39.3274 24.2957 40.455 25.3053C41.9774 26.6679 42.4281 28.7069 42.9301 30.2188C45.4067 37.6727 46.7671 44.1186 53.9306 56.7933C57.4974 63.104 57.4027 67.5596 61.6001 74.3634C55.4854 68.8003 51.9465 63.3893 50.0687 60.1774C46.8344 54.6445 45.5687 50.5717 42.3713 35.5678C41.8987 33.3493 41.0502 29 39.8852 27.2672C39.4086 26.5586 38.6085 25.5613 37.7312 24.8024C36.1105 23.3998 32.9505 23.0487 30.7755 22.5337L29.7267 22.2757V22.2752Z" fill="#0792E5" stroke="#00402A" stroke-width="0.5" stroke-linejoin="round"/>
<path fill-rule="evenodd" clip-rule="evenodd" d="M34.4445 22.4727C34.8523 22.6063 35.9774 22.9224 36.4046 23.1023C37.9111 23.7373 39.3279 24.2952 40.4555 25.3048C41.9779 26.6674 42.4286 28.7064 42.9306 30.2183C45.4071 37.6722 46.7676 44.1181 53.9311 56.7928C57.4979 63.104 57.4032 67.5596 61.6006 74.3634C56.2038 67.6245 54.2855 61.6004 52.4077 58.3885C49.1734 52.8556 46.5866 49.5349 43.3897 34.531C42.9166 32.3124 41.5492 27.9734 40.3842 26.2406C39.5702 25.0307 36.1833 23.0511 34.4445 22.4727Z" fill="#3CC2FF" stroke="#00402A" stroke-width="0.5" stroke-linejoin="round"/>
<path fill-rule="evenodd" clip-rule="evenodd" d="M45.9747 55.7091C47.2364 55.6408 46.8835 55.0897 47.7085 54.9883C48.2668 54.9195 48.8376 55.1775 49.044 55.7169C49.2783 56.3275 49.0963 57.0073 49.2279 57.7481C49.6711 60.2383 51.3346 60.0427 50.0525 61.8779C49.532 62.6231 49.0141 63.0108 48.3735 63.5015C47.7693 63.9648 47.3436 63.9267 47.4912 63.1279C47.6118 62.4744 47.6417 62.0516 47.6611 61.4254C47.4961 60.309 46.7693 58.6567 45.5161 58.3724C42.8585 57.5457 40.2399 56.8303 37.6098 56.0812C36.4208 55.7427 33.7454 54.7215 32.3067 54.1738C29.9657 53.2823 32.7494 50.4127 36.1915 50.9994C39.1317 51.5003 43.701 55.832 45.9747 55.7091Z" fill="#D8CFC7" stroke="#00402A" stroke-width="0.5" stroke-linejoin="round"/>
<path fill-rule="evenodd" clip-rule="evenodd" d="M49.0353 55.711C49.8703 57.417 49.7372 57.2902 51.137 58.6674L50.9445 58.9727C50.2212 58.3436 49.5044 57.7081 48.786 57.0736L48.954 56.5864L49.0353 55.7115V55.711Z" fill="#00402A" stroke="#00402A" stroke-width="0.5" stroke-linejoin="round"/>
<path fill-rule="evenodd" clip-rule="evenodd" d="M49.0659 55.7778C49.9009 57.4837 49.7374 57.2906 51.1367 58.6674L51.031 58.8342C50.6487 58.5147 49.1233 57.0672 48.9538 56.5859L49.0654 55.7778H49.0659Z" fill="#00402A" stroke="#00402A" stroke-width="0.5" stroke-linejoin="round"/>
<path fill-rule="evenodd" clip-rule="evenodd" d="M40.4413 52.1177C42.4692 53.6422 44.7618 55.7866 45.9752 55.7189C47.2369 55.6481 46.884 55.0975 47.709 54.9946C48.2673 54.9249 48.8376 55.1819 49.0445 55.7213C49.2788 56.3314 49.0968 57.0112 49.2284 57.7525C49.6716 60.2417 51.3351 60.0427 50.053 61.8809C49.5325 62.627 49.0146 63.0157 48.374 63.5073C47.7698 63.9716 47.3441 63.9341 47.4916 63.1352C47.6123 62.4812 47.6427 62.0589 47.6616 61.4327C47.4966 60.3168 46.7698 58.6655 45.5166 58.3831C43.3456 57.7116 41.201 57.1146 39.0544 56.5128H39.0534L39.0086 56.4996L38.9861 56.4933L38.9662 56.4879L38.9637 56.487L38.9413 56.4806L38.9188 56.4743L38.8959 56.4679L38.8735 56.4616L38.8511 56.4553L38.8431 56.4533L38.8286 56.4494L38.8057 56.4431L38.7833 56.4367L38.7608 56.4304L38.7379 56.4241L38.7194 56.4187L38.693 56.4109L38.6706 56.4046L38.6482 56.3982L38.6257 56.3919L38.5804 56.3792L38.5579 56.3729L38.5355 56.3665L38.5126 56.3602L38.4901 56.3538L38.4732 56.349L38.4677 56.3475L38.4448 56.3411L38.4223 56.3348L38.3999 56.3285L38.3775 56.3221L38.3545 56.3158L38.3496 56.3143L38.3321 56.3094L38.3097 56.3031L38.2867 56.2968L38.2643 56.2904L38.2419 56.2841L38.2264 56.2797L38.2189 56.2777L38.1965 56.2714L38.1741 56.2651L38.1512 56.2587L38.1287 56.2524L38.1063 56.2461L38.1028 56.2451L38.0834 56.2397L38.0609 56.2334L38.0385 56.227L38.0156 56.2207L37.9931 56.2143L37.9792 56.2104L37.9707 56.208L37.9478 56.2017L37.9253 56.1953L37.9029 56.189L37.8805 56.1826L37.858 56.1763H37.856L37.8351 56.17L37.8122 56.1631L37.7897 56.1568L37.7668 56.1505L37.7444 56.1441L37.7324 56.1407L37.7219 56.1378L37.699 56.1314L37.6766 56.1251L37.6541 56.1188L37.6317 56.1124L37.6093 56.1061C36.9418 55.9173 35.7952 55.5048 34.6631 55.0834C34.5475 55.0224 34.4303 54.9571 34.3117 54.8864C36.5131 54.1919 37.8585 53.2657 39.0858 51.2369C39.5539 51.4925 40.0046 51.79 40.4403 52.1177H40.4413Z" fill="#00A443" stroke="#00402A" stroke-width="0.5" stroke-linejoin="round"/>
<path fill-rule="evenodd" clip-rule="evenodd" d="M34.6648 55.0834C34.5491 55.0224 34.432 54.9571 34.3134 54.8864C36.5148 54.1919 37.8602 53.2657 39.0875 51.2369C39.3527 51.3818 39.6125 51.5403 39.8667 51.71C38.7052 53.7105 37.4574 54.6854 35.4883 55.3872C35.2176 55.2887 34.941 55.1863 34.6648 55.0834Z" fill="#FFBE18" stroke="#00402A" stroke-width="0.5" stroke-linejoin="round"/>
<path fill-rule="evenodd" clip-rule="evenodd" d="M34.2177 54.9156C35.3707 54.5596 36.2919 54.1441 37.0826 53.5491C37.3837 53.6486 37.7117 53.7837 38.0681 53.9612C37.3443 54.5815 36.5143 55.0214 35.4883 55.3872C35.0706 55.235 34.6384 55.0741 34.2177 54.9161V54.9156Z" fill="#5BD38C" stroke="#00402A" stroke-width="0.5" stroke-linejoin="round"/>
<path fill-rule="evenodd" clip-rule="evenodd" d="M39.0535 52.9233C38.7848 52.757 38.5081 52.6005 38.2234 52.459C38.544 52.0772 38.8476 51.6412 39.1452 51.1398C39.3984 51.2813 39.6527 51.4442 39.9114 51.6314C39.6327 52.1177 39.3501 52.5449 39.0535 52.9228V52.9233Z" fill="#E89223" stroke="#00402A" stroke-width="0.5" stroke-linejoin="round"/>
<path fill-rule="evenodd" clip-rule="evenodd" d="M30.5069 35.7419C30.634 36.3959 30.4765 38.1145 30.4242 38.5461C29.5598 41.8722 29.655 47.2007 30.5493 51.1286C31.0259 53.2208 31.1131 53.9304 33.1056 54.4162C34.9172 53.8909 34.8449 52.126 34.9052 51.0867C34.967 50.0206 35.8419 46.9852 35.3289 44.179C38.7173 39.5064 36.822 38.7948 30.5069 35.7424V35.7419Z" fill="#D8CFC7" stroke="#00402A" stroke-width="0.5" stroke-linejoin="round"/>
<path fill-rule="evenodd" clip-rule="evenodd" d="M38.3376 37.0957C38.9942 38.3501 40.371 38.8714 41.4009 41.1421C42.0505 42.5745 42.1063 44.9442 41.9732 47.6319C41.9 49.1106 41.6941 50.6556 41.6532 51.9548C41.6198 53.0072 41.6961 53.7778 41.7898 54.3864C42.0131 55.8344 43.1672 56.9459 43.6801 58.2939C44.5445 60.566 43.9687 65.7078 44.1751 69.1363C44.6637 70.0288 44.5331 71.3777 42.9458 70.4979C42.4732 67.2318 41.1776 64.6036 40.1951 61.2795C39.7893 59.9062 39.7883 59.1025 39.0699 58.0856C38.8047 57.7101 38.4438 57.1907 38.0475 56.4645C37.9782 56.3372 37.9149 56.2065 37.8581 56.0748C37.6502 55.7403 37.3227 55.0326 37.1881 53.7047L35.9114 43.9908C35.3835 43.9956 34.7898 43.7025 34.5096 43.4826C34.0814 43.1466 33.7305 42.7374 32.8122 41.8122C32.2145 41.2099 30.728 40.5701 30.1547 39.9575C30.213 39.6181 30.1477 39.0933 30.211 38.3662C30.2958 37.3942 30.5031 36.1872 30.5171 35.798C33.7773 37.2216 36.1786 37.6985 38.2539 36.808C38.2848 36.906 38.2529 37.0196 38.2663 37.1108L38.3376 37.0952V37.0957Z" fill="#D8CFC7" stroke="#00402A" stroke-width="0.5" stroke-linejoin="round"/>
<path fill-rule="evenodd" clip-rule="evenodd" d="M22.0067 9.37668C22.0675 11.1334 22.4753 13.9318 22.9449 15.8596C23.0137 16.578 23.2076 17.5924 24.1408 18.4863C25.4748 20.1377 28.6224 24.819 30.2624 24.1568C32.1174 23.4081 31.0934 21.0755 30.3272 20.1318C29.1483 18.6795 27.6209 17.4909 26.1647 16.1083C25.3766 12.1834 23.8766 9.99849 23.5207 8.07942C23.3267 8.1433 23.1617 7.02405 22.8537 7.25814C22.8517 6.81921 22.9768 6.22715 22.9783 6.02866C22.9803 5.7614 22.7355 5.84773 22.8297 5.44928L21.2993 6.33006C21.0441 6.47734 20.8053 7.05672 21.0421 7.45273C21.0825 7.52003 21.3098 7.85654 21.4793 8.0799C21.8611 8.57101 21.9808 8.64612 22.0062 9.3762L22.0067 9.37668Z" fill="#FFFEFF" stroke="#00402A" stroke-width="0.5" stroke-linejoin="round"/>
<path fill-rule="evenodd" clip-rule="evenodd" d="M22.0069 9.37668C22.0608 10.9232 22.3828 13.2773 22.7801 15.1339C23.8953 15.3363 25.0304 15.586 26.1216 15.8962C25.323 12.1044 23.8708 9.96387 23.5214 8.07942C23.3275 8.1433 23.1625 7.02404 22.8544 7.25814C22.8524 6.81921 22.9775 6.22715 22.979 6.02866C22.981 5.7614 22.7362 5.84773 22.8305 5.44928L21.3 6.33006C21.0448 6.47734 20.806 7.05672 21.0428 7.45273C21.0832 7.52003 21.3105 7.85654 21.48 8.0799C21.8619 8.57101 21.9815 8.64612 22.0069 9.3762V9.37668Z" fill="#5BD38C" stroke="#00402A" stroke-width="0.5" stroke-linejoin="round"/>
<path fill-rule="evenodd" clip-rule="evenodd" d="M21.2579 5.45459L21.2594 5.44483L20.3955 4.6416C20.3796 4.64745 20.3636 4.65428 20.3472 4.66208C20.2136 4.72939 20.0805 4.8318 20.0516 4.89813C19.9568 5.11467 20.1991 5.95594 20.3571 6.16955C20.409 6.23929 20.5675 6.50996 20.6687 6.43534C20.6747 6.57482 20.8885 6.79624 21.0555 6.67968C21.1179 6.8611 21.1547 6.81867 21.2769 6.89865C21.3307 6.93377 21.3861 6.93913 21.4065 6.93425L21.585 5.71941L21.2579 5.45459Z" fill="#5BD38C" stroke="#00402A" stroke-width="0.5" stroke-linejoin="round"/>
<path fill-rule="evenodd" clip-rule="evenodd" d="M21.3907 5.83551L23.478 5.31173C23.4964 5.23662 23.5976 5.28783 23.5836 5.21663C23.5487 5.04008 23.2302 4.80989 22.8907 4.57775C22.7307 4.45631 22.3872 4.191 22.2337 4.09981C21.9371 3.92375 21.299 4.04909 20.8354 4.27586C20.7212 4.33146 20.1165 4.76697 20.0477 4.89914C20.5712 5.42048 21.1091 5.73066 21.3907 5.83551Z" fill="#5BD38C" stroke="#00402A" stroke-width="0.5" stroke-linejoin="round"/>
<path fill-rule="evenodd" clip-rule="evenodd" d="M22.314 6.7821C22.4815 6.71967 22.7053 6.5402 22.7317 6.36902C22.7901 5.99301 22.4117 6.19979 22.1744 6.3105C22.0613 6.34561 21.9491 6.38024 21.8359 6.41487C21.7238 6.44754 21.7522 6.44169 21.7522 6.32415C21.7452 6.2588 21.8643 6.19248 21.974 6.14956C22.2322 6.04958 22.4621 5.96277 22.6121 5.95643C22.7622 5.94961 22.8319 6.02422 22.7711 6.24515C22.6844 6.63482 22.4855 6.89866 22.3693 7.16884C22.2547 7.4361 22.2213 7.70823 22.4586 8.10473C22.5109 8.19251 22.64 8.36906 22.6914 8.49196C22.7198 8.55682 22.7646 8.7636 22.8394 8.92991L22.8349 8.94893C23.465 10.9436 24.6565 14.7793 24.8793 15.5713C25.322 15.6772 25.6894 15.7927 26.1216 15.9171C25.3504 12.2594 23.9775 10.1262 23.5642 8.28956C23.4436 7.53803 23.47 6.86647 23.6196 6.04714C23.7178 5.51068 23.631 5.10004 23.3743 4.9986C22.8055 4.77329 21.5458 5.51946 21.2941 5.90327C21.2402 5.98521 21.2068 6.07543 21.2073 6.15688C21.2118 6.41194 21.2442 6.53581 21.2477 6.78503C21.2188 7.17079 22.0967 6.86208 22.313 6.78161L22.314 6.7821Z" fill="#5BD38C" stroke="#00402A" stroke-width="0.5" stroke-linejoin="round"/>
<path fill-rule="evenodd" clip-rule="evenodd" d="M22.6271 5.28491C22.7472 5.42829 22.8155 5.68238 22.8574 5.86234L23.0293 6.59486C23.1146 6.01938 23.3115 5.5112 22.6271 5.28442V5.28491Z" fill="#5BD38C" stroke="#00402A" stroke-width="0.5" stroke-linejoin="round"/>
<path fill-rule="evenodd" clip-rule="evenodd" d="M22.9651 6.92356C23.0493 7.26007 23.5159 8.49491 22.664 8.46663C22.1306 8.44907 22.0219 7.69022 22.0518 7.32542C22.0757 7.03817 22.2283 6.5339 22.1705 6.24567C22.0533 5.66239 22.2133 5.44048 22.3195 5.33953C22.4536 5.21322 22.8724 5.17225 22.8061 5.93452C22.7846 6.17837 22.8813 6.58657 22.9651 6.92308V6.92356Z" fill="#5BD38C" stroke="#00402A" stroke-width="0.5" stroke-linejoin="round"/>
<path fill-rule="evenodd" clip-rule="evenodd" d="M22.635 14.415C22.6819 14.6608 22.7308 14.9013 22.7801 15.1339C23.8953 15.3363 25.0304 15.586 26.1216 15.8962C26.0682 15.644 26.0124 15.3992 25.9541 15.1612C24.8678 14.8579 23.7407 14.613 22.635 14.415Z" fill="#5BD38C" stroke="#00402A" stroke-width="0.5" stroke-linejoin="round"/>
<path d="M31.8013 21.4503C31.2021 21.3196 29.9965 21.3083 29.4536 22.254C29.1951 22.7042 29.0951 23.5405 29.0767 24.463C28.9212 25.0918 28.71 25.6886 28.3286 26.5176C27.9519 27.3369 27.903 28.2205 28.2798 29.0772C28.5299 29.6458 28.9394 30.0085 29.4214 30.2676C29.4341 30.4317 29.4454 30.5964 29.4585 30.7608C29.4909 31.1713 29.5252 31.5817 29.5601 31.9883C29.6593 33.148 30.1199 33.9998 30.3198 34.9337C30.3737 35.2385 30.4982 35.5449 30.4917 35.8624C30.4657 37.1477 30.1084 38.2031 30.3716 39.6544C32.409 41.4885 35.5014 43.0212 38.2964 41.9493C38.817 41.7501 40.048 40.982 40.8833 40.3399C40.6476 40.0191 40.3904 39.6954 40.1147 39.3614C39.5774 38.664 38.9639 37.8787 38.3208 36.8467C37.9287 35.8698 38.1216 34.2391 38.5024 32.9864C38.7552 32.1554 39.1659 31.0416 39.5034 29.8858C39.9286 28.5952 40.5758 25.4836 39.4917 24.4464C37.9369 22.9589 33.7764 21.8814 31.8013 21.4503Z" fill="#FFFAF6"/>
<path d="M31.8013 21.4503L31.8545 21.206L31.8546 21.206L31.8013 21.4503ZM29.4536 22.254L29.6704 22.3784L29.6704 22.3785L29.4536 22.254ZM29.0767 24.463L29.3266 24.4679C29.3262 24.4865 29.3238 24.5049 29.3194 24.523L29.0767 24.463ZM28.3286 26.5176L28.1015 26.4132L28.1015 26.4132L28.3286 26.5176ZM28.2798 29.0772L28.0509 29.1779L28.0509 29.1779L28.2798 29.0772ZM29.4214 30.2676L29.5398 30.0474C29.6148 30.0878 29.6641 30.1635 29.6706 30.2484L29.4214 30.2676ZM29.4585 30.7608L29.7077 30.741L29.7077 30.7411L29.4585 30.7608ZM29.5601 31.9883L29.8091 31.967L29.8091 31.967L29.5601 31.9883ZM30.3198 34.9337L30.5644 34.8813L30.566 34.8902L30.3198 34.9337ZM30.4917 35.8624L30.2418 35.8573L30.2418 35.8573L30.4917 35.8624ZM30.3716 39.6544L30.2043 39.8402C30.1632 39.8031 30.1355 39.7535 30.1256 39.699L30.3716 39.6544ZM38.2964 41.9493L38.2069 41.7159L38.2071 41.7158L38.2964 41.9493ZM40.8833 40.3399L41.0848 40.1919C41.1653 40.3014 41.1435 40.4552 41.0357 40.5381L40.8833 40.3399ZM40.1147 39.3614L39.9218 39.5206L39.9167 39.514L40.1147 39.3614ZM38.3208 36.8467L38.1086 36.979C38.1009 36.9665 38.0942 36.9535 38.0888 36.9399L38.3208 36.8467ZM38.5024 32.9864L38.2632 32.9137L38.2633 32.9136L38.5024 32.9864ZM39.5034 29.8858L39.2633 29.8157L39.266 29.8076L39.5034 29.8858ZM39.4917 24.4464L39.6645 24.2657L39.6645 24.2657L39.4917 24.4464ZM31.8013 21.4503L31.748 21.6945C31.4751 21.635 31.0616 21.6031 30.6607 21.6925C30.2641 21.781 29.8975 21.983 29.6704 22.3784L29.4536 22.254L29.2368 22.1295C29.5526 21.5793 30.0603 21.3141 30.5519 21.2045C31.0394 21.0958 31.5283 21.1348 31.8545 21.206L31.8013 21.4503ZM29.4536 22.254L29.6704 22.3785C29.5639 22.564 29.4801 22.8499 29.4221 23.2201C29.3648 23.5856 29.3357 24.0131 29.3266 24.4679L29.0767 24.463L28.8267 24.458C28.8361 23.9904 28.8661 23.5385 28.9281 23.1427C28.9894 22.7515 29.0848 22.3942 29.2368 22.1295L29.4536 22.254ZM29.0767 24.463L29.3194 24.523C29.1593 25.1703 28.9421 25.7821 28.5557 26.6221L28.3286 26.5176L28.1015 26.4132C28.4778 25.5951 28.683 25.0134 28.834 24.4029L29.0767 24.463ZM28.3286 26.5176L28.5557 26.6221C28.2058 27.3831 28.1635 28.1918 28.5086 28.9766L28.2798 29.0772L28.0509 29.1779C27.6425 28.2491 27.698 27.2906 28.1015 26.4132L28.3286 26.5176ZM28.2798 29.0772L28.5086 28.9765C28.7311 29.4823 29.0942 29.8079 29.5398 30.0474L29.4214 30.2676L29.303 30.4878C28.7846 30.2091 28.3287 29.8093 28.0509 29.1779L28.2798 29.0772ZM29.4214 30.2676L29.6706 30.2484C29.6837 30.417 29.6945 30.5752 29.7077 30.741L29.4585 30.7608L29.2093 30.7806C29.1963 30.6176 29.1845 30.4465 29.1721 30.2869L29.4214 30.2676ZM29.4585 30.7608L29.7077 30.7411C29.7401 31.1509 29.7743 31.5607 29.8091 31.967L29.5601 31.9883L29.311 32.0097C29.2761 31.6028 29.2417 31.1917 29.2093 30.7805L29.4585 30.7608ZM29.5601 31.9883L29.8091 31.967C29.8564 32.519 29.9897 33.0009 30.1402 33.4692C30.2883 33.93 30.4608 34.3981 30.5643 34.8813L30.3198 34.9337L30.0754 34.986C29.9789 34.5354 29.8211 34.1106 29.6642 33.6222C29.5096 33.1411 29.3629 32.6173 29.311 32.0096L29.5601 31.9883ZM30.3198 34.9337L30.566 34.8902C30.5913 35.0331 30.6305 35.164 30.6715 35.3349C30.7099 35.495 30.7456 35.6761 30.7416 35.8675L30.4917 35.8624L30.2418 35.8573C30.2443 35.7312 30.221 35.6003 30.1853 35.4516C30.1522 35.3137 30.1022 35.139 30.0736 34.9771L30.3198 34.9337ZM30.4917 35.8624L30.7416 35.8674C30.7284 36.5226 30.6297 37.1352 30.572 37.7207C30.5135 38.3151 30.4918 38.9161 30.6176 39.6097L30.3716 39.6544L30.1256 39.699C29.9882 38.9414 30.0136 38.2891 30.0744 37.6717C30.1361 37.0452 30.229 36.4875 30.2418 35.8573L30.4917 35.8624ZM30.3716 39.6544L30.5388 39.4686C32.5555 41.284 35.5477 42.7357 38.2069 41.7159L38.2964 41.9493L38.3859 42.1827C35.455 43.3067 32.2624 41.693 30.2043 39.8402L30.3716 39.6544ZM38.2964 41.9493L38.2071 41.7158C38.4428 41.6256 38.8629 41.3954 39.3397 41.0985C39.8113 40.8048 40.321 40.4569 40.7309 40.1417L40.8833 40.3399L41.0357 40.5381C40.6103 40.8651 40.0868 41.2223 39.604 41.5229C39.1262 41.8204 38.6705 42.0738 38.3857 42.1828L38.2964 41.9493ZM40.8833 40.3399L40.6818 40.4879C40.4498 40.1722 40.1958 39.8524 39.9219 39.5205L40.1147 39.3614L40.3076 39.2023C40.5849 39.5384 40.8453 39.866 41.0848 40.1919L40.8833 40.3399ZM40.1147 39.3614L39.9167 39.514C39.3802 38.8177 38.7592 38.023 38.1086 36.979L38.3208 36.8467L38.533 36.7145C39.1685 37.7344 39.7746 38.5103 40.3128 39.2088L40.1147 39.3614ZM38.3208 36.8467L38.0888 36.9399C37.8724 36.4007 37.8244 35.7052 37.8723 35.003C37.9206 34.2956 38.068 33.556 38.2632 32.9137L38.5024 32.9864L38.7416 33.0591C38.5561 33.6695 38.4166 34.3716 38.3712 35.037C38.3254 35.7076 38.3771 36.3159 38.5528 36.7536L38.3208 36.8467ZM38.5024 32.9864L38.2633 32.9136C38.391 32.4938 38.5585 32.0028 38.7341 31.4785C38.9104 30.9521 39.0962 30.3886 39.2634 29.8157L39.5034 29.8858L39.7434 29.9559C39.5732 30.5388 39.3848 31.1101 39.2082 31.6373C39.0309 32.1666 38.8667 32.648 38.7416 33.0591L38.5024 32.9864ZM39.5034 29.8858L39.266 29.8076C39.4736 29.1775 39.7366 28.0972 39.8142 27.0525C39.853 26.5302 39.8447 26.0271 39.7649 25.5981C39.6845 25.1661 39.5367 24.8354 39.3189 24.627L39.4917 24.4464L39.6645 24.2657C39.9887 24.5759 40.1665 25.0232 40.2565 25.5067C40.3469 25.9931 40.3535 26.543 40.3129 27.0896C40.2316 28.1827 39.9585 29.3035 39.7409 29.964L39.5034 29.8858ZM39.4917 24.4464L39.3189 24.627C38.5848 23.9247 37.2037 23.2976 35.7228 22.7886C34.254 22.2837 32.7304 21.909 31.748 21.6945L31.8013 21.4503L31.8546 21.206C32.8473 21.4227 34.3915 21.8023 35.8854 22.3158C37.3673 22.8252 38.8438 23.4805 39.6645 24.2657L39.4917 24.4464Z" fill="#00402A"/>
<path fill-rule="evenodd" clip-rule="evenodd" d="M48.7888 44.2137C48.7893 44.4727 47.8531 45.8753 47.5426 46.2362C47.4429 46.3435 46.5341 46.2888 46.0949 45.927C46.3013 45.8826 46.3511 45.7368 46.3551 45.6543C46.4035 45.6158 46.5874 45.608 46.7788 45.5763C46.6677 45.1915 46.6492 44.9048 46.5047 44.5873C46.3641 44.2776 46.1986 44.4293 46.2225 44.5673C46.2749 44.8692 46.3995 45.5417 46.3207 45.7397C46.2474 45.925 45.7963 46.0884 45.6527 45.4115C45.4852 44.636 45.1482 43.9464 45.4733 43.2486C45.8098 42.5268 45.8372 42.1742 45.574 41.4738C45.2554 40.8037 44.5879 39.5845 44.045 38.3877C43.4787 37.2465 42.904 35.9736 42.5426 34.75C41.4743 33.3396 39.238 30.2125 38.4987 28.6977C37.57 26.7952 37.9339 25.5935 38.6303 25.0644C39.1512 24.6684 39.8157 24.5694 40.4947 25.2658C42.217 27.0317 43.9528 31.2171 45.3412 33.5542C45.8187 34.7939 46.7943 38.8193 47.1816 40.7155C47.4065 41.8162 48.7863 43.4841 48.7888 44.2137Z" fill="#FFFEFF" stroke="#00402A" stroke-width="0.5" stroke-linejoin="round"/>
<path fill-rule="evenodd" clip-rule="evenodd" d="M47.528 46.2245L48.0325 45.1862C46.9781 44.7653 46.7423 44.3854 46.4517 44.6429C45.9637 45.076 45.9024 45.4988 45.9632 45.7485C46.0704 46.1923 47.5031 46.4108 47.5285 46.2245H47.528Z" fill="#8C0707" stroke="#00402A" stroke-width="0.5" stroke-linejoin="round"/>
<path fill-rule="evenodd" clip-rule="evenodd" d="M48.7888 44.2137C48.7893 44.4727 47.8531 45.8753 47.5426 46.2362C47.4429 46.3435 46.5341 46.2888 46.0949 45.927C46.3013 45.8826 46.3511 45.7368 46.3551 45.6543C46.4035 45.6158 46.5874 45.608 46.7788 45.5763C46.6677 45.1915 46.6492 44.9048 46.5047 44.5873C46.3641 44.2776 46.1986 44.4293 46.2225 44.5673C46.2749 44.8692 46.3995 45.5417 46.3207 45.7397C46.2474 45.925 45.7963 46.0884 45.6527 45.4115C45.4852 44.636 45.1482 43.9464 45.4733 43.2486C45.8098 42.5268 45.8372 42.1742 45.574 41.4738C45.2554 40.8037 44.5879 39.5845 44.045 38.3877C43.7325 37.7576 43.4169 37.0875 43.1368 36.4072C43.5126 35.7268 44.1667 34.8329 44.9518 34.0311C45.1462 34.1935 45.4104 34.3745 45.6677 34.5539C46.1757 36.2755 46.8696 39.187 47.1816 40.7155C47.4065 41.8162 48.7863 43.4841 48.7888 44.2137Z" fill="#5BD38C" stroke="#00402A" stroke-width="0.5" stroke-linejoin="round"/>
<path fill-rule="evenodd" clip-rule="evenodd" d="M43.4089 37.0412C43.3152 36.8315 43.2244 36.6198 43.1367 36.4077C43.5126 35.7273 44.1666 34.8334 44.9518 34.0316C45.1462 34.194 45.4104 34.375 45.6676 34.5544C45.7484 34.829 45.8346 35.1343 45.9229 35.4591C45.6362 35.2567 45.3271 35.0504 45.1078 34.867C44.3979 35.5918 43.7957 36.3921 43.4089 37.0417V37.0412Z" fill="#5BD38C" stroke="#00402A" stroke-width="0.5" stroke-linejoin="round"/>
<path fill-rule="evenodd" clip-rule="evenodd" d="M43.5604 58.0273C43.6033 58.1161 43.6412 58.2029 43.6731 58.2868C44.5375 60.559 44.1257 64.5381 44.3321 67.9666C44.3506 68.2733 44.5265 68.5576 44.6312 68.8503C44.6237 68.8254 44.6168 68.8005 44.6093 68.7761C44.8531 69.2789 45.0779 69.5321 45.2219 70.248C45.366 70.9644 45.2145 72.1437 45.3924 73.0308L45.6746 74.4383C45.8391 75.2581 45.7205 75.8643 44.878 76.6987C44.1143 77.4551 43.3117 77.8434 42.8157 77.698C42.4503 77.5912 42.0824 77.0508 42.3431 75.4293C42.5455 74.172 42.4742 72.984 42.4797 71.6716C42.4767 71.554 42.4737 71.438 42.4712 71.3229C42.4528 70.385 42.5196 69.5306 42.4453 69.0146C41.9727 65.7485 41.0953 64.6098 40.1133 61.2856C39.8206 60.2961 39.7922 59.5938 39.53 58.8984C39.718 58.2483 40.0071 57.743 40.5156 57.2207C41.9004 57.307 42.701 57.5197 43.5604 58.0288V58.0273Z" fill="#00A443" stroke="#00402A" stroke-width="0.5" stroke-linejoin="round"/>
<path fill-rule="evenodd" clip-rule="evenodd" d="M43.5603 58.0271C43.6032 58.1159 43.6411 58.2027 43.673 58.2866C43.7219 58.4153 43.7667 58.5504 43.8081 58.6899C42.8973 58.21 41.9352 58.0739 40.9033 58.0095C40.5863 58.3353 40.0713 59.1244 39.7602 59.734C39.6994 59.4429 39.6326 59.1698 39.5299 58.8976C39.7179 58.2475 40.007 57.7423 40.5155 57.22C41.9003 57.3063 42.7009 57.5189 43.5603 58.0281V58.0271Z" fill="#5BD38C" stroke="#00402A" stroke-width="0.5" stroke-linejoin="round"/>
<path fill-rule="evenodd" clip-rule="evenodd" d="M30.3644 36.3388C30.3315 36.7572 30.2268 37.224 30.154 37.6712C32.0538 38.8972 36.5149 40.0424 38.9526 38.3603C38.6495 38.0555 38.4631 37.7326 38.2388 37.3664C36.7572 38.59 32.4825 37.6097 30.3639 36.3388H30.3644Z" fill="#5BD38C" stroke="#00402A" stroke-width="0.5" stroke-linejoin="round"/>
<path fill-rule="evenodd" clip-rule="evenodd" d="M34.4518 39.1547C36.3002 39.4586 38.6856 39.0016 39.4941 38.0057C39.2284 37.6429 38.8999 37.361 38.6756 36.9943C37.9787 37.5697 36.2274 38.0296 34.8092 37.8292C35.2878 38.0038 36.3531 38.1013 36.5879 38.1574C36.7534 38.1974 36.9742 38.9255 36.7972 39.0294C36.5405 39.1796 35.1811 39.2079 34.4901 39.1426L34.4513 39.1543L34.4518 39.1547Z" fill="#5BD38C" stroke="#00402A" stroke-width="0.5" stroke-linejoin="round"/>
<path fill-rule="evenodd" clip-rule="evenodd" d="M32.1632 36.5051C31.6358 36.5451 31.2175 37.1518 31.228 37.8609C31.2389 38.5695 31.6746 39.1123 32.2021 39.0724C32.729 39.0324 33.1477 38.4257 33.1368 37.717C33.1263 37.0084 32.6901 36.4656 32.1632 36.5056V36.5051Z" fill="#E89223" stroke="#00402A" stroke-width="0.5" stroke-linejoin="round"/>
<path fill-rule="evenodd" clip-rule="evenodd" d="M32.0212 36.5168C31.5108 36.5554 31.1055 37.143 31.1159 37.8292C31.1264 38.5159 31.5486 39.0406 32.0591 39.0021C32.5696 38.9636 32.9749 38.3759 32.9644 37.6897C32.9539 37.0036 32.5317 36.4783 32.0212 36.5163V36.5168Z" fill="#5BD38C" stroke="#00402A" stroke-width="0.5" stroke-linejoin="round"/>
<path fill-rule="evenodd" clip-rule="evenodd" d="M40.5449 23.0404C38.1815 22.857 37.9273 19.8006 37.8585 16.7603C37.8066 14.475 37.1411 11.5523 34.2967 11.4923C33.2832 11.4708 32.0384 11.8732 32.0095 13.0485C31.9477 15.5674 33.5948 26.1958 40.5449 23.0404Z" fill="#241304" stroke="#00402A" stroke-width="0.5" stroke-linejoin="round"/>
<path fill-rule="evenodd" clip-rule="evenodd" d="M35.4526 22.9896C35.6998 24.7849 32.142 25.5057 31.5458 24.3669C31.4575 23.1189 31.3573 22.2196 30.6121 20.874L33.9964 19.49L34.8533 19.1042C34.4486 20.8784 34.802 21.4866 35.453 22.9901L35.4526 22.9896Z" fill="#E8A476" stroke="#00402A" stroke-width="0.5" stroke-linejoin="round"/>
<path fill-rule="evenodd" clip-rule="evenodd" d="M30.2904 19.0793L31.7859 18.2283L31.2774 15.6742L30.1463 13.819C28.1353 14.9695 29.0601 18.8618 30.2904 19.0793Z" fill="#241304" stroke="#00402A" stroke-width="0.5" stroke-linejoin="round"/>
<path fill-rule="evenodd" clip-rule="evenodd" d="M31.0465 13.1045C30.5998 13.306 33.6088 13.1811 33.035 13.5547L34.3177 17.6938L34.5355 19.6499L34.6487 19.7055C34.6711 19.8055 34.688 19.8713 34.7219 19.9664C37.1222 18.5336 37.3939 14.7627 35.205 13.1704C34.1362 12.393 32.5505 12.4271 31.0465 13.105V13.1045Z" fill="#361D07" stroke="#00402A" stroke-width="0.5" stroke-linejoin="round"/>
<path fill-rule="evenodd" clip-rule="evenodd" d="M31.7753 22.123C33.6527 21.4119 34.2275 20.5204 34.718 18.676C35.5465 18.1668 35.9085 17.7323 36.0101 17.2382C36.2509 16.0653 35.6403 14.751 34.7594 14.0004C33.9897 13.3445 33.072 13.1201 32.0151 13.2826C29.9613 13.5986 29.1627 14.8529 28.9508 16.5623C28.9099 16.892 29.0754 17.6021 29.1657 17.9381C29.3172 18.5004 29.0535 18.3395 29.0595 18.9105C29.062 19.1607 29.2135 20.0532 29.5381 21.0286C29.7255 21.5919 29.738 22.1664 30.0276 22.2654C30.3212 22.3659 30.9179 22.4478 31.7748 22.123H31.7753Z" fill="#F1B287" stroke="#00402A" stroke-width="0.5" stroke-linejoin="round"/>
<path fill-rule="evenodd" clip-rule="evenodd" d="M34.6563 18.5366C34.7929 18.1537 34.8248 17.6743 35.3687 17.6845C34.9011 17.7626 34.8343 18.1883 34.6563 18.5366Z" fill="#DB9669" stroke="#00402A" stroke-width="0.5" stroke-linejoin="round"/>
<path fill-rule="evenodd" clip-rule="evenodd" d="M29.2161 14.91C29.2679 14.9041 29.3771 14.9305 29.4469 14.9612C29.9479 15.1821 30.9573 16.217 32.0526 16.9802C33.0351 17.665 34.3641 18.1424 35.1971 17.6347C36.9434 16.5706 36.4773 13.5664 33.4205 12.8027C31.6538 12.5788 29.6991 13.3089 29.2166 14.91H29.2161Z" fill="#361D07" stroke="#00402A" stroke-width="0.5" stroke-linejoin="round"/>
<g clip-path="url(#clip0_17584_4206)">
<path d="M30.6724 26.772C30.6082 27.0598 30.6053 27.2787 30.6255 27.4378C30.6551 27.6693 30.7341 27.796 30.7806 27.8648C30.8287 27.9358 30.9202 28.0056 31.0069 27.9525C31.0615 27.9189 31.0872 27.8413 31.0929 27.7673C31.1073 27.5768 31.0182 27.4024 30.8314 27.0696C30.7825 26.9824 30.727 26.8818 30.6724 26.772Z" fill="#00A443" stroke="#00402A" stroke-width="0.5"/>
<path d="M31.6017 27.9186C31.6124 28.0532 31.6028 28.1728 31.5742 28.277C31.6054 28.2375 31.621 28.1789 31.6254 28.1227C31.6305 28.0552 31.6223 27.9898 31.6017 27.9186Z" fill="#5BD38C" stroke="#00402A" stroke-width="0.5"/>
<path d="M32.135 28.2757C32.1451 28.4057 32.1357 28.5213 32.1092 28.6229C32.1309 28.5936 32.1523 28.5507 32.1578 28.4783C32.1629 28.4112 32.1552 28.3463 32.135 28.2757Z" fill="#D8CFC7" stroke="#00402A" stroke-width="0.5"/>
</g>
<defs>
<clipPath id="clip0_17584_4206">
<rect width="3.83535" height="4.06898" fill="white" transform="matrix(-0.831658 -0.555288 -0.0765515 0.997066 33.1414 26.8062)"/>
</clipPath>
</defs>
</svg>
