<svg width="137" height="56" viewBox="0 0 137 56" fill="none" xmlns="http://www.w3.org/2000/svg">
<path d="M118.538 33.6807C119.21 33.6643 119.861 33.7363 120.498 33.8789L120.553 33.8916L120.608 33.8789C121.111 33.7641 121.625 33.6981 122.151 33.6816C127.034 33.5507 131.131 37.9521 131.236 43.5791C131.338 49.0311 127.66 53.5326 122.988 53.9277L122.533 53.9531C122.19 53.9615 121.428 53.9574 120.677 53.9531C119.933 53.9489 119.197 53.9435 118.919 53.9521C114.036 54.0826 109.941 49.6821 109.835 44.0557C109.73 38.4278 113.653 33.8127 118.539 33.6816L118.538 33.6807Z" fill="#00402A" stroke="#00402A" stroke-width="0.5"/>
<path d="M17.8667 53.7114L17.7466 53.6382C15.0037 51.9815 13.096 48.7281 13.0239 44.9185C12.952 41.0916 14.7499 37.7203 17.4507 35.9253L17.562 35.8511V34.561H21.4722C21.5244 34.561 21.5741 34.5579 21.6138 34.5552C21.6557 34.5523 21.688 34.5503 21.7202 34.5503H21.9702V34.5444C26.7458 34.5631 30.7085 38.9086 30.812 44.4419C30.9173 50.0697 26.9946 54.6848 22.1089 54.8159H17.8667V53.7114Z" fill="#E3850D" stroke="#00402A" stroke-width="0.5"/>
<path d="M103.422 14.0225H111.539C111.987 14.0225 112.35 14.386 112.35 14.834V17.1699C112.35 17.6179 111.987 17.9814 111.539 17.9814H103.422C102.974 17.9814 102.611 17.6179 102.611 17.1699V14.834C102.611 14.386 102.974 14.0225 103.422 14.0225Z" fill="#FF9C1A" stroke="#00402A" stroke-width="0.5"/>
<path d="M89.2051 53.7114L89.085 53.6382C86.3421 51.9815 84.4343 48.7281 84.3623 44.9185C84.2904 41.0916 86.0883 37.7203 88.7891 35.9253L88.9004 35.8511V34.561H92.8105C92.8628 34.561 92.9125 34.5579 92.9521 34.5552C92.9941 34.5523 93.0264 34.5503 93.0586 34.5503H93.3086V34.5444C98.0842 34.5631 102.047 38.9086 102.15 44.4419C102.256 50.0697 98.333 54.6848 93.4473 54.8159H89.2051V53.7114Z" fill="#E3850D" stroke="#00402A" stroke-width="0.5"/>
<path d="M46.166 33.6807C46.8383 33.6643 47.4898 33.7363 48.126 33.8789L48.1816 33.8916L48.2363 33.8789C48.7393 33.7641 49.2537 33.6981 49.7793 33.6816C54.6628 33.5507 58.759 37.9521 58.8643 43.5791C58.9662 49.0311 55.2881 53.5326 50.6162 53.9277L50.1611 53.9531C49.8186 53.9615 49.0564 53.9574 48.3057 53.9531C47.5611 53.9489 46.825 53.9435 46.5479 53.9521C41.6648 54.0826 37.5693 49.6821 37.4639 44.0557C37.3586 38.4278 41.2812 33.8127 46.167 33.6816L46.166 33.6807Z" fill="#00402A" stroke="#00402A" stroke-width="0.5"/>
<path d="M104.995 32.1387L134.695 42.5889L133.782 46.4863L133.775 46.5137V46.543C133.775 47.0449 133.4 47.507 132.801 47.8594C132.283 48.1635 131.65 48.352 131.107 48.3945L130.881 48.4043L13.7422 48.5273L6.83496 48.4102C5.73771 48.3904 4.73429 47.826 4.15625 46.9277L4.04688 46.7441L1.94336 42.9229C3.53661 39.155 5.54433 36.2139 8.06641 34.0986C10.6077 31.9673 13.6836 30.6622 17.4131 30.2031L17.4141 30.2041L70.5283 26.5479L104.995 32.1387Z" fill="#E3850D" stroke="#00402A" stroke-width="0.5"/>
<path d="M78.395 0.610352V0.611328C82.556 0.700453 84.673 1.6289 88.438 3.50293C95.4908 7.01241 101.155 10.3089 105.055 12.7275C107.005 13.9368 108.515 14.9272 109.536 15.6143C110.046 15.9576 110.434 16.2254 110.695 16.4072C110.825 16.4981 110.924 16.5677 110.99 16.6143C111.022 16.6374 111.047 16.6553 111.063 16.667C111.071 16.6728 111.078 16.6768 111.082 16.6797C111.084 16.6811 111.085 16.6829 111.086 16.6836H111.087V16.6846L111.133 16.7178L111.19 16.7275H111.193C111.195 16.7279 111.197 16.7289 111.201 16.7295C111.208 16.7308 111.22 16.7326 111.235 16.7354C111.265 16.7408 111.309 16.749 111.368 16.7598C111.485 16.7814 111.658 16.8138 111.879 16.8564C112.323 16.9419 112.964 17.0687 113.75 17.2344C115.323 17.5657 117.477 18.0524 119.803 18.6719C122.13 19.2914 124.625 20.0438 126.881 20.9062C129.136 21.7679 131.135 22.7328 132.49 23.7764C133.591 24.83 134.409 25.6911 135.06 26.9678C135.692 28.2067 136.171 29.8533 136.576 32.4668C136.422 32.4653 136.209 32.4636 135.942 32.4609C135.334 32.455 134.442 32.4459 133.303 32.4346C131.024 32.412 127.757 32.3798 123.804 32.3398C115.898 32.2599 105.25 32.1504 94.2778 32.0322C72.3329 31.7959 49.1002 31.5249 43.9321 31.3867C38.7359 31.2506 34.0714 31.9723 30.7075 32.7275C29.0257 33.1052 27.6676 33.491 26.729 33.7832C26.2596 33.9293 25.8947 34.0524 25.647 34.1387C25.6227 34.1471 25.5996 34.1553 25.5776 34.1631C25.5774 34.1602 25.5779 34.1572 25.5776 34.1543C25.5614 33.9395 25.5391 33.6292 25.5161 33.248C25.4702 32.4853 25.4209 31.4395 25.4058 30.3076C25.3907 29.175 25.4105 27.9591 25.5024 26.8555C25.5948 25.7465 25.7583 24.7721 26.022 24.1094L26.0571 24.0215L26.0249 23.9316V23.9307C26.0245 23.9294 26.0239 23.9274 26.0229 23.9248C26.0211 23.9195 26.0179 23.9111 26.0142 23.9004C26.0067 23.879 25.9958 23.8469 25.9819 23.8057C25.954 23.7226 25.9145 23.6014 25.8677 23.4502C25.7738 23.1473 25.651 22.7244 25.5376 22.2461C25.3161 21.3116 25.138 20.1994 25.2466 19.3496L47.0249 0.250977L78.395 0.610352Z" fill="#FF9C1A" stroke="#00402A" stroke-width="0.5"/>
<path d="M77.6665 1.81348C80.6948 1.81348 83.6892 2.47699 86.4204 3.78125H86.4214C90.8501 5.89006 96.8965 9.30795 101.841 12.2012C104.313 13.6471 106.507 14.9606 108.083 15.9131C108.824 16.3608 109.428 16.7291 109.861 16.9932H84.0845C82.7714 16.9932 81.5169 16.4933 80.5581 15.5938C74.9895 10.3654 67.5769 5.20462 59.7847 1.81348H77.6665Z" fill="#FF9C1A" stroke="#00402A" stroke-width="0.5"/>
<path d="M77.6729 1.81348C80.7012 1.81351 83.6955 2.47693 86.4268 3.78125C88.8862 4.95293 91.8474 6.52892 94.8428 8.19824L92.7207 16.9932H84.0898C82.777 16.9931 81.5231 16.4931 80.5645 15.5938C78.8171 13.9518 76.8859 12.3215 74.8242 10.7451L77.2041 1.81348H77.6729Z" fill="#FF9C1A" stroke="#00402A" stroke-width="0.5"/>
<path d="M80.3042 8.97656C80.643 8.80234 81.032 8.76228 81.4048 8.85547V8.85449L83.1401 9.30664C83.5531 9.4147 83.7557 9.89981 83.5493 10.2783L81.0708 11.3701C80.5686 11.591 79.9546 11.6152 79.3501 11.4277H79.3511L78.4399 11.1396L78.4663 9.91016L80.3032 8.97656H80.3042Z" fill="#00402A" stroke="#00402A" stroke-width="0.5"/>
<path d="M79.5205 10.7231L77.3633 13.5005L76.0078 12.1987L78.2568 10.063L79.5205 10.7231Z" fill="#00402A" stroke="#00402A" stroke-width="0.5"/>
<path d="M88.0808 16.5943C88.1881 16.2782 88.2445 15.9509 88.2445 15.6179C88.2445 13.1626 85.2587 11.1758 81.5729 11.1758C77.8872 11.1758 74.9014 13.1626 74.9014 15.6179C74.9014 16.1936 75.0651 16.7411 75.3642 17.2491" fill="#FF9C1A"/>
<path d="M88.0808 16.5943C88.1881 16.2782 88.2445 15.9509 88.2445 15.6179C88.2445 13.1626 85.2587 11.1758 81.5729 11.1758C77.8872 11.1758 74.9014 13.1626 74.9014 15.6179C74.9014 16.1936 75.0651 16.7411 75.3642 17.2491" stroke="#00402A" stroke-width="0.5" stroke-linecap="round" stroke-linejoin="round"/>
<path d="M32.3613 2.10303C43.2164 0.308887 52.0011 -0.850016 62.8115 4.57471C71.1925 8.77926 76.7401 13.1657 80.1895 16.4956C81.9142 18.1607 83.1148 19.5625 83.8828 20.5454C84.2668 21.0368 84.5434 21.4231 84.7227 21.686C84.8121 21.8172 84.8772 21.9178 84.9199 21.9849C84.9413 22.0184 84.9576 22.0445 84.9678 22.061C84.9726 22.0689 84.9762 22.0748 84.9785 22.0786C84.9797 22.0806 84.9809 22.0826 84.9814 22.0835L85.0605 22.2163L85.2139 22.2056H85.2188C85.2217 22.2054 85.2265 22.205 85.2324 22.2046C85.2447 22.2038 85.2634 22.2021 85.2881 22.2007C85.338 22.1978 85.4132 22.1943 85.5127 22.1899C85.712 22.1812 86.0095 22.1703 86.3994 22.1646C87.1796 22.1531 88.3305 22.1599 89.8076 22.2319C92.7475 22.3753 96.9808 22.7783 102.162 23.8169C104.183 25.8559 104.494 28.2311 104.982 30.481L104.938 42.7134L101.148 42.7026H101.147C100.265 42.7026 99.4951 42.0938 99.2852 41.2339C98.8979 39.6505 98.0595 37.5283 96.5947 35.7759C95.1255 34.0183 93.0196 32.6278 90.1143 32.5435C87.4048 32.4639 84.9183 32.823 82.9688 34.1479C81.0097 35.4794 79.6369 37.7552 79.0908 41.4087C78.9849 42.1213 78.3675 42.6517 77.6504 42.6519H77.6494L27.6113 42.7808C27.5966 42.7149 27.5795 42.6337 27.5566 42.5396C27.4886 42.2593 27.3823 41.8603 27.2314 41.3823C26.9301 40.4273 26.4468 39.152 25.7197 37.8784C24.2682 35.3362 21.8125 32.7499 17.8564 32.8081C13.2926 32.8776 10.8612 35.4217 9.58496 37.9321C8.94921 39.1829 8.59851 40.4266 8.40625 41.356C8.31 41.8212 8.25346 42.2095 8.2207 42.4819C8.21169 42.557 8.2059 42.6234 8.2002 42.6802H1.83301C1.81158 42.6237 1.78381 42.5533 1.75293 42.4692C1.66548 42.2312 1.54403 41.8871 1.40723 41.4673C1.13341 40.627 0.799886 39.4839 0.561523 38.2681C0.322664 37.0496 0.181767 35.7713 0.283203 34.6567C0.385044 33.538 0.72736 32.6276 1.41016 32.0854L1.45508 32.0503L1.47949 31.9976L1.48047 31.9966C1.48077 31.996 1.4809 31.9948 1.48145 31.9937C1.48263 31.9912 1.48502 31.9877 1.4873 31.9829C1.49194 31.9732 1.49884 31.9588 1.50781 31.9399C1.5259 31.9019 1.55262 31.8453 1.58691 31.7729C1.65549 31.6282 1.75469 31.4181 1.87695 31.1577C2.12158 30.6368 2.45898 29.9131 2.83008 29.1021C3.57163 27.4814 4.45015 25.5049 4.99219 24.1001L5.02539 24.0151L4.99609 23.9292L4.99512 23.9272L4.98535 23.8979C4.97818 23.8765 4.96754 23.8438 4.9541 23.8022C4.92723 23.7191 4.88888 23.598 4.84375 23.4468C4.75336 23.1438 4.63562 22.7211 4.52637 22.2427C4.31356 21.3108 4.14357 20.2009 4.24609 19.3501L11.6641 13.522L11.6904 13.5015L11.7109 13.4751C12.4846 12.4317 13.8358 11.2481 15.5264 10.0425C17.2125 8.83999 19.22 7.62581 21.292 6.51807C25.445 4.29781 29.8211 2.52224 32.3613 2.10303Z" fill="#FF9C1A" stroke="#00402A" stroke-width="0.5"/>
<path d="M45.3628 0.25293C51.1622 0.200841 56.7509 0.895728 60.7876 2.76074C66.6784 5.48416 71.9145 9.14922 75.6802 12.1357C77.5623 13.6284 79.0754 14.9509 80.1177 15.8994C80.6386 16.3735 81.0422 16.7538 81.3149 17.0156C81.4513 17.1466 81.5551 17.2481 81.6245 17.3164C81.6591 17.3504 81.6852 17.3762 81.7026 17.3936L81.728 17.4189V17.4199L81.771 17.4619L81.8276 17.4805L81.8296 17.4814C81.8308 17.4818 81.8323 17.4827 81.8345 17.4834C81.8392 17.485 81.8465 17.4871 81.856 17.4902C81.875 17.4965 81.9035 17.5062 81.9409 17.5186C82.0159 17.5432 82.1275 17.5793 82.2729 17.627C82.5637 17.7222 82.9905 17.862 83.5356 18.0391C84.6262 18.3932 86.1899 18.8975 88.0815 19.498C91.5816 20.6093 96.2074 22.0474 101.041 23.4775C100.367 23.5181 99.4272 23.5629 98.2554 23.6074C95.6245 23.7074 91.8298 23.8159 87.2573 23.9287C78.1126 24.1544 65.859 24.3965 53.5854 24.6191C41.312 24.8417 29.0186 25.045 19.7935 25.1924C15.181 25.2661 11.3354 25.3258 8.64307 25.3672C7.29689 25.3879 6.23843 25.4041 5.51709 25.415C5.16406 25.4204 4.89166 25.424 4.70557 25.4268C4.79255 24.9256 4.8974 24.4889 5.03174 24.1396L5.06494 24.0547L5.03564 23.9688L5.03467 23.9678C5.03425 23.9666 5.03356 23.9644 5.03271 23.9619C5.03092 23.9566 5.02845 23.9481 5.0249 23.9375C5.01773 23.916 5.00709 23.8834 4.99365 23.8418C4.96677 23.7585 4.92843 23.6368 4.8833 23.4854C4.79291 23.1819 4.67515 22.7589 4.56592 22.2803C4.3521 21.3433 4.1811 20.2276 4.28662 19.3779L13.8745 10.6094L13.8921 10.5928L13.9067 10.5732C14.9524 9.16001 17.0985 7.42519 19.7876 5.85938C22.4711 4.29682 25.6689 2.91792 28.7974 2.20215H28.7983C33.5937 1.10249 39.5696 0.305002 45.3628 0.25293Z" fill="#FF9C1A" stroke="#00402A" stroke-width="0.5"/>
<path d="M39.9556 17.4116L22.2104 17.4839C18.7195 17.4997 16.8442 13.4019 19.1226 10.7456C24.8469 4.05987 34.0757 3.14589 38.1079 2.92627L39.9556 17.4116Z" fill="#FF9C1A" stroke="#00402A" stroke-width="0.5"/>
<path d="M42.2324 2.48535C43.6833 2.36996 45.7194 2.27465 48.0566 2.35645C52.7372 2.52026 58.5995 3.39279 63.4014 6.2041C68.8157 9.37521 73.6828 12.7565 78.4316 17.1797L41.8896 17.5264L40.1592 2.70215C40.2555 2.68908 40.3802 2.67266 40.5312 2.6543C40.9281 2.60605 41.5073 2.54303 42.2324 2.48535Z" fill="#FF9C1A" stroke="#00402A" stroke-width="0.5"/>
<path d="M58.9551 5.62549L57.1143 9.17529L54.6104 10.2778L53.2041 9.56396H53.2051C51.9986 8.94833 51.8465 7.29383 52.918 6.45654C53.8093 5.76011 54.6467 4.9357 55.2598 4.28857C55.5668 3.96443 55.8189 3.6831 55.9941 3.48291C56.0377 3.43311 56.0756 3.3874 56.1094 3.34814L58.9551 5.62549Z" fill="#00402A" stroke="#00402A" stroke-width="0.5"/>
<path d="M89.1288 34.564C93.7253 34.5562 97.5332 39.0427 97.543 44.6851C97.5528 50.3274 93.7607 54.8272 89.1642 54.8355C84.5676 54.8435 80.759 50.3568 80.7491 44.7144C80.7392 39.0719 84.5322 34.572 89.1288 34.564Z" fill="#00402A" stroke="#00402A" stroke-width="0.5"/>
<path d="M82.8347 44.6383C82.863 40.793 85.6225 37.7514 88.934 37.7756C92.2456 37.7998 94.9601 40.8816 94.932 44.7269C94.9038 48.5724 92.1444 51.6139 88.8327 51.5896C85.5211 51.5652 82.8065 48.4836 82.8347 44.6383Z" fill="#E3850D" stroke="#00402A" stroke-width="0.5"/>
<path d="M87.0282 44.6806C87.0372 43.4697 87.9034 42.5493 88.8993 42.5566C89.8952 42.564 90.7479 43.497 90.7391 44.7078C90.7302 45.9187 89.8639 46.8391 88.868 46.8318C87.872 46.8245 87.0194 45.8916 87.0282 44.6806Z" fill="#00402A" stroke="#00402A" stroke-width="0.5"/>
<path d="M17.7846 34.5645C22.3811 34.5567 26.1889 39.0432 26.1988 44.6856C26.2085 50.3278 22.4164 54.8277 17.82 54.8359C13.2234 54.844 9.41478 50.3573 9.40484 44.7149C9.395 39.0724 13.188 34.5725 17.7846 34.5645Z" fill="#00402A" stroke="#00402A" stroke-width="0.5"/>
<path d="M136.633 32.9492L136.75 36.5889C136.75 37.5016 136.632 39.0491 136.237 40.3613C136.039 41.02 135.776 41.6004 135.438 42.0117C135.129 42.3884 134.766 42.6103 134.331 42.6406L134.228 42.6416L104.688 42.7139V29.1738L136.633 32.9492Z" fill="#FF9C1A" stroke="#00402A" stroke-width="0.5"/>
<path d="M96.4136 22.7373C97.3514 22.7557 98.4848 22.8234 99.4653 23.0098L99.8755 23.0977C100.236 23.1843 100.661 23.2959 101.117 23.4229L102.548 23.8389C104.942 24.5543 107.105 25.8863 108.828 27.6963L108.984 27.8662L109.679 28.623C109.496 28.6223 109.274 28.622 109.019 28.6211C108.255 28.6183 107.195 28.6157 106.014 28.6143C103.652 28.6114 100.801 28.6153 98.8521 28.6436C97.0779 28.6693 96.0567 27.2221 95.4702 25.6357C95.1812 24.854 95.0106 24.0669 94.9116 23.4736C94.8623 23.1779 94.8308 22.9317 94.812 22.7598C94.8116 22.7559 94.8105 22.7518 94.8101 22.748C94.8858 22.7454 94.9767 22.7428 95.0806 22.7402C95.4134 22.732 95.8798 22.7268 96.4136 22.7373Z" fill="#00402A" stroke="#00402A" stroke-width="0.5"/>
<path d="M133.173 23.9121C133.431 24.1261 133.779 24.4359 134.137 24.8184C134.858 25.5902 135.59 26.6277 135.748 27.751C135.736 27.7594 135.71 27.7767 135.654 27.792C135.51 27.8315 135.29 27.8393 135.039 27.8252H135.038C133.885 27.7654 133.163 27.7403 132.729 27.7305C132.513 27.7255 132.367 27.7245 132.275 27.7246C132.263 27.7246 132.252 27.7246 132.241 27.7246L130.856 26.5283C131.71 25.4757 132.056 24.8879 132.288 24.4824C132.411 24.2682 132.49 24.1275 132.594 23.9961C132.67 23.8998 132.762 23.8042 132.897 23.6934C132.968 23.7476 133.062 23.8207 133.173 23.9121Z" fill="#00402A" stroke="#00402A" stroke-width="0.5"/>
<path d="M130.119 28.5864L109.737 28.5864C108.786 28.5863 108.012 27.812 108.012 26.8608V24.938L131.845 24.938V26.8608C131.845 27.8121 131.07 28.5864 130.119 28.5864Z" fill="#E3850D" stroke="#00402A" stroke-width="0.5"/>
<path d="M116.144 25.6606H125.762C126.36 25.6608 126.844 26.1452 126.844 26.7427V29.6665C126.844 30.264 126.36 30.7484 125.762 30.7485H116.144C115.546 30.7485 115.062 30.2641 115.062 29.6665V26.7427C115.062 26.1451 115.546 25.6607 116.144 25.6606Z" fill="#00402A" stroke="#00402A" stroke-width="0.5"/>
<path d="M127.647 38.2139L133.375 42.6426L105.505 42.7119L114.543 38.2139H127.647Z" fill="#00402A" stroke="#00402A" stroke-width="0.5"/>
<path d="M45.562 24.0317C45.2587 24.0317 45.0103 23.7867 45.0103 23.48V22.1255C45.0103 22.0245 45.0924 21.941 45.1948 21.9409H52.2036V24.0317H45.562Z" fill="#00402A" stroke="#00402A" stroke-width="0.5"/>
<path d="M21.0601 24.0317C20.7567 24.0317 20.5083 23.7867 20.5083 23.48V22.1255C20.5084 22.0245 20.5905 21.941 20.6929 21.9409H27.7017V24.0317H21.0601Z" fill="#00402A" stroke="#00402A" stroke-width="0.5"/>
<path d="M70.8188 17.269L67.3882 17.3081L64.8784 13.9595L67.3921 12.1343L70.8188 17.269Z" fill="#00402A" stroke="#00402A" stroke-width="0.5"/>
<path d="M76.3335 15.3267L74.7378 17.2476L69.9536 17.2905L74.2593 13.5806L76.3335 15.3267Z" fill="#FF9C1A" stroke="#00402A" stroke-width="0.5"/>
<path d="M63.9248 8.23096C64.099 8.2584 64.357 8.32516 64.6709 8.48291C65.2967 8.79754 66.1625 9.48492 67.0312 10.9907C67.9268 12.543 68.6311 13.4592 69.1182 13.9907C69.3112 14.2014 69.4728 14.3494 69.5967 14.4556L68.0322 15.5239C66.7284 16.4136 64.9287 15.8256 64.4072 14.3335V14.3325L62.96 10.2183L63.8115 8.22021C63.844 8.22307 63.8821 8.22422 63.9248 8.23096Z" fill="#FF9C1A" stroke="#00402A" stroke-width="0.5"/>
<path d="M60.4814 7.52441L60.5322 7.54785H60.5664L61.1543 7.72559L61.0166 7.86426H61.6055C61.6075 7.86458 61.6099 7.86485 61.6123 7.86523C61.6309 7.86817 61.6578 7.8733 61.6924 7.87891C61.7616 7.89015 61.8599 7.90639 61.9775 7.92578C62.2127 7.96455 62.5249 8.01618 62.8369 8.06836C63.149 8.12055 63.4611 8.17276 63.6953 8.21289C63.8123 8.23294 63.9095 8.24955 63.9775 8.26172C63.9833 8.26275 63.9889 8.2637 63.9941 8.26465C65.2091 9.73283 65.7849 10.6098 66.1484 11.8164C66.5121 13.0238 66.6657 14.5624 66.9844 17.3467L54.2178 17.4902C54.2012 17.4904 54.1878 17.492 54.1865 17.4922C54.1825 17.4927 54.1786 17.493 54.1777 17.4932C54.1748 17.4936 54.1743 17.4931 54.1738 17.4932C54.1729 17.493 54.1713 17.4931 54.1689 17.4922C54.1654 17.4908 54.1106 17.4705 54.0459 17.332C53.914 17.0496 53.7901 16.3771 53.9277 14.8516C54.0748 14.8671 54.2698 14.8889 54.4648 14.9102C54.6621 14.9316 54.8598 14.9534 55.0078 14.9697C55.0817 14.9779 55.1434 14.9845 55.1865 14.9893C55.208 14.9916 55.2248 14.9938 55.2363 14.9951C55.2421 14.9958 55.247 14.9958 55.25 14.9961C55.2513 14.9962 55.2522 14.997 55.2529 14.9971H55.2539L55.6426 15.04L55.5186 14.6699L54.126 10.4873C54.2006 10.1017 54.2546 9.80802 54.3125 9.56543C54.3725 9.31432 54.4332 9.13737 54.5146 8.99121C54.6712 8.71031 54.9285 8.4999 55.5615 8.13379L58.9023 7.4043L59.9678 7.28516L60.4814 7.52441Z" fill="#FF9C1A" stroke="#00402A" stroke-width="0.5"/>
<path d="M61.5518 15.7642C61.8686 15.6838 62.2061 15.7259 62.4971 15.8784H62.498L63.9033 16.6128H63.9043C64.2175 16.7749 64.2931 17.205 64.0635 17.4751L61.7256 17.9175C61.2617 18.0063 60.7356 17.9096 60.2568 17.6265L60.2559 17.6255L59.5479 17.2114L59.7783 16.2983C59.7921 16.247 59.8279 16.2072 59.875 16.186L59.8916 16.1821L61.5518 15.7642Z" fill="#00402A" stroke="#00402A" stroke-width="0.5"/>
<path d="M59.5459 7.01514C59.606 7.03782 59.6901 7.0708 59.791 7.11084C59.9925 7.19082 60.2566 7.29764 60.5195 7.40479C60.7824 7.51189 61.0438 7.61933 61.2393 7.69971C61.3233 7.73428 61.3956 7.76313 61.4502 7.78564C61.4505 7.78691 61.4509 7.78826 61.4512 7.78955C61.4688 7.87152 61.4925 7.9897 61.5156 8.13232C61.5621 8.41897 61.6066 8.79861 61.5996 9.18115C61.5925 9.56799 61.5331 9.93352 61.3926 10.2075C61.2588 10.4683 61.0529 10.6467 60.7178 10.6909C60.3899 10.7342 60.04 10.5912 59.6768 10.2954C59.3159 10.0015 58.9736 9.58223 58.6758 9.14209C58.3794 8.70404 58.1338 8.25683 57.9619 7.91846C57.8995 7.79556 57.8481 7.68687 57.8066 7.59912C57.825 7.59261 57.8444 7.58662 57.8643 7.57959C58.0532 7.51255 58.3057 7.42356 58.5596 7.33447C58.8136 7.24535 59.0684 7.15631 59.2627 7.09033C59.3601 7.05726 59.4415 7.03054 59.499 7.01221C59.5064 7.00985 59.5132 7.00736 59.5195 7.00537C59.5275 7.00832 59.5364 7.01155 59.5459 7.01514Z" fill="#FF9C1A" stroke="#00402A" stroke-width="0.5"/>
<path d="M60.3809 17.5635L53.9922 21.3008L53.9883 21.3027C53.6708 21.4977 53.0803 21.8375 52.5068 22.0586C52.219 22.1696 51.9496 22.2453 51.7285 22.2637C51.5016 22.2825 51.378 22.2373 51.3154 22.1748L51.3145 22.1738C50.654 21.5185 50.4229 20.7466 50.5449 20.0645C50.6662 19.3864 51.1427 18.7594 51.9756 18.3984L59.5928 16.2881L60.3809 17.5635Z" fill="#00402A" stroke="#00402A" stroke-width="0.5"/>
<path d="M52.1313 14.494L55.1312 15.3446L53.6924 20.419L50.6925 19.5684L52.1313 14.494Z" fill="#00402A" stroke="#00402A" stroke-width="0.5"/>
<path d="M55.5171 8.15771C55.6626 8.16506 55.7967 8.26924 55.896 8.59033C55.993 8.90421 56.0235 9.33662 56.0151 9.7915C56.0069 10.2412 55.9616 10.692 55.9175 11.0317C55.8955 11.2012 55.8738 11.3426 55.8579 11.4409C55.85 11.49 55.8429 11.5283 55.8384 11.5542C55.8361 11.5671 55.8347 11.577 55.8335 11.5835C55.833 11.5865 55.8328 11.5888 55.8325 11.5903L55.8315 11.5923L55.8296 11.6099L55.2065 16.9204L54.7856 17.106L50.5649 17.1831C50.6924 16.8512 50.8219 16.4219 50.9546 15.9438C51.1497 15.2408 51.362 14.4141 51.6167 13.5532C52.0968 11.9306 52.7077 10.2617 53.5591 9.22021L53.7319 9.02002C53.9551 8.7789 54.2616 8.55222 54.5884 8.39111C54.9176 8.22879 55.2468 8.14374 55.5171 8.15771Z" fill="#FF9C1A" stroke="#00402A" stroke-width="0.5"/>
<path d="M59.1763 4.18457C59.1016 4.27375 58.9975 4.39715 58.8696 4.53516C58.603 4.82277 58.2455 5.17066 57.8716 5.43457C57.486 5.70666 57.1352 5.85112 56.8657 5.81836C56.668 5.79428 56.4426 5.66181 56.27 5.20898L56.1997 4.99414C56.0197 4.35495 56.0328 3.86171 56.1392 3.48242C56.2456 3.10325 56.45 2.82101 56.6782 2.61035C56.908 2.39831 57.1613 2.25933 57.3599 2.17383C57.426 2.14538 57.4863 2.12538 57.5356 2.1084L59.1763 4.18457Z" fill="#00402A" stroke="#00402A" stroke-width="0.5"/>
<path d="M59.3369 4.56006C59.4247 4.79622 59.5471 5.12417 59.6836 5.4917L60.5225 7.75244C60.6765 8.16316 60.5862 8.61581 60.3037 8.9165H60.3027C60.2237 9.00119 60.145 9.08619 60.0605 9.17627L60.0586 9.17822C59.8704 9.38291 59.5907 9.46014 59.3174 9.3833C59.0448 9.30664 58.8265 9.08269 58.752 8.79346V8.79248L58.2109 6.729C58.133 6.431 58.0665 6.17653 58.0195 5.99658C58.0054 5.94231 57.9928 5.89485 57.9824 5.85498L59.3291 4.53955C59.3316 4.5463 59.3343 4.55315 59.3369 4.56006Z" fill="#FF9C1A" stroke="#00402A" stroke-width="0.5"/>
<path opacity="0.45" d="M58.376 6.42773C58.3213 6.52005 58.257 6.61041 58.1729 6.70703L58.1562 6.62305L58.376 6.42773Z" fill="#FF9C1A" stroke="#00402A" stroke-width="0.5"/>
<path d="M57.1973 2.96826C57.3196 2.56718 57.59 2.36225 57.8779 2.40771C58.3699 2.49251 58.9901 2.59541 59.4805 2.67432H59.4814C59.7992 2.72493 60.0335 3.042 59.9834 3.39697L59.9814 3.41455V3.42139C59.8802 4.12547 59.7976 4.75825 59.5977 5.40674L59.5967 5.40771C59.4981 5.73205 59.148 5.97918 58.6846 6.13525C58.286 6.26944 57.8784 6.31122 57.6523 6.29834L57.5674 6.28955C57.4187 6.26597 57.2836 6.17276 57.1787 6.021C57.0732 5.86823 57.0083 5.66843 56.999 5.46924C56.96 4.61732 57.0456 3.47686 57.1973 2.96826Z" fill="#FF9C1A" stroke="#00402A" stroke-width="0.5"/>
<path d="M57.4492 5.46387C57.4394 5.47581 57.4315 5.48367 57.4258 5.4873C57.4235 5.48896 57.4172 5.49485 57.3887 5.4873C57.3573 5.479 57.3337 5.4637 57.3135 5.44434L57.4492 5.46387Z" fill="#FF9C1A" stroke="#00402A" stroke-width="0.5"/>
<path d="M58.3008 1.39209C58.6542 1.34918 59.0664 1.48035 59.5195 1.62158C60.223 1.84022 60.6419 2.03833 60.9111 2.30029C61.138 2.52122 61.2787 2.80853 61.3701 3.26025L61.4062 3.46436C61.5614 4.46347 61.267 5.21576 60.9346 5.72119C60.7676 5.97512 60.5912 6.16705 60.457 6.29443C60.4434 6.30738 60.4287 6.318 60.416 6.32959C60.3931 6.28788 60.3689 6.2391 60.3438 6.18311C60.2631 6.00338 60.1854 5.78524 60.0977 5.55322C60.0131 5.32974 59.9185 5.09265 59.8105 4.90479C59.7563 4.81044 59.6928 4.71778 59.6172 4.64307C59.5416 4.56841 59.4406 4.49815 59.3125 4.47705C59.166 4.45308 58.9719 4.32615 58.7471 4.08447C58.5305 3.85162 58.3175 3.54837 58.1279 3.24072C57.9393 2.93453 57.7781 2.63163 57.6641 2.40479C57.6071 2.29157 57.5619 2.19755 57.5312 2.13232C57.53 2.12965 57.5286 2.12709 57.5273 2.12451C57.626 1.86299 57.7413 1.6947 57.8604 1.5874C57.9896 1.47094 58.1356 1.41214 58.3008 1.39209Z" fill="#00402A" stroke="#00402A" stroke-width="0.5"/>
<path d="M59.6865 4.95752C59.8252 4.68877 60.0628 4.65078 60.1758 4.71533C60.2978 4.78521 60.3935 5.03485 60.252 5.30908C60.1134 5.57757 59.8768 5.61556 59.7637 5.55127C59.6416 5.4815 59.545 5.23185 59.6865 4.95752Z" fill="#FF9C1A" stroke="#00402A" stroke-width="0.5"/>
<path d="M69.603 15.6001C69.5983 14.5809 70.3787 13.7281 71.3716 13.6216L71.5728 13.6099L75.3657 13.5874C77.5906 13.5739 78.7072 14.6275 79.1431 15.6421C79.3649 16.1587 79.4102 16.6646 79.3403 17.0269C79.2659 17.4126 79.0988 17.5234 78.981 17.5239L70.7515 17.5688H70.6313C70.0989 17.5149 69.6726 17.0932 69.6108 16.5601L69.603 16.4438V15.6001Z" fill="#FF9C1A" stroke="#00402A" stroke-width="0.5"/>
<path d="M11.3562 44.6363C11.3845 40.791 14.144 37.7495 17.4555 37.7736C20.7671 37.7979 23.4816 40.8796 23.4535 44.725C23.4253 48.5705 20.6659 51.612 17.3542 51.5877C14.0426 51.5633 11.328 48.4817 11.3562 44.6363Z" fill="#E3850D" stroke="#00402A" stroke-width="0.5"/>
<path d="M15.6918 44.6787C15.7008 43.4677 16.5669 42.5473 17.5629 42.5546C18.5588 42.562 19.4115 43.495 19.4026 44.7059C19.3938 45.9168 18.5275 46.8371 17.5316 46.8299C16.5355 46.8226 15.6829 45.8896 15.6918 44.6787Z" fill="#00402A" stroke="#00402A" stroke-width="0.5"/>
<path d="M4.49854 19.2793C4.78953 18.8791 5.35852 18.7471 6.18018 18.8623C7.00626 18.9782 7.99074 19.3337 8.94775 19.7666C9.90088 20.1977 10.8105 20.6976 11.4829 21.0908C11.8188 21.2873 12.0949 21.4571 12.2866 21.5771C12.3702 21.6294 12.4383 21.6714 12.4878 21.7031L12.6616 23.1455L5.1626 23.1807C4.55239 22.1849 4.38487 21.2143 4.37256 20.4834C4.36619 20.104 4.40139 19.79 4.43799 19.5723C4.45629 19.4634 4.47512 19.3785 4.48877 19.3223C4.49285 19.3055 4.49547 19.2909 4.49854 19.2793Z" fill="#00402A" stroke="#00402A" stroke-width="0.5"/>
</svg>
