<svg width="96" height="80" viewBox="0 0 96 80" fill="none" xmlns="http://www.w3.org/2000/svg">
<path d="M81.9419 27.6475V37.0107H70.3872V27.6475H81.9419Z" fill="#26BF64" stroke="#00402A" stroke-width="0.5" stroke-linejoin="round"/>
<path d="M12.8999 8.84277L11.5894 65.3428L7.67822 63.2734L2.45166 8.44238L10.5845 0.474609L12.8999 8.84277Z" fill="#00A443" stroke="#00402A" stroke-width="0.5" stroke-linejoin="round"/>
<path d="M51.46 9.52002L55.5127 20.519L4.65039 13.7144L5.08691 7.9292L51.46 9.52002Z" fill="#00A443" stroke="#00402A" stroke-width="0.5" stroke-linejoin="round"/>
<path d="M69.8843 11.9692L69.4937 50.1089L63.647 49.6411L63.5981 49.6421L40.3823 52.3442L36.4331 50.2642C36.4331 50.263 36.4331 50.2614 36.4331 50.2603C36.4304 50.1558 36.4266 50.0007 36.4233 49.8003C36.4169 49.3989 36.4122 48.8143 36.4165 48.0825C36.4251 46.6184 36.4719 44.5652 36.6265 42.2114C36.9359 37.4991 37.6745 31.5999 39.3843 26.8032C41.098 21.9907 43.3962 17.7928 45.2671 14.7974C46.2022 13.3002 47.0301 12.1046 47.6235 11.2837C47.9203 10.8732 48.1581 10.556 48.3218 10.3423C48.3928 10.2496 48.4491 10.1757 48.4907 10.1226L69.8843 11.9692Z" fill="#26BF64" stroke="#00402A" stroke-width="0.5" stroke-linejoin="round"/>
<path d="M60.021 14.8784L59.8667 29.3354L44.1069 29.146C44.1222 29.0067 44.1482 28.8094 44.1929 28.5522C44.2944 27.9675 44.4914 27.0735 44.8726 25.8491C45.6286 23.4205 47.1089 19.6923 50.0073 14.5015L60.021 14.8784Z" fill="#26BF64" stroke="#00402A" stroke-width="0.5" stroke-linejoin="round"/>
<path d="M67.6816 15.5923L67.1494 26.0161L63.8115 29.0269V15.5923H67.6816Z" fill="#26BF64" stroke="#00402A" stroke-width="0.5" stroke-linejoin="round"/>
<path d="M90.5161 35.7168L92.8569 50.1611H36.6333L36.4312 47.0293H58.8481C58.9224 47.0292 58.9931 46.9965 59.0405 46.9395L70.5034 33.1416L90.5161 35.7168Z" fill="#00402A" stroke="#00402A" stroke-width="0.5" stroke-linejoin="round"/>
<path d="M95.0923 50.6611V55.6357L36.6079 54.6602L36.4263 50.6611H95.0923Z" fill="#26BF64" stroke="#00402A" stroke-width="0.5" stroke-linejoin="round"/>
<path d="M47.7788 57.2363H82.6323C88.9134 57.2364 93.9966 62.2759 93.9966 68.4932C93.9966 74.7104 88.9134 79.75 82.6323 79.75H47.7788C41.5073 79.7499 36.4146 74.7102 36.4146 68.4932C36.4146 62.276 41.4978 57.2365 47.7788 57.2363Z" fill="#00A443" stroke="#00402A" stroke-width="0.5" stroke-linejoin="round"/>
<path d="M47.6709 61.6196C51.4642 61.6196 54.5438 64.6994 54.5439 68.4927C54.5439 72.286 51.4643 75.3657 47.6709 75.3657C43.8776 75.3656 40.7979 72.2859 40.7979 68.4927C40.798 64.6995 43.8777 61.6198 47.6709 61.6196ZM47.6709 63.4556C44.8959 63.4557 42.6339 65.7176 42.6338 68.4927C42.6338 71.2678 44.8958 73.5306 47.6709 73.5308C50.4462 73.5308 52.709 71.2679 52.709 68.4927C52.7089 65.7175 50.4461 63.4556 47.6709 63.4556Z" fill="#00402A" stroke="#00402A" stroke-width="0.5" stroke-linejoin="round"/>
<path d="M81.6436 61.6196C85.4368 61.6196 88.5165 64.6994 88.5166 68.4927C88.5166 72.286 85.4369 75.3657 81.6436 75.3657C77.8503 75.3656 74.7705 72.286 74.7705 68.4927C74.7706 64.6995 77.8504 61.6198 81.6436 61.6196ZM81.6436 63.4556C78.8685 63.4557 76.6066 65.7176 76.6064 68.4927C76.6064 71.2678 78.8684 73.5306 81.6436 73.5308C84.4188 73.5308 86.6816 71.2679 86.6816 68.4927C86.6815 65.7175 84.4187 63.4556 81.6436 63.4556Z" fill="#00402A" stroke="#00402A" stroke-width="0.5" stroke-linejoin="round"/>
<path d="M81.9375 72.0693L45.1816 70.8369V63.9551L81.7891 63.8115L81.9375 72.0693Z" fill="#26BF64" stroke="#00402A" stroke-width="0.5" stroke-linejoin="round"/>
<path d="M78.3667 67.0991L78.6274 69.8774L49.5806 68.9595L49.7036 67.0991H78.3667Z" fill="#00402A" stroke="#00402A" stroke-width="0.5" stroke-linejoin="round"/>
<path d="M8.20605 54.2124C8.94745 53.7316 9.95067 53.9271 10.4404 54.6421C10.9282 55.3543 10.7347 56.3209 9.99902 56.7983C9.9273 56.8449 9.85349 56.8798 9.75977 56.9302L2.94434 59.937L2.67773 59.2251C2.64125 59.1277 2.54832 59.0623 2.44434 59.062C2.34045 59.0618 2.24702 59.1261 2.20996 59.2231L1.69824 60.5698C1.66274 60.6638 1.68698 60.7701 1.75977 60.8394C1.83288 60.9087 1.94098 60.9279 2.0332 60.8872L2.66211 60.6089L5.29688 67.6411L5.29785 67.6421C5.4633 68.0762 5.23657 68.5695 4.76562 68.7368L4.76465 68.7378C4.30873 68.9023 3.8065 68.6759 3.63184 68.2368C3.62966 68.2285 3.62803 68.2195 3.625 68.2114L0.537109 59.9712L0.303711 59.3481L0.959961 58.9233L8.20605 54.2124ZM2.48633 60.1392L2.37793 60.187L2.44141 60.02L2.48633 60.1392Z" fill="#00402A" stroke="#00402A" stroke-width="0.5" stroke-linejoin="round"/>
<path d="M36.9014 76.3394L37 78.728L26.1611 79.7397L18.3711 72.7446L36.9014 76.3394Z" fill="#00402A" stroke="#00402A" stroke-width="0.5" stroke-linejoin="round"/>
<path d="M24.7534 62.5698L27.1108 79.7349C18.1413 79.9655 12.2552 77.1238 8.60693 74.2212C6.76222 72.7535 5.48603 71.2684 4.67236 70.1519C4.26556 69.5936 3.9744 69.1271 3.78564 68.8022C3.70772 68.6681 3.64793 68.5577 3.604 68.4751L15.1147 59.4565L24.7534 62.5698Z" fill="#26BF64" stroke="#00402A" stroke-width="0.5" stroke-linejoin="round"/>
</svg>
