<svg width="79" height="80" viewBox="0 0 79 80" fill="none" xmlns="http://www.w3.org/2000/svg">
<path d="M38.9961 60.1118L38.8359 60.4233L33.1396 57.5103L33.2988 57.1997L38.9961 60.1118Z" fill="#6BDAFF" stroke="#00402A" stroke-width="0.5"/>
<path d="M34.52 54.5391L32.7388 54.3564L33.0034 52.1172L34.4175 52.0801L34.52 54.5391Z" fill="#6BDAFF" stroke="#00402A" stroke-width="0.5"/>
<path d="M34.8975 54.0151L35.1846 56.4653L35.1885 56.688L28.25 56.8354C28.2896 56.2994 28.4997 55.9323 28.8174 55.6841C29.1947 55.3894 29.7592 55.2345 30.4736 55.2192C30.7539 55.2133 31.0948 55.1728 31.4258 54.9692C31.7267 54.7841 31.9941 54.4791 32.209 53.9995L34.8975 54.0151Z" fill="#6BDAFF" stroke="#00402A" stroke-width="0.5"/>
<path d="M35.2124 57.1143V57.418H31.2896V57.1143H35.2124Z" fill="#6BDAFF" stroke="#00402A" stroke-width="0.5"/>
<path d="M44.9341 40.0913L33.356 41.0288L32.8521 41.0688L33.1909 41.4448C33.7727 42.0902 34.1722 43.0559 34.437 44.1694C34.7007 45.2783 34.8249 46.5089 34.8716 47.6616C34.9182 48.8131 34.8875 49.8801 34.8452 50.6597C34.8241 51.0493 34.7995 51.3669 34.7808 51.5864C34.7762 51.6395 34.7718 51.6868 34.7681 51.728L32.4673 52.0034C32.4627 51.9896 32.4587 51.9747 32.4536 51.9595C32.402 51.8054 32.3263 51.5811 32.231 51.3013C32.0402 50.7414 31.769 49.9579 31.4497 49.063C30.8116 47.2744 29.9774 45.0351 29.1958 43.2476C28.424 41.4825 27.8878 39.6964 27.7319 38.2661C27.6539 37.5501 27.6733 36.939 27.7954 36.4692C27.9171 36.0013 28.1326 35.6994 28.4312 35.5483C28.7833 35.3702 29.5843 35.1412 30.6235 34.897C31.6511 34.6555 32.8806 34.4063 34.064 34.1802C35.2468 33.9542 36.3825 33.7523 37.2222 33.6069C37.6417 33.5343 37.9873 33.4754 38.228 33.4351C38.3481 33.4149 38.4423 33.3997 38.5063 33.3892C38.5383 33.3839 38.5631 33.3792 38.5796 33.3765C38.5832 33.3759 38.5865 33.375 38.5894 33.3745L47.8472 33.0034L44.9341 40.0913Z" fill="#3CC2FF" stroke="#00402A" stroke-width="0.5"/>
<path d="M62.6582 47.6089C71.4387 47.6089 78.5554 54.7099 78.5557 63.4683C78.5557 72.227 71.4388 79.3286 62.6582 79.3286C53.8777 79.3286 46.7607 72.2271 46.7607 63.4683C46.761 54.7099 53.8779 47.6089 62.6582 47.6089Z" fill="#00402A" stroke="#00402A" stroke-width="0.5"/>
<path d="M62.6587 49.7227C70.2687 49.7229 76.4369 55.8776 76.437 63.4688C76.437 71.0597 70.2687 77.2146 62.6587 77.2148C55.0483 77.2148 48.8794 71.0598 48.8794 63.4688C48.8795 55.8775 55.0483 49.7227 62.6587 49.7227Z" fill="#3CC2FF" stroke="#00402A" stroke-width="0.5"/>
<path d="M16.1475 46.4175C24.9277 46.4175 32.0447 53.5185 32.0449 62.2769C32.0449 71.0356 24.9279 78.1372 16.1475 78.1372C7.36705 78.1372 0.25 71.0357 0.25 62.2769C0.250241 53.5184 7.3672 46.4175 16.1475 46.4175Z" fill="#00402A" stroke="#00402A" stroke-width="0.5"/>
<path d="M16.1479 48.5312C23.7581 48.5315 29.9262 54.6862 29.9263 62.2773C29.9263 69.8683 23.7582 76.0232 16.1479 76.0234C8.53752 76.0234 2.36865 69.8684 2.36865 62.2773C2.36874 54.6861 8.53757 48.5312 16.1479 48.5312Z" fill="#3CC2FF" stroke="#00402A" stroke-width="0.5"/>
<path d="M26.8608 29.0664C27.2191 28.9281 27.6179 28.937 27.9692 29.0918C28.1433 29.1685 28.3008 29.2788 28.4321 29.416C28.5633 29.5532 28.6662 29.7149 28.7349 29.8916C28.8034 30.0683 28.8359 30.2569 28.8315 30.4463V30.4473C28.8282 30.5893 28.8045 30.7298 28.7603 30.8643L28.7085 30.9971L27.9409 32.6328L27.8423 32.8428L28.0444 32.957L41.4458 40.5469L41.5034 40.5791H54.4517C54.6459 40.5791 54.8386 40.6173 55.0181 40.6914C55.1976 40.7656 55.3612 40.8747 55.4985 41.0117C55.6358 41.1487 55.7446 41.3115 55.8188 41.4902C55.8931 41.6692 55.9312 41.861 55.9312 42.0547C55.9311 42.4457 55.7758 42.821 55.4985 43.0977C55.2212 43.3744 54.8442 43.5303 54.4517 43.5303H53.603L53.7993 43.8975L63.4468 61.915V61.916C63.509 62.0314 63.5479 62.1575 63.562 62.2871L63.5679 62.418C63.5636 62.593 63.5144 62.7634 63.4243 62.9131L63.4233 62.9141C63.3333 63.0641 63.2062 63.1884 63.0542 63.2744C62.9008 63.3608 62.7275 63.4067 62.5522 63.4062H42.7974L25.6646 45.9961L25.4038 45.7314L25.2573 46.0723L17.813 63.373L17.8052 63.3926C17.764 63.516 17.699 63.6302 17.6128 63.7285C17.5268 63.8267 17.4213 63.9068 17.3032 63.9648C17.1862 64.0217 17.0589 64.055 16.9282 64.0625C16.797 64.07 16.6661 64.0513 16.5435 64.0078H16.5425C16.4194 63.9646 16.306 63.8973 16.2095 63.8096V63.8086L16.1401 63.7402C16.0748 63.668 16.0204 63.5857 15.979 63.4971C15.9239 63.379 15.8933 63.2512 15.8882 63.1211C15.8831 62.9908 15.903 62.8599 15.9487 62.7383L23.5454 45.2588L23.5513 45.2432C23.683 44.8746 23.7245 44.4795 23.6714 44.0918C23.6182 43.7043 23.4723 43.3353 23.2466 43.0156C23.0206 42.6958 22.7205 42.435 22.3726 42.2549C22.0246 42.0748 21.6385 41.9806 21.2466 41.9805C20.7143 41.9805 20.1945 42.1422 19.7573 42.4453C19.3214 42.7475 18.9883 43.1757 18.8022 43.6719L17.8735 46.0225L16.0825 45.9434L17.2417 43.0596L17.2495 43.0381C17.5353 42.0792 18.1235 41.2379 18.9272 40.6396C19.7311 40.0413 20.7074 39.718 21.7104 39.7178H21.936L21.9995 39.5635L26.0591 29.8301C26.2142 29.4797 26.5025 29.2049 26.8608 29.0664ZM26.5493 36.0127L24.9067 40.2822L24.8218 40.5039L25.0386 40.6006C25.5488 40.827 25.9559 41.2347 26.1812 41.7441C26.4063 42.2536 26.4337 42.8283 26.2573 43.3564L26.1138 43.7861L26.0649 43.9326L26.1733 44.041L43.2065 61.2939L43.2798 61.3691H43.3843L59.9858 61.3701H60.394L60.2085 61.0068L51.3892 43.7539L51.3198 43.6172H40.0493L26.9097 35.8867L26.6558 35.7373L26.5493 36.0127Z" fill="#6BDAFF" stroke="#00402A" stroke-width="0.5"/>
<path d="M40.9512 55.9351C43.3681 55.9353 45.3262 57.8904 45.3262 60.3003C45.3259 62.7099 43.3679 64.6643 40.9512 64.6646C38.5342 64.6646 36.5754 62.71 36.5752 60.3003C36.5752 57.8903 38.534 55.9351 40.9512 55.9351Z" fill="#00402A" stroke="#00402A" stroke-width="0.5"/>
<path d="M48.3125 64.1299L46.5879 64.6074L46.0156 62.4258L47.3184 61.876L48.3125 64.1299Z" fill="#6BDAFF" stroke="#00402A" stroke-width="0.5"/>
<path d="M49.6392 65.687L49.7212 65.8862L43.3169 68.5474C43.1575 68.0334 43.2182 67.6149 43.4233 67.2681C43.6668 66.8564 44.1357 66.5069 44.7954 66.2329C45.0552 66.1252 45.3585 65.9639 45.5923 65.6538C45.8049 65.3718 45.9416 64.99 45.9663 64.4653L48.4722 63.5024L49.6392 65.687Z" fill="#6BDAFF" stroke="#00402A" stroke-width="0.5"/>
<path d="M16.7207 23.3311H20.8809L26.4492 28.8867L25.9814 30.2891L20.7334 25.0547L20.6611 24.9814H16.7207C16.501 24.9814 16.29 24.894 16.1348 24.7393C15.9798 24.5845 15.8927 24.3748 15.8926 24.1562L15.8965 24.0752C15.9152 23.8864 15.999 23.7088 16.1348 23.5732C16.29 23.4184 16.5009 23.3311 16.7207 23.3311Z" fill="#6BDAFF" stroke="#00402A" stroke-width="0.5"/>
<path d="M49.1079 29.7231C50.3849 29.0049 51.1548 29.0999 51.6313 29.4282C52.1367 29.7764 52.4126 30.4485 52.5562 31.0864C52.6263 31.3981 52.6615 31.687 52.6792 31.8979C52.688 32.0031 52.6927 32.0886 52.6948 32.147C52.6959 32.176 52.6965 32.1986 52.6968 32.2134V32.2729L52.7085 32.311L52.7095 32.312C52.7097 32.3128 52.71 32.3144 52.7104 32.3159C52.7116 32.3196 52.713 32.3258 52.7153 32.3335C52.7202 32.3495 52.7277 32.3741 52.7368 32.4067C52.7552 32.4723 52.7817 32.5704 52.811 32.6978C52.8697 32.9526 52.9419 33.3239 52.9937 33.7847C53.0973 34.707 53.1185 35.9836 52.7935 37.4009C52.1466 40.2207 50.1168 43.6405 44.5005 45.936L44.0894 46.104L44.4458 46.3677C44.4463 46.368 44.4472 46.3694 44.4487 46.3706C44.4518 46.3729 44.4574 46.3767 44.4644 46.3823C44.4784 46.3935 44.4998 46.4117 44.5278 46.436C44.5843 46.485 44.6675 46.5605 44.7681 46.6646C44.9693 46.8729 45.2412 47.1943 45.5171 47.6392C46.068 48.5274 46.6368 49.9145 46.6792 51.894C46.7229 53.9399 47.0714 56.5518 47.4067 58.644C47.5746 59.6916 47.7396 60.6123 47.8628 61.271C47.9244 61.6004 47.9764 61.8646 48.0122 62.0464C48.0148 62.0598 48.0166 62.073 48.019 62.0854L45.4253 62.645C45.3988 62.5907 45.3664 62.524 45.3286 62.4468C45.2108 62.206 45.0401 61.8578 44.8286 61.4292C44.4055 60.5715 43.8188 59.39 43.1646 58.0952C41.8571 55.5081 40.275 52.4594 39.189 50.6392C38.0758 48.7735 36.9527 47.6161 37.1831 45.5239C37.2989 44.4728 37.7625 43.1726 38.7915 41.4312C39.8202 39.6903 41.4055 37.5215 43.7485 34.7378C46.0892 31.9569 47.8269 30.4437 49.1079 29.7231Z" fill="#3CC2FF" stroke="#00402A" stroke-width="0.5"/>
<path d="M33.7778 18.9214C32.3449 21.1681 29.5339 22.1638 26.9897 22.5845C25.6968 22.7982 24.4916 22.8611 23.6099 22.8696C23.1695 22.8739 22.8104 22.8641 22.562 22.854C22.4378 22.8489 22.3409 22.8434 22.2759 22.8394C22.2436 22.8374 22.2189 22.8356 22.2026 22.8345C22.1945 22.8339 22.188 22.8338 22.1841 22.8335H22.1792L22.0122 22.8198L21.936 22.9683C21.7068 23.4164 21.4828 23.6524 21.2856 23.771C21.0949 23.8856 20.9073 23.9041 20.7173 23.8716C20.5188 23.8376 20.3209 23.749 20.1196 23.6479C20.0247 23.6003 19.9206 23.5458 19.8286 23.5024C19.7358 23.4587 19.6335 23.4155 19.5327 23.3931C19.2922 23.3394 19.1163 23.2144 19.0269 23.0874C18.9621 22.9954 18.9474 22.9146 18.9663 22.8462L18.9956 22.7817C19.1915 22.4825 19.382 22.3253 19.687 22.2124C20.0157 22.0908 20.4755 22.021 21.2241 21.9224C21.8392 21.8406 22.6028 21.6574 23.4302 21.4595C24.0551 21.31 24.7214 21.1501 25.4038 21.0132L26.0903 20.8853C28.5216 20.4709 30.7208 19.2075 32.3042 17.3286L33.7778 18.9214Z" fill="#00402A" stroke="#00402A" stroke-width="0.5"/>
<path d="M43.8403 7.54883C47.2456 7.67772 49.4492 9.21993 50.8091 11.1963C52.1762 13.1833 52.6968 15.6203 52.6968 17.5205V32.0527C45.7985 34.3714 41.6732 34.5543 39.2856 34.1709C38.0838 33.9778 37.3226 33.6417 36.8687 33.3633C36.6416 33.224 36.4902 33.098 36.3979 33.0107C36.3676 32.982 36.3449 32.9562 36.3267 32.9365V18.3672L35.9731 18.5293L33.9419 19.458L31.5962 16.5352C34.1632 15.0066 35.581 12.6786 37.1177 10.8232C37.9184 9.85657 38.7537 9.00952 39.8071 8.41797C40.8563 7.82885 42.1376 7.48443 43.8403 7.54883Z" fill="#6BDAFF" stroke="#00402A" stroke-width="0.5"/>
<mask id="path-18-inside-1_99_19812" fill="white">
<path d="M27.9937 29.8902L33.7001 25.9434H41.8417C42.1427 25.9435 42.4314 26.0629 42.6443 26.2753C42.8572 26.4877 42.9769 26.7757 42.977 27.076C42.9769 27.3763 42.8572 27.6643 42.6443 27.8766C42.4314 28.0889 42.1427 28.2081 41.8417 28.2081H37.205L33.8979 27.8631L27.9965 32.0038"/>
</mask>
<path d="M27.9937 29.8902L33.7001 25.9434H41.8417C42.1427 25.9435 42.4314 26.0629 42.6443 26.2753C42.8572 26.4877 42.9769 26.7757 42.977 27.076C42.9769 27.3763 42.8572 27.6643 42.6443 27.8766C42.4314 28.0889 42.1427 28.2081 41.8417 28.2081H37.205L33.8979 27.8631L27.9965 32.0038" fill="#6BDAFF"/>
<path d="M33.7001 25.9434V25.4434H33.5441L33.4157 25.5321L33.7001 25.9434ZM41.8417 25.9434L41.842 25.4434H41.8417V25.9434ZM42.977 27.076L43.477 27.0762V27.0759L42.977 27.076ZM37.205 28.2081L37.1531 28.7054L37.179 28.7081H37.205V28.2081ZM33.8979 27.8631L33.9498 27.3658L33.7638 27.3464L33.6108 27.4538L33.8979 27.8631ZM27.9937 29.8902L28.2781 30.3015L33.9846 26.3546L33.7001 25.9434L33.4157 25.5321L27.7092 29.479L27.9937 29.8902ZM33.7001 25.9434V26.4434H41.8417V25.9434V25.4434H33.7001V25.9434ZM41.8417 25.9434L41.8414 26.4434C42.0103 26.4435 42.1721 26.5105 42.2911 26.6292L42.6443 26.2753L42.9974 25.9213C42.6908 25.6154 42.2752 25.4436 41.842 25.4434L41.8417 25.9434ZM42.6443 26.2753L42.2911 26.6292C42.4102 26.7481 42.4769 26.9089 42.477 27.0762L42.977 27.076L43.477 27.0759C43.4768 26.6425 43.3041 26.2273 42.9974 25.9213L42.6443 26.2753ZM42.977 27.076L42.477 27.0759C42.4769 27.2431 42.4102 27.4038 42.2912 27.5225L42.6443 27.8766L42.9973 28.2306C43.3041 27.9247 43.4768 27.5095 43.477 27.0762L42.977 27.076ZM42.6443 27.8766L42.2912 27.5225C42.1721 27.6413 42.0105 27.7081 41.8417 27.7081V28.2081V28.7081C42.2749 28.7081 42.6906 28.5365 42.9973 28.2306L42.6443 27.8766ZM41.8417 28.2081V27.7081H37.205V28.2081V28.7081H41.8417V28.2081ZM37.205 28.2081L37.2569 27.7108L33.9498 27.3658L33.8979 27.8631L33.846 28.3604L37.1531 28.7054L37.205 28.2081ZM33.8979 27.8631L33.6108 27.4538L27.7093 31.5945L27.9965 32.0038L28.2837 32.4131L34.1851 28.2724L33.8979 27.8631Z" fill="#00402A" mask="url(#path-18-inside-1_99_19812)"/>
<path d="M49.5986 22.5186C48.8781 24.5481 47.2835 25.6249 45.8174 26.1963C45.06 26.4915 44.3439 26.6485 43.8174 26.7324C43.5596 26.7735 43.3481 26.7966 43.2002 26.8096C43.1459 26.4765 42.9909 26.2213 42.7676 26.0371C42.4989 25.8157 42.1557 25.7137 41.8418 25.668C41.5248 25.6218 41.2128 25.6299 40.9834 25.6484C40.8679 25.6578 40.7713 25.6698 40.7031 25.6797C40.6692 25.6846 40.6421 25.6891 40.623 25.6924C40.6189 25.6931 40.6147 25.6937 40.6113 25.6943C40.2747 25.6997 39.8958 25.8015 39.5293 25.9248C39.1609 26.0488 38.7421 26.2169 38.3984 26.3389C38.0329 26.4686 37.7227 26.5579 37.4873 26.5684C37.3723 26.5734 37.293 26.5582 37.2402 26.5342C37.1939 26.513 37.1575 26.4802 37.1289 26.4199C37.0396 26.2312 37.0223 26.0753 37.0479 25.9482C37.0733 25.822 37.146 25.6985 37.2812 25.582C37.5613 25.3412 38.0856 25.1537 38.8428 25.0938C39.5936 25.0343 40.0229 25.1299 40.2529 25.2236C40.3673 25.2703 40.4338 25.3172 40.4678 25.3457C40.4828 25.3583 40.4918 25.3683 40.4961 25.373L40.5596 25.4727L40.6846 25.4814C42.519 25.6198 44.0808 24.4748 45.1562 23.3535C45.6991 22.7875 46.1307 22.2142 46.4268 21.7832C46.5748 21.5677 46.6897 21.3872 46.7676 21.2598C46.7688 21.2578 46.7693 21.2549 46.7705 21.2529L49.5986 22.5186Z" fill="#00402A" stroke="#00402A" stroke-width="0.5"/>
<path d="M41.8101 1.09082C42.3695 1.09091 42.9047 1.4249 43.311 2.02344C43.7166 2.62079 43.9761 3.46014 43.9761 4.39941C43.9761 5.33872 43.7166 6.17804 43.311 6.77539C42.9047 7.37396 42.3696 7.70792 41.8101 7.70801C41.2504 7.70801 40.7145 7.3741 40.3081 6.77539C39.9026 6.17805 39.644 5.33865 39.644 4.39941C39.644 3.46018 39.9026 2.62078 40.3081 2.02344C40.7145 1.42473 41.2504 1.09082 41.8101 1.09082Z" fill="#6BDAFF" stroke="#00402A" stroke-width="0.5"/>
<path d="M44.0571 5.75488C44.05 5.99452 44.0585 6.32492 44.1216 6.68555C44.2375 7.3479 44.5461 8.14533 45.3159 8.64355C45.039 9.25764 44.5894 9.77994 44.0161 10.1416C43.4627 10.4907 42.8225 10.6749 42.1714 10.6748L41.8921 10.6631H41.8784C41.1504 10.642 40.7471 10.5054 40.5415 10.3496C40.3596 10.2116 40.314 10.0448 40.3511 9.84473C40.3916 9.62601 40.5337 9.37463 40.7319 9.14258C40.9285 8.91255 41.158 8.72738 41.3394 8.63184C41.6472 8.46973 41.777 8.18879 41.8071 7.90234C41.8361 7.626 41.7765 7.32694 41.6968 7.06738C41.6159 6.80397 41.5074 6.5584 41.4204 6.38086C41.4196 6.37916 41.4183 6.37767 41.4175 6.37598L44.0591 5.7168C44.0586 5.72922 44.0575 5.74194 44.0571 5.75488Z" fill="#6BDAFF" stroke="#00402A" stroke-width="0.5"/>
<path d="M43.4385 4.42969V4.43164C43.4387 4.43329 43.4391 4.4359 43.4395 4.43945C43.4403 4.44666 43.4419 4.45801 43.4434 4.47266C43.4464 4.50196 43.4506 4.54584 43.4551 4.60156C43.464 4.71348 43.4741 4.87438 43.4785 5.06738C43.4874 5.45514 43.4731 5.96696 43.3838 6.47461C43.2938 6.98606 43.131 7.4708 42.8594 7.82227C42.5965 8.16236 42.2253 8.38672 41.6758 8.38672C41.0942 8.38663 40.676 8.22464 40.3701 7.99316C40.0611 7.75922 39.8511 7.44265 39.709 7.11426C39.5668 6.78569 39.4964 6.45356 39.4619 6.20117C39.4448 6.07565 39.4364 5.97134 39.4326 5.89941L39.4316 5.89746C39.6609 5.69823 39.8823 5.60697 40.0957 5.57422C40.3389 5.53697 40.5919 5.57352 40.8633 5.64844C41.1472 5.7268 41.3987 5.82924 41.6992 5.92676C41.9808 6.01811 42.2858 6.0962 42.5918 6.0791C43.0053 6.05592 43.2184 5.73459 43.3193 5.41406C43.4156 5.10793 43.4375 4.72823 43.4307 4.36816L43.4385 4.42969ZM43.7998 2.96289C43.9846 2.94907 44.1408 2.95688 44.2412 2.98828C44.2889 3.00326 44.3077 3.01833 44.3125 3.02344C44.3134 3.02408 44.316 3.02697 44.3164 3.04102V3.05371L44.3184 3.06543C44.4317 3.95046 44.4587 4.84365 44.4043 5.7334L44.3174 4.38281L44.3027 4.14941H43.4229C43.4062 3.82321 43.37 3.50972 43.335 3.26855C43.3222 3.18097 43.308 3.10277 43.2969 3.03613C43.2983 3.03583 43.3003 3.03644 43.3018 3.03613C43.4404 3.00759 43.6214 2.97626 43.7998 2.96289Z" fill="#00402A" stroke="#00402A" stroke-width="0.5"/>
<mask id="path-24-inside-2_99_19812" fill="white">
<path d="M44.0654 4.3999C44.2804 4.3999 44.4866 4.48509 44.6386 4.63674C44.7906 4.78839 44.876 4.99405 44.876 5.20852C44.876 5.42299 44.7906 5.62868 44.6386 5.78031C44.4866 5.93199 44.2804 6.01718 44.0654 6.01718"/>
</mask>
<path d="M44.0654 4.3999C44.2804 4.3999 44.4866 4.48509 44.6386 4.63674C44.7906 4.78839 44.876 4.99405 44.876 5.20852C44.876 5.42299 44.7906 5.62868 44.6386 5.78031C44.4866 5.93199 44.2804 6.01718 44.0654 6.01718" fill="#6BDAFF"/>
<path d="M44.6386 4.63674L44.9918 4.2828L44.9917 4.28273L44.6386 4.63674ZM44.0654 4.3999V4.8999C44.1481 4.8999 44.2273 4.9327 44.2855 4.99075L44.6386 4.63674L44.9917 4.28273C44.7458 4.03749 44.4126 3.8999 44.0654 3.8999V4.3999ZM44.6386 4.63674L44.2854 4.99068C44.3435 5.04866 44.376 5.12703 44.376 5.20852H44.876H45.376C45.376 4.86108 45.2376 4.52812 44.9918 4.2828L44.6386 4.63674ZM44.876 5.20852H44.376C44.376 5.29004 44.3435 5.36842 44.2855 5.42634L44.6386 5.78031L44.9917 6.13427C45.2376 5.88894 45.376 5.55594 45.376 5.20852H44.876ZM44.6386 5.78031L44.2855 5.42634C44.2273 5.48439 44.1482 5.51718 44.0654 5.51718V6.01718V6.51718C44.4126 6.51718 44.7458 6.3796 44.9917 6.13427L44.6386 5.78031Z" fill="#00402A" mask="url(#path-24-inside-2_99_19812)"/>
<path d="M42.5522 0.25C43.0475 0.25 43.408 0.410114 43.6772 0.643555C43.9513 0.881181 44.1431 1.20553 44.2759 1.5459C44.4083 1.88556 44.4769 2.2296 44.5122 2.49023C44.519 2.54053 44.5214 2.58784 44.5259 2.63086L39.3433 2.10352C39.3465 2.07408 39.3501 2.04198 39.356 2.00781C39.3887 1.81699 39.4664 1.56206 39.644 1.30762C39.9904 0.81173 40.767 0.250088 42.5522 0.25Z" fill="#00402A" stroke="#00402A" stroke-width="0.5"/>
<path d="M38.0806 2.22021C38.3634 2.2271 38.7025 2.25055 39.0767 2.28662C39.8246 2.35875 40.7043 2.47984 41.5464 2.60889C42.1859 2.70689 42.8022 2.81022 43.3208 2.8999C42.9255 2.88561 42.4772 2.87108 42.0093 2.85303C40.5061 2.79503 38.8063 2.72136 38.0005 2.66162C37.6059 2.63236 37.3049 2.57933 37.0962 2.51611C37.001 2.4873 36.931 2.45694 36.8813 2.43018C36.9817 2.37341 37.1628 2.30694 37.4458 2.25049C37.5796 2.22386 37.7938 2.21325 38.0806 2.22021Z" fill="#00402A" stroke="#00402A" stroke-width="0.5"/>
<path d="M45.8618 67.5918L45.5581 67.7666L42.3579 62.2363L42.6616 62.0615L45.8618 67.5918Z" fill="#6BDAFF" stroke="#00402A" stroke-width="0.5"/>
<path d="M48.4404 67.3306L44.7432 68.6411L44.6406 68.354L48.3379 67.0444L48.4404 67.3306Z" fill="#6BDAFF" stroke="#00402A" stroke-width="0.5"/>
</svg>
