<svg width="191" height="96" viewBox="0 0 191 96" fill="none" xmlns="http://www.w3.org/2000/svg">
<mask id="path-1-inside-1_99_19242" fill="white">
<path d="M115.544 17.5787C111.909 17.5787 108.962 14.6636 108.962 11.0667C108.962 7.46981 111.909 4.55469 115.544 4.55469C119.18 4.55469 122.127 7.46981 122.127 11.0667"/>
</mask>
<path d="M115.544 17.5787C111.909 17.5787 108.962 14.6636 108.962 11.0667C108.962 7.46981 111.909 4.55469 115.544 4.55469C119.18 4.55469 122.127 7.46981 122.127 11.0667" fill="#A2BCB1"/>
<path d="M115.544 17.5787V17.0787C112.18 17.0787 109.462 14.3824 109.462 11.0667H108.962H108.462C108.462 14.9447 111.638 18.0787 115.544 18.0787V17.5787ZM108.962 11.0667H109.462C109.462 7.75098 112.18 5.05469 115.544 5.05469V4.55469V4.05469C111.638 4.05469 108.462 7.18863 108.462 11.0667H108.962ZM115.544 4.55469V5.05469C118.909 5.05469 121.627 7.75098 121.627 11.0667H122.127H122.627C122.627 7.18863 119.451 4.05469 115.544 4.05469V4.55469Z" fill="#00402A" mask="url(#path-1-inside-1_99_19242)"/>
<path d="M121.871 11.3174C121.741 14.576 119.094 17.1956 115.794 17.3223V11.3174H121.871Z" fill="#00402A" stroke="#00402A" stroke-width="0.5"/>
<mask id="path-4-inside-2_99_19242" fill="white">
<path d="M137.982 11.0667C137.982 14.6636 135.036 17.5787 131.4 17.5787C127.765 17.5787 124.818 14.6636 124.818 11.0667C124.818 7.46981 127.765 4.55469 131.4 4.55469"/>
</mask>
<path d="M137.982 11.0667C137.982 14.6636 135.036 17.5787 131.4 17.5787C127.765 17.5787 124.818 14.6636 124.818 11.0667C124.818 7.46981 127.765 4.55469 131.4 4.55469" fill="#A2BCB1"/>
<path d="M137.982 11.0667H137.482C137.482 14.3824 134.765 17.0787 131.4 17.0787V17.5787V18.0787C135.307 18.0787 138.482 14.9447 138.482 11.0667H137.982ZM131.4 17.5787V17.0787C128.036 17.0787 125.318 14.3824 125.318 11.0667H124.818H124.318C124.318 14.9447 127.494 18.0787 131.4 18.0787V17.5787ZM124.818 11.0667H125.318C125.318 7.75098 128.036 5.05469 131.4 5.05469V4.55469V4.05469C127.494 4.05469 124.318 7.18863 124.318 11.0667H124.818Z" fill="#00402A" mask="url(#path-4-inside-2_99_19242)"/>
<path d="M131.65 4.81055C134.95 4.93716 137.597 7.55788 137.727 10.8164H131.65V4.81055Z" fill="#00402A" stroke="#00402A" stroke-width="0.5"/>
<mask id="path-7-inside-3_99_19242" fill="white">
<path d="M110.891 20.5985C112.082 19.4197 113.728 18.6909 115.544 18.6909C119.18 18.6909 122.127 21.606 122.127 25.2029C122.127 28.7998 119.18 31.7149 115.544 31.7149C111.909 31.7149 108.962 28.7998 108.962 25.2029"/>
</mask>
<path d="M110.891 20.5985C112.082 19.4197 113.728 18.6909 115.544 18.6909C119.18 18.6909 122.127 21.606 122.127 25.2029C122.127 28.7998 119.18 31.7149 115.544 31.7149C111.909 31.7149 108.962 28.7998 108.962 25.2029" fill="#00402A"/>
<path d="M110.891 20.5985L111.242 20.9539C112.343 19.8645 113.865 19.1909 115.544 19.1909V18.6909V18.1909C113.592 18.1909 111.821 18.9749 110.539 20.2431L110.891 20.5985ZM115.544 18.6909V19.1909C118.909 19.1909 121.627 21.8872 121.627 25.2029H122.127H122.627C122.627 21.3249 119.451 18.1909 115.544 18.1909V18.6909ZM122.127 25.2029H121.627C121.627 28.5186 118.909 31.2149 115.544 31.2149V31.7149V32.2149C119.451 32.2149 122.627 29.081 122.627 25.2029H122.127ZM115.544 31.7149V31.2149C112.18 31.2149 109.462 28.5186 109.462 25.2029H108.962H108.462C108.462 29.081 111.638 32.2149 115.544 32.2149V31.7149Z" fill="#00402A" mask="url(#path-7-inside-3_99_19242)"/>
<path d="M114.936 24.9531H109.218C109.279 23.4104 109.903 22.0141 110.894 20.9541L114.936 24.9531Z" fill="#A2BCB1" stroke="#00402A" stroke-width="0.5"/>
<mask id="path-10-inside-4_99_19242" fill="white">
<path d="M124.815 25.2029C124.815 21.606 127.761 18.6909 131.397 18.6909C135.033 18.6909 137.979 21.606 137.979 25.2029"/>
</mask>
<path d="M124.815 25.2029C124.815 21.606 127.761 18.6909 131.397 18.6909C135.033 18.6909 137.979 21.606 137.979 25.2029" fill="#A2BCB1"/>
<path d="M124.815 25.2029H125.315C125.315 21.8872 128.033 19.1909 131.397 19.1909V18.6909V18.1909C127.49 18.1909 124.315 21.3249 124.315 25.2029H124.815ZM131.397 18.6909V19.1909C134.761 19.1909 137.479 21.8872 137.479 25.2029H137.979H138.479C138.479 21.3249 135.304 18.1909 131.397 18.1909V18.6909Z" fill="#00402A" mask="url(#path-10-inside-4_99_19242)"/>
<mask id="path-12-inside-5_99_19242" fill="white">
<path d="M137.982 25.2026C137.982 28.7995 135.036 31.7146 131.4 31.7146C127.765 31.7146 124.818 28.7995 124.818 25.2026"/>
</mask>
<path d="M137.982 25.2026C137.982 28.7995 135.036 31.7146 131.4 31.7146C127.765 31.7146 124.818 28.7995 124.818 25.2026" fill="#A2BCB1"/>
<path d="M137.982 25.2026H137.482C137.482 28.5183 134.765 31.2146 131.4 31.2146V31.7146V32.2146C135.307 32.2146 138.482 29.0807 138.482 25.2026H137.982ZM131.4 31.7146V31.2146C128.036 31.2146 125.318 28.5183 125.318 25.2026H124.818H124.318C124.318 29.0807 127.494 32.2146 131.4 32.2146V31.7146Z" fill="#00402A" mask="url(#path-12-inside-5_99_19242)"/>
<path d="M146.045 18.1079V31.0278H142.356V18.1079H146.045Z" fill="#A2BCB1" stroke="#00402A" stroke-width="0.5"/>
<path d="M52.7051 32.0654H39.6406V30.4932H52.7051V32.0654Z" fill="#A2BCB1" stroke="#00402A" stroke-width="0.5"/>
<path d="M52.7051 27.6836H39.6406V26.1113H52.7051V27.6836Z" fill="#A2BCB1" stroke="#00402A" stroke-width="0.5"/>
<path d="M52.7051 23.3032H39.6406V21.731H52.7051V23.3032Z" fill="#A2BCB1" stroke="#00402A" stroke-width="0.5"/>
<path d="M151.989 13.5596V31.0273H148.301V13.5596H151.989Z" fill="#A2BCB1" stroke="#00402A" stroke-width="0.5"/>
<path d="M158.15 7.82422V31.0283H154.462V7.82422H158.15Z" fill="#A2BCB1" stroke="#00402A" stroke-width="0.5"/>
<path d="M102.354 37.2568V43.9775H95.5557V37.2568H102.354Z" fill="#A2BCB1" stroke="#00402A" stroke-width="0.5"/>
<path d="M112.293 37.2568V43.9775H105.495V37.2568H112.293Z" fill="#A2BCB1" stroke="#00402A" stroke-width="0.5"/>
<path d="M122.236 37.2568V43.9775H115.438V37.2568H122.236Z" fill="#A2BCB1" stroke="#00402A" stroke-width="0.5"/>
<path d="M114.271 7.46729C114.324 7.47204 114.399 7.47944 114.488 7.49072C114.667 7.51347 114.898 7.55079 115.114 7.60791C115.338 7.66726 115.51 7.73981 115.602 7.81592C115.643 7.85012 115.651 7.87147 115.653 7.87646C115.653 7.87829 115.654 7.88206 115.653 7.88916C115.652 7.89714 115.647 7.91303 115.634 7.93701C115.453 8.2662 115.279 8.43513 115.012 8.75049C114.746 9.06416 114.424 9.48564 113.988 10.2817C113.797 10.6298 113.444 10.9962 113 11.355C112.56 11.7108 112.047 12.0458 111.556 12.3354C111.066 12.6247 110.601 12.8664 110.258 13.0356C110.097 13.1153 109.963 13.1784 109.867 13.2231L109.023 12.2427C109.037 12.228 109.053 12.2106 109.072 12.1929C109.124 12.1423 109.187 12.0855 109.259 12.019C109.331 11.9533 109.411 11.8797 109.495 11.7993C109.827 11.4797 110.233 11.0375 110.475 10.4702C110.625 10.1207 110.694 9.68379 111.168 9.15186C111.635 8.62871 112.503 8.01662 114.236 7.46436C114.246 7.4652 114.258 7.46609 114.271 7.46729Z" fill="#0DA9FF" stroke="#00402A" stroke-width="0.5"/>
<path d="M70.5063 94.1465H67.4136L67.6694 92.3867L70.5063 92.0322V94.1465Z" fill="#0DA9FF" stroke="#00402A" stroke-width="0.5"/>
<path d="M86.8545 94.1465H83.7646L84.0205 92.3867L86.8545 92.0332V94.1465Z" fill="#0DA9FF" stroke="#00402A" stroke-width="0.5"/>
<path d="M70.7983 93.9399C71.3607 94.1663 71.691 94.2602 72.1558 94.3062C72.6073 94.3508 73.2115 94.3519 74.3071 94.4097C75.3601 94.4652 75.97 94.8507 76.3159 95.2026C76.4385 95.3273 76.5293 95.4502 76.5962 95.5562H66.6968L67.0591 93.9399H70.7983Z" fill="#0DA9FF" stroke="#00402A" stroke-width="0.5"/>
<path d="M87.3843 93.9399C87.9467 94.1663 88.2769 94.2602 88.7417 94.3062C89.1932 94.3508 89.7974 94.3519 90.8931 94.4097C91.946 94.4652 92.5559 94.8507 92.9019 95.2026C93.0244 95.3273 93.1153 95.4502 93.1821 95.5562H83.2827L83.645 93.9399H87.3843Z" fill="#0DA9FF" stroke="#00402A" stroke-width="0.5"/>
<path d="M110.404 13.207C110.345 13.2785 110.263 13.3788 110.161 13.5029C109.937 13.7735 109.617 14.1607 109.228 14.626C108.45 15.5569 107.4 16.8014 106.309 18.0566C105.218 19.3127 104.087 20.5777 103.15 21.5488C102.681 22.0346 102.264 22.444 101.925 22.7412C101.756 22.8899 101.609 23.0073 101.489 23.0918C101.425 23.1361 101.374 23.1677 101.333 23.1895L101.246 23.2285C101.243 23.2291 101.24 23.2303 101.235 23.2314C101.224 23.2341 101.207 23.238 101.185 23.2432C101.141 23.2534 101.073 23.2678 100.985 23.2861C100.808 23.3228 100.547 23.3733 100.209 23.4268C99.5341 23.5338 98.5551 23.6541 97.3472 23.7051C94.9308 23.807 91.6011 23.632 87.9478 22.5254L87.6313 22.4297L87.6255 22.7598V22.7744C87.6253 22.784 87.6249 22.7985 87.6245 22.8174C87.6238 22.8556 87.6221 22.9131 87.6206 22.9873C87.6176 23.1357 87.6133 23.3538 87.6069 23.6318C87.5942 24.1882 87.5742 24.9851 87.5454 25.9473C87.4879 27.8722 87.3953 30.4585 87.2544 33.1025C87.1134 35.7474 86.924 38.4468 86.6743 40.6006C86.5494 41.678 86.4105 42.6138 86.2554 43.3359C86.1778 43.6972 86.097 44.0008 86.0142 44.2393C85.9542 44.4118 85.8961 44.5402 85.8433 44.6299H67.4946C67.5095 44.5558 67.5272 44.469 67.5464 44.3701C67.6162 44.0113 67.7126 43.4949 67.8198 42.8652C68.0342 41.6059 68.2916 39.8894 68.4634 38.0654C68.635 36.2431 68.7221 34.305 68.5923 32.6035C68.4635 30.9155 68.1188 29.4077 67.3843 28.4922L67.2163 28.2842L67.02 28.4639L63.8999 31.3223L59.103 30.46C59.1275 30.4046 59.1561 30.3422 59.187 30.2725C59.3228 29.9662 59.5187 29.5258 59.7573 28.9912C60.2346 27.922 60.8841 26.4745 61.5747 24.9609C62.9603 21.9242 64.498 18.6494 65.1411 17.6064C65.2674 17.4017 65.5449 17.1808 65.9839 16.958C66.4153 16.7391 66.971 16.5336 67.6128 16.3428C68.8958 15.9612 70.4922 15.6468 72.0562 15.3975C73.6184 15.1484 75.1413 14.9647 76.2739 14.8438C76.84 14.7833 77.3087 14.7387 77.6353 14.709C77.7984 14.6941 77.9263 14.6831 78.0132 14.6758C78.0566 14.6721 78.0905 14.6688 78.1128 14.667C78.1235 14.6661 78.1317 14.6655 78.1372 14.665H78.146L78.3765 14.6465V14.6377C78.3884 14.6366 78.4008 14.636 78.4136 14.6348C78.5824 14.6187 78.8269 14.597 79.1274 14.5723C79.7289 14.5229 80.5557 14.4633 81.4565 14.4238C83.2725 14.3442 85.3453 14.3473 86.5044 14.6533C88.5564 15.1956 91.4951 16.106 93.9243 16.8818C95.1381 17.2695 96.2236 17.6231 97.0054 17.8799C97.3962 18.0082 97.711 18.1125 97.9282 18.1846C98.0368 18.2206 98.1212 18.2486 98.1782 18.2676C98.2065 18.277 98.2281 18.2842 98.2427 18.2891C98.25 18.2915 98.2556 18.2937 98.2593 18.2949C98.2609 18.2955 98.2623 18.2956 98.2632 18.2959H98.2651L98.3745 18.333L98.4731 18.2734L109.538 11.5879L110.404 13.207Z" fill="#00402A" stroke="#00402A" stroke-width="0.5"/>
<path d="M83.4814 33.0684L81.9561 42.5664H73.707L74.7666 36.9824L74.7686 36.9707L75.3125 33.0684H83.4814Z" fill="#0DA9FF" stroke="#00402A" stroke-width="0.5"/>
<path d="M76.5962 36.4668C77.7448 36.4347 78.9482 36.724 79.5229 37.8955C79.6118 38.2357 79.6426 38.4181 79.6333 38.5205C79.6308 38.5473 79.6255 38.5587 79.6235 38.5625C79.621 38.5648 79.6087 38.5746 79.5718 38.5859C79.4611 38.6199 79.2789 38.6301 78.9517 38.6465C78.6397 38.6621 78.2314 38.6832 77.7192 38.751C77.1937 38.8205 76.8279 38.9392 76.5229 39.0547C76.2108 39.173 76.0031 39.2702 75.7427 39.3271C75.2482 39.4351 74.5535 39.3918 72.8208 38.7646C72.3971 38.6113 72.1243 38.4665 71.9614 38.3389C71.7978 38.2106 71.7751 38.1241 71.7739 38.0869C71.7728 38.0461 71.7941 37.9746 71.9009 37.8701C72.0058 37.7675 72.1653 37.6611 72.3667 37.5566C72.7679 37.3485 73.2814 37.1736 73.7026 37.0498C73.9114 36.9884 74.0945 36.9408 74.2251 36.9082C74.2904 36.8919 74.3429 36.8794 74.3784 36.8711C74.3959 36.867 74.4094 36.8644 74.4185 36.8623C74.423 36.8613 74.427 36.8599 74.4292 36.8594H74.4321L74.4185 36.7402C74.457 36.8489 74.4585 36.8505 74.4585 36.8506L74.4604 36.8496C74.4619 36.8491 74.4643 36.8487 74.4673 36.8477C74.4742 36.8453 74.4853 36.8416 74.4995 36.8369C74.5281 36.8275 74.5712 36.8136 74.6265 36.7969C74.7371 36.7635 74.8975 36.7181 75.0942 36.6719C75.489 36.5791 76.025 36.4828 76.5962 36.4668Z" fill="#0DA9FF" stroke="#00402A" stroke-width="0.5"/>
<path d="M77.7461 10.3696L78.252 15.5981C78.242 15.6064 78.2322 15.6162 78.2207 15.6255C78.1375 15.6929 78.0132 15.7867 77.8545 15.8921C77.5363 16.1034 77.0813 16.3563 76.5332 16.5239C75.4739 16.8477 74.0541 16.8596 72.5566 15.604L73.6074 9.88916L77.7461 10.3696Z" fill="#0DA9FF" stroke="#00402A" stroke-width="0.5"/>
<path d="M64.6797 30.6064L63.5547 31.6377L63.8604 31.8047L73.0264 36.8389C72.9217 36.9868 72.7884 37.1966 72.6689 37.4502C72.4719 37.8685 72.3026 38.4266 72.3867 39.0264C72.3402 39.017 72.2896 39.0072 72.2354 38.9961C71.8959 38.9267 71.4089 38.8245 70.8193 38.6953C69.6397 38.4368 68.0502 38.0686 66.4111 37.6289C64.7708 37.1889 63.0862 36.6785 61.7129 36.1377C61.0261 35.8673 60.4222 35.5916 59.9434 35.3154C59.459 35.0361 59.1255 34.7694 58.9531 34.5273L58.8193 34.3281C58.1908 33.3375 58.2158 32.4569 58.4834 31.625C58.6289 31.1727 58.8466 30.7335 59.0811 30.2949C59.2767 29.9289 59.4857 29.5553 59.6621 29.1895L64.6797 30.6064Z" fill="#00402A" stroke="#00402A" stroke-width="0.5"/>
<path d="M78.0771 3.61963C78.1882 3.74672 78.3526 3.96696 78.5498 4.32275C78.9445 5.03501 79.4657 6.2901 79.9355 8.43604C80.0638 9.0211 80.1275 9.67799 80.0576 10.2808C79.9875 10.8851 79.7863 11.4105 79.4082 11.7671C79.0359 12.1182 78.4556 12.3398 77.5527 12.2681C76.6441 12.1958 75.4254 11.8264 73.8125 11.0103C72.2227 10.2057 71.7974 9.37423 71.8838 8.62744C71.9761 7.83023 72.654 6.99137 73.6016 6.20557C74.5357 5.43091 75.676 4.75348 76.5879 4.26709C77.0427 4.0245 77.4389 3.83061 77.7207 3.69775C77.8433 3.63994 77.9438 3.59281 78.0186 3.55908C78.0355 3.57676 78.0563 3.59571 78.0771 3.61963Z" fill="#0DA9FF" stroke="#00402A" stroke-width="0.5"/>
<path d="M75.1807 0.280273C75.6938 0.315627 76.3634 0.391388 77.001 0.551758C77.6454 0.713866 78.2247 0.954109 78.5869 1.29785C78.7643 1.46623 78.8857 1.65538 78.9424 1.87012C78.999 2.08457 78.9952 2.34307 78.8955 2.6582V2.65918C78.6853 3.32384 78.4009 3.68502 78.0791 3.91504C77.7461 4.15309 77.3536 4.26768 76.877 4.4043C76.4102 4.5381 75.8778 4.68938 75.3389 5.01562C74.7958 5.34444 74.2569 5.84352 73.749 6.65918C72.7453 8.27286 72.6531 9.45177 72.8506 10.25C72.8855 10.391 72.9323 10.5172 72.9805 10.6318C72.7096 10.4857 72.3937 10.2936 72.0723 10.0498C71.1929 9.38303 70.2897 8.34886 70.1055 6.84863C69.9563 5.61402 70.1815 4.85004 70.5596 4.32617C70.9444 3.79302 71.5119 3.47053 72.1338 3.16895C72.7347 2.87756 73.4155 2.59516 73.8975 2.1377C74.3575 1.7009 74.6315 1.11498 74.5908 0.25293C74.7395 0.256359 74.9425 0.263873 75.1807 0.280273Z" fill="#0792E5" stroke="#00402A" stroke-width="0.5"/>
<path d="M72.7588 7.14844C72.8322 7.14396 72.9026 7.16298 72.9746 7.20801C73.1306 7.30577 73.2809 7.51551 73.4121 7.79688C73.5396 8.07024 73.6328 8.37445 73.6943 8.61426C73.7249 8.73328 73.7471 8.83511 73.7617 8.90625C73.7685 8.93928 73.7729 8.96582 73.7764 8.98438C73.7747 9.00051 73.7721 9.02439 73.7666 9.05273C73.7545 9.11452 73.7318 9.19335 73.6914 9.26953C73.6514 9.34496 73.5962 9.41381 73.5195 9.46387C73.4444 9.51278 73.3347 9.55273 73.1699 9.55273C73.0467 9.55265 72.8667 9.47955 72.6709 9.31055C72.481 9.14654 72.304 8.91608 72.1855 8.66113C72.0667 8.40537 72.0144 8.14016 72.0488 7.90332C72.0822 7.6744 72.1987 7.45404 72.4551 7.27344C72.583 7.18336 72.6834 7.15309 72.7588 7.14844Z" fill="#0DA9FF" stroke="#00402A" stroke-width="0.5"/>
<path d="M85.7417 45.1255L89.1548 92.6479H82.3706C82.3685 92.6392 82.366 92.6299 82.3638 92.6206C82.3299 92.477 82.2805 92.265 82.2173 91.9917C82.0907 91.4444 81.9091 90.6503 81.6919 89.6665C81.2576 87.6989 80.6791 84.9703 80.1001 81.9263C78.9408 75.8313 77.7857 68.4931 77.7856 63.4614C77.7856 58.4097 77.9769 53.7678 78.1685 50.3892C78.2643 48.6999 78.3603 47.3262 78.4321 46.3755C78.468 45.9003 78.4981 45.5305 78.519 45.2798C78.5239 45.2219 78.5289 45.1705 78.5327 45.1255H85.7417Z" fill="#0DA9FF" stroke="#00402A" stroke-width="0.5"/>
<path d="M79.6108 45.1255L79.8374 52.9946L78.8628 53.8013L78.77 53.8784L78.772 53.9995C78.9019 60.0264 77.3783 69.7275 75.8159 77.9419C75.0355 82.0448 74.2473 85.7701 73.6538 88.4692C73.3571 89.8184 73.1088 90.9111 72.9351 91.6665C72.8482 92.0442 72.7795 92.3378 72.7329 92.5366C72.7233 92.5778 72.7143 92.615 72.7065 92.6479H65.981C66.029 83.8538 66.3898 71.9858 66.7407 62.2788C66.9179 57.3794 67.092 53.0309 67.2222 49.9077C67.2873 48.3463 67.3416 47.091 67.3794 46.2261C67.3983 45.7936 67.4133 45.4587 67.4233 45.2319C67.4251 45.1933 67.4268 45.1578 67.4282 45.1255H79.6108Z" fill="#0DA9FF" stroke="#00402A" stroke-width="0.5"/>
<path d="M73.4043 45.7388C73.4043 45.7388 71.7172 47.5322 68.5161 47.7102Z" fill="#0DA9FF"/>
<path d="M73.4043 45.7388C73.4043 45.7388 71.7172 47.5322 68.5161 47.7102" stroke="#00402A" stroke-width="0.5" stroke-miterlimit="10"/>
<path d="M83.7749 45.7388C83.7749 45.7388 84.7559 47.3072 86.1749 47.7102Z" fill="#0DA9FF"/>
<path d="M83.7749 45.7388C83.7749 45.7388 84.7559 47.3072 86.1749 47.7102" stroke="#00402A" stroke-width="0.5" stroke-miterlimit="10"/>
<path d="M68.5162 50.5986C68.5162 50.5986 68.6758 77.634 67.189 90.0501Z" fill="#0DA9FF"/>
<path d="M68.5162 50.5986C68.5162 50.5986 68.6758 77.634 67.189 90.0501" stroke="#00402A" stroke-width="0.5" stroke-miterlimit="10"/>
<path d="M171.753 54.8589V59.5649H27.3115V54.8589H171.753Z" fill="#007F33" stroke="#00402A" stroke-width="0.5"/>
<path d="M110.963 57.0488V93.9111H106.771V57.0488H110.963Z" fill="#007F33" stroke="#00402A" stroke-width="0.5"/>
<path d="M147.11 45.125L151.158 53.0361V54.8887H138.145L133.395 45.125H147.11Z" fill="#00A443" stroke="#00402A" stroke-width="0.5"/>
<path d="M146.499 45.7471L150.044 52.6807V54.2676H138.655L134.508 45.7471H146.499Z" fill="#00402A" stroke="#00402A" stroke-width="0.5"/>
<path d="M143.244 91.6938L142.226 93.9722H139.764L141.1 91.3745L143.244 91.6938Z" fill="#00A443" stroke="#00402A" stroke-width="0.5"/>
<path d="M155.252 91.3521L155.527 93.9722H153.019V91.3521H155.252Z" fill="#00A443" stroke="#00402A" stroke-width="0.5"/>
<path d="M157.695 75.6841C158.078 75.6709 158.411 75.7443 158.687 75.9194C158.961 76.0939 159.201 76.3833 159.375 76.8394C159.73 77.7693 159.734 79.149 159.514 80.7339C159.295 82.3085 158.862 84.0458 158.379 85.6665C157.896 87.286 157.366 88.783 156.956 89.8755C156.751 90.4216 156.576 90.8665 156.453 91.1743C156.399 91.3099 156.355 91.4191 156.322 91.4985H152.483L151.664 79.144C151.712 79.1009 151.778 79.0422 151.859 78.9702C152.043 78.8086 152.308 78.5818 152.63 78.3218C153.275 77.8008 154.148 77.1512 155.062 76.6255C155.985 76.0956 156.918 75.7109 157.695 75.6841Z" fill="#00402A" stroke="#00402A" stroke-width="0.5"/>
<path d="M137.789 51.8447C139.38 51.4857 140.332 51.5636 140.932 51.7549C141.544 51.95 141.798 52.2538 142.078 52.459H142.079C142.535 52.7925 143.059 52.9526 143.467 53.0498C143.57 53.0742 143.666 53.0949 143.752 53.1133C143.84 53.1319 143.915 53.1479 143.979 53.1631C143.993 53.1665 144.007 53.1707 144.019 53.1738L143.83 54.2773C143.736 54.2861 143.611 54.2977 143.46 54.3086C143.116 54.3335 142.643 54.358 142.128 54.3574C141.613 54.3568 141.059 54.331 140.553 54.2559C140.043 54.18 139.601 54.0573 139.294 53.876C138.584 53.4557 138.136 53.2757 137.783 53.1533C137.427 53.0303 137.217 52.9794 136.924 52.8076C136.886 52.7852 136.888 52.7735 136.89 52.7812C136.891 52.7839 136.886 52.7699 136.901 52.7275C136.934 52.633 137.031 52.5012 137.176 52.3535C137.316 52.2123 137.477 52.0795 137.605 51.9805C137.668 51.9315 137.723 51.8917 137.761 51.8643C137.771 51.8569 137.781 51.8502 137.789 51.8447Z" fill="#00A443" stroke="#00402A" stroke-width="0.5"/>
<path d="M171.752 82.4131V93.9092H169.092V82.4131H171.752Z" fill="#00402A" stroke="#00402A" stroke-width="0.5"/>
<path d="M183.212 94.4111V95.5566H158.033V94.4111H183.212Z" fill="#00402A" stroke="#00402A" stroke-width="0.5"/>
<path d="M167.758 39.563L164.812 39.8618V36.3608L167.291 35.6919L167.758 39.563Z" fill="#00A443" stroke="#00402A" stroke-width="0.5"/>
<path d="M162.373 40.73C165.895 39.681 168.5 39.5962 170.215 39.769C171.073 39.8555 171.709 40.0067 172.128 40.1343C172.338 40.1981 172.494 40.2561 172.595 40.2974C172.645 40.3177 172.682 40.3334 172.706 40.3442C172.891 40.5113 173.124 40.8803 173.388 41.4497C173.655 42.0243 173.938 42.7657 174.227 43.6177C174.805 45.321 175.403 47.4479 175.943 49.5298C176.483 51.6107 176.964 53.6428 177.31 55.1548C177.483 55.9107 177.623 56.5365 177.719 56.9731C177.765 57.1824 177.801 57.3484 177.826 57.4644L166.119 63.1294C166.102 62.9149 166.076 62.6168 166.04 62.2593C165.963 61.5091 165.837 60.4949 165.64 59.4438C165.444 58.3948 165.176 57.2988 164.812 56.3882C164.454 55.4922 163.979 54.7143 163.334 54.3833H163.335C162.31 53.8542 161.804 52.8725 161.557 51.9897C161.434 51.5509 161.378 51.1452 161.352 50.8491C161.339 50.7015 161.334 50.5814 161.333 50.4995C161.332 50.4588 161.331 50.4274 161.332 50.4067V50.3774L161.355 49.5845L160.881 50.2212L158.658 53.2144C157.918 54.2108 156.741 54.7956 155.492 54.7925L143.898 54.7554L144.208 52.7603C144.277 52.7582 144.362 52.7556 144.461 52.7524C144.757 52.743 145.18 52.729 145.688 52.7095C146.705 52.6704 148.067 52.6099 149.442 52.5269C150.816 52.4439 152.209 52.3383 153.288 52.2056C153.826 52.1393 154.294 52.065 154.644 51.9829C154.818 51.942 154.972 51.8976 155.093 51.8472C155.154 51.822 155.212 51.7925 155.263 51.7583C155.312 51.7254 155.37 51.6781 155.411 51.6108L155.42 51.5933L155.428 51.5757C157.26 47.0066 158.342 44.4824 159.303 42.9985C159.78 42.2629 160.219 41.7959 160.694 41.4644C161.17 41.1321 161.697 40.925 162.371 40.73H162.373Z" fill="#008C39" stroke="#00402A" stroke-width="0.5"/>
<path d="M167.791 31.9849V36.0767C167.773 36.0824 167.755 36.0897 167.734 36.0962C167.59 36.1426 167.382 36.2063 167.132 36.2778C166.631 36.4212 165.964 36.5928 165.291 36.7065C164.613 36.8212 163.952 36.8736 163.454 36.7935C163.206 36.7535 163.018 36.6827 162.89 36.5884C162.769 36.4995 162.694 36.3844 162.671 36.2222C162.365 34.1083 162.714 32.3856 163.138 31.1929C163.35 30.5963 163.579 30.1319 163.756 29.8188C163.819 29.707 163.877 29.6159 163.923 29.5435L167.791 31.9849Z" fill="#00A443" stroke="#00402A" stroke-width="0.5"/>
<path d="M165.457 27.4243C166.461 27.0981 168.014 26.8376 170.177 27.1265C171.208 27.2643 171.938 27.7388 172.465 28.4224C172.998 29.1137 173.331 30.0285 173.539 31.0483C173.905 32.8456 173.869 34.8714 173.916 36.4487L173.942 37.0952C174.033 38.7379 174.609 40.6124 175.153 42.063C175.427 42.791 175.694 43.4178 175.894 43.8628C175.993 44.0851 176.076 44.2624 176.134 44.3843C176.157 44.4323 176.176 44.4722 176.19 44.5024C176.09 45.1122 175.619 45.5937 174.872 45.9722C174.101 46.363 173.091 46.6156 172.071 46.7759C171.056 46.9356 170.049 47.0013 169.294 47.0269C168.917 47.0396 168.603 47.042 168.385 47.0415C168.331 47.0414 168.282 47.0399 168.24 47.0396L167.003 41.1772L166.808 40.2524L166.52 41.1528C166.401 41.5249 166.386 42.1076 166.417 42.7349C166.448 43.3739 166.53 44.0992 166.623 44.7788C166.717 45.4591 166.823 46.0982 166.906 46.5669C166.939 46.7533 166.969 46.9129 166.992 47.0376H166.314C166.298 46.9469 166.277 46.8266 166.254 46.6792C166.196 46.3161 166.12 45.7886 166.05 45.1353C165.909 43.8278 165.792 42.017 165.881 40.0044C165.926 38.9939 165.996 38.2569 166.037 37.6538C166.078 37.0573 166.092 36.5847 166.012 36.1382C165.849 35.2343 165.309 34.4853 164.04 32.981C162.818 31.5325 162.837 30.3228 163.127 29.4849C163.275 29.0571 163.498 28.7148 163.686 28.479C163.779 28.3616 163.863 28.2712 163.922 28.2114C163.951 28.1817 163.975 28.1593 163.99 28.145C163.998 28.1379 164.004 28.1325 164.008 28.1294L164.009 28.1284C164.009 28.1282 164.01 28.1275 164.012 28.1265C164.014 28.1244 164.018 28.1205 164.024 28.1157C164.037 28.106 164.058 28.0906 164.086 28.0708C164.142 28.0312 164.229 27.9733 164.349 27.9048C164.587 27.7677 164.954 27.5876 165.457 27.4243Z" fill="#00402A" stroke="#00402A" stroke-width="0.5"/>
<path d="M168.568 68.8457L155.294 75.3066L155.205 75.3506L155.17 75.4424C153.993 78.5006 151.236 82.634 148.756 86.0195C147.519 87.7082 146.356 89.2043 145.502 90.2783C145.075 90.8153 144.725 91.247 144.482 91.5439C144.361 91.6923 144.266 91.8071 144.202 91.8848C144.194 91.8948 144.186 91.9043 144.179 91.9131H140.164C140.206 91.773 140.262 91.5894 140.329 91.3672C140.497 90.8141 140.739 90.0212 141.039 89.0645C141.639 87.1506 142.466 84.58 143.379 81.9512C144.292 79.3213 145.289 76.6376 146.228 74.4961C146.697 73.4251 147.149 72.4948 147.566 71.7764C147.99 71.0477 148.358 70.5729 148.649 70.3721C151.471 68.452 156.325 66.5409 160.495 65.1055C162.576 64.3894 164.479 63.794 165.861 63.3779C166.553 63.17 167.114 63.0067 167.502 62.8955C167.628 62.8594 167.736 62.8286 167.824 62.8037L168.568 68.8457Z" fill="#00402A" stroke="#00402A" stroke-width="0.5"/>
<path d="M184.021 54.5938C185.595 54.0856 186.946 54.1075 188.038 55.0439C189.152 56.0005 190.059 57.9579 190.591 61.4961C191.149 66.917 190.196 71.0035 188.363 74.0596C186.528 77.1185 183.798 79.1682 180.765 80.4902C174.688 83.1396 167.435 82.8477 163.913 81.9189C160.374 80.9863 156.885 79.1524 154.906 77.0361C153.917 75.9786 153.326 74.8739 153.264 73.7949C153.203 72.7287 153.654 71.6371 154.858 70.5879L154.867 70.5801C161.812 63.9194 170.889 59.5042 177.062 57.0303C179.127 56.203 180.865 55.594 182.086 55.1924C182.697 54.9916 183.178 54.8428 183.506 54.7441C183.67 54.6949 183.796 54.6582 183.88 54.6338L183.976 54.6064H183.984L184.021 54.5938Z" fill="#00A443" stroke="#00402A" stroke-width="0.5"/>
<path d="M142.932 93.9399L143.294 95.5562H133.395C133.462 95.4502 133.553 95.3273 133.675 95.2026C134.021 94.8507 134.631 94.4652 135.684 94.4097C136.78 94.3519 137.384 94.3508 137.835 94.3062C138.3 94.2602 138.63 94.1662 139.193 93.9399H142.932Z" fill="#00A443" stroke="#00402A" stroke-width="0.5"/>
<path d="M156.039 93.9399L156.401 95.5562H146.501C146.568 95.4502 146.659 95.3273 146.782 95.2026C147.128 94.8507 147.738 94.4652 148.791 94.4097C149.886 94.3519 150.49 94.3508 150.942 94.3062C151.407 94.2602 151.737 94.1662 152.299 93.9399H156.039Z" fill="#00A443" stroke="#00402A" stroke-width="0.5"/>
<path d="M6.6377 54.25C14.1063 51.6458 19.8686 53.3855 23.7686 55.7705C25.7216 56.9649 27.2091 58.3228 28.208 59.3818C28.7071 59.911 29.0838 60.3648 29.335 60.6855C29.4605 60.8459 29.5548 60.9732 29.6172 61.0596C29.6484 61.1027 29.6722 61.1353 29.6875 61.1572C29.695 61.1681 29.7005 61.1763 29.7041 61.1816C29.7058 61.1842 29.7072 61.1863 29.708 61.1875L29.709 61.1895L29.7832 61.2998H29.8008C29.8266 61.3319 29.8601 61.3721 29.8984 61.4219C30.0076 61.5635 30.1644 61.7763 30.3535 62.0557C30.7318 62.6144 31.2378 63.4413 31.7441 64.5088C32.757 66.6441 33.7705 69.7395 33.7705 73.5771C33.7704 76.7796 32.6379 79.1164 30.8164 80.751C28.9875 82.3921 26.4433 83.3438 23.5986 83.7246C17.9039 84.4869 11.0952 82.9504 6.68555 80.2451C2.33042 77.5731 0.206806 71.812 0.250977 66.3057C0.273062 63.5592 0.835459 60.8991 1.91309 58.748C2.99045 56.5975 4.57472 54.9695 6.6377 54.25Z" fill="#5BD38C" stroke="#00402A" stroke-width="0.5"/>
<path d="M40.4033 88.1479L39.6582 91.353L36.9785 89.8101L37.585 87.5425L40.4033 88.1479Z" fill="#5BD38C" stroke="#00402A" stroke-width="0.5"/>
<path d="M39.9473 91.2803C40.3198 91.7571 40.5587 92.003 40.9375 92.2744C41.3053 92.5379 41.827 92.8397 42.7441 93.4336C43.6247 94.0038 43.9558 94.6393 44.0762 95.1152C44.1191 95.2852 44.1348 95.438 44.1387 95.5635L35.9482 90.8516L35.7832 90.7559L35.7793 90.7588L35.5781 90.6416L36.7158 89.4219L39.9473 91.2803Z" fill="#00402A" stroke="#00402A" stroke-width="0.5"/>
<path d="M52.3208 91.3516L54.3911 94.1465H51.4097L49.9468 91.3516H52.3208Z" fill="#5BD38C" stroke="#00402A" stroke-width="0.5"/>
<path d="M54.7588 93.9399C55.3212 94.1663 55.6514 94.2602 56.1162 94.3062C56.5677 94.3508 57.1719 94.3519 58.2676 94.4097C59.3205 94.4652 59.9304 94.8507 60.2764 95.2026C60.3989 95.3273 60.4898 95.4502 60.5566 95.5562H50.6572L51.0195 93.9399H54.7588Z" fill="#00402A" stroke="#00402A" stroke-width="0.5"/>
<path d="M20.2764 63.9658C22.1065 63.9623 23.8013 64.0015 25.0381 64.041C25.6561 64.0608 26.1597 64.0807 26.5088 64.0957C26.6833 64.1032 26.82 64.1089 26.9121 64.1133C26.958 64.1155 26.9931 64.118 27.0166 64.1191C27.0282 64.1197 27.0371 64.1198 27.043 64.1201H27.0518L44.1904 65.3447L55.0039 91.9395L49.0264 92.4053C45.1887 89.4442 42.6395 85.2217 41.0469 81.7158C40.2466 79.9542 39.6904 78.3787 39.334 77.2441C39.1559 76.6772 39.0277 76.2205 38.9443 75.9062C38.9028 75.7495 38.8725 75.6277 38.8525 75.5459C38.8426 75.5051 38.8349 75.4737 38.8301 75.4531C38.8277 75.4428 38.8264 75.4347 38.8252 75.4297C38.8246 75.4272 38.8235 75.425 38.8232 75.4238V75.4229L38.7734 75.2002L38.5469 75.2295C24.0971 77.1193 17.0949 74.3901 13.7021 71.2637C12.0046 69.6993 11.1954 68.0225 10.8096 66.7402C10.6165 66.0986 10.5291 65.5556 10.4902 65.1748C10.4728 65.0035 10.4651 64.865 10.4619 64.7656C11.5193 64.4658 13.0195 64.2669 14.7051 64.1445C16.4817 64.0156 18.4459 63.9694 20.2764 63.9658Z" fill="#26BF64" stroke="#00402A" stroke-width="0.5"/>
<path d="M43.8813 57.4624C45.5731 57.2564 46.7237 57.4351 47.4858 57.8442C48.2358 58.247 48.6405 58.8903 48.812 59.6948C48.9856 60.5092 48.9178 61.4844 48.7104 62.5181C48.5036 63.5487 48.163 64.6181 47.8081 65.6138C47.0895 67.6298 45.5695 73.7345 44.2339 79.3149C43.565 82.1097 42.941 84.7796 42.4839 86.7505C42.2554 87.7357 42.0686 88.5464 41.939 89.1108C41.8788 89.3729 41.8304 89.5823 41.7964 89.731L36.019 87.9683C35.0589 82.5344 35.9083 76.7848 37.0112 72.3677C37.5672 70.1413 38.1858 68.2585 38.6655 66.9331C38.9053 66.2706 39.1106 65.7471 39.2554 65.3901C39.3277 65.2119 39.3843 65.0749 39.4233 64.9829C39.4428 64.9371 39.4582 64.9025 39.4683 64.8794C39.4733 64.8678 39.4775 64.8587 39.48 64.853C39.4812 64.8504 39.4823 64.8485 39.4829 64.8472V64.8452L39.6274 64.52L39.2729 64.4946L27.9028 63.6831C28.1554 63.5422 28.4686 63.3685 28.8345 63.1714C29.8691 62.6141 31.3204 61.8621 32.9849 61.0845C36.3215 59.5255 40.4897 57.8754 43.8813 57.4624Z" fill="#26BF64" stroke="#00402A" stroke-width="0.5"/>
<path d="M20.5215 82.4131V93.9092H17.8613V82.4131H20.5215Z" fill="#00402A" stroke="#00402A" stroke-width="0.5"/>
<path d="M31.9814 94.4106V95.5562H6.80176V94.4106H31.9814Z" fill="#00402A" stroke="#00402A" stroke-width="0.5"/>
<path d="M13.7783 34.9121C16.5405 33.9545 19.9779 33.1688 22.8018 33.7656C22.814 33.7704 22.8309 33.7777 22.8525 33.7861C22.9009 33.805 22.9724 33.8323 23.0635 33.8682C23.2459 33.94 23.5087 34.0439 23.8271 34.1719C24.4641 34.4278 25.326 34.7801 26.2266 35.165C27.1277 35.5503 28.0657 35.9675 28.8545 36.3535C29.6528 36.7441 30.2708 37.0908 30.5557 37.332C30.686 37.4424 30.9332 37.7369 31.2783 38.2002C31.6167 38.6544 32.0337 39.2483 32.501 39.9336C33.4353 41.3037 34.5654 43.0328 35.6572 44.7305C36.7488 46.4278 37.8012 48.0928 38.5811 49.333C38.9707 49.9528 39.2925 50.4663 39.5166 50.8252C39.6118 50.9776 39.6893 51.1026 39.7471 51.1953L35.7441 54.2676L28.9434 46.5566L28.542 46.1025L28.5059 46.707V46.708V46.7178C28.5054 46.7249 28.5048 46.7359 28.5039 46.75C28.5022 46.778 28.4994 46.8196 28.4961 46.874C28.4894 46.9833 28.4788 47.1444 28.4658 47.3496C28.4399 47.76 28.4026 48.3488 28.3545 49.0625C28.2583 50.4902 28.1215 52.4174 27.96 54.416C27.7984 56.4151 27.6119 58.4842 27.416 60.1953C27.3181 61.0509 27.2184 61.8152 27.1182 62.4355C27.036 62.9444 26.9518 63.345 26.875 63.6191C26.7752 63.6187 26.6372 63.6185 26.4658 63.6182C26.0839 63.6173 25.5346 63.617 24.8662 63.6191C23.5293 63.6233 21.714 63.6371 19.8008 63.6758C17.8878 63.7144 15.8747 63.7783 14.1436 63.8818C12.6012 63.9741 11.2643 64.1003 10.4219 64.2725C10.4215 64.2693 10.4213 64.2659 10.4209 64.2627C10.3985 64.0783 10.366 63.8075 10.3252 63.4619C10.2434 62.7703 10.1293 61.779 9.99707 60.5811C9.73261 58.1851 9.39843 54.9631 9.12012 51.6572C8.84172 48.3504 8.61888 44.9635 8.57715 42.2373C8.55628 40.8738 8.58094 39.6807 8.66504 38.748C8.70709 38.2818 8.76325 37.8851 8.83496 37.5674C8.89967 37.2808 8.9755 37.0748 9.05176 36.9404C9.0603 36.9359 9.06983 36.9312 9.08008 36.9258C9.14054 36.8939 9.23099 36.8474 9.34766 36.7881C9.58093 36.6696 9.92103 36.501 10.3477 36.3027C11.2017 35.9059 12.4006 35.3897 13.7783 34.9121Z" fill="#5BD38C" stroke="#00402A" stroke-width="0.5"/>
<path d="M55.5869 43.3193L50.2119 54.3594H34.5547L40.0947 43.3193H55.5869Z" fill="#00402A" stroke="#00402A" stroke-width="0.5"/>
<path d="M21.6089 37.1147C21.7155 37.4051 21.8321 37.9527 21.9507 38.7183C22.0754 39.5234 22.1995 40.5441 22.3208 41.7036C22.5633 44.0223 22.794 46.8874 22.9927 49.6782C23.1914 52.4685 23.3583 55.1828 23.4761 57.1997C23.535 58.2082 23.582 59.0427 23.6138 59.6245C23.6296 59.9153 23.6417 60.1433 23.6499 60.2983C23.6536 60.3686 23.6556 60.4239 23.6577 60.4634L22.5474 62.4604L20.7036 60.5962L21.0103 37.5327L21.2651 36.8267L21.6089 37.1147Z" fill="#00402A" stroke="#00402A" stroke-width="0.5"/>
<path d="M33.5806 51.2046C34.3086 50.9725 35.4581 50.8791 37.3716 51.312C37.3809 51.3186 37.3915 51.3267 37.4038 51.3354C37.45 51.3685 37.5159 51.4161 37.5923 51.4751C37.7461 51.5938 37.9396 51.7539 38.1079 51.9243C38.2825 52.1012 38.4043 52.2641 38.4478 52.3872C38.4679 52.4444 38.4632 52.472 38.4604 52.481C38.459 52.4858 38.4514 52.5079 38.3989 52.5386C38.0446 52.7458 37.7879 52.8089 37.3677 52.9546C36.9494 53.0996 36.4186 53.3129 35.5737 53.812C35.1999 54.0328 34.6666 54.1802 34.0562 54.271C33.4503 54.3611 32.7895 54.3922 32.1743 54.3931C31.56 54.3939 30.996 54.3651 30.5854 54.3354C30.3847 54.3209 30.2205 54.3055 30.106 54.2944L29.8657 52.9019C29.8924 52.8945 29.9229 52.8849 29.9585 52.8765C30.0358 52.8582 30.1259 52.84 30.23 52.8179C30.3327 52.796 30.4474 52.7715 30.5688 52.7427C30.9916 52.6422 31.516 52.486 31.9985 52.187L32.2026 52.0493C32.5281 51.8106 32.8422 51.44 33.5806 51.2046Z" fill="#5BD38C" stroke="#00402A" stroke-width="0.5"/>
<path d="M10.9404 38.2759C11.5937 37.8586 12.3104 37.687 13.0195 37.8442C13.7224 38.0002 14.4557 38.4882 15.1348 39.4614L18.4854 49.0249L18.5283 49.1479L18.6543 49.1831L30.0801 52.356V54.356C29.9943 54.3554 29.8878 54.3548 29.7627 54.354C29.3994 54.3516 28.8787 54.3483 28.25 54.3433C26.9925 54.3332 25.3022 54.318 23.5713 54.2964C21.8402 54.2748 20.069 54.2472 18.6494 54.2124C17.2192 54.1774 16.1705 54.1349 15.8633 54.0884C15.8251 54.0826 15.7546 54.0586 15.6475 53.9985C15.5438 53.9404 15.4196 53.8573 15.2773 53.7476C14.9928 53.528 14.6486 53.2152 14.2676 52.8286C13.5062 52.0561 12.6091 51 11.7539 49.8267C10.8985 48.653 10.0892 47.3679 9.5 46.1372C8.90782 44.9003 8.55119 43.7444 8.57031 42.8218C8.6095 40.9335 9.62311 39.1177 10.9404 38.2759Z" fill="#5BD38C" stroke="#00402A" stroke-width="0.5"/>
<path d="M24.7025 34.9951C24.7025 34.9951 23.8504 37.524 23.2564 38.1722L21.8205 36.9665L21.1517 36.4057L20.2352 38.9379C20.2352 38.9379 16.895 36.9397 15.8257 34.9985" fill="#5BD38C"/>
<path d="M24.7025 34.9951C24.7025 34.9951 23.8504 37.524 23.2564 38.1722L21.8205 36.9665L21.1517 36.4057L20.2352 38.9379C20.2352 38.9379 16.895 36.9397 15.8257 34.9985" stroke="#00402A" stroke-width="0.5" stroke-miterlimit="10"/>
<path d="M45.0151 48.5981C45.5189 48.5981 45.9233 49.0017 45.9233 49.4937C45.9232 49.9854 45.5188 50.3882 45.0151 50.3882C44.5116 50.388 44.1081 49.9853 44.1079 49.4937C44.1079 49.0019 44.5115 48.5983 45.0151 48.5981Z" fill="#5BD38C" stroke="#00402A" stroke-width="0.5"/>
<path d="M22.083 28.8687C22.0821 28.9756 22.0814 29.1151 22.082 29.2788C22.0835 29.6706 22.0928 30.2033 22.1211 30.7642C22.1493 31.3239 22.1968 31.9173 22.2783 32.4292C22.3191 32.6852 22.3692 32.9257 22.4307 33.1333C22.4748 33.2825 22.528 33.4235 22.5928 33.5444C22.5916 33.5471 22.591 33.5504 22.5898 33.5532C22.5563 33.6324 22.5081 33.7457 22.4482 33.8813C22.3282 34.1534 22.1625 34.5143 21.9824 34.8726C21.8014 35.2327 21.6095 35.5819 21.4346 35.8345C21.3464 35.9618 21.2697 36.0545 21.208 36.1108C21.1856 36.1313 21.168 36.1406 21.1582 36.147C21.1481 36.1438 21.1357 36.1399 21.1211 36.1343C21.0809 36.1187 21.0295 36.096 20.9678 36.0649C20.8442 36.0028 20.6895 35.9141 20.5137 35.8071C20.1627 35.5936 19.7393 35.313 19.3291 35.0317C18.9192 34.7507 18.5244 34.4706 18.2324 34.2612C18.0867 34.1568 17.9664 34.07 17.8828 34.0093C17.875 34.0036 17.8676 33.9979 17.8604 33.9927L18.1035 28.6138L22.083 28.8687Z" fill="#5BD38C" stroke="#00402A" stroke-width="0.5"/>
<path d="M23.3047 23.0083C23.3162 23.0254 23.3298 23.0445 23.3438 23.0659C23.4126 23.1718 23.5096 23.3296 23.6172 23.5327C23.8326 23.9394 24.0912 24.5261 24.2637 25.2437C24.6074 26.6745 24.6103 28.6304 23.2275 30.7388L23.2236 30.7456C22.977 31.1485 22.5506 31.3761 22.0107 31.4429C21.4683 31.5099 20.8299 31.4109 20.2119 31.1743C19.5949 30.9381 19.0148 30.5714 18.585 30.1245C18.1549 29.6774 17.8874 29.1627 17.8613 28.6245C17.8038 27.43 18.065 25.9653 18.8975 24.8354C19.7049 23.7397 21.0721 22.9282 23.3047 23.0083Z" fill="#5BD38C" stroke="#00402A" stroke-width="0.5"/>
<path d="M19.915 19.7222C20.2562 19.6253 20.6237 19.6729 20.9775 19.7954C21.3305 19.9177 21.6519 20.1084 21.8877 20.272C22.0048 20.3532 22.0997 20.4265 22.1641 20.479C22.1961 20.5051 22.2201 20.5265 22.2363 20.5405C22.2444 20.5476 22.2511 20.5528 22.2549 20.5562L22.2588 20.5601L22.3652 20.6577L22.5029 20.6138C23.4667 20.3111 24.1024 20.2635 24.5137 20.3364C24.9103 20.4068 25.097 20.5879 25.1924 20.7769C25.2954 20.9811 25.3085 21.23 25.2881 21.4458C25.2782 21.5508 25.2609 21.6416 25.2461 21.7056C25.2387 21.7374 25.2321 21.7626 25.2275 21.7788C25.2253 21.7867 25.2237 21.7929 25.2227 21.7964C25.2222 21.7978 25.2219 21.7987 25.2217 21.7993L25.2051 21.8481L25.21 21.8999C25.2954 22.8306 25.1038 23.3727 24.8232 23.689C24.5411 24.0068 24.1261 24.1457 23.6602 24.1733C23.1949 24.201 22.7103 24.1159 22.335 24.02C22.1488 23.9725 21.9927 23.9225 21.8838 23.8853C21.8296 23.8667 21.7872 23.851 21.7588 23.8403C21.7446 23.835 21.7335 23.8313 21.7266 23.8286C21.7231 23.8273 21.7203 23.8263 21.7188 23.8257L21.7178 23.8247C21.7178 23.8248 21.7149 23.8276 21.6455 23.9985L21.627 23.8062H21.623L21.5996 23.9233L21.5771 23.811C20.1612 24.0976 19.1937 24.608 18.5479 25.23C17.9006 25.8533 17.5917 26.5737 17.4697 27.2524C17.3484 27.928 17.411 28.562 17.502 29.0229C17.5039 29.0328 17.5058 29.0426 17.5078 29.0522C17.0387 28.5559 16.7348 27.8223 16.5439 27.1011C16.4179 26.6246 16.3466 26.174 16.3066 25.8423C16.2867 25.6767 16.2746 25.5411 16.2676 25.4478C16.2641 25.4014 16.2621 25.3654 16.2607 25.3413C16.2601 25.3292 16.2591 25.3199 16.2588 25.314V25.3062L16.2559 25.2427L16.2236 25.188C15.6424 24.2086 15.5362 23.4627 15.6602 22.8979C15.7844 22.3323 16.1499 21.9 16.6084 21.5698C17.0681 21.2388 17.6058 21.0227 18.0352 20.8892C18.2486 20.8228 18.4328 20.7779 18.5625 20.7495C18.6272 20.7354 18.6785 20.7256 18.7129 20.7192C18.7297 20.7161 18.7425 20.7138 18.751 20.7124C18.7552 20.7117 18.7589 20.7108 18.7607 20.7104H18.7627L18.8828 20.6919L18.9424 20.5854C19.2381 20.0596 19.5815 19.817 19.915 19.7222Z" fill="#00402A" stroke="#00402A" stroke-width="0.5"/>
<path d="M17.4512 25.6934C17.5245 25.6889 17.595 25.7079 17.667 25.7529C17.823 25.8507 17.9733 26.0604 18.1045 26.3418C18.232 26.6152 18.3252 26.9194 18.3867 27.1592C18.4173 27.2782 18.4395 27.38 18.4541 27.4512C18.4609 27.4842 18.4653 27.5107 18.4688 27.5293C18.467 27.5454 18.4645 27.5693 18.459 27.5977C18.4469 27.6594 18.4242 27.7383 18.3838 27.8145C18.3438 27.8899 18.2886 27.9587 18.2119 28.0088C18.1368 28.0577 18.0271 28.0977 17.8623 28.0977C17.7391 28.0976 17.5591 28.0245 17.3633 27.8555C17.1734 27.6915 16.9964 27.461 16.8779 27.2061C16.7591 26.9503 16.7068 26.6851 16.7412 26.4482C16.7746 26.2193 16.8911 25.999 17.1475 25.8184C17.2754 25.7283 17.3757 25.698 17.4512 25.6934Z" fill="#5BD38C" stroke="#00402A" stroke-width="0.5"/>
</svg>
