<svg width="90" height="97" viewBox="0 0 90 97" fill="none" xmlns="http://www.w3.org/2000/svg">
<path d="M6.89404 87.5117L3.75342 90.7559L2.29541 89.4609L5.43506 86.2168L6.89404 87.5117Z" fill="#00A443" stroke="#00402A" stroke-width="0.5"/>
<path d="M10.5615 87.8018L10.2891 92.6133H8.47754L8.74902 87.8018H10.5615Z" fill="#00A443" stroke="#00402A" stroke-width="0.5"/>
<path d="M10.644 92.8472C10.734 92.8482 10.8212 92.8788 10.8911 92.9341L10.8921 92.9351C11.0861 93.0862 11.381 93.2258 11.7202 93.355C12.0652 93.4864 12.4786 93.6151 12.9243 93.7388C13.8158 93.9861 14.8545 94.2172 15.7778 94.4106C15.7827 94.4117 15.8041 94.418 15.8237 94.4634C15.8437 94.5098 15.852 94.5796 15.8325 94.6538C15.7995 94.7789 15.6741 94.9545 15.2983 94.9546C14.816 94.9546 13.829 94.9366 12.8716 94.9185C11.9174 94.9004 10.9907 94.8823 10.6362 94.8823C9.50562 94.8823 9.02902 94.9346 8.15967 94.9497C8.11712 94.949 8.07661 94.9323 8.04736 94.9028C8.01889 94.8741 8.00314 94.8358 8.00244 94.7964L8.12354 92.8472H10.644Z" fill="#00A443" stroke="#00402A" stroke-width="0.5"/>
<path d="M4.13477 90.6577C4.26826 90.7542 4.3753 90.8818 4.44727 91.0288L4.45117 91.0356C4.66003 91.4311 4.75946 91.7561 4.84863 92.0532C4.93643 92.3458 5.02096 92.6385 5.20703 92.9136C5.57967 93.4644 6.31819 93.8892 8.08984 94.4497C8.07423 94.4836 8.04661 94.5344 7.99023 94.5933C7.81933 94.7716 7.48878 94.9546 7.05273 94.9546C5.95562 94.9546 5.32491 94.9151 4.85352 94.7603C4.40036 94.6113 4.07517 94.3484 3.6123 93.8325C2.78504 92.9096 1.74 92.0762 0.320312 90.9917L0.307617 90.9829L0.293945 90.9751L0.265625 90.9478C0.258286 90.9371 0.25301 90.9251 0.250977 90.9126C0.248979 90.9 0.250265 90.8868 0.253906 90.8745C0.257333 90.863 0.262509 90.8517 0.270508 90.8423L1.92773 89.1831L4.13477 90.6577Z" fill="#00A443" stroke="#00402A" stroke-width="0.5"/>
<path d="M30.8223 15.1978C30.6683 16.8913 30.3157 18.5613 29.7686 20.1733V20.1753C29.4625 21.0947 29.0147 21.9617 28.4414 22.7456C28.0754 23.2362 27.6031 23.6393 27.0596 23.9263C26.7175 24.0951 26.346 24.1972 25.9648 24.2261C25.7679 24.2407 25.5699 24.2354 25.374 24.2104L24.9785 24.1489C24.001 23.9726 23.055 23.6528 22.1729 23.1997L22.1709 23.1987C21.3251 22.7738 20.5228 22.2684 19.7754 21.6899L19.7744 21.689L19.2334 21.2603C18.7005 20.8223 18.1911 20.3567 17.708 19.8647C17.3877 19.5385 17.0772 19.2031 16.7773 18.8599C16.7013 18.7732 16.6265 18.6869 16.5527 18.6001L16.335 18.3374C16.2335 18.2097 16.1437 18.0938 16.0439 17.9624L18.4785 16.1987L18.6807 16.4438L19.0645 16.8911L19.0664 16.8931C19.3293 17.1923 19.6026 17.485 19.8828 17.769V17.77C20.4347 18.3374 21.0167 18.8752 21.627 19.3804L21.6279 19.3813C22.833 20.369 24.1667 21.1933 25.5186 21.5425L25.5215 21.5435L25.6709 21.5796C25.6919 21.5948 25.7139 21.6068 25.7354 21.6147C25.8134 21.6434 25.8865 21.6291 25.9199 21.6216L25.9385 21.6177L25.9561 21.6108C26.189 21.5188 26.3947 21.3697 26.5566 21.1792L26.5576 21.1802C27.0495 20.6234 27.4619 20.0013 27.7822 19.3325L27.7812 19.3315C28.1504 18.6066 28.482 17.8636 28.7744 17.105L28.7754 17.106C29.0564 16.4061 29.3113 15.6721 29.5508 14.9653L30.8223 15.1978Z" fill="#00A443" stroke="#00402A" stroke-width="0.5"/>
<path d="M16.0562 14.8413C16.9002 14.5773 18.0453 14.786 19.1147 15.7134V15.7144C20.5468 17.0057 21.8954 18.3851 23.1538 19.8433L20.4897 22.9526C20.4675 22.9367 20.4433 22.9195 20.4175 22.9009C20.2534 22.7828 20.0189 22.6113 19.7368 22.3989C19.1723 21.9739 18.4202 21.3849 17.6665 20.73C16.9115 20.0739 16.1606 19.3572 15.5972 18.6743C15.3156 18.333 15.0856 18.0051 14.9243 17.7026C14.7618 17.3978 14.6773 17.134 14.6704 16.9165C14.6363 15.8368 15.2217 15.1024 16.0562 14.8413Z" fill="#008C39" stroke="#00402A" stroke-width="0.5"/>
<path d="M31.3086 13.3545C31.3019 13.4035 31.2956 13.4598 31.2861 13.5215C31.2507 13.752 31.1956 14.0579 31.1172 14.3643C31.038 14.6738 30.9381 14.9706 30.8184 15.1885C30.7342 15.3415 30.6568 15.4202 30.5967 15.46L29.71 14.6924L29.2314 12.8223L31.3086 13.3545Z" fill="#00A443" stroke="#00402A" stroke-width="0.5"/>
<path d="M31.7109 10.5659L31.3779 12.8569L29.2227 12.3042L30.0469 10.2241L31.7109 10.5659Z" fill="#00A443" stroke="#00402A" stroke-width="0.5"/>
<path d="M6.89355 87.5127L5.44336 89.0107L3.98438 87.7158L5.43457 86.2178L6.89355 87.5127Z" fill="#00A443" stroke="#00402A" stroke-width="0.5"/>
<path d="M10.562 87.8027L10.4341 90.04H8.62158L8.74854 87.8027H10.562Z" fill="#00A443" stroke="#00402A" stroke-width="0.5"/>
<path d="M9.03076 14.3135C10.7685 14.2141 12.5108 14.2135 14.2485 14.3125V14.3135C14.4729 14.3344 14.6964 14.3596 14.9155 14.3877L15.5571 14.4785C15.6755 14.4995 15.7912 14.5167 15.8999 14.5342V14.5352C16.4445 14.6312 16.9178 14.7325 17.2544 14.8105C17.4225 14.8495 17.5563 14.8831 17.6479 14.9062C17.6543 14.9078 17.6606 14.9087 17.6665 14.9102C17.6856 14.9597 17.7111 15.0259 17.7407 15.1084C17.816 15.3181 17.9225 15.6337 18.0435 16.0537C18.2854 16.894 18.5869 18.1517 18.8228 19.8115C19.2893 23.0949 19.4955 27.9539 18.4692 34.2744H6.55322C6.53684 33.7749 6.5553 32.9552 6.57861 31.8682C6.60575 30.6028 6.63358 28.9965 6.59912 27.1709C6.53152 23.5901 6.22205 19.1578 5.19385 14.7793C5.32353 14.7555 5.4988 14.7244 5.70947 14.6895C6.18519 14.6104 6.84086 14.5117 7.55908 14.4336H7.56006L7.87939 14.4014L7.88428 14.4004C8.25874 14.3615 8.64581 14.3324 9.02881 14.3145L9.03076 14.3135Z" fill="#008C39" stroke="#00402A" stroke-width="0.5"/>
<path d="M12.3799 11.0229C12.2571 11.6419 12.1998 12.312 12.4102 12.8999C12.64 13.5423 13.1698 14.0371 14.1289 14.2837C14.1299 14.285 14.1309 14.2863 14.1318 14.2876C14.1632 14.3302 14.2071 14.3936 14.2529 14.4731C14.3455 14.634 14.4424 14.8524 14.4756 15.0962C14.5082 15.336 14.4802 15.6016 14.3223 15.8716C14.17 16.1319 13.8845 16.4129 13.376 16.6812C11.8632 16.387 10.8311 15.7083 10.1758 15.1001C9.84169 14.79 9.60533 14.4981 9.45312 14.2856C9.39971 14.2111 9.35726 14.1455 9.32422 14.0933C9.57759 13.7853 9.74308 13.3941 9.8457 12.9683C9.96597 12.4692 10.0069 11.9049 9.99902 11.3335C9.98723 10.478 9.8647 9.58656 9.72168 8.83643L12.3799 11.0229Z" fill="#00A443" stroke="#00402A" stroke-width="0.5"/>
<path d="M12.8789 2.72998C12.9674 2.68384 13.113 2.66197 13.3525 2.74268C13.5714 2.81651 13.8133 3.03218 14.0332 3.37158C14.249 3.70478 14.4244 4.12875 14.5244 4.56787C14.6246 5.00816 14.6458 5.44849 14.5684 5.81689C14.4914 6.18329 14.3214 6.46013 14.0537 6.61963C13.9608 6.67494 13.8741 6.67705 13.7695 6.62744C13.6513 6.57137 13.5134 6.44845 13.3701 6.25146C13.0855 5.86026 12.8353 5.25637 12.6924 4.63818C12.5481 4.01395 12.5255 3.42657 12.6465 3.05713C12.7055 2.87728 12.7885 2.77719 12.8789 2.72998Z" fill="#00A443" stroke="#00402A" stroke-width="0.5"/>
<path d="M10.5532 2.86133C11.0137 2.70445 11.5078 2.67056 11.9858 2.7627L11.9927 2.76367C13.0933 2.94643 13.9309 3.77167 14.5044 4.84766C15.0767 5.92141 15.3617 7.20349 15.3765 8.20801V8.39746C15.3609 8.8286 15.2417 9.25094 15.0278 9.62891C14.7834 10.0608 14.4237 10.4185 13.9888 10.6631C13.5539 10.9075 13.06 11.0294 12.5601 11.0156C12.06 11.0018 11.5733 10.8531 11.1528 10.585L11.1509 10.583L10.9136 10.4238C9.78797 9.60434 9.50133 8.42894 8.82959 6.35742L8.82861 6.35254L8.7749 6.18066C8.66441 5.77489 8.64911 5.34854 8.73096 4.93457C8.82457 4.46142 9.04213 4.0201 9.36182 3.65625C9.6815 3.29248 10.0926 3.01829 10.5532 2.86133Z" fill="#00A443" stroke="#00402A" stroke-width="0.5"/>
<path d="M7.25635 3.73926C7.56457 3.58043 7.99733 3.52576 8.61084 3.81055C9.02817 4.00419 9.2819 4.35485 9.41455 4.79395C9.54868 5.23805 9.55441 5.76201 9.47803 6.26074C9.40159 6.75967 9.24639 7.21136 9.07666 7.50684C8.99041 7.65695 8.91037 7.74824 8.85205 7.79102C8.8372 7.80187 8.82596 7.80483 8.81982 7.80762C7.83358 7.29306 7.05074 6.46835 6.59326 5.46582L6.50635 5.26172C6.45812 5.1362 6.43723 5.00212 6.4458 4.86816C6.45449 4.73303 6.49219 4.60079 6.55713 4.48145H6.55811C6.70651 4.20752 6.93372 3.90559 7.25635 3.73926Z" fill="#00402A" stroke="#00402A" stroke-width="0.5"/>
<path d="M10.4326 0.250977C10.7579 0.254214 11.1983 0.272088 11.6621 0.330078C12.1276 0.388299 12.6074 0.48519 13.0146 0.643555C13.4259 0.803529 13.7339 1.01478 13.8975 1.2793C14.2937 1.92025 14.3858 2.37897 14.2686 2.73535C14.1495 3.09658 13.7867 3.44285 13.0469 3.78223C12.4498 4.05619 11.4973 4.30603 10.6768 4.48926C10.27 4.58008 9.9014 4.6527 9.63477 4.70312C9.5015 4.72833 9.3936 4.74854 9.31934 4.76172C9.29527 4.76599 9.27456 4.76857 9.25781 4.77148L6.87793 4.14062C6.77118 4.02953 6.6043 3.83785 6.48535 3.61621C6.34488 3.35425 6.30075 3.1094 6.40332 2.90723C6.46329 2.78931 6.57869 2.65421 6.73535 2.49609C6.87412 2.35605 7.07791 2.16705 7.22461 2.01367C7.37822 1.85305 7.53596 1.6661 7.61328 1.46484C7.65359 1.35978 7.6761 1.24179 7.6582 1.11719C7.65773 1.11388 7.6558 1.11072 7.65527 1.10742C8.19566 0.986684 8.75487 0.971857 9.30078 1.06543L9.57324 1.12207L9.58301 1.12402C9.77276 1.16167 9.93315 1.17831 10.0654 1.17285C10.1938 1.16751 10.3236 1.14038 10.4268 1.06348C10.5428 0.976973 10.5911 0.853627 10.5938 0.734375C10.5961 0.627165 10.563 0.526042 10.5273 0.447266C10.4969 0.380074 10.4569 0.313852 10.415 0.250977C10.4209 0.251026 10.4267 0.250918 10.4326 0.250977Z" fill="#00402A" stroke="#00402A" stroke-width="0.5"/>
<mask id="path-17-inside-1_99_21466" fill="white">
<path d="M7.07335 4.22994C6.54979 4.24816 6.03695 4.38213 5.57227 4.62206C5.69937 3.99418 6.82495 3.70752 6.82495 3.70752L7.07335 4.22994Z"/>
</mask>
<path d="M7.07335 4.22994C6.54979 4.24816 6.03695 4.38213 5.57227 4.62206C5.69937 3.99418 6.82495 3.70752 6.82495 3.70752L7.07335 4.22994Z" fill="#00A443"/>
<path d="M7.07335 4.22994L7.09075 4.72964L7.85199 4.70314L7.52491 4.01523L7.07335 4.22994ZM5.57227 4.62206L5.08221 4.52285L4.87537 5.54459L5.80166 5.06633L5.57227 4.62206ZM6.82495 3.70752L7.27651 3.49281L7.09997 3.12152L6.70155 3.22299L6.82495 3.70752ZM7.07335 4.22994L7.05596 3.73024C6.45864 3.75103 5.87338 3.90387 5.34288 4.17778L5.57227 4.62206L5.80166 5.06633C6.20052 4.86039 6.64095 4.74529 7.09075 4.72964L7.07335 4.22994ZM5.57227 4.62206L6.06233 4.72126C6.06657 4.70029 6.08564 4.6518 6.16278 4.57981C6.23934 4.50834 6.34707 4.43858 6.47169 4.37564C6.59377 4.31398 6.71567 4.26703 6.80857 4.23533C6.85441 4.21969 6.89172 4.20826 6.91656 4.201C6.92895 4.19738 6.93814 4.19483 6.94363 4.19333C6.94637 4.19259 6.94817 4.19211 6.94899 4.19189C6.94939 4.19179 6.94955 4.19175 6.94944 4.19177C6.94939 4.19179 6.94928 4.19182 6.9491 4.19186C6.94901 4.19189 6.9489 4.19191 6.94878 4.19195C6.94871 4.19196 6.94861 4.19199 6.94858 4.192C6.94847 4.19202 6.94836 4.19205 6.82495 3.70752C6.70155 3.22299 6.70143 3.22302 6.7013 3.22305C6.70126 3.22306 6.70113 3.2231 6.70103 3.22312C6.70084 3.22317 6.70063 3.22322 6.7004 3.22328C6.69995 3.2234 6.69942 3.22353 6.69883 3.22369C6.69765 3.22399 6.69618 3.22437 6.69446 3.22483C6.691 3.22574 6.68647 3.22695 6.68094 3.22845C6.66988 3.23146 6.65476 3.23568 6.63612 3.24113C6.59891 3.252 6.54729 3.26787 6.48562 3.28891C6.3635 3.33058 6.19606 3.39454 6.02086 3.48303C5.84819 3.57024 5.65069 3.68987 5.48046 3.84875C5.31081 4.00709 5.14151 4.22989 5.08221 4.52285L5.57227 4.62206ZM6.82495 3.70752L6.3734 3.92222L6.6218 4.44464L7.07335 4.22994L7.52491 4.01523L7.27651 3.49281L6.82495 3.70752Z" fill="#00402A" mask="url(#path-17-inside-1_99_21466)"/>
<path d="M8.50195 7.71289C8.73887 7.61158 9.03164 7.66377 9.34082 7.84082C9.57006 7.97211 9.78188 8.15817 9.94238 8.3457L10.085 8.53125C10.258 8.78912 10.2898 9.04095 10.2363 9.2041C10.2106 9.28242 10.1644 9.34445 10.0977 9.38867C10.0298 9.43361 9.92654 9.46863 9.77344 9.46875C9.25253 9.4631 8.75378 9.26096 8.37988 8.90234H8.38086C8.17459 8.70092 8.0879 8.44626 8.10938 8.22656C8.13022 8.01421 8.25213 7.81992 8.50195 7.71289Z" fill="#00A443" stroke="#00402A" stroke-width="0.5"/>
<path d="M18.4663 34.7749C18.4842 34.8986 18.5096 35.0741 18.5415 35.2964C18.6097 35.7712 18.708 36.4602 18.8286 37.3149C19.0699 39.0246 19.4 41.3994 19.7563 44.0581C20.4692 49.3767 21.2854 55.8286 21.7007 60.3745C21.78 61.2425 21.6136 62.3472 21.2456 63.6294C20.8786 64.9081 20.3161 66.3463 19.6196 67.8745C18.2267 70.9307 16.3052 74.3294 14.3589 77.5054C12.4132 80.6804 10.4461 83.6283 8.96533 85.7827C8.22503 86.8598 7.60578 87.7381 7.17236 88.3472C6.95584 88.6514 6.78556 88.8884 6.66943 89.0493C6.66534 89.055 6.6607 89.0604 6.65674 89.0659L3.9292 86.521C3.93811 86.5058 3.94848 86.4902 3.9585 86.4731C4.04378 86.3276 4.16914 86.1129 4.32764 85.8374C4.64461 85.2865 5.09623 84.4905 5.63525 83.5103C6.71321 81.55 8.1419 78.8512 9.54248 75.897C10.9427 72.9434 12.3175 69.7295 13.2866 66.7417C14.2529 63.7625 14.827 60.9752 14.5972 58.8872C14.1628 54.9425 13.2099 48.8387 12.3667 43.7261C11.945 41.1689 11.5504 38.8578 11.2612 37.186C11.1166 36.3501 10.9976 35.6737 10.9155 35.2065C10.885 35.033 10.8594 34.8883 10.8394 34.7749H18.4663Z" fill="#00402A" stroke="#00402A" stroke-width="0.5"/>
<path d="M7.63574 88.4458L6.86914 89.2622L3.7207 86.3247L4.13965 85.2856L7.63574 88.4458Z" fill="#00A443" stroke="#00402A" stroke-width="0.5"/>
<path d="M14.0381 34.7749C14.0396 34.9022 14.0406 35.0766 14.043 35.2935C14.0483 35.7854 14.0561 36.496 14.0635 37.3687C14.0783 39.114 14.0936 41.5095 14.0977 44.1099C14.1058 49.3139 14.067 55.3295 13.8799 58.604C13.6748 62.1954 13.0587 69.9451 12.4932 76.8003C12.2105 80.227 11.9404 83.4295 11.7412 85.7749C11.6416 86.9473 11.56 87.9056 11.5029 88.5708C11.4744 88.9035 11.4517 89.1632 11.4365 89.3394C11.4353 89.3536 11.4337 89.3672 11.4326 89.3804H7.67871C7.67873 89.3765 7.67869 89.3726 7.67871 89.3687C7.67957 89.1967 7.68016 88.9434 7.68164 88.6187C7.68459 87.9692 7.68944 87.0333 7.69336 85.8882C7.7012 83.598 7.70818 80.47 7.70801 77.1196C7.70766 70.4211 7.6756 62.8263 7.54785 59.2612C7.40942 55.397 7.16129 49.21 6.94727 43.9897C6.84025 41.3796 6.74153 39.0106 6.66992 37.2944C6.63413 36.4366 6.60513 35.7417 6.58496 35.2612C6.57654 35.0606 6.56959 34.897 6.56445 34.7749H14.0381Z" fill="#00402A" stroke="#00402A" stroke-width="0.5"/>
<path d="M11.6191 89.3799H7.46875L7.32715 88.5205L11.791 88.3008L11.6191 89.3799Z" fill="#00A443" stroke="#00402A" stroke-width="0.5"/>
<path d="M6.91553 18.1123L6.48877 18.8438V18.8457C6.30226 19.169 6.1195 19.4966 5.94287 19.8262C5.58686 20.4834 5.24156 21.1467 4.91357 21.8135L4.9126 21.8154C4.592 22.4824 4.282 23.1555 4.00537 23.832V23.835C3.93856 24.0027 3.87172 24.1718 3.80713 24.3418L3.62061 24.8545L3.44678 25.3564L3.44287 25.3672L3.29541 25.8672L3.23975 26.0547C3.23931 26.0559 3.23901 26.0569 3.23877 26.0576C3.23822 26.0592 3.238 26.0609 3.23779 26.0615V26.0625C3.23105 26.0803 3.22088 26.1066 3.21338 26.1377L3.20947 26.1523L3.20752 26.168C3.20114 26.225 3.19872 26.2825 3.19873 26.3398L3.20752 26.5117C3.23231 26.7433 3.27519 26.9725 3.33545 27.1973L3.40186 27.4209C3.56689 27.9328 3.75942 28.4353 3.97803 28.9268L4.20557 29.415C4.80942 30.6874 5.5224 31.9798 6.24365 33.2295L5.22412 34.0195C4.15426 32.9211 3.18324 31.7317 2.32568 30.4629C1.85453 29.7684 1.44539 29.0342 1.10205 28.2695C0.911769 27.842 0.76455 27.3966 0.662598 26.9404C0.605546 26.6709 0.575244 26.3965 0.572754 26.1211C0.57281 25.9584 0.585372 25.7956 0.609863 25.6348L0.608887 25.6338L0.629395 25.5176L0.64502 25.4395L0.677246 25.2822C1.01169 23.6667 1.5239 22.0923 2.20557 20.5879L2.20752 20.585C2.53306 19.8438 2.88733 19.1194 3.26709 18.4092C3.45837 18.0544 3.65649 17.7032 3.85889 17.3545L3.85986 17.3525C4.02277 17.0664 4.18736 16.7988 4.37256 16.5098L6.91553 18.1123ZM3.45068 26.3857V26.3867C3.43921 26.3856 3.42711 26.3847 3.41553 26.3818C3.41445 26.3816 3.41367 26.3802 3.4126 26.3799C3.42508 26.3831 3.43774 26.3844 3.45068 26.3857ZM3.34131 26.3486H3.33936C3.33797 26.3477 3.33679 26.3456 3.33545 26.3447C3.33737 26.346 3.33929 26.3473 3.34131 26.3486ZM3.27295 26.2842C3.26962 26.2795 3.26567 26.2754 3.26318 26.2715C3.2616 26.2689 3.26068 26.2661 3.25928 26.2637C3.26272 26.2697 3.26743 26.2765 3.27295 26.2842ZM3.24072 26.0508L3.24268 26.0488L3.24658 26.0391L3.24463 26.043C3.24373 26.0451 3.24203 26.0475 3.24072 26.0508ZM3.4292 25.8945C3.41563 25.8971 3.40331 25.9003 3.39209 25.9043C3.40345 25.9003 3.41583 25.8971 3.4292 25.8945ZM3.54346 25.8984C3.54445 25.8987 3.54541 25.8991 3.54639 25.8994V25.9004C3.54404 25.8997 3.54195 25.8981 3.53955 25.8975C3.54085 25.8978 3.54217 25.8981 3.54346 25.8984Z" fill="#00A443" stroke="#00402A" stroke-width="0.5"/>
<path d="M4.92871 14.8301C6.02854 14.6706 6.93686 15.0029 7.46387 15.6582C7.98993 16.3124 8.18041 17.3453 7.72559 18.6797C7.27802 19.9931 6.58276 21.5402 5.99609 22.7637C5.70324 23.3744 5.43852 23.903 5.24707 24.2783C5.17068 24.4281 5.10483 24.5529 5.05469 24.6494L0.772461 22.2959C0.784092 22.2587 0.79763 22.2167 0.8125 22.1699C0.877559 21.9653 0.973343 21.6721 1.09473 21.3193C1.3377 20.6133 1.68372 19.6695 2.09668 18.7178C2.51049 17.7642 2.98737 16.8117 3.49023 16.082C3.74168 15.7172 3.99472 15.4155 4.24316 15.1982C4.49295 14.9799 4.72244 14.86 4.92871 14.8301Z" fill="#008C39" stroke="#00402A" stroke-width="0.5"/>
<path d="M6.91113 34.7734C6.86909 34.7709 6.81978 34.7686 6.76562 34.7637C6.57827 34.7465 6.33375 34.7131 6.0957 34.6494C5.85362 34.5846 5.64012 34.4946 5.49707 34.376C5.38149 34.2801 5.31655 34.1719 5.31152 34.0332L6.08789 33.0156L7.83203 32.7139L6.91113 34.7734Z" fill="#00A443" stroke="#00402A" stroke-width="0.5"/>
<path d="M9.65381 33.7881L8.77295 35.5264L7.40088 34.9062L8.3501 32.7803L9.65381 33.7881Z" fill="#00A443" stroke="#00402A" stroke-width="0.5"/>
<path d="M44.8496 14.0664C44.7875 14.7988 44.729 15.5485 44.6992 16.29C44.665 16.904 44.6444 17.519 44.6436 18.1289L44.6494 18.7373C44.6524 19.5248 44.7164 20.3112 44.8418 21.0889H44.8428C44.8996 21.4356 44.9991 21.7743 45.1396 22.0967C45.1849 22.2005 45.2464 22.2963 45.3193 22.3828C45.3276 22.3962 45.3365 22.4067 45.3428 22.4141C45.3454 22.4171 45.3489 22.4191 45.3516 22.4219L45.3652 22.4355C45.3826 22.452 45.4036 22.4708 45.4277 22.4863C45.438 22.493 45.4607 22.5064 45.4912 22.5166C45.5055 22.5213 45.5378 22.5314 45.5791 22.5303C45.6149 22.5293 45.6843 22.5158 45.7441 22.458L46.2588 22.3477L46.2578 22.3467C46.6495 22.2704 47.0515 22.1396 47.4043 22.0479V22.0488L47.417 22.0439C47.9817 21.8634 48.539 21.6607 49.0869 21.4355L49.6318 21.2031L49.6348 21.2021C50.352 20.8742 51.0461 20.499 51.7139 20.0811L51.7148 20.082C52.0567 19.8775 52.382 19.6537 52.6963 19.4297L52.6982 19.4277C52.853 19.3146 53.0098 19.1967 53.1592 19.0781L53.1602 19.0791L53.377 18.9072L53.3838 18.9014L53.3896 18.8955L54.7725 20.3174C54.7429 20.3435 54.715 20.3705 54.6836 20.3975L54.4209 20.6182C54.2479 20.7592 54.0719 20.8893 53.8896 21.0234C53.6158 21.22 53.342 21.4105 53.0635 21.5889L52.7832 21.7627C52.2147 22.1041 51.6287 22.4159 51.0273 22.6963L50.4209 22.9658C49.6086 23.3041 48.772 23.5823 47.918 23.7979C47.4611 23.8943 47.052 24.005 46.6182 24.0674L46.6143 24.0684L45.9512 24.1748L45.876 24.1865L45.7402 24.2002C45.6526 24.2083 45.5645 24.2109 45.4766 24.207H45.4746C45.2828 24.2001 45.0928 24.1642 44.9121 24.1006H44.9131C44.5662 23.9758 44.2623 23.7547 44.0391 23.4648C43.8637 23.2351 43.724 22.9804 43.625 22.71C43.4633 22.2577 43.3592 21.7872 43.3145 21.3096V21.3086C43.2318 20.4402 43.2284 19.5662 43.3047 18.6973V18.6963C43.4408 17.0899 43.704 15.4966 44.0898 13.9307L44.8496 14.0664Z" fill="#FFCD52" stroke="#00402A" stroke-width="0.5" stroke-linejoin="round"/>
<path d="M52.5146 18.3208C53.6381 17.6914 55.1704 17.1319 56.8525 17.3579C57.2616 17.4129 57.5282 17.5519 57.7012 17.729C57.8746 17.9066 57.976 18.1458 58.0137 18.4419C58.0906 19.0469 57.8929 19.8318 57.582 20.5972C57.4563 20.9062 57.1335 21.2571 56.6758 21.6187C56.2256 21.9742 55.675 22.3174 55.1367 22.6177C54.5998 22.9172 54.0807 23.1717 53.6953 23.3511C53.518 23.4336 53.3684 23.4987 53.2598 23.5464L50.8525 19.4956C50.933 19.424 51.0458 19.3262 51.1885 19.2124C51.5014 18.9628 51.9547 18.6345 52.5146 18.3208Z" fill="#FFB536" stroke="#00402A" stroke-width="0.5" stroke-linejoin="round"/>
<mask id="path-30-inside-2_99_21466" fill="white">
<path d="M47.1411 10.1992L46.7505 12.7188L46.7514 12.7197L44.8266 14.4756L43.7251 14.6367C42.9955 13.1329 43.8905 11.6286 43.8979 11.6162H43.8969L44.8686 9.77051L47.1411 10.1992Z"/>
</mask>
<path d="M47.1411 10.1992L46.7505 12.7188L46.7514 12.7197L44.8266 14.4756L43.7251 14.6367C42.9955 13.1329 43.8905 11.6286 43.8979 11.6162H43.8969L44.8686 9.77051L47.1411 10.1992Z" fill="#FFCD52"/>
<path d="M47.1411 10.1992L47.6352 10.2758C47.6765 10.0092 47.4989 9.7579 47.2338 9.70789L47.1411 10.1992ZM46.7505 12.7188L46.2564 12.6421C46.2319 12.7997 46.2841 12.9595 46.3969 13.0723L46.7505 12.7188ZM46.7514 12.7197L47.0884 13.0891C47.1893 12.9971 47.2482 12.8677 47.2513 12.7312C47.2544 12.5946 47.2016 12.4628 47.105 12.3662L46.7514 12.7197ZM44.8266 14.4756L44.899 14.9703C44.9977 14.9559 45.0899 14.9122 45.1636 14.845L44.8266 14.4756ZM43.7251 14.6367L43.2752 14.855C43.3704 15.0511 43.5817 15.163 43.7974 15.1315L43.7251 14.6367ZM43.8979 11.6162L44.3271 11.8728C44.4194 11.7183 44.4216 11.5261 44.3328 11.3695C44.244 11.213 44.0779 11.1162 43.8979 11.1162L43.8979 11.6162ZM43.8969 11.6162L43.4545 11.3833C43.3729 11.5383 43.3784 11.7247 43.4689 11.8746C43.5594 12.0246 43.7218 12.1162 43.8969 12.1162V11.6162ZM44.8686 9.77051L44.9613 9.27917C44.7456 9.23847 44.5285 9.34329 44.4262 9.53759L44.8686 9.77051ZM47.1411 10.1992L46.647 10.1226L46.2564 12.6421L46.7505 12.7188L47.2446 12.7954L47.6352 10.2758L47.1411 10.1992ZM46.7505 12.7188L46.3969 13.0723L46.3979 13.0733L46.7514 12.7197L47.105 12.3662L47.104 12.3652L46.7505 12.7188ZM46.7514 12.7197L46.4145 12.3503L44.4897 14.1062L44.8266 14.4756L45.1636 14.845L47.0884 13.0891L46.7514 12.7197ZM44.8266 14.4756L44.7543 13.9809L43.6527 14.142L43.7251 14.6367L43.7974 15.1315L44.899 14.9703L44.8266 14.4756ZM43.7251 14.6367L44.1749 14.4185C43.8766 13.8036 43.9046 13.1783 44.0218 12.682C44.1391 12.1847 44.3378 11.8548 44.3271 11.8728L43.8979 11.6162L43.4688 11.3596C43.4506 11.39 43.1981 11.8184 43.0485 12.4523C42.8987 13.0872 42.844 13.966 43.2752 14.855L43.7251 14.6367ZM43.8979 11.6162V11.1162H43.8969V11.6162V12.1162H43.8979V11.6162ZM43.8969 11.6162L44.3394 11.8491L45.3111 10.0034L44.8686 9.77051L44.4262 9.53759L43.4545 11.3833L43.8969 11.6162ZM44.8686 9.77051L44.7759 10.2618L47.0484 10.6906L47.1411 10.1992L47.2338 9.70789L44.9613 9.27917L44.8686 9.77051Z" fill="#00402A" mask="url(#path-30-inside-2_99_21466)"/>
<path d="M68.9731 93.4365L66.6655 93.6602L63.9331 87.4736L66.2407 87.25L68.9731 93.4365Z" fill="#FFCD52" stroke="#00402A" stroke-width="0.5" stroke-linejoin="round"/>
<path d="M87.2275 83.7793L85.4668 85.415L81.2148 80.791L82.9756 79.1553L87.2275 83.7793Z" fill="#FFCD52" stroke="#00402A" stroke-width="0.5" stroke-linejoin="round"/>
<path d="M88.7227 83.021V83.022C88.7514 83.034 88.7778 83.0515 88.7988 83.0737C88.8198 83.096 88.8358 83.1225 88.8457 83.1509C88.8556 83.1793 88.8592 83.2099 88.8564 83.2397C88.8537 83.2695 88.844 83.2984 88.8291 83.3247C88.2713 84.2796 87.9223 84.7647 87.2246 86.0083C87.0051 86.3998 86.6832 87.042 86.3457 87.7104C86.006 88.3832 85.6479 89.0864 85.3525 89.6128C85.109 90.0468 84.7876 90.1236 84.5684 90.0854C84.45 90.0648 84.3601 90.0109 84.3105 89.9565C84.2628 89.9041 84.2636 89.8687 84.2695 89.8491C84.8784 87.865 84.8574 86.6365 84.708 85.6782L84.6377 85.2827L84.6279 85.1948C84.6261 85.1069 84.6478 85.019 84.6914 84.9409L84.6904 84.9399L86.2832 82.1021L88.7227 83.021Z" fill="#00402A" stroke="#00402A" stroke-width="0.5" stroke-linejoin="round"/>
<path d="M66.1318 93.3071H69.6094L69.6328 93.3149L69.6455 93.3335L70.4014 96.0552L70.4023 96.0571C70.4099 96.0835 70.4114 96.1114 70.4062 96.1382C70.401 96.1649 70.3891 96.1904 70.3721 96.2124C70.3549 96.2344 70.3324 96.2528 70.3066 96.2651C70.2807 96.2774 70.2516 96.2842 70.2227 96.2837V96.2827H70.2158C68.9923 96.2937 68.4133 96.2886 66.8828 96.2886H62.21C61.6678 96.2886 61.3726 96.0235 61.2559 95.7808C61.1949 95.6538 61.1862 95.5413 61.2012 95.4712C61.2147 95.4085 61.2376 95.3992 61.252 95.396C63.631 94.8767 65.0376 94.1516 65.8115 93.4302C65.8981 93.3507 66.0128 93.3061 66.1318 93.3071Z" fill="#00402A" stroke="#00402A" stroke-width="0.5" stroke-linejoin="round"/>
<path d="M67.6538 90.4438H65.2466L63.9341 87.4722L66.2417 87.2485L67.6538 90.4438Z" fill="#FFCD52" stroke="#00402A" stroke-width="0.5" stroke-linejoin="round"/>
<path d="M85.0063 81.3599L83.2456 82.9956L81.2163 80.7915L82.978 79.1558L85.0063 81.3599Z" fill="#FFCD52" stroke="#00402A" stroke-width="0.5" stroke-linejoin="round"/>
<path d="M64.2212 16.0127C65.8249 15.9683 67.4295 16.0347 69.0239 16.209C67.6382 25.8422 67.8672 28.8689 68.4575 33.4629L57.0669 34.4375C54.9737 26.2182 54.2387 21.9684 54.0269 19.7783C53.9199 18.6725 53.9484 18.1062 53.9956 17.8252C54.0103 17.7377 54.0268 17.6829 54.0386 17.6504C55.6269 17.1781 57.2377 16.7832 58.8657 16.4697L58.8667 16.4707C60.6371 16.192 62.4258 16.0389 64.2183 16.0127H64.2212Z" fill="#00402A" stroke="#00402A" stroke-width="0.5" stroke-linejoin="round"/>
<path d="M65.6133 15.9985L65.4092 16.3833L65.4082 16.3853C65.3454 16.5058 63.6822 19.5717 60.5371 21.3062L59.79 21.7183L59.0957 21.229H59.0947C57.1831 19.8836 56.8585 18.1644 57.1465 16.8276C57.7107 16.696 58.2989 16.5699 58.8652 16.4692C60.6353 16.1921 62.423 16.0398 64.2148 16.0132L64.2207 16.0122C64.6901 15.9953 65.1599 15.9938 65.6133 15.9985Z" fill="#FFB536" stroke="#00402A" stroke-width="0.5" stroke-linejoin="round"/>
<path d="M69.3804 0.260742C70.7542 0.155754 71.6449 0.844879 72.0718 1.73242C72.5078 2.6394 72.4501 3.72955 71.939 4.40625C70.8336 5.86936 69.4223 6.15637 68.5122 5.80859C68.293 5.72482 68.01 5.53416 67.6968 5.27539C67.3883 5.02049 67.0679 4.7143 66.7769 4.41699C66.4863 4.12016 66.227 3.83503 66.0405 3.62402C65.9479 3.51925 65.8742 3.43223 65.8228 3.37207C65.9614 2.73983 66.1651 2.04384 66.6401 1.46875C67.1363 0.868107 67.9515 0.370067 69.3804 0.260742Z" fill="#00402A" stroke="#00402A" stroke-width="0.5" stroke-linejoin="round"/>
<path d="M66.5854 1.45361C67.007 1.48611 67.4753 1.71448 67.7505 2.04443C68.7047 3.1881 69.1459 4.43279 69.1509 5.32471C69.1534 5.7728 69.0457 6.10042 68.8774 6.29248C68.7217 6.46995 68.4829 6.56724 68.1167 6.49658C67.6309 6.40308 67.2385 6.09333 66.9194 5.64697C66.5993 5.19909 66.3655 4.62997 66.1968 4.05908C66.0287 3.49021 65.929 2.93209 65.8716 2.51514C65.8429 2.30707 65.8248 2.13461 65.814 2.01514C65.8086 1.95564 65.8045 1.90865 65.8022 1.87744C65.8537 1.71397 65.9475 1.60995 66.0659 1.54443C66.1985 1.47118 66.3773 1.43758 66.5854 1.45361Z" fill="#FFCD52" stroke="#00402A" stroke-width="0.5" stroke-linejoin="round"/>
<path d="M61.0806 1.35693C63.4046 0.35182 65.3938 1.01678 66.688 2.31396C67.9971 3.62621 68.5772 5.56395 68.0923 7.07764C67.0803 10.2362 64.8148 11.6068 62.978 11.5454C62.5276 11.5303 61.9152 11.3651 61.2319 11.1099C60.5543 10.8568 59.8286 10.5237 59.1606 10.1909C58.4935 9.85854 57.8867 9.52839 57.4468 9.28076C57.2269 9.15702 57.0492 9.0538 56.9263 8.98193C56.8936 8.96285 56.8649 8.94566 56.8403 8.93115C56.6912 7.76107 56.603 6.39746 57.0903 5.07764C57.5896 3.72572 58.7067 2.38368 61.0806 1.35693Z" fill="#00402A" stroke="#00402A" stroke-width="0.5" stroke-linejoin="round"/>
<path d="M62.8447 10.4736C62.7901 11.2576 62.7757 12.1908 62.8721 13.0762C62.9355 13.6586 63.0474 14.229 63.2324 14.7256C63.389 15.1456 63.6036 15.5248 63.8945 15.8125C63.8514 15.8853 63.7954 15.9808 63.7236 16.0928C63.5428 16.3748 63.2719 16.7678 62.9141 17.209C62.2211 18.0633 61.2067 19.0883 59.8945 19.8428C58.8206 19.0351 58.6154 18.1825 58.6592 17.5371C58.6826 17.193 58.7771 16.8965 58.8672 16.6855C58.912 16.5805 58.9551 16.4978 58.9863 16.4424C58.9889 16.4378 58.9907 16.4329 58.9932 16.4287C59.944 16.0932 60.4266 15.542 60.582 14.8652C60.7239 14.2473 60.5803 13.5702 60.377 12.9512L62.8447 10.4736Z" fill="#FFCD52" stroke="#00402A" stroke-width="0.5" stroke-linejoin="round"/>
<path d="M60.1504 2.44287C60.7723 2.32014 61.416 2.35684 62.0195 2.54932C62.623 2.74186 63.1667 3.08397 63.5986 3.54248C64.0304 4.00103 64.336 4.56141 64.4873 5.16943C64.6385 5.77732 64.6309 6.41325 64.4639 7.01709L64.4629 7.02002C64.0922 8.42416 63.8515 9.39089 63.4932 10.1577C63.1432 10.9065 62.6804 11.4632 61.8525 12.0229C59.3924 13.6858 56.34 12.2474 56.2285 9.52686C56.1758 8.23762 56.4464 6.58768 57.0957 5.1958C57.7462 3.80156 58.7528 2.71067 60.1484 2.44287H60.1504Z" fill="#FFCD52" stroke="#00402A" stroke-width="0.5" stroke-linejoin="round"/>
<path d="M60.335 1.74316C61.5604 1.7104 62.3416 1.89254 62.8311 2.1582C63.3103 2.41836 63.5229 2.76449 63.6064 3.10742C63.6926 3.46113 63.6451 3.82947 63.5693 4.12012C63.5376 4.24168 63.5003 4.34593 63.4697 4.42578C63.4669 4.42534 63.4638 4.42525 63.4609 4.4248C63.3306 4.40466 63.1414 4.37673 62.9072 4.34277C62.439 4.27487 61.789 4.18539 61.0615 4.09961C59.7466 3.94458 58.1634 3.80081 56.9434 3.81836C57.1155 3.38782 57.3949 2.94396 57.8281 2.5791C58.3702 2.12277 59.1685 1.77452 60.335 1.74316Z" fill="#00402A" stroke="#00402A" stroke-width="0.5" stroke-linejoin="round"/>
<path d="M64.2241 8.41699C64.3388 8.43329 64.4473 8.4775 64.5405 8.54492C64.6351 8.61344 64.7113 8.70435 64.7612 8.80859C64.8111 8.91274 64.8339 9.02776 64.8276 9.14258C64.8213 9.25739 64.786 9.36943 64.7251 9.46777L64.7173 9.48145C64.5149 9.86034 64.1862 10.1564 63.7896 10.3223L63.6177 10.3848C63.349 10.4649 63.1918 10.3835 63.103 10.2637C63.0009 10.1256 62.9519 9.88449 63.0298 9.60156C63.1038 9.33337 63.2712 9.00712 63.4966 8.7627C63.6953 8.54717 63.9121 8.42277 64.1304 8.41406L64.2241 8.41699Z" fill="#FFCD52" stroke="#00402A" stroke-width="0.5" stroke-linejoin="round"/>
<path d="M65.1333 34.7632C65.0178 35.3149 64.8547 36.1159 64.6646 37.1138C64.2843 39.1096 63.7956 41.8944 63.3608 45.0493C62.4923 51.3519 61.8361 59.1593 62.7075 65.1099C63.2161 68.5823 64.697 74.7192 66.0474 79.9761C66.7232 82.6069 67.3671 85.0219 67.8423 86.7788C68.0799 87.6573 68.2756 88.3722 68.4116 88.8667C68.4625 89.0516 68.5043 89.2061 68.5376 89.3267L63.9751 89.4429C63.9721 89.4351 63.9695 89.4268 63.9663 89.4185C63.9186 89.2939 63.8484 89.1095 63.7583 88.8726C63.578 88.3987 63.3185 87.7122 63.0015 86.8628C62.3672 85.1637 61.5027 82.8121 60.5825 80.2017C58.7404 74.976 56.6798 68.7283 55.7866 64.5991C54.456 58.4485 54.7852 50.9942 55.4526 45.063C55.786 42.1005 56.2031 39.5238 56.5366 37.688C56.7034 36.7702 56.8495 36.0373 56.9536 35.5347C57.0056 35.2838 57.0471 35.0902 57.0757 34.9595C57.0772 34.9523 57.0781 34.9448 57.0796 34.938L65.2437 34.2397C65.2144 34.3752 65.1777 34.551 65.1333 34.7632Z" fill="#FFCD52" stroke="#00402A" stroke-width="0.5" stroke-linejoin="round"/>
<path d="M69.0405 89.5591L63.2397 89.7056L62.5649 88.4526L68.7749 88.1616L69.0405 89.5591Z" fill="#FFCD52" stroke="#00402A" stroke-width="0.5" stroke-linejoin="round"/>
<path d="M68.626 33.9507C69.5801 35.1055 69.9705 36.5687 70.1055 38.353C70.2448 40.1952 70.1121 42.3238 70.0801 44.7612C70.0162 49.6193 70.361 55.5675 74.1475 62.312C75.68 65.0419 78.3031 69.5843 80.543 73.4429C81.6631 75.3725 82.6883 77.132 83.4326 78.4087C83.8046 79.0467 84.1064 79.5643 84.3154 79.9224C84.4124 80.0884 84.4893 80.2204 84.5439 80.314L82.0488 82.8569C81.9718 82.774 81.8707 82.6651 81.748 82.5317C81.44 82.1967 80.9951 81.7085 80.4482 81.0972C79.3544 79.8745 77.8534 78.1587 76.2236 76.187C72.96 72.2386 69.1955 67.2811 67.1484 63.2017C64.6129 58.1484 62.754 50.9769 61.5283 45.0522C60.9161 42.0932 60.463 39.4505 60.1631 37.5483C60.0131 36.5974 59.9013 35.8311 59.8271 35.3032C59.7941 35.0677 59.7682 34.8797 59.75 34.7437L68.626 33.9507Z" fill="#FFCD52" stroke="#00402A" stroke-width="0.5" stroke-linejoin="round"/>
<path d="M85.0571 80.0723L81.7358 83.2783L80.6147 82.4902L84.1587 78.8643L85.0571 80.0723Z" fill="#FFCD52" stroke="#00402A" stroke-width="0.5" stroke-linejoin="round"/>
<path d="M69.1499 33.9346L56.8755 34.9844L56.7241 34.1865L68.6685 33.1641L69.1499 33.9346Z" fill="#FFCD52" stroke="#00402A" stroke-width="0.5" stroke-linejoin="round"/>
<path d="M67.4946 34.1909L67.4409 34.1948L67.2407 33.1919L67.2944 33.188L67.4946 34.1909Z" fill="#FFCD52" stroke="#00402A" stroke-width="0.5" stroke-linejoin="round"/>
<path d="M57.915 35.0107L57.8594 35.0146L57.6602 34.0137L57.7148 34.0088L57.915 35.0107Z" fill="#FFCD52" stroke="#00402A" stroke-width="0.5" stroke-linejoin="round"/>
<path d="M62.7046 34.5981L62.6489 34.6021L62.4497 33.6011L62.5044 33.5962L62.7046 34.5981Z" fill="#FFCD52" stroke="#00402A" stroke-width="0.5" stroke-linejoin="round"/>
<path d="M81.9121 18.1665C81.7596 20.1466 81.4629 22.1133 81.0195 24.0503L81.0186 24.0522C80.8177 24.9569 80.5464 25.8447 80.207 26.7075L80.0566 27.0767C79.8369 27.6058 79.5538 28.1076 79.2129 28.5698C79.0113 28.8389 78.7695 29.0762 78.4961 29.2739L78.4951 29.2749C78.1562 29.5228 77.7489 29.6634 77.3271 29.6792C76.9092 29.6859 76.498 29.5766 76.1406 29.3628L76.1396 29.3618L75.915 29.2192L75.7021 29.0601L75.3945 28.8013L75.3906 28.7983L75.085 28.5405C74.9846 28.4534 74.8857 28.3646 74.7871 28.2749L74.1973 27.7261C73.4393 26.9862 72.7269 26.2013 72.0645 25.3765C71.4061 24.5521 70.7925 23.6984 70.2139 22.8218H70.2148C69.6815 22.0059 69.1917 21.1631 68.7441 20.2983L70.5381 19.4302C70.7246 19.7738 70.9326 20.141 71.1328 20.4888L71.1338 20.4917C71.3855 20.9156 71.6439 21.3396 71.915 21.7563V21.7573C72.4458 22.5956 73.0079 23.4157 73.6104 24.2036L73.6113 24.2056C74.2161 24.9826 74.8378 25.751 75.5117 26.4692L75.5156 26.4722C75.7679 26.7315 76.0243 26.9972 76.292 27.2515L76.5635 27.5015L76.8252 27.7437C76.8287 27.7469 76.8323 27.7504 76.8359 27.7534C76.8915 27.7992 76.954 27.8484 77.0117 27.8872V27.8882L77.0176 27.8921V27.8911C77.0691 27.9267 77.125 27.9542 77.1836 27.9761C77.2105 27.9899 77.2336 27.999 77.25 28.0024C77.2978 28.0124 77.3409 28.0076 77.3691 28.0024C77.4284 27.9915 77.4889 27.9655 77.5498 27.9302L77.5586 27.9243C77.7085 27.8287 77.8425 27.7099 77.9551 27.5728C78.1687 27.3122 78.3582 27.0334 78.5215 26.7397L78.6758 26.4409C79.0979 25.557 79.4535 24.6434 79.7393 23.7075C80.0456 22.7565 80.3062 21.781 80.542 20.8003L80.541 20.7993C80.7697 19.897 80.9674 18.9769 81.1533 18.0728L81.9121 18.1665ZM77.5312 27.6763C77.5386 27.6989 77.5439 27.724 77.5439 27.7524C77.5439 27.726 77.5391 27.7005 77.5312 27.6763Z" fill="#FFCD52" stroke="#00402A" stroke-width="0.5" stroke-linejoin="round"/>
<mask id="path-56-inside-3_99_21466" fill="white">
<path d="M83.3535 16.166L83.293 17.2793L83.2949 17.2803C83.2888 17.2903 82.4446 18.6676 81.2852 19.0225L80.4072 18.21L80.7197 15.6387L80.7178 15.6377L81.6719 14.5947L83.3535 16.166Z"/>
</mask>
<path d="M83.3535 16.166L83.293 17.2793L83.2949 17.2803C83.2888 17.2903 82.4446 18.6676 81.2852 19.0225L80.4072 18.21L80.7197 15.6387L80.7178 15.6377L81.6719 14.5947L83.3535 16.166Z" fill="#FFCD52"/>
<path d="M83.3535 16.166L83.8528 16.1932C83.8608 16.0454 83.803 15.9017 83.6949 15.8007L83.3535 16.166ZM83.293 17.2793L82.7937 17.2521C82.7829 17.4511 82.8912 17.6374 83.0694 17.7265L83.293 17.2793ZM83.2949 17.2803L83.7215 17.5411C83.7945 17.4217 83.8141 17.2771 83.7756 17.1425C83.737 17.0079 83.6438 16.8957 83.5185 16.8331L83.2949 17.2803ZM81.2852 19.0225L80.9455 19.3894C81.0762 19.5103 81.2613 19.5527 81.4315 19.5006L81.2852 19.0225ZM80.4072 18.21L79.9109 18.1496C79.8915 18.309 79.9498 18.4679 80.0676 18.5769L80.4072 18.21ZM80.7197 15.6387L81.2161 15.699C81.2416 15.4892 81.1324 15.286 80.9433 15.1915L80.7197 15.6387ZM80.7178 15.6377L80.3489 15.3002C80.243 15.4159 80.1976 15.5746 80.2261 15.7287C80.2547 15.8829 80.3539 16.0148 80.4942 16.0849L80.7178 15.6377ZM81.6719 14.5947L82.0132 14.2294C81.9157 14.1382 81.7857 14.0899 81.6523 14.0951C81.5189 14.1003 81.3931 14.1587 81.303 14.2572L81.6719 14.5947ZM83.3535 16.166L82.8543 16.1389L82.7937 17.2521L83.293 17.2793L83.7922 17.3064L83.8528 16.1932L83.3535 16.166ZM83.293 17.2793L83.0694 17.7265L83.0713 17.7275L83.2949 17.2803L83.5185 16.8331L83.5166 16.8321L83.293 17.2793ZM83.2949 17.2803L82.8684 17.0194C82.8742 17.0098 82.6806 17.3272 82.3536 17.6846C82.0184 18.051 81.5912 18.4059 81.1388 18.5443L81.2852 19.0225L81.4315 19.5006C82.1385 19.2842 82.7132 18.773 83.0914 18.3596C83.478 17.9371 83.7095 17.5608 83.7215 17.5411L83.2949 17.2803ZM81.2852 19.0225L81.6248 18.6555L80.7468 17.843L80.4072 18.21L80.0676 18.5769L80.9455 19.3894L81.2852 19.0225ZM80.4072 18.21L80.9036 18.2703L81.2161 15.699L80.7197 15.6387L80.2234 15.5783L79.9109 18.1496L80.4072 18.21ZM80.7197 15.6387L80.9433 15.1915L80.9414 15.1905L80.7178 15.6377L80.4942 16.0849L80.4961 16.0859L80.7197 15.6387ZM80.7178 15.6377L81.0867 15.9752L82.0408 14.9322L81.6719 14.5947L81.303 14.2572L80.3489 15.3002L80.7178 15.6377ZM81.6719 14.5947L81.3305 14.9601L83.0122 16.5314L83.3535 16.166L83.6949 15.8007L82.0132 14.2294L81.6719 14.5947Z" fill="#00402A" mask="url(#path-56-inside-3_99_21466)"/>
<path d="M67.374 16.7637C67.7975 16.326 68.4131 16.0856 69.2637 16.2344C69.5401 16.2829 69.8909 16.5329 70.2822 16.9512C70.6633 17.3584 71.0458 17.884 71.3877 18.4102C71.7287 18.9348 72.0255 19.4526 72.2373 19.8398C72.3431 20.0333 72.4276 20.1938 72.4854 20.3057C72.4862 20.3072 72.4865 20.309 72.4873 20.3105L69.1533 23.2949C69.0794 23.2107 68.9829 23.1005 68.8721 22.9678C68.6045 22.6473 68.2496 22.2009 67.9004 21.6982C67.5506 21.1947 67.2096 20.6398 66.9668 20.1006C66.7216 19.556 66.5887 19.0542 66.6221 18.6484C66.6849 17.8911 66.9407 17.2115 67.374 16.7637Z" fill="#FFB536" stroke="#00402A" stroke-width="0.5" stroke-linejoin="round"/>
</svg>
