<svg width="115" height="70" viewBox="0 0 115 70" fill="none" xmlns="http://www.w3.org/2000/svg">
<path d="M75.6371 26.0746C75.6371 11.8121 64.075 0.25001 49.8124 0.25001C35.5499 0.250011 23.9878 11.8121 23.9878 26.0747C23.9878 40.3372 35.5499 51.8993 49.8124 51.8993C64.075 51.8993 75.6371 40.3372 75.6371 26.0746Z" fill="#00402A" stroke="#FFFEFF" stroke-width="0.5" stroke-linejoin="round"/>
<mask id="mask0_99_31955" style="mask-type:alpha" maskUnits="userSpaceOnUse" x="0" y="32" width="109" height="38">
<path d="M0.319129 69.6903C0.130208 67.8498 0.329558 65.9902 0.904292 64.2315C1.47903 62.4729 2.41636 60.8544 3.65571 59.4807C4.89506 58.1069 6.40886 57.0085 8.09926 56.2564C9.78967 55.5043 11.6191 55.1152 13.4692 55.1144C15.5769 55.1144 17.6536 55.6212 19.5243 56.5922C19.7054 50.7705 21.9845 45.2103 25.9417 40.9364C29.8988 36.6624 35.2673 33.9627 41.0579 33.3346C46.8486 32.7065 52.6711 34.1925 57.4525 37.5186C62.234 40.8447 65.6522 45.787 67.0773 51.4345C69.3226 49.6609 71.9824 48.4881 74.8062 48.0267C77.63 47.5652 80.5248 47.8303 83.2178 48.7969C85.9108 49.7635 88.3134 51.3998 90.1992 53.5517C92.085 55.7036 93.3919 58.3002 93.9967 61.0968C95.5204 60.4538 97.1729 60.1747 98.8233 60.2815C100.474 60.3883 102.076 60.8782 103.504 61.7121C104.933 62.5461 106.147 63.7013 107.051 65.0861C107.955 66.4709 108.524 68.0473 108.713 69.6903H0.319129Z" fill="#00402A" stroke="#FFFEFF" stroke-width="0.5" stroke-linejoin="round"/>
</mask>
<g mask="url(#mask0_99_31955)">
<path d="M0.319129 69.6903C0.130208 67.8498 0.329558 65.9902 0.904292 64.2315C1.47903 62.4729 2.41636 60.8544 3.65571 59.4807C4.89506 58.1069 6.40886 57.0085 8.09926 56.2564C9.78967 55.5043 11.6191 55.1152 13.4692 55.1144C15.5769 55.1144 17.6536 55.6212 19.5243 56.5922C19.7054 50.7705 21.9845 45.2103 25.9417 40.9364C29.8988 36.6624 35.2673 33.9627 41.0579 33.3346C46.8486 32.7065 52.6711 34.1925 57.4525 37.5186C62.234 40.8447 65.6522 45.787 67.0773 51.4345C69.3226 49.6609 71.9824 48.4881 74.8062 48.0267C77.63 47.5652 80.5248 47.8303 83.2178 48.7969C85.9108 49.7635 88.3134 51.3998 90.1992 53.5517C92.085 55.7036 93.3919 58.3002 93.9967 61.0968C95.5204 60.4538 97.1729 60.1747 98.8233 60.2815C100.474 60.3883 102.076 60.8782 103.504 61.7121C104.933 62.5461 106.147 63.7013 107.051 65.0861C107.955 66.4709 108.524 68.0473 108.713 69.6903H0.319129Z" fill="#007ACB" stroke="#FFFEFF" stroke-width="0.5" stroke-linejoin="round"/>
<mask id="path-4-inside-1_99_31955" fill="white">
<path d="M62.4173 58.7649L61.9946 58.616C63.0045 55.4903 64.9667 52.7588 67.6064 50.804L67.8675 51.1692C65.303 53.0706 63.3973 55.7265 62.4173 58.7649Z"/>
</mask>
<path d="M62.4173 58.7649L61.9946 58.616C63.0045 55.4903 64.9667 52.7588 67.6064 50.804L67.8675 51.1692C65.303 53.0706 63.3973 55.7265 62.4173 58.7649Z" fill="#00402A"/>
<path d="M62.4173 58.7649L62.2511 59.2365C62.3783 59.2813 62.5183 59.2728 62.6392 59.2129C62.7601 59.153 62.8517 59.0468 62.8931 58.9184L62.4173 58.7649ZM61.9946 58.616L61.5188 58.4622C61.4355 58.7201 61.5728 58.9974 61.8284 59.0875L61.9946 58.616ZM67.6064 50.804L68.0131 50.5131C67.9352 50.4041 67.8167 50.3309 67.6843 50.3101C67.5518 50.2892 67.4166 50.3224 67.3089 50.4021L67.6064 50.804ZM67.8675 51.1692L68.1653 51.5708C68.3844 51.4083 68.4329 51.1002 68.2743 50.8784L67.8675 51.1692ZM62.4173 58.7649L62.5835 58.2933L62.1608 58.1444L61.9946 58.616L61.8284 59.0875L62.2511 59.2365L62.4173 58.7649ZM61.9946 58.616L62.4704 58.7697C63.4482 55.7433 65.3481 53.0985 67.904 51.2058L67.6064 50.804L67.3089 50.4021C64.5853 52.419 62.5607 55.2373 61.5188 58.4622L61.9946 58.616ZM67.6064 50.804L67.1997 51.0948L67.4608 51.46L67.8675 51.1692L68.2743 50.8784L68.0131 50.5131L67.6064 50.804ZM67.8675 51.1692L67.5697 50.7675C64.9214 52.7311 62.9535 55.4737 61.9414 58.6114L62.4173 58.7649L62.8931 58.9184C63.8411 55.9793 65.6846 53.4102 68.1653 51.5708L67.8675 51.1692Z" fill="#FFFEFF" mask="url(#path-4-inside-1_99_31955)"/>
<mask id="path-6-inside-2_99_31955" fill="white">
<path d="M89.9236 65.3362L89.5171 65.1469C90.8478 62.2818 94.1409 60.8587 94.2809 60.7994L94.4559 61.2122C94.4236 61.2257 91.1807 62.6282 89.9236 65.3362Z"/>
</mask>
<path d="M89.9236 65.3362L89.5171 65.1469C90.8478 62.2818 94.1409 60.8587 94.2809 60.7994L94.4559 61.2122C94.4236 61.2257 91.1807 62.6282 89.9236 65.3362Z" fill="#00402A"/>
<path d="M89.9236 65.3362L89.7125 65.7895C89.8328 65.8455 89.9704 65.8514 90.0951 65.8059C90.2198 65.7604 90.3212 65.6672 90.3771 65.5468L89.9236 65.3362ZM89.5171 65.1469L89.0636 64.9363C88.9474 65.1866 89.0558 65.4837 89.306 65.6002L89.5171 65.1469ZM94.2809 60.7994L94.7413 60.6043C94.6336 60.3502 94.3403 60.2314 94.0861 60.339L94.2809 60.7994ZM94.4559 61.2122L94.6482 61.6737C94.7711 61.6225 94.8685 61.5244 94.9188 61.4012C94.9691 61.2779 94.9682 61.1396 94.9162 61.0171L94.4559 61.2122ZM89.9236 65.3362L90.1347 64.883L89.7282 64.6937L89.5171 65.1469L89.306 65.6002L89.7125 65.7895L89.9236 65.3362ZM89.5171 65.1469L89.9706 65.3575C90.5852 64.0342 91.6653 63.0232 92.6367 62.3275C93.6037 61.6348 94.4261 61.2809 94.4757 61.2599L94.2809 60.7994L94.0861 60.339C93.9958 60.3772 93.1016 60.7644 92.0544 61.5145C91.0116 62.2614 89.7797 63.3945 89.0636 64.9363L89.5171 65.1469ZM94.2809 60.7994L93.8206 60.9946L93.9955 61.4073L94.4559 61.2122L94.9162 61.0171L94.7413 60.6043L94.2809 60.7994ZM94.4559 61.2122L94.2636 60.7507C94.2229 60.7676 93.3692 61.1384 92.3594 61.8562C91.3544 62.5705 90.1507 63.6595 89.4701 65.1257L89.9236 65.3362L90.3771 65.5468C90.9536 64.3049 91.9999 63.3386 92.9387 62.6713C93.8727 62.0074 94.6566 61.6702 94.6482 61.6737L94.4559 61.2122Z" fill="#FFFEFF" mask="url(#path-6-inside-2_99_31955)"/>
<mask id="path-8-inside-3_99_31955" fill="white">
<path d="M25.4349 62.9702C24.018 60.3058 21.8411 58.1226 19.1807 56.698L19.3736 56.2933C22.1337 57.7465 24.3868 60.0043 25.8342 62.7674L25.4349 62.9702Z"/>
</mask>
<path d="M25.4349 62.9702C24.018 60.3058 21.8411 58.1226 19.1807 56.698L19.3736 56.2933C22.1337 57.7465 24.3868 60.0043 25.8342 62.7674L25.4349 62.9702Z" fill="#00402A"/>
<path d="M25.4349 62.9702L24.9935 63.205C25.1214 63.4456 25.4184 63.5394 25.6613 63.416L25.4349 62.9702ZM19.1807 56.698L18.7293 56.4829C18.6144 56.7239 18.7092 57.0127 18.9446 57.1388L19.1807 56.698ZM19.3736 56.2933L19.6065 55.8509C19.4861 55.7875 19.3451 55.7759 19.216 55.8188C19.0869 55.8617 18.9808 55.9554 18.9222 56.0782L19.3736 56.2933ZM25.8342 62.7674L26.0606 63.2132C26.1798 63.1527 26.2698 63.0469 26.3105 62.9196C26.3512 62.7922 26.3392 62.6539 26.2771 62.5354L25.8342 62.7674ZM25.4349 62.9702L25.8764 62.7355C24.4129 59.9835 22.1645 57.7286 19.4167 56.2572L19.1807 56.698L18.9446 57.1388C21.5177 58.5166 23.6231 60.628 24.9935 63.205L25.4349 62.9702ZM19.1807 56.698L19.632 56.9132L19.8249 56.5085L19.3736 56.2933L18.9222 56.0782L18.7293 56.4829L19.1807 56.698ZM19.3736 56.2933L19.1407 56.7358C21.811 58.1417 23.9909 60.3262 25.3913 62.9995L25.8342 62.7674L26.2771 62.5354C24.7827 59.6825 22.4563 57.3513 19.6065 55.8509L19.3736 56.2933ZM25.8342 62.7674L25.6078 62.3216L25.2085 62.5244L25.4349 62.9702L25.6613 63.416L26.0606 63.2132L25.8342 62.7674Z" fill="#FFFEFF" mask="url(#path-8-inside-3_99_31955)"/>
<mask id="path-10-inside-4_99_31955" fill="white">
<path d="M22.7788 65.6362L22.4199 65.3671C23.2263 64.1736 24.3496 63.2288 25.6636 62.639C26.9776 62.0491 28.4301 61.8376 29.8577 62.0282L29.812 62.4768C28.4618 62.2973 27.0884 62.4978 25.8459 63.056C24.6035 63.6141 23.5414 64.5077 22.7788 65.6362Z"/>
</mask>
<path d="M22.7788 65.6362L22.4199 65.3671C23.2263 64.1736 24.3496 63.2288 25.6636 62.639C26.9776 62.0491 28.4301 61.8376 29.8577 62.0282L29.812 62.4768C28.4618 62.2973 27.0884 62.4978 25.8459 63.056C24.6035 63.6141 23.5414 64.5077 22.7788 65.6362Z" fill="#00402A"/>
<path d="M22.7788 65.6362L22.4788 66.0362C22.5884 66.1184 22.7267 66.152 22.8617 66.1293C22.9967 66.1066 23.1165 66.0296 23.1931 65.9162L22.7788 65.6362ZM22.4199 65.3671L22.0056 65.0871C21.8564 65.308 21.9067 65.6071 22.1199 65.7671L22.4199 65.3671ZM29.8577 62.0282L30.3552 62.0789C30.3826 61.8102 30.1916 61.5683 29.9239 61.5326L29.8577 62.0282ZM29.812 62.4768L29.7461 62.9724C29.8801 62.9903 30.0157 62.953 30.1219 62.8692C30.228 62.7854 30.2957 62.6621 30.3094 62.5275L29.812 62.4768ZM22.7788 65.6362L23.0788 65.2362L22.7199 64.9671L22.4199 65.3671L22.1199 65.7671L22.4788 66.0362L22.7788 65.6362ZM22.4199 65.3671L22.8342 65.647C23.5885 64.5306 24.6393 63.6469 25.8684 63.0951L25.6636 62.639L25.4588 62.1828C24.06 62.8108 22.864 63.8166 22.0056 65.0871L22.4199 65.3671ZM25.6636 62.639L25.8684 63.0951C27.0975 62.5433 28.4562 62.3455 29.7916 62.5238L29.8577 62.0282L29.9239 61.5326C28.404 61.3296 26.8577 61.5548 25.4588 62.1828L25.6636 62.639ZM29.8577 62.0282L29.3603 61.9774L29.3146 62.4261L29.812 62.4768L30.3094 62.5275L30.3552 62.0789L29.8577 62.0282ZM29.812 62.4768L29.8779 61.9812C28.4356 61.7894 26.9683 62.0036 25.641 62.5999L25.8459 63.056L26.0508 63.5121C27.2084 62.992 28.4881 62.8052 29.7461 62.9724L29.812 62.4768ZM25.8459 63.056L25.641 62.5999C24.3138 63.1961 23.1791 64.1507 22.3645 65.3563L22.7788 65.6362L23.1931 65.9162C23.9036 64.8646 24.8932 64.0321 26.0508 63.5121L25.8459 63.056Z" fill="#FFFEFF" mask="url(#path-10-inside-4_99_31955)"/>
<mask id="path-12-inside-5_99_31955" fill="white">
<path d="M66.4867 62.8659C65.051 59.8869 60.1383 57.177 55.6984 58.0043L55.6167 57.5637C59.4392 56.8522 65.0699 58.8819 66.8914 62.6712L66.4867 62.8659Z"/>
</mask>
<path d="M66.4867 62.8659C65.051 59.8869 60.1383 57.177 55.6984 58.0043L55.6167 57.5637C59.4392 56.8522 65.0699 58.8819 66.8914 62.6712L66.4867 62.8659Z" fill="#00402A"/>
<path d="M66.4867 62.8659L66.0363 63.083C66.1561 63.3317 66.4548 63.4362 66.7035 63.3165L66.4867 62.8659ZM55.6984 58.0043L55.2067 58.0954C55.2309 58.2259 55.306 58.3414 55.4153 58.4165C55.5247 58.4916 55.6595 58.5202 55.7899 58.4958L55.6984 58.0043ZM55.6167 57.5637L55.5252 57.0722C55.2539 57.1227 55.0748 57.3835 55.1251 57.6548L55.6167 57.5637ZM66.8914 62.6712L67.1082 63.1218C67.357 63.0021 67.4617 62.7034 67.3421 62.4546L66.8914 62.6712ZM66.4867 62.8659L66.9372 62.6489C66.1555 61.027 64.4656 59.5359 62.4363 58.5574C60.3992 57.575 57.9526 57.0756 55.6068 57.5128L55.6984 58.0043L55.7899 58.4958C57.884 58.1056 60.1138 58.5476 62.0019 59.4581C63.898 60.3724 65.3822 61.7258 66.0363 63.083L66.4867 62.8659ZM55.6984 58.0043L56.19 57.9132L56.1083 57.4726L55.6167 57.5637L55.1251 57.6548L55.2067 58.0954L55.6984 58.0043ZM55.6167 57.5637L55.7082 58.0553C57.5049 57.7208 59.7682 58.0283 61.81 58.8903C63.8535 59.753 65.5999 61.1386 66.4408 62.8878L66.8914 62.6712L67.3421 62.4546C66.3614 60.4145 64.3817 58.8906 62.1989 57.969C60.0143 57.0467 57.5511 56.6951 55.5252 57.0722L55.6167 57.5637ZM66.8914 62.6712L66.6746 62.2207L66.2699 62.4154L66.4867 62.8659L66.7035 63.3165L67.1082 63.1218L66.8914 62.6712Z" fill="#FFFEFF" mask="url(#path-12-inside-5_99_31955)"/>
</g>
<mask id="mask1_99_31955" style="mask-type:alpha" maskUnits="userSpaceOnUse" x="55" y="12" width="60" height="17">
<path d="M55.3179 28.0093C55.436 25.8963 56.1489 23.8598 57.3744 22.1345C58.5999 20.4091 60.2881 19.0653 62.2444 18.258C64.2006 17.4507 66.3452 17.2128 68.4309 17.5717C70.5165 17.9306 72.4582 18.8717 74.0321 20.2864C75.2502 17.7423 77.2248 15.6368 79.6856 14.2581C82.1464 12.8794 84.9732 12.2949 87.779 12.5846C90.5848 12.8743 93.2325 14.0241 95.3596 15.8765C97.4868 17.7289 98.9895 20.1935 99.6621 22.9329C100.898 21.9734 102.353 21.3356 103.897 21.0765C105.44 20.8173 107.023 20.945 108.505 21.448C109.987 21.951 111.321 22.8136 112.388 23.9587C113.455 25.1038 114.221 26.4955 114.617 28.0093H55.3179Z" fill="#00402A" stroke="#FFFEFF" stroke-width="0.5" stroke-linejoin="round"/>
</mask>
<g mask="url(#mask1_99_31955)">
<path d="M55.3179 28.0093C55.436 25.8963 56.1489 23.8598 57.3744 22.1345C58.5999 20.4091 60.2881 19.0653 62.2444 18.258C64.2006 17.4507 66.3452 17.2128 68.4309 17.5717C70.5165 17.9306 72.4582 18.8717 74.0321 20.2864C75.2502 17.7423 77.2248 15.6368 79.6856 14.2581C82.1464 12.8794 84.9732 12.2949 87.779 12.5846C90.5848 12.8743 93.2325 14.0241 95.3596 15.8765C97.4868 17.7289 98.9895 20.1935 99.6621 22.9329C100.898 21.9734 102.353 21.3356 103.897 21.0765C105.44 20.8173 107.023 20.945 108.505 21.448C109.987 21.951 111.321 22.8136 112.388 23.9587C113.455 25.1038 114.221 26.4955 114.617 28.0093H55.3179Z" fill="#0DA9FF" stroke="#FFFEFF" stroke-width="0.5" stroke-linejoin="round"/>
<mask id="path-16-inside-6_99_31955" fill="white">
<path d="M76.8052 24.3815C76.0155 22.7127 74.8669 21.239 73.4414 20.0658L73.7363 19.6963C75.231 20.9163 76.4304 22.4585 77.2447 24.2076L76.8052 24.3815Z"/>
</mask>
<path d="M76.8052 24.3815C76.0155 22.7127 74.8669 21.239 73.4414 20.0658L73.7363 19.6963C75.231 20.9163 76.4304 22.4585 77.2447 24.2076L76.8052 24.3815Z" fill="#00402A"/>
<path d="M76.8052 24.3815L76.3533 24.5953C76.466 24.8335 76.7442 24.9433 76.9892 24.8464L76.8052 24.3815ZM73.4414 20.0658L73.0506 19.754C72.8802 19.9675 72.9127 20.2783 73.1237 20.4519L73.4414 20.0658ZM73.7363 19.6963L74.0525 19.3089C73.949 19.2245 73.816 19.1849 73.6832 19.1991C73.5504 19.2133 73.4288 19.28 73.3455 19.3844L73.7363 19.6963ZM77.2447 24.2076L77.4287 24.6725C77.5568 24.6218 77.6582 24.5206 77.7092 24.3926C77.7602 24.2647 77.7561 24.1214 77.698 23.9965L77.2447 24.2076ZM76.8052 24.3815L77.2572 24.1676C76.436 22.4323 75.2415 20.8998 73.7591 19.6798L73.4414 20.0658L73.1237 20.4519C74.4923 21.5783 75.5951 22.9932 76.3533 24.5953L76.8052 24.3815ZM73.4414 20.0658L73.8322 20.3777L74.1271 20.0082L73.7363 19.6963L73.3455 19.3844L73.0506 19.754L73.4414 20.0658ZM73.7363 19.6963L73.4201 20.0836C74.8564 21.2559 76.0089 22.7379 76.7915 24.4186L77.2447 24.2076L77.698 23.9965C76.8518 22.1791 75.6056 20.5766 74.0525 19.3089L73.7363 19.6963ZM77.2447 24.2076L77.0608 23.7426L76.6213 23.9165L76.8052 24.3815L76.9892 24.8464L77.4287 24.6725L77.2447 24.2076Z" fill="#FFFEFF" mask="url(#path-16-inside-6_99_31955)"/>
<mask id="path-18-inside-7_99_31955" fill="white">
<path d="M97.8906 25.4739L97.4644 25.2688C98.1652 24.0637 99.1143 23.0214 100.249 22.2112L100.522 22.5968C99.456 23.3643 98.5601 24.3438 97.8906 25.4739Z"/>
</mask>
<path d="M97.8906 25.4739L97.4644 25.2688C98.1652 24.0637 99.1143 23.0214 100.249 22.2112L100.522 22.5968C99.456 23.3643 98.5601 24.3438 97.8906 25.4739Z" fill="#00402A"/>
<path d="M97.8906 25.4739L97.6738 25.9244C97.9076 26.0369 98.1886 25.9519 98.3208 25.7287L97.8906 25.4739ZM97.4644 25.2688L97.0321 25.0174C96.962 25.1379 96.9455 25.2822 96.9864 25.4155C97.0273 25.5488 97.122 25.6589 97.2476 25.7194L97.4644 25.2688ZM100.249 22.2112L100.657 21.9222C100.58 21.8137 100.463 21.7403 100.332 21.7182C100.201 21.696 100.066 21.727 99.9582 21.8043L100.249 22.2112ZM100.522 22.5968L100.814 23.0026C101.037 22.8421 101.089 22.5319 100.93 22.3078L100.522 22.5968ZM97.8906 25.4739L98.1074 25.0233L97.6811 24.8182L97.4644 25.2688L97.2476 25.7194L97.6738 25.9244L97.8906 25.4739ZM97.4644 25.2688L97.8966 25.5202C98.5618 24.3763 99.4626 23.3871 100.539 22.6181L100.249 22.2112L99.9582 21.8043C98.766 22.6557 97.7686 23.751 97.0321 25.0174L97.4644 25.2688ZM100.249 22.2112L99.8408 22.5002L100.114 22.8858L100.522 22.5968L100.93 22.3078L100.657 21.9222L100.249 22.2112ZM100.522 22.5968L100.23 22.1911C99.1079 22.9988 98.1651 24.0297 97.4604 25.219L97.8906 25.4739L98.3208 25.7287C98.9552 24.658 99.804 23.7298 100.814 23.0026L100.522 22.5968Z" fill="#FFFEFF" mask="url(#path-18-inside-7_99_31955)"/>
</g>
</svg>
