<svg width="84" height="74" viewBox="0 0 84 74" fill="none" xmlns="http://www.w3.org/2000/svg">
<path d="M12.2576 34.3306C17.2308 36.0003 27.2907 36.9884 27.6996 35.7767C28.1086 34.5651 32.1341 31.6324 27.1609 29.9583C20.1962 32.301 4.39635 27.9014 3.98955 29.1142C3.58275 30.3269 7.28436 32.6609 12.2576 34.3306Z" fill="#C66D00" stroke="#FFFEFF" stroke-width="0.5" stroke-linejoin="round"/>
<path d="M12.2581 34.3306C13.2211 34.0034 14.8483 30.5516 10.1859 29.7326C6.73957 29.1317 3.97711 28.5067 3.80371 29.0204C3.40127 30.231 6.98716 33.2585 12.2581 34.3306Z" fill="#00402A" stroke="#FFFEFF" stroke-width="0.5" stroke-linejoin="round"/>
<path d="M39.1909 45.2899L47.3922 44.7533C47.3922 51.7332 40.8485 56.9846 36.6159 56.7839C37.5287 59.7613 37.472 64.6919 38.9825 67.4446C40.6774 70.5387 43.0603 67.4119 46.1293 73.3678C44.5861 73.9283 41.9851 73.3208 40.0372 72.9315C35.9234 72.1081 36.7053 70.6314 35.7292 68.9562C33.548 65.2023 32.6177 61.2128 28.2236 59.3849C28.8933 57.1372 29.7199 54.7029 28.6249 52.0626L39.1909 45.2899Z" fill="#C66D00" stroke="#FFFEFF" stroke-width="0.5" stroke-linejoin="round"/>
<path d="M22.335 53.4449C19.2812 53.8179 16.1611 53.1679 13.1466 53.7208C11.5303 57.1279 9.13851 60.0639 7.44151 61.1033C5.12832 61.666 2.67662 63.207 0.25 60.776C0.791914 59.6311 1.6362 58.6559 2.69177 57.9558C3.74734 57.2556 4.97419 56.8569 6.23973 56.8029C7.82112 54.9227 8.98469 50.2843 8.97705 47.3789C12.6971 47.7061 15.5601 46.3287 17.9529 45.3558L22.335 53.4449Z" fill="#E3850D" stroke="#FFFEFF" stroke-width="0.5" stroke-linejoin="round"/>
<path d="M63.2267 54.0535C63.0315 56.1595 60.1872 59.2242 59.1304 61.0455C57.928 63.0377 56.9492 65.1565 56.2119 67.3635C55.852 68.5151 55.6764 68.2447 55.5815 69.4084C55.5815 70.5775 59.0715 69.5872 60.9888 72.9888C57.3308 74.399 51.9759 72.9049 51.9759 72.9049C51.2855 72.0167 50.922 70.9179 50.9464 69.7933C51.7098 64.2312 52.398 58.9613 51.7425 53.325C51.4349 50.6727 49.8884 46.573 49.125 44.0166L63.2267 54.0535Z" fill="#C66D00" stroke="#FFFEFF" stroke-width="0.5" stroke-linejoin="round"/>
<path d="M53.2791 26.3256C43.1495 33.6458 44.3262 28.2057 37.3375 27.0889C31.1494 26.1008 27.0596 29.7065 22.8324 33.7417C20.8279 35.6547 19.2694 38.3539 16.9071 39.8263C17.3537 39.9979 17.7886 40.1983 18.2093 40.4261C17.758 41.0429 17.1555 41.5332 16.4598 41.8497C15.7641 42.1662 14.9988 42.2983 14.2373 42.2333C15.0804 42.9673 15.919 43.8016 16.7261 44.5138C16.2647 44.4636 15.7085 44.7166 15.2068 44.6773C16.8623 48.8435 18.5877 52.6301 23.1748 54.037C27.9343 55.4941 31.3294 53.784 35.3963 51.5133C37.5092 50.308 39.8274 49.5055 42.2333 49.1467C42.0021 49.5066 71.3309 45.6818 72.102 45.5029L53.2791 26.3256Z" fill="#E3850D" stroke="#FFFEFF" stroke-width="0.5" stroke-linejoin="round"/>
<path d="M62.3137 44.1766C60.1772 43.5386 52.8843 41.0323 52.8843 41.0323C54.2388 44.6139 53.8942 49.8489 53.0162 53.4381C54.0496 52.6335 55.2505 52.0711 56.5302 51.7923C56.6164 51.7923 56.6164 51.7847 56.5302 51.7825C55.9849 52.0955 55.5487 52.631 55.071 52.9757C59.9242 53.1174 64.2518 56.2115 68.3612 58.4745C70.5221 59.6436 72.6117 60.9398 74.6192 62.3561C77.4483 64.3759 77.5551 64.3661 77.7983 67.5474C77.987 70.0166 80.2772 72.7114 82.9678 72.6864C83.0845 61.2196 72.2645 46.7373 70.7878 44.5386C70.7878 44.5386 68.6895 46.0775 62.3137 44.1766Z" fill="#E3850D" stroke="#FFFEFF" stroke-width="0.5" stroke-linejoin="round"/>
<path d="M62.1851 16.1687C59.6538 23.0396 55.8595 22.0799 53.2812 26.3256C56.1496 35.4399 69.7135 41.0304 72.6418 47.2163C75.2069 43.9565 77.0534 42.4373 77.9466 38.209C78.0556 38.8274 78.4461 39.5842 78.565 40.3258C80.2794 36.9384 80.0068 31.085 79.5106 27.3475C79.9657 27.9387 80.3888 28.554 80.7779 29.1906C80.7543 25.2259 80.1933 21.2827 79.1103 17.4687C78.3817 14.8283 62.8297 14.4117 62.1851 16.1687Z" fill="#00402A" stroke="#FFFEFF" stroke-width="0.5" stroke-linejoin="round"/>
<path d="M77.6811 4.22525L74.4158 0.25C73.5022 1.13045 72.6873 2.10795 71.9858 3.16519C73.071 3.57526 75.1672 5.50565 76.1597 6.13602L77.6811 4.22525Z" fill="#00402A" stroke="#FFFEFF" stroke-width="0.5" stroke-linejoin="round"/>
<path d="M74.416 0.25C74.3069 1.94482 75.1903 3.50107 75.5066 5.14572C76.5917 4.73221 77.6531 4.2589 78.6858 3.72793C78.4498 2.92136 78.0114 2.18855 77.4124 1.59909C76.8134 1.00964 76.0736 0.583107 75.2634 0.3601C75.054 0.30666 74.416 0.25 74.416 0.25Z" fill="#C66D00" stroke="#FFFEFF" stroke-width="0.5" stroke-linejoin="round"/>
<path d="M64.5317 4.22525L67.7948 0.25C68.7094 1.13007 69.525 2.10761 70.2268 3.16519C69.1362 3.57526 67.0434 5.50565 66.0532 6.13602L64.5317 4.22525Z" fill="#00402A" stroke="#FFFEFF" stroke-width="0.5" stroke-linejoin="round"/>
<path d="M67.795 0.250122C67.904 1.94494 67.0239 3.50119 66.7044 5.14584C65.6197 4.7321 64.5588 4.2588 63.5264 3.72806C63.7618 2.92137 64.1997 2.18839 64.7986 1.59888C65.3974 1.00936 66.1373 0.582918 66.9476 0.360222C67.1526 0.306782 67.795 0.250122 67.795 0.250122Z" fill="#C66D00" stroke="#FFFEFF" stroke-width="0.5" stroke-linejoin="round"/>
<path d="M63.2844 10.1013C62.9441 10.3674 62.4926 10.5288 62.1425 10.7938C62.4184 8.6726 66.4287 4.62531 68.5248 4.06909L71.1924 21.9879L73.8579 4.06909C75.9552 4.62531 79.9654 8.6726 80.238 10.7938C79.8901 10.5288 79.4386 10.3674 79.0961 10.1013C81.7791 12.8278 81.7583 16.0321 81.2774 19.6006C81.3427 19.1599 81.2799 18.7097 81.0966 18.3037C80.9133 17.8976 80.6172 17.5527 80.2435 17.3102C80.4616 19.2733 78.8802 20.6181 78.228 22.3271C78.3343 21.6765 78.3276 21.0124 78.2083 20.364C77.3761 21.6949 76.3266 22.8768 75.1034 23.8605C75.1753 23.5213 75.2284 23.1783 75.2626 22.8331C74.0034 23.8048 72.6607 24.6632 71.2503 25.3983L71.2655 25.4811C71.2404 25.468 71.2153 25.4506 71.1903 25.4365C71.163 25.4506 71.1391 25.468 71.114 25.4811C71.0859 25.4376 71.0618 25.3916 71.0419 25.3437C69.6593 24.6293 68.3451 23.7896 67.1158 22.8353C67.1482 23.1805 67.2005 23.5236 67.2727 23.8627C66.0507 22.8784 65.002 21.6965 64.17 20.3661C64.0512 21.0146 64.0446 21.6786 64.1504 22.3293C63.496 20.6247 61.9178 19.2755 62.136 17.3124C61.7621 17.5549 61.4658 17.8997 61.2823 18.3057C61.0988 18.7118 61.0359 19.162 61.101 19.6028C60.6266 16.0365 60.6047 12.8355 63.2844 10.1013Z" fill="#C66D00" stroke="#FFFEFF" stroke-width="0.5" stroke-linejoin="round"/>
<path d="M64.8647 11.2323C64.8647 15.7344 67.6491 22.6325 71.0965 22.6325C74.5439 22.6325 77.349 15.7344 77.349 11.2323C77.349 6.73025 74.5549 3.08325 71.1064 3.08325C67.6578 3.08325 64.8647 6.73134 64.8647 11.2323Z" fill="#00402A" stroke="#FFFEFF" stroke-width="0.5" stroke-linejoin="round"/>
<path d="M64.8647 11.2324C64.8647 15.7345 67.6491 22.6327 71.0965 22.6327C74.5439 22.6327 77.349 15.7345 77.349 11.2324C77.349 6.73039 73.4981 2.6166 71.1064 5.00941C69.7289 2.42901 64.8647 6.73148 64.8647 11.2324Z" fill="#00402A" stroke="#FFFEFF" stroke-width="0.5" stroke-linejoin="round"/>
<path d="M72.5097 6.12085C73.4158 6.81539 74.4157 6.67469 74.4157 7.4063C73.937 6.96253 73.5598 7.42814 72.0933 6.7118L72.5097 6.12085Z" fill="#00402A" stroke="#FFFEFF" stroke-width="0.5" stroke-linejoin="round"/>
<path d="M68.5753 6.12085C69.4803 6.81539 70.48 6.67469 70.48 7.4063C70.0014 6.96253 69.6241 7.42814 68.1587 6.7118L68.5753 6.12085Z" fill="#00402A" stroke="#FFFEFF" stroke-width="0.5" stroke-linejoin="round"/>
<path d="M70.0374 11.9303C69.274 12.1135 68.5106 13.2925 68.0874 13.1562C67.9031 13.0984 67.8562 12.4091 67.6511 12.8453C66.5267 15.2927 68.7723 17.8927 70.0876 17.5851C70.9415 17.3866 71.7802 15.1858 71.5391 14.3242C71.341 13.6238 71.1953 12.9097 71.103 12.1877L70.0374 11.9303Z" fill="#00402A" stroke="#FFFEFF" stroke-width="0.5" stroke-linejoin="round"/>
<path d="M72.696 11.9303C73.4594 12.1135 74.2228 13.2925 74.646 13.1562C74.8303 13.0984 74.8772 12.4091 75.0823 12.8453C76.2089 15.2927 73.9633 17.8927 72.6458 17.5851C71.7951 17.3866 70.9565 15.1858 71.1964 14.3242C71.3913 13.6234 71.535 12.9094 71.6262 12.1877L72.696 11.9303Z" fill="#00402A" stroke="#FFFEFF" stroke-width="0.5" stroke-linejoin="round"/>
<path d="M71.3538 12.828C72.0169 12.828 72.7137 11.937 72.6963 11.9326C70.8128 11.2782 71.9721 8.87891 71.2469 8.87891C70.7637 8.87891 72.0244 11.2117 70.0384 11.9326C70.021 11.9381 70.671 12.828 71.3538 12.828Z" fill="#00402A" stroke="#FFFEFF" stroke-width="0.5" stroke-linejoin="round"/>
<path d="M73.1476 12.6873C71.9945 12.237 70.713 12.2441 69.5649 12.707C69.4733 12.7615 68.8397 13.1431 69.927 13.5925C70.1992 13.7085 70.4342 13.8971 70.6064 14.1378C70.6697 14.287 70.7758 14.4141 70.9112 14.5032C71.0467 14.5922 71.2055 14.6391 71.3676 14.6381C71.5297 14.637 71.688 14.5881 71.8223 14.4973C71.9566 14.4065 72.0609 14.278 72.1223 14.128C72.2915 13.885 72.5254 13.6942 72.7974 13.5772C73.8793 13.1083 73.237 12.7386 73.1476 12.6873Z" fill="#00402A" stroke="#FFFEFF" stroke-width="0.5" stroke-linejoin="round"/>
</svg>
