<svg width="95" height="96" viewBox="0 0 95 96" fill="none" xmlns="http://www.w3.org/2000/svg">
<path d="M81.4226 61.4391C88.7138 42.6005 79.3528 21.4181 60.5142 14.1269C41.6756 6.83562 20.4932 16.1966 13.202 35.0352C5.91072 53.8738 15.2717 75.0562 34.1103 82.3475C52.9489 89.6387 74.1313 80.2777 81.4226 61.4391Z" fill="#00402A" stroke="#FFFEFF" stroke-width="0.5" stroke-linejoin="round"/>
<path d="M78.6028 29.2899C78.0271 29.6885 77.4017 30.0101 76.7427 30.2465C76.9256 30.4472 77.0465 30.6966 77.0907 30.9646C77.0982 31.0308 77.0921 31.0978 77.0727 31.1615C77.0533 31.2252 77.021 31.2843 76.9778 31.335C76.9347 31.3858 76.8816 31.4271 76.8218 31.4565C76.762 31.4859 76.6968 31.5027 76.6303 31.5059C76.5295 31.4783 76.4361 31.4289 76.3566 31.3612C76.277 31.2935 76.2133 31.2092 76.17 31.1141C75.3553 29.8405 74.3144 28.4329 72.8049 28.342C72.6559 28.3221 72.5044 28.3499 72.3722 28.4214C72.1593 28.5594 72.1205 28.8478 72.0776 29.098C71.9542 29.7693 71.6605 30.3977 71.2245 30.9228C70.7885 31.448 70.225 31.8524 69.5879 32.0972C69.3213 32.1507 69.0856 32.305 68.93 32.528C68.8728 32.6928 68.8624 32.8701 68.8997 33.0405C69.231 35.8381 68.8441 38.674 67.7755 41.2805C67.5823 41.747 67.3665 42.2315 67.4213 42.7328C67.5358 43.7648 68.7226 44.3648 69.0154 45.361C69.325 46.4131 68.5436 47.5311 68.7604 48.6063C68.8957 49.2815 69.3981 49.8138 69.8801 50.306C70.3336 50.7707 70.7874 51.2356 71.2415 51.7006C71.575 52.08 71.9659 52.4047 72.4001 52.6628C73.583 53.2844 75.0203 52.8388 76.2766 52.384C77.3837 51.9835 78.6382 51.4294 78.9422 50.2923C79.9431 48.9182 81.0041 51.987 81.0054 52.598C81.0091 53.6989 81.2176 54.7896 81.6203 55.8143C81.8115 56.2998 82.0698 56.7461 82.2977 57.2139C82.3853 57.3932 82.502 57.5566 82.6432 57.6976C84.8147 49.6395 84.1528 41.0802 80.7685 33.4517C80.1356 32.0199 79.4123 30.6298 78.6028 29.2899Z" fill="#5BD38C" stroke="#FFFEFF" stroke-width="0.5" stroke-linejoin="round"/>
<path d="M41.458 83.1326C41.5204 82.8324 41.6512 82.5506 41.8402 82.3091C42.0293 82.0677 42.2714 81.873 42.5479 81.7404C43.1019 81.4802 43.6822 81.2803 44.2789 81.1443C45.6663 80.7394 47.0214 80.0653 47.9406 78.9512C48.6513 78.0901 49.1015 76.9738 50.0407 76.3699C50.8061 75.878 51.7651 75.8157 52.6146 75.4891C53.7506 75.0525 54.6437 74.1643 55.5008 73.3003C55.6829 73.1464 55.8204 72.9466 55.8992 72.7216C55.9317 72.5455 55.9251 72.3644 55.8798 72.1911C55.6852 71.2037 55.3463 70.011 56.0815 69.3222C56.4158 69.0089 56.8925 68.9042 57.2786 68.6574C58.1801 68.0803 58.4084 66.883 58.5264 65.8191C58.5821 65.3197 58.6228 64.7799 58.3645 64.3492C58.2478 64.1691 58.1016 64.01 57.932 63.8785C57.3501 63.4017 56.669 63.061 55.9384 62.8814C55.2079 62.7018 54.4464 62.6879 53.7098 62.8405C53.2868 62.9313 52.8345 63.0756 52.437 62.9057C51.9824 62.7111 51.7806 62.1848 51.4193 61.8463C50.6551 61.1281 49.3896 61.3919 48.4552 60.9163C47.8572 60.6118 47.4557 60.0374 47.0333 59.5146C46.395 58.7248 45.6625 58.0161 44.8522 57.4041C44.6076 57.1912 44.3131 57.0436 43.9962 56.9753C43.5263 56.9099 43.0767 57.1694 42.6083 57.2443C41.7682 57.3788 40.9416 56.9075 40.3274 56.3174C39.7131 55.7274 39.231 55.0089 38.5863 54.4536C38.0649 54.0108 37.4543 53.6854 36.7961 53.4993C36.1379 53.3132 35.4473 53.2708 34.7712 53.3751C34.3392 53.4788 33.8989 53.5443 33.4554 53.5708C32.9458 53.5151 32.4425 53.4116 31.9523 53.2615C31.2785 53.1263 30.5824 53.1511 29.9199 53.334C29.2574 53.5169 28.6471 53.8527 28.1381 54.3144C27.62 53.727 26.8707 53.2535 26.1205 53.4809C25.9287 53.573 25.7237 53.6349 25.513 53.6643C25.2707 53.631 25.05 53.507 24.8956 53.3174C24.2428 52.6679 23.7073 51.6585 24.1652 50.8597C24.3221 50.5858 24.5767 50.3809 24.7554 50.1207C24.8566 49.9992 24.9178 49.8493 24.9306 49.6917C24.9434 49.534 24.9072 49.3762 24.8268 49.2399C24.7204 49.1268 24.5886 49.0406 24.4423 48.9885L21.9648 47.88C21.8451 47.84 21.7402 47.7649 21.6637 47.6645C21.6312 47.5946 21.6144 47.5184 21.6144 47.4413C21.6145 47.3642 21.6314 47.288 21.664 47.2181C21.8386 46.73 22.2407 46.3591 22.4813 45.8999C22.7219 45.4407 22.7277 44.7603 22.2694 44.5169C21.8931 44.3165 21.4292 44.5289 21.096 44.7953C20.7629 45.0617 20.4515 45.3974 20.0331 45.48C19.8038 45.5104 19.5705 45.4772 19.3587 45.3839C19.147 45.2907 18.965 45.141 18.8326 44.9512C18.5735 44.5664 18.4258 44.1174 18.4061 43.6539C18.3321 42.5188 18.6266 41.3902 19.2457 40.4359C19.8647 39.4817 20.7754 38.7528 21.8421 38.3578C22.0403 38.2746 22.2569 38.2451 22.4701 38.2722C22.6625 38.31 22.8398 38.4298 23.0352 38.4217C23.2369 38.3742 23.4328 38.3048 23.6195 38.2148C23.8353 38.1767 24.0573 38.196 24.2633 38.2706C24.8376 38.4306 25.3978 38.6375 25.9383 38.8891C26.2634 39.0402 26.6235 39.2684 26.6468 39.6263C26.6322 39.8263 26.5854 40.0226 26.5081 40.2076C26.3684 40.7331 26.5872 41.2802 26.8016 41.78C26.8185 41.8391 26.8469 41.8944 26.8852 41.9425C26.9234 41.9906 26.9709 42.0307 27.0247 42.0604C27.2154 42.1325 27.3974 41.939 27.4963 41.7598C27.7474 41.3035 27.8935 40.7968 27.924 40.2769C27.9545 39.7569 27.8688 39.2366 27.6729 38.754C27.5614 38.4851 27.4132 38.1906 27.5153 37.9179C27.6028 37.741 27.7412 37.5943 27.9127 37.4966C28.8846 36.815 29.8858 36.1781 30.9162 35.5857C31.1121 35.5 31.2747 35.3526 31.3794 35.1661C31.4263 34.9784 31.4429 34.7845 31.4283 34.5916C31.464 34.0884 31.8582 33.6836 32.2784 33.4051C32.7225 33.1664 33.1429 32.8858 33.5337 32.5672C33.9528 32.1554 34.1726 31.5853 34.5249 31.1157C35.199 30.2149 36.2931 29.7507 37.3348 29.326C37.8562 29.8511 38.7422 29.7483 39.4121 29.4341C40.0819 29.12 40.6823 28.6348 41.4044 28.4738C41.1763 27.9834 40.5599 27.9333 40.05 28.1138C39.7072 28.2346 39.3252 28.4341 39.0066 28.2595C38.9294 28.2124 38.8627 28.15 38.8107 28.0759C38.7588 28.0019 38.7227 27.918 38.7047 27.8293C38.6716 27.6252 38.6915 27.416 38.7625 27.2217C38.8335 27.0275 38.9531 26.8547 39.11 26.7199C39.4265 26.4544 39.7868 26.246 40.1747 26.1038L42.5766 25.0639C42.2479 25.8154 41.6814 26.4381 40.9643 26.8363C40.9454 27.1898 41.3419 27.4317 41.6958 27.4491C42.0496 27.4666 42.4001 27.3471 42.7533 27.3728C42.9873 27.3901 43.2135 27.4704 43.4466 27.4822C43.5632 27.4973 43.6816 27.4789 43.7881 27.4294C43.8947 27.3798 43.985 27.301 44.0485 27.2021C44.0898 27.0929 44.0958 26.9736 44.0656 26.8608C44.0355 26.7481 43.9707 26.6477 43.8805 26.5737C43.6969 26.4295 43.4844 26.3263 43.2576 26.2712C43.3444 25.8549 43.4056 25.4336 43.4408 25.0097C43.4815 24.5172 43.4349 23.9238 43.0062 23.6787C42.6669 23.485 42.1922 23.5873 41.9036 23.3235C41.8121 23.2293 41.738 23.1195 41.6848 22.9994C41.2591 22.1704 40.8332 21.3414 40.4073 20.5124C40.1472 20.5672 39.916 20.7151 39.7573 20.9283C39.7132 21.0044 39.6536 21.0703 39.5823 21.1218C39.5202 21.1522 39.4514 21.1664 39.3823 21.1632C39.1762 21.1634 38.9728 21.1161 38.788 21.025C38.6031 20.9339 38.4417 20.8015 38.3163 20.6379C38.2132 20.4679 38.0967 20.3064 37.968 20.1549C37.8071 20.0223 37.6082 19.9443 37.4001 19.9322C37.1919 19.92 36.9853 19.9744 36.8101 20.0873C36.4631 20.323 36.2071 20.67 36.0845 21.0711C36.1168 21.1086 36.1386 21.154 36.1474 21.2028C36.1563 21.2515 36.152 21.3017 36.135 21.3482C36.1179 21.3946 36.0888 21.4357 36.0505 21.4672C36.0123 21.4986 35.9663 21.5193 35.9174 21.527C35.5608 21.7291 35.5765 22.263 35.3455 22.6013C35.21 22.7663 35.0285 22.8872 34.8239 22.9485C34.6194 23.0098 34.4013 23.0086 34.1974 22.9453C33.7921 22.8113 33.4181 22.5962 33.0984 22.3133L32.3107 21.7053C32.0179 21.4791 31.6995 21.2076 31.6766 20.8369C31.6539 20.4581 31.9537 20.1435 32.2398 19.8957C34.1613 18.2406 36.5199 17.1758 39.0321 16.8293C39.1428 17.0056 39.2539 17.1823 39.3653 17.3595C39.0895 17.6952 38.7278 17.9499 38.3188 18.0966C38.229 18.4492 38.5292 18.7742 38.8161 18.9988C39.3022 19.3788 39.8908 19.7216 40.5007 19.6299C41.1107 19.5382 41.6215 18.8002 41.2806 18.2859L42.115 17.9279C42.2069 17.8996 42.2873 17.8425 42.3443 17.7651C42.4419 17.5933 42.2818 17.3901 42.1237 17.2714C41.8096 17.0362 41.4523 16.8651 41.072 16.7681C41.1552 16.504 41.1373 16.2184 41.0216 15.9669C40.906 15.7153 40.7009 15.5158 40.4463 15.407C41.0979 14.7593 41.836 14.2048 42.6395 13.7593C42.7071 14.223 43.1718 14.5121 43.6043 14.6914C44.0367 14.8707 44.523 15.033 44.7698 15.4316C45.1497 16.0487 44.7546 16.8934 45.0388 17.5602C45.2769 18.119 45.9185 18.3917 46.2633 18.8925C46.3692 19.1095 46.5188 19.3022 46.7029 19.4584C47.0372 19.6624 47.4627 19.4605 47.8004 19.2621C48.0377 19.1442 48.2463 18.9759 48.4117 18.769C48.4921 18.6638 48.5368 18.5357 48.5394 18.4034C48.5421 18.2711 48.5025 18.1414 48.4265 18.033L51.7847 16.1804C51.4856 15.3384 51.0042 14.5729 50.3749 13.9385C49.7456 13.3041 48.984 12.8165 48.1445 12.5105C47.9406 12.0672 47.3224 12.052 46.8418 12.1341C46.1034 12.2604 45.3784 12.4554 44.6762 12.7165C44.472 12.8246 44.2344 12.8513 44.0112 12.7914C43.8618 12.7016 43.7328 12.5816 43.6325 12.4391C43.3905 12.1891 43.0792 12.0172 42.7388 11.9455C33.1071 13.1683 24.3533 18.1607 18.397 25.828C18.0534 28.5253 16.4756 30.9603 15.9324 33.6432C15.7019 35.0118 15.6074 36.3998 15.6503 37.7869L15.6406 42.4623C15.6128 43.0711 15.6654 43.6808 15.797 44.2758C16.1843 45.7192 17.4351 46.7384 18.6152 47.6548L19.5718 48.3973C20.3555 49.0061 21.1402 49.6155 21.8823 50.2746C22.1379 50.4691 22.3404 50.725 22.4709 51.0185C22.6011 51.3882 22.5043 51.8065 22.6239 52.1793C22.7608 52.5058 22.9782 52.7921 23.2559 53.0116C23.9839 53.6931 24.7119 54.3747 25.4399 55.0563C25.603 55.2087 25.8453 55.3685 26.0268 55.2391C26.2014 55.1144 26.1637 54.8101 26.3446 54.6948C26.5607 54.5582 26.8039 54.8189 26.9259 55.0427C27.1407 55.4362 27.3557 55.83 27.5707 56.2239C27.7394 56.4889 27.8521 56.7856 27.9019 57.0957C27.9074 57.4658 27.8157 57.831 27.6359 58.1546C27.1458 59.2084 26.5103 60.1944 26.0977 61.2812C25.6852 62.368 25.5141 63.6119 25.9756 64.6785C27.1219 67.3286 29.7579 69.2571 32.1896 70.8136C32.6505 71.0817 33.0856 71.3917 33.4896 71.7397C34.627 72.8077 34.9517 74.4806 35.0024 76.0402C35.0295 76.8715 34.9993 77.7246 35.2737 78.5096C35.8192 80.0699 37.4695 81.0924 37.8542 82.6997C37.8904 83.0036 37.9856 83.2975 38.1345 83.5648C38.1675 83.606 38.2041 83.6442 38.2439 83.6789C39.4616 83.9908 40.6945 84.2399 41.9377 84.4253C41.6292 84.0651 41.4592 83.6068 41.458 83.1326Z" fill="#5BD38C" stroke="#FFFEFF" stroke-width="0.5" stroke-linejoin="round"/>
</svg>
