<?xml version="1.0" encoding="UTF-8"?>
<svg id="Layer_1" xmlns="http://www.w3.org/2000/svg" version="1.1" viewBox="0 0 1280 652">
  <!-- Generator: Adobe Illustrator 29.0.0, SVG Export Plug-In . SVG Version: 2.1.0 Build 186)  -->
  <defs>
    <style>
      .st0 {
        stroke-miterlimit: 10;
        stroke-width: .5px;
      }

      .st0, .st1, .st2 {
        fill: #dcebe1;
      }

      .st0, .st3, .st2 {
        stroke: #fff;
      }

      .st3 {
        fill: none;
      }

      .st3, .st2 {
        stroke-width: .7px;
      }
    </style>
  </defs>
  <g id="map">
    <g id="bg">
      <path id="Shape" class="st2" d="M714.3,521.5l-.5,2.1-2.9-.5-1.1-3,2.1-2.5,1.7.5v-6.5c0,0-2.1-7.4-2.1-7.4l-7.6-1-14.9,14.2-7.3-1-5,5.1h-3.7c0,0,0-4.5,0-4.5l-2.7-3.5v14.7l-3.2,1.7-7.2-2.9-2.4,1.9,6.7,13.1-1.4,3.7,6.5,7.6,20.1-2.4,15.6-8.8,10.5-13.4,1.9-7.2h-3.1,0Z"/>
      <path id="Shape1" class="st2" d="M147.9,110.7l69.1,9,89.5-3-5.1,26.5-40.1,34.6,30.3,13.7,20,18.3,17-54.6,23.9,19.2,11.1-7.3,34.1,47.4,7.2,17.9-20-1.7,3-11.5-25.1,6,18.8,12.4-14.1,10.2-15.4-12.8-9,10.2-11.7-.4-30.4,15.9-2.3-20.5-42.9-13.9h-105.7l-18.5-31.6-12.8-16.2-26.4-11.1v-56.6h55.5ZM359.3,157.2l15.4-32-49-38-43.5-4.7-3,22.2,34.1,4.3,23.4,15.4s-15.4,14.9-16.6,14.9l39.2,17.9ZM258.3,82.5l-3.4,14.5-1.7,12.8,12.8-.4-4.3-9.4s9.4-15.8,9.8-17.1l-13.2-.4ZM237,85.1l-5.1,9,17.9,3.8-1.7-14.9-11.1,2.1h0ZM190.5,87.2l-14.5-6.8-21.3.4-10.2,12.8,29.4,7.7,19.2,11.5,40.5-2.6-13.6-23h-29.5ZM172.6,65.9l8.1-10.7-22.2,3.8,14.1,6.8h0ZM182.8,57.3l-3,13.2,12.4,4.7,23.9-3.8-1.7-9.8-22.6,1.7-9-6h0ZM223.8,60.8l16.6,11.5,4.7-13.2s-21.3,1.7-21.3,1.7ZM261.7,74.4l-3-5.6-7.7,3,10.7,2.6ZM254,58.2l8.5,4.7,6.8,11.5,38.4,2.6,5.5-7.3-10.7-5.1-20.9,3.4-11.9-8.5-15.8-1.3h.1ZM278.3,58.2l33.2,3,62.7-54.2-50.3-3.4-49,11.5-25.2,14.9,16.6,16.6,11.9,11.5h0ZM224.6,46.7l15.4,5.1-.8-8.1-17-5.6,2.6,8.5h-.2ZM246.8,42.4l2.1,6.8,10.2.8-12.4-7.7h0ZM187.9,53.5l10.7-.8,6-6.8-10.2-.8-6.4,8.5h-.1Z"/>
      <polygon id="Path" class="st2" points="399.9 82.5 407.9 123.5 418.1 159.9 440.9 169.6 466.4 130.9 515.9 103.6 523.8 52.9 552.2 16 498.3 0 384.6 13.1 343.1 47.2 349.4 60.9 384.6 66 399.9 82.5"/>
      <polygon id="Path1" class="st2" points="274.8 371.9 277 369.3 281.1 364.5 279 364.1 277.6 363.9 278.3 356.2 271.5 357.1 271.8 362.2 266.9 368.7 274.8 371.9"/>
      <polygon id="Path2" class="st2" points="277.6 363.9 278.3 356.2 281.5 354.8 281.2 360.8 279 364.1 277.6 363.9"/>
      <polygon id="Path3" class="st2" points="274.8 371.9 280 373.7 282.4 374 283.4 371.6 280.5 371.1 277 369.3 274.8 371.9"/>
      <polygon id="Path4" class="st2" points="282.8 372.9 284.1 373.5 284.5 374.5 286.7 373.6 293.3 368.1 299.2 367 292.1 363.4 281.1 364.5 277 369.3 280.5 371.1 283.3 371.7 282.8 372.9"/>
      <polygon id="Path5" class="st2" points="297.9 382.3 299.2 367 293.3 368.1 286.7 373.6 284.5 374.5 283.5 375 290.4 381.7 294.9 382 297.1 383 297.9 382.3"/>
      <polygon id="Path6" class="st2" points="300.1 391.7 301.4 386.9 297.9 382.3 297.1 383 294.9 382 290.4 381.7 290.9 386 292.8 385.5 300.1 391.7"/>
      <polygon id="Path7" class="st2" points="320.3 390.4 318.7 395.5 315.6 390.1 312.3 389.9 309.7 392 309.7 394.8 306.7 394.4 303.4 391.9 300.1 391.7 301.4 386.9 305.5 389.6 307.8 389.9 312.7 387.4 317.3 388 320.3 390.4"/>
      <polygon id="Path8" class="st2" points="315 416.5 321 407.9 318.7 395.5 320.3 390.4 326.3 387.7 329 381.7 342.2 376.9 342.4 378.8 337.9 381.9 335.2 388.1 338.3 394.4 354.9 399.4 356.9 415.1 347.7 415.8 347.4 437 344.1 435.3 345.5 430.9 335.8 429.5 327.6 422.1 320.6 420.4 315 416.5"/>
      <polygon id="Path9" class="st2" points="380.8 403 373.4 407 367 407.1 369.4 414 363.4 418.8 356.9 415.1 354.9 399.4 338.3 394.4 335.2 388.1 337.9 381.9 342.4 378.8 341.5 384.2 347.7 379.7 362.6 384.1 378.1 387.1 382.5 391.2 379.8 397.7 380.8 403"/>
      <polygon id="Path10" class="st2" points="393.2 400.2 390.7 406 395.1 414.5 385.5 417 383.3 410.1 383.1 403.6 380.8 403 379.8 397.7 382.5 391.2 393.2 400.2"/>
      <polygon id="Path11" class="st2" points="402.3 413.4 395.1 414.5 390.7 406 393.2 400.2 404.4 401 403.3 406.7 403.9 410.1 402.3 413.4"/>
      <polygon id="Path12" class="st2" points="413.3 406.6 409.4 413.6 402.3 413.4 403.9 410.1 403.3 406.7 404.4 401 413.3 406.6"/>
      <polygon id="Path13" class="st2" points="388.7 549.3 392 534.3 407.6 547.7 400.7 553.9 388.7 549.3"/>
      <polygon id="Path14" class="st2" points="373.2 503.7 376.6 494.3 385.2 492.5 390.1 494.9 390.7 503.7 398 504.6 399.2 509.1 403.5 511.1 402.5 517 398.4 524.2 388.1 523.5 391.5 515.6 373.2 503.7"/>
      <polygon id="Path15" class="st2" points="348.8 485.6 350.7 467.1 348.1 461.5 362.9 457.9 365.4 465 380.5 472.6 383.6 480.3 391.3 485.8 390.1 494.9 385.2 492.5 376.6 494.3 373.2 503.7 360.9 502.8 356.6 506.2 354.4 505.9 351.8 497.4 348.8 485.6"/>
      <polygon id="Path16" class="st2" points="310 434.3 314.3 439.9 318.8 432.6 327.7 425.8 327.6 422.1 320.6 420.4 315 416.5 310.6 419.5 308 430 310 434.3"/>
      <polygon id="Path17" class="st2" points="345.6 488.8 324.2 473.1 324.5 469.7 309.7 444.7 305.9 438.6 310 434.3 314.3 439.9 318.8 432.6 327.7 425.8 327.6 422.1 335.8 429.5 345.5 430.9 344.1 435.3 347.4 437 338.1 439.7 333.4 451.1 348.1 461.5 350.7 467.1 348.8 485.6 345.6 488.8"/>
      <path id="Shape2" class="st2" d="M339.3,633.2l-4.7-13.2,3.8-9.2,1.7-13-.4-15.2,6.8-32.4-.4-10.5,6.8-26.5,3.7-7.2,4.3-3.4,12.3.9,18.3,12-3.4,7.9,10.3.7,4.1-7.3,3.4,4-13.9,13.4-3.3,15,4.9,12.1-3,6-15.6,3.8-1.3,7.7-7.7.8-1.3,7.3-7.7,14.5,2.6,8.5-7.7,25-12.8-1.8h.2ZM351.8,637.1l.2,10.2,14.3.4-14.5-10.7h0Z"/>
      <polygon id="Path18" class="st2" points="355.2 651.6 356.7 648.8 352 647.3 351.8 637.1 352 635 339.3 633.2 334.6 620 338.4 610.8 340.1 597.8 339.7 582.7 346.5 550.2 346.1 539.8 352.9 513.3 356.6 506.2 354.4 505.8 348.8 485.6 345.6 488.8 344.8 518.7 341 538.3 340.8 547 334.6 563.3 333.1 582.2 332.2 591.8 328 604.9 328.4 625.8 334.2 641.4 344.6 648.4 355.2 651.6"/>
      <polygon id="Path19" class="st2" points="642.3 219.9 651.7 215.4 666.2 222.5 659.9 227.6 652.8 226.2 649.7 227.9 642.3 219.9"/>
      <polygon id="Path20" class="st2" points="650 200.6 651.7 215.4 666.2 222.5 679.3 224.8 684.7 217.1 682.9 211.4 682.7 200 679.3 198 669.9 197.2 665.3 198.3 664.2 196 650 200.6"/>
      <polygon id="Path21" class="st2" points="619.4 223 619.4 221 620.4 219.7 621.7 222.2 621.7 223.3 619.4 223"/>
      <polygon id="Path22" class="st2" points="607.6 214.9 614.1 220.8 619.4 223 619.4 221 620.4 219.7 619.9 216.4 619.1 215.6 619 214.5 614.4 213 610.6 213.3 607.6 214.9"/>
      <polygon id="Path23" class="st2" points="615.9 205.4 619.8 203.1 623.8 203.4 622.3 210.1 619.9 216.4 619.1 215.6 619 214.5 614.4 213 611.4 212.1 615.9 205.4"/>
      <path id="Shape3" class="st2" d="M629.8,196.2l-1.9-5.5,1.6-4.9,6.7-3.3v5.2c0,0,.7,1.6.7,1.6l-3.4,3.5-.5,3.9-3.3-.6h.1ZM634,193.6l1.4,1.3h1.6l.3-1.6-2.3-.6-.9,1h0ZM638.4,192.2l2.9,3.8,2.6-5.6-3.5.3-2,1.4h0ZM638.3,196.6l1.1.4h1c0-.1.3-.7.3-.7l-2.2-.6v.9h-.2ZM636.6,196.1l.5.2.6-1.3-1.1,1.1Z"/>
      <polygon id="Path24" class="st2" points="693.8 192.3 690.4 198.7 682.7 200 679.3 198 680.4 195.7 674.8 194 674.3 190.5 677.5 188.8 687.8 189.3 693.8 192.3"/>
      <path id="Path25" class="st2" d="M699.5,190.1l-5.6,2.2-6-3-10.3-.4-3.1,1.7v-3.4c0,0,1.6-3.2,1.8-3.3s3.1-1.4,3.1-1.4l3.5,3.5h2.3l1.2-1.3-.4-2.8,3.5-1,7.5,2.7,2.7,6.7h0l-.2-.2Z"/>
      <path id="Shape4" class="st2" d="M699.4,172.9l-2.4,3.9,1.1,3.8-1.3,2.8-7.5-2.7-3.5,1,.4-2.6-2.3-.4-1-4.2,7-2.4,9.4.7h0ZM681.2,177.8l-1.6-.2-2.4.8.8,1.8v.8c0,0,.8-1,.8-1l3.4-1.6-1-.6ZM679.7,176.9l.6-.5h.8v-.5l-1.1-.8-2.2.7,1.9,1.1h0Z"/>
      <polygon id="Path26" class="st2" points="712.7 209.5 709.1 210.4 707.7 213 688.5 210.3 682.9 211.4 682.7 200 690.4 198.7 693.8 192.3 699.5 190.1 708.9 192.4 712.8 200.3 715.2 202.1 715.1 204.3 712.2 205.4 712.7 209.5"/>
      <polygon id="Path27" class="st2" points="679.3 224.8 677.9 228.9 671.8 228.3 665.6 232 660.2 231 659.4 229.2 659.9 227.6 666.2 222.5 679.3 224.8"/>
      <polygon id="Path28" class="st2" points="635.8 236.3 633 235.6 632.9 233.3 644.2 232.9 645.2 230.2 652.8 226.2 659.9 227.6 659.4 229.2 660.2 231 656.7 236.4 652.3 238 647.8 238.1 641.8 235.6 635.8 236.3"/>
      <polygon id="Path29" class="st2" points="624 241 626.6 240.7 628.5 238.8 630.6 240.3 631.9 238.3 634.4 239 635.8 238 635.8 236.3 633 235.6 632.9 233.3 626 232.9 621.7 236.4 620 239.5 620.7 239.6 621.4 238.6 622.6 238.8 624 241"/>
      <polygon id="Path30" class="st2" points="648.2 242.8 647.4 241.8 647.8 238.1 652.3 238 656.7 236.4 657.7 237.9 654.8 239.9 653.3 242.9 648.2 242.8"/>
      <polygon id="Path31" class="st2" points="667 245.9 667.5 243.8 666.4 240.9 663.3 241.8 657.7 237.9 654.8 239.9 653.3 242.9 648.2 242.8 647.2 244.1 648.3 246 650.1 244.3 651.9 245.9 653.2 249.3 656.6 252.3 661.6 254.8 660.4 252.6 656.3 248.2 655.1 244.9 656.3 244.5 660.2 244.4 664.9 245.1 667 245.9"/>
      <polygon id="Path32" class="st2" points="662.2 255.2 661.6 254.8 660.4 252.6 656.3 248.2 655.1 244.9 656.3 244.5 660.2 244.4 664.9 245.1 667 245.9 667.7 246 667.4 247.9 668.2 250.1 667.5 252.2 664.9 254.6 664.8 256.7 662.2 255.2"/>
      <polygon id="Path33" class="st2" points="671.6 255.4 667.5 252.2 668.2 250.1 667.4 247.9 667.7 246 667 245.9 667.5 243.8 666.4 240.9 671.3 240 675.1 245.5 680 249 679.1 250.8 680.7 253.8 678.8 257.6 676.1 257.8 676.4 256.3 673.1 253.5 671.6 255.4"/>
      <polygon id="Path34" class="st2" points="670.7 256.6 670.7 255.9 671.6 255.4 667.5 252.2 664.9 254.6 664.8 256.7 665 257.2 665.6 257.2 668 259.7 668 257.8 669.3 256.4 670.7 256.6"/>
      <polygon id="Path35" class="st2" points="670.4 269.4 672.4 267.6 673.9 264.4 672.6 263.4 672.4 259.8 670.7 256.6 669.3 256.4 668 257.8 668 259.7 668.6 260.7 668.4 266.4 670.4 269.4"/>
      <polygon id="Path36" class="st2" points="673.8 258.6 676.1 257.8 676.4 256.3 673.1 253.5 671.6 255.4 670.7 255.9 670.7 256.6 672.4 259.8 673.8 258.6"/>
      <polygon id="Path37" class="st2" points="680.9 262.1 680.8 259.8 678.8 257.6 676.1 257.8 673.8 258.6 672.4 259.8 672.6 263.3 673.9 264.4 677.6 263 680.9 262.1 680.9 262.1"/>
      <polygon id="Path38" class="st2" points="680.7 231.3 677.9 228.9 671.8 228.3 665.6 232 660.2 231 656.7 236.4 657.7 237.9 663.3 241.8 666.4 240.9 671.3 240 674.5 239.3 678.8 232.9 680.7 231.3"/>
      <polygon id="Path39" class="st2" points="701.2 251.3 702.5 246.5 704.4 246.1 705.2 244.3 699.6 243.7 699.9 237.4 694.4 229.7 688.3 232.1 682.2 230.8 680.7 231.3 678.8 232.9 674.5 239.3 671.3 240 675.1 245.5 680 249 681.2 249.7 681.2 250.6 689.6 251.5 695 249.5 701.2 251.3"/>
      <polygon id="Path40" class="st2" points="699 259.2 697.7 257.1 701.2 251.3 695 249.5 689.6 251.5 681.2 250.6 681.2 249.7 680 249 679.1 250.8 680.7 253.8 678.8 257.6 680.8 259.8 680.9 262.1 685.9 261.3 689.7 262.5 693 260.5 695.5 258.9 699 259.2"/>
      <path id="Path41" class="st2" d="M516.4,139.9c.6.2,11.7,10.2,11.7,10.2l13.2-3.8,7.9-9.2-8.7-8.3-14.1,2.8-4.3,3.8-3.6-5.8-6.2,4.9,6,.6-1.9,4.7h0Z"/>
      <polygon id="Path42" class="st2" points="562.1 212.2 575.7 208.7 576.4 199.9 569.6 198.5 573.8 194.5 570.1 193.9 566.4 198.2 563.5 199.9 564.6 203.6 563 208.1 562.1 212.2"/>
      <polygon id="Path43" class="st2" points="639.8 175.7 638.6 174.5 636.1 172.6 624.1 180.8 617.7 177 616.6 157.8 631.8 148.1 654.4 118.1 680.7 105.3 707.4 103.6 710 107.3 705.7 110.8 695.7 108.3 688.6 115.2 672 113.2 668 116.5 663.8 117.1 657.2 123.6 651.3 131.5 648 144.2 641.9 150.4 642.3 159 642.9 167.3 639.8 175.7"/>
      <polygon id="Path44" class="st2" points="715 288.8 717.1 287.5 722.6 286.3 720.7 287.6 720.8 289.1 717.1 290.6 715.2 290.2 715 288.8"/>
      <polygon id="Path45" class="st2" points="706.4 238.9 703 238.3 701.8 241.3 700.9 243 699.6 243.7 699.9 237.4 694.4 229.7 698 229 703.1 231.3 706.4 238.9"/>
      <polygon id="Path46" class="st2" points="735.9 235.2 724.3 239 725.2 243.3 729.3 243.7 728.8 245.1 719.1 248 718.7 244.9 715.7 243.7 719.6 240.5 713.1 239.6 712.8 237.3 709.3 237.9 707.7 240.7 705.1 242 705.2 244.3 699.6 243.7 700.9 243 703 238.3 706.4 238.9 703.1 231.3 698 229 694.4 229.7 688.3 232.1 682.2 230.8 680.7 231.3 677.9 228.9 679.3 224.8 684.7 217.1 682.9 211.4 688.5 210.3 707.7 213 709.1 210.4 712.7 209.5 719.8 208.1 722 213.9 724.8 214.9 726.2 218.4 742.6 223.2 741.2 231.7 737.1 232.6 735.9 235.2"/>
      <path id="Shape5" class="st2" d="M683.5,286.6l6.3,1.2,3.1.2-.5,1.1-4.7.2-4.4-1.4.2-1.2h0ZM687.1,264.6l-.5.3v.5h.7l.3-.4-.5-.4h0ZM690.1,265.9l.3.3.3-.2-.4-.3-.3.2h.1ZM691.5,271.3l1.6-.5,1,1.2-1.6.4-1-1.1h0ZM692,275.9l.5-1.5-.9-.2.4,1.7h0ZM699.4,284.6l.5-1.2-.3-.3-1.1.7-.3,1.3,1.1-.4h0ZM687.7,277.4l.5.4v-.3c0,0,0-.5,0-.5l-.6-.4.2.7h-.1ZM690,280.1l-.3.5.4.4.4-.5-.5-.5h0ZM694.9,277.8h.8l-.5-.5-1.1.2.8.2h0ZM692.7,278.3l.4-.3h-.6l-.5.4h.7,0ZM695.9,286.4l.2.8.3-.2v-1.4l-.5.8h0ZM681.1,284l.2.2v-.4c0,0-.2-.5-.2-.5v.6h0ZM681.2,272.9l3.1,2.1,2,1.5-1-2.3-2.2-.8-.9-.9-1.1.5h.1ZM688.7,268.1l1.1-.2-.2.8h-.4c0-.1-.5,0-.5,0v-.6h0ZM686.6,272.4l.5.6h-.4c0,.1,0-.6,0-.6h0ZM672.9,273.1v.6l-.4.5v-.7c0,0,.4-.4.4-.4ZM682.9,267.9l-2.1-2.1-1.4.8,2.1,4.5-1.7,2.1,4.5,2.4.8,2.1-3-1-.8.7.8,1.7-1.7-.2.8,3.7-4.5-1.2-2.4-4.2,1.7-1.6,4.5,1.2.8-.6-1.7-.9-5.3-.3-4-5.5,1.9-1.7,1.5-3.2,3.7-1.4,3.4-.9,5-.8,3.8,1.1,3.3-2,1.2,1.2-2.1,3-2.7-.8-4.9,1.1-.5,1.7-1,1.2h0ZM669.1,269.2l.6.9.8.5-.7-1.1v-.5h-.7v.3h0ZM672.1,275.2l-.4.4.6.3,1,.2-.6-1.4-.5.4h0ZM672.8,277.3l.4.7.7-.3-.9-.6-.2.3h0Z"/>
      <path id="Shape6" class="st2" d="M702.8,262.6l-.3.9-5.2.3-4.4,3.8,1.4-2.2-2.3-.7,2.1-3-1.2-1.2,2.6-1.5,3.5.3.4,1.5,3.4,1.9h0ZM729.3,284.9l1.1-2.9,20.2-1.6,5.7-1,1.3,1.1,1.6-.7-2.7-9,3.1-1.6-1.6-1.4-2.7-.6-.6-4.3-2.1-1.4-4.7-.3-14.4,1.9-14.1-4.3-9.3,4.4-7-.3-.3.7,2.8,1.5-10.5,1.2-2.2,1.9-.2,2.2h2.2l.3,3.2-1.4,2,2.8,1.4-.8,1.3,3.1,3.1,7.5,2.4,2.9-2.6,6.8,3.1,11.8-3.1-.4,3.5h1.8v.2Z"/>
      <polygon id="Path47" class="st2" points="760.2 262.4 754.7 263 752.6 261.5 747.9 261.2 748.6 259.3 747.2 255.7 742.1 252.8 742.6 252.1 755.9 255.9 760.5 255.8 765.3 259.7 764.6 260.7 766.2 262.7 765.2 263.4 761.4 261.7 760.2 262.4"/>
      <polygon id="Path48" class="st2" points="765.6 272.7 764.2 272.9 763 270 759.6 269.3 758 267.9 755.3 267.3 754.7 263 760.2 262.4 761.9 264.4 762.6 266.5 763.4 267.1 763.4 268.9 765.1 269.8 765.6 272.7"/>
      <path id="Shape7" class="st1" d="M761.8,272l-2.2-2.7,3.4.7,1.3,2.9-2.4-.9h0ZM765.2,263.4l-3.8-1.7-1.3.7,1.7,2,.7,2.1.8.6v1.8l1.8.9.5,3,4.9-3.3,1.3.8-.7,2.9,3,1.7.6-2.7h.5c0,.1,1.5-5,1.5-5l2.6-.8-2.6-1.3-3.5-5.1-2.8,2.9-2-.6-3.1-2.5-.7,1,1.6,2"/>
      <path id="Shape8" class="st3" d="M765.2,263.4l-3.8-1.7-1.3.7,1.7,2,.7,2.1.8.6v1.8l1.8.9.5,3,4.9-3.3,1.3.8-.7,2.9,3,1.7.6-2.7h.5c0,.1,1.5-5,1.5-5l2.6-.8-2.6-1.3-3.5-5.1-2.8,2.9-2-.6-3.1-2.5-.7,1,1.6,2M761.8,272l-2.2-2.7,3.4.7,1.3,2.9-2.4-.9h0Z"/>
      <polygon id="Path49" class="st2" points="727.4 298.2 727.6 295.5 730 291.8 727.8 290.3 727.6 284.8 729.3 284.9 730.4 282 750.7 280.4 746.9 283.2 746.2 290.5 737.7 295.8 730.7 299.8 727.4 298.2"/>
      <polygon id="Path50" class="st2" points="724.7 296.7 727.6 295.5 730 291.8 727.8 290.3 724.7 296.7"/>
      <polygon id="Path51" class="st2" points="724 310.8 726.5 298.6 727.4 298.2 727.6 295.5 724.7 296.7 723 301.6 721.5 303.8 724 310.8"/>
      <polygon id="Path52" class="st2" points="739.3 300.6 737.7 295.8 730.7 299.8 727.4 298.2 726.5 298.6 724 310.8 724.2 311.5 727.3 311.8 734.9 306.9 731.3 303.1 739.3 300.6"/>
      <polygon id="Path53" class="st2" points="765.8 312.4 768.3 308.5 771 308.9 772.6 308.9 769.9 304.2 768.7 299.6 763.9 297.2 761.9 292.7 764.2 285.7 761.1 284.6 759.2 279.8 757.6 280.5 756.3 279.4 750.7 280.4 746.9 283.2 746.2 290.5 737.7 295.8 739.3 300.6 747.5 303.1 759.2 312.3 765.8 312.4"/>
      <path id="Shape9" class="st2" d="M769.6,314.3l-1.1-1.5-2.7-.3,2.5-3.9,2.7.4.3,1.3-1,.7.6.5,1.6,3.1-2.9-.3h0ZM771.5,309.3v.8h.6c0,.1,0-.3,0-.3l-.6-.5h0Z"/>
      <polygon id="Path54" class="st2" points="781.2 329.7 782.9 330.6 784 328.4 783.5 324.8 781.8 324.3 780.9 327.7 781.2 329.7"/>
      <polygon id="Path55" class="st2" points="727.3 311.8 734.9 306.9 731.3 303.1 739.3 300.6 747.5 303.1 759.2 312.3 765.9 312.4 768.5 312.8 769.6 314.3 772.5 314.6 781.2 329.7 782.9 330.6 783.9 331.6 784.2 333.1 787.2 336.6 797 338.1 798.4 340.9 796.2 348.4 785.4 352.2 772.5 353.5 768.3 359.3 753.8 357.6 752.9 361.4 742.3 347.7 739.1 338.6 733.5 330.7 723.3 316 724.2 311.5 727.3 311.8"/>
      <polygon id="Path56" class="st2" points="800 324.6 801 326.2 801.1 328.9 799.1 329.2 797 338.1 787.2 336.6 784.2 333.1 783.9 331.6 785.4 332.9 793.4 332.1 800 324.6"/>
      <path id="Shape10" class="st2" d="M801.4,324.4l-.4,1.8-1-1.6,1.1-1.1.2.9h.1ZM795.5,359.5l2.1-2.7,8.1-4.4,1.3-5.7,6.6-7.9-9.4-5.6-3.1-4.3-2,.3-2.1,8.9,1.4,2.8-2.2,7.5-10.8,3.8,3.8,8.9,6.3-1.6h0Z"/>
      <polygon id="Path57" class="st2" points="754.8 375.2 752.9 361.4 753.8 357.6 768.3 359.3 772.5 353.5 785.4 352.2 789.2 361 785.6 364.6 770.6 370.9 754.8 375.2"/>
      <polygon id="Path58" class="st2" points="730.8 340.7 688.4 340.7 688.4 311.2 688 306.4 688.9 302.4 703.1 305.6 710.9 302.6 716 304.4 721.5 303.8 724 310.8 721.6 317.4 715.2 309.1 715.1 311 730.8 340.7"/>
      <polygon id="Path59" class="st2" points="737.3 356.1 731.6 359.6 729.8 369.6 720.9 387.2 718.2 382.6 717.2 377.6 714.1 378 714.2 382.3 710 385.8 694.3 386.8 689.6 384.2 683.8 386.9 680.6 382.2 677.4 374.1 681.4 364.9 684.7 364.5 684.7 350.3 684.7 348.4 688.4 348.4 688.4 340.7 730.8 340.7 737.3 356.1"/>
      <polygon id="Path60" class="st2" points="684.7 348.4 688.4 348.4 688.4 340.7 688.4 311.2 688 306.4 688.9 302.4 672.9 298.3 669.2 307.6 655.2 304.1 653.1 299.8 640.1 296.5 639.8 299.8 635.3 302.7 632.4 307.9 632.4 325.2 641.8 334.7 649.2 338.1 652 337.2 655.7 335 684.7 350.3 684.7 348.4"/>
      <polygon id="Path61" class="st2" points="629.2 281.1 634 279.1 638.4 281.2 636.3 283.5 638.2 287.3 634.8 292.9 640.1 296.5 639.8 299.8 635.3 302.7 632.4 307.9 631.1 300.5 625.7 293.2 628 288.4 629.2 281.1"/>
      <polygon id="Path62" class="st2" points="613.6 351.5 641.8 334.7 632.4 325.2 632.4 307.9 631.1 300.5 625.7 293.2 628 288.4 629.2 281.1 604.4 282.7 591 288.6 594 299.9 567.5 313.6 567.4 318.2 567.4 319.7 580.8 328.9 602.5 343.9 610.2 349.7 610.2 351.8 613.6 351.5"/>
      <polygon id="Path63" class="st2" points="579.4 285.5 582.9 288.1 591 288.6 594 299.9 567.5 313.6 567.4 318.2 551.4 318.2 553 316.5 563.5 308.8 565.7 299.4 575 293.5 579.4 285.5"/>
      <polygon id="Path64" class="st2" points="551.8 343.4 537.4 343.4 541.8 332.8 544.9 329.6 551.4 318.2 567.4 318.2 567.4 319.7 567.4 324.8 555.4 324.8 555.4 335 551.6 337.1 551.8 343.4"/>
      <polygon id="Path65" class="st2" points="567.4 319.7 567.4 324.8 555.4 324.8 555.4 335 551.6 337.1 551.8 343.4 537.4 343.4 539.9 350.1 539.2 361.6 547 361 554.7 368.2 557.9 365.5 578.2 365.5 575 329 580.8 328.9 567.4 319.7"/>
      <polygon id="Path66" class="st2" points="557.2 376.8 554.7 368.2 557.9 365.5 578.2 365.5 575 329 580.8 328.9 602.5 343.9 610.2 349.7 610.2 351.8 613.6 351.5 612.1 365.5 599.4 367.4 588.3 371 582.4 374.4 579.1 383.7 569.9 384.7 565.9 376.7 557.2 376.8"/>
      <polygon id="Path67" class="st2" points="539 372.4 544.6 371.7 548.6 372.8 548.3 373.6 544.4 372.8 541.2 373.9 538.4 374.1 539 372.4"/>
      <polygon id="Path68" class="st2" points="549.2 375.9 557.2 376.8 554.7 368.2 547 361 539.2 361.6 538.3 365.9 535.4 368.1 539 372.4 544.6 371.7 548.6 372.8 548.3 373.6 544.4 372.8 541.2 373.9 538.4 374.1 538.4 376.8 544.5 375.9 549.2 375.9"/>
      <polygon id="Path69" class="st2" points="544.5 382.1 545.7 380.2 548.9 379.2 549.2 375.9 544.5 375.9 538.4 376.8 541 378.7 544.5 382.1"/>
      <polygon id="Path70" class="st2" points="561.4 391.1 560.2 391.3 558.9 386.2 554.1 385.9 551 389.1 544.5 382.1 545.7 380.2 548.9 379.2 549.2 375.9 557.2 376.8 565.9 376.7 569.9 384.7 570.7 391 568.2 394.4 565.5 395.4 564 391.2 561.4 391.1"/>
      <polygon id="Path71" class="st2" points="557.1 396.9 561.4 391.1 560.2 391.3 558.9 386.2 554.1 385.9 551 389.1 552.5 393.9 557.1 396.9"/>
      <polygon id="Path72" class="st2" points="571.3 406 557.1 396.9 561.4 391.1 564 391.2 565.5 395.4 568.2 394.4 568.7 396.3 567.7 398.2 571.6 400.8 571.3 406"/>
      <polygon id="Path73" class="st2" points="587.7 403.4 579.4 403.4 571.3 406 571.6 400.8 567.7 398.2 568.7 396.3 568.2 394.4 570.7 391 569.9 384.7 579.1 383.7 583 386.9 588.8 387.4 589.4 391.8 586.9 397 587.7 403.4"/>
      <polygon id="Path74" class="st2" points="598.1 381.5 588.2 382 588.8 387.4 583 386.9 579.1 383.7 582.4 374.4 588.3 371 599.4 367.4 606.9 378.2 602 381.9 598.1 381.5"/>
      <polygon id="Path75" class="st2" points="602.6 399.8 598.1 381.5 588.2 382 588.8 387.4 589.4 391.8 586.9 397 587.7 403.4 591.2 404.3 602.6 399.8"/>
      <polygon id="Path76" class="st2" points="604.9 398.9 603 385.7 602 381.9 598.1 381.5 602.6 399.8 604.9 398.9"/>
      <polygon id="Path77" class="st2" points="608.1 398.8 604.9 398.9 603 385.7 602 381.9 606.9 378.2 608.9 377.2 611.1 379 612.3 383.5 608.1 390.1 608.1 398.8"/>
      <polygon id="Path78" class="st2" points="652 337.2 655 348.5 652.7 361.6 646.4 372.3 614.5 371.9 611.1 379 608.9 377.2 606.9 378.2 599.4 367.4 612.1 365.5 613.6 351.5 641.8 334.7 649.2 338.1 652 337.2"/>
      <polygon id="Path79" class="st2" points="654.2 394.3 649.4 387.1 653.3 385.5 652.7 377.3 648.9 374.1 646.4 372.3 652.7 361.6 655 348.5 652 337.2 655.7 335 684.7 350.3 684.7 364.5 681.4 364.9 677.4 374.1 680.6 382.2 664.8 391.9 654.2 394.3"/>
      <polygon id="Path80" class="st2" points="629.4 404.7 634.4 397.3 639.5 398.8 651.1 378.7 648.9 374.1 646.4 372.3 614.5 371.9 611.1 379 612.3 383.5 608.1 390.1 608.1 398.8 616 399.6 619.7 405.3 629.4 404.7"/>
      <polygon id="Path81" class="st2" points="656.2 415.5 650.8 401.5 654.2 394.3 649.4 387.1 653.3 385.5 652.7 377.3 648.9 374.1 651.1 378.7 639.5 398.8 634.4 397.3 629.4 404.7 633.5 409.6 634 413.7 639.2 413.8 646 414 656.2 415.5"/>
      <polygon id="Path82" class="st2" points="659.7 425.5 655.4 435.8 648.4 437.5 645.1 438.7 641.6 439.9 638.3 435.6 641.8 430.1 649.7 428.3 649.4 417.8 646 416.8 646 414 656.2 415.5 658.5 409 665.3 409.3 659.7 425.5"/>
      <polygon id="Path83" class="st2" points="639.2 413.8 634 413.7 632.9 418.1 639.2 418.2 639.2 413.8"/>
      <polygon id="Path84" class="st2" points="630.4 424.3 632.9 418.1 639.2 418.2 639.2 413.8 646 414 646 416.8 649.4 417.8 649.7 428.3 641.8 430.1 638.3 435.6 630.4 424.3"/>
      <polygon id="Path85" class="st2" points="696.2 403.3 679.1 406 668.4 403.4 665.3 409.3 658.5 409 656.2 415.5 650.8 401.5 654.2 394.3 664.8 391.9 680.6 382.2 683.8 386.9 683.7 390 696.2 403.3"/>
      <polygon id="Path86" class="st2" points="725 402.2 720.7 406.9 708.9 409.2 705 405 700.1 406.1 696.2 403.3 683.7 390 683.8 386.9 689.6 384.2 694.3 386.8 710 385.8 714.2 382.3 714.1 378 717.2 377.6 718.2 382.6 720.9 387.2 717.3 392.8 725 402.2"/>
      <polygon id="Path87" class="st2" points="753.4 375.7 750.8 376.7 743.7 369.6 734.5 368 729.8 369.6 731.6 359.6 737.3 356.1 740.6 365.2 746.4 368.9 753.4 375.7"/>
      <polygon id="Path88" class="st2" points="753.8 380.1 752.7 382 748.4 381.8 750.8 376.7 753.4 375.7 754.3 377.3 751.9 379.5 753.8 380.1"/>
      <polygon id="Path89" class="st2" points="748.6 407.7 737.6 409.1 725 402.2 717.3 392.8 720.9 387.2 729.8 369.6 734.5 368 743.7 369.6 750.8 376.7 748.4 381.8 752.7 382 754.7 388.1 770.7 393.2 759.6 404.2 748.6 407.7"/>
      <polygon id="Path90" class="st2" points="747.8 427.5 745.8 425 745.8 411.7 748.6 407.7 759.6 404.2 770.7 393.2 754.7 388.1 752.7 382 753.8 380.1 758.2 383.6 782.7 378.6 781.7 386.2 768.5 408.5 747.8 427.5"/>
      <polygon id="Path91" class="st2" points="739.3 438.6 747.8 427.5 745.8 425 745.8 411.7 748.6 407.7 737.6 409.1 725 402.2 720.7 406.9 724.2 414.8 720.3 425.3 739.3 438.6"/>
      <polygon id="Path92" class="st2" points="708.3 425.5 720.3 425.3 724.2 414.8 720.7 406.9 708.9 409.2 710.1 414 706 419.2 705 426.7 708.3 425.5"/>
      <polygon id="Path93" class="st2" points="702.4 431 705.5 431.4 708.1 430.5 709.4 429.8 708.3 425.5 705 426.7 702.4 431"/>
      <polygon id="Path94" class="st2" points="704.4 437.8 709.2 433.3 708.4 431.8 709.4 429.8 705.5 431.4 702.4 431 704.4 437.8"/>
      <polygon id="Path95" class="st2" points="723.9 463.6 722 456.8 716.8 455.9 709 451.3 704.4 437.8 709.2 433.3 708.4 431.8 709.4 429.8 708.3 425.5 720.3 425.3 739.3 438.6 739.4 449.6 744 459.8 734.7 462.8 723.9 463.6"/>
      <polygon id="Path96" class="st2" points="645.3 443 643.1 443.2 642.4 442.6 643.5 442.1 643.7 440.8 645.1 438.7 648.4 437.5 655.4 435.8 665.3 409.3 668.4 403.4 679.1 406 696.2 403.3 700.1 406.1 705 405 708.9 409.2 710.1 414 706 419.2 705 426.7 702.4 431 704.4 437.8 709 451.3 701 453.3 700.8 463.5 704.9 466.6 704.8 469.9 684.6 461.4 678.8 461.5 676.2 448 669.6 447.1 666 450.6 660.1 449 657.4 443.7 645.3 443"/>
      <polygon id="Path97" class="st2" points="688.6 486.9 684 488.7 680.2 487.8 673.7 489 673.7 503.1 670.2 503.1 670.2 513.9 670.2 528.5 667.1 530.2 659.9 527.3 657.5 529.2 652.5 520.7 650.2 504.8 640.7 485 664.5 485.4 673.1 487.6 682.5 486.3 686.1 485.7 688.6 486.9"/>
      <path id="Shape11" class="st2" d="M642.4,442.6l-.8-2.6,3.5-1.3-1.5,2.2-.2,1.3-1.1.5h0ZM640.7,485l23.8.3,8.6,2.3,9.5-1.4-4.9-4.8-.3-12.4,7-.5.2-7.2h-5.9c0,.1-2.6-13.3-2.6-13.3l-6.6-1-3.6,3.5-5.9-1.6-2.7-5.3-12.2-.6-2.1.2,3.9,23.2-6.3,18.6h0Z"/>
      <polygon id="Path98" class="st2" points="707.6 478.7 702.3 480.1 695.2 487.7 688.6 486.9 686.1 485.7 682.5 486.3 677.7 481.4 677.4 469.1 684.4 468.5 684.6 461.4 704.8 469.9 704.9 466.6 700.8 463.5 701 453.3 709 451.3 716.8 455.9 719.3 459.2 716.5 470.7 717.6 472.7 707.3 476.3 707.6 478.7"/>
      <polygon id="Path99" class="st2" points="724.6 483.7 721.4 479.5 722.2 474.6 719.1 474.4 717.6 472.7 716.5 470.7 719.3 459.2 716.8 455.9 722 456.8 723.9 463.6 722.5 467.1 723.6 470.7 727.3 475.3 726.5 480.8 724.6 483.7"/>
      <polygon id="Path100" class="st2" points="710.8 504.6 714.9 499.5 716.6 482.8 707.2 478.4 706.9 476 717.3 472.4 718.9 474 722 474.3 721.2 479.3 724.4 483.4 726.3 480.6 727.1 475 723.5 470.4 722.2 466.7 723.7 463.2 734.6 462.3 744 459.3 744.8 475.1 723.5 494.4 726.2 511.7 716.6 516.8 716.5 521.9 713.4 522 712.8 518.6 713 512 710.8 504.6"/>
      <polygon id="Path101" class="st2" points="703.6 503.7 711.1 504.6 715.2 499.6 716.9 483 707.6 478.7 702.3 480.1 695.2 487.7 688.6 486.9 698.9 500.4 703.6 503.7"/>
      <polygon id="Path102" class="st2" points="672.9 517.3 670.2 513.9 670.2 503.1 673.7 503.1 673.7 489 680.2 487.8 684 488.7 688.6 486.9 698.9 500.4 703.6 503.7 688.8 517.7 681.5 516.7 676.6 521.7 673 521.9 672.9 517.3"/>
      <polygon id="Path103" class="st2" points="710.9 523.1 709.9 520.1 712 517.6 713.7 518.1 714.2 521.5 713.8 523.6 710.9 523.1"/>
      <path id="Shape12" class="st2" d="M714.3,521.5l-.5,2.1-2.9-.5-1.1-3,2.1-2.5,1.7.5v-6.5c0,0-2.1-7.4-2.1-7.4l-7.6-1-14.9,14.2-7.3-1-5,5.1h-3.7c0,0,0-4.5,0-4.5l-2.7-3.5v14.7l-3.2,1.7-7.2-2.9-2.4,1.9,6.7,13.1-1.4,3.7,6.5,7.6,20.1-2.4,15.6-8.8,10.5-13.4,1.9-7.2h-3.1,0ZM699.4,537l-3.3-3.9,5.6-4.3,2.6,3.2-4.8,5h0Z"/>
      <polygon id="Path104" class="st2" points="767.8 513.8 778 481.4 776 465.5 765.4 478.7 757.3 481.2 756.7 497.6 754.6 505 757 515.4 767.8 513.8"/>
      <polygon id="Path105" class="st2" points="296 338.4 303.6 335.7 316.9 340.1 332 347.3 319.7 349.1 320.6 345.9 317 344.7 314.1 341.6 304.7 339.6 295.1 340.9 296 338.4"/>
      <polygon id="Path106" class="st2" points="340.7 349.4 340.3 355.6 331.1 354.8 332 353.6 337.6 353.3 337.1 350.9 334.7 349.2 340.7 349.4"/>
      <polygon id="Path107" class="st2" points="351.8 354.6 343.4 354.8 341.7 357.1 340.3 355.6 340.7 349.4 344.3 348.8 351.1 352.1 352.8 353.3 351.8 354.6"/>
      <polygon id="Path108" class="st2" points="317.3 354.1 322.4 354.4 324.6 356.1 320.8 356.8 318 355.6 317.3 354.1"/>
      <polygon id="Path109" class="st2" points="377.3 383 377.6 384 376.2 385.3 379.1 385.2 379.3 383.1 379.6 382.5 377.3 383"/>
      <polygon id="Path110" class="st2" points="314.1 341.6 317.9 344.1 321.5 345.3 319.7 349.1 332 347.3 316.9 340.1 303.6 335.7 296 338.4 295.1 340.9 304.7 339.6 314.1 341.6"/>
      <polygon id="Path111" class="st2" points="820.2 327.6 825.6 319.4 816.9 309.1 819.5 304 817.4 301.9 819.1 286.8 817.1 282.4 804.3 276.1 791.8 279.1 783.7 282.5 774.1 274.7 771.1 273 771.8 270.2 770.5 269.4 765.6 272.7 764.2 272.9 761.8 272 759.6 269.3 756.5 270.9 759.2 279.8 761.1 284.6 764.2 285.7 761.9 292.7 763.9 297.2 768.7 299.6 769.9 304.2 772.6 308.9 778.4 308.1 782.7 315.3 795.3 323.3 803.3 319.7 804.7 325.3 820.2 327.6"/>
      <polygon id="Path112" class="st2" points="1059.7 273.9 1056.2 271 1060.2 267.4 1064.7 264.1 1064.9 260.4 1068.2 257.5 1067.6 256.4 1064.8 255.2 1058.9 259.2 1058.7 261.5 1053.4 260.6 1045.4 267.9 1048.7 270.6 1047 276 1053.5 277.6 1056.7 275.4 1059.7 273.9"/>
      <polygon id="Path113" class="st2" points="1053.6 291.3 1063.4 288.2 1063.2 280.3 1059.7 273.9 1056.7 275.4 1053.5 277.6 1053.8 284.3 1053.6 291.3"/>
      <polygon id="Path114" class="st2" points="922.3 232 914.3 225.3 929.6 216.5 948.6 220.1 953.5 210.1 984.2 222.9 1018.3 221.2 1014.3 231.6 1025.6 231.7 1029.3 236.7 1001.1 247 995.5 254.6 975.5 260.2 945.9 255.5 938.4 247.4 925.3 244.5 922.3 232"/>
      <polygon id="Path115" class="st2" points="799.4 262.2 787.2 259 780.4 248.7 789.4 238.9 783.8 236.1 774.4 239.1 766.6 225.5 780.1 213 811.7 216.7 818.6 198.9 873.8 198.6 885.4 216.1 909 222 912.3 225.2 910.3 225.9 909.3 228.7 906.5 229.4 905.4 235.1 897.3 235.4 893.6 244 887.2 245.3 886.6 258.1 865 254.7 853.3 257.9 843.7 264.3 837.7 262.4 832.9 252.4 822 251.7 809.4 243.2 799.4 246 799.4 262.2"/>
      <polygon id="Path116" class="st2" points="853.3 267.1 860.8 264.7 851.5 261.2 853.3 257.9 865 254.7 886.6 258.1 862.7 270.3 847.7 269.8 849.2 267.6 853.3 267.1"/>
      <polygon id="Path117" class="st2" points="842.1 279.8 843.6 273 841.3 270.6 851.8 263.6 853.3 267.1 849.2 267.6 847.7 269.8 862.7 270.3 864.1 273.8 867.2 275.3 867.4 279.6 859.8 279.8 856.2 281.8 854 275.3 847.9 279 842.1 279.8"/>
      <polygon id="Path118" class="st2" points="837.4 279 837.5 276.7 823.1 268.7 820.3 262.8 814 261.9 810.1 256.3 802.9 261.6 799.4 262.2 799.4 246 809.4 243.2 822 251.7 832.8 252.4 837.7 262.4 843.7 264.3 853.3 257.9 851.5 261.2 860.8 264.7 853.3 267.1 851.8 263.6 841.3 270.6 843.6 273 842.1 279.8 837.4 279"/>
      <polygon id="Path119" class="st2" points="824.5 287.2 833.2 279.8 837.4 279 837.5 276.7 823.1 268.7 820.3 262.8 814 261.9 810.1 256.3 802.9 261.6 799.4 262.2 787.2 259 791.5 271.5 791.8 279.1 804.3 276.1 817.1 282.4 819.1 286.8 822.6 288.1 824.5 287.2"/>
      <path id="Shape13" class="st2" d="M1240.5,100.6l8-2,5.7,2.4-6.7,1.1-6,.7-1-2.3h0ZM673.9,195.2l-3.1.5-.9,1.5,9.4.8,1.1-2.3-5.5-1.7-.9,1.2h0ZM774.4,239.1l-7.7,7.5,6.4,13.3-2.8,2.9-2-.6-3.1-2.5-4.8-3.9h-4.7l-13.2-3.7-.5.8-12-8.1.9-1.3,3.4-.5v-5.1c0,0,5-2.1,5-2.1l-3.5-.6,1.1-2.6,4.2-.9,1.4-8.5-16.4-4.7-1.4-3.5-2.8-1.1-2.2-5.8-7.2,1.4-.4-4.1,2.9-1.1v-2.1c0,0-2.3-1.9-2.3-1.9l-3.9-7.9-9.4-2.3-2.7-6.7,1.3-2.8-1.1-3.8,2.3-3.9,7-3.5-7.6-2.9,13.2-13.1-8.4-27.7,2.3-5.6-4.3-2.6,4.1-6.8,4.3-3.5,37,13.6-8.4,10.4-23.1-5.1,10,17.9,16.4-1.5,16.5-27,8.3,10.7,71.6-14.3,10.7-22.2,9.4,4.7v25.6l6.4-9.8,3.4-21.8,15.8,3.4,8.1-6,15.4-4.3,65.6-29.5,34.5,11.1-26.8,25.2,45.6-4.3,33.7,3,3,14.9,37.9-6.4,23-4.3,37.1,10.7,43.5,11.5,32.8-2.6,42.6,18.3-12.4,13.2-19.6-9.8-11.9,12,4.7,10.2-46,13.7-14.1,9.8,1.7,14.1-19.6,21.3-4.7-22.2,18.3-20.1,14.1-16.2-26,3.8-15.8,15.4-36.2-.8-26.8,19.6,17.1,6.8.4,20.1-20,33.7-11.2-.4-3.7,3.8-.6-1,2.7-2.8-.4-7.3,13.2-14.1-23.9-9.4-12.4-18.8-16.2,2.1-3,14.5-9.4.4-34.1,1.7-30.7-12.8-4.9,10-18.9-3.7-15.4,8.8h-2l-3.3-3.3-23.6-5.9-11.7-17.5-55.1.3-7,17.8-31.5-3.7-13.5,12.5,7.8,13.7.2.5ZM784.2,97.7l5.1,5.3,14.1.2-5.5-6,2.8-9.4-7.2-1.5-9.2,11.3h0ZM794.7,84l7.2,1.5,17.7-14.1,27.3-11.1-7.7-3.6-24.5,6.4s-20,20.9-20,20.9ZM933.3,32.7l14.1-1.9,1.3-4.7-5.5-5.6-14.1,7,4.3,5.1h0ZM948.2,43l9.1-1.1,1.4-6.4-10.5-3.5s-12.5,3.8-12.9,4.3l12.9,6.8h0ZM975.4,46.8l.3-4.1-10.8-4.4s-6.4,9.8-7.1,9.8l17.6-1.3ZM1091.3,64.3l5.3,11.5,22.9-5.1-13.9-8.5-14.2,2.1h-.1ZM1124.1,69.7l6.3,5.4h8.4l1.8-3.4-13.8-3.1-2.7,1.1h0ZM1112.2,198.4l1.3,15.4v11.7l-1.5,9.4-3.8,4.9-1.1-36.9,5.1-4.5h0Z"/>
      <path id="Shape14" class="st2" d="M1102.2,257.3l6-13.7,14.3,7.3-7.7,6.8-12.6-.4h0ZM1102,265l-3.4,11.7-13.2,9.6-9.4.6-5.8,4.9,10.7-.4,5.5,2.6,18.8-8.1,2.1-22.8-5.3,1.9h0ZM1075.2,298.2l4.4-2.7,2.6-2-2.7-1.3-5.4,2,1.1,4h0ZM1065.3,296.5l.7,6.7h4.1c0-.1,2.7-8.9,2.7-8.9l-4.1-1-3.4,3.3h0Z"/>
      <path id="Path120" class="st2" d="M1036.7,329.7c0,.2-3.9,10.9-3.9,10.9l-2.2-3.8,1.6-5.8,3.1-3.2,1.5,1.9h0Z"/>
      <polygon id="Path121" class="st2" points="836.4 309.4 826.7 310.6 816.9 309.1 819.5 304 817.4 301.9 819.1 286.8 822.6 288.1 833.2 279.8 837.4 279 842.1 279.8 847.9 279 854 275.3 856.2 281.8 859.8 279.8 867.4 279.6 866.2 280.6 859.9 281.7 854.9 285 854 292.1 850.5 293.7 846.8 301.7 840 304.4 836.4 309.4"/>
      <polygon id="Path122" class="st2" points="842.7 333.8 837.1 327.2 820.2 327.6 825.6 319.4 816.9 309.1 826.7 310.6 836.4 309.4 840 304.4 846.8 301.7 850.5 293.7 854 292.1 854.9 285 859.9 281.7 866.2 280.6 870.9 282.5 872.1 285.2 874.3 286 875.2 288.6 864.2 290.2 868.5 299.7 856.3 316.7 849.9 317.6 848.4 322 853.6 330 842.7 333.8"/>
      <polygon id="Path123" class="st2" points="914.8 323.3 901.8 319.4 886.6 313.4 889.1 308.1 897.3 310.7 908 316.4 915.3 318.1 914.8 323.3"/>
      <polygon id="Path124" class="st2" points="917.7 320.8 922.5 321.5 929.4 321.3 927.7 317.6 922 315.6 918.4 318.5 917.7 320.8"/>
      <polygon id="Path125" class="st2" points="918.4 340.2 915.1 329.8 917.7 327.9 914.9 324.5 917.8 323.6 921.2 325.5 921.8 327.8 930.7 328.9 926.2 334.3 930 335.2 931.2 340.8 931.2 343.7 930.1 344.7 927.6 337.7 918.4 340.2"/>
      <polygon id="Path126" class="st2" points="858.7 339.6 852.2 345.7 846.5 339 848.9 337.1 842.7 333.8 853.6 330 848.4 322 849.9 317.6 856.3 316.7 868.5 299.7 864.2 290.2 875.2 288.6 874.3 286 881.3 290.6 881.7 303.3 889.1 308.1 886.6 313.4 901.8 319.4 914.8 323.3 915.3 318.1 918 316.2 918.4 318.5 917.7 320.8 922.5 321.5 929.4 321.3 927.7 317.6 939.4 311.5 947.2 314.4 946.8 319.5 938.5 327.9 933.2 339.7 931.2 340.8 930 335.2 926.2 334.3 930.7 328.9 921.8 327.8 921.2 325.5 917.8 323.6 914.9 324.5 917.7 327.9 915.1 329.8 918.4 340.2 888.1 364.7 885.8 381.2 879.3 392.9 873.6 391.2 858.7 339.6"/>
      <polygon id="Path127" class="st2" points="887.7 386.5 892.7 396.7 889.8 399.9 886.8 400 885.2 394.7 886.2 387.3 887.7 386.5"/>
      <polygon id="Path128" class="st2" points="958.5 346.9 961.6 342.5 949.4 331.2 953.2 325 953.3 318.4 947.2 314.4 946.8 319.5 938.5 327.9 933.2 339.7 931.2 340.8 931.2 343.7 930.1 344.7 936.3 353 937.6 362.8 941.7 363.4 946.1 359.3 949.9 364.4 952.2 384 955.8 379.1 951.8 366.8 953.7 362.5 948.7 354.1 951 349.5 958.5 346.9"/>
      <polygon id="Path129" class="st2" points="976.7 369.8 977.8 364.3 971.8 354.6 961.1 357.7 962.3 350.2 958.5 346.9 951 349.5 948.7 354.1 953.7 362.5 951.8 366.8 955.8 379.1 952.2 384 952 391.5 958.3 398 962.9 400.8 965.5 399.1 959.6 395.5 957.2 388.9 955.7 387.4 958.4 373.1 960.9 372.7 961.4 375.5 967.6 378.1 966.5 373 969.2 369.6 976.7 369.8"/>
      <polygon id="Path130" class="st2" points="984.8 368.3 979.4 370.4 976.7 369.8 977.8 364.3 971.8 354.6 961.1 357.7 962.3 350.2 958.5 346.9 961.6 342.5 964 343 964.1 339.1 965.6 339.1 969.1 344.4 974.1 345.6 975.3 348.5 972.2 350.3 976.3 354.2 983.6 363.3 984.8 368.3"/>
      <polygon id="Path131" class="st2" points="974.4 383.9 979 382 979.7 379.8 984.9 376.7 984.8 368.3 979.4 370.4 976.7 369.8 969.2 369.6 966.5 373 967.6 378.1 969.9 382.5 974.4 383.9"/>
      <path id="Path132" class="st2" d="M975.6,390.6c0-.2-1.3-6.6-1.3-6.6l4.7-1.9.7-2.3,5.2-3.1v-8.4c0,0-1.3-5-1.3-5l-11.4-13,3.1-1.8-1.1-2.9-5-1.2-3.5-5.3,12.2-2.5,4.7,1.3v2.9l4.4,1.6-5.4,3.6-3.2,6.3,7.8,9.9,4.8,6.8v10.3l-15.2,11.2h-.2Z"/>
      <path id="Shape15" class="st2" d="M982.4,340.8v-2.9l-4.7-1.3-12.2,2.5h-1.5v3.9l-2.4-.5-12.3-11.3,3.8-6.3v-6.6l-6-4-7.8-2.9-11.7,6.1-5.7-2-3.6,2.9-.4-2.3-2.7,1.9-7.2-1.7-10.7-5.7-8.2-2.6-7.4-4.8-.4-12.7-7-4.6-2.3-.8-1.1-2.7-4.8-1.9,1.3-1-.3-4.3-3.1-1.5-1.4-3.5,23.9-12.2.6-12.8,6.4-1.3,3.7-8.6,8.1-.3,1.1-5.8,2.9-.7,1-2.8,2-.7h2l8.1,6.8,3,12.6,13.1,2.9,7.5,8.1,29.5,4.7,20-5.6,5.5-7.7,28.3-10.2-3.7-5h-11.4c0-.1,4-10.5,4-10.5l9.4-.4,3-14.5,16.2-2.1,12.4,18.8,23.9,9.4-13.2,14.1.4,7.3-2.7,2.8-2.8-1.2-5.9,4-.2,2.4-5.3-1-8,7.3-8.9,2.4-2.6-4.8-13.9,9.4,17.3,6-9.7,8.5,8.7,19.9-19.9,27.8-9.6,1.3-10.8,5.6-9.2-1.5-4.4-1.6h0v-.2ZM989.6,350.9l-.3,2.9,3.7,1.1,4.1-4.8-.6-2.7-4.8.8-2.1,2.7h0Z"/>
      <polygon id="Path133" class="st2" points="991.7 348.2 989.6 350.9 989.3 353.7 993 354.9 997.1 350 996.5 347.3 991.7 348.2"/>
      <path id="Shape16" class="st2" d="M973,416.7h-3c0-.1-7.6-5.2-7.6-5.2l-4.1-13.5,4.6,2.9,2.6-1.7,4.1,4.2.9,7.9,2.5,5.4h0ZM992.3,414.8l3.2,3.5,6.4-.8,8.3-.8,4.3-10,7.2-.2,4.9-3.4-8-6.5-6.2,6.1-4,2.9-4.4,5.2-4.6,1.1-1.8,4.1-5.2-1h0v-.2Z"/>
      <path id="Shape17" class="st2" d="M1044.8,455.2l1-.3-.5.9h-1.1l.7-.6h0ZM1054.8,451.9l-6.1,1.1-1.4,1,.6,2,7.7-3.8-1-.4h.2Z"/>
      <path id="Shape18" class="st2" d="M1026.5,456.8l2.9.5,2,1.6,1.1-1.3-2.4-1.9h-3.5l-.2,1.2h0ZM1045.8,454.9l-.5.9h-1.1l-1.3,1.1.3,2.4,2.7-1.1,2.1-2.1-.6-2-1.6.8h0Z"/>
      <path id="Shape19" class="st2" d="M1111.4,460.8l16.6,33.1,22.8,27.5-14.5,45-33.2,1.5-10.4-20.9-6.4,4.5-15.8-10.9-56.5,14.5-7.5-49.3,29.4-16,18.1-17.5,8.7,1.3,10.6-9.8,14.1,2.4-2.3,9.8,18.5,10.5,7.7-25.6h.1ZM1123.7,590.8l5.8-2.8,1.5-7.7-12.6-1.5,5.3,12h0Z"/>
      <path id="Shape20" class="st2" d="M1196.1,601.6l16.8-13.8,6.7-9.8,6,4.4-8,10.5-8.5,13.4-12.9-4.7h0ZM1230.7,581.1l8.5-14.9-6.8-.4-10.9-12,5.8,10.2-3.4,8.4,3.5,3v5l3.3.7Z"/>
      <path id="Shape21" class="st2" d="M1116.3,449.7l-3.7,5.3h-7.5v-23.7l16.5,7,7.1,6-1.1,2.3,11.9,12.9-9.1-1-8.2-9.1-5.8.4h-.1ZM1131.5,442.3l2.2,1.4,6.3.3,4.9-2.6,1.1-4.3h-2.3s-3.3,4.6-3.8,4.6-7.1-.3-7.1-.3l-1.2.7h0v.2Z"/>
      <path id="Shape22" class="st2" d="M1033.1,353.6l5.1,1.2v5.4l-3.3,6.2,1.6,3.6,5.8,1.3,1.9,3.1-2.7-2.2-5.6-1.1-3.4.5-.3-3-2.1-1-.3-3.7,1.2-.8,2.1-9.5h0ZM1031.3,372.9l2.7,4.6.8-1.5v-2.4c0,0-3.5-.6-3.5-.6h0ZM1047.7,380.2l2.4.8-1.2-4.4h-3.1c0-.1,1.8,3.5,1.8,3.5h0ZM1036.7,383.8l2.2-1,2-2.7-4-1.5-.2,5.1h0ZM1020.4,391.4l8.3-7.9-.8-2.2-7.5,10.1h0ZM1040.6,394.8l3.7,1,1.3,4,3.6.8v-3c0,0,1.3-1.8,1.3-1.8l2.4,1.4-2-10.1-6,5.2h-5l-3.7,4.3,4.4-1.7h0ZM1040,385.3l-1.7,1.7,2.8,1.8v-1.9l1-3.7-.4-1.4-1.7,3.4h0ZM1045.7,380.7l1.1,2.5v2c0,0,1.7-.8,1.7-.8l-1-2.3-.4-1.5-1.5.2h.1ZM1041.2,378.1l1.1-.5,1.8.4-2.6-2-.3,2.1h0ZM1043.7,382l-1.9,4.8v.9c0,0,1.6-2.6,1.6-2.6l.9-4-.6.9h0ZM1044.8,387.1l1.1-.6v-.9c0,0-1-.5-1-.5l-1.2,1.3,1.1.7h0Z"/>
      <polygon id="Path134" class="st2" points="681.7 170.4 675.6 165.9 675.1 153.5 689.6 136.9 684.5 133.4 682.9 119.4 672 113.3 688.6 115.2 695.7 108.3 705.7 110.8 701.6 117.7 705.8 120.2 703.5 125.8 711.9 153.5 698.7 166.6 681.7 170.5 681.7 170.4"/>
      <path id="Shape23" class="st2" d="M675.9,137.3v7.3l-14.1,11.4-.7,9.7,5.5,4.8-7.8,7.7-2.9,11.1-4.3,1.1-4.1,3-2.9-3.5-5-14.1,3.1-8.4-.6-8.3-.4-8.7,6.1-6.1,3.3-12.8,6-7.8,6.5-6.5,4.3-.6,4-3.3,10.9,6.1,1.6,14.1-8.7,3.8h.2ZM664.1,182.9l-.3,2,.3,1.4,2.2-2.3.6-2.4h-1.4l-1.3,1.2h0Z"/>
      <polygon id="Path135" class="st2" points="973 416.7 971.4 413.2 968.8 415.7 973 416.7"/>
      <polygon id="Path136" class="st2" points="674.6 193.8 671.5 194.3 670.6 195.8 680 196.6 681.1 194.3 675.5 192.6 674.6 193.8"/>
      <polygon id="Path137" class="st2" points="1105.1 431.2 1105.1 454.8 1096.1 450.2 1094 442 1080.9 436.1 1073.8 432.5 1077.9 429.9 1069.7 427.5 1072.4 423.9 1077.8 423.6 1080.2 424.8 1082.3 432 1093.1 427.8 1105.1 431.2"/>
      <polygon id="Path138" class="st2" points="1070.9 450.1 1071.9 448.2 1071.6 447.3 1069.5 450.4 1070.9 450.1"/>
      <polygon id="Path139" class="st2" points="941.1 401.5 949.7 403.5 962.3 414.9 974.6 426.3 979.2 433.8 978.2 442.6 972.8 442.4 960 427.7 952.8 415.6 942.5 405.6 941.1 401.5"/>
      <polygon id="Path140" class="st2" points="978.6 429.8 980.4 432.3 982.2 431.4 979.7 427.5 977.1 428.3 978.6 429.8"/>
      <polygon id="Path141" class="st2" points="979.2 443.1 977.7 446.2 987.6 449.5 1009.9 453 1009.5 450 1003.9 448.2 1001 446.5 993.8 446.7 984.4 443.8 979.2 443.1"/>
      <path id="Path142" class="st2" d="M1016,434.6c.3-.1,6.2-16.6,6.2-16.6l2.1-1-2.6-10.6-7.2.2-4.3,10-8.3.8-6.4.8-3.2-3.5-2.6,5.1,5.3,12.1,21,2.6h0Z"/>
      <polygon id="Path143" class="st2" points="1028.7 420.4 1026.6 432.3 1028.2 435.8 1027.8 441.7 1030.9 441.6 1031.3 432 1032.7 431.3 1036.3 438.1 1039.9 436.7 1035.4 429.4 1039.8 425.2 1033.4 426.1 1030.3 422.3 1033.2 419.9 1042.3 420.1 1047.8 415.9 1042.3 417.6 1033.5 417.2 1028.7 420.4"/>
      <polygon id="Path144" class="st2" points="1004.7 447.8 1007.1 447.5 1008.4 446.8 1006.8 446.1 1003.9 446.9 1004.7 447.8"/>
      <polygon id="Path145" class="st2" points="1010.9 452.1 1012.5 453.5 1014.3 452.1 1014.1 451.3 1010.6 451.2 1010.9 452.1"/>
      <polygon id="Path146" class="st2" points="1016 451.6 1015.5 453.5 1017.2 454.1 1017.8 452.1 1017 451.4 1016 451.6"/>
      <polygon id="Path147" class="st2" points="1018.8 452.4 1018.6 454.4 1020.2 454.6 1023.8 453.4 1025.9 453.3 1025.6 451.9 1022.7 451.3 1022.4 452.1 1022.6 452.7 1018.8 452.4"/>
      <polygon id="Path148" class="st2" points="1029.2 452.3 1029.1 453.4 1034.8 453.7 1039.5 453 1040.5 451.3 1039.8 451.6 1038.9 452.4 1035.9 452.5 1034 452.6 1031.7 451.5 1029.2 452.3"/>
      <polygon id="Path149" class="st2" points="1038.4 439 1038 440.8 1038.8 440.9 1039.7 438.5 1038.4 439"/>
      <polygon id="Path150" class="st2" points="1040.4 438.1 1039.1 442 1040 442 1040.8 439.6 1041.1 437.6 1040.4 438.1"/>
      <polygon id="Path151" class="st2" points="1052.6 434.7 1055.1 434.7 1054.8 432.9 1051.4 432.7 1052.6 434.7"/>
      <polygon id="Path152" class="st2" points="1060 433.9 1064.4 433.7 1068.6 435.4 1067.7 432.9 1063.7 432 1059 432.2 1060 433.9"/>
      <polygon id="Path153" class="st2" points="1057.2 414.7 1056.8 418.3 1058.8 424.8 1058.2 420.6 1060.8 420.6 1059.8 419.3 1061.2 416.5 1058.2 418.1 1058.3 415.1 1058.3 413.9 1057.2 414.7"/>
      <polygon id="Path154" class="st2" points="369.6 353.3 371.3 353.9 371.8 355.8 360.9 355.8 358.8 355.8 358.8 353.9 360.4 352 369.6 353.3"/>
      <polygon id="Path155" class="st2" points="323.5 317.9 322.2 316 317.1 316.4 317.6 317.5 321 317.3 322.2 317.9 323.5 317.9"/>
      <polygon id="Path156" class="st2" points="319.8 323.8 319 324.8 319.4 325.7 321 325.7 321 323.8 319.8 323.8"/>
      <polygon id="Path157" class="st2" points="323.5 318.7 322.8 319.8 323.5 320.8 324.7 320.4 324.7 319.3 324.1 318.3 323.5 318.7"/>
      <polygon id="Path158" class="st2" points="328.5 325.7 328.9 328.5 330 328.5 329.2 326.3 328.5 325.7"/>
      <polygon id="Path159" class="st2" points="325 323.1 325 325.1 326.3 325.7 326.3 323.4 325 323.1"/>
      <polygon id="Path160" class="st2" points="322.8 322.5 321.9 323.1 322.1 323.8 323.8 324.1 324.2 322.5 322.8 322.5"/>
      <path id="Path161" class="st2" d="M329.2,329.8c-.2.2-.7,2.3-.7,2.3l2,.6v-1.4l-1-.4.4-1h-.7,0Z"/>
      <polygon id="Path162" class="st2" points="325.7 327.4 325.7 328.5 326.3 328.7 327 327.7 325.7 327.4"/>
      <polygon id="Path163" class="st2" points="327 323.3 327.4 324.4 328.5 324.4 327.8 323.3 327.8 322.5 327 323.3"/>
      <polygon id="Path164" class="st2" points="321.4 328.1 320.3 328.7 321.4 329.8 322.2 329.3 321.4 328.1"/>
    </g>
  </g>
  <path class="st0" d="M204.5,335l-2.8-.3-24.4-35.8,39.7,4.7,30,19.9,2.3,20.8,7.9,9.9,14.7-3.7,8.2-8.8,6.2-.3-4.8,13-3.1,1.4-6.8.8.3,5.1-4.8,6.5-8.4-5.9-9,1.4-29-15.8-.3-8.8-28.7-35.7h-4.5l6.2,11,11.3,20.4Z"/>
</svg>