<svg width="32" height="32" viewBox="0 0 32 32" fill="none" xmlns="http://www.w3.org/2000/svg">
<rect x="0.5" y="0.5" width="31" height="31" rx="15.5" fill="#FFFEFF"/>
<rect x="0.5" y="0.5" width="31" height="31" rx="15.5" stroke="#00A443"/>
<path fill-rule="evenodd" clip-rule="evenodd" d="M11.2271 11.227C11.52 10.9341 11.9949 10.9341 12.2878 11.227L20.773 19.7123C21.0659 20.0052 21.0659 20.48 20.773 20.7729C20.4802 21.0658 20.0053 21.0658 19.7124 20.7729L11.2271 12.2877C10.9342 11.9948 10.9342 11.5199 11.2271 11.227Z" fill="#00A443"/>
<path fill-rule="evenodd" clip-rule="evenodd" d="M20.773 11.2271C21.0659 11.52 21.0659 11.9949 20.773 12.2878L12.2877 20.773C11.9948 21.0659 11.52 21.0659 11.2271 20.773C10.9342 20.4802 10.9342 20.0053 11.2271 19.7124L19.7123 11.2271C20.0052 10.9342 20.4801 10.9342 20.773 11.2271Z" fill="#00A443"/>
</svg>
