<svg width="24" height="24" viewBox="0 0 24 24" fill="none" xmlns="http://www.w3.org/2000/svg">
<path d="M20 22.7002C19.9 22.7002 19.8 22.7002 19.8 22.7002C16.6 22.4002 13.5 21.3002 10.8 19.5002C8.3 17.9002 6.2 15.8002 4.6 13.3002C2.9 10.6002 1.8 7.5002 1.4 4.3002C1.3 3.5002 1.5 2.8002 2 2.2002C2.5 1.6002 3.1 1.3002 3.9 1.2002C4 1.2002 4.1 1.2002 4.1 1.2002H7.1C8.5 1.2002 9.6 2.2002 9.8 3.6002C9.9 4.5002 10.1 5.4002 10.5 6.3002C10.9 7.3002 10.6 8.4002 9.9 9.2002L9 10.0002C10.2 12.0002 11.9 13.7002 13.9 14.9002L14.8 14.0002C15.6 13.2002 16.7 13.0002 17.7 13.4002C18.6 13.7002 19.4 13.9002 20.3 14.1002C21.7 14.3002 22.7 15.5002 22.7 16.9002V19.9002C22.7 20.6002 22.4 21.3002 21.9 21.8002C21.4 22.4002 20.7 22.7002 20 22.7002ZM7.1 2.8002H4C3.7 2.8002 3.4 3.0002 3.2 3.2002C2.9 3.5002 2.8 3.8002 2.9 4.1002C3.2 7.0002 4.2 9.9002 5.9 12.4002C7.4 14.7002 9.4 16.7002 11.7 18.2002C14.2 19.8002 17.1 20.8002 20 21.2002H20.1C20.4 21.2002 20.8 21.1002 21 20.8002C21.2 20.6002 21.4 20.2002 21.4 19.9002V16.9002C21.4 16.3002 21 15.7002 20.3 15.6002C19.3 15.5002 18.3 15.2002 17.3 14.9002C16.8 14.7002 16.3 14.8002 16 15.2002L14.7 16.5002C14.5 16.7002 14.1 16.8002 13.8 16.6002C11.2 15.1002 9 12.9002 7.5 10.3002C7.3 10.0002 7.3 9.60019 7.6 9.4002L8.9 8.1002C9.2 7.8002 9.3 7.2002 9.2 6.8002C8.8 5.8002 8.6 4.8002 8.5 3.8002C8.3 3.2002 7.7 2.8002 7.1 2.8002Z" fill="#00A443"/>
</svg>
