<svg width="40" height="40" viewBox="0 0 40 40" fill="none" xmlns="http://www.w3.org/2000/svg">
<path d="M31.9779 13.3851C31.7002 12.3465 30.8814 11.5277 29.8428 11.2499C27.9588 10.7451 20.4059 10.7451 20.4059 10.7451C20.4059 10.7451 12.8531 10.7451 10.9691 11.2499C9.93049 11.5277 9.11168 12.3465 8.83391 13.3851C8.3291 15.2691 8.3291 20.4066 8.3291 20.4066C8.3291 20.4066 8.3291 25.5441 8.83391 27.428C9.11168 28.4666 9.93049 29.2855 10.9691 29.5632C12.8531 30.068 20.4059 30.068 20.4059 30.068C20.4059 30.068 27.9588 30.068 29.8428 29.5632C30.8826 29.2855 31.7002 28.4666 31.9779 27.428C32.4827 25.5441 32.4827 20.4066 32.4827 20.4066C32.4827 20.4066 32.4827 15.2691 31.9779 13.3851ZM17.9906 23.5441V17.269C17.9906 16.8041 18.4942 16.5142 18.8963 16.7461L24.3309 19.8836C24.7331 20.1155 24.7331 20.6976 24.3309 20.9295L18.8963 24.0671C18.4942 24.3001 17.9906 24.0091 17.9906 23.5441Z" fill="#007F33"/>
</svg>
