<svg width="24" height="24" viewBox="0 0 24 24" fill="none" xmlns="http://www.w3.org/2000/svg">
<g clip-path="url(#clip0_12815_3440)">
<path d="M12 0.959961C5.90854 0.959961 0.959961 5.90854 0.959961 12C0.959961 13.9579 1.49693 15.7852 2.39246 17.3803L0.977773 22.4306C0.955172 22.5114 0.954151 22.5967 0.974812 22.6781C0.995472 22.7594 1.03709 22.8339 1.09552 22.8941C1.15395 22.9544 1.22715 22.9982 1.30782 23.0213C1.38849 23.0445 1.47381 23.046 1.55527 23.0259L6.82121 21.7209C8.36858 22.547 10.1244 23.04 12 23.04C18.0914 23.04 23.04 18.0914 23.04 12C23.04 5.90854 18.0914 0.959961 12 0.959961ZM12 1.91996C17.5725 1.91996 22.08 6.42738 22.08 12C22.08 17.5725 17.5725 22.08 12 22.08C10.2134 22.08 8.54018 21.6142 7.08559 20.8003C6.9792 20.7408 6.85419 20.7241 6.7359 20.7534L2.12434 21.8962L3.3609 17.4843C3.37859 17.422 3.38348 17.3567 3.37526 17.2924C3.36704 17.2281 3.34589 17.1662 3.31309 17.1103C2.42909 15.6113 1.91996 13.8672 1.91996 12C1.91996 6.42738 6.42738 1.91996 12 1.91996ZM7.9884 6.23996C7.6807 6.23996 7.24126 6.35444 6.88027 6.7434C6.66345 6.97702 5.75996 7.85733 5.75996 9.40496C5.75996 11.0185 6.87903 12.4108 7.01434 12.5896H7.01527V12.5906C7.00244 12.5737 7.18702 12.841 7.4334 13.1615C7.67978 13.482 8.02431 13.903 8.45715 14.3587C9.32281 15.2702 10.5399 16.3235 12.0506 16.9678C12.7463 17.264 13.2951 17.4429 13.7109 17.5734C14.4815 17.8154 15.1834 17.7786 15.7106 17.7009C16.1052 17.6428 16.5393 17.4533 16.9687 17.1815C17.3982 16.9098 17.819 16.5718 18.0046 16.0584C18.1376 15.6903 18.2052 15.3502 18.2296 15.0703C18.2419 14.9303 18.2434 14.8068 18.2343 14.6925C18.2252 14.5781 18.235 14.4905 18.1284 14.3156C17.9049 13.9487 17.6518 13.9391 17.3878 13.8084C17.2411 13.7358 16.8233 13.5318 16.4043 13.3321C15.9858 13.1327 15.6234 12.9561 15.4003 12.8765C15.2593 12.8258 15.0871 12.7528 14.8387 12.7809C14.5903 12.809 14.345 12.9882 14.2021 13.2C14.0668 13.4006 13.5217 14.044 13.3556 14.2331C13.3534 14.2317 13.3678 14.2384 13.3021 14.2059C13.0966 14.1042 12.8453 14.0177 12.4734 13.8215C12.1015 13.6253 11.6362 13.3356 11.1271 12.8868V12.8859C10.3694 12.2188 9.83865 11.3813 9.67121 11.1C9.68249 11.0865 9.66987 11.1028 9.69371 11.0793L9.69465 11.0784C9.86578 10.9098 10.0174 10.7085 10.1456 10.5609C10.3273 10.3516 10.4075 10.1671 10.4943 9.99465C10.6675 9.65105 10.5711 9.27296 10.4709 9.07402V9.07309C10.4778 9.08685 10.4167 8.95204 10.3509 8.79652C10.2849 8.64057 10.2008 8.43838 10.1109 8.22277C9.93118 7.79156 9.73053 7.30792 9.61121 7.02465V7.02371C9.47064 6.69005 9.28047 6.44968 9.03184 6.33371C8.7832 6.21774 8.56353 6.25071 8.55465 6.25027H8.55371C8.37628 6.24209 8.18158 6.23996 7.9884 6.23996ZM7.9884 7.19996C8.17346 7.19996 8.3559 7.20222 8.50871 7.20934C8.66591 7.21717 8.65613 7.21781 8.6259 7.20371C8.59518 7.18939 8.63686 7.18474 8.72621 7.39684C8.84305 7.67421 9.04468 8.1596 9.22496 8.59215C9.3151 8.80842 9.39946 9.01139 9.46684 9.17059C9.53421 9.32978 9.57072 9.41866 9.61309 9.5034V9.50434L9.61402 9.50527C9.65556 9.58723 9.65189 9.53476 9.63746 9.5634C9.53617 9.76444 9.52242 9.8138 9.41996 9.93184C9.26395 10.1116 9.10482 10.312 9.02059 10.395C8.94689 10.4674 8.81392 10.5801 8.7309 10.8009C8.64775 11.022 8.68656 11.3254 8.81996 11.5518C8.99758 11.8534 9.58288 12.806 10.4925 13.6068C11.0653 14.1118 11.599 14.446 12.0253 14.6709C12.4516 14.8958 12.7988 15.0271 12.8765 15.0656C13.061 15.1569 13.2627 15.2278 13.4971 15.1996C13.7316 15.1715 13.9338 15.0292 14.0625 14.8837L14.0634 14.8828C14.2347 14.6886 14.7436 14.1075 14.9878 13.7493C14.9981 13.753 14.9947 13.7502 15.0759 13.7793V13.7803H15.0768C15.1139 13.7935 15.578 14.0012 15.9918 14.1984C16.4057 14.3956 16.8257 14.6005 16.9621 14.6681C17.1591 14.7656 17.2522 14.829 17.2762 14.8293C17.2778 14.8716 17.2795 14.9173 17.2734 14.9868C17.2566 15.1796 17.205 15.4465 17.1018 15.7321C17.0513 15.872 16.788 16.1604 16.4559 16.3706C16.1238 16.5807 15.7196 16.7292 15.57 16.7512C15.1199 16.8175 14.5856 16.8417 13.9987 16.6575C13.5918 16.5297 13.0844 16.3644 12.4275 16.0846C11.0951 15.5164 9.96264 14.5495 9.15371 13.6978C8.74924 13.2719 8.42519 12.8755 8.19465 12.5756C7.96454 12.2762 7.86405 12.1205 7.78027 12.0103L7.77934 12.0093C7.63062 11.8127 6.71996 10.546 6.71996 9.40496C6.71996 8.1974 7.28084 7.72385 7.58434 7.39684C7.74367 7.22516 7.91786 7.19996 7.9884 7.19996Z" fill="#00A443"/>
</g>
<defs>
<clipPath id="clip0_12815_3440">
<rect width="24" height="24" fill="white"/>
</clipPath>
</defs>
</svg>
