<svg width="40" height="40" viewBox="0 0 40 40" fill="none" xmlns="http://www.w3.org/2000/svg">
<path d="M20.4062 8.8125C14.0036 8.8125 8.8125 14.0036 8.8125 20.4062C8.8125 22.5812 9.42343 24.609 10.4655 26.3484L8.91629 32L14.6886 30.4847C16.3768 31.4445 18.3256 32 20.4062 32C26.8089 32 32 26.8089 32 20.4062C32 14.0036 26.8089 8.8125 20.4062 8.8125ZM16.4379 14.9981C16.6263 14.9981 16.8199 14.997 16.987 15.0056C17.1938 15.0105 17.4188 15.0256 17.6342 15.5019C17.8903 16.0681 18.4478 17.4884 18.5192 17.6324C18.5907 17.7763 18.6414 17.9459 18.5419 18.1343C18.4472 18.3275 18.398 18.4445 18.2588 18.6155C18.1149 18.7817 17.9571 18.9881 17.8267 19.1137C17.6828 19.2576 17.5341 19.4155 17.7003 19.7024C17.8665 19.9893 18.4436 20.93 19.2967 21.6894C20.3933 22.6691 21.3185 22.9701 21.6064 23.1141C21.8943 23.2581 22.061 23.2356 22.2272 23.0424C22.3982 22.854 22.9454 22.2075 23.1386 21.9196C23.327 21.6317 23.5194 21.6815 23.7802 21.7762C24.0449 21.8709 25.4567 22.5663 25.7446 22.7103C26.0325 22.8542 26.2212 22.9255 26.2937 23.0424C26.3681 23.1632 26.3682 23.7381 26.1295 24.4086C25.8909 25.0781 24.719 25.7256 24.1935 25.771C23.6631 25.8203 23.168 26.0094 20.7459 25.0558C17.8243 23.9051 15.9818 20.9127 15.8378 20.7195C15.6939 20.5311 14.6679 19.1637 14.6679 17.7531C14.6679 16.3377 15.41 15.6445 15.6699 15.3566C15.9346 15.0687 16.2447 14.9981 16.4379 14.9981Z" fill="#007F33"/>
</svg>
