<svg width="40" height="40" viewBox="0 0 40 40" fill="none" xmlns="http://www.w3.org/2000/svg">
<path d="M23.84 20C23.84 20.7595 23.6148 21.5019 23.1928 22.1334C22.7709 22.7649 22.1712 23.2571 21.4695 23.5477C20.7678 23.8383 19.9957 23.9144 19.2509 23.7662C18.506 23.618 17.8217 23.2523 17.2847 22.7153C16.7477 22.1783 16.382 21.494 16.2338 20.7491C16.0856 20.0043 16.1617 19.2322 16.4523 18.5305C16.7429 17.8288 17.2351 17.2291 17.8666 16.8072C18.4981 16.3852 19.2405 16.16 20 16.16C21.0181 16.1612 21.9941 16.5661 22.714 17.286C23.4339 18.0059 23.8388 18.9819 23.84 20ZM32 14.72V25.28C31.998 27.0616 31.2893 28.7697 30.0295 30.0295C28.7697 31.2893 27.0616 31.998 25.28 32H14.72C12.9384 31.998 11.2303 31.2893 9.97047 30.0295C8.71066 28.7697 8.00202 27.0616 8 25.28V14.72C8.00202 12.9384 8.71066 11.2303 9.97047 9.97047C11.2303 8.71066 12.9384 8.00202 14.72 8H25.28C27.0616 8.00202 28.7697 8.71066 30.0295 9.97047C31.2893 11.2303 31.998 12.9384 32 14.72ZM25.76 20C25.76 18.8608 25.4222 17.7471 24.7893 16.7999C24.1563 15.8527 23.2568 15.1144 22.2043 14.6785C21.1518 14.2425 19.9936 14.1284 18.8763 14.3507C17.7589 14.5729 16.7326 15.1215 15.9271 15.9271C15.1215 16.7326 14.5729 17.7589 14.3507 18.8763C14.1284 19.9936 14.2425 21.1518 14.6785 22.2043C15.1144 23.2568 15.8527 24.1563 16.7999 24.7893C17.7471 25.4222 18.8608 25.76 20 25.76C21.5271 25.7583 22.9912 25.1509 24.071 24.071C25.1509 22.9912 25.7583 21.5271 25.76 20ZM27.68 13.76C27.68 13.4752 27.5955 13.1968 27.4373 12.96C27.2791 12.7232 27.0542 12.5386 26.7911 12.4296C26.5279 12.3206 26.2384 12.2921 25.9591 12.3477C25.6797 12.4032 25.4232 12.5404 25.2218 12.7418C25.0204 12.9432 24.8832 13.1997 24.8277 13.4791C24.7721 13.7584 24.8006 14.0479 24.9096 14.3111C25.0186 14.5742 25.2032 14.7991 25.44 14.9573C25.6768 15.1155 25.9552 15.2 26.24 15.2C26.6219 15.2 26.9882 15.0483 27.2582 14.7782C27.5283 14.5082 27.68 14.1419 27.68 13.76Z" fill="#007F33"/>
</svg>
