<svg width="24" height="24" viewBox="0 0 24 24" fill="none" xmlns="http://www.w3.org/2000/svg">
<path fill-rule="evenodd" clip-rule="evenodd" d="M7.40691 2.28065C9.60054 1.244 12.0803 0.979905 14.4431 1.5313C16.8059 2.0827 18.9126 3.41716 20.4208 5.3177C21.929 7.21825 22.7499 9.57309 22.75 11.9993V12.9994C22.75 13.9939 22.3549 14.9478 21.6517 15.651C20.9484 16.3543 19.9946 16.7494 19 16.7494C18.0054 16.7494 17.0516 16.3543 16.3484 15.651C16.1206 15.4232 15.9251 15.1692 15.7649 14.8959C14.8964 16.0231 13.533 16.7494 12 16.7494C9.37666 16.7494 7.25001 14.6227 7.25001 11.9994C7.25001 9.37603 9.37666 7.24938 12 7.24938C13.2572 7.24938 14.4004 7.73781 15.25 8.53526V7.99938C15.25 7.58517 15.5858 7.24938 16 7.24938C16.4142 7.24938 16.75 7.58517 16.75 7.99938V12.9994C16.75 13.5961 16.9871 14.1684 17.409 14.5904C17.831 15.0123 18.4033 15.2494 19 15.2494C19.5967 15.2494 20.169 15.0123 20.591 14.5904C21.013 14.1684 21.25 13.5961 21.25 12.9994V11.9994C21.25 11.9994 21.25 11.9994 21.25 11.9994C21.2499 9.91175 20.5435 7.88546 19.2458 6.25012C17.9481 4.61477 16.1353 3.46651 14.1022 2.99205C12.0691 2.51759 9.93535 2.74484 8.04781 3.63684C6.16026 4.52884 4.62998 6.03314 3.70577 7.90512C2.78157 9.77711 2.5178 11.9067 2.95737 13.9476C3.39693 15.9885 4.51396 17.8207 6.12684 19.1462C7.73972 20.4718 9.75359 21.2127 11.841 21.2486C13.9284 21.2845 15.9665 20.6132 17.624 19.3439C17.9529 19.0921 18.4236 19.1545 18.6755 19.4834C18.9273 19.8122 18.8649 20.283 18.536 20.5348C16.6097 22.01 14.2411 22.7901 11.8152 22.7484C9.3893 22.7067 7.04886 21.8456 5.17444 20.3051C3.30001 18.7646 2.00183 16.6353 1.49099 14.2634C0.980149 11.8916 1.28669 9.41664 2.36076 7.24109C3.43484 5.06553 5.21328 3.3173 7.40691 2.28065ZM15.25 11.9994C15.25 10.2045 13.7949 8.74938 12 8.74938C10.2051 8.74938 8.75001 10.2045 8.75001 11.9994C8.75001 13.7943 10.2051 15.2494 12 15.2494C13.7949 15.2494 15.25 13.7943 15.25 11.9994Z" fill="#00A443"/>
</svg>
