<svg width="27" height="26" viewBox="0 0 27 26" fill="none" xmlns="http://www.w3.org/2000/svg">
<rect x="0.25" y="0.25" width="25.5" height="25.5" rx="12.75" stroke="#1C1A16" stroke-width="0.5"/>
<mask id="path-2-outside-1_52_68" maskUnits="userSpaceOnUse" x="0.614258" y="-0.481152" width="26" height="26" fill="black">
<rect fill="white" x="0.614258" y="-0.481152" width="26" height="26"/>
<path fill-rule="evenodd" clip-rule="evenodd" d="M7.22297 0.518848L8.19258 0.889219L9.24201 1.35101L10.4206 1.9347L11.5616 2.5723L12.564 3.19583L13.4022 3.77483L14.245 4.42181L15.0151 5.08285L15.6748 5.7228L16.3486 6.46588L16.9003 7.16912L17.3933 7.90517L17.8136 8.66232L18.1469 9.41244L18.3864 10.1063L18.5766 10.8681L18.6775 11.5034L18.7151 12.0379L18.1469 10.901L17.4919 9.75L16.8839 8.81L16.2148 7.90752L15.5433 7.1363L15.0221 6.63232L14.454 6.17756L14.0995 5.94314L13.7684 5.7603L13.4585 5.62434L13.2261 5.5423L13.0078 5.4837L12.7143 5.42978L12.2635 5.40868L12.0194 5.42744L11.7447 5.47901L11.3315 5.61262L11.0897 5.72514L10.815 5.88454L10.5661 6.05566L10.3431 6.24553L10.0637 6.56434L9.86181 6.89486L9.69982 7.28632L9.58478 7.76687L9.54487 8.1724L9.54722 8.62716L9.62 9.23194L9.72095 9.68202L9.86886 10.1532L10.1013 10.6923L10.3736 11.1518L12.233 13.5123L12.7777 14.2788L13.2871 15.0946L13.6346 15.7463L13.9234 16.419L14.1229 17.0801L14.2098 17.6591L14.2168 17.9568L14.1934 18.2521L14.1464 18.5006L14.0525 18.8006L13.8506 19.2015L13.6628 19.4617L13.4632 19.6914L13.2214 19.9329L12.9162 20.1813L12.4255 20.4908L12.0922 20.6478L11.7799 20.7674L11.1484 20.9361L10.4135 21.0369L9.65756 21.058L8.81238 21.0041L8.33814 20.9408L7.76999 20.8424L6.81682 20.6197L5.87303 20.3407L4.72969 19.9375L3.72721 19.5179L5.03959 19.7149L6.14771 19.8274L7.27697 19.8813L8.30058 19.8602L9.06124 19.7875L9.83364 19.6398L10.1858 19.5367L10.498 19.4172L10.8009 19.2718L11.0615 19.103L11.2986 18.9038L11.5029 18.6717L11.6578 18.4162L11.7635 18.1513L11.8269 17.8466L11.8433 17.5231L11.8128 17.1809L11.74 16.8316L11.6625 16.5667L11.5193 16.201L11.3878 15.9947L11.1765 15.7486L10.9605 15.554L10.6319 15.3243L10.2868 15.1391L9.98859 15.0196L9.65991 14.9211L9.39696 14.8649L9.09176 14.825L8.7936 14.811L8.26536 14.8461L7.90146 14.9117L7.68078 14.9727L7.4014 15.0641L6.95298 15.2493L6.36136 15.547L5.61008 16.0065L4.3071 16.9019L3.87981 17.1457L3.56522 17.2934L3.07689 17.4575L2.6543 17.5395L2.05563 17.5676L1.61426 17.5301L2.1918 17.2512L2.71065 16.9605L3.14263 16.6886L3.59339 16.3745L4.09815 15.9783L4.47613 15.6525L4.99733 15.1532L5.36592 14.757L5.71573 14.3468L6.05381 13.9038L6.4177 13.3717L6.69004 12.9239L6.99759 12.352L7.23001 11.8574L7.43661 11.3581L7.67373 10.6783L7.79347 10.268L7.9672 9.55309L8.09398 8.85923L8.15737 8.39978L8.22075 7.74108L8.25127 7.15037L8.25597 6.51276L8.23719 5.87282L8.13154 4.64216L8.03998 3.99283L7.90851 3.22631L7.60565 1.88547L7.22297 0.518848ZM14.2591 12.0801L14.2685 12.0683L14.5667 12.6426L14.8343 13.0857L15.1395 13.5358L15.4705 13.9577L15.8321 14.3609L16.1866 14.7031L16.6655 15.0922L17.0834 15.3782L17.4544 15.5939L17.9239 15.8213L18.3301 15.9807L18.8771 16.1471L19.3325 16.2456L19.849 16.3135L20.2857 16.337L20.7858 16.3206L21.2389 17.57L21.7366 18.7233L22.0535 19.3703L22.3775 19.9774L22.9316 20.915L23.6265 21.9511L24.3848 22.9357L24.7464 23.3576L25.2206 23.8733L26.0001 24.6164L25.2511 24.2015L24.6783 23.9108L24.1665 23.6717L23.4669 23.374L22.7203 23.088L22.0676 22.8654L21.3704 22.6544L20.6966 22.4715L19.9523 22.2957L19.2598 22.1527L17.8816 21.93L17.1398 21.8433L16.3533 21.7753L15.5644 21.7355L14.7521 21.7214L14.9517 21.63L15.4212 21.5175L15.9706 21.4284L16.7336 21.3393L18.4967 21.194L20.6402 21.0791L20.6919 21.0182L20.7529 20.8682L20.7905 20.69L20.7999 20.5072L20.774 20.2493L20.7247 20.0594L20.5627 19.6563L20.2646 19.1734L20.0322 18.8733L19.8068 18.6225L19.403 18.224L18.978 17.856L18.4991 17.4786L17.445 16.7167L16.7876 16.1776L16.3674 15.7861L16.0504 15.465L15.4682 14.7781L15.2334 14.4546L14.9963 14.0843L14.8061 13.7491L14.63 13.3881L14.5174 13.1185L14.3835 12.72L14.299 12.3684L14.2591 12.0801Z"/>
</mask>
<path fill-rule="evenodd" clip-rule="evenodd" d="M7.22297 0.518848L8.19258 0.889219L9.24201 1.35101L10.4206 1.9347L11.5616 2.5723L12.564 3.19583L13.4022 3.77483L14.245 4.42181L15.0151 5.08285L15.6748 5.7228L16.3486 6.46588L16.9003 7.16912L17.3933 7.90517L17.8136 8.66232L18.1469 9.41244L18.3864 10.1063L18.5766 10.8681L18.6775 11.5034L18.7151 12.0379L18.1469 10.901L17.4919 9.75L16.8839 8.81L16.2148 7.90752L15.5433 7.1363L15.0221 6.63232L14.454 6.17756L14.0995 5.94314L13.7684 5.7603L13.4585 5.62434L13.2261 5.5423L13.0078 5.4837L12.7143 5.42978L12.2635 5.40868L12.0194 5.42744L11.7447 5.47901L11.3315 5.61262L11.0897 5.72514L10.815 5.88454L10.5661 6.05566L10.3431 6.24553L10.0637 6.56434L9.86181 6.89486L9.69982 7.28632L9.58478 7.76687L9.54487 8.1724L9.54722 8.62716L9.62 9.23194L9.72095 9.68202L9.86886 10.1532L10.1013 10.6923L10.3736 11.1518L12.233 13.5123L12.7777 14.2788L13.2871 15.0946L13.6346 15.7463L13.9234 16.419L14.1229 17.0801L14.2098 17.6591L14.2168 17.9568L14.1934 18.2521L14.1464 18.5006L14.0525 18.8006L13.8506 19.2015L13.6628 19.4617L13.4632 19.6914L13.2214 19.9329L12.9162 20.1813L12.4255 20.4908L12.0922 20.6478L11.7799 20.7674L11.1484 20.9361L10.4135 21.0369L9.65756 21.058L8.81238 21.0041L8.33814 20.9408L7.76999 20.8424L6.81682 20.6197L5.87303 20.3407L4.72969 19.9375L3.72721 19.5179L5.03959 19.7149L6.14771 19.8274L7.27697 19.8813L8.30058 19.8602L9.06124 19.7875L9.83364 19.6398L10.1858 19.5367L10.498 19.4172L10.8009 19.2718L11.0615 19.103L11.2986 18.9038L11.5029 18.6717L11.6578 18.4162L11.7635 18.1513L11.8269 17.8466L11.8433 17.5231L11.8128 17.1809L11.74 16.8316L11.6625 16.5667L11.5193 16.201L11.3878 15.9947L11.1765 15.7486L10.9605 15.554L10.6319 15.3243L10.2868 15.1391L9.98859 15.0196L9.65991 14.9211L9.39696 14.8649L9.09176 14.825L8.7936 14.811L8.26536 14.8461L7.90146 14.9117L7.68078 14.9727L7.4014 15.0641L6.95298 15.2493L6.36136 15.547L5.61008 16.0065L4.3071 16.9019L3.87981 17.1457L3.56522 17.2934L3.07689 17.4575L2.6543 17.5395L2.05563 17.5676L1.61426 17.5301L2.1918 17.2512L2.71065 16.9605L3.14263 16.6886L3.59339 16.3745L4.09815 15.9783L4.47613 15.6525L4.99733 15.1532L5.36592 14.757L5.71573 14.3468L6.05381 13.9038L6.4177 13.3717L6.69004 12.9239L6.99759 12.352L7.23001 11.8574L7.43661 11.3581L7.67373 10.6783L7.79347 10.268L7.9672 9.55309L8.09398 8.85923L8.15737 8.39978L8.22075 7.74108L8.25127 7.15037L8.25597 6.51276L8.23719 5.87282L8.13154 4.64216L8.03998 3.99283L7.90851 3.22631L7.60565 1.88547L7.22297 0.518848ZM14.2591 12.0801L14.2685 12.0683L14.5667 12.6426L14.8343 13.0857L15.1395 13.5358L15.4705 13.9577L15.8321 14.3609L16.1866 14.7031L16.6655 15.0922L17.0834 15.3782L17.4544 15.5939L17.9239 15.8213L18.3301 15.9807L18.8771 16.1471L19.3325 16.2456L19.849 16.3135L20.2857 16.337L20.7858 16.3206L21.2389 17.57L21.7366 18.7233L22.0535 19.3703L22.3775 19.9774L22.9316 20.915L23.6265 21.9511L24.3848 22.9357L24.7464 23.3576L25.2206 23.8733L26.0001 24.6164L25.2511 24.2015L24.6783 23.9108L24.1665 23.6717L23.4669 23.374L22.7203 23.088L22.0676 22.8654L21.3704 22.6544L20.6966 22.4715L19.9523 22.2957L19.2598 22.1527L17.8816 21.93L17.1398 21.8433L16.3533 21.7753L15.5644 21.7355L14.7521 21.7214L14.9517 21.63L15.4212 21.5175L15.9706 21.4284L16.7336 21.3393L18.4967 21.194L20.6402 21.0791L20.6919 21.0182L20.7529 20.8682L20.7905 20.69L20.7999 20.5072L20.774 20.2493L20.7247 20.0594L20.5627 19.6563L20.2646 19.1734L20.0322 18.8733L19.8068 18.6225L19.403 18.224L18.978 17.856L18.4991 17.4786L17.445 16.7167L16.7876 16.1776L16.3674 15.7861L16.0504 15.465L15.4682 14.7781L15.2334 14.4546L14.9963 14.0843L14.8061 13.7491L14.63 13.3881L14.5174 13.1185L14.3835 12.72L14.299 12.3684L14.2591 12.0801Z" fill="#1C1A16"/>
<path fill-rule="evenodd" clip-rule="evenodd" d="M7.22297 0.518848L8.19258 0.889219L9.24201 1.35101L10.4206 1.9347L11.5616 2.5723L12.564 3.19583L13.4022 3.77483L14.245 4.42181L15.0151 5.08285L15.6748 5.7228L16.3486 6.46588L16.9003 7.16912L17.3933 7.90517L17.8136 8.66232L18.1469 9.41244L18.3864 10.1063L18.5766 10.8681L18.6775 11.5034L18.7151 12.0379L18.1469 10.901L17.4919 9.75L16.8839 8.81L16.2148 7.90752L15.5433 7.1363L15.0221 6.63232L14.454 6.17756L14.0995 5.94314L13.7684 5.7603L13.4585 5.62434L13.2261 5.5423L13.0078 5.4837L12.7143 5.42978L12.2635 5.40868L12.0194 5.42744L11.7447 5.47901L11.3315 5.61262L11.0897 5.72514L10.815 5.88454L10.5661 6.05566L10.3431 6.24553L10.0637 6.56434L9.86181 6.89486L9.69982 7.28632L9.58478 7.76687L9.54487 8.1724L9.54722 8.62716L9.62 9.23194L9.72095 9.68202L9.86886 10.1532L10.1013 10.6923L10.3736 11.1518L12.233 13.5123L12.7777 14.2788L13.2871 15.0946L13.6346 15.7463L13.9234 16.419L14.1229 17.0801L14.2098 17.6591L14.2168 17.9568L14.1934 18.2521L14.1464 18.5006L14.0525 18.8006L13.8506 19.2015L13.6628 19.4617L13.4632 19.6914L13.2214 19.9329L12.9162 20.1813L12.4255 20.4908L12.0922 20.6478L11.7799 20.7674L11.1484 20.9361L10.4135 21.0369L9.65756 21.058L8.81238 21.0041L8.33814 20.9408L7.76999 20.8424L6.81682 20.6197L5.87303 20.3407L4.72969 19.9375L3.72721 19.5179L5.03959 19.7149L6.14771 19.8274L7.27697 19.8813L8.30058 19.8602L9.06124 19.7875L9.83364 19.6398L10.1858 19.5367L10.498 19.4172L10.8009 19.2718L11.0615 19.103L11.2986 18.9038L11.5029 18.6717L11.6578 18.4162L11.7635 18.1513L11.8269 17.8466L11.8433 17.5231L11.8128 17.1809L11.74 16.8316L11.6625 16.5667L11.5193 16.201L11.3878 15.9947L11.1765 15.7486L10.9605 15.554L10.6319 15.3243L10.2868 15.1391L9.98859 15.0196L9.65991 14.9211L9.39696 14.8649L9.09176 14.825L8.7936 14.811L8.26536 14.8461L7.90146 14.9117L7.68078 14.9727L7.4014 15.0641L6.95298 15.2493L6.36136 15.547L5.61008 16.0065L4.3071 16.9019L3.87981 17.1457L3.56522 17.2934L3.07689 17.4575L2.6543 17.5395L2.05563 17.5676L1.61426 17.5301L2.1918 17.2512L2.71065 16.9605L3.14263 16.6886L3.59339 16.3745L4.09815 15.9783L4.47613 15.6525L4.99733 15.1532L5.36592 14.757L5.71573 14.3468L6.05381 13.9038L6.4177 13.3717L6.69004 12.9239L6.99759 12.352L7.23001 11.8574L7.43661 11.3581L7.67373 10.6783L7.79347 10.268L7.9672 9.55309L8.09398 8.85923L8.15737 8.39978L8.22075 7.74108L8.25127 7.15037L8.25597 6.51276L8.23719 5.87282L8.13154 4.64216L8.03998 3.99283L7.90851 3.22631L7.60565 1.88547L7.22297 0.518848ZM14.2591 12.0801L14.2685 12.0683L14.5667 12.6426L14.8343 13.0857L15.1395 13.5358L15.4705 13.9577L15.8321 14.3609L16.1866 14.7031L16.6655 15.0922L17.0834 15.3782L17.4544 15.5939L17.9239 15.8213L18.3301 15.9807L18.8771 16.1471L19.3325 16.2456L19.849 16.3135L20.2857 16.337L20.7858 16.3206L21.2389 17.57L21.7366 18.7233L22.0535 19.3703L22.3775 19.9774L22.9316 20.915L23.6265 21.9511L24.3848 22.9357L24.7464 23.3576L25.2206 23.8733L26.0001 24.6164L25.2511 24.2015L24.6783 23.9108L24.1665 23.6717L23.4669 23.374L22.7203 23.088L22.0676 22.8654L21.3704 22.6544L20.6966 22.4715L19.9523 22.2957L19.2598 22.1527L17.8816 21.93L17.1398 21.8433L16.3533 21.7753L15.5644 21.7355L14.7521 21.7214L14.9517 21.63L15.4212 21.5175L15.9706 21.4284L16.7336 21.3393L18.4967 21.194L20.6402 21.0791L20.6919 21.0182L20.7529 20.8682L20.7905 20.69L20.7999 20.5072L20.774 20.2493L20.7247 20.0594L20.5627 19.6563L20.2646 19.1734L20.0322 18.8733L19.8068 18.6225L19.403 18.224L18.978 17.856L18.4991 17.4786L17.445 16.7167L16.7876 16.1776L16.3674 15.7861L16.0504 15.465L15.4682 14.7781L15.2334 14.4546L14.9963 14.0843L14.8061 13.7491L14.63 13.3881L14.5174 13.1185L14.3835 12.72L14.299 12.3684L14.2591 12.0801Z" stroke="#F2EEE2" stroke-width="0.7" stroke-linejoin="round" mask="url(#path-2-outside-1_52_68)"/>
</svg>
