<svg xmlns="http://www.w3.org/2000/svg" viewBox="0 0 1600 1600" width="1600" height="1600"><path fill="#000000" fill-rule="evenodd" d="M569.2 259.6 L610.5 275.4 L655.2 295.1 L705.4 320.0 L754.0 347.2 L796.7 373.8 L832.4 398.5 L868.3 426.1 L901.1 454.3 L929.2 481.6 L957.9 513.3 L981.4 543.3 L1002.4 574.7 L1020.3 607.0 L1034.5 639.0 L1044.7 668.6 L1052.8 701.1 L1057.1 728.2 L1058.7 751.0 L1034.5 702.5 L1006.6 653.4 L980.7 613.3 L952.2 574.8 L923.6 541.9 L901.4 520.4 L877.2 501.0 L862.1 491.0 L848.0 483.2 L834.8 477.4 L824.9 473.9 L815.6 471.4 L803.1 469.1 L783.9 468.2 L773.5 469.0 L761.8 471.2 L744.2 476.9 L733.9 481.7 L722.2 488.5 L711.6 495.8 L702.1 503.9 L690.2 517.5 L681.6 531.6 L674.7 548.3 L669.8 568.8 L668.1 586.1 L668.2 605.5 L671.3 631.3 L675.6 650.5 L681.9 670.6 L691.8 693.6 L703.4 713.2 L782.6 813.9 L805.8 846.6 L827.5 881.4 L842.3 909.2 L854.6 937.9 L863.1 966.1 L866.8 990.8 L867.1 1003.5 L866.1 1016.1 L864.1 1026.7 L860.1 1039.5 L851.5 1056.6 L843.5 1067.7 L835.0 1077.5 L824.7 1087.8 L811.7 1098.4 L790.8 1111.6 L776.6 1118.3 L763.3 1123.4 L736.4 1130.6 L705.1 1134.9 L672.9 1135.8 L636.9 1133.5 L616.7 1130.8 L592.5 1126.6 L551.9 1117.1 L511.7 1105.2 L463.0 1088.0 L420.3 1070.1 L476.2 1078.5 L523.4 1083.3 L571.5 1085.6 L615.1 1084.7 L647.5 1081.6 L680.4 1075.3 L695.4 1070.9 L708.7 1065.8 L721.6 1059.6 L732.7 1052.4 L742.8 1043.9 L751.5 1034.0 L758.1 1023.1 L762.6 1011.8 L765.3 998.8 L766.0 985.0 L764.7 970.4 L761.6 955.5 L758.3 944.2 L752.2 928.6 L746.6 919.8 L737.6 909.3 L728.4 901.0 L714.4 891.2 L699.7 883.3 L687.0 878.2 L673.0 874.0 L661.8 871.6 L648.8 869.9 L636.1 869.3 L613.6 870.8 L598.1 873.6 L588.7 876.2 L576.8 880.1 L557.7 888.0 L532.5 900.7 L500.5 920.3 L445.0 958.5 L426.8 968.9 L413.4 975.2 L392.6 982.2 L374.6 985.7 L349.1 986.9 L330.3 985.3 L354.9 973.4 L377.0 961.0 L395.4 949.4 L414.6 936.0 L436.1 919.1 L452.2 905.2 L474.4 883.9 L490.1 867.0 L505.0 849.5 L519.4 830.6 L534.9 807.9 L546.5 788.8 L559.6 764.4 L569.5 743.3 L578.3 722.0 L588.4 693.0 L593.5 675.5 L600.9 645.0 L606.3 615.4 L609.0 595.8 L611.7 567.7 L613.0 542.5 L613.2 515.3 L612.4 488.0 L607.9 435.5 L604.0 407.8 L598.4 375.1 L585.5 317.9 Z M868.9 752.8 L869.3 752.3 L882.0 776.8 L893.4 795.7 L906.4 814.9 L920.5 832.9 L935.9 850.1 L951.0 864.7 L971.4 881.3 L989.2 893.5 L1005.0 902.7 L1025.0 912.4 L1042.3 919.2 L1065.6 926.3 L1085.0 930.5 L1107.0 933.4 L1125.6 934.4 L1146.9 933.7 L1166.2 987.0 L1187.4 1036.2 L1200.9 1063.8 L1214.7 1089.7 L1238.3 1129.7 L1267.9 1173.9 L1300.2 1215.9 L1315.6 1233.9 L1335.8 1255.9 L1369.0 1287.6 L1337.1 1269.9 L1312.7 1257.5 L1290.9 1247.3 L1261.1 1234.6 L1229.3 1222.4 L1201.5 1212.9 L1171.8 1203.9 L1143.1 1196.1 L1111.4 1188.6 L1081.9 1182.5 L1023.2 1173.0 L991.6 1169.3 L958.1 1166.4 L924.5 1164.7 L889.9 1164.1 L898.4 1160.2 L918.4 1155.4 L941.8 1151.6 L974.3 1147.8 L1049.4 1141.6 L1140.7 1136.7 L1142.9 1134.1 L1145.5 1127.7 L1147.1 1120.1 L1147.5 1112.3 L1146.4 1101.3 L1144.3 1093.2 L1137.4 1076.0 L1124.7 1055.4 L1114.8 1042.6 L1105.2 1031.9 L1088.0 1014.9 L1069.9 999.2 L1049.5 983.1 L1004.6 950.6 L976.6 927.6 L958.7 910.9 L945.2 897.2 L920.4 867.9 L910.4 854.1 L900.3 838.3 L892.2 824.0 L884.7 808.6 L879.9 797.1 L874.2 780.1 L870.6 765.1 Z"></path></svg>