<svg width="349" height="26" viewBox="0 0 349 26" fill="none" xmlns="http://www.w3.org/2000/svg">
<path d="M323.63 12.1369C323.134 12.1369 322.681 12.0158 322.271 11.7736C321.865 11.5314 321.541 11.2072 321.298 10.801C321.056 10.3908 320.935 9.93768 320.935 9.44159C320.935 8.94549 321.056 8.49432 321.298 8.08807C321.541 7.67792 321.865 7.35175 322.271 7.10956C322.681 6.86737 323.134 6.74628 323.63 6.74628C324.126 6.74628 324.578 6.86737 324.984 7.10956C325.394 7.35175 325.72 7.67792 325.962 8.08807C326.205 8.49432 326.326 8.94549 326.326 9.44159C326.326 9.93768 326.205 10.3908 325.962 10.801C325.72 11.2072 325.394 11.5314 324.984 11.7736C324.578 12.0158 324.126 12.1369 323.63 12.1369ZM323.63 10.965C323.912 10.965 324.167 10.8967 324.398 10.7599C324.628 10.6232 324.812 10.4396 324.949 10.2092C325.085 9.9787 325.154 9.72284 325.154 9.44159C325.154 9.16034 325.085 8.90448 324.949 8.67401C324.812 8.44354 324.628 8.25995 324.398 8.12323C324.167 7.98651 323.912 7.91815 323.63 7.91815C323.349 7.91815 323.093 7.98651 322.863 8.12323C322.632 8.25995 322.449 8.44354 322.312 8.67401C322.175 8.90448 322.107 9.16034 322.107 9.44159C322.107 9.72284 322.175 9.9787 322.312 10.2092C322.449 10.4396 322.632 10.6232 322.863 10.7599C323.093 10.8967 323.349 10.965 323.63 10.965ZM330.467 20.3635V15.4182H331.545V20.3635H330.467ZM328.404 18.4182V17.3635H333.584V18.4182H328.404ZM342.334 14.814C342.796 14.814 343.214 14.9295 343.588 15.1605C343.973 15.3805 344.276 15.683 344.496 16.068C344.727 16.442 344.842 16.86 344.842 17.322C344.842 17.784 344.727 18.2075 344.496 18.5925C344.276 18.9665 343.973 19.269 343.588 19.5C343.214 19.731 342.796 19.8465 342.334 19.8465C341.872 19.8465 341.449 19.731 341.064 19.5C340.69 19.269 340.387 18.9665 340.156 18.5925C339.925 18.2075 339.81 17.784 339.81 17.322C339.81 16.86 339.925 16.442 340.156 16.068C340.387 15.683 340.69 15.3805 341.064 15.1605C341.449 14.9295 341.872 14.814 342.334 14.814ZM342.334 19.005C342.796 19.005 343.187 18.8455 343.506 18.5265C343.836 18.1965 344.001 17.795 344.001 17.322C344.001 17.025 343.924 16.75 343.77 16.497C343.627 16.244 343.429 16.0405 343.176 15.8865C342.923 15.7325 342.642 15.6555 342.334 15.6555C342.026 15.6555 341.746 15.7325 341.493 15.8865C341.24 16.0405 341.036 16.244 340.882 16.497C340.728 16.75 340.651 17.025 340.651 17.322C340.651 17.63 340.728 17.916 340.882 18.18C341.036 18.433 341.24 18.6365 341.493 18.7905C341.746 18.9335 342.026 19.005 342.334 19.005Z" fill="#1C1A16"/>
<path d="M74.326 18.84V9.84003H75.7088V18.84H74.326ZM75.0291 8.34003C74.7596 8.34003 74.5272 8.24823 74.3318 8.06464C74.1404 7.88104 74.0447 7.66034 74.0447 7.40253C74.0447 7.14471 74.1404 6.92401 74.3318 6.74042C74.5272 6.55682 74.7596 6.46503 75.0291 6.46503C75.2986 6.46503 75.5291 6.55682 75.7205 6.74042C75.9158 6.92401 76.0135 7.14471 76.0135 7.40253C76.0135 7.66034 75.9158 7.88104 75.7205 8.06464C75.5291 8.24823 75.2986 8.34003 75.0291 8.34003ZM85.6009 9.84003L82.2728 18.84H80.8665L77.5384 9.84003H79.0384L81.5228 17.0119H81.6165L84.1009 9.84003H85.6009ZM87.4261 18.84V9.84003H88.8089V18.84H87.4261ZM88.1292 8.34003C87.8597 8.34003 87.6273 8.24823 87.4319 8.06464C87.2405 7.88104 87.1448 7.66034 87.1448 7.40253C87.1448 7.14471 87.2405 6.92401 87.4319 6.74042C87.6273 6.55682 87.8597 6.46503 88.1292 6.46503C88.3987 6.46503 88.6292 6.55682 88.8206 6.74042C89.0159 6.92401 89.1136 7.14471 89.1136 7.40253C89.1136 7.66034 89.0159 7.88104 88.8206 8.06464C88.6292 8.24823 88.3987 8.34003 88.1292 8.34003ZM92.7244 13.426V18.84H91.3416V9.84003H92.6776V11.2463H92.7947C93.0057 10.7892 93.326 10.4221 93.7557 10.1447C94.1854 9.86346 94.7401 9.72284 95.4197 9.72284C96.0291 9.72284 96.5623 9.84784 97.0193 10.0978C97.4764 10.3439 97.8318 10.7189 98.0858 11.2228C98.3397 11.7228 98.4666 12.3557 98.4666 13.1213V18.84H97.0838V13.215C97.0838 12.508 96.9002 11.9572 96.533 11.5627C96.1658 11.1642 95.6619 10.965 95.0213 10.965C94.5799 10.965 94.1854 11.0607 93.8377 11.2521C93.494 11.4435 93.2225 11.7228 93.0233 12.09C92.824 12.4572 92.7244 12.9025 92.7244 13.426ZM104.626 22.4025C103.958 22.4025 103.384 22.3166 102.904 22.1447C102.423 21.9767 102.023 21.7541 101.702 21.4767C101.386 21.2033 101.134 20.9103 100.947 20.5978L102.048 19.8244C102.173 19.9885 102.331 20.176 102.523 20.3869C102.714 20.6017 102.976 20.7873 103.308 20.9435C103.644 21.1037 104.083 21.1838 104.626 21.1838C105.353 21.1838 105.952 21.008 106.425 20.6564C106.898 20.3049 107.134 19.7541 107.134 19.0041V17.176H107.017C106.915 17.34 106.771 17.5432 106.583 17.7853C106.4 18.0236 106.134 18.2365 105.786 18.424C105.443 18.6076 104.978 18.6994 104.392 18.6994C103.665 18.6994 103.013 18.5275 102.435 18.1838C101.861 17.84 101.406 17.34 101.07 16.6838C100.738 16.0275 100.572 15.2307 100.572 14.2932C100.572 13.3713 100.734 12.5685 101.058 11.8849C101.382 11.1974 101.833 10.6662 102.411 10.2912C102.99 9.91229 103.658 9.72284 104.415 9.72284C105.001 9.72284 105.466 9.8205 105.81 10.0158C106.158 10.2072 106.423 10.426 106.607 10.6721C106.794 10.9142 106.939 11.1135 107.04 11.2697H107.181V9.84003H108.517V19.0978C108.517 19.8713 108.341 20.5002 107.99 20.9846C107.642 21.4728 107.173 21.8303 106.583 22.0568C105.997 22.2873 105.345 22.4025 104.626 22.4025ZM104.579 17.4572C105.134 17.4572 105.603 17.3303 105.986 17.0764C106.368 16.8224 106.659 16.4572 106.859 15.9807C107.058 15.5041 107.158 14.9338 107.158 14.2697C107.158 13.6213 107.06 13.049 106.865 12.5529C106.669 12.0568 106.38 11.6682 105.997 11.3869C105.615 11.1057 105.142 10.965 104.579 10.965C103.993 10.965 103.505 11.1135 103.115 11.4103C102.728 11.7072 102.437 12.1057 102.242 12.6057C102.05 13.1057 101.954 13.6603 101.954 14.2697C101.954 14.8947 102.052 15.4474 102.247 15.9279C102.447 16.4045 102.74 16.7795 103.126 17.0529C103.517 17.3224 104.001 17.4572 104.579 17.4572ZM115.689 18.84V9.84003H117.072V18.84H115.689ZM116.392 8.34003C116.122 8.34003 115.89 8.24823 115.695 8.06464C115.503 7.88104 115.408 7.66034 115.408 7.40253C115.408 7.14471 115.503 6.92401 115.695 6.74042C115.89 6.55682 116.122 6.46503 116.392 6.46503C116.661 6.46503 116.892 6.55682 117.083 6.74042C117.279 6.92401 117.376 7.14471 117.376 7.40253C117.376 7.66034 117.279 7.88104 117.083 8.06464C116.892 8.24823 116.661 8.34003 116.392 8.34003ZM120.987 13.426V18.84H119.604V9.84003H120.94V11.2463H121.057C121.268 10.7892 121.589 10.4221 122.018 10.1447C122.448 9.86346 123.003 9.72284 123.682 9.72284C124.292 9.72284 124.825 9.84784 125.282 10.0978C125.739 10.3439 126.095 10.7189 126.348 11.2228C126.602 11.7228 126.729 12.3557 126.729 13.1213V18.84H125.346V13.215C125.346 12.508 125.163 11.9572 124.796 11.5627C124.429 11.1642 123.925 10.965 123.284 10.965C122.843 10.965 122.448 11.0607 122.1 11.2521C121.757 11.4435 121.485 11.7228 121.286 12.09C121.087 12.4572 120.987 12.9025 120.987 13.426ZM133.17 9.84003V11.0119H128.506V9.84003H133.17ZM129.866 7.68378H131.248V16.2619C131.248 16.6525 131.305 16.9455 131.418 17.1408C131.535 17.3322 131.684 17.4611 131.864 17.5275C132.047 17.59 132.241 17.6213 132.444 17.6213C132.596 17.6213 132.721 17.6135 132.819 17.5978C132.916 17.5783 132.994 17.5627 133.053 17.551L133.334 18.7932C133.241 18.8283 133.11 18.8635 132.942 18.8986C132.774 18.9377 132.561 18.9572 132.303 18.9572C131.912 18.9572 131.53 18.8732 131.155 18.7053C130.784 18.5373 130.475 18.2814 130.229 17.9377C129.987 17.5939 129.866 17.1603 129.866 16.6369V7.68378ZM138.81 19.0275C137.997 19.0275 137.284 18.8342 136.671 18.4474C136.062 18.0607 135.585 17.5197 135.242 16.8244C134.902 16.1291 134.732 15.3166 134.732 14.3869C134.732 13.4494 134.902 12.631 135.242 11.9318C135.585 11.2326 136.062 10.6896 136.671 10.3029C137.284 9.9162 137.997 9.72284 138.81 9.72284C139.622 9.72284 140.333 9.9162 140.943 10.3029C141.556 10.6896 142.033 11.2326 142.372 11.9318C142.716 12.631 142.888 13.4494 142.888 14.3869C142.888 15.3166 142.716 16.1291 142.372 16.8244C142.033 17.5197 141.556 18.0607 140.943 18.4474C140.333 18.8342 139.622 19.0275 138.81 19.0275ZM138.81 17.7853C139.427 17.7853 139.935 17.6271 140.333 17.3107C140.732 16.9943 141.027 16.5783 141.218 16.0627C141.409 15.5471 141.505 14.9885 141.505 14.3869C141.505 13.7853 141.409 13.2248 141.218 12.7053C141.027 12.1857 140.732 11.7658 140.333 11.4455C139.935 11.1252 139.427 10.965 138.81 10.965C138.193 10.965 137.685 11.1252 137.286 11.4455C136.888 11.7658 136.593 12.1857 136.402 12.7053C136.21 13.2248 136.115 13.7853 136.115 14.3869C136.115 14.9885 136.21 15.5471 136.402 16.0627C136.593 16.5783 136.888 16.9943 137.286 17.3107C137.685 17.6271 138.193 17.7853 138.81 17.7853ZM153.554 9.84003V11.0119H148.889V9.84003H153.554ZM150.249 7.68378H151.632V16.2619C151.632 16.6525 151.688 16.9455 151.802 17.1408C151.919 17.3322 152.067 17.4611 152.247 17.5275C152.43 17.59 152.624 17.6213 152.827 17.6213C152.979 17.6213 153.104 17.6135 153.202 17.5978C153.3 17.5783 153.378 17.5627 153.436 17.551L153.718 18.7932C153.624 18.8283 153.493 18.8635 153.325 18.8986C153.157 18.9377 152.944 18.9572 152.686 18.9572C152.296 18.9572 151.913 18.8732 151.538 18.7053C151.167 18.5373 150.858 18.2814 150.612 17.9377C150.37 17.5939 150.249 17.1603 150.249 16.6369V7.68378ZM157.21 13.426V18.84H155.827V6.84003H157.21V11.2463H157.327C157.538 10.7814 157.854 10.4123 158.276 10.1389C158.702 9.86151 159.268 9.72284 159.975 9.72284C160.589 9.72284 161.126 9.84589 161.587 10.092C162.048 10.3342 162.405 10.7072 162.659 11.2111C162.917 11.7111 163.046 12.3478 163.046 13.1213V18.84H161.663V13.215C161.663 12.5002 161.477 11.9474 161.106 11.5568C160.739 11.1623 160.229 10.965 159.577 10.965C159.124 10.965 158.718 11.0607 158.358 11.2521C158.003 11.4435 157.721 11.7228 157.514 12.09C157.311 12.4572 157.21 12.9025 157.21 13.426ZM169.349 19.0275C168.482 19.0275 167.734 18.8361 167.105 18.4533C166.48 18.0666 165.997 17.5275 165.658 16.8361C165.322 16.1408 165.154 15.3322 165.154 14.4103C165.154 13.4885 165.322 12.676 165.658 11.9728C165.997 11.2658 166.47 10.715 167.076 10.3205C167.685 9.92206 168.396 9.72284 169.208 9.72284C169.677 9.72284 170.14 9.80096 170.597 9.95721C171.054 10.1135 171.47 10.3674 171.845 10.7189C172.22 11.0666 172.519 11.5275 172.742 12.1017C172.964 12.676 173.076 13.383 173.076 14.2228V14.8088H166.138V13.6135H171.669C171.669 13.1057 171.568 12.6525 171.365 12.2541C171.165 11.8557 170.88 11.5412 170.509 11.3107C170.142 11.0803 169.708 10.965 169.208 10.965C168.658 10.965 168.181 11.1017 167.779 11.3752C167.38 11.6447 167.074 11.9963 166.859 12.4299C166.644 12.8635 166.536 13.3283 166.536 13.8244V14.6213C166.536 15.301 166.654 15.8771 166.888 16.3498C167.126 16.8185 167.456 17.176 167.878 17.4221C168.3 17.6642 168.79 17.7853 169.349 17.7853C169.712 17.7853 170.04 17.7346 170.333 17.633C170.63 17.5275 170.886 17.3713 171.101 17.1642C171.316 16.9533 171.482 16.6916 171.599 16.3791L172.935 16.7541C172.794 17.2072 172.558 17.6057 172.226 17.9494C171.894 18.2892 171.484 18.5549 170.995 18.7463C170.507 18.9338 169.958 19.0275 169.349 19.0275ZM182.984 18.9982C182.277 18.9982 181.644 18.8166 181.085 18.4533C180.527 18.09 180.085 17.5627 179.761 16.8713C179.437 16.1799 179.275 15.34 179.275 14.3517C179.275 13.3517 179.439 12.508 179.767 11.8205C180.099 11.1291 180.546 10.6076 181.109 10.256C181.671 9.90057 182.298 9.72284 182.99 9.72284C183.517 9.72284 183.951 9.81268 184.29 9.99237C184.63 10.1682 184.9 10.381 185.099 10.631C185.298 10.8771 185.452 11.1096 185.562 11.3283H185.65V6.84003H187.777V18.84H185.691V17.4221H185.562C185.452 17.6408 185.294 17.8732 185.087 18.1193C184.88 18.3615 184.607 18.5685 184.267 18.7404C183.927 18.9123 183.499 18.9982 182.984 18.9982ZM183.576 17.258C184.025 17.258 184.408 17.1369 184.724 16.8947C185.04 16.6486 185.281 16.3068 185.445 15.8693C185.609 15.4318 185.691 14.9221 185.691 14.34C185.691 13.758 185.609 13.2521 185.445 12.8224C185.284 12.3928 185.046 12.0588 184.73 11.8205C184.417 11.5822 184.033 11.4631 183.576 11.4631C183.103 11.4631 182.708 11.5861 182.392 11.8322C182.076 12.0783 181.837 12.4182 181.677 12.8517C181.517 13.2853 181.437 13.7814 181.437 14.34C181.437 14.9025 181.517 15.4045 181.677 15.8459C181.841 16.2834 182.081 16.6291 182.398 16.883C182.718 17.133 183.111 17.258 183.576 17.258ZM190.037 18.84V9.84003H192.158V18.84H190.037ZM191.103 8.56268C190.767 8.56268 190.478 8.45135 190.236 8.2287C189.994 8.00214 189.873 7.73065 189.873 7.41425C189.873 7.09393 189.994 6.82245 190.236 6.59979C190.478 6.37323 190.767 6.25995 191.103 6.25995C191.443 6.25995 191.732 6.37323 191.971 6.59979C192.213 6.82245 192.334 7.09393 192.334 7.41425C192.334 7.73065 192.213 8.00214 191.971 8.2287C191.732 8.45135 191.443 8.56268 191.103 8.56268ZM198.253 22.4025C197.492 22.4025 196.837 22.299 196.29 22.092C195.743 21.8889 195.304 21.6154 194.972 21.2717C194.64 20.9279 194.409 20.5471 194.281 20.1291L196.191 19.6662C196.277 19.842 196.402 20.0158 196.566 20.1877C196.73 20.3635 196.951 20.508 197.228 20.6213C197.509 20.7385 197.863 20.7971 198.288 20.7971C198.89 20.7971 199.388 20.6506 199.783 20.3576C200.177 20.0685 200.374 19.592 200.374 18.9279V17.2228H200.269C200.159 17.4416 199.999 17.6662 199.788 17.8967C199.581 18.1271 199.306 18.3205 198.962 18.4767C198.622 18.633 198.195 18.7111 197.679 18.7111C196.988 18.7111 196.361 18.549 195.798 18.2248C195.24 17.8967 194.794 17.4084 194.462 16.7599C194.134 16.1076 193.97 15.2912 193.97 14.3107C193.97 13.3224 194.134 12.4885 194.462 11.8088C194.794 11.1252 195.242 10.6076 195.804 10.256C196.367 9.90057 196.993 9.72284 197.685 9.72284C198.212 9.72284 198.646 9.81268 198.986 9.99237C199.329 10.1682 199.603 10.381 199.806 10.631C200.009 10.8771 200.163 11.1096 200.269 11.3283H200.386V9.84003H202.478V18.9865C202.478 19.756 202.294 20.3928 201.927 20.8967C201.56 21.4006 201.058 21.7775 200.421 22.0275C199.784 22.2775 199.062 22.4025 198.253 22.4025ZM198.271 17.0471C198.72 17.0471 199.103 16.9377 199.419 16.7189C199.736 16.5002 199.976 16.1857 200.14 15.7756C200.304 15.3654 200.386 14.8732 200.386 14.299C200.386 13.7326 200.304 13.2365 200.14 12.8107C199.98 12.3849 199.742 12.0549 199.425 11.8205C199.113 11.5822 198.728 11.4631 198.271 11.4631C197.798 11.4631 197.404 11.5861 197.087 11.8322C196.771 12.0783 196.533 12.4162 196.372 12.8459C196.212 13.2717 196.132 13.756 196.132 14.299C196.132 14.8498 196.212 15.3322 196.372 15.7463C196.536 16.1564 196.777 16.4767 197.093 16.7072C197.413 16.9338 197.806 17.0471 198.271 17.0471ZM204.652 18.84V9.84003H206.773V18.84H204.652ZM205.718 8.56268C205.382 8.56268 205.093 8.45135 204.851 8.2287C204.609 8.00214 204.488 7.73065 204.488 7.41425C204.488 7.09393 204.609 6.82245 204.851 6.59979C205.093 6.37323 205.382 6.25995 205.718 6.25995C206.058 6.25995 206.347 6.37323 206.585 6.59979C206.827 6.82245 206.949 7.09393 206.949 7.41425C206.949 7.73065 206.827 8.00214 206.585 8.2287C206.347 8.45135 206.058 8.56268 205.718 8.56268ZM213.448 9.84003V11.4807H208.274V9.84003H213.448ZM209.552 7.68378H211.673V16.133C211.673 16.4182 211.716 16.6369 211.802 16.7892C211.891 16.9377 212.009 17.0392 212.153 17.0939C212.298 17.1486 212.458 17.176 212.634 17.176C212.766 17.176 212.888 17.1662 212.997 17.1467C213.11 17.1271 213.196 17.1096 213.255 17.0939L213.612 18.7521C213.499 18.7912 213.337 18.8342 213.126 18.881C212.919 18.9279 212.665 18.9553 212.364 18.9631C211.833 18.9787 211.354 18.8986 210.929 18.7228C210.503 18.5432 210.165 18.2658 209.915 17.8908C209.669 17.5158 209.548 17.0471 209.552 16.4846V7.68378ZM217.812 19.0217C217.242 19.0217 216.728 18.9201 216.271 18.717C215.818 18.5099 215.458 18.2053 215.193 17.8029C214.931 17.4006 214.8 16.9045 214.8 16.3146C214.8 15.8068 214.894 15.3869 215.081 15.0549C215.269 14.7228 215.525 14.4572 215.849 14.258C216.173 14.0588 216.538 13.9084 216.945 13.8068C217.355 13.7014 217.779 13.6252 218.216 13.5783C218.743 13.5236 219.171 13.4748 219.499 13.4318C219.827 13.3849 220.066 13.3146 220.214 13.2209C220.367 13.1232 220.443 12.9728 220.443 12.7697V12.7346C220.443 12.2932 220.312 11.9514 220.05 11.7092C219.788 11.467 219.411 11.3459 218.919 11.3459C218.4 11.3459 217.988 11.4592 217.683 11.6857C217.382 11.9123 217.179 12.1799 217.074 12.4885L215.093 12.2072C215.249 11.6603 215.507 11.2033 215.867 10.8361C216.226 10.465 216.665 10.1877 217.185 10.0041C217.704 9.81659 218.279 9.72284 218.908 9.72284C219.341 9.72284 219.773 9.77362 220.202 9.87518C220.632 9.97675 221.025 10.1447 221.38 10.3791C221.736 10.6096 222.021 10.924 222.236 11.3224C222.454 11.7209 222.564 12.2189 222.564 12.8166V18.84H220.525V17.6037H220.454C220.326 17.8537 220.144 18.0881 219.909 18.3068C219.679 18.5217 219.388 18.6955 219.036 18.8283C218.689 18.9572 218.281 19.0217 217.812 19.0217ZM218.363 17.4631C218.788 17.4631 219.158 17.3791 219.47 17.2111C219.783 17.0392 220.023 16.8127 220.191 16.5314C220.363 16.2502 220.449 15.9435 220.449 15.6115V14.551C220.382 14.6057 220.269 14.6564 220.109 14.7033C219.952 14.7502 219.777 14.7912 219.581 14.8264C219.386 14.8615 219.193 14.8928 219.001 14.9201C218.81 14.9474 218.644 14.9709 218.503 14.9904C218.187 15.0334 217.904 15.1037 217.654 15.2014C217.404 15.299 217.206 15.4357 217.062 15.6115C216.917 15.7834 216.845 16.006 216.845 16.2795C216.845 16.6701 216.988 16.965 217.273 17.1642C217.558 17.3635 217.921 17.4631 218.363 17.4631ZM226.818 6.84003V18.84H224.697V6.84003H226.818ZM235.681 19.0217C235.111 19.0217 234.597 18.9201 234.14 18.717C233.687 18.5099 233.328 18.2053 233.062 17.8029C232.801 17.4006 232.67 16.9045 232.67 16.3146C232.67 15.8068 232.763 15.3869 232.951 15.0549C233.138 14.7228 233.394 14.4572 233.719 14.258C234.043 14.0588 234.408 13.9084 234.814 13.8068C235.224 13.7014 235.648 13.6252 236.086 13.5783C236.613 13.5236 237.041 13.4748 237.369 13.4318C237.697 13.3849 237.935 13.3146 238.084 13.2209C238.236 13.1232 238.312 12.9728 238.312 12.7697V12.7346C238.312 12.2932 238.181 11.9514 237.92 11.7092C237.658 11.467 237.281 11.3459 236.789 11.3459C236.269 11.3459 235.857 11.4592 235.553 11.6857C235.252 11.9123 235.049 12.1799 234.943 12.4885L232.963 12.2072C233.119 11.6603 233.377 11.2033 233.736 10.8361C234.096 10.465 234.535 10.1877 235.055 10.0041C235.574 9.81659 236.148 9.72284 236.777 9.72284C237.211 9.72284 237.642 9.77362 238.072 9.87518C238.502 9.97675 238.894 10.1447 239.25 10.3791C239.605 10.6096 239.89 10.924 240.105 11.3224C240.324 11.7209 240.433 12.2189 240.433 12.8166V18.84H238.394V17.6037H238.324C238.195 17.8537 238.013 18.0881 237.779 18.3068C237.549 18.5217 237.258 18.6955 236.906 18.8283C236.558 18.9572 236.15 19.0217 235.681 19.0217ZM236.232 17.4631C236.658 17.4631 237.027 17.3791 237.34 17.2111C237.652 17.0392 237.892 16.8127 238.06 16.5314C238.232 16.2502 238.318 15.9435 238.318 15.6115V14.551C238.252 14.6057 238.138 14.6564 237.978 14.7033C237.822 14.7502 237.646 14.7912 237.451 14.8264C237.256 14.8615 237.062 14.8928 236.871 14.9201C236.68 14.9474 236.513 14.9709 236.373 14.9904C236.056 15.0334 235.773 15.1037 235.523 15.2014C235.273 15.299 235.076 15.4357 234.931 15.6115C234.787 15.7834 234.715 16.006 234.715 16.2795C234.715 16.6701 234.857 16.965 235.142 17.1642C235.428 17.3635 235.791 17.4631 236.232 17.4631ZM242.566 18.84V9.84003H244.623V11.34H244.717C244.881 10.8205 245.162 10.4201 245.56 10.1389C245.963 9.8537 246.422 9.71112 246.937 9.71112C247.055 9.71112 247.185 9.71698 247.33 9.7287C247.478 9.73651 247.601 9.75018 247.699 9.76971V11.7209C247.609 11.6896 247.467 11.6623 247.271 11.6389C247.08 11.6115 246.894 11.5978 246.715 11.5978C246.328 11.5978 245.98 11.6818 245.672 11.8498C245.367 12.0139 245.127 12.2424 244.951 12.5353C244.775 12.8283 244.687 13.1662 244.687 13.549V18.84H242.566ZM254.086 9.84003V11.4807H248.912V9.84003H254.086ZM250.189 7.68378H252.31V16.133C252.31 16.4182 252.353 16.6369 252.439 16.7892C252.529 16.9377 252.646 17.0392 252.791 17.0939C252.935 17.1486 253.096 17.176 253.271 17.176C253.404 17.176 253.525 17.1662 253.635 17.1467C253.748 17.1271 253.834 17.1096 253.892 17.0939L254.25 18.7521C254.137 18.7912 253.974 18.8342 253.763 18.881C253.556 18.9279 253.303 18.9553 253.002 18.9631C252.471 18.9787 251.992 18.8986 251.566 18.7228C251.14 18.5432 250.803 18.2658 250.553 17.8908C250.306 17.5158 250.185 17.0471 250.189 16.4846V7.68378ZM263.878 19.0158C262.999 19.0158 262.238 18.8224 261.593 18.4357C260.949 18.049 260.449 17.508 260.093 16.8127C259.742 16.1174 259.566 15.3049 259.566 14.3752C259.566 13.4455 259.742 12.631 260.093 11.9318C260.449 11.2326 260.949 10.6896 261.593 10.3029C262.238 9.9162 262.999 9.72284 263.878 9.72284C264.757 9.72284 265.519 9.9162 266.163 10.3029C266.808 10.6896 267.306 11.2326 267.658 11.9318C268.013 12.631 268.191 13.4455 268.191 14.3752C268.191 15.3049 268.013 16.1174 267.658 16.8127C267.306 17.508 266.808 18.049 266.163 18.4357C265.519 18.8224 264.757 19.0158 263.878 19.0158ZM263.89 17.3166C264.367 17.3166 264.765 17.1857 265.085 16.924C265.406 16.6584 265.644 16.3029 265.8 15.8576C265.96 15.4123 266.04 14.9162 266.04 14.3693C266.04 13.8185 265.96 13.3205 265.8 12.8752C265.644 12.426 265.406 12.0685 265.085 11.8029C264.765 11.5373 264.367 11.4045 263.89 11.4045C263.402 11.4045 262.995 11.5373 262.671 11.8029C262.351 12.0685 262.111 12.426 261.951 12.8752C261.794 13.3205 261.716 13.8185 261.716 14.3693C261.716 14.9162 261.794 15.4123 261.951 15.8576C262.111 16.3029 262.351 16.6584 262.671 16.924C262.995 17.1857 263.402 17.3166 263.89 17.3166ZM273.917 19.0158C273.018 19.0158 272.247 18.8185 271.602 18.424C270.962 18.0295 270.468 17.4846 270.12 16.7892C269.776 16.09 269.604 15.2853 269.604 14.3752C269.604 13.4611 269.78 12.6545 270.132 11.9553C270.483 11.2521 270.979 10.7053 271.62 10.3146C272.264 9.9201 273.026 9.72284 273.905 9.72284C274.636 9.72284 275.282 9.8576 275.845 10.1271C276.411 10.3928 276.862 10.7697 277.198 11.258C277.534 11.7424 277.725 12.3088 277.772 12.9572H275.745C275.663 12.5236 275.468 12.1623 275.159 11.8732C274.854 11.5803 274.446 11.4338 273.934 11.4338C273.501 11.4338 273.12 11.551 272.792 11.7853C272.464 12.0158 272.208 12.3478 272.024 12.7814C271.845 13.215 271.755 13.7346 271.755 14.34C271.755 14.9533 271.845 15.4807 272.024 15.9221C272.204 16.3596 272.456 16.6974 272.78 16.9357C273.108 17.1701 273.493 17.2873 273.934 17.2873C274.247 17.2873 274.526 17.2287 274.772 17.1115C275.022 16.9904 275.231 16.8166 275.399 16.59C275.567 16.3635 275.682 16.0881 275.745 15.7639H277.772C277.721 16.4006 277.534 16.965 277.21 17.4572C276.886 17.9455 276.444 18.3283 275.886 18.6057C275.327 18.8791 274.671 19.0158 273.917 19.0158ZM283.498 19.0158C282.596 19.0158 281.817 18.8283 281.16 18.4533C280.508 18.0744 280.006 17.5392 279.655 16.8478C279.303 16.1525 279.127 15.3342 279.127 14.3928C279.127 13.467 279.303 12.6545 279.655 11.9553C280.01 11.2521 280.506 10.7053 281.143 10.3146C281.78 9.9201 282.528 9.72284 283.387 9.72284C283.942 9.72284 284.465 9.81268 284.957 9.99237C285.453 10.1682 285.891 10.4416 286.27 10.8127C286.653 11.1838 286.953 11.6564 287.172 12.2307C287.391 12.801 287.5 13.4807 287.5 14.2697V14.9201H280.123V13.4904H285.467C285.463 13.0842 285.375 12.7228 285.203 12.4064C285.032 12.0861 284.791 11.8342 284.483 11.6506C284.178 11.467 283.823 11.3752 283.416 11.3752C282.983 11.3752 282.602 11.4807 282.274 11.6916C281.946 11.8986 281.69 12.1721 281.506 12.5119C281.326 12.8478 281.235 13.217 281.231 13.6193V14.8674C281.231 15.3908 281.326 15.84 281.518 16.215C281.709 16.5861 281.977 16.8713 282.321 17.0705C282.664 17.2658 283.067 17.3635 283.528 17.3635C283.836 17.3635 284.116 17.3205 284.366 17.2346C284.616 17.1447 284.832 17.0139 285.016 16.842C285.2 16.6701 285.338 16.4572 285.432 16.2033L287.412 16.426C287.287 16.9494 287.049 17.4064 286.698 17.7971C286.35 18.1838 285.905 18.4846 285.362 18.6994C284.819 18.9103 284.198 19.0158 283.498 19.0158ZM291.885 19.0217C291.314 19.0217 290.801 18.9201 290.344 18.717C289.89 18.5099 289.531 18.2053 289.265 17.8029C289.004 17.4006 288.873 16.9045 288.873 16.3146C288.873 15.8068 288.967 15.3869 289.154 15.0549C289.342 14.7228 289.597 14.4572 289.922 14.258C290.246 14.0588 290.611 13.9084 291.017 13.8068C291.428 13.7014 291.851 13.6252 292.289 13.5783C292.816 13.5236 293.244 13.4748 293.572 13.4318C293.9 13.3849 294.138 13.3146 294.287 13.2209C294.439 13.1232 294.515 12.9728 294.515 12.7697V12.7346C294.515 12.2932 294.385 11.9514 294.123 11.7092C293.861 11.467 293.484 11.3459 292.992 11.3459C292.472 11.3459 292.06 11.4592 291.756 11.6857C291.455 11.9123 291.252 12.1799 291.146 12.4885L289.166 12.2072C289.322 11.6603 289.58 11.2033 289.939 10.8361C290.299 10.465 290.738 10.1877 291.258 10.0041C291.777 9.81659 292.351 9.72284 292.98 9.72284C293.414 9.72284 293.846 9.77362 294.275 9.87518C294.705 9.97675 295.097 10.1447 295.453 10.3791C295.808 10.6096 296.094 10.924 296.308 11.3224C296.527 11.7209 296.637 12.2189 296.637 12.8166V18.84H294.597V17.6037H294.527C294.398 17.8537 294.217 18.0881 293.982 18.3068C293.752 18.5217 293.461 18.6955 293.109 18.8283C292.762 18.9572 292.353 19.0217 291.885 19.0217ZM292.435 17.4631C292.861 17.4631 293.23 17.3791 293.543 17.2111C293.855 17.0392 294.096 16.8127 294.263 16.5314C294.435 16.2502 294.521 15.9435 294.521 15.6115V14.551C294.455 14.6057 294.342 14.6564 294.181 14.7033C294.025 14.7502 293.849 14.7912 293.654 14.8264C293.459 14.8615 293.265 14.8928 293.074 14.9201C292.883 14.9474 292.717 14.9709 292.576 14.9904C292.26 15.0334 291.976 15.1037 291.726 15.2014C291.476 15.299 291.279 15.4357 291.135 15.6115C290.99 15.7834 290.918 16.006 290.918 16.2795C290.918 16.6701 291.06 16.965 291.346 17.1642C291.631 17.3635 291.994 17.4631 292.435 17.4631ZM300.89 13.5666V18.84H298.769V9.84003H300.797V11.3693H300.902C301.109 10.8654 301.439 10.465 301.892 10.1682C302.349 9.87128 302.914 9.72284 303.586 9.72284C304.207 9.72284 304.748 9.85565 305.209 10.1213C305.674 10.3869 306.033 10.7717 306.287 11.2756C306.545 11.7795 306.672 12.3908 306.668 13.1096V18.84H304.547V13.4377C304.547 12.8361 304.39 12.3654 304.078 12.0256C303.769 11.6857 303.342 11.5158 302.795 11.5158C302.424 11.5158 302.094 11.5978 301.805 11.7619C301.519 11.9221 301.295 12.1545 301.131 12.4592C300.971 12.7639 300.89 13.133 300.89 13.5666Z" fill="#1C1A16"/>
<path d="M44.0647 25.68C43.1687 25.68 42.3367 25.584 41.5687 25.392C40.8007 25.168 40.4167 24.816 40.4167 24.336C40.4167 24.016 40.5927 23.728 40.9447 23.472C41.3287 23.216 41.7767 23.024 42.2887 22.896C42.8327 22.736 43.3127 22.656 43.7287 22.656C45.1047 22.656 46.4327 22.864 47.7127 23.28C48.9927 23.664 50.3047 24.064 51.6487 24.48C53.0247 24.864 54.4967 25.056 56.0647 25.056C57.9847 25.056 59.8247 24.656 61.5847 23.856C63.3447 23.056 64.9127 21.968 66.2887 20.592C67.6647 19.216 68.7367 17.664 69.5047 15.936C70.3047 14.176 70.7047 12.352 70.7047 10.464C70.7047 8.448 70.3527 6.688 69.6487 5.184C68.9767 3.68 67.8887 2.512 66.3847 1.68C64.9127 0.848001 62.9927 0.432 60.6247 0.432C58.8327 0.432 57.0887 0.8 55.3927 1.536C53.6967 2.24 52.1767 3.168 50.8327 4.32C49.4887 5.44 48.4167 6.656 47.6167 7.968C46.8167 9.28 46.4167 10.512 46.4167 11.664C46.4167 12.272 46.6567 12.896 47.1367 13.536C47.6167 14.176 48.4487 14.496 49.6327 14.496C50.7527 14.496 51.9687 14.208 53.2807 13.632C54.5927 13.024 55.8407 12.224 57.0247 11.232C58.2407 10.208 59.2807 9.072 60.1447 7.824C61.0087 6.544 61.5367 5.232 61.7287 3.888C61.7927 3.472 61.8887 3.28 62.0167 3.312C62.1447 3.344 62.2087 3.536 62.2087 3.888C62.2087 5.264 61.8567 6.624 61.1527 7.968C60.4487 9.28 59.5207 10.464 58.3687 11.52C57.2167 12.576 55.9367 13.424 54.5287 14.064C53.1527 14.704 51.7607 15.024 50.3527 15.024C49.1047 15.024 48.1127 14.816 47.3767 14.4C46.6407 13.984 46.1127 13.472 45.7927 12.864C45.4727 12.224 45.3127 11.6 45.3127 10.992C45.3127 9.776 45.6807 8.528 46.4167 7.248C47.1847 5.936 48.2407 4.736 49.5847 3.648C50.9607 2.56 52.5607 1.68 54.3847 1.008C56.2407 0.336 58.2407 0 60.3847 0C62.3687 0 64.0807 0.272 65.5207 0.816001C66.9607 1.328 68.1447 2.048 69.0727 2.976C70.0007 3.872 70.6887 4.928 71.1367 6.144C71.6167 7.328 71.8567 8.592 71.8567 9.936C71.8567 12.176 71.4247 14.256 70.5607 16.176C69.7287 18.064 68.5767 19.712 67.1047 21.12C65.6327 22.528 63.9527 23.632 62.0647 24.432C60.1767 25.2 58.2087 25.584 56.1607 25.584C54.6567 25.584 53.2487 25.424 51.9367 25.104C50.6247 24.752 49.3447 24.4 48.0967 24.048C46.8807 23.696 45.5847 23.52 44.2087 23.52C43.9207 23.52 43.5047 23.536 42.9607 23.568C42.4487 23.6 41.9847 23.68 41.5687 23.808C41.1527 23.904 40.9447 24.08 40.9447 24.336C40.9447 24.56 41.1367 24.736 41.5207 24.864C41.9047 24.992 42.3527 25.072 42.8647 25.104C43.3767 25.136 43.7927 25.152 44.1127 25.152C45.5847 25.152 46.9927 24.88 48.3367 24.336C49.6807 23.76 50.9767 22.976 52.2247 21.984C53.4727 20.992 54.6567 19.872 55.7767 18.624C56.9287 17.344 58.0327 16 59.0887 14.592C60.4327 12.768 61.8727 11.04 63.4087 9.408C64.9447 7.776 66.5127 6.336 68.1127 5.088C69.7127 3.808 71.2807 2.816 72.8167 2.112C74.3527 1.376 75.7927 1.008 77.1367 1.008C77.5527 1.008 77.7127 1.088 77.6167 1.248C77.5207 1.376 77.3447 1.44 77.0887 1.44C76.0007 1.44 74.8327 1.808 73.5847 2.544C72.3367 3.28 71.0567 4.272 69.7447 5.52C68.4647 6.768 67.2327 8.144 66.0487 9.648C64.8647 11.152 63.7927 12.672 62.8327 14.208C62.0327 15.488 61.0407 16.8 59.8567 18.144C58.6727 19.488 57.2967 20.736 55.7287 21.888C54.1607 23.008 52.4007 23.92 50.4487 24.624C48.4967 25.328 46.3687 25.68 44.0647 25.68Z" fill="#1C1A16"/>
<path d="M3.0855 14.814C3.5475 14.814 3.9655 14.9295 4.3395 15.1605C4.7245 15.3805 5.027 15.683 5.247 16.068C5.478 16.442 5.5935 16.86 5.5935 17.322C5.5935 17.784 5.478 18.2075 5.247 18.5925C5.027 18.9665 4.7245 19.269 4.3395 19.5C3.9655 19.731 3.5475 19.8465 3.0855 19.8465C2.6235 19.8465 2.2 19.731 1.815 19.5C1.441 19.269 1.1385 18.9665 0.9075 18.5925C0.6765 18.2075 0.561 17.784 0.561 17.322C0.561 16.86 0.6765 16.442 0.9075 16.068C1.1385 15.683 1.441 15.3805 1.815 15.1605C2.2 14.9295 2.6235 14.814 3.0855 14.814ZM3.0855 19.005C3.5475 19.005 3.938 18.8455 4.257 18.5265C4.587 18.1965 4.752 17.795 4.752 17.322C4.752 17.025 4.675 16.75 4.521 16.497C4.378 16.244 4.18 16.0405 3.927 15.8865C3.674 15.7325 3.3935 15.6555 3.0855 15.6555C2.7775 15.6555 2.497 15.7325 2.244 15.8865C1.991 16.0405 1.7875 16.244 1.6335 16.497C1.4795 16.75 1.4025 17.025 1.4025 17.322C1.4025 17.63 1.4795 17.916 1.6335 18.18C1.7875 18.433 1.991 18.6365 2.244 18.7905C2.497 18.9335 2.7775 19.005 3.0855 19.005ZM15.9844 20.3635V15.4182H17.0625V20.3635H15.9844ZM13.9219 18.4182V17.3635H19.1016V18.4182H13.9219ZM23.8755 12.1369C23.3794 12.1369 22.9263 12.0158 22.5161 11.7736C22.1099 11.5314 21.7856 11.2072 21.5435 10.801C21.3013 10.3908 21.1802 9.93768 21.1802 9.44159C21.1802 8.94549 21.3013 8.49432 21.5435 8.08807C21.7856 7.67792 22.1099 7.35175 22.5161 7.10956C22.9263 6.86737 23.3794 6.74628 23.8755 6.74628C24.3716 6.74628 24.8228 6.86737 25.229 7.10956C25.6392 7.35175 25.9653 7.67792 26.2075 8.08807C26.4497 8.49432 26.5708 8.94549 26.5708 9.44159C26.5708 9.93768 26.4497 10.3908 26.2075 10.801C25.9653 11.2072 25.6392 11.5314 25.229 11.7736C24.8228 12.0158 24.3716 12.1369 23.8755 12.1369ZM23.8755 10.965C24.1567 10.965 24.4126 10.8967 24.6431 10.7599C24.8735 10.6232 25.0571 10.4396 25.1938 10.2092C25.3306 9.9787 25.3989 9.72284 25.3989 9.44159C25.3989 9.16034 25.3306 8.90448 25.1938 8.67401C25.0571 8.44354 24.8735 8.25995 24.6431 8.12323C24.4126 7.98651 24.1567 7.91815 23.8755 7.91815C23.5942 7.91815 23.3384 7.98651 23.1079 8.12323C22.8774 8.25995 22.6938 8.44354 22.5571 8.67401C22.4204 8.90448 22.3521 9.16034 22.3521 9.44159C22.3521 9.72284 22.4204 9.9787 22.5571 10.2092C22.6938 10.4396 22.8774 10.6232 23.1079 10.7599C23.3384 10.8967 23.5942 10.965 23.8755 10.965Z" fill="#1C1A16"/>
</svg>
