<svg width="341" height="271" viewBox="0 0 341 271" fill="none" xmlns="http://www.w3.org/2000/svg">
<path d="M0.250244 159.353L170.473 257.646L340.375 159.442L170.473 61.0594L0.250244 159.353Z" fill="#5BD38C" stroke="#00402A" stroke-width="0.5" stroke-linecap="round" stroke-linejoin="round"/>
<path d="M0.25 159.353V172.017L170.291 270.25V257.586L0.25 159.353Z" fill="#00A443" stroke="#00402A" stroke-width="0.5" stroke-linecap="round" stroke-linejoin="round"/>
<path d="M340.327 159.448V172.113L170.474 270.25V257.586L340.327 159.448Z" fill="#007F33" stroke="#00402A" stroke-width="0.5" stroke-linecap="round" stroke-linejoin="round"/>
<path d="M212.774 233.119L139.498 190.709L266.766 116.614L235.178 98.3742L107.175 172.291L42.3428 134.853L10.231 153.395L180.423 251.671L212.774 233.119Z" fill="#B0A9A3" stroke="#00402A" stroke-width="0.5" stroke-linecap="round" stroke-linejoin="round"/>
<path d="M196.671 122.917L199.811 124.737L218.592 113.934L215.345 112.096L196.671 122.917Z" fill="white"/>
<path d="M202.749 126.175L205.886 127.996L224.667 117.192L221.42 115.354L202.749 126.175Z" fill="white"/>
<path d="M208.986 129.49L212.125 131.311L230.906 120.507L227.659 118.669L208.986 129.49Z" fill="white"/>
<path d="M215.015 133.011L218.154 134.832L236.935 124.028L233.688 122.19L215.015 133.011Z" fill="white"/>
<path d="M221.08 136.652L224.219 138.473L243 127.669L239.753 125.831L221.08 136.652Z" fill="white"/>
<path d="M258.932 102.252C258.728 102.252 258.532 102.334 258.387 102.478C258.242 102.623 258.161 102.819 258.161 103.024C258.161 103.228 258.242 103.424 258.387 103.569C258.532 103.714 258.728 103.795 258.932 103.795C259.076 103.793 259.216 103.752 259.337 103.677C259.459 103.601 259.558 103.493 259.622 103.365L266.572 104.445L266.084 108.806L265.93 108.895L266.063 108.976L265.349 115.359L265.195 115.448L265.328 115.522L264.614 121.911L264.468 122.002L264.601 122.075L263.885 128.458L263.74 128.539L263.873 128.613L262.867 137.594C262.861 137.662 262.882 137.729 262.924 137.782C262.966 137.835 263.027 137.869 263.094 137.879C263.162 137.886 263.23 137.867 263.283 137.824C263.337 137.781 263.371 137.719 263.379 137.651L264.361 128.889L271.766 133.161L271.798 133.145L271.887 133.095L271.936 141.473C271.936 141.54 271.963 141.604 272.01 141.651C272.057 141.698 272.121 141.724 272.187 141.725C272.255 141.721 272.319 141.691 272.366 141.642C272.413 141.592 272.439 141.527 272.439 141.459L272.391 132.794L280.185 128.295L281.241 137.374C281.245 137.424 281.268 137.472 281.305 137.506C281.343 137.541 281.392 137.56 281.443 137.56H281.468C281.521 137.55 281.568 137.521 281.601 137.479C281.631 137.433 281.645 137.379 281.641 137.324L280.561 128.067L280.569 128.059H280.561L279.806 121.563L279.847 121.539L279.798 121.514L279.043 115.059L279.124 115.01L279.035 114.962L278.288 108.546L278.402 108.481L278.269 108.408L277.522 102.033L277.668 101.944L277.579 101.895L283.042 92.9541C283.143 92.9969 283.251 93.0191 283.36 93.0192C283.504 93.0191 283.646 92.9785 283.768 92.9022C283.89 92.8258 283.988 92.7167 284.052 92.5872C284.115 92.4577 284.141 92.3131 284.127 92.1697C284.112 92.0262 284.057 91.8898 283.969 91.7758C283.881 91.6618 283.763 91.5748 283.627 91.5247C283.492 91.4746 283.346 91.4634 283.204 91.4923C283.063 91.5213 282.933 91.5892 282.829 91.6885C282.724 91.7877 282.649 91.9143 282.613 92.0538L276.426 92.6057L276.003 89.0084L276.231 88.8754L275.93 88.7425L272.399 82.4084V82.3938C272.401 82.337 272.383 82.2813 272.35 82.2356C272.316 82.19 272.267 82.1572 272.213 82.1425C272.156 82.1297 272.097 82.1357 272.044 82.1598C271.991 82.1838 271.948 82.2244 271.92 82.2754L268.282 89.1295V89.1454L268.104 89.2518L268.25 89.3329L267.56 95.5286L259.375 102.407C259.242 102.306 259.079 102.252 258.912 102.252H258.932ZM268.24 95.8053L270.976 94.1642L271.626 93.7906L271.65 97.7694L268.24 95.7973V95.8053ZM272.138 93.5232H272.178L276.034 95.4635L272.161 97.6963L272.137 93.5312L272.138 93.5232ZM271.683 104.738H271.666L267.544 102.357L271.653 99.9225L271.686 103.348V104.735L271.683 104.738ZM272.178 99.614L276.716 101.993L272.195 104.607L272.171 100.012V99.6126H272.179L272.178 99.614ZM271.658 99.4025L267.356 101.952L267.559 100.109L271.658 98.566V99.4025ZM271.375 98.1192L267.623 99.5315L267.996 96.1697L271.375 98.1192ZM275.328 88.9433L272.129 90.7944L272.235 87.4818L275.328 88.9433ZM272.17 98.2083L276.376 95.78L277.058 101.651L272.178 99.094H272.162V98.2083H272.17ZM272.463 117.982L272.755 118.144L272.283 118.41V118.076L272.463 117.971V117.982ZM271.496 118.534L271.773 118.371V118.696L271.496 118.534ZM272.267 105.745L277.407 108.529L272.488 111.363L272.355 111.29L272.323 111.307L272.234 111.355L272.201 105.776L272.274 105.737L272.267 105.745ZM272.487 111.924L278.106 115.051L273.266 117.843L272.455 117.381L272.275 117.487L272.243 112.063L272.487 111.93V111.924ZM273.25 118.441L278.796 121.591L274.029 124.344L272.552 123.491L272.518 123.507L272.316 123.622L272.292 118.992L273.258 118.433L273.25 118.441ZM273.501 124.644L272.324 125.318V124.239L272.56 124.106L273.501 124.644ZM271.828 124.531V125.611L271.773 125.643L270.83 125.099L271.82 124.531H271.828ZM271.82 123.922L270.302 124.799L265.515 122.03L271.02 118.838L271.799 119.285L271.823 123.914L271.82 123.922ZM270.993 118.245L266.195 115.476L271.707 112.261L271.747 112.285L271.781 117.79L270.993 118.245ZM271.691 111.693L266.885 108.915L271.715 106.081L271.747 111.666L271.683 111.7L271.691 111.693ZM271.634 90.8144L268.939 89.2558L271.739 87.5496L271.634 90.8144ZM276.303 95.1191L273.006 93.4621L276.075 93.1855L276.303 95.1191ZM267.274 102.727L270.432 104.546L267.128 104.034L267.274 102.727ZM267.104 99.739L260.348 102.28L267.486 96.28L267.095 99.7376L267.104 99.739ZM268.119 95.2175L268.744 89.6228L271.634 91.2864V93.2121L268.119 95.2175ZM269.141 88.6401L271.87 83.4989L271.755 87.0483L269.141 88.6401ZM272.267 87.0243L272.39 83.2396L275.296 88.4605L272.267 87.0323V87.0243ZM272.134 91.2798L275.626 89.2664L276.025 92.6775L272.153 93.0259H272.136L272.134 91.2798ZM276.495 93.1562L281.707 92.6854L276.713 95.0233L276.495 93.1562ZM276.778 95.5592L282.544 92.8636L277.437 101.219L276.778 95.5592ZM272.207 105.142L277.136 102.3L277.826 108.203L272.28 105.199L272.248 105.215L272.217 105.231V105.134L272.207 105.142ZM273.005 111.638L277.901 108.812L278.591 114.749L272.997 111.638H273.005ZM273.784 118.127L278.656 115.317L279.354 121.293L273.784 118.135V118.127ZM279.411 121.837L280.109 127.847L274.555 124.639L279.411 121.837ZM279.5 128.115L272.38 132.223L272.339 125.922L274.02 124.947L279.5 128.115ZM271.819 126.215L271.86 132.516L271.746 132.581L264.813 128.578L270.31 125.402L271.773 126.247L271.804 126.231L271.83 126.215H271.819ZM269.774 125.094L264.432 128.18L265.08 122.382L269.774 125.094ZM265.17 121.619L265.82 115.829L270.496 118.532L265.17 121.619ZM271.21 111.971L265.901 115.065L266.55 109.283L271.21 111.971ZM271.722 105.532L266.648 108.512L267.086 104.549L271.665 105.255L271.714 105.288V105.532H271.722ZM266.802 102.462L266.632 103.973L260.047 102.949L267.038 100.319L266.818 102.283L266.664 102.373L266.797 102.454L266.802 102.462Z" stroke="#004930" stroke-width="0.5" stroke-linecap="round" stroke-linejoin="round"/>
<path d="M319.573 153.289L298.698 165.421L271.593 149.787L298.252 140.98L319.573 153.289Z" fill="#D8CFC7" stroke="#00402A" stroke-width="0.5" stroke-linecap="round" stroke-linejoin="round"/>
<path d="M319.57 153.289V155.482L298.695 167.614V165.421L319.57 153.289Z" fill="#B0A9A3" stroke="#00402A" stroke-width="0.5" stroke-linecap="round" stroke-linejoin="round"/>
<path d="M298.701 165.421V167.614L271.596 151.979V149.786L298.701 165.421Z" fill="#B0A9A3" stroke="#00402A" stroke-width="0.5" stroke-linecap="round" stroke-linejoin="round"/>
<path fill-rule="evenodd" clip-rule="evenodd" d="M313.767 132.94L296.522 142.898V164.163L313.767 154.206V132.94Z" fill="#B0A9A3" stroke="#00402A" stroke-width="0.5" stroke-linecap="round" stroke-linejoin="round"/>
<path fill-rule="evenodd" clip-rule="evenodd" d="M272.573 128.878L296.527 142.897V164.163L272.573 150.144V128.878Z" fill="white" stroke="#00402A" stroke-width="0.5" stroke-linecap="round" stroke-linejoin="round"/>
<path d="M313.764 132.94L296.523 142.896L272.574 128.878L289.816 118.922L313.764 132.94Z" fill="#D8CFC7" stroke="#00402A" stroke-width="0.5" stroke-linecap="round" stroke-linejoin="round"/>
<path d="M309.803 132.94L296.52 140.611L276.529 128.879L289.813 121.208L309.803 132.94Z" fill="#B0A9A3" stroke="#00402A" stroke-width="0.5" stroke-linecap="round" stroke-linejoin="round"/>
<path d="M277.849 129.64L296.522 140.611L308.489 133.696L289.816 122.723L277.849 129.64Z" fill="#D8CFC7" stroke="#00402A" stroke-width="0.5" stroke-linecap="round" stroke-linejoin="round"/>
<path fill-rule="evenodd" clip-rule="evenodd" d="M296.542 149.657L288.697 154.217L288.83 170.898L296.51 166.348L296.542 149.657Z" fill="#BDC1C6"/>
<path fill-rule="evenodd" clip-rule="evenodd" d="M296.509 166.344L288.833 170.892C288.668 153.503 288.833 169.449 288.687 154.212L296.531 149.654C296.538 150.279 296.509 165.723 296.509 166.344Z" fill="#B0A9A3" stroke="#00402A" stroke-width="0.5" stroke-linecap="round" stroke-linejoin="round"/>
<path fill-rule="evenodd" clip-rule="evenodd" d="M288.822 170.903C287.176 169.95 251.278 149.152 251.278 149.152L251.145 132.469L288.688 154.218L288.822 170.903Z" fill="white" stroke="#00402A" stroke-width="0.5" stroke-linecap="round" stroke-linejoin="round"/>
<path d="M296.538 149.656L288.694 154.215L251.157 132.458L258.915 127.871L296.538 149.656Z" fill="#D8CFC7" stroke="#00402A" stroke-width="0.5" stroke-linecap="round" stroke-linejoin="round"/>
<path d="M293.818 149.652L288.68 152.697L253.788 132.436L258.926 129.391L293.818 149.652Z" fill="#B0A9A3" stroke="#00402A" stroke-width="0.5" stroke-linecap="round" stroke-linejoin="round"/>
<path d="M254.668 132.927L288.681 152.691L292.946 150.165L258.933 130.4L254.668 132.927Z" fill="#D8CFC7" stroke="#00402A" stroke-width="0.5" stroke-linecap="round" stroke-linejoin="round"/>
<path d="M284.57 162.249L284.618 168.46L281.56 166.69L281.512 160.47L284.57 162.249Z" fill="#D8CFC7" stroke="#00402A" stroke-width="0.5" stroke-linecap="round" stroke-linejoin="round"/>
<path d="M260.208 154.348C259.669 154.035 257.654 152.858 257.15 152.529L257.124 146.371L260.163 148.138C260.163 148.178 260.208 154.308 260.208 154.348Z" fill="#D8CFC7" stroke="#00402A" stroke-width="0.5" stroke-linecap="round" stroke-linejoin="round"/>
<path d="M281.464 153.431V156.732L284.663 158.581V155.269L281.464 153.431Z" fill="#D8CFC7" stroke="#00402A" stroke-width="0.5" stroke-linecap="round" stroke-linejoin="round"/>
<path d="M276.032 150.302V153.601L279.231 155.437V152.137L276.032 150.302Z" fill="#D8CFC7" stroke="#00402A" stroke-width="0.5" stroke-linecap="round" stroke-linejoin="round"/>
<path d="M265.167 144.03V147.33L268.366 149.165V145.866L265.167 144.03Z" fill="#D8CFC7" stroke="#00402A" stroke-width="0.5" stroke-linecap="round" stroke-linejoin="round"/>
<path d="M259.716 140.876V144.175L262.915 146.011V142.711L259.716 140.876Z" fill="#D8CFC7" stroke="#00402A" stroke-width="0.5" stroke-linecap="round" stroke-linejoin="round"/>
<path d="M254.263 137.715V141.014L257.463 142.849V139.55L254.263 137.715Z" fill="#D8CFC7" stroke="#00402A" stroke-width="0.5" stroke-linecap="round" stroke-linejoin="round"/>
<path d="M157.645 112.346L139.886 122.669L121.997 112.342L139.755 102.019L157.645 112.346Z" fill="white" stroke="#00402A" stroke-width="0.5" stroke-linecap="round" stroke-linejoin="round"/>
<path fill-rule="evenodd" clip-rule="evenodd" d="M142.425 54.6134C142.275 54.8809 142.045 55.0954 141.768 55.2277C141.257 55.4468 140.704 55.5516 140.147 55.5349H139.84C139.372 55.512 138.912 55.408 138.48 55.2277C138.014 54.9934 137.78 54.7158 137.779 54.3949L137.823 54.2634C137.852 53.999 138.072 53.7662 138.48 53.562C138.904 53.3524 139.367 53.2327 139.84 53.2104H140.147C140.708 53.1921 141.265 53.3129 141.768 53.562C142.057 53.676 142.292 53.8949 142.425 54.1747V54.6134Z" fill="#26BD64" stroke="#00402A" stroke-width="0.5" stroke-linecap="round" stroke-linejoin="round"/>
<path fill-rule="evenodd" clip-rule="evenodd" d="M137.779 54.3931C137.779 54.7097 138.013 54.9874 138.48 55.2259C138.912 55.4063 139.372 55.5102 139.84 55.5331H140.147C140.704 55.5499 141.257 55.445 141.768 55.2259C142.045 55.0937 142.275 54.8791 142.425 54.6116L142.448 87.2758L142.47 104.424V113.353C142.394 113.606 142.259 113.838 142.076 114.028C141.893 114.219 141.667 114.363 141.417 114.449C140.918 114.692 140.384 114.855 139.834 114.932C139.517 114.96 139.175 114.974 138.825 114.974H138.431C137.687 114.943 136.957 114.765 136.283 114.449C135.697 114.165 135.26 113.747 135.23 113.309L137.779 54.3931Z" fill="#FFFAF6" stroke="#00402A" stroke-width="0.5" stroke-linecap="round" stroke-linejoin="round"/>
<path fill-rule="evenodd" clip-rule="evenodd" d="M144.569 52.81C144.569 52.81 138.82 48.568 138.711 48.4287C138.602 48.2893 135.315 46.3401 133.395 48.8736C131.474 51.4071 133.979 54.0798 133.979 54.0798L142.4 57.5111C142.4 57.5111 143.37 57.4509 144.345 55.7693C145.484 53.7948 144.569 52.81 144.569 52.81Z" fill="#FFFAF6" stroke="#00402A" stroke-width="0.5" stroke-linecap="round" stroke-linejoin="round"/>
<path fill-rule="evenodd" clip-rule="evenodd" d="M132.896 24.0331L132.969 23.6515L133.775 24.2848C136.419 30.8296 138.62 36.7717 140.38 42.1109L141.599 45.9982C142.54 49.127 143.243 51.8716 143.708 54.2319C143.703 54.3304 143.712 54.4289 143.734 54.5249L144.097 54.9445L144.238 55.0901L148.413 52.8385L148.571 52.7657L154.664 53.5289L165.058 54.8273L165.542 55.6095L164.795 56.4851C164.085 56.5981 163.382 56.6983 162.688 56.7859L157.582 57.3687C157.41 57.3813 157.236 57.3924 157.065 57.4067C155.291 57.5408 153.606 57.622 152.008 57.6505C149.197 57.7263 146.389 57.3983 143.671 56.6767L143.555 56.8256L142.998 57.5064L141.7 64.6524L139.615 68.7803L131.617 84.5115L131.246 84.3294L130.564 83.9779C132.926 77.1861 135.167 71.3116 137.288 66.3545C137.41 66.1075 137.524 65.8479 137.63 65.5755C138.909 62.6003 140.346 59.6958 141.936 56.8746C142.118 56.5579 142.306 56.2492 142.503 55.9563C142.509 55.9229 142.527 55.8929 142.553 55.8723L142.639 54.4283L139.297 49.279L138.876 47.6829L132.749 24.7124L132.896 24.0331Z" fill="#FFFAF6" stroke="#00402A" stroke-width="0.5" stroke-linecap="round" stroke-linejoin="round"/>
<path fill-rule="evenodd" clip-rule="evenodd" d="M144.096 54.9461L148.086 52.8116L148.412 52.8401L144.237 55.0917L144.096 54.9461ZM143.558 56.8271L143.674 56.6783C146.392 57.4 149.199 57.7279 152.011 57.6521C153.61 57.6236 155.295 57.5423 157.067 57.4083C157.238 57.394 157.412 57.3829 157.585 57.3703C157.246 57.3998 156.911 57.4273 156.58 57.4526C154.806 57.5867 153.118 57.6679 151.513 57.6964C148.835 57.7594 146.16 57.4671 143.558 56.8271ZM132.895 24.0315L132.751 24.714L138.878 47.6845L139.299 49.2806L142.641 54.4298L142.556 55.8739C142.529 55.8945 142.511 55.9245 142.505 55.9579C142.309 56.2508 142.121 56.558 141.938 56.8762C140.348 59.6974 138.911 62.6018 137.632 65.5771C137.527 65.8494 137.413 66.1091 137.29 66.3561C135.169 71.3175 132.928 77.1919 130.567 83.9795L131.249 84.331L131.132 84.5574L130.079 84.0238C132.439 77.232 134.68 71.3576 136.803 66.4005C136.923 66.1535 137.039 65.8938 137.145 65.6214C138.422 62.6431 139.86 59.736 141.451 56.9127C141.631 56.596 141.821 56.2872 142.018 55.9943C142.023 55.9607 142.041 55.9305 142.068 55.9104L142.154 54.4663L138.81 49.317L138.389 47.7209L132.262 24.7504L132.481 23.6863L132.895 24.0315Z" fill="#B2A9A2" stroke="#00402A" stroke-width="0.5" stroke-linecap="round" stroke-linejoin="round"/>
<path fill-rule="evenodd" clip-rule="evenodd" d="M142.399 54.3824C142.716 53.8027 143.2 53.3315 143.788 53.0301C143.997 52.8919 144.24 52.8123 144.49 52.7998C144.741 52.7873 144.99 52.8422 145.213 52.9589C145.265 52.987 145.313 53.0233 145.355 53.0665C145.423 53.1298 145.494 53.189 145.569 53.2439C146.104 53.6713 146.538 54.2123 146.84 54.8279C147.141 55.4434 147.301 56.1182 147.31 56.8034C147.313 56.8674 147.297 56.9308 147.266 56.9866C147.235 57.0425 147.189 57.0887 147.133 57.1201C146.287 57.5275 145.366 57.7576 144.427 57.7962H143.93C143.632 57.7951 143.335 57.7713 143.041 57.7249L142.79 57.6537H142.684L142.399 57.5112C142.2 57.367 142.042 57.1725 141.942 56.9474C141.842 56.7224 141.804 56.4749 141.831 56.2302C141.844 55.5733 142.041 54.9332 142.399 54.3824Z" fill="#00A443" stroke="#00402A" stroke-width="0.5" stroke-linecap="round" stroke-linejoin="round"/>
<path d="M196.478 91.2484L178.718 101.571L160.829 91.2437L178.587 80.9214L196.478 91.2484Z" fill="white" stroke="#00402A" stroke-width="0.5" stroke-linecap="round" stroke-linejoin="round"/>
<path fill-rule="evenodd" clip-rule="evenodd" d="M181.874 32.4769C181.723 32.7438 181.494 32.9581 181.217 33.0913C180.705 33.3098 180.151 33.4141 179.595 33.3969H179.287C178.82 33.3745 178.361 33.2711 177.929 33.0913C177.454 32.8569 177.228 32.5798 177.228 32.2584L177.272 32.127C177.301 31.8625 177.519 31.6298 177.929 31.4239C178.353 31.2155 178.815 31.0964 179.287 31.074H179.595C180.156 31.056 180.713 31.1762 181.217 31.4239C181.506 31.539 181.74 31.7583 181.874 32.0383V32.4769Z" stroke="#00402A" stroke-width="0.5" stroke-linecap="round" stroke-linejoin="round"/>
<path fill-rule="evenodd" clip-rule="evenodd" d="M177.227 32.257C177.227 32.5737 177.46 32.8556 177.929 33.0899C178.36 33.2697 178.82 33.3732 179.287 33.3955H179.594C180.151 33.4127 180.704 33.3084 181.217 33.0899C181.493 32.9568 181.722 32.7424 181.874 32.4755L181.896 65.1398L181.918 82.2881V91.2217C181.841 91.4745 181.706 91.7055 181.523 91.8959C181.34 92.0864 181.115 92.2308 180.865 92.3174C180.366 92.5575 179.831 92.7178 179.282 92.7924C178.965 92.821 178.625 92.8352 178.274 92.8352H177.879C177.136 92.8023 176.406 92.6236 175.731 92.3095C175.145 92.0261 174.708 91.6081 174.68 91.1695L177.227 32.257Z" fill="#FFFAF6" stroke="#00402A" stroke-width="0.5" stroke-linecap="round" stroke-linejoin="round"/>
<path fill-rule="evenodd" clip-rule="evenodd" d="M184.071 29.9435C184.071 29.9435 179.236 26.1671 179.116 26.0151C178.995 25.8631 175.428 23.7492 173.343 26.4901C171.258 29.231 173.977 32.1429 173.977 32.1429L179.507 36.5765C179.507 36.5765 181.5 36.9485 183.675 34.0176C185.85 31.0867 184.071 29.9435 184.071 29.9435Z" fill="#FFFAF6" stroke="#00402A" stroke-width="0.5" stroke-linecap="round" stroke-linejoin="round"/>
<path fill-rule="evenodd" clip-rule="evenodd" d="M197.906 0.809103L198.232 0.543091L198.46 1.63405C196.101 8.92619 193.793 15.4076 191.537 21.0783L189.844 25.1636C188.448 28.4233 187.121 31.1979 185.863 33.4875C185.79 33.5666 185.729 33.655 185.681 33.7504L185.69 34.3521L185.706 34.5706L190.75 35.6078L190.935 35.6584L195.476 40.5417L203.225 48.8672L203.083 49.8553L201.851 50.0643C201.182 49.6621 200.527 49.2557 199.886 48.8451L195.227 45.778L194.769 45.4471C193.201 44.3239 191.741 43.2155 190.39 42.1219C187.997 40.2257 185.888 37.9957 184.127 35.5001L183.93 35.5444L182.991 35.7234L176.93 40.7681L172.319 42.7505L154.7 50.2733L154.518 49.8616L154.201 49.0937C160.899 45.0824 166.858 41.754 172.078 39.1087C172.351 38.9862 172.627 38.8495 172.906 38.6986C176.043 37.1123 179.264 35.6963 182.554 34.4566C182.925 34.3173 183.295 34.1943 183.662 34.0877C183.69 34.0636 183.726 34.0511 183.763 34.0528L184.841 32.9096L185.646 26.2925L186.407 24.6711L197.312 1.27783L197.906 0.809103Z" fill="#FFFAF6" stroke="#00402A" stroke-width="0.5" stroke-linecap="round" stroke-linejoin="round"/>
<path fill-rule="evenodd" clip-rule="evenodd" d="M185.69 34.3535L190.498 35.3574L190.75 35.6091L185.706 34.572L185.69 34.3535ZM183.933 35.5443L184.131 35.4999C185.891 37.9955 188 40.2255 190.394 42.1217C191.745 43.2122 193.204 44.3206 194.773 45.4469L195.23 45.7778C194.928 45.5656 194.629 45.3551 194.336 45.1445C192.765 44.0213 191.306 42.9129 189.957 41.8193C187.68 40.0038 185.654 37.8936 183.933 35.5443ZM197.906 0.810534L197.311 1.28554L186.406 24.6789L185.644 26.3003L184.84 32.9174L183.762 34.0606C183.725 34.0589 183.689 34.0714 183.661 34.0954C183.294 34.201 182.924 34.324 182.552 34.4644C179.263 35.704 176.042 37.1201 172.905 38.7063C172.626 38.8583 172.35 38.995 172.077 39.1164C166.856 41.7649 160.897 45.0933 154.2 49.1014L154.516 49.8694L154.262 49.977L153.757 48.799C160.453 44.7877 166.412 41.4594 171.632 38.814C171.906 38.6921 172.183 38.5559 172.461 38.4023C175.599 36.8175 178.819 35.402 182.108 34.1619C182.481 34.0226 182.851 33.8991 183.216 33.7914C183.23 33.7794 183.246 33.7702 183.263 33.7645C183.28 33.7588 183.299 33.7566 183.317 33.7582L184.394 32.6149L185.2 25.9979L185.961 24.3764L196.864 0.98314L197.787 0.25L197.906 0.810534Z" fill="#B2A9A2" stroke="#00402A" stroke-width="0.5" stroke-linecap="round" stroke-linejoin="round"/>
<path fill-rule="evenodd" clip-rule="evenodd" d="M183.12 32.4769C183.463 31.8468 183.988 31.3347 184.626 31.0075C184.854 30.8582 185.117 30.7723 185.389 30.7587C185.661 30.7451 185.931 30.8042 186.173 30.93C186.231 30.9603 186.285 30.9999 186.331 31.0471C186.404 31.1163 186.482 31.1803 186.564 31.2387C187.147 31.702 187.62 32.289 187.948 32.9575C188.277 33.6259 188.453 34.359 188.464 35.1038C188.467 35.1738 188.45 35.2434 188.416 35.3046C188.382 35.3658 188.332 35.4164 188.27 35.4506C187.353 35.8938 186.354 36.1438 185.335 36.1853H184.794C184.47 36.1844 184.148 36.1584 183.828 36.1077L183.557 36.0301H183.442L183.125 35.8718C182.908 35.7158 182.736 35.5048 182.627 35.2605C182.519 35.0162 182.477 34.7473 182.506 34.4815C182.519 33.7689 182.732 33.0743 183.12 32.4769Z" fill="#00A443" stroke="#00402A" stroke-width="0.5" stroke-linecap="round" stroke-linejoin="round"/>
<path d="M119.202 134.784L101.443 145.106L83.553 134.779L101.311 124.457L119.202 134.784Z" fill="white" stroke="#00402A" stroke-width="0.5" stroke-linecap="round" stroke-linejoin="round"/>
<path fill-rule="evenodd" clip-rule="evenodd" d="M103.705 76.3434C103.554 76.6106 103.325 76.8251 103.048 76.9578C102.536 77.177 101.982 77.2818 101.425 77.265H101.118C100.651 77.2421 100.191 77.1381 99.7599 76.9578C99.2924 76.7235 99.0586 76.4458 99.0586 76.1249L99.1028 75.9935C99.1313 75.7291 99.3515 75.4963 99.7599 75.2904C100.184 75.082 100.646 74.9629 101.118 74.9405H101.425C101.987 74.9224 102.544 75.0426 103.048 75.2904C103.336 75.406 103.57 75.6252 103.705 75.9048V76.3434Z" fill="#26BD64" stroke="#00402A" stroke-width="0.5" stroke-linecap="round" stroke-linejoin="round"/>
<path fill-rule="evenodd" clip-rule="evenodd" d="M99.058 76.1249C99.058 76.4416 99.2918 76.7192 99.7594 76.9578C100.191 77.1382 100.651 77.2421 101.118 77.265H101.425C101.982 77.2819 102.535 77.177 103.048 76.9578C103.324 76.8251 103.554 76.6107 103.704 76.3435L103.727 109.008L103.749 126.156V135.085C103.673 135.338 103.538 135.569 103.355 135.76C103.171 135.95 102.946 136.094 102.696 136.181C102.197 136.424 101.663 136.587 101.113 136.664C100.796 136.692 100.461 136.706 100.106 136.706H99.7103C98.9669 136.675 98.2373 136.496 97.5636 136.181C96.9778 135.897 96.5392 135.479 96.5107 135.041L99.058 76.1249Z" fill="#FFFAF6" stroke="#00402A" stroke-width="0.5" stroke-linecap="round" stroke-linejoin="round"/>
<path fill-rule="evenodd" clip-rule="evenodd" d="M105.849 74.5432C105.849 74.5432 100.101 70.3012 99.9917 70.1619C99.8825 70.0225 96.5958 68.0734 94.6755 70.6068C92.7551 73.1403 95.2597 75.8131 95.2597 75.8131L103.68 79.2444C103.68 79.2444 104.651 79.1842 105.626 77.5026C106.764 75.5249 105.849 74.5432 105.849 74.5432Z" fill="#FFFAF6" stroke="#00402A" stroke-width="0.5" stroke-linecap="round" stroke-linejoin="round"/>
<path fill-rule="evenodd" clip-rule="evenodd" d="M94.1772 45.7632L94.2501 45.3816L95.0558 46.0149C97.6996 52.5597 99.9013 58.5018 101.661 63.841L102.88 67.7283C103.822 70.8571 104.525 73.6017 104.989 75.962C104.984 76.0604 104.992 76.1589 105.014 76.255L105.378 76.6746L105.519 76.8202L109.694 74.5686L109.852 74.4958L115.946 75.259L126.339 76.5574L126.823 77.3396L126.076 78.2152C125.366 78.3282 124.663 78.4284 123.967 78.5161L118.863 79.0988L118.346 79.1352C116.572 79.2714 114.887 79.3532 113.289 79.3806C110.477 79.4564 107.669 79.1284 104.95 78.4068L104.837 78.5557L104.279 79.2365L102.981 86.3825L100.896 90.5104L92.8981 106.242L92.5276 106.06L91.8452 105.708C94.2073 98.9162 96.4484 93.0417 98.5688 88.0846C98.6912 87.8376 98.8053 87.578 98.9108 87.3056C100.189 84.33 101.626 81.4255 103.217 78.6047C103.399 78.288 103.587 77.9793 103.784 77.6864C103.79 77.653 103.808 77.623 103.834 77.6024L103.92 76.1584L100.576 71.0091L100.155 69.413L94.0284 46.4425L94.1772 45.7632Z" fill="#FFFAF6" stroke="#00402A" stroke-width="0.5" stroke-linecap="round" stroke-linejoin="round"/>
<path fill-rule="evenodd" clip-rule="evenodd" d="M105.378 76.6778L109.366 74.5434L109.694 74.5719L105.519 76.8235L105.378 76.6778ZM104.84 78.5589L104.954 78.4101C107.673 79.1317 110.481 79.4596 113.293 79.3838C114.89 79.3553 116.576 79.2735 118.349 79.1384L118.867 79.102C118.528 79.1316 118.192 79.159 117.86 79.1844C116.088 79.3184 114.402 79.3997 112.803 79.4282C110.12 79.4925 107.44 79.2001 104.834 78.5589H104.84ZM94.1776 45.7633L94.0319 46.4457L100.159 69.4163L100.58 71.0124L103.923 76.1616L103.838 77.6057C103.811 77.6263 103.793 77.6563 103.787 77.6896C103.591 77.9826 103.403 78.2897 103.221 78.608C101.63 81.4288 100.192 84.3332 98.9143 87.3088C98.8088 87.5812 98.6949 87.8409 98.5724 88.0879C96.451 93.0492 94.2097 98.9237 91.8487 105.711L92.5311 106.063L92.4139 106.289L91.3611 105.756C93.7221 98.9638 95.9629 93.0894 98.0833 88.1322C98.2052 87.8852 98.3206 87.6255 98.4267 87.3532C99.7048 84.3776 101.142 81.4732 102.733 78.6523C102.913 78.3357 103.102 78.019 103.298 77.7339C103.304 77.7002 103.322 77.67 103.35 77.65L103.436 76.206L100.092 71.0567L99.6711 69.4606L93.5443 46.4901L93.7629 45.426L94.1776 45.7633Z" fill="#B2A9A2" stroke="#00402A" stroke-width="0.5" stroke-linecap="round" stroke-linejoin="round"/>
<path fill-rule="evenodd" clip-rule="evenodd" d="M103.679 76.1124C103.996 75.5326 104.48 75.0615 105.068 74.7601C105.277 74.6219 105.52 74.5423 105.771 74.5298C106.021 74.5172 106.27 74.5722 106.493 74.6888C106.546 74.7169 106.594 74.7533 106.635 74.7965C106.703 74.8599 106.774 74.9191 106.849 74.9738C107.385 75.4013 107.819 75.9423 108.12 76.5578C108.421 77.1734 108.582 77.8481 108.59 78.5334C108.593 78.5975 108.577 78.661 108.545 78.7168C108.514 78.7727 108.467 78.8188 108.411 78.8501C107.566 79.2577 106.645 79.4878 105.707 79.5262H105.21C104.912 79.5251 104.615 79.5013 104.321 79.4549L104.071 79.3837H103.964L103.679 79.2411C103.48 79.0971 103.322 78.9026 103.222 78.6776C103.121 78.4526 103.083 78.205 103.11 77.9602C103.123 77.3031 103.321 76.663 103.679 76.1124Z" fill="#00A443" stroke="#00402A" stroke-width="0.5" stroke-linecap="round" stroke-linejoin="round"/>
<path d="M90.4847 184.58L92.5113 183.625C92.8207 183.523 93.1506 183.501 93.471 183.559C93.7914 183.618 94.0921 183.756 94.3454 183.961C95.0984 184.522 95.7083 185.253 96.1256 186.095C96.5429 186.936 96.7557 187.864 96.7468 188.803C96.7558 189.12 96.6882 189.434 96.5498 189.719C96.4115 190.004 96.2066 190.252 95.9522 190.441L93.8128 191.458C93.5043 191.558 93.1757 191.579 92.857 191.52C92.5383 191.46 92.2393 191.323 91.9874 191.118C91.2344 190.557 90.6244 189.826 90.2072 188.985C89.7899 188.143 89.5771 187.215 89.586 186.276C89.5714 185.938 89.6474 185.603 89.8062 185.304C89.965 185.005 90.2006 184.755 90.4889 184.578L90.4847 184.58Z" fill="#3A3735" stroke="#00402A" stroke-width="0.5" stroke-linecap="round" stroke-linejoin="round"/>
<path d="M90.1071 186.776C90.101 187.495 90.2644 188.206 90.5842 188.849C90.904 189.493 91.3711 190.053 91.9476 190.482C93.0454 191.212 94.0026 190.738 94.087 189.419C94.0931 188.7 93.9297 187.99 93.6099 187.347C93.2901 186.703 92.823 186.144 92.2465 185.715C91.1465 184.983 90.1915 185.46 90.1071 186.776Z" fill="white" stroke="#00402A" stroke-width="0.5" stroke-linecap="round" stroke-linejoin="round"/>
<path d="M91.4042 184.147L90.4841 184.58C90.1964 184.758 89.9611 185.01 89.8024 185.308C89.6437 185.607 89.5675 185.943 89.5812 186.281C89.5812 186.4 89.5812 186.521 89.5812 186.644L89.4532 186.69C89.4414 186.502 89.4414 186.313 89.4532 186.125C89.542 184.702 90.3497 183.959 91.415 184.147H91.4042Z" fill="#423C37" stroke="#00402A" stroke-width="0.5" stroke-linecap="round" stroke-linejoin="round"/>
<path d="M110.09 196.554L112.117 195.597C112.426 195.495 112.755 195.473 113.075 195.531C113.395 195.59 113.695 195.728 113.948 195.932C114.701 196.494 115.311 197.225 115.729 198.066C116.146 198.908 116.359 199.836 116.35 200.775C116.359 201.091 116.292 201.406 116.153 201.691C116.015 201.976 115.81 202.223 115.555 202.412L113.416 203.43C113.107 203.53 112.779 203.551 112.46 203.491C112.141 203.432 111.842 203.294 111.59 203.09C110.838 202.529 110.228 201.798 109.81 200.957C109.393 200.116 109.18 199.188 109.189 198.25C109.174 197.911 109.25 197.575 109.409 197.276C109.568 196.978 109.804 196.727 110.092 196.55L110.09 196.554Z" fill="#3A3735" stroke="#00402A" stroke-width="0.5" stroke-linecap="round" stroke-linejoin="round"/>
<path d="M109.709 198.748C109.702 199.467 109.866 200.178 110.186 200.822C110.505 201.466 110.972 202.025 111.549 202.454C112.647 203.184 113.604 202.71 113.689 201.393C113.695 200.674 113.532 199.964 113.212 199.32C112.892 198.676 112.425 198.116 111.848 197.687C110.748 196.957 109.791 197.432 109.709 198.748Z" fill="white" stroke="#00402A" stroke-width="0.5" stroke-linecap="round" stroke-linejoin="round"/>
<path d="M89.8277 178.536C90.7263 176.279 94.375 174.302 94.375 174.302C95.5288 172.956 96.9067 171.82 98.448 170.945C99.6321 170.051 101.001 169.432 102.454 169.134C102.851 169.037 103.269 169.063 103.651 169.208C108.829 171.319 113.793 173.918 118.477 176.972C121.936 179.746 125.132 182.833 128.022 186.196C129.321 187.69 132.632 191.902 132.749 193.368C132.894 194.693 132.721 196.033 132.244 197.277C131.8 198.303 131.084 199.188 130.174 199.837C127.638 201.491 124.933 202.871 122.104 203.952C121.21 204.303 120.25 204.454 119.292 204.394C118.334 204.334 117.4 204.065 116.556 203.605C116.251 203.45 115.573 203.062 114.636 202.523C114.689 202.31 114.721 202.092 114.733 201.873C114.742 200.847 114.509 199.833 114.053 198.913C113.597 197.994 112.93 197.195 112.107 196.582C110.537 195.538 109.171 196.216 109.054 198.098C109.033 198.478 109.057 198.859 109.125 199.233C104.346 196.359 98.4565 192.773 95.0137 190.616C95.0791 190.382 95.1198 190.143 95.135 189.901C95.1429 188.875 94.9093 187.861 94.453 186.941C93.9968 186.022 93.3305 185.223 92.5084 184.608C90.9364 183.566 89.5722 184.246 89.4531 186.124C89.4413 186.313 89.4413 186.503 89.4531 186.692C89.0482 186.343 88.8534 186.146 88.8534 186.146C88.6715 185.344 88.5757 184.525 88.5676 183.703C88.6857 181.921 89.1119 180.174 89.8277 178.538V178.536Z" fill="#5BD38C" stroke="#00402A" stroke-width="0.5" stroke-linecap="round" stroke-linejoin="round"/>
<path d="M89.8268 178.536C90.7254 176.28 94.3742 174.302 94.3742 174.302C97.637 175.287 100.686 176.875 103.365 178.982C108.373 182.723 108.605 183.513 109.471 184.776C110.337 186.038 115.209 194.001 115.995 195.171C116.781 196.34 119.574 200.325 120.642 200.462C121.224 200.525 121.81 200.535 122.393 200.49C123.115 200.419 123.826 200.268 124.513 200.037C127.164 198.954 129.648 197.501 131.891 195.721C131.996 195.638 132.097 195.548 132.192 195.452C132.464 194.994 132.66 194.495 132.772 193.973C132.772 194.19 132.772 194.406 132.772 194.604V194.63V194.785V194.844L132.761 195.006V195.041C132.75 195.221 132.733 195.396 132.711 195.565V195.617C132.711 195.66 132.698 195.708 132.692 195.751C132.69 195.777 132.686 195.802 132.681 195.827L132.664 195.948C132.664 195.974 132.653 196.003 132.648 196.029C132.644 196.055 132.635 196.102 132.627 196.139L132.612 196.228C132.612 196.26 132.596 196.295 132.592 196.33C132.588 196.364 132.568 196.423 132.557 196.47C132.547 196.518 132.544 196.531 132.536 196.561C132.528 196.597 132.518 196.633 132.506 196.667L132.484 196.735C132.484 196.767 132.462 196.797 132.454 196.828L132.434 196.89C132.425 196.92 132.413 196.949 132.399 196.977C132.399 196.999 132.384 197.014 132.38 197.031L132.343 197.118L132.324 197.161L132.265 197.276L132.166 197.454C131.742 198.414 131.061 199.239 130.197 199.836C127.66 201.489 124.955 202.869 122.127 203.951C121.233 204.302 120.273 204.453 119.315 204.393C118.356 204.333 117.423 204.064 116.58 203.604C116.272 203.448 115.594 203.061 114.657 202.521C114.71 202.312 114.742 202.098 114.754 201.882C114.763 200.856 114.53 199.842 114.074 198.923C113.617 198.004 112.951 197.205 112.128 196.592C110.558 195.548 109.194 196.226 109.074 198.108C109.055 198.487 109.079 198.868 109.146 199.242C104.367 196.369 98.4795 192.782 95.0345 190.625C95.1008 190.392 95.1416 190.152 95.1558 189.911C95.1642 188.884 94.9307 187.87 94.4744 186.95C94.0181 186.031 93.3518 185.232 92.5292 184.618C90.9594 183.576 89.593 184.256 89.4761 186.134C89.4642 186.322 89.4642 186.512 89.4761 186.701C89.0733 186.352 88.8763 186.155 88.8763 186.155C88.6956 185.354 88.5999 184.536 88.5906 183.715C88.7094 181.932 89.1365 180.184 89.853 178.547L89.8268 178.536Z" fill="#00A443" stroke="#00402A" stroke-width="0.5" stroke-linecap="round" stroke-linejoin="round"/>
<g opacity="0.2">
<path d="M132.198 195.456C132.471 194.998 132.667 194.498 132.779 193.977C132.779 194.193 132.779 194.41 132.779 194.607C132.641 194.924 132.444 195.212 132.198 195.456Z" fill="white" stroke="#00402A" stroke-width="0.5" stroke-linecap="round" stroke-linejoin="round"/>
<path d="M132.754 194.907V194.987" stroke="#00402A" stroke-width="0.5" stroke-linecap="round" stroke-linejoin="round"/>
<path d="M132.766 194.684V194.605" stroke="#00402A" stroke-width="0.5" stroke-linecap="round" stroke-linejoin="round"/>
</g>
<path d="M101.22 172.454C102.564 171.655 103.976 170.978 105.44 170.431C108.395 171.718 111.273 173.176 114.058 174.798C114.58 175.114 115.02 175.38 115.407 175.61C116.657 176.308 117.85 177.105 118.974 177.992C119.952 178.759 122.438 181.141 124.437 183.053C125.662 184.225 126.719 185.238 127.197 185.652L127.252 185.713C125.763 187.405 123.959 188.792 121.94 189.795C119.679 191.063 117.282 192.07 114.794 192.797C114.361 192.091 113.853 191.281 113.333 190.445C111.767 187.922 110.152 185.314 109.68 184.628C109.591 184.5 109.511 184.378 109.431 184.253C108.721 183.17 108.049 182.156 103.517 178.772C101.657 177.37 99.6511 176.172 97.5347 175.198C98.6994 174.203 99.929 173.286 101.216 172.454H101.22Z" fill="white" stroke="#00402A" stroke-width="0.5" stroke-linecap="round" stroke-linejoin="round"/>
<path d="M89.8472 178.484C90.1932 177.75 90.6821 177.091 91.2851 176.548L91.2634 176.669C91.2006 177.02 91.2134 177.284 91.3044 177.371L91.3456 177.414C91.5621 177.631 91.9953 178.042 91.9736 178.497C91.9695 178.595 91.9443 178.692 91.8999 178.779C91.8554 178.867 91.7927 178.944 91.7159 179.006C91.4141 179.309 91.0158 179.498 90.5899 179.539C90.1828 179.513 89.9403 179.16 89.8472 178.493V178.484Z" fill="white" stroke="#00402A" stroke-width="0.5" stroke-linecap="round" stroke-linejoin="round"/>
<path d="M89.913 178.328C90.2368 177.702 90.6636 177.136 91.1754 176.652C91.1364 176.868 91.0867 177.276 91.2383 177.429C91.4548 177.646 92.282 178.38 91.6562 178.93C91.0304 179.48 90.0538 179.965 89.9109 178.33L89.913 178.328Z" fill="#F59B00" stroke="#00402A" stroke-width="0.5" stroke-linecap="round" stroke-linejoin="round"/>
<path d="M101.22 172.454C102.564 171.655 103.976 170.978 105.44 170.431C108.395 171.718 111.273 173.176 114.058 174.798C114.58 175.114 115.02 175.38 115.407 175.61C116.657 176.308 117.85 177.105 118.974 177.992C119.952 178.759 122.438 181.141 124.437 183.053C125.662 184.225 126.719 185.238 127.197 185.652L127.252 185.713C125.763 187.405 123.959 188.792 121.94 189.795C119.679 191.063 117.282 192.07 114.794 192.797C114.361 192.091 113.853 191.281 113.333 190.445C111.767 187.922 110.152 185.314 109.68 184.628C109.591 184.5 109.511 184.378 109.431 184.253C108.721 183.17 108.049 182.156 103.517 178.772C101.657 177.37 99.6511 176.172 97.5347 175.198C98.6994 174.203 99.929 173.286 101.216 172.454H101.22Z" fill="#E8F6FD" stroke="#00402A" stroke-width="0.5" stroke-linecap="round" stroke-linejoin="round"/>
<path d="M95.3858 177.339C95.5071 176.869 95.9206 176.715 96.4793 176.75C98.151 177.118 99.7524 177.755 101.222 178.634C104.118 180.36 106.645 182.642 108.657 185.347C109.69 187.128 112.596 191.992 112.596 191.992C112.596 191.992 113.274 193.469 112.596 193.425C112.358 193.385 112.132 193.292 111.936 193.152C110.257 192.124 99.7707 184.539 97.8977 182.913C97.0428 182.273 96.3648 181.426 95.9277 180.451C95.4905 179.477 95.3087 178.407 95.399 177.343L95.3858 177.339Z" fill="#00A443" stroke="#00402A" stroke-width="0.5" stroke-linecap="round" stroke-linejoin="round"/>
<path d="M95.734 177.427C95.7643 177.316 95.8335 177.057 96.4701 177.096C97.8211 177.364 99.1185 177.854 100.309 178.546C100.381 178.659 100.43 178.784 100.455 178.915L98.9386 183.309C98.5878 183.034 98.3128 182.809 98.1287 182.659C97.3197 182.061 96.6757 181.267 96.2568 180.352C95.838 179.437 95.6581 178.43 95.734 177.427Z" fill="#E8F6FD" stroke="#00402A" stroke-width="0.5" stroke-linecap="round" stroke-linejoin="round"/>
<path d="M101.507 180.037C101.55 179.906 101.633 179.792 101.744 179.712C101.856 179.631 101.989 179.588 102.127 179.588C104.467 181.152 106.536 183.088 108.25 185.321C108.439 185.678 108.567 186.065 108.629 186.464C108.72 187.345 108.664 188.235 108.463 189.098C108.356 189.26 108.211 189.392 108.04 189.484C107.87 189.577 107.68 189.625 107.486 189.626C105.308 188.065 102.807 186.237 100.903 184.81C100.7 184.473 100.575 184.095 100.537 183.703C100.729 182.45 101.054 181.221 101.507 180.037Z" fill="#E8F6FD" stroke="#00402A" stroke-width="0.5" stroke-linecap="round" stroke-linejoin="round"/>
<path d="M109.815 190.985C109.616 189.889 109.556 188.773 109.635 187.662C110.794 189.612 112.173 191.929 112.305 192.145C112.445 192.435 112.533 192.746 112.567 193.066C112.409 193.014 112.259 192.941 112.121 192.849C111.77 192.633 111.038 192.141 110.109 191.485C110 191.325 109.903 191.157 109.819 190.982L109.815 190.985Z" fill="#E8F6FD" stroke="#00402A" stroke-width="0.5" stroke-linecap="round" stroke-linejoin="round"/>
<path d="M105.441 170.436C108.397 171.722 111.274 173.18 114.059 174.802C114.581 175.116 115.021 175.382 115.408 175.612C116.508 176.228 117.565 176.918 118.572 177.676C117.23 178.841 115.77 179.862 114.215 180.723C112.519 181.795 110.722 182.7 108.852 183.426C107.282 181.654 105.491 180.092 103.523 178.778C101.663 177.375 99.657 176.177 97.54 175.205C98.7062 174.211 99.936 173.295 101.221 172.461C102.565 171.662 103.977 170.985 105.441 170.438V170.436Z" fill="#5BD38C" stroke="#00402A" stroke-width="0.5" stroke-linecap="round" stroke-linejoin="round"/>
<path d="M99.8818 186.462C99.8817 186.497 99.8903 186.532 99.9069 186.564C99.9235 186.595 99.9475 186.622 99.9769 186.642L101.852 187.874C101.862 187.883 101.875 187.888 101.888 187.889C101.901 187.891 101.914 187.889 101.926 187.883C101.938 187.877 101.948 187.867 101.954 187.856C101.961 187.844 101.964 187.831 101.963 187.818V187.647C101.963 187.611 101.954 187.576 101.937 187.545C101.921 187.513 101.897 187.487 101.867 187.467L99.9923 186.235C99.982 186.226 99.9694 186.22 99.956 186.219C99.9426 186.217 99.9291 186.22 99.9172 186.226C99.9053 186.232 99.8955 186.242 99.8892 186.254C99.8829 186.266 99.8803 186.28 99.8818 186.293V186.462Z" fill="#928881" stroke="#00402A" stroke-width="0.5" stroke-linecap="round" stroke-linejoin="round"/>
<path d="M124.203 183.693C125.121 184.186 126.007 184.738 126.855 185.345C126.987 185.468 127.104 185.572 127.197 185.653L127.251 185.713C125.763 187.406 123.958 188.792 121.94 189.796C119.679 191.063 117.282 192.07 114.794 192.797C114.361 192.091 113.852 191.281 113.333 190.445C113.116 190.101 112.9 189.757 112.683 189.417C113.246 189.029 114.175 188.55 115.234 187.974C116.966 187.032 123.339 183.316 124.187 183.695L124.203 183.693Z" fill="#B9B0A9" stroke="#00402A" stroke-width="0.5" stroke-linecap="round" stroke-linejoin="round"/>
<path d="M155.833 244.588V232.582H159.667V244.588C159.653 244.756 159.594 244.918 159.496 245.055C159.398 245.193 159.265 245.301 159.11 245.37C158.689 245.583 158.224 245.694 157.751 245.694C157.279 245.694 156.814 245.583 156.393 245.37C156.239 245.3 156.106 245.192 156.008 245.054C155.91 244.917 155.851 244.756 155.835 244.588H155.833Z" fill="white"/>
<path d="M157.749 245.807C157.255 245.817 156.767 245.702 156.331 245.472C156.157 245.392 156.007 245.267 155.898 245.11C155.788 244.954 155.723 244.77 155.708 244.579V232.574C155.708 232.558 155.711 232.542 155.717 232.528C155.723 232.513 155.732 232.5 155.743 232.489C155.754 232.477 155.768 232.469 155.782 232.463C155.797 232.457 155.812 232.453 155.828 232.453H159.662C159.694 232.455 159.724 232.468 159.746 232.49C159.768 232.512 159.781 232.542 159.782 232.574V244.579C159.767 244.77 159.701 244.953 159.591 245.11C159.482 245.266 159.333 245.391 159.16 245.472C158.723 245.702 158.235 245.818 157.742 245.807H157.749Z" fill="#C66D00" stroke="#00402A" stroke-width="0.5" stroke-linecap="round" stroke-linejoin="round"/>
<path d="M156.391 231.807C156.228 231.862 156.085 231.967 155.985 232.107C155.884 232.247 155.83 232.416 155.83 232.588C155.83 232.761 155.884 232.929 155.985 233.07C156.085 233.21 156.228 233.315 156.391 233.37C156.812 233.584 157.278 233.695 157.75 233.695C158.222 233.695 158.688 233.584 159.109 233.37C159.273 233.315 159.415 233.21 159.516 233.07C159.617 232.929 159.671 232.761 159.671 232.588C159.671 232.416 159.617 232.247 159.516 232.107C159.415 231.967 159.273 231.862 159.109 231.807C158.688 231.593 158.222 231.482 157.75 231.482C157.278 231.482 156.812 231.593 156.391 231.807Z" fill="white"/>
<path d="M157.75 233.816C157.257 233.825 156.769 233.709 156.332 233.48C156.15 233.413 155.992 233.291 155.881 233.132C155.77 232.972 155.711 232.782 155.711 232.588C155.711 232.393 155.77 232.204 155.881 232.044C155.992 231.884 156.15 231.763 156.332 231.695C156.77 231.471 157.255 231.354 157.747 231.354C158.239 231.354 158.723 231.471 159.161 231.695C159.335 231.775 159.485 231.9 159.594 232.057C159.704 232.214 159.769 232.397 159.784 232.588C159.768 232.778 159.702 232.961 159.592 233.118C159.483 233.274 159.334 233.4 159.161 233.48C158.724 233.71 158.237 233.825 157.743 233.816H157.75ZM156.459 231.911C156.311 231.953 156.182 232.042 156.089 232.165C155.997 232.287 155.947 232.437 155.947 232.59C155.947 232.744 155.997 232.893 156.089 233.016C156.182 233.138 156.311 233.228 156.459 233.27C156.86 233.474 157.304 233.581 157.755 233.581C158.205 233.581 158.649 233.474 159.05 233.27C159.198 233.228 159.328 233.138 159.42 233.016C159.513 232.893 159.563 232.744 159.563 232.59C159.563 232.437 159.513 232.287 159.42 232.165C159.328 232.042 159.198 231.953 159.05 231.911C158.649 231.706 158.205 231.6 157.755 231.6C157.304 231.6 156.86 231.706 156.459 231.911Z" fill="#2A2F55"/>
<path d="M149.235 228.092L156.449 213.907H159.049L166.263 228.092C167.148 229.829 166.405 231.791 164.023 233.161C162.078 234.149 159.927 234.663 157.746 234.663C155.564 234.663 153.414 234.149 151.469 233.161C149.093 231.802 148.343 229.829 149.229 228.092H149.235Z" fill="#00A443"/>
<path d="M157.748 234.781C155.539 234.827 153.355 234.305 151.406 233.265C149.046 231.906 148.169 229.893 149.118 228.028L156.332 213.843C156.344 213.824 156.36 213.808 156.379 213.797C156.399 213.786 156.421 213.78 156.443 213.78H159.043C159.065 213.78 159.088 213.785 159.107 213.797C159.127 213.808 159.143 213.824 159.154 213.843L166.368 228.028C167.317 229.893 166.44 231.902 164.08 233.265C162.133 234.304 159.953 234.825 157.748 234.781Z" stroke="#00402A" stroke-width="0.5" stroke-linecap="round" stroke-linejoin="round"/>
<path d="M156.792 213.572C156.676 213.612 156.576 213.687 156.505 213.786C156.434 213.886 156.396 214.005 156.396 214.127C156.396 214.249 156.434 214.369 156.505 214.468C156.576 214.568 156.676 214.642 156.792 214.682C157.089 214.831 157.416 214.908 157.748 214.908C158.08 214.908 158.407 214.831 158.704 214.682C158.819 214.642 158.919 214.568 158.991 214.468C159.062 214.369 159.1 214.249 159.1 214.127C159.1 214.005 159.062 213.886 158.991 213.786C158.919 213.687 158.819 213.612 158.704 213.572C158.407 213.424 158.08 213.346 157.748 213.346C157.416 213.346 157.089 213.424 156.792 213.572Z" fill="white"/>
<path d="M157.747 215.033C157.392 215.04 157.04 214.954 156.728 214.784C156.591 214.735 156.474 214.645 156.39 214.527C156.307 214.408 156.261 214.267 156.261 214.122C156.261 213.977 156.307 213.836 156.39 213.718C156.474 213.599 156.591 213.509 156.728 213.461C157.044 213.3 157.393 213.217 157.747 213.217C158.101 213.217 158.451 213.3 158.766 213.461C158.894 213.521 159.003 213.614 159.082 213.73C159.162 213.846 159.209 213.982 159.219 214.122C159.21 214.263 159.163 214.399 159.083 214.515C159.004 214.631 158.894 214.724 158.766 214.784C158.454 214.953 158.103 215.039 157.747 215.033ZM156.855 213.674C156.765 213.714 156.686 213.777 156.628 213.856C156.569 213.936 156.532 214.029 156.52 214.127C156.531 214.225 156.568 214.318 156.627 214.398C156.686 214.477 156.764 214.54 156.855 214.58C157.133 214.722 157.44 214.796 157.752 214.796C158.063 214.796 158.371 214.722 158.649 214.58C158.739 214.54 158.818 214.477 158.876 214.398C158.935 214.318 158.972 214.225 158.984 214.127C158.972 214.029 158.935 213.936 158.876 213.856C158.817 213.777 158.739 213.714 158.649 213.674C158.371 213.533 158.063 213.46 157.752 213.46C157.44 213.46 157.133 213.533 156.855 213.674Z" fill="#2A2F55"/>
<path d="M151.155 218.07L156.745 207.091H158.76L164.348 218.07C165.027 219.416 164.461 220.931 162.62 222.001C161.113 222.764 159.449 223.161 157.76 223.161C156.072 223.161 154.407 222.764 152.901 222.001C151.06 220.941 150.477 219.416 151.171 218.07H151.155Z" fill="#00A443"/>
<path d="M157.746 223.283C156.034 223.318 154.342 222.914 152.829 222.112C150.988 221.052 150.302 219.482 151.042 218.021L156.63 207.043C156.641 207.024 156.658 207.007 156.678 206.996C156.698 206.985 156.72 206.979 156.743 206.98H158.752C158.775 206.979 158.797 206.985 158.816 206.996C158.836 207.007 158.852 207.024 158.863 207.043L164.45 218.021C165.191 219.482 164.507 221.052 162.666 222.112C161.152 222.913 159.459 223.316 157.746 223.283Z" stroke="#00402A" stroke-width="0.5" stroke-linecap="round" stroke-linejoin="round"/>
<path d="M157.006 206.828C156.918 206.859 156.841 206.917 156.787 206.994C156.733 207.07 156.704 207.161 156.704 207.255C156.704 207.348 156.733 207.44 156.787 207.516C156.841 207.592 156.918 207.65 157.006 207.682C157.235 207.799 157.489 207.86 157.746 207.86C158.003 207.86 158.257 207.799 158.486 207.682C158.893 207.442 158.893 207.059 158.486 206.828C158.257 206.71 158.003 206.648 157.746 206.648C157.488 206.648 157.235 206.71 157.006 206.828Z" fill="white"/>
<path d="M157.746 207.993C157.466 207.998 157.189 207.932 156.942 207.8C156.834 207.759 156.741 207.686 156.675 207.591C156.609 207.495 156.574 207.382 156.574 207.267C156.574 207.151 156.609 207.038 156.675 206.943C156.741 206.847 156.834 206.774 156.942 206.733C157.191 206.604 157.467 206.536 157.747 206.536C158.028 206.536 158.304 206.604 158.552 206.733C158.66 206.774 158.754 206.847 158.819 206.943C158.885 207.038 158.92 207.151 158.92 207.267C158.92 207.382 158.885 207.495 158.819 207.591C158.754 207.686 158.66 207.759 158.552 207.8C158.305 207.932 158.027 207.999 157.746 207.993ZM157.746 206.781C157.51 206.776 157.276 206.83 157.067 206.939C156.996 206.958 156.934 207 156.89 207.057C156.846 207.115 156.822 207.186 156.822 207.259C156.822 207.331 156.846 207.402 156.89 207.46C156.934 207.518 156.996 207.559 157.067 207.578C157.278 207.683 157.51 207.738 157.746 207.738C157.982 207.738 158.214 207.683 158.425 207.578C158.496 207.559 158.558 207.518 158.602 207.46C158.646 207.402 158.67 207.331 158.67 207.259C158.67 207.186 158.646 207.115 158.602 207.057C158.558 207 158.496 206.958 158.425 206.939C158.216 206.83 157.982 206.776 157.746 206.781Z" fill="#2A2F55"/>
<path d="M153.278 208.797L157.072 201.342H158.43L162.224 208.797C162.677 209.703 162.297 210.743 161.044 211.461C160.021 211.979 158.891 212.249 157.744 212.249C156.598 212.249 155.467 211.979 154.444 211.461C153.192 210.736 152.802 209.705 153.264 208.797H153.278Z" fill="#DCEBE1"/>
<path d="M157.747 212.389C156.575 212.41 155.418 212.133 154.383 211.583C153.115 210.849 152.646 209.771 153.155 208.754L156.958 201.299C156.969 201.279 156.985 201.263 157.005 201.251C157.024 201.24 157.047 201.235 157.069 201.235H158.428C158.451 201.235 158.473 201.24 158.493 201.251C158.512 201.263 158.528 201.279 158.539 201.299L162.333 208.754C162.851 209.766 162.383 210.849 161.105 211.583C160.073 212.133 158.917 212.411 157.747 212.389Z" fill="#00A443" stroke="#00402A" stroke-width="0.5" stroke-linecap="round" stroke-linejoin="round"/>
<path d="M157.189 200.968C157.122 200.991 157.063 201.034 157.021 201.093C156.98 201.151 156.957 201.22 156.957 201.292C156.957 201.363 156.98 201.433 157.021 201.491C157.063 201.549 157.122 201.592 157.189 201.615C157.363 201.702 157.554 201.748 157.748 201.748C157.943 201.748 158.134 201.702 158.307 201.615C158.375 201.592 158.434 201.549 158.475 201.491C158.517 201.433 158.539 201.363 158.539 201.292C158.539 201.22 158.517 201.151 158.475 201.093C158.434 201.034 158.375 200.991 158.307 200.968C158.134 200.881 157.943 200.836 157.748 200.836C157.554 200.836 157.363 200.881 157.189 200.968Z" fill="#00A443" stroke="#00402A" stroke-width="0.5" stroke-linecap="round" stroke-linejoin="round"/>
<path d="M33.3086 172.943V161.79H36.8707V172.943C36.8572 173.099 36.8019 173.249 36.7104 173.376C36.6189 173.504 36.4948 173.604 36.3511 173.667C35.9601 173.866 35.5275 173.97 35.0887 173.97C34.6499 173.97 34.2171 173.866 33.8261 173.667C33.6833 173.603 33.5601 173.502 33.4691 173.375C33.3781 173.248 33.3227 173.099 33.3086 172.943Z" fill="white"/>
<path d="M35.0864 174.075C34.6281 174.084 34.175 173.976 33.7693 173.763C33.6079 173.689 33.4694 173.573 33.3677 173.427C33.266 173.281 33.2047 173.111 33.1907 172.934V161.781C33.1904 161.766 33.1932 161.752 33.1987 161.738C33.2042 161.724 33.2124 161.712 33.2228 161.701C33.2332 161.691 33.2456 161.683 33.2593 161.677C33.2729 161.672 33.2874 161.669 33.3022 161.669H36.8645C36.8937 161.67 36.9214 161.682 36.942 161.703C36.9627 161.724 36.9749 161.752 36.9759 161.781V172.934C36.9611 173.111 36.8996 173.281 36.798 173.426C36.6964 173.572 36.5582 173.688 36.3973 173.763C35.992 173.977 35.5386 174.085 35.0802 174.075H35.0864Z" fill="#C66D00" stroke="#00402A" stroke-width="0.5" stroke-linecap="round" stroke-linejoin="round"/>
<path d="M33.8259 161.07C33.6736 161.121 33.5412 161.218 33.4473 161.348C33.3534 161.478 33.303 161.635 33.303 161.795C33.303 161.956 33.3534 162.112 33.4473 162.242C33.5412 162.372 33.6736 162.47 33.8259 162.52C34.2169 162.719 34.6497 162.823 35.0885 162.823C35.5273 162.823 35.9598 162.719 36.3509 162.52C36.5031 162.47 36.6355 162.372 36.7294 162.242C36.8233 162.112 36.8738 161.956 36.8738 161.795C36.8738 161.635 36.8233 161.478 36.7294 161.348C36.6355 161.218 36.5031 161.121 36.3509 161.07C35.9595 160.872 35.5271 160.769 35.0885 160.769C34.6499 160.769 34.2172 160.872 33.8259 161.07Z" fill="white"/>
<path d="M35.0864 162.938C34.6282 162.946 34.1753 162.839 33.7693 162.627C33.6079 162.553 33.4693 162.437 33.3676 162.291C33.2659 162.145 33.2047 161.975 33.1907 161.798C33.2038 161.619 33.2644 161.446 33.3661 161.299C33.4678 161.151 33.6069 161.032 33.7693 160.956C34.1763 160.748 34.6265 160.64 35.0833 160.64C35.5401 160.64 35.9903 160.748 36.3973 160.956C36.5605 161.031 36.7005 161.149 36.8023 161.297C36.9041 161.445 36.9641 161.618 36.9759 161.798C36.9608 161.975 36.8993 162.144 36.7977 162.29C36.6961 162.435 36.5581 162.552 36.3973 162.627C35.9916 162.84 35.5385 162.947 35.0802 162.938H35.0864ZM33.8872 161.166C33.7512 161.207 33.632 161.29 33.5472 161.404C33.4623 161.518 33.4164 161.656 33.4164 161.798C33.4164 161.94 33.4623 162.078 33.5472 162.191C33.632 162.305 33.7512 162.389 33.8872 162.429C34.26 162.619 34.6724 162.718 35.0907 162.718C35.5091 162.718 35.9215 162.619 36.2943 162.429C36.4303 162.389 36.5495 162.305 36.6343 162.191C36.7192 162.078 36.7648 161.94 36.7648 161.798C36.7648 161.656 36.7192 161.518 36.6343 161.404C36.5495 161.29 36.4303 161.207 36.2943 161.166C35.9215 160.977 35.5091 160.878 35.0907 160.878C34.6724 160.878 34.26 160.977 33.8872 161.166Z" fill="#2A2F55"/>
<path d="M27.1776 157.617L33.8808 144.441H36.2943L42.9954 157.617C43.8181 159.233 43.13 161.055 40.9145 162.328C39.1072 163.244 37.1095 163.722 35.0833 163.722C33.0571 163.722 31.0594 163.244 29.2521 162.328C27.045 161.055 26.3485 159.233 27.1712 157.617H27.1776Z" fill="#00A443"/>
<path d="M35.0844 163.83C33.0327 163.874 31.0045 163.39 29.1933 162.425C27.0009 161.162 26.1867 159.291 27.0683 157.557L33.7694 144.382C33.78 144.364 33.7955 144.349 33.8141 144.338C33.8326 144.328 33.8535 144.323 33.8747 144.323H36.2879C36.3089 144.323 36.3296 144.328 36.3478 144.338C36.366 144.348 36.3811 144.364 36.3912 144.382L43.0943 157.557C43.9738 159.291 43.1596 161.158 40.9672 162.425C39.1586 163.388 37.1332 163.872 35.0844 163.83Z" stroke="#00402A" stroke-width="0.5" stroke-linecap="round" stroke-linejoin="round"/>
<path d="M34.1971 144.129C34.0904 144.167 33.998 144.236 33.9326 144.328C33.8673 144.42 33.8323 144.531 33.8323 144.644C33.8323 144.757 33.8673 144.867 33.9326 144.959C33.998 145.051 34.0904 145.121 34.1971 145.158C34.4727 145.297 34.7769 145.369 35.0855 145.369C35.3941 145.369 35.6987 145.297 35.9742 145.158C36.0809 145.121 36.1733 145.051 36.2387 144.959C36.304 144.867 36.339 144.757 36.339 144.644C36.339 144.531 36.304 144.42 36.2387 144.328C36.1733 144.236 36.0809 144.167 35.9742 144.129C35.6984 143.991 35.3939 143.92 35.0855 143.92C34.7771 143.92 34.4729 143.991 34.1971 144.129Z" fill="white"/>
<path d="M35.0847 145.484C34.7547 145.491 34.4287 145.412 34.1384 145.254C34.0127 145.208 33.904 145.125 33.8273 145.015C33.7506 144.905 33.7095 144.774 33.7095 144.64C33.7095 144.506 33.7506 144.376 33.8273 144.266C33.904 144.156 34.0127 144.072 34.1384 144.026C34.4317 143.877 34.7558 143.8 35.0847 143.8C35.4135 143.8 35.7379 143.877 36.0311 144.026C36.1494 144.082 36.2504 144.168 36.3243 144.276C36.3982 144.384 36.4422 144.51 36.4516 144.64C36.4433 144.771 36.3999 144.897 36.3258 145.005C36.2518 145.113 36.15 145.199 36.0311 145.254C35.7407 145.411 35.4146 145.49 35.0847 145.484ZM34.2563 144.222C34.1664 144.248 34.0874 144.302 34.0311 144.377C33.9749 144.452 33.9444 144.543 33.9444 144.636C33.9444 144.73 33.9749 144.821 34.0311 144.895C34.0874 144.97 34.1664 145.025 34.2563 145.05C34.5141 145.182 34.7995 145.251 35.089 145.251C35.3785 145.251 35.6639 145.182 35.9218 145.05C36.0117 145.025 36.0907 144.97 36.1469 144.895C36.2032 144.821 36.2337 144.73 36.2337 144.636C36.2337 144.543 36.2032 144.452 36.1469 144.377C36.0907 144.302 36.0117 144.248 35.9218 144.222C35.6639 144.09 35.3785 144.021 35.089 144.021C34.7995 144.021 34.5141 144.09 34.2563 144.222Z" fill="#2A2F55"/>
<path d="M28.963 148.307L34.1535 138.109H36.026L41.2188 148.307C41.85 149.57 41.3218 150.967 39.6112 151.958C38.212 152.667 36.6655 153.036 35.0971 153.036C33.5286 153.036 31.9822 152.667 30.5829 151.958C28.8724 150.973 28.3318 149.559 28.9777 148.307H28.963Z" fill="#00A443"/>
<path d="M35.0852 153.151C33.4948 153.184 31.9225 152.809 30.5173 152.063C28.8068 151.079 28.1694 149.618 28.8574 148.263L34.0501 138.065C34.0602 138.047 34.0751 138.032 34.0933 138.021C34.1115 138.011 34.1322 138.006 34.1531 138.006H36.0195C36.0404 138.006 36.061 138.011 36.0791 138.022C36.0973 138.032 36.1123 138.047 36.1225 138.065L41.3132 148.263C42.0033 149.618 41.3656 151.079 39.6551 152.063C38.2489 152.809 36.6761 153.183 35.0852 153.151Z" stroke="#00402A" stroke-width="0.5" stroke-linecap="round" stroke-linejoin="round"/>
<path d="M34.3969 137.865C34.3157 137.894 34.2454 137.948 34.1959 138.019C34.1463 138.09 34.1196 138.174 34.1196 138.26C34.1196 138.347 34.1463 138.431 34.1959 138.502C34.2454 138.573 34.3157 138.626 34.3969 138.656C34.6098 138.766 34.8457 138.823 35.0854 138.823C35.325 138.823 35.5612 138.766 35.7741 138.656C35.8553 138.626 35.9255 138.573 35.9751 138.502C36.0247 138.431 36.0514 138.347 36.0514 138.26C36.0514 138.174 36.0247 138.09 35.9751 138.019C35.9255 137.948 35.8553 137.894 35.7741 137.865C35.5612 137.755 35.325 137.698 35.0854 137.698C34.8457 137.698 34.6098 137.755 34.3969 137.865Z" fill="white"/>
<path d="M35.0852 138.947C34.8253 138.951 34.5687 138.89 34.3387 138.769C34.2385 138.73 34.1525 138.662 34.0917 138.573C34.031 138.485 33.9983 138.38 33.9983 138.272C33.9983 138.165 34.031 138.06 34.0917 137.971C34.1525 137.883 34.2385 137.815 34.3387 137.776C34.5696 137.656 34.8259 137.593 35.0862 137.593C35.3465 137.593 35.6031 137.656 35.834 137.776C35.9342 137.815 36.0202 137.883 36.081 137.971C36.1417 138.06 36.1741 138.165 36.1741 138.272C36.1741 138.38 36.1417 138.485 36.081 138.573C36.0202 138.662 35.9342 138.73 35.834 138.769C35.6036 138.891 35.3459 138.952 35.0852 138.947ZM35.0852 137.822C34.8659 137.818 34.6491 137.868 34.4545 137.969C34.3892 137.987 34.3315 138.025 34.2904 138.079C34.2493 138.133 34.227 138.198 34.227 138.266C34.227 138.334 34.2493 138.399 34.2904 138.453C34.3315 138.506 34.3892 138.545 34.4545 138.563C34.6504 138.66 34.8662 138.711 35.0852 138.711C35.3042 138.711 35.5203 138.66 35.7162 138.563C35.7814 138.545 35.8391 138.506 35.8802 138.453C35.9213 138.399 35.9436 138.334 35.9436 138.266C35.9436 138.198 35.9213 138.133 35.8802 138.079C35.8391 138.025 35.7814 137.987 35.7162 137.969C35.5216 137.868 35.3045 137.818 35.0852 137.822Z" fill="#2A2F55"/>
<path d="M30.9313 139.694L34.4556 132.768H35.718L39.2423 139.694C39.6631 140.546 39.3096 141.501 38.1461 142.168C37.1959 142.65 36.1457 142.901 35.0805 142.901C34.0154 142.901 32.9651 142.65 32.0149 142.168C30.8535 141.493 30.4895 140.537 30.9187 139.694H30.9313Z" fill="#DCEBE1"/>
<path d="M35.0843 143.019C33.9963 143.039 32.9211 142.782 31.9599 142.272C30.7817 141.59 30.3462 140.588 30.8196 139.641L34.3521 132.718C34.3621 132.699 34.3771 132.684 34.3952 132.673C34.4134 132.662 34.4342 132.657 34.4553 132.657H35.7177C35.7388 132.657 35.7596 132.662 35.7778 132.673C35.796 132.684 35.811 132.699 35.8209 132.718L39.347 139.641C39.8268 140.582 39.3912 141.59 38.2067 142.272C37.2463 142.782 36.1717 143.039 35.0843 143.019Z" fill="#00A443" stroke="#00402A" stroke-width="0.5" stroke-linecap="round" stroke-linejoin="round"/>
<path d="M34.5672 132.425C34.5043 132.446 34.4498 132.487 34.4111 132.541C34.3725 132.595 34.3516 132.66 34.3516 132.726C34.3516 132.792 34.3725 132.857 34.4111 132.911C34.4498 132.965 34.5043 133.005 34.5672 133.027C34.728 133.107 34.9055 133.15 35.0855 133.15C35.2655 133.15 35.4432 133.107 35.604 133.027C35.6669 133.005 35.7215 132.965 35.7601 132.911C35.7988 132.857 35.8194 132.792 35.8194 132.726C35.8194 132.66 35.7988 132.595 35.7601 132.541C35.7215 132.487 35.6669 132.446 35.604 132.425C35.4432 132.344 35.2655 132.302 35.0855 132.302C34.9055 132.302 34.728 132.344 34.5672 132.425Z" fill="#00A443" stroke="#00402A" stroke-width="0.5" stroke-linecap="round" stroke-linejoin="round"/>
<path d="M202.557 191.854V194.021L204.535 192.865V190.686L202.557 191.854Z" fill="#2F6852" stroke="#00402A" stroke-width="0.5" stroke-linecap="round" stroke-linejoin="round"/>
<path d="M202.556 191.853V194.02L200.578 192.866V190.687L202.556 191.853Z" fill="#699282" stroke="#00402A" stroke-width="0.5" stroke-linecap="round" stroke-linejoin="round"/>
<path d="M200.578 190.685L202.556 189.517L204.534 190.685L202.556 191.854L200.578 190.685Z" fill="#FFF5EC" stroke="#00402A" stroke-width="0.5" stroke-linecap="round" stroke-linejoin="round"/>
<path d="M202.556 180.566V191.361L203.558 190.775V179.973L202.556 180.566Z" fill="#2F6852" stroke="#00402A" stroke-width="0.5" stroke-linecap="round" stroke-linejoin="round"/>
<path d="M202.554 180.566V191.361L201.552 190.775V179.973L202.554 180.566Z" fill="#699282" stroke="#00402A" stroke-width="0.5" stroke-linecap="round" stroke-linejoin="round"/>
<path d="M186.396 201.266V203.433L188.374 202.276V200.097L186.396 201.266Z" fill="#2F6852" stroke="#00402A" stroke-width="0.5" stroke-linecap="round" stroke-linejoin="round"/>
<path d="M186.396 201.266V203.433L184.418 202.276V200.097L186.396 201.266Z" fill="#699282" stroke="#00402A" stroke-width="0.5" stroke-linecap="round" stroke-linejoin="round"/>
<path d="M184.418 200.098L186.396 198.929L188.374 200.098L186.396 201.266L184.418 200.098Z" fill="#FFF5EC" stroke="#00402A" stroke-width="0.5" stroke-linecap="round" stroke-linejoin="round"/>
<path d="M186.395 195.518V200.773L187.398 200.186V194.926L186.395 195.518Z" fill="#FFF5EC" stroke="#00402A" stroke-width="0.5" stroke-linecap="round" stroke-linejoin="round"/>
<path d="M186.396 195.517V200.773L185.393 200.186V194.925L186.396 195.517Z" fill="#FFF5EC" stroke="#00402A" stroke-width="0.5" stroke-linecap="round" stroke-linejoin="round"/>
<path d="M163.04 187.639V189.806L165.018 188.649V186.47L163.04 187.639Z" fill="#2F6852" stroke="#00402A" stroke-width="0.5" stroke-linecap="round" stroke-linejoin="round"/>
<path d="M163.038 187.639V189.806L161.06 188.649V186.471L163.038 187.639Z" fill="#699282" stroke="#00402A" stroke-width="0.5" stroke-linecap="round" stroke-linejoin="round"/>
<path d="M161.059 186.471L163.037 185.302L165.015 186.471L163.037 187.639L161.059 186.471Z" fill="#FFF5EC" stroke="#00402A" stroke-width="0.5" stroke-linecap="round" stroke-linejoin="round"/>
<path d="M163.041 181.888V187.144L164.043 186.557V181.3L163.041 181.888Z" fill="#FFF5EC" stroke="#00402A" stroke-width="0.5" stroke-linecap="round" stroke-linejoin="round"/>
<path d="M163.04 181.888V187.144L162.038 186.557V181.3L163.04 181.888Z" fill="#FFF5EC" stroke="#00402A" stroke-width="0.5" stroke-linecap="round" stroke-linejoin="round"/>
<path d="M180.254 164.062L158.772 184.32L186.37 200.461L207.852 180.202L180.254 164.062Z" fill="#FFFAF6" stroke="#00402A" stroke-width="0.5" stroke-linecap="round" stroke-linejoin="round"/>
<path d="M185.853 168.819L185.905 169.293L182.149 172.836L181.615 172.898L176.623 169.977L176.581 169.608L180.404 166.003L180.933 165.942L185.853 168.819Z" fill="#B4EDFC" stroke="#00402A" stroke-width="0.5" stroke-linecap="round" stroke-linejoin="round"/>
<path d="M192.325 172.606L192.377 173.077L188.62 176.623L188.088 176.684L183.094 173.763L183.053 173.394L186.876 169.79L187.404 169.728L192.325 172.606Z" fill="#6BDAFF" stroke="#00402A" stroke-width="0.5" stroke-linecap="round" stroke-linejoin="round"/>
<path d="M198.798 176.392L198.851 176.863L195.093 180.408L194.562 180.471L189.569 177.549L189.528 177.181L193.349 173.576L193.878 173.515L198.798 176.392Z" fill="#6BDAFF" stroke="#00402A" stroke-width="0.5" stroke-linecap="round" stroke-linejoin="round"/>
<path d="M205.27 180.176L205.323 180.65L201.564 184.194L201.034 184.255L196.04 181.334L195.998 180.965L199.821 177.361L200.351 177.299L205.27 180.176Z" fill="#6BDAFF" stroke="#00402A" stroke-width="0.5" stroke-linecap="round" stroke-linejoin="round"/>
<path d="M180.757 173.624L180.81 174.096L177.051 177.641L176.521 177.702L171.527 174.781L171.486 174.411L175.306 170.809L175.843 170.752L180.757 173.624Z" fill="#6BDAFF" stroke="#00402A" stroke-width="0.5" stroke-linecap="round" stroke-linejoin="round"/>
<path d="M187.23 177.41L187.282 177.882L183.526 181.426L182.993 181.488L178.001 178.567L177.959 178.198L181.781 174.593L182.309 174.532L187.23 177.41Z" fill="#6BDAFF" stroke="#00402A" stroke-width="0.5" stroke-linecap="round" stroke-linejoin="round"/>
<path d="M193.702 181.196L193.754 181.669L189.998 185.213L189.465 185.274L184.473 182.353L184.432 181.984L188.254 178.38L188.781 178.318L193.702 181.196Z" fill="#B4EDFC" stroke="#00402A" stroke-width="0.5" stroke-linecap="round" stroke-linejoin="round"/>
<path d="M200.177 184.983L200.23 185.455L196.473 188.999L195.941 189.061L190.948 186.139L190.907 185.771L194.728 182.166L195.257 182.105L200.177 184.983Z" fill="#6BDAFF" stroke="#00402A" stroke-width="0.5" stroke-linecap="round" stroke-linejoin="round"/>
<path d="M175.662 178.429L175.715 178.901L171.958 182.446L171.426 182.507L166.432 179.586L166.391 179.217L170.213 175.613L170.742 175.551L175.662 178.429Z" fill="#B4EDFC" stroke="#00402A" stroke-width="0.5" stroke-linecap="round" stroke-linejoin="round"/>
<path d="M182.133 182.214L182.186 182.687L178.427 186.231L177.898 186.294L172.904 183.372L172.863 183.003L176.684 179.399L177.213 179.336L182.133 182.214Z" fill="#6BDAFF" stroke="#00402A" stroke-width="0.5" stroke-linecap="round" stroke-linejoin="round"/>
<path d="M188.607 186.001L188.661 186.473L184.901 190.017L184.37 190.079L179.378 187.158L179.336 186.789L183.158 183.184L183.688 183.123L188.607 186.001Z" fill="#6BDAFF" stroke="#00402A" stroke-width="0.5" stroke-linecap="round" stroke-linejoin="round"/>
<path d="M195.082 189.786L195.134 190.26L191.378 193.804L190.845 193.865L185.852 190.944L185.811 190.575L189.633 186.971L190.162 186.909L195.082 189.786Z" fill="#6BDAFF" stroke="#00402A" stroke-width="0.5" stroke-linecap="round" stroke-linejoin="round"/>
<path d="M170.57 183.234L170.622 183.707L166.866 187.25L166.333 187.312L161.339 184.391L161.298 184.022L165.121 180.417L165.649 180.356L170.57 183.234Z" fill="#6BDAFF" stroke="#00402A" stroke-width="0.5" stroke-linecap="round" stroke-linejoin="round"/>
<path d="M177.04 187.02L177.092 187.493L173.336 191.037L172.803 191.098L167.81 188.177L167.769 187.808L171.59 184.204L172.12 184.142L177.04 187.02Z" fill="#B4EDFC" stroke="#00402A" stroke-width="0.5" stroke-linecap="round" stroke-linejoin="round"/>
<path d="M183.512 190.806L183.564 191.278L179.807 194.823L179.275 194.885L174.282 191.963L174.241 191.595L178.062 187.99L178.595 187.929L183.512 190.806Z" fill="#6BDAFF" stroke="#00402A" stroke-width="0.5" stroke-linecap="round" stroke-linejoin="round"/>
<path d="M189.985 194.592L190.039 195.065L186.279 198.609L185.75 198.67L180.756 195.749L180.714 195.38L184.536 191.776L185.066 191.714L189.985 194.592Z" fill="#B4EDFC" stroke="#00402A" stroke-width="0.5" stroke-linecap="round" stroke-linejoin="round"/>
<path d="M252.703 195.197V197.364L254.681 196.207V194.029L252.703 195.197Z" fill="#2F6852" stroke="#00402A" stroke-width="0.5" stroke-linecap="round" stroke-linejoin="round"/>
<path d="M252.702 195.196V197.363L250.724 196.209V194.031L252.702 195.196Z" fill="#699282" stroke="#00402A" stroke-width="0.5" stroke-linecap="round" stroke-linejoin="round"/>
<path d="M250.725 194.029L252.703 192.86L254.681 194.029L252.703 195.197L250.725 194.029Z" fill="#FFF5EC" stroke="#00402A" stroke-width="0.5" stroke-linecap="round" stroke-linejoin="round"/>
<path d="M252.702 183.908V194.704L253.704 194.117V183.316L252.702 183.908Z" fill="#2F6852" stroke="#00402A" stroke-width="0.5" stroke-linecap="round" stroke-linejoin="round"/>
<path d="M252.702 183.909V194.704L251.7 194.118V183.316L252.702 183.909Z" fill="#699282" stroke="#00402A" stroke-width="0.5" stroke-linecap="round" stroke-linejoin="round"/>
<path d="M236.542 204.608V206.775L238.52 205.619V203.44L236.542 204.608Z" fill="#2F6852" stroke="#00402A" stroke-width="0.5" stroke-linecap="round" stroke-linejoin="round"/>
<path d="M236.542 204.609V206.776L234.564 205.619V203.44L236.542 204.609Z" fill="#699282" stroke="#00402A" stroke-width="0.5" stroke-linecap="round" stroke-linejoin="round"/>
<path d="M234.564 203.44L236.542 202.272L238.52 203.44L236.542 204.609L234.564 203.44Z" fill="#FFF5EC" stroke="#00402A" stroke-width="0.5" stroke-linecap="round" stroke-linejoin="round"/>
<path d="M236.543 198.861V204.116L237.545 203.529V198.268L236.543 198.861Z" fill="#FFF5EC" stroke="#00402A" stroke-width="0.5" stroke-linecap="round" stroke-linejoin="round"/>
<path d="M236.543 198.86V204.116L235.54 203.529V198.268L236.543 198.86Z" fill="#FFF5EC" stroke="#00402A" stroke-width="0.5" stroke-linecap="round" stroke-linejoin="round"/>
<path d="M213.188 190.982V193.149L215.166 191.993V189.814L213.188 190.982Z" fill="#2F6852" stroke="#00402A" stroke-width="0.5" stroke-linecap="round" stroke-linejoin="round"/>
<path d="M213.186 190.983V193.15L211.208 191.993V189.814L213.186 190.983Z" fill="#699282" stroke="#00402A" stroke-width="0.5" stroke-linecap="round" stroke-linejoin="round"/>
<path d="M211.207 189.814L213.185 188.645L215.163 189.814L213.185 190.982L211.207 189.814Z" fill="#FFF5EC" stroke="#00402A" stroke-width="0.5" stroke-linecap="round" stroke-linejoin="round"/>
<path d="M213.189 185.232V190.487L214.192 189.9V184.643L213.189 185.232Z" fill="#FFF5EC" stroke="#00402A" stroke-width="0.5" stroke-linecap="round" stroke-linejoin="round"/>
<path d="M213.187 185.231V190.487L212.185 189.9V184.643L213.187 185.231Z" fill="#FFF5EC" stroke="#00402A" stroke-width="0.5" stroke-linecap="round" stroke-linejoin="round"/>
<path d="M251.031 168.453V170.62L253.009 169.463V167.284L251.031 168.453Z" fill="#2F6852" stroke="#00402A" stroke-width="0.5" stroke-linecap="round" stroke-linejoin="round"/>
<path d="M251.032 168.452V170.619L249.054 169.465V167.286L251.032 168.452Z" fill="#699282" stroke="#00402A" stroke-width="0.5" stroke-linecap="round" stroke-linejoin="round"/>
<path d="M249.054 167.284L251.032 166.116L253.01 167.284L251.032 168.453L249.054 167.284Z" fill="#FFF5EC" stroke="#00402A" stroke-width="0.5" stroke-linecap="round" stroke-linejoin="round"/>
<path d="M251.031 157.164V167.96L252.034 167.373V156.572L251.031 157.164Z" fill="#2F6852" stroke="#00402A" stroke-width="0.5" stroke-linecap="round" stroke-linejoin="round"/>
<path d="M251.031 157.164V167.96L250.028 167.373V156.572L251.031 157.164Z" fill="#699282" stroke="#00402A" stroke-width="0.5" stroke-linecap="round" stroke-linejoin="round"/>
<path d="M234.872 177.864V180.031L236.85 178.874V176.695L234.872 177.864Z" fill="#2F6852" stroke="#00402A" stroke-width="0.5" stroke-linecap="round" stroke-linejoin="round"/>
<path d="M234.872 177.864V180.031L232.894 178.874V176.696L234.872 177.864Z" fill="#699282" stroke="#00402A" stroke-width="0.5" stroke-linecap="round" stroke-linejoin="round"/>
<path d="M232.894 176.696L234.872 175.527L236.85 176.696L234.872 177.864L232.894 176.696Z" fill="#FFF5EC" stroke="#00402A" stroke-width="0.5" stroke-linecap="round" stroke-linejoin="round"/>
<path d="M234.871 172.116V177.372L235.873 176.785V171.524L234.871 172.116Z" fill="#FFF5EC" stroke="#00402A" stroke-width="0.5" stroke-linecap="round" stroke-linejoin="round"/>
<path d="M234.872 172.116V177.371L233.869 176.784V171.524L234.872 172.116Z" fill="#FFF5EC" stroke="#00402A" stroke-width="0.5" stroke-linecap="round" stroke-linejoin="round"/>
<path d="M211.515 164.238V166.405L213.493 165.248V163.069L211.515 164.238Z" fill="#2F6852" stroke="#00402A" stroke-width="0.5" stroke-linecap="round" stroke-linejoin="round"/>
<path d="M211.514 164.238V166.405L209.536 165.248V163.07L211.514 164.238Z" fill="#699282" stroke="#00402A" stroke-width="0.5" stroke-linecap="round" stroke-linejoin="round"/>
<path d="M209.535 163.069L211.513 161.901L213.491 163.069L211.513 164.238L209.535 163.069Z" fill="#FFF5EC" stroke="#00402A" stroke-width="0.5" stroke-linecap="round" stroke-linejoin="round"/>
<path d="M211.516 158.487V163.742L212.519 163.155V157.898L211.516 158.487Z" fill="#FFF5EC" stroke="#00402A" stroke-width="0.5" stroke-linecap="round" stroke-linejoin="round"/>
<path d="M211.516 158.486V163.742L210.514 163.155V157.898L211.516 158.486Z" fill="#FFF5EC" stroke="#00402A" stroke-width="0.5" stroke-linecap="round" stroke-linejoin="round"/>
<path d="M228.729 140.66L207.247 160.919L234.845 177.059L256.327 156.8L228.729 140.66Z" fill="#FFFAF6" stroke="#00402A" stroke-width="0.5" stroke-linecap="round" stroke-linejoin="round"/>
<path d="M234.329 145.417L234.381 145.891L230.625 149.435L230.092 149.496L225.099 146.576L225.057 146.206L228.88 142.602L229.409 142.54L234.329 145.417Z" fill="#B4EDFC" stroke="#00402A" stroke-width="0.5" stroke-linecap="round" stroke-linejoin="round"/>
<path d="M240.801 149.204L240.853 149.675L237.096 153.221L236.564 153.282L231.571 150.361L231.53 149.992L235.352 146.388L235.88 146.326L240.801 149.204Z" fill="#6BDAFF" stroke="#00402A" stroke-width="0.5" stroke-linecap="round" stroke-linejoin="round"/>
<path d="M247.273 152.99L247.326 153.461L243.568 157.006L243.037 157.069L238.044 154.147L238.003 153.779L241.824 150.174L242.353 150.113L247.273 152.99Z" fill="#6BDAFF" stroke="#00402A" stroke-width="0.5" stroke-linecap="round" stroke-linejoin="round"/>
<path d="M253.748 156.775L253.801 157.248L250.042 160.792L249.512 160.854L244.518 157.933L244.476 157.564L248.298 153.959L248.829 153.898L253.748 156.775Z" fill="#6BDAFF" stroke="#00402A" stroke-width="0.5" stroke-linecap="round" stroke-linejoin="round"/>
<path d="M229.233 150.222L229.286 150.694L225.527 154.239L224.998 154.301L220.003 151.38L219.962 151.01L223.782 147.407L224.319 147.35L229.233 150.222Z" fill="#6BDAFF" stroke="#00402A" stroke-width="0.5" stroke-linecap="round" stroke-linejoin="round"/>
<path d="M235.708 154.008L235.759 154.481L232.003 158.025L231.47 158.087L226.478 155.166L226.436 154.797L230.258 151.192L230.787 151.13L235.708 154.008Z" fill="#6BDAFF" stroke="#00402A" stroke-width="0.5" stroke-linecap="round" stroke-linejoin="round"/>
<path d="M242.177 157.795L242.229 158.268L238.473 161.811L237.94 161.873L232.948 158.952L232.907 158.583L236.729 154.978L237.256 154.917L242.177 157.795Z" fill="#B4EDFC" stroke="#00402A" stroke-width="0.5" stroke-linecap="round" stroke-linejoin="round"/>
<path d="M248.653 161.581L248.705 162.053L244.948 165.598L244.416 165.659L239.423 162.738L239.382 162.369L243.203 158.765L243.733 158.703L248.653 161.581Z" fill="#6BDAFF" stroke="#00402A" stroke-width="0.5" stroke-linecap="round" stroke-linejoin="round"/>
<path d="M224.136 155.027L224.189 155.499L220.432 159.044L219.9 159.106L214.907 156.185L214.866 155.816L218.687 152.211L219.217 152.15L224.136 155.027Z" fill="#B4EDFC" stroke="#00402A" stroke-width="0.5" stroke-linecap="round" stroke-linejoin="round"/>
<path d="M230.609 158.813L230.662 159.286L226.903 162.83L226.374 162.892L221.38 159.97L221.339 159.602L225.16 155.997L225.689 155.935L230.609 158.813Z" fill="#6BDAFF" stroke="#00402A" stroke-width="0.5" stroke-linecap="round" stroke-linejoin="round"/>
<path d="M237.082 162.599L237.136 163.072L233.376 166.615L232.845 166.677L227.853 163.756L227.811 163.387L231.633 159.782L232.163 159.721L237.082 162.599Z" fill="#6BDAFF" stroke="#00402A" stroke-width="0.5" stroke-linecap="round" stroke-linejoin="round"/>
<path d="M243.557 166.385L243.609 166.858L239.853 170.402L239.32 170.464L234.326 167.543L234.285 167.174L238.108 163.569L238.637 163.508L243.557 166.385Z" fill="#6BDAFF" stroke="#00402A" stroke-width="0.5" stroke-linecap="round" stroke-linejoin="round"/>
<path d="M219.045 159.832L219.097 160.305L215.341 163.849L214.808 163.91L209.815 160.989L209.774 160.62L213.596 157.016L214.125 156.954L219.045 159.832Z" fill="#6BDAFF" stroke="#00402A" stroke-width="0.5" stroke-linecap="round" stroke-linejoin="round"/>
<path d="M225.514 163.619L225.567 164.091L221.811 167.635L221.278 167.697L216.285 164.776L216.244 164.407L220.065 160.802L220.594 160.741L225.514 163.619Z" fill="#B4EDFC" stroke="#00402A" stroke-width="0.5" stroke-linecap="round" stroke-linejoin="round"/>
<path d="M231.986 167.404L232.039 167.877L228.281 171.422L227.75 171.483L222.757 168.561L222.716 168.193L226.537 164.589L227.069 164.527L231.986 167.404Z" fill="#6BDAFF" stroke="#00402A" stroke-width="0.5" stroke-linecap="round" stroke-linejoin="round"/>
<path d="M238.461 171.191L238.515 171.663L234.755 175.207L234.226 175.269L229.232 172.348L229.19 171.979L233.012 168.374L233.542 168.313L238.461 171.191Z" fill="#B4EDFC" stroke="#00402A" stroke-width="0.5" stroke-linecap="round" stroke-linejoin="round"/>
<path d="M230.401 167.405L208.919 187.663L236.517 203.804L257.999 183.545L230.401 167.405Z" fill="#FFFAF6" stroke="#00402A" stroke-width="0.5" stroke-linecap="round" stroke-linejoin="round"/>
<path d="M235.999 172.162L236.051 172.636L232.295 176.18L231.762 176.242L226.77 173.321L226.728 172.951L230.55 169.347L231.079 169.285L235.999 172.162Z" fill="#B4EDFC" stroke="#00402A" stroke-width="0.5" stroke-linecap="round" stroke-linejoin="round"/>
<path d="M242.472 175.949L242.523 176.42L238.767 179.966L238.234 180.027L233.241 177.107L233.2 176.737L237.022 173.133L237.551 173.071L242.472 175.949Z" fill="#6BDAFF" stroke="#00402A" stroke-width="0.5" stroke-linecap="round" stroke-linejoin="round"/>
<path d="M248.945 179.735L248.997 180.206L245.24 183.751L244.708 183.814L239.715 180.892L239.674 180.524L243.495 176.919L244.025 176.858L248.945 179.735Z" fill="#6BDAFF" stroke="#00402A" stroke-width="0.5" stroke-linecap="round" stroke-linejoin="round"/>
<path d="M255.417 183.519L255.471 183.993L251.711 187.537L251.182 187.599L246.188 184.678L246.146 184.309L249.968 180.704L250.499 180.643L255.417 183.519Z" fill="#6BDAFF" stroke="#00402A" stroke-width="0.5" stroke-linecap="round" stroke-linejoin="round"/>
<path d="M230.905 176.967L230.957 177.439L227.198 180.984L226.669 181.046L221.675 178.125L221.634 177.755L225.453 174.152L225.99 174.095L230.905 176.967Z" fill="#6BDAFF" stroke="#00402A" stroke-width="0.5" stroke-linecap="round" stroke-linejoin="round"/>
<path d="M237.377 180.753L237.429 181.226L233.673 184.77L233.14 184.832L228.147 181.911L228.105 181.542L231.928 177.937L232.456 177.876L237.377 180.753Z" fill="#6BDAFF" stroke="#00402A" stroke-width="0.5" stroke-linecap="round" stroke-linejoin="round"/>
<path d="M243.849 184.54L243.901 185.012L240.145 188.556L239.612 188.618L234.619 185.697L234.578 185.328L238.401 181.723L238.928 181.662L243.849 184.54Z" fill="#B4EDFC" stroke="#00402A" stroke-width="0.5" stroke-linecap="round" stroke-linejoin="round"/>
<path d="M250.324 188.327L250.377 188.798L246.62 192.343L246.088 192.405L241.094 189.483L241.053 189.115L244.875 185.51L245.404 185.449L250.324 188.327Z" fill="#6BDAFF" stroke="#00402A" stroke-width="0.5" stroke-linecap="round" stroke-linejoin="round"/>
<path d="M225.808 181.772L225.861 182.244L222.104 185.789L221.572 185.85L216.579 182.93L216.538 182.56L220.359 178.956L220.888 178.894L225.808 181.772Z" fill="#B4EDFC" stroke="#00402A" stroke-width="0.5" stroke-linecap="round" stroke-linejoin="round"/>
<path d="M232.282 185.558L232.335 186.031L228.576 189.575L228.047 189.637L223.052 186.715L223.011 186.347L226.833 182.743L227.362 182.68L232.282 185.558Z" fill="#6BDAFF" stroke="#00402A" stroke-width="0.5" stroke-linecap="round" stroke-linejoin="round"/>
<path d="M238.755 189.344L238.809 189.817L235.049 193.361L234.518 193.422L229.525 190.501L229.483 190.132L233.306 186.528L233.836 186.466L238.755 189.344Z" fill="#6BDAFF" stroke="#00402A" stroke-width="0.5" stroke-linecap="round" stroke-linejoin="round"/>
<path d="M245.229 193.129L245.281 193.603L241.525 197.147L240.992 197.208L235.999 194.287L235.958 193.918L239.78 190.314L240.309 190.252L245.229 193.129Z" fill="#6BDAFF" stroke="#00402A" stroke-width="0.5" stroke-linecap="round" stroke-linejoin="round"/>
<path d="M220.717 186.577L220.769 187.05L217.013 190.594L216.48 190.655L211.487 187.734L211.446 187.365L215.268 183.761L215.796 183.699L220.717 186.577Z" fill="#6BDAFF" stroke="#00402A" stroke-width="0.5" stroke-linecap="round" stroke-linejoin="round"/>
<path d="M227.186 190.363L227.239 190.836L223.483 194.38L222.95 194.441L217.957 191.521L217.916 191.151L221.737 187.547L222.266 187.485L227.186 190.363Z" fill="#B4EDFC" stroke="#00402A" stroke-width="0.5" stroke-linecap="round" stroke-linejoin="round"/>
<path d="M233.659 194.149L233.712 194.622L229.954 198.167L229.423 198.228L224.43 195.306L224.389 194.938L228.21 191.333L228.742 191.272L233.659 194.149Z" fill="#6BDAFF" stroke="#00402A" stroke-width="0.5" stroke-linecap="round" stroke-linejoin="round"/>
<path d="M240.133 197.935L240.187 198.408L236.427 201.952L235.898 202.014L230.904 199.093L230.862 198.724L234.684 195.119L235.214 195.058L240.133 197.935Z" fill="#B4EDFC" stroke="#00402A" stroke-width="0.5" stroke-linecap="round" stroke-linejoin="round"/>
</svg>
