<svg width="302" height="275" viewBox="0 0 302 275" fill="none" xmlns="http://www.w3.org/2000/svg">
<path d="M0.25 176L151.06 263.083L301.534 176.024L151.06 88.916L0.25 176Z" fill="#5BD38C" stroke="#00402A" stroke-width="0.5" stroke-linecap="round" stroke-linejoin="round"/>
<path d="M0.25 176V187.22L150.898 274.25V263.03L0.25 176Z" fill="#00A443" stroke="#00402A" stroke-width="0.5" stroke-linecap="round" stroke-linejoin="round"/>
<path d="M301.542 176.084V187.304L151.06 274.25V263.03L301.542 176.084Z" fill="#007F33" stroke="#00402A" stroke-width="0.5" stroke-linecap="round" stroke-linejoin="round"/>
<path d="M195.862 96.9558L175.072 136.783L108.283 97.2626L151.793 71.134L195.862 96.9558Z" fill="#5BD38C" stroke="#00402A" stroke-width="0.5" stroke-linecap="round" stroke-linejoin="round"/>
<path d="M108.28 97.3548L108.313 112.228L177.3 151.863L180.149 138.243L108.28 97.3548Z" fill="#00A443" stroke="#00402A" stroke-width="0.5" stroke-linecap="round" stroke-linejoin="round"/>
<path d="M122.383 73.7547L122.417 88.6276L180.536 121.205L180.253 106.937L122.383 73.7547Z" fill="#00A443" stroke="#00402A" stroke-width="0.5" stroke-linecap="round" stroke-linejoin="round"/>
<path d="M181.375 135.21L224.685 107.46L224.327 80.8856L180.253 106.934L181.375 135.21Z" fill="#00A443" stroke="#00402A" stroke-width="0.5" stroke-linecap="round" stroke-linejoin="round"/>
<path d="M224.324 80.8857L180.255 106.934L122.384 73.7518L167.022 47.6361L224.324 80.8857Z" fill="#5BD38C" stroke="#00402A" stroke-width="0.5" stroke-linecap="round" stroke-linejoin="round"/>
<path d="M125.618 248.401L172.448 220.792L208.71 220.33L258.217 191.191C242.07 181.688 263.878 194.581 209.034 162.294C208.3 162.717 123.035 217.701 97.9968 232.472L125.618 248.401Z" fill="#B6E5FF" stroke="#00402A" stroke-width="0.5" stroke-linecap="round" stroke-linejoin="round"/>
<path d="M189.047 152.354L203.363 156.595L252.85 183.758L249.048 201.215L220.948 189.671L177.906 164.568L183.957 156.364L189.047 152.354Z" fill="#6ECBFF" stroke="#00402A" stroke-width="0.5" stroke-linecap="round" stroke-linejoin="round"/>
<path d="M204.577 100.276V104.084L281.767 149.523V145.715L204.577 100.276Z" fill="#664E4C"/>
<path d="M198.556 164.67L188.196 163.295L198.043 126.63L205.659 138.243L198.556 164.67Z" fill="#6ECBFF" stroke="#00402A" stroke-width="0.5" stroke-linecap="round" stroke-linejoin="round"/>
<path d="M224.042 179.747L231.571 184.281L239.78 158.492L231.146 153.316L224.042 179.747Z" fill="#6ECBFF" stroke="#00402A" stroke-width="0.5" stroke-linecap="round" stroke-linejoin="round"/>
<path d="M211.3 172.206L218.829 176.74L227.038 150.951L218.405 145.775L211.3 172.206Z" fill="#6ECBFF" stroke="#00402A" stroke-width="0.5" stroke-linecap="round" stroke-linejoin="round"/>
<path d="M198.556 164.67L206.086 169.203L214.295 143.414L205.661 138.238L198.556 164.67Z" fill="#6ECBFF" stroke="#00402A" stroke-width="0.5" stroke-linecap="round" stroke-linejoin="round"/>
<path d="M236.782 187.289L239.188 195.879L249.042 159.217L243.878 160.858L236.782 187.289Z" fill="white" stroke="#00402A" stroke-width="0.5" stroke-linecap="round" stroke-linejoin="round"/>
<path d="M205.271 100.682C205.271 100.682 225.183 112.415 281.773 145.715L301.207 134.292L237.857 96.9703L224.322 89.0063L205.271 100.682Z" fill="#B6E5FF" stroke="#00402A" stroke-width="0.5" stroke-linecap="round" stroke-linejoin="round"/>
<path d="M253.844 204.114V201.892L263.836 165.056L281.797 154.552L281.145 188.044L253.844 204.114Z" fill="#B0A9A3" stroke="#00402A" stroke-width="0.5" stroke-linecap="round" stroke-linejoin="round"/>
<path d="M182.108 177.96L172.07 172.115L173.021 166.407L173.757 161.983L173.982 160.653C173.372 161.008 172.489 161.524 171.471 162.108L166.164 165.203C163.935 166.493 162.136 167.541 162.079 167.576L162.034 177.96H182.108Z" fill="#D8CFC7" stroke="#00402A" stroke-width="0.5" stroke-linecap="round" stroke-linejoin="round"/>
<path d="M220.094 192.334L214.532 195.58V202.082C221.358 198.088 218.821 199.57 225.657 195.582L220.094 192.334Z" fill="#B0A9A3" stroke="#00402A" stroke-width="0.5" stroke-linecap="round" stroke-linejoin="round"/>
<path d="M220.09 192.33L218.332 191.295L212.774 194.546L214.532 195.581L220.09 192.33Z" fill="#D8CFC7" stroke="#00402A" stroke-width="0.5" stroke-linecap="round" stroke-linejoin="round"/>
<path d="M212.768 194.556L214.531 195.581V202.083L212.768 201.058V194.556Z" fill="white" stroke="#00402A" stroke-width="0.5" stroke-linecap="round" stroke-linejoin="round"/>
<path d="M207.35 184.799L201.788 188.044V194.546C208.614 190.55 206.078 192.033 212.912 188.046L207.35 184.799Z" fill="#B0A9A3" stroke="#00402A" stroke-width="0.5" stroke-linecap="round" stroke-linejoin="round"/>
<path d="M207.349 184.793L205.591 183.758L200.032 187.01L201.79 188.045L207.349 184.793Z" fill="#D8CFC7" stroke="#00402A" stroke-width="0.5" stroke-linecap="round" stroke-linejoin="round"/>
<path d="M200.026 187.019L201.789 188.044V194.546L200.026 193.521V187.019Z" fill="white" stroke="#00402A" stroke-width="0.5" stroke-linecap="round" stroke-linejoin="round"/>
<path d="M194.608 177.255L189.045 180.501V187.002C195.872 183.008 193.335 184.49 200.17 180.502L194.608 177.255Z" fill="#B0A9A3" stroke="#00402A" stroke-width="0.5" stroke-linecap="round" stroke-linejoin="round"/>
<path d="M194.604 177.251L192.846 176.216L187.288 179.467L189.046 180.502L194.604 177.251Z" fill="#D8CFC7" stroke="#00402A" stroke-width="0.5" stroke-linecap="round" stroke-linejoin="round"/>
<path d="M187.283 179.478L189.047 180.503V187.005L187.283 185.98V179.478Z" fill="white" stroke="#00402A" stroke-width="0.5" stroke-linecap="round" stroke-linejoin="round"/>
<path d="M180.375 161.253L190.228 124.592L198.027 120.031L205.831 115.466L205.849 122.061L198.045 126.626L188.197 163.291L180.392 167.865L172.593 172.426L172.575 165.821L180.375 161.253Z" fill="#B0A9A3" stroke="#00402A" stroke-width="0.5" stroke-linecap="round" stroke-linejoin="round"/>
<path d="M249.051 159.219L190.228 124.593L190.248 131.198L249.07 165.824L249.051 159.219Z" fill="white" stroke="#00402A" stroke-width="0.5" stroke-linecap="round" stroke-linejoin="round"/>
<path d="M200.086 136.787L198.328 135.752L191.227 162.176L192.985 163.211L200.086 136.787Z" fill="white" stroke="#00402A" stroke-width="0.5" stroke-linecap="round" stroke-linejoin="round"/>
<path d="M198.323 135.751L200.089 136.779L205.641 133.533L203.885 132.496C202.119 133.537 200.342 134.575 198.323 135.751Z" fill="#D8CFC7" stroke="#00402A" stroke-width="0.5" stroke-linecap="round" stroke-linejoin="round"/>
<path d="M185.661 165.428L185.684 170.128L187.437 171.171L187.426 166.46L185.661 165.428Z" fill="#828383"/>
<path d="M185.661 165.428L187.426 166.461L190.063 164.914L192.982 163.206L191.229 162.174L188.309 163.881L185.661 165.428Z" fill="#D8CFC7" stroke="#00402A" stroke-width="0.5" stroke-linecap="round" stroke-linejoin="round"/>
<path d="M187.427 166.464L187.438 171.175C198.314 164.804 189.03 170.247 198.561 164.665L205.656 138.245V133.535H205.645L200.088 136.79L192.983 163.209C189.4 165.305 190.668 164.569 187.427 166.464Z" fill="#B0A9A3" stroke="#00402A" stroke-width="0.5" stroke-linecap="round" stroke-linejoin="round"/>
<path d="M212.825 144.327L211.067 143.292L203.967 169.716L205.724 170.751L212.825 144.327Z" fill="white" stroke="#00402A" stroke-width="0.5" stroke-linecap="round" stroke-linejoin="round"/>
<path d="M211.064 143.295L212.831 144.323L218.383 141.077L216.627 140.041C214.86 141.077 213.084 142.115 211.064 143.295Z" fill="#D8CFC7" stroke="#00402A" stroke-width="0.5" stroke-linecap="round" stroke-linejoin="round"/>
<path d="M198.412 172.964L198.424 177.675L200.177 178.707L200.166 174.007L198.412 172.964Z" fill="#828383"/>
<path d="M198.412 172.963L200.166 174.007L202.837 172.43L205.723 170.746L203.969 169.713L201.083 171.398L198.412 172.963Z" fill="#D8CFC7" stroke="#00402A" stroke-width="0.5" stroke-linecap="round" stroke-linejoin="round"/>
<path d="M200.169 173.994C200.169 174.013 200.18 178.687 200.18 178.705C206.991 174.715 204.657 176.077 211.303 172.206L218.41 145.775V141.064L218.387 141.076L212.831 144.32V144.332L205.726 170.751L200.169 173.994Z" fill="#B0A9A3" stroke="#00402A" stroke-width="0.5" stroke-linecap="round" stroke-linejoin="round"/>
<path d="M225.566 151.867L223.808 150.832L216.708 177.256L218.465 178.291L225.566 151.867Z" fill="white" stroke="#00402A" stroke-width="0.5" stroke-linecap="round" stroke-linejoin="round"/>
<path d="M223.806 150.834L225.574 151.862L231.126 148.616L229.368 147.58C227.602 148.616 225.827 149.657 223.806 150.834Z" fill="#D8CFC7" stroke="#00402A" stroke-width="0.5" stroke-linecap="round" stroke-linejoin="round"/>
<path d="M211.153 180.504L211.164 185.215L212.918 186.246L212.907 181.535L211.153 180.504Z" fill="#828383"/>
<path d="M211.153 180.505L212.907 181.537L215.611 179.96L218.463 178.298L216.71 177.268L213.858 178.929L211.153 180.505Z" fill="#D8CFC7" stroke="#00402A" stroke-width="0.5" stroke-linecap="round" stroke-linejoin="round"/>
<path d="M212.908 181.537L212.92 186.246C221.178 181.409 218.544 182.949 224.043 179.748L231.149 153.318V148.607L231.127 148.618L225.571 151.861L218.476 178.292H218.465C214.965 180.338 216.232 179.593 212.908 181.537Z" fill="#B0A9A3" stroke="#00402A" stroke-width="0.5" stroke-linecap="round" stroke-linejoin="round"/>
<path d="M238.31 159.407L236.552 158.372L229.451 184.796L231.209 185.831L238.31 159.407Z" fill="white" stroke="#00402A" stroke-width="0.5" stroke-linecap="round" stroke-linejoin="round"/>
<path d="M236.548 158.375L238.314 159.403L243.868 156.158L242.11 155.12C240.344 156.158 238.569 157.195 236.548 158.375Z" fill="#D8CFC7" stroke="#00402A" stroke-width="0.5" stroke-linecap="round" stroke-linejoin="round"/>
<path d="M223.897 188.047L223.908 192.758L225.662 193.79L225.65 189.079L223.897 188.047Z" fill="#828383"/>
<path d="M223.897 188.047L225.65 189.079L228.389 187.486V187.475L231.207 185.836L229.453 184.792L226.635 186.443L223.897 188.047Z" fill="#D8CFC7" stroke="#00402A" stroke-width="0.5" stroke-linecap="round" stroke-linejoin="round"/>
<path d="M225.648 189.083L225.66 193.794C236.045 187.71 226.65 193.221 236.783 187.295L243.889 160.864V156.153L243.866 156.165L238.311 159.409L231.216 185.84H231.205C227.746 187.86 229.012 187.121 225.648 189.083Z" fill="#B0A9A3" stroke="#00402A" stroke-width="0.5" stroke-linecap="round" stroke-linejoin="round"/>
<path d="M170.114 164.366L180.15 158.51L190.578 122.221L197.796 117.282L195.613 106.898L187.806 111.459L180.171 115.814L170.154 152.688L170.114 164.366Z" fill="white" stroke="#00402A" stroke-width="0.5" stroke-linecap="round" stroke-linejoin="round"/>
<path d="M190.228 124.592L187.762 123.14L177.908 159.801L180.374 161.254L190.228 124.592Z" fill="white" stroke="#00402A" stroke-width="0.5" stroke-linecap="round" stroke-linejoin="round"/>
<path d="M195.56 118.579L203.364 114.014L205.83 115.466L198.025 120.031L190.227 124.592L187.761 123.139L195.56 118.579Z" fill="#D8CFC7" stroke="#00402A" stroke-width="0.5" stroke-linecap="round" stroke-linejoin="round"/>
<path d="M256.633 154.784L197.811 120.158L190.229 124.593L249.051 159.219L256.633 154.784Z" fill="#D8CFC7" stroke="#00402A" stroke-width="0.5" stroke-linecap="round" stroke-linejoin="round"/>
<path d="M249.051 159.219L249.071 165.824L256.653 161.389L256.633 154.785L249.051 159.219Z" fill="#A5A6A6"/>
<path d="M267.118 151.539L203.364 114.016L203.384 120.621L267.135 158.144L267.118 151.539Z" fill="#828383"/>
<path d="M274.7 147.103L210.946 109.581L203.365 114.016L267.118 151.539L274.7 147.103Z" fill="#E1E2E2"/>
<path d="M267.117 151.539L267.137 158.144L274.719 153.709L274.699 147.104L267.117 151.539Z" fill="#A5A6A6"/>
<path d="M251.516 160.67L249.051 159.218L239.197 195.879L241.663 197.332L251.516 160.67Z" fill="white" stroke="#00402A" stroke-width="0.5" stroke-linecap="round" stroke-linejoin="round"/>
<path d="M256.848 154.657L264.652 150.092L267.117 151.545L259.313 156.109L251.515 160.67L249.049 159.218L256.848 154.657Z" fill="#D8CFC7" stroke="#00402A" stroke-width="0.5" stroke-linecap="round" stroke-linejoin="round"/>
<path d="M241.659 197.332L251.512 160.67L259.311 156.109L267.115 151.544L267.133 158.139L259.329 162.704L249.481 199.369L241.677 203.934L233.879 208.494L233.86 201.889L241.659 197.332Z" fill="#B0A9A3" stroke="#00402A" stroke-width="0.5" stroke-linecap="round" stroke-linejoin="round"/>
<path d="M245.355 200.441L253.847 201.888L263.838 165.057L271.645 160.483L269.315 150.276L261.509 154.838L253.961 159.243L243.856 196.066L245.355 200.441Z" fill="white" stroke="#00402A" stroke-width="0.5" stroke-linecap="round" stroke-linejoin="round"/>
<path d="M179.575 176.482L182.11 177.96L184.554 176.516L187.644 174.682L189.816 173.392L187.349 171.937L185.154 173.227L179.575 176.482Z" fill="#B0A9A3" stroke="#00402A" stroke-width="0.5" stroke-linecap="round" stroke-linejoin="round"/>
<path d="M170.115 164.366L170.126 170.96L172.593 172.417L179.575 176.474L182.109 177.952V175.065L184.554 176.509L221.406 198.321V201.209C233.153 208.059 230.681 206.619 233.888 208.487L233.865 201.892C230.468 199.885 236.652 203.529 187.642 174.682L185.152 173.226L172.581 165.822V165.811L170.115 164.366Z" fill="white" stroke="#00402A" stroke-width="0.5" stroke-linecap="round" stroke-linejoin="round"/>
<path d="M170.115 164.366C174.841 167.133 232.171 200.893 233.866 201.893H253.847L243.856 196.07L241.684 197.331C234.897 193.362 184.156 163.454 177.923 159.817L178.513 157.555L170.163 152.68L170.115 164.366Z" fill="#D8CFC7" stroke="#00402A" stroke-width="0.5" stroke-linecap="round" stroke-linejoin="round"/>
<path d="M263.811 156.211L180.153 106.969L180.179 115.813L263.838 165.055L263.811 156.211Z" fill="white" stroke="#00402A" stroke-width="0.5" stroke-linecap="round" stroke-linejoin="round"/>
<path d="M281.772 145.708L198.113 96.4688L180.153 106.972L263.811 156.214L281.772 145.708Z" fill="#D8CFC7" stroke="#00402A" stroke-width="0.5" stroke-linecap="round" stroke-linejoin="round"/>
<path d="M263.812 156.211L263.839 165.055L281.799 154.552L281.773 145.708L263.812 156.211Z" fill="#B0A9A3" stroke="#00402A" stroke-width="0.5" stroke-linecap="round" stroke-linejoin="round"/>
<path d="M253.844 201.892V204.114L233.888 208.499L233.869 201.894L253.844 201.892Z" fill="#D8CFC7" stroke="#00402A" stroke-width="0.5" stroke-linecap="round" stroke-linejoin="round"/>
<path d="M221.405 201.217V212.895L235.134 214.322C237.147 213.14 251.659 205.406 253.846 204.116L233.92 208.483C230.703 206.64 233.166 208.068 221.405 201.217Z" fill="#D8CFC7" stroke="#00402A" stroke-width="0.5" stroke-linecap="round" stroke-linejoin="round"/>
<path d="M191.728 160.304L180.374 161.253L190.247 131.198L198.322 135.755L191.728 160.304Z" fill="white" stroke="#00402A" stroke-width="0.5" stroke-linecap="round" stroke-linejoin="round"/>
<path d="M191.728 160.304L180.374 161.253L181.948 162.176L186.576 164.9L191.23 162.176L191.728 160.304Z" fill="#D8CFC7" stroke="#00402A" stroke-width="0.5" stroke-linecap="round" stroke-linejoin="round"/>
<path d="M89.788 148.11L75.5064 156.518L61.1226 148.106L75.4052 139.697L89.788 148.11Z" fill="white" stroke="#00402A" stroke-width="0.5" stroke-linecap="round" stroke-linejoin="round"/>
<path d="M52.8409 170.971L38.5572 179.378L24.1733 170.965L38.456 162.557L52.8409 170.971Z" fill="white" stroke="#00402A" stroke-width="0.5" stroke-linecap="round" stroke-linejoin="round"/>
<path d="M167.446 73.0812L153.162 81.4888L138.779 73.0759L153.061 64.6673L167.446 73.0812Z" fill="white" stroke="#00402A" stroke-width="0.5" stroke-linecap="round" stroke-linejoin="round"/>
<path fill-rule="evenodd" clip-rule="evenodd" d="M78.0011 100.188C77.8791 100.405 77.6942 100.58 77.4713 100.688C77.0597 100.866 76.6145 100.952 76.167 100.938H75.9222C75.5465 100.919 75.1767 100.834 74.8296 100.688C74.4523 100.497 74.264 100.271 74.2647 100.009L74.3008 99.9042C74.3236 99.6894 74.4998 99.4986 74.8296 99.332C75.1707 99.1623 75.5426 99.0651 75.9222 99.0464H76.169C76.6204 99.0314 77.0684 99.1295 77.4733 99.332C77.7055 99.4256 77.8945 99.604 78.0031 99.832L78.0011 100.188Z" stroke="#00402A" stroke-width="0.5" stroke-linecap="round" stroke-linejoin="round"/>
<path fill-rule="evenodd" clip-rule="evenodd" d="M74.2624 100.007C74.2624 100.27 74.4507 100.496 74.8273 100.686C75.1745 100.832 75.5442 100.917 75.9199 100.936H76.1668C76.6143 100.949 77.0595 100.864 77.4711 100.686C77.694 100.578 77.8789 100.403 78.0009 100.186L78.0184 126.794L78.036 140.763V148.036C77.9746 148.242 77.8658 148.43 77.7186 148.585C77.5714 148.74 77.3899 148.858 77.1892 148.928C76.7894 149.127 76.361 149.26 75.9199 149.322C75.6618 149.345 75.3915 149.357 75.1092 149.357H74.786C74.1881 149.331 73.6012 149.185 73.0592 148.928C72.5873 148.698 72.2331 148.357 72.2124 148L74.2624 100.007Z" fill="#FFFAF6" stroke="#00402A" stroke-width="0.5" stroke-linecap="round" stroke-linejoin="round"/>
<path fill-rule="evenodd" clip-rule="evenodd" d="M79.7641 98.1225C79.7641 98.1225 75.8759 95.0459 75.7788 94.9225C75.6817 94.799 72.8138 93.0761 71.1367 95.3169C69.4595 97.5576 71.6469 99.9198 71.6469 99.9198L76.0948 103.538C76.0948 103.538 77.6986 103.842 79.4481 101.453C81.1975 99.0651 79.7641 98.1225 79.7641 98.1225Z" fill="#FFFAF6" stroke="#00402A" stroke-width="0.5" stroke-linecap="round" stroke-linejoin="round"/>
<path fill-rule="evenodd" clip-rule="evenodd" d="M90.8946 74.3901L91.1568 74.1746L91.3406 75.0627C89.4425 81.0025 87.5864 86.2823 85.7722 90.9019L84.4111 94.2296C83.2874 96.886 82.2203 99.1463 81.2096 101.01C81.1519 101.073 81.1026 101.144 81.0629 101.22L81.0712 101.711L81.0846 101.889L85.1412 102.733L85.2899 102.774L88.9427 106.749L95.1742 113.531L95.0606 114.337L94.0691 114.506C93.5301 114.179 93.0033 113.847 92.489 113.513L88.7444 111.01L88.3767 110.74C87.1133 109.826 85.9392 108.924 84.8541 108.035C82.929 106.491 81.2328 104.674 79.8175 102.641L79.6574 102.678L78.9025 102.822L74.028 106.933L70.3184 108.548L56.1483 114.675L56.0016 114.34L55.7424 113.712C61.1292 110.447 65.9217 107.736 70.1201 105.578C70.3401 105.473 70.5621 105.369 70.7862 105.243C73.3102 103.953 75.9005 102.8 78.5462 101.791C78.8457 101.678 79.1434 101.577 79.4395 101.49C79.4619 101.471 79.4907 101.461 79.52 101.462L80.3875 100.531L81.034 95.1408L81.6464 93.8206L90.4174 74.7646L90.8946 74.3901Z" fill="#FFFAF6" stroke="#00402A" stroke-width="0.5" stroke-linecap="round" stroke-linejoin="round"/>
<path fill-rule="evenodd" clip-rule="evenodd" d="M81.068 101.716L84.9357 102.532L85.1422 102.741L81.0856 101.897L81.068 101.716ZM79.6543 102.686L79.8143 102.649C81.2296 104.682 82.9258 106.499 84.851 108.043C85.9374 108.932 87.1116 109.834 88.3736 110.748L88.7413 111.018C88.4976 110.846 88.2566 110.674 88.0184 110.501C86.7557 109.587 85.5811 108.685 84.4947 107.796C82.6656 106.317 81.0379 104.598 79.6543 102.686ZM90.8956 74.3907L90.4163 74.7725L81.6454 93.8285L81.0329 95.1487L80.3865 100.539L79.5189 101.47C79.4897 101.469 79.4609 101.478 79.4385 101.498C79.1424 101.585 78.8446 101.686 78.5451 101.799C75.8994 102.808 73.3091 103.961 70.7852 105.251C70.5611 105.375 70.339 105.486 70.119 105.586C65.9193 107.744 61.1267 110.455 55.7414 113.72L56.0006 114.348L55.7941 114.436L55.3882 113.477C60.7749 110.211 65.5675 107.5 69.7659 105.342C69.9858 105.237 70.2089 105.133 70.432 105.007C72.956 103.717 75.5463 102.565 78.1919 101.555C78.4914 101.442 78.7899 101.346 79.0852 101.254C79.108 101.235 79.1372 101.225 79.1668 101.227L80.0333 100.296L80.6808 94.9049L81.2932 93.5837L90.0632 74.5277L90.8057 73.9314L90.8956 74.3907Z" fill="#B2A9A2" stroke="#00402A" stroke-width="0.5" stroke-linecap="round" stroke-linejoin="round"/>
<path fill-rule="evenodd" clip-rule="evenodd" d="M79 100.187C79.2759 99.6743 79.6981 99.2572 80.2114 98.9907C80.3937 98.8694 80.6047 98.7996 80.8226 98.7886C81.0405 98.7775 81.2573 98.8256 81.4506 98.9279C81.4967 98.9524 81.5385 98.9842 81.5746 99.0221C81.6327 99.0788 81.6949 99.1313 81.7605 99.179C82.2286 99.5567 82.608 100.035 82.8712 100.579C83.1345 101.124 83.2751 101.721 83.2828 102.327C83.2848 102.384 83.2715 102.44 83.2442 102.49C83.2169 102.54 83.1767 102.582 83.1278 102.61C82.3894 102.971 81.586 103.174 80.767 103.209H80.3312C80.0711 103.208 79.8114 103.186 79.5545 103.145L79.3366 103.082H79.2437L78.9959 102.956C78.8212 102.829 78.683 102.657 78.5956 102.458C78.5081 102.259 78.4744 102.04 78.4981 101.824C78.5101 101.241 78.6841 100.674 79 100.187Z" fill="#00A443" stroke="#00402A" stroke-width="0.5" stroke-linecap="round" stroke-linejoin="round"/>
<path fill-rule="evenodd" clip-rule="evenodd" d="M40.3768 123.365C40.255 123.583 40.0705 123.757 39.8481 123.865C39.4364 124.043 38.9912 124.128 38.5438 124.114H38.2969C37.9212 124.096 37.5514 124.012 37.2043 123.865C36.8277 123.674 36.6394 123.448 36.6394 123.186L36.6745 123.082C36.6983 122.872 36.8749 122.676 37.2043 122.509C37.5455 122.34 37.9173 122.243 38.2969 122.224H38.5438C38.9951 122.209 39.4431 122.307 39.8481 122.509C40.08 122.603 40.2687 122.782 40.3768 123.009V123.365Z" fill="#26BD64" stroke="#00402A" stroke-width="0.5" stroke-linecap="round" stroke-linejoin="round"/>
<path fill-rule="evenodd" clip-rule="evenodd" d="M36.6396 123.186C36.6396 123.448 36.8279 123.674 37.2045 123.865C37.5516 124.012 37.9213 124.096 38.2971 124.114H38.5439C38.9914 124.128 39.4365 124.043 39.8483 123.865C40.0707 123.757 40.2552 123.583 40.377 123.365L40.3946 149.973L40.4122 163.942V171.219C40.3509 171.425 40.2422 171.613 40.0952 171.768C39.9481 171.923 39.7669 172.041 39.5663 172.111C39.1664 172.309 38.738 172.442 38.2971 172.504C38.0379 172.528 37.7684 172.54 37.4864 172.54H37.1683C36.5701 172.514 35.9829 172.368 35.4406 172.111C34.9696 171.881 34.6143 171.54 34.5947 171.183L36.6396 123.186Z" fill="#FFFAF6" stroke="#00402A" stroke-width="0.5" stroke-linecap="round" stroke-linejoin="round"/>
<path fill-rule="evenodd" clip-rule="evenodd" d="M42.1014 121.898C42.1014 121.898 37.4768 118.445 37.388 118.329C37.2992 118.213 34.6564 116.628 33.1125 118.691C31.5686 120.754 33.5824 122.932 33.5824 122.932L40.355 125.727C40.355 125.727 41.1358 125.679 41.9207 124.304C42.8367 122.699 42.1014 121.898 42.1014 121.898Z" fill="#FFFAF6" stroke="#00402A" stroke-width="0.5" stroke-linecap="round" stroke-linejoin="round"/>
<path fill-rule="evenodd" clip-rule="evenodd" d="M32.7116 98.4535L32.7715 98.1396L33.419 98.6574C35.5458 103.988 37.3165 108.829 38.7314 113.18C39.0756 114.281 39.4024 115.336 39.7115 116.345C40.4688 118.894 41.034 121.13 41.4072 123.053C41.4041 123.133 41.4114 123.213 41.4289 123.291L41.7212 123.633L41.8348 123.752L45.1921 121.918L45.3223 121.858L50.2226 122.486L58.5877 123.542L58.9771 124.18L58.376 124.893C57.8039 124.985 57.2386 125.067 56.6803 125.139L52.5741 125.613L52.1611 125.643C50.7352 125.754 49.3792 125.82 48.0931 125.842C45.832 125.904 43.5737 125.637 41.3876 125.049L41.2957 125.17L40.8475 125.725L39.8034 131.547L38.121 134.908L31.6882 147.723L31.3897 147.574L30.8413 147.288C32.7402 141.756 34.5426 136.971 36.2487 132.932C36.3472 132.73 36.4391 132.518 36.5245 132.296C37.5529 129.873 38.7091 127.507 39.9882 125.209C40.1335 124.949 40.2853 124.7 40.4437 124.461C40.4454 124.447 40.45 124.434 40.4572 124.423C40.4643 124.411 40.4738 124.401 40.485 124.394L40.5532 123.216L37.868 119.021L37.5304 117.722L32.6021 99.01L32.7116 98.4535Z" fill="#FFFAF6" stroke="#00402A" stroke-width="0.5" stroke-linecap="round" stroke-linejoin="round"/>
<path fill-rule="evenodd" clip-rule="evenodd" d="M41.7223 123.638L44.93 121.898L45.1933 121.922L41.8359 123.756L41.7223 123.638ZM41.2896 125.169L41.3815 125.048C43.5676 125.636 45.8258 125.903 48.087 125.841C49.3724 125.819 50.7284 125.753 52.1549 125.642L52.568 125.612C52.2954 125.636 52.0258 125.659 51.7594 125.678C50.3335 125.788 48.9775 125.854 47.6914 125.877C45.5359 125.929 43.3832 125.691 41.2896 125.169ZM32.7179 98.4534L32.6022 99.0099L37.5304 117.722L37.8681 119.021L40.5532 123.216L40.4851 124.394C40.4739 124.401 40.4643 124.411 40.4572 124.423C40.4501 124.434 40.4455 124.447 40.4437 124.461C40.2854 124.701 40.1336 124.95 39.9883 125.209C38.7093 127.507 37.553 129.873 36.5245 132.296C36.4385 132.518 36.3466 132.73 36.2488 132.932C34.5427 136.97 32.7403 141.755 30.8414 147.288L31.3898 147.574L31.2958 147.759L30.449 147.324C32.3478 141.792 34.1503 137.006 35.8564 132.968C35.9548 132.766 36.0467 132.554 36.1321 132.333C37.1603 129.909 38.3166 127.543 39.5959 125.245C39.7415 124.986 39.8933 124.736 40.0513 124.497C40.0557 124.47 40.0705 124.446 40.0926 124.429L40.1608 123.253L37.4757 119.058L37.137 117.757L32.2098 99.0455L32.3853 98.1793L32.7179 98.4534Z" fill="#B2A9A2" stroke="#00402A" stroke-width="0.5" stroke-linecap="round" stroke-linejoin="round"/>
<path fill-rule="evenodd" clip-rule="evenodd" d="M40.355 123.177C40.6095 122.705 40.9985 122.321 41.4714 122.075C41.6397 121.963 41.8347 121.898 42.0361 121.888C42.2376 121.877 42.438 121.922 42.6167 122.017C42.659 122.04 42.6976 122.069 42.7313 122.104C42.7848 122.156 42.8421 122.205 42.9027 122.249C43.334 122.597 43.6836 123.037 43.9261 123.538C44.1687 124.04 44.2982 124.59 44.3052 125.148C44.3076 125.2 44.2955 125.253 44.2701 125.299C44.2447 125.345 44.2071 125.383 44.1616 125.408C43.4816 125.741 42.7413 125.929 41.9867 125.96H41.586C41.3464 125.959 41.107 125.94 40.8703 125.902L40.67 125.843H40.5842L40.355 125.727C40.1939 125.61 40.0665 125.451 39.9861 125.267C39.9057 125.083 39.8751 124.881 39.8975 124.681C39.9081 124.146 40.0666 123.625 40.355 123.177Z" fill="#00A443" stroke="#00402A" stroke-width="0.5" stroke-linecap="round" stroke-linejoin="round"/>
<path fill-rule="evenodd" clip-rule="evenodd" d="M154.984 25.476C154.862 25.6934 154.677 25.8678 154.455 25.976C154.043 26.1541 153.598 26.2391 153.15 26.225H152.904C152.528 26.2072 152.158 26.1229 151.811 25.976C151.434 25.7849 151.246 25.5586 151.246 25.2971L151.281 25.1925C151.305 24.9833 151.482 24.7866 151.811 24.6203C152.152 24.4506 152.524 24.3535 152.904 24.3347H153.15C153.602 24.3197 154.05 24.4178 154.455 24.6203C154.687 24.7139 154.875 24.8924 154.984 25.1203V25.476Z" fill="#26BD64" stroke="#00402A" stroke-width="0.5" stroke-linecap="round" stroke-linejoin="round"/>
<path fill-rule="evenodd" clip-rule="evenodd" d="M151.246 25.297C151.246 25.5585 151.434 25.7848 151.811 25.9759C152.158 26.1228 152.528 26.2071 152.904 26.2249H153.15C153.598 26.2389 154.043 26.154 154.455 25.9759C154.677 25.8677 154.862 25.6932 154.983 25.4759L155.001 52.0837L155.019 66.0525V73.3292C154.957 73.5351 154.849 73.7233 154.702 73.8785C154.555 74.0336 154.373 74.1512 154.173 74.2216C153.773 74.4198 153.344 74.5525 152.904 74.6149C152.644 74.639 152.375 74.6505 152.093 74.6505H151.775C151.177 74.6244 150.589 74.4786 150.047 74.2216C149.576 73.9914 149.221 73.6504 149.201 73.2937L151.246 25.297Z" fill="#FFFAF6" stroke="#00402A" stroke-width="0.5" stroke-linecap="round" stroke-linejoin="round"/>
<path fill-rule="evenodd" clip-rule="evenodd" d="M156.708 24.0081C156.708 24.0081 152.084 20.5559 151.995 20.4398C151.906 20.3237 149.263 18.7388 147.719 20.8018C146.175 22.8647 148.189 25.0427 148.189 25.0427L154.962 27.8379C154.962 27.8379 155.742 27.7898 156.527 26.4142C157.443 24.8094 156.708 24.0081 156.708 24.0081Z" fill="#FFFAF6" stroke="#00402A" stroke-width="0.5" stroke-linecap="round" stroke-linejoin="round"/>
<path fill-rule="evenodd" clip-rule="evenodd" d="M147.319 0.563837L147.379 0.25L148.026 0.767821C150.153 6.09881 151.924 10.9395 153.339 15.29C153.683 16.3912 154.01 17.4463 154.319 18.4555C155.076 21.0045 155.641 23.2404 156.014 25.1632C156.011 25.2433 156.019 25.3235 156.036 25.4017L156.328 25.7438L156.442 25.862L159.799 24.0281L159.929 23.9685L164.83 24.5962L173.195 25.6527L173.584 26.2909L172.983 27.0033C172.411 27.0953 171.846 27.1773 171.287 27.2491L167.181 27.723L166.768 27.7533C165.342 27.8642 163.986 27.9305 162.7 27.9521C160.439 28.0145 158.181 27.7475 155.995 27.1591L155.903 27.2805L155.455 27.8349L154.411 33.6576L152.728 37.0188L146.295 49.8336L145.997 49.684L145.448 49.3985C147.347 43.8666 149.15 39.0814 150.856 35.0427C150.954 34.8404 151.046 34.6284 151.132 34.4066C152.16 31.983 153.316 29.6171 154.595 27.3192C154.741 27.0598 154.893 26.8104 155.051 26.5712C155.053 26.5577 155.057 26.5448 155.064 26.5332C155.071 26.5217 155.081 26.5118 155.092 26.5043L155.16 25.3264L152.475 21.1315L152.138 19.8322L147.209 1.12037L147.319 0.563837Z" fill="#FFFAF6" stroke="#00402A" stroke-width="0.5" stroke-linecap="round" stroke-linejoin="round"/>
<path fill-rule="evenodd" clip-rule="evenodd" d="M156.329 25.748L159.537 24.0083L159.8 24.0323L156.443 25.8662L156.329 25.748ZM155.896 27.2795L155.988 27.1581C158.174 27.7464 160.433 28.0135 162.694 27.9511C163.979 27.9295 165.335 27.8632 166.762 27.7523L167.175 27.722C166.902 27.746 166.633 27.7691 166.366 27.7889C164.94 27.8984 163.584 27.9647 162.298 27.9877C160.143 28.0394 157.99 27.8013 155.896 27.2795ZM147.325 0.563855L147.209 1.12038L152.137 19.8322L152.475 21.1315L155.16 25.3264L155.092 26.5043C155.081 26.5118 155.071 26.5217 155.064 26.5332C155.057 26.5448 155.052 26.5577 155.05 26.5713C154.892 26.8112 154.74 27.0605 154.595 27.3192C153.316 29.6172 152.16 31.983 151.131 34.4066C151.045 34.6284 150.953 34.8404 150.856 35.0427C149.149 39.0807 147.347 43.8659 145.448 49.3985L145.996 49.6841L145.903 49.8692L145.056 49.434C146.955 43.9022 148.757 39.1169 150.463 35.0782C150.562 34.876 150.653 34.6643 150.739 34.4432C151.767 32.0195 152.923 29.6537 154.203 27.3558C154.348 27.0964 154.5 26.8464 154.658 26.6079C154.662 26.5806 154.677 26.5561 154.699 26.5399L154.767 25.363L152.082 21.1681L151.744 19.8678L146.816 1.15595L146.992 0.289764L147.325 0.563855Z" fill="#B2A9A2" stroke="#00402A" stroke-width="0.5" stroke-linecap="round" stroke-linejoin="round"/>
<path fill-rule="evenodd" clip-rule="evenodd" d="M154.962 25.2876C155.216 24.8152 155.605 24.4314 156.078 24.1861C156.246 24.0736 156.441 24.0088 156.643 23.9985C156.844 23.9882 157.045 24.0327 157.223 24.1275C157.266 24.1505 157.304 24.1797 157.338 24.2143C157.391 24.267 157.449 24.3157 157.509 24.3597C157.941 24.7074 158.29 25.1479 158.533 25.6492C158.775 26.1505 158.905 26.7002 158.912 27.2585C158.914 27.3112 158.902 27.3635 158.877 27.4095C158.851 27.4556 158.814 27.4935 158.768 27.519C158.088 27.8517 157.348 28.0394 156.593 28.0703H156.193C155.953 28.0696 155.714 28.0504 155.477 28.0128L155.277 27.9542H155.191L154.962 27.8381C154.801 27.7206 154.673 27.5617 154.593 27.3779C154.512 27.194 154.482 26.9918 154.504 26.7919C154.515 26.257 154.673 25.7359 154.962 25.2876Z" fill="#00A443" stroke="#00402A" stroke-width="0.5" stroke-linecap="round" stroke-linejoin="round"/>
<path d="M148.032 190.256V192.175L149.784 191.151V189.22L148.032 190.256Z" fill="#2F6852" stroke="#00402A" stroke-width="0.5" stroke-linecap="round" stroke-linejoin="round"/>
<path d="M148.031 190.255V192.174L146.278 191.152V189.222L148.031 190.255Z" fill="#699282" stroke="#00402A" stroke-width="0.5" stroke-linecap="round" stroke-linejoin="round"/>
<path d="M146.278 189.22L148.031 188.185L149.783 189.22L148.031 190.255L146.278 189.22Z" fill="#FFF5EC" stroke="#00402A" stroke-width="0.5" stroke-linecap="round" stroke-linejoin="round"/>
<path d="M148.031 180.254V189.819L148.919 189.299V179.73L148.031 180.254Z" fill="#2F6852" stroke="#00402A" stroke-width="0.5" stroke-linecap="round" stroke-linejoin="round"/>
<path d="M148.03 180.254V189.819L147.142 189.299V179.73L148.03 180.254Z" fill="#699282" stroke="#00402A" stroke-width="0.5" stroke-linecap="round" stroke-linejoin="round"/>
<path d="M133.715 198.594V200.514L135.468 199.489V197.558L133.715 198.594Z" fill="#2F6852" stroke="#00402A" stroke-width="0.5" stroke-linecap="round" stroke-linejoin="round"/>
<path d="M133.714 198.594V200.514L131.962 199.489V197.559L133.714 198.594Z" fill="#699282" stroke="#00402A" stroke-width="0.5" stroke-linecap="round" stroke-linejoin="round"/>
<path d="M131.962 197.559L133.714 196.523L135.467 197.559L133.714 198.594L131.962 197.559Z" fill="#FFF5EC" stroke="#00402A" stroke-width="0.5" stroke-linecap="round" stroke-linejoin="round"/>
<path d="M133.714 193.501V198.157L134.602 197.637V192.977L133.714 193.501Z" fill="#FFF5EC" stroke="#00402A" stroke-width="0.5" stroke-linecap="round" stroke-linejoin="round"/>
<path d="M133.714 193.501V198.157L132.825 197.637V192.976L133.714 193.501Z" fill="#FFF5EC" stroke="#00402A" stroke-width="0.5" stroke-linecap="round" stroke-linejoin="round"/>
<path d="M113.022 186.521V188.441L114.774 187.416V185.486L113.022 186.521Z" fill="#2F6852" stroke="#00402A" stroke-width="0.5" stroke-linecap="round" stroke-linejoin="round"/>
<path d="M113.02 186.521V188.441L111.267 187.416V185.486L113.02 186.521Z" fill="#699282" stroke="#00402A" stroke-width="0.5" stroke-linecap="round" stroke-linejoin="round"/>
<path d="M111.267 185.486L113.019 184.45L114.771 185.486L113.019 186.521L111.267 185.486Z" fill="#FFF5EC" stroke="#00402A" stroke-width="0.5" stroke-linecap="round" stroke-linejoin="round"/>
<path d="M113.022 181.426V186.082L113.911 185.562V180.905L113.022 181.426Z" fill="#FFF5EC" stroke="#00402A" stroke-width="0.5" stroke-linecap="round" stroke-linejoin="round"/>
<path d="M113.022 181.426V186.082L112.134 185.562V180.905L113.022 181.426Z" fill="#FFF5EC" stroke="#00402A" stroke-width="0.5" stroke-linecap="round" stroke-linejoin="round"/>
<path d="M128.272 165.632L109.24 183.581L133.691 197.88L152.723 179.932L128.272 165.632Z" fill="#FFFAF6" stroke="#00402A" stroke-width="0.5" stroke-linecap="round" stroke-linejoin="round"/>
<path d="M133.206 169.866L133.249 170.255L129.935 173.379L129.485 173.432L125.082 170.856L125.047 170.557L128.417 167.38L128.866 167.328L133.206 169.866Z" fill="#B4EDFC" stroke="#00402A" stroke-width="0.5" stroke-linecap="round" stroke-linejoin="round"/>
<path d="M138.941 173.22L138.984 173.609L135.67 176.734L135.22 176.786L130.816 174.21L130.782 173.911L134.152 170.735L134.601 170.682L138.941 173.22Z" fill="#6BDAFF" stroke="#00402A" stroke-width="0.5" stroke-linecap="round" stroke-linejoin="round"/>
<path d="M144.675 176.573L144.719 176.964L141.407 180.087L140.957 180.14L136.552 177.564L136.519 177.266L139.887 174.089L140.337 174.037L144.675 176.573Z" fill="#6BDAFF" stroke="#00402A" stroke-width="0.5" stroke-linecap="round" stroke-linejoin="round"/>
<path d="M150.41 179.928L150.453 180.317L147.139 183.441L146.69 183.494L142.286 180.918L142.252 180.619L145.621 177.442L146.071 177.39L150.41 179.928Z" fill="#6BDAFF" stroke="#00402A" stroke-width="0.5" stroke-linecap="round" stroke-linejoin="round"/>
<path d="M128.69 174.121L128.734 174.512L125.422 177.635L124.972 177.688L120.567 175.112L120.534 174.813L123.901 171.637L124.356 171.589L128.69 174.121Z" fill="#6BDAFF" stroke="#00402A" stroke-width="0.5" stroke-linecap="round" stroke-linejoin="round"/>
<path d="M134.427 177.476L134.47 177.866L131.157 180.99L130.707 181.043L126.303 178.467L126.269 178.168L129.638 174.991L130.088 174.938L134.427 177.476Z" fill="#6BDAFF" stroke="#00402A" stroke-width="0.5" stroke-linecap="round" stroke-linejoin="round"/>
<path d="M140.16 180.83L140.203 181.22L136.89 184.344L136.44 184.397L132.037 181.821L132.003 181.522L135.373 178.345L135.821 178.293L140.16 180.83Z" fill="#B4EDFC" stroke="#00402A" stroke-width="0.5" stroke-linecap="round" stroke-linejoin="round"/>
<path d="M145.894 184.184L145.938 184.575L142.626 187.699L142.176 187.752L137.771 185.175L137.738 184.877L141.106 181.7L141.556 181.647L145.894 184.184Z" fill="#6BDAFF" stroke="#00402A" stroke-width="0.5" stroke-linecap="round" stroke-linejoin="round"/>
<path d="M124.176 178.378L124.22 178.769L120.908 181.893L120.458 181.945L116.053 179.369L116.02 179.07L119.388 175.894L119.838 175.841L124.176 178.378Z" fill="#B4EDFC" stroke="#00402A" stroke-width="0.5" stroke-linecap="round" stroke-linejoin="round"/>
<path d="M129.911 181.732L129.955 182.123L126.641 185.246L126.192 185.299L121.788 182.723L121.754 182.425L125.123 179.248L125.573 179.196L129.911 181.732Z" fill="#6BDAFF" stroke="#00402A" stroke-width="0.5" stroke-linecap="round" stroke-linejoin="round"/>
<path d="M135.646 185.087L135.689 185.477L132.376 188.601L131.926 188.653L127.522 186.077L127.488 185.778L130.857 182.602L131.307 182.549L135.646 185.087Z" fill="#6BDAFF" stroke="#00402A" stroke-width="0.5" stroke-linecap="round" stroke-linejoin="round"/>
<path d="M141.381 188.442L141.424 188.831L138.111 191.955L137.661 192.008L133.256 189.432L133.223 189.133L136.592 185.956L137.042 185.904L141.381 188.442Z" fill="#6BDAFF" stroke="#00402A" stroke-width="0.5" stroke-linecap="round" stroke-linejoin="round"/>
<path d="M119.667 182.636L119.71 183.025L116.396 186.149L115.946 186.202L111.542 183.626L111.509 183.327L114.878 180.15L115.327 180.097L119.667 182.636Z" fill="#6BDAFF" stroke="#00402A" stroke-width="0.5" stroke-linecap="round" stroke-linejoin="round"/>
<path d="M125.397 185.989L125.441 186.381L122.128 189.504L121.678 189.557L117.274 186.98L117.241 186.682L120.609 183.505L121.059 183.452L125.397 185.989Z" fill="#B4EDFC" stroke="#00402A" stroke-width="0.5" stroke-linecap="round" stroke-linejoin="round"/>
<path d="M131.133 189.343L131.177 189.735L127.864 192.859L127.415 192.911L123.01 190.334L122.977 190.036L126.345 186.86L126.798 186.807L131.133 189.343Z" fill="#6BDAFF" stroke="#00402A" stroke-width="0.5" stroke-linecap="round" stroke-linejoin="round"/>
<path d="M136.87 192.699L136.913 193.088L133.599 196.212L133.15 196.265L128.746 193.689L128.712 193.39L132.081 190.213L132.531 190.161L136.87 192.699Z" fill="#B4EDFC" stroke="#00402A" stroke-width="0.5" stroke-linecap="round" stroke-linejoin="round"/>
<path d="M92.6235 185.129V187.049L94.376 186.024V184.094L92.6235 185.129Z" fill="#2F6852" stroke="#00402A" stroke-width="0.5" stroke-linecap="round" stroke-linejoin="round"/>
<path d="M92.6236 185.128V187.048L90.8711 186.026V184.095L92.6236 185.128Z" fill="#699282" stroke="#00402A" stroke-width="0.5" stroke-linecap="round" stroke-linejoin="round"/>
<path d="M90.8713 184.094L92.6238 183.058L94.3763 184.094L92.6238 185.129L90.8713 184.094Z" fill="#FFF5EC" stroke="#00402A" stroke-width="0.5" stroke-linecap="round" stroke-linejoin="round"/>
<path d="M92.6235 175.127V184.692L93.5117 184.172V174.603L92.6235 175.127Z" fill="#2F6852" stroke="#00402A" stroke-width="0.5" stroke-linecap="round" stroke-linejoin="round"/>
<path d="M92.6226 175.128V184.692L91.7344 184.172V174.603L92.6226 175.128Z" fill="#699282" stroke="#00402A" stroke-width="0.5" stroke-linecap="round" stroke-linejoin="round"/>
<path d="M78.3074 193.467V195.387L80.0598 194.362V192.432L78.3074 193.467Z" fill="#2F6852" stroke="#00402A" stroke-width="0.5" stroke-linecap="round" stroke-linejoin="round"/>
<path d="M78.3074 193.467V195.387L76.5549 194.362V192.432L78.3074 193.467Z" fill="#699282" stroke="#00402A" stroke-width="0.5" stroke-linecap="round" stroke-linejoin="round"/>
<path d="M76.5549 192.432L78.3074 191.397L80.0598 192.432L78.3074 193.467L76.5549 192.432Z" fill="#FFF5EC" stroke="#00402A" stroke-width="0.5" stroke-linecap="round" stroke-linejoin="round"/>
<path d="M78.3066 188.375V193.031L79.1948 192.511V187.85L78.3066 188.375Z" fill="#FFF5EC" stroke="#00402A" stroke-width="0.5" stroke-linecap="round" stroke-linejoin="round"/>
<path d="M78.3055 188.374V193.03L77.4172 192.51V187.85L78.3055 188.374Z" fill="#FFF5EC" stroke="#00402A" stroke-width="0.5" stroke-linecap="round" stroke-linejoin="round"/>
<path d="M57.6135 181.394V183.314L59.366 182.29V180.359L57.6135 181.394Z" fill="#2F6852" stroke="#00402A" stroke-width="0.5" stroke-linecap="round" stroke-linejoin="round"/>
<path d="M57.6138 181.395V183.315L55.8613 182.29V180.359L57.6138 181.395Z" fill="#699282" stroke="#00402A" stroke-width="0.5" stroke-linecap="round" stroke-linejoin="round"/>
<path d="M55.8606 180.359L57.6131 179.324L59.3654 180.359L57.6131 181.395L55.8606 180.359Z" fill="#FFF5EC" stroke="#00402A" stroke-width="0.5" stroke-linecap="round" stroke-linejoin="round"/>
<path d="M57.6145 176.299V180.956L58.5027 180.436V175.778L57.6145 176.299Z" fill="#FFF5EC" stroke="#00402A" stroke-width="0.5" stroke-linecap="round" stroke-linejoin="round"/>
<path d="M57.614 176.299V180.956L56.7258 180.436V175.778L57.614 176.299Z" fill="#FFF5EC" stroke="#00402A" stroke-width="0.5" stroke-linecap="round" stroke-linejoin="round"/>
<path d="M72.8654 160.506L53.8333 178.454L78.2839 192.754L97.3161 174.805L72.8654 160.506Z" fill="#FFFAF6" stroke="#00402A" stroke-width="0.5" stroke-linecap="round" stroke-linejoin="round"/>
<path d="M77.7996 164.739L77.8425 165.129L74.5291 168.253L74.0789 168.306L69.6755 165.729L69.6414 165.431L73.0105 162.254L73.4597 162.201L77.7996 164.739Z" fill="#B4EDFC" stroke="#00402A" stroke-width="0.5" stroke-linecap="round" stroke-linejoin="round"/>
<path d="M83.5347 168.094L83.5776 168.482L80.2642 171.607L79.814 171.66L75.4097 169.084L75.3765 168.785L78.7456 165.608L79.1948 165.556L83.5347 168.094Z" fill="#6BDAFF" stroke="#00402A" stroke-width="0.5" stroke-linecap="round" stroke-linejoin="round"/>
<path d="M89.2671 171.446L89.311 171.838L85.9985 174.961L85.5483 175.013L81.144 172.437L81.1108 172.139L84.479 168.963L84.9292 168.91L89.2671 171.446Z" fill="#6BDAFF" stroke="#00402A" stroke-width="0.5" stroke-linecap="round" stroke-linejoin="round"/>
<path d="M95.0029 174.801L95.0459 175.191L91.7324 178.315L91.2832 178.368L86.8789 175.792L86.8447 175.493L90.2139 172.316L90.6641 172.263L95.0029 174.801Z" fill="#6BDAFF" stroke="#00402A" stroke-width="0.5" stroke-linecap="round" stroke-linejoin="round"/>
<path d="M73.2839 168.994L73.3279 169.385L70.0154 172.508L69.5652 172.561L65.1609 169.985L65.1277 169.686L68.4949 166.51L68.95 166.463L73.2839 168.994Z" fill="#6BDAFF" stroke="#00402A" stroke-width="0.5" stroke-linecap="round" stroke-linejoin="round"/>
<path d="M79.0193 172.35L79.0623 172.739L75.7488 175.863L75.2986 175.916L70.8953 173.34L70.8611 173.041L74.2302 169.864L74.6794 169.812L79.0193 172.35Z" fill="#6BDAFF" stroke="#00402A" stroke-width="0.5" stroke-linecap="round" stroke-linejoin="round"/>
<path d="M84.7527 175.703L84.7957 176.094L81.4832 179.218L81.033 179.271L76.6296 176.694L76.5964 176.396L79.9656 173.219L80.4138 173.166L84.7527 175.703Z" fill="#B4EDFC" stroke="#00402A" stroke-width="0.5" stroke-linecap="round" stroke-linejoin="round"/>
<path d="M90.4893 179.058L90.5332 179.449L87.2207 182.573L86.7705 182.626L82.3662 180.048L82.333 179.751L85.7012 176.574L86.1514 176.521L90.4893 179.058Z" fill="#6BDAFF" stroke="#00402A" stroke-width="0.5" stroke-linecap="round" stroke-linejoin="round"/>
<path d="M68.769 173.252L68.813 173.642L65.5005 176.766L65.0503 176.819L60.646 174.243L60.6128 173.944L63.981 170.767L64.4312 170.715L68.769 173.252Z" fill="#B4EDFC" stroke="#00402A" stroke-width="0.5" stroke-linecap="round" stroke-linejoin="round"/>
<path d="M74.5024 176.605L74.5464 176.997L71.2329 180.12L70.7837 180.173L66.3794 177.597L66.3462 177.299L69.7144 174.122L70.1646 174.069L74.5024 176.605Z" fill="#6BDAFF" stroke="#00402A" stroke-width="0.5" stroke-linecap="round" stroke-linejoin="round"/>
<path d="M80.239 179.961L80.282 180.35L76.9685 183.474L76.5183 183.527L72.115 180.951L72.0808 180.652L75.45 177.475L75.9001 177.423L80.239 179.961Z" fill="#6BDAFF" stroke="#00402A" stroke-width="0.5" stroke-linecap="round" stroke-linejoin="round"/>
<path d="M85.9734 183.315L86.0164 183.705L82.7029 186.829L82.2527 186.882L77.8484 184.305L77.8152 184.007L81.1843 180.83L81.6335 180.777L85.9734 183.315Z" fill="#6BDAFF" stroke="#00402A" stroke-width="0.5" stroke-linecap="round" stroke-linejoin="round"/>
<path d="M64.2605 177.509L64.3035 177.899L60.99 181.023L60.5398 181.076L56.1355 178.499L56.1023 178.201L59.4714 175.024L59.9207 174.971L64.2605 177.509Z" fill="#6BDAFF" stroke="#00402A" stroke-width="0.5" stroke-linecap="round" stroke-linejoin="round"/>
<path d="M69.9902 180.863L70.0342 181.254L66.7217 184.377L66.2715 184.43L61.8672 181.854L61.834 181.555L65.2021 178.378L65.6523 178.326L69.9902 180.863Z" fill="#B4EDFC" stroke="#00402A" stroke-width="0.5" stroke-linecap="round" stroke-linejoin="round"/>
<path d="M75.7258 184.216L75.7698 184.608L72.4563 187.732L72.0071 187.785L67.6028 185.208L67.5696 184.91L70.9377 181.733L71.3909 181.68L75.7258 184.216Z" fill="#6BDAFF" stroke="#00402A" stroke-width="0.5" stroke-linecap="round" stroke-linejoin="round"/>
<path d="M81.4617 187.572L81.5046 187.962L78.1912 191.086L77.7419 191.139L73.3376 188.563L73.3035 188.264L76.6726 185.087L77.1228 185.034L81.4617 187.572Z" fill="#B4EDFC" stroke="#00402A" stroke-width="0.5" stroke-linecap="round" stroke-linejoin="round"/>
<path d="M118.806 210.109V212.029L120.558 211.004V209.074L118.806 210.109Z" fill="#2F6852" stroke="#00402A" stroke-width="0.5" stroke-linecap="round" stroke-linejoin="round"/>
<path d="M118.806 210.108V212.028L117.054 211.006V209.075L118.806 210.108Z" fill="#699282" stroke="#00402A" stroke-width="0.5" stroke-linecap="round" stroke-linejoin="round"/>
<path d="M117.053 209.074L118.806 208.038L120.558 209.074L118.806 210.109L117.053 209.074Z" fill="#FFF5EC" stroke="#00402A" stroke-width="0.5" stroke-linecap="round" stroke-linejoin="round"/>
<path d="M118.805 200.108V209.672L119.693 209.153V199.583L118.805 200.108Z" fill="#2F6852" stroke="#00402A" stroke-width="0.5" stroke-linecap="round" stroke-linejoin="round"/>
<path d="M118.806 200.108V209.672L117.918 209.153V199.583L118.806 200.108Z" fill="#699282" stroke="#00402A" stroke-width="0.5" stroke-linecap="round" stroke-linejoin="round"/>
<path d="M104.49 218.447V220.367L106.242 219.342V217.412L104.49 218.447Z" fill="#2F6852" stroke="#00402A" stroke-width="0.5" stroke-linecap="round" stroke-linejoin="round"/>
<path d="M104.49 218.447V220.367L102.738 219.342V217.412L104.49 218.447Z" fill="#699282" stroke="#00402A" stroke-width="0.5" stroke-linecap="round" stroke-linejoin="round"/>
<path d="M102.738 217.412L104.49 216.377L106.242 217.412L104.49 218.447L102.738 217.412Z" fill="#FFF5EC" stroke="#00402A" stroke-width="0.5" stroke-linecap="round" stroke-linejoin="round"/>
<path d="M104.488 213.354V218.01L105.376 217.491V212.83L104.488 213.354Z" fill="#FFF5EC" stroke="#00402A" stroke-width="0.5" stroke-linecap="round" stroke-linejoin="round"/>
<path d="M104.489 213.354V218.01L103.6 217.49V212.83L104.489 213.354Z" fill="#FFF5EC" stroke="#00402A" stroke-width="0.5" stroke-linecap="round" stroke-linejoin="round"/>
<path d="M83.7976 206.374V208.294L85.5501 207.269V205.339L83.7976 206.374Z" fill="#2F6852" stroke="#00402A" stroke-width="0.5" stroke-linecap="round" stroke-linejoin="round"/>
<path d="M83.7976 206.375V208.294L82.0452 207.27V205.339L83.7976 206.375Z" fill="#699282" stroke="#00402A" stroke-width="0.5" stroke-linecap="round" stroke-linejoin="round"/>
<path d="M82.0435 205.339L83.7959 204.304L85.5483 205.339L83.7959 206.374L82.0435 205.339Z" fill="#FFF5EC" stroke="#00402A" stroke-width="0.5" stroke-linecap="round" stroke-linejoin="round"/>
<path d="M83.7976 201.279V205.935L84.6858 205.415V200.758L83.7976 201.279Z" fill="#FFF5EC" stroke="#00402A" stroke-width="0.5" stroke-linecap="round" stroke-linejoin="round"/>
<path d="M83.7962 201.279V205.935L82.908 205.416V200.758L83.7962 201.279Z" fill="#FFF5EC" stroke="#00402A" stroke-width="0.5" stroke-linecap="round" stroke-linejoin="round"/>
<path d="M99.049 185.486L80.0168 203.434L104.467 217.734L123.5 199.785L99.049 185.486Z" fill="#FFFAF6" stroke="#00402A" stroke-width="0.5" stroke-linecap="round" stroke-linejoin="round"/>
<path d="M103.982 189.719L104.025 190.109L100.712 193.233L100.261 193.286L95.8582 190.71L95.824 190.411L99.1931 187.234L99.6423 187.181L103.982 189.719Z" fill="#B4EDFC" stroke="#00402A" stroke-width="0.5" stroke-linecap="round" stroke-linejoin="round"/>
<path d="M109.717 193.074L109.76 193.462L106.446 196.587L105.996 196.64L101.592 194.064L101.558 193.765L104.927 190.588L105.377 190.536L109.717 193.074Z" fill="#6BDAFF" stroke="#00402A" stroke-width="0.5" stroke-linecap="round" stroke-linejoin="round"/>
<path d="M115.45 196.426L115.494 196.818L112.181 199.941L111.731 199.994L107.327 197.417L107.293 197.12L110.662 193.943L111.112 193.89L115.45 196.426Z" fill="#6BDAFF" stroke="#00402A" stroke-width="0.5" stroke-linecap="round" stroke-linejoin="round"/>
<path d="M121.185 199.782L121.228 200.171L117.915 203.295L117.466 203.348L113.061 200.772L113.027 200.473L116.396 197.296L116.846 197.243L121.185 199.782Z" fill="#6BDAFF" stroke="#00402A" stroke-width="0.5" stroke-linecap="round" stroke-linejoin="round"/>
<path d="M99.4661 193.974L99.51 194.366L96.1975 197.489L95.7473 197.541L91.343 194.965L91.3098 194.666L94.677 191.491L95.1321 191.443L99.4661 193.974Z" fill="#6BDAFF" stroke="#00402A" stroke-width="0.5" stroke-linecap="round" stroke-linejoin="round"/>
<path d="M105.202 197.33L105.245 197.719L101.932 200.843L101.481 200.896L97.0781 198.32L97.0439 198.021L100.413 194.844L100.862 194.792L105.202 197.33Z" fill="#6BDAFF" stroke="#00402A" stroke-width="0.5" stroke-linecap="round" stroke-linejoin="round"/>
<path d="M110.937 200.683L110.98 201.074L107.667 204.198L107.217 204.251L102.814 201.675L102.781 201.376L106.15 198.199L106.598 198.146L110.937 200.683Z" fill="#B4EDFC" stroke="#00402A" stroke-width="0.5" stroke-linecap="round" stroke-linejoin="round"/>
<path d="M116.671 204.038L116.715 204.429L113.402 207.553L112.952 207.605L108.548 205.028L108.515 204.73L111.883 201.554L112.333 201.501L116.671 204.038Z" fill="#6BDAFF" stroke="#00402A" stroke-width="0.5" stroke-linecap="round" stroke-linejoin="round"/>
<path d="M94.9512 198.232L94.9951 198.622L91.6826 201.746L91.2324 201.799L86.8281 199.223L86.7949 198.924L90.1631 195.747L90.6133 195.694L94.9512 198.232Z" fill="#B4EDFC" stroke="#00402A" stroke-width="0.5" stroke-linecap="round" stroke-linejoin="round"/>
<path d="M100.684 201.585L100.728 201.977L97.4146 205.1L96.9653 205.153L92.561 202.577L92.5278 202.279L95.896 199.102L96.3462 199.049L100.684 201.585Z" fill="#6BDAFF" stroke="#00402A" stroke-width="0.5" stroke-linecap="round" stroke-linejoin="round"/>
<path d="M106.422 204.94L106.465 205.33L103.151 208.454L102.701 208.507L98.2979 205.931L98.2637 205.632L101.633 202.455L102.083 202.402L106.422 204.94Z" fill="#6BDAFF" stroke="#00402A" stroke-width="0.5" stroke-linecap="round" stroke-linejoin="round"/>
<path d="M112.158 208.295L112.201 208.685L108.887 211.809L108.437 211.862L104.033 209.285L104 208.987L107.369 205.81L107.818 205.757L112.158 208.295Z" fill="#6BDAFF" stroke="#00402A" stroke-width="0.5" stroke-linecap="round" stroke-linejoin="round"/>
<path d="M90.4436 202.489L90.4866 202.879L87.1731 206.003L86.7229 206.056L82.3186 203.48L82.2854 203.181L85.6545 200.004L86.1038 199.951L90.4436 202.489Z" fill="#6BDAFF" stroke="#00402A" stroke-width="0.5" stroke-linecap="round" stroke-linejoin="round"/>
<path d="M96.1724 205.843L96.2163 206.234L92.9038 209.357L92.4536 209.41L88.0493 206.834L88.0161 206.535L91.3843 203.358L91.8345 203.306L96.1724 205.843Z" fill="#B4EDFC" stroke="#00402A" stroke-width="0.5" stroke-linecap="round" stroke-linejoin="round"/>
<path d="M101.908 209.197L101.952 209.588L98.6384 212.712L98.1892 212.765L93.7849 210.188L93.7517 209.89L97.1199 206.713L97.573 206.66L101.908 209.197Z" fill="#6BDAFF" stroke="#00402A" stroke-width="0.5" stroke-linecap="round" stroke-linejoin="round"/>
<path d="M107.643 212.552L107.686 212.942L104.373 216.066L103.924 216.119L99.5193 213.543L99.4851 213.244L102.854 210.067L103.304 210.014L107.643 212.552Z" fill="#B4EDFC" stroke="#00402A" stroke-width="0.5" stroke-linecap="round" stroke-linejoin="round"/>
<path d="M301.208 134.292L301.543 176.011L281.145 188.044L281.798 154.552L281.771 145.708L301.208 134.292Z" fill="#B6E5FF" stroke="#00402A" stroke-width="0.5" stroke-linecap="round" stroke-linejoin="round"/>
<path d="M137.149 148.147V151.717C137.149 151.923 136.79 152.3 136.348 152.558C135.907 152.816 135.547 152.859 135.547 152.653V149.085L137.149 148.147Z" fill="#FFFAF6" stroke="#00402A" stroke-width="0.5" stroke-linecap="round" stroke-linejoin="round"/>
<path d="M135.807 149.085V152.653C135.807 152.86 135.448 152.818 135.005 152.559C134.562 152.299 134.204 151.924 134.204 151.717V148.147L135.807 149.085Z" fill="#FFFAF6" stroke="#00402A" stroke-width="0.5" stroke-linecap="round" stroke-linejoin="round"/>
<path d="M130.397 145.787C131.119 141.847 133.464 129.519 134.409 126.627C134.43 126.564 134.453 126.484 134.477 126.412C134.686 125.721 134.945 125.045 135.253 124.392L135.472 124.127L135.638 123.924C135.734 123.902 135.833 123.893 135.932 123.898C135.996 123.899 136.058 123.917 136.113 123.949C136.253 124.063 136.369 124.203 136.457 124.361C136.82 125.084 137.108 125.842 137.318 126.625C138.016 128.756 139.616 137.846 140.593 141.938L140.58 141.981C140.878 142.905 141.086 143.857 141.203 144.822C141.38 145.468 141.366 146.152 141.161 146.79C140.956 147.427 140.571 147.99 140.052 148.406C139.895 148.55 139.722 148.683 139.533 148.828C138.836 149.374 138.057 149.806 137.227 150.107C136.89 150.249 136.535 150.345 136.173 150.393C136.106 150.393 135.999 150.393 135.861 150.393C135.724 150.393 135.641 150.393 135.578 150.393L135.14 150.309C133.506 150.086 131.997 149.306 130.86 148.098C130.626 147.768 130.464 147.391 130.385 146.993C130.305 146.594 130.309 146.183 130.397 145.787Z" fill="#007F33" stroke="#00402A" stroke-width="0.5" stroke-linecap="round" stroke-linejoin="round"/>
<path d="M109.012 155.552V159.122C109.012 159.328 108.652 159.705 108.211 159.963C107.769 160.221 107.409 160.264 107.409 160.058V156.489L109.012 155.552Z" fill="#FFFAF6" stroke="#00402A" stroke-width="0.5" stroke-linecap="round" stroke-linejoin="round"/>
<path d="M107.669 156.489V160.058C107.669 160.264 107.311 160.223 106.868 159.963C106.425 159.704 106.067 159.328 106.067 159.122V155.552L107.669 156.489Z" fill="#FFFAF6" stroke="#00402A" stroke-width="0.5" stroke-linecap="round" stroke-linejoin="round"/>
<path d="M102.259 153.192C102.98 149.252 105.326 136.924 106.271 134.032C106.292 133.969 106.315 133.889 106.339 133.817C106.548 133.125 106.807 132.45 107.115 131.797L107.334 131.532L107.5 131.328C107.596 131.307 107.695 131.298 107.794 131.302C107.858 131.304 107.92 131.322 107.975 131.354C108.114 131.468 108.231 131.608 108.319 131.766C108.681 132.488 108.97 133.247 109.18 134.029C109.877 136.161 111.478 145.251 112.455 149.342L112.442 149.385C112.74 150.31 112.948 151.262 113.065 152.227C113.242 152.873 113.227 153.557 113.023 154.195C112.818 154.832 112.432 155.394 111.914 155.811C111.757 155.954 111.584 156.088 111.395 156.233C110.697 156.779 109.919 157.211 109.089 157.511C108.751 157.653 108.397 157.75 108.035 157.798C107.968 157.798 107.86 157.798 107.723 157.798C107.586 157.798 107.502 157.798 107.44 157.798L107.001 157.713C105.368 157.491 103.859 156.711 102.721 155.503C102.488 155.172 102.326 154.796 102.246 154.397C102.167 153.999 102.171 153.588 102.259 153.192Z" fill="#007F33" stroke="#00402A" stroke-width="0.5" stroke-linecap="round" stroke-linejoin="round"/>
<path d="M192.308 77.8423V81.4121C192.308 81.6185 191.948 81.9956 191.505 82.2537C191.062 82.5117 190.704 82.5562 190.704 82.3497V78.7799L192.308 77.8423Z" fill="#FFFAF6" stroke="#00402A" stroke-width="0.5" stroke-linecap="round" stroke-linejoin="round"/>
<path d="M190.964 78.7798V82.3496C190.964 82.5561 190.606 82.513 190.163 82.2535C189.72 81.9941 189.362 81.6184 189.362 81.412V77.8421L190.964 78.7798Z" fill="#FFFAF6" stroke="#00402A" stroke-width="0.5" stroke-linecap="round" stroke-linejoin="round"/>
<path d="M185.554 75.4823C186.275 71.5426 188.622 59.2145 189.567 56.3228C189.587 56.2597 189.611 56.1794 189.635 56.1077C189.844 55.4161 190.103 54.7414 190.411 54.0891L190.629 53.8225L190.796 53.6189C190.893 53.5973 190.992 53.5886 191.09 53.5931C191.154 53.5943 191.216 53.6121 191.27 53.6447H191.277C191.416 53.7591 191.533 53.8986 191.621 54.0562C191.984 54.779 192.272 55.5376 192.482 56.3199C193.178 58.4518 194.78 67.5412 195.757 71.6329L195.744 71.676C196.041 72.6007 196.249 73.5523 196.365 74.5175C196.543 75.1633 196.529 75.8479 196.324 76.4855C196.119 77.123 195.733 77.6853 195.215 78.1017C195.059 78.245 194.886 78.3784 194.697 78.5232C193.999 79.0698 193.221 79.5014 192.391 79.802C192.053 79.9426 191.698 80.0366 191.335 80.0816C191.27 80.0816 191.161 80.0816 191.024 80.0816C190.887 80.0816 190.803 80.0816 190.741 80.0816L190.302 79.997C188.669 79.7743 187.159 78.9945 186.022 77.7863C185.789 77.4571 185.626 77.0818 185.546 76.6848C185.465 76.2879 185.468 75.8782 185.554 75.4823Z" fill="#007F33" stroke="#00402A" stroke-width="0.5" stroke-linecap="round" stroke-linejoin="round"/>
</svg>
