<?xml version="1.0" encoding="UTF-8"?>
<svg id="Iconos" xmlns="http://www.w3.org/2000/svg" viewBox="0 0 96 96">
  <defs>
    <style>
      .cls-1 {
        fill: none;
        stroke: #00a443;
        stroke-linejoin: round;
        stroke-width: 3px;
      }
    </style>
  </defs>
  <g>
    <path class="cls-1" d="M50.47,59.52v-22.13c0-2.82-2.29-5.11-5.11-5.11h0c-2.82,0-5.11,2.29-5.11,5.11v22.13"/>
    <path class="cls-1" d="M56.14,59.52v-22.13c0-2.82-2.29-5.11-5.11-5.11h0c-2.82,0-5.11,2.29-5.11,5.11v22.13"/>
    <line class="cls-1" x1="55.01" y1="75.43" x2="41.39" y2="75.43"/>
    <line class="cls-1" x1="52.74" y1="79.97" x2="43.66" y2="79.97"/>
    <path class="cls-1" d="M59.55,59.53h-22.71v6.85c0,2.49,2.02,4.51,4.51,4.51h13.69c2.49,0,4.51-2.02,4.51-4.51v-6.85Z"/>
  </g>
  <line class="cls-1" x1="48.2" y1="15.71" x2="48.2" y2="27.71"/>
  <line class="cls-1" x1="31.04" y1="18.83" x2="37.97" y2="28.62"/>
  <line class="cls-1" x1="65.36" y1="18.83" x2="58.42" y2="28.62"/>
</svg>