<?xml version="1.0" encoding="UTF-8"?>
<svg id="Iconos" xmlns="http://www.w3.org/2000/svg" viewBox="0 0 96 96">
  <defs>
    <style>
      .cls-1 {
        fill: none;
        stroke: #00a443;
        stroke-linejoin: round;
        stroke-width: 3px;
      }
    </style>
  </defs>
  <path class="cls-1" d="M46.06,29.36c0-8.02-7.57-12.6-14.44-12.6-8.54,0-15.14,6.7-15.14,15.23,0,4.85,1.59,9.4,6.37,12.23v9.18h15.93v-5.54c3.19.02,4.81-.21,5.92-1.33,1.43-1.43,1.29-7.47,1.29-7.47,0,0,1.36.05,2.39,0,.36-.02.71-.2.92-.49.21-.29.14-.65.17-1,.18-2.56-3.42-6.95-3.42-8.23Z"/>
  <path class="cls-1" d="M49.91,55.73c0-8.02,7.57-12.6,14.44-12.6,8.54,0,15.14,6.7,15.14,15.23,0,4.85-1.59,9.4-6.37,12.23v9.18h-15.93v-5.54c-3.19.02-4.81-.21-5.92-1.33-1.43-1.43-1.29-7.47-1.29-7.47,0,0-1.36.05-2.39,0-.36-.02-.71-.2-.92-.49-.21-.29-.14-.65-.17-1-.18-2.56,3.42-6.95,3.42-8.23Z"/>
</svg>