<?xml version="1.0" encoding="UTF-8"?>
<svg id="Iconos" xmlns="http://www.w3.org/2000/svg" viewBox="0 0 96 96">
  <defs>
    <style>
      .cls-1 {
        stroke-width: 2.95px;
      }

      .cls-1, .cls-2 {
        fill: none;
        stroke: #00a443;
        stroke-linejoin: round;
      }

      .cls-2 {
        stroke-width: 3px;
      }
    </style>
  </defs>
  <g>
    <path class="cls-2" d="M63,41.98c.89,3.14,1.45,6.11,1.45,8.59,0,9.28-7.52,16.8-16.8,16.8-.46,0-.92-.02-1.38-.06-10.36-.84-17.01-11.52-14-21.47l5.59-14.86,5.97,6.21s4.29-12.22,8.21-20.62c0,0,3.13,5.63,6.24,12.71"/>
    <path class="cls-2" d="M59.85,33c.7,1.73,1.37,3.49,1.97,5.25"/>
    <path class="cls-2" d="M54.12,55.12c0-3.31-5.87-12.84-5.87-12.84,0,0-6.12,9.53-6.12,12.84s2.68,5.99,5.99,5.99,5.99-2.68,5.99-5.99Z"/>
  </g>
  <polyline class="cls-1" points="29.61 79.5 35.61 73.5 40.11 73.5 60.61 73.5 66.39 79.28"/>
</svg>