<?xml version="1.0" encoding="UTF-8"?>
<svg id="Iconos" xmlns="http://www.w3.org/2000/svg" viewBox="0 0 96 96">
  <defs>
    <style>
      .cls-1 {
        fill: none;
        stroke: #00a443;
        stroke-linejoin: round;
        stroke-width: 3px;
      }
    </style>
  </defs>
  <circle class="cls-1" cx="48" cy="48" r="17.16"/>
  <line class="cls-1" x1="48" y1="30.84" x2="48" y2="21"/>
  <line class="cls-1" x1="65.16" y1="48" x2="75.02" y2="48"/>
  <line class="cls-1" x1="30.84" y1="48" x2="21.02" y2="48"/>
  <line class="cls-1" x1="48" y1="65.16" x2="48" y2="75"/>
  <line class="cls-1" x1="60.14" y1="35.86" x2="69.01" y2="26.99"/>
  <line class="cls-1" x1="60.14" y1="60.14" x2="69.01" y2="69.01"/>
  <line class="cls-1" x1="35.86" y1="60.14" x2="27.01" y2="68.99"/>
  <line class="cls-1" x1="35.86" y1="35.86" x2="27.01" y2="27.01"/>
  <circle class="cls-1" cx="48" cy="55.5" r="3"/>
  <circle class="cls-1" cx="25.5" cy="70.5" r="3"/>
  <circle class="cls-1" cx="70.5" cy="70.5" r="3"/>
  <circle class="cls-1" cx="25.5" cy="25.5" r="3"/>
  <circle class="cls-1" cx="70.5" cy="25.5" r="3"/>
  <circle class="cls-1" cx="48.02" cy="19.5" r="3"/>
  <circle class="cls-1" cx="76.52" cy="48" r="3"/>
  <circle class="cls-1" cx="19.52" cy="48" r="3"/>
  <circle class="cls-1" cx="48.02" cy="76.5" r="3"/>
  <circle class="cls-1" cx="55.52" cy="48" r="3"/>
  <circle class="cls-1" cx="42.02" cy="43.5" r="3"/>
</svg>