<?xml version="1.0" encoding="UTF-8"?>
<svg id="Iconos" xmlns="http://www.w3.org/2000/svg" viewBox="0 0 96 96">
  <defs>
    <style>
      .cls-1 {
        fill: none;
        stroke: #00a443;
        stroke-linejoin: round;
        stroke-width: 3px;
      }
    </style>
  </defs>
  <path class="cls-1" d="M79.48,19.54l-.04,33.52c0,1.51-1.22,2.74-2.74,2.74H19.18c-1.51,0-2.74-1.23-2.74-2.74l.04-33.52c0-1.51,1.23-2.74,2.74-2.74h57.52c1.52,0,2.74,1.23,2.74,2.74Z"/>
  <path class="cls-1" d="M79.48,19.54l-.04,33.52c0,1.51-1.22,2.74-2.74,2.74H19.18c-1.51,0-2.74-1.23-2.74-2.74l.04-33.52c0-1.51,1.23-2.74,2.74-2.74h57.52c1.52,0,2.74,1.23,2.74,2.74Z"/>
  <path id="Shape_280" data-name="Shape 280" class="cls-1" d="M74.95,78.11c.1.41,0,.84-.25,1.17-.26.33-.66.53-1.08.53H22.35c-.42,0-.82-.19-1.08-.53-.26-.33-.35-.77-.25-1.17l4.46-15.26c.15-.61.7-1.04,1.33-1.04h42.34c.63,0,1.18.43,1.33,1.04l4.47,15.26Z"/>
  <path id="Shape_281" data-name="Shape 281" class="cls-1" d="M16.44,46.81h63"/>
  <path id="Shape_283" data-name="Shape 283" class="cls-1" d="M26.98,73.81h3"/>
  <path id="Shape_283-2" data-name="Shape 283" class="cls-1" d="M65.98,73.81h3"/>
  <path id="Shape_283-3" data-name="Shape 283" class="cls-1" d="M61.48,67.81h3"/>
  <path id="Shape_283-4" data-name="Shape 283" class="cls-1" d="M53.98,67.81h3"/>
  <path id="Shape_283-5" data-name="Shape 283" class="cls-1" d="M46.48,67.81h3"/>
  <path id="Shape_283-6" data-name="Shape 283" class="cls-1" d="M31.48,67.81h3"/>
  <path id="Shape_283-7" data-name="Shape 283" class="cls-1" d="M38.98,67.81h3"/>
  <path id="Shape_288" data-name="Shape 288" class="cls-1" d="M35.98,73.81h23.99"/>
</svg>