<svg width="152" height="50" viewBox="0 0 152 50" fill="none" xmlns="http://www.w3.org/2000/svg">
<g clip-path="url(#clip0_9855_2573)">
<path d="M42.0376 18.2874L37.0681 30.722H38.9823L40.3497 27.1706H45.4606L46.8184 30.722H48.8081L43.8198 18.2874H42.0376ZM40.9532 25.6057L42.3959 21.8575C42.5185 21.5295 42.6976 21.0891 42.9051 20.5269C43.122 21.0891 43.3012 21.5295 43.4237 21.8575L44.8665 25.6057H40.9532Z" fill="#00A443"/>
<path d="M52.5894 27.1331C52.5234 27.3392 52.448 27.5267 52.382 27.7141C52.316 27.9015 52.2217 28.0983 52.1085 28.3232C52.0236 28.0983 51.9576 27.8921 51.8916 27.7141C51.8256 27.536 51.7502 27.3392 51.6653 27.1331L49.5531 21.6982H47.6483L51.2881 30.7407H52.9195L56.5405 21.6982H54.6828L52.5894 27.1331Z" fill="#00A443"/>
<path d="M63.4524 22.3635C63.0659 22.0723 62.6276 21.8561 62.1605 21.7263C61.6629 21.5897 61.1491 21.5204 60.6329 21.5202C59.8598 21.5119 59.0973 21.6989 58.4169 22.0637C57.7597 22.4335 57.2454 23.0106 56.9553 23.7035L58.3321 24.4906C58.4972 24.066 58.7945 23.7048 59.1807 23.4599C59.5673 23.2069 60.0388 23.0851 60.5952 23.0851C60.9953 23.0806 61.3925 23.1538 61.7645 23.3006C62.1144 23.436 62.4118 23.6789 62.6131 23.994C62.83 24.3126 62.9432 24.7343 62.9432 25.2497V26.2617L62.7452 26.0649C62.1794 25.587 61.3684 25.3434 60.3123 25.3434C59.6785 25.3337 59.0485 25.4418 58.4546 25.662C57.9338 25.8478 57.4762 26.1758 57.1345 26.6084C56.8084 27.0469 56.6391 27.5813 56.6536 28.1264C56.6536 28.7167 56.8044 29.2227 57.1251 29.635C57.4587 30.062 57.9016 30.3922 58.4075 30.5908C58.9846 30.8134 59.599 30.9247 60.218 30.9188C61.293 30.9188 62.1228 30.6658 62.7074 30.1598C62.8262 30.0591 62.9336 29.946 63.028 29.8225V30.722H64.6877V25.0904C64.7028 24.5341 64.5865 23.9821 64.3482 23.4786C64.1356 23.0461 63.8297 22.6654 63.4524 22.3635ZM62.3491 29.1946C61.9153 29.4383 61.3873 29.5695 60.7366 29.5695C60.086 29.5695 59.5391 29.4383 59.1053 29.1946C58.6715 28.951 58.4546 28.5855 58.4546 28.1077C58.4457 27.8809 58.5022 27.6563 58.6175 27.4604C58.7328 27.2645 58.902 27.1054 59.1053 27.0019C59.5391 26.7583 60.086 26.6365 60.7366 26.6365C61.3873 26.6365 61.9153 26.7583 62.3491 27.0113C62.5491 27.1154 62.7154 27.2736 62.8289 27.4675C62.9424 27.6615 62.9983 27.8834 62.9903 28.1077C62.9903 28.5855 62.7734 28.9416 62.3491 29.1946Z" fill="#00A443"/>
<path d="M72.571 21.9512C72.0362 21.659 71.434 21.5105 70.8237 21.5203C70.2135 21.5302 69.6164 21.6981 69.0915 22.0074C68.6904 22.2587 68.3672 22.6155 68.1579 23.0382V21.6982H66.404V30.722H68.1579V25.3715C68.1579 24.6499 68.3654 24.0877 68.7897 23.6848C69.214 23.2818 69.761 23.0663 70.421 23.0663C71.0811 23.0663 71.5055 23.2725 71.8732 23.6754C72.241 24.0783 72.4296 24.6218 72.4296 25.3059V30.722H74.1929V25.0247C74.1929 24.3126 74.0515 23.6941 73.7592 23.1694C73.4885 22.6588 73.0761 22.236 72.571 21.9512Z" fill="#00A443"/>
<path d="M82.3779 23.2163C82.3174 23.1067 82.2514 23.0004 82.1799 22.8977C81.8994 22.4828 81.5247 22.1394 81.086 21.895C80.5793 21.6355 80.0151 21.5066 79.4453 21.5202C78.8979 21.5189 78.3559 21.6273 77.8516 21.8388C77.3639 22.0482 76.9243 22.3543 76.5598 22.7384C76.1932 23.134 75.9052 23.595 75.7111 24.0971C75.5073 24.6427 75.405 25.2206 75.4093 25.8025C75.3968 26.5671 75.5819 27.322 75.9468 27.9952C76.2864 28.62 76.7835 29.1464 77.3896 29.5226C78.0074 29.8997 78.7203 30.0946 79.4453 30.0848C79.9827 30.1074 80.5169 29.9916 80.996 29.7486C81.4751 29.5056 81.8829 29.1437 82.1799 28.698C82.2514 28.5953 82.3174 28.4889 82.3779 28.3794V29.6538C82.3779 30.2441 82.2553 30.7408 82.0007 31.1343C81.765 31.5263 81.4169 31.8395 81.0012 32.0339C80.5707 32.2353 80.1002 32.3378 79.6244 32.3337C79.0717 32.34 78.5276 32.1975 78.0497 31.9214C77.5762 31.6305 77.1787 31.2324 76.8898 30.7595L75.664 31.734C75.9182 32.1972 76.2626 32.6055 76.677 32.9352C77.0914 33.265 77.5676 33.5096 78.0779 33.655C79.3575 34.0304 80.7305 33.9339 81.9441 33.3832C82.6142 33.0636 83.1749 32.5553 83.5566 31.9214C83.9526 31.2749 84.1507 30.4878 84.1507 29.5695V21.6982H82.3779V23.2163ZM82.0761 27.1987C81.8576 27.5922 81.5389 27.9218 81.152 28.1545C80.8524 28.333 80.5198 28.45 80.174 28.4985C79.8281 28.547 79.4759 28.5261 79.1383 28.437C78.8007 28.3479 78.4845 28.1924 78.2084 27.9797C77.9323 27.767 77.702 27.5014 77.531 27.1987C77.2997 26.7698 77.1828 26.2891 77.1916 25.8025C77.1817 25.3098 77.2986 24.8228 77.531 24.3876C77.889 23.7894 78.4685 23.3544 79.1453 23.1757C79.8222 22.997 80.5426 23.089 81.152 23.4318C81.5389 23.6645 81.8576 23.9941 82.0761 24.3876C82.3086 24.8228 82.4255 25.3098 82.4156 25.8025C82.4243 26.2891 82.3075 26.7698 82.0761 27.1987Z" fill="#00A443"/>
<path d="M88.6863 21.9325C88.2619 22.2042 87.9225 22.6165 87.6584 23.1788V21.6982H85.9139V30.722H87.6584V25.9056C87.6584 25.1372 87.8565 24.5187 88.2525 24.0596C88.433 23.8384 88.6618 23.661 88.9216 23.5409C89.1814 23.4207 89.4653 23.361 89.7518 23.3662H90.6476V21.5202H90.129C89.6179 21.5144 89.1162 21.6577 88.6863 21.9325Z" fill="#00A443"/>
<path d="M93.3823 21.6982H91.6284V30.7173H93.3823V21.6982Z" fill="#00A443"/>
<path d="M93.3634 18.1936C93.1262 17.9879 92.8202 17.8776 92.5053 17.8844C92.1935 17.8782 91.8906 17.9885 91.6567 18.1936C91.4209 18.3998 91.3078 18.6809 91.3078 19.037C91.3005 19.1916 91.3281 19.3458 91.3885 19.4885C91.4488 19.6311 91.5404 19.7586 91.6567 19.8616C91.8906 20.0667 92.1935 20.1771 92.5053 20.1708C92.8202 20.1776 93.1262 20.0673 93.3634 19.8616C93.4814 19.7595 93.5748 19.6324 93.6368 19.4897C93.6988 19.347 93.7279 19.1923 93.7218 19.037C93.7287 18.8788 93.7001 18.7211 93.6381 18.5752C93.5762 18.4294 93.4823 18.299 93.3634 18.1936Z" fill="#00A443"/>
<path d="M101.916 18.2874V23.3193L101.746 23.0382C101.444 22.5907 101.044 22.2161 100.577 21.9418C100.096 21.6607 99.5304 21.5202 98.8609 21.5202C98.2929 21.5143 97.7302 21.6293 97.2107 21.8575C96.7035 22.0814 96.2527 22.4142 95.8905 22.832C95.503 23.2634 95.205 23.7665 95.0136 24.3126C94.7982 24.9236 94.6928 25.5675 94.7024 26.2148C94.7024 27.1331 94.8815 27.9483 95.2399 28.6511C95.5803 29.3255 96.0985 29.8955 96.7392 30.3003C97.3721 30.7022 98.1098 30.9108 98.8609 30.9C99.5272 30.9 100.102 30.7595 100.587 30.4784C101.058 30.2095 101.458 29.8338 101.756 29.382C101.812 29.2883 101.869 29.204 101.916 29.1103V30.722H103.67V18.2874H101.916ZM101.19 28.5012C100.948 28.7705 100.649 28.9819 100.313 29.1196C99.9667 29.2639 99.5947 29.3372 99.2192 29.3352C98.4082 29.3352 97.7482 29.0634 97.239 28.5106C96.7298 27.9577 96.4657 27.1893 96.4657 26.2148C96.4556 25.7657 96.5259 25.3183 96.6732 24.8936C96.7982 24.5341 96.9937 24.2029 97.2484 23.919C97.4809 23.6503 97.7753 23.4414 98.1065 23.3099C98.4598 23.1679 98.8382 23.0978 99.2192 23.1038C100.021 23.1038 100.671 23.3755 101.181 23.919C101.69 24.4625 101.954 25.2309 101.954 26.2148C101.96 26.6568 101.893 27.0968 101.756 27.5173C101.636 27.8799 101.444 28.2146 101.19 28.5012Z" fill="#00A443"/>
<path d="M21.7071 26.2992C21.7049 27.0087 21.8436 27.7117 22.1155 28.3677C22.3874 29.0238 22.7869 29.6201 23.2913 30.1223C25.2433 32.062 27.893 32.062 29.5903 31.1437C31.6554 30.0286 36.3137 26.6833 31.4763 12.7963C31.4763 19.3556 21.7071 20.0209 21.7071 26.2992Z" fill="#00A443"/>
<path d="M26.1579 18.5404C25.8373 16.8162 25.3281 15.0639 24.5549 12.7963C24.5549 19.3556 14.7857 20.0209 14.7857 26.2992C14.7818 27.7302 15.3479 29.1047 16.3605 30.1223C18.3219 32.062 20.9905 32.062 22.6595 31.1437C18.7745 27.03 20.1418 22.2698 26.1579 18.5404Z" fill="#00A443"/>
<path d="M19.2366 18.5404C18.916 16.8162 18.3974 15.0639 17.6336 12.7963C17.6336 19.3556 7.86438 20.0209 7.86438 26.2991C7.86438 29.5226 10.4858 30.9469 10.4858 30.9469C10.0818 32.6696 9.99874 34.4513 10.2407 36.2038L11.4948 35.9976C10.8819 33.8799 11.2591 31.5747 11.2968 31.3405C12.8998 31.987 14.55 31.7903 15.7382 31.1437C11.8531 27.03 13.2205 22.2698 19.2366 18.5404Z" fill="#00A443"/>
</g>
<defs>
<clipPath id="clip0_9855_2573">
<rect width="111.516" height="39" fill="white" transform="translate(0 5)"/>
</clipPath>
</defs>
</svg>
