<?xml version="1.0" encoding="UTF-8"?>
<svg id="Layer_1" xmlns="http://www.w3.org/2000/svg" xmlns:xlink="http://www.w3.org/1999/xlink" version="1.1" viewBox="0 0 152 50">
  <!-- Generator: Adobe Illustrator 29.0.0, SVG Export Plug-In . SVG Version: 2.1.0 Build 186)  -->
  <defs>
    <style>
      .st0 {
        fill: none;
      }

      .st1 {
        fill: #007f33;
      }

      .st2 {
        clip-path: url(#clippath);
      }
    </style>
    <clipPath id="clippath">
      <rect class="st0" y="5" width="111.5" height="39"/>
    </clipPath>
  </defs>
  <g class="st2">
    <g>
      <path class="st1" d="M42,18.3l-5,12.4h1.9l1.4-3.6h5.1l1.4,3.6h2l-5-12.4h-1.8ZM41,25.6l1.4-3.7c.1-.3.3-.8.5-1.3.2.6.4,1,.5,1.3l1.4,3.7h-3.9Z"/>
      <path class="st1" d="M52.6,27.1c0,.2-.1.4-.2.6,0,.2-.2.4-.3.6,0-.2-.2-.4-.2-.6,0-.2-.1-.4-.2-.6l-2.1-5.4h-1.9l3.6,9h1.6l3.6-9h-1.9l-2.1,5.4Z"/>
      <path class="st1" d="M63.5,22.4c-.4-.3-.8-.5-1.3-.6-.5-.1-1-.2-1.5-.2-.8,0-1.5.2-2.2.5-.7.4-1.2.9-1.5,1.6l1.4.8c.2-.4.5-.8.8-1,.4-.3.9-.4,1.4-.4.4,0,.8,0,1.2.2.3.1.6.4.8.7.2.3.3.7.3,1.3v1l-.2-.2c-.6-.5-1.4-.7-2.4-.7-.6,0-1.3,0-1.9.3-.5.2-1,.5-1.3.9-.3.4-.5,1-.5,1.5,0,.6.2,1.1.5,1.5.3.4.8.8,1.3,1,.6.2,1.2.3,1.8.3,1.1,0,1.9-.3,2.5-.8.1-.1.2-.2.3-.3v.9h1.7v-5.6c0-.6-.1-1.1-.3-1.6-.2-.4-.5-.8-.9-1.1ZM62.3,29.2c-.4.2-1,.4-1.6.4s-1.2-.1-1.6-.4c-.4-.2-.7-.6-.7-1.1,0-.2,0-.5.2-.6s.3-.4.5-.5c.4-.2,1-.4,1.6-.4s1.2.1,1.6.4c.2.1.4.3.5.5.1.2.2.4.2.6,0,.5-.2.8-.6,1.1Z"/>
      <path class="st1" d="M72.6,22c-.5-.3-1.1-.4-1.7-.4-.6,0-1.2.2-1.7.5-.4.3-.7.6-.9,1v-1.3h-1.8v9h1.8v-5.4c0-.7.2-1.3.6-1.7.4-.4,1-.6,1.6-.6s1.1.2,1.5.6c.4.4.6.9.6,1.6v5.4h1.8v-5.7c0-.7-.1-1.3-.4-1.9-.3-.5-.7-.9-1.2-1.2Z"/>
      <path class="st1" d="M82.4,23.2c0-.1-.1-.2-.2-.3-.3-.4-.7-.8-1.1-1-.5-.3-1.1-.4-1.6-.4-.5,0-1.1.1-1.6.3-.5.2-.9.5-1.3.9-.4.4-.7.9-.8,1.4-.2.5-.3,1.1-.3,1.7,0,.8.2,1.5.5,2.2.3.6.8,1.2,1.4,1.5.6.4,1.3.6,2.1.6.5,0,1.1,0,1.6-.3.5-.2.9-.6,1.2-1.1,0-.1.1-.2.2-.3v1.3c0,.6-.1,1.1-.4,1.5-.2.4-.6.7-1,.9-.4.2-.9.3-1.4.3-.6,0-1.1-.1-1.6-.4-.5-.3-.9-.7-1.2-1.2l-1.2,1c.3.5.6.9,1,1.2.4.3.9.6,1.4.7,1.3.4,2.7.3,3.9-.3.7-.3,1.2-.8,1.6-1.5.4-.6.6-1.4.6-2.4v-7.9h-1.8v1.5ZM82.1,27.2c-.2.4-.5.7-.9,1-.3.2-.6.3-1,.3-.3,0-.7,0-1,0s-.7-.2-.9-.5-.5-.5-.7-.8c-.2-.4-.3-.9-.3-1.4,0-.5.1-1,.3-1.4.4-.6.9-1,1.6-1.2.7-.2,1.4,0,2,.3.4.2.7.6.9,1,.2.4.3.9.3,1.4,0,.5-.1,1-.3,1.4Z"/>
      <path class="st1" d="M88.7,21.9c-.4.3-.8.7-1,1.2v-1.5h-1.7v9h1.7v-4.8c0-.8.2-1.4.6-1.8.2-.2.4-.4.7-.5.3-.1.5-.2.8-.2h.9v-1.8h-.5c-.5,0-1,.1-1.4.4Z"/>
      <path class="st1" d="M93.4,21.7h-1.8v9h1.8v-9Z"/>
      <path class="st1" d="M93.4,18.2c-.2-.2-.5-.3-.9-.3-.3,0-.6.1-.8.3-.2.2-.3.5-.3.8,0,.2,0,.3,0,.5,0,.1.2.3.3.4.2.2.5.3.8.3.3,0,.6-.1.9-.3.1-.1.2-.2.3-.4,0-.1,0-.3,0-.5,0-.2,0-.3,0-.5,0-.1-.2-.3-.3-.4Z"/>
      <path class="st1" d="M101.9,18.3v5l-.2-.3c-.3-.4-.7-.8-1.2-1.1-.5-.3-1-.4-1.7-.4-.6,0-1.1.1-1.7.3-.5.2-1,.6-1.3,1-.4.4-.7.9-.9,1.5-.2.6-.3,1.3-.3,1.9,0,.9.2,1.7.5,2.4.3.7.9,1.2,1.5,1.6.6.4,1.4.6,2.1.6.7,0,1.2-.1,1.7-.4.5-.3.9-.6,1.2-1.1,0,0,.1-.2.2-.3v1.6h1.8v-12.4h-1.8ZM101.2,28.5c-.2.3-.5.5-.9.6-.3.1-.7.2-1.1.2-.8,0-1.5-.3-2-.8-.5-.6-.8-1.3-.8-2.3,0-.4,0-.9.2-1.3.1-.4.3-.7.6-1,.2-.3.5-.5.9-.6.4-.1.7-.2,1.1-.2.8,0,1.5.3,2,.8.5.5.8,1.3.8,2.3,0,.4,0,.9-.2,1.3-.1.4-.3.7-.6,1Z"/>
      <path class="st1" d="M21.7,26.3c0,.7.1,1.4.4,2.1.3.7.7,1.3,1.2,1.8,2,1.9,4.6,1.9,6.3,1,2.1-1.1,6.7-4.5,1.9-18.3,0,6.6-9.8,7.2-9.8,13.5Z"/>
      <path class="st1" d="M26.2,18.5c-.3-1.7-.8-3.5-1.6-5.7,0,6.6-9.8,7.2-9.8,13.5,0,1.4.6,2.8,1.6,3.8,2,1.9,4.6,1.9,6.3,1-3.9-4.1-2.5-8.9,3.5-12.6Z"/>
      <path class="st1" d="M19.2,18.5c-.3-1.7-.8-3.5-1.6-5.7,0,6.6-9.8,7.2-9.8,13.5s2.6,4.6,2.6,4.6c-.4,1.7-.5,3.5-.2,5.3l1.3-.2c-.6-2.1-.2-4.4-.2-4.7,1.6.6,3.3.4,4.4-.2-3.9-4.1-2.5-8.9,3.5-12.6Z"/>
    </g>
  </g>
</svg>