<?xml version="1.0" encoding="UTF-8"?>
<svg id="Layer_1" xmlns="http://www.w3.org/2000/svg" xmlns:xlink="http://www.w3.org/1999/xlink" version="1.1" viewBox="0 0 152 50">
  <!-- Generator: Adobe Illustrator 29.0.0, SVG Export Plug-In . SVG Version: 2.1.0 Build 186)  -->
  <defs>
    <style>
      .st0 {
        fill: none;
      }

      .st1 {
        fill: #007f33;
      }

      .st2 {
        clip-path: url(#clippath);
      }
    </style>
    <clipPath id="clippath">
      <rect class="st0" y="0" width="106.4" height="49"/>
    </clipPath>
  </defs>
  <g class="st2">
    <g>
      <path class="st1" d="M38.3,12.8h-1.8v11.9h1.8v-11.9Z"/>
      <path class="st1" d="M46.5,16.5c-.6-.4-1.3-.6-2-.6-.6,0-1.2.1-1.7.4-.4.3-.8.6-1.1,1.1,0,0-.1.2-.2.3v-4.8h-1.7v11.9h1.7v-1.5c0,0,.1.2.2.3.3.4.7.8,1.1,1.1.5.3,1,.4,1.7.4.5,0,1.1-.1,1.6-.3.5-.2.9-.5,1.3-.9.4-.4.7-.9.8-1.4.2-.6.3-1.2.3-1.8,0-.9-.2-1.7-.5-2.3-.3-.6-.8-1.2-1.4-1.6ZM46.6,21.6c-.1.3-.3.7-.5.9-.2.3-.5.5-.8.6-.3.1-.7.2-1.1.2-.8,0-1.4-.3-1.9-.8-.5-.5-.7-1.3-.7-2.2,0-.4,0-.9.2-1.3.1-.3.3-.7.5-.9.2-.3.5-.5.8-.6.3-.1.7-.2,1-.2.8,0,1.4.3,1.9.8.5.5.7,1.3.7,2.2,0,.4,0,.8-.2,1.3Z"/>
      <path class="st1" d="M55.4,16.4c-.6-.4-1.3-.6-2.1-.6-.6,0-1.1.1-1.7.3-.5.2-1,.5-1.3.9-.4.4-.7.9-.9,1.4-.2.6-.3,1.2-.3,1.9,0,.9.2,1.7.5,2.4.3.7.9,1.2,1.5,1.6.7.4,1.4.6,2.2.6.5,0,1,0,1.5-.2.5-.1.9-.4,1.3-.7.4-.4.8-.8,1-1.3l-1.3-.8c-.2.3-.4.6-.6.9-.2.2-.5.4-.8.5-.3,0-.7.1-1,.1-.5,0-.9-.1-1.3-.3-.4-.2-.7-.6-.9-1-.2-.4-.3-.8-.3-1.3h6.5c0,0,0-.2,0-.2v-.2c0-.9-.2-1.7-.5-2.3-.3-.6-.8-1.2-1.4-1.6ZM51.6,18.1c.2-.3.5-.5.8-.6.3-.1.7-.2,1-.2.3,0,.6,0,.9.2.3.1.6.3.8.6.3.4.5.9.6,1.5h-4.7c0-.2,0-.3.1-.5,0-.4.3-.7.5-1Z"/>
      <path class="st1" d="M63,15.9h-.5c-.5,0-1,.1-1.4.4-.4.3-.7.7-1,1.2v-1.4h-1.7v8.7h1.7v-4.6c0-.7.2-1.3.6-1.8.2-.2.4-.4.6-.5.2-.1.5-.2.8-.2h.9v-1.8Z"/>
      <path class="st1" d="M69.9,17.6c0,0-.1-.2-.2-.3-.3-.4-.7-.8-1.1-1.1-.5-.3-1-.4-1.6-.4-.5,0-1.1.1-1.6.3-.5.2-.9.5-1.3.9-.4.4-.7.9-.8,1.4-.2.6-.3,1.2-.3,1.8,0,.9.2,1.7.5,2.3.3.6.8,1.2,1.4,1.6.6.4,1.3.6,2,.6.6,0,1.2-.1,1.7-.4.5-.3.8-.6,1.1-1.1,0,0,.1-.2.2-.3v1.5h1.7v-11.9h-1.7v4.8ZM69.2,22.6c-.2.3-.5.5-.8.6-.3.1-.7.2-1.1.2-.8,0-1.4-.3-1.9-.8-.5-.5-.7-1.3-.7-2.2,0-.4,0-.9.2-1.3.1-.3.3-.7.5-.9.2-.3.5-.5.8-.6.3-.1.7-.2,1.1-.2.8,0,1.4.3,1.9.8.5.5.7,1.3.7,2.2,0,.4,0,.8-.2,1.3-.1.3-.3.7-.5.9Z"/>
      <path class="st1" d="M77.7,15.9h-.5c-.5,0-1,.1-1.4.4-.4.3-.7.7-1,1.2v-1.4h-1.7v8.7h1.7v-4.6c0-.7.2-1.3.6-1.8.2-.2.4-.4.6-.5.2-.1.5-.2.8-.2h.9v-1.8Z"/>
      <path class="st1" d="M84.4,16.4c-.7-.4-1.5-.6-2.3-.6-.6,0-1.2.1-1.7.3-.5.2-1,.5-1.4.9-.4.4-.7.9-.9,1.4-.2.6-.3,1.2-.3,1.8,0,.9.2,1.7.6,2.4.4.7.9,1.2,1.6,1.6.7.4,1.5.6,2.3.6.6,0,1.2-.1,1.7-.3.5-.2,1-.5,1.4-.9.4-.4.7-.9.9-1.4.2-.6.3-1.2.3-1.8,0-.9-.2-1.7-.6-2.4-.4-.7-.9-1.2-1.6-1.6ZM84.6,21.7c-.1.4-.3.7-.6.9-.2.3-.5.5-.9.6-.3.1-.7.2-1.1.2-.5,0-.9-.1-1.4-.4-.4-.2-.7-.6-1-1-.2-.4-.4-1-.4-1.6,0-.4,0-.9.2-1.3.1-.3.3-.7.6-.9.2-.3.5-.5.9-.6.3-.1.7-.2,1.1-.2.5,0,1,.1,1.4.4.4.2.7.6,1,1,.2.4.4,1,.4,1.6,0,.4,0,.9-.2,1.3Z"/>
      <path class="st1" d="M89.4,23c-.1-.2-.2-.4-.2-.8v-9.5h-1.7v9.6c0,.4,0,.9.3,1.2.2.4.4.6.8.8.4.2.8.3,1.3.3h.9v-1.5h-.7c-.3,0-.6,0-.7-.3Z"/>
      <path class="st1" d="M98.5,17.8c-.2-.4-.5-.8-.9-1.1-.4-.3-.8-.5-1.2-.6-.5-.1-1-.2-1.5-.2-.7,0-1.5.2-2.1.5-.6.4-1.1.9-1.4,1.6l1.3.8c.2-.4.4-.8.8-1,.4-.2.8-.4,1.4-.4.4,0,.8,0,1.1.2.3.1.6.4.8.7.2.3.3.7.3,1.2v1c0,0-.1-.1-.2-.2-.5-.5-1.3-.7-2.3-.7-.6,0-1.2,0-1.8.3-.5.2-.9.5-1.3.9-.3.4-.5.9-.5,1.5,0,.5.2,1,.5,1.5.3.4.7.7,1.2.9.6.2,1.1.3,1.7.3,1,0,1.8-.2,2.4-.7.1,0,.2-.2.3-.3v.9h1.6v-5.4c0-.5,0-1.1-.3-1.6ZM96.6,23.3c-.4.2-.9.4-1.5.4s-1.1-.1-1.6-.4-.6-.6-.6-1c0-.2,0-.4.2-.6.1-.2.3-.3.5-.4.4-.2.9-.4,1.6-.3.6,0,1.1.1,1.5.4.2.1.4.3.5.4.1.2.2.4.2.6,0,.5-.2.8-.6,1h0Z"/>
      <path class="st1" d="M20.8,20.5c0,1.4.5,2.7,1.5,3.7,1.9,1.9,4.4,1.9,6,1,2-1.1,6.4-4.3,1.8-17.6,0,6.3-9.3,6.9-9.3,13Z"/>
      <path class="st1" d="M25,13c-.3-1.7-.8-3.3-1.5-5.5,0,6.3-9.3,6.9-9.3,13,0,1.4.5,2.7,1.5,3.7,1.9,1.9,4.4,1.9,6,1-3.7-4-2.4-8.5,3.3-12.1Z"/>
      <path class="st1" d="M18.4,13c-.3-1.7-.8-3.3-1.5-5.5,0,6.3-9.3,6.9-9.3,13s2.5,4.5,2.5,4.5c-.4,1.7-.5,3.4-.2,5.1l1.2-.2c-.6-2-.2-4.3-.2-4.5,1.5.6,3.1.4,4.3-.2-3.7-4-2.4-8.5,3.3-12.1Z"/>
      <path class="st1" d="M37.3,26.7h-.7v11.9h8.2v-1.6h-6.4v-3.7h5.7v-1.6h-5.7v-3.5h6.4v-1.6h-7.4Z"/>
      <path class="st1" d="M52,34.7c-.4-.4-1.1-.7-2-1l-.9-.2c-.3,0-.6-.2-.9-.3-.2,0-.4-.2-.6-.4,0,0-.1-.2-.2-.3,0-.1,0-.2,0-.3,0-.3.2-.5.5-.7.3-.2.7-.3,1.2-.3.5,0,.9.1,1.3.3.4.2.7.6.8,1.1l1.4-.5c-.1-.5-.4-.9-.7-1.3-.3-.4-.8-.6-1.2-.8-.5-.2-1.1-.3-1.6-.3-.6,0-1.2,0-1.7.3-.5.2-.9.5-1.2.9-.3.4-.4.8-.4,1.3,0,.3,0,.6.2.9.1.3.3.5.5.7.4.4,1.1.8,2,1l.9.2c.6.1,1.1.3,1.4.5.1,0,.2.2.3.3,0,.1.1.3.1.4,0,.3-.2.6-.5.8-.3.2-.8.3-1.4.3-.3,0-.7,0-1-.2-.3-.1-.6-.3-.8-.5-.2-.2-.4-.5-.5-.9l-1.4.6c.2.5.4.9.8,1.3.4.4.8.6,1.3.8.5.2,1,.3,1.6.3.7,0,1.4-.1,1.9-.3.5-.2.9-.5,1.2-.9.3-.4.4-.9.4-1.3,0-.6-.2-1.2-.7-1.6Z"/>
      <path class="st1" d="M60.4,30.4c-.6-.4-1.3-.6-2-.6-.6,0-1.2.1-1.7.4-.5.3-.8.6-1.1,1.1,0,0-.1.2-.2.3v-1.5h-1.7v11.5h1.7v-4.4c0,0,.1.2.2.3.3.4.7.8,1.1,1.1.5.3,1,.4,1.7.4.5,0,1.1-.1,1.6-.3.5-.2.9-.5,1.3-.9.4-.4.7-.9.8-1.4.2-.6.3-1.2.3-1.8,0-.9-.2-1.7-.5-2.3-.3-.6-.8-1.2-1.4-1.6ZM60.4,35.6c-.1.3-.3.7-.5.9-.2.3-.5.5-.8.6-.3.1-.7.2-1.1.2-.8,0-1.4-.3-1.9-.8-.5-.5-.7-1.3-.7-2.2,0-.4,0-.9.2-1.3.1-.3.3-.7.5-.9.2-.3.5-.5.8-.6.3-.1.7-.2,1-.2.8,0,1.4.3,1.9.8.5.5.7,1.3.7,2.2,0,.4,0,.9-.2,1.3Z"/>
      <path class="st1" d="M69.5,30.6c-.4-.3-.8-.5-1.2-.6-.5-.1-1-.2-1.5-.2-.7,0-1.5.2-2.1.5-.6.4-1.1.9-1.4,1.6l1.3.8c.2-.4.4-.8.8-1,.4-.2.8-.4,1.4-.4.4,0,.8,0,1.1.2.3.1.6.4.8.7.2.3.3.7.3,1.2v1c0,0-.1-.1-.2-.2-.5-.5-1.3-.7-2.3-.7-.6,0-1.2,0-1.8.3-.5.2-.9.5-1.3.9-.3.4-.5.9-.5,1.5,0,.5.2,1,.5,1.5.3.4.7.7,1.2.9.6.2,1.1.3,1.7.3,1,0,1.8-.2,2.4-.7.1,0,.2-.2.3-.3v.9h1.6v-5.4c0-.5,0-1.1-.3-1.6-.2-.4-.5-.8-.9-1.1ZM68.4,37.2c-.4.2-.9.4-1.5.4s-1.2-.1-1.6-.4c-.4-.2-.6-.6-.6-1,0-.2,0-.4.2-.6.1-.2.3-.3.5-.4.4-.2.9-.3,1.6-.3.6,0,1.1.1,1.5.4.2.1.4.3.5.4.1.2.2.4.2.6,0,.5-.2.8-.6,1Z"/>
      <path class="st1" d="M76.7,27.3c-.1,0-.3-.2-.4-.3-.2-.1-.3-.2-.5-.3-.3-.1-.5-.2-.8-.1-.3,0-.5,0-.8.2-.3.2-.5.4-.7.7-.2.3-.3.7-.3,1.2h1.4c0-.3,0-.5.1-.6,0,0,0-.1.2-.1,0,0,.1,0,.2,0,.1,0,.3,0,.4.1.1,0,.2.2.4.3.2.1.3.2.5.3.2,0,.5.1.7.1.3,0,.6,0,.9-.2.3-.2.5-.4.7-.7.2-.4.3-.8.3-1.2h-1.4c0,.3,0,.5-.1.6,0,0,0,.1-.2.1,0,0-.1,0-.2,0-.1,0-.3,0-.4-.1Z"/>
      <path class="st1" d="M78.1,30.2c-.5-.3-1.1-.4-1.7-.4-.6,0-1.2.2-1.7.5-.4.2-.7.6-.9,1v-1.3h-1.7v8.7h1.7v-5.1c0-.7.2-1.2.6-1.6.4-.4.9-.6,1.6-.6s1,.2,1.4.6c.4.4.5.9.5,1.6v5.2h1.7v-5.5c0-.6-.1-1.2-.4-1.8-.3-.5-.7-.9-1.1-1.2Z"/>
      <path class="st1" d="M87.3,30.6c-.4-.3-.8-.5-1.2-.6-.5-.1-1-.2-1.5-.2-.7,0-1.5.2-2.1.5-.6.4-1.1.9-1.4,1.6l1.3.8c.2-.4.4-.8.8-1,.4-.2.8-.4,1.4-.4.4,0,.8,0,1.1.2.3.1.6.4.8.7.2.3.3.7.3,1.2v1c0,0-.1-.1-.2-.2-.5-.5-1.3-.7-2.3-.7-.6,0-1.2,0-1.8.3-.5.2-.9.5-1.3.9-.3.4-.5.9-.5,1.5,0,.5.2,1,.5,1.5.3.4.7.7,1.2.9.6.2,1.1.3,1.7.3,1,0,1.8-.2,2.4-.7.1,0,.2-.2.3-.3v.9h1.6v-5.4c0-.5,0-1.1-.3-1.6-.2-.4-.5-.8-.9-1.1ZM86.2,37.2c-.4.2-.9.4-1.5.4s-1.1-.1-1.6-.4c-.4-.2-.6-.6-.6-1,0-.2,0-.4.2-.6.1-.2.3-.3.5-.4.4-.2.9-.3,1.6-.3.6,0,1.1.1,1.5.4.2.1.4.3.5.4.1.2.2.4.2.6,0,.5-.2.8-.6,1Z"/>
    </g>
  </g>
</svg>