<?xml version="1.0" encoding="UTF-8"?>
<svg id="Layer_1" xmlns="http://www.w3.org/2000/svg" xmlns:xlink="http://www.w3.org/1999/xlink" version="1.1" viewBox="0 0 152 50">
  <!-- Generator: Adobe Illustrator 29.0.0, SVG Export Plug-In . SVG Version: 2.1.0 Build 186)  -->
  <defs>
    <style>
      .st0 {
        fill: none;
      }

      .st1 {
        fill: #007f33;
      }

      .st2 {
        clip-path: url(#clippath);
      }
    </style>
    <clipPath id="clippath">
      <rect class="st0" y="1" width="109.8" height="48"/>
    </clipPath>
  </defs>
  <g class="st2">
    <g>
      <path class="st1" d="M39.6,14.2h-1.8v12.4h1.8v-12.4Z"/>
      <path class="st1" d="M48,18.1c-.6-.4-1.4-.6-2.1-.6-.7,0-1.2.1-1.7.4-.5.3-.9.6-1.2,1.1,0,0-.1.2-.2.3v-5h-1.7v12.4h1.7v-1.6c0,0,.1.2.2.3.3.5.7.8,1.2,1.1.5.3,1,.4,1.7.4.6,0,1.1-.1,1.6-.3.5-.2.9-.6,1.3-1,.4-.4.7-.9.9-1.5.2-.6.3-1.2.3-1.9,0-.9-.2-1.7-.5-2.4-.3-.7-.8-1.2-1.5-1.7ZM48.1,23.4c-.1.4-.3.7-.6,1-.2.3-.5.5-.9.6-.3.1-.7.2-1.1.2-.8,0-1.4-.3-1.9-.8-.5-.5-.8-1.3-.8-2.3,0-.4,0-.9.2-1.3.1-.4.3-.7.6-1,.2-.3.5-.5.9-.6.3-.1.7-.2,1.1-.2.8,0,1.5.3,2,.8.5.5.8,1.3.8,2.3,0,.4,0,.9-.2,1.3Z"/>
      <path class="st1" d="M57.3,18c-.6-.4-1.4-.6-2.1-.6-.6,0-1.2.1-1.7.3-.5.2-1,.5-1.4.9-.4.4-.7.9-.9,1.5-.2.6-.3,1.3-.3,1.9,0,.9.2,1.8.6,2.5.4.7.9,1.2,1.6,1.6.7.4,1.5.6,2.3.6.5,0,1,0,1.5-.2.5-.1.9-.4,1.3-.7.4-.4.8-.8,1.1-1.3l-1.3-.8c-.2.3-.4.6-.7.9-.3.2-.5.4-.9.5-.3.1-.7.2-1,.2-.5,0-.9-.1-1.4-.4-.4-.3-.7-.6-.9-1.1-.2-.4-.3-.9-.3-1.3h6.7c0,0,0-.2,0-.2v-.2c0-.9-.2-1.7-.5-2.4-.3-.7-.8-1.2-1.5-1.6ZM53.2,19.8c.2-.3.5-.5.8-.6.3-.1.7-.2,1.1-.2.3,0,.7,0,1,.2.3.1.6.3.8.6.3.4.5.9.6,1.5h-4.8c0-.2,0-.3.1-.5.1-.4.3-.7.5-1Z"/>
      <path class="st1" d="M65.1,17.5h-.5c-.5,0-1,.1-1.4.4-.4.3-.8.7-1,1.2v-1.5h-1.7v9h1.7v-4.8c0-.8.2-1.4.6-1.8.2-.2.4-.4.7-.5.3-.1.5-.2.8-.2h.9v-1.8Z"/>
      <path class="st1" d="M72.2,19.3c0,0-.1-.2-.2-.3-.3-.5-.7-.8-1.2-1.1-.5-.3-1-.4-1.7-.4-.6,0-1.1.1-1.6.3-.5.2-.9.6-1.3,1-.4.4-.7.9-.9,1.5-.2.6-.3,1.2-.3,1.9,0,.9.2,1.7.5,2.4.3.7.8,1.2,1.5,1.6.6.4,1.4.6,2.1.6.7,0,1.2-.1,1.7-.4.5-.3.9-.6,1.2-1.1,0,0,.1-.2.2-.3v1.6h1.7v-12.4h-1.7v5ZM71.5,24.4c-.2.3-.5.5-.9.6-.3.1-.7.2-1.1.2-.8,0-1.5-.3-2-.8-.5-.5-.8-1.3-.8-2.3,0-.4,0-.9.2-1.3.1-.4.3-.7.6-1,.2-.3.5-.5.9-.6.3-.1.7-.2,1.1-.2.8,0,1.4.3,1.9.8.5.5.8,1.3.8,2.3,0,.4,0,.9-.2,1.3-.1.4-.3.7-.6,1Z"/>
      <path class="st1" d="M80.2,17.5h-.5c-.5,0-1,.1-1.4.4-.4.3-.8.7-1,1.2v-1.5h-1.7v9h1.7v-4.8c0-.8.2-1.4.6-1.8.2-.2.4-.4.7-.5.3-.1.5-.2.8-.2h.9v-1.8Z"/>
      <path class="st1" d="M87.1,18.1c-.7-.4-1.5-.6-2.3-.6-.6,0-1.2.1-1.8.3-.5.2-1,.5-1.4,1-.4.4-.7.9-1,1.5-.2.6-.3,1.2-.3,1.9,0,.9.2,1.7.6,2.4.4.7.9,1.3,1.6,1.7.7.4,1.5.6,2.3.6.6,0,1.2-.1,1.8-.3.5-.2,1-.6,1.4-1,.4-.4.7-.9,1-1.5.2-.6.3-1.3.3-1.9,0-.9-.2-1.8-.6-2.5-.4-.7-.9-1.3-1.6-1.6ZM87.3,23.5c-.1.4-.3.7-.6,1-.2.3-.5.5-.9.6-.4.1-.7.2-1.1.2-.5,0-1-.1-1.4-.4-.4-.3-.8-.6-1-1.1-.2-.5-.4-1-.4-1.7,0-.4,0-.9.2-1.3.1-.4.3-.7.6-1,.2-.3.5-.5.9-.6.3-.1.7-.2,1.1-.2.5,0,1,.1,1.4.4.4.3.8.6,1,1.1.2.5.4,1,.4,1.7,0,.4,0,.9-.2,1.3Z"/>
      <path class="st1" d="M92.3,24.8c-.1-.2-.2-.4-.2-.8v-9.8h-1.7v9.9c0,.4,0,.9.3,1.3.2.4.5.7.8.9.4.2.9.3,1.3.3h1v-1.5h-.7c-.3,0-.6,0-.7-.3Z"/>
      <path class="st1" d="M101.7,19.4c-.2-.4-.5-.8-.9-1.1-.4-.3-.8-.5-1.3-.6-.5-.1-1-.2-1.5-.2-.8,0-1.5.2-2.2.5-.7.4-1.2.9-1.4,1.6l1.4.8c.2-.4.5-.8.8-1,.4-.2.8-.4,1.4-.4.4,0,.8,0,1.2.2.3.1.6.4.8.7.2.3.3.7.3,1.3v1c0,0-.1-.1-.2-.2-.6-.5-1.4-.7-2.4-.7-.6,0-1.2,0-1.8.3-.5.2-1,.5-1.3.9-.3.4-.5,1-.5,1.5,0,.5.2,1.1.5,1.5.3.4.8.8,1.3.9.6.2,1.2.3,1.8.3,1.1,0,1.9-.3,2.5-.8.1-.1.2-.2.3-.3v.9h1.6v-5.6c0-.6-.1-1.1-.3-1.6ZM99.8,25.1c-.4.2-1,.4-1.6.4s-1.2-.1-1.6-.4c-.4-.2-.6-.6-.6-1.1,0-.2,0-.5.2-.6.1-.2.3-.4.5-.5.4-.2,1-.4,1.6-.4.6,0,1.2.1,1.6.4.2.1.4.3.5.5.1.2.2.4.2.6,0,.5-.2.8-.6,1.1h0Z"/>
      <path class="st1" d="M21.4,22.2c0,1.4.6,2.8,1.6,3.8,1.9,1.9,4.6,1.9,6.2,1,2-1.1,6.6-4.4,1.9-18.3,0,6.5-9.7,7.2-9.7,13.5Z"/>
      <path class="st1" d="M25.8,14.5c-.3-1.7-.8-3.5-1.6-5.7,0,6.5-9.7,7.2-9.7,13.5,0,1.4.6,2.8,1.6,3.8,1.9,1.9,4.6,1.9,6.2,1-3.8-4.1-2.5-8.8,3.5-12.6Z"/>
      <path class="st1" d="M19,14.5c-.3-1.7-.8-3.5-1.6-5.7,0,6.5-9.7,7.2-9.7,13.5s2.6,4.6,2.6,4.6c-.4,1.7-.5,3.5-.2,5.2l1.2-.2c-.6-2.1-.2-4.4-.2-4.6,1.6.6,3.2.4,4.4-.2-3.8-4.1-2.5-8.9,3.5-12.6Z"/>
      <path class="st1" d="M43.7,34.6l-4.2-5.9h-1.7v12.4h1.8v-9.3c.2.2.4.5.5.7l.4.6,3,4.1h.3l3-4.1c.2-.3.5-.7.9-1.2v9.3h1.8v-12.4h-1.7l-4.2,5.9Z"/>
      <path class="st1" d="M53.7,30.8h1.7l1.8-2.4h-2l-1.5,2.4Z"/>
      <path class="st1" d="M56.8,39.1c-.2.2-.5.4-.9.5-.3.1-.7.2-1,.2-.5,0-.9-.1-1.4-.4-.4-.2-.7-.6-.9-1.1-.2-.4-.3-.9-.3-1.3h6.7c0,0,0-.2,0-.2v-.2c0-.9-.2-1.7-.5-2.4-.3-.7-.8-1.2-1.5-1.6-.6-.4-1.4-.6-2.1-.6-.6,0-1.2.1-1.7.3-.5.2-1,.5-1.4.9-.4.4-.7.9-.9,1.5-.2.6-.3,1.3-.3,1.9,0,.9.2,1.8.6,2.5.4.7.9,1.3,1.6,1.6.7.4,1.5.6,2.3.6.5,0,1,0,1.5-.2.5-.1.9-.4,1.3-.7.4-.4.8-.8,1-1.3l-1.3-.8c-.2.3-.4.6-.7.9ZM52.9,34.2c.2-.3.5-.5.8-.6.3-.1.7-.2,1.1-.2.3,0,.7,0,1,.2.3.1.6.3.8.6.3.4.5.9.6,1.5h-4.8c0-.2,0-.3.1-.5.1-.4.3-.7.5-1Z"/>
      <path class="st1" d="M67.6,32.1h-2l-1.4,1.8c-.2.2-.3.4-.4.6-.1.2-.3.4-.5.6-.2-.2-.3-.4-.5-.6-.1-.2-.3-.4-.4-.6l-1.4-1.8h-2.1l3.3,4.4-3.4,4.6h2l1.5-2c.2-.2.3-.4.4-.6.1-.2.3-.4.5-.6.2.2.3.4.4.6.1.2.3.4.4.6l1.6,2h2.1l-3.4-4.6,3.3-4.4Z"/>
      <path class="st1" d="M73.8,34.3c.2-.3.5-.5.9-.6.3-.1.7-.2,1-.2.5,0,1.1.1,1.5.4.4.3.8.8,1.1,1.4l1.5-.7c-.2-.6-.5-1.1-1-1.6-.4-.4-.9-.7-1.4-.9-.5-.2-1.1-.3-1.7-.3-.6,0-1.2.1-1.8.3-.5.2-1,.5-1.4,1-.4.4-.7.9-.9,1.5-.2.6-.3,1.3-.3,1.9,0,.9.2,1.7.6,2.4.4.7.9,1.3,1.6,1.6.7.4,1.5.6,2.3.6.6,0,1.1,0,1.7-.3.5-.2,1-.5,1.4-.9.5-.4.8-1,1-1.6l-1.5-.7c-.3.7-.6,1.1-1.1,1.4-.5.3-1,.4-1.5.4-.5,0-.9-.1-1.3-.4-.4-.2-.8-.6-1-1.1-.2-.5-.4-1-.4-1.7,0-.5,0-.9.2-1.3.1-.4.3-.7.6-1Z"/>
      <path class="st1" d="M87.2,32.5c-.7-.4-1.5-.6-2.3-.6-.6,0-1.2.1-1.8.3-.5.2-1,.5-1.4,1-.4.4-.7.9-1,1.5-.2.6-.3,1.2-.3,1.9,0,.9.2,1.7.6,2.4.4.7.9,1.3,1.6,1.7.6.3,1.3.5,2,.6.7,0,1.4,0,2.1-.3.5-.2,1-.6,1.4-1,.4-.4.7-.9,1-1.5.2-.6.3-1.3.3-1.9,0-.9-.2-1.8-.6-2.5-.4-.7-.9-1.3-1.6-1.6ZM87.4,37.9c-.1.4-.3.7-.6,1-.2.3-.5.5-.9.6-.4.1-.7.2-1.1.2-.5,0-1-.1-1.4-.4-.4-.3-.8-.6-1-1.1-.2-.5-.4-1-.4-1.7,0-.4,0-.9.2-1.3.1-.4.3-.7.6-1,.2-.3.5-.5.9-.6.3-.1.7-.2,1.1-.2.5,0,1,.1,1.4.4.4.3.8.6,1,1.1.2.5.4,1,.4,1.7,0,.4,0,.9-.2,1.3Z"/>
      <path class="st1" d="M70.3,32.1h-1.7v9h1.7v-9Z"/>
      <path class="st1" d="M70.3,28.6c-.2-.2-.5-.3-.8-.3-.3,0-.6.1-.8.3-.1.1-.2.2-.3.4s0,.3,0,.5c0,.2,0,.3,0,.5,0,.1.1.3.3.4.2.2.5.3.8.3.3,0,.6-.1.8-.3.1-.1.2-.2.3-.4,0-.1,0-.3,0-.5,0-.2,0-.3,0-.5,0-.1-.2-.3-.3-.4Z"/>
    </g>
  </g>
</svg>