<?xml version="1.0" encoding="UTF-8"?>
<svg id="Layer_1" xmlns="http://www.w3.org/2000/svg" xmlns:xlink="http://www.w3.org/1999/xlink" version="1.1" viewBox="0 0 152 50">
  <!-- Generator: Adobe Illustrator 29.0.0, SVG Export Plug-In . SVG Version: 2.1.0 Build 186)  -->
  <defs>
    <style>
      .st0 {
        fill: none;
      }

      .st1 {
        fill: #007f33;
      }

      .st2 {
        clip-path: url(#clippath);
      }
    </style>
    <clipPath id="clippath">
      <rect class="st0" y="0" width="145.5" height="50"/>
    </clipPath>
  </defs>
  <g class="st2">
    <g>
      <path class="st1" d="M41.1,28.8h-1.9v12.9h1.9v-12.9Z"/>
      <path class="st1" d="M49.1,32.6c-.5-.3-1.2-.5-1.8-.4-.6,0-1.3.2-1.8.5-.4.3-.7.6-1,1.1v-1.4h-1.8v9.4h1.8v-5.5c0-.7.2-1.3.7-1.8.4-.4,1-.6,1.7-.6s1.1.2,1.5.6c.4.4.6,1,.6,1.7v5.6h1.8v-5.9c0-.7-.1-1.3-.4-1.9-.3-.5-.7-1-1.2-1.3Z"/>
      <path class="st1" d="M54.8,29.3l-1.8,1.1v2h-1.7v1.5h1.7v5c0,.5.1,1,.3,1.5.2.4.5.8.9,1,.4.2.9.4,1.5.4h1.2v-1.6h-1c-.4,0-.7-.1-.9-.4-.2-.2-.3-.6-.3-1.1v-4.8h2.1v-1.5h-2.1v-3.1Z"/>
      <path class="st1" d="M64,32.8c-.7-.4-1.4-.6-2.2-.6-.6,0-1.2.1-1.8.3-.5.2-1,.6-1.4,1-.4.4-.7,1-.9,1.5-.2.6-.3,1.3-.3,2,0,1,.2,1.8.6,2.5.4.7.9,1.3,1.6,1.7.7.4,1.5.6,2.4.6.5,0,1.1,0,1.6-.2.5-.2,1-.4,1.4-.8.4-.4.8-.8,1.1-1.4l-1.4-.9c-.2.4-.4.7-.7.9-.3.2-.6.4-.9.5-.3.1-.7.2-1.1.2-.5,0-1-.1-1.4-.4-.4-.3-.8-.6-1-1.1-.2-.4-.3-.9-.3-1.4h6.9c0,0,0-.2,0-.3v-.2c0-1-.2-1.8-.6-2.5-.3-.7-.9-1.3-1.5-1.7ZM59.9,34.6c.2-.3.5-.5.8-.6.3-.1.7-.2,1.1-.2.3,0,.7,0,1,.2.3.1.6.3.8.6.3.4.6.9.6,1.6h-5c0-.2,0-.3.1-.5.1-.4.3-.7.5-1Z"/>
      <path class="st1" d="M70.1,32.6c-.4.3-.8.7-1.1,1.3v-1.5h-1.8v9.4h1.8v-5c0-.8.2-1.4.6-1.9.2-.2.4-.4.7-.5.3-.1.6-.2.9-.2h.9v-1.9h-.5c-.5,0-1,.1-1.5.4Z"/>
      <path class="st1" d="M79.5,32.6c-.5-.3-1.2-.5-1.8-.4-.6,0-1.3.2-1.8.5-.4.3-.7.6-1,1.1v-1.4h-1.8v9.4h1.8v-5.5c0-.7.2-1.3.7-1.8.4-.4,1-.6,1.7-.6s1.1.2,1.5.6c.4.4.6,1,.6,1.7v5.6h1.8v-5.9c0-.7-.1-1.3-.4-1.9-.3-.5-.7-1-1.2-1.3Z"/>
      <path class="st1" d="M89.2,33c-.4-.3-.8-.5-1.3-.7-.5-.1-1-.2-1.6-.2-.8,0-1.6.2-2.3.6-.7.4-1.2,1-1.5,1.7l1.4.8c.2-.4.5-.8.9-1.1.4-.3.9-.4,1.5-.4.4,0,.8,0,1.2.2.4.1.7.4.9.7.2.3.3.8.3,1.3v1c0,0-.1-.1-.2-.2-.6-.5-1.4-.8-2.5-.8-.7,0-1.3.1-1.9.3-.5.2-1,.5-1.4,1-.3.5-.5,1-.5,1.6,0,.6.2,1.1.5,1.6.3.4.8.8,1.3,1,.6.2,1.2.3,1.9.3,1.1,0,2-.3,2.5-.8.1-.1.2-.2.3-.3v.9h1.7v-5.8c0-.6-.1-1.2-.3-1.7-.2-.4-.5-.8-.9-1.2ZM88.1,40.1c-.4.3-1,.4-1.7.4s-1.2-.1-1.7-.4c-.4-.3-.7-.6-.7-1.1,0-.2,0-.5.2-.7.1-.2.3-.4.5-.5.4-.3,1-.4,1.7-.4s1.2.1,1.7.4c.2.1.4.3.5.5.1.2.2.4.2.7,0,.5-.2.9-.7,1.1Z"/>
      <path class="st1" d="M94.2,34.6c.3-.3.6-.5.9-.6.3-.1.7-.2,1.1-.2.6,0,1.1.1,1.6.4.5.3.8.8,1.1,1.5l1.5-.7c-.2-.6-.6-1.2-1-1.6-.4-.4-.9-.7-1.5-.9-.6-.2-1.1-.3-1.7-.3-.6,0-1.2.1-1.8.3-.6.2-1,.6-1.5,1-.4.4-.8,1-1,1.5-.2.6-.3,1.3-.3,2,0,1,.2,1.8.6,2.5.4.7.9,1.3,1.6,1.7.7.4,1.5.6,2.4.6.6,0,1.2,0,1.7-.3.6-.2,1.1-.5,1.5-.9.5-.5.8-1,1-1.6l-1.5-.7c-.3.7-.6,1.2-1.1,1.5-.5.3-1,.5-1.6.4-.5,0-1-.1-1.4-.4-.4-.3-.8-.6-1-1.1-.3-.5-.4-1.1-.4-1.8,0-.5,0-.9.2-1.4.1-.4.3-.7.6-1Z"/>
      <path class="st1" d="M103.4,32.4h-1.8v9.4h1.8v-9.4Z"/>
      <path class="st1" d="M103.3,28.7c-.2-.2-.6-.3-.9-.3-.3,0-.6.1-.9.3-.1.1-.2.2-.3.4,0,.2,0,.3,0,.5,0,.2,0,.3,0,.5,0,.1.2.3.3.4.2.2.6.3.9.3.3,0,.6-.1.9-.3.1-.1.2-.2.3-.4,0-.1,0-.3,0-.5,0-.2,0-.3,0-.5,0-.2-.2-.3-.3-.4Z"/>
      <path class="st1" d="M111.6,32.8c-.7-.4-1.6-.6-2.4-.6-.6,0-1.3.1-1.9.3-.6.2-1.1.6-1.5,1-.4.4-.8,1-1,1.5-.2.6-.4,1.3-.3,2,0,1,.2,1.8.6,2.5.4.7,1,1.3,1.7,1.7.7.4,1.6.6,2.4.6.6,0,1.3-.1,1.9-.4.6-.2,1.1-.6,1.5-1,.4-.4.8-1,1-1.5.2-.6.4-1.3.3-2,0-1-.2-1.8-.6-2.5-.4-.7-1-1.3-1.7-1.7ZM111.8,38.4c-.1.4-.3.7-.6,1-.3.3-.6.5-.9.6-.4.1-.8.2-1.2.2-.5,0-1-.1-1.5-.4-.4-.3-.8-.6-1-1.1-.2-.5-.4-1.1-.4-1.7,0-.5,0-.9.2-1.4.1-.4.3-.7.6-1,.3-.3.6-.5.9-.6.4-.1.7-.2,1.1-.2.5,0,1,.1,1.5.4.4.3.8.6,1,1.1.2.5.4,1.1.4,1.7,0,.5,0,.9-.2,1.4Z"/>
      <path class="st1" d="M121.2,32.6c-.5-.3-1.2-.5-1.8-.4-.6,0-1.2.2-1.8.5-.4.3-.7.6-1,1.1v-1.4h-1.8v9.4h1.8v-5.5c0-.7.2-1.3.7-1.8.4-.4,1-.6,1.7-.6s1.1.2,1.5.6c.4.4.6,1,.6,1.7v5.6h1.8v-5.9c0-.7-.1-1.3-.4-1.9-.3-.5-.7-1-1.2-1.3Z"/>
      <path class="st1" d="M131,33c-.4-.3-.8-.5-1.3-.7-.5-.1-1-.2-1.6-.2-.8,0-1.6.2-2.3.6-.7.4-1.2,1-1.5,1.7l1.4.8c.2-.4.5-.8.9-1.1.4-.3.9-.4,1.5-.4.4,0,.8,0,1.2.2.4.1.7.4.9.7.2.3.3.8.3,1.3v1c0,0-.1-.1-.2-.2-.6-.5-1.4-.8-2.5-.8-.6,0-1.3.1-1.9.3-.5.2-1,.5-1.4,1-.3.5-.5,1-.5,1.6,0,.6.2,1.1.5,1.6.3.4.8.8,1.3,1,.6.2,1.2.3,1.9.3,1.1,0,2-.3,2.5-.8.1-.1.2-.2.3-.3v.9h1.7v-5.8c0-.6-.1-1.2-.3-1.7-.2-.4-.5-.8-.9-1.2ZM129.9,40.1c-.4.3-1,.4-1.6.4s-1.2-.1-1.7-.4c-.4-.3-.7-.6-.7-1.1,0-.2,0-.5.2-.7.1-.2.3-.4.5-.5.4-.3,1-.4,1.7-.4.7,0,1.2.1,1.6.4.2.1.4.3.5.5s.2.4.2.7c0,.5-.2.9-.7,1.1Z"/>
      <path class="st1" d="M136.7,40.1c-.4,0-.6,0-.8-.3s-.2-.5-.2-.8v-10.2h-1.8v10.3c0,.5,0,.9.3,1.3.2.4.5.7.8.9.4.2.9.3,1.4.3h1v-1.6h-.7Z"/>
      <path class="st1" d="M41.1,13.8h-1.9v12.9h1.9v-12.9Z"/>
      <path class="st1" d="M49.9,17.7c-.6-.4-1.4-.6-2.2-.6-.7,0-1.3.1-1.8.4-.5.3-.9.7-1.2,1.1,0,0-.1.2-.2.3v-5.2h-1.8v12.9h1.8v-1.7c0,0,.1.2.2.3.3.5.7.9,1.2,1.1.5.3,1.1.4,1.8.4.6,0,1.2-.1,1.7-.4.5-.2,1-.6,1.3-1,.4-.4.7-1,.9-1.5.2-.6.3-1.3.3-2,0-1-.2-1.8-.6-2.5-.3-.7-.9-1.3-1.5-1.7ZM49.9,23.3c-.1.4-.3.7-.6,1-.2.3-.5.5-.9.6-.4.2-.7.2-1.1.2-.8,0-1.5-.3-2-.9-.5-.6-.8-1.4-.8-2.4,0-.5,0-.9.2-1.4.1-.4.3-.7.6-1,.2-.3.5-.5.9-.6.4-.1.7-.2,1.1-.2.8,0,1.5.3,2,.8.5.6.8,1.4.8,2.4,0,.5,0,.9-.2,1.4Z"/>
      <path class="st1" d="M59.5,17.7c-.7-.4-1.4-.6-2.2-.6-.6,0-1.2.1-1.8.3-.5.2-1,.6-1.4,1-.4.4-.7,1-.9,1.5-.2.6-.3,1.3-.3,2,0,1,.2,1.8.6,2.5.4.7.9,1.3,1.6,1.7.7.4,1.5.6,2.4.6.5,0,1.1,0,1.6-.2.5-.2,1-.4,1.4-.8.4-.4.8-.8,1.1-1.4l-1.4-.9c-.2.4-.4.7-.7.9-.3.2-.6.4-.9.5-.3.1-.7.2-1.1.2-.5,0-1-.1-1.4-.4-.4-.3-.8-.6-1-1.1-.2-.4-.3-.9-.3-1.4h6.9c0,0,0-.2,0-.3v-.2c0-1-.2-1.8-.6-2.5-.3-.7-.9-1.3-1.5-1.7ZM55.3,19.5c.2-.3.5-.5.8-.6.3-.1.7-.2,1.1-.2.3,0,.7,0,1,.2.3.1.6.3.8.6.3.4.6.9.6,1.6h-5c0-.2,0-.3.1-.5.1-.4.3-.7.5-1Z"/>
      <path class="st1" d="M67.6,17.1h-.5c-.5,0-1,.1-1.5.4-.4.3-.8.7-1.1,1.3v-1.5h-1.8v9.4h1.8v-5c0-.8.2-1.4.6-1.9.2-.2.4-.4.7-.5.3-.1.6-.2.9-.2h.9v-1.9Z"/>
      <path class="st1" d="M75,19c0,0-.1-.2-.2-.3-.3-.5-.7-.9-1.2-1.1-.5-.3-1.1-.4-1.8-.4-.6,0-1.2.1-1.7.3-.5.2-1,.6-1.4,1-.4.5-.7,1-.9,1.5-.2.6-.3,1.3-.3,2,0,1,.2,1.8.6,2.5.3.7.9,1.3,1.5,1.7.7.4,1.4.6,2.2.6.7,0,1.3-.1,1.8-.4.5-.3.9-.7,1.2-1.1,0,0,.1-.2.2-.3v1.7h1.8v-12.9h-1.8v5.2ZM74.2,24.4c-.2.3-.6.5-.9.6-.4.1-.7.2-1.1.2-.8,0-1.5-.3-2-.9-.5-.6-.8-1.4-.8-2.4,0-.5,0-.9.2-1.4.1-.4.3-.7.6-1,.2-.3.5-.5.9-.6.4-.1.7-.2,1.1-.2.8,0,1.5.3,2,.8.5.6.8,1.4.8,2.4,0,.5,0,.9-.2,1.4-.1.4-.3.7-.6,1Z"/>
      <path class="st1" d="M83.3,17.1h-.5c-.5,0-1,.1-1.5.4-.4.3-.8.7-1.1,1.3v-1.5h-1.8v9.4h1.8v-5c0-.8.2-1.4.6-1.9.2-.2.4-.4.7-.5.3-.1.6-.2.9-.2h.9v-1.9Z"/>
      <path class="st1" d="M90.5,17.7c-.7-.4-1.6-.6-2.4-.6-.6,0-1.3.1-1.9.3-.6.2-1.1.6-1.5,1-.4.4-.8,1-1,1.5-.2.6-.4,1.3-.3,2,0,1,.2,1.8.6,2.5.4.7,1,1.3,1.7,1.7.7.4,1.6.6,2.4.6.6,0,1.3-.1,1.9-.4.6-.2,1.1-.6,1.5-1,.4-.4.8-1,1-1.5.2-.6.4-1.3.3-2,0-1-.2-1.8-.6-2.5-.4-.7-1-1.3-1.7-1.7ZM90.7,23.4c-.1.4-.3.7-.6,1-.3.3-.6.5-.9.6-.4.1-.8.2-1.2.2-.5,0-1-.1-1.5-.4-.4-.3-.8-.7-1-1.1-.3-.5-.4-1.1-.4-1.7,0-.5,0-.9.2-1.4.1-.4.3-.7.6-1,.3-.3.6-.5.9-.6.4-.1.7-.2,1.1-.2.5,0,1,.1,1.5.4.4.3.8.6,1,1.1.3.5.4,1.1.4,1.7,0,.5,0,.9-.2,1.4Z"/>
      <path class="st1" d="M95.8,24.8c-.2-.2-.2-.5-.2-.8v-10.2h-1.8v10.3c0,.5,0,.9.3,1.3.2.4.5.7.8.9.4.2.9.3,1.4.3h1v-1.6h-.7c-.4,0-.6,0-.8-.3Z"/>
      <path class="st1" d="M105.6,19.2c-.2-.4-.5-.8-.9-1.2-.4-.3-.8-.5-1.3-.7-.5-.1-1-.2-1.6-.2-.8,0-1.6.2-2.3.6-.7.4-1.2,1-1.5,1.7l1.4.8c.2-.4.5-.8.9-1.1.4-.3.9-.4,1.5-.4.4,0,.8,0,1.2.2.4.1.7.4.9.7.2.3.3.8.3,1.3v1c0,0-.1-.1-.2-.2-.6-.5-1.4-.8-2.5-.8-.7,0-1.3.1-1.9.3-.5.2-1,.5-1.4,1-.3.5-.5,1-.5,1.6,0,.6.2,1.1.5,1.6.3.4.8.8,1.3,1,.6.2,1.2.3,1.9.3,1.1,0,2-.3,2.5-.8.1-.1.2-.2.3-.3v.9h1.7v-5.8c0-.6-.1-1.2-.3-1.7ZM103.6,25.1c-.4.3-1,.4-1.6.4s-1.2-.1-1.7-.4c-.4-.3-.7-.6-.7-1.1,0-.2,0-.5.2-.7.1-.2.3-.4.5-.5.4-.3,1-.4,1.7-.4.7,0,1.2.1,1.6.4.2.1.4.3.5.5.1.2.2.4.2.7,0,.5-.2.9-.7,1.1h0Z"/>
      <path class="st1" d="M22.3,22.1c0,1.5.6,2.9,1.6,4,2,2,4.7,2,6.5,1.1,2.1-1.2,6.9-4.6,1.9-19,0,6.8-10,7.5-10,14Z"/>
      <path class="st1" d="M26.8,14c-.3-1.8-.9-3.6-1.6-5.9,0,6.8-10,7.5-10,14,0,1.5.6,2.9,1.6,4,2,2,4.7,2,6.5,1.1-4-4.3-2.6-9.2,3.6-13.1Z"/>
      <path class="st1" d="M19.7,14c-.3-1.8-.9-3.6-1.6-5.9,0,6.8-10,7.5-10,14s2.7,4.8,2.7,4.8c-.4,1.8-.5,3.6-.3,5.5l1.3-.2c-.6-2.2-.2-4.6-.2-4.8,1.6.7,3.3.5,4.6-.2-4-4.3-2.6-9.2,3.6-13.1Z"/>
    </g>
  </g>
</svg>