<svg width="152" height="50" viewBox="0 0 152 50" fill="none" xmlns="http://www.w3.org/2000/svg">
<g clip-path="url(#clip0_9855_2574)">
<path d="M41.0747 28.8228H39.1859V41.7093H41.0747V28.8228Z" fill="#00A443"/>
<path d="M49.0857 32.614C48.5424 32.3121 47.9291 32.1599 47.3082 32.1729C46.6769 32.1718 46.0578 32.347 45.52 32.6791C45.1082 32.9373 44.7751 33.3044 44.5573 33.7401V32.3546H42.7604V41.7073H44.5573V36.1691C44.5573 35.4203 44.7743 34.8341 45.2085 34.4105C45.6426 33.9869 46.2019 33.7751 46.8863 33.7751C47.4966 33.7751 47.9917 33.984 48.3716 34.4018C48.7516 34.8196 48.9409 35.3841 48.9396 36.0953V41.7102H50.7549V35.7999C50.7709 35.1307 50.6163 34.4685 50.3059 33.8761C50.0246 33.3492 49.6019 32.912 49.0857 32.614Z" fill="#00A443"/>
<path d="M54.8461 29.2824L53.0308 30.3871V32.3546H51.3075V33.8645H53.0308V38.8197C53.0212 39.3411 53.1311 39.8577 53.3521 40.3296C53.5549 40.7593 53.8847 41.1159 54.2965 41.3507C54.7113 41.5911 55.2244 41.7109 55.836 41.7102H56.9933V40.1275H56.0392C55.6244 40.1275 55.3219 40.0047 55.1316 39.7592C54.9413 39.5138 54.8468 39.1575 54.848 38.6905V33.8664H56.9933V32.3546H54.8461V29.2824Z" fill="#00A443"/>
<path d="M64.0278 32.7705C63.3587 32.3662 62.5898 32.1591 61.8091 32.1729C61.1907 32.1651 60.577 32.2807 60.0035 32.513C59.4653 32.7363 58.9808 33.0721 58.582 33.4982C58.1707 33.9407 57.8554 34.4641 57.656 35.0353C57.4346 35.6775 57.3263 36.3534 57.3357 37.0329C57.3357 38.0045 57.5312 38.8544 57.9221 39.5824C58.2926 40.2913 58.8512 40.8835 59.5361 41.2934C60.2528 41.7137 61.0711 41.9272 61.901 41.9104C62.4319 41.9114 62.9601 41.8338 63.4685 41.6801C63.9787 41.5253 64.4526 41.2689 64.8619 40.9261C65.3066 40.5475 65.6765 40.0884 65.9524 39.5727L64.559 38.707C64.3872 39.0594 64.1512 39.3764 63.8633 39.6417C63.6039 39.8758 63.2978 40.0517 62.9654 40.1576C62.6206 40.2639 62.2616 40.3167 61.901 40.314C61.4058 40.3222 60.9178 40.1949 60.4892 39.9458C60.0607 39.6853 59.7194 39.3024 59.509 38.8459C59.3071 38.4092 59.1911 37.9374 59.1674 37.4565H66.1005C66.1128 37.3713 66.119 37.2852 66.1189 37.1991V36.9591C66.1189 36.0024 65.9324 35.1648 65.5596 34.4465C65.2125 33.7568 64.6824 33.1768 64.0278 32.7705ZM59.8564 34.5563C60.0756 34.2741 60.3626 34.0524 60.6905 33.9121C61.0392 33.7677 61.4135 33.696 61.7907 33.7013C62.1327 33.6921 62.4725 33.76 62.785 33.9001C63.0974 34.0402 63.3747 34.2488 63.5963 34.5106C63.933 34.8993 64.1491 35.433 64.2446 36.1118H59.2187C59.246 35.9408 59.2841 35.7717 59.3329 35.6056C59.4399 35.2258 59.6175 34.8698 59.8564 34.5563Z" fill="#00A443"/>
<path d="M70.124 32.5965C69.6892 32.8783 69.3376 33.3077 69.0693 33.8849V32.3546H67.2724V41.7073H69.0693V36.72C69.0693 35.9226 69.2709 35.2843 69.674 34.805C69.8598 34.5752 70.0955 34.391 70.363 34.2666C70.6304 34.1421 70.9227 34.0807 71.2174 34.087H72.1338V32.1729H71.6045C71.0801 32.1638 70.5648 32.3112 70.124 32.5965Z" fill="#00A443"/>
<path d="M79.4664 32.614C78.9231 32.3121 78.3098 32.1599 77.6889 32.1729C77.0576 32.1717 76.4384 32.347 75.9007 32.6791C75.4888 32.9373 75.1557 33.3044 74.9379 33.7401V32.3546H73.1411V41.7073H74.9379V36.1691C74.9379 35.4203 75.155 34.8341 75.5891 34.4105C76.0233 33.9869 76.5823 33.7751 77.266 33.7751C77.8776 33.7751 78.3727 33.984 78.7514 34.4018C79.13 34.8196 79.3197 35.3841 79.3203 36.0953V41.7102H81.1356V35.7999C81.1517 35.1306 80.9968 34.4683 80.6856 33.8761C80.405 33.349 79.9826 32.9117 79.4664 32.614Z" fill="#00A443"/>
<path d="M89.2316 33.0474C88.8386 32.7427 88.3903 32.5176 87.9118 32.3847C87.4015 32.2417 86.874 32.1704 86.3442 32.1729C85.5507 32.1606 84.7675 32.354 84.0703 32.7345C83.3922 33.1154 82.8622 33.7153 82.5666 34.4368L83.9784 35.2471C84.1495 34.8077 84.4542 34.4337 84.8492 34.1783C85.2459 33.9192 85.7317 33.7897 86.3065 33.7897C86.7173 33.7842 87.1252 33.8595 87.5073 34.0112C87.8641 34.1552 88.1681 34.4059 88.3782 34.7292C88.5975 35.0596 88.7075 35.4952 88.7081 36.036V37.0786C88.6443 37.0104 88.5772 36.9456 88.5069 36.8843C87.9321 36.3823 87.1009 36.1309 86.0133 36.1303C85.3626 36.1218 84.7161 36.2342 84.1061 36.4616C83.5709 36.6544 83.1011 36.9957 82.7514 37.4458C82.4311 37.9057 82.2586 38.4529 82.257 39.0141C82.2555 39.5753 82.4249 40.1235 82.7427 40.5851C83.0846 41.0286 83.5411 41.3694 84.0625 41.5703C84.655 41.8038 85.2869 41.9193 85.9233 41.9104C87.0238 41.9104 87.8734 41.6497 88.472 41.1282C88.5932 41.0228 88.7037 40.9057 88.802 40.7785V41.7083H90.5069V35.8728C90.5224 35.2948 90.4031 34.7212 90.1586 34.1978C89.9402 33.7488 89.6233 33.3555 89.2316 33.0474ZM88.1043 40.1275C87.6644 40.3866 87.1141 40.5161 86.4535 40.5161C85.782 40.5161 85.2218 40.3869 84.7766 40.1275C84.3315 39.8681 84.1071 39.4959 84.1071 39.0053C84.0975 38.7692 84.1555 38.5353 84.2741 38.3312C84.3928 38.1272 84.5672 37.9616 84.7766 37.8539C85.2218 37.6032 85.782 37.4769 86.4535 37.4769C87.1251 37.4769 87.6641 37.6062 88.1043 37.8656C88.31 37.9744 88.481 38.1392 88.5977 38.3411C88.7144 38.5431 88.7721 38.7739 88.7642 39.0072C88.7642 39.495 88.5443 39.8684 88.1043 40.1275Z" fill="#00A443"/>
<path d="M94.209 34.6214C94.4599 34.3568 94.7627 34.1474 95.0983 34.0063C95.4323 33.8658 95.7909 33.7938 96.153 33.7945C96.7147 33.7845 97.2677 33.9348 97.7476 34.2279C98.2121 34.5155 98.5788 35.0094 98.8478 35.7096L100.388 34.9731C100.179 34.3537 99.8237 33.7945 99.352 33.3437C98.9252 32.9441 98.419 32.6398 97.8667 32.4508C97.3143 32.2656 96.7354 32.1724 96.153 32.1749C95.5275 32.1681 94.9071 32.2871 94.3281 32.5246C93.7778 32.7545 93.2792 33.0932 92.8621 33.5205C92.4346 33.9591 92.1034 34.4827 91.8896 35.0576C91.6574 35.6911 91.5426 36.3618 91.551 37.0368C91.551 37.9942 91.7496 38.8378 92.147 39.5678C92.5272 40.2802 93.0966 40.8728 93.792 41.2798C94.5103 41.697 95.3281 41.9102 96.1578 41.8968C96.7402 41.8993 97.3191 41.8061 97.8715 41.6208C98.4254 41.4309 98.932 41.1234 99.3568 40.7192C99.8243 40.2683 100.179 39.7131 100.393 39.0985L98.8527 38.3621C98.5837 39.05 98.2169 39.541 97.7525 39.835C97.2744 40.1335 96.7207 40.287 96.1578 40.2771C95.6717 40.2813 95.1935 40.1541 94.7732 39.9089C94.3372 39.6485 93.9862 39.2663 93.763 38.809C93.5127 38.3251 93.3875 37.7331 93.3875 37.0329C93.3793 36.5573 93.4536 36.0838 93.6072 35.6338C93.7357 35.2581 93.9407 34.9133 94.209 34.6214Z" fill="#00A443"/>
<path d="M103.364 32.3566H101.567V41.7083H103.364V32.3566Z" fill="#00A443"/>
<path d="M103.336 28.7208C103.093 28.5065 102.779 28.3914 102.456 28.3982C102.136 28.3903 101.824 28.5057 101.585 28.7208C101.465 28.8312 101.371 28.9668 101.309 29.118C101.247 29.2691 101.219 29.432 101.227 29.5952C101.221 29.7556 101.249 29.9154 101.311 30.0634C101.373 30.2114 101.467 30.3438 101.585 30.4512C101.824 30.6663 102.136 30.7817 102.456 30.7738C102.779 30.7806 103.093 30.6655 103.336 30.4512C103.457 30.3452 103.553 30.2132 103.616 30.0651C103.68 29.9169 103.709 29.7564 103.703 29.5952C103.71 29.4312 103.681 29.2676 103.618 29.1163C103.554 28.965 103.458 28.8299 103.336 28.7208Z" fill="#00A443"/>
<path d="M111.559 32.7801C110.813 32.3657 109.972 32.1562 109.12 32.1729C108.48 32.1668 107.845 32.2856 107.251 32.5227C106.686 32.7492 106.174 33.0906 105.747 33.5254C105.315 33.9682 104.978 34.4958 104.757 35.0751C104.519 35.7008 104.401 36.366 104.409 37.0358C104.409 37.9932 104.614 38.8401 105.023 39.5766C105.416 40.2949 106 40.8893 106.71 41.2934C107.451 41.7118 108.289 41.9247 109.139 41.9104C109.78 41.9165 110.415 41.7946 111.009 41.5518C111.571 41.3198 112.082 40.9788 112.513 40.5482C112.946 40.1109 113.283 39.5877 113.503 39.0121C113.741 38.3801 113.86 37.7087 113.851 37.0329C113.851 36.0613 113.646 35.2114 113.236 34.4834C112.845 33.7708 112.264 33.1812 111.559 32.7801ZM111.798 38.3951C111.667 38.7733 111.461 39.121 111.193 39.4172C110.936 39.6928 110.623 39.9096 110.276 40.0527C109.909 40.202 109.516 40.277 109.12 40.2732C108.608 40.2796 108.104 40.1452 107.663 39.8846C107.221 39.6207 106.863 39.2349 106.632 38.773C106.382 38.2879 106.257 37.7078 106.256 37.0329C106.248 36.5707 106.319 36.1105 106.467 35.6726C106.597 35.2988 106.799 34.9547 107.063 34.6602C107.316 34.3805 107.63 34.1631 107.98 34.0248C108.342 33.8823 108.728 33.8104 109.116 33.813C109.64 33.8035 110.157 33.9378 110.61 34.2016C111.05 34.4647 111.406 34.8478 111.638 35.3063C111.888 35.7857 112.013 36.3625 112.013 37.0368C112.02 37.4987 111.947 37.9583 111.798 38.3951Z" fill="#00A443"/>
<path d="M121.221 32.614C120.678 32.3121 120.064 32.1599 119.443 32.1729C118.812 32.1717 118.193 32.347 117.656 32.6791C117.242 32.9363 116.907 33.3036 116.688 33.7401V32.3546H114.896V41.7073H116.696V36.1692C116.696 35.4204 116.913 34.8342 117.347 34.4105C117.781 33.9869 118.34 33.7751 119.024 33.7751C119.635 33.7751 120.131 33.984 120.509 34.4018C120.888 34.8196 121.077 35.3841 121.077 36.0953V41.7102H122.889V35.7999C122.905 35.1307 122.75 34.4685 122.44 33.8762C122.159 33.3497 121.737 32.9126 121.221 32.614Z" fill="#00A443"/>
<path d="M130.987 33.0474C130.594 32.7428 130.145 32.5178 129.667 32.3847C129.156 32.2416 128.628 32.1703 128.098 32.1729C127.305 32.1607 126.522 32.3541 125.825 32.7345C125.147 33.115 124.617 33.7151 124.322 34.4368L125.734 35.2471C125.905 34.8076 126.209 34.4336 126.604 34.1783C127.002 33.9192 127.488 33.7897 128.062 33.7897C128.473 33.7842 128.881 33.8595 129.263 34.0112C129.62 34.1551 129.924 34.4058 130.134 34.7292C130.355 35.0596 130.465 35.4952 130.465 36.036V37.0786C130.401 37.0104 130.334 36.9456 130.263 36.8842C129.689 36.3822 128.858 36.1309 127.769 36.1303C127.119 36.1217 126.473 36.2341 125.863 36.4616C125.328 36.6543 124.858 36.9956 124.509 37.4458C124.188 37.9054 124.015 38.4527 124.013 39.0139C124.011 39.5752 124.181 40.1235 124.499 40.5851C124.841 41.0286 125.298 41.3693 125.82 41.5703C126.412 41.8037 127.043 41.9192 127.679 41.9104C128.781 41.9104 129.63 41.6497 130.228 41.1282C130.35 41.0228 130.46 40.9057 130.559 40.7785V41.7083H132.264V35.8728C132.28 35.2947 132.16 34.721 131.915 34.1977C131.696 33.7487 131.379 33.3554 130.987 33.0474ZM129.856 40.1275C129.416 40.3866 128.868 40.5161 128.211 40.5161C127.538 40.5161 126.979 40.3866 126.533 40.1275C126.087 39.8684 125.864 39.4943 125.864 39.0053C125.854 38.7693 125.912 38.5354 126.031 38.3313C126.149 38.1273 126.323 37.9616 126.533 37.8539C126.979 37.6032 127.538 37.4776 128.211 37.4769C128.871 37.4769 129.419 37.6065 129.856 37.8656C130.061 37.9744 130.232 38.1392 130.349 38.3411C130.466 38.543 130.523 38.7739 130.516 39.0072C130.517 39.495 130.298 39.8684 129.856 40.1275Z" fill="#00A443"/>
<path d="M136.734 40.1275C136.379 40.1275 136.126 40.0303 135.973 39.8418C135.82 39.6533 135.744 39.3793 135.744 39.0237V28.8218H133.948V39.1306C133.936 39.5937 134.03 40.0533 134.222 40.4743C134.405 40.8544 134.699 41.1694 135.065 41.377C135.492 41.6095 135.973 41.7239 136.459 41.7083H137.468V40.1275H136.734Z" fill="#00A443"/>
<path d="M41.0747 13.7813H39.1859V26.6678H41.0747V13.7813Z" fill="#00A443"/>
<path d="M49.8831 17.7494C49.2341 17.336 48.4792 17.1216 47.7108 17.1324C47.0141 17.1324 46.4212 17.2765 45.9323 17.5648C45.4498 17.8474 45.0389 18.2381 44.7314 18.7064C44.6705 18.8036 44.6124 18.8959 44.5573 18.993V13.7813H42.7604V26.6687H44.5573V25.0024C44.6095 25.0996 44.6647 25.189 44.7227 25.2784C45.0263 25.7499 45.4381 26.1414 45.9235 26.42C46.4177 26.7083 47.0134 26.8524 47.7108 26.8524C48.2924 26.8588 48.8682 26.7364 49.3973 26.4939C49.9098 26.2547 50.3685 25.9132 50.7452 25.4902C51.1426 25.0406 51.4507 24.5189 51.6529 23.9531C51.8784 23.3245 51.9901 22.6605 51.9828 21.9924C51.9828 21.035 51.7935 20.193 51.4148 19.4662C51.0661 18.7668 50.5372 18.174 49.8831 17.7494ZM49.9382 23.3458C49.8103 23.7217 49.6101 24.0687 49.3489 24.367C49.1041 24.6457 48.8003 24.8658 48.4597 25.0112C48.0998 25.1624 47.7128 25.2378 47.3227 25.2327C46.5041 25.2327 45.8319 24.9474 45.3062 24.3767C44.7805 23.8061 44.5176 23.0113 44.5176 21.9924C44.5096 21.5302 44.581 21.07 44.7285 20.6321C44.8571 20.2599 45.0563 19.9161 45.3149 19.6197C45.5587 19.3421 45.863 19.1246 46.2042 18.9843C46.5596 18.8407 46.9397 18.7688 47.3227 18.7725C48.1542 18.7725 48.8316 19.0549 49.3547 19.6197C49.8779 20.1845 50.1408 20.9761 50.1434 21.9943C50.1517 22.4532 50.0824 22.9103 49.9382 23.3458Z" fill="#00A443"/>
<path d="M59.4539 17.7309C58.7849 17.3263 58.016 17.1189 57.2352 17.1324C56.6168 17.1246 56.0031 17.2402 55.4296 17.4725C54.8913 17.6964 54.407 18.0333 54.0091 18.4606C53.5978 18.9031 53.2825 19.4265 53.0831 19.9977C52.8614 20.6398 52.7527 21.3158 52.7618 21.9953C52.7618 22.9669 52.9573 23.8167 53.3482 24.5448C53.7193 25.2524 54.2774 25.8438 54.9612 26.2539C55.6779 26.6742 56.4963 26.8877 57.3261 26.8708C57.8571 26.8719 58.3853 26.7943 58.8937 26.6406C59.404 26.4861 59.8779 26.2296 60.2871 25.8866C60.7321 25.508 61.1023 25.0489 61.3785 24.5331L59.9852 23.6674C59.8118 24.0178 59.5756 24.333 59.2885 24.5973C59.0287 24.8314 58.7223 25.0073 58.3895 25.1132C58.0448 25.2195 57.6858 25.2723 57.3251 25.2696C56.83 25.2778 56.342 25.1505 55.9134 24.9014C55.4859 24.6413 55.1451 24.2595 54.9341 23.8044C54.7322 23.3677 54.6162 22.8959 54.5926 22.415H61.5256C61.538 22.3298 61.5441 22.2437 61.544 22.1576V21.9176C61.544 20.9602 61.3576 20.1227 60.9847 19.405C60.638 18.7159 60.1082 18.1365 59.4539 17.7309ZM55.2825 19.5167C55.5016 19.2338 55.789 19.0117 56.1176 18.8716C56.466 18.7273 56.8399 18.6556 57.2168 18.6607C57.5593 18.6514 57.8995 18.7193 58.2125 18.8593C58.5255 18.9994 58.8032 19.2081 59.0253 19.4701C59.3614 19.8587 59.5771 20.3928 59.6726 21.0723H54.6458C54.6733 20.9013 54.7115 20.7323 54.76 20.5661C54.8671 20.1865 55.0443 19.8305 55.2825 19.5167Z" fill="#00A443"/>
<path d="M67.5577 17.1324H67.0255C66.5028 17.1244 65.9894 17.2718 65.5499 17.556C65.1157 17.8352 64.7642 18.2663 64.4952 18.8492V17.316H62.7021V26.6687H64.4981V21.6795C64.4981 20.8822 64.7 20.2438 65.1038 19.7645C65.2886 19.5351 65.523 19.3509 65.7893 19.226C66.0555 19.1011 66.3466 19.0387 66.6404 19.0435H67.5577V17.1324Z" fill="#00A443"/>
<path d="M74.9639 18.993C74.9088 18.8959 74.8517 18.7987 74.7898 18.7064C74.4823 18.2381 74.0714 17.8474 73.589 17.5648C73.1006 17.2759 72.5139 17.1317 71.8288 17.1324C71.2454 17.1266 70.6675 17.2459 70.1336 17.4822C69.6154 17.715 69.1533 18.0574 68.7789 18.4858C68.3847 18.9362 68.0796 19.4579 67.88 20.0229C67.659 20.6555 67.5506 21.3221 67.5597 21.9924C67.5597 22.9497 67.7458 23.7934 68.118 24.5234C68.464 25.2222 68.9928 25.8134 69.6478 26.2335C70.3004 26.6457 71.0579 26.8596 71.8288 26.8495C72.5139 26.8495 73.1038 26.7053 73.5986 26.4171C74.0826 26.1385 74.4936 25.7482 74.7975 25.2784C74.8556 25.189 74.9098 25.0967 74.962 25.0024V26.6687H76.7589V13.7813H74.9639V18.993ZM74.2218 24.367C73.9749 24.6472 73.6678 24.8675 73.3238 25.0112C72.9665 25.1606 72.5827 25.236 72.1956 25.2327C71.3641 25.2327 70.6867 24.9474 70.1635 24.3767C69.6404 23.8061 69.3775 23.0113 69.3749 21.9924C69.367 21.5302 69.4383 21.07 69.5859 20.6321C69.7148 20.2598 69.9143 19.916 70.1732 19.6197C70.4167 19.3416 70.7211 19.1241 71.0625 18.9843C71.4237 18.8396 71.8096 18.7676 72.1985 18.7725C73.0171 18.7725 73.6896 19.0549 74.216 19.6197C74.7424 20.1845 75.0049 20.9761 75.0036 21.9943C75.0087 22.4531 74.9391 22.9096 74.7975 23.3458C74.6765 23.7219 74.4806 24.0693 74.2218 24.367Z" fill="#00A443"/>
<path d="M83.3058 17.1324H82.7746C82.2518 17.1244 81.7384 17.2718 81.2989 17.556C80.8648 17.8352 80.5132 18.2663 80.2442 18.8492V17.316H78.4473V26.6687H80.2442V21.6795C80.2442 20.8822 80.4458 20.2438 80.849 19.7645C81.0342 19.5345 81.2692 19.3501 81.5362 19.2251C81.8031 19.1002 82.095 19.0381 82.3894 19.0435H83.3058V17.1324Z" fill="#00A443"/>
<path d="M90.4568 17.7397C89.7113 17.3254 88.8702 17.116 88.0183 17.1324C87.3782 17.1263 86.743 17.2451 86.1479 17.4822C85.5832 17.7087 85.0715 18.0505 84.6452 18.4858C84.2128 18.9274 83.8756 19.4536 83.6543 20.0317C83.4167 20.6575 83.2985 21.3227 83.306 21.9924C83.306 22.9497 83.5108 23.7967 83.9204 24.5331C84.3131 25.2525 84.897 25.8482 85.607 26.2539C86.3481 26.6722 87.1867 26.8852 88.0367 26.8708C88.6777 26.8769 89.3135 26.7551 89.9071 26.5123C90.4691 26.2805 90.9798 25.9394 91.4099 25.5086C91.8429 25.0711 92.18 24.5476 92.3997 23.9716C92.6386 23.3396 92.7568 22.6682 92.7481 21.9924C92.7481 21.0208 92.5436 20.1709 92.1346 19.4429C91.7424 18.7307 91.1617 18.1412 90.4568 17.7397ZM90.6948 23.3546C90.5632 23.7333 90.3561 24.0811 90.0862 24.3767C89.8301 24.6524 89.5175 24.8689 89.1698 25.0112C88.8031 25.1611 88.4104 25.2364 88.0145 25.2327C87.5025 25.2391 86.9986 25.1047 86.5572 24.8441C86.119 24.5787 85.7654 24.193 85.5383 23.7325C85.2867 23.248 85.1613 22.668 85.1619 21.9924C85.1539 21.5302 85.2253 21.07 85.3728 20.6321C85.5026 20.2582 85.7052 19.9141 85.9689 19.6197C86.2215 19.3398 86.5351 19.1223 86.8852 18.9843C87.2474 18.8418 87.6333 18.7699 88.0222 18.7725C88.5461 18.7631 89.0627 18.8975 89.5162 19.1611C89.9555 19.4246 90.3114 19.8076 90.5429 20.2658C90.7938 20.7452 90.9193 21.322 90.9193 21.9963C90.9241 22.4587 90.8481 22.9185 90.6948 23.3546Z" fill="#00A443"/>
<path d="M95.8191 24.8003C95.6663 24.6099 95.5898 24.3365 95.5898 23.9803V13.7784H93.7929V24.0959C93.7818 24.5591 93.8761 25.0186 94.0687 25.4396C94.2514 25.8197 94.5455 26.1347 94.9115 26.3423C95.3385 26.5748 95.8194 26.6892 96.3049 26.6736H97.3132V25.0899H96.5797C96.2255 25.085 95.972 24.9908 95.8191 24.8003Z" fill="#00A443"/>
<path d="M105.641 19.1572C105.423 18.7088 105.106 18.3155 104.716 18.0068C104.323 17.7018 103.874 17.4767 103.395 17.3442C102.885 17.201 102.357 17.1297 101.827 17.1324C101.034 17.1201 100.251 17.3135 99.5544 17.694C98.876 18.0745 98.346 18.6745 98.0507 19.3962L99.4625 20.2095C99.6334 19.77 99.9382 19.396 100.333 19.1407C100.73 18.8816 101.216 18.7521 101.791 18.7521C102.201 18.7465 102.609 18.8218 102.991 18.9736C103.348 19.1173 103.652 19.368 103.862 19.6916C104.083 20.0233 104.193 20.4589 104.193 20.9984V22.041C104.13 21.9739 104.063 21.9079 103.991 21.8466C103.416 21.344 102.585 21.0927 101.497 21.0927C100.847 21.0841 100.201 21.1965 99.5911 21.424C99.0559 21.6167 98.5862 21.958 98.2365 22.4082C97.9156 22.8678 97.7427 23.4151 97.741 23.9763C97.7392 24.5376 97.9088 25.0859 98.2268 25.5475C98.5689 25.9908 99.0253 26.3315 99.5466 26.5327C100.139 26.766 100.771 26.8815 101.407 26.8728C102.507 26.8728 103.357 26.6121 103.956 26.0906C104.077 25.985 104.188 25.8678 104.286 25.7409V26.6707H105.991V20.8323C106.006 20.2541 105.886 19.6805 105.641 19.1572ZM103.587 25.084C103.148 25.3431 102.6 25.4727 101.942 25.4727C101.27 25.4727 100.71 25.3431 100.265 25.084C99.8189 24.8249 99.596 24.4506 99.596 23.9609C99.5864 23.725 99.6443 23.4913 99.7628 23.2875C99.8812 23.0836 100.055 22.9181 100.265 22.8105C100.71 22.5585 101.27 22.4328 101.942 22.4335C102.602 22.4335 103.151 22.563 103.587 22.8221C103.793 22.9309 103.964 23.0956 104.081 23.2973C104.197 23.499 104.255 23.7296 104.247 23.9628C104.247 24.4538 104.027 24.8279 103.587 25.085V25.084Z" fill="#00A443"/>
<path d="M22.2661 22.0886C22.2639 23.5715 22.8458 24.9951 23.8849 26.0488C25.8898 28.062 28.6118 28.0581 30.3467 27.1118C32.4706 25.9546 37.2488 22.484 32.2878 8.08768C32.2878 14.8831 22.2661 15.5739 22.2661 22.0886Z" fill="#00A443"/>
<path d="M26.8294 14.0368C26.5004 12.2559 25.9731 10.4322 25.1844 8.08768C25.1844 14.8831 15.1617 15.5739 15.1617 22.0886C15.1595 23.5711 15.7406 24.9945 16.7787 26.0489C18.7836 28.062 21.5268 28.0562 23.2405 27.1118C19.2558 22.8455 20.6588 17.9068 26.8294 14.0368Z" fill="#00A443"/>
<path d="M19.7251 14.0368C19.3961 12.2559 18.8678 10.4322 18.0801 8.08768C18.0801 14.8831 8.05743 15.5739 8.05743 22.0886C8.05743 25.4299 10.7532 26.901 10.7532 26.901C10.3344 28.6875 10.2468 30.5362 10.4949 32.3546L11.7809 32.1399C11.1519 29.944 11.538 27.5529 11.5777 27.3187C13.2226 27.9804 14.9189 27.7841 16.1362 27.1137C12.1457 22.8455 13.5545 17.9077 19.7251 14.0368Z" fill="#00A443"/>
</g>
<defs>
<clipPath id="clip0_9855_2574">
<rect width="145.522" height="50" fill="white"/>
</clipPath>
</defs>
</svg>
