<svg width="152" height="50" viewBox="0 0 152 50" fill="none" xmlns="http://www.w3.org/2000/svg">
<g clip-path="url(#clip0_9855_2576)">
<path d="M39.5597 14.2494H37.7406V26.6384H39.5597V14.2494Z" fill="#00A443"/>
<path d="M48.0431 18.0643C47.4181 17.6669 46.691 17.4607 45.9509 17.4711C45.2799 17.4711 44.7089 17.6097 44.238 17.8868C43.7733 18.1586 43.3775 18.5342 43.0815 18.9844C43.0227 19.0778 42.9668 19.1665 42.9137 19.2599V14.2494H41.1831V26.6394H42.9137V25.0374C42.964 25.1308 43.0172 25.2167 43.0731 25.3027C43.3654 25.756 43.7621 26.1324 44.2296 26.4002C44.7055 26.6774 45.2793 26.8159 45.9509 26.8159C46.511 26.8221 47.0657 26.7044 47.5753 26.4712C48.0689 26.2413 48.5106 25.913 48.8734 25.5063C49.2561 25.0741 49.5529 24.5725 49.7476 24.0285C49.9648 23.4242 50.0724 22.7858 50.0654 22.1435C50.0654 21.2231 49.883 20.4136 49.5183 19.7148C49.1825 19.0425 48.6731 18.4725 48.0431 18.0643ZM48.0962 23.4447C47.973 23.8061 47.7802 24.1397 47.5287 24.4265C47.2929 24.6944 47.0002 24.906 46.6722 25.0458C46.3256 25.1911 45.9529 25.2636 45.5772 25.2588C44.7888 25.2588 44.1414 24.9844 43.635 24.4358C43.1287 23.8872 42.8755 23.1231 42.8755 22.1435C42.8678 21.6991 42.9366 21.2568 43.0787 20.8358C43.2025 20.4779 43.3943 20.1473 43.6434 19.8624C43.8782 19.5955 44.1713 19.3864 44.4999 19.2515C44.8422 19.1135 45.2082 19.0443 45.5772 19.0479C46.378 19.0479 47.0304 19.3194 47.5343 19.8624C48.0381 20.4055 48.2913 21.1664 48.2938 22.1454C48.3018 22.5866 48.235 23.026 48.0962 23.4447Z" fill="#00A443"/>
<path d="M57.2608 18.0465C56.6165 17.6575 55.876 17.4581 55.1239 17.4711C54.5284 17.4636 53.9373 17.5747 53.3849 17.798C52.8665 18.0133 52.4001 18.3372 52.0168 18.748C51.6207 19.1734 51.317 19.6766 51.125 20.2258C50.9115 20.8431 50.8068 21.493 50.8156 22.1463C50.8156 23.0804 51.0038 23.8974 51.3803 24.5974C51.7378 25.2777 52.2753 25.8462 52.9339 26.2405C53.6241 26.6446 54.4123 26.8498 55.2115 26.8336C55.7229 26.8346 56.2316 26.76 56.7213 26.6123C57.2127 26.4637 57.6692 26.2172 58.0632 25.8874C58.4918 25.5234 58.8484 25.0821 59.1145 24.5862L57.7725 23.7539C57.6055 24.0907 57.3781 24.3937 57.1015 24.6478C56.8513 24.8729 56.5562 25.042 56.2357 25.1438C55.9037 25.2461 55.5579 25.2968 55.2106 25.2942C54.7337 25.3021 54.2637 25.1797 53.8509 24.9402C53.4392 24.6901 53.1109 24.3231 52.9078 23.8856C52.7133 23.4657 52.6016 23.0122 52.5788 22.5498H59.2561C59.268 22.4679 59.274 22.3851 59.2738 22.3023V22.0716C59.2738 21.1512 59.0943 20.346 58.7352 19.656C58.4013 18.9934 57.891 18.4364 57.2608 18.0465ZM53.2433 19.7634C53.4543 19.4913 53.7311 19.2778 54.0475 19.1431C54.3831 19.0044 54.7433 18.9355 55.1062 18.9404C55.4361 18.9315 55.7638 18.9967 56.0652 19.1314C56.3666 19.266 56.6341 19.4667 56.848 19.7185C57.1717 20.0922 57.3795 20.6056 57.4715 21.2589H52.6301C52.6566 21.0945 52.6933 20.932 52.74 20.7722C52.8432 20.4073 53.0139 20.0651 53.2433 19.7634Z" fill="#00A443"/>
<path d="M65.0659 17.4711H64.5533C64.0499 17.4634 63.5554 17.6051 63.1321 17.8784C62.714 18.1468 62.3754 18.5612 62.1163 19.1217V17.6476H60.3894V26.6394H62.1191V21.8427C62.1191 21.0761 62.3135 20.4624 62.7025 20.0016C62.8805 19.781 63.1062 19.604 63.3626 19.4839C63.6191 19.3638 63.8994 19.3038 64.1824 19.3085H65.0659V17.4711Z" fill="#00A443"/>
<path d="M72.1989 19.2599C72.1458 19.1665 72.0908 19.0731 72.0311 18.9844C71.7351 18.5342 71.3393 18.1586 70.8746 17.8868C70.4043 17.6091 69.8392 17.4705 69.1794 17.4711C68.6175 17.4656 68.0609 17.5802 67.5467 17.8074C67.0476 18.0313 66.6026 18.3604 66.242 18.7723C65.8623 19.2053 65.5685 19.7068 65.3762 20.2501C65.1634 20.8582 65.059 21.4991 65.0677 22.1435C65.0677 23.0639 65.247 23.8751 65.6055 24.5769C65.9387 25.2487 66.448 25.817 67.0789 26.2209C67.7074 26.6172 68.4369 26.8229 69.1794 26.8131C69.8392 26.8131 70.4074 26.6746 70.8839 26.3975C71.3501 26.1296 71.7459 25.7543 72.0386 25.3027C72.0945 25.2167 72.1467 25.128 72.197 25.0374V26.6394H73.9276V14.2494H72.1989V19.2599ZM71.4841 24.4265C71.2463 24.6959 70.9506 24.9076 70.6193 25.0458C70.2751 25.1895 69.9055 25.2619 69.5326 25.2588C68.7318 25.2588 68.0794 24.9845 67.5756 24.4358C67.0717 23.8872 66.8185 23.1231 66.816 22.1435C66.8084 21.6992 66.8771 21.2568 67.0192 20.8358C67.1434 20.4778 67.3355 20.1473 67.5849 19.8624C67.8193 19.5951 68.1125 19.386 68.4413 19.2515C68.7892 19.1124 69.1609 19.0432 69.5354 19.0479C70.3238 19.0479 70.9715 19.3194 71.4785 19.8624C71.9855 20.4055 72.2383 21.1665 72.2371 22.1454C72.242 22.5865 72.1749 23.0254 72.0386 23.4447C71.9221 23.8063 71.7334 24.1403 71.4841 24.4265Z" fill="#00A443"/>
<path d="M80.2331 17.4711H79.7215C79.218 17.4634 78.7236 17.6051 78.3003 17.8784C77.8821 18.1468 77.5435 18.5612 77.2845 19.1217V17.6476H75.5539V26.6394H77.2845V21.8427C77.2845 21.0761 77.4786 20.4624 77.8669 20.0016C78.0453 19.7805 78.2717 19.6032 78.5288 19.4831C78.7859 19.3629 79.067 19.3032 79.3506 19.3085H80.2331V17.4711Z" fill="#00A443"/>
<path d="M87.12 18.0549C86.402 17.6567 85.592 17.4553 84.7715 17.4711C84.155 17.4653 83.5432 17.5795 82.9701 17.8074C82.4263 18.0252 81.9334 18.3537 81.5228 18.7723C81.1064 19.1969 80.7816 19.7027 80.5685 20.2585C80.3396 20.8601 80.2258 21.4996 80.233 22.1435C80.233 23.0639 80.4303 23.8781 80.8248 24.5862C81.203 25.2778 81.7653 25.8505 82.4492 26.2405C83.1629 26.6427 83.9705 26.8474 84.7893 26.8337C85.4066 26.8395 86.0189 26.7223 86.5907 26.489C87.1319 26.2661 87.6238 25.9382 88.038 25.524C88.455 25.1034 88.7797 24.6001 88.9914 24.0463C89.2214 23.4388 89.3352 22.7933 89.3268 22.1435C89.3268 21.2094 89.1299 20.3924 88.736 19.6924C88.3582 19.0077 87.799 18.441 87.12 18.0549ZM87.3493 23.4531C87.2226 23.8172 87.0231 24.1516 86.7631 24.4358C86.5165 24.7009 86.2154 24.909 85.8806 25.0458C85.5274 25.1899 85.1491 25.2623 84.7678 25.2588C84.2747 25.2649 83.7894 25.1357 83.3643 24.8851C82.9422 24.63 82.6017 24.2592 82.383 23.8165C82.1407 23.3507 82.0198 22.793 82.0205 22.1435C82.0128 21.6991 82.0815 21.2568 82.2236 20.8358C82.3486 20.4763 82.5437 20.1454 82.7977 19.8624C83.0409 19.5933 83.343 19.3842 83.6802 19.2515C84.029 19.1145 84.4007 19.0454 84.7753 19.0479C85.2799 19.0389 85.7774 19.1681 86.2142 19.4215C86.6372 19.6749 86.98 20.0431 87.203 20.4836C87.4446 20.9444 87.5655 21.499 87.5655 22.1472C87.5702 22.5919 87.497 23.0339 87.3493 23.4531Z" fill="#00A443"/>
<path d="M92.2848 24.8431C92.1376 24.66 92.0639 24.3972 92.0639 24.0547V14.2466H90.3333V24.1658C90.3226 24.6111 90.4135 25.0529 90.5989 25.4577C90.7749 25.8231 91.0582 26.1259 91.4107 26.3255C91.8219 26.549 92.285 26.659 92.7526 26.644H93.7237V25.1214H93.0173C92.6762 25.1168 92.4321 25.0261 92.2848 24.8431Z" fill="#00A443"/>
<path d="M101.744 19.4178C101.534 18.9866 101.229 18.6086 100.853 18.3118C100.475 18.0185 100.042 17.8021 99.5811 17.6747C99.0897 17.5371 98.5815 17.4685 98.0713 17.4711C97.3074 17.4593 96.5534 17.6452 95.8822 18.011C95.2289 18.3769 94.7184 18.9537 94.434 19.6476L95.7937 20.4294C95.9584 20.007 96.2519 19.6474 96.6324 19.4019C97.0145 19.1528 97.4823 19.0283 98.0359 19.0283C98.4316 19.0229 98.8245 19.0953 99.1924 19.2412C99.5362 19.3794 99.8291 19.6205 100.031 19.9316C100.244 20.2504 100.35 20.6692 100.35 21.1879V22.1902C100.289 22.1258 100.224 22.0623 100.155 22.0034C99.6016 21.5202 98.801 21.2785 97.7535 21.2785C97.1272 21.2703 96.5048 21.3783 95.9176 21.5971C95.4021 21.7824 94.9497 22.1105 94.6129 22.5433C94.3039 22.9852 94.1374 23.5113 94.1357 24.0509C94.134 24.5905 94.2973 25.1177 94.6036 25.5614C94.9331 25.9876 95.3727 26.3152 95.8748 26.5086C96.4454 26.7329 97.054 26.8439 97.6669 26.8355C98.7262 26.8355 99.5444 26.5849 100.122 26.0836C100.238 25.982 100.344 25.8694 100.439 25.7473V26.6412H102.081V21.0282C102.096 20.4724 101.98 19.9209 101.744 19.4178ZM99.7665 25.1158C99.3434 25.3649 98.8153 25.4895 98.1822 25.4895C97.5342 25.4895 96.9956 25.3649 96.5662 25.1158C96.1369 24.8668 95.9223 24.5068 95.9223 24.036C95.913 23.8093 95.9688 23.5846 96.0829 23.3886C96.197 23.1926 96.3647 23.0335 96.5662 22.93C96.9956 22.6878 97.5342 22.567 98.1822 22.5676C98.8178 22.5676 99.3459 22.6921 99.7665 22.9412C99.9645 23.0458 100.129 23.2041 100.241 23.3981C100.354 23.592 100.41 23.8137 100.402 24.0379C100.402 24.5099 100.19 24.8696 99.7665 25.1168V25.1158Z" fill="#00A443"/>
<path d="M21.4448 22.236C21.4427 23.6617 22.0031 25.0303 23.0039 26.0434C24.9349 27.9789 27.5564 27.9752 29.2274 27.0653C31.273 25.9528 35.8749 22.6162 31.0968 8.77551C31.0968 15.3087 21.4448 15.9728 21.4448 22.236Z" fill="#00A443"/>
<path d="M25.8397 14.495C25.5229 12.7828 25.015 11.0295 24.2555 8.77551C24.2555 15.3087 14.6025 15.9728 14.6025 22.236C14.6003 23.6613 15.16 25.0298 16.1597 26.0434C18.0907 27.9789 20.7327 27.9733 22.3832 27.0653C18.5455 22.9637 19.8968 18.2156 25.8397 14.495Z" fill="#00A443"/>
<path d="M18.9975 14.495C18.6806 12.7828 18.1718 11.0295 17.4132 8.77551C17.4132 15.3087 7.76022 15.9728 7.76022 22.236C7.76022 25.4484 10.3566 26.8626 10.3566 26.8626C9.95316 28.5802 9.86881 30.3576 10.1078 32.1058L11.3463 31.8993C10.7406 29.7882 11.1124 27.4894 11.1506 27.2643C12.7349 27.9004 14.3686 27.7117 15.5409 27.0672C11.6976 22.9637 13.0545 18.2165 18.9975 14.495Z" fill="#00A443"/>
<path d="M43.6556 34.5503L39.4358 28.6916H37.7434V41.0993H39.5616V31.7583C39.748 32.0074 39.9129 32.2287 40.0564 32.4224L40.4982 33.0333L43.4645 37.1219H43.8009L46.7831 32.9969C47.0186 32.6668 47.3187 32.254 47.6834 31.7583V41.0993H49.5025V28.6916H47.8083L43.6556 34.5503Z" fill="#00A443"/>
<path d="M53.685 30.8158H55.3802L57.1816 28.3908H55.2217L53.685 30.8158Z" fill="#00A443"/>
<path d="M56.793 39.1115C56.5431 39.3364 56.2483 39.5055 55.9282 39.6076C55.5961 39.7098 55.2504 39.7605 54.9031 39.758C54.4262 39.7658 53.9561 39.6435 53.5434 39.4039C53.1309 39.1546 52.8019 38.7878 52.5984 38.3503C52.4039 37.9304 52.2922 37.4768 52.2694 37.0145H58.9467C58.9578 36.9324 58.9634 36.8497 58.9635 36.7669V36.5362C58.9635 35.6164 58.7843 34.8112 58.4258 34.1206C58.0934 33.4499 57.5772 32.888 56.9376 32.5009C56.298 32.1137 55.5615 31.9174 54.8145 31.9348C54.219 31.9273 53.6279 32.0385 53.0755 32.2618C52.5573 32.4764 52.0906 32.7993 51.7065 33.2089C51.3104 33.6343 51.0067 34.1375 50.8147 34.6867C50.6035 35.3032 50.5007 35.9517 50.5108 36.6035C50.5108 37.5376 50.6991 38.3546 51.0756 39.0546C51.4315 39.7356 51.9681 40.3049 52.6263 40.6995C53.3166 41.1036 54.1048 41.3089 54.904 41.2927C55.4154 41.2937 55.9241 41.2191 56.4137 41.0713C56.9051 40.9225 57.3615 40.676 57.7557 40.3464C58.1836 39.9826 58.5395 39.5416 58.8051 39.0462L57.4631 38.2139C57.2974 38.5523 57.0702 38.8567 56.793 39.1115ZM52.9339 34.2224C53.145 33.9512 53.4214 33.7381 53.7372 33.6031C54.0734 33.4642 54.4342 33.3952 54.7977 33.4004C55.1272 33.3916 55.4544 33.4569 55.7554 33.5916C56.0563 33.7263 56.3233 33.9268 56.5367 34.1785C56.8611 34.5522 57.0692 35.0653 57.1611 35.7179H52.3216C52.3479 35.5535 52.3846 35.391 52.4316 35.2313C52.5341 34.8663 52.7045 34.524 52.9339 34.2224Z" fill="#00A443"/>
<path d="M67.6091 32.1057H65.597L64.1833 33.9469C64.0305 34.1586 63.8866 34.3532 63.7518 34.5307C63.6158 34.7072 63.4601 34.9043 63.2858 35.1322C63.1097 34.909 62.9569 34.7072 62.8273 34.5307C62.6978 34.3541 62.5561 34.157 62.4033 33.9469L60.9877 32.1057H58.9216L62.2328 36.5353L58.7846 41.0974H60.7976L62.3465 39.0816C62.5111 38.8699 62.6583 38.6722 62.7882 38.4885C62.9177 38.3017 63.0678 38.1083 63.2476 37.8953C63.4117 38.1083 63.5617 38.3054 63.6968 38.4885C63.832 38.6716 63.9764 38.8696 64.1302 39.0816L65.6837 41.0993H67.7517L64.3035 36.496L67.6091 32.1057Z" fill="#00A443"/>
<path d="M73.8494 34.285C74.0908 34.03 74.3825 33.828 74.7058 33.6918C75.0275 33.5567 75.3729 33.4875 75.7216 33.4882C76.2626 33.4787 76.7951 33.6231 77.2574 33.9048C77.7048 34.1813 78.058 34.6562 78.3171 35.3293L79.8007 34.6213C79.5995 34.0258 79.257 33.4882 78.8026 33.0548C78.3913 32.6716 77.9038 32.38 77.3721 32.1991C76.84 32.0211 76.2825 31.9315 75.7216 31.9339C75.1192 31.9274 74.5216 32.0417 73.964 32.2701C73.4338 32.4908 72.9534 32.8161 72.5512 33.2267C72.1414 33.6489 71.824 34.1522 71.6192 34.7044C71.3956 35.3134 71.285 35.9583 71.2931 36.6072C71.2931 37.5276 71.4844 38.3387 71.8671 39.0405C72.233 39.7257 72.7814 40.2955 73.4514 40.6864C74.1432 41.0876 74.9309 41.2926 75.73 41.2796C76.2909 41.2819 76.8484 41.1923 77.3805 41.0143C77.9139 40.8317 78.4018 40.536 78.811 40.1475C79.2613 39.714 79.6032 39.1802 79.8091 38.5894L78.3254 37.8813C78.0608 38.5402 77.7048 39.0125 77.2574 39.2983C76.797 39.5852 76.2637 39.7328 75.7216 39.7234C75.2535 39.7274 74.7928 39.6051 74.388 39.3693C73.9694 39.1197 73.6321 38.7537 73.4169 38.3157C73.1759 37.8505 73.0551 37.2813 73.0544 36.6081C73.0463 36.1508 73.1183 35.6955 73.2669 35.263C73.3906 34.8997 73.589 34.5665 73.8494 34.285Z" fill="#00A443"/>
<path d="M87.2096 32.5149C86.4916 32.1167 85.6816 31.9153 84.8611 31.9311C84.2446 31.9252 83.6328 32.0394 83.0597 32.2674C82.5158 32.4851 82.0227 32.8133 81.6115 33.2314C81.1953 33.6574 80.8708 34.1645 80.6581 34.7213C80.4292 35.3229 80.3154 35.9624 80.3226 36.6063C80.3226 37.5267 80.5199 38.3409 80.9144 39.049C81.2929 39.7394 81.8552 40.3108 82.5388 40.6996C83.1689 41.0415 83.8662 41.241 84.5816 41.2839C85.2969 41.3269 86.0129 41.2122 86.6793 40.948C87.2209 40.7254 87.7132 40.3975 88.1276 39.9831C88.5446 39.5625 88.8693 39.0591 89.0809 38.5053C89.311 37.8978 89.4248 37.2523 89.4164 36.6026C89.4164 35.6685 89.2192 34.8514 88.8247 34.1515C88.4474 33.467 87.8884 32.9005 87.2096 32.5149ZM87.4389 37.9131C87.3129 38.2767 87.1148 38.611 86.8564 38.8958C86.6093 39.1609 86.3079 39.3693 85.9729 39.5067C85.6199 39.6502 85.2421 39.7222 84.8611 39.7187C84.3678 39.7248 83.8822 39.5956 83.4567 39.3451C83.032 39.0901 82.689 38.7186 82.4679 38.2746C82.225 37.8101 82.1035 37.253 82.1035 36.6035C82.0953 36.1591 82.1641 35.7166 82.3067 35.2957C82.4307 34.9358 82.626 34.6048 82.8808 34.3224C83.1241 34.0534 83.4261 33.8443 83.7633 33.7115C84.1129 33.5738 84.4855 33.5044 84.8611 33.5069C85.3648 33.4987 85.8612 33.6278 86.2973 33.8806C86.7203 34.1339 87.0631 34.5021 87.286 34.9427C87.5265 35.4035 87.647 35.958 87.6476 36.6063C87.6548 37.0508 87.5841 37.4931 87.4389 37.9131Z" fill="#00A443"/>
<path d="M70.2828 32.1076H68.5522V41.0984H70.2828V32.1076Z" fill="#00A443"/>
<path d="M70.2558 28.6122C70.0221 28.4062 69.7198 28.2955 69.4087 28.3021C69.0999 28.2945 68.7999 28.4054 68.5699 28.6122C68.4545 28.7184 68.3637 28.8487 68.3041 28.994C68.2445 29.1393 68.2175 29.296 68.2251 29.4529C68.2186 29.607 68.2462 29.7607 68.3058 29.903C68.3654 30.0452 68.4556 30.1726 68.5699 30.2758C68.7999 30.4826 69.0999 30.5935 69.4087 30.586C69.7198 30.5925 70.0221 30.4818 70.2558 30.2758C70.3725 30.1739 70.4649 30.0471 70.5262 29.9047C70.5875 29.7623 70.6161 29.6079 70.6099 29.4529C70.6172 29.2952 70.5891 29.1378 70.5278 28.9923C70.4666 28.8469 70.3736 28.717 70.2558 28.6122Z" fill="#00A443"/>
</g>
<defs>
<clipPath id="clip0_9855_2576">
<rect width="109.838" height="48" fill="white" transform="translate(0 1)"/>
</clipPath>
</defs>
</svg>
