<svg width="152" height="50" viewBox="0 0 152 50" fill="none" xmlns="http://www.w3.org/2000/svg">
<g clip-path="url(#clip0_9855_2571)">
<path d="M38.3044 12.7765H36.543V24.7234H38.3044V12.7765Z" fill="#00A443"/>
<path d="M46.5185 16.4553C45.9133 16.072 45.2093 15.8732 44.4927 15.8833C43.843 15.8833 43.2902 16.0169 42.8342 16.2841C42.3843 16.5462 42.001 16.9084 41.7143 17.3425C41.6575 17.4326 41.6033 17.5182 41.5519 17.6082V12.7765H39.8762V24.7243H41.5519V23.1795C41.6006 23.2696 41.6521 23.3525 41.7062 23.4353C41.9893 23.8725 42.3733 24.2354 42.826 24.4937C43.2868 24.761 43.8424 24.8946 44.4927 24.8946C45.0351 24.9005 45.5721 24.787 46.0655 24.5622C46.5435 24.3405 46.9712 24.0239 47.3225 23.6317C47.6931 23.2149 47.9804 22.7312 48.1689 22.2067C48.3792 21.6239 48.4835 21.0083 48.4766 20.3889C48.4766 19.5014 48.3001 18.7207 47.9469 18.0469C47.6217 17.3985 47.1285 16.849 46.5185 16.4553ZM46.5699 21.6437C46.4507 21.9922 46.264 22.3138 46.0204 22.5904C45.7921 22.8487 45.5087 23.0528 45.1911 23.1876C44.8555 23.3278 44.4946 23.3977 44.1309 23.393C43.3675 23.393 42.7406 23.1285 42.2503 22.5994C41.7601 22.0704 41.5149 21.3335 41.5149 20.3889C41.5075 19.9604 41.574 19.5338 41.7116 19.1278C41.8316 18.7827 42.0173 18.464 42.2585 18.1892C42.4858 17.9318 42.7696 17.7302 43.0877 17.6001C43.4192 17.4671 43.7736 17.4003 44.1309 17.4038C44.9063 17.4038 45.5379 17.6656 46.0258 18.1892C46.5137 18.7129 46.7588 19.4467 46.7612 20.3907C46.7691 20.8162 46.7044 21.2399 46.5699 21.6437Z" fill="#00A443"/>
<path d="M55.4437 16.4381C54.8198 16.063 54.1028 15.8707 53.3746 15.8832C52.798 15.876 52.2256 15.9832 51.6908 16.1985C51.1889 16.4061 50.7372 16.7185 50.3661 17.1146C49.9826 17.5248 49.6885 18.0101 49.5026 18.5396C49.2958 19.1349 49.1944 19.7616 49.203 20.3916C49.203 21.2924 49.3853 22.0802 49.7498 22.7552C50.0959 23.4112 50.6164 23.9594 51.254 24.3397C51.9224 24.7293 52.6856 24.9273 53.4594 24.9116C53.9546 24.9126 54.4471 24.8407 54.9212 24.6982C55.3971 24.555 55.8391 24.3172 56.2206 23.9992C56.6356 23.6482 56.9809 23.2226 57.2385 22.7444L55.9391 21.9418C55.7775 22.2666 55.5572 22.5588 55.2894 22.8038C55.0472 23.0209 54.7614 23.1839 54.4511 23.2822C54.1296 23.3807 53.7949 23.4296 53.4585 23.4272C52.9968 23.4348 52.5416 23.3168 52.142 23.0858C51.7433 22.8446 51.4255 22.4907 51.2288 22.0688C51.0405 21.6639 50.9323 21.2266 50.9102 20.7807H57.3757C57.3872 20.7017 57.3929 20.6219 57.3928 20.542V20.3195C57.3928 19.432 57.219 18.6555 56.8712 17.9901C56.5479 17.3512 56.0539 16.8141 55.4437 16.4381ZM51.5536 18.0937C51.7579 17.8314 52.026 17.6255 52.3324 17.4956C52.6573 17.3618 53.006 17.2953 53.3575 17.3001C53.6769 17.2915 53.9942 17.3544 54.286 17.4843C54.5779 17.6141 54.8369 17.8076 55.044 18.0505C55.3574 18.4108 55.5586 18.9059 55.6476 19.5359H50.9599C50.9856 19.3774 51.0211 19.2206 51.0664 19.0666C51.1662 18.7146 51.3315 18.3846 51.5536 18.0937Z" fill="#00A443"/>
<path d="M63.001 15.8833H62.5047C62.0173 15.8758 61.5385 16.0125 61.1286 16.276C60.7238 16.5348 60.3959 16.9345 60.1451 17.4749V16.0535H58.473V24.7243H60.1478V20.0989C60.1478 19.3596 60.3361 18.7678 60.7127 18.3234C60.885 18.1107 61.1036 17.94 61.3519 17.8242C61.6002 17.7084 61.8716 17.6506 62.1456 17.6551H63.001V15.8833Z" fill="#00A443"/>
<path d="M69.9078 17.6082C69.8563 17.5182 69.8031 17.4281 69.7453 17.3425C69.4586 16.9084 69.0754 16.5462 68.6255 16.2841C68.1701 16.0163 67.623 15.8827 66.9841 15.8833C66.44 15.8779 65.9011 15.9885 65.4032 16.2075C64.9199 16.4234 64.489 16.7408 64.1399 17.138C63.7722 17.5555 63.4877 18.0392 63.3016 18.5631C63.0955 19.1495 62.9944 19.7675 63.0029 20.3889C63.0029 21.2765 63.1765 22.0586 63.5236 22.7354C63.8462 23.3833 64.3394 23.9313 64.9502 24.3208C65.5588 24.703 66.2652 24.9013 66.9841 24.8918C67.623 24.8918 68.1731 24.7582 68.6345 24.491C69.0859 24.2327 69.4692 23.8708 69.7526 23.4353C69.8067 23.3524 69.8572 23.2669 69.906 23.1795V24.7243H71.5816V12.7765H69.9078V17.6082ZM69.2157 22.5904C68.9854 22.8502 68.6991 23.0544 68.3783 23.1876C68.045 23.3261 67.6871 23.396 67.3261 23.393C66.5507 23.393 65.919 23.1284 65.4312 22.5994C64.9433 22.0703 64.6981 21.3335 64.6957 20.3889C64.6883 19.9604 64.7549 19.5338 64.8924 19.1278C65.0127 18.7826 65.1987 18.4639 65.4402 18.1892C65.6672 17.9314 65.9511 17.7298 66.2694 17.6001C66.6063 17.466 66.9662 17.3993 67.3288 17.4038C68.0922 17.4038 68.7194 17.6656 69.2102 18.1892C69.7011 18.7129 69.946 19.4467 69.9448 20.3907C69.9495 20.816 69.8846 21.2393 69.7526 21.6437C69.6397 21.9923 69.4571 22.3144 69.2157 22.5904Z" fill="#00A443"/>
<path d="M77.687 15.8833H77.1916C76.7041 15.8758 76.2254 16.0125 75.8155 16.276C75.4107 16.5348 75.0828 16.9345 74.8319 17.4749V16.0535H73.1562V24.7243H74.8319V20.0989C74.8319 19.3596 75.0199 18.7678 75.3959 18.3234C75.5686 18.1103 75.7878 17.9392 76.0368 17.8234C76.2857 17.7076 76.5579 17.65 76.8325 17.6551H77.687V15.8833Z" fill="#00A443"/>
<path d="M84.3554 16.4462C83.6602 16.0622 82.8758 15.868 82.0814 15.8832C81.4844 15.8776 80.892 15.9877 80.3371 16.2075C79.8105 16.4175 79.3333 16.7344 78.9358 17.138C78.5326 17.5474 78.218 18.0352 78.0118 18.5711C77.7901 19.1513 77.6799 19.768 77.6869 20.3889C77.6869 21.2764 77.8779 22.0616 78.2599 22.7444C78.626 23.4113 79.1706 23.9636 79.8327 24.3397C80.5238 24.7275 81.3058 24.9249 82.0985 24.9116C82.6963 24.9173 83.2892 24.8043 83.8428 24.5793C84.3668 24.3644 84.8431 24.0481 85.2442 23.6488C85.648 23.2432 85.9624 22.7578 86.1673 22.2238C86.39 21.6379 86.5002 21.0154 86.4921 20.3889C86.4921 19.4881 86.3014 18.7002 85.92 18.0253C85.5543 17.365 85.0128 16.8185 84.3554 16.4462ZM84.5773 21.6518C84.4547 22.0029 84.2615 22.3253 84.0097 22.5994C83.771 22.855 83.4794 23.0557 83.1552 23.1876C82.8132 23.3266 82.447 23.3964 82.0778 23.3929C81.6004 23.3989 81.1304 23.2743 80.7188 23.0326C80.3101 22.7866 79.9805 22.4291 79.7686 22.0022C79.534 21.553 79.417 21.0152 79.4176 20.3889C79.4102 19.9604 79.4767 19.5338 79.6143 19.1278C79.7353 18.7812 79.9243 18.4621 80.1702 18.1892C80.4057 17.9297 80.6982 17.7281 81.0247 17.6001C81.3624 17.468 81.7223 17.4013 82.085 17.4037C82.5736 17.3951 83.0553 17.5196 83.4783 17.7641C83.8879 18.0083 84.2198 18.3634 84.4357 18.7882C84.6697 19.2326 84.7867 19.7674 84.7867 20.3925C84.7912 20.8212 84.7203 21.2475 84.5773 21.6518Z" fill="#00A443"/>
<path d="M89.3562 22.9921C89.2137 22.8156 89.1424 22.5622 89.1424 22.2319V12.7738H87.4667V22.3391C87.4563 22.7684 87.5443 23.1945 87.7239 23.5848C87.8943 23.9372 88.1685 24.2292 88.5098 24.4216C88.908 24.6372 89.3565 24.7432 89.8092 24.7288H90.7495V23.2606H90.0655C89.7352 23.2561 89.4988 23.1687 89.3562 22.9921Z" fill="#00A443"/>
<path d="M98.5153 17.7605C98.3118 17.3447 98.0169 16.9801 97.6527 16.694C97.2861 16.4111 96.8677 16.2024 96.421 16.0796C95.9452 15.9469 95.4532 15.8808 94.9591 15.8833C94.2195 15.8718 93.4894 16.0512 92.8395 16.4039C92.2069 16.7567 91.7126 17.313 91.4372 17.9821L92.7538 18.736C92.9132 18.3286 93.1974 17.9818 93.5659 17.7452C93.9358 17.5049 94.3888 17.3848 94.9248 17.3848C95.308 17.3797 95.6884 17.4495 96.0447 17.5902C96.3775 17.7234 96.6611 17.9559 96.8568 18.2559C97.0625 18.5634 97.1654 18.9672 97.1654 19.4674V20.4339C97.1068 20.3718 97.0436 20.3105 96.9768 20.2538C96.4408 19.7878 95.6657 19.5548 94.6514 19.5548C94.045 19.5469 93.4423 19.651 92.8738 19.862C92.3747 20.0407 91.9366 20.3571 91.6105 20.7744C91.3113 21.2005 91.15 21.7079 91.1484 22.2282C91.1468 22.7486 91.3049 23.2569 91.6014 23.6848C91.9205 24.0958 92.3461 24.4117 92.8323 24.5982C93.3848 24.8145 93.9741 24.9215 94.5675 24.9135C95.5932 24.9135 96.3855 24.6718 96.9443 24.1884C97.0571 24.0904 97.1602 23.9818 97.252 23.8641V24.7261H98.842V19.3134C98.8559 18.7774 98.744 18.2456 98.5153 17.7605ZM96.6005 23.2552C96.1909 23.4954 95.6795 23.6155 95.0665 23.6155C94.4391 23.6155 93.9175 23.4954 93.5018 23.2552C93.0861 23.015 92.8783 22.6679 92.8783 22.2139C92.8693 21.9952 92.9233 21.7786 93.0338 21.5896C93.1443 21.4006 93.3067 21.2471 93.5018 21.1474C93.9175 20.9138 94.4391 20.7973 95.0665 20.7979C95.6819 20.7979 96.1933 20.918 96.6005 21.1582C96.7922 21.259 96.9516 21.4117 97.0604 21.5987C97.1692 21.7857 97.2231 21.9995 97.2159 22.2157C97.2159 22.6709 97.0108 23.0177 96.6005 23.2561V23.2552Z" fill="#00A443"/>
<path d="M20.7642 20.4781C20.7622 21.8528 21.3049 23.1727 22.2739 24.1496C24.1436 26.016 26.6819 26.0124 28.2998 25.135C30.2805 24.0622 34.7364 20.8447 30.11 7.49799C30.11 13.798 20.7642 14.4384 20.7642 20.4781Z" fill="#00A443"/>
<path d="M25.0197 13.0134C24.7129 11.3623 24.2211 9.67154 23.4857 7.49799C23.4857 13.798 14.1391 14.4384 14.1391 20.4781C14.137 21.8525 14.6789 23.1722 15.6469 24.1496C17.5166 26.016 20.0748 26.0106 21.6729 25.135C17.957 21.1798 19.2654 16.6012 25.0197 13.0134Z" fill="#00A443"/>
<path d="M18.3946 13.0134C18.0878 11.3623 17.5951 9.67154 16.8606 7.49799C16.8606 13.798 7.51395 14.4384 7.51395 20.4781C7.51395 23.5758 10.0279 24.9396 10.0279 24.9396C9.63729 26.5958 9.55562 28.3098 9.78699 29.9956L10.9862 29.7965C10.3997 27.7608 10.7597 25.544 10.7967 25.3269C12.3307 25.9403 13.9126 25.7584 15.0478 25.1368C11.3264 21.1798 12.6403 16.6021 18.3946 13.0134Z" fill="#00A443"/>
<path d="M37.2784 26.7204H36.543V38.6682H37.2784H38.3035H44.7157V37.081H38.3035V33.3942H44.0145V31.8242H38.3035V28.3085H44.7157V26.7204H38.3035H37.2784Z" fill="#00A443"/>
<path d="M51.9678 34.6796C51.5293 34.264 50.854 33.9424 49.942 33.7148L49.0884 33.514C48.7826 33.4337 48.4813 33.3368 48.186 33.2239C47.954 33.1389 47.7398 33.0115 47.5544 32.8483C47.4751 32.7743 47.4127 32.6841 47.3714 32.5838C47.3301 32.4836 47.311 32.3756 47.3153 32.2673C47.3153 31.9719 47.4657 31.7301 47.7664 31.5422C48.0672 31.3542 48.4634 31.2605 48.9549 31.2611C49.4235 31.2529 49.8862 31.3675 50.2967 31.5935C50.6901 31.8157 50.9665 32.194 51.1259 32.7285L52.5282 32.2169C52.3975 31.7241 52.1445 31.2721 51.7928 30.9026C51.4451 30.546 51.0218 30.2717 50.5538 30.1001C50.0416 29.9143 49.4998 29.8228 48.9549 29.8298C48.3678 29.8187 47.7847 29.9262 47.2404 30.146C46.7822 30.3278 46.3807 30.6282 46.0772 31.0161C45.7996 31.3817 45.6523 31.8293 45.6585 32.288C45.6513 32.5852 45.7035 32.8808 45.8119 33.1576C45.9204 33.4344 46.083 33.6869 46.2902 33.9004C46.7113 34.3394 47.3896 34.6721 48.325 34.8984L49.1967 35.1209C49.8121 35.2567 50.2654 35.4131 50.5565 35.5902C50.6904 35.6621 50.8019 35.7694 50.8788 35.9003C50.9557 36.0312 50.995 36.1807 50.9924 36.3325C50.9924 36.6513 50.8212 36.9159 50.4789 37.126C50.1366 37.3362 49.6635 37.4416 49.0595 37.4422C48.7212 37.4432 48.3853 37.3853 48.0669 37.2711C47.7547 37.1621 47.4712 36.9842 47.2377 36.7504C46.9955 36.5038 46.8166 36.2026 46.7161 35.8722L45.3481 36.4694C45.5137 36.9662 45.7931 37.4177 46.164 37.788C46.5349 38.1582 46.9872 38.4371 47.4849 38.6024C47.9909 38.7758 48.5227 38.8623 49.0577 38.8582C49.788 38.8582 50.4197 38.7474 50.9527 38.5258C51.4412 38.3391 51.8698 38.0234 52.1925 37.6125C52.4818 37.2293 52.6351 36.7609 52.6284 36.2811C52.6272 35.6338 52.407 35.0999 51.9678 34.6796Z" fill="#00A443"/>
<path d="M60.3833 30.3991C59.7778 30.016 59.0735 29.8172 58.3566 29.8271C57.7069 29.8271 57.1514 29.9607 56.69 30.2279C56.2374 30.4865 55.8535 30.8494 55.5701 31.2863C55.516 31.3701 55.4646 31.4557 55.4158 31.5422V29.9955H53.7411V41.5011H55.4158V37.1116C55.4673 37.2017 55.5214 37.2918 55.5783 37.3819C55.8647 37.8159 56.248 38.1779 56.6981 38.4394C57.1547 38.7066 57.7075 38.8402 58.3566 38.8402C58.899 38.8461 59.436 38.7327 59.9295 38.5078C60.4079 38.2868 60.8357 37.9701 61.1864 37.5773C61.557 37.1605 61.8443 36.6768 62.0329 36.1523C62.2437 35.5697 62.3479 34.954 62.3406 34.3346C62.3406 33.4476 62.164 32.6669 61.8109 31.9926C61.4857 31.3439 60.9929 30.7938 60.3833 30.3991ZM60.4348 35.5875C60.3157 35.9359 60.1296 36.2578 59.887 36.5351C59.6582 36.7929 59.375 36.9969 59.0578 37.1323C58.722 37.2718 58.3612 37.3414 57.9975 37.3368C57.2341 37.3368 56.6073 37.0723 56.117 36.5432C55.6267 36.0142 55.3816 35.2774 55.3816 34.3327C55.3752 33.9067 55.4417 33.4826 55.5783 33.0789C55.6973 32.7302 55.8837 32.4083 56.1269 32.1313C56.3544 31.874 56.6382 31.6725 56.9562 31.5422C57.2871 31.4095 57.6409 31.3431 57.9975 31.3467C58.7723 31.3467 59.404 31.6109 59.8925 32.1394C60.3809 32.6678 60.6258 33.399 60.627 34.3327C60.6348 34.7589 60.5698 35.1832 60.4348 35.5875Z" fill="#00A443"/>
<path d="M69.4899 30.6378C69.1231 30.3553 68.7047 30.1467 68.2582 30.0235C67.7824 29.8907 67.2904 29.8246 66.7963 29.8271C66.0567 29.8157 65.3266 29.995 64.6767 30.3478C64.044 30.7009 63.5498 31.2575 63.2744 31.9268L64.591 32.6771C64.7501 32.2696 65.0344 31.9227 65.4031 31.6863C65.7731 31.4461 66.2261 31.326 66.7621 31.326C67.1452 31.3209 67.5256 31.3906 67.8819 31.5314C68.2147 31.6646 68.4983 31.897 68.694 32.197C68.8998 32.5039 69.0026 32.9077 69.0026 33.4086V34.376C68.9431 34.3126 68.8801 34.2524 68.814 34.1958C68.278 33.7292 67.5029 33.4959 66.4886 33.4959C65.8822 33.4885 65.2796 33.5926 64.711 33.8031C64.2118 33.9822 63.7738 34.2989 63.4477 34.7165C63.1489 35.1426 62.988 35.6498 62.9866 36.17C62.9851 36.6901 63.1432 37.1982 63.4396 37.626C63.7584 38.0372 64.1841 38.3531 64.6704 38.5394C65.2231 38.7561 65.8128 38.8632 66.4065 38.8546C67.4292 38.8546 68.2212 38.6129 68.7824 38.1295C68.8954 38.0318 68.9985 37.9232 69.0901 37.8052V38.6673H70.6801V33.2581C70.6946 32.722 70.5834 32.1899 70.3553 31.7043C70.151 31.2882 69.8552 30.9237 69.4899 30.6378ZM68.4377 37.2017C68.0275 37.4419 67.5161 37.562 66.9037 37.562C66.2763 37.562 65.752 37.4419 65.3309 37.2017C64.9098 36.9615 64.702 36.6144 64.7074 36.1604C64.6982 35.9415 64.752 35.7245 64.8626 35.5352C64.9731 35.3459 65.1356 35.1921 65.3309 35.0921C65.7466 34.8597 66.2682 34.7432 66.8956 34.7426C67.511 34.7426 68.0224 34.8627 68.4296 35.1029C68.6214 35.2039 68.7808 35.3567 68.8896 35.5439C68.9984 35.7311 69.0523 35.945 69.045 36.1613C69.0504 36.6147 68.848 36.9615 68.4377 37.2017Z" fill="#00A443"/>
<path d="M76.7215 27.2501C76.6011 27.1594 76.47 27.054 76.328 26.9339C76.1745 26.8076 76.0052 26.7017 75.8245 26.6186C75.5678 26.5129 75.2902 26.4672 75.0131 26.485C74.736 26.5028 74.4666 26.5836 74.2255 26.7213C73.9347 26.8931 73.6977 27.1428 73.5415 27.4419C73.3647 27.7608 73.2762 28.1649 73.2762 28.6544H74.6614C74.6614 28.3577 74.7098 28.1442 74.8067 28.0139C74.8469 27.9535 74.9015 27.9039 74.9655 27.8696C75.0296 27.8354 75.1012 27.8175 75.1739 27.8176C75.3141 27.8188 75.4498 27.867 75.5592 27.9545C75.6795 28.0451 75.8077 28.1532 75.9436 28.2787C76.0938 28.4125 76.264 28.5219 76.448 28.603C76.6834 28.7007 76.9369 28.7471 77.1916 28.739C77.4955 28.7373 77.7936 28.6549 78.0551 28.5003C78.3471 28.3279 78.5843 28.0765 78.7391 27.7752C78.9272 27.4026 79.0184 26.9888 79.0044 26.5718H77.6193C77.6193 26.8564 77.5709 27.0642 77.474 27.1951C77.4328 27.254 77.3778 27.302 77.3138 27.3348C77.2498 27.3676 77.1787 27.3843 77.1068 27.3834C76.967 27.3832 76.8314 27.3362 76.7215 27.2501Z" fill="#00A443"/>
<path d="M78.1489 30.237C77.642 29.9567 77.0698 29.8153 76.4904 29.8271C75.902 29.8262 75.3249 29.9887 74.8237 30.2964C74.4377 30.5353 74.1255 30.876 73.9214 31.281V29.9956H72.2502V38.6664H73.9259V33.532C73.9259 32.8378 74.1283 32.2943 74.5332 31.9016C74.938 31.5089 75.4596 31.3125 76.0979 31.3125C76.6669 31.3125 77.1286 31.5062 77.483 31.8935C77.8373 32.2808 78.0139 32.8042 78.0127 33.4635V38.6691H79.7055V33.1897C79.7203 32.5693 79.5762 31.9554 79.2868 31.4062C79.0247 30.9177 78.6304 30.5126 78.1489 30.237Z" fill="#00A443"/>
<path d="M87.2584 30.6378C86.8919 30.3553 86.4738 30.1467 86.0276 30.0235C85.5517 29.8907 85.0598 29.8246 84.5657 29.8271C83.8261 29.8156 83.0959 29.9949 82.4461 30.3478C81.8134 30.7009 81.3192 31.2575 81.0438 31.9268L82.3604 32.6772C82.5195 32.2696 82.8038 31.9227 83.1725 31.6863C83.5425 31.4461 83.9954 31.326 84.5314 31.326C84.9146 31.3209 85.295 31.3906 85.6513 31.5314C85.9841 31.6646 86.2677 31.8971 86.4634 32.197C86.6691 32.5039 86.7717 32.9078 86.7711 33.4086V34.376C86.7121 34.3124 86.6494 34.2522 86.5834 34.1959C86.0474 33.7293 85.2723 33.496 84.258 33.496C83.6516 33.4885 83.049 33.5926 82.4804 33.8031C81.981 33.9818 81.5429 34.2986 81.2171 34.7165C80.9183 35.1426 80.7574 35.6498 80.756 36.17C80.7545 36.6901 80.9126 37.1982 81.209 37.626C81.5275 38.0374 81.9533 38.3533 82.4398 38.5394C82.9922 38.7561 83.5816 38.8631 84.175 38.8546C85.2013 38.8546 85.9936 38.6129 86.5518 38.1295C86.6648 38.0318 86.7679 37.9232 86.8595 37.8052V38.6673H88.4495V33.2582C88.464 32.722 88.3527 32.1899 88.1246 31.7043C87.9201 31.2882 87.624 30.9236 87.2584 30.6378ZM86.2044 37.2017C85.7935 37.4419 85.2807 37.562 84.6659 37.562C84.0391 37.562 83.5175 37.4419 83.1012 37.2017C82.6849 36.9615 82.4765 36.6141 82.4759 36.1595C82.4669 35.9407 82.5208 35.724 82.6313 35.5348C82.7418 35.3457 82.9042 35.192 83.0994 35.0921C83.5157 34.8597 84.0372 34.7432 84.6641 34.7426C85.2795 34.7426 85.7923 34.8627 86.2026 35.1029C86.3944 35.2039 86.5538 35.3567 86.6626 35.5439C86.7714 35.7311 86.8253 35.945 86.818 36.1613C86.8192 36.6147 86.6147 36.9615 86.2044 37.2017Z" fill="#00A443"/>
</g>
<defs>
<clipPath id="clip0_9855_2571">
<rect width="106.352" height="49" fill="white"/>
</clipPath>
</defs>
</svg>
