<?xml version="1.0" encoding="UTF-8"?>
<svg id="Layer_1" xmlns="http://www.w3.org/2000/svg" xmlns:xlink="http://www.w3.org/1999/xlink" version="1.1" viewBox="0 0 152 50">
  <!-- Generator: Adobe Illustrator 29.0.0, SVG Export Plug-In . SVG Version: 2.1.0 Build 186)  -->
  <defs>
    <style>
      .st0 {
        fill: none;
      }

      .st1 {
        fill: #007f33;
      }

      .st2 {
        clip-path: url(#clippath);
      }
    </style>
    <clipPath id="clippath">
      <rect class="st0" y="6" width="129.8" height="39"/>
    </clipPath>
  </defs>
  <g class="st2">
    <g>
      <path class="st1" d="M46.2,27v1.6c-.4-.5-.7-1-.9-1.3l-5.9-8h-1.6v12.4h1.8v-9.3c.4.5.7,1,.9,1.3l5.9,8h1.6v-12.4h-1.8v7.7Z"/>
      <path class="st1" d="M55.6,23.1c-.6-.4-1.4-.6-2.1-.6-.6,0-1.2.1-1.7.3-.5.2-1,.5-1.4,1-.4.4-.7.9-.9,1.5-.2.6-.3,1.3-.3,1.9,0,.9.2,1.8.6,2.5.4.7.9,1.3,1.6,1.7.7.4,1.5.6,2.3.6.5,0,1,0,1.5-.2.5-.1.9-.4,1.3-.7.4-.4.8-.8,1.1-1.3l-1.3-.8c-.2.3-.4.6-.7.9-.3.2-.5.4-.9.5-.3.1-.7.2-1,.2-.5,0-.9-.1-1.4-.4-.4-.3-.7-.6-.9-1.1-.2-.4-.3-.9-.3-1.3h6.7c0,0,0-.2,0-.2v-.2c0-.9-.2-1.7-.5-2.4-.3-.7-.8-1.2-1.5-1.6ZM51.6,24.8c.2-.3.5-.5.8-.6.3-.1.7-.2,1.1-.2.3,0,.7,0,1,.2.3.1.6.3.8.6.3.4.5.9.6,1.5h-4.8c0-.2,0-.3.1-.5.1-.4.3-.7.5-1Z"/>
      <path class="st1" d="M65.2,23.1c-.7-.4-1.5-.6-2.3-.6-.6,0-1.2.1-1.8.3-.5.2-1,.5-1.4,1-.4.4-.7.9-1,1.5-.2.6-.3,1.2-.3,1.9,0,.9.2,1.7.6,2.5.4.7.9,1.3,1.6,1.7.6.3,1.3.5,2,.6.7,0,1.4,0,2.1-.3.5-.2,1-.6,1.5-1,.4-.4.7-.9,1-1.5.2-.6.3-1.3.3-1.9,0-.9-.2-1.8-.6-2.5-.4-.7-.9-1.3-1.6-1.6ZM65.5,28.5c-.1.4-.3.7-.6,1-.2.3-.5.5-.9.6-.4.1-.7.2-1.1.2-.5,0-1-.1-1.4-.4-.4-.3-.8-.6-1-1.1-.2-.5-.4-1-.4-1.7,0-.4,0-.9.2-1.3.1-.4.3-.7.6-1,.2-.3.5-.5.9-.6.3-.1.7-.2,1.1-.2.5,0,1,.1,1.4.4.4.3.8.6,1,1.1.2.5.4,1,.4,1.7,0,.4,0,.9-.2,1.3Z"/>
      <path class="st1" d="M74.6,23.1c-.6-.4-1.4-.6-2.1-.6-.6,0-1.2.1-1.7.3-.5.2-1,.5-1.4,1-.4.4-.7.9-.9,1.5-.2.6-.3,1.3-.3,1.9,0,.9.2,1.8.6,2.5.4.7.9,1.3,1.6,1.7.7.4,1.5.6,2.3.6.5,0,1,0,1.5-.2.5-.1.9-.4,1.3-.7.4-.4.8-.8,1.1-1.3l-1.3-.8c-.2.3-.4.6-.7.9-.3.2-.5.4-.9.5-.3.1-.7.2-1,.2-.5,0-.9-.1-1.4-.4-.4-.3-.7-.6-.9-1.1-.2-.4-.3-.9-.3-1.3h6.7c0,0,0-.2,0-.2v-.2c0-.9-.2-1.7-.5-2.4-.3-.7-.8-1.2-1.5-1.6ZM70.6,24.8c.2-.3.5-.5.8-.6.3-.1.7-.2,1.1-.2.3,0,.7,0,1,.2.3.1.6.3.8.6.3.4.5.9.6,1.5h-4.8c0-.2,0-.3.1-.5.1-.4.3-.7.5-1h0Z"/>
      <path class="st1" d="M83.9,22.9c-.5-.3-1.1-.4-1.7-.4-.6,0-1.2.2-1.7.5-.4.2-.7.6-.9,1v-1.3h-1.7v9h1.7v-5.3c0-.7.2-1.3.6-1.7.4-.4,1-.6,1.6-.6s1.1.2,1.4.6c.4.4.5.9.5,1.6v5.4h1.7v-5.7c0-.6-.1-1.3-.4-1.9-.3-.5-.7-.9-1.2-1.2Z"/>
      <path class="st1" d="M93,23.1c-.6-.4-1.4-.6-2.1-.6-.6,0-1.2.1-1.7.3-.5.2-1,.5-1.4,1-.4.4-.7.9-.9,1.5-.2.6-.3,1.3-.3,1.9,0,.9.2,1.8.6,2.5.4.7.9,1.3,1.6,1.7.7.4,1.5.6,2.3.6.5,0,1,0,1.5-.2.5-.1.9-.4,1.3-.7.4-.4.8-.8,1.1-1.3l-1.3-.8c-.2.3-.4.6-.7.9-.3.2-.5.4-.9.5-.3.1-.7.2-1,.2-.5,0-.9-.1-1.4-.4-.4-.3-.7-.6-.9-1.1-.2-.4-.3-.9-.3-1.3h6.7c0,0,0-.2,0-.2v-.2c0-.9-.2-1.7-.5-2.4-.3-.7-.8-1.2-1.5-1.6ZM89,24.8c.2-.3.5-.5.8-.6.3-.1.7-.2,1.1-.2.3,0,.7,0,1,.2.3.1.6.3.8.6.3.4.5.9.6,1.5h-4.8c0-.2,0-.3.1-.5.1-.4.3-.7.5-1Z"/>
      <path class="st1" d="M98.9,22.9c-.4.3-.8.7-1,1.2v-1.5h-1.7v9h1.7v-4.8c0-.8.2-1.4.6-1.8.2-.2.4-.4.7-.5.3-.1.5-.2.8-.2h.9v-1.8h-.5c-.5,0-1,.1-1.4.4Z"/>
      <path class="st1" d="M107.7,24.2c0-.1-.1-.2-.2-.3-.3-.4-.7-.8-1.1-1-.4-.2-1-.4-1.6-.4-.5,0-1.1.1-1.6.3-.5.2-.9.5-1.3.9-.4.4-.6.9-.8,1.4-.2.5-.3,1.1-.3,1.7,0,.8.2,1.5.5,2.2.3.6.8,1.2,1.4,1.5.6.4,1.3.6,2,.6.6,0,1.2-.1,1.6-.4.4-.2.8-.6,1.1-1,0-.1.1-.2.2-.3v1.3c0,.6-.1,1.1-.4,1.5-.2.4-.6.7-1,.9-.4.2-.9.3-1.4.3-.5,0-1.1-.1-1.6-.4-.5-.3-.9-.7-1.1-1.2l-1.2,1c.3.5.6.9,1,1.2.4.3.9.6,1.4.7,1.3.4,2.6.3,3.8-.3.7-.3,1.2-.8,1.6-1.5.4-.6.6-1.4.6-2.4v-7.9h-1.7v1.5ZM107.4,28.2c-.2.4-.5.7-.9,1-.4.2-.9.3-1.3.3s-.9-.1-1.3-.3c-.4-.2-.7-.6-.9-1-.2-.4-.3-.9-.3-1.4,0-.5.1-1,.3-1.4.2-.4.5-.7.9-1,.4-.2.9-.3,1.3-.3s.9.1,1.3.3c.4.2.7.6.9,1,.2.4.3.9.3,1.4,0,.5-.1,1-.3,1.4Z"/>
      <path class="st1" d="M112.8,19.2c-.2-.2-.5-.3-.8-.3-.3,0-.6.1-.8.3-.1.1-.2.2-.3.4,0,.1,0,.3,0,.5,0,.2,0,.3,0,.5,0,.1.1.3.3.4.2.2.5.3.8.3.3,0,.6-.1.8-.3.1-.1.2-.2.3-.4,0-.1,0-.3,0-.5,0-.2,0-.3,0-.5,0-.1-.2-.3-.3-.4Z"/>
      <path class="st1" d="M112.8,22.7h-1.7v9h1.7v-9Z"/>
      <path class="st1" d="M121.7,24.5c-.2-.4-.5-.8-.9-1.1-.4-.3-.8-.5-1.3-.6-.5-.1-1-.2-1.5-.2-.8,0-1.5.2-2.2.5-.7.4-1.2.9-1.4,1.6l1.4.8c.2-.4.5-.8.8-1,.4-.2.9-.4,1.4-.4.4,0,.8,0,1.2.2.3.1.6.4.8.7.2.3.3.7.3,1.3v1c0,0-.1-.1-.2-.2-.6-.5-1.4-.7-2.4-.7-.6,0-1.2.1-1.8.3-.5.2-1,.5-1.3.9-.3.4-.5,1-.5,1.5,0,.5.2,1.1.5,1.5.3.4.8.8,1.3,1,.6.2,1.2.3,1.8.3,1.1,0,1.9-.3,2.5-.8.1-.1.2-.2.3-.3v.9h1.6v-5.6c0-.6-.1-1.1-.3-1.6ZM119.7,30.2c-.4.2-1,.4-1.6.4s-1.2-.1-1.6-.4c-.4-.2-.6-.6-.6-1.1,0-.2,0-.5.2-.6.1-.2.3-.4.5-.5.4-.2,1-.4,1.6-.4.6,0,1.2.1,1.6.4.2.1.4.3.5.5.1.2.2.4.2.6,0,.5-.2.8-.6,1.1h0Z"/>
      <path class="st1" d="M21.4,27.3c0,1.4.6,2.8,1.6,3.8,1.9,1.9,4.6,1.9,6.2,1,2-1.1,6.6-4.5,1.9-18.3,0,6.6-9.7,7.2-9.7,13.5Z"/>
      <path class="st1" d="M25.8,19.5c-.3-1.7-.8-3.5-1.6-5.7,0,6.6-9.7,7.2-9.7,13.5,0,1.4.6,2.8,1.6,3.8,1.9,1.9,4.6,1.9,6.2,1-3.8-4.1-2.5-8.9,3.5-12.6Z"/>
      <path class="st1" d="M19,19.5c-.3-1.7-.8-3.5-1.6-5.7,0,6.6-9.7,7.2-9.7,13.5s2.6,4.6,2.6,4.6c-.4,1.7-.5,3.5-.2,5.3l1.2-.2c-.6-2.1-.2-4.4-.2-4.6,1.6.6,3.2.4,4.4-.2-3.8-4.1-2.5-8.9,3.5-12.6Z"/>
    </g>
  </g>
</svg>