<svg width="152" height="50" viewBox="0 0 152 50" fill="none" xmlns="http://www.w3.org/2000/svg">
<g clip-path="url(#clip0_9855_2572)">
<path d="M46.2194 27.0311V28.6296C45.8312 28.0849 45.5205 27.6529 45.2876 27.3337L39.3722 19.2905H37.7238V31.7189H39.5418V22.3798C39.9307 22.9245 40.2413 23.3564 40.4737 23.6756L46.389 31.7189H48.0309V19.2905H46.2194V27.0311Z" fill="#00A443"/>
<path d="M55.5909 23.0994C54.9471 22.7089 54.2069 22.5089 53.4552 22.5222C52.8594 22.5146 52.268 22.6261 51.7154 22.8502C51.1972 23.0663 50.7309 23.3912 50.3475 23.8031C49.9512 24.2297 49.6476 24.7345 49.4557 25.2854C49.2422 25.9047 49.1375 26.5566 49.1463 27.2119C49.1463 28.1489 49.3349 28.9685 49.712 29.6706C50.0686 30.3544 50.6061 30.9257 51.2653 31.3216C51.9558 31.7271 52.7442 31.9329 53.5437 31.9166C54.0547 31.9175 54.563 31.8427 55.0523 31.6945C55.5439 31.5454 56.0004 31.2978 56.3942 30.9665C56.8227 30.6018 57.1793 30.1593 57.4453 29.6622L56.1035 28.8273C55.9368 29.1653 55.7094 29.4694 55.4325 29.724C55.1821 29.9495 54.8871 30.119 54.5669 30.2216C54.2349 30.3243 53.8892 30.3752 53.5418 30.3724C53.065 30.3796 52.5953 30.2558 52.1832 30.0145C51.771 29.7641 51.4423 29.3957 51.2392 28.9566C51.0444 28.5353 50.9327 28.0799 50.9103 27.6158H57.5879C57.5991 27.5332 57.6047 27.4499 57.6047 27.3665V27.136C57.6047 26.2128 57.4251 25.4051 57.0661 24.7129C56.7321 24.0484 56.2215 23.4898 55.5909 23.0994ZM51.5747 24.8216C51.7851 24.5488 52.0617 24.3349 52.378 24.2004C52.7133 24.0606 53.0735 23.9908 53.4365 23.9952C53.7661 23.9866 54.0934 24.0524 54.3945 24.1876C54.6955 24.3228 54.9626 24.5241 55.1763 24.7766C55.4999 25.1514 55.708 25.6665 55.8006 26.3218H50.9616C50.9876 26.1568 51.0244 25.9937 51.0715 25.8336C51.1735 25.4671 51.3443 25.1236 51.5747 24.8216Z" fill="#00A443"/>
<path d="M65.2392 23.1078C64.5217 22.7083 63.712 22.5063 62.8919 22.5222C62.2754 22.5163 61.6637 22.6309 61.0907 22.8595C60.5467 23.0777 60.0539 23.4074 59.6435 23.8275C59.2271 24.2533 58.9023 24.7608 58.6893 25.3182C58.4604 25.9218 58.3466 26.5632 58.3538 27.2091C58.3538 28.1324 58.5511 28.9491 58.9456 29.6594C59.3237 30.3531 59.886 30.9276 60.5698 31.3188C61.1999 31.6618 61.8971 31.8619 62.6124 31.905C63.3276 31.948 64.0436 31.833 64.7099 31.5681C65.2524 31.3449 65.7455 31.0159 66.1608 30.6001C66.5778 30.1782 66.9025 29.6733 67.1141 29.1178C67.3441 28.5084 67.4579 27.8609 67.4495 27.2091C67.4495 26.2721 67.2523 25.4525 66.8578 24.7504C66.4799 24.0628 65.9195 23.4942 65.2392 23.1078ZM65.4694 28.5228C65.3436 28.8878 65.1451 29.2233 64.8861 29.5085C64.6395 29.7744 64.3384 29.9832 64.0036 30.1204C63.6508 30.2651 63.2729 30.3377 62.8919 30.334C62.3986 30.34 61.913 30.2104 61.4876 29.9592C61.063 29.703 60.7199 29.3301 60.4989 28.8845C60.2579 28.4166 60.1374 27.8575 60.1374 27.2072C60.1293 26.7614 60.198 26.3176 60.3405 25.8954C60.4651 25.5347 60.6603 25.2027 60.9145 24.9191C61.1576 24.6489 61.4596 24.4391 61.797 24.3063C62.1457 24.1688 62.5173 24.0995 62.8919 24.102C63.3965 24.0931 63.8939 24.2227 64.3307 24.4768C64.7544 24.73 65.0982 25.0987 65.3222 25.5403C65.5635 26.0013 65.6846 26.5588 65.6846 27.2091C65.69 27.6563 65.6172 28.101 65.4694 28.5228Z" fill="#00A443"/>
<path d="M74.6406 23.0994C73.9968 22.7089 73.2565 22.5089 72.5048 22.5222C71.909 22.5147 71.3177 22.6262 70.7651 22.8502C70.2472 23.0665 69.7811 23.3913 69.398 23.8031C69.0015 24.2295 68.6978 24.7343 68.5063 25.2854C68.2928 25.9047 68.1881 26.5566 68.1969 27.2119C68.1969 28.1489 68.3854 28.9685 68.7625 29.6706C69.1191 30.3544 69.6567 30.9257 70.3159 31.3216C71.0056 31.7255 71.7926 31.9304 72.5905 31.9138C73.1022 31.9147 73.6111 31.8399 74.1011 31.6917C74.5924 31.542 75.0487 31.2944 75.4429 30.9637C75.8709 30.5986 76.2271 30.1562 76.4931 29.6594L75.1512 28.8245C74.9843 29.1623 74.7569 29.4663 74.4803 29.7212C74.2298 29.9465 73.9348 30.116 73.6146 30.2188C73.2826 30.3214 72.9369 30.3722 72.5896 30.3696C72.1128 30.3774 71.6428 30.2547 71.23 30.0145C70.8192 29.7635 70.4919 29.3952 70.2898 28.9566C70.0945 28.5354 69.9828 28.08 69.9609 27.6158H76.6366C76.6485 27.5332 76.6545 27.4499 76.6543 27.3665V27.136C76.6543 26.2127 76.4748 25.4051 76.1157 24.7129C75.7817 24.0484 75.2711 23.4898 74.6406 23.0994ZM70.6243 24.8216C70.8346 24.549 71.1108 24.3351 71.4267 24.2004C71.7627 24.0606 72.1235 23.9908 72.4871 23.9952C72.8165 23.9869 73.1437 24.0527 73.4445 24.1879C73.7454 24.3231 74.0124 24.5243 74.2259 24.7766C74.5502 25.1514 74.758 25.6665 74.8493 26.3218H70.0121C70.0382 26.1568 70.0749 25.9937 70.1221 25.8336C70.2241 25.4671 70.3949 25.1236 70.6253 24.8216H70.6243Z" fill="#00A443"/>
<path d="M83.8583 22.9485C83.3349 22.6567 82.7439 22.5096 82.1456 22.5222C81.5376 22.5207 80.9412 22.6897 80.4235 23.0104C80.0272 23.2594 79.7067 23.6134 79.4973 24.0336V22.6993H77.7668V31.7189H79.4973V26.378C79.4973 25.6565 79.7063 25.0915 80.1244 24.6829C80.5425 24.2744 81.0808 24.0701 81.7393 24.0701C82.3282 24.0701 82.805 24.2713 83.1697 24.6736C83.5343 25.0758 83.7167 25.6206 83.7167 26.3077V31.7226H85.4648V26.0191C85.4799 25.3738 85.3311 24.7352 85.0324 24.1638C84.7618 23.6563 84.355 23.2352 83.8583 22.9485Z" fill="#00A443"/>
<path d="M93.0221 23.0994C92.3779 22.7092 91.6374 22.5091 90.8854 22.5222C90.2896 22.5148 89.6983 22.6263 89.1457 22.8502C88.6281 23.0666 88.1624 23.3914 87.7796 23.8031C87.3837 24.2298 87.0803 24.7346 86.8887 25.2854C86.6747 25.9046 86.57 26.5565 86.5794 27.2119C86.5794 28.1489 86.7676 28.9685 87.1441 29.6706C87.5009 30.3542 88.0385 30.9255 88.6974 31.3216C89.388 31.727 90.1764 31.9329 90.9758 31.9166C91.4871 31.9175 91.9958 31.8427 92.4854 31.6945C92.9769 31.5452 93.4333 31.2976 93.8272 30.9665C94.2552 30.6015 94.6114 30.1591 94.8774 29.6622L93.5356 28.8273C93.3693 29.1655 93.1417 29.4696 92.8647 29.724C92.6146 29.9495 92.3199 30.119 91.9999 30.2216C91.6679 30.3241 91.3222 30.375 90.9749 30.3724C90.498 30.3805 90.028 30.2577 89.6153 30.0173C89.202 29.7664 88.8726 29.397 88.6695 28.9566C88.4742 28.536 88.3619 28.0813 88.3387 27.6176H95.0153C95.0268 27.5351 95.0328 27.4518 95.0331 27.3684V27.1379C95.0331 26.2146 94.8535 25.4069 94.4944 24.7148C94.1609 24.0503 93.6515 23.4913 93.0221 23.0994ZM89.005 24.8216C89.2154 24.5488 89.492 24.3349 89.8082 24.2004C90.1439 24.0605 90.5044 23.9907 90.8677 23.9952C91.1972 23.9867 91.5243 24.0525 91.8252 24.1877C92.1261 24.323 92.393 24.5242 92.6065 24.7766C92.9308 25.1514 93.1389 25.6665 93.2309 26.3218H88.3918C88.4179 26.1568 88.4546 25.9937 88.5018 25.8336C88.6037 25.4671 88.7746 25.1236 89.005 24.8216Z" fill="#00A443"/>
<path d="M98.8918 22.9307C98.4743 23.2025 98.136 23.6166 97.877 24.1732V22.6993H96.1465V31.7189H97.877V26.9074C97.877 26.1384 98.0714 25.5228 98.4603 25.0605C98.6388 24.8394 98.8652 24.6621 99.1221 24.5422C99.379 24.4222 99.6597 24.3626 99.9429 24.3681H100.825V22.5222H100.313C99.8094 22.5146 99.3151 22.6568 98.8918 22.9307Z" fill="#00A443"/>
<path d="M107.711 24.2144C107.65 24.1067 107.585 24.0008 107.516 23.8977C107.238 23.4818 106.866 23.1382 106.43 22.8951C105.989 22.6453 105.45 22.5203 104.814 22.5203C104.27 22.5156 103.731 22.6244 103.23 22.8398C102.75 23.0471 102.317 23.3525 101.959 23.7366C101.595 24.1301 101.31 24.5912 101.121 25.0943C100.917 25.6399 100.817 26.2189 100.825 26.8015C100.813 27.5659 100.995 28.3209 101.355 28.9941C101.691 29.6204 102.184 30.1471 102.785 30.5214C103.395 30.8982 104.099 31.0931 104.815 31.0836C105.451 31.0836 105.99 30.9562 106.431 30.7013C106.864 30.4548 107.236 30.1118 107.517 29.6987C107.586 29.5975 107.651 29.4935 107.712 29.3867V30.6573C107.712 31.2495 107.588 31.7423 107.339 32.1396C107.101 32.5271 106.758 32.8383 106.35 33.0363C105.926 33.2403 105.461 33.3436 104.991 33.338C104.444 33.3459 103.906 33.2016 103.436 32.9211C102.967 32.6317 102.573 32.2328 102.289 31.7582L101.07 32.7346C101.333 33.2082 101.688 33.6245 102.112 33.9593C102.516 34.2742 102.974 34.5121 103.463 34.6611C104.729 35.0315 106.084 34.9337 107.284 34.3856C107.944 34.0639 108.497 33.5548 108.873 32.9211C109.261 32.2758 109.455 31.4915 109.455 30.5683V22.6993H107.708L107.711 24.2144ZM107.411 28.1948C107.198 28.5905 106.884 28.9216 106.501 29.1534C106.095 29.3801 105.637 29.4991 105.172 29.4991C104.707 29.4991 104.25 29.3801 103.844 29.1534C103.456 28.9239 103.139 28.5924 102.926 28.1948C102.697 27.7665 102.582 27.2865 102.59 26.8006C102.58 26.3091 102.696 25.8233 102.926 25.3894C103.139 24.9916 103.456 24.6601 103.844 24.4309C104.25 24.2035 104.707 24.0842 105.172 24.0842C105.637 24.0842 106.095 24.2035 106.501 24.4309C106.884 24.6624 107.199 24.9935 107.411 25.3894C107.64 25.8234 107.755 26.3091 107.746 26.8006C107.754 27.2865 107.639 27.7664 107.411 28.1948Z" fill="#00A443"/>
<path d="M112.795 19.193C112.561 18.9868 112.259 18.8761 111.948 18.8829C111.639 18.875 111.339 18.9859 111.109 19.193C110.994 19.2997 110.903 19.4305 110.844 19.5762C110.784 19.7219 110.757 19.879 110.764 20.0363C110.758 20.1909 110.786 20.345 110.846 20.4876C110.905 20.6302 110.995 20.758 111.109 20.8618C111.339 21.0692 111.639 21.1805 111.948 21.1729C112.259 21.1793 112.561 21.0683 112.795 20.8618C112.911 20.7594 113.003 20.6322 113.065 20.4893C113.126 20.3465 113.154 20.1917 113.148 20.0363C113.155 19.8782 113.128 19.7204 113.066 19.5744C113.005 19.4285 112.913 19.2982 112.795 19.193Z" fill="#00A443"/>
<path d="M112.812 22.6993H111.082V31.718H112.812V22.6993Z" fill="#00A443"/>
<path d="M121.683 24.4749C121.473 24.0421 121.169 23.6627 120.792 23.3655C120.414 23.0715 119.982 22.8544 119.521 22.7265C119.03 22.5885 118.522 22.5197 118.011 22.5222C117.247 22.5097 116.493 22.6963 115.822 23.0638C115.168 23.4309 114.658 24.0099 114.374 24.7064L115.735 25.4897C115.9 25.066 116.193 24.7054 116.574 24.459C116.956 24.2091 117.424 24.0842 117.977 24.0842C118.373 24.0788 118.766 24.1514 119.134 24.2978C119.478 24.4363 119.771 24.6777 119.973 24.9893C120.184 25.3098 120.29 25.7302 120.291 26.2505V27.2569C120.229 27.1909 120.164 27.1284 120.096 27.0695C119.542 26.5841 118.742 26.3414 117.696 26.3414C117.069 26.3331 116.446 26.4414 115.859 26.6609C115.343 26.8466 114.891 27.1758 114.554 27.6101C114.245 28.0534 114.079 28.5811 114.077 29.1224C114.075 29.6637 114.239 30.1925 114.545 30.6376C114.875 31.0653 115.315 31.3939 115.817 31.5877C116.387 31.8128 116.996 31.9242 117.609 31.9157C118.669 31.9157 119.487 31.6642 120.062 31.1614C120.179 31.0594 120.286 30.9461 120.381 30.8231V31.7208H122.023V26.0903C122.036 25.5325 121.92 24.9793 121.683 24.4749ZM119.706 30.1906C119.282 30.4405 118.754 30.5654 118.121 30.5654C117.473 30.5654 116.935 30.4405 116.506 30.1906C116.076 29.9408 115.862 29.5797 115.862 29.1075C115.852 28.88 115.908 28.6547 116.022 28.4581C116.136 28.2615 116.304 28.1018 116.506 27.9981C116.935 27.7551 117.473 27.6339 118.121 27.6345C118.757 27.6345 119.285 27.7594 119.706 28.0093C119.904 28.1145 120.068 28.2734 120.181 28.4681C120.293 28.6627 120.349 28.8852 120.342 29.1103C120.342 29.5831 120.13 29.9436 119.706 30.1916V30.1906Z" fill="#00A443"/>
<path d="M21.4426 27.3019C21.4405 28.732 22.0009 30.1049 23.0016 31.1211C24.9324 33.0626 27.5537 33.0588 29.2244 32.1462C31.2698 31.0302 35.8713 27.6832 31.0937 13.7996C31.0937 20.353 21.4426 21.0192 21.4426 27.3019Z" fill="#00A443"/>
<path d="M25.8372 19.5369C25.5204 17.8194 25.0125 16.0606 24.2531 13.7996C24.2531 20.353 14.6011 21.0192 14.6011 27.3019C14.5989 28.7316 15.1585 30.1043 16.1582 31.1211C18.0889 33.0626 20.7307 33.0569 22.381 32.1462C18.5437 28.0318 19.8948 23.269 25.8372 19.5369Z" fill="#00A443"/>
<path d="M18.9956 19.5369C18.6788 17.8194 18.17 16.0606 17.4115 13.7996C17.4115 20.353 7.75943 21.0192 7.75943 27.3019C7.75943 30.5242 10.3555 31.9428 10.3555 31.9428C9.95215 33.6657 9.86781 35.4486 10.1067 37.2022L11.3452 36.9952C10.7395 34.8775 11.1113 32.5716 11.1495 32.3458C12.7336 32.9839 14.3671 32.7946 15.5394 32.148C11.6965 28.0318 13.0532 23.2699 18.9956 19.5369Z" fill="#00A443"/>
</g>
<defs>
<clipPath id="clip0_9855_2572">
<rect width="129.776" height="39" fill="white" transform="translate(0 6)"/>
</clipPath>
</defs>
</svg>
