<?xml version="1.0" encoding="UTF-8"?>
<svg id="Layer_1" xmlns="http://www.w3.org/2000/svg" xmlns:xlink="http://www.w3.org/1999/xlink" version="1.1" viewBox="0 0 154 50">
  <!-- Generator: Adobe Illustrator 29.0.0, SVG Export Plug-In . SVG Version: 2.1.0 Build 186)  -->
  <defs>
    <style>
      .st0 {
        fill: none;
      }

      .st1 {
        fill: #007f33;
      }

      .st2 {
        clip-path: url(#clippath);
      }
    </style>
    <clipPath id="clippath">
      <rect class="st0" x=".3" y="5" width="153.4" height="39"/>
    </clipPath>
  </defs>
  <g class="st2">
    <g>
      <path class="st1" d="M46.1,24.6c-.6-.3-1.3-.6-2.1-.8l-1.5-.4c-.7-.2-1.3-.4-1.6-.7-.4-.3-.6-.7-.6-1.2,0-.5.2-.9.7-1.2.5-.3,1.1-.5,1.9-.5.7,0,1.4.2,1.9.5.5.3.9.9,1.1,1.6l1.6-.6c-.2-.6-.5-1.2-1-1.7-.4-.5-1-.8-1.6-1-.7-.3-1.4-.4-2.1-.4-.9,0-1.7.1-2.3.4-.6.3-1.2.7-1.6,1.2-.4.5-.6,1.2-.6,1.8,0,.5.1,1.1.4,1.5.3.5.6.9,1.1,1.1.6.3,1.2.6,1.8.8l1.5.4c.5.1,1.1.3,1.5.5.3.1.6.4.9.6.2.2.3.5.3.8,0,.5-.3,1-.8,1.3-.5.3-1.2.5-2.1.5-.9,0-1.6-.2-2.2-.7-.6-.4-1-1-1.2-1.7l-1.6.7c.2.7.6,1.3,1,1.8.5.5,1.1.9,1.7,1.2.7.3,1.5.4,2.3.4,1,0,1.8-.2,2.5-.5.7-.3,1.3-.7,1.6-1.3.4-.5.6-1.2.6-1.9,0-.5-.1-1.1-.4-1.5-.3-.5-.7-.9-1.2-1.2Z"/>
      <path class="st1" d="M51,23.9c.2-.3.5-.5.9-.6.3-.1.7-.2,1-.2.5,0,1.1.1,1.6.4.5.3.8.8,1.1,1.4l1.5-.7c-.2-.6-.5-1.1-1-1.6-.4-.4-.9-.7-1.4-.9-.5-.2-1.1-.3-1.7-.3-.6,0-1.2.1-1.8.3-.5.2-1,.5-1.4,1-.4.4-.7.9-.9,1.5-.2.6-.3,1.3-.3,1.9,0,.9.2,1.7.6,2.4.4.7.9,1.3,1.6,1.6.7.4,1.5.6,2.3.6.6,0,1.1,0,1.7-.3.5-.2,1-.5,1.4-.9.5-.4.8-1,1-1.6l-1.5-.7c-.3.7-.6,1.1-1.1,1.4-.5.3-1,.4-1.5.4-.5,0-.9-.1-1.3-.4-.4-.3-.8-.6-1-1.1-.2-.5-.4-1-.4-1.7,0-.5,0-.9.2-1.3.1-.4.3-.7.6-1Z"/>
      <path class="st1" d="M64.4,22.1c-.7-.4-1.5-.6-2.4-.6-.6,0-1.2.1-1.8.3-.5.2-1,.5-1.5,1-.4.4-.7.9-1,1.5-.2.6-.3,1.2-.3,1.9,0,.9.2,1.7.6,2.5.4.7.9,1.3,1.6,1.7.6.3,1.3.5,2.1.6.7,0,1.4,0,2.1-.3.5-.2,1-.6,1.5-1,.4-.4.7-.9,1-1.5.2-.6.3-1.3.3-1.9,0-.9-.2-1.8-.6-2.5-.4-.7-.9-1.3-1.6-1.6ZM64.6,27.5c-.1.4-.3.7-.6,1-.2.3-.6.5-.9.6-.4.1-.7.2-1.1.2-.5,0-1-.1-1.4-.4-.4-.3-.8-.6-1-1.1-.2-.5-.4-1-.4-1.7,0-.4,0-.9.2-1.3.1-.4.3-.7.6-1,.2-.3.5-.5.9-.6.4-.1.7-.2,1.1-.2.5,0,1,.1,1.5.4.4.3.8.6,1,1.1.2.5.4,1,.4,1.7,0,.4,0,.9-.2,1.3Z"/>
      <path class="st1" d="M75.5,18.7l-1.8,1.1v1.9h-3.7v-3l-1.8,1.1v1.9h-1.7v1.5h1.7v4.8c0,.5,0,1,.3,1.5.2.4.5.8.9,1,.4.2.9.3,1.5.3h1.1v-1.5h-.9c-.4,0-.7-.1-.9-.4-.2-.2-.3-.6-.3-1v-4.7h3.7v4.8c0,.5,0,1,.3,1.5.2.4.5.8.9,1,.4.2.9.3,1.5.3h1.1v-1.5h-.9c-.4,0-.7-.1-.9-.4-.2-.2-.3-.6-.3-1v-4.7h2.1v-1.5h-2.1v-3Z"/>
      <path class="st1" d="M80.5,21.7h-1.7v9h1.7v-9Z"/>
      <path class="st1" d="M80.5,18.2c-.2-.2-.5-.3-.9-.3-.3,0-.6.1-.8.3-.1.1-.2.2-.3.4s0,.3,0,.5c0,.2,0,.3,0,.5,0,.1.2.3.3.4.2.2.5.3.8.3.3,0,.6-.1.9-.3.1-.1.2-.2.3-.4,0-.1,0-.3,0-.5,0-.2,0-.3,0-.5,0-.1-.2-.3-.3-.4Z"/>
      <path class="st1" d="M88.6,26.6c-.5-.4-1.2-.8-2.1-1l-.9-.2c-.3,0-.6-.2-.9-.3-.2,0-.5-.2-.7-.4,0,0-.1-.2-.2-.3,0-.1,0-.2,0-.3,0-.3.2-.6.5-.8.3-.2.7-.3,1.2-.3.5,0,1,.1,1.4.3.4.2.7.6.9,1.2l1.5-.5c-.1-.5-.4-1-.8-1.4-.4-.4-.8-.7-1.3-.8-.5-.2-1.1-.3-1.7-.3-.6,0-1.2.1-1.8.3-.5.2-.9.5-1.2.9-.3.4-.4.8-.4,1.3,0,.3,0,.6.2.9.1.3.3.6.5.8.4.5,1.1.8,2.1,1l.9.2c.6.1,1.1.3,1.4.5.1,0,.3.2.3.3,0,.1.1.3.1.4,0,.3-.2.6-.5.8-.4.2-.8.3-1.5.3-.4,0-.7,0-1-.2-.3-.1-.6-.3-.9-.5-.3-.3-.4-.6-.5-.9l-1.4.6c.2.5.5,1,.9,1.4.4.4.9.7,1.4.8.5.2,1.1.3,1.6.3.8,0,1.4-.1,2-.3.5-.2,1-.5,1.3-1,.3-.4.5-.9.5-1.4,0-.7-.2-1.2-.7-1.7Z"/>
      <path class="st1" d="M96.6,21.9c-.5-.3-1.1-.4-1.7-.4-.6,0-1.2.2-1.7.5-.4.2-.7.6-.9,1v-4.7h-1.7v12.4h1.7v-5.3c0-.7.2-1.3.6-1.7.4-.4,1-.6,1.6-.6s1.1.2,1.4.6c.4.4.6.9.6,1.6v5.4h1.8v-5.7c0-.6-.1-1.3-.4-1.9-.3-.5-.7-.9-1.2-1.2Z"/>
      <path class="st1" d="M107.8,19.4c-.8-.7-1.9-1.1-3.4-1.1h-4.6v12.4h1.8v-4.4h2.8c1,0,1.8-.2,2.5-.5.7-.3,1.2-.8,1.6-1.4.4-.6.6-1.3.6-2.1,0-1.3-.4-2.2-1.2-3ZM106.4,24.1c-.5.4-1.2.6-2.1.6h-2.6v-4.8h2.6c.9,0,1.6.2,2.1.6.5.4.7,1,.7,1.8,0,.8-.2,1.4-.7,1.8h0Z"/>
      <path class="st1" d="M116.2,22.1c-.7-.4-1.5-.6-2.4-.6-.6,0-1.2.1-1.8.3-.5.2-1,.5-1.5,1-.4.4-.7.9-1,1.5-.2.6-.3,1.2-.3,1.9,0,.9.2,1.7.6,2.5.4.7.9,1.3,1.6,1.7.6.3,1.3.5,2.1.6.7,0,1.4,0,2.1-.3.5-.2,1-.6,1.5-1,.4-.4.7-.9,1-1.5.2-.6.3-1.3.3-1.9,0-.9-.2-1.8-.6-2.5-.4-.7-.9-1.3-1.6-1.6ZM116.4,27.5c-.1.4-.3.7-.6,1-.2.3-.6.5-.9.6-.4.1-.7.2-1.1.2-.5,0-1-.1-1.4-.4-.4-.3-.8-.6-1-1.1-.2-.5-.4-1-.4-1.7,0-.4,0-.9.2-1.3.1-.4.3-.7.6-1,.2-.3.6-.5.9-.6.4-.1.7-.2,1.1-.2.5,0,1,.1,1.5.4.4.3.8.6,1,1.1.2.5.4,1,.4,1.7,0,.4,0,.9-.2,1.3h0Z"/>
      <path class="st1" d="M128.2,26.6c0,.3-.2.5-.2.8,0,.3-.1.5-.2.8-.2-.7-.4-1.2-.5-1.6l-1.6-4.9h-1.5l-1.5,4.9c0,.3-.2.5-.2.8,0,.3-.2.5-.3.8,0-.3-.2-.6-.2-.8,0-.3-.1-.5-.2-.8l-1.4-4.8h-1.9l2.9,9h1.7l1.5-4.8c.1-.4.3-.9.5-1.6.2.7.4,1.2.5,1.6l1.5,4.8h1.7l2.9-9h-1.8l-1.4,4.8Z"/>
      <path class="st1" d="M138,22.1c-.6-.4-1.4-.6-2.2-.6-.6,0-1.2.1-1.8.3-.5.2-1,.5-1.4,1-.4.4-.7.9-.9,1.5-.2.6-.3,1.3-.3,1.9,0,.9.2,1.8.6,2.5.4.7.9,1.3,1.6,1.7.7.4,1.5.6,2.3.6.5,0,1,0,1.5-.2.5-.1,1-.4,1.4-.7.4-.4.8-.8,1.1-1.3l-1.4-.8c-.2.3-.4.6-.7.9-.3.2-.6.4-.9.5-.3.1-.7.2-1,.2-.5,0-1-.1-1.4-.4-.4-.3-.7-.6-1-1.1-.2-.4-.3-.9-.3-1.3h6.7c0,0,0-.2,0-.2v-.2c0-.9-.2-1.7-.5-2.4-.3-.7-.9-1.2-1.5-1.6ZM133.9,23.8c.2-.3.5-.5.8-.6.3-.1.7-.2,1.1-.2.3,0,.7,0,1,.2.3.1.6.3.8.6.3.4.5.9.6,1.5h-4.9c0-.2,0-.3.1-.5.1-.4.3-.7.5-1Z"/>
      <path class="st1" d="M145.4,21.5c-.5,0-1,.1-1.4.4-.4.3-.8.7-1,1.2v-1.5h-1.7v9h1.7v-4.8c0-.8.2-1.4.6-1.8.2-.2.4-.4.7-.5.3-.1.5-.2.8-.2h.9v-1.8h-.5Z"/>
      <path class="st1" d="M21.9,26.3c0,1.4.6,2.8,1.6,3.8,1.9,1.9,4.6,1.9,6.3,1,2.1-1.1,6.7-4.5,1.9-18.3,0,6.6-9.7,7.2-9.7,13.5Z"/>
      <path class="st1" d="M26.4,18.5c-.3-1.7-.8-3.5-1.6-5.7,0,6.6-9.7,7.2-9.7,13.5,0,1.4.6,2.8,1.6,3.8,1.9,1.9,4.6,1.9,6.3,1-3.9-4.1-2.5-8.9,3.5-12.6Z"/>
      <path class="st1" d="M19.5,18.5c-.3-1.7-.8-3.5-1.6-5.7,0,6.6-9.7,7.2-9.7,13.5s2.6,4.6,2.6,4.6c-.4,1.7-.5,3.5-.3,5.3l1.2-.2c-.6-2.1-.2-4.4-.2-4.6,1.6.6,3.2.4,4.4-.2-3.9-4.1-2.5-8.9,3.5-12.6Z"/>
    </g>
  </g>
</svg>