<svg width="154" height="50" viewBox="0 0 154 50" fill="none" xmlns="http://www.w3.org/2000/svg">
<g clip-path="url(#clip0_9855_2575)">
<path d="M46.1037 24.6021C45.5509 24.2648 44.8531 23.9837 44.0101 23.7588L42.4787 23.3503C41.7661 23.1498 41.2196 22.9161 40.8392 22.6494C40.4588 22.3827 40.2689 21.9832 40.2695 21.451C40.2695 20.9419 40.5042 20.5337 40.9737 20.2263C41.4431 19.919 42.0698 19.765 42.8538 19.7644C43.6015 19.7644 44.2455 19.933 44.7857 20.2704C45.3259 20.6077 45.702 21.1315 45.9138 21.8417L47.5345 21.2383C47.3513 20.5953 47.0222 20.0028 46.5728 19.5067C46.1278 19.0401 45.581 18.6819 44.9746 18.4601C44.2878 18.2083 43.5602 18.0847 42.8284 18.0956C41.9372 18.0956 41.1563 18.2436 40.4858 18.5397C39.8598 18.8001 39.3177 19.227 38.9186 19.7737C38.5418 20.3053 38.3442 20.9426 38.3546 21.5934C38.3388 22.131 38.4674 22.663 38.7273 23.1344C38.9871 23.6057 39.3687 23.9992 39.8324 24.2742C40.401 24.622 41.0181 24.884 41.6637 25.0519L43.196 25.4595C43.7283 25.5875 44.2471 25.766 44.7453 25.9926C45.0799 26.1384 45.3758 26.3602 45.6092 26.6401C45.7934 26.8825 45.8907 27.1794 45.8856 27.4834C45.8856 28.0163 45.6242 28.4426 45.1016 28.7624C44.5789 29.0823 43.8782 29.2419 42.9995 29.2412C42.109 29.2412 41.3697 29.0195 40.7819 28.576C40.2031 28.1443 39.771 27.5462 39.5438 26.8622L37.9456 27.5368C38.1589 28.2026 38.5142 28.8144 38.9873 29.3303C39.4667 29.8462 40.0576 30.2467 40.7151 30.5015C41.4449 30.7825 42.222 30.9212 43.0042 30.91C43.9782 30.91 44.8214 30.7592 45.534 30.4575C46.2466 30.1558 46.7959 29.7385 47.182 29.2056C47.5726 28.6567 47.7753 27.9969 47.7601 27.3241C47.7702 26.7811 47.6283 26.2461 47.3502 25.779C47.036 25.2923 46.6083 24.8885 46.1037 24.6021Z" fill="#00A443"/>
<path d="M51.008 23.8835C51.2514 23.6275 51.5457 23.4248 51.872 23.2885C52.1964 23.1528 52.5448 23.0833 52.8967 23.0842C53.4433 23.0741 53.9816 23.219 54.4488 23.5021C54.9 23.7807 55.2563 24.257 55.5176 24.931L57.0142 24.2208C56.811 23.6236 56.4656 23.0844 56.0074 22.6494C55.5926 22.2644 55.1008 21.9709 54.5644 21.7883C54.0277 21.6098 53.4653 21.5199 52.8995 21.5222C52.2918 21.5157 51.689 21.6304 51.1265 21.8595C50.5919 22.0804 50.1075 22.4064 49.7023 22.8181C49.2857 23.2413 48.9629 23.7469 48.7547 24.3023C48.5286 24.9131 48.4171 25.56 48.4256 26.211C48.4256 27.1342 48.6187 27.9482 49.0047 28.6528C49.3729 29.3366 49.9229 29.9062 50.5944 30.2991C51.2925 30.7008 52.0869 30.9061 52.8929 30.8932C53.4588 30.896 54.0212 30.8061 54.5578 30.6271C55.0959 30.4439 55.5881 30.1473 56.0008 29.7575C56.455 29.3227 56.8 28.7872 57.0077 28.1946L55.5148 27.4881C55.2535 28.1515 54.8972 28.625 54.4459 28.9086C53.9814 29.1963 53.4435 29.3444 52.8967 29.3349C52.4244 29.339 51.9597 29.2163 51.5514 28.9798C51.1293 28.7297 50.789 28.3629 50.5718 27.9238C50.3287 27.4566 50.2071 26.8853 50.2071 26.21C50.1986 25.7513 50.2709 25.2946 50.4205 24.8607C50.5458 24.4977 50.7459 24.1648 51.008 23.8835Z" fill="#00A443"/>
<path d="M64.4184 22.1078C63.6941 21.7084 62.877 21.5063 62.0494 21.5222C61.4274 21.5163 60.8103 21.6309 60.2322 21.8595C59.684 22.0782 59.1872 22.4078 58.7732 22.8274C58.3537 23.2536 58.0264 23.761 57.8115 24.3182C57.5806 24.9217 57.4658 25.5632 57.473 26.2091C57.473 27.1324 57.672 27.9491 58.07 28.6594C58.4517 29.3531 59.0189 29.9279 59.7086 30.3197C60.3444 30.6624 61.0478 30.8622 61.7694 30.9051C62.4909 30.9479 63.2131 30.8329 63.8854 30.568C64.4321 30.3454 64.9287 30.0164 65.3463 29.6001C65.7669 29.1782 66.0945 28.6733 66.308 28.1178C66.54 27.5084 66.6548 26.8609 66.6464 26.2091C66.6464 25.2721 66.4477 24.4525 66.0504 23.7504C65.6685 23.0635 65.1038 22.4951 64.4184 22.1078ZM64.6497 27.5228C64.5226 27.8875 64.3227 28.2228 64.0621 28.5085C63.8132 28.7742 63.5095 28.9829 63.1718 29.1204C62.8156 29.265 62.434 29.3376 62.0494 29.334C61.5517 29.3399 61.0619 29.2103 60.6327 28.9592C60.2043 28.7034 59.8582 28.3308 59.6352 27.8854C59.3921 27.4181 59.2705 26.8587 59.2705 26.2072C59.2623 25.7614 59.3316 25.3176 59.4754 24.8954C59.6011 24.5347 59.798 24.2027 60.0545 23.9191C60.2997 23.6489 60.6044 23.4391 60.9448 23.3063C61.2966 23.1688 61.6715 23.0995 62.0494 23.102C62.5584 23.0931 63.0602 23.2227 63.5009 23.4768C63.9276 23.7309 64.2734 24.1003 64.4983 24.5422C64.7421 25.0044 64.8637 25.5607 64.8631 26.211C64.8695 26.6573 64.7972 27.1013 64.6497 27.5228Z" fill="#00A443"/>
<path d="M75.5067 18.7346L73.7441 19.8047V21.704H70.0542V18.7346L68.2935 19.8047V21.704H66.6192V23.1601H68.2935V27.9388C68.2845 28.4416 68.3913 28.9397 68.6056 29.3949C68.8026 29.8093 69.123 30.1532 69.5231 30.3797C69.9261 30.6115 70.4246 30.727 71.0188 30.7264H72.1412V29.1991H71.2152C70.811 29.1991 70.5171 29.0807 70.3334 28.844C70.1498 28.6072 70.0577 28.2636 70.0571 27.8133V23.1554H73.7441V27.9341C73.7352 28.4369 73.8419 28.935 74.0562 29.3902C74.2532 29.8047 74.5736 30.1485 74.9737 30.375C75.3767 30.6068 75.8752 30.7223 76.4694 30.7217H77.5918V29.1944H76.6659C76.2616 29.1944 75.9677 29.076 75.7841 28.8393C75.6004 28.6025 75.5083 28.259 75.5077 27.8086V23.1554H77.5918V21.6993H75.5067V18.7346Z" fill="#00A443"/>
<path d="M80.5305 21.6993H78.7847V30.7179H80.5305V21.6993Z" fill="#00A443"/>
<path d="M80.5126 18.193C80.2764 17.9866 79.9712 17.876 79.6572 17.8829C79.3458 17.875 79.0432 17.9859 78.8111 18.193C78.6949 18.2997 78.6036 18.4306 78.5437 18.5763C78.4838 18.722 78.4566 18.879 78.4642 19.0363C78.4578 19.1908 78.4855 19.3449 78.5455 19.4875C78.6054 19.6302 78.6961 19.758 78.8111 19.8618C79.043 20.0692 79.3457 20.1805 79.6572 20.1729C79.9713 20.1795 80.2766 20.0685 80.5126 19.8618C80.6293 19.759 80.7214 19.6315 80.7824 19.4887C80.8434 19.3459 80.8717 19.1914 80.8652 19.0363C80.8728 18.8785 80.8452 18.7209 80.7842 18.5751C80.7232 18.4292 80.6305 18.2987 80.5126 18.193Z" fill="#00A443"/>
<path d="M88.6115 26.5726C88.1546 26.1416 87.4511 25.8074 86.501 25.57L85.6107 25.3573C85.2904 25.2728 84.975 25.1708 84.6659 25.0519C84.4242 24.9634 84.201 24.8309 84.0079 24.6611C83.9253 24.5843 83.8603 24.4906 83.8174 24.3865C83.7744 24.2824 83.7544 24.1702 83.7587 24.0577C83.7587 23.7491 83.9154 23.4974 84.2288 23.3025C84.5421 23.1076 84.9564 23.0111 85.4716 23.013C85.96 23.0046 86.442 23.1242 86.8695 23.3597C87.2794 23.5902 87.5673 23.9837 87.7334 24.5403L89.1943 24.0081C89.0581 23.4955 88.7946 23.0253 88.4281 22.641C88.0658 22.2697 87.6244 21.9844 87.1365 21.8061C86.6031 21.6128 86.039 21.5175 85.4716 21.525C84.8601 21.5136 84.2526 21.6251 83.6854 21.8529C83.2045 22.04 82.7826 22.3519 82.4633 22.7562C82.1742 23.1362 82.0207 23.6015 82.0271 24.0783C82.0196 24.3876 82.0739 24.6953 82.1868 24.9834C82.2998 25.2715 82.4692 25.5343 82.6852 25.7565C83.1239 26.2119 83.8305 26.5583 84.8051 26.7956L85.7132 27.0261C86.3543 27.1679 86.8262 27.3307 87.1289 27.5143C87.2687 27.5889 87.3851 27.7004 87.4653 27.8366C87.5456 27.9728 87.5866 28.1285 87.5839 28.2864C87.5839 28.6181 87.4056 28.8933 87.049 29.1119C86.6924 29.3306 86.1998 29.4402 85.5712 29.4408C85.2188 29.4418 84.8688 29.3816 84.5371 29.2628C84.212 29.1493 83.9167 28.9641 83.6732 28.7212C83.421 28.4643 83.2346 28.1506 83.1298 27.8067L81.7112 28.4251C81.8838 28.9419 82.1748 29.4116 82.5612 29.7967C82.9476 30.1819 83.4188 30.472 83.9374 30.6439C84.4648 30.8244 85.0192 30.9144 85.5769 30.91C86.3365 30.91 86.9945 30.7948 87.551 30.5643C88.0602 30.3704 88.5067 30.0419 88.8427 29.6142C89.1426 29.218 89.3026 28.734 89.2977 28.2377C89.2977 27.5599 89.069 27.0049 88.6115 26.5726Z" fill="#00A443"/>
<path d="M96.604 21.9485C96.076 21.6567 95.4798 21.5096 94.8761 21.5222C94.2628 21.5211 93.6613 21.6901 93.1389 22.0104C92.7388 22.2591 92.4154 22.6132 92.2044 23.0336V18.2905H90.4587V30.7189H92.2044V25.378C92.2044 24.6565 92.415 24.0915 92.8362 23.6829C93.2573 23.2744 93.8007 23.0701 94.4663 23.0701C95.0598 23.0701 95.5408 23.2716 95.9093 23.6745C96.2778 24.0774 96.4617 24.6218 96.4611 25.3077V30.7226H98.2247V25.02C98.2402 24.3747 98.09 23.7361 97.7885 23.1648C97.5155 22.6569 97.1052 22.2356 96.604 21.9485Z" fill="#00A443"/>
<path d="M107.845 19.3652C107.026 18.6493 105.898 18.2911 104.461 18.2905H99.866V30.7189H101.7V26.315H104.479C105.429 26.315 106.246 26.1551 106.929 25.8352C107.583 25.5405 108.135 25.0585 108.514 24.4503C108.89 23.8469 109.078 23.137 109.078 22.3205C109.074 21.0662 108.663 20.0811 107.845 19.3652ZM106.403 24.0961C105.902 24.4991 105.207 24.7005 104.319 24.7005H101.697V19.9424H104.316C105.206 19.9424 105.901 20.1404 106.401 20.5365C106.9 20.9325 107.149 21.5275 107.148 22.3215C107.148 23.1023 106.899 23.6939 106.401 24.0961H106.403Z" fill="#00A443"/>
<path d="M116.171 22.1078C115.447 21.7084 114.63 21.5063 113.802 21.5222C113.18 21.5163 112.563 21.6308 111.985 21.8595C111.436 22.078 110.938 22.4075 110.524 22.8274C110.104 23.2536 109.777 23.761 109.562 24.3182C109.331 24.9217 109.217 25.5632 109.224 26.2091C109.224 27.1324 109.423 27.9491 109.821 28.6594C110.202 29.3531 110.77 29.9279 111.459 30.3197C112.095 30.6624 112.799 30.8622 113.52 30.9051C114.242 30.9479 114.964 30.8329 115.636 30.568C116.183 30.3454 116.679 30.0164 117.097 29.6001C117.518 29.1782 117.845 28.6733 118.059 28.1178C118.291 27.5084 118.406 26.8609 118.397 26.2091C118.397 25.2721 118.198 24.4525 117.801 23.7504C117.42 23.0638 116.856 22.4954 116.171 22.1078ZM116.402 27.5228C116.275 27.8875 116.075 28.2228 115.815 28.5085C115.566 28.7744 115.262 28.9832 114.924 29.1204C114.568 29.265 114.186 29.3377 113.802 29.334C113.304 29.34 112.814 29.2104 112.385 28.9592C111.957 28.7034 111.611 28.3308 111.388 27.8854C111.144 27.4181 111.022 26.8587 111.023 26.2072C111.015 25.7614 111.084 25.3176 111.228 24.8954C111.354 24.5347 111.551 24.2027 111.807 23.9191C112.052 23.6489 112.357 23.4391 112.697 23.3063C113.049 23.1688 113.424 23.0995 113.802 23.102C114.311 23.0932 114.813 23.2228 115.253 23.4768C115.68 23.7309 116.026 24.1003 116.251 24.5422C116.494 25.0044 116.616 25.5607 116.616 26.211C116.621 26.6574 116.549 27.1014 116.4 27.5228H116.402Z" fill="#00A443"/>
<path d="M128.24 26.5511C128.157 26.8116 128.08 27.0689 128.008 27.3232C127.937 27.5774 127.86 27.8585 127.777 28.1665C127.563 27.5031 127.391 26.9702 127.26 26.568L125.707 21.6993H124.193L122.665 26.5511C122.581 26.8241 122.501 27.0874 122.424 27.341C122.346 27.5958 122.261 27.877 122.166 28.1843C122.072 27.877 121.987 27.5958 121.917 27.341C121.846 27.0861 121.768 26.8238 121.685 26.5511L120.242 21.704H118.39L121.258 30.7236H122.914L124.446 25.8764C124.577 25.486 124.737 24.9594 124.927 24.2967C125.152 24.9594 125.325 25.486 125.443 25.8764L126.975 30.7236H128.65L131.5 21.704H129.683L128.24 26.5511Z" fill="#00A443"/>
<path d="M138.002 22.0994C137.352 21.7092 136.605 21.5091 135.846 21.5222C135.245 21.5147 134.648 21.6262 134.091 21.8502C133.568 22.0663 133.098 22.3912 132.711 22.8031C132.311 23.2298 132.005 23.7346 131.811 24.2854C131.596 24.9047 131.491 25.5566 131.5 26.2119C131.5 27.1489 131.69 27.9685 132.07 28.6706C132.43 29.3542 132.972 29.9258 133.637 30.3226C134.334 30.7272 135.129 30.9327 135.935 30.9166C136.451 30.9175 136.964 30.8427 137.457 30.6945C137.953 30.5454 138.414 30.2981 138.812 29.9674C139.243 29.6018 139.603 29.1592 139.871 28.6622L138.518 27.8273C138.35 28.1655 138.12 28.4696 137.841 28.724C137.589 28.9503 137.291 29.12 136.967 29.2216C136.633 29.3242 136.284 29.3751 135.933 29.3724C135.452 29.3805 134.978 29.2577 134.562 29.0173C134.146 28.7662 133.814 28.3968 133.61 27.9566C133.414 27.5356 133.301 27.0806 133.279 26.6167H140.014C140.026 26.5344 140.031 26.4514 140.031 26.3684V26.137C140.031 25.2137 139.85 24.406 139.489 23.7139C139.152 23.0495 138.637 22.4908 138.002 22.0994ZM133.949 23.8216C134.161 23.5488 134.44 23.3349 134.759 23.2004C135.098 23.0604 135.462 22.9909 135.828 22.9961C136.16 22.9875 136.49 23.0531 136.794 23.1882C137.098 23.3232 137.367 23.5243 137.582 23.7766C137.909 24.1514 138.119 24.6665 138.212 25.3218H133.33C133.357 25.1568 133.394 24.9937 133.441 24.8336C133.544 24.4671 133.717 24.1237 133.949 23.8216Z" fill="#00A443"/>
<path d="M145.355 21.5222C144.847 21.5144 144.348 21.6565 143.92 21.9308C143.499 22.2025 143.158 22.6166 142.897 23.1732V21.6993H141.151V30.7189H142.897V25.9074C142.897 25.1384 143.092 24.5231 143.484 24.0615C143.664 23.8398 143.892 23.6622 144.152 23.5421C144.411 23.4221 144.695 23.3629 144.981 23.3691H145.871V21.5222H145.355Z" fill="#00A443"/>
<path d="M21.9323 26.3019C21.9302 27.732 22.4955 29.1049 23.505 30.1211C25.4529 32.0626 28.0974 32.0588 29.7829 31.1462C31.8464 30.0302 36.4886 26.6832 31.6687 12.7996C31.6687 19.353 21.9323 20.0192 21.9323 26.3019Z" fill="#00A443"/>
<path d="M26.3657 18.5369C26.046 16.8194 25.5337 15.0606 24.7675 12.7996C24.7675 19.353 15.0302 20.0192 15.0302 26.3019C15.028 27.7316 15.5926 29.1043 16.601 30.1211C18.5489 32.0626 21.214 32.0569 22.8789 31.1462C19.0076 27.0318 20.3708 22.269 26.3657 18.5369Z" fill="#00A443"/>
<path d="M19.4636 18.5369C19.1439 16.8194 18.6307 15.0606 17.8654 12.7996C17.8654 19.353 8.12805 20.0192 8.12805 26.3019C8.12805 29.5242 10.7471 30.9428 10.7471 30.9428C10.3402 32.6657 10.2551 34.4486 10.4961 36.2022L11.7455 35.9952C11.1344 33.8775 11.5095 31.5716 11.5481 31.3458C13.1462 31.9839 14.7942 31.7946 15.9768 31.148C12.0999 27.0318 13.4687 22.2699 19.4636 18.5369Z" fill="#00A443"/>
</g>
<defs>
<clipPath id="clip0_9855_2575">
<rect width="153.4" height="39" fill="white" transform="translate(0.299988 5)"/>
</clipPath>
</defs>
</svg>
