<svg width="115" height="70" viewBox="0 0 115 70" fill="none" xmlns="http://www.w3.org/2000/svg">
<path d="M75.387 25.8248C75.3869 11.5622 63.8249 0.000131762 49.5623 0.000132386C35.2998 0.000133009 23.7377 11.5622 23.7377 25.8248C23.7377 40.0873 35.2998 51.6494 49.5623 51.6494C63.8249 51.6494 75.387 40.0873 75.387 25.8248Z" fill="#FFCD52"/>
<mask id="mask0_17584_4210" style="mask-type:alpha" maskUnits="userSpaceOnUse" x="0" y="32" width="109" height="38">
<path d="M0.0691293 69.3218C-0.119792 67.4813 0.0795577 65.6216 0.654292 63.863C1.22903 62.1043 2.16636 60.4859 3.40571 59.1121C4.64506 57.7384 6.15886 56.64 7.84926 55.8879C9.53967 55.1358 11.3691 54.7467 13.2192 54.7458C15.3269 54.7458 17.4036 55.2527 19.2743 56.2237C19.4554 50.402 21.7345 44.8418 25.6917 40.5678C29.6488 36.2939 35.0173 33.5941 40.8079 32.9661C46.5986 32.338 52.4211 33.8239 57.2025 37.1501C61.984 40.4762 65.4022 45.4184 66.8273 51.066C69.0726 49.2924 71.7324 48.1196 74.5562 47.6581C77.38 47.1967 80.2748 47.4617 82.9678 48.4284C85.6608 49.395 88.0634 51.0313 89.9492 53.1832C91.835 55.3351 93.1419 57.9316 93.7467 60.7282C95.2704 60.0853 96.9229 59.8062 98.5733 59.913C100.224 60.0198 101.826 60.5096 103.254 61.3436C104.683 62.1776 105.897 63.3327 106.801 64.7176C107.705 66.1024 108.274 67.6788 108.463 69.3218H0.0691293Z" fill="#D9D9D9"/>
</mask>
<g mask="url(#mask0_17584_4210)">
<path d="M0.0691293 69.3218C-0.119792 67.4813 0.0795577 65.6216 0.654292 63.863C1.22903 62.1043 2.16636 60.4859 3.40571 59.1121C4.64506 57.7384 6.15886 56.64 7.84926 55.8879C9.53967 55.1358 11.3691 54.7467 13.2192 54.7458C15.3269 54.7458 17.4036 55.2527 19.2743 56.2237C19.4554 50.402 21.7345 44.8418 25.6917 40.5678C29.6488 36.2939 35.0173 33.5941 40.8079 32.9661C46.5986 32.338 52.4211 33.8239 57.2025 37.1501C61.984 40.4762 65.4022 45.4184 66.8273 51.066C69.0726 49.2924 71.7324 48.1196 74.5562 47.6581C77.38 47.1967 80.2748 47.4617 82.9678 48.4284C85.6608 49.395 88.0634 51.0313 89.9492 53.1832C91.835 55.3351 93.1419 57.9316 93.7467 60.7282C95.2704 60.0853 96.9229 59.8062 98.5733 59.913C100.224 60.0198 101.826 60.5096 103.254 61.3436C104.683 62.1776 105.897 63.3327 106.801 64.7176C107.705 66.1024 108.274 67.6788 108.463 69.3218H0.0691293Z" fill="#D8F3FF"/>
<path d="M62.0246 58.1465L61.602 57.9975C62.6118 54.8719 64.574 52.1404 67.2138 50.1855L67.4749 50.5508C64.9104 52.4522 63.0047 55.1081 62.0246 58.1465Z" fill="#0DA9FF"/>
<path d="M89.5306 64.718L89.1241 64.5286C90.4548 61.6635 93.7479 60.2404 93.8879 60.1812L94.0629 60.5939C94.0306 60.6074 90.7877 62.0099 89.5306 64.718Z" fill="#0DA9FF"/>
<path d="M25.1847 62.3161C23.7678 59.6516 21.5908 57.4684 18.9304 56.0438L19.1233 55.6392C21.8834 57.0923 24.1366 59.3502 25.584 62.1133L25.1847 62.3161Z" fill="#0DA9FF"/>
<path d="M22.3858 65.018L22.0269 64.7488C22.8333 63.5553 23.9566 62.6105 25.2706 62.0207C26.5846 61.4308 28.0371 61.2193 29.4647 61.4099L29.419 61.8585C28.0688 61.679 26.6954 61.8796 25.4529 62.4377C24.2105 62.9958 23.1483 63.8894 22.3858 65.018Z" fill="#0DA9FF"/>
<path d="M66.0941 62.2477C64.6584 59.2686 59.7456 56.5587 55.3057 57.386L55.2241 56.9454C59.0466 56.2339 64.6772 58.2636 66.4988 62.0529L66.0941 62.2477Z" fill="#0DA9FF"/>
</g>
<mask id="mask1_17584_4210" style="mask-type:alpha" maskUnits="userSpaceOnUse" x="55" y="12" width="60" height="16">
<path d="M55.0681 27.7593C55.1862 25.6463 55.8991 23.6098 57.1246 21.8845C58.3502 20.1591 60.0384 18.8153 61.9946 18.008C63.9509 17.2007 66.0955 16.9628 68.1811 17.3217C70.2667 17.6806 72.2084 18.6217 73.7823 20.0364C75.0004 17.4923 76.975 15.3868 79.4358 14.0081C81.8966 12.6294 84.7234 12.0449 87.5292 12.3346C90.335 12.6243 92.9827 13.7741 95.1099 15.6265C97.2371 17.4789 98.7398 19.9435 99.4123 22.6829C100.649 21.7234 102.104 21.0856 103.647 20.8265C105.19 20.5673 106.774 20.695 108.256 21.198C109.737 21.701 111.071 22.5636 112.138 23.7087C113.205 24.8538 113.971 26.2455 114.368 27.7593H55.0681Z" fill="white"/>
</mask>
<g mask="url(#mask1_17584_4210)">
<path d="M55.0681 27.7593C55.1862 25.6463 55.8991 23.6098 57.1246 21.8845C58.3502 20.1591 60.0384 18.8153 61.9946 18.008C63.9509 17.2007 66.0955 16.9628 68.1811 17.3217C70.2667 17.6806 72.2084 18.6217 73.7823 20.0364C75.0004 17.4923 76.975 15.3868 79.4358 14.0081C81.8966 12.6294 84.7234 12.0449 87.5292 12.3346C90.335 12.6243 92.9827 13.7741 95.1099 15.6265C97.2371 17.4789 98.7398 19.9435 99.4123 22.6829C100.649 21.7234 102.104 21.0856 103.647 20.8265C105.19 20.5673 106.774 20.695 108.256 21.198C109.737 21.701 111.071 22.5636 112.138 23.7087C113.205 24.8538 113.971 26.2455 114.368 27.7593H55.0681Z" fill="#D8F3FF"/>
<path d="M76.6948 23.9571C75.9051 22.2884 74.7565 20.8147 73.331 19.6415L73.6259 19.272C75.1206 20.4919 76.32 22.0342 77.1343 23.7832L76.6948 23.9571Z" fill="#0DA9FF"/>
<path d="M97.1534 25.2935L96.7271 25.0884C97.4279 23.8833 98.3771 22.841 99.5115 22.0308L99.7847 22.4164C98.7187 23.1839 97.8229 24.1634 97.1534 25.2935Z" fill="#0DA9FF"/>
</g>
</svg>
