<svg width="83" height="74" viewBox="0 0 83 74" fill="none" xmlns="http://www.w3.org/2000/svg">
<path d="M12.0075 34.0802C16.9807 35.75 27.0406 36.738 27.4496 35.5264C27.8586 34.3147 31.884 31.3821 26.9108 29.708C19.9461 32.0506 4.14629 27.651 3.73949 28.8638C3.33269 30.0766 7.03429 32.4105 12.0075 34.0802Z" fill="#38424A"/>
<path d="M12.0079 34.0805C12.9709 33.7533 14.598 30.3015 9.93567 29.4825C6.48932 28.8815 3.72687 28.2566 3.55346 28.7703C3.15103 29.9809 6.73692 33.0084 12.0079 34.0805Z" fill="#5F6971"/>
<path d="M39.3952 45.312L47.5965 44.7754C47.5965 51.7553 41.0528 57.0066 36.8201 56.806C37.733 59.7834 37.6763 64.714 39.1868 67.4667C40.8816 70.5608 43.2646 67.434 46.3336 73.3899C44.7904 73.9504 42.1893 73.3429 40.2415 72.9536C36.1277 72.1302 36.9096 70.6535 35.9335 68.9783C33.7523 65.2244 32.822 61.2349 28.4279 59.407C29.0976 57.1593 29.9242 54.725 28.8292 52.0847L39.3952 45.312Z" fill="#38424A"/>
<path d="M22.085 53.1946C19.0312 53.5675 15.9111 52.9175 12.8966 53.4705C11.2803 56.8776 8.88851 59.8135 7.19151 60.8529C4.87831 61.4156 2.42662 62.9566 0 60.5257C0.541914 59.3807 1.3862 58.4056 2.44177 57.7054C3.49734 57.0052 4.72419 56.6066 5.98973 56.5525C7.57112 54.6723 8.73469 50.0339 8.72705 47.1285C12.4471 47.4557 15.3101 46.0783 17.7029 45.1055L22.085 53.1946Z" fill="#5F6971"/>
<path d="M62.9766 53.8035C62.7814 55.9095 59.9371 58.9742 58.8803 60.7955C57.6779 62.7877 56.6991 64.9065 55.9617 67.1135C55.6018 68.2651 55.4263 67.9947 55.3314 69.1584C55.3314 70.3275 58.8213 69.3372 60.7386 72.7388C57.0807 74.149 51.7258 72.6549 51.7258 72.6549C51.0354 71.7667 50.6719 70.6679 50.6963 69.5433C51.4597 63.9812 52.1478 58.7113 51.4924 53.075C51.1848 50.4227 49.6383 46.323 48.8749 43.7666L62.9766 53.8035Z" fill="#38424A"/>
<path d="M53.0292 26.0752C42.8995 33.3954 44.0763 27.9554 37.0876 26.8386C30.8994 25.8505 26.8097 29.4561 22.5825 33.4914C20.5779 35.4043 19.0195 38.1036 16.6572 39.5759C17.1037 39.7476 17.5387 39.9479 17.9594 40.1757C17.5081 40.7926 16.9055 41.2828 16.2099 41.5994C15.5142 41.9159 14.7489 42.048 13.9874 41.9829C14.8304 42.7169 15.6691 43.5512 16.4761 44.2634C16.0148 44.2132 15.4585 44.4662 14.9568 44.4269C16.6124 48.5931 18.3378 52.3797 22.9249 53.7866C27.6843 55.2437 31.0795 53.5336 35.1464 51.2629C37.2593 50.0576 39.5775 49.2552 41.9834 48.8963C41.7522 49.2562 71.0809 45.4314 71.852 45.2526L53.0292 26.0752Z" fill="#5F6971"/>
<path d="M62.0637 43.9265C59.9272 43.2885 52.6342 40.7822 52.6342 40.7822C53.9888 44.3638 53.6441 49.5988 52.7661 53.188C53.7996 52.3834 55.0005 51.8209 56.2802 51.5422C56.3663 51.5422 56.3663 51.5346 56.2802 51.5324C55.7349 51.8454 55.2986 52.3809 54.8209 52.7255C59.6741 52.8673 64.0017 55.9614 68.1112 58.2244C70.272 59.3935 72.3617 60.6896 74.3692 62.1059C77.1982 64.1258 77.305 64.116 77.5482 67.2973C77.7369 69.7664 80.0272 72.4613 82.7177 72.4362C82.8344 60.9695 72.0145 46.4872 70.5378 44.2885C70.5378 44.2885 68.4394 45.8274 62.0637 43.9265Z" fill="#5F6971"/>
<path d="M61.9351 15.9183C59.4038 22.7892 55.6095 21.8295 53.0312 26.0753C55.8996 35.1895 69.4635 40.78 72.3918 46.966C74.9569 43.7061 76.8034 42.1869 77.6966 37.9586C77.8056 38.577 78.1961 39.3339 78.315 40.0755C80.0294 36.688 79.7568 30.8347 79.2606 27.0971C79.7157 27.6884 80.1388 28.3036 80.5279 28.9403C80.5043 24.9755 79.9433 21.0323 78.8603 17.2183C78.1317 14.578 62.5797 14.1613 61.9351 15.9183Z" fill="#38424A"/>
<path d="M77.4314 3.97525L74.1661 0C73.2525 0.880449 72.4377 1.85795 71.7362 2.91519C72.8214 3.32526 74.9176 5.25565 75.91 5.88602L77.4314 3.97525Z" fill="#38424A"/>
<path d="M74.1663 0C74.0572 1.69482 74.9406 3.25107 75.2569 4.89572C76.342 4.48221 77.4034 4.0089 78.4361 3.47793C78.2001 2.67136 77.7617 1.93854 77.1627 1.34909C76.5637 0.759636 75.824 0.333107 75.0137 0.1101C74.8043 0.0566598 74.1663 0 74.1663 0Z" fill="#5F6971"/>
<path d="M64.2818 3.97525L67.5449 0C68.4595 0.880073 69.275 1.85761 69.9769 2.91519C68.8863 3.32526 66.7935 5.25565 65.8032 5.88602L64.2818 3.97525Z" fill="#38424A"/>
<path d="M67.5451 0C67.6542 1.69482 66.774 3.25107 66.4545 4.89572C65.3698 4.48198 64.3089 4.00867 63.2765 3.47793C63.5119 2.67124 63.9498 1.93827 64.5487 1.34876C65.1476 0.759243 65.8874 0.332796 66.6977 0.1101C66.9027 0.0566598 67.5451 0 67.5451 0Z" fill="#5F6971"/>
<path d="M63.0344 9.85105C62.6941 10.1172 62.2426 10.2786 61.8925 10.5436C62.1685 8.42235 66.1787 4.37506 68.2749 3.81885L70.9424 21.7376L73.608 3.81885C75.7053 4.37506 79.7154 8.42235 79.9881 10.5436C79.6402 10.2786 79.1887 10.1172 78.8462 9.85105C81.5291 12.5776 81.5084 15.7818 81.0274 19.3503C81.0927 18.9096 81.03 18.4595 80.8466 18.0534C80.6633 17.6474 80.3673 17.3025 79.9935 17.06C80.2117 19.0231 78.6302 20.3679 77.9781 22.0769C78.0844 21.4262 78.0777 20.7621 77.9584 20.1138C77.1261 21.4447 76.0767 22.6266 74.8535 23.6103C74.9253 23.271 74.9785 22.928 75.0127 22.5829C73.7534 23.5545 72.4108 24.4129 71.0004 25.148L71.0155 25.2309C70.9905 25.2178 70.9654 25.2004 70.9403 25.1862C70.9131 25.2004 70.8891 25.2178 70.864 25.2309C70.836 25.1873 70.8119 25.1414 70.792 25.0935C69.4094 24.379 68.0952 23.5394 66.8658 22.5851C66.8982 22.9303 66.9506 23.2734 67.0228 23.6125C65.8008 22.6282 64.7521 21.4463 63.92 20.1159C63.8013 20.7643 63.7947 21.4284 63.9004 22.0791C63.2461 20.3744 61.6679 19.0253 61.886 17.0622C61.5122 17.3047 61.2159 17.6495 61.0324 18.0555C60.8489 18.4615 60.786 18.9117 60.8511 19.3525C60.3766 15.7862 60.3548 12.5852 63.0344 9.85105Z" fill="#5F6971"/>
<path d="M64.6147 10.9826C64.6147 15.4846 67.3991 22.3828 70.8465 22.3828C74.2939 22.3828 77.099 15.4846 77.099 10.9826C77.099 6.4805 74.3049 2.8335 70.8564 2.8335C67.4078 2.8335 64.6147 6.48159 64.6147 10.9826Z" fill="#38424A"/>
<path d="M64.6147 10.9824C64.6147 15.4845 67.3991 22.3827 70.8465 22.3827C74.2939 22.3827 77.099 15.4845 77.099 10.9824C77.099 6.48039 73.2481 2.3666 70.8564 4.75941C69.4789 2.17901 64.6147 6.48148 64.6147 10.9824Z" fill="#38424A"/>
<path d="M72.2597 5.87061C73.1657 6.56514 74.1656 6.42444 74.1656 7.15605C73.6869 6.71229 73.3097 7.1779 71.8432 6.46155L72.2597 5.87061Z" fill="#5F6971"/>
<path d="M68.325 5.87061C69.23 6.56514 70.2298 6.42444 70.2298 7.15605C69.7511 6.71229 69.3738 7.1779 67.9084 6.46155L68.325 5.87061Z" fill="#5F6971"/>
<path d="M69.7874 11.6802C69.024 11.8634 68.2606 13.0424 67.8374 12.9061C67.6531 12.8483 67.6062 12.1589 67.4011 12.5952C66.2767 15.0425 68.5223 17.6426 69.8376 17.335C70.6915 17.1365 71.5302 14.9357 71.2891 14.0741C71.091 13.3737 70.9453 12.6596 70.853 11.9376L69.7874 11.6802Z" fill="#FFFEFF"/>
<path d="M72.4462 11.6802C73.2096 11.8634 73.973 13.0424 74.3962 12.9061C74.5805 12.8483 74.6274 12.1589 74.8325 12.5952C75.9591 15.0425 73.7135 17.6426 72.396 17.335C71.5453 17.1365 70.7067 14.9357 70.9466 14.0741C71.1415 13.3733 71.2852 12.6592 71.3764 11.9376L72.4462 11.6802Z" fill="#FFFEFF"/>
<path d="M71.1038 12.5775C71.7669 12.5775 72.4638 11.6865 72.4463 11.6821C70.5628 11.0278 71.7222 8.62842 70.9969 8.62842C70.5138 8.62842 71.7745 10.9612 69.7885 11.6821C69.771 11.6876 70.4211 12.5775 71.1038 12.5775Z" fill="#FFFEFF"/>
<path d="M72.8978 12.4367C71.7447 11.9864 70.4631 11.9934 69.3151 12.4563C69.2234 12.5109 68.5898 12.8925 69.6772 13.3419C69.9494 13.4579 70.1844 13.6465 70.3565 13.8872C70.4199 14.0364 70.526 14.1635 70.6614 14.2526C70.7969 14.3416 70.9557 14.3885 71.1178 14.3875C71.2799 14.3864 71.4381 14.3375 71.5724 14.2467C71.7067 14.1559 71.8111 14.0274 71.8725 13.8774C72.0417 13.6344 72.2756 13.4436 72.5476 13.3266C73.6295 12.8577 72.9872 12.488 72.8978 12.4367Z" fill="#5F6971"/>
</svg>
