<svg width="95" height="96" viewBox="0 0 95 96" fill="none" xmlns="http://www.w3.org/2000/svg">
<path d="M81.4226 61.4391C88.7138 42.6005 79.3528 21.4181 60.5142 14.1269C41.6756 6.83562 20.4932 16.1966 13.202 35.0352C5.91072 53.8738 15.2717 75.0562 34.1103 82.3475C52.9489 89.6387 74.1313 80.2777 81.4226 61.4391Z" fill="#B4DEF7"/>
<path d="M78.6028 29.2902C78.0271 29.6887 77.4018 30.0103 76.7427 30.2467C76.9256 30.4475 77.0465 30.6969 77.0907 30.9648C77.0983 31.031 77.0921 31.0981 77.0727 31.1618C77.0533 31.2255 77.021 31.2845 76.9779 31.3353C76.9347 31.386 76.8816 31.4274 76.8218 31.4568C76.762 31.4862 76.6969 31.503 76.6303 31.5061C76.5296 31.4786 76.4361 31.4292 76.3566 31.3615C76.277 31.2938 76.2134 31.2094 76.17 31.1144C75.3554 29.8408 74.3144 28.4332 72.8049 28.3422C72.6559 28.3223 72.5045 28.3501 72.3723 28.4217C72.1593 28.5597 72.1206 28.848 72.0776 29.0983C71.9542 29.7696 71.6605 30.3979 71.2245 30.9231C70.7886 31.4483 70.225 31.8526 69.5879 32.0975C69.3213 32.151 69.0856 32.3053 68.93 32.5283C68.8729 32.693 68.8624 32.8704 68.8997 33.0407C69.2311 35.8383 68.8442 38.6742 67.7755 41.2808C67.5824 41.7473 67.3665 42.2318 67.4213 42.7331C67.5358 43.7651 68.7226 44.365 69.0155 45.3612C69.325 46.4133 68.5436 47.5313 68.7605 48.6066C68.8958 49.2817 69.3982 49.814 69.8801 50.3062C70.3337 50.771 70.7875 51.2359 71.2415 51.7009C71.575 52.0803 71.966 52.4049 72.4002 52.663C73.583 53.2847 75.0203 52.839 76.2766 52.3842C77.3837 51.9837 78.6383 51.4296 78.9423 50.2925C79.9431 48.9184 81.0042 51.9873 81.0054 52.5982C81.0091 53.6992 81.2176 54.7899 81.6203 55.8145C81.8115 56.3001 82.0699 56.7464 82.2978 57.2142C82.3853 57.3934 82.5021 57.5569 82.6433 57.6978C84.8147 49.6398 84.1529 41.0804 80.7685 33.452C80.1356 32.0202 79.4123 30.6301 78.6028 29.2902Z" fill="#00A443"/>
<path d="M41.458 83.1329C41.5204 82.8326 41.6512 82.5508 41.8403 82.3094C42.0293 82.0679 42.2714 81.8733 42.5479 81.7406C43.1019 81.4804 43.6822 81.2806 44.279 81.1445C45.6664 80.7396 47.0214 80.0656 47.9406 78.9514C48.6513 78.0904 49.1015 76.974 50.0407 76.3701C50.8061 75.8783 51.7651 75.816 52.6146 75.4894C53.7506 75.0528 54.6437 74.1646 55.5008 73.3005C55.6829 73.1466 55.8204 72.9468 55.8992 72.7218C55.9318 72.5457 55.9251 72.3646 55.8798 72.1914C55.6852 71.204 55.3464 70.0113 56.0816 69.3224C56.4158 69.0092 56.8926 68.9044 57.2786 68.6577C58.1802 68.0805 58.4084 66.8832 58.5264 65.8194C58.5821 65.3199 58.6228 64.7802 58.3646 64.3494C58.2478 64.1694 58.1016 64.0102 57.932 63.8787C57.3501 63.4019 56.669 63.0613 55.9385 62.8817C55.2079 62.7021 54.4465 62.6881 53.7098 62.8408C53.2868 62.9316 52.8346 63.0758 52.437 62.906C51.9825 62.7113 51.7806 62.185 51.4194 61.8465C50.6551 61.1283 49.3896 61.3921 48.4553 60.9165C47.8572 60.612 47.4557 60.0376 47.0333 59.5148C46.395 58.7251 45.6625 58.0163 44.8522 57.4044C44.6077 57.1914 44.3132 57.0439 43.9962 56.9755C43.5263 56.9102 43.0768 57.1696 42.6083 57.2446C41.7682 57.3791 40.9417 56.9077 40.3274 56.3177C39.7132 55.7276 39.231 55.0092 38.5863 54.4538C38.0649 54.0111 37.4544 53.6856 36.7961 53.4995C36.1379 53.3135 35.4473 53.2711 34.7713 53.3753C34.3393 53.479 33.8989 53.5445 33.4554 53.5711C32.9458 53.5154 32.4425 53.4118 31.9523 53.2617C31.2785 53.1265 30.5824 53.1514 29.9199 53.3342C29.2575 53.5171 28.6472 53.8529 28.1381 54.3146C27.62 53.7273 26.8708 53.2537 26.1205 53.4811C25.9287 53.5733 25.7238 53.6351 25.513 53.6645C25.2707 53.6313 25.05 53.5073 24.8956 53.3176C24.2428 52.6681 23.7074 51.6587 24.1652 50.86C24.3221 50.5861 24.5767 50.3811 24.7554 50.121C24.8566 49.9994 24.9179 49.8496 24.9307 49.6919C24.9434 49.5342 24.9072 49.3765 24.8268 49.2402C24.7204 49.1271 24.5886 49.0409 24.4424 48.9887L21.9648 47.8803C21.8451 47.8403 21.7402 47.7652 21.6638 47.6647C21.6313 47.5948 21.6144 47.5186 21.6145 47.4415C21.6145 47.3644 21.6314 47.2883 21.664 47.2184C21.8386 46.7303 22.2408 46.3594 22.4813 45.9002C22.7219 45.441 22.7277 44.7606 22.2694 44.5172C21.8931 44.3168 21.4292 44.5291 21.0961 44.7955C20.7629 45.0619 20.4515 45.3976 20.0332 45.4802C19.8038 45.5107 19.5705 45.4774 19.3588 45.3842C19.147 45.2909 18.965 45.1412 18.8327 44.9515C18.5735 44.5667 18.4259 44.1176 18.4061 43.6541C18.3321 42.519 18.6266 41.3904 19.2457 40.4362C19.8648 39.4819 20.7754 38.753 21.8421 38.358C22.0403 38.2749 22.2569 38.2454 22.4701 38.2724C22.6625 38.3103 22.8398 38.43 23.0353 38.4219C23.237 38.3744 23.4329 38.305 23.6195 38.215C23.8353 38.177 24.0573 38.1962 24.2633 38.2708C24.8376 38.4309 25.3979 38.6377 25.9384 38.8893C26.2635 39.0405 26.6235 39.2687 26.6469 39.6266C26.6322 39.8265 26.5854 40.0228 26.5082 40.2078C26.3685 40.7333 26.5872 41.2804 26.8016 41.7802C26.8185 41.8394 26.8469 41.8946 26.8852 41.9427C26.9235 41.9908 26.9709 42.0309 27.0247 42.0606C27.2154 42.1327 27.3974 41.9393 27.4963 41.7601C27.7474 41.3037 27.8935 40.7971 27.924 40.2771C27.9546 39.7571 27.8688 39.2369 27.6729 38.7542C27.5614 38.4853 27.4132 38.1909 27.5153 37.9181C27.6029 37.7413 27.7412 37.5946 27.9127 37.4968C28.8846 36.8153 29.8858 36.1783 30.9162 35.586C31.1122 35.5002 31.2748 35.3529 31.3794 35.1663C31.4264 34.9787 31.4429 34.7847 31.4284 34.5918C31.464 34.0887 31.8582 33.6838 32.2784 33.4054C32.7226 33.1666 33.1429 32.886 33.5338 32.5674C33.9528 32.1556 34.1726 31.5855 34.525 31.1159C35.1991 30.2151 36.2931 29.751 37.3348 29.3262C37.8562 29.8514 38.7422 29.7485 39.4121 29.4344C40.0819 29.1202 40.6823 28.635 41.4045 28.474C41.1764 27.9836 40.56 27.9335 40.05 28.114C39.7072 28.2348 39.3252 28.4344 39.0066 28.2597C38.9294 28.2127 38.8627 28.1502 38.8108 28.0762C38.7588 28.0022 38.7227 27.9182 38.7047 27.8296C38.6717 27.6254 38.6916 27.4162 38.7625 27.222C38.8335 27.0277 38.9532 26.8549 39.11 26.7202C39.4266 26.4547 39.7868 26.2462 40.1747 26.1041L42.5766 25.0641C42.2479 25.8156 41.6814 26.4384 40.9643 26.8365C40.9455 27.1901 41.342 27.4319 41.6958 27.4494C42.0497 27.4668 42.4001 27.3473 42.7533 27.373C42.9873 27.3903 43.2135 27.4706 43.4466 27.4825C43.5632 27.4975 43.6816 27.4792 43.7882 27.4296C43.8947 27.38 43.985 27.3012 44.0486 27.2024C44.0898 27.0932 44.0958 26.9738 44.0657 26.8611C44.0355 26.7483 43.9707 26.6479 43.8805 26.5739C43.6969 26.4297 43.4845 26.3266 43.2576 26.2715C43.3445 25.8551 43.4057 25.4338 43.4409 25.0099C43.4815 24.5174 43.4349 23.9241 43.0062 23.6789C42.6669 23.4852 42.1922 23.5875 41.9036 23.3238C41.8121 23.2295 41.7381 23.1198 41.6849 22.9997C41.2591 22.1706 40.8333 21.3416 40.4073 20.5126C40.1472 20.5674 39.916 20.7153 39.7573 20.9286C39.7132 21.0046 39.6536 21.0705 39.5824 21.122C39.5202 21.1524 39.4514 21.1667 39.3823 21.1634C39.1762 21.1636 38.9729 21.1163 38.788 21.0252C38.6031 20.9341 38.4417 20.8017 38.3163 20.6382C38.2132 20.4682 38.0968 20.3066 37.968 20.1551C37.8071 20.0226 37.6082 19.9446 37.4001 19.9324C37.1919 19.9203 36.9853 19.9746 36.8101 20.0876C36.4632 20.3232 36.2072 20.6703 36.0845 21.0713C36.1169 21.1088 36.1386 21.1543 36.1475 21.203C36.1563 21.2517 36.152 21.3019 36.135 21.3484C36.118 21.3949 36.0888 21.436 36.0506 21.4674C36.0123 21.4989 35.9663 21.5195 35.9174 21.5272C35.5608 21.7294 35.5766 22.2633 35.3455 22.6015C35.2101 22.7666 35.0285 22.8875 34.824 22.9487C34.6195 23.01 34.4013 23.0089 34.1975 22.9455C33.7921 22.8115 33.4182 22.5965 33.0985 22.3135L32.3107 21.7056C32.0179 21.4793 31.6995 21.2079 31.6767 20.8371C31.6539 20.4584 31.9538 20.1437 32.2399 19.896C34.1613 18.2409 36.5199 17.176 39.0321 16.8295C39.1428 17.0058 39.2539 17.1826 39.3654 17.3598C39.0895 17.6955 38.7279 17.9502 38.3189 18.0968C38.229 18.4495 38.5292 18.7744 38.8161 18.999C39.3023 19.3791 39.8908 19.7219 40.5008 19.6301C41.1107 19.5384 41.6215 18.8004 41.2806 18.2861L42.115 17.9281C42.2069 17.8998 42.2873 17.8427 42.3444 17.7653C42.442 17.5935 42.2818 17.3903 42.1237 17.2716C41.8096 17.0364 41.4523 16.8654 41.0721 16.7683C41.1553 16.5043 41.1373 16.2187 41.0216 15.9671C40.906 15.7156 40.7009 15.516 40.4463 15.4073C41.0979 14.7595 41.836 14.2051 42.6395 13.7596C42.7072 14.2233 43.1719 14.5124 43.6043 14.6917C44.0367 14.871 44.523 15.0332 44.7698 15.4318C45.1497 16.0489 44.7546 16.8937 45.0388 17.5605C45.2769 18.1193 45.9186 18.3919 46.2634 18.8928C46.3692 19.1098 46.5189 19.3025 46.7029 19.4587C47.0372 19.6626 47.4628 19.4607 47.8005 19.2623C48.0377 19.1444 48.2463 18.9761 48.4118 18.7692C48.4921 18.664 48.5368 18.536 48.5395 18.4037C48.5421 18.2713 48.5026 18.1416 48.4265 18.0333L51.7847 16.1807C51.4856 15.3387 51.0042 14.5731 50.3749 13.9387C49.7457 13.3043 48.9841 12.8167 48.1445 12.5108C47.9406 12.0674 47.3224 12.0522 46.8418 12.1344C46.1034 12.2607 45.3784 12.4556 44.6762 12.7167C44.472 12.8248 44.2344 12.8516 44.0112 12.7916C43.8618 12.7018 43.7329 12.5818 43.6326 12.4393C43.3905 12.1893 43.0793 12.0175 42.7388 11.9458C33.1071 13.1685 24.3533 18.1609 18.397 25.8282C18.0534 28.5255 16.4756 30.9605 15.9324 33.6434C15.702 35.012 15.6075 36.4 15.6503 37.7872L15.6406 42.4625C15.6128 43.0713 15.6654 43.6811 15.7971 44.2761C16.1843 45.7195 17.4351 46.7386 18.6153 47.6551L19.5718 48.3976C20.3556 49.0064 21.1402 49.6157 21.8823 50.2748C22.138 50.4694 22.3404 50.7252 22.4709 51.0187C22.6011 51.3884 22.5044 51.8068 22.624 52.1796C22.7608 52.506 22.9782 52.7924 23.2559 53.0118C23.984 53.6933 24.712 54.3749 25.4399 55.0565C25.6031 55.2089 25.8454 55.3687 26.0268 55.2394C26.2014 55.1146 26.1637 54.8103 26.3446 54.6951C26.5607 54.5584 26.804 54.8192 26.9259 55.0429C27.1408 55.4365 27.3557 55.8302 27.5708 56.2242C27.7394 56.4891 27.8521 56.7858 27.902 57.0959C27.9075 57.4661 27.8157 57.8312 27.6359 58.1548C27.1458 59.2086 26.5103 60.1946 26.0978 61.2814C25.6852 62.3682 25.5141 63.6122 25.9756 64.6788C27.1219 67.3289 29.7579 69.2573 32.1896 70.8138C32.6505 71.0819 33.0857 71.3919 33.4896 71.74C34.6271 72.8079 34.9517 74.4808 35.0024 76.0404C35.0296 76.8718 34.9993 77.7248 35.2737 78.5099C35.8192 80.0701 37.4695 81.0927 37.8542 82.7C37.8904 83.0039 37.9856 83.2977 38.1346 83.565C38.1676 83.6063 38.2042 83.6445 38.244 83.6792C39.4616 83.991 40.6945 84.2401 41.9377 84.4255C41.6293 84.0653 41.4592 83.6071 41.458 83.1329Z" fill="#00A443"/>
</svg>
