<svg width="65" height="80" viewBox="0 0 65 80" fill="none" xmlns="http://www.w3.org/2000/svg">
<path d="M49.4649 17.2773H37.5244L37.7667 18.2844H46.3543L48.6202 27.6949H40.0326L40.275 28.7019H48.8614L51.127 38.1124H42.5394L42.7412 38.951L37.5229 17.2773H34.1714L49.0696 79.1532H52.4237L45.1679 49.0193L45.2929 49.5378H53.8805L56.1461 58.9486H47.5585L47.8011 59.9554H56.3887L58.6543 69.3661H50.0659L50.3082 70.3729H58.8958L61.0101 79.1543H64.3631L49.4649 17.2773ZM45.0491 48.5299L42.7832 39.1195H51.3725L53.6381 48.5299H45.0491Z" fill="#00402A" stroke="#FFFEFF" stroke-width="0.5" stroke-linejoin="round"/>
<path d="M28.2217 79.1532H29.1199L44.018 17.2773H43.1199L28.2217 79.1532Z" fill="#00402A" stroke="#FFFEFF" stroke-width="0.5" stroke-linejoin="round"/>
<path d="M31.5752 79.1532H29.1201L44.0183 17.2773H46.4731L31.5752 79.1532Z" fill="#00402A" stroke="#FFFEFF" stroke-width="0.5" stroke-linejoin="round"/>
<path d="M16.2812 79.1535H17.18L32.0779 17.278H31.1794L16.2812 79.1535Z" fill="#00402A" stroke="#FFFEFF" stroke-width="0.5" stroke-linejoin="round"/>
<path d="M19.6344 79.1529H17.1802L32.0781 17.2773H34.5329L19.6344 79.1529Z" fill="#00402A" stroke="#FFFEFF" stroke-width="0.5" stroke-linejoin="round"/>
<path d="M31.8354 18.2844H42.8778L43.1202 17.2773H32.0778L31.8354 18.2844Z" fill="#00402A" stroke="#FFFEFF" stroke-width="0.5" stroke-linejoin="round"/>
<path d="M29.3271 28.7017H40.3695L40.6119 27.6946H29.5698L29.3271 28.7017Z" fill="#00402A" stroke="#FFFEFF" stroke-width="0.5" stroke-linejoin="round"/>
<path d="M26.8188 39.1194H37.8612L38.1036 38.1123H27.0615L26.8188 39.1194Z" fill="#00402A" stroke="#FFFEFF" stroke-width="0.5" stroke-linejoin="round"/>
<path d="M24.3105 49.5366H35.3529L35.5953 48.5295H24.5529L24.3105 49.5366Z" fill="#00402A" stroke="#FFFEFF" stroke-width="0.5" stroke-linejoin="round"/>
<path d="M21.8022 59.9551H32.8446L33.087 58.948H22.0446L21.8022 59.9551Z" fill="#00402A" stroke="#FFFEFF" stroke-width="0.5" stroke-linejoin="round"/>
<path d="M19.2939 70.3718H30.336L30.5784 69.3647H19.5363L19.2939 70.3718Z" fill="#00402A" stroke="#FFFEFF" stroke-width="0.5" stroke-linejoin="round"/>
<path d="M17.0017 17.8C17.3074 18.0954 17.5784 18.3474 17.8766 18.6073C18.1669 18.8665 18.4668 19.1136 18.7657 19.3617C19.3718 19.8512 19.9913 20.3309 20.6482 20.7802C21.3176 21.2514 22.0158 21.6801 22.7388 22.0638C23.1308 22.2747 23.5346 22.4627 23.9483 22.6269C24.4423 22.8247 24.9571 22.966 25.4828 23.0481L25.6056 23.0664C25.6885 23.0781 25.7724 23.0813 25.856 23.076C26.3923 23.0393 26.9172 22.904 27.4045 22.6769C27.7716 22.5095 28.1251 22.3136 28.4618 22.091C29.0516 21.6982 29.6093 21.2591 30.1297 20.7781C30.63 20.3157 31.0964 19.8404 31.5371 19.3447C31.981 18.8487 32.3975 18.3289 32.7847 17.7875C32.9303 17.5818 33 17.332 32.9821 17.0807C32.9642 16.8294 32.8598 16.592 32.6866 16.409C32.5135 16.2261 32.2823 16.1088 32.0324 16.0773C31.7825 16.0458 31.5295 16.1018 31.3163 16.236L31.2867 16.255L29.7339 17.2338C29.2166 17.5564 28.7033 17.8733 28.1922 18.1616C27.711 18.443 27.2142 18.6969 26.7042 18.922C26.4957 19.0165 26.2791 19.0921 26.0571 19.148C25.8764 19.192 25.7238 19.1961 25.7728 19.1699L26.1463 19.1975C25.9473 19.1242 25.7538 19.0367 25.5674 18.9357C25.3271 18.8054 25.0628 18.6539 24.7984 18.4825C24.5341 18.3111 24.2621 18.1243 23.9922 17.9259C23.7195 17.7322 23.4463 17.5278 23.1752 17.3158C22.6331 16.8909 22.0859 16.4502 21.5472 15.9956L20.7391 15.3104L19.9535 14.6346L19.9153 14.6019C19.4887 14.2337 18.9353 14.0466 18.373 14.0804C17.8106 14.1143 17.2836 14.3663 16.9041 14.783C16.5247 15.1996 16.3227 15.748 16.3412 16.3113C16.3597 16.8747 16.5972 17.4086 17.0031 17.7995L17.0017 17.8Z" fill="#00402A" stroke="#FFFEFF" stroke-width="0.5" stroke-linejoin="round"/>
<path d="M31.7028 17.9002L34.1133 18.1478L33.5883 15.2871C33.5883 15.2871 31.3777 15.328 31.2096 16.5062L31.7028 17.9002Z" fill="#00402A" stroke="#FFFEFF" stroke-width="0.5" stroke-linejoin="round"/>
<path d="M36.0782 16.5739L35.7253 15.6027C35.6571 15.4156 35.5247 15.2588 35.3517 15.1601C35.1788 15.0615 34.9765 15.0274 34.7808 15.064L33.5885 15.2883L34.1135 18.1481L35.5592 17.6564C35.665 17.6203 35.7624 17.5635 35.846 17.4893C35.9295 17.415 35.9974 17.3249 36.0457 17.2241C36.094 17.1233 36.1218 17.0139 36.1274 16.9023C36.133 16.7907 36.1163 16.679 36.0782 16.5739Z" fill="#00402A" stroke="#FFFEFF" stroke-width="0.5" stroke-linejoin="round"/>
<path d="M33.3701 17.5368C32.7384 18.0318 31.6866 19.5393 31.4749 19.9891C29.8822 19.407 29.0873 17.9022 29.3014 17.3558C30.3897 16.5176 31.3252 15.9541 32.0144 15.8202C33.1402 16.0587 33.3701 17.5368 33.3701 17.5368Z" fill="#00402A" stroke="#FFFEFF" stroke-width="0.5" stroke-linejoin="round"/>
<path d="M15.2892 15.3972C15.6422 16.5795 16.4141 18.2372 17.5942 18.9184C18.7743 19.5995 20.8159 22.1679 22.3761 22.8454C24.8726 21.5659 25.0045 19.3009 24.7106 18.1331C23.198 16.1285 20.4364 13.1889 19.0016 12.7994C17.7525 12.4604 16.6724 14.4213 15.2892 15.3972Z" fill="#00402A" stroke="#FFFEFF" stroke-width="0.5" stroke-linejoin="round"/>
<path d="M15.5674 6.04647C14.7485 6.38666 14.2609 6.2566 14.2609 6.2566C14.2609 6.2566 14.7377 5.63895 14.7494 5.33025C14.6822 5.43159 14.5936 5.5169 14.4898 5.58013C14.386 5.64337 14.2695 5.68299 14.1487 5.69618C14.5219 4.37578 13.7061 3.85191 13.9725 3.33741C14.4772 2.36226 16.3359 2.35168 16.1686 3.40376C16.9376 3.81031 17.0806 4.78233 17.0806 4.78233C16.9533 4.57898 16.7769 4.41103 16.5675 4.29404C16.8881 5.0492 16.729 6.11836 16.1754 6.92136C16.0702 6.92279 15.9664 6.89839 15.8729 6.85029C15.7794 6.8022 15.6991 6.73189 15.6391 6.64552C15.579 6.55915 15.5411 6.45937 15.5286 6.35493C15.5161 6.25048 15.5295 6.14457 15.5674 6.04647Z" fill="#00402A" stroke="#FFFEFF" stroke-width="0.5" stroke-linejoin="round"/>
<path d="M5.94096 38.8434L5.21699 38.657C4.70289 38.5246 4.3934 38.0003 4.52572 37.4859L5.66379 33.0621C5.79611 32.5477 6.32013 32.2381 6.83423 32.3705L7.5582 32.5569C8.0723 32.6893 8.38179 33.2136 8.24947 33.728L7.11141 38.1518C6.97908 38.6661 6.45506 38.9758 5.94096 38.8434Z" fill="#00402A" stroke="#FFFEFF" stroke-width="0.5" stroke-linejoin="round"/>
<path d="M7.69629 32.2551C6.68954 31.5532 6.10207 31.5625 5.71234 31.8452C5.32262 32.1279 5.23179 33.8446 4.68156 34.754C5.42713 35.0997 7.69629 32.2551 7.69629 32.2551Z" fill="#00402A" stroke="#FFFEFF" stroke-width="0.5" stroke-linejoin="round"/>
<path d="M8.97539 12.3573C11.7746 12.0481 14.5983 12.0298 17.4012 12.3027C18.5542 12.4257 19.6207 12.9718 20.3947 13.8355C21.1688 14.6993 21.5954 15.8193 21.5923 16.9794C21.5788 21.2914 20.4506 27.582 19.7321 34.2032C13.1669 36.4071 7.63044 34.0916 7.63044 34.0916C7.48385 32.5794 7.56604 28.0861 8.07331 25.4415C7.70037 22.7113 6.75455 19.5851 6.22037 15.9593C6.16002 15.5411 6.18378 15.1151 6.29026 14.7062C6.39673 14.2974 6.58378 13.9139 6.84042 13.5784C7.09707 13.2428 7.41813 12.962 7.78475 12.7523C8.15138 12.5426 8.55618 12.4083 8.97539 12.3573Z" fill="#00402A" stroke="#FFFEFF" stroke-width="0.5" stroke-linejoin="round"/>
<path d="M11.5126 7.13525C11.6042 8.8582 11.3046 10.5795 10.6365 12.1701C11.5213 12.9931 12.9558 14.0142 14.8672 13.9865C16.7785 13.9589 16.4632 12.9806 15.9504 12.3142C14.5807 11.6229 14.4933 10.6086 14.8283 9.9941L11.5126 7.13525Z" fill="#00402A" stroke="#FFFEFF" stroke-width="0.5" stroke-linejoin="round"/>
<path opacity="0.2" d="M11.5135 7.13623L14.8296 9.99484C14.7272 10.1841 14.6708 10.3948 14.665 10.6099C14.6591 10.825 14.704 11.0385 14.7959 11.233C14.1144 11.2725 13.4431 11.0526 12.9168 10.6175C12.0638 9.93233 11.7562 9.10287 11.5159 7.92722C11.5231 7.67718 11.5207 7.41512 11.5135 7.13623Z" fill="#00402A" stroke="#FFFEFF" stroke-width="0.5" stroke-linejoin="round"/>
<path d="M10.439 5.71291C10.8151 7.85794 10.9263 9.13361 12.1427 10.1097C13.9721 11.5785 16.5277 10.2634 16.8002 8.04331C17.0453 6.04493 16.3888 2.87257 14.1768 2.27032C13.6871 2.13682 13.1714 2.12987 12.6782 2.25013C12.185 2.37039 11.7303 2.61392 11.3568 2.95791C10.9834 3.3019 10.7032 3.7351 10.5427 4.21694C10.3822 4.69878 10.3465 5.21351 10.439 5.71291Z" fill="#00402A" stroke="#FFFEFF" stroke-width="0.5" stroke-linejoin="round"/>
<path d="M10.501 6.44493C11.3521 6.69449 11.8226 6.51249 11.8226 6.51249C11.8226 6.51249 11.282 5.94991 11.2368 5.64433C11.3144 5.73776 11.4116 5.81296 11.5216 5.86461C11.6315 5.91625 11.7514 5.94307 11.8729 5.94317C11.3589 4.67111 12.1132 4.06188 11.7926 3.57912C11.1859 2.66552 9.06257 3.01485 9.343 4.04337C9.13789 4.18556 8.98137 4.38734 8.8946 4.62143C8.80783 4.85551 8.795 5.1106 8.85783 5.35222C8.95631 5.17299 9.10288 5.02486 9.281 4.92451C9.04407 5.71021 8.83789 6.37401 9.98916 7.38065C10.0941 7.37107 10.195 7.33582 10.283 7.27802C10.3711 7.22022 10.4436 7.14164 10.4942 7.04919C10.5448 6.95675 10.5718 6.85329 10.573 6.74791C10.5742 6.64254 10.5495 6.53849 10.501 6.44493Z" fill="#00402A" stroke="#FFFEFF" stroke-width="0.5" stroke-linejoin="round"/>
<path d="M10.3461 0.667802C10.2635 0.709753 8.32585 1.90686 8.33862 3.65248C8.3514 5.39811 8.67084 5.82558 8.67084 5.82558C8.60714 5.90588 8.55514 5.99479 8.51637 6.08967C8.46432 6.22238 8.7616 6.67154 9.0167 6.52164C10.7563 4.90763 13.1535 3.98068 15.8883 3.13393L17.9513 2.39545C18.5547 2.26336 18.7054 2.03926 18.4106 1.97791C18.1846 1.93059 16.3109 1.83597 16.3109 1.83597L15.9063 1.71138L14.6426 0.819362C14.6426 0.819362 14.6915 0.617965 14.435 0.552436C14.1786 0.486907 11.9778 -0.160259 10.3461 0.667802Z" fill="#00402A" stroke="#FFFEFF" stroke-width="0.5" stroke-linejoin="round"/>
<path d="M15.9062 1.71155C15.9062 1.71155 15.8788 1.72251 15.8257 1.73994L15.5926 1.81438C15.3891 1.87486 15.0992 1.97729 14.7432 2.10859C13.8198 2.46305 12.9292 2.89779 12.0818 3.40781C11.2353 3.91972 10.4187 4.47945 9.6359 5.08428C9.33317 5.31359 9.0918 5.50434 8.92462 5.63492L8.73151 5.78475C8.68719 5.81882 8.66266 5.83522 8.66266 5.83522C8.66266 5.83522 8.68403 5.81495 8.72693 5.77899L8.91563 5.62333C9.08044 5.48928 9.31914 5.29537 9.62005 5.06346C10.3992 4.45167 11.215 3.88811 12.0629 3.37595C12.9119 2.86446 13.806 2.43197 14.7341 2.0839C15.4487 1.82329 15.9062 1.71155 15.9062 1.71155Z" fill="#00402A" stroke="#FFFEFF" stroke-width="0.5" stroke-linejoin="round"/>
<g opacity="0.3">
<path d="M8.74491 2.25031C8.74491 2.25031 10.8832 1.10556 12.0647 1.24443L11.9267 1.22566L13.0293 1.31753C13.2155 1.3333 13.4295 1.33858 13.5576 1.20263C13.5576 1.20263 12.888 0.918754 11.8307 0.924274C10.7734 0.929794 9.22191 1.30901 8.74491 2.25031Z" fill="#00402A" stroke="#FFFEFF" stroke-width="0.5" stroke-linejoin="round"/>
</g>
<path d="M8.71621 2.27344C8.76339 2.20203 8.8159 2.13428 8.87329 2.07078C9.02724 1.89477 9.20134 1.73745 9.392 1.60206C9.67477 1.40028 9.98562 1.24109 10.3146 1.12956C10.7152 0.98235 11.1428 0.922972 11.5684 0.955448C11.787 0.977725 12.0041 1.01346 12.2183 1.06246C12.4254 1.10977 12.6266 1.14462 12.8161 1.19722C12.9905 1.25493 13.1695 1.29756 13.3512 1.32465C13.5098 1.34025 13.67 1.31896 13.819 1.26243C14.3781 1.07878 14.6802 0.846233 14.6429 0.81958C14.6407 0.842243 14.6303 0.86331 14.6136 0.8788C14.5683 0.923792 14.5176 0.96285 14.4625 0.995033C14.262 1.11536 14.049 1.21333 13.8272 1.28719C13.6749 1.34653 13.5109 1.36977 13.3481 1.35509C13.1644 1.32914 12.9834 1.28727 12.807 1.22994C12.6204 1.179 12.4175 1.14431 12.2109 1.09778C11.998 1.04958 11.7824 1.01426 11.5653 0.992037C11.1444 0.960028 10.7216 1.01785 10.3249 1.16165C9.99831 1.27082 9.68914 1.42634 9.40682 1.62343C9.21614 1.75613 9.04073 1.90952 8.88378 2.08079C8.8281 2.14136 8.78671 2.19009 8.75974 2.22407C8.73277 2.25806 8.71621 2.27344 8.71621 2.27344Z" fill="#00402A" stroke="#FFFEFF" stroke-width="0.5" stroke-linejoin="round"/>
<g opacity="0.3">
<path d="M8.36645 4.37354C8.77134 4.23121 9.04304 4.02014 9.41576 3.79353C9.81283 3.5521 10.2126 3.33156 10.5977 3.07144C10.89 2.87432 11.2442 2.66546 11.3742 2.36047C11.4175 2.43431 11.4409 2.51809 11.4423 2.60367C11.4437 2.68925 11.4229 2.77374 11.3821 2.84894C11.2993 3.00971 10.9478 3.28812 10.7986 3.38975C9.94632 3.96913 9.35394 4.36502 8.40162 4.76825C8.38136 4.63759 8.3699 4.50573 8.36732 4.37354" fill="#00402A"/>
<path d="M8.36645 4.37354C8.77134 4.23121 9.04304 4.02014 9.41576 3.79353C9.81283 3.5521 10.2126 3.33156 10.5977 3.07144C10.89 2.87432 11.2442 2.66546 11.3742 2.36047C11.4175 2.43431 11.4409 2.51809 11.4423 2.60367C11.4437 2.68925 11.4229 2.77374 11.3821 2.84894C11.2993 3.00971 10.9478 3.28812 10.7986 3.38975C9.94632 3.96913 9.35394 4.36502 8.40162 4.76825C8.38136 4.63759 8.3699 4.50573 8.36732 4.37354" stroke="#FFFEFF" stroke-width="0.5" stroke-linejoin="round"/>
</g>
<path d="M8.3457 3.45883C8.1269 3.65878 7.99499 3.78817 8.0628 4.00974C8.11925 4.19416 8.23287 4.40397 8.42337 4.37456C8.48093 4.36181 8.5356 4.33838 8.58453 4.30549C9.45386 3.7963 10.3231 3.28718 11.1923 2.77813C11.2866 2.73644 11.3632 2.663 11.4089 2.57061C11.4605 2.42222 11.331 2.26003 11.1794 2.21871C11.0278 2.17739 10.8673 2.22257 10.7178 2.27091C9.86746 2.54601 9.09207 2.96847 8.3457 3.45883Z" fill="#00402A" stroke="#FFFEFF" stroke-width="0.5" stroke-linejoin="round"/>
<path d="M11.3799 2.6265C11.4042 2.58106 11.4158 2.52989 11.4133 2.47842C11.4072 2.40919 11.3818 2.34306 11.34 2.28756C11.2982 2.23205 11.2416 2.1894 11.1768 2.16445C11.0094 2.10776 10.7877 2.14576 10.5704 2.23336C10.3496 2.32183 10.1076 2.4226 9.85787 2.53661C9.42914 2.7267 9.01827 2.95471 8.63013 3.21794C8.48166 3.31965 8.36701 3.40961 8.28793 3.4719L8.19773 3.54484C8.18765 3.55402 8.1765 3.56196 8.16453 3.56849C8.17281 3.5577 8.1823 3.54791 8.19284 3.53932L8.27878 3.46102C8.35526 3.39511 8.46802 3.30159 8.61507 3.19673C9.00058 2.92588 9.41171 2.69348 9.84257 2.50287C10.0932 2.38838 10.3358 2.28856 10.5581 2.20151C10.7805 2.11446 11.0079 2.07614 11.1861 2.13985C11.2544 2.1671 11.3136 2.21342 11.3564 2.2733C11.3992 2.33318 11.424 2.40411 11.4276 2.47763C11.4287 2.51735 11.4203 2.55675 11.4032 2.59259C11.3972 2.60501 11.3894 2.61644 11.3799 2.6265Z" fill="#00402A" stroke="#FFFEFF" stroke-width="0.5" stroke-linejoin="round"/>
<path d="M15.0394 1.09961L13.2641 1.66834L13.5836 2.11391L15.4863 1.41508L15.0394 1.09961Z" fill="#00402A" stroke="#FFFEFF" stroke-width="0.5" stroke-linejoin="round"/>
<path d="M12.9105 3.57958C12.9059 3.57051 13.6533 3.18833 14.5794 2.72621C15.5056 2.26408 16.2605 1.89649 16.2651 1.90556C16.2697 1.91463 15.5224 2.2968 14.5959 2.75909C13.6694 3.22137 12.915 3.58872 12.9105 3.57958Z" fill="#00402A" stroke="#FFFEFF" stroke-width="0.5" stroke-linejoin="round"/>
<path d="M9.79098 7.36903C10.0073 7.82384 10.3885 8.17919 10.8573 8.36283C11.4532 8.57702 11.7377 7.98877 11.5608 7.34691C11.4015 6.76996 10.8994 5.96126 10.3066 6.02641C9.72322 6.09083 9.50866 6.78919 9.79098 7.36903Z" fill="#00402A" stroke="#FFFEFF" stroke-width="0.5" stroke-linejoin="round"/>
<path d="M13.1208 53.6767C11.3619 43.8567 10.6301 32.0174 10.6301 32.0174L20.3125 31.8698C20.3125 31.8698 19.1992 47.8272 18.8121 54.5109C18.4103 61.4605 18.1277 74.8334 18.1277 74.8334H14.8952C14.8952 74.8334 12.145 62.2686 13.1208 53.6767Z" fill="#00A443" stroke="#FFFEFF" stroke-width="0.5" stroke-linejoin="round"/>
<path opacity="0.2" d="M15.0215 34.6932C15.0215 34.6932 13.7479 44.2235 12.705 51.2126C11.7775 45.3391 11.1887 39.1675 10.8835 35.4554L15.0215 34.6932Z" fill="#00402A" stroke="#FFFEFF" stroke-width="0.5" stroke-linejoin="round"/>
<path d="M22.47 78.1166C22.47 78.1166 18.1295 77.0977 17.9389 75.6162L15.1704 75.9768L14.8689 78.859H16.0122L16.1931 78.5013L16.5776 78.859C20.4601 78.859 21.899 78.8179 22.619 78.578C22.6399 78.4948 22.637 78.4075 22.6107 78.3259C22.5844 78.2443 22.5356 78.1717 22.47 78.1166Z" fill="#A2BCB1" stroke="#FFFEFF" stroke-width="0.5" stroke-linejoin="round"/>
<path d="M14.7778 76.4968C15.8159 76.5569 17.892 76.4055 18.2962 76.2057C18.7004 76.0059 18.4618 74.3932 18.4618 74.3932C18.4618 74.3932 14.8333 74.0325 14.5115 74.2328C14.1898 74.4331 14.7778 76.4968 14.7778 76.4968Z" fill="#00402A" stroke="#FFFEFF" stroke-width="0.5" stroke-linejoin="round"/>
<path d="M14.7778 76.4968C15.8159 76.5569 17.892 76.4055 18.2962 76.2057C18.7004 76.0059 18.4618 74.3932 18.4618 74.3932C18.4618 74.3932 14.8333 74.0325 14.5115 74.2328C14.1898 74.4331 14.7778 76.4968 14.7778 76.4968Z" fill="#00402A" stroke="#FFFEFF" stroke-width="0.5" stroke-linejoin="round"/>
<path d="M4.41875 53.4001C6.01746 43.5255 5.84132 36.9267 7.44075 32.0596L16.7139 31.9343C16.7139 31.9343 12.2902 47.6006 10.2715 54.124C8.24479 60.6728 4.58696 74.8338 4.58696 74.8338H1.6236C1.6236 74.8338 1.74351 61.0392 4.41875 53.4001Z" fill="#00A443" stroke="#FFFEFF" stroke-width="0.5" stroke-linejoin="round"/>
<path d="M7.70631 78.1166C7.70631 78.1166 4.43224 77.0977 4.24168 75.6162L1.4732 75.9768L1.17163 78.859H1.88699L2.06794 78.5013L2.45242 78.859C6.33492 78.859 7.13536 78.8179 7.85529 78.578C7.87624 78.4948 7.87337 78.4075 7.84703 78.3259C7.82068 78.2443 7.77192 78.1717 7.70631 78.1166Z" fill="#A2BCB1" stroke="#FFFEFF" stroke-width="0.5" stroke-linejoin="round"/>
<path d="M1.17163 76.4267C1.81034 76.5571 4.22342 76.4056 4.65716 76.2058C5.0909 76.006 4.95416 74.313 4.95416 74.313C4.95416 74.313 1.67097 73.9223 1.31965 74.1228C0.968333 74.3233 1.17163 76.4267 1.17163 76.4267Z" fill="#00402A" stroke="#FFFEFF" stroke-width="0.5" stroke-linejoin="round"/>
<path d="M1.17163 76.4267C1.81034 76.5571 4.22342 76.4056 4.65716 76.2058C5.0909 76.006 4.95416 74.313 4.95416 74.313C4.95416 74.313 1.67097 73.9223 1.31965 74.1228C0.968333 74.3233 1.17163 76.4267 1.17163 76.4267Z" fill="#00402A" stroke="#FFFEFF" stroke-width="0.5" stroke-linejoin="round"/>
<path d="M20.3125 31.8706C20.406 30.7851 21.3304 23.0736 21.3647 22.3672C21.3196 18.526 19.389 13.6337 18.1207 12.2313C17.8298 12.1044 17.5031 12.0855 17.1994 12.178C17.1994 12.178 18.9483 14.4086 19.4289 18.1217C16.2108 18.8963 12.7395 18.509 11.8316 18.3219C11.5132 15.7309 9.91716 12.6054 9.55768 12.1623C9.26491 12.1453 8.97168 12.187 8.69524 12.2849C8.69524 12.2849 10.4396 15.7744 10.6301 18.4551C10.8207 21.1358 7.33396 22.4355 7.33396 22.4355C7.33396 22.4355 7.70762 24.7594 7.6276 25.8014C7.54758 26.8434 7.44065 32.0596 7.44065 32.0596C7.44065 32.0596 15.8026 33.4244 20.3125 31.8706Z" fill="#00A443" stroke="#FFFEFF" stroke-width="0.5" stroke-linejoin="round"/>
<path d="M17.995 35.2838L19.623 31.1984L19.7826 31.2621L19.9424 31.3258L18.3151 35.4108L18.3562 35.7714L17.8729 36.5275L17.7107 36.4629L17.5485 36.3982L17.7167 35.5166L17.995 35.2838Z" fill="#00402A" stroke="#FFFEFF" stroke-width="0.5" stroke-linejoin="round"/>
<path d="M19.6583 31.5733C19.7997 31.6287 19.9572 31.6261 20.0967 31.566C20.2361 31.5059 20.3463 31.3932 20.4032 31.2523L21.9027 27.4886C21.958 27.3471 21.9554 27.1895 21.8954 27.0499C21.8353 26.9104 21.7227 26.8002 21.5819 26.7432C21.4405 26.6878 21.283 26.6904 21.1436 26.7505C21.0041 26.8105 20.8939 26.9232 20.837 27.064L19.3377 30.8278C19.2823 30.9692 19.2848 31.1269 19.3449 31.2664C19.4049 31.406 19.5175 31.5163 19.6583 31.5733Z" fill="#00402A" stroke="#FFFEFF" stroke-width="0.5" stroke-linejoin="round"/>
<path d="M20.3658 31.343C20.5239 31.5046 20.5506 32.5499 20.2326 33.0228C18.0899 34.1247 12.447 34.2867 7.17985 32.9243C7.0537 32.3059 7.1032 31.4779 7.45884 31.224C8.18839 31.8385 13.7571 32.7213 17.5735 32.2258C18.5533 32.1187 19.5023 31.8186 20.3658 31.343Z" fill="#00402A" stroke="#FFFEFF" stroke-width="0.5" stroke-linejoin="round"/>
<path d="M19.5627 19.5371C19.5627 19.5371 17.56 20.3586 11.9731 19.9578C11.9022 21.6829 11.9624 23.4109 12.1533 25.1269C12.3136 26.1487 16.7139 27.1303 16.7139 27.1303C16.7139 27.1303 19.5226 26.0484 19.7429 24.7862C19.9633 23.524 19.5627 19.5371 19.5627 19.5371Z" fill="#00402A" stroke="#FFFEFF" stroke-width="0.5" stroke-linejoin="round"/>
<path d="M5.99477 14.0371C5.68238 14.3256 5.41805 14.5848 5.14147 14.8675C4.86729 15.1433 4.60441 15.4296 4.34032 15.7157C3.81887 16.2949 3.30703 16.8868 2.82307 17.5189C2.31673 18.1622 1.85124 18.8367 1.42934 19.5384C1.19764 19.9187 0.987992 20.3121 0.801438 20.7165C0.577454 21.1992 0.408658 21.7057 0.298254 22.2263L0.274223 22.3482C0.257492 22.4303 0.249436 22.514 0.250191 22.5978C0.257564 23.1356 0.364037 23.6674 0.564263 24.1665C0.711835 24.5422 0.888597 24.9058 1.09292 25.2539C1.45299 25.8644 1.86094 26.4453 2.31292 26.9912C2.7469 27.5163 3.1965 28.0082 3.667 28.4751C4.13796 28.9455 4.63419 29.3899 5.15348 29.8063C5.35091 29.9626 5.59637 30.0457 5.8481 30.0413C6.09983 30.037 6.34228 29.9455 6.53419 29.7824C6.7261 29.6194 6.85562 29.3949 6.90071 29.147C6.9458 28.8992 6.90368 28.6434 6.78151 28.4232L6.7642 28.3926L5.8715 26.7883C5.57761 26.2538 5.28925 25.724 5.03045 25.1974C4.77554 24.7016 4.54913 24.1917 4.35233 23.67C4.26941 23.4565 4.20564 23.2359 4.16177 23.011C4.12765 22.8281 4.13246 22.6757 4.15553 22.7261L4.10746 23.0974C4.19109 22.9023 4.2885 22.7135 4.39895 22.5324C4.54313 22.3001 4.70749 22.0429 4.89324 21.7871C5.079 21.5313 5.27964 21.2706 5.49255 21.0117C5.7004 20.7496 5.91932 20.4878 6.14568 20.2279C6.59913 19.7096 7.06818 19.1867 7.55142 18.6731L8.27905 17.9038L8.99634 17.1558L9.03094 17.1195C9.42008 16.7131 9.63561 16.1709 9.63179 15.6081C9.62797 15.0453 9.4051 14.5061 9.01049 14.1049C8.61588 13.7038 8.08057 13.4723 7.51816 13.4595C6.95575 13.4468 6.41051 13.6538 5.99814 14.0366L5.99477 14.0371Z" fill="#00402A" stroke="#FFFEFF" stroke-width="0.5" stroke-linejoin="round"/>
<path d="M5.35636 27.7615L7.7793 27.7961L6.92536 30.5753C6.92536 30.5753 4.73525 30.2777 4.70522 29.088L5.35636 27.7615Z" fill="#00402A" stroke="#FFFEFF" stroke-width="0.5" stroke-linejoin="round"/>
<path d="M9.54779 29.5881L9.0843 30.5117C8.99476 30.6896 8.84505 30.8299 8.6618 30.9077C8.47855 30.9856 8.27365 30.9958 8.08355 30.9367L6.92543 30.5761L7.77937 27.7969L9.15806 28.4534C9.25876 28.5016 9.34887 28.5693 9.42312 28.6527C9.49738 28.7361 9.5543 28.8334 9.59058 28.939C9.62685 29.0446 9.64175 29.1564 9.63441 29.2679C9.62706 29.3793 9.59761 29.4881 9.54779 29.5881Z" fill="#00402A" stroke="#FFFEFF" stroke-width="0.5" stroke-linejoin="round"/>
<path d="M6.87305 28.1388C6.32767 27.5012 5.90455 26.7684 5.62494 25.9772C3.96928 26.3429 2.98165 27.7289 3.12175 28.2989C4.08967 29.2741 4.94225 29.9578 5.60764 30.1809C6.54744 29.6878 6.87305 28.1388 6.87305 28.1388Z" fill="#00402A" stroke="#FFFEFF" stroke-width="0.5" stroke-linejoin="round"/>
<path d="M8.48637 12.4564C7.28704 12.7449 5.59078 13.426 4.84706 14.568C4.10333 15.71 2.10068 17.894 1.3387 19.4166C2.48011 21.98 4.06224 21.9511 5.24355 21.7206C7.32621 20.3182 10.0103 18.5778 10.0495 17.0908C10.0846 15.7959 9.38509 13.8913 8.48637 12.4564Z" fill="#00402A" stroke="#FFFEFF" stroke-width="0.5" stroke-linejoin="round"/>
</svg>
