<svg width="74" height="79" viewBox="0 0 74 79" fill="none" xmlns="http://www.w3.org/2000/svg">
<path d="M18.727 22.9518C14.0081 24.9347 12.4889 20.6022 12.6079 20.7167C12.518 20.6184 11.8079 20.3018 11.3539 20.0746C9.46276 19.1279 8.31945 16.9263 8.36253 14.7113C5.64893 13.0243 4.9419 9.45233 6.80312 7.47838C6.2304 5.28316 7.74109 2.87336 9.66135 1.76066C11.1152 -0.827476 14.7829 0.280129 16.7601 2.31083C17.7622 3.34008 18.3423 4.84811 18.3269 6.35145C20.6531 7.33466 21.8695 9.95366 21.3412 12.5953C24.4792 15.233 23.5426 20.9283 18.727 22.9518Z" fill="#FF9C1A" stroke="#FFFEFF" stroke-width="0.5" stroke-linejoin="round"/>
<path d="M1.4834 37.0762L0.678253 36.8688C0.693416 36.8067 2.22385 30.5985 3.85466 24.4199C4.81319 20.7884 5.61861 17.8767 6.24863 15.7658C7.49043 11.6044 7.76674 11.4887 8.01084 11.3866L8.32551 12.1727C8.3588 12.1598 8.38897 12.1401 8.41406 12.1147C8.21559 12.3438 7.44254 14.0594 4.55825 25.0151C2.96648 31.0595 1.49802 37.0168 1.4834 37.0762Z" fill="#00402A" stroke="#FFFEFF" stroke-width="0.5" stroke-linejoin="round"/>
<circle cx="20.2001" cy="27.3083" r="1.06529" fill="#00402A" stroke="#FFFEFF" stroke-width="0.5" stroke-linejoin="round"/>
<path d="M18.9218 27.7342L15.2998 21.1294L18.4957 19.2119L21.0524 26.2428L18.9218 27.7342Z" fill="#00402A" stroke="#FFFEFF" stroke-width="0.5" stroke-linejoin="round"/>
<path d="M28.7158 36.4701C28.7158 36.4701 28.3535 36.1808 28.2402 36.0753C28.1078 35.9516 27.7392 35.5502 27.7392 35.5502C27.7392 35.5502 26.5206 34.0917 26.6355 34.0099C26.7503 33.928 27.0985 34.0614 27.2051 34.125C27.3116 34.1886 27.4426 34.2526 27.5493 34.3162C27.5769 34.332 27.6074 34.3421 27.639 34.3461C27.6706 34.35 27.7026 34.3477 27.7333 34.3393C27.764 34.3308 27.7926 34.3164 27.8177 34.2968C27.8428 34.2772 27.8638 34.2528 27.8794 34.2251C27.9676 34.0976 27.5976 33.7515 27.4456 33.6576C26.9723 33.3645 25.7396 32.4216 24.6744 32.6347C24.4992 32.561 21.4834 28.2638 20.8393 27.3082C20.8393 27.3082 20.6263 27.5213 19.774 27.9474C21.174 29.5973 23.327 33.182 23.5568 33.4677C23.5568 33.4677 24.0158 34.5068 24.2691 35.1854C24.5225 35.864 25.0272 36.3869 25.128 36.5666C25.3774 37.036 25.7051 37.4595 26.0969 37.8187C26.6503 38.3256 26.3563 37.5859 26.3563 37.5859C26.3563 37.5859 25.4987 36.4587 25.5986 36.405C25.6755 36.3636 26.1078 37.0073 26.7144 37.5745C26.8704 37.7204 27.0249 37.8637 27.1678 37.9943C27.5435 38.337 27.8595 38.1994 27.5237 37.777C27.3736 37.5839 27.2097 37.4019 27.0332 37.2326C26.8756 37.0654 26.732 36.8855 26.6038 36.6947C26.4454 36.5187 26.2986 36.3325 26.1643 36.1375C26.189 36.1325 26.1818 36.0309 26.3522 36.1804C26.557 36.3602 26.908 36.8405 27.2294 37.0811C27.4118 37.2176 27.7755 37.5263 27.7755 37.5263C27.7755 37.5263 28.4196 37.9611 28.4532 37.9302C28.6357 37.7633 28.2632 37.3182 27.9913 37.1654C27.8379 36.9805 27.6653 36.8125 27.4763 36.6641C27.4763 36.6641 26.8259 35.8481 26.9395 35.7517C27.0327 35.6728 28.9658 37.3191 29.1361 37.1388C29.2747 36.992 28.7158 36.4701 28.7158 36.4701Z" fill="#00402A" stroke="#FFFEFF" stroke-width="0.5" stroke-linejoin="round"/>
<path d="M11.7219 39.5917L13.5098 56.1254C13.5098 56.1254 12.636 59.6219 12.7413 60.6152C12.8467 61.6085 14.6851 74.6389 14.6851 74.6389L14.602 75.3545L14.5573 77.4747L21.4287 77.5284C20.2281 76.9395 19.0675 76.2722 17.9546 75.5307C17.7907 75.4088 17.6544 75.2536 17.5547 75.0754C17.4549 74.8971 17.3939 74.6998 17.3757 74.4964C16.8347 70.4801 17.905 57.0836 17.905 57.0836L18.748 39.6455L11.7219 39.5917Z" fill="#00402A" stroke="#FFFEFF" stroke-width="0.5" stroke-linejoin="round"/>
<path d="M7.81296 42.2338C7.4277 42.3345 6.83445 56.5251 6.51535 57.1533C4.49216 61.1407 4.0112 73.2629 4.0112 73.2629L3.17654 74.9604L3.36816 76.5959C3.36816 76.5959 4.87807 77.4916 5.9375 76.8875L5.77367 75.2496L5.64848 73.0615L10.7517 57.9589L13.5449 42.5538L7.81296 42.2338Z" fill="#00402A" stroke="#FFFEFF" stroke-width="0.5" stroke-linejoin="round"/>
<path d="M20.8911 49.9247L21.1338 40.1339C21.1758 37.3668 20.2845 34.7126 19.1901 32.1926L16.8739 28.1608C16.1278 28.4059 15.7168 26.1225 14.9327 26.2133C14.3413 26.2819 13.9362 26.4232 13.3871 26.4568C12.3521 26.5201 11.7232 28.6124 10.6157 28.4811C10.6105 28.5476 9.9222 28.8113 9.90543 28.8584C9.37538 30.3381 8.02233 31.9211 7.30011 36.3148C6.48021 41.3021 6.48369 49.8735 6.58608 50.4585C14.4247 50.8162 16.293 51.0998 20.8911 49.9247Z" fill="#DCEBE1" stroke="#FFFEFF" stroke-width="0.5" stroke-linejoin="round"/>
<path d="M14.5239 78.0197H21.6173C21.8796 77.9953 21.9436 77.7733 21.8526 77.6367C21.6647 77.3549 20.8377 77.1487 19.9076 76.7002C18.2761 76.8782 14.862 75.636 14.6051 75.2443C14.4565 76.0283 14.378 77.9863 14.5239 78.0197Z" fill="#FF9C1A" stroke="#FFFEFF" stroke-width="0.5" stroke-linejoin="round"/>
<path d="M3.18026 74.9556C3.18026 74.9556 3.81095 76.8074 4.49157 76.7537C5.17218 76.7 5.7688 75.2404 5.7688 75.2404C5.7688 75.2404 6.02375 76.4688 5.90499 77.146C5.78623 77.8231 4.81509 78.5168 4.15098 78.2141C3.48687 77.9114 2.58432 76.344 3.18026 74.9556Z" fill="#FF9C1A" stroke="#FFFEFF" stroke-width="0.5" stroke-linejoin="round"/>
<path d="M16.3659 21.8249C17.0244 21.7313 17.6724 21.5748 18.3009 21.3573C18.8693 21.1522 19.8145 20.7037 19.8145 20.7037C19.8145 20.7037 19.2835 16.0912 17.9467 13.2981C17.3942 12.1441 16.8355 11.5867 16.0564 11.453C16.0505 11.4521 16.3659 21.8249 16.3659 21.8249Z" fill="#00402A" stroke="#FFFEFF" stroke-width="0.5" stroke-linejoin="round"/>
<path d="M18.0831 16.6053C17.8828 15.8571 17.4353 14.8731 17.1799 14.1946C16.7466 13.0424 16.6178 11.9662 16.2358 11.505C16.0292 11.2569 13.383 11.2938 13.058 11.2611C12.9238 11.2466 12.3943 11.2816 11.8818 11.3135L11.8829 11.3123C11.5826 11.3471 8.60045 11.5877 8.16769 11.7797C6.01956 13.9325 4.98038 16.8313 3.3654 19.9982C3.3654 19.9982 4.57512 20.7094 5.53928 21.1584C5.95822 21.3531 6.76137 21.6649 6.76137 21.6649L8.62313 18.4586C8.64353 18.4427 8.74026 18.3368 8.76817 18.405C8.81098 18.5115 10.1706 28.5033 10.1706 28.5033C10.1706 28.5033 15.6816 28.9666 16.975 28.331C16.975 28.331 17.2141 21.6603 17.6902 19.7026C17.8666 18.9833 18.406 17.8104 18.0831 16.6053Z" fill="#00402A" stroke="#FFFEFF" stroke-width="0.5" stroke-linejoin="round"/>
<path d="M11.5192 8.24682C11.5192 8.24682 11.9325 10.5738 11.8497 11.4917C11.7669 12.4095 12.1651 15.3675 13.9496 15.3773C15.734 15.3871 14.5215 12.3059 14.3535 11.4066C14.1855 10.5073 13.9125 7.0332 13.9125 7.0332L11.5192 8.24682Z" fill="#00402A" stroke="#FFFEFF" stroke-width="0.5" stroke-linejoin="round"/>
<path d="M15.344 4.74993C15.2054 5.24952 14.8768 5.58714 14.6097 5.50381C14.3427 5.42048 14.2387 4.94799 14.3772 4.4484C14.5157 3.94881 14.8444 3.61119 15.1115 3.69452C15.3785 3.77785 15.4824 4.25034 15.344 4.74993Z" fill="#00402A" stroke="#FFFEFF" stroke-width="0.5" stroke-linejoin="round"/>
<path d="M10.1099 5.73987C10.3038 6.23919 10.2073 6.76361 9.8944 6.91082C9.58147 7.05803 9.16979 6.77274 8.97656 6.27328C8.78333 5.77383 8.87913 5.2494 9.19219 5.1022C9.50526 4.95499 9.91613 5.24041 10.1099 5.73987Z" fill="#00402A" stroke="#FFFEFF" stroke-width="0.5" stroke-linejoin="round"/>
<path d="M11.4686 1.48749C10.79 1.7815 10.2391 2.30888 9.91587 2.97405C9.36865 4.09401 9.18818 7.22883 11.3939 8.43305C13.5996 9.63728 15.0549 7.41629 14.9178 5.42598C14.7808 3.43567 14.1696 0.828212 11.4686 1.48749Z" fill="#00402A" stroke="#FFFEFF" stroke-width="0.5" stroke-linejoin="round"/>
<path d="M9.44032 37.0397V40.2144C9.44032 41.865 8.27784 43.2033 6.84402 43.2033H4.17364V35.8021H8.36575C8.50612 35.8038 8.64456 35.8349 8.77209 35.8936C8.89961 35.9523 9.01335 36.0372 9.10593 36.1427C9.32531 36.3896 9.44456 36.7095 9.44032 37.0397Z" fill="#007F33" stroke="#FFFEFF" stroke-width="0.5" stroke-linejoin="round"/>
<path d="M9.10547 36.1422H9.08774C8.53662 36.1422 8.09003 36.6565 8.09003 37.2908V39.6257C8.09003 41.601 6.6989 43.2024 4.98301 43.2024H3.35687C1.64097 43.2024 0.24981 41.601 0.24981 39.6257V37.3019C0.24981 36.4732 0.83342 35.8013 1.55335 35.8013H8.36526C8.50566 35.803 8.64414 35.8342 8.77166 35.893C8.89919 35.9517 9.01293 36.0367 9.10547 36.1422Z" fill="#00A443" stroke="#FFFEFF" stroke-width="0.5" stroke-linejoin="round"/>
<path d="M9.44788 36.9745L8.61695 36.9706C8.61695 36.9118 8.64381 31.0199 8.56437 25.012C8.51807 21.4862 8.44521 18.6111 8.34765 16.4674C8.18112 12.804 7.97783 12.148 7.91972 12.041C7.93057 11.8206 7.96086 11.6017 8.01028 11.3866C8.08323 11.3562 8.1627 11.3447 8.24128 11.3532C8.31986 11.3616 8.39503 11.3898 8.45983 11.435C8.67453 11.5826 8.8067 11.8655 8.93847 13.0013C9.01992 13.7046 9.09308 14.7028 9.15574 15.9681C9.26082 18.0883 9.33957 20.9965 9.38989 24.6115C9.47537 30.7616 9.44801 36.913 9.44788 36.9745Z" fill="#00402A" stroke="#FFFEFF" stroke-width="0.5" stroke-linejoin="round"/>
<path d="M13.6178 31.3327C13.7241 31.3551 14.4557 31.3982 14.4557 31.3982C14.4557 31.3982 15.5284 30.7483 15.6818 31.0559C15.7287 31.1482 14.57 31.8081 14.57 31.8081C14.57 31.8081 13.4502 31.8452 13.1825 31.8368C12.684 31.8246 11.6355 31.6832 10.0762 30.5227C8.72746 29.834 1.94912 25.8797 1.84901 25.1272C1.78957 24.6823 2.82174 22.3618 3.82092 20.2605C4.26241 20.5065 4.94693 20.8817 5.53952 21.1584C5.81944 21.2876 6.27112 21.4699 6.53897 21.5765C5.89109 22.8271 5.27757 24.1144 5.35808 24.3811C5.42746 24.6147 11.217 29.0325 11.217 29.0325L12.3736 28.8746C12.3736 28.8746 14.4133 29.1161 14.4601 29.3605C14.5091 29.602 13.5998 29.5388 13.4793 29.5752C13.3676 29.6084 13.261 29.6567 13.1623 29.7186C13.4978 29.8785 14.0288 30.1346 14.3273 30.1471C15.0116 30.1717 15.8048 30.0713 15.8906 30.1697C15.9907 30.2845 14.9506 30.6001 14.217 30.6452C13.9165 30.6616 13.7347 30.5694 13.6038 30.5941C13.426 30.631 13.738 30.7745 14.2395 30.7437C14.5255 30.7252 15.0241 30.5674 15.3388 30.5222C15.8558 30.4485 16.1459 30.4894 16.189 30.5345C16.2605 30.6083 14.7216 31.1025 14.7216 31.1025C14.7216 31.1025 13.7203 31.2336 13.4914 31.2213C13.491 31.2218 13.3521 31.2793 13.6178 31.3327Z" fill="#00402A" stroke="#FFFEFF" stroke-width="0.5" stroke-linejoin="round"/>
<path d="M46.261 14.8776C44.6123 15.3881 43.3544 22.6618 42.8387 24.1405C42.4514 25.2491 38.7107 32.1994 38.7107 32.1994C38.7107 32.1994 35.2743 33.1555 35.5967 33.6916C36.0221 34.3583 36.6391 34.8812 37.367 35.1918C37.903 35.2992 39.5665 33.9596 39.7273 33.5842C39.8349 33.2528 39.8892 32.9064 39.8882 32.5579C39.8882 32.5579 43.8763 26.5488 44.3785 25.2795C44.7557 24.3241 47.2296 17.945 47.2296 17.945C47.3785 17.646 47.4561 17.3165 47.4561 16.9825C47.4561 16.6485 47.3785 16.3191 47.2296 16.02C46.7463 14.8486 46.261 14.8776 46.261 14.8776Z" fill="#00402A" stroke="#FFFEFF" stroke-width="0.5" stroke-linejoin="round"/>
<path d="M45.5473 14.8776C45.5473 14.8776 44.2299 15.9788 42.8476 23.0608L38.8778 31.1258L40.809 31.903L45.3932 24.401L46.4071 20.8847C46.5355 19.5786 46.5355 18.2632 46.4071 16.9571C46.1739 15.3441 45.5473 14.8776 45.5473 14.8776Z" fill="#00402A" stroke="#FFFEFF" stroke-width="0.5" stroke-linejoin="round"/>
<path d="M45.5474 14.8776C45.5474 14.8776 44.23 15.9788 42.8477 23.0608Z" fill="#00402A"/>
<path d="M45.5474 14.8776C45.5474 14.8776 44.23 15.9788 42.8477 23.0608" stroke="#FFFEFF" stroke-width="0.5" stroke-linejoin="round"/>
<path opacity="0.2" d="M45.5473 14.8776C45.5473 14.8776 44.2299 15.9788 42.8476 23.0608L38.8778 31.1258L40.809 31.903L45.3932 24.401L46.4071 20.8847C46.5355 19.5786 46.5355 18.2632 46.4071 16.9571C46.1739 15.3441 45.5473 14.8776 45.5473 14.8776Z" fill="#00402A" stroke="#FFFEFF" stroke-width="0.5" stroke-linejoin="round"/>
<path opacity="0.2" d="M45.4149 24.3689L45.4771 24.1481L45.1877 20.6439L44.5699 25.751L45.4149 24.3689Z" fill="#00402A" stroke="#FFFEFF" stroke-width="0.5" stroke-linejoin="round"/>
<path d="M52.0518 40.7083C52.4094 41.6535 52.7372 42.6136 53.0347 43.5541C54.0466 46.9681 54.8084 50.4511 55.3139 53.9756C59.3452 62.1129 62.1733 74.3404 62.1733 74.3404L60.6815 74.8381L50.8804 53.0756L47.9739 45.5878L52.0518 40.7083Z" fill="#00402A" stroke="#FFFEFF" stroke-width="0.5" stroke-linejoin="round"/>
<path d="M62.2357 73.2043C62.1458 73.0288 60.0294 74.2272 60.0294 74.2272C59.653 75.3404 59.0248 76.3519 58.1936 77.1832C57.0377 78.123 58.1476 78.5518 59.6056 77.8442L63.2138 76.0941C64.25 75.5911 63.1739 75.0239 62.2357 73.2043Z" fill="#00402A" stroke="#FFFEFF" stroke-width="0.5" stroke-linejoin="round"/>
<path d="M45.5285 40.6537C45.9593 43.4743 46.7439 46.2296 47.8638 48.8544C49.0805 51.6747 50.4216 53.7502 51.3976 55.8905C53.1226 59.6783 57.5845 68.6811 57.5845 68.6811L60.5708 66.4294C60.5708 66.4294 55.8054 54.9614 55.4823 52.7097C55.2735 51.2527 55.0727 43.4145 54.9564 38.0718C54.8936 35.1597 54.8557 32.9897 54.8557 32.9897L46.3261 26.1865C45.0538 30.9007 44.7821 35.8285 45.5285 40.6537Z" fill="#5BD38C" stroke="#FFFEFF" stroke-width="0.5" stroke-linejoin="round"/>
<path d="M50.9854 57.5331C49.1867 63.8857 47.0249 70.1302 44.5105 76.2356L43.0458 75.6665L47.338 57.5351L50.9854 57.5331Z" fill="#00402A" stroke="#FFFEFF" stroke-width="0.5" stroke-linejoin="round"/>
<path d="M45.2851 75.3993C45.3277 75.2062 42.9328 74.7802 42.9328 74.7802C41.9319 75.3974 40.802 75.7759 39.6309 75.8861C38.1404 75.8726 38.721 76.9103 40.296 77.2952L44.1921 78.2472C45.3115 78.5186 44.845 77.3978 45.2851 75.3993Z" fill="#00402A" stroke="#FFFEFF" stroke-width="0.5" stroke-linejoin="round"/>
<path d="M55.3479 25.2729C55.3479 25.2729 58.6539 32.2395 57.4852 38.8124C56.3165 45.3853 52.7861 53.8244 51.8344 55.8709C50.8826 57.9173 47.3279 70.0375 47.3279 70.0375L44.2524 69.0369C44.2524 69.0369 47.0007 57.0079 47.8639 52.8177C48.2695 50.8381 51.7627 36.7409 51.7627 36.7409C51.7627 36.7409 45.7807 32.3003 46.2045 25.3519L55.3479 25.2729Z" fill="#5BD38C" stroke="#FFFEFF" stroke-width="0.5" stroke-linejoin="round"/>
<path d="M52.0771 26.8421L47.2969 26.9151L47.2408 25.4796L52.0258 25.5309L52.0771 26.8421Z" fill="#00402A" stroke="#FFFEFF" stroke-width="0.5" stroke-linejoin="round"/>
<path d="M46.8194 25.4748L46.8755 26.9217L46.3922 26.9291L46.2604 25.4694L46.8194 25.4748Z" fill="#00402A" stroke="#FFFEFF" stroke-width="0.5" stroke-linejoin="round"/>
<path d="M52.4474 25.5345L54.9842 25.5615L55.0957 26.7958L52.4987 26.8349L52.4474 25.5345Z" fill="#00402A" stroke="#FFFEFF" stroke-width="0.5" stroke-linejoin="round"/>
<path d="M56.4982 14.2694C56.4982 14.2694 50.4884 12.9467 45.5284 14.877C45.3623 18.4242 45.6081 21.9786 46.2611 25.4693L55.4424 25.5368C55.4424 25.5368 54.9462 23.0386 56.9849 18.209L56.4982 14.2694Z" fill="#00402A" stroke="#FFFEFF" stroke-width="0.5" stroke-linejoin="round"/>
<path d="M53.7712 13.8273C53.7712 13.8273 51.7893 18.5731 51.8008 20.1011C51.8123 21.629 56.723 30.7831 57.7369 31.2078C58.0825 31.3097 58.4482 31.3235 58.8006 31.2479C59.1529 31.1723 59.4807 31.0097 59.7539 30.775C59.7539 30.775 56.3918 22.2002 56.4634 21.3434C56.5351 20.4866 57.3219 17.7737 57.3219 17.0938C57.3219 16.4139 56.9839 14.2695 56.9839 14.2695L53.7712 13.8273Z" fill="#00402A" stroke="#FFFEFF" stroke-width="0.5" stroke-linejoin="round"/>
<path opacity="0.2" d="M59.7524 30.7749C59.479 31.0098 59.1511 31.1725 58.7985 31.2482C58.4459 31.324 58.08 31.3102 57.7341 31.2084C56.7202 30.783 51.8108 21.6282 51.8 20.1003C51.7892 18.5723 53.7717 13.8285 53.7717 13.8285L56.9831 14.2701C56.9831 14.2701 57.3211 16.4131 57.3211 17.093C57.2456 17.749 57.1204 18.3984 56.9466 19.0355C56.746 19.7962 56.5849 20.5667 56.464 21.344C56.6434 22.3254 56.9231 23.2858 57.2988 24.2101C58.2775 27.002 59.7524 30.7749 59.7524 30.7749Z" fill="#00402A" stroke="#FFFEFF" stroke-width="0.5" stroke-linejoin="round"/>
<path d="M47.8635 14.0857C47.8635 14.0857 48.2691 19.2238 48.144 20.2832C48.019 21.3425 45.5315 29.9201 45.5315 29.9201V25.2728C45.5315 25.2728 44.6805 17.9133 45.5281 14.875L47.8635 14.0857Z" fill="#00402A" stroke="#FFFEFF" stroke-width="0.5" stroke-linejoin="round"/>
<path opacity="0.2" d="M47.8635 14.0857C47.8635 14.0857 48.2691 19.2238 48.144 20.2832C48.019 21.3425 45.5315 29.9201 45.5315 29.9201V25.2728C45.5315 25.2728 44.6805 17.9133 45.5281 14.875L47.8635 14.0857Z" fill="#00402A" stroke="#FFFEFF" stroke-width="0.5" stroke-linejoin="round"/>
<path opacity="0.2" d="M56.1427 17.7432L56.1292 17.5022C56.1292 17.5022 56.482 18.1335 56.9457 19.0355C56.745 19.7962 56.584 20.5667 56.4631 21.344C56.6424 22.3254 56.9222 23.2858 57.2979 24.2101C55.439 21.9996 56.1427 17.7432 56.1427 17.7432Z" fill="#00402A" stroke="#FFFEFF" stroke-width="0.5" stroke-linejoin="round"/>
<path d="M57.1592 35.5444L56.0101 47.3229H58.7396L73.0391 45.6026L70.5982 34.4479L57.1592 35.5444Z" fill="#00402A" stroke="#FFFEFF" stroke-width="0.5" stroke-linejoin="round"/>
<path d="M62.9311 32.6311C62.3478 32.6311 61.0899 33.2678 60.9175 33.7506C60.7988 34.242 60.7409 34.746 60.7451 35.2515H61.2223C61.1722 34.8064 61.2352 34.3559 61.4055 33.9416C61.5641 33.6801 61.7882 33.4645 62.0558 33.3162C62.3234 33.1678 62.6251 33.0918 62.9311 33.0956C63.6582 33.0386 64.3846 33.213 65.0063 33.5939C65.2751 33.9689 65.4444 34.4059 65.4983 34.8639L65.981 34.8248C65.9348 34.2834 65.7459 33.7639 65.4334 33.3191C64.9758 32.8202 63.5151 32.6311 62.9311 32.6311Z" fill="#00402A" stroke="#FFFEFF" stroke-width="0.5" stroke-linejoin="round"/>
<path d="M60.4988 28.4456L61.8601 31.7148C61.6467 32.0487 61.5626 32.4489 61.6236 32.8403C61.7816 33.4095 62.025 33.9515 62.3455 34.4479L64.5396 34.2332C64.5396 34.2332 64.1448 31.7127 62.6429 31.4467L61.7189 28.4456H60.4988Z" fill="#00402A" stroke="#FFFEFF" stroke-width="0.5" stroke-linejoin="round"/>
<path d="M56.9846 14.2695C58.6786 14.8414 59.7519 22.7093 59.7519 22.7093L62.7261 30.6488L61.2235 30.935C61.2235 30.935 57.3909 23.3966 57.3909 23.3332C57.3909 23.2697 56.1742 18.2436 56.1742 18.2436C56.0973 17.3901 56.0973 16.5315 56.1742 15.678C56.2677 15.127 56.5551 14.6275 56.9846 14.2695Z" fill="#00402A" stroke="#FFFEFF" stroke-width="0.5" stroke-linejoin="round"/>
<path opacity="0.2" d="M56.9846 14.2695C58.6786 14.8414 59.7519 22.7093 59.7519 22.7093L62.7261 30.6488L61.2235 30.935C61.2235 30.935 57.3909 23.3966 57.3909 23.3332C57.3909 23.2697 56.1742 18.2436 56.1742 18.2436C56.0973 17.3901 56.0973 16.5315 56.1742 15.678C56.2677 15.127 56.5551 14.6275 56.9846 14.2695Z" fill="#00402A" stroke="#FFFEFF" stroke-width="0.5" stroke-linejoin="round"/>
<path d="M46.3062 4.67596C45.9344 5.02864 45.6399 5.45453 45.4413 5.92672C45.2427 6.39891 45.1443 6.90713 45.1524 7.41924C45.3345 8.81694 45.6164 10.1999 45.996 11.5574L48.7173 3.63281C47.8485 3.80552 47.0266 4.16113 46.3062 4.67596Z" fill="#FFCD52" stroke="#FFFEFF" stroke-width="0.5" stroke-linejoin="round"/>
<path d="M48.7175 3.63279C50.1741 2.96706 51.6024 3.75297 52.4304 4.3343C52.881 4.71497 53.2457 5.18673 53.5004 5.71848C53.7551 6.25024 53.894 6.8299 53.908 7.41921C53.908 8.53664 53.9391 9.88498 53.2057 10.4663C53.0184 10.6327 52.7985 10.7583 52.5599 10.835C52.3213 10.9118 52.0693 10.9379 51.82 10.9119L46.3064 5.82915C46.9094 4.90362 47.7394 4.14754 48.7175 3.63279Z" fill="#FFCD52" stroke="#FFFEFF" stroke-width="0.5" stroke-linejoin="round"/>
<path d="M49.7798 15.6835C51.8908 15.1643 52.4302 14.1751 52.4302 14.1751C51.4602 13.452 51.4798 12.2171 51.6191 11.4325C51.6595 11.1844 51.7212 10.9402 51.8036 10.7026L49.2796 11.4791C49.3806 11.8307 49.4554 12.1893 49.5034 12.552C49.5426 12.8187 49.5487 13.0892 49.5216 13.3575C49.4351 14.1467 48.9971 14.2082 48.9971 14.2082C48.6382 15.1048 49.7798 15.6835 49.7798 15.6835Z" fill="#00402A" stroke="#FFFEFF" stroke-width="0.5" stroke-linejoin="round"/>
<path opacity="0.2" d="M49.5006 12.553C49.5399 12.8198 49.546 13.0903 49.5189 13.3586C49.9813 13.1978 50.4058 12.944 50.7662 12.6129C51.1266 12.2818 51.4153 11.8805 51.6143 11.4336C51.6547 11.1855 51.7165 10.9413 51.7988 10.7037L49.2749 11.4802C49.3765 11.8318 49.452 12.1904 49.5006 12.553Z" fill="#00402A" stroke="#FFFEFF" stroke-width="0.5" stroke-linejoin="round"/>
<path d="M48.7473 4.90415C46.512 5.22689 45.9651 6.52459 46.1341 8.85059C46.3457 11.7539 47.2792 13.7072 49.987 12.6897C53.66 11.3076 52.4596 4.36873 48.7473 4.90415Z" fill="#00402A" stroke="#FFFEFF" stroke-width="0.5" stroke-linejoin="round"/>
<path d="M51.7342 8.31507C51.7342 8.31507 50.4235 6.63116 50.3769 5.19235C50.3769 5.19235 45.6859 4.0236 46.1185 8.54665C46.1185 8.54665 45.1093 4.62046 48.9392 3.97769C52.769 3.33491 53.5646 8.95242 51.822 10.9118C51.82 10.9118 52.5466 9.3697 51.7342 8.31507Z" fill="#FFCD52" stroke="#FFFEFF" stroke-width="0.5" stroke-linejoin="round"/>
<path d="M51.4375 8.83964C51.4218 8.57822 51.5104 8.32125 51.6839 8.12498C51.8575 7.9287 52.1019 7.80911 52.3635 7.79243C53.0672 7.76813 53.6025 9.1428 51.9289 9.73088C51.6889 9.81528 51.5145 9.59382 51.4375 8.83964Z" fill="#00402A" stroke="#FFFEFF" stroke-width="0.5" stroke-linejoin="round"/>
<path d="M56.5481 4.67577C56.5162 5.04279 56.3781 5.3926 56.1506 5.68255C55.9231 5.97249 55.616 6.19002 55.2668 6.30861C54.9176 6.42719 54.5414 6.44172 54.1841 6.35039C53.8268 6.25907 53.5039 6.06585 53.2546 5.79431C53.0054 5.52276 52.8407 5.18464 52.7805 4.82118C52.7204 4.45771 52.7675 4.0846 52.916 3.74739C53.0645 3.41019 53.3081 3.12344 53.6169 2.92214C53.9258 2.72084 54.2867 2.61371 54.6555 2.61377C55.1798 2.63761 55.6733 2.86795 56.0281 3.2544C56.3828 3.64085 56.5698 4.15192 56.5481 4.67577Z" fill="#FFCD52" stroke="#FFFEFF" stroke-width="0.5" stroke-linejoin="round"/>
<path d="M46.8295 4.4862C46.2591 5.03049 45.8798 5.74423 45.7481 6.5212C45.742 7.08633 46.5125 7.48671 46.5125 7.48671L47.446 6.26463V7.34087L50.3789 5.19245L49.5238 3.67395C49.5238 3.67395 47.3338 4.04598 46.8295 4.4862Z" fill="#FFCD52" stroke="#FFFEFF" stroke-width="0.5" stroke-linejoin="round"/>
</svg>
