<svg width="73" height="74" viewBox="0 0 73 74" fill="none" xmlns="http://www.w3.org/2000/svg">
<path d="M44.1215 2.76605C45.161 5.19024 43.5361 8.70617 40.8762 9.21278C40.0359 9.38539 39.1614 9.24064 38.4215 8.80645C37.6816 8.37227 37.1288 7.67942 36.8697 6.86162C35.9343 4.01958 36.2915 1.7985 37.8834 0.780762C39.9374 -0.532547 43.2642 0.766266 44.1215 2.76605Z" fill="#FFF5EC" stroke="#FFFEFF" stroke-width="0.5" stroke-linejoin="round"/>
<path d="M44.043 16.0994C44.043 16.0994 38.1489 24.3517 36.5638 24.8861C34.9788 25.4204 32.1894 14.3908 32.1894 14.3908C32.1894 14.3908 31.5701 12.9865 31.395 12.9094C30.6974 12.6021 31.6002 12.0387 31.6002 12.0387L32.6358 9.77356C32.6358 9.77356 32.7387 9.82827 33.1527 10.8202C33.7124 12.1622 33.9699 14.0344 34.2469 14.43L37.1123 18.7335L41.1325 12.9927L44.043 16.0994Z" fill="#00402A" stroke="#FFFEFF" stroke-width="0.5" stroke-linejoin="round"/>
<path d="M32.5972 10.7761L32.3478 10.6909C32.2294 10.6503 32.1158 10.597 32.009 10.5318C31.582 10.2707 30.4059 9.58312 30.2247 9.80825C30.0026 10.0841 31.8163 11.115 31.8163 11.115C31.8163 11.115 29.786 10.1078 29.6665 10.4775C29.547 10.8472 31.6401 11.7781 31.6401 11.7781C31.6401 11.7781 29.7811 11.064 29.6787 11.2635C29.5762 11.4631 31.7266 12.8638 31.7266 12.8638C31.7266 12.8638 29.9641 11.7919 29.6963 11.9739C29.4285 12.156 32.2096 14.4269 32.2096 14.4269L32.5972 10.7761Z" fill="#00402A" stroke="#FFFEFF" stroke-width="0.5" stroke-linejoin="round"/>
<path d="M34.4787 66.2911C34.5156 66.2911 34.5519 66.2816 34.5841 66.2637C34.6163 66.2457 34.6434 66.2199 34.6629 66.1885L39.1006 59.018C39.1159 58.9938 39.1263 58.9668 39.1312 58.9386C39.136 58.9104 39.1352 58.8815 39.1288 58.8536C39.1224 58.8257 39.1105 58.7993 39.0938 58.776C39.0771 58.7528 39.056 58.733 39.0317 58.718C39.0074 58.7029 38.9803 58.6928 38.952 58.6883C38.9237 58.6837 38.8948 58.6849 38.867 58.6916C38.8392 58.6983 38.813 58.7104 38.7899 58.7274C38.7668 58.7443 38.7472 58.7656 38.7324 58.7901L34.2948 65.9606C34.2745 65.9934 34.2634 66.031 34.2626 66.0696C34.2617 66.1081 34.2711 66.1461 34.2898 66.1798C34.3086 66.2135 34.336 66.2416 34.3692 66.2611C34.4024 66.2807 34.4402 66.291 34.4787 66.2911Z" fill="#00402A" stroke="#FFFEFF" stroke-width="0.5" stroke-linejoin="round"/>
<path d="M30.0843 7.07375C30.0843 7.07375 31.9538 7.46383 32.1046 8.03568C32.2553 8.60754 33.31 12.899 33.0842 13.1225C33.0144 13.1915 31.5314 13.0446 30.9513 12.5633C30.3712 12.082 29.2153 6.95298 30.0843 7.07375Z" fill="#00402A" stroke="#FFFEFF" stroke-width="0.5" stroke-linejoin="round"/>
<path d="M30.8285 7.50711C31.2258 7.59378 31.6162 7.70934 31.9966 7.85287C31.5633 7.38223 30.0845 7.07327 30.0845 7.07327C29.2155 6.95249 30.3717 12.0818 30.9515 12.5628C31.1486 12.7109 31.3704 12.8227 31.6067 12.8931C31.0073 12.025 30.0024 7.39222 30.8285 7.50711Z" fill="#00402A" stroke="#FFFEFF" stroke-width="0.5" stroke-linejoin="round"/>
<path d="M14.5641 73.0018C17.3952 73.0019 20.1627 72.1624 22.5167 70.5895C24.8706 69.0167 26.7054 66.7811 27.7888 64.1655C28.8722 61.5499 29.1557 58.6718 28.6034 55.8951C28.0511 53.1184 26.6878 50.5678 24.6859 48.5659C22.684 46.5641 20.1334 45.2008 17.3567 44.6485C14.58 44.0961 11.7019 44.3796 9.08631 45.4631C6.47073 46.5465 4.23516 48.3812 2.6623 50.7352C1.08945 53.0891 0.249958 55.8567 0.249986 58.6878C0.254176 62.4828 1.76359 66.1212 4.44709 68.8047C7.1306 71.4882 10.769 72.9976 14.5641 73.0018ZM14.5641 46.1625C17.0413 46.1625 19.4629 46.8971 21.5227 48.2733C23.5824 49.6496 25.1878 51.6057 26.1358 53.8943C27.0838 56.183 27.3319 58.7014 26.8486 61.131C26.3654 63.5606 25.1725 65.7924 23.4209 67.5441C21.6692 69.2958 19.4375 70.4887 17.0079 70.972C14.5782 71.4553 12.0598 71.2073 9.77118 70.2594C7.48251 69.3114 5.52633 67.706 4.15003 65.6463C2.77373 63.5866 2.03912 61.165 2.03909 58.6878C2.04287 55.3671 3.36368 52.1835 5.71173 49.8354C8.05979 47.4872 11.2434 46.1664 14.5641 46.1625Z" fill="#5BD38C" stroke="#FFFEFF" stroke-width="0.5" stroke-linejoin="round"/>
<path d="M17.9307 58.7013C17.9307 59.3702 17.7323 60.0241 17.3606 60.5803C16.989 61.1365 16.4608 61.57 15.8428 61.826C15.2248 62.082 14.5448 62.149 13.8887 62.0185C13.2326 61.888 12.63 61.5659 12.157 61.093C11.684 60.62 11.3618 60.0174 11.2313 59.3613C11.1008 58.7052 11.1677 58.0252 11.4236 57.4072C11.6796 56.7891 12.113 56.2609 12.6692 55.8892C13.2253 55.5176 13.8793 55.3191 14.5482 55.3191C14.9924 55.3191 15.4322 55.4065 15.8426 55.5765C16.253 55.7464 16.6258 55.9955 16.9399 56.3096C17.254 56.6237 17.5032 56.9966 17.6731 57.4069C17.8431 57.8173 17.9307 58.2571 17.9307 58.7013Z" fill="#00402A" stroke="#FFFEFF" stroke-width="0.5" stroke-linejoin="round"/>
<path d="M29.5619 59.3368C29.7341 59.3368 29.8993 59.2684 30.0212 59.1466C30.143 59.0248 30.2114 58.8596 30.2114 58.6874C30.2117 55.7035 29.3587 52.7817 27.7531 50.2666C26.1475 47.7515 23.8562 45.7479 21.1493 44.4921C18.4425 43.2364 15.4331 42.7808 12.4758 43.1791C9.51862 43.5774 6.73696 44.813 4.45883 46.7401C4.39375 46.7952 4.34016 46.8626 4.30112 46.9385C4.26208 47.0143 4.23835 47.0971 4.2313 47.1821C4.22425 47.267 4.23404 47.3526 4.26005 47.4338C4.28606 47.515 4.32782 47.5903 4.38293 47.6554C4.43805 47.7205 4.50542 47.7741 4.58125 47.8131C4.65707 47.8522 4.73985 47.8759 4.82484 47.8829C4.90984 47.89 4.9954 47.8802 5.07662 47.8542C5.15784 47.8282 5.23313 47.7864 5.29821 47.7313C7.38735 45.9646 9.93803 44.8321 12.6496 44.4671C15.3611 44.1021 18.1205 44.52 20.6024 45.6715C23.0843 46.8229 25.1853 48.66 26.6576 50.966C28.13 53.2721 28.9124 55.951 28.9125 58.687C28.9124 58.7723 28.9292 58.8568 28.9618 58.9356C28.9944 59.0145 29.0422 59.0861 29.1025 59.1464C29.1628 59.2068 29.2345 59.2547 29.3133 59.2873C29.3921 59.32 29.4766 59.3368 29.5619 59.3368Z" fill="#00402A" stroke="#FFFEFF" stroke-width="0.5" stroke-linejoin="round"/>
<path d="M43.5621 51.9385L46.2141 54.2351C46.2141 54.2351 47.1049 54.3327 47.432 53.868C47.6281 53.5818 47.719 53.2367 47.6893 52.8911L45.2126 49.9321L43.5621 51.9385Z" fill="#00402A" stroke="#FFFEFF" stroke-width="0.5" stroke-linejoin="round"/>
<path d="M45.6538 53.7496C45.081 53.5256 45.6538 53.7496 44.9938 55.7806C44.3846 57.1164 43.7154 57.66 43.9437 57.931C44.0926 58.1005 44.2797 58.2322 44.4895 58.3152L48.7334 53.6462C48.7334 53.6462 47.7985 51.9839 47.3488 52.6229C45.3671 54.3014 45.6538 53.7496 45.6538 53.7496Z" fill="#00402A" stroke="#FFFEFF" stroke-width="0.5" stroke-linejoin="round"/>
<path d="M47.4557 30.5838C47.4557 30.5838 32.3285 37.1618 32.3285 40.8512C32.3285 43.0352 43.3902 52.7346 43.3902 52.7346L45.8075 50.1371C45.8075 50.1371 39.7826 43.0593 40.0356 42.1787C40.2886 41.2982 54.5025 35.4895 54.9714 34.0825C55.4402 32.6755 53.0018 30.2223 53.0018 30.2223L47.4557 30.5838Z" fill="#00402A" stroke="#FFFEFF" stroke-width="0.5" stroke-linejoin="round"/>
<path d="M57.9903 73.0018C60.8214 73.0019 63.5889 72.1624 65.9429 70.5895C68.2969 69.0167 70.1316 66.7811 71.2151 64.1655C72.2985 61.5499 72.582 58.6718 72.0296 55.8951C71.4773 53.1184 70.114 50.5678 68.1121 48.5659C66.1103 46.5641 63.5597 45.2008 60.783 44.6485C58.0063 44.0961 55.1282 44.3796 52.5126 45.4631C49.897 46.5465 47.6614 48.3812 46.0886 50.7352C44.5157 53.0891 43.6762 55.8567 43.6763 58.6878C43.6804 62.4828 45.1899 66.1212 47.8734 68.8047C50.5569 71.4882 54.1953 72.9976 57.9903 73.0018ZM57.9903 46.1625C60.4676 46.1625 62.8891 46.8971 64.9489 48.2734C67.0086 49.6496 68.614 51.6058 69.562 53.8944C70.51 56.1831 70.758 58.7015 70.2748 61.1311C69.7915 63.5607 68.5986 65.7925 66.8469 67.5441C65.0953 69.2958 62.8636 70.4887 60.4339 70.972C58.0043 71.4553 55.4859 71.2073 53.1973 70.2593C50.9086 69.3114 48.9525 67.706 47.5762 65.6463C46.1999 63.5866 45.4653 61.165 45.4653 58.6878C45.469 55.367 46.7898 52.1834 49.1379 49.8353C51.486 47.4872 54.6696 46.1663 57.9903 46.1625Z" fill="#5BD38C" stroke="#FFFEFF" stroke-width="0.5" stroke-linejoin="round"/>
<path d="M61.3022 58.7013C61.3022 59.3702 61.1038 60.0241 60.7322 60.5803C60.3606 61.1365 59.8324 61.57 59.2144 61.826C58.5964 62.082 57.9164 62.149 57.2603 62.0185C56.6042 61.888 56.0016 61.5659 55.5286 61.093C55.0556 60.62 54.7334 60.0174 54.6029 59.3613C54.4723 58.7052 54.5393 58.0252 54.7952 57.4072C55.0512 56.7891 55.4846 56.2609 56.0407 55.8892C56.5969 55.5176 57.2508 55.3191 57.9198 55.3191C58.3639 55.3191 58.8038 55.4065 59.2142 55.5765C59.6245 55.7464 59.9974 55.9955 60.3115 56.3096C60.6256 56.6237 60.8747 56.9966 61.0447 57.4069C61.2147 57.8173 61.3022 58.2571 61.3022 58.7013Z" fill="#00402A" stroke="#FFFEFF" stroke-width="0.5" stroke-linejoin="round"/>
<path d="M48.3047 47.8856C48.4583 47.8857 48.607 47.8312 48.7241 47.7317C51.1052 45.7186 54.0771 44.5355 57.1903 44.3615C60.3035 44.1875 63.3887 45.0319 65.9794 46.7672C66.1223 46.8632 66.2976 46.8985 66.4666 46.8653C66.6355 46.8321 66.7844 46.7332 66.8804 46.5902C66.9764 46.4473 67.0117 46.2721 66.9786 46.1031C66.9454 45.9341 66.8464 45.7853 66.7035 45.6892C63.8784 43.7962 60.5136 42.8747 57.1182 43.0644C53.7227 43.2541 50.4815 44.5445 47.8848 46.7405C47.7832 46.8265 47.7105 46.9416 47.6765 47.0702C47.6425 47.1988 47.6489 47.3348 47.6947 47.4597C47.7405 47.5847 47.8236 47.6925 47.9327 47.7687C48.0418 47.8448 48.1717 47.8856 48.3047 47.8856Z" fill="#00402A" stroke="#FFFEFF" stroke-width="0.5" stroke-linejoin="round"/>
<path d="M57.9908 57.2569C58.0379 57.2572 58.0832 57.239 58.1169 57.2062C58.1507 57.1734 58.1703 57.1286 58.1713 57.0815C58.1724 57.0344 58.1549 56.9888 58.1226 56.9545C58.0904 56.9202 58.0459 56.9 57.9988 56.8982L38.9248 56.0145C38.9012 56.0134 38.8777 56.0169 38.8555 56.0249C38.8334 56.0329 38.813 56.0453 38.7956 56.0611C38.7781 56.077 38.764 56.0962 38.754 56.1175C38.744 56.1389 38.7383 56.162 38.7372 56.1855C38.7361 56.2091 38.7397 56.2326 38.7477 56.2547C38.7557 56.2769 38.768 56.2973 38.7839 56.3147C38.7998 56.3321 38.8189 56.3463 38.8402 56.3563C38.8616 56.3663 38.8847 56.372 38.9082 56.3731L57.9821 57.2568L57.9908 57.2569Z" fill="#00402A" stroke="#FFFEFF" stroke-width="0.5" stroke-linejoin="round"/>
<path d="M38.6456 61.3608H38.654L57.9986 60.4771C58.0462 60.4749 58.0909 60.4539 58.123 60.4187C58.1551 60.3836 58.1719 60.3371 58.1697 60.2896C58.1667 60.2423 58.1455 60.1981 58.1106 60.1662C58.0756 60.1343 58.0297 60.1172 57.9823 60.1185L38.6377 61.002C38.5911 61.0046 38.5473 61.0251 38.5156 61.0593C38.4839 61.0935 38.4668 61.1387 38.4679 61.1853C38.4689 61.2319 38.488 61.2763 38.5211 61.3091C38.5543 61.3419 38.5989 61.3605 38.6456 61.3609V61.3608Z" fill="#00402A" stroke="#FFFEFF" stroke-width="0.5" stroke-linejoin="round"/>
<path d="M57.9904 60.6565C58.3799 60.6565 58.7607 60.541 59.0846 60.3246C59.4085 60.1082 59.661 59.8006 59.81 59.4407C59.9591 59.0808 59.9981 58.6848 59.9221 58.3027C59.8461 57.9207 59.6585 57.5697 59.3831 57.2943C59.1076 57.0188 58.7567 56.8312 58.3746 56.7553C57.9926 56.6793 57.5966 56.7183 57.2367 56.8673C56.8768 57.0164 56.5692 57.2688 56.3528 57.5927C56.1364 57.9166 56.0209 58.2974 56.0209 58.687C56.0213 59.2092 56.2289 59.7099 56.5982 60.0792C56.9675 60.4484 57.4682 60.6561 57.9904 60.6565Z" fill="#00402A" stroke="#FFFEFF" stroke-width="0.5" stroke-linejoin="round"/>
<path d="M41.1756 55.5376C41.3009 55.5377 41.4224 55.4943 41.5194 55.4148C41.6163 55.3353 41.6826 55.2246 41.707 55.1016C41.7313 54.9787 41.7123 54.8511 41.653 54.7406C41.5938 54.6301 41.498 54.5436 41.3821 54.4959C38.996 53.5104 37.0344 51.7143 35.8427 49.4242L32.7846 43.5384C31.7461 41.538 30.1658 39.8702 28.2242 38.7255L26.2503 37.5609C26.1268 37.4895 25.98 37.4698 25.842 37.506C25.704 37.5423 25.5859 37.6316 25.5134 37.7545C25.4409 37.8774 25.4199 38.024 25.4549 38.1623C25.4899 38.3006 25.5781 38.4195 25.7003 38.4931L27.6743 39.6578C29.441 40.6994 30.8791 42.217 31.8241 44.0373L34.8824 49.9233C36.192 52.44 38.3478 54.4137 40.97 55.4967C41.0352 55.5236 41.105 55.5375 41.1756 55.5376Z" fill="#FFB536" stroke="#FFFEFF" stroke-width="0.5" stroke-linejoin="round"/>
<path d="M39.6397 58.3915C39.736 58.3916 39.8306 58.3659 39.9137 58.3172C39.9968 58.2685 40.0655 58.1985 40.1125 58.1144L52.0522 36.7632C52.1223 36.638 52.1397 36.49 52.1007 36.3519C52.0617 36.2138 51.9694 36.0968 51.8441 36.0268C51.7189 35.9567 51.5709 35.9392 51.4328 35.9783C51.2947 36.0173 51.1777 36.1096 51.1077 36.2349L39.1682 57.5854C39.1221 57.6677 39.0984 57.7606 39.0993 57.855C39.1002 57.9493 39.1258 58.0417 39.1735 58.1231C39.2212 58.2045 39.2893 58.2721 39.3711 58.319C39.4529 58.366 39.5456 58.3907 39.6399 58.3908L39.6397 58.3915Z" fill="#FFB536" stroke="#FFFEFF" stroke-width="0.5" stroke-linejoin="round"/>
<path d="M43.9435 59.2285H57.9902C58.062 59.2297 58.1333 59.2165 58.2 59.1898C58.2666 59.1631 58.3273 59.1235 58.3785 59.0731C58.4297 59.0227 58.4703 58.9627 58.498 58.8965C58.5258 58.8303 58.54 58.7592 58.54 58.6874C58.54 58.6156 58.5258 58.5445 58.498 58.4783C58.4703 58.4121 58.4297 58.352 58.3785 58.3016C58.3273 58.2513 58.2666 58.2116 58.2 58.1849C58.1333 58.1582 58.062 58.1451 57.9902 58.1462H43.9435C41.9392 58.1502 39.9726 57.6019 38.2595 56.5615C36.5464 55.5211 35.1531 54.0288 34.2325 52.2485L31.1741 46.3624C30.1356 44.3622 28.5554 42.6944 26.614 41.5497L24.6401 40.385C24.5788 40.3481 24.5109 40.3237 24.4402 40.3132C24.3695 40.3027 24.2974 40.3064 24.2281 40.3239C24.1588 40.3415 24.0936 40.3726 24.0364 40.4154C23.9792 40.4583 23.931 40.512 23.8947 40.5736C23.8584 40.6352 23.8346 40.7033 23.8248 40.7741C23.815 40.8449 23.8193 40.917 23.8374 40.9861C23.8556 41.0553 23.8873 41.1201 23.9306 41.1769C23.974 41.2338 24.0282 41.2814 24.0901 41.3172L26.0638 42.4818C27.8305 43.5235 29.2686 45.0411 30.2138 46.8614L33.272 52.7473C34.2837 54.7038 35.8148 56.3437 37.6973 57.487C39.5798 58.6303 41.741 59.2329 43.9435 59.2285Z" fill="#FFB536" stroke="#FFFEFF" stroke-width="0.5" stroke-linejoin="round"/>
<path d="M57.9909 59.1206C58.067 59.1205 58.1416 59.1004 58.2074 59.0622C58.2732 59.0241 58.3278 58.9693 58.3657 58.9034C58.4036 58.8374 58.4235 58.7627 58.4233 58.6866C58.4232 58.6106 58.403 58.5359 58.3649 58.4701L48.7781 41.9614C48.7495 41.9123 48.7116 41.8692 48.6664 41.8348C48.6212 41.8003 48.5697 41.775 48.5148 41.7604C48.4598 41.7459 48.4026 41.7423 48.3462 41.7498C48.2899 41.7574 48.2356 41.776 48.1864 41.8045C48.1373 41.833 48.0942 41.871 48.0598 41.9162C48.0253 41.9613 48 42.0129 47.9854 42.0678C47.9709 42.1227 47.9672 42.18 47.9748 42.2363C47.9824 42.2927 48.001 42.347 48.0295 42.3961L57.6161 58.9048C57.6542 58.9705 57.7089 59.025 57.7747 59.0629C57.8404 59.1008 57.915 59.1207 57.9909 59.1206Z" fill="#FFB536" stroke="#FFFEFF" stroke-width="0.5" stroke-linejoin="round"/>
<path d="M38.9165 61.5401C39.4807 61.5401 40.0322 61.3728 40.5013 61.0593C40.9704 60.7458 41.3361 60.3003 41.5519 59.779C41.7678 59.2577 41.8243 58.6841 41.7142 58.1308C41.6041 57.5774 41.3324 57.0691 40.9334 56.6702C40.5344 56.2712 40.0261 55.9996 39.4727 55.8895C38.9194 55.7795 38.3458 55.836 37.8245 56.0519C37.3033 56.2679 36.8578 56.6335 36.5443 57.1027C36.2309 57.5718 36.0636 58.1233 36.0636 58.6876C36.0645 59.4439 36.3653 60.169 36.9002 60.7038C37.435 61.2385 38.1601 61.5393 38.9165 61.5401Z" fill="#00402A" stroke="#FFFEFF" stroke-width="0.5" stroke-linejoin="round"/>
<path d="M59.6006 58.6874C59.6006 59.0058 59.5061 59.3171 59.3292 59.5818C59.1523 59.8466 58.9009 60.0529 58.6067 60.1748C58.3125 60.2966 57.9888 60.3285 57.6765 60.2664C57.3642 60.2043 57.0773 60.0509 56.8522 59.8258C56.627 59.6006 56.4737 59.3138 56.4116 59.0015C56.3494 58.6891 56.3813 58.3654 56.5032 58.0712C56.625 57.7771 56.8314 57.5256 57.0962 57.3487C57.3609 57.1718 57.6722 57.0774 57.9906 57.0774C58.202 57.0774 58.4114 57.119 58.6067 57.1999C58.8021 57.2808 58.9796 57.3994 59.1291 57.5489C59.2786 57.6984 59.3972 57.8759 59.4781 58.0712C59.559 58.2666 59.6006 58.4759 59.6006 58.6874Z" fill="#00402A" stroke="#FFFEFF" stroke-width="0.5" stroke-linejoin="round"/>
<path d="M41.4102 58.6875C41.4102 59.1807 41.2639 59.6629 40.9899 60.0729C40.7159 60.483 40.3264 60.8026 39.8708 60.9914C39.4151 61.1801 38.9137 61.2295 38.43 61.1333C37.9463 61.0371 37.502 60.7996 37.1532 60.4508C36.8045 60.1021 36.567 59.6577 36.4707 59.174C36.3745 58.6903 36.4239 58.1889 36.6126 57.7332C36.8014 57.2776 37.121 56.8881 37.5311 56.6141C37.9412 56.3401 38.4233 56.1938 38.9165 56.1938C39.5779 56.1938 40.2121 56.4566 40.6798 56.9242C41.1475 57.3919 41.4102 58.0262 41.4102 58.6875Z" fill="#00402A" stroke="#FFFEFF" stroke-width="0.5" stroke-linejoin="round"/>
<path d="M36.8605 66.8593C36.9701 66.8597 37.0759 66.8184 37.1563 66.7439C37.2367 66.6694 37.2858 66.5671 37.2938 66.4578C37.3017 66.3484 37.2679 66.2401 37.1992 66.1547C37.1304 66.0693 37.0318 66.0132 36.9233 65.9976L32.1608 65.2941C32.0475 65.2778 31.9323 65.3071 31.8405 65.3755C31.7487 65.444 31.6877 65.546 31.671 65.6593C31.6543 65.7726 31.6831 65.8879 31.7512 65.98C31.8193 66.072 31.9211 66.1334 32.0343 66.1506L36.7966 66.8541C36.8178 66.8574 36.8391 66.8592 36.8605 66.8593Z" fill="#00402A" stroke="#FFFEFF" stroke-width="0.5" stroke-linejoin="round"/>
<path d="M54.5561 35.4714H50.3339C50.1835 35.4715 50.0392 35.5313 49.9328 35.6376C49.8265 35.744 49.7667 35.8883 49.7667 36.0388V36.7172C49.7667 36.8676 49.8265 37.0119 49.9328 37.1183C50.0392 37.2246 50.1835 37.2844 50.3339 37.2844H55.6648C55.7606 37.285 55.855 37.2612 55.9391 37.2153C56.0232 37.1695 56.0942 37.103 56.1456 37.0222C56.197 36.9413 56.227 36.8487 56.2328 36.7531C56.2387 36.6575 56.2202 36.562 56.179 36.4755C56.0285 36.1738 55.797 35.9201 55.5103 35.7427C55.2237 35.5653 54.8932 35.4714 54.5561 35.4714Z" fill="#00402A" stroke="#FFFEFF" stroke-width="0.5" stroke-linejoin="round"/>
<path d="M36.6977 59.337V64.3703C36.6977 64.3703 37.1306 65.155 37.6989 65.155C38.0792 65.1469 38.4567 65.0876 38.8212 64.9785L39.376 58.3232L36.6977 59.337Z" fill="#00402A" stroke="#FFFEFF" stroke-width="0.5" stroke-linejoin="round"/>
<path d="M36.7547 63.973C36.2998 63.9182 35.865 64.0422 34.5886 64.4338C33.185 64.8643 32.381 64.6262 32.2908 64.9689C32.2005 65.3117 32.3394 65.3322 32.3394 65.3322L38.692 66.7172C38.692 66.7172 39.6357 64.8552 38.8911 64.6176C37.2413 64.091 36.7547 63.973 36.7547 63.973Z" fill="#00402A" stroke="#FFFEFF" stroke-width="0.5" stroke-linejoin="round"/>
<path d="M46.034 30.2616C46.034 30.2616 36.715 37.3657 35.4887 43.1741C34.2624 48.9825 36.4223 61.3212 36.4223 61.3212C36.4223 61.3212 37.6012 61.8984 40.0083 61.6098C40.0083 61.6098 39.9622 45.4831 40.8281 44.3286C41.694 43.1741 55.0066 35.9225 55.656 33.7579C56.3054 31.5933 54.6383 29.2122 54.6383 29.2122L46.034 30.2616Z" fill="#00402A" stroke="#FFFEFF" stroke-width="0.5" stroke-linejoin="round"/>
<path d="M51.23 28.1577C51.2572 28.1577 51.284 28.1515 51.3084 28.1397C51.3329 28.1278 51.3543 28.1106 51.3711 28.0892C51.3879 28.0679 51.3997 28.043 51.4055 28.0165C51.4113 27.9899 51.411 27.9624 51.4047 27.936C51.314 27.5616 51.2452 27.3295 51.2423 27.3205C51.2283 27.2754 51.197 27.2376 51.1554 27.2154C51.1137 27.1931 51.0649 27.1882 51.0196 27.2017C50.9744 27.2151 50.9362 27.2459 50.9135 27.2873C50.8907 27.3287 50.8851 27.3774 50.898 27.4228C50.8989 27.425 50.9675 27.6565 51.0557 28.0209C51.0653 28.0599 51.0877 28.0946 51.1193 28.1194C51.1508 28.1442 51.1898 28.1577 51.23 28.1577Z" fill="#00402A" stroke="#FFFEFF" stroke-width="0.5" stroke-linejoin="round"/>
<path d="M42.5963 11.2821C42.5963 11.2821 40.7563 12.2201 40.2152 14.1681C39.6742 16.116 39.1138 20.4905 40.2152 21.6722C41.9484 23.5317 43.9269 27.5928 45.1419 31.086C45.4165 31.8757 55.4594 31.1454 55.3452 30.4105C55.1841 29.3747 50.3779 17.971 48.6099 14.3633C46.842 10.7555 42.5963 11.2821 42.5963 11.2821Z" fill="#00402A" stroke="#FFFEFF" stroke-width="0.5" stroke-linejoin="round"/>
<path d="M39.1211 9.33828C39.1211 9.33828 40.7808 12.4632 40.2399 14.0113C39.8879 15.1146 39.7091 16.2658 39.7101 17.4238C39.7101 19.5884 43.4678 11.2641 43.4678 11.2641L41.6279 7.75879L39.1211 9.33828Z" fill="#00402A" stroke="#FFFEFF" stroke-width="0.5" stroke-linejoin="round"/>
<path d="M14.5635 59.2291C14.6606 59.2292 14.7558 59.2032 14.8394 59.1538C14.923 59.1044 14.9918 59.0335 15.0385 58.9484L29.612 32.4268C29.7515 32.1722 29.8248 31.8866 29.8249 31.5963V29.8765C29.825 29.7629 29.8551 29.6513 29.9124 29.5532C29.9696 29.4551 30.0518 29.3739 30.1507 29.318C30.2495 29.262 30.3615 29.2333 30.475 29.2347C30.5886 29.2362 30.6997 29.2678 30.7971 29.3262L33.3347 30.8489C33.4577 30.9208 33.6041 30.9412 33.7421 30.9059C33.88 30.8705 33.9985 30.7822 34.0718 30.66C34.1451 30.5379 34.1673 30.3917 34.1335 30.2534C34.0998 30.115 34.0128 29.9955 33.8915 29.9208L31.3539 28.3982C31.0923 28.2412 30.7937 28.1565 30.4887 28.1526C30.1836 28.1487 29.8829 28.2259 29.6174 28.3762C29.3519 28.5265 29.131 28.7446 28.9774 29.0081C28.8237 29.2717 28.7427 29.5714 28.7426 29.8765V31.5963C28.7426 31.7043 28.7154 31.8107 28.6633 31.9054L14.0897 58.4269C14.0446 58.5093 14.0216 58.6021 14.0231 58.696C14.0246 58.79 14.0505 58.8819 14.0983 58.9628C14.1461 59.0438 14.2141 59.1109 14.2957 59.1575C14.3772 59.2042 14.4695 59.2289 14.5635 59.2291Z" fill="#FFB536" stroke="#FFFEFF" stroke-width="0.5" stroke-linejoin="round"/>
<path d="M16.1738 58.6874C16.1738 59.0058 16.0794 59.3171 15.9025 59.5818C15.7256 59.8466 15.4742 60.0529 15.18 60.1748C14.8858 60.2966 14.5621 60.3285 14.2498 60.2664C13.9375 60.2043 13.6506 60.051 13.4255 59.8258C13.2003 59.6007 13.047 59.3138 12.9848 59.0015C12.9227 58.6892 12.9546 58.3655 13.0764 58.0713C13.1982 57.7772 13.4045 57.5257 13.6693 57.3488C13.934 57.1719 14.2453 57.0774 14.5637 57.0774C14.7752 57.0774 14.9845 57.119 15.1799 57.1999C15.3752 57.2808 15.5527 57.3994 15.7022 57.5489C15.8517 57.6984 15.9703 57.8759 16.0512 58.0712C16.1322 58.2666 16.1738 58.4759 16.1738 58.6874Z" fill="#00402A" stroke="#FFFEFF" stroke-width="0.5" stroke-linejoin="round"/>
<path d="M30.9943 28.579C31.6706 27.9025 33.7194 27.6215 34.5311 27.8921C34.9698 28.0384 42.858 26.4471 43.0125 26.1868C43.3839 25.5612 42.8848 19.9402 42.5961 16.8014C42.3073 13.6627 42.6219 13.2564 43.379 12.452C44.0255 11.7644 46.9986 11.7997 47.466 13.2557C48.3688 16.0689 47.538 28.2172 47.0638 28.7285C45.3017 30.6283 34.3334 30.2163 34.1305 30.2163C33.8598 30.2163 33.3602 30.8362 33.0896 30.8362C32.5072 30.7876 31.9506 30.575 31.4842 30.2229C31.3336 30.104 30.3185 29.2553 30.9943 28.579Z" fill="#00402A" stroke="#FFFEFF" stroke-width="0.5" stroke-linejoin="round"/>
<path d="M39.919 1.71157C40.7302 1.87802 41.4576 2.3232 41.975 2.96989C42.7927 4.03249 43.1177 7.91826 40.7158 9.57774C38.3139 11.2372 36.6353 8.53703 36.4848 6.44315C36.3344 4.34927 36.6443 1.5261 39.919 1.71157Z" fill="#00402A" stroke="#FFFEFF" stroke-width="0.5" stroke-linejoin="round"/>
<path d="M43.3652 5.64188C43.4336 3.64949 43.0417 2.2124 41.5315 1.73601C40.0212 1.25962 38.7139 0.755748 37.6756 2.22963L37.4193 2.43247C37.4193 2.43247 39.8787 2.68468 40.2124 3.89213C40.5461 5.09958 42.1136 6.3702 41.9446 6.98993C41.6156 8.20038 42.0587 8.57337 42.0587 8.57337L42.274 8.36425C42.274 8.36425 43.2973 7.63428 43.3652 5.64188Z" fill="#FFF5EC" stroke="#FFFEFF" stroke-width="0.5" stroke-linejoin="round"/>
<path d="M40.817 5.30297C40.7103 5.86771 40.9453 6.37829 41.3418 6.44353C41.7383 6.50877 42.1467 6.10379 42.2535 5.53905C42.3603 4.97431 42.1255 4.46358 41.7287 4.39847C41.3319 4.33337 40.9239 4.73823 40.817 5.30297Z" fill="#00402A" stroke="#FFFEFF" stroke-width="0.5" stroke-linejoin="round"/>
</svg>
