<svg width="61" height="75" viewBox="0 0 61 75" fill="none" xmlns="http://www.w3.org/2000/svg">
<path d="M46.2134 15.9893H35.001L35.2286 16.9349H43.2925L45.4202 25.7715H37.3563L37.5839 26.7171H45.6466L47.7741 35.5536H39.7102L39.8997 36.3411L34.9997 15.9893H31.8525L45.8421 74.0915H48.9917L42.1784 45.7954L42.2958 46.2823H50.3597L52.4871 55.1191H44.4232L44.6511 56.0645H52.7149L54.8424 64.9013H46.7777L47.0052 65.8467H55.0691L57.0545 74.0926H60.203L46.2134 15.9893ZM42.0669 45.3358L39.9392 36.4993H48.0047L50.1321 45.3358H42.0669Z" fill="#00402A"/>
<path d="M26.2659 74.0915H27.1093L41.0989 15.9893H40.2555L26.2659 74.0915Z" fill="#DCEBE1"/>
<path d="M29.415 74.0915H27.1096L41.0992 15.9893H43.4043L29.415 74.0915Z" fill="#D8CFC7"/>
<path d="M15.0535 74.0918H15.8974L29.8867 15.9897H29.0431L15.0535 74.0918Z" fill="#DCEBE1"/>
<path d="M18.202 74.0913H15.8975L29.8868 15.9893H32.1919L18.202 74.0913Z" fill="#D8CFC7"/>
<path d="M29.6592 16.9349H40.0281L40.2557 15.9893H29.8868L29.6592 16.9349Z" fill="#DCEBE1"/>
<path d="M27.3037 26.7167H37.6727L37.9002 25.771H27.5316L27.3037 26.7167Z" fill="#DCEBE1"/>
<path d="M24.9485 36.4991H35.3174L35.545 35.5535H25.1763L24.9485 36.4991Z" fill="#DCEBE1"/>
<path d="M22.593 46.2811H32.962L33.1895 45.3354H22.8206L22.593 46.2811Z" fill="#DCEBE1"/>
<path d="M20.2378 56.0638H30.6067L30.8343 55.1182H20.4654L20.2378 56.0638Z" fill="#DCEBE1"/>
<path d="M17.8826 65.8453H28.2512L28.4788 64.8997H18.1101L17.8826 65.8453Z" fill="#DCEBE1"/>
<path d="M15.7304 16.4797C16.0174 16.7572 16.2719 16.9938 16.5519 17.2378C16.8245 17.4812 17.1061 17.7133 17.3868 17.9463C17.9559 18.4059 18.5376 18.8563 19.1545 19.2783C19.7831 19.7207 20.4387 20.1232 21.1176 20.4836C21.4857 20.6816 21.8648 20.8581 22.2533 21.0123C22.7172 21.198 23.2005 21.3307 23.6942 21.4078L23.8095 21.425C23.8874 21.436 23.9662 21.439 24.0446 21.434C24.5482 21.3996 25.0412 21.2725 25.4987 21.0593C25.8435 20.902 26.1754 20.7181 26.4915 20.5091C27.0453 20.1402 27.5691 19.728 28.0577 19.2762C28.5275 18.8421 28.9655 18.3958 29.3793 17.9302C29.7962 17.4645 30.1872 16.9764 30.5509 16.468C30.6875 16.2749 30.753 16.0403 30.7362 15.8043C30.7194 15.5683 30.6213 15.3454 30.4587 15.1736C30.2961 15.0019 30.079 14.8918 29.8444 14.8621C29.6098 14.8325 29.3721 14.8852 29.1719 15.0112L29.1442 15.029L27.6861 15.9481C27.2003 16.2511 26.7183 16.5486 26.2384 16.8193C25.7865 17.0836 25.32 17.322 24.8412 17.5334C24.6453 17.6221 24.442 17.6931 24.2335 17.7456C24.0638 17.7869 23.9205 17.7907 23.9666 17.7661L24.3172 17.7921C24.1304 17.7232 23.9487 17.6411 23.7736 17.5462C23.548 17.4239 23.2998 17.2816 23.0516 17.1207C22.8034 16.9597 22.548 16.7843 22.2946 16.598C22.0384 16.4161 21.7819 16.2242 21.5274 16.0251C21.0183 15.6262 20.5045 15.2123 19.9986 14.7854L19.2398 14.142L18.5022 13.5074L18.4663 13.4767C18.0657 13.131 17.5461 12.9553 17.018 12.9871C16.4899 13.0188 15.9951 13.2555 15.6387 13.6467C15.2824 14.038 15.0928 14.5529 15.1101 15.0819C15.1275 15.6109 15.3505 16.1123 15.7317 16.4793L15.7304 16.4797Z" fill="#EEA895"/>
<path d="M29.5347 16.5741L31.7981 16.8066L31.3051 14.1204C31.3051 14.1204 29.2294 14.1587 29.0715 15.2651L29.5347 16.5741Z" fill="#FF9C1A"/>
<path d="M33.6431 15.3285L33.3116 14.4165C33.2476 14.2408 33.1233 14.0936 32.9609 14.0009C32.7985 13.9083 32.6085 13.8763 32.4247 13.9107L31.3052 14.1213L31.7982 16.8066L33.1557 16.345C33.255 16.3111 33.3465 16.2577 33.425 16.188C33.5034 16.1183 33.5671 16.0337 33.6125 15.939C33.6579 15.8444 33.6839 15.7417 33.6892 15.6369C33.6944 15.532 33.6788 15.4272 33.6431 15.3285Z" fill="#FF9C1A"/>
<path d="M31.1001 16.2328C30.5069 16.6976 29.5192 18.1131 29.3204 18.5355C27.8249 17.9889 27.0785 16.5759 27.2795 16.0628C28.3014 15.2758 29.1799 14.7466 29.827 14.6208C30.8842 14.8448 31.1001 16.2328 31.1001 16.2328Z" fill="#FF9C1A"/>
<path d="M14.1221 14.2237C14.4536 15.3339 15.1783 16.8905 16.2865 17.5301C17.3946 18.1697 19.3117 20.5815 20.7768 21.2177C23.121 20.0162 23.2449 17.8893 22.9689 16.7928C21.5485 14.9104 18.9554 12.1501 17.6081 11.7843C16.4352 11.466 15.4209 13.3073 14.1221 14.2237Z" fill="#DCEBE1"/>
<path d="M14.3833 5.44299C13.6143 5.76244 13.1565 5.6403 13.1565 5.6403C13.1565 5.6403 13.6042 5.06032 13.6152 4.77045C13.5521 4.86561 13.4689 4.94571 13.3714 5.00509C13.2739 5.06447 13.1646 5.10167 13.0511 5.11406C13.4015 3.87419 12.6355 3.38226 12.8857 2.89914C13.3596 1.98346 15.1049 1.97353 14.9479 2.96145C15.6699 3.34321 15.8042 4.25595 15.8042 4.25595C15.6847 4.06499 15.519 3.90729 15.3224 3.79743C15.6235 4.50654 15.4741 5.51049 14.9542 6.26452C14.8555 6.26586 14.7579 6.24295 14.6701 6.19779C14.5823 6.15263 14.507 6.0866 14.4506 6.0055C14.3942 5.9244 14.3586 5.83071 14.3469 5.73263C14.3352 5.63456 14.3477 5.5351 14.3833 5.44299Z" fill="#00402A"/>
<path d="M5.34395 36.2398L4.66412 36.0647C4.18138 35.9404 3.89077 35.4481 4.01502 34.9651L5.08367 30.811C5.20793 30.3281 5.7 30.0373 6.18274 30.1616L6.86256 30.3367C7.3453 30.461 7.63592 30.9533 7.51167 31.4363L6.44301 35.5903C6.31876 36.0733 5.82669 36.3641 5.34395 36.2398Z" fill="#C66D00"/>
<path d="M6.99194 30.0535C6.04659 29.3943 5.49495 29.4031 5.12899 29.6686C4.76303 29.9341 4.67774 31.5461 4.16107 32.4C4.86117 32.7246 6.99194 30.0535 6.99194 30.0535Z" fill="#C66D00"/>
<path d="M8.19308 11.3689C10.8216 11.0785 13.473 11.0613 16.1051 11.3177C17.1877 11.4331 18.1892 11.9459 18.916 12.757C19.6428 13.568 20.0435 14.6198 20.0405 15.7091C20.0279 19.7581 18.9685 25.6651 18.2938 31.8825C12.129 33.952 6.93015 31.7777 6.93015 31.7777C6.79251 30.3577 6.86968 26.1385 7.34602 23.6551C6.99582 21.0914 6.10768 18.1559 5.60608 14.7512C5.54941 14.3585 5.57172 13.9585 5.6717 13.5746C5.77169 13.1906 5.94733 12.8306 6.18832 12.5155C6.42931 12.2004 6.73079 11.9367 7.07506 11.7398C7.41932 11.5429 7.79944 11.4168 8.19308 11.3689Z" fill="#DCEBE1"/>
<path d="M10.5757 6.46533C10.6617 8.08321 10.3804 9.69956 9.75298 11.1932C10.5838 11.9659 11.9309 12.9247 13.7257 12.8988C15.5204 12.8728 15.2244 11.9542 14.7429 11.3284C13.4567 10.6793 13.3746 9.72687 13.6891 9.14983L10.5757 6.46533Z" fill="#EEA895"/>
<path opacity="0.2" d="M10.5763 6.46631L13.6902 9.15058C13.5941 9.32829 13.5411 9.52615 13.5356 9.72814C13.5301 9.93013 13.5723 10.1306 13.6586 10.3132C13.0186 10.3503 12.3883 10.1439 11.8941 9.73529C11.093 9.09188 10.8042 8.31302 10.5786 7.20906C10.5853 6.97427 10.5831 6.72819 10.5763 6.46631Z" fill="#00402A"/>
<path d="M9.56745 5.12982C9.92058 7.14404 10.0251 8.34192 11.1673 9.2585C12.8851 10.6377 15.2848 9.40276 15.5407 7.3181C15.7708 5.4416 15.1544 2.46271 13.0773 1.89718C12.6174 1.77183 12.1332 1.76531 11.6701 1.87823C11.2069 1.99115 10.78 2.21983 10.4293 2.54284C10.0786 2.86585 9.81556 3.27263 9.66482 3.72509C9.51408 4.17755 9.48058 4.66088 9.56745 5.12982Z" fill="#EEA895"/>
<path d="M9.62581 5.81721C10.425 6.05155 10.8669 5.88065 10.8669 5.88065C10.8669 5.88065 10.3591 5.35238 10.3167 5.06544C10.3896 5.15317 10.4809 5.22379 10.5841 5.27228C10.6874 5.32078 10.8 5.34596 10.914 5.34606C10.4314 4.15157 11.1397 3.57949 10.8386 3.12617C10.2689 2.26829 8.27511 2.59632 8.53843 3.56211C8.34583 3.69563 8.19886 3.88511 8.11738 4.10492C8.0359 4.32472 8.02385 4.56426 8.08285 4.79114C8.17533 4.62285 8.31296 4.48374 8.48022 4.38952C8.25773 5.1273 8.06413 5.75062 9.14519 6.69587C9.24368 6.68687 9.33845 6.65377 9.42115 6.5995C9.50385 6.54522 9.57193 6.47143 9.61941 6.38462C9.66689 6.29782 9.69232 6.20066 9.69343 6.10172C9.69455 6.00277 9.67132 5.90507 9.62581 5.81721Z" fill="#00402A"/>
<path d="M9.48064 0.392322C9.40304 0.431715 7.58357 1.55581 7.59556 3.19498C7.60756 4.83415 7.90752 5.23555 7.90752 5.23555C7.84771 5.31095 7.79888 5.39444 7.76247 5.48353C7.7136 5.60815 7.99275 6.02992 8.23229 5.88916C9.86575 4.37358 12.1168 3.50316 14.6848 2.70805L16.622 2.01461C17.1887 1.89058 17.3301 1.68014 17.0533 1.62253C16.8411 1.5781 15.0817 1.48925 15.0817 1.48925L14.7017 1.37225L13.5151 0.534639C13.5151 0.534639 13.561 0.345525 13.3202 0.283992C13.0794 0.222459 11.0128 -0.38524 9.48064 0.392322Z" fill="#FF9C1A"/>
<path d="M14.7017 1.37231C14.7017 1.37231 14.6759 1.38261 14.626 1.39897L14.4072 1.46887C14.2161 1.52566 13.9439 1.62185 13.6096 1.74514C12.7425 2.07798 11.9062 2.48621 11.1104 2.96513C10.3156 3.44582 9.54876 3.97142 8.81371 4.53936C8.52945 4.75468 8.30279 4.9338 8.14581 5.05642L7.96447 5.19711C7.92286 5.2291 7.89983 5.2445 7.89983 5.2445C7.89983 5.2445 7.91989 5.22547 7.96018 5.1917L8.13737 5.04554C8.29213 4.91966 8.51627 4.73758 8.79883 4.51981C9.53043 3.94533 10.2965 3.41614 11.0927 2.93521C11.8899 2.45492 12.7295 2.0488 13.601 1.72196C14.272 1.47724 14.7017 1.37231 14.7017 1.37231Z" fill="#00402A"/>
<g opacity="0.3">
<path d="M7.97689 1.8783C7.97689 1.8783 9.98481 0.803364 11.0943 0.93376L10.9647 0.916137L12 1.0024C12.1749 1.01721 12.3758 1.02217 12.4961 0.894515C12.4961 0.894515 11.8673 0.627948 10.8745 0.633131C9.88166 0.638315 8.4248 0.994403 7.97689 1.8783Z" fill="#00402A"/>
</g>
<path d="M7.95015 1.90011C7.99446 1.83305 8.04377 1.76943 8.09766 1.70981C8.24222 1.54453 8.4057 1.3968 8.58473 1.26967C8.85026 1.0802 9.14215 0.930711 9.45108 0.825989C9.82727 0.687756 10.2288 0.631998 10.6284 0.662494C10.8337 0.683413 11.0375 0.71697 11.2387 0.762975C11.4332 0.807403 11.622 0.840132 11.8 0.889521C11.9637 0.943708 12.1318 0.983741 12.3025 1.00918C12.4514 1.02383 12.6018 1.00384 12.7418 0.950757C13.2668 0.778302 13.5504 0.55994 13.5154 0.534912C13.5133 0.556193 13.5035 0.575975 13.4879 0.590521C13.4454 0.632769 13.3977 0.669444 13.346 0.699665C13.1578 0.812654 12.9577 0.904652 12.7494 0.974007C12.6064 1.02973 12.4524 1.05155 12.2996 1.03776C12.1271 1.0134 11.9571 0.974081 11.7915 0.92025C11.6163 0.872416 11.4257 0.839835 11.2317 0.796148C11.0318 0.750881 10.8294 0.717721 10.6255 0.696851C10.2303 0.666795 9.83328 0.721086 9.4607 0.856125C9.15407 0.958633 8.86375 1.10466 8.59865 1.28974C8.4196 1.41435 8.25488 1.55838 8.1075 1.71921C8.05523 1.77608 8.01635 1.82184 7.99103 1.85375C7.9657 1.88567 7.95015 1.90011 7.95015 1.90011Z" fill="#00402A"/>
<g opacity="0.3">
<path d="M7.62167 3.87198C8.00186 3.73834 8.257 3.54014 8.60698 3.32735C8.97984 3.10064 9.35522 2.89356 9.71683 2.6493C9.99129 2.4642 10.3239 2.26807 10.446 1.98169C10.4866 2.05103 10.5087 2.12969 10.5099 2.21005C10.5112 2.29041 10.4918 2.36975 10.4534 2.44036C10.3757 2.59133 10.0456 2.85276 9.90548 2.9482C9.10519 3.49224 8.54893 3.86399 7.65469 4.24262C7.63566 4.11994 7.62491 3.99611 7.62248 3.87198" fill="#00402A"/>
</g>
<path d="M7.6023 3.01295C7.39685 3.20071 7.27298 3.32221 7.33666 3.53026C7.38967 3.70344 7.49636 3.90045 7.67524 3.87284C7.72929 3.86086 7.78062 3.83886 7.82657 3.80798C8.64288 3.32983 9.45913 2.85176 10.2753 2.37377C10.3638 2.33462 10.4358 2.26565 10.4787 2.1789C10.5271 2.03955 10.4056 1.88726 10.2632 1.84846C10.1208 1.80966 9.97008 1.85209 9.8297 1.89747C9.03126 2.1558 8.30316 2.5525 7.6023 3.01295Z" fill="#FF9C1A"/>
<path d="M10.4512 2.23161C10.474 2.18894 10.4849 2.14089 10.4825 2.09256C10.4768 2.02755 10.453 1.96546 10.4137 1.91333C10.3744 1.86121 10.3213 1.82116 10.2604 1.79774C10.1033 1.7445 9.89511 1.78019 9.69106 1.86245C9.48375 1.94552 9.25645 2.04014 9.02197 2.1472C8.61939 2.32569 8.23357 2.5398 7.8691 2.78697C7.72969 2.88248 7.62203 2.96696 7.54777 3.02545L7.46307 3.09394C7.4536 3.10256 7.44314 3.11002 7.4319 3.11615C7.43967 3.10602 7.44859 3.09683 7.45848 3.08876L7.53918 3.01524C7.611 2.95334 7.71688 2.86553 7.85496 2.76706C8.21696 2.51273 8.60302 2.29451 9.0076 2.11551C9.24297 2.00801 9.47072 1.91427 9.67951 1.83254C9.8883 1.7508 10.1019 1.71481 10.2692 1.77464C10.3334 1.80022 10.3889 1.84372 10.4291 1.89995C10.4693 1.95618 10.4926 2.02278 10.496 2.09182C10.497 2.12911 10.4891 2.16611 10.4731 2.19977C10.4674 2.21142 10.4601 2.22216 10.4512 2.23161Z" fill="#00402A"/>
<path d="M13.8875 0.797852L12.2204 1.3319L12.5204 1.75029L14.3071 1.09408L13.8875 0.797852Z" fill="white"/>
<path d="M11.8885 3.12652C11.8842 3.11801 12.586 2.75914 13.4557 2.3252C14.3253 1.89125 15.0343 1.54608 15.0386 1.5546C15.0428 1.56311 14.3412 1.92198 13.4711 2.35607C12.6011 2.79016 11.8927 3.13511 11.8885 3.12652Z" fill="#00402A"/>
<path d="M8.95897 6.68487C9.16207 7.11195 9.5201 7.44562 9.96027 7.61806C10.5198 7.8192 10.787 7.26682 10.6209 6.6641C10.4713 6.12233 9.99976 5.36296 9.44315 5.42413C8.89534 5.48463 8.69386 6.14039 8.95897 6.68487Z" fill="#EEA895"/>
<path d="M12.0858 50.1684C10.4341 40.9473 9.747 29.83 9.747 29.83L18.8389 29.6914C18.8389 29.6914 17.7935 44.6757 17.4299 50.9518C17.0527 57.4776 16.7873 70.0349 16.7873 70.0349H13.752C13.752 70.0349 11.1695 58.2363 12.0858 50.1684Z" fill="#00A443"/>
<path opacity="0.2" d="M13.8706 32.3425C13.8706 32.3425 12.6747 41.2916 11.6954 47.8544C10.8244 42.3391 10.2716 36.5439 9.98502 33.0582L13.8706 32.3425Z" fill="#00402A"/>
<path d="M20.8649 73.1179C20.8649 73.1179 16.7891 72.1611 16.6102 70.77L14.0105 71.1087L13.7274 73.8151H14.801L14.9709 73.4791L15.3319 73.8151C18.9776 73.8151 20.3288 73.7764 21.0048 73.5511C21.0245 73.4731 21.0218 73.391 20.9971 73.3144C20.9723 73.2378 20.9265 73.1697 20.8649 73.1179Z" fill="#00402A"/>
<path d="M13.6417 71.5966C14.6165 71.6531 16.5661 71.5109 16.9456 71.3233C17.3251 71.1357 17.1011 69.6213 17.1011 69.6213C17.1011 69.6213 13.6938 69.2826 13.3917 69.4707C13.0896 69.6587 13.6417 71.5966 13.6417 71.5966Z" fill="#00A443"/>
<path d="M13.6417 71.5966C14.6165 71.6531 16.5661 71.5109 16.9456 71.3233C17.3251 71.1357 17.1011 69.6213 17.1011 69.6213C17.1011 69.6213 13.6938 69.2826 13.3917 69.4707C13.0896 69.6587 13.6417 71.5966 13.6417 71.5966Z" fill="#5BD38C"/>
<path d="M3.91443 49.9086C5.41564 40.6362 5.25024 34.4398 6.75213 29.8696L15.4597 29.752C15.4597 29.752 11.3058 44.4628 9.41021 50.5884C7.50713 56.7378 4.07238 70.0352 4.07238 70.0352H1.28974C1.28974 70.0352 1.40234 57.0819 3.91443 49.9086Z" fill="#00A443"/>
<path d="M7.00164 73.1179C7.00164 73.1179 3.92724 72.1611 3.74831 70.77L1.14866 71.1087L0.865481 73.8151H1.53722L1.70713 73.4791L2.06816 73.8151C5.71389 73.8151 6.46551 73.7764 7.14154 73.5511C7.16121 73.4731 7.15852 73.391 7.13378 73.3144C7.10904 73.2378 7.06325 73.1697 7.00164 73.1179Z" fill="#00402A"/>
<path d="M0.865468 71.5312C1.46523 71.6535 3.73114 71.5113 4.13843 71.3237C4.54572 71.1361 4.41733 69.5463 4.41733 69.5463C4.41733 69.5463 1.33435 69.1794 1.00446 69.3677C0.674572 69.556 0.865468 71.5312 0.865468 71.5312Z" fill="#00A443"/>
<path d="M0.865468 71.5312C1.46523 71.6535 3.73114 71.5113 4.13843 71.3237C4.54572 71.1361 4.41733 69.5463 4.41733 69.5463C4.41733 69.5463 1.33435 69.1794 1.00446 69.3677C0.674572 69.556 0.865468 71.5312 0.865468 71.5312Z" fill="#5BD38C"/>
<path d="M18.8388 29.6922C18.9266 28.6729 19.7946 21.4317 19.8269 20.7684C19.7845 17.1615 17.9717 12.5675 16.7807 11.2507C16.5075 11.1315 16.2007 11.1137 15.9156 11.2006C15.9156 11.2006 17.5578 13.2951 18.0091 16.7818C14.9873 17.5092 11.7276 17.1455 10.8752 16.9698C10.5762 14.5368 9.07746 11.602 8.7399 11.1859C8.46498 11.1699 8.18964 11.209 7.93006 11.301C7.93006 11.301 9.56801 14.5777 9.74694 17.0949C9.92588 19.6121 6.65179 20.8326 6.65179 20.8326C6.65179 20.8326 7.00266 23.0147 6.92752 23.9932C6.85238 24.9716 6.75198 29.8697 6.75198 29.8697C6.75198 29.8697 14.6039 31.1513 18.8388 29.6922Z" fill="#00A443"/>
<path d="M16.6631 32.8974L18.1918 29.061L18.3416 29.1209L18.4917 29.1807L16.9636 33.0166L17.0022 33.3552L16.5485 34.0652L16.3961 34.0045L16.2438 33.9437L16.4018 33.1159L16.6631 32.8974Z" fill="white"/>
<path d="M18.2246 29.4132C18.3574 29.4652 18.5053 29.4627 18.6362 29.4063C18.7672 29.3498 18.8706 29.244 18.9241 29.1118L20.3321 25.5775C20.3841 25.4447 20.3816 25.2967 20.3252 25.1657C20.2688 25.0346 20.1631 24.9311 20.0309 24.8777C19.8981 24.8256 19.7502 24.8281 19.6193 24.8845C19.4883 24.9408 19.3849 25.0466 19.3314 25.1788L17.9236 28.7131C17.8715 28.8459 17.8739 28.9939 17.9303 29.125C17.9866 29.2561 18.0924 29.3596 18.2246 29.4132Z" fill="#FF9C1A"/>
<path d="M18.8886 29.1967C19.0371 29.3484 19.0621 30.33 18.7636 30.7741C16.7515 31.8087 11.4527 31.9609 6.50684 30.6815C6.38837 30.1009 6.43486 29.3234 6.76881 29.085C7.45387 29.662 12.6829 30.491 16.2666 30.0257C17.1867 29.9251 18.0778 29.6433 18.8886 29.1967Z" fill="#00402A"/>
<path d="M18.1346 18.1108C18.1346 18.1108 16.2541 18.8823 11.0079 18.5059C10.9413 20.1258 10.9978 21.7484 11.1771 23.3597C11.3276 24.3192 15.4596 25.241 15.4596 25.241C15.4596 25.241 18.0969 24.2251 18.3038 23.0398C18.5107 21.8546 18.1346 18.1108 18.1346 18.1108Z" fill="#5BD38C"/>
<path d="M5.39456 12.9464C5.10122 13.2173 4.85301 13.4607 4.5933 13.7262C4.33584 13.9851 4.08899 14.254 3.841 14.5227C3.35136 15.0665 2.87073 15.6223 2.41628 16.2159C1.94082 16.82 1.50372 17.4533 1.10755 18.1122C0.889983 18.4694 0.693121 18.8387 0.517943 19.2184C0.30762 19.6717 0.149118 20.1473 0.0454473 20.6362L0.0228815 20.7507C0.00717068 20.8278 -0.000393867 20.9063 0.000315666 20.985C0.00723839 21.49 0.107218 21.9894 0.295234 22.4581C0.433805 22.8109 0.599788 23.1523 0.791653 23.4792C1.12976 24.0524 1.51283 24.5979 1.93724 25.1105C2.34476 25.6036 2.76694 26.0655 3.20875 26.5039C3.65099 26.9456 4.11695 27.3629 4.60458 27.7539C4.78996 27.9007 5.02046 27.9787 5.25683 27.9746C5.49321 27.9705 5.72087 27.8846 5.90108 27.7315C6.08128 27.5784 6.2029 27.3676 6.24525 27.1349C6.28759 26.9022 6.24804 26.662 6.13332 26.4551L6.11707 26.4265L5.2788 24.92C5.00284 24.4181 4.73207 23.9206 4.48905 23.4261C4.24968 22.9606 4.03708 22.4817 3.85228 21.9919C3.77442 21.7913 3.71454 21.5843 3.67335 21.3731C3.64131 21.2013 3.64582 21.0582 3.66748 21.1056L3.62235 21.4541C3.70088 21.271 3.79235 21.0937 3.89606 20.9236C4.03144 20.7055 4.18579 20.464 4.36021 20.2237C4.53463 19.9835 4.72304 19.7388 4.92296 19.4957C5.11814 19.2496 5.32371 19.0037 5.53627 18.7597C5.96206 18.273 6.40251 17.7819 6.85628 17.2997L7.53953 16.5773L8.21307 15.875L8.24557 15.8409C8.61097 15.4592 8.81335 14.9501 8.80977 14.4216C8.80618 13.8931 8.59691 13.3868 8.22636 13.0101C7.85582 12.6335 7.35315 12.4161 6.82504 12.4041C6.29693 12.3921 5.78495 12.5865 5.39772 12.946L5.39456 12.9464Z" fill="#EEA895"/>
<path d="M4.7949 25.8337L7.07007 25.8662L6.26821 28.476C6.26821 28.476 4.21167 28.1965 4.18347 27.0794L4.7949 25.8337Z" fill="#FF9C1A"/>
<path d="M8.73067 27.5492L8.29545 28.4164C8.21137 28.5835 8.07079 28.7153 7.89872 28.7883C7.72665 28.8614 7.53424 28.8711 7.35573 28.8155L6.26824 28.4769L7.0701 25.8672L8.36471 26.4837C8.45927 26.5289 8.54388 26.5925 8.61361 26.6708C8.68334 26.7491 8.73679 26.8405 8.77085 26.9397C8.80492 27.0389 8.81891 27.1438 8.81201 27.2485C8.80511 27.3531 8.77746 27.4553 8.73067 27.5492Z" fill="#FF9C1A"/>
<path d="M6.21924 26.188C5.70712 25.5893 5.3098 24.9012 5.04724 24.1582C3.49256 24.5016 2.56516 25.8031 2.69671 26.3384C3.60561 27.254 4.40619 27.8961 5.031 28.1056C5.91349 27.6426 6.21924 26.188 6.21924 26.188Z" fill="#FF9C1A"/>
<path d="M7.73412 11.4622C6.60794 11.7331 5.01512 12.3726 4.31675 13.445C3.61838 14.5173 1.73787 16.5681 1.02235 17.9979C2.09416 20.4049 3.5798 20.3778 4.68906 20.1613C6.64472 18.8445 9.16516 17.2102 9.20194 15.8139C9.23488 14.5979 8.57803 12.8095 7.73412 11.4622Z" fill="#DCEBE1"/>
<path d="M6.53849 25.3164C6.66433 25.3113 6.78698 25.2753 6.89559 25.2115C6.94704 25.1837 6.99768 25.1543 7.04752 25.1233C7.27876 25.0916 7.50052 25.0107 7.69785 24.886C7.89518 24.7613 8.06349 24.5957 8.19141 24.4004C8.33644 24.1451 8.44171 23.8692 8.50361 23.5822C9.15676 21.1165 9.41625 19.0864 9.32025 17.1926C9.29358 16.656 9.23432 16.1215 9.14278 15.5921C8.98483 14.6604 8.71187 13.7519 8.33017 12.8875C8.13873 12.4573 7.9162 12.0416 7.66437 11.6438C7.64985 11.6212 7.63237 11.5899 7.61059 11.5523C7.47775 11.3128 7.3538 11.1124 7.18251 11.0831C7.1251 11.0719 7.06572 11.0768 7.01095 11.0973C6.94696 11.0335 6.86526 10.9904 6.77647 10.9736C6.73597 10.9676 6.69465 10.9709 6.65558 10.9832C6.61652 10.9954 6.58073 11.0163 6.55087 11.0443C6.49587 11.1003 6.45992 11.1723 6.44814 11.2499C6.35187 11.7145 6.5557 12.1439 6.75334 12.5593C6.7918 12.64 6.83025 12.7207 6.86574 12.8014C7.38579 13.9733 7.34385 15.3156 7.30325 16.6134C7.2933 16.9263 7.28335 17.2386 7.2812 17.548C7.27904 17.8084 7.2828 18.0691 7.2863 18.3298C7.29302 18.8047 7.29975 19.2957 7.27017 19.7751C7.23575 20.3234 7.15239 20.8781 7.07172 21.4127C7.00549 21.9649 6.89003 22.5101 6.72672 23.0417C6.66461 23.2236 6.58877 23.4071 6.51537 23.5846C6.34732 23.9487 6.22529 24.3324 6.15209 24.7267C6.13113 24.8135 6.13164 24.9041 6.15356 24.9907C6.17549 25.0773 6.21818 25.1572 6.27793 25.2236C6.35018 25.286 6.44311 25.3191 6.53849 25.3164ZM6.95125 24.8653C6.86746 24.8733 6.78309 24.8733 6.6993 24.8653C7.0865 24.4239 7.42879 23.9451 7.72111 23.4359C8.43988 22.1157 8.55739 20.5591 8.61144 19.2034C8.61144 19.1983 8.61144 19.1934 8.61144 19.1886C8.66034 19.8907 8.65557 20.5954 8.59718 21.2968C8.55852 22.0193 8.4009 22.7305 8.13065 23.4017C7.88675 23.9931 7.47718 24.5014 6.95125 24.8653ZM8.36969 17.3944C8.38045 18.0277 8.36405 18.6341 8.34281 19.1926C8.28903 20.5179 8.17609 22.038 7.48502 23.3073C7.17967 23.8339 6.82211 24.3285 6.41776 24.7835C6.41776 24.7773 6.41937 24.7711 6.42044 24.7649C6.49039 24.3926 6.60656 24.0306 6.76625 23.6871C6.84101 23.5058 6.91845 23.3183 6.98298 23.1284C7.15214 22.5816 7.27157 22.0208 7.33981 21.4525C7.42048 20.9112 7.50546 20.3516 7.54068 19.7915C7.57107 19.3019 7.56407 18.8058 7.55735 18.3258C7.55385 18.067 7.55009 17.8084 7.55224 17.5496C7.5544 17.2424 7.56434 16.9325 7.57402 16.6215C7.63571 15.7002 7.59966 14.775 7.46647 13.8614L7.67271 14.6026C7.92494 15.5138 8.18496 16.4485 8.36969 17.3944ZM8.01179 24.1741C7.99646 24.201 7.98033 24.2303 7.96339 24.2578C7.90648 24.348 7.83815 24.4305 7.7601 24.5031C7.85005 24.3982 7.93408 24.2884 8.01179 24.1741ZM7.4471 11.8038C7.6877 12.1861 7.90076 12.585 8.08466 12.9975C8.45716 13.8415 8.72352 14.7285 8.87764 15.6381C8.96722 16.1569 9.02532 16.6806 9.05162 17.2063C9.09834 18.2189 9.0519 19.2336 8.91287 20.2376C8.9171 19.5773 8.87478 18.9176 8.78622 18.2634C8.74588 17.9631 8.6956 17.664 8.63779 17.3661C8.62816 16.6151 8.57005 15.8654 8.46381 15.1219C8.30747 13.9679 7.96416 12.8472 7.44737 11.8038H7.4471ZM7.20509 11.9236C7.70951 12.9416 8.04457 14.0351 8.19706 15.1611C8.22915 15.3789 8.25604 15.596 8.27773 15.8125C8.16533 15.382 8.04648 14.9516 7.92816 14.5305L7.20509 11.9236ZM6.83993 11.3061C6.81675 11.4294 6.82283 11.5564 6.85768 11.6768L7.19703 12.8991C7.17014 12.8297 7.14163 12.7605 7.11125 12.6922C7.07468 12.6099 7.03542 12.527 6.99589 12.4439C6.81761 12.0672 6.63341 11.6806 6.71112 11.3045C6.72107 11.2574 6.72995 11.2448 6.73344 11.2415C6.7563 11.2375 6.79664 11.2604 6.84127 11.3061H6.83993Z" fill="#C66D00"/>
</svg>
