<svg width="73" height="79" viewBox="0 0 73 79" fill="none" xmlns="http://www.w3.org/2000/svg">
<path d="M18.4772 22.702C13.7583 24.6849 12.2391 20.3525 12.3581 20.4669C12.2682 20.3687 11.5581 20.052 11.1041 19.8248C9.21294 18.8781 8.06964 16.6766 8.11271 14.4615C5.39911 12.7746 4.69208 9.20257 6.5533 7.22863C5.98058 5.0334 7.49127 2.62361 9.41154 1.5109C10.8654 -1.07723 14.5331 0.0303732 16.5102 2.06108C17.5124 3.09032 18.0925 4.59836 18.077 6.10169C20.4032 7.08491 21.6197 9.7039 21.0914 12.3456C24.2294 14.9832 23.2928 20.6785 18.4772 22.702Z" fill="#FFCD52"/>
<path d="M1.23364 36.8263L0.428497 36.619C0.44366 36.5568 1.97409 30.3486 3.60491 24.17C4.56343 20.5385 5.36885 17.6268 5.99888 15.5159C7.24068 11.3545 7.51699 11.2388 7.76108 11.1367L8.07575 11.9228C8.10904 11.91 8.13922 11.8902 8.16431 11.8648C7.96584 12.0939 7.19278 13.8095 4.30849 24.7652C2.71672 30.8096 1.24827 36.767 1.23364 36.8263Z" fill="#C66D00"/>
<circle cx="19.9504" cy="27.0585" r="1.06529" fill="#00402A"/>
<path d="M18.672 27.4842L15.05 20.8794L18.2458 18.9619L20.8025 25.9928L18.672 27.4842Z" fill="#F8A492"/>
<path d="M28.466 36.22C28.466 36.22 28.1037 35.9307 27.9904 35.8252C27.858 35.7015 27.4893 35.3001 27.4893 35.3001C27.4893 35.3001 26.2708 33.8416 26.3856 33.7597C26.5005 33.6779 26.8487 33.8113 26.9553 33.8749C27.0618 33.9385 27.1928 34.0025 27.2995 34.0661C27.3271 34.0819 27.3576 34.092 27.3892 34.096C27.4207 34.0999 27.4528 34.0976 27.4835 34.0891C27.5142 34.0807 27.5428 34.0662 27.5679 34.0466C27.593 34.0271 27.614 34.0027 27.6296 33.975C27.7178 33.8475 27.3478 33.5014 27.1957 33.4075C26.7224 33.1144 25.4898 32.1715 24.4245 32.3845C24.2494 32.3109 21.2336 28.0137 20.5895 27.0581C20.5895 27.0581 20.3764 27.2712 19.5242 27.6973C20.9242 29.3472 23.0772 32.9319 23.307 33.2176C23.307 33.2176 23.766 34.2567 24.0193 34.9353C24.2727 35.6139 24.7774 36.1368 24.8781 36.3165C25.1276 36.7859 25.4553 37.2094 25.8471 37.5686C26.4005 38.0754 26.1065 37.3358 26.1065 37.3358C26.1065 37.3358 25.2489 36.2086 25.3488 36.1549C25.4256 36.1134 25.858 36.7572 26.4645 37.3244C26.6206 37.4702 26.7751 37.6136 26.918 37.7441C27.2937 38.0869 27.6097 37.9493 27.2738 37.5269C27.1238 37.3337 26.9599 37.1518 26.7834 36.9825C26.6258 36.8152 26.4822 36.6353 26.354 36.4446C26.1956 36.2686 26.0488 36.0824 25.9145 35.8873C25.9392 35.8824 25.9319 35.7808 26.1024 35.9303C26.3071 36.1101 26.6582 36.5904 26.9796 36.831C27.1619 36.9674 27.5257 37.2762 27.5257 37.2762C27.5257 37.2762 28.1698 37.711 28.2034 37.6801C28.3859 37.5132 28.0134 37.0681 27.7415 36.9152C27.5881 36.7304 27.4154 36.5623 27.2265 36.414C27.2265 36.414 26.576 35.598 26.6897 35.5015C26.7828 35.4226 28.716 37.069 28.8863 36.8887C29.0249 36.7419 28.466 36.22 28.466 36.22Z" fill="#00402A"/>
<path d="M24.9943 33.9028C24.9943 33.9028 25.9644 34.2729 26.3723 33.7725C26.3312 33.8834 26.2625 33.9821 26.1726 34.0591C26.0827 34.1361 25.9746 34.1889 25.8586 34.2125C25.4686 34.2805 24.9943 33.9028 24.9943 33.9028Z" fill="#00A443"/>
<path d="M11.4718 39.3418L13.2598 55.8756C13.2598 55.8756 12.3859 59.372 12.4913 60.3653C12.5966 61.3586 14.435 74.389 14.435 74.389L14.352 75.1047L14.3073 77.2249L21.1786 77.2785C19.978 76.6897 18.8175 76.0223 17.7046 75.2808C17.5407 75.1589 17.4044 75.0038 17.3046 74.8255C17.2049 74.6473 17.1439 74.45 17.1257 74.2465C16.5846 70.2302 17.6549 56.8337 17.6549 56.8337L18.4979 39.3956L11.4718 39.3418Z" fill="#F7A491"/>
<path d="M7.56302 41.9839C7.17776 42.0847 6.58452 56.2752 6.26541 56.9035C4.24222 60.8908 3.76126 73.013 3.76126 73.013L2.9266 74.7105L3.11822 76.346C3.11822 76.346 4.62813 77.2418 5.68757 76.6376L5.52373 74.9997L5.39855 72.8116L10.5018 57.709L13.295 42.3039L7.56302 41.9839Z" fill="#F7A491"/>
<path d="M20.6411 49.6749L20.8838 39.8841C20.9258 37.1171 20.0345 34.4628 18.9401 31.9428L16.6239 27.9111C15.8778 28.1561 15.4668 25.8727 14.6827 25.9636C14.0913 26.0322 13.6862 26.1734 13.1371 26.207C12.1021 26.2703 11.4732 28.3626 10.3657 28.2314C10.3605 28.2978 9.6722 28.5615 9.65543 28.6086C9.12538 30.0883 7.77233 31.6714 7.05011 36.065C6.23021 41.0524 6.23369 49.6238 6.33608 50.2087C14.1747 50.5665 16.043 50.85 20.6411 49.6749Z" fill="#00402A"/>
<path d="M14.2743 77.7701H21.3678C21.63 77.7457 21.694 77.5237 21.603 77.3871C21.4151 77.1053 20.5881 76.8991 19.6581 76.4506C18.0266 76.6285 14.6125 75.3863 14.3555 74.9946C14.207 75.7787 14.1285 77.7367 14.2743 77.7701Z" fill="#002A24"/>
<path d="M2.9302 74.7061C2.9302 74.7061 3.56089 76.5579 4.24151 76.5042C4.92212 76.4505 5.51874 74.9909 5.51874 74.9909C5.51874 74.9909 5.77369 76.2193 5.65493 76.8964C5.53617 77.5736 4.56503 78.2673 3.90092 77.9646C3.23681 77.6619 2.33426 76.0945 2.9302 74.7061Z" fill="#002A24"/>
<path d="M16.116 21.575C16.7745 21.4815 17.4225 21.3249 18.051 21.1075C18.6195 20.9023 19.5646 20.4538 19.5646 20.4538C19.5646 20.4538 19.0336 15.8413 17.6968 13.0482C17.1443 11.8942 16.5857 11.3368 15.8066 11.2031C15.8006 11.2022 16.116 21.575 16.116 21.575Z" fill="#007F33"/>
<path d="M17.8333 16.3555C17.6329 15.6072 17.1854 14.6232 16.93 13.9447C16.4967 12.7926 16.3679 11.7164 15.9859 11.2551C15.7794 11.007 13.1331 11.0439 12.8081 11.0112C12.6739 10.9967 12.1444 11.0317 11.6319 11.0636L11.633 11.0624C11.3327 11.0972 8.35057 11.3378 7.91781 11.5298C5.76969 13.6826 4.7305 16.5814 3.11552 19.7483C3.11552 19.7483 4.32524 20.4595 5.2894 20.9085C5.70834 21.1032 6.51149 21.415 6.51149 21.415L8.37326 18.2088C8.39365 18.1928 8.49038 18.0869 8.51829 18.1551C8.5611 18.2616 9.92074 28.2535 9.92074 28.2535C9.92074 28.2535 15.4317 28.7167 16.7251 28.0812C16.7251 28.0812 16.9642 21.4104 17.4404 19.4527C17.6167 18.7334 18.1561 17.5605 17.8333 16.3555Z" fill="#00A443"/>
<path d="M11.2694 7.99682C11.2694 7.99682 11.6827 10.3238 11.5999 11.2417C11.5171 12.1595 11.9153 15.1175 13.6997 15.1273C15.4842 15.1371 14.2717 12.0559 14.1036 11.1566C13.9356 10.2573 13.6627 6.7832 13.6627 6.7832L11.2694 7.99682Z" fill="#F7A491"/>
<path d="M13.7695 8.10779C13.7417 7.34613 13.6628 6.7832 13.6628 6.7832L11.2695 7.99682C11.2695 7.99682 11.354 8.47265 11.439 9.07879C11.8802 9.18384 12.3434 9.14647 12.762 8.97203C13.1807 8.79759 13.5334 8.49505 13.7695 8.10779Z" fill="#F47458"/>
<path d="M11.2185 1.23749C10.5399 1.5315 9.98908 2.05888 9.66581 2.72405C9.11858 3.84401 8.93812 6.97883 11.1438 8.18305C13.3495 9.38728 14.8048 7.16629 14.6678 5.17598C14.5308 3.18567 13.9195 0.578212 11.2185 1.23749Z" fill="#F7A491"/>
<path d="M15.0944 4.50017C14.9558 4.99976 14.6271 5.33738 14.3601 5.25405C14.0931 5.17072 13.989 4.69824 14.1275 4.19864C14.266 3.69905 14.5948 3.36143 14.8618 3.44476C15.1289 3.5281 15.2327 4.00058 15.0944 4.50017Z" fill="#F7A491"/>
<path d="M9.86015 5.48987C10.0541 5.98919 9.95758 6.51361 9.64465 6.66082C9.33171 6.80803 8.92004 6.52274 8.7268 6.02328C8.53357 5.52383 8.62937 4.9994 8.94244 4.8522C9.25551 4.70499 9.66638 4.99041 9.86015 5.48987Z" fill="#F7A491"/>
<path d="M9.1905 36.7899V39.9646C9.1905 41.6151 8.02802 42.9534 6.5942 42.9534H3.92382V35.5522H8.11593C8.2563 35.5539 8.39474 35.5851 8.52227 35.6437C8.6498 35.7024 8.76353 35.7873 8.85611 35.8928C9.07549 36.1397 9.19475 36.4596 9.1905 36.7899Z" fill="#C66D00"/>
<path d="M8.85565 35.8922H8.83793C8.28681 35.8922 7.84021 36.4065 7.84021 37.0408V39.3757C7.84021 41.351 6.44909 42.9524 4.73319 42.9524H3.10705C1.39115 42.9524 -6.67572e-06 41.351 -6.67572e-06 39.3757V37.0519C-6.67572e-06 36.2232 0.583603 35.5513 1.30353 35.5513H8.11544C8.25584 35.553 8.39432 35.5842 8.52185 35.643C8.64937 35.7017 8.76311 35.7867 8.85565 35.8922Z" fill="#FF9C1A"/>
<path d="M9.19806 36.7246L8.36713 36.7207C8.36713 36.6619 8.39399 30.77 8.31455 24.7622C8.26826 21.2363 8.19539 18.3613 8.09784 16.2176C7.93131 12.5542 7.72801 11.8981 7.66991 11.7912C7.68075 11.5708 7.71104 11.3518 7.76046 11.1367C7.83341 11.1063 7.91288 11.0948 7.99146 11.1033C8.07004 11.1118 8.14521 11.1399 8.21001 11.1852C8.42472 11.3328 8.55688 11.6156 8.68865 12.7514C8.77011 13.4547 8.84326 14.453 8.90593 15.7183C9.011 17.8385 9.08975 20.7466 9.14007 24.3616C9.22555 30.5117 9.19819 36.6631 9.19806 36.7246Z" fill="#C66D00"/>
<path d="M13.3681 31.0829C13.4744 31.1053 14.206 31.1484 14.206 31.1484C14.206 31.1484 15.2787 30.4985 15.4321 30.8061C15.479 30.8984 14.3203 31.5584 14.3203 31.5584C14.3203 31.5584 13.2005 31.5954 12.9328 31.5871C12.4343 31.5749 11.3858 31.4334 9.82652 30.273C8.47777 29.5843 1.69943 25.63 1.59932 24.8774C1.53987 24.4326 2.57204 22.112 3.57123 20.0107C4.01271 20.2567 4.69724 20.6319 5.28982 20.9086C5.56974 21.0378 6.02143 21.2202 6.28927 21.3267C5.6414 22.5774 5.02787 23.8647 5.10839 24.1313C5.17777 24.3649 10.9673 28.7828 10.9673 28.7828L12.1239 28.6248C12.1239 28.6248 14.1636 28.8664 14.2104 29.1107C14.2594 29.3523 13.3501 29.2891 13.2296 29.3254C13.1179 29.3586 13.0113 29.4069 12.9126 29.4689C13.2481 29.6287 13.7791 29.8849 14.0776 29.8974C14.7619 29.9219 15.5551 29.8215 15.6409 29.9199C15.741 30.0348 14.7009 30.3504 13.9673 30.3955C13.6668 30.4118 13.485 30.3197 13.3541 30.3443C13.1763 30.3812 13.4883 30.5247 13.9898 30.494C14.2758 30.4754 14.7744 30.3176 15.0891 30.2724C15.6061 30.1987 15.8962 30.2397 15.9393 30.2848C16.0108 30.3586 14.4719 30.8528 14.4719 30.8528C14.4719 30.8528 13.4706 30.9839 13.2417 30.9715C13.2413 30.9721 13.1024 31.0295 13.3681 31.0829Z" fill="#F8A492"/>
<path d="M46.0111 14.6275C44.3625 15.1379 43.1046 22.4117 42.5889 23.8903C42.2016 24.999 38.4609 31.9493 38.4609 31.9493C38.4609 31.9493 35.0244 32.9054 35.3469 33.4415C35.7723 34.1082 36.3893 34.6311 37.1171 34.9417C37.6532 35.0491 39.3166 33.7095 39.4775 33.3341C39.585 33.0026 39.6393 32.6562 39.6384 32.3078C39.6384 32.3078 43.6264 26.2987 44.1287 25.0294C44.5058 24.074 46.9798 17.6949 46.9798 17.6949C47.1287 17.3958 47.2062 17.0664 47.2062 16.7324C47.2062 16.3984 47.1287 16.0689 46.9798 15.7699C46.4965 14.5985 46.0111 14.6275 46.0111 14.6275Z" fill="#FFAD80"/>
<path d="M45.2974 14.6274C45.2974 14.6274 43.98 15.7287 42.5977 22.8106L38.6279 30.8757L40.559 31.6528L45.1433 24.1509L46.1572 20.6345C46.2856 19.3285 46.2856 18.013 46.1572 16.707C45.924 15.094 45.2974 14.6274 45.2974 14.6274Z" fill="#C66D00"/>
<path d="M45.2974 14.6274C45.2974 14.6274 43.98 15.7287 42.5977 22.8106L45.2974 14.6274Z" fill="#C66D00"/>
<path opacity="0.2" d="M45.2974 14.6274C45.2974 14.6274 43.98 15.7287 42.5977 22.8106L38.6279 30.8757L40.559 31.6528L45.1433 24.1509L46.1572 20.6345C46.2856 19.3285 46.2856 18.013 46.1572 16.707C45.924 15.094 45.2974 14.6274 45.2974 14.6274Z" fill="white"/>
<path opacity="0.2" d="M45.1649 24.119L45.2271 23.8982L44.9378 20.394L44.32 25.5011L45.1649 24.119Z" fill="black"/>
<path d="M51.802 40.4585C52.1595 41.4038 52.4874 42.3639 52.7848 43.3044C53.7968 46.7183 54.5585 50.2014 55.064 53.7258C59.0953 61.8631 61.9235 74.0907 61.9235 74.0907L60.4317 74.5883L50.6306 52.8258L47.724 45.338L51.802 40.4585Z" fill="#FFAD80"/>
<path d="M61.9856 72.9546C61.8957 72.779 59.7793 73.9775 59.7793 73.9775C59.4029 75.0906 58.7747 76.1021 57.9435 76.9334C56.7876 77.8733 57.8975 78.302 59.3555 77.5944L62.9637 75.8444C63.9999 75.3413 62.9238 74.7742 61.9856 72.9546Z" fill="#00402A"/>
<path d="M59.6726 74.3766C59.6781 74.3702 59.6821 74.3626 59.6841 74.3544C59.6851 74.3474 59.6851 74.3404 59.6841 74.3334C59.6835 74.3265 59.6819 74.3197 59.6794 74.3132C59.676 74.305 59.671 74.2976 59.6645 74.2915C59.6422 74.2699 59.2137 73.8534 58.8595 73.8743C58.8053 73.8767 58.7524 73.8909 58.7043 73.9159C58.6562 73.9408 58.6141 73.9759 58.581 74.0188C58.5463 74.0498 58.5223 74.091 58.5125 74.1365C58.5027 74.182 58.5075 74.2294 58.5262 74.272C58.5884 74.3834 58.7966 74.4232 59.0237 74.4313C58.8452 74.4837 58.6847 74.5845 58.56 74.7223C58.5391 74.7512 58.5244 74.7842 58.5167 74.819C58.5091 74.8538 58.5086 74.8899 58.5154 74.9249C58.5451 75.07 58.6222 75.1173 58.681 75.1315C58.7563 75.1427 58.8333 75.1282 58.8993 75.0903C59.1967 74.8991 59.4583 74.6576 59.6726 74.3766ZM59.455 74.4374C59.1995 74.7297 58.8581 75.0451 58.7114 75.0093C58.6993 75.0059 58.6607 74.9971 58.6438 74.9012C58.6404 74.8827 58.6409 74.8636 58.6453 74.8452C58.6498 74.8268 58.658 74.8096 58.6695 74.7946C58.732 74.7186 58.8124 74.6592 58.9034 74.6217C59.0806 74.5419 59.2654 74.4801 59.455 74.4374ZM58.8696 74.0019C59.0961 74.0301 59.3074 74.1307 59.4719 74.2888C59.0886 74.3233 58.6945 74.3051 58.6411 74.2099C58.6242 74.1802 58.6601 74.1275 58.6837 74.0991C58.7074 74.0685 58.7376 74.0436 58.7723 74.0262C58.8028 74.0117 58.8359 74.0034 58.8696 74.0019Z" fill="#C66D00"/>
<path d="M45.2785 40.4037C45.7093 43.2243 46.4939 45.9796 47.6138 48.6044C48.8305 51.4247 50.1716 53.5002 51.1476 55.6405C52.8726 59.4283 57.3345 68.4311 57.3345 68.4311L60.3208 66.1794C60.3208 66.1794 55.5554 54.7114 55.2323 52.4597C55.0235 51.0027 54.8227 43.1645 54.7064 37.8218C54.6436 34.9097 54.6057 32.7397 54.6057 32.7397L46.0761 25.9365C44.8038 30.6507 44.5321 35.5785 45.2785 40.4037Z" fill="#C66D00"/>
<path opacity="0.2" d="M47.6138 48.6047C48.8305 51.4249 50.1716 53.5004 51.1476 55.6407C52.8726 59.4285 57.3345 68.4314 57.3345 68.4314L60.3208 66.1797C60.3208 66.1797 55.5554 54.7117 55.2323 52.46C55.0235 51.0029 54.8227 43.1647 54.7064 37.822L52.1811 32.5259L48.9076 33.8398L49.9762 37.9469L47.6138 48.6047Z" fill="black"/>
<path d="M50.7353 57.2832C48.9366 63.6359 46.7748 69.8803 44.2605 75.9857L42.7957 75.4166L47.0879 57.2852L50.7353 57.2832Z" fill="#FFAD80"/>
<path d="M45.0351 75.1494C45.0777 74.9563 42.6828 74.5303 42.6828 74.5303C41.6819 75.1475 40.552 75.526 39.3809 75.6362C37.8904 75.6227 38.471 76.6605 40.046 77.0453L43.9421 77.9973C45.0615 78.2687 44.595 77.148 45.0351 75.1494Z" fill="#00402A"/>
<path d="M42.3463 74.7701C42.3547 74.7683 42.3628 74.7648 42.3699 74.76C42.3757 74.7559 42.3807 74.7509 42.3848 74.7451C42.389 74.7397 42.3922 74.7335 42.3943 74.7269C42.3959 74.7184 42.3959 74.7097 42.3943 74.7012C42.3722 74.3918 42.2481 74.0983 42.0414 73.8667C41.9981 73.8339 41.9482 73.8109 41.8951 73.7993C41.842 73.7876 41.787 73.7876 41.7339 73.7992C41.6143 73.8235 41.546 73.8775 41.5311 73.9592C41.5081 74.0848 41.6453 74.2502 41.8123 74.3994C41.6423 74.3256 41.455 74.3009 41.2715 74.3279C41.2367 74.3367 41.204 74.3527 41.1757 74.3748C41.1473 74.3969 41.1238 74.4246 41.1066 74.4562C41.079 74.4947 41.0637 74.5407 41.0629 74.5881C41.062 74.6355 41.0756 74.682 41.1019 74.7215C41.1526 74.7781 41.221 74.8159 41.2959 74.8289C41.6468 74.87 42.0022 74.8502 42.3463 74.7701ZM42.1435 74.6776C41.7596 74.7397 41.2959 74.764 41.2073 74.6452C41.1992 74.6351 41.1756 74.604 41.2222 74.5169C41.2312 74.5002 41.2436 74.4855 41.2586 74.4739C41.2736 74.4622 41.2909 74.4539 41.3094 74.4494C41.4061 74.4309 41.506 74.4365 41.6 74.4656C41.7866 74.5179 41.9673 74.5889 42.1394 74.6776H42.1435ZM41.9705 73.9693C42.1277 74.136 42.2261 74.3494 42.251 74.577C41.934 74.3589 41.6426 74.0936 41.6616 73.9862C41.6683 73.9525 41.7292 73.9349 41.765 73.9281C41.7999 73.9199 41.8363 73.9195 41.8713 73.9271C41.9064 73.9347 41.9394 73.9501 41.9678 73.972L41.9705 73.9693Z" fill="#C66D00"/>
<path d="M55.0978 25.0229C55.0978 25.0229 58.4039 31.9895 57.2352 38.5624C56.0665 45.1353 52.536 53.5744 51.5843 55.6209C50.6326 57.6673 47.0778 69.7875 47.0778 69.7875L44.0023 68.7869C44.0023 68.7869 46.7507 56.7579 47.6138 52.5677C48.0194 50.5881 51.5127 36.4909 51.5127 36.4909C51.5127 36.4909 45.5306 32.0503 45.9544 25.1019L55.0978 25.0229Z" fill="#C66D00"/>
<path d="M51.827 26.592L47.0467 26.6649L46.9906 25.2295L51.7756 25.2808L51.827 26.592Z" fill="black"/>
<path d="M46.5695 25.2246L46.6256 26.6716L46.1423 26.679L46.0105 25.2192L46.5695 25.2246Z" fill="black"/>
<path d="M52.1974 25.2847L54.7342 25.3117L54.8457 26.5459L52.2487 26.5851L52.1974 25.2847Z" fill="black"/>
<path d="M48.1066 25.3325H49.9675V26.7423H48.1066V25.3325Z" fill="white"/>
<path d="M56.2482 14.0192C56.2482 14.0192 50.2385 12.6966 45.2784 14.6269C45.1123 18.1741 45.3582 21.7285 46.0112 25.2192L55.1924 25.2867C55.1924 25.2867 54.6963 22.7885 56.7349 17.9589L56.2482 14.0192Z" fill="#DCEBE1"/>
<path d="M53.5215 13.5771C53.5215 13.5771 51.5397 18.323 51.5512 19.8509C51.5627 21.3789 56.4734 30.533 57.4873 30.9577C57.8329 31.0596 58.1986 31.0734 58.5509 30.9978C58.9033 30.9222 59.231 30.7596 59.5043 30.5249C59.5043 30.5249 56.1422 21.9501 56.2138 21.0933C56.2855 20.2365 57.0722 17.5236 57.0722 16.8437C57.0722 16.1638 56.7343 14.0194 56.7343 14.0194L53.5215 13.5771Z" fill="#C66D00"/>
<path opacity="0.2" d="M59.5029 30.525C59.2295 30.7599 58.9015 30.9226 58.5489 30.9984C58.1964 31.0741 57.8304 31.0604 57.4845 30.9585C56.4706 30.5331 51.5613 21.3783 51.5504 19.8504C51.5396 18.3224 53.5222 13.5786 53.5222 13.5786L56.7335 14.0202C56.7335 14.0202 57.0715 16.1632 57.0715 16.8431C56.996 17.4991 56.8708 18.1485 56.697 18.7856C56.4964 19.5463 56.3353 20.3168 56.2144 21.0941C56.3938 22.0755 56.6735 23.0359 57.0492 23.9602C58.028 26.7521 59.5029 30.525 59.5029 30.525Z" fill="white"/>
<path d="M47.6138 13.8359C47.6138 13.8359 48.0194 18.9741 47.8943 20.0334C47.7693 21.0928 45.2818 29.6703 45.2818 29.6703V25.023C45.2818 25.023 44.4308 17.6636 45.2784 14.6252L47.6138 13.8359Z" fill="#C66D00"/>
<path opacity="0.2" d="M47.6138 13.8359C47.6138 13.8359 48.0194 18.9741 47.8943 20.0334C47.7693 21.0928 45.2818 29.6703 45.2818 29.6703V25.023C45.2818 25.023 44.4308 17.6636 45.2784 14.6252L47.6138 13.8359Z" fill="white"/>
<path opacity="0.2" d="M55.8927 17.4935L55.8792 17.2524C55.8792 17.2524 56.2321 17.8837 56.6958 18.7858C56.4951 19.5464 56.334 20.3169 56.2131 21.0942C56.3925 22.0756 56.6722 23.036 57.0479 23.9604C55.1891 21.7498 55.8927 17.4935 55.8927 17.4935Z" fill="black"/>
<path d="M56.9093 35.2942L55.7603 47.0728H58.4897L72.7892 45.3524L70.3484 34.1978L56.9093 35.2942Z" fill="#00402A"/>
<path d="M62.6812 32.3813C62.0978 32.3813 60.8399 33.0181 60.6676 33.5008C60.5489 33.9922 60.491 34.4963 60.4952 35.0017H60.9724C60.9223 34.5567 60.9853 34.1062 61.1556 33.6919C61.3141 33.4304 61.5383 33.2148 61.8058 33.0664C62.0734 32.918 62.3752 32.842 62.6812 32.8459C63.4082 32.7888 64.1347 32.9633 64.7563 33.3442C65.0251 33.7192 65.1944 34.1561 65.2484 34.6142L65.731 34.575C65.6848 34.0337 65.4959 33.5141 65.1835 33.0694C64.7259 32.5704 63.2652 32.3813 62.6812 32.3813Z" fill="#00402A"/>
<path opacity="0.2" d="M70.3504 34.1978C70.3504 34.1978 68.2421 40.246 66.0683 40.6349C63.8945 41.0238 58.1037 35.1964 58.1037 35.1964L58.4917 47.0728L72.7912 45.3518L70.3504 34.1978Z" fill="white"/>
<path opacity="0.3" d="M66.4772 39.5258C66.4772 39.6273 66.4471 39.7265 66.3907 39.8109C66.3342 39.8953 66.254 39.9611 66.1601 39.9999C66.0662 40.0387 65.963 40.0489 65.8633 40.0291C65.7637 40.0093 65.6721 39.9604 65.6003 39.8887C65.5284 39.8169 65.4795 39.7255 65.4597 39.6259C65.4399 39.5264 65.45 39.4232 65.4889 39.3295C65.5278 39.2357 65.5936 39.1556 65.6781 39.0992C65.7626 39.0428 65.8619 39.0127 65.9635 39.0127C66.0998 39.0127 66.2304 39.0668 66.3268 39.163C66.4231 39.2592 66.4772 39.3897 66.4772 39.5258Z" fill="black"/>
<path d="M60.2492 28.1958L61.6105 31.465C61.3971 31.7989 61.313 32.1991 61.3739 32.5905C61.5319 33.1597 61.7753 33.7018 62.0958 34.1982L64.2899 33.9835C64.2899 33.9835 63.8952 31.463 62.3932 31.197L61.4692 28.1958H60.2492Z" fill="#FFAD80"/>
<path d="M56.735 14.0195C58.4289 14.5914 59.5022 22.4593 59.5022 22.4593L62.4764 30.3988L60.9738 30.685C60.9738 30.685 57.1412 23.1466 57.1412 23.0832C57.1412 23.0197 55.9245 17.9936 55.9245 17.9936C55.8476 17.1401 55.8476 16.2815 55.9245 15.428C56.018 14.877 56.3054 14.3775 56.735 14.0195Z" fill="#C66D00"/>
<path opacity="0.2" d="M56.735 14.0195C58.4289 14.5914 59.5022 22.4593 59.5022 22.4593L62.4764 30.3988L60.9738 30.685C60.9738 30.685 57.1412 23.1466 57.1412 23.0832C57.1412 23.0197 55.9245 17.9936 55.9245 17.9936C55.8476 17.1401 55.8476 16.2815 55.9245 15.428C56.018 14.877 56.3054 14.3775 56.735 14.0195Z" fill="white"/>
<path d="M46.0565 4.42596C45.6846 4.77864 45.3901 5.20453 45.1915 5.67672C44.9929 6.14891 44.8946 6.65713 44.9026 7.16924C45.0848 8.56694 45.3667 9.94986 45.7462 11.3074L48.4675 3.38281C47.5988 3.55552 46.7768 3.91113 46.0565 4.42596Z" fill="#00402A"/>
<path d="M48.4675 3.38279C49.9242 2.71706 51.3524 3.50297 52.1805 4.0843C52.6311 4.46497 52.9957 4.93673 53.2504 5.46848C53.5051 6.00024 53.6441 6.5799 53.6581 7.16921C53.6581 8.28664 53.6892 9.63498 52.9558 10.2163C52.7685 10.3827 52.5486 10.5083 52.31 10.585C52.0714 10.6618 51.8194 10.6879 51.5701 10.6619L46.0565 5.57915C46.6595 4.65362 47.4895 3.89754 48.4675 3.38279Z" fill="#00402A"/>
<path d="M49.5301 15.4335C51.6411 14.9143 52.1805 13.9251 52.1805 13.9251C51.2105 13.202 51.2301 11.9671 51.3694 11.1825C51.4098 10.9344 51.4715 10.6902 51.5539 10.4526L49.0299 11.2291C49.1309 11.5807 49.2057 11.9393 49.2537 12.302C49.2929 12.5687 49.299 12.8392 49.2719 13.1075C49.1854 13.8967 48.7474 13.9582 48.7474 13.9582C48.3885 14.8548 49.5301 15.4335 49.5301 15.4335Z" fill="#FFAD80"/>
<path opacity="0.2" d="M49.2509 12.3029C49.2902 12.5697 49.2963 12.8402 49.2692 13.1084C49.7316 12.9476 50.1561 12.6939 50.5165 12.3628C50.8769 12.0317 51.1656 11.6303 51.3646 11.1835C51.405 10.9354 51.4668 10.6912 51.5491 10.4536L49.0252 11.2301C49.1268 11.5816 49.2023 11.9402 49.2509 12.3029Z" fill="black"/>
<path d="M48.4973 4.65439C46.262 4.97713 45.7151 6.27483 45.8841 8.60084C46.0957 11.5041 47.0292 13.4574 49.737 12.4399C53.41 11.0578 52.2096 4.11898 48.4973 4.65439Z" fill="#FFAD80"/>
<path d="M51.4843 8.06507C51.4843 8.06507 50.1736 6.38116 50.127 4.94235C50.127 4.94235 45.436 3.7736 45.8686 8.29665C45.8686 8.29665 44.8594 4.37046 48.6893 3.72769C52.5192 3.08491 53.3147 8.70242 51.5722 10.6618C51.5701 10.6618 52.2968 9.1197 51.4843 8.06507Z" fill="#00402A"/>
<path d="M51.1875 8.58951C51.1718 8.3281 51.2604 8.07113 51.434 7.87485C51.6076 7.67857 51.8519 7.55899 52.1136 7.54231C52.8172 7.518 53.3526 8.89268 51.679 9.48076C51.439 9.56516 51.2646 9.34369 51.1875 8.58951Z" fill="#FFAD80"/>
<path d="M56.2983 4.42577C56.2664 4.79279 56.1283 5.1426 55.9008 5.43255C55.6732 5.72249 55.3662 5.94002 55.017 6.05861C54.6678 6.17719 54.2916 6.19172 53.9343 6.10039C53.577 6.00907 53.2541 5.81585 53.0048 5.54431C52.7556 5.27276 52.5908 4.93464 52.5307 4.57118C52.4706 4.20771 52.5176 3.8346 52.6662 3.49739C52.8147 3.16019 53.0582 2.87344 53.3671 2.67214C53.676 2.47084 54.0369 2.36371 54.4057 2.36377C54.93 2.38761 55.4235 2.61795 55.7782 3.0044C56.1329 3.39085 56.3199 3.90192 56.2983 4.42577Z" fill="#00402A"/>
<path d="M46.5797 4.23607C46.0092 4.78037 45.6299 5.49411 45.4982 6.27108C45.4921 6.83621 46.2627 7.23659 46.2627 7.23659L47.1961 6.01451V7.09074L50.129 4.94233L49.274 3.42383C49.274 3.42383 47.0839 3.79586 46.5797 4.23607Z" fill="#00402A"/>
</svg>
