<svg width="69" height="74" viewBox="0 0 69 74" fill="none" xmlns="http://www.w3.org/2000/svg">
<path d="M17.3505 21.3175C12.9193 23.1795 11.4928 19.1112 11.6045 19.2187C11.5201 19.1265 10.8533 18.8291 10.427 18.6158C8.65118 17.7268 7.5776 15.6596 7.61805 13.5796C5.06994 11.9955 4.40603 8.64135 6.15375 6.78778C5.61595 4.72644 7.03451 2.46361 8.83767 1.41876C10.2028 -1.01154 13.6469 0.0285209 15.5034 1.93538C16.4445 2.90185 16.9892 4.31792 16.9747 5.72958C19.159 6.65283 20.3013 9.1121 19.8052 11.5927C22.7519 14.0695 21.8723 19.4174 17.3505 21.3175Z" fill="#FFCD52"/>
<path d="M1.15851 34.5806L0.402468 34.386C0.416707 34.3276 1.8538 28.498 3.38516 22.6962C4.28523 19.2862 5.04153 16.5521 5.63314 14.5699C6.7992 10.6623 7.05866 10.5537 7.28787 10.4578L7.58335 11.1959C7.61461 11.1838 7.64295 11.1653 7.6665 11.1415C7.48014 11.3566 6.75423 12.9676 4.04584 23.2551C2.55114 28.9309 1.17224 34.5249 1.15851 34.5806Z" fill="#C66D00"/>
<circle cx="18.7337" cy="25.4083" r="1.00032" fill="#00402A"/>
<path d="M17.5334 25.8082L14.1323 19.6062L17.1333 17.8057L19.534 24.4078L17.5334 25.8082Z" fill="#F8A492"/>
<path d="M26.7301 34.0113C26.7301 34.0113 26.3899 33.7397 26.2835 33.6406C26.1592 33.5245 25.813 33.1476 25.813 33.1476C25.813 33.1476 24.6688 31.778 24.7766 31.7011C24.8845 31.6243 25.2115 31.7495 25.3115 31.8092C25.4116 31.869 25.5345 31.9291 25.6347 31.9888C25.6607 32.0036 25.6893 32.0131 25.7189 32.0169C25.7486 32.0206 25.7787 32.0184 25.8075 32.0104C25.8363 32.0025 25.8632 31.9889 25.8868 31.9705C25.9103 31.9521 25.93 31.9293 25.9447 31.9032C26.0275 31.7835 25.6801 31.4586 25.5373 31.3704C25.0929 31.0952 23.9354 30.2097 22.9351 30.4098C22.7707 30.3406 19.9388 26.3055 19.334 25.4082C19.334 25.4082 19.1339 25.6083 18.3336 26.0084C19.6483 27.5576 21.6699 30.9238 21.8858 31.1921C21.8858 31.1921 22.3167 32.1677 22.5546 32.805C22.7925 33.4422 23.2664 33.9332 23.361 34.1019C23.5953 34.5428 23.903 34.9404 24.2709 35.2777C24.7906 35.7536 24.5145 35.0591 24.5145 35.0591C24.5145 35.0591 23.7092 34.0006 23.803 33.9502C23.8752 33.9113 24.2811 34.5157 24.8507 35.0484C24.9972 35.1853 25.1423 35.3199 25.2765 35.4425C25.6293 35.7644 25.926 35.6352 25.6106 35.2385C25.4697 35.0572 25.3158 34.8863 25.1501 34.7273C25.0021 34.5703 24.8672 34.4014 24.7469 34.2223C24.5981 34.0569 24.4603 33.8821 24.3342 33.699C24.3574 33.6943 24.3506 33.5989 24.5106 33.7393C24.7029 33.9081 25.0325 34.3591 25.3343 34.5851C25.5056 34.7132 25.8472 35.0031 25.8472 35.0031C25.8472 35.0031 26.452 35.4114 26.4835 35.3824C26.6549 35.2257 26.3051 34.8077 26.0498 34.6642C25.9058 34.4906 25.7436 34.3328 25.5662 34.1935C25.5662 34.1935 24.9554 33.4273 25.0621 33.3367C25.1496 33.2626 26.9649 34.8086 27.1248 34.6392C27.2549 34.5014 26.7301 34.0113 26.7301 34.0113Z" fill="#00402A"/>
<path d="M23.4699 31.8355C23.4699 31.8355 24.3809 32.183 24.7639 31.7131C24.7253 31.8174 24.6608 31.91 24.5764 31.9823C24.4919 32.0546 24.3905 32.1042 24.2816 32.1263C23.9153 32.1902 23.4699 31.8355 23.4699 31.8355Z" fill="#00A443"/>
<path d="M10.7724 36.9426L12.4513 52.4681C12.4513 52.4681 11.6307 55.7513 11.7296 56.684C11.8286 57.6167 13.5548 69.8525 13.5548 69.8525L13.4769 70.5245L13.4349 72.5154L19.8872 72.5658C18.7598 72.0128 17.67 71.3862 16.625 70.6899C16.4711 70.5754 16.3431 70.4297 16.2494 70.2623C16.1558 70.095 16.0985 69.9097 16.0814 69.7187C15.5733 65.9473 16.5784 53.3678 16.5784 53.3678L17.37 36.9932L10.7724 36.9426Z" fill="#F7A491"/>
<path d="M7.10174 39.4236C6.73997 39.5182 6.18291 52.8433 5.88326 53.4333C3.98346 57.1774 3.53183 68.5604 3.53183 68.5604L2.74807 70.1544L2.92801 71.6901C2.92801 71.6901 4.34583 72.5312 5.34066 71.964L5.18681 70.4259L5.06926 68.3713L9.86128 54.1897L12.4841 39.7241L7.10174 39.4236Z" fill="#F7A491"/>
<path d="M19.3823 46.6454L19.6102 37.4517C19.6497 34.8535 18.8127 32.3611 17.785 29.9948L15.6101 26.2089C14.9095 26.439 14.5236 24.2949 13.7873 24.3802C13.232 24.4446 12.8516 24.5772 12.336 24.6087C11.3641 24.6682 10.7735 26.6329 9.73355 26.5097C9.72864 26.572 9.08236 26.8197 9.0666 26.8639C8.56888 28.2534 7.29835 29.7399 6.62018 33.8656C5.85028 38.5488 5.85355 46.5974 5.94969 47.1467C13.3103 47.4826 15.0647 47.7489 19.3823 46.6454Z" fill="#00402A"/>
<path d="M13.4039 73.0273H20.0647C20.311 73.0044 20.3711 72.796 20.2856 72.6677C20.1092 72.4031 19.3326 72.2094 18.4593 71.7883C16.9273 71.9554 13.7214 70.789 13.4801 70.4211C13.3406 71.1574 13.2669 72.996 13.4039 73.0273Z" fill="#002A24"/>
<path d="M2.75167 70.1499C2.75167 70.1499 3.3439 71.8888 3.98301 71.8384C4.62212 71.788 5.18235 70.4174 5.18235 70.4174C5.18235 70.4174 5.42175 71.5709 5.31023 72.2067C5.19872 72.8425 4.2868 73.494 3.66319 73.2097C3.03959 72.9255 2.19208 71.4537 2.75167 70.1499Z" fill="#002A24"/>
<path d="M15.1333 20.2593C15.7517 20.1715 16.3601 20.0245 16.9503 19.8203C17.4841 19.6277 18.3716 19.2066 18.3716 19.2066C18.3716 19.2066 17.873 14.8753 16.6177 12.2526C16.0989 11.169 15.5743 10.6455 14.8427 10.52C14.8372 10.5191 15.1333 20.2593 15.1333 20.2593Z" fill="#007F33"/>
<path d="M16.7458 15.3584C16.5577 14.6558 16.1374 13.7318 15.8976 13.0947C15.4908 12.0128 15.3698 11.0022 15.0111 10.5692C14.8172 10.3362 12.3323 10.3708 12.0271 10.3401C11.9011 10.3265 11.4039 10.3594 10.9227 10.3893L10.9237 10.3882C10.6417 10.4208 7.84141 10.6468 7.43504 10.8271C5.41792 12.8486 4.44211 15.5706 2.92562 18.5444C2.92562 18.5444 4.06156 19.2122 4.96692 19.6338C5.36031 19.8167 6.11449 20.1094 6.11449 20.1094L7.86271 17.0987C7.88186 17.0837 7.97269 16.9843 7.9989 17.0483C8.03909 17.1484 9.31582 26.5308 9.31582 26.5308C9.31582 26.5308 14.4907 26.9658 15.7053 26.369C15.7053 26.369 15.9298 20.1051 16.3768 18.2668C16.5424 17.5914 17.049 16.49 16.7458 15.3584Z" fill="#00A443"/>
<path d="M10.5823 7.50948C10.5823 7.50948 10.9704 9.69456 10.8927 10.5564C10.8149 11.4183 11.1888 14.1959 12.8644 14.2051C14.5401 14.2143 13.4015 11.3211 13.2437 10.4766C13.0859 9.63206 12.8297 6.36987 12.8297 6.36987L10.5823 7.50948Z" fill="#F7A491"/>
<path d="M12.9297 7.61368C12.9036 6.89847 12.8295 6.36987 12.8295 6.36987L10.5822 7.50948C10.5822 7.50948 10.6616 7.95629 10.7413 8.52546C11.1556 8.62411 11.5905 8.58901 11.9837 8.42521C12.3768 8.26141 12.708 7.97732 12.9297 7.61368Z" fill="#F47458"/>
<path d="M10.5345 1.16229C9.89725 1.43837 9.38 1.93358 9.07645 2.55819C8.56259 3.60985 8.39313 6.55349 10.4643 7.68427C12.5355 8.81506 13.902 6.72952 13.7734 4.86059C13.6447 2.99165 13.0707 0.543217 10.5345 1.16229Z" fill="#F7A491"/>
<path d="M14.1739 4.22581C14.0438 4.69493 13.7352 5.01196 13.4844 4.93371C13.2337 4.85546 13.136 4.41179 13.266 3.94267C13.3961 3.47355 13.7048 3.15652 13.9556 3.23477C14.2063 3.31302 14.3038 3.75668 14.1739 4.22581Z" fill="#F7A491"/>
<path d="M9.25883 5.15541C9.44091 5.62428 9.35032 6.11672 9.05647 6.25494C8.76262 6.39317 8.37605 6.12529 8.1946 5.65629C8.01315 5.18729 8.10311 4.69485 8.39709 4.55662C8.69106 4.41839 9.07688 4.68641 9.25883 5.15541Z" fill="#F7A491"/>
<path d="M8.63002 34.5467V37.5277C8.63002 39.0776 7.53844 40.3343 6.19206 40.3343H3.68453V33.3845H7.62099C7.75279 33.3861 7.88279 33.4153 8.00254 33.4704C8.12229 33.5255 8.22909 33.6052 8.31602 33.7043C8.52203 33.9362 8.63401 34.2366 8.63002 34.5467Z" fill="#C66D00"/>
<path d="M8.31567 33.7037H8.29903C7.78152 33.7037 7.36216 34.1866 7.36216 34.7822V36.9747C7.36216 38.8296 6.05587 40.3333 4.44462 40.3333H2.91765C1.3064 40.3333 8.29697e-05 38.8296 8.29697e-05 36.9747V34.7927C8.29697e-05 34.0145 0.5481 33.3835 1.22413 33.3835H7.62061C7.75244 33.3851 7.88247 33.4145 8.00223 33.4697C8.12198 33.5248 8.22878 33.6046 8.31567 33.7037Z" fill="#FF9C1A"/>
<path d="M8.6371 34.4851L7.85685 34.4815C7.85685 34.4263 7.88207 28.8937 7.80748 23.2522C7.764 19.9414 7.69558 17.2417 7.60398 15.2287C7.4476 11.7888 7.25671 11.1727 7.20214 11.0723C7.21233 10.8653 7.24077 10.6597 7.28717 10.4578C7.35568 10.4292 7.4303 10.4184 7.50409 10.4264C7.57788 10.4343 7.64846 10.4608 7.70931 10.5032C7.91092 10.6419 8.03502 10.9075 8.15876 11.974C8.23525 12.6344 8.30394 13.5718 8.36279 14.7599C8.46145 16.7508 8.5354 19.4816 8.58265 22.8761C8.66292 28.6511 8.63723 34.4274 8.6371 34.4851Z" fill="#C66D00"/>
<path d="M12.5528 29.1875C12.6526 29.2085 13.3396 29.249 13.3396 29.249C13.3396 29.249 14.3469 28.6387 14.4909 28.9275C14.535 29.0142 13.4469 29.6339 13.4469 29.6339C13.4469 29.6339 12.3954 29.6687 12.1441 29.6609C11.6759 29.6494 10.6914 29.5166 9.22723 28.4269C7.96073 27.7802 1.59577 24.0671 1.50177 23.3604C1.44595 22.9427 2.41517 20.7637 3.35342 18.7905C3.76798 19.0215 4.41076 19.3738 4.9672 19.6336C5.23005 19.755 5.65419 19.9262 5.9057 20.0263C5.29734 21.2006 4.72123 22.4094 4.79684 22.6598C4.86198 22.8792 10.2984 27.0276 10.2984 27.0276L11.3845 26.8793C11.3845 26.8793 13.2998 27.1061 13.3438 27.3356C13.3898 27.5624 12.5359 27.503 12.4228 27.5372C12.3179 27.5683 12.2178 27.6137 12.1251 27.6719C12.4402 27.8219 12.9388 28.0625 13.219 28.0742C13.8617 28.0973 14.6065 28.003 14.687 28.0954C14.781 28.2032 13.8043 28.4996 13.1154 28.5419C12.8333 28.5573 12.6626 28.4707 12.5397 28.4939C12.3727 28.5286 12.6657 28.6633 13.1366 28.6344C13.4051 28.617 13.8734 28.4689 14.1688 28.4264C14.6543 28.3572 14.9268 28.3956 14.9672 28.438C15.0344 28.5073 13.5894 28.9714 13.5894 28.9714C13.5894 28.9714 12.6491 29.0945 12.4341 29.0829C12.4337 29.0834 12.3033 29.1373 12.5528 29.1875Z" fill="#F8A492"/>
<path d="M43.2054 13.7359C41.6574 14.2152 40.4762 21.0454 39.9919 22.4338C39.6282 23.4749 36.1156 30.0013 36.1156 30.0013C36.1156 30.0013 32.8888 30.8991 33.1915 31.4025C33.591 32.0285 34.1704 32.5195 34.8538 32.8112C35.3572 32.912 36.9192 31.6542 37.0703 31.3017C37.1712 30.9904 37.2222 30.6651 37.2213 30.338C37.2213 30.338 40.9662 24.6953 41.4377 23.5034C41.7919 22.6063 44.115 16.6162 44.115 16.6162C44.2548 16.3354 44.3276 16.026 44.3276 15.7124C44.3276 15.3988 44.2548 15.0894 44.115 14.8086C43.6612 13.7086 43.2054 13.7359 43.2054 13.7359Z" fill="#FFAD80"/>
<path d="M42.5353 13.7358C42.5353 13.7358 41.2983 14.7699 40.0003 21.42L36.2726 28.9932L38.086 29.7229L42.3906 22.6785L43.3427 19.3766C43.4633 18.1502 43.4633 16.915 43.3427 15.6886C43.1237 14.1739 42.5353 13.7358 42.5353 13.7358Z" fill="#C66D00"/>
<path d="M42.5354 13.7358C42.5354 13.7358 41.2983 14.7699 40.0004 21.42L42.5354 13.7358Z" fill="#C66D00"/>
<path opacity="0.2" d="M42.5353 13.7358C42.5353 13.7358 41.2983 14.7699 40.0003 21.42L36.2726 28.9932L38.086 29.7229L42.3906 22.6785L43.3427 19.3766C43.4633 18.1502 43.4633 16.915 43.3427 15.6886C43.1237 14.1739 42.5353 13.7358 42.5353 13.7358Z" fill="white"/>
<path opacity="0.2" d="M42.4106 22.6484L42.469 22.4411L42.1973 19.1506L41.6172 23.9463L42.4106 22.6484Z" fill="black"/>
<path d="M48.6432 37.9912C48.979 38.8788 49.2868 39.7804 49.5661 40.6635C50.5164 43.8693 51.2317 47.1399 51.7064 50.4494C55.4918 58.0905 58.1475 69.5723 58.1475 69.5723L56.7466 70.0396L47.5433 49.6043L44.814 42.5732L48.6432 37.9912Z" fill="#FFAD80"/>
<path d="M58.2057 68.5055C58.1213 68.3407 56.134 69.466 56.134 69.466C55.7805 70.5113 55.1906 71.4611 54.4101 72.2417C53.3247 73.1242 54.3669 73.5268 55.736 72.8624L59.1241 71.219C60.0971 70.7467 59.0867 70.2141 58.2057 68.5055Z" fill="#00402A"/>
<path d="M56.0336 69.8413C56.0388 69.8353 56.0425 69.8281 56.0444 69.8204C56.0454 69.8139 56.0454 69.8072 56.0444 69.8007C56.0439 69.7942 56.0424 69.7878 56.04 69.7817C56.0369 69.774 56.0321 69.7671 56.026 69.7614C56.0051 69.7411 55.6027 69.35 55.2701 69.3696C55.2193 69.3719 55.1695 69.3852 55.1244 69.4087C55.0792 69.4321 55.0397 69.4651 55.0086 69.5053C54.976 69.5345 54.9535 69.5731 54.9443 69.6158C54.9351 69.6585 54.9396 69.703 54.9572 69.743C55.0156 69.8476 55.2111 69.885 55.4243 69.8927C55.2567 69.9419 55.106 70.0365 54.9889 70.1659C54.9693 70.1931 54.9555 70.224 54.9483 70.2567C54.9411 70.2894 54.9406 70.3232 54.947 70.3561C54.9749 70.4924 55.0473 70.5368 55.1025 70.5501C55.1733 70.5607 55.2455 70.5471 55.3075 70.5115C55.5867 70.3319 55.8324 70.1051 56.0336 69.8413ZM55.8293 69.8984C55.5893 70.1729 55.2688 70.469 55.1311 70.4354C55.1197 70.4322 55.0835 70.424 55.0676 70.3339C55.0644 70.3165 55.0649 70.2985 55.069 70.2813C55.0732 70.264 55.0809 70.2478 55.0917 70.2338C55.1504 70.1624 55.2259 70.1066 55.3113 70.0715C55.4777 69.9965 55.6512 69.9385 55.8293 69.8984ZM55.2796 69.4894C55.4923 69.5159 55.6907 69.6104 55.8451 69.7589C55.4853 69.7912 55.1152 69.7741 55.0651 69.6847C55.0492 69.6568 55.0828 69.6074 55.1051 69.5807C55.1273 69.552 55.1557 69.5286 55.1882 69.5123C55.2168 69.4986 55.2479 69.4909 55.2796 69.4894Z" fill="#C66D00"/>
<path d="M42.5174 37.9401C42.9219 40.5887 43.6587 43.1759 44.7103 45.6407C45.8528 48.2889 47.1121 50.2379 48.0286 52.2477C49.6484 55.8044 53.8381 64.2583 53.8381 64.2583L56.6423 62.1439C56.6423 62.1439 52.1676 51.3753 51.8642 49.2609C51.6681 47.8927 51.4795 40.5325 51.3704 35.5156C51.3113 32.7812 51.2758 30.7435 51.2758 30.7435L43.2663 24.3552C42.0716 28.7819 41.8165 33.4091 42.5174 37.9401Z" fill="#C66D00"/>
<path opacity="0.2" d="M44.7103 45.6407C45.8528 48.2889 47.1121 50.2379 48.0286 52.2477C49.6484 55.8044 53.8381 64.2583 53.8381 64.2583L56.6423 62.1439C56.6423 62.1439 52.1676 51.3753 51.8642 49.2609C51.6681 47.8927 51.4795 40.5325 51.3704 35.5156L48.9991 30.5425L45.9251 31.7762L46.9286 35.6329L44.7103 45.6407Z" fill="black"/>
<path d="M47.6414 53.79C45.9524 59.7553 43.9224 65.6189 41.5614 71.352L40.186 70.8175L44.2164 53.7919L47.6414 53.79Z" fill="#FFAD80"/>
<path d="M42.2888 70.5667C42.3288 70.3854 40.08 69.9854 40.08 69.9854C39.1401 70.565 38.0791 70.9203 36.9794 71.0239C35.5798 71.0112 36.1251 71.9856 37.6039 72.347L41.2625 73.241C42.3135 73.4958 41.8756 72.4434 42.2888 70.5667Z" fill="#00402A"/>
<path d="M39.7641 70.2106C39.772 70.2089 39.7796 70.2057 39.7863 70.2011C39.7917 70.1973 39.7964 70.1926 39.8003 70.1872C39.8042 70.182 39.8072 70.1762 39.8091 70.17C39.8107 70.1621 39.8107 70.1539 39.8091 70.1459C39.7884 69.8553 39.6719 69.5798 39.4778 69.3623C39.4371 69.3315 39.3902 69.3099 39.3404 69.299C39.2905 69.2881 39.2389 69.288 39.189 69.2989C39.0767 69.3217 39.0126 69.3725 38.9986 69.4492C38.977 69.5671 39.1059 69.7224 39.2627 69.8625C39.103 69.7933 38.9271 69.77 38.7549 69.7953C38.7222 69.8037 38.6915 69.8187 38.6648 69.8394C38.6382 69.8601 38.6161 69.8861 38.6 69.9158C38.5741 69.952 38.5597 69.9952 38.5589 70.0397C38.5581 70.0842 38.5709 70.1279 38.5956 70.165C38.6432 70.2181 38.7074 70.2536 38.7777 70.2658C39.1072 70.3045 39.441 70.2858 39.7641 70.2106ZM39.5737 70.1238C39.2131 70.1821 38.7777 70.2049 38.6946 70.0933C38.687 70.0838 38.6648 70.0546 38.7086 69.9729C38.717 69.9571 38.7286 69.9434 38.7427 69.9324C38.7568 69.9215 38.7731 69.9137 38.7904 69.9095C38.8813 69.8921 38.975 69.8974 39.0634 69.9247C39.2385 69.9738 39.4082 70.0404 39.5699 70.1238H39.5737ZM39.4112 69.4587C39.5588 69.6152 39.6513 69.8155 39.6746 70.0293C39.3769 69.8245 39.1033 69.5753 39.1211 69.4745C39.1275 69.4428 39.1846 69.4263 39.2182 69.42C39.251 69.4122 39.2852 69.4119 39.3181 69.4191C39.3511 69.4262 39.382 69.4406 39.4086 69.4612L39.4112 69.4587Z" fill="#C66D00"/>
<path d="M51.7379 23.4973C51.7379 23.4973 54.8423 30.039 53.7449 36.211C52.6474 42.3831 49.3323 50.3075 48.4386 52.2292C47.545 54.1509 44.207 65.5319 44.207 65.5319L41.319 64.5923C41.319 64.5923 43.8998 53.2969 44.7103 49.3622C45.0911 47.5033 48.3713 34.2659 48.3713 34.2659C48.3713 34.2659 42.7541 30.0961 43.1521 23.5715L51.7379 23.4973Z" fill="#C66D00"/>
<path d="M48.6665 24.9708L44.1778 25.0393L44.1251 23.6914L48.6183 23.7396L48.6665 24.9708Z" fill="black"/>
<path d="M43.7295 23.687L43.7822 25.0456L43.3284 25.0526L43.2046 23.6819L43.7295 23.687Z" fill="black"/>
<path d="M49.0144 23.7429L51.3965 23.7683L51.5012 24.9272L49.0626 24.964L49.0144 23.7429Z" fill="black"/>
<path d="M45.173 23.7881H46.9204V25.1119H45.173V23.7881Z" fill="white"/>
<path d="M52.8184 13.1649C52.8184 13.1649 47.1751 11.9229 42.5176 13.7355C42.3616 17.0663 42.5925 20.404 43.2056 23.6818L51.827 23.7452C51.827 23.7452 51.3611 21.3994 53.2754 16.8643L52.8184 13.1649Z" fill="#DCEBE1"/>
<path d="M50.2579 12.7498C50.2579 12.7498 48.3969 17.2062 48.4077 18.6409C48.4184 20.0757 53.0297 28.6715 53.9817 29.0703C54.3063 29.166 54.6497 29.179 54.9805 29.108C55.3114 29.037 55.6192 28.8843 55.8757 28.6639C55.8757 28.6639 52.7187 20.6121 52.7859 19.8075C52.8532 19.003 53.592 16.4555 53.592 15.8171C53.592 15.1786 53.2747 13.165 53.2747 13.165L50.2579 12.7498Z" fill="#C66D00"/>
<path opacity="0.2" d="M55.8743 28.6639C55.6175 28.8845 55.3096 29.0373 54.9785 29.1084C54.6474 29.1795 54.3038 29.1666 53.979 29.0709C53.0269 28.6715 48.417 20.075 48.4068 18.6403C48.3967 17.2055 50.2583 12.751 50.2583 12.751L53.2738 13.1656C53.2738 13.1656 53.5912 15.1779 53.5912 15.8164C53.5203 16.4324 53.4027 17.0422 53.2396 17.6404C53.0512 18.3547 52.8999 19.0782 52.7864 19.8081C52.9548 20.7297 53.2175 21.6315 53.5702 22.4995C54.4893 25.1211 55.8743 28.6639 55.8743 28.6639Z" fill="white"/>
<path d="M44.7104 12.9922C44.7104 12.9922 45.0913 17.817 44.9739 18.8117C44.8564 19.8065 42.5207 27.8609 42.5207 27.8609V23.497C42.5207 23.497 41.7216 16.5864 42.5175 13.7333L44.7104 12.9922Z" fill="#C66D00"/>
<path opacity="0.2" d="M44.7104 12.9922C44.7104 12.9922 45.0913 17.817 44.9739 18.8117C44.8564 19.8065 42.5207 27.8609 42.5207 27.8609V23.497C42.5207 23.497 41.7216 16.5864 42.5175 13.7333L44.7104 12.9922Z" fill="white"/>
<path opacity="0.2" d="M52.4844 16.4268L52.4717 16.2004C52.4717 16.2004 52.803 16.7932 53.2384 17.6403C53.05 18.3545 52.8987 19.0781 52.7852 19.8079C52.9536 20.7295 53.2163 21.6313 53.5691 22.4993C51.8236 20.4236 52.4844 16.4268 52.4844 16.4268Z" fill="black"/>
<path d="M53.4389 33.1424L52.3599 44.2027H54.9229L68.3503 42.5872L66.0584 32.1128L53.4389 33.1424Z" fill="#00402A"/>
<path d="M58.8588 30.4067C58.3111 30.4067 57.1298 31.0046 56.968 31.4579C56.8566 31.9194 56.8022 32.3927 56.8061 32.8673H57.2542C57.2072 32.4494 57.2663 32.0264 57.4263 31.6374C57.5751 31.3918 57.7856 31.1893 58.0369 31.05C58.2881 30.9107 58.5715 30.8393 58.8588 30.8429C59.5415 30.7894 60.2237 30.9532 60.8074 31.3108C61.0598 31.663 61.2188 32.0733 61.2695 32.5034L61.7227 32.4666C61.6793 31.9583 61.5019 31.4705 61.2085 31.0528C60.7788 30.5843 59.4072 30.4067 58.8588 30.4067Z" fill="#00402A"/>
<path opacity="0.2" d="M66.0603 32.1128C66.0603 32.1128 64.0807 37.7922 62.0394 38.1574C59.9982 38.5226 54.5605 33.0505 54.5605 33.0505L54.9249 44.2027L68.3523 42.5866L66.0603 32.1128Z" fill="white"/>
<path opacity="0.3" d="M62.4233 37.1156C62.4233 37.2109 62.395 37.3041 62.342 37.3833C62.289 37.4626 62.2137 37.5243 62.1256 37.5608C62.0374 37.5973 61.9404 37.6068 61.8468 37.5882C61.7533 37.5696 61.6673 37.5237 61.5999 37.4563C61.5324 37.389 61.4865 37.3031 61.4678 37.2096C61.4492 37.1162 61.4588 37.0193 61.4953 36.9312C61.5318 36.8432 61.5936 36.7679 61.673 36.715C61.7523 36.662 61.8456 36.6338 61.941 36.6338C62.0689 36.6338 62.1916 36.6846 62.2821 36.7749C62.3725 36.8653 62.4233 36.9878 62.4233 37.1156Z" fill="black"/>
<path d="M56.5753 26.4766L57.8536 29.5464C57.6532 29.8599 57.5743 30.2357 57.6315 30.6033C57.7798 31.1378 58.0084 31.6467 58.3093 32.1129L60.3696 31.9113C60.3696 31.9113 59.999 29.5445 58.5886 29.2947L57.721 26.4766H56.5753Z" fill="#FFAD80"/>
<path d="M53.2752 13.1648C54.8658 13.7018 55.8737 21.0899 55.8737 21.0899L58.6665 28.5451L57.2555 28.814C57.2555 28.814 53.6567 21.7353 53.6567 21.6757C53.6567 21.6161 52.5142 16.8965 52.5142 16.8965C52.442 16.0951 52.442 15.2888 52.5142 14.4873C52.602 13.97 52.8718 13.5009 53.2752 13.1648Z" fill="#C66D00"/>
<path opacity="0.2" d="M53.2752 13.1648C54.8658 13.7018 55.8737 21.0899 55.8737 21.0899L58.6665 28.5451L57.2555 28.814C57.2555 28.814 53.6567 21.7353 53.6567 21.6757C53.6567 21.6161 52.5142 16.8965 52.5142 16.8965C52.442 16.0951 52.442 15.2888 52.5142 14.4873C52.602 13.97 52.8718 13.5009 53.2752 13.1648Z" fill="white"/>
<path d="M43.2479 4.15629C42.8988 4.48746 42.6222 4.88738 42.4358 5.33077C42.2493 5.77416 42.1569 6.25139 42.1645 6.73226C42.3355 8.04473 42.6002 9.34331 42.9566 10.6181L45.512 3.17676C44.6962 3.33894 43.9244 3.67285 43.2479 4.15629Z" fill="#00402A"/>
<path d="M45.5121 3.17685C46.8799 2.55172 48.221 3.2897 48.9986 3.83558C49.4217 4.19303 49.7641 4.63602 50.0033 5.13534C50.2424 5.63467 50.3729 6.17898 50.3861 6.73235C50.3861 7.78163 50.4152 9.04774 49.7266 9.59362C49.5507 9.74989 49.3442 9.86781 49.1202 9.93986C48.8961 10.0119 48.6595 10.0365 48.4254 10.012L43.248 5.23926C43.8143 4.37017 44.5937 3.66021 45.5121 3.17685Z" fill="#00402A"/>
<path d="M46.5098 14.4925C48.492 14.005 48.9985 13.0761 48.9985 13.0761C48.0877 12.3971 48.1061 11.2375 48.2369 10.5008C48.2749 10.2678 48.3328 10.0385 48.4102 9.81543L46.0401 10.5446C46.1349 10.8747 46.2052 11.2115 46.2502 11.552C46.2871 11.8024 46.2928 12.0565 46.2674 12.3083C46.1861 13.0495 45.7748 13.1072 45.7748 13.1072C45.4378 13.9492 46.5098 14.4925 46.5098 14.4925Z" fill="#FFAD80"/>
<path opacity="0.2" d="M46.2477 11.5532C46.2846 11.8036 46.2903 12.0577 46.2649 12.3096C46.6991 12.1586 47.0977 11.9203 47.4361 11.6094C47.7746 11.2985 48.0456 10.9216 48.2325 10.502C48.2705 10.269 48.3284 10.0397 48.4058 9.81665L46.0357 10.5458C46.1312 10.8759 46.2021 11.2126 46.2477 11.5532Z" fill="black"/>
<path d="M45.5401 4.37062C43.4411 4.67367 42.9276 5.89224 43.0863 8.07639C43.2849 10.8026 44.1615 12.6368 46.7042 11.6813C50.1532 10.3835 49.0259 3.86785 45.5401 4.37062Z" fill="#FFAD80"/>
<path d="M48.3448 7.57357C48.3448 7.57357 47.1141 5.99235 47.0703 4.64129C47.0703 4.64129 42.6654 3.54381 43.0716 7.79102C43.0716 7.79102 42.124 4.10428 45.7203 3.5007C49.3166 2.89713 50.0637 8.17205 48.4274 10.0119C48.4255 10.0119 49.1078 8.56388 48.3448 7.57357Z" fill="#00402A"/>
<path d="M48.0664 8.06616C48.0516 7.82069 48.1348 7.57939 48.2978 7.39508C48.4608 7.21077 48.6902 7.09848 48.9359 7.08282C49.5966 7.05999 50.0994 8.35083 48.5278 8.90305C48.3025 8.9823 48.1387 8.77434 48.0664 8.06616Z" fill="#FFAD80"/>
<path d="M52.8651 4.15622C52.8352 4.50085 52.7055 4.82933 52.4918 5.10159C52.2782 5.37386 51.9898 5.57812 51.6619 5.68947C51.3341 5.80083 50.9808 5.81447 50.6453 5.72871C50.3098 5.64296 50.0065 5.46152 49.7725 5.20654C49.5385 4.95156 49.3838 4.63406 49.3273 4.29276C49.2708 3.95146 49.315 3.6011 49.4545 3.28446C49.5939 2.96782 49.8226 2.69856 50.1127 2.50954C50.4027 2.32052 50.7416 2.21991 51.0879 2.21997C51.5803 2.24236 52.0437 2.45865 52.3768 2.82153C52.7098 3.18441 52.8854 3.66432 52.8651 4.15622Z" fill="#00402A"/>
<path d="M43.7394 3.97829C43.2037 4.48939 42.8475 5.1596 42.7238 5.88919C42.7181 6.41985 43.4417 6.79581 43.4417 6.79581L44.3182 5.64826V6.65886L47.0723 4.64147L46.2693 3.21558C46.2693 3.21558 44.2129 3.56492 43.7394 3.97829Z" fill="#00402A"/>
</svg>
