<svg width="67" height="68" viewBox="0 0 67 68" fill="none" xmlns="http://www.w3.org/2000/svg">
<path d="M40.7639 2.36553C41.74 4.64189 40.2142 7.9434 37.7165 8.41911C36.9275 8.58119 36.1063 8.44527 35.4115 8.03756C34.7168 7.62985 34.1977 6.97926 33.9543 6.21134C33.076 3.54262 33.4114 1.457 34.9063 0.501323C36.835 -0.731893 39.9589 0.487711 40.7639 2.36553Z" fill="#00402A"/>
<path d="M40.6904 14.8856C40.6904 14.8856 35.1558 22.6346 33.6674 23.1364C32.179 23.6382 29.5598 13.2812 29.5598 13.2812C29.5598 13.2812 28.9782 11.9626 28.8138 11.8901C28.1588 11.6016 29.0064 11.0725 29.0064 11.0725L29.9789 8.94556C29.9789 8.94556 30.0755 8.99693 30.4643 9.92833C30.9899 11.1885 31.2317 12.9465 31.4918 13.3181L34.1824 17.3591L37.9575 11.9684L40.6904 14.8856Z" fill="#F48C7F"/>
<path d="M29.9424 9.88717L29.7082 9.80717C29.5971 9.76911 29.4904 9.71901 29.3901 9.65779C28.9891 9.41261 27.8848 8.76699 27.7146 8.97839C27.506 9.23744 29.2092 10.2054 29.2092 10.2054C29.2092 10.2054 27.3027 9.25965 27.1904 9.6068C27.0782 9.95396 29.0437 10.8281 29.0437 10.8281C29.0437 10.8281 27.2981 10.1575 27.2019 10.3449C27.1057 10.5323 29.1249 11.8476 29.1249 11.8476C29.1249 11.8476 27.4699 10.8411 27.2184 11.012C26.967 11.1829 29.5784 13.3153 29.5784 13.3153L29.9424 9.88717Z" fill="#F48C7F"/>
<path d="M31.7092 62.0165C31.7438 62.0164 31.7779 62.0076 31.8082 61.9907C31.8384 61.9739 31.8639 61.9496 31.8821 61.9201L36.0492 55.1869C36.0636 55.1642 36.0734 55.1389 36.0779 55.1124C36.0824 55.0859 36.0817 55.0587 36.0756 55.0325C36.0696 55.0063 36.0585 54.9816 36.0428 54.9597C36.0272 54.9379 36.0073 54.9193 35.9845 54.9052C35.9616 54.891 35.9362 54.8816 35.9096 54.8773C35.8831 54.8731 35.856 54.8741 35.8298 54.8804C35.8037 54.8867 35.7791 54.8981 35.7574 54.914C35.7357 54.9299 35.7174 54.9499 35.7035 54.9729L31.5365 61.7062C31.5174 61.737 31.507 61.7723 31.5062 61.8084C31.5054 61.8446 31.5142 61.8804 31.5318 61.912C31.5494 61.9436 31.5751 61.97 31.6063 61.9883C31.6375 62.0067 31.673 62.0164 31.7092 62.0165Z" fill="#5BD38C"/>
<path d="M27.5829 6.41042C27.5829 6.41042 29.3384 6.7767 29.48 7.31368C29.6215 7.85066 30.6118 11.8804 30.3998 12.0903C30.3343 12.1551 28.9417 12.0172 28.397 11.5652C27.8523 11.1133 26.7669 6.29701 27.5829 6.41042Z" fill="#00402A"/>
<path d="M28.2813 6.81732C28.6544 6.8987 29.021 7.00721 29.3782 7.14199C28.9713 6.70005 27.5827 6.40993 27.5827 6.40993C26.7667 6.29652 27.8524 11.113 28.3968 11.5647C28.5819 11.7037 28.7902 11.8087 29.012 11.8749C28.4492 11.0597 27.5056 6.70944 28.2813 6.81732Z" fill="#00402A"/>
<path d="M13.0088 67.8854C15.5817 67.8855 18.0969 67.1225 20.2362 65.6931C22.3755 64.2637 24.0429 62.232 25.0276 59.8549C26.0122 57.4778 26.2698 54.8622 25.7679 52.3387C25.2659 49.8152 24.0269 47.4972 22.2076 45.6779C20.3883 43.8586 18.0703 42.6196 15.5468 42.1176C13.0233 41.6157 10.4076 41.8733 8.03058 42.8579C5.65351 43.8426 3.62181 45.51 2.19238 47.6493C0.76296 49.7886 2.47955e-05 52.3038 5.14984e-05 54.8767C0.00385857 58.3256 1.37563 61.6323 3.81442 64.0711C6.25321 66.5098 9.55985 67.8816 13.0088 67.8854ZM13.0088 43.4936C15.2601 43.4936 17.4609 44.1612 19.3328 45.4119C21.2048 46.6627 22.6638 48.4404 23.5253 50.5204C24.3869 52.6003 24.6123 54.8891 24.1731 57.0971C23.7339 59.3052 22.6499 61.3335 21.058 62.9254C19.4661 64.5173 17.4378 65.6015 15.2297 66.0407C13.0217 66.48 10.733 66.2546 8.65299 65.3931C6.57303 64.5315 4.79524 63.0726 3.54445 61.2007C2.29365 59.3288 1.62603 57.128 1.62601 54.8767C1.62944 51.8588 2.8298 48.9655 4.96373 46.8315C7.09767 44.6976 9.99094 43.4971 13.0088 43.4936Z" fill="#00402A"/>
<path d="M16.1699 54.8896C16.1699 55.5177 15.9836 56.1317 15.6346 56.654C15.2857 57.1763 14.7897 57.5833 14.2094 57.8237C13.6291 58.0641 12.9905 58.127 12.3745 58.0045C11.7584 57.882 11.1925 57.5795 10.7484 57.1354C10.3042 56.6912 10.0017 56.1254 9.87912 55.5093C9.75654 54.8933 9.8194 54.2547 10.0597 53.6744C10.3001 53.094 10.707 52.598 11.2293 52.249C11.7515 51.9 12.3656 51.7137 12.9937 51.7136C13.4108 51.7136 13.8238 51.7957 14.2092 51.9553C14.5945 52.1149 14.9447 52.3488 15.2396 52.6437C15.5346 52.9386 15.7685 53.2888 15.9281 53.6741C16.0877 54.0595 16.1699 54.4725 16.1699 54.8896Z" fill="#00402A"/>
<path d="M27.0922 55.4864C27.254 55.4864 27.4091 55.4222 27.5235 55.3078C27.6379 55.1935 27.7021 55.0384 27.7021 54.8766C27.7024 52.0747 26.9014 49.3311 25.3937 46.9694C23.886 44.6076 21.7345 42.7263 19.1927 41.5471C16.651 40.3679 13.8251 39.9401 11.0482 40.3141C8.27131 40.6881 5.65928 41.8483 3.52009 43.658C3.45898 43.7097 3.40866 43.773 3.372 43.8442C3.33534 43.9154 3.31305 43.9931 3.30643 44.0729C3.29982 44.1528 3.30901 44.2331 3.33343 44.3094C3.35786 44.3856 3.39707 44.4563 3.44882 44.5174C3.50057 44.5786 3.56384 44.6289 3.63504 44.6655C3.70625 44.7022 3.78397 44.7245 3.86378 44.7311C3.94359 44.7377 4.02394 44.7285 4.10021 44.7041C4.17647 44.6797 4.24717 44.6405 4.30828 44.5887C6.27001 42.9298 8.66514 41.8663 11.2113 41.5236C13.7575 41.1809 16.3486 41.5733 18.6791 42.6545C21.0097 43.7357 22.9825 45.4607 24.3651 47.6261C25.7476 49.7915 26.4823 52.3071 26.4824 54.8762C26.4824 54.9563 26.4981 55.0357 26.5287 55.1097C26.5593 55.1837 26.6043 55.251 26.6609 55.3077C26.7175 55.3643 26.7848 55.4093 26.8588 55.44C26.9328 55.4706 27.0121 55.4864 27.0922 55.4864Z" fill="#00A443"/>
<path d="M40.2387 48.5393L42.7289 50.6958C42.7289 50.6958 43.5654 50.7875 43.8726 50.3511C44.0567 50.0824 44.1421 49.7583 44.1142 49.4338L41.7885 46.6553L40.2387 48.5393Z" fill="#F48C7F"/>
<path d="M42.2027 50.2398C41.6648 50.0294 42.2027 50.2398 41.583 52.1469C41.0109 53.4011 40.3825 53.9117 40.5969 54.1661C40.7367 54.3253 40.9124 54.4489 41.1094 54.5269L45.0945 50.1427C45.0945 50.1427 44.2166 48.5817 43.7943 49.1817C41.9335 50.7579 42.2027 50.2398 42.2027 50.2398Z" fill="#00402A"/>
<path d="M43.8948 28.4867C43.8948 28.4867 29.6901 34.6635 29.6901 38.1279C29.6901 40.1787 40.0772 49.2866 40.0772 49.2866L42.347 46.8475C42.347 46.8475 36.6896 40.2013 36.9272 39.3745C37.1648 38.5476 50.5118 33.0932 50.9521 31.772C51.3923 30.4508 49.1026 28.1472 49.1026 28.1472L43.8948 28.4867Z" fill="#007ACB"/>
<path d="M53.7869 67.8854C56.3598 67.8855 58.875 67.1225 61.0143 65.6931C63.1536 64.2637 64.821 62.232 65.8056 59.8549C66.7903 57.4778 67.0479 54.8622 66.5459 52.3387C66.044 49.8152 64.805 47.4972 62.9857 45.6779C61.1663 43.8586 58.8484 42.6196 56.3249 42.1176C53.8014 41.6157 51.1858 41.8733 48.8087 42.8579C46.4316 43.8426 44.3999 45.51 42.9705 47.6493C41.541 49.7886 40.7781 52.3038 40.7781 54.8767C40.7819 58.3256 42.1537 61.6323 44.5925 64.0711C47.0313 66.5098 50.3379 67.8816 53.7869 67.8854ZM53.7869 43.4936C56.0382 43.4936 58.239 44.1612 60.1109 45.412C61.9828 46.6628 63.4418 48.4405 64.3033 50.5205C65.1649 52.6004 65.3903 54.8891 64.9511 57.0972C64.5119 59.3053 63.4278 61.3335 61.8359 62.9254C60.2439 64.5174 58.2157 65.6015 56.0077 66.0407C53.7996 66.48 51.5109 66.2546 49.4309 65.393C47.351 64.5315 45.5732 63.0726 44.3224 61.2007C43.0716 59.3288 42.404 57.128 42.404 54.8767C42.4074 51.8588 43.6077 48.9655 45.7417 46.8315C47.8757 44.6975 50.769 43.4971 53.7869 43.4936Z" fill="#00402A"/>
<path d="M56.8967 54.8896C56.8967 55.5177 56.7104 56.1317 56.3615 56.654C56.0125 57.1763 55.5165 57.5833 54.9362 57.8237C54.3559 58.0641 53.7173 58.127 53.1013 58.0045C52.4852 57.882 51.9193 57.5795 51.4752 57.1354C51.031 56.6912 50.7285 56.1254 50.6059 55.5093C50.4833 54.8933 50.5462 54.2547 50.7865 53.6744C51.0269 53.094 51.4338 52.598 51.9561 52.249C52.4783 51.9 53.0924 51.7137 53.7205 51.7136C54.1376 51.7136 54.5506 51.7957 54.936 51.9553C55.3213 52.1149 55.6715 52.3488 55.9664 52.6437C56.2614 52.9386 56.4953 53.2888 56.6549 53.6741C56.8145 54.0595 56.8967 54.4725 56.8967 54.8896Z" fill="#00402A"/>
<path d="M44.6916 44.7334C44.8359 44.7335 44.9754 44.6823 45.0854 44.5889C47.3213 42.6985 50.1119 41.5876 53.0353 41.4242C55.9587 41.2608 58.8557 42.0538 61.2884 43.6832C61.4226 43.7733 61.5872 43.8065 61.7458 43.7753C61.9045 43.7442 62.0443 43.6513 62.1345 43.517C62.2246 43.3828 62.2578 43.2183 62.2266 43.0596C62.1955 42.9009 62.1025 42.7612 61.9683 42.671C59.3155 40.8934 56.1559 40.0281 52.9676 40.2062C49.7792 40.3843 46.7356 41.5961 44.2973 43.6581C44.2019 43.7389 44.1337 43.8469 44.1017 43.9677C44.0698 44.0885 44.0758 44.2162 44.1188 44.3335C44.1618 44.4508 44.2398 44.5521 44.3422 44.6236C44.4447 44.6951 44.5667 44.7334 44.6916 44.7334Z" fill="#00A443"/>
<path d="M53.7869 53.5333C53.8312 53.5336 53.8737 53.5165 53.9054 53.4857C53.9371 53.4549 53.9555 53.4128 53.9565 53.3686C53.9575 53.3244 53.9411 53.2816 53.9108 53.2493C53.8805 53.2171 53.8387 53.1981 53.7945 53.1964L35.8837 52.3666C35.8616 52.3656 35.8395 52.3689 35.8187 52.3765C35.7979 52.384 35.7787 52.3955 35.7624 52.4105C35.746 52.4254 35.7328 52.4434 35.7234 52.4634C35.714 52.4834 35.7086 52.5051 35.7076 52.5272C35.7065 52.5494 35.7099 52.5714 35.7174 52.5923C35.7249 52.6131 35.7365 52.6322 35.7514 52.6486C35.7663 52.6649 35.7843 52.6782 35.8043 52.6876C35.8244 52.697 35.8461 52.7024 35.8682 52.7034L53.7788 53.5332L53.7869 53.5333Z" fill="#FF9C1A"/>
<path d="M35.6219 57.3868H35.6299L53.7947 56.557C53.8394 56.555 53.8814 56.5352 53.9115 56.5022C53.9416 56.4692 53.9574 56.4256 53.9554 56.3809C53.9526 56.3366 53.9327 56.2951 53.8998 56.2651C53.867 56.2351 53.8239 56.2191 53.7794 56.2203L35.6145 57.05C35.5708 57.0523 35.5297 57.0716 35.4999 57.1037C35.4702 57.1358 35.4541 57.1783 35.455 57.2221C35.456 57.2658 35.4739 57.3075 35.5051 57.3383C35.5362 57.3691 35.5781 57.3865 35.6219 57.387V57.3868Z" fill="#FF9C1A"/>
<path d="M53.787 56.7255C54.1528 56.7255 54.5104 56.617 54.8145 56.4138C55.1187 56.2106 55.3557 55.9217 55.4957 55.5838C55.6357 55.2459 55.6723 54.874 55.6009 54.5152C55.5296 54.1565 55.3534 53.8269 55.0948 53.5683C54.8361 53.3096 54.5066 53.1335 54.1478 53.0621C53.7891 52.9908 53.4172 53.0274 53.0793 53.1674C52.7413 53.3074 52.4525 53.5444 52.2493 53.8486C52.0461 54.1527 51.9376 54.5103 51.9376 54.876C51.938 55.3664 52.133 55.8366 52.4797 56.1834C52.8265 56.5301 53.2967 56.7251 53.787 56.7255Z" fill="#FF9C1A"/>
<path d="M37.9974 51.9188C38.1151 51.9189 38.2292 51.8781 38.3202 51.8035C38.4112 51.7288 38.4735 51.6249 38.4964 51.5094C38.5193 51.3939 38.5014 51.2741 38.4458 51.1704C38.3901 51.0666 38.3002 50.9854 38.1914 50.9406C35.9508 50.0152 34.1088 48.3287 32.9898 46.1782L30.1182 40.6513C29.143 38.773 27.6591 37.2068 25.8359 36.132L23.9824 35.0384C23.8664 34.9714 23.7286 34.9528 23.599 34.9869C23.4694 35.0209 23.3585 35.1048 23.2904 35.2202C23.2223 35.3356 23.2026 35.4732 23.2355 35.6031C23.2683 35.733 23.3512 35.8447 23.466 35.9138L25.3195 37.0074C26.9785 37.9855 28.3289 39.4106 29.2163 41.1198L32.0881 46.6468C33.3178 49.0101 35.3421 50.8635 37.8044 51.8804C37.8656 51.9056 37.9312 51.9187 37.9974 51.9188Z" fill="#00A443"/>
<path d="M36.5554 54.5985C36.6459 54.5985 36.7347 54.5744 36.8127 54.5287C36.8908 54.483 36.9552 54.4172 36.9994 54.3383L48.211 34.2892C48.2768 34.1716 48.2931 34.0326 48.2565 33.9029C48.2198 33.7732 48.1332 33.6634 48.0156 33.5976C47.8979 33.5318 47.759 33.5155 47.6293 33.5521C47.4996 33.5888 47.3898 33.6754 47.324 33.793L36.1127 53.8415C36.0694 53.9188 36.0471 54.0061 36.048 54.0946C36.0489 54.1832 36.0729 54.27 36.1177 54.3465C36.1624 54.4229 36.2264 54.4863 36.3032 54.5304C36.38 54.5745 36.4671 54.5977 36.5556 54.5978L36.5554 54.5985Z" fill="#00A443"/>
<path d="M40.5964 55.3847H53.7865C53.8539 55.3857 53.9208 55.3734 53.9834 55.3483C54.046 55.3233 54.103 55.286 54.151 55.2387C54.1991 55.1914 54.2372 55.1351 54.2633 55.0729C54.2893 55.0107 54.3027 54.9439 54.3027 54.8765C54.3027 54.8091 54.2893 54.7424 54.2633 54.6802C54.2372 54.618 54.1991 54.5616 54.151 54.5143C54.103 54.467 54.046 54.4298 53.9834 54.4047C53.9208 54.3797 53.8539 54.3673 53.7865 54.3684H40.5964C38.7143 54.3721 36.8676 53.8573 35.259 52.8803C33.6504 51.9034 32.3421 50.5021 31.4776 48.8303L28.6057 43.3032C27.6306 41.4249 26.1467 39.8589 24.3237 38.784L22.4702 37.6903C22.4127 37.6557 22.3489 37.6328 22.2825 37.6229C22.2161 37.6131 22.1484 37.6165 22.0833 37.633C22.0182 37.6494 21.9571 37.6786 21.9033 37.7189C21.8496 37.7591 21.8044 37.8096 21.7703 37.8674C21.7362 37.9252 21.7139 37.9892 21.7046 38.0557C21.6954 38.1222 21.6994 38.1899 21.7165 38.2548C21.7335 38.3197 21.7633 38.3806 21.804 38.434C21.8447 38.4873 21.8956 38.5321 21.9538 38.5657L23.807 39.6593C25.4661 40.6374 26.8165 42.0625 27.704 43.7717L30.5757 49.2987C31.5256 51.1359 32.9634 52.6758 34.7311 53.7494C36.4988 54.823 38.5282 55.3888 40.5964 55.3847Z" fill="#00A443"/>
<path d="M53.7873 55.2833C53.8587 55.2832 53.9288 55.2643 53.9906 55.2285C54.0524 55.1927 54.1037 55.1412 54.1392 55.0793C54.1748 55.0174 54.1935 54.9472 54.1934 54.8758C54.1932 54.8044 54.1743 54.7343 54.1385 54.6725L45.1363 39.1706C45.1095 39.1244 45.0739 39.084 45.0314 39.0516C44.989 39.0192 44.9406 38.9955 44.8891 38.9818C44.8375 38.9682 44.7837 38.9648 44.7308 38.9719C44.6779 38.979 44.6269 38.9964 44.5808 39.0232C44.5346 39.05 44.4942 39.0856 44.4618 39.1281C44.4294 39.1705 44.4057 39.2189 44.392 39.2705C44.3783 39.322 44.3749 39.3758 44.382 39.4287C44.3891 39.4816 44.4066 39.5326 44.4334 39.5788L53.4354 55.0807C53.4711 55.1423 53.5225 55.1935 53.5842 55.2291C53.646 55.2647 53.716 55.2834 53.7873 55.2833Z" fill="#00A443"/>
<path d="M35.8763 57.5552C36.4061 57.5552 36.924 57.3981 37.3645 57.1037C37.805 56.8093 38.1484 56.391 38.3511 55.9015C38.5538 55.412 38.6068 54.8734 38.5034 54.3538C38.4 53.8342 38.1449 53.3568 37.7703 52.9822C37.3956 52.6076 36.9183 52.3525 36.3987 52.2492C35.879 52.1459 35.3405 52.1989 34.851 52.4017C34.3615 52.6045 33.9432 52.9478 33.6488 53.3884C33.3545 53.8289 33.1974 54.3468 33.1975 54.8766C33.1983 55.5868 33.4808 56.2677 33.983 56.7699C34.4852 57.272 35.1661 57.5545 35.8763 57.5552Z" fill="#FF9C1A"/>
<path d="M55.2986 54.8765C55.2986 55.1755 55.2099 55.4678 55.0438 55.7164C54.8777 55.965 54.6416 56.1588 54.3653 56.2732C54.0891 56.3877 53.7851 56.4176 53.4919 56.3593C53.1986 56.3009 52.9292 56.157 52.7178 55.9455C52.5064 55.7341 52.3624 55.4647 52.304 55.1715C52.2457 54.8782 52.2757 54.5742 52.3901 54.298C52.5045 54.0217 52.6983 53.7856 52.9469 53.6195C53.1955 53.4534 53.4878 53.3647 53.7868 53.3647C53.9853 53.3647 54.1819 53.4038 54.3653 53.4798C54.5488 53.5558 54.7155 53.6671 54.8558 53.8075C54.9962 53.9479 55.1076 54.1145 55.1835 54.298C55.2595 54.4814 55.2986 54.678 55.2986 54.8765Z" fill="#FF9C1A"/>
<path d="M38.2175 54.8768C38.2175 55.3399 38.0802 55.7926 37.8229 56.1777C37.5656 56.5628 37.1999 56.8629 36.772 57.0401C36.3442 57.2173 35.8733 57.2637 35.4191 57.1734C34.9649 57.083 34.5477 56.86 34.2202 56.5325C33.8927 56.205 33.6697 55.7878 33.5793 55.3336C33.489 54.8794 33.5354 54.4085 33.7126 53.9807C33.8898 53.5528 34.1899 53.1871 34.575 52.9298C34.9601 52.6725 35.4128 52.5352 35.8759 52.5352C36.497 52.5352 37.0926 52.7819 37.5317 53.221C37.9708 53.6601 38.2175 54.2557 38.2175 54.8768Z" fill="#FF9C1A"/>
<path d="M33.9456 62.5498C34.0485 62.5502 34.1478 62.5114 34.2233 62.4415C34.2988 62.3715 34.345 62.2755 34.3524 62.1728C34.3599 62.0701 34.3282 61.9684 34.2636 61.8882C34.199 61.808 34.1065 61.7553 34.0045 61.7407L29.5325 61.0801C29.4261 61.0648 29.3179 61.0923 29.2317 61.1566C29.1455 61.2208 29.0883 61.3166 29.0726 61.423C29.0569 61.5294 29.0839 61.6377 29.1479 61.7241C29.2118 61.8106 29.3074 61.8682 29.4137 61.8843L33.8856 62.545C33.9055 62.5481 33.9255 62.5497 33.9456 62.5498Z" fill="#007F33"/>
<path d="M50.562 33.0764H46.5973C46.456 33.0765 46.3205 33.1326 46.2207 33.2325C46.1208 33.3324 46.0647 33.4679 46.0647 33.6092V34.2462C46.0647 34.3874 46.1208 34.5229 46.2207 34.6228C46.3205 34.7227 46.456 34.7788 46.5973 34.7788H51.6031C51.6931 34.7793 51.7817 34.757 51.8606 34.714C51.9396 34.6709 52.0063 34.6085 52.0546 34.5326C52.1028 34.4567 52.131 34.3697 52.1365 34.2799C52.1419 34.1902 52.1246 34.1005 52.0859 34.0192C51.9446 33.736 51.7272 33.4977 51.458 33.3311C51.1888 33.1646 50.8785 33.0764 50.562 33.0764Z" fill="#00402A"/>
<path d="M33.7926 55.4866V60.213C33.7926 60.213 34.1991 60.9498 34.7328 60.9498C35.0899 60.9422 35.4444 60.8865 35.7867 60.7841L36.3076 54.5347L33.7926 55.4866Z" fill="#F7A491"/>
<path d="M33.8463 59.8396C33.4191 59.7883 33.0108 59.9046 31.8123 60.2723C30.4943 60.6766 29.7394 60.453 29.6546 60.7749C29.5698 61.0967 29.7003 61.116 29.7003 61.116L35.6654 62.4165C35.6654 62.4165 36.5516 60.668 35.8524 60.4449C34.3032 59.9505 33.8463 59.8396 33.8463 59.8396Z" fill="#00402A"/>
<path d="M42.5597 28.1842C42.5597 28.1842 33.809 34.855 32.6574 40.3092C31.5059 45.7634 33.5341 57.3496 33.5341 57.3496C33.5341 57.3496 34.6411 57.8916 36.9014 57.6206C36.9014 57.6206 36.8581 42.4774 37.6712 41.3933C38.4843 40.3092 50.985 33.4998 51.5948 31.4672C52.2046 29.4346 50.6393 27.1987 50.6393 27.1987L42.5597 28.1842Z" fill="#0DA9FF"/>
<path d="M47.4389 26.2087C47.4645 26.2087 47.4896 26.2029 47.5126 26.1918C47.5356 26.1806 47.5557 26.1644 47.5715 26.1444C47.5873 26.1243 47.5983 26.101 47.6038 26.0761C47.6092 26.0511 47.6089 26.0253 47.603 26.0005C47.5178 25.649 47.4532 25.431 47.4505 25.4225C47.4373 25.3802 47.408 25.3447 47.3689 25.3238C47.3297 25.3029 47.2839 25.2983 47.2414 25.3109C47.1989 25.3236 47.1631 25.3525 47.1417 25.3913C47.1203 25.4302 47.1151 25.4759 47.1272 25.5186C47.128 25.5207 47.1925 25.7381 47.2753 26.0802C47.2843 26.1169 47.3053 26.1494 47.335 26.1727C47.3646 26.196 47.4012 26.2087 47.4389 26.2087Z" fill="#F7604B"/>
<path d="M39.3314 10.3622C39.3314 10.3622 37.6036 11.243 37.0955 13.0721C36.5874 14.9012 36.0613 19.0089 37.0955 20.1186C38.723 21.8646 40.5808 25.6781 41.7217 28.9583C41.9796 29.6998 51.41 29.014 51.3028 28.3239C51.1515 27.3513 46.6384 16.6431 44.9782 13.2554C43.3181 9.86769 39.3314 10.3622 39.3314 10.3622Z" fill="#DCEBE1"/>
<path d="M36.0683 8.53687C36.0683 8.53687 37.6268 11.4712 37.1189 12.9249C36.7883 13.9609 36.6205 15.0419 36.6214 16.1293C36.6214 18.1619 40.1499 10.3452 40.1499 10.3452L38.4222 7.05371L36.0683 8.53687Z" fill="#F7A491"/>
<path d="M38.7131 7.60739C38.4415 8.41777 37.9203 9.12132 37.2241 9.61713C37.055 9.73534 36.8751 9.83733 36.6868 9.92176C36.5064 9.44911 36.3 8.98678 36.0686 8.53687L38.4225 7.05371L38.7131 7.60739Z" fill="#F47458"/>
<path d="M13.0082 55.3853C13.0993 55.3853 13.1888 55.3609 13.2673 55.3145C13.3457 55.2682 13.4103 55.2016 13.4542 55.1217L27.1389 30.2175C27.27 29.9784 27.3388 29.7102 27.3389 29.4376V27.8227C27.3389 27.7161 27.3672 27.6113 27.421 27.5192C27.4747 27.427 27.5519 27.3508 27.6447 27.2983C27.7376 27.2457 27.8427 27.2188 27.9493 27.2201C28.056 27.2215 28.1603 27.2511 28.2518 27.306L30.6346 28.7359C30.7501 28.8033 30.8875 28.8225 31.0171 28.7893C31.1467 28.7561 31.2579 28.6732 31.3268 28.5585C31.3956 28.4438 31.4164 28.3066 31.3847 28.1766C31.353 28.0467 31.2714 27.9345 31.1575 27.8643L28.7746 26.4346C28.529 26.2872 28.2486 26.2076 27.9621 26.204C27.6756 26.2004 27.3933 26.2728 27.144 26.414C26.8947 26.5551 26.6873 26.7599 26.543 27.0074C26.3987 27.2548 26.3226 27.5362 26.3226 27.8227V29.4376C26.3226 29.5391 26.297 29.6389 26.2481 29.7279L12.5633 54.632C12.5209 54.7094 12.4993 54.7965 12.5007 54.8847C12.5021 54.9729 12.5265 55.0593 12.5714 55.1352C12.6162 55.2112 12.6801 55.2742 12.7567 55.3181C12.8332 55.3619 12.9199 55.3851 13.0082 55.3853Z" fill="#00A443"/>
<path d="M14.5208 54.8765C14.5208 55.1755 14.4321 55.4678 14.266 55.7164C14.0998 55.965 13.8637 56.1588 13.5875 56.2732C13.3113 56.3877 13.0073 56.4176 12.7141 56.3593C12.4208 56.301 12.1514 56.157 11.94 55.9456C11.7286 55.7342 11.5846 55.4648 11.5262 55.1715C11.4679 54.8783 11.4978 54.5743 11.6122 54.2981C11.7266 54.0218 11.9203 53.7857 12.1689 53.6196C12.4175 53.4535 12.7098 53.3648 13.0088 53.3647C13.2074 53.3647 13.404 53.4038 13.5874 53.4798C13.7708 53.5558 13.9375 53.6671 14.0779 53.8075C14.2183 53.9479 14.3297 54.1145 14.4056 54.298C14.4816 54.4814 14.5208 54.678 14.5208 54.8765Z" fill="#FF9C1A"/>
<path d="M28.4374 26.6042C29.0725 25.969 30.9963 25.7051 31.7586 25.9592C32.1705 26.0966 39.5776 24.6023 39.7227 24.3579C40.0714 23.7704 39.6028 18.4922 39.3317 15.5449C39.0605 12.5976 39.356 12.216 40.0668 11.4607C40.6739 10.8151 43.4657 10.8482 43.9047 12.2154C44.7523 14.857 43.9722 26.2645 43.527 26.7445C41.8723 28.5285 31.5729 28.1417 31.3824 28.1417C31.1282 28.1417 30.6591 28.7237 30.4049 28.7237C29.8581 28.6781 29.3354 28.4785 28.8975 28.1478C28.7561 28.0362 27.8029 27.2393 28.4374 26.6042Z" fill="#F7A491"/>
<path d="M41.9143 3.94801C42.7305 2.92055 45.3461 -1.28692 47.8487 0.390416C50.3514 2.06775 48.616 4.89084 52.7957 2.78865C56.668 0.841085 58.9477 5.07477 57.0013 7.46941C57.3523 7.74032 57.6319 8.09279 57.8158 8.49623C58.4716 9.93468 57.7709 11.6626 56.2507 12.3558C56.0091 12.4658 55.8878 12.6841 55.6392 12.7305C54.9874 13.9537 53.7715 14.9187 51.9545 15.3634C46.9921 16.5773 47.9386 11.3611 46.3701 10.241C44.8015 9.12093 44.7057 11.0653 42.6969 10.8016C40.6881 10.5379 39.9136 9.40964 40.0862 5.24043L40.191 4.144C40.191 4.144 41.0984 4.97548 41.9143 3.94801Z" fill="#00402A"/>
<path d="M36.8173 1.37535C37.5791 1.53164 38.2621 1.94967 38.7479 2.55693C39.5158 3.55472 39.8209 7.20352 37.5655 8.7618C35.3101 10.3201 33.7338 7.78455 33.5926 5.81837C33.4513 3.85218 33.7423 1.20119 36.8173 1.37535Z" fill="#F7A491"/>
<path d="M40.0534 5.06603C40.1176 3.19514 39.7496 1.84569 38.3315 1.39835C36.9133 0.951021 35.6857 0.477874 34.7108 1.86187L34.4701 2.05234C34.4701 2.05234 36.7795 2.28917 37.0929 3.42298C37.4062 4.55679 38.8781 5.74993 38.7195 6.33186C38.4105 7.46849 38.8266 7.81873 38.8266 7.81873L39.0287 7.62237C39.0287 7.62237 39.9897 6.93691 40.0534 5.06603Z" fill="#00402A"/>
<path d="M37.6608 4.74788C37.5606 5.27818 37.7813 5.75762 38.1536 5.81888C38.5259 5.88014 38.9094 5.49986 39.0097 4.96956C39.11 4.43926 38.8895 3.95968 38.5169 3.89854C38.1444 3.83741 37.7612 4.21757 37.6608 4.74788Z" fill="#F7A491"/>
</svg>
