<svg width="64" height="72" viewBox="0 0 64 72" fill="none" xmlns="http://www.w3.org/2000/svg">
<path d="M20.5142 26.6126C20.5142 26.6126 21.3068 23.9118 22.3343 23.9999C23.3618 24.088 23.844 27.6897 23.5851 28.3809C22.7432 30.6314 20.1213 34.3988 19.8509 34.333C19.5127 34.2505 18.1516 32.8986 17.3076 31.4491C15.9572 29.1299 15.2063 27.7393 15.2063 27.7393L16.5294 27.2724C16.5294 27.2724 19.0547 31.1896 19.2015 31.1896C19.3482 31.1896 20.5142 26.6126 20.5142 26.6126Z" fill="#F48C7F"/>
<path d="M23.3333 31.0751C23.3333 31.0751 20.1041 30.3998 19.7812 29.7834C19.7812 29.7834 20.1334 24.3229 21.3373 24.1175C22.5411 23.912 22.5702 23.7946 23.4803 24.4698C24.3904 25.1451 23.773 29.8421 23.3333 31.0751Z" fill="#007F33"/>
<path d="M10.968 2.97829C10.968 2.97829 11.8799 3.79465 11.9332 3.71213C11.9742 3.64847 11.4498 3.23186 11.0019 2.67014C10.8869 2.52561 10.7741 2.38261 10.6718 2.25046C10.4023 1.90352 10.5421 1.63958 10.8829 1.95799C11.039 2.10049 11.1844 2.25415 11.3181 2.41775C11.4513 2.56524 11.5964 2.70146 11.752 2.82503C11.8927 2.97366 12.0429 3.11298 12.2017 3.24211C12.2077 3.22101 12.2946 3.23422 12.1774 3.07708C12.0367 2.88846 11.6469 2.55283 11.4617 2.25906C11.3567 2.09249 11.1156 1.75771 11.1156 1.75771C11.1156 1.75771 10.7856 1.17252 10.8137 1.14553C10.9697 0.999349 11.3276 1.35076 11.4403 1.59573C11.5891 1.74063 11.722 1.90099 11.8367 2.07411C11.8367 2.07411 12.4949 2.69053 12.5852 2.59916C12.6595 2.52419 11.3734 0.745301 11.5401 0.609733C11.6763 0.499156 12.0876 1.01668 12.0876 1.01668C12.0876 1.01668 12.3116 1.34912 12.3951 1.45368C12.4926 1.5764 12.8132 1.92168 12.8132 1.92168C12.8132 1.92168 13.9859 3.07189 14.0639 2.97829C14.142 2.88469 14.246 2.5657 14.1986 2.46974C14.1512 2.37378 13.97 2.2428 13.9226 2.14637C13.8967 2.0895 13.8915 2.02535 13.908 1.96506C13.9244 1.90477 13.9615 1.85213 14.0127 1.81629C14.1283 1.74874 14.5389 2.12585 14.5389 2.12585C14.5389 2.12585 14.8704 2.43519 14.9603 2.73485C15.2721 3.77295 15.0846 3.78474 15.1282 3.91677C15.1797 4.07285 16.9164 5.4395 16.9164 5.4395L21.3303 8.88022L27.8888 10.5652L27.9453 14.0238C27.9453 14.0238 20.8604 12.003 20.5096 11.8331C20.5096 11.8331 14.7519 6.07774 14.3227 5.67186C14.3227 5.67186 13.4064 5.2807 12.8393 5.01641C12.2723 4.75211 11.8553 4.25121 11.7076 4.15243C11.3498 3.87139 11.0282 3.54696 10.7504 3.18659C10.3514 2.67485 10.968 2.97829 10.968 2.97829Z" fill="#F8A492"/>
<path d="M14.2268 4.30859C14.086 4.13281 13.9904 3.92518 13.9484 3.70391C13.9064 3.48264 13.9193 3.25445 13.986 3.03931C13.6174 3.44837 13.8151 4.08213 14.2268 4.30859Z" fill="#FE875E"/>
<path d="M24.598 9.49097L23.9718 13.5776C23.9718 13.5776 30.5649 17.2382 32.4596 15.7291C34.3542 14.2201 32.2002 10.5317 31.4718 10.2026C30.7434 9.87362 24.598 9.49097 24.598 9.49097Z" fill="#007F33"/>
<path d="M20.7235 49.661C20.7235 48.8104 21.3737 46.5991 21.3737 46.5991L23.921 48.8881C23.921 48.8881 24.0527 52.4629 23.9489 53.76C23.8414 55.1046 23.2907 60.4957 23.1188 62.1392C22.4605 62.0959 21.6682 62.375 21.0003 62.3208C21.4133 60.0269 20.7235 50.4337 20.7235 49.661Z" fill="#F7A491"/>
<path d="M27.2956 50.5425L27.2178 47.5073C27.2178 47.5073 28.4556 48.0701 30.5243 49.0356C32.5425 49.9775 33.2226 59.4999 33.6365 60.3485C33.1898 61.2297 32.6374 60.9915 31.9917 61.7134C32.0046 61.622 32.1031 61.175 32.1031 61.0751C32.104 59.6268 27.2956 50.5425 27.2956 50.5425Z" fill="#F7A491"/>
<path d="M23.4694 64.3829C23.4694 64.3829 19.743 64.3822 19.3724 64.3735C19.0018 64.3648 17.3555 64.4553 17.4508 64.175C17.5462 63.8947 19.0876 63.0068 19.7305 62.7041C20.3735 62.4015 20.923 62.1383 21.1569 62.1819C21.4855 62.2424 22.9521 61.6579 23.1588 61.8754C23.3654 62.0929 23.6591 64.202 23.4694 64.3829Z" fill="#FFCD52"/>
<path d="M35.3777 61.8462L33.8818 62.849C33.2659 63.2616 32.5066 64.1286 32.1985 64.335C31.8905 64.5415 30.1202 64.4352 30.0363 64.1515C29.9523 63.8677 31.0029 63.248 31.3546 62.6302C31.7062 62.0123 31.844 60.928 32.1208 60.8329C32.3448 60.7558 33.3213 59.9516 33.6153 60.0096C33.9093 60.0676 35.4281 61.5891 35.3777 61.8462Z" fill="#FFCD52"/>
<path d="M29.4441 38.4381L24.2344 49.9715C24.2344 49.9715 24.4534 52.3015 24.4937 52.7732C24.5457 53.3785 23.8454 61.0833 23.8454 61.0833L21.0436 61.1265C21.0436 61.1265 20.197 51.2369 20.2394 49.7119C20.2739 48.4668 24.6971 36.1812 24.6971 36.1812L29.4441 38.4381Z" fill="#C66D00"/>
<path d="M30.8238 35.6516C30.8238 35.6516 32.6052 38.7301 32.5533 39.5084C32.5014 40.2866 31.0658 49.4697 31.0658 49.4697C31.0658 49.4697 31.8096 49.8674 32.4841 51.6833C33.1586 53.4992 33.6255 59.2585 33.6255 59.2585L31.3945 60.1924C31.3945 60.1924 27.3614 52.0138 26.9434 50.2752C26.5001 48.4319 26.2061 37.2076 26.2061 37.2076L30.8238 35.6516Z" fill="#FF9C1A"/>
<path d="M22.7706 22.9426C22.7706 22.9426 25.2271 21.8749 27.5032 24.1509C29.7792 26.4269 32.1382 37.7791 32.1382 37.7791C32.1382 37.7791 30.5467 39.2318 27.5032 39.2318C24.767 39.2318 23.8712 38.0559 23.8712 38.0559C23.8712 38.0559 24.4938 36.1534 24.2171 34.1472C23.8801 31.704 20.5852 26.499 20.5852 25.2577C20.5852 24.0164 22.7706 22.9426 22.7706 22.9426Z" fill="#DCEBE1"/>
<path d="M21.0049 22.6787L21.2296 24.0424C21.2296 24.0424 21.3873 24.1237 21.8997 24.0815C22.5178 24.0306 23.4912 22.7671 23.4912 22.7671L22.7645 20.3599L21.0049 22.6787Z" fill="#F7A491"/>
<path d="M22.6832 20.7814C22.6371 22.2155 21.8064 22.9616 21.1 23.257L21.0047 22.6785L22.6921 20.4548C22.69 20.5668 22.6865 20.6762 22.6832 20.7814Z" fill="#F47458"/>
<path d="M19.9993 17.6866C19.7401 17.7336 19.5018 17.8597 19.3171 18.0475C19.1324 18.2354 19.0104 18.4758 18.9678 18.7358C18.8504 19.3488 18.7849 19.9707 18.7721 20.5948C18.7485 21.9685 19.697 23.0792 20.3753 23.0767C21.0537 23.0741 22.568 22.3951 22.6311 20.4449C22.6578 19.6087 22.6936 18.5115 21.9398 18.0527C21.3517 17.7182 20.6688 17.5894 19.9993 17.6866Z" fill="#F7A491"/>
<path d="M23.1617 21.6771C23.1617 21.6771 24.6589 19.4835 24.5143 17.8392C24.3698 16.1948 22.7334 15.5496 21.4401 15.6988C20.8559 15.7663 20.2883 15.2182 19.6995 15.3847C18.4352 15.7422 17.8648 17.0735 18.3186 18.0849C18.9279 19.443 21.422 17.8421 22.0354 18.1994C22.5423 18.4941 21.9422 19.4785 22.4311 19.7452C22.8908 19.9961 22.6646 19.9221 22.6183 20.538C22.5719 21.154 23.1617 21.6771 23.1617 21.6771Z" fill="#0DA9FF"/>
<path d="M23.2507 19.8971C23.2518 20.2962 23.0568 20.6205 22.8151 20.6214C22.5735 20.6224 22.3766 20.2995 22.3757 19.9004C22.3747 19.5014 22.5696 19.177 22.8112 19.176C23.0529 19.1751 23.2497 19.4981 23.2507 19.8971Z" fill="#F7A491"/>
<path d="M23.9385 25.731C23.9385 25.731 24.7312 23.0303 25.7587 23.1183C26.7862 23.2064 27.1794 26.7804 27.0097 27.4993C26.3789 30.1695 24.0786 34.5884 23.4042 34.77C23.1185 34.8469 22.5588 34.5966 21.2084 32.2774C19.858 29.9583 18.3022 27.5804 18.3022 27.5804L19.8583 27.5215C19.8583 27.5215 22.5312 30.8524 22.678 30.8524C22.8248 30.8524 23.9385 25.731 23.9385 25.731Z" fill="#F7A491"/>
<path d="M26.757 30.1932C26.757 30.1932 23.5277 29.5181 23.2048 28.9016C23.2048 28.9016 23.5571 23.4414 24.7609 23.2359C25.9648 23.0304 25.9939 22.913 26.904 23.5881C27.814 24.2633 27.1974 28.9605 26.757 30.1932Z" fill="#007F33"/>
<path d="M36.3442 62.0779C36.3014 61.6841 36.4443 61.1597 36.389 60.5237C35.9593 55.5771 35.03 44.4104 35.03 44.4104C35.03 44.4104 33.9791 35.5651 33.8971 29.9615C35.0235 29.861 36.1398 29.6693 37.2352 29.3882C39.6186 28.7854 41.2178 27.8122 43.4883 26.708C44.7295 31.2795 47.0256 39.6674 47.0256 39.6674C47.0256 39.6674 47.0207 41.4507 49.3975 41.4507C51.4847 41.4507 60.1535 48.7098 61.8684 49.7896C61.648 50.3129 61.0869 50.8285 60.8323 51.3466C58.0771 49.0936 43.8847 43.9117 43.8847 43.9117L40.0339 34.1498C40.0339 34.1498 38.8765 46.1187 39.8099 47.0524C40.7433 47.9862 38.1542 61.3965 38.1542 62.0756C38.1546 62.1647 37.0634 62.0637 36.3442 62.0779Z" fill="#F48C7F"/>
<path d="M47.6638 70.6292C44.6165 70.6292 42.1461 68.1589 42.1461 65.1116C42.1461 62.0643 44.6165 59.594 47.6638 59.594C50.7111 59.594 53.1814 62.0643 53.1814 65.1116C53.1814 68.1589 50.7111 70.6292 47.6638 70.6292Z" fill="#00A443"/>
<path d="M47.6638 68.0828C48.2513 68.0828 48.8257 67.9086 49.3142 67.5821C49.8028 67.2557 50.1835 66.7917 50.4084 66.2489C50.6332 65.7061 50.6921 65.1088 50.5774 64.5325C50.4628 63.9563 50.1799 63.4269 49.7644 63.0115C49.3489 62.596 48.8196 62.3131 48.2433 62.1984C47.6671 62.0838 47.0698 62.1426 46.5269 62.3675C45.9841 62.5923 45.5202 62.9731 45.1937 63.4616C44.8673 63.9502 44.6931 64.5245 44.6931 65.1121C44.694 65.8997 45.0073 66.6547 45.5642 67.2116C46.1212 67.7685 46.8762 68.0818 47.6638 68.0828Z" fill="#00402A"/>
<path d="M47.5824 66.7094C47.8932 66.7094 48.1969 66.6173 48.4553 66.4446C48.7137 66.272 48.915 66.0266 49.034 65.7395C49.1529 65.4524 49.184 65.1365 49.1234 64.8318C49.0627 64.527 48.9131 64.247 48.6934 64.0273C48.4736 63.8076 48.1937 63.658 47.8889 63.5973C47.5842 63.5367 47.2682 63.5678 46.9812 63.6867C46.6941 63.8057 46.4487 64.007 46.2761 64.2654C46.1034 64.5238 46.0113 64.8275 46.0113 65.1383C46.0118 65.5548 46.1775 65.9541 46.472 66.2487C46.7665 66.5432 47.1659 66.7089 47.5824 66.7094Z" fill="#FF9C1A"/>
<path d="M0.34222 65.6551C0.153288 62.6139 2.46551 59.9954 5.50672 59.8064C8.54793 59.6175 11.1665 61.9297 11.3554 64.9709C11.5443 68.0122 9.23211 70.6307 6.19091 70.8196C3.1497 71.0086 0.531153 68.6963 0.34222 65.6551Z" fill="#00A443"/>
<path d="M5.8408 68.2847C6.42835 68.2847 7.00269 68.1105 7.49122 67.784C7.97975 67.4576 8.36053 66.9936 8.58537 66.4508C8.81022 65.908 8.86906 65.3107 8.75443 64.7344C8.63981 64.1581 8.35687 63.6288 7.94141 63.2134C7.52595 62.7979 6.99661 62.515 6.42035 62.4003C5.84409 62.2857 5.24679 62.3445 4.70396 62.5694C4.16114 62.7942 3.69715 63.175 3.37073 63.6635C3.0443 64.1521 2.87009 64.7264 2.87009 65.314C2.87109 66.1015 3.18438 66.8566 3.74128 67.4135C4.29818 67.9704 5.05322 68.2837 5.8408 68.2847Z" fill="#00402A"/>
<path d="M5.83509 66.7094C6.14584 66.7094 6.44959 66.6173 6.70797 66.4446C6.96634 66.272 7.16772 66.0266 7.28664 65.7395C7.40556 65.4524 7.43667 65.1365 7.37605 64.8318C7.31543 64.527 7.16579 64.247 6.94606 64.0273C6.72633 63.8076 6.44638 63.658 6.14161 63.5973C5.83684 63.5367 5.52094 63.5678 5.23385 63.6867C4.94676 63.8056 4.70137 64.007 4.52873 64.2654C4.35609 64.5238 4.26396 64.8275 4.26396 65.1383C4.26448 65.5548 4.43018 65.9541 4.72471 66.2487C5.01924 66.5432 5.41856 66.7089 5.83509 66.7094Z" fill="#FF9C1A"/>
<path d="M5.91315 65.8118C6.07711 65.8117 6.23653 65.7556 6.3671 65.6521C6.49767 65.5486 6.59224 65.4034 6.63638 65.2386L16.8066 27.2981C16.8584 27.0984 16.8325 26.8855 16.7346 26.7057C16.6367 26.5258 16.4746 26.3936 16.2838 26.3379C16.0929 26.2821 15.8886 26.3073 15.7155 26.408C15.5423 26.5087 15.4143 26.6767 15.3593 26.8754L5.18901 64.816C5.15789 64.9326 5.15301 65.0551 5.17477 65.174C5.19654 65.2929 5.24434 65.4049 5.31446 65.5013C5.38457 65.5977 5.4751 65.6759 5.57895 65.7298C5.68281 65.7837 5.79718 65.8117 5.91315 65.8118Z" fill="#00402A"/>
<path d="M9.42268 27.7382H25.1286C25.3312 27.7382 25.5255 27.6577 25.6688 27.5145C25.8121 27.3712 25.8926 27.1768 25.8926 26.9742C25.8926 26.7716 25.8121 26.5773 25.6688 26.434C25.5255 26.2907 25.3312 26.2102 25.1286 26.2102H9.42268C9.22005 26.2102 9.02572 26.2907 8.88244 26.434C8.73916 26.5773 8.65867 26.7716 8.65867 26.9742C8.65867 27.1768 8.73916 27.3712 8.88244 27.5145C9.02572 27.6577 9.22005 27.7382 9.42268 27.7382Z" fill="#00402A"/>
<path d="M40.3186 31.6047C40.3186 31.6047 39.4885 44.8351 39.9036 45.6135C40.3186 46.3919 40.6298 47.6882 40.3186 50.9576C40.0074 54.2269 39.0734 59.9336 39.0734 59.9336L36.0122 60.0372L34.7669 44.4201L33.7041 29.9438L33.6774 29.6333L37.8282 26.5203L40.3186 31.6047Z" fill="#007ACB"/>
<path d="M60.0344 47.689L58.6855 50.1277C58.6855 50.1277 46.4631 46.1026 43.8984 44.2128C42.9126 43.4865 38.8137 33.5766 38.8137 33.5766L35.5798 29.7419L35.5444 27.6098L42.4898 24.5579C42.4898 24.5579 45.011 27.3964 45.5062 28.5437C46.7418 31.4061 47.581 40.8404 47.581 40.8404C47.581 40.8404 47.4773 40.4772 49.8121 41.0998C52.1469 41.7223 60.0344 47.689 60.0344 47.689Z" fill="#0DA9FF"/>
<path d="M29.6823 9.94312L32.4494 9.03539C32.4494 9.03539 33.7815 8.9834 34.7115 9.28542C35.8197 9.64509 36.6769 10.9203 37.465 12.4077C39.3812 16.0252 40.5588 21.5033 41.2525 22.9403C41.4858 23.4237 43.8467 25.5346 45.3301 26.2105C43.0596 27.3148 39.6185 28.7852 37.2351 29.3881C36.0739 29.6639 34.8931 29.85 33.7034 29.9447C33.6954 29.3951 33.1359 26.428 31.9652 23.6927C30.5252 20.328 28.3975 17.0028 28.1166 15.1768C27.6073 11.8659 29.6823 9.94312 29.6823 9.94312Z" fill="#DCEBE1"/>
<path d="M29.3759 8.51548L29.649 10.174C29.649 10.174 29.9247 11.4708 30.5479 11.4191C31.2997 11.3571 32.4861 9.06047 32.4861 9.06047L31.5159 5.69531L29.3759 8.51548Z" fill="#F7A491"/>
<path d="M31.354 6.25175C31.2994 7.95131 30.3384 8.85703 29.4942 9.23497L29.3757 8.51587L31.364 5.89551C31.3611 6.01705 31.3577 6.13646 31.354 6.25175Z" fill="#F47458"/>
<path d="M28.1528 2.44335C27.524 2.53636 27.041 2.78827 26.915 3.44878C26.8104 3.99648 26.9995 4.77288 26.984 5.67977C26.9556 7.35056 27.7857 9.00143 28.6109 8.99825C29.4361 8.99507 31.2781 8.16939 31.3543 5.7973C31.3869 4.78042 31.4303 3.44667 30.5135 2.88789C29.8 2.45349 28.8754 2.33643 28.1528 2.44335Z" fill="#F7A491"/>
<path d="M31.8572 6.88511C31.8572 6.88511 33.3342 4.60144 33.1586 2.60139C32.9829 0.601347 31.4785 -0.155471 29.9055 0.0260726C29.1949 0.108003 25.1872 1.16366 25.7391 2.39391C26.4801 4.04549 29.8834 2.63275 30.6296 3.06739C31.2453 3.426 30.5161 4.62348 31.1107 4.94743C31.6697 5.25252 31.3948 5.16211 31.3384 5.91162C31.2821 6.66114 31.8572 6.88511 31.8572 6.88511Z" fill="#00402A"/>
<path d="M32.1076 5.1322C32.1089 5.61766 31.8719 6.01199 31.5779 6.01305C31.2839 6.01411 31.0446 5.62167 31.0433 5.13622C31.042 4.65077 31.279 4.25643 31.573 4.25537C31.8671 4.25431 32.1064 4.64675 32.1076 5.1322Z" fill="#F7A491"/>
<path d="M31.8615 11.4818C31.8615 11.4818 34.0746 9.66792 35.0299 10.9062C35.9851 12.1445 30.4088 21.7988 29.786 22.3952C29.5462 22.6251 22.4746 25.7848 22.2322 26.385C21.8344 27.3709 22.4091 27.7398 22.4091 27.7398C22.2241 27.8808 22.0004 27.9621 21.768 27.9726C21.4143 27.9726 21.2375 28.1159 20.9943 28.1159C20.7511 28.1159 20.4489 28.0044 20.3127 28.0044C20.1765 28.0044 20.0202 28.1678 19.69 27.7398C19.525 27.5259 19.7149 26.5788 20.3053 25.857C20.8956 25.1352 27.2959 20.2939 27.2959 20.2939L31.8615 11.4818Z" fill="#F7A491"/>
<path d="M33.7283 9.38517C34.6553 9.36159 36.2864 9.6154 36.2864 12.0712C36.2864 14.527 32.5185 19.4119 32.5185 19.4119L28.9903 16.5411C28.9903 16.5411 31.0576 9.45413 33.7283 9.38517Z" fill="#007F33"/>
<path d="M16.3487 65.9004H47.5165C47.6218 65.9085 47.7275 65.8947 47.8272 65.86C47.9269 65.8253 48.0183 65.7703 48.0958 65.6986C48.1732 65.6268 48.235 65.5399 48.2772 65.4432C48.3195 65.3464 48.3413 65.242 48.3413 65.1364C48.3413 65.0309 48.3195 64.9265 48.2772 64.8297C48.235 64.733 48.1732 64.646 48.0958 64.5743C48.0183 64.5026 47.9269 64.4476 47.8272 64.4129C47.7275 64.3781 47.6218 64.3643 47.5165 64.3724H17.2289L9.7513 54.1469C9.61914 53.9764 9.42848 53.861 9.21616 53.823C9.00383 53.7849 8.78493 53.827 8.60181 53.941C8.51323 53.9921 8.43645 54.0614 8.37643 54.1442C8.3164 54.227 8.27447 54.3215 8.25342 54.4216C8.23236 54.5217 8.23265 54.6251 8.25422 54.7251C8.2758 54.8251 8.31821 54.9194 8.37867 55.0019L16.3487 65.9004Z" fill="#00402A"/>
<path d="M59.5502 50.5946C59.5502 50.5946 60.3665 50.0674 60.4625 49.7644C60.5586 49.4614 60.3271 48.6968 60.6652 48.5215C61.0033 48.3462 63.1633 49.06 63.4851 49.3017C63.8825 49.6001 64.0365 50.0742 63.9383 50.3841C63.8401 50.6941 60.9669 55.8972 60.3593 56.5578C59.7517 57.2184 58.9969 55.7588 59.4465 54.849C59.8961 53.9393 59.3743 52.026 59.5502 50.5946Z" fill="#00402A"/>
<path d="M36.2081 60.6523C36.2081 60.6523 37.0697 61.1013 37.3806 61.0351C37.6915 60.9688 38.2412 60.3897 38.5612 60.5971C38.8813 60.8045 39.3275 63.0346 39.2768 63.434C39.214 63.927 38.8777 64.2946 38.5598 64.3628C38.2419 64.4311 32.2984 64.5043 31.4241 64.303C30.5497 64.1016 31.4453 62.7233 32.4583 62.6651C33.4713 62.6068 34.8766 61.207 36.2081 60.6523Z" fill="#00402A"/>
<path d="M19.7837 26.2106C19.7288 26.0708 19.6446 25.9443 19.5369 25.8397C19.4291 25.735 19.3003 25.6546 19.1589 25.6038C18.6573 25.4048 17.6067 25.6427 17.4121 25.8198C17.3121 25.911 17.3083 26.9612 17.3689 27.2121C17.4055 27.3633 17.5205 27.4138 17.6132 27.3829C17.6681 27.3569 17.7119 27.312 17.7364 27.2564C17.7699 27.1644 17.8596 26.53 17.8596 26.53C17.8596 26.53 17.9049 27.238 18.0347 27.3419C18.0539 27.3607 18.0769 27.3751 18.1023 27.3841C18.1276 27.3932 18.1545 27.3966 18.1813 27.3941C18.2081 27.3916 18.234 27.3833 18.2572 27.3698C18.2804 27.3563 18.3004 27.3378 18.3158 27.3158C18.385 27.0587 18.359 26.4879 18.359 26.4879C18.359 26.4879 18.4671 27.2034 18.6746 27.2336C18.8821 27.2638 18.8994 27.0358 18.9038 26.958C18.9081 26.8802 18.8356 26.3873 18.8356 26.3873C18.8356 26.3873 18.9686 27.13 19.1416 26.97C19.2467 26.8725 19.2379 26.2251 19.2379 26.2251L19.7837 26.2106Z" fill="#F7A491"/>
<path d="M15.6846 26.2106C15.6297 26.0708 15.5455 25.9443 15.4378 25.8397C15.33 25.735 15.2011 25.6546 15.0598 25.6038C14.5583 25.4048 13.5076 25.6427 13.3131 25.8198C13.213 25.911 13.2092 26.9612 13.2698 27.2121C13.3063 27.3633 13.4215 27.4138 13.5141 27.3829C13.569 27.3569 13.6127 27.312 13.6372 27.2564C13.6707 27.1644 13.7606 26.53 13.7606 26.53C13.7606 26.53 13.8058 27.238 13.9356 27.3419C13.9548 27.3607 13.9778 27.3752 14.0031 27.3842C14.0284 27.3932 14.0554 27.3966 14.0822 27.3941C14.1089 27.3917 14.1349 27.3834 14.1581 27.3698C14.1813 27.3563 14.2013 27.3379 14.2166 27.3158C14.2858 27.0587 14.2599 26.4879 14.2599 26.4879C14.2599 26.4879 14.368 27.2034 14.5755 27.2336C14.783 27.2638 14.8003 27.0358 14.8047 26.958C14.809 26.8802 14.7365 26.3873 14.7365 26.3873C14.7365 26.3873 14.8695 27.13 15.043 26.97C15.1482 26.8725 15.1392 26.2251 15.1392 26.2251L15.6846 26.2106Z" fill="#F7A491"/>
</svg>
