<svg width="18" height="24" viewBox="0 0 18 24" fill="none" xmlns="http://www.w3.org/2000/svg">
<path d="M4.18604 16.0756L4.83403 15.6972L7.30858 14.7579L8.07835 15.2015L5.52986 16.4931L4.18604 16.0756Z" fill="#B5AFA7" stroke="#00402A" stroke-width="0.343842" stroke-linejoin="round"/>
<path d="M1.70923 17.9891L2.47759 18.4319L2.5427 18.5013L2.47759 18.6315L1.70923 18.1888V17.9891Z" fill="#D8D1C7" stroke="#00402A" stroke-width="0.343842" stroke-linejoin="round"/>
<path d="M4.83403 15.6971L5.60379 16.1407L5.49072 16.4451L4.92971 16.7191L4.18604 16.0754L4.83403 15.6971Z" fill="#E6E1DD" stroke="#00402A" stroke-width="0.343842" stroke-linejoin="round"/>
<path d="M4.18378 16.0757L4.9492 16.5193L2.65295 18.4329H2.47899L1.70923 17.9893L4.18378 16.0757Z" fill="#B5AFA7" stroke="#00402A" stroke-width="0.343842" stroke-linejoin="round"/>
<path d="M2.48193 18.4322L4.95214 16.5187L5.60448 16.1403L8.07903 15.2009V15.3966L2.48193 18.6322V18.4322Z" fill="#A39C95" stroke="#00402A" stroke-width="0.343842" stroke-linejoin="round"/>
<path d="M12.2747 20.7462L12.927 20.3678L15.4016 19.4285L16.1713 19.8721L13.6185 21.1637L12.2747 20.7462Z" fill="#B5AFA7" stroke="#00402A" stroke-width="0.343842" stroke-linejoin="round"/>
<path d="M9.80585 22.66L10.5699 23.1028L10.6393 23.1766L10.5699 23.3025L9.80151 22.8597L9.80585 22.66Z" fill="#D8D1C7" stroke="#00402A" stroke-width="0.343842" stroke-linejoin="round"/>
<path d="M12.927 20.368L13.6968 20.8116L13.5793 21.116L13.0227 21.39L12.2747 20.7464L12.927 20.368Z" fill="#E6E1DD" stroke="#00402A" stroke-width="0.343842" stroke-linejoin="round"/>
<path d="M12.2744 20.7468L13.0442 21.1904L10.7479 23.1039H10.5696L9.8042 22.6603L12.2744 20.7468Z" fill="#B5AFA7" stroke="#00402A" stroke-width="0.343842" stroke-linejoin="round"/>
<path d="M10.5698 23.1035L13.0444 21.19L13.6967 20.8116L16.1713 19.8723V20.0723L10.5698 23.3036V23.1035Z" fill="#A39C95" stroke="#00402A" stroke-width="0.343842" stroke-linejoin="round"/>
<path d="M1.98563 5.27325L0.172119 3.40321L5.77357 0.171936L17.7071 7.06068L12.11 10.2963L1.98563 5.27325Z" fill="white" stroke="#00402A" stroke-width="0.343842" stroke-linejoin="round"/>
<path d="M12.0061 10.2962H12.1061L17.7032 7.06061V19.9596L12.1061 23.1909L12.0061 10.2962Z" fill="#D1D1D1" stroke="#00402A" stroke-width="0.343842" stroke-linejoin="round"/>
<path d="M0.171875 16.3021V3.40314L12.1097 10.2962V23.1909L0.171875 16.3021Z" fill="#F4EFE9" stroke="#00402A" stroke-width="0.343842" stroke-linejoin="round"/>
<path d="M4.46899 9.49193V9.68328L4.58642 9.88333L11.2925 13.7583L11.4099 13.693V13.6147L5.18222 9.90073L4.65165 9.46584L4.58642 9.4267L4.46899 9.49193Z" fill="#D1D1D1" stroke="#00402A" stroke-width="0.343842" stroke-linejoin="round"/>
<path d="M4.64966 9.46552V9.57858L4.76708 9.77864L11.4079 13.6144V13.5013L11.2905 13.3013L4.64966 9.46552Z" fill="#0A0808" stroke="#00402A" stroke-width="0.343842" stroke-linejoin="round"/>
<path d="M4.46899 10.3003V10.4916L4.58642 10.6917L11.2925 14.5666L11.4099 14.5014V14.4187L5.18222 10.7091L4.65165 10.2742L4.58642 10.235L4.46899 10.3003Z" fill="#D1D1D1" stroke="#00402A" stroke-width="0.343842" stroke-linejoin="round"/>
<path d="M4.64966 10.274V10.3827L4.76708 10.5828L11.4079 14.4185V14.3098L11.2905 14.1098L4.64966 10.274Z" fill="#0A0808" stroke="#00402A" stroke-width="0.343842" stroke-linejoin="round"/>
<path d="M4.46899 11.1096V11.301L4.58642 11.501L11.2925 15.3759L11.4099 15.3063V15.2281L5.18222 11.5184L4.65165 11.0835L4.58642 11.0444L4.46899 11.1096Z" fill="#D1D1D1" stroke="#00402A" stroke-width="0.343842" stroke-linejoin="round"/>
<path d="M4.64966 11.0831V11.1919L4.76708 11.3919L11.4079 15.2277V15.119L11.2905 14.9189L4.64966 11.0831Z" fill="#0A0808" stroke="#00402A" stroke-width="0.343842" stroke-linejoin="round"/>
<path d="M4.46899 11.9175V12.1089L4.58642 12.3089L11.2925 16.1839L11.4099 16.1143V16.036L5.18222 12.322L4.65165 11.8914L4.58642 11.8523L4.46899 11.9175Z" fill="#D1D1D1" stroke="#00402A" stroke-width="0.343842" stroke-linejoin="round"/>
<path d="M4.64966 11.8919V12.0006L4.76708 12.2007L11.4079 16.0365V15.9277L11.2905 15.7233L4.64966 11.8919Z" fill="#0A0808" stroke="#00402A" stroke-width="0.343842" stroke-linejoin="round"/>
<path d="M4.46899 12.7272V12.9186L4.58642 13.1186L11.2925 16.9936L11.4099 16.924V16.8457L5.18222 13.1317L4.65165 12.6968L4.58642 12.6577L4.46899 12.7272Z" fill="#D1D1D1" stroke="#00402A" stroke-width="0.343842" stroke-linejoin="round"/>
<path d="M4.64966 12.6962V12.8093L4.76708 13.0094L11.4079 16.8451V16.7364L11.2905 16.532L4.64966 12.6962Z" fill="#0A0808" stroke="#00402A" stroke-width="0.343842" stroke-linejoin="round"/>
<path d="M4.46875 7.06897V7.25598L4.58617 7.45604L11.2923 11.3309L11.4097 11.2657V11.1874L5.18198 7.47342L4.65141 7.03853L4.58617 6.99939L4.46875 7.06897Z" fill="#D1D1D1" stroke="#00402A" stroke-width="0.343842" stroke-linejoin="round"/>
<path d="M4.64941 7.03864V7.15171L4.76684 7.35176L11.4077 11.1875V11.0745L11.2903 10.8744L4.64941 7.03864Z" fill="#0A0808" stroke="#00402A" stroke-width="0.343842" stroke-linejoin="round"/>
<path d="M4.46899 7.87401V8.06536L4.58642 8.26541L11.2925 12.1403L11.4099 12.0751V11.9968L5.18222 8.28281L4.65165 7.84792L4.58642 7.80878L4.46899 7.87401Z" fill="#D1D1D1" stroke="#00402A" stroke-width="0.343842" stroke-linejoin="round"/>
<path d="M4.64966 7.84839V7.96145L4.76708 8.16151L11.4079 11.9973V11.8842L11.2905 11.6842L4.64966 7.84839Z" fill="#0A0808" stroke="#00402A" stroke-width="0.343842" stroke-linejoin="round"/>
<path d="M4.46899 8.68279V8.87414L4.58642 9.0742L11.2925 12.9491L11.4099 12.8839V12.8056L5.18222 9.09159L4.65165 8.65669L4.58642 8.61755L4.46899 8.68279Z" fill="#D1D1D1" stroke="#00402A" stroke-width="0.343842" stroke-linejoin="round"/>
<path d="M4.64966 8.65631V8.76939L4.76708 8.96944L11.4079 12.8052V12.6921L11.2905 12.4921L4.64966 8.65631Z" fill="#0A0808" stroke="#00402A" stroke-width="0.343842" stroke-linejoin="round"/>
<path d="M4.46899 13.5361V13.7231L4.58642 13.9275L11.2925 17.798L11.4099 17.7328V17.6545L5.18222 13.9405L4.65165 13.5056L4.58642 13.4708L4.46899 13.5361Z" fill="#D1D1D1" stroke="#00402A" stroke-width="0.343842" stroke-linejoin="round"/>
<path d="M4.64966 13.5054V13.6184L4.76708 13.8185L11.4079 17.6543V17.5456L11.2905 17.3412L4.64966 13.5054Z" fill="#0A0808" stroke="#00402A" stroke-width="0.343842" stroke-linejoin="round"/>
<path d="M4.46899 14.341V14.5323L4.58642 14.7324L11.2925 18.6073L11.4099 18.5421V18.4638L5.18222 14.7498L4.65165 14.3149L4.58642 14.2758L4.46899 14.341Z" fill="#D1D1D1" stroke="#00402A" stroke-width="0.343842" stroke-linejoin="round"/>
<path d="M4.64966 14.3152V14.4283L4.76708 14.6283L11.4079 18.4641V18.351L11.2905 18.151L4.64966 14.3152Z" fill="#0A0808" stroke="#00402A" stroke-width="0.343842" stroke-linejoin="round"/>
<path d="M4.46899 15.1495V15.3408L4.58642 15.5409L11.2925 19.4158L11.4099 19.3506V19.2723L5.18222 15.5583L4.65165 15.1234L4.58642 15.0842L4.46899 15.1495Z" fill="#D1D1D1" stroke="#00402A" stroke-width="0.343842" stroke-linejoin="round"/>
<path d="M4.64966 15.1234V15.2364L4.76708 15.4365L11.4079 19.2723V19.1592L11.2905 18.9591L4.64966 15.1234Z" fill="#0A0808" stroke="#00402A" stroke-width="0.343842" stroke-linejoin="round"/>
<path d="M4.46899 15.9586V16.15L4.58642 16.35L11.2925 20.2249L11.4099 20.1597V20.0814L5.18222 16.3674L4.65165 15.9325L4.58642 15.8934L4.46899 15.9586Z" fill="#D1D1D1" stroke="#00402A" stroke-width="0.343842" stroke-linejoin="round"/>
<path d="M4.64966 15.9326V16.0413L4.76708 16.2457L11.4079 20.0815V19.9684L11.2905 19.7684L4.64966 15.9326Z" fill="#0A0808" stroke="#00402A" stroke-width="0.343842" stroke-linejoin="round"/>
<path d="M4.46899 16.7673V16.9587L4.58642 17.1587L11.2925 21.0337L11.4099 20.9684V20.8901L5.18222 17.1761L4.65165 16.7412L4.58642 16.7021L4.46899 16.7673Z" fill="#D1D1D1" stroke="#00402A" stroke-width="0.343842" stroke-linejoin="round"/>
<path d="M4.64966 16.7413V16.85L4.76708 17.0501L11.4079 20.8902V20.7771L11.2905 20.5771L4.64966 16.7413Z" fill="#0A0808" stroke="#00402A" stroke-width="0.343842" stroke-linejoin="round"/>
<path d="M4.46899 17.5764V17.7678L4.58642 17.9678L11.2925 21.8427L11.4099 21.7731V21.6949L5.18222 17.9852L4.65165 17.5503L4.58642 17.5112L4.46899 17.5764Z" fill="#D1D1D1" stroke="#00402A" stroke-width="0.343842" stroke-linejoin="round"/>
<path d="M4.64966 17.5502V17.6589L4.76708 17.8589L11.4079 21.6947V21.586L11.2905 21.386L4.64966 17.5502Z" fill="#0A0808" stroke="#00402A" stroke-width="0.343842" stroke-linejoin="round"/>
<path d="M0.872803 15.8235L2.30361 16.6498L2.30796 16.2932L0.872803 15.4625V15.8235Z" fill="#FA5C52" stroke="#00402A" stroke-width="0.343842" stroke-linejoin="round"/>
<path d="M0.872559 15.3107L2.30336 16.1413L2.30771 16.0108L0.872559 15.1802V15.3107Z" fill="#574943" stroke="#00402A" stroke-width="0.343842" stroke-linejoin="round"/>
</svg>
