<svg width="340" height="176" viewBox="0 0 340 176" fill="none" xmlns="http://www.w3.org/2000/svg">
<path d="M0.172119 65.4671L170.681 0.171936L339.777 97.7886L169.268 163.088L0.172119 65.4671Z" fill="#00A443" stroke="#00402A" stroke-width="0.343842" stroke-linejoin="round"/>
<path d="M339.777 110.466L169.268 175.761L0.171875 78.1405V65.4676L169.268 163.089L339.777 97.7891V110.466Z" fill="#26BF64" stroke="#00402A" stroke-width="0.343842" stroke-linejoin="round"/>
<path d="M169.269 175.762V163.089L339.778 97.7894V110.467L169.269 175.762Z" fill="#008C39" stroke="#00402A" stroke-width="0.343842" stroke-linejoin="round"/>
<path d="M18.7932 66.9416L169.967 154.216L321.154 96.3188L169.98 9.04395L18.7932 66.9416Z" fill="#3CC2FF" stroke="#00402A" stroke-width="0.343842" stroke-linejoin="round"/>
<path d="M169.93 154.695L169.752 154.59L17.782 66.8586L18.6344 66.5325L170.017 8.56525L170.195 8.66962L322.161 96.4011L321.308 96.7273L169.93 154.699V154.695ZM19.7999 67.0196L170.004 153.733L320.147 96.2358L169.939 9.52202L19.7999 67.0196Z" fill="#DCE6EA" stroke="#00402A" stroke-width="0.343842" stroke-linejoin="round"/>
<path d="M94.6131 37.6163L94.1782 38.3696L245.35 125.649L245.785 124.895L94.6131 37.6163Z" fill="#DCE6EA" stroke="#00402A" stroke-width="0.343842" stroke-linejoin="round"/>
<path d="M26.504 63.9408L26.3953 64.1292L177.567 151.408L177.676 151.22L26.504 63.9408Z" fill="#DCE6EA" stroke="#00402A" stroke-width="0.343842" stroke-linejoin="round"/>
<path d="M34.1502 61.036L34.0415 61.2243L185.213 148.503L185.322 148.315L34.1502 61.036Z" fill="#DCE6EA" stroke="#00402A" stroke-width="0.343842" stroke-linejoin="round"/>
<path d="M41.8006 58.1219L41.6919 58.3102L192.864 145.589L192.972 145.401L41.8006 58.1219Z" fill="#DCE6EA" stroke="#00402A" stroke-width="0.343842" stroke-linejoin="round"/>
<path d="M49.4537 55.2134L49.345 55.4018L200.517 142.681L200.625 142.493L49.4537 55.2134Z" fill="#DCE6EA" stroke="#00402A" stroke-width="0.343842" stroke-linejoin="round"/>
<path d="M57.1009 52.3053L56.9922 52.4936L208.164 139.773L208.273 139.584L57.1009 52.3053Z" fill="#DCE6EA" stroke="#00402A" stroke-width="0.343842" stroke-linejoin="round"/>
<path d="M64.7503 49.3962L64.6416 49.5845L215.813 136.864L215.922 136.675L64.7503 49.3962Z" fill="#DCE6EA" stroke="#00402A" stroke-width="0.343842" stroke-linejoin="round"/>
<path d="M72.3978 46.4834L72.2891 46.6717L223.461 133.951L223.57 133.763L72.3978 46.4834Z" fill="#DCE6EA" stroke="#00402A" stroke-width="0.343842" stroke-linejoin="round"/>
<path d="M80.0501 43.5743L79.9414 43.7626L231.113 131.042L231.222 130.853L80.0501 43.5743Z" fill="#DCE6EA" stroke="#00402A" stroke-width="0.343842" stroke-linejoin="round"/>
<path d="M87.6986 40.665L87.5898 40.8533L238.762 128.132L238.87 127.944L87.6986 40.665Z" fill="#DCE6EA" stroke="#00402A" stroke-width="0.343842" stroke-linejoin="round"/>
<path d="M101.317 35.1629L101.209 35.3512L252.381 122.63L252.489 122.442L101.317 35.1629Z" fill="#DCE6EA" stroke="#00402A" stroke-width="0.343842" stroke-linejoin="round"/>
<path d="M108.968 32.2492L108.859 32.4375L260.031 119.717L260.14 119.529L108.968 32.2492Z" fill="#DCE6EA" stroke="#00402A" stroke-width="0.343842" stroke-linejoin="round"/>
<path d="M116.62 29.3405L116.511 29.5288L267.683 116.808L267.792 116.62L116.62 29.3405Z" fill="#DCE6EA" stroke="#00402A" stroke-width="0.343842" stroke-linejoin="round"/>
<path d="M124.273 26.4317L124.164 26.62L275.336 113.899L275.445 113.711L124.273 26.4317Z" fill="#DCE6EA" stroke="#00402A" stroke-width="0.343842" stroke-linejoin="round"/>
<path d="M131.922 23.5236L131.813 23.7119L282.985 110.991L283.093 110.803L131.922 23.5236Z" fill="#DCE6EA" stroke="#00402A" stroke-width="0.343842" stroke-linejoin="round"/>
<path d="M139.567 20.6182L139.459 20.8065L290.631 108.086L290.739 107.897L139.567 20.6182Z" fill="#DCE6EA" stroke="#00402A" stroke-width="0.343842" stroke-linejoin="round"/>
<path d="M147.218 17.708L147.11 17.8963L298.281 105.175L298.39 104.987L147.218 17.708Z" fill="#DCE6EA" stroke="#00402A" stroke-width="0.343842" stroke-linejoin="round"/>
<path d="M154.868 14.798L154.759 14.9863L305.931 102.265L306.04 102.077L154.868 14.798Z" fill="#DCE6EA" stroke="#00402A" stroke-width="0.343842" stroke-linejoin="round"/>
<path d="M162.518 11.8893L162.409 12.0776L313.581 99.3569L313.69 99.1686L162.518 11.8893Z" fill="#DCE6EA" stroke="#00402A" stroke-width="0.343842" stroke-linejoin="round"/>
<path d="M170.171 8.98164L170.062 9.16995L321.234 96.449L321.343 96.2607L170.171 8.98164Z" fill="#DCE6EA" stroke="#00402A" stroke-width="0.343842" stroke-linejoin="round"/>
<path d="M169.944 8.9399L18.7527 66.8257L18.8304 67.0288L170.022 9.14297L169.944 8.9399Z" fill="#DCE6EA" stroke="#00402A" stroke-width="0.343842" stroke-linejoin="round"/>
<path d="M177.495 13.3091L26.303 71.1949L26.3807 71.3979L177.572 13.5121L177.495 13.3091Z" fill="#DCE6EA" stroke="#00402A" stroke-width="0.343842" stroke-linejoin="round"/>
<path d="M185.044 17.6796L33.8528 75.5654L33.9305 75.7685L185.122 17.8827L185.044 17.6796Z" fill="#DCE6EA" stroke="#00402A" stroke-width="0.343842" stroke-linejoin="round"/>
<path d="M192.595 22.0537L41.4031 79.9395L41.4808 80.1425L192.672 22.2568L192.595 22.0537Z" fill="#DCE6EA" stroke="#00402A" stroke-width="0.343842" stroke-linejoin="round"/>
<path d="M207.695 30.7897L56.5034 88.6755L56.5812 88.8786L207.773 30.9928L207.695 30.7897Z" fill="#DCE6EA" stroke="#00402A" stroke-width="0.343842" stroke-linejoin="round"/>
<path d="M215.24 35.1635L64.0483 93.0493L64.1261 93.2524L215.318 35.3666L215.24 35.1635Z" fill="#DCE6EA" stroke="#00402A" stroke-width="0.343842" stroke-linejoin="round"/>
<path d="M222.795 39.5382L71.6035 97.424L71.6813 97.627L222.873 39.7412L222.795 39.5382Z" fill="#DCE6EA" stroke="#00402A" stroke-width="0.343842" stroke-linejoin="round"/>
<path d="M237.895 48.2704L86.7036 106.156L86.7814 106.359L237.973 48.4735L237.895 48.2704Z" fill="#DCE6EA" stroke="#00402A" stroke-width="0.343842" stroke-linejoin="round"/>
<path d="M268.093 65.7458L116.901 123.632L116.979 123.835L268.171 65.9488L268.093 65.7458Z" fill="#DCE6EA" stroke="#00402A" stroke-width="0.343842" stroke-linejoin="round"/>
<path d="M275.64 70.1204L124.448 128.006L124.526 128.209L275.718 70.3235L275.64 70.1204Z" fill="#DCE6EA" stroke="#00402A" stroke-width="0.343842" stroke-linejoin="round"/>
<path d="M283.193 74.4905L132.001 132.376L132.079 132.579L283.271 74.6936L283.193 74.4905Z" fill="#DCE6EA" stroke="#00402A" stroke-width="0.343842" stroke-linejoin="round"/>
<path d="M290.734 78.862L139.543 136.748L139.62 136.951L290.812 79.0651L290.734 78.862Z" fill="#DCE6EA" stroke="#00402A" stroke-width="0.343842" stroke-linejoin="round"/>
<path d="M298.288 83.2321L147.096 141.118L147.174 141.321L298.366 83.4351L298.288 83.2321Z" fill="#DCE6EA" stroke="#00402A" stroke-width="0.343842" stroke-linejoin="round"/>
<path d="M305.835 87.5977L154.644 145.484L154.722 145.687L305.913 87.8008L305.835 87.5977Z" fill="#DCE6EA" stroke="#00402A" stroke-width="0.343842" stroke-linejoin="round"/>
<path d="M313.39 91.9684L162.198 149.854L162.276 150.057L313.467 92.1714L313.39 91.9684Z" fill="#DCE6EA" stroke="#00402A" stroke-width="0.343842" stroke-linejoin="round"/>
<path d="M320.936 96.3381L169.744 154.224L169.822 154.427L321.013 96.5412L320.936 96.3381Z" fill="#DCE6EA" stroke="#00402A" stroke-width="0.343842" stroke-linejoin="round"/>
<path d="M245.437 52.64L94.2449 110.526L94.3226 110.729L245.514 52.8431L245.437 52.64Z" fill="#DCE6EA" stroke="#00402A" stroke-width="0.343842" stroke-linejoin="round"/>
<path d="M252.987 57.0005L101.806 114.913L101.883 115.116L253.065 57.2035L252.987 57.0005Z" fill="#DCE6EA" stroke="#00402A" stroke-width="0.343842" stroke-linejoin="round"/>
<path d="M260.539 61.3805L109.347 119.266L109.425 119.47L260.616 61.5836L260.539 61.3805Z" fill="#DCE6EA" stroke="#00402A" stroke-width="0.343842" stroke-linejoin="round"/>
<path d="M230.334 43.8909L79.1528 101.803L79.2306 102.006L230.412 44.094L230.334 43.8909Z" fill="#DCE6EA" stroke="#00402A" stroke-width="0.343842" stroke-linejoin="round"/>
<path d="M200.143 26.4247L48.9517 84.3105L49.0294 84.5136L200.221 26.6278L200.143 26.4247Z" fill="#DCE6EA" stroke="#00402A" stroke-width="0.343842" stroke-linejoin="round"/>
</svg>
