<svg width="108" height="89" viewBox="0 0 108 89" fill="none" xmlns="http://www.w3.org/2000/svg">
<path d="M17.8799 0.25H59.5412C60.8523 0.25 61.916 1.31711 61.916 2.63076V86.1552C61.916 87.4696 60.8515 88.536 59.5412 88.536H17.8791C16.5681 88.536 15.5044 87.4689 15.5044 86.1552V2.63149C15.5044 1.31711 16.5688 0.25 17.8799 0.25Z" fill="#FFCD52" stroke="#00402A" stroke-width="0.5"/>
<path d="M64.3691 2.63149V86.156C64.3691 87.4652 63.3003 88.5367 61.9936 88.5367H20.3323C19.0256 88.5367 17.9575 87.4652 17.9575 86.156V2.63149C17.9575 1.32153 19.0256 0.25 20.3323 0.25H61.9936C63.3003 0.25 64.3691 1.32153 64.3691 2.63149Z" fill="#FFB536" stroke="#00402A" stroke-width="0.5"/>
<path d="M47.9644 3.5919H35.8997C35.6413 3.5919 35.4307 3.37995 35.4307 3.12163C35.4307 2.86258 35.6421 2.65137 35.8997 2.65137H47.9644C48.2228 2.65137 48.4334 2.86332 48.4334 3.12163C48.4334 3.38068 48.222 3.5919 47.9644 3.5919Z" fill="#FFCD52" stroke="#00402A" stroke-width="0.5"/>
<path d="M33.7572 3.5919C33.4988 3.5919 33.2881 3.37995 33.2881 3.12163C33.2881 2.86258 33.4995 2.65137 33.7572 2.65137C34.0156 2.65137 34.2262 2.86332 34.2262 3.12163C34.2262 3.38068 34.0148 3.5919 33.7572 3.5919Z" fill="#FFCD52" stroke="#00402A" stroke-width="0.5"/>
<path d="M61.8931 5.68848H20.7368V85.6054H61.8931V5.68848Z" fill="#FFCD52" stroke="#00402A" stroke-width="0.5"/>
<path d="M75.8604 13.0269V37.577C75.8604 37.9987 75.5154 38.3446 75.0933 38.3446H25.5025C25.0818 38.3446 24.7368 37.9987 24.7368 37.577V13.0269C24.7368 12.6037 25.0818 12.2578 25.5025 12.2578H75.0933C75.5154 12.2578 75.8604 12.6037 75.8604 13.0269Z" fill="#FFCD52" stroke="#00402A" stroke-width="0.5"/>
<path d="M75.8603 13.0269V37.5763C75.8603 37.9987 75.4595 38.3446 74.9691 38.3446H50.2988V12.2578H74.9691C75.4595 12.2578 75.8603 12.6037 75.8603 13.0269Z" fill="#FFCD52" stroke="#00402A" stroke-width="0.5"/>
<path d="M62.4089 21.7871H53.6807C53.3753 21.7871 53.125 21.5361 53.125 21.23C53.125 20.9238 53.3753 20.6729 53.6807 20.6729H62.4089C62.7143 20.6729 62.9646 20.9238 62.9646 21.23C62.9646 21.5361 62.7143 21.7871 62.4089 21.7871Z" fill="#00402A" stroke="#00402A" stroke-width="0.5"/>
<path d="M53.6139 22.3442H60.2522C60.5223 22.3442 60.7411 22.5635 60.7411 22.8344V22.9683C60.7411 23.2391 60.5223 23.4584 60.2522 23.4584H53.6139C53.3438 23.4584 53.125 23.2391 53.125 22.9683V22.8344C53.125 22.5635 53.3438 22.3442 53.6139 22.3442Z" fill="#00402A" stroke="#00402A" stroke-width="0.5"/>
<path d="M37.424 15.4897C34.6323 15.4897 32.3691 17.7586 32.3691 20.5574C32.3691 23.3562 37.424 29.5785 37.424 29.5785C37.424 29.5785 42.4789 23.3562 42.4789 20.5574C42.4789 17.7586 40.2157 15.4897 37.424 15.4897ZM37.424 22.8741C36.1188 22.8741 35.061 21.8137 35.061 20.5052C35.061 19.1967 36.1188 18.1362 37.424 18.1362C38.7292 18.1362 39.787 19.1967 39.787 20.5052C39.787 21.8137 38.7292 22.8741 37.424 22.8741Z" fill="#00402A" stroke="#00402A" stroke-width="0.5"/>
<path d="M36.998 33.7846H28.2705C27.9652 33.7846 27.7148 33.5337 27.7148 33.2275C27.7148 32.9214 27.9652 32.6704 28.2705 32.6704H36.998C37.3034 32.6704 37.5537 32.9214 37.5537 33.2275C37.5537 33.5337 37.3034 33.7846 36.998 33.7846Z" fill="#00402A" stroke="#00402A" stroke-width="0.5"/>
<path d="M28.2037 34.3423H34.842C35.1122 34.3423 35.3309 34.5616 35.3309 34.8324V34.9664C35.3309 35.2372 35.1122 35.4565 34.842 35.4565H28.2037C27.9336 35.4565 27.7148 35.2372 27.7148 34.9664V34.8324C27.7148 34.5616 27.9336 34.3423 28.2037 34.3423Z" fill="#00402A" stroke="#00402A" stroke-width="0.5"/>
<path d="M51.3736 43.1782V67.7284C51.3736 68.1508 51.0286 68.4967 50.6072 68.4967H1.01711C0.595018 68.4967 0.25 68.1508 0.25 67.7284V43.1782C0.25 42.7565 0.595018 42.4106 1.01711 42.4106H50.6072C51.0286 42.4106 51.3736 42.7565 51.3736 43.1782Z" fill="#FFCD52" stroke="#00402A" stroke-width="0.5"/>
<path d="M51.3739 43.178V67.7274C51.3739 68.1506 51.0288 68.4964 50.6075 68.4964H28.5513V42.4097H50.6075C51.0288 42.4097 51.3739 42.7556 51.3739 43.178Z" fill="#FFB536" stroke="#00402A" stroke-width="0.5"/>
<path d="M39.7951 60.7701C39.3568 60.7701 38.9501 60.5375 38.7277 60.1563L35.4684 54.5705C35.1234 53.9796 35.3216 53.2201 35.9118 52.8742C36.5012 52.5283 37.2588 52.7277 37.6038 53.3187L39.6952 56.902L43.6328 48.7809C43.9316 48.1649 44.6716 47.9081 45.286 48.2076C45.9004 48.5071 46.1566 49.249 45.8578 49.8649L40.9087 60.0731C40.709 60.4845 40.3001 60.7524 39.8435 60.7701C39.8273 60.7701 39.8119 60.7708 39.7958 60.7708L39.7951 60.7701Z" fill="#00402A" stroke="#00402A" stroke-width="0.5"/>
<path d="M39.7952 63.6438C35.5617 63.6438 32.1182 60.1908 32.1182 55.9474C32.1182 51.704 35.5625 48.251 39.7952 48.251C44.0279 48.251 47.4722 51.704 47.4722 55.9474C47.4722 60.1908 44.0279 63.6438 39.7952 63.6438ZM39.7952 49.1525C36.058 49.1525 33.0174 52.2008 33.0174 55.9474C33.0174 59.6941 36.058 62.7423 39.7952 62.7423C43.5324 62.7423 46.573 59.6941 46.573 55.9474C46.573 52.2008 43.5324 49.1525 39.7952 49.1525Z" fill="#00402A" stroke="#00402A" stroke-width="0.5"/>
<path d="M6.90368 46.6685C5.38486 46.6685 4.15381 47.9026 4.15381 49.4253C4.15381 50.9479 5.38486 52.1821 6.90368 52.1821C8.42249 52.1821 9.65355 50.9479 9.65355 49.4253C9.65355 47.9026 8.42249 46.6685 6.90368 46.6685ZM8.80862 49.5129H6.90368C6.85523 49.5129 6.81559 49.4731 6.81559 49.4245V47.3713C6.81559 47.3227 6.85523 47.283 6.90368 47.283C6.95213 47.283 6.99177 47.3227 6.99177 47.3713V49.3362H8.80862C8.85707 49.3362 8.89671 49.376 8.89671 49.4245C8.89671 49.4731 8.85707 49.5129 8.80862 49.5129Z" fill="#00402A" stroke="#00402A" stroke-width="0.5"/>
<path d="M21.0525 48.3989H12.3243C12.0189 48.3989 11.7686 48.1479 11.7686 47.8418C11.7686 47.5356 12.0189 47.2847 12.3243 47.2847H21.0525C21.3579 47.2847 21.6082 47.5356 21.6082 47.8418C21.6082 48.1487 21.3579 48.3989 21.0525 48.3989Z" fill="#FFCD52" stroke="#00402A" stroke-width="0.5"/>
<path d="M18.8958 48.9561H12.2575C11.9874 48.9561 11.7686 49.1755 11.7686 49.4462V49.5801C11.7686 49.8508 11.9874 50.0703 12.2575 50.0703H18.8958C19.1658 50.0703 19.3846 49.8508 19.3846 49.5801V49.4462C19.3846 49.1755 19.1658 48.9561 18.8958 48.9561Z" fill="#FFCD52" stroke="#00402A" stroke-width="0.5"/>
<path d="M6.62913 57.3389C5.26227 57.3389 4.15381 58.4501 4.15381 59.8205C4.15381 61.1908 6.62913 64.2383 6.62913 64.2383C6.62913 64.2383 9.10445 61.1915 9.10445 59.8205C9.10445 58.4494 7.99599 57.3389 6.62913 57.3389ZM6.62913 60.9545C5.99048 60.9545 5.47222 60.435 5.47222 59.7947C5.47222 59.1544 5.99048 58.6349 6.62913 58.6349C7.26778 58.6349 7.78604 59.1544 7.78604 59.7947C7.78604 60.435 7.26778 60.9545 6.62913 60.9545Z" fill="#00402A" stroke="#00402A" stroke-width="0.5"/>
<path d="M20.3889 59.1484H11.6607C11.3553 59.1484 11.105 58.8974 11.105 58.5913C11.105 58.2851 11.3553 58.0342 11.6607 58.0342H20.3889C20.6943 58.0342 20.9446 58.2851 20.9446 58.5913C20.9446 58.8974 20.6943 59.1484 20.3889 59.1484Z" fill="#FFCD52" stroke="#00402A" stroke-width="0.5"/>
<path d="M18.2322 59.7051H11.5939C11.3239 59.7051 11.105 59.9245 11.105 60.1952V60.3292C11.105 60.5998 11.3239 60.8193 11.5939 60.8193H18.2322C18.5022 60.8193 18.7211 60.5998 18.7211 60.3292V60.1952C18.7211 59.9245 18.5022 59.7051 18.2322 59.7051Z" fill="#FFCD52" stroke="#00402A" stroke-width="0.5"/>
<path d="M71.3478 23.4521C71.3478 23.4521 70.4412 20.5208 69.9266 20.2051C69.412 19.8901 67.2655 18.8296 67.1378 19.1159C67.0101 19.4022 68.2969 20.7946 68.5825 21.2597C68.868 21.7241 69.0112 22.1826 68.8115 21.9824C68.6111 21.7815 67.5247 21.1103 67.4109 21.2597C67.2964 21.4091 67.9541 21.9824 68.2683 22.4409C68.5825 22.8994 68.926 23.6736 70.0411 23.845C71.1562 24.0173 71.3478 23.4521 71.3478 23.4521Z" fill="#FFCD52" stroke="#00402A" stroke-width="0.5"/>
<path d="M100.618 45.0278C100.618 45.0278 100.347 47.6757 100.049 48.1768C99.7508 48.678 98.4816 50.2787 97.9406 50.5922C97.4003 50.9064 98.2709 48.483 98.1608 48.012C98.0507 47.5402 97.7159 48.8723 97.4773 48.9039C97.2388 48.9356 97.3004 47.7367 97.2916 47.3003C97.2828 46.8639 98.4515 45.7872 98.8626 44.8578C99.2744 43.929 100.618 45.0278 100.618 45.0278H100.618Z" fill="#FFCD52" stroke="#00402A" stroke-width="0.5"/>
<path d="M93.1875 21.2282C93.1875 21.2282 91.2173 30.9234 80.3742 34.0916C76.9893 35.0807 69.2998 23.9085 69.2998 23.9085C69.2998 23.9085 69.5699 22.8789 71.2635 23.1151C71.2635 23.1151 78.7504 28.0842 79.6937 28.6244C80.5298 29.1034 86.0302 22.4668 88.5379 21.396C91.0455 20.3252 93.1875 21.2274 93.1875 21.2274V21.2282Z" fill="#00402A" stroke="#00402A" stroke-width="0.5"/>
<path d="M106.133 82.1764C106.133 82.1764 107.479 83.4069 107.216 84.2811C106.953 85.1554 105.739 85.7383 105.575 86.8076C105.411 87.8762 104.755 88.4591 104.164 88.4591H101.349C101.349 88.4591 100.914 87.7069 101.964 87.4803C103.014 87.2536 103.409 85.9974 103.344 84.8316C103.279 83.6659 103.443 82.1109 103.443 82.1109L105.673 81.5928L106.133 82.1756V82.1764Z" fill="#00402A" stroke="#00402A" stroke-width="0.5"/>
<path d="M89.6302 85.3602C89.6302 85.3602 89.8717 88.1611 89.2808 88.4526L81.7227 88.4371C81.7227 88.4371 81.7227 87.5628 82.9368 87.3685C84.151 87.1742 86.2835 86.4619 86.6439 84.8744C87.0051 83.2878 89.6294 85.3602 89.6294 85.3602H89.6302Z" fill="#00402A" stroke="#00402A" stroke-width="0.5"/>
<path d="M83.2495 45.7957C83.2495 45.7957 83.6481 50.7052 84.1165 56.6067C84.7529 64.6232 85.5193 74.4708 85.5949 76.3357C85.7256 79.5753 86.2512 84.7563 86.2512 84.7563C86.2512 84.7563 87.4969 85.9875 89.9913 85.4686C89.9913 85.4686 92.2141 78.0717 92.8484 70.2458C92.8579 70.1177 92.8682 69.9882 92.8777 69.8594C93.4679 61.8922 94.3863 45.1157 94.3863 45.1157L83.248 45.7957H83.2495Z" fill="#FFCD52" stroke="#00402A" stroke-width="0.5"/>
<path d="M85.0703 46.3791C85.0703 46.3791 92.2555 64.1593 96.98 72.5152C101.705 80.871 103.181 83.2025 103.181 83.2025C103.181 83.2025 105.887 82.1339 106.133 81.4053C106.133 81.4053 104.327 65.2743 101.163 61.3414C99.3754 59.1196 97.2752 52.4513 97.1768 50.1191C97.0784 47.7869 96.5374 43.1719 96.5374 43.1719L85.071 46.3784L85.0703 46.3791Z" fill="#FFCD52" stroke="#00402A" stroke-width="0.5"/>
<path d="M94.5234 18.9772C94.5234 18.9772 89.6616 21.3285 86.8589 20.4564C86.8589 20.4564 87.5489 19.5836 88.7558 18.9345C88.6589 18.3708 88.5832 17.8814 88.5399 17.4663C88.421 16.5089 88.421 15.9657 88.421 15.9657L90.2966 14.4865L92.0753 13.0713C91.9351 17.0512 94.522 18.9772 94.522 18.9772H94.5234Z" fill="#FFCD52" stroke="#00402A" stroke-width="0.5"/>
<path d="M97.0858 44.0829C97.0968 44.3817 96.4611 44.7217 96.18 44.849C94.1003 45.7645 92.1594 46.4026 89.9601 46.6153C87.3622 46.8817 84.29 46.2959 83.2337 46.3172C83.1258 46.3172 83.0289 46.2745 82.943 46.2002C82.8674 46.1472 82.8138 43.0084 82.8674 39.0601C82.8674 38.9012 82.8674 38.7415 82.8784 38.5818V38.5288C82.8997 36.9862 82.954 35.3687 83.0289 33.7503C83.1794 30.1965 83.4605 26.77 83.9347 24.8764C84.5059 22.6414 85.8 21.1629 86.9746 20.0876L87.9443 19.2369C88.9147 19.4282 89.9388 19.3753 90.9628 18.8748C92.0838 18.3324 93.2913 17.7474 93.4851 17.896C94.9511 18.9705 95.9428 21.3858 96.4714 24.4724C96.4736 24.4878 96.4765 24.5025 96.4787 24.518C96.7753 26.2828 96.9236 28.2573 96.9126 30.3245C96.9126 31.0914 96.8913 31.8781 96.848 32.6553C96.6314 36.1745 96.776 39.3074 96.9177 41.4777C96.9456 41.9067 96.9742 42.2975 96.9984 42.6471C97.0418 43.2645 97.0741 43.7429 97.0843 44.0836L97.0858 44.0829Z" fill="#00402A" stroke="#00402A" stroke-width="0.5"/>
<path d="M87.1651 15.7627C87.1651 15.7627 92.8484 16.6944 93.3813 13.192C93.915 9.6897 95.0073 7.45098 91.4015 6.70768C87.7957 5.96439 86.8854 7.19635 86.4193 8.32233C85.9531 9.44832 85.6999 15.4293 87.1644 15.7627H87.1651Z" fill="#FFCD52" stroke="#00402A" stroke-width="0.5"/>
<path d="M95.447 6.28933C95.4984 6.22972 95.6173 6.18189 95.8823 6.1679C95.8823 6.1679 95.6709 6.03543 95.3875 6.02808C95.3325 5.65863 95.1365 5.00512 94.5022 4.8469C94.5022 4.8469 94.8429 5.02867 94.8876 5.42166C94.1536 4.66585 92.5811 4.11611 88.2251 4.46053C82.4853 4.9146 84.3771 8.59944 85.12 9.03806C85.8628 9.47741 87.7333 8.27342 89.1185 8.38308C90.503 8.49347 90.7665 10.4989 91.2356 10.7741C91.7054 11.0494 91.5204 10.5629 92.1561 10.2744C92.7918 9.98668 92.852 11.042 92.6685 11.7286C92.485 12.4153 93.3585 13.3205 93.3585 13.3205L94.2409 12.3682C95.1233 11.4151 95.955 7.37999 95.5535 6.51968C95.5182 6.44388 95.483 6.36661 95.447 6.28933Z" fill="#FFB536" stroke="#00402A" stroke-width="0.5"/>
<path d="M93.4825 17.8726C93.4825 17.8726 96.4166 19.2657 97.8238 21.4073C100.006 24.7293 102.536 36.8355 102.583 37.957C102.63 39.0779 100.737 46.9929 100.737 46.9929C100.737 46.9929 98.8163 46.8663 98.3215 45.8948C98.3215 45.8948 98.7055 37.7627 98.4617 37.2395C98.2188 36.717 90.4573 26.3307 91.3301 24.1148C92.203 21.8989 93.4832 17.8733 93.4832 17.8733L93.4825 17.8726Z" fill="#00402A" stroke="#00402A" stroke-width="0.5"/>
</svg>
