<svg width="91" height="95" viewBox="0 0 91 95" fill="none" xmlns="http://www.w3.org/2000/svg">
<path d="M82.8965 18.8486H37.876L67.7227 0.328125L82.8965 18.8486Z" fill="#00402A" stroke="#00402A" stroke-width="0.5"/>
<path d="M14.4087 8.96143H50.7202C51.2094 8.96152 51.6782 9.15558 52.0239 9.50049C52.3697 9.84552 52.564 10.3136 52.564 10.8013V24.4028C52.5638 24.8905 52.3697 25.3586 52.0239 25.7036C51.678 26.0486 51.2086 26.2427 50.7192 26.2427H14.4087C14.1664 26.2427 13.9264 26.1945 13.7026 26.1021C13.4789 26.0096 13.2752 25.8744 13.104 25.7036C12.9328 25.5327 12.7972 25.3292 12.7046 25.106C12.612 24.8827 12.5639 24.6434 12.564 24.4019V10.8013C12.564 10.3135 12.7582 9.84556 13.104 9.50049C13.4499 9.15536 13.9193 8.96143 14.4087 8.96143Z" fill="#3CC2FF" stroke="#00402A" stroke-width="0.5"/>
<path d="M14.4082 18.3481H88.4102C88.8986 18.3476 89.3671 18.5405 89.7129 18.8843C90.0156 19.1854 90.2026 19.581 90.2451 20.0015L90.2549 20.1831L90.2539 62.7505L90.2451 62.9312C90.2271 63.1104 90.1829 63.2867 90.1133 63.4536C90.0204 63.6762 89.884 63.8781 89.7129 64.0483C89.5416 64.2187 89.3379 64.3538 89.1143 64.4458C88.8907 64.5378 88.6511 64.5849 88.4092 64.5845H14.4082C14.1663 64.5849 13.9267 64.5378 13.7031 64.4458C13.4796 64.3538 13.2766 64.2187 13.1055 64.0483C12.9344 63.878 12.7978 63.6762 12.7051 63.4536C12.6123 63.2309 12.5647 62.9916 12.5645 62.7505V20.1821L12.5732 20.0024C12.5912 19.8231 12.6355 19.647 12.7051 19.48C12.7979 19.2573 12.9343 19.0546 13.1055 18.8843C13.2766 18.714 13.4797 18.5788 13.7031 18.4868C13.9267 18.3948 14.1663 18.3478 14.4082 18.3481Z" fill="#3CC2FF" stroke="#00402A" stroke-width="0.5"/>
<mask id="mask0_99_19614" style="mask-type:alpha" maskUnits="userSpaceOnUse" x="38" y="25" width="47" height="29">
<path d="M83.8481 25.8369V53.2529H38.4858V25.8369H83.8481Z" fill="#26BF64" stroke="#00402A" stroke-width="0.5"/>
</mask>
<g mask="url(#mask0_99_19614)">
<rect x="29.1807" y="-4.07324" width="517.277" height="246.82" fill="#3CC2FF" stroke="#00402A" stroke-width="0.5"/>
<path d="M71.8843 43.7827V45.2769H43.8032V43.7827H71.8843Z" fill="#00402A" stroke="#00402A" stroke-width="0.5"/>
<path d="M57.9263 36.4712V37.9653H43.8032V36.4712H57.9263Z" fill="#00402A" stroke="#00402A" stroke-width="0.5"/>
<path d="M71.8843 47.771V49.2651H43.8032V47.771H71.8843Z" fill="#00402A" stroke="#00402A" stroke-width="0.5"/>
</g>
<path d="M73.5015 58.1509H81.7993C81.844 58.1508 81.8887 58.1538 81.9331 58.1597C82.4135 58.223 83.1156 58.456 83.6958 58.9341C84.2682 59.4057 84.7247 60.1162 84.7388 61.1606V61.1636C84.7396 61.1949 84.7397 61.1956 84.7397 61.2104V69.7808H87.4155C87.584 69.7808 87.7512 69.8131 87.9067 69.8774C88.062 69.9417 88.2029 70.0362 88.3218 70.1548C88.4407 70.2735 88.5358 70.4148 88.6001 70.5698C88.6644 70.7249 88.6968 70.8913 88.6968 71.0591V84.7681C88.6968 84.9356 88.6643 85.1015 88.6001 85.2563C88.5357 85.4114 88.4408 85.5527 88.3218 85.6714C88.2028 85.7901 88.0613 85.8845 87.9058 85.9487C87.7503 86.0129 87.5838 86.0464 87.4155 86.0464H66.9907C66.8225 86.0463 66.6559 86.013 66.5005 85.9487C66.3449 85.8844 66.2035 85.7901 66.0845 85.6714C65.9655 85.5527 65.8715 85.4113 65.8071 85.2563C65.7429 85.1015 65.7095 84.9356 65.7095 84.7681V71.0591C65.7095 70.8915 65.7429 70.7257 65.8071 70.5708C65.8715 70.4158 65.9655 70.2745 66.0845 70.1558C66.2035 70.037 66.3449 69.9427 66.5005 69.8784C66.6559 69.8142 66.8225 69.7808 66.9907 69.7808H69.7944V61.0903C69.8136 60.3657 70.1109 59.6757 70.6255 59.1636L70.6265 59.1626C71.2831 58.5024 72.2388 58.1509 73.5015 58.1509ZM73.5015 60.1987C73.0568 60.1987 72.6743 60.2603 72.3882 60.395C72.0961 60.5326 71.8798 60.7618 71.8481 61.0854L71.8472 61.0972V69.7808H82.437V69.5552L82.687 69.5308V61.2104C82.6869 60.8337 82.4991 60.5834 82.2876 60.4312C82.0854 60.2857 81.8593 60.2266 81.7446 60.2036L81.7212 60.1987H73.5015Z" fill="#0792E5" stroke="#00402A" stroke-width="0.5"/>
<path d="M75.8892 77.9805L75.7397 77.9141C75.2968 77.7199 74.9142 77.4105 74.6333 77.0176C74.3523 76.6245 74.1828 76.1627 74.1431 75.6816C74.1033 75.2006 74.1951 74.7178 74.4077 74.2842C74.6203 73.8508 74.9461 73.4827 75.3511 73.2188C75.7563 72.9548 76.2259 72.8041 76.7095 72.7842C77.1931 72.7643 77.6735 72.8756 78.0991 73.1055C78.5245 73.3353 78.8798 73.6754 79.1274 74.0898C79.375 74.5044 79.5062 74.9784 79.5063 75.4609C79.5064 75.9811 79.3539 76.4902 79.0688 76.9258C78.7839 77.3613 78.3783 77.7047 77.9009 77.9141L77.7505 77.9805V82.1191C77.7519 82.2419 77.7292 82.3637 77.6831 82.4775C77.637 82.5913 77.5685 82.6949 77.4819 82.7822C77.3955 82.8695 77.2927 82.939 77.1792 82.9863C77.0655 83.0337 76.9431 83.0576 76.8198 83.0576C76.6968 83.0576 76.575 83.0336 76.4614 82.9863C76.3477 82.939 76.2443 82.8696 76.1577 82.7822C76.0712 82.6949 76.0026 82.5913 75.9565 82.4775C75.9105 82.3637 75.8877 82.2418 75.8892 82.1191V77.9805Z" fill="#00402A" stroke="#00402A" stroke-width="0.5"/>
<path d="M31.2207 54.7842C31.201 54.8956 31.1758 55.0405 31.1533 55.2129C31.0989 55.6303 31.0488 56.2101 31.0674 56.8594C31.1044 58.1487 31.4137 59.7606 32.5508 60.8955C33.7902 62.132 35.2797 62.7059 36.4502 62.9717C37.036 63.1047 37.5453 63.1612 37.9092 63.1846C38.0453 63.1933 38.1617 63.1946 38.2539 63.1963C38.2572 63.2572 38.2622 63.33 38.2656 63.4141C38.2774 63.7068 38.2873 64.1371 38.2812 64.6836C38.2691 65.7769 38.1915 67.3354 37.9287 69.1904C37.4029 72.9018 36.1377 77.7933 33.1826 82.5264C30.1925 87.3155 26.6879 90.3043 23.9346 92.0947C22.558 92.9898 21.3693 93.5857 20.5264 93.957C20.1049 94.1427 19.7694 94.2717 19.541 94.3545C19.427 94.3958 19.3397 94.4261 19.2812 94.4453C19.2763 94.4469 19.2711 94.4477 19.2666 94.4492C19.2517 94.4444 19.2343 94.4391 19.2148 94.4326C19.1315 94.4047 19.0065 94.3614 18.8457 94.3008C18.5241 94.1796 18.056 93.9886 17.4756 93.7129C16.3466 93.1765 14.7935 92.3164 13.0625 91.0176L14.9209 86.2646C16.1257 87.1517 17.2051 87.7488 18.0029 88.1279C18.4308 88.3313 18.7776 88.4727 19.0186 88.5635C19.1386 88.6087 19.2323 88.6415 19.2969 88.6631C19.3292 88.6739 19.3549 88.6821 19.3721 88.6875C19.3804 88.6901 19.387 88.6919 19.3916 88.6934C19.3939 88.6941 19.3961 88.6949 19.3975 88.6953L19.3984 88.6963H19.3994L19.4707 88.7178L19.542 88.6963H19.543L19.5439 88.6953C19.5449 88.695 19.5463 88.6948 19.5479 88.6943C19.5512 88.6933 19.5564 88.6923 19.5625 88.6904C19.5748 88.6866 19.5924 88.6803 19.6152 88.6729C19.6611 88.6578 19.7278 88.6355 19.8135 88.6045C19.9855 88.5421 20.2348 88.4456 20.5459 88.3086C21.1684 88.0344 22.0417 87.5969 23.0498 86.9414C25.0664 85.6301 27.625 83.4457 29.8057 79.9531C31.9638 76.4964 32.8852 72.929 33.2676 70.2295C33.4588 68.8793 33.5156 67.7441 33.5244 66.9453C33.5288 66.5458 33.5214 66.2302 33.5127 66.0137C33.5083 65.9054 33.5036 65.8215 33.5 65.7646C33.4982 65.7366 33.4962 65.715 33.4951 65.7002C33.4946 65.6928 33.4945 65.6866 33.4941 65.6826C33.494 65.6807 33.4933 65.6788 33.4932 65.6777V65.6768L33.2441 65.6973L33.4932 65.6758L33.4727 65.4365L33.2324 65.4473C33.2317 65.4473 33.2303 65.4472 33.2285 65.4473C33.2249 65.4474 33.2188 65.4481 33.2109 65.4482C33.195 65.4486 33.1707 65.4493 33.1387 65.4492C33.0739 65.449 32.9775 65.4462 32.8564 65.4385C32.6139 65.423 32.2716 65.3853 31.8779 65.2959C31.0889 65.1168 30.1057 64.7338 29.293 63.9229C28.5938 63.2254 28.3808 62.2058 28.3555 61.3223C28.343 60.8855 28.3772 60.4937 28.4141 60.2109C28.4325 60.0699 28.4514 59.9563 28.4658 59.8789C28.473 59.8404 28.4793 59.8106 28.4834 59.791C28.4855 59.7812 28.4863 59.7732 28.4873 59.7686C28.4878 59.7664 28.4881 59.7646 28.4883 59.7637L28.4893 59.7627L28.5469 59.5117L28.2939 59.4619L25.6035 58.9307L27.5107 54.0527L31.2207 54.7842Z" fill="#0792E5" stroke="#00402A" stroke-width="0.5"/>
<path d="M27.9551 59.9048C27.9437 59.9734 27.9299 60.0543 27.918 60.146C27.8786 60.4478 27.842 60.8675 27.8555 61.3374C27.8805 62.2097 28.0782 63.2985 28.79 64.1167L28.9395 64.2769C29.8397 65.1752 30.9199 65.5915 31.7666 65.7837C32.1909 65.88 32.5604 65.9211 32.8242 65.938C32.8927 65.9424 32.9542 65.9422 33.0078 65.9438C33.0091 65.9714 33.0114 66.0013 33.0127 66.0337C33.0211 66.2423 33.0287 66.5496 33.0244 66.9399C33.0158 67.7207 32.9602 68.8341 32.7725 70.1597C32.3968 72.8124 31.4918 76.307 29.3809 79.688C27.2447 83.1093 24.7419 85.2439 22.7764 86.522C21.7937 87.1609 20.9456 87.5864 20.3447 87.8511C20.0444 87.9833 19.8058 88.0755 19.6436 88.1343C19.5696 88.1611 19.5107 88.1793 19.4697 88.1929C19.4654 88.1914 19.4607 88.1905 19.4561 88.189C19.3971 88.1692 19.3088 88.1383 19.1943 88.0952C18.9654 88.009 18.6312 87.8732 18.2168 87.6763C17.4204 87.2977 16.3276 86.6929 15.1084 85.7827L25.4189 59.4038L27.9551 59.9048Z" fill="#00402A" stroke="#00402A" stroke-width="0.5"/>
<path d="M27.0127 53.9546L25.1055 58.8325L19.5195 57.7319L19.4717 57.7222L19.4229 57.7319L10.6484 59.4614L10.3945 59.5112L10.4531 59.7632V59.7642C10.4533 59.7651 10.4536 59.7668 10.4541 59.769C10.4551 59.7736 10.457 59.7809 10.459 59.7905C10.4631 59.8101 10.4694 59.8399 10.4766 59.8784C10.4909 59.9557 10.5099 60.0694 10.5283 60.2104C10.5652 60.4933 10.5985 60.8857 10.5859 61.3228C10.5606 62.2063 10.3485 63.2259 9.64941 63.9233C8.8365 64.7343 7.8526 65.1173 7.06348 65.2964C6.66985 65.3857 6.32753 65.4234 6.08496 65.439C5.96424 65.4467 5.8685 65.4485 5.80371 65.4487C5.77148 65.4489 5.74649 65.4491 5.73047 65.4487C5.72259 65.4486 5.71652 65.4479 5.71289 65.4478C5.71109 65.4477 5.70966 65.4478 5.70898 65.4478L5.46875 65.437L5.44824 65.6763V65.6782C5.44815 65.6793 5.44742 65.6811 5.44727 65.6831C5.44696 65.687 5.44682 65.6925 5.44629 65.6997C5.44518 65.7146 5.44321 65.7367 5.44141 65.7651C5.4378 65.822 5.43308 65.9059 5.42871 66.0142C5.41998 66.2307 5.41258 66.5465 5.41699 66.9458C5.42583 67.7447 5.48261 68.8798 5.67383 70.23C6.05618 72.9295 6.9775 76.4969 9.13574 79.9536C10.8408 82.6845 12.7775 84.6131 14.5059 85.9526L12.6494 90.7026C10.3014 88.8734 7.6717 86.2432 5.35156 82.5269C2.39633 77.7936 1.13039 72.9024 0.604492 69.1909C0.34168 67.336 0.264122 65.7774 0.251953 64.6841C0.24588 64.1377 0.255803 63.7073 0.267578 63.4146C0.270957 63.3306 0.275056 63.2576 0.27832 63.1968C0.370689 63.1951 0.487476 63.1938 0.624023 63.1851C0.987947 63.1617 1.49723 63.1051 2.08301 62.9722C3.25353 62.7064 4.74313 62.1325 5.98242 60.896C7.11963 59.7611 7.42884 58.1492 7.46582 56.8599C7.48444 56.2107 7.43435 55.6308 7.37988 55.2134C7.35733 55.0406 7.33129 54.8952 7.31152 54.7837L19.2666 52.4272L27.0127 53.9546Z" fill="#0792E5" stroke="#00402A" stroke-width="0.5"/>
<path d="M24.9204 59.3057L14.6948 85.4678C13.038 84.1644 11.1913 82.3029 9.55908 79.6885C7.44854 76.3076 6.54421 72.8128 6.16846 70.1602C5.98069 68.8346 5.92517 67.7212 5.9165 66.9404C5.91218 66.5501 5.91982 66.2428 5.92822 66.0342C5.92953 66.0018 5.93082 65.9719 5.93213 65.9443C5.98597 65.9427 6.04786 65.9429 6.1167 65.9385C6.38054 65.9216 6.74997 65.8805 7.17432 65.7842C8.02122 65.5919 9.10205 65.1758 10.0024 64.2773C10.836 63.4454 11.0587 62.2683 11.0854 61.3379C11.0989 60.868 11.0633 60.4483 11.0239 60.1465C11.0119 60.0543 10.9963 59.9732 10.9849 59.9043L19.4692 58.2314L24.9204 59.3057Z" fill="#00402A" stroke="#00402A" stroke-width="0.5"/>
<path d="M17.4404 63.7075C17.4734 63.9734 17.5083 64.2836 17.5469 64.6128C17.6009 65.074 17.6662 65.5665 17.7588 65.9849C17.8051 66.194 17.8598 66.3912 17.9258 66.5601C17.9903 66.725 18.0735 66.8834 18.1875 66.9976C18.3017 67.1119 18.46 67.196 18.625 67.2603C18.7941 67.3261 18.9918 67.3796 19.2012 67.4253C19.6198 67.5167 20.1123 67.5804 20.5742 67.6323C20.866 67.6651 21.1429 67.6946 21.3877 67.7222C21.1334 67.7664 20.8443 67.8176 20.5381 67.8706C20.0731 67.9511 19.5776 68.0455 19.1533 68.1636C18.9411 68.2226 18.7406 68.2885 18.5684 68.3647C18.3994 68.4396 18.2412 68.5315 18.125 68.647C18.0084 68.7629 17.9166 68.9217 17.8418 69.0903C17.7658 69.2617 17.6997 69.4604 17.6416 69.6714C17.5254 70.0935 17.4342 70.5865 17.3574 71.0493C17.3175 71.2897 17.2788 71.5192 17.2451 71.73C17.2292 71.5166 17.2135 71.2836 17.1943 71.0405C17.1568 70.5634 17.1081 70.0538 17.0264 69.6206C16.9855 69.404 16.9352 69.1993 16.8711 69.0239C16.8085 68.8527 16.7249 68.6875 16.6064 68.5688C16.4879 68.4502 16.3227 68.3661 16.1514 68.3032C15.9759 68.2389 15.7707 68.1882 15.5537 68.147C15.1199 68.0646 14.6099 68.0153 14.1318 67.9771C13.8439 67.954 13.5702 67.9337 13.3262 67.9146C13.5594 67.8704 13.8197 67.8204 14.0938 67.7681C14.5485 67.6812 15.0328 67.5805 15.4473 67.4585C15.6546 67.3975 15.8495 67.329 16.0176 67.2524C16.1826 67.1773 16.3376 67.087 16.4512 66.9741C16.5647 66.8613 16.6563 66.707 16.7324 66.5425C16.81 66.3749 16.8792 66.18 16.9414 65.9731C17.0657 65.5599 17.1691 65.0771 17.2588 64.6235C17.3248 64.2896 17.3861 63.9758 17.4404 63.7075Z" fill="#3CC2FF" stroke="#00402A" stroke-width="0.5"/>
<path d="M22.897 76.1392C22.9341 76.4557 22.9789 76.7971 23.0435 77.0884C23.0757 77.234 23.1142 77.3735 23.1616 77.4946C23.2075 77.6118 23.2703 77.7322 23.3599 77.8218C23.4495 77.9114 23.5699 77.9734 23.687 78.019C23.8083 78.0662 23.9484 78.1044 24.0942 78.1362C24.3856 78.1999 24.7265 78.2441 25.0435 78.2798C25.0463 78.2801 25.0495 78.2804 25.0522 78.2808C25.0396 78.2829 25.0269 78.2854 25.0142 78.2876C24.6949 78.3429 24.3513 78.4086 24.0562 78.4907C23.9087 78.5318 23.7677 78.578 23.645 78.6323C23.5252 78.6854 23.4055 78.7532 23.3159 78.8423C23.2262 78.9316 23.159 79.0501 23.106 79.1694C23.0516 79.2919 23.0048 79.4327 22.9644 79.5796C22.8968 79.825 22.8434 80.1041 22.7964 80.3745C22.7723 80.094 22.7426 79.8038 22.6948 79.5503C22.6664 79.3997 22.6313 79.2551 22.5854 79.1294C22.541 79.0077 22.4783 78.8818 22.3853 78.7886C22.2921 78.6953 22.1663 78.6331 22.0444 78.5884C21.9185 78.5422 21.7737 78.5058 21.6226 78.4771C21.3284 78.4212 20.9855 78.3878 20.6646 78.3618C20.9642 78.304 21.2823 78.2386 21.5571 78.1577C21.7012 78.1153 21.8387 78.0677 21.9585 78.0132C22.0753 77.96 22.1914 77.893 22.2788 77.8062C22.3662 77.7192 22.4339 77.6034 22.4878 77.4868C22.5431 77.3674 22.592 77.2302 22.6353 77.0864C22.7218 76.7989 22.7934 76.4643 22.855 76.1528C22.8642 76.1063 22.8726 76.0602 22.8813 76.0151C22.886 76.0559 22.8921 76.0972 22.897 76.1392Z" fill="#3CC2FF" stroke="#00402A" stroke-width="0.5"/>
<path d="M53.1489 90.5063C52.9983 89.3392 53.2739 88.1563 53.9253 87.1772C54.5767 86.1982 55.5603 85.4884 56.6929 85.1792L56.8755 85.1294L56.8765 84.9409L56.9058 81.4907L56.9087 81.2407L56.6587 81.2388L54.9751 81.2241C54.9185 81.2236 54.8622 81.2121 54.8101 81.1899C54.7581 81.1679 54.711 81.1356 54.6714 81.0952C54.6317 81.0547 54.5999 81.0063 54.5786 80.9536C54.5574 80.9009 54.5469 80.8444 54.5474 80.7876L54.5503 80.4458C54.5513 80.3308 54.5976 80.2206 54.6792 80.1401C54.7607 80.0599 54.8709 80.0153 54.9849 80.0161L56.6685 80.0317L56.9185 80.0337L56.9204 79.7837L56.9214 79.6997L56.9302 78.645L56.9331 78.395L56.6831 78.3931L55.2827 78.3804L53.8638 78.3687C53.8072 78.3682 53.7509 78.3566 53.6987 78.3345C53.6468 78.3124 53.5997 78.2801 53.5601 78.2397C53.5203 78.1993 53.4886 78.1509 53.4673 78.0981C53.446 78.0455 53.4356 77.989 53.436 77.9321L53.439 77.5903C53.4401 77.4755 53.4864 77.366 53.5679 77.2856C53.6496 77.2052 53.7602 77.1607 53.8745 77.1616L56.6978 77.1851L56.9497 77.188L56.9497 76.9351C56.9497 74.9364 56.9561 73.5128 56.9624 72.4976L56.9634 72.2456L54.1118 72.2456C53.7745 72.2456 53.605 72.0373 53.605 71.895L53.605 70.7202C53.605 70.5779 53.7742 70.3698 54.1118 70.3696L58.6235 70.3696C58.9604 70.3697 59.13 70.577 59.1304 70.7192L59.1304 71.9038L59.144 81.7866L59.1479 84.9624L59.1489 85.1499L59.3286 85.2026C60.4554 85.5314 61.4257 86.2576 62.0601 87.2476C62.6944 88.2377 62.9505 89.425 62.7798 90.5894C62.609 91.7537 62.0231 92.8172 61.1313 93.5825C60.2397 94.3477 59.1018 94.7635 57.9282 94.7534C56.7546 94.7432 55.624 94.3074 54.7456 93.5269C53.8672 92.7463 53.2996 91.6734 53.1489 90.5063ZM56.6733 93.4233C56.721 93.6746 56.842 93.9069 57.021 94.0894C57.1999 94.2718 57.4292 94.3966 57.6792 94.4487C57.9293 94.5008 58.1894 94.4773 58.4263 94.3813C58.663 94.2854 58.8657 94.1211 59.0093 93.9097C59.1528 93.6983 59.2307 93.4494 59.2329 93.1938L59.2329 93.1909L59.2319 93.1909C59.2342 92.8489 59.1022 92.52 58.8628 92.2759C58.6229 92.0314 58.296 91.8922 57.9536 91.8892C57.6981 91.887 57.4474 91.9607 57.2339 92.1011C57.0204 92.2414 56.8531 92.4419 56.7534 92.6772C56.6538 92.9125 56.6258 93.1723 56.6733 93.4233ZM59.1313 71.8794L59.1313 71.8833C59.1311 71.8863 59.1305 71.8903 59.1304 71.895L59.1313 71.8794Z" fill="#3CC2FF" stroke="#00402A" stroke-width="0.5"/>
<circle cx="25.2748" cy="31.9013" r="6.06435" fill="#00402A" stroke="#00402A" stroke-width="0.5"/>
</svg>
