<svg width="98" height="99" viewBox="0 0 98 99" fill="none" xmlns="http://www.w3.org/2000/svg">
<path d="M56.4533 37.2435C56.5463 37.4677 56.8035 37.5741 57.0277 37.4813C57.8046 37.1591 58.6571 36.9807 59.5521 36.9807H63.1076C63.3504 36.9807 63.5473 36.7839 63.5473 36.5411C63.5471 36.2984 63.3504 36.1015 63.1076 36.1015H59.5521C58.5395 36.1015 57.5729 36.3034 56.6911 36.6691C56.4669 36.7621 56.3604 37.0192 56.4533 37.2435ZM73.7743 36.9807C74.0171 36.9807 74.2139 36.7839 74.2139 36.5411C74.2138 36.2984 74.017 36.1015 73.7743 36.1015H70.2188C69.9761 36.1015 69.7793 36.2984 69.7791 36.5411C69.7791 36.7839 69.976 36.9807 70.2188 36.9807H73.7743ZM52.0786 43.575V45.9044C52.0786 46.1472 52.2754 46.344 52.5182 46.344C52.761 46.344 52.9578 46.1472 52.9578 45.9044V43.575C52.9579 42.6802 53.1363 41.8283 53.4584 41.0515C53.5514 40.8273 53.4446 40.5702 53.2206 40.4771C52.9964 40.3841 52.7393 40.49 52.6462 40.714C52.2805 41.5958 52.0786 42.5625 52.0786 43.575ZM52.0786 50.5624V55.2213C52.0787 55.4641 52.2755 55.661 52.5182 55.661C52.761 55.661 52.9578 55.4641 52.9578 55.2213V50.5624C52.9577 50.3198 52.7609 50.1228 52.5182 50.1228C52.2756 50.1228 52.0788 50.3198 52.0786 50.5624ZM52.0786 59.8794V62.2088C52.0786 62.4516 52.2754 62.6484 52.5182 62.6484C52.761 62.6484 52.9578 62.4516 52.9578 62.2088V59.8794C52.9577 59.6367 52.7609 59.4398 52.5182 59.4398C52.2755 59.4398 52.0787 59.6367 52.0786 59.8794Z" fill="#5BD38C" stroke="#00402A" stroke-width="0.5" stroke-linecap="round" stroke-linejoin="round"/>
<path d="M40.0667 37.2435C39.9738 37.4677 39.7165 37.5741 39.4923 37.4813C38.7154 37.1591 37.8629 36.9807 36.9679 36.9807H33.4124C33.1696 36.9807 32.9728 36.7839 32.9728 36.5411C32.9729 36.2984 33.1697 36.1015 33.4124 36.1015H36.9679C37.9805 36.1015 38.9471 36.3034 39.8289 36.6691C40.0531 36.7621 40.1596 37.0192 40.0667 37.2435ZM22.7457 36.9807C22.5029 36.9807 22.3061 36.7839 22.3061 36.5411C22.3062 36.2984 22.503 36.1015 22.7457 36.1015H26.3013C26.544 36.1015 26.7407 36.2984 26.7409 36.5411C26.7409 36.7839 26.544 36.9807 26.3013 36.9807H22.7457ZM44.4414 43.575V45.9044C44.4414 46.1472 44.2446 46.344 44.0018 46.344C43.759 46.344 43.5622 46.1472 43.5622 45.9044V43.575C43.5621 42.6802 43.3837 41.8283 43.0616 41.0515C42.9686 40.8273 43.0754 40.5702 43.2994 40.4771C43.5236 40.3841 43.7807 40.49 43.8739 40.714C44.2395 41.5958 44.4414 42.5625 44.4414 43.575ZM44.4414 50.5624V55.2213C44.4413 55.4641 44.2445 55.661 44.0018 55.661C43.759 55.661 43.5622 55.4641 43.5622 55.2213V50.5624C43.5624 50.3198 43.7591 50.1228 44.0018 50.1228C44.2445 50.1228 44.4412 50.3198 44.4414 50.5624ZM44.4414 59.8794V62.2088C44.4414 62.4516 44.2446 62.6484 44.0018 62.6484C43.759 62.6484 43.5622 62.4516 43.5622 62.2088V59.8794C43.5623 59.6367 43.7591 59.4398 44.0018 59.4398C44.2445 59.4398 44.4413 59.6367 44.4414 59.8794Z" fill="#5BD38C" stroke="#00402A" stroke-width="0.5" stroke-linecap="round" stroke-linejoin="round"/>
<path d="M48.7998 10.5689L48.7998 12.9619C48.7996 13.2045 48.6029 13.4015 48.3602 13.4015C48.1175 13.4015 47.9207 13.2045 47.9206 12.9619L47.9206 10.5689C47.9206 10.3261 48.1174 10.1293 48.3602 10.1293C48.603 10.1293 48.7998 10.3261 48.7998 10.5689ZM48.7998 17.747L48.7998 22.5329C48.7997 22.7757 48.6029 22.9726 48.3602 22.9726C48.1174 22.9726 47.9206 22.7757 47.9206 22.5329L47.9206 17.747C47.9207 17.5043 48.1175 17.3074 48.3602 17.3074C48.6029 17.3074 48.7997 17.5043 48.7998 17.747ZM48.7998 27.318L48.7998 32.104C48.7998 32.3468 48.603 32.5436 48.3602 32.5436C48.1174 32.5436 47.9206 32.3468 47.9206 32.104L47.9206 27.318C47.9208 27.0754 48.1175 26.8784 48.3602 26.8784C48.6028 26.8784 48.7996 27.0754 48.7998 27.318ZM48.7998 36.89L48.7998 41.6751C48.7998 41.9179 48.603 42.1147 48.3602 42.1147C48.1174 42.1147 47.9206 41.9179 47.9206 41.6751L47.9206 36.89C47.9206 36.6472 48.1174 36.4504 48.3602 36.4504C48.603 36.4504 48.7998 36.6472 48.7998 36.89ZM48.7998 46.4611L48.7998 51.247C48.7996 51.4897 48.6029 51.6867 48.3602 51.6867C48.1175 51.6867 47.9208 51.4897 47.9206 51.247L47.9206 46.4611C47.9206 46.2183 48.1174 46.0215 48.3602 46.0215C48.603 46.0215 48.7998 46.2183 48.7998 46.4611ZM48.7998 56.0321L48.7998 58.4251C48.7998 58.6679 48.603 58.8647 48.3602 58.8647C48.1174 58.8647 47.9206 58.6679 47.9206 58.4251L47.9206 56.0321C47.9207 55.7894 48.1175 55.5925 48.3602 55.5925C48.6029 55.5925 48.7997 55.7894 48.7998 56.0321Z" fill="#5BD38C" stroke="#00402A" stroke-width="0.5" stroke-linecap="round" stroke-linejoin="round"/>
<path d="M20.1328 94.0313V60.4893C20.1328 58.2038 22.0787 56.3281 24.498 56.3281H69.8027C72.2219 56.3283 74.167 58.2039 74.167 60.4893V94.0313C74.167 96.3166 72.2219 98.1922 69.8027 98.1924H24.498L24.2725 98.1865C21.9588 98.0744 20.1328 96.2453 20.1328 94.0313Z" fill="#00402A" stroke="#00402A" stroke-width="0.5" stroke-linejoin="round"/>
<path d="M21.6719 94.0337V60.4878C21.6721 59.0144 22.9282 57.7983 24.498 57.7983H69.8018C71.3718 57.7983 72.6289 59.0148 72.6289 60.4897V94.0317C72.6289 95.5054 71.3731 96.7231 69.8018 96.7231H24.498C22.9282 96.7231 21.672 95.5072 21.6719 94.0337Z" fill="#5BD38C" stroke="#00402A" stroke-width="0.5" stroke-linejoin="round"/>
<path d="M36.7385 71.7501C37.0608 71.8418 37.2811 72.1334 37.3178 72.4665C37.366 72.9038 37.4584 73.3352 37.5938 73.754C37.6972 74.0737 37.6147 74.4311 37.3567 74.6463V74.6463C37.054 74.8989 36.9934 75.3404 37.2168 75.6652L37.8075 76.5244C38.0311 76.8496 38.4653 76.9515 38.8102 76.7597V76.7597C39.104 76.5962 39.4673 76.6474 39.7291 76.8585C40.0721 77.1352 40.4424 77.3763 40.8341 77.5782C41.1318 77.7315 41.325 78.0415 41.2952 78.3751V78.3751C41.2602 78.7673 41.5292 79.1219 41.9163 79.1939L42.9441 79.3852C43.3311 79.4571 43.7092 79.2227 43.8168 78.8442V78.8442C43.9082 78.5223 44.1996 78.3023 44.5323 78.2661C44.9699 78.2186 45.4014 78.1268 45.8204 77.9921C46.1406 77.8891 46.4983 77.9717 46.7141 78.2298V78.2298C46.9674 78.5329 47.4096 78.5936 47.7353 78.3701L48.5916 77.7823C48.917 77.559 49.0188 77.1247 48.8266 76.78V76.78C48.6629 76.4864 48.714 76.1231 48.9251 75.8614C49.201 75.5193 49.4414 75.1501 49.6427 74.7595C49.7961 74.4617 50.1063 74.2686 50.4399 74.2987V74.2987C50.8323 74.3342 51.1872 74.065 51.2589 73.6776L51.4483 72.6539C51.5201 72.2661 51.2852 71.8873 50.906 71.7792V71.7792C50.5837 71.6873 50.3634 71.3957 50.3266 71.0627C50.2784 70.6253 50.1858 70.1939 50.0504 69.7751C49.947 69.4554 50.0294 69.0981 50.2873 68.8829V68.8829C50.5899 68.6303 50.6505 68.1888 50.4272 67.8641L49.8363 67.0049C49.6127 66.6798 49.1786 66.578 48.8338 66.7697V66.7697C48.5401 66.933 48.1769 66.8818 47.9152 66.6708C47.5721 66.3942 47.2018 66.1531 46.81 65.9512C46.5123 65.7978 46.3192 65.4878 46.3489 65.1543V65.1543C46.3839 64.762 46.1149 64.4074 45.7277 64.3354L44.6999 64.1442C44.313 64.0722 43.9349 64.3066 43.8273 64.6852V64.6852C43.7358 65.0071 43.4444 65.2271 43.1117 65.2632C42.6741 65.3107 42.2425 65.4025 41.8236 65.5372C41.5033 65.6401 41.1457 65.5575 40.93 65.2994V65.2994C40.6766 64.9964 40.2344 64.9357 39.9088 65.1592L39.0524 65.747C38.727 65.9703 38.6252 66.4047 38.8174 66.7494V66.7494C38.9812 67.043 38.9301 67.4064 38.719 67.6681C38.4432 68.0101 38.2028 68.3793 38.0017 68.77C37.8483 69.0678 37.5381 69.261 37.2045 69.2309V69.2309C36.8122 69.1954 36.4573 69.4645 36.3856 69.852L36.1962 70.8759C36.1245 71.2636 36.3593 71.6422 36.7385 71.7501V71.7501ZM44.4209 68.5276C45.0617 68.6468 45.653 68.9531 46.12 69.4079C46.587 69.8627 46.9087 70.4455 47.0445 71.0826C47.1803 71.7197 47.124 72.3825 46.8829 72.9872C46.6417 73.5919 46.2265 74.1113 45.6896 74.4797C45.1528 74.8481 44.5185 75.049 43.8669 75.057C43.2154 75.065 42.5758 74.8798 42.0291 74.5246C41.4825 74.1695 41.0532 73.6605 40.7957 73.0619C40.5382 72.4634 40.464 71.8022 40.5824 71.1619C40.7412 70.3034 41.2349 69.5436 41.9547 69.0496C42.6746 68.5555 43.5617 68.3678 44.4209 68.5276Z" fill="#00402A" stroke="#00402A" stroke-width="0.5" stroke-linecap="round" stroke-linejoin="round"/>
<path d="M49.7752 82.5378C50.1626 82.5922 50.4643 82.8941 50.5601 83.2735C50.686 83.7716 50.8622 84.2558 51.086 84.7185C51.2568 85.0716 51.2187 85.4982 50.9549 85.7885V85.7885C50.6453 86.1292 50.646 86.6496 50.9565 86.9895L51.7776 87.8885C52.0884 88.2287 52.607 88.2769 52.9751 87.9997V87.9997C53.2887 87.7635 53.7172 87.7645 54.0538 87.9666C54.4949 88.2316 54.9619 88.4511 55.4474 88.6217C55.8163 88.7513 56.0894 89.0789 56.1085 89.4694V89.4694C56.131 89.9287 56.499 90.2957 56.9583 90.3169L58.1778 90.3732C58.6369 90.3943 59.0366 90.0625 59.1003 89.6074V89.6074C59.1545 89.2205 59.4562 88.9192 59.8351 88.8241C60.3336 88.6989 60.8181 88.5234 61.281 88.3004C61.6349 88.1299 62.0619 88.1681 62.3529 88.432V88.432C62.6945 88.7419 63.2157 88.7412 63.5565 88.4304L64.4527 87.6132C64.7932 87.3027 64.8413 86.784 64.5637 86.4162V86.4162C64.3272 86.1028 64.328 85.6744 64.5302 85.3379C64.7944 84.898 65.0133 84.4324 65.1834 83.9482C65.3131 83.5792 65.6409 83.3061 66.0315 83.2874V83.2874C66.4911 83.2655 66.8584 82.8972 66.8792 82.4375L66.934 81.2231C66.9548 80.7631 66.6224 80.3627 66.1664 80.2985V80.2985C65.7789 80.2439 65.4773 79.942 65.3814 79.5626C65.2554 79.0645 65.0791 78.5803 64.8553 78.1177C64.6844 77.7646 64.7224 77.3381 64.9862 77.0477V77.0477C65.2956 76.707 65.2949 76.1867 64.9844 75.8469L64.1631 74.9479C63.8524 74.6078 63.334 74.5596 62.966 74.8367V74.8367C62.6524 75.0728 62.2241 75.0718 61.8876 74.8698C61.4464 74.6049 60.9794 74.3854 60.4938 74.2147C60.1249 74.0851 59.8517 73.7576 59.8326 73.367V73.367C59.8102 72.9077 59.4421 72.5407 58.9827 72.5195L57.7633 72.4632C57.3042 72.4421 56.9045 72.7739 56.8408 73.229V73.229C56.7866 73.616 56.4849 73.9172 56.1059 74.0124C55.6073 74.1375 55.1229 74.3129 54.6599 74.5359C54.306 74.7064 53.8791 74.6682 53.5882 74.4043V74.4043C53.2465 74.0945 52.7253 74.0952 52.3845 74.406L51.4884 75.2232C51.1478 75.5337 51.0997 76.0525 51.3774 76.4203V76.4203C51.6139 76.7337 51.6131 77.1622 51.411 77.4987C51.1468 77.9386 50.928 78.4042 50.7581 78.8883C50.6285 79.2573 50.3007 79.5306 49.91 79.5493V79.5493C49.4505 79.5712 49.0832 79.9394 49.0625 80.399L49.0076 81.6138C48.9869 82.0736 49.3193 82.4738 49.7752 82.5378V82.5378ZM58.1439 77.578C58.9042 77.613 59.6372 77.8725 60.2503 78.3236C60.8634 78.7747 61.329 79.3972 61.5883 80.1123C61.8476 80.8274 61.8889 81.603 61.707 82.3411C61.525 83.0792 61.1281 83.7466 60.5663 84.2588C60.0045 84.7711 59.303 85.1053 58.5507 85.2191C57.7984 85.3329 57.0289 85.2212 56.3396 84.8981C55.6504 84.5751 55.0722 84.0552 54.6783 83.4042C54.2845 82.7532 54.0925 82.0004 54.1268 81.2408C54.1728 80.2224 54.6218 79.2643 55.3752 78.5774C56.1285 77.8905 57.1245 77.531 58.1439 77.578Z" fill="#26BF64" stroke="#00402A" stroke-width="0.5" stroke-linecap="round" stroke-linejoin="round"/>
<path d="M32.473 80.1495C32.6063 80.3821 32.5698 80.6723 32.4049 80.8837C32.1883 81.1614 32.0004 81.4605 31.8442 81.7762C31.725 82.0172 31.4783 82.176 31.2103 82.1554V82.1554C30.8958 82.1313 30.6146 82.3505 30.5613 82.6614L30.4203 83.484C30.367 83.7951 30.559 84.0958 30.8637 84.1783V84.1783C31.1233 84.2486 31.3029 84.4807 31.3351 84.7478C31.3773 85.0979 31.4549 85.4428 31.5667 85.7772C31.6517 86.0313 31.5894 86.3169 31.3862 86.4915V86.4915C31.1471 86.6969 31.1033 87.0504 31.2851 87.3079L31.7673 87.9909C31.9489 88.2481 32.2964 88.3248 32.5694 88.1678V88.1678C32.8014 88.0343 33.0912 88.0708 33.3021 88.2357C33.5794 88.4527 33.878 88.641 34.1933 88.7975C34.4344 88.9173 34.5933 89.1643 34.5729 89.4327V89.4327C34.5489 89.7478 34.7685 90.0295 35.08 90.0831L35.8987 90.2241C36.21 90.2776 36.5108 90.0855 36.5931 89.7806V89.7806C36.6632 89.5208 36.8953 89.341 37.1624 89.3088C37.5115 89.2667 37.8554 89.1892 38.1889 89.0775C38.443 88.9924 38.7286 89.0548 38.903 89.2583V89.2583C39.1081 89.4977 39.4617 89.5415 39.7191 89.3594L40.3995 88.8779C40.657 88.6957 40.7337 88.3476 40.5767 88.0741V88.0741C40.4433 87.8416 40.4798 87.5515 40.6446 87.3401C40.8612 87.0624 41.0491 86.7633 41.2053 86.4475C41.3245 86.2066 41.5712 86.0478 41.8392 86.0683V86.0683C42.1537 86.0924 42.4348 85.8732 42.4881 85.5623L42.6291 84.7396C42.6824 84.4285 42.4905 84.1279 42.1858 84.0454V84.0454C41.9263 83.9751 41.7467 83.7431 41.7145 83.4761C41.6723 83.126 41.5946 82.781 41.4828 82.4466C41.3978 82.1924 41.4601 81.9068 41.6633 81.7322V81.7322C41.9024 81.5268 41.9462 81.1733 41.7644 80.9158L41.2822 80.2326C41.1006 79.9754 40.7531 79.8987 40.4802 80.0557V80.0557C40.2481 80.1892 39.9583 80.1527 39.7475 79.9877C39.4701 79.7707 39.1715 79.5824 38.8562 79.4258C38.6151 79.3061 38.4563 79.0591 38.4767 78.7907V78.7907C38.5006 78.4756 38.281 78.1939 37.9695 78.1403L37.1508 77.9994C36.8395 77.9458 36.5386 78.138 36.4564 78.4429V78.4429C36.3863 78.7027 36.1541 78.8825 35.887 78.9147C35.538 78.9568 35.1941 79.0343 34.8607 79.1459C34.6066 79.231 34.321 79.1686 34.1467 78.9651V78.9651C33.9416 78.7258 33.5879 78.682 33.3306 78.8641L32.6503 79.3455C32.3928 79.5277 32.316 79.8759 32.473 80.1495V80.1495ZM38.6751 82.59C38.9759 83.016 39.1437 83.5217 39.1575 84.0431C39.1713 84.5645 39.0303 85.0782 38.7525 85.5193C38.4747 85.9604 38.0725 86.3091 37.5967 86.5212C37.1209 86.7333 36.5929 86.7993 36.0795 86.7109C35.5662 86.6225 35.0904 86.3837 34.7125 86.0246C34.3346 85.6655 34.0714 85.2023 33.9563 84.6936C33.8413 84.1848 33.8794 83.6534 34.0659 83.1665C34.2524 82.6795 34.579 82.259 35.0043 81.958C35.5746 81.5544 36.2817 81.3943 36.9701 81.5128C37.6585 81.6313 38.2718 82.0188 38.6751 82.59Z" fill="#26BF64" stroke="#00402A" stroke-width="0.5" stroke-linecap="round" stroke-linejoin="round"/>
<path d="M30.6387 55.7715H33.0664C33.0955 55.7715 33.1242 55.7779 33.1514 55.7891H30.5547C30.5816 55.778 30.6099 55.7715 30.6387 55.7715Z" fill="#5BD38C" stroke="#00402A" stroke-width="0.5" stroke-linejoin="round"/>
<path d="M26.1226 55.7715H28.5503C28.5794 55.7715 28.6081 55.7779 28.6353 55.7891H26.0386C26.0655 55.778 26.0938 55.7715 26.1226 55.7715Z" fill="#5BD38C" stroke="#00402A" stroke-width="0.5" stroke-linejoin="round"/>
<path d="M53.7705 93.6045C53.7855 93.6321 53.8017 93.6818 53.8018 93.748C53.8018 93.8153 53.7848 93.8657 53.7695 93.8936H40.5322C40.5172 93.8658 40.5 93.8158 40.5 93.748C40.5 93.6811 40.5166 93.6319 40.5312 93.6045H53.7705Z" fill="#5BD38C" stroke="#00402A" stroke-width="0.5" stroke-linejoin="round"/>
<path d="M87.6724 22.6719C88.6391 22.5843 89.6046 22.8619 90.3774 23.4492C91.1502 24.0366 91.6756 24.892 91.8501 25.8467C91.8718 25.9655 91.9754 26.0518 92.0962 26.0518C92.1127 26.0517 92.1287 26.0512 92.1392 26.0508C92.1508 26.0503 92.1577 26.0498 92.1636 26.0498C92.9164 26.0498 93.6534 26.2691 94.2847 26.6797C94.9159 27.0903 95.415 27.675 95.7202 28.3633C96.0253 29.0515 96.1239 29.8141 96.0044 30.5576C95.8926 31.2526 95.5918 31.9019 95.1392 32.4404C95.0871 32.5024 95.0681 32.5857 95.0884 32.6641C95.1087 32.7424 95.166 32.8062 95.2417 32.835C95.2761 32.848 95.2842 32.8506 95.3062 32.8594C95.7937 33.0546 96.2372 33.3467 96.6089 33.7178C96.9805 34.0889 97.2733 34.5315 97.4692 35.0186C97.6621 35.4982 97.7565 36.0127 97.7485 36.5303C97.7485 36.5339 97.7494 36.5374 97.7495 36.541L97.7495 36.542C97.7608 37.067 97.6651 37.5889 97.4692 38.0762C97.2733 38.5635 96.9807 39.0066 96.6089 39.3779C96.2372 39.7491 95.7937 40.0411 95.3062 40.2363C95.3007 40.2385 95.2938 40.2403 95.2827 40.2441C95.2728 40.2476 95.257 40.253 95.2417 40.2588C95.1661 40.2875 95.1088 40.3514 95.0884 40.4297C95.068 40.5079 95.0872 40.5914 95.1392 40.6533C95.592 41.1918 95.8925 41.8426 96.0044 42.5381C96.1239 43.2814 96.0252 44.0434 95.7202 44.7314C95.4151 45.4197 94.9159 46.0054 94.2847 46.416C93.6535 46.8264 92.9163 47.045 92.1636 47.0449C92.1577 47.0449 92.1508 47.0444 92.1392 47.0439C92.1287 47.0435 92.1127 47.043 92.0962 47.043C91.9755 47.0429 91.8719 47.1293 91.8501 47.248C91.6757 48.2028 91.1502 49.0581 90.3774 49.6455C89.6045 50.2329 88.6391 50.5105 87.6724 50.4228C86.706 50.3351 85.8074 49.8892 85.1528 49.1728C84.4981 48.456 84.1342 47.5195 84.1343 46.5488L84.1362 46.4912C84.1364 46.4827 84.1349 46.4742 84.1343 46.4658L84.1343 26.6279C84.1349 26.6198 84.1364 26.6117 84.1362 26.6035C84.1354 26.5709 84.1343 26.5644 84.1343 26.5459C84.1343 25.5753 84.4982 24.6396 85.1528 23.9229C85.8074 23.2064 86.7059 22.7596 87.6724 22.6719Z" fill="#26BF64" stroke="#00402A" stroke-width="0.5" stroke-linejoin="round"/>
<path d="M83.1011 41.4779L88.9972 41.4779L90.9901 43.9224L90.3084 44.4771L88.5791 42.3571L83.1011 42.3571L83.1011 41.4779Z" fill="#00402A" stroke="#00402A" stroke-width="0.5" stroke-linejoin="round"/>
<path d="M89.9473 44.2905C89.9473 43.9108 90.2551 43.6031 90.6348 43.603C91.0146 43.603 91.3223 43.9107 91.3223 44.2905C91.3222 44.6702 91.0145 44.978 90.6348 44.978C90.2551 44.9779 89.9474 44.6702 89.9473 44.2905Z" fill="#5BD38C" stroke="#00402A" stroke-width="0.5" stroke-linejoin="round"/>
<path d="M90.6934 44.2905L90.6934 44.1089C90.6751 44.103 90.6559 44.0992 90.6357 44.0991L90.6348 44.2329C90.6671 44.2329 90.6934 44.2582 90.6934 44.2905ZM90.6934 44.2905C90.6932 44.3227 90.667 44.3491 90.6348 44.3491M90.6934 44.2905L90.6934 44.4722C90.6751 44.478 90.6559 44.4819 90.6357 44.4819L90.6348 44.3491M90.6348 44.3491C90.6027 44.349 90.5763 44.3226 90.5762 44.2905M90.6348 44.3491L90.6348 44.4819C90.5292 44.4818 90.4435 44.3961 90.4434 44.2905L90.5762 44.2905M90.5762 44.2905C90.5762 44.2583 90.6026 44.2321 90.6348 44.2319L90.6348 44.0991C90.5288 44.0992 90.4437 44.1846 90.4434 44.2896L90.5723 44.2905L90.5762 44.2905ZM89.9473 44.2905C89.9473 43.9108 90.255 43.6032 90.6348 43.603C90.9262 43.603 91.1733 43.7846 91.2734 44.0405L90.8145 44.0405C90.7638 44.0041 90.7019 43.9819 90.6348 43.9819L90.5723 43.9878C90.4323 44.0167 90.3262 44.1413 90.3262 44.2905C90.3264 44.4392 90.4322 44.5633 90.5723 44.5923L90.6348 44.5991C90.702 44.5991 90.7639 44.5769 90.8145 44.5405L91.2734 44.5405C91.1732 44.7962 90.926 44.978 90.6348 44.978L90.4961 44.9644C90.2277 44.9093 90.016 44.6976 89.9609 44.4292L89.9473 44.2905Z" fill="#00402A" stroke="#00402A" stroke-width="0.5" stroke-linejoin="round"/>
<path d="M83.167 30.4357L87.643 30.4357L89.635 27.9912L89.2941 27.7139L88.9541 27.4365L87.2248 29.5565L83.167 29.5565L83.167 30.4357Z" fill="#00402A" stroke="#00402A" stroke-width="0.5" stroke-linejoin="round"/>
<path d="M88.5933 27.623C88.5933 28.0028 88.901 28.3104 89.2808 28.3105C89.6606 28.3105 89.9683 28.0029 89.9683 27.623C89.9682 27.2433 89.6605 26.9355 89.2808 26.9355C88.9011 26.9357 88.5934 27.2434 88.5933 27.623Z" fill="#5BD38C" stroke="#00402A" stroke-width="0.5" stroke-linejoin="round"/>
<path d="M89.3394 27.623L89.3394 27.8047C89.3211 27.8106 89.3019 27.8144 89.2817 27.8145L89.2808 27.6807C89.3131 27.6807 89.3394 27.6553 89.3394 27.623ZM89.3394 27.623C89.3392 27.5909 89.313 27.5645 89.2808 27.5645M89.3394 27.623L89.3394 27.4414C89.3211 27.4355 89.3019 27.4317 89.2817 27.4316L89.2808 27.5645M89.2808 27.5645C89.2487 27.5646 89.2223 27.591 89.2222 27.623M89.2808 27.5645L89.2808 27.4316C89.1751 27.4318 89.0895 27.5174 89.0894 27.623L89.2222 27.623M89.2222 27.623C89.2222 27.6552 89.2486 27.6815 89.2808 27.6816L89.2808 27.8145C89.1748 27.8143 89.0897 27.7289 89.0894 27.624L89.2183 27.623L89.2222 27.623ZM88.5933 27.623C88.5933 28.0028 88.901 28.3104 89.2808 28.3105C89.5722 28.3105 89.8193 28.1289 89.9194 27.873L89.4604 27.873C89.4098 27.9095 89.3479 27.9316 89.2808 27.9316L89.2183 27.9258C89.0783 27.8969 88.9722 27.7723 88.9722 27.623C88.9724 27.4744 89.0781 27.3503 89.2183 27.3213L89.2808 27.3145C89.348 27.3145 89.4099 27.3367 89.4604 27.373L89.9194 27.373C89.8192 27.1174 89.572 26.9355 89.2808 26.9355L89.1421 26.9492C88.8737 27.0043 88.662 27.216 88.6069 27.4844L88.5933 27.623Z" fill="#00402A" stroke="#00402A" stroke-width="0.5" stroke-linejoin="round"/>
<path d="M83.167 38.5436L91.0088 38.5436L91.0088 39.4229L83.167 39.4229L83.167 38.5436Z" fill="#00402A" stroke="#00402A" stroke-width="0.5" stroke-linejoin="round"/>
<path d="M83.2334 32.6642L91.0091 32.6642L91.0091 33.5435L83.2334 33.5435L83.2334 32.6642Z" fill="#00402A" stroke="#00402A" stroke-width="0.5" stroke-linejoin="round"/>
<path d="M83.4974 27.9585L83.4974 47.6321L82.6182 47.6321L82.6182 27.9585L83.4974 27.9585Z" fill="#00402A" stroke="#00402A" stroke-width="0.5" stroke-linejoin="round"/>
<path d="M83.0649 45.5094L86.2685 45.5094L86.2685 46.3887L83.0649 46.3887L83.0649 45.5094Z" fill="#00402A" stroke="#00402A" stroke-width="0.5" stroke-linejoin="round"/>
<path d="M90.8853 39.0229C90.8853 38.6432 91.193 38.3356 91.5728 38.3354C91.9526 38.3354 92.2603 38.6431 92.2603 39.0229C92.2601 39.4027 91.9525 39.7104 91.5728 39.7104C91.1931 39.7103 90.8854 39.4026 90.8853 39.0229Z" fill="#5BD38C" stroke="#00402A" stroke-width="0.5" stroke-linejoin="round"/>
<path d="M91.6313 39.0229L91.6313 38.8413C91.6131 38.8354 91.5939 38.8316 91.5737 38.8315L91.5728 38.9653C91.6051 38.9653 91.6313 38.9907 91.6313 39.0229ZM91.6313 39.0229C91.6312 39.0551 91.605 39.0815 91.5728 39.0815M91.6313 39.0229L91.6313 39.2046C91.6131 39.2105 91.5939 39.2143 91.5737 39.2144L91.5728 39.0815M91.5728 39.0815C91.5407 39.0814 91.5143 39.055 91.5142 39.0229M91.5728 39.0815L91.5728 39.2144C91.4671 39.2142 91.3815 39.1286 91.3813 39.0229L91.5142 39.0229M91.5142 39.0229C91.5142 38.9907 91.5406 38.9645 91.5728 38.9644L91.5728 38.8315C91.4668 38.8317 91.3817 38.9171 91.3813 39.022L91.5103 39.0229L91.5142 39.0229ZM90.8853 39.0229C90.8853 38.6432 91.193 38.3356 91.5728 38.3354C91.8642 38.3354 92.1113 38.5171 92.2114 38.7729L91.7524 38.7729C91.7018 38.7365 91.6399 38.7144 91.5728 38.7144L91.5103 38.7202C91.3702 38.7491 91.2642 38.8737 91.2642 39.0229C91.2644 39.1716 91.3701 39.2957 91.5103 39.3247L91.5728 39.3315C91.6399 39.3315 91.7019 39.3093 91.7524 39.2729L92.2114 39.2729C92.1111 39.5286 91.864 39.7104 91.5728 39.7104L91.4341 39.6968C91.1657 39.6417 90.954 39.43 90.8989 39.1616L90.8853 39.0229Z" fill="#00402A" stroke="#00402A" stroke-width="0.5" stroke-linejoin="round"/>
<path d="M90.8853 33.1436C90.8853 32.7638 91.193 32.4562 91.5728 32.4561C91.9526 32.4561 92.2603 32.7637 92.2603 33.1436C92.2601 33.5233 91.9525 33.8311 91.5728 33.8311C91.1931 33.8309 90.8854 33.5232 90.8853 33.1436Z" fill="#5BD38C" stroke="#00402A" stroke-width="0.5" stroke-linejoin="round"/>
<path d="M91.6313 33.1436L91.6313 32.9619C91.6131 32.956 91.5939 32.9522 91.5737 32.9521L91.5728 33.0859C91.6051 33.0859 91.6313 33.1113 91.6313 33.1436ZM91.6313 33.1436C91.6312 33.1757 91.605 33.2021 91.5728 33.2021M91.6313 33.1436L91.6313 33.3252C91.6131 33.3311 91.5939 33.3349 91.5737 33.335L91.5728 33.2021M91.5728 33.2021C91.5407 33.202 91.5143 33.1756 91.5142 33.1436M91.5728 33.2021L91.5728 33.335C91.4671 33.3349 91.3815 33.2492 91.3813 33.1436L91.5142 33.1436M91.5142 33.1436C91.5142 33.1114 91.5406 33.0851 91.5728 33.085L91.5728 32.9521C91.4668 32.9523 91.3817 33.0377 91.3813 33.1426L91.5103 33.1436L91.5142 33.1436ZM90.8853 33.1436C90.8853 32.7638 91.193 32.4562 91.5728 32.4561C91.8642 32.4561 92.1113 32.6377 92.2114 32.8936L91.7524 32.8936C91.7018 32.8571 91.6399 32.835 91.5728 32.835L91.5103 32.8408C91.3702 32.8697 91.2642 32.9943 91.2642 33.1436C91.2644 33.2922 91.3701 33.4163 91.5103 33.4453L91.5728 33.4521C91.6399 33.4521 91.7019 33.4299 91.7524 33.3936L92.2114 33.3936C92.1111 33.6493 91.864 33.8311 91.5728 33.8311L91.4341 33.8174C91.1657 33.7623 90.954 33.5506 90.8989 33.2822L90.8853 33.1436Z" fill="#00402A" stroke="#00402A" stroke-width="0.5" stroke-linejoin="round"/>
<path d="M86.145 45.9888C86.145 45.609 86.4528 45.3014 86.8325 45.3013C87.2123 45.3013 87.52 45.609 87.52 45.9888C87.5199 46.3685 87.2123 46.6763 86.8325 46.6763C86.4529 46.6762 86.1451 46.3684 86.145 45.9888Z" fill="#5BD38C" stroke="#00402A" stroke-width="0.5" stroke-linejoin="round"/>
<path d="M86.8911 45.9888L86.8911 45.8071C86.8728 45.8013 86.8537 45.7974 86.8335 45.7974L86.8325 45.9312C86.8648 45.9312 86.8911 45.9565 86.8911 45.9888ZM86.8911 45.9888C86.891 46.0209 86.8647 46.0474 86.8325 46.0474M86.8911 45.9888L86.8911 46.1704C86.8729 46.1763 86.8536 46.1801 86.8335 46.1802L86.8325 46.0474M86.8325 46.0474C86.8005 46.0472 86.7741 46.0208 86.7739 45.9888M86.8325 46.0474L86.8325 46.1802C86.7269 46.1801 86.6412 46.0944 86.6411 45.9888L86.7739 45.9888M86.7739 45.9888C86.7739 45.9566 86.8004 45.9303 86.8325 45.9302L86.8325 45.7974C86.7266 45.7975 86.6415 45.8829 86.6411 45.9878L86.77 45.9888L86.7739 45.9888ZM86.145 45.9888C86.145 45.609 86.4528 45.3014 86.8325 45.3013C87.1239 45.3013 87.371 45.4829 87.4712 45.7388L87.0122 45.7388C86.9616 45.7023 86.8997 45.6802 86.8325 45.6802L86.77 45.686C86.63 45.7149 86.5239 45.8395 86.5239 45.9888C86.5241 46.1374 86.6299 46.2615 86.77 46.2905L86.8325 46.2974C86.8997 46.2974 86.9617 46.2751 87.0122 46.2388L87.4712 46.2388C87.3709 46.4945 87.1238 46.6763 86.8325 46.6763L86.6938 46.6626C86.4254 46.6076 86.2137 46.3959 86.1587 46.1274L86.145 45.9888Z" fill="#00402A" stroke="#00402A" stroke-width="0.5" stroke-linejoin="round"/>
<path d="M83.1011 39.4194L86.3149 39.4194L86.4454 39.2735L89.2583 36.1395L93.9472 36.1395L93.9472 35.2603L88.8667 35.2603L88.7354 35.4062L85.9217 38.5402L83.1011 38.5402L83.1011 39.4194Z" fill="#00402A" stroke="#00402A" stroke-width="0.5" stroke-linejoin="round"/>
<path d="M93.1265 35.6997C93.1265 36.0794 93.4343 36.3871 93.814 36.3872C94.1938 36.3872 94.5015 36.0795 94.5015 35.6997C94.5014 35.32 94.1937 35.0122 93.814 35.0122C93.4343 35.0123 93.1266 35.3201 93.1265 35.6997Z" fill="#5BD38C" stroke="#00402A" stroke-width="0.5" stroke-linejoin="round"/>
<path d="M93.8726 35.6997L93.8726 35.8813C93.8543 35.8872 93.8351 35.891 93.8149 35.8911L93.814 35.7573C93.8463 35.7573 93.8726 35.732 93.8726 35.6997ZM93.8726 35.6997C93.8724 35.6675 93.8462 35.6411 93.814 35.6411M93.8726 35.6997L93.8726 35.5181C93.8543 35.5122 93.8351 35.5084 93.8149 35.5083L93.814 35.6411M93.814 35.6411C93.7819 35.6413 93.7555 35.6676 93.7554 35.6997M93.814 35.6411L93.814 35.5083C93.7084 35.5084 93.6227 35.5941 93.6226 35.6997L93.7554 35.6997M93.7554 35.6997C93.7554 35.7319 93.7818 35.7581 93.814 35.7583L93.814 35.8911C93.708 35.891 93.6229 35.8056 93.6226 35.7007L93.7515 35.6997L93.7554 35.6997ZM93.1265 35.6997C93.1265 36.0794 93.4342 36.387 93.814 36.3872C94.1054 36.3872 94.3525 36.2056 94.4526 35.9497L93.9937 35.9497C93.943 35.9862 93.8811 36.0083 93.814 36.0083L93.7515 36.0024C93.6115 35.9735 93.5054 35.849 93.5054 35.6997C93.5056 35.5511 93.6114 35.4269 93.7515 35.3979L93.814 35.3911C93.8812 35.3911 93.9431 35.4134 93.9937 35.4497L94.4526 35.4497C94.3524 35.194 94.1052 35.0122 93.814 35.0122L93.6753 35.0259C93.4069 35.0809 93.1952 35.2926 93.1401 35.561L93.1265 35.6997Z" fill="#00402A" stroke="#00402A" stroke-width="0.5" stroke-linejoin="round"/>
<path d="M67.9058 36.541C67.8944 37.0663 67.99 37.5887 68.186 38.0762C68.382 38.5635 68.6747 39.0058 69.0464 39.377C69.4182 39.7482 69.8614 40.0411 70.3491 40.2363C70.8368 40.4315 71.3592 40.5258 71.8843 40.5137C72.4094 40.5015 72.9267 40.3834 73.4048 40.166C73.4858 40.1292 73.5802 40.138 73.6528 40.1895C73.7253 40.2408 73.7651 40.3265 73.7573 40.415C73.7469 40.5318 73.7398 40.6491 73.7397 40.7646L73.7407 40.7656C73.7407 41.7972 74.151 42.7862 74.8804 43.5156C75.6098 44.245 76.5988 44.6552 77.6304 44.6553C78.662 44.6553 79.6519 44.2451 80.3813 43.5156C81.1106 42.7862 81.52 41.7971 81.52 40.7656L81.52 26.6201C81.5198 26.6146 81.5189 26.6091 81.519 26.6035C81.5199 26.5693 81.52 26.5648 81.52 26.5459C81.5201 25.5751 81.1571 24.6396 80.5024 23.9229C79.8477 23.2061 78.9487 22.7595 77.9819 22.6719C77.0152 22.5843 76.0507 22.8619 75.2778 23.4492C74.5049 24.0366 73.9796 24.8917 73.8052 25.8467C73.7835 25.9654 73.6798 26.0518 73.5591 26.0518C73.5426 26.0518 73.5267 26.0512 73.5161 26.0508C73.5042 26.0504 73.4971 26.0498 73.4907 26.0498C72.7378 26.0498 72.0008 26.2682 71.3696 26.6787C70.7384 27.0893 70.2403 27.6749 69.9351 28.3633C69.6299 29.0515 69.5314 29.8133 69.6509 30.5566C69.7704 31.2999 70.1025 31.9929 70.6079 32.5508C70.6641 32.6128 70.686 32.6992 70.6655 32.7803C70.645 32.8613 70.5852 32.9273 70.5063 32.9551C70.0106 33.1291 69.5549 33.402 69.1675 33.7568C68.7801 34.1117 68.4683 34.541 68.2515 35.0195C68.0346 35.4981 67.9171 36.0157 67.9058 36.541Z" fill="#5BD38C" stroke="#00402A" stroke-width="0.5" stroke-linejoin="round"/>
<path d="M67.9058 36.5542C67.8944 36.0289 67.99 35.5065 68.186 35.019C68.382 34.5317 68.6747 34.0894 69.0464 33.7183C69.4182 33.347 69.8614 33.0542 70.3491 32.8589C70.8368 32.6637 71.3592 32.5694 71.8843 32.5815C72.4094 32.5937 72.9267 32.7118 73.4048 32.9292C73.4858 32.966 73.5802 32.9572 73.6528 32.9058C73.7253 32.8544 73.7651 32.7687 73.7573 32.6802C73.7469 32.5634 73.7398 32.4461 73.7397 32.3306L73.7407 32.3296C73.7407 31.298 74.151 30.309 74.8804 29.5796C75.6098 28.8502 76.5988 28.44 77.6304 28.4399C78.662 28.4399 79.6519 28.8501 80.3813 29.5796C81.1106 30.309 81.52 31.2982 81.52 32.3296L81.52 46.4751C81.5198 46.4806 81.5189 46.4861 81.519 46.4917C81.5199 46.5259 81.52 46.5304 81.52 46.5493C81.5201 47.5201 81.1571 48.4556 80.5024 49.1724C79.8477 49.8891 78.9487 50.3357 77.9819 50.4233C77.0152 50.5109 76.0507 50.2333 75.2778 49.646C74.5049 49.0586 73.9796 48.2035 73.8052 47.2485C73.7835 47.1298 73.6798 47.0435 73.5591 47.0435C73.5426 47.0435 73.5267 47.0441 73.5161 47.0444C73.5042 47.0449 73.4971 47.0454 73.4907 47.0454C72.7378 47.0454 72.0008 46.827 71.3696 46.4165C70.7384 46.0059 70.2403 45.4203 69.9351 44.7319C69.6299 44.0437 69.5314 43.2819 69.6509 42.5386C69.7704 41.7953 70.1025 41.1024 70.6079 40.5444C70.6641 40.4824 70.686 40.396 70.6655 40.3149C70.645 40.2339 70.5852 40.168 70.5063 40.1401C70.0106 39.9661 69.5549 39.6932 69.1675 39.3384C68.7801 38.9836 68.4683 38.5542 68.2515 38.0757C68.0346 37.5971 67.9171 37.0795 67.9058 36.5542Z" fill="#26BF64" stroke="#00402A" stroke-width="0.5" stroke-linejoin="round"/>
<path d="M53.5903 0.250977C54.4148 0.233191 55.2344 0.382822 55.9995 0.69043C56.7646 0.998058 57.4598 1.45747 58.0425 2.04102C58.6252 2.62457 59.0836 3.32036 59.3901 4.08594C59.6966 4.8515 59.8447 5.67168 59.8257 6.49609C59.8105 7.15221 59.6891 7.80031 59.4683 8.41602C59.3303 8.80061 59.6253 9.21268 60.0327 9.20898H60.0776C60.062 9.20899 60.0468 9.20404 60.0317 9.20117C60.0474 9.2042 60.0627 9.20896 60.0786 9.20898C61.6977 9.2091 63.2512 9.85222 64.396 10.9971C65.5409 12.142 66.1841 13.6953 66.1841 15.3145C66.1841 16.9336 65.5409 18.4869 64.396 19.6318C63.2511 20.7768 61.6978 21.4199 60.0786 21.4199H38.3774C38.3648 21.4183 38.3515 21.4166 38.3384 21.417C38.2947 21.4181 38.2788 21.4199 38.2495 21.4199C36.7258 21.4201 35.2564 20.8499 34.1313 19.8223C33.0065 18.7947 32.307 17.3836 32.1694 15.8662C32.0319 14.3487 32.4662 12.8342 33.3882 11.6211C34.2897 10.4349 35.5935 9.62061 37.0522 9.3291C37.2331 9.29297 37.354 9.13436 37.354 8.95898C37.354 7.77721 37.6969 6.62053 38.3413 5.62988C38.9857 4.63924 39.9045 3.85695 40.9849 3.37793C42.0652 2.89902 43.2615 2.74405 44.4282 2.93164C44.7772 2.98777 45.1194 3.07416 45.4507 3.18848C46.6969 3.61835 48.3299 3.20356 49.2202 2.23145C49.7771 1.62342 50.4516 1.13424 51.2026 0.793945C51.9537 0.453678 52.766 0.268767 53.5903 0.250977Z" fill="#5BD38C" stroke="#00402A" stroke-width="0.5" stroke-linejoin="round"/>
<path d="M52.8667 2.43213C53.5507 2.41737 54.231 2.54121 54.8657 2.79639C55.5005 3.05163 56.0776 3.43331 56.561 3.91748C57.0444 4.40161 57.4249 4.97866 57.6792 5.61377C57.9334 6.24881 58.0562 6.92894 58.0405 7.61279C58.028 8.1573 57.9269 8.69558 57.7437 9.20654C57.6186 9.55507 57.8853 9.92759 58.2544 9.92432C58.2667 9.9242 58.2792 9.92432 58.2915 9.92432C58.2786 9.9243 58.2662 9.92048 58.2534 9.91846V9.91748C58.2667 9.91963 58.2798 9.92432 58.2935 9.92432C59.6367 9.92449 60.9247 10.4589 61.8745 11.4087C62.8243 12.3585 63.3578 13.6465 63.3579 14.9897C63.3579 16.3332 62.8244 17.6218 61.8745 18.5718C60.9245 19.5217 59.6359 20.0562 58.2925 20.0562H40.1479L40.1089 20.0532C40.07 20.0542 40.0588 20.0562 40.0347 20.0562C38.7706 20.0563 37.5521 19.5834 36.6187 18.731C35.6852 17.8784 35.1039 16.7068 34.9897 15.4478C34.8757 14.1888 35.2366 12.9327 36.0015 11.9263C36.7495 10.942 37.8311 10.2658 39.0415 10.0239C39.2126 9.98974 39.3267 9.83975 39.3267 9.67432C39.3267 8.69388 39.6114 7.73448 40.146 6.9126C40.6807 6.09059 41.4429 5.4419 42.3394 5.04443C43.2357 4.64705 44.2278 4.51777 45.1958 4.67334C45.4854 4.71991 45.7695 4.79137 46.0444 4.88623C47.1021 5.25123 48.4849 4.90069 49.2407 4.07568C49.7028 3.57118 50.2621 3.1647 50.8853 2.88232C51.5084 2.59998 52.1827 2.44692 52.8667 2.43213Z" fill="#00402A" stroke="#00402A" stroke-width="0.5" stroke-linejoin="round"/>
<path d="M40.6216 14.5786C40.6218 15.4762 41.3499 16.2036 42.2476 16.2036C43.145 16.2034 43.8723 15.476 43.8726 14.5786C43.8726 13.681 43.1451 12.9529 42.2476 12.9526C41.3498 12.9526 40.6216 13.6809 40.6216 14.5786Z" fill="#5BD38C" stroke="#00402A" stroke-width="0.5" stroke-linejoin="round"/>
<path d="M46.9604 14.5786C46.9607 15.4762 47.6888 16.2036 48.5864 16.2036C49.4838 16.2034 50.2112 15.476 50.2114 14.5786C50.2114 13.681 49.484 12.9529 48.5864 12.9526C47.6887 12.9526 46.9604 13.6809 46.9604 14.5786Z" fill="#5BD38C" stroke="#00402A" stroke-width="0.5" stroke-linejoin="round"/>
<path d="M53.2988 14.5786C53.2991 15.4762 54.0272 16.2036 54.9248 16.2036C55.8222 16.2034 56.5496 15.476 56.5498 14.5786C56.5498 13.681 55.8224 12.9529 54.9248 12.9526C54.027 12.9526 53.2988 13.6809 53.2988 14.5786Z" fill="#5BD38C" stroke="#00402A" stroke-width="0.5" stroke-linejoin="round"/>
<path d="M5.03955 22.7368C5.2482 22.7369 5.41748 22.9061 5.41748 23.1147L5.41748 25.5835C5.41735 25.792 5.24812 25.9614 5.03955 25.9614C4.83094 25.9614 4.66175 25.7921 4.66162 25.5835L4.66162 23.1147C4.66162 22.9061 4.83087 22.7368 5.03955 22.7368Z" fill="#5BD38C" stroke="#00402A" stroke-width="0.5" stroke-linejoin="round"/>
<path d="M8.13379 22.7368C8.34244 22.7369 8.51172 22.9061 8.51172 23.1147L8.51172 25.5835C8.51159 25.792 8.34236 25.9614 8.13379 25.9614C7.92518 25.9614 7.75599 25.7921 7.75586 25.5835L7.75586 23.1147C7.75586 22.9061 7.9251 22.7368 8.13379 22.7368Z" fill="#5BD38C" stroke="#00402A" stroke-width="0.5" stroke-linejoin="round"/>
<path d="M11.228 22.7368C11.4367 22.7369 11.606 22.9061 11.606 23.1147L11.606 25.5835C11.6058 25.792 11.4366 25.9614 11.228 25.9614C11.0194 25.9614 10.8502 25.7921 10.8501 25.5835L10.8501 23.1147C10.8501 22.9061 11.0193 22.7368 11.228 22.7368Z" fill="#5BD38C" stroke="#00402A" stroke-width="0.5" stroke-linejoin="round"/>
<path d="M14.3223 22.7368C14.5309 22.7369 14.7002 22.9061 14.7002 23.1147L14.7002 25.5835C14.7001 25.792 14.5308 25.9614 14.3223 25.9614C14.1137 25.9614 13.9445 25.7921 13.9443 25.5835L13.9443 23.1147C13.9443 22.9061 14.1136 22.7368 14.3223 22.7368Z" fill="#5BD38C" stroke="#00402A" stroke-width="0.5" stroke-linejoin="round"/>
<path d="M17.4165 22.7368C17.6252 22.7369 17.7944 22.9061 17.7944 23.1147L17.7944 25.5835C17.7943 25.792 17.6251 25.9614 17.4165 25.9614C17.2079 25.9614 17.0387 25.7921 17.0386 25.5835L17.0386 23.1147C17.0386 22.9061 17.2078 22.7368 17.4165 22.7368Z" fill="#5BD38C" stroke="#00402A" stroke-width="0.5" stroke-linejoin="round"/>
<path d="M20.5107 22.7368C20.7194 22.7369 20.8887 22.9061 20.8887 23.1147L20.8887 25.5835C20.8885 25.792 20.7193 25.9614 20.5107 25.9614C20.3021 25.9614 20.1329 25.7921 20.1328 25.5835L20.1328 23.1147C20.1328 22.9061 20.3021 22.7368 20.5107 22.7368Z" fill="#5BD38C" stroke="#00402A" stroke-width="0.5" stroke-linejoin="round"/>
<path d="M23.605 22.7368C23.8136 22.7369 23.9829 22.9061 23.9829 23.1147L23.9829 25.5835C23.9828 25.792 23.8136 25.9614 23.605 25.9614C23.3964 25.9614 23.2272 25.7921 23.2271 25.5835L23.2271 23.1147C23.2271 22.9061 23.3963 22.7368 23.605 22.7368Z" fill="#5BD38C" stroke="#00402A" stroke-width="0.5" stroke-linejoin="round"/>
<path d="M5.03955 47.5718C5.2482 47.5718 5.41748 47.741 5.41748 47.9497L5.41748 50.4185C5.41735 50.627 5.24812 50.7963 5.03955 50.7964C4.83094 50.7964 4.66175 50.627 4.66162 50.4185L4.66162 47.9497C4.66162 47.741 4.83087 47.5718 5.03955 47.5718Z" fill="#5BD38C" stroke="#00402A" stroke-width="0.5" stroke-linejoin="round"/>
<path d="M8.13379 47.5718C8.34244 47.5718 8.51172 47.741 8.51172 47.9497L8.51172 50.4185C8.51159 50.627 8.34236 50.7963 8.13379 50.7964C7.92518 50.7964 7.75599 50.627 7.75586 50.4185L7.75586 47.9497C7.75586 47.741 7.9251 47.5718 8.13379 47.5718Z" fill="#5BD38C" stroke="#00402A" stroke-width="0.5" stroke-linejoin="round"/>
<path d="M11.228 47.5718C11.4367 47.5718 11.606 47.741 11.606 47.9497L11.606 50.4185C11.6058 50.627 11.4366 50.7963 11.228 50.7964C11.0194 50.7964 10.8502 50.627 10.8501 50.4185L10.8501 47.9497C10.8501 47.741 11.0193 47.5718 11.228 47.5718Z" fill="#5BD38C" stroke="#00402A" stroke-width="0.5" stroke-linejoin="round"/>
<path d="M14.3223 47.5718C14.5309 47.5718 14.7002 47.741 14.7002 47.9497L14.7002 50.4185C14.7001 50.627 14.5308 50.7963 14.3223 50.7964C14.1137 50.7964 13.9445 50.627 13.9443 50.4185L13.9443 47.9497C13.9443 47.741 14.1136 47.5718 14.3223 47.5718Z" fill="#5BD38C" stroke="#00402A" stroke-width="0.5" stroke-linejoin="round"/>
<path d="M17.4165 47.5718C17.6252 47.5718 17.7944 47.741 17.7944 47.9497L17.7944 50.4185C17.7943 50.627 17.6251 50.7963 17.4165 50.7964C17.2079 50.7964 17.0387 50.627 17.0386 50.4185L17.0386 47.9497C17.0386 47.741 17.2078 47.5718 17.4165 47.5718Z" fill="#5BD38C" stroke="#00402A" stroke-width="0.5" stroke-linejoin="round"/>
<path d="M20.5107 47.5718C20.7194 47.5718 20.8887 47.741 20.8887 47.9497L20.8887 50.4185C20.8885 50.627 20.7193 50.7963 20.5107 50.7964C20.3021 50.7964 20.1329 50.627 20.1328 50.4185L20.1328 47.9497C20.1328 47.741 20.3021 47.5718 20.5107 47.5718Z" fill="#5BD38C" stroke="#00402A" stroke-width="0.5" stroke-linejoin="round"/>
<path d="M23.605 47.5718C23.8136 47.5718 23.9829 47.741 23.9829 47.9497L23.9829 50.4185C23.9828 50.627 23.8136 50.7963 23.605 50.7964C23.3964 50.7964 23.2272 50.627 23.2271 50.4185L23.2271 47.9497C23.2271 47.741 23.3963 47.5718 23.605 47.5718Z" fill="#5BD38C" stroke="#00402A" stroke-width="0.5" stroke-linejoin="round"/>
<path d="M28.269 27.4839C28.269 27.6925 28.0998 27.8618 27.8911 27.8618L25.4224 27.8618C25.2138 27.8617 25.0445 27.6925 25.0444 27.4839C25.0444 27.2753 25.2138 27.1061 25.4224 27.106L27.8911 27.106C28.0998 27.106 28.269 27.2752 28.269 27.4839Z" fill="#5BD38C" stroke="#00402A" stroke-width="0.5" stroke-linejoin="round"/>
<path d="M28.269 30.5786C28.269 30.7873 28.0998 30.9565 27.8911 30.9565L25.4224 30.9565C25.2138 30.9564 25.0445 30.7872 25.0444 30.5786C25.0444 30.37 25.2138 30.2008 25.4224 30.2007L27.8911 30.2007C28.0998 30.2007 28.269 30.3699 28.269 30.5786Z" fill="#5BD38C" stroke="#00402A" stroke-width="0.5" stroke-linejoin="round"/>
<path d="M28.269 33.6724C28.269 33.881 28.0998 34.0503 27.8911 34.0503L25.4224 34.0503C25.2138 34.0502 25.0445 33.8809 25.0444 33.6724C25.0444 33.4638 25.2138 33.2946 25.4224 33.2944L27.8911 33.2944C28.0998 33.2944 28.269 33.4637 28.269 33.6724Z" fill="#5BD38C" stroke="#00402A" stroke-width="0.5" stroke-linejoin="round"/>
<path d="M28.269 36.7671C28.269 36.9757 28.0998 37.145 27.8911 37.145L25.4224 37.145C25.2138 37.1449 25.0445 36.9757 25.0444 36.7671C25.0444 36.5585 25.2138 36.3893 25.4224 36.3892L27.8911 36.3892C28.0998 36.3892 28.269 36.5584 28.269 36.7671Z" fill="#5BD38C" stroke="#00402A" stroke-width="0.5" stroke-linejoin="round"/>
<path d="M28.269 39.8608C28.269 40.0695 28.0998 40.2388 27.8911 40.2388L25.4224 40.2388C25.2138 40.2386 25.0445 40.0694 25.0444 39.8608C25.0444 39.6522 25.2138 39.483 25.4224 39.4829L27.8911 39.4829C28.0998 39.4829 28.269 39.6522 28.269 39.8608Z" fill="#5BD38C" stroke="#00402A" stroke-width="0.5" stroke-linejoin="round"/>
<path d="M28.269 42.9556C28.269 43.1642 28.0998 43.3335 27.8911 43.3335L25.4224 43.3335C25.2138 43.3334 25.0445 43.1641 25.0444 42.9556C25.0444 42.747 25.2138 42.5778 25.4224 42.5776L27.8911 42.5776C28.0998 42.5776 28.269 42.7469 28.269 42.9556Z" fill="#5BD38C" stroke="#00402A" stroke-width="0.5" stroke-linejoin="round"/>
<path d="M28.269 46.0493C28.269 46.258 28.0998 46.4272 27.8911 46.4272L25.4224 46.4272C25.2138 46.4271 25.0445 46.2579 25.0444 46.0493C25.0444 45.8407 25.2138 45.6715 25.4224 45.6714L27.8911 45.6714C28.0998 45.6714 28.269 45.8406 28.269 46.0493Z" fill="#5BD38C" stroke="#00402A" stroke-width="0.5" stroke-linejoin="round"/>
<path d="M3.47461 27.4839C3.47457 27.6925 3.30534 27.8618 3.09668 27.8618L0.62793 27.8618C0.419377 27.8617 0.250039 27.6925 0.25 27.4839C0.25 27.2753 0.419353 27.1061 0.62793 27.106L3.09668 27.106C3.30536 27.106 3.47461 27.2752 3.47461 27.4839Z" fill="#5BD38C" stroke="#00402A" stroke-width="0.5" stroke-linejoin="round"/>
<path d="M3.47461 30.5786C3.47457 30.7873 3.30534 30.9565 3.09668 30.9565L0.62793 30.9565C0.419377 30.9564 0.250039 30.7872 0.25 30.5786C0.25 30.37 0.419353 30.2008 0.62793 30.2007L3.09668 30.2007C3.30536 30.2007 3.47461 30.3699 3.47461 30.5786Z" fill="#5BD38C" stroke="#00402A" stroke-width="0.5" stroke-linejoin="round"/>
<path d="M3.47461 33.6724C3.47457 33.881 3.30534 34.0503 3.09668 34.0503L0.62793 34.0503C0.419377 34.0502 0.250039 33.8809 0.25 33.6724C0.25 33.4638 0.419353 33.2946 0.62793 33.2944L3.09668 33.2944C3.30536 33.2944 3.47461 33.4637 3.47461 33.6724Z" fill="#5BD38C" stroke="#00402A" stroke-width="0.5" stroke-linejoin="round"/>
<path d="M3.47461 36.7671C3.47457 36.9757 3.30534 37.145 3.09668 37.145L0.62793 37.145C0.419377 37.1449 0.250039 36.9757 0.25 36.7671C0.25 36.5585 0.419353 36.3893 0.62793 36.3892L3.09668 36.3892C3.30536 36.3892 3.47461 36.5584 3.47461 36.7671Z" fill="#5BD38C" stroke="#00402A" stroke-width="0.5" stroke-linejoin="round"/>
<path d="M3.47461 39.8608C3.47457 40.0695 3.30534 40.2388 3.09668 40.2388L0.62793 40.2388C0.419377 40.2386 0.250039 40.0694 0.25 39.8608C0.25 39.6522 0.419353 39.483 0.62793 39.4829L3.09668 39.4829C3.30536 39.4829 3.47461 39.6522 3.47461 39.8608Z" fill="#5BD38C" stroke="#00402A" stroke-width="0.5" stroke-linejoin="round"/>
<path d="M3.47461 42.9556C3.47457 43.1642 3.30534 43.3335 3.09668 43.3335L0.62793 43.3335C0.419377 43.3334 0.250039 43.1641 0.25 42.9556C0.25 42.747 0.419353 42.5778 0.62793 42.5776L3.09668 42.5776C3.30536 42.5776 3.47461 42.7469 3.47461 42.9556Z" fill="#5BD38C" stroke="#00402A" stroke-width="0.5" stroke-linejoin="round"/>
<path d="M3.47461 46.0493C3.47457 46.258 3.30534 46.4272 3.09668 46.4272L0.62793 46.4272C0.419377 46.4271 0.250039 46.2579 0.25 46.0493C0.25 45.8407 0.419353 45.6715 0.62793 45.6714L3.09668 45.6714C3.30536 45.6714 3.47461 45.8406 3.47461 46.0493Z" fill="#5BD38C" stroke="#00402A" stroke-width="0.5" stroke-linejoin="round"/>
<path d="M5.16162 25.2183H23.4829C24.8015 25.2184 25.8706 26.2873 25.8706 27.606V45.9272C25.8705 47.2458 24.8015 48.3148 23.4829 48.3149H5.16162C3.84299 48.3149 2.77402 47.2459 2.77393 45.9272L2.77393 27.606C2.77393 26.2873 3.84294 25.2183 5.16162 25.2183Z" fill="#26BF64" stroke="#00402A" stroke-width="0.5" stroke-linejoin="round"/>
<path d="M6.17041 27.1055H22.4741C23.3072 27.1055 23.9829 27.7812 23.9829 28.6143V44.918C23.9829 45.7511 23.3072 46.4268 22.4741 46.4268H6.17041C5.33731 46.4268 4.66162 45.7511 4.66162 44.918V28.6143C4.66162 27.7812 5.33731 27.1055 6.17041 27.1055Z" fill="#5BD38C" stroke="#00402A" stroke-width="0.5" stroke-linejoin="round"/>
<path d="M18.6958 32.3931V41.1401H9.94873V32.3931H18.6958Z" fill="#00402A" stroke="#00402A" stroke-width="0.5" stroke-linejoin="round"/>
</svg>
