<svg width="46" height="46" viewBox="0 0 46 46" fill="none" xmlns="http://www.w3.org/2000/svg">
<rect width="46" height="46" fill="#1C1A16"/>
<mask id="path-2-outside-1_103_31989" maskUnits="userSpaceOnUse" x="5" y="5" width="36" height="36" fill="black">
<rect fill="white" x="5" y="5" width="36" height="36"/>
<path fill-rule="evenodd" clip-rule="evenodd" d="M13.82 6L15.1719 6.52257L16.635 7.17412L18.2782 7.99767L19.8691 8.89728L21.2668 9.77704L22.4354 10.594L23.6105 11.5068L24.6841 12.4395L25.6039 13.3424L26.5434 14.3909L27.3126 15.3831L28 16.4216L28.5859 17.4899L29.0507 18.5482L29.3846 19.5272L29.6498 20.6021L29.7905 21.4984L29.8429 22.2525L29.0507 20.6484L28.1375 19.0245L27.2897 17.6982L26.3568 16.4249L25.4206 15.3368L24.6939 14.6257L23.9018 13.984L23.4075 13.6533L22.946 13.3953L22.5139 13.2035L22.1899 13.0877L21.8854 13.0051L21.4763 12.929L20.8478 12.8992L20.5074 12.9257L20.1244 12.9984L19.5483 13.187L19.2111 13.3457L18.8282 13.5706L18.4812 13.8121L18.1702 14.08L17.7807 14.5298L17.4992 14.9961L17.2733 15.5484L17.1129 16.2265L17.0573 16.7986L17.0606 17.4403L17.162 18.2936L17.3028 18.9286L17.509 19.5934L17.8331 20.3541L18.2128 21.0023L20.8052 24.3329L21.5646 25.4144L22.275 26.5654L22.7594 27.4848L23.162 28.434L23.4403 29.3667L23.5614 30.1837L23.5712 30.6037L23.5385 31.0204L23.473 31.371L23.3421 31.7944L23.0606 32.3599L22.7987 32.727L22.5205 33.0512L22.1833 33.3918L21.7578 33.7424L21.0736 34.179L20.6088 34.4006L20.1735 34.5693L19.293 34.8074L18.2684 34.9496L17.2144 34.9794L16.036 34.9033L15.3748 34.814L14.5827 34.6751L13.2537 34.3609L11.9378 33.9673L10.3437 33.3984L8.94599 32.8064L10.7758 33.0842L12.3208 33.243L13.8953 33.3191L15.3224 33.2893L16.383 33.1868L17.4599 32.9784L17.9509 32.8329L18.3863 32.6642L18.8085 32.4591L19.1719 32.221L19.5025 31.9399L19.7872 31.6125L20.0033 31.2519L20.1506 30.8782L20.239 30.4482L20.2619 29.9918L20.2193 29.5089L20.1178 29.0161L20.0098 28.6424L19.8101 28.1265L19.6268 27.8354L19.3322 27.4881L19.0311 27.2136L18.5728 26.8895L18.0917 26.6282L17.6759 26.4595L17.2177 26.3206L16.8511 26.2412L16.4255 26.185L16.0098 26.1652L15.2733 26.2148L14.766 26.3074L14.4583 26.3934L14.0687 26.5224L13.4435 26.7837L12.6187 27.2037L11.5712 27.8519L9.7545 29.1154L9.15876 29.4593L8.72013 29.6677L8.03928 29.8992L7.45008 30.015L6.61539 30.0547L6 30.0017L6.80524 29.6082L7.52864 29.1981L8.13093 28.8144L8.75941 28.3712L9.46318 27.8123L9.99018 27.3525L10.7169 26.6481L11.2308 26.0891L11.7185 25.5103L12.1899 24.8852L12.6972 24.1344L13.0769 23.5027L13.5057 22.6957L13.8298 21.9979L14.1178 21.2934L14.4484 20.3342L14.6154 19.7554L14.8576 18.7467L15.0344 17.7677L15.1228 17.1195L15.2111 16.1901L15.2537 15.3566L15.2602 14.457L15.234 13.5541L15.0867 11.8177L14.9591 10.9016L14.7758 9.82004L14.3535 7.92821L13.82 6ZM23.6301 22.3121L23.6432 22.2955L24.0589 23.1058L24.4321 23.7309L24.8576 24.366L25.3191 24.9613L25.8232 25.5302L26.3175 26.013L26.9853 26.5621L27.5679 26.9656L28.0851 27.2698L28.7398 27.5907L29.3061 27.8156L30.0687 28.0504L30.7038 28.1893L31.4239 28.2852L32.0327 28.3183L32.73 28.2951L33.3617 30.058L34.0556 31.6852L34.4975 32.5981L34.9493 33.4547L35.7218 34.7776L36.6907 36.2395L37.748 37.6286L38.252 38.2239L38.9133 38.9516L40 40L38.9558 39.4146L38.1571 39.0045L37.4435 38.6671L36.4681 38.2471L35.4272 37.8436L34.5172 37.5294L33.545 37.2317L32.6056 36.9737L31.5679 36.7257L30.6023 36.5239L28.6809 36.2097L27.6465 36.0874L26.5499 35.9914L25.4501 35.9352L24.3175 35.9154L24.5957 35.7864L25.2504 35.6276L26.0164 35.5019L27.0802 35.3763L29.5385 35.1712L32.527 35.0091L32.599 34.9232L32.6841 34.7115L32.7365 34.4601L32.7496 34.2021L32.7136 33.8383L32.6448 33.5704L32.419 33.0016L32.0033 32.3202L31.6792 31.8969L31.365 31.543L30.802 30.9807L30.2095 30.4615L29.5417 29.929L28.072 28.8541L27.1555 28.0934L26.5696 27.5411L26.1277 27.0879L25.3159 26.1189L24.9885 25.6625L24.6579 25.1399L24.3928 24.6669L24.1473 24.1576L23.9902 23.7772L23.8036 23.215L23.6858 22.7189L23.6301 22.3121Z"/>
</mask>
<path fill-rule="evenodd" clip-rule="evenodd" d="M13.82 6L15.1719 6.52257L16.635 7.17412L18.2782 7.99767L19.8691 8.89728L21.2668 9.77704L22.4354 10.594L23.6105 11.5068L24.6841 12.4395L25.6039 13.3424L26.5434 14.3909L27.3126 15.3831L28 16.4216L28.5859 17.4899L29.0507 18.5482L29.3846 19.5272L29.6498 20.6021L29.7905 21.4984L29.8429 22.2525L29.0507 20.6484L28.1375 19.0245L27.2897 17.6982L26.3568 16.4249L25.4206 15.3368L24.6939 14.6257L23.9018 13.984L23.4075 13.6533L22.946 13.3953L22.5139 13.2035L22.1899 13.0877L21.8854 13.0051L21.4763 12.929L20.8478 12.8992L20.5074 12.9257L20.1244 12.9984L19.5483 13.187L19.2111 13.3457L18.8282 13.5706L18.4812 13.8121L18.1702 14.08L17.7807 14.5298L17.4992 14.9961L17.2733 15.5484L17.1129 16.2265L17.0573 16.7986L17.0606 17.4403L17.162 18.2936L17.3028 18.9286L17.509 19.5934L17.8331 20.3541L18.2128 21.0023L20.8052 24.3329L21.5646 25.4144L22.275 26.5654L22.7594 27.4848L23.162 28.434L23.4403 29.3667L23.5614 30.1837L23.5712 30.6037L23.5385 31.0204L23.473 31.371L23.3421 31.7944L23.0606 32.3599L22.7987 32.727L22.5205 33.0512L22.1833 33.3918L21.7578 33.7424L21.0736 34.179L20.6088 34.4006L20.1735 34.5693L19.293 34.8074L18.2684 34.9496L17.2144 34.9794L16.036 34.9033L15.3748 34.814L14.5827 34.6751L13.2537 34.3609L11.9378 33.9673L10.3437 33.3984L8.94599 32.8064L10.7758 33.0842L12.3208 33.243L13.8953 33.3191L15.3224 33.2893L16.383 33.1868L17.4599 32.9784L17.9509 32.8329L18.3863 32.6642L18.8085 32.4591L19.1719 32.221L19.5025 31.9399L19.7872 31.6125L20.0033 31.2519L20.1506 30.8782L20.239 30.4482L20.2619 29.9918L20.2193 29.5089L20.1178 29.0161L20.0098 28.6424L19.8101 28.1265L19.6268 27.8354L19.3322 27.4881L19.0311 27.2136L18.5728 26.8895L18.0917 26.6282L17.6759 26.4595L17.2177 26.3206L16.8511 26.2412L16.4255 26.185L16.0098 26.1652L15.2733 26.2148L14.766 26.3074L14.4583 26.3934L14.0687 26.5224L13.4435 26.7837L12.6187 27.2037L11.5712 27.8519L9.7545 29.1154L9.15876 29.4593L8.72013 29.6677L8.03928 29.8992L7.45008 30.015L6.61539 30.0547L6 30.0017L6.80524 29.6082L7.52864 29.1981L8.13093 28.8144L8.75941 28.3712L9.46318 27.8123L9.99018 27.3525L10.7169 26.6481L11.2308 26.0891L11.7185 25.5103L12.1899 24.8852L12.6972 24.1344L13.0769 23.5027L13.5057 22.6957L13.8298 21.9979L14.1178 21.2934L14.4484 20.3342L14.6154 19.7554L14.8576 18.7467L15.0344 17.7677L15.1228 17.1195L15.2111 16.1901L15.2537 15.3566L15.2602 14.457L15.234 13.5541L15.0867 11.8177L14.9591 10.9016L14.7758 9.82004L14.3535 7.92821L13.82 6ZM23.6301 22.3121L23.6432 22.2955L24.0589 23.1058L24.4321 23.7309L24.8576 24.366L25.3191 24.9613L25.8232 25.5302L26.3175 26.013L26.9853 26.5621L27.5679 26.9656L28.0851 27.2698L28.7398 27.5907L29.3061 27.8156L30.0687 28.0504L30.7038 28.1893L31.4239 28.2852L32.0327 28.3183L32.73 28.2951L33.3617 30.058L34.0556 31.6852L34.4975 32.5981L34.9493 33.4547L35.7218 34.7776L36.6907 36.2395L37.748 37.6286L38.252 38.2239L38.9133 38.9516L40 40L38.9558 39.4146L38.1571 39.0045L37.4435 38.6671L36.4681 38.2471L35.4272 37.8436L34.5172 37.5294L33.545 37.2317L32.6056 36.9737L31.5679 36.7257L30.6023 36.5239L28.6809 36.2097L27.6465 36.0874L26.5499 35.9914L25.4501 35.9352L24.3175 35.9154L24.5957 35.7864L25.2504 35.6276L26.0164 35.5019L27.0802 35.3763L29.5385 35.1712L32.527 35.0091L32.599 34.9232L32.6841 34.7115L32.7365 34.4601L32.7496 34.2021L32.7136 33.8383L32.6448 33.5704L32.419 33.0016L32.0033 32.3202L31.6792 31.8969L31.365 31.543L30.802 30.9807L30.2095 30.4615L29.5417 29.929L28.072 28.8541L27.1555 28.0934L26.5696 27.5411L26.1277 27.0879L25.3159 26.1189L24.9885 25.6625L24.6579 25.1399L24.3928 24.6669L24.1473 24.1576L23.9902 23.7772L23.8036 23.215L23.6858 22.7189L23.6301 22.3121Z" fill="#1C1A16" fill-opacity="0.2"/>
<path fill-rule="evenodd" clip-rule="evenodd" d="M13.82 6L15.1719 6.52257L16.635 7.17412L18.2782 7.99767L19.8691 8.89728L21.2668 9.77704L22.4354 10.594L23.6105 11.5068L24.6841 12.4395L25.6039 13.3424L26.5434 14.3909L27.3126 15.3831L28 16.4216L28.5859 17.4899L29.0507 18.5482L29.3846 19.5272L29.6498 20.6021L29.7905 21.4984L29.8429 22.2525L29.0507 20.6484L28.1375 19.0245L27.2897 17.6982L26.3568 16.4249L25.4206 15.3368L24.6939 14.6257L23.9018 13.984L23.4075 13.6533L22.946 13.3953L22.5139 13.2035L22.1899 13.0877L21.8854 13.0051L21.4763 12.929L20.8478 12.8992L20.5074 12.9257L20.1244 12.9984L19.5483 13.187L19.2111 13.3457L18.8282 13.5706L18.4812 13.8121L18.1702 14.08L17.7807 14.5298L17.4992 14.9961L17.2733 15.5484L17.1129 16.2265L17.0573 16.7986L17.0606 17.4403L17.162 18.2936L17.3028 18.9286L17.509 19.5934L17.8331 20.3541L18.2128 21.0023L20.8052 24.3329L21.5646 25.4144L22.275 26.5654L22.7594 27.4848L23.162 28.434L23.4403 29.3667L23.5614 30.1837L23.5712 30.6037L23.5385 31.0204L23.473 31.371L23.3421 31.7944L23.0606 32.3599L22.7987 32.727L22.5205 33.0512L22.1833 33.3918L21.7578 33.7424L21.0736 34.179L20.6088 34.4006L20.1735 34.5693L19.293 34.8074L18.2684 34.9496L17.2144 34.9794L16.036 34.9033L15.3748 34.814L14.5827 34.6751L13.2537 34.3609L11.9378 33.9673L10.3437 33.3984L8.94599 32.8064L10.7758 33.0842L12.3208 33.243L13.8953 33.3191L15.3224 33.2893L16.383 33.1868L17.4599 32.9784L17.9509 32.8329L18.3863 32.6642L18.8085 32.4591L19.1719 32.221L19.5025 31.9399L19.7872 31.6125L20.0033 31.2519L20.1506 30.8782L20.239 30.4482L20.2619 29.9918L20.2193 29.5089L20.1178 29.0161L20.0098 28.6424L19.8101 28.1265L19.6268 27.8354L19.3322 27.4881L19.0311 27.2136L18.5728 26.8895L18.0917 26.6282L17.6759 26.4595L17.2177 26.3206L16.8511 26.2412L16.4255 26.185L16.0098 26.1652L15.2733 26.2148L14.766 26.3074L14.4583 26.3934L14.0687 26.5224L13.4435 26.7837L12.6187 27.2037L11.5712 27.8519L9.7545 29.1154L9.15876 29.4593L8.72013 29.6677L8.03928 29.8992L7.45008 30.015L6.61539 30.0547L6 30.0017L6.80524 29.6082L7.52864 29.1981L8.13093 28.8144L8.75941 28.3712L9.46318 27.8123L9.99018 27.3525L10.7169 26.6481L11.2308 26.0891L11.7185 25.5103L12.1899 24.8852L12.6972 24.1344L13.0769 23.5027L13.5057 22.6957L13.8298 21.9979L14.1178 21.2934L14.4484 20.3342L14.6154 19.7554L14.8576 18.7467L15.0344 17.7677L15.1228 17.1195L15.2111 16.1901L15.2537 15.3566L15.2602 14.457L15.234 13.5541L15.0867 11.8177L14.9591 10.9016L14.7758 9.82004L14.3535 7.92821L13.82 6ZM23.6301 22.3121L23.6432 22.2955L24.0589 23.1058L24.4321 23.7309L24.8576 24.366L25.3191 24.9613L25.8232 25.5302L26.3175 26.013L26.9853 26.5621L27.5679 26.9656L28.0851 27.2698L28.7398 27.5907L29.3061 27.8156L30.0687 28.0504L30.7038 28.1893L31.4239 28.2852L32.0327 28.3183L32.73 28.2951L33.3617 30.058L34.0556 31.6852L34.4975 32.5981L34.9493 33.4547L35.7218 34.7776L36.6907 36.2395L37.748 37.6286L38.252 38.2239L38.9133 38.9516L40 40L38.9558 39.4146L38.1571 39.0045L37.4435 38.6671L36.4681 38.2471L35.4272 37.8436L34.5172 37.5294L33.545 37.2317L32.6056 36.9737L31.5679 36.7257L30.6023 36.5239L28.6809 36.2097L27.6465 36.0874L26.5499 35.9914L25.4501 35.9352L24.3175 35.9154L24.5957 35.7864L25.2504 35.6276L26.0164 35.5019L27.0802 35.3763L29.5385 35.1712L32.527 35.0091L32.599 34.9232L32.6841 34.7115L32.7365 34.4601L32.7496 34.2021L32.7136 33.8383L32.6448 33.5704L32.419 33.0016L32.0033 32.3202L31.6792 31.8969L31.365 31.543L30.802 30.9807L30.2095 30.4615L29.5417 29.929L28.072 28.8541L27.1555 28.0934L26.5696 27.5411L26.1277 27.0879L25.3159 26.1189L24.9885 25.6625L24.6579 25.1399L24.3928 24.6669L24.1473 24.1576L23.9902 23.7772L23.8036 23.215L23.6858 22.7189L23.6301 22.3121Z" stroke="url(#paint0_linear_103_31989)" stroke-width="0.4" stroke-linejoin="round" mask="url(#path-2-outside-1_103_31989)"/>
<defs>
<linearGradient id="paint0_linear_103_31989" x1="23" y1="6" x2="10.5" y2="31.8333" gradientUnits="userSpaceOnUse">
<stop stop-color="white" stop-opacity="0"/>
<stop offset="0.524062" stop-color="#F2EEE2"/>
<stop offset="1" stop-color="#999999" stop-opacity="0"/>
</linearGradient>
</defs>
</svg>
