<svg width="84" height="67" viewBox="0 0 84 67" fill="none" xmlns="http://www.w3.org/2000/svg">
<path d="M79.8032 30.6791C80.739 31.195 81.3306 32.3256 81.3737 33.9721C81.4597 37.2542 79.3084 41.3046 76.5655 43.017C75.2639 43.8403 74.0484 43.972 73.1341 43.5329L69.2079 41.4473C68.3904 40.8875 67.8741 39.8008 67.8311 38.275C67.7451 34.993 69.8964 30.9425 72.6393 29.2301C73.9624 28.4069 75.1671 28.2752 76.0814 28.7142L79.7924 30.6791H79.8032Z" fill="#615D5A" stroke="#00402A" stroke-width="0.5" stroke-linecap="round" stroke-linejoin="round"/>
<path d="M76.4258 31.6999C73.855 33.3025 71.8435 37.1005 71.9188 40.174C71.9941 43.2475 74.1454 44.433 76.7162 42.8304C79.287 41.2278 81.2985 37.4298 81.2232 34.3563C81.1479 31.2828 78.9966 30.0973 76.4258 31.6999Z" fill="#615D5A" stroke="#00402A" stroke-width="0.5" stroke-linecap="round" stroke-linejoin="round"/>
<path d="M76.4578 32.9074C74.4356 34.1697 72.8544 37.1444 72.9189 39.5593C72.9834 41.9742 74.6722 42.9072 76.6945 41.6449C78.7167 40.3826 80.2979 37.3969 80.2334 34.982C80.1689 32.5671 78.4801 31.6341 76.4686 32.8964L76.4578 32.9074Z" fill="#615D5A" stroke="#00402A" stroke-width="0.5" stroke-linecap="round" stroke-linejoin="round"/>
<path d="M78.0284 35.1795C78.0284 35.1795 78.093 35.2674 78.1252 35.3113L78.9212 34.8173C79.0073 35.0698 79.0718 35.3552 79.0826 35.6954C79.0933 36.0357 79.0611 36.387 78.975 36.7382L78.179 37.2322C78.1468 37.32 78.1145 37.3968 78.093 37.4847L78.5125 38.0555C78.1683 38.769 77.695 39.4166 77.1464 39.8996L76.7269 39.3288C76.7269 39.3288 76.6624 39.3727 76.6301 39.3946C76.5978 39.4166 76.5333 39.4495 76.5333 39.4495L76.1568 40.5252C75.6082 40.7448 75.1026 40.7009 74.7369 40.4374L75.1134 39.3727C75.1134 39.3727 75.0489 39.2849 75.0166 39.241L74.2206 39.7349C74.1345 39.4824 74.07 39.197 74.0593 38.8568C74.0485 38.5165 74.0915 38.1652 74.1668 37.814L74.9628 37.32C74.9951 37.2432 75.0274 37.1554 75.0489 37.0675L74.6294 36.4968C74.9736 35.7833 75.4469 35.1356 75.9955 34.6526L76.4149 35.2234C76.4149 35.2234 76.4795 35.1795 76.5118 35.1576C76.544 35.1356 76.6086 35.1027 76.6086 35.1027L76.985 34.027C77.5336 33.8074 78.0392 33.8514 78.4049 34.1148L78.0284 35.1795Z" fill="#89837E" stroke="#00402A" stroke-width="0.5" stroke-linecap="round" stroke-linejoin="round"/>
<path d="M76.5547 36.3869C76.146 36.6394 75.8233 37.2541 75.8448 37.737C75.8663 38.22 76.1997 38.4176 76.6085 38.1542C77.0172 37.9017 77.3399 37.298 77.3184 36.804C77.2969 36.3101 76.9635 36.1235 76.5547 36.3869Z" fill="#D8CFC7" stroke="#00402A" stroke-width="0.5" stroke-linecap="round" stroke-linejoin="round"/>
<path d="M42.4348 52.1168C43.3706 52.6327 43.9622 53.7633 44.0052 55.4098C44.0913 58.6919 41.94 62.7423 39.1971 64.4547C37.8955 65.2779 36.68 65.4097 35.7657 64.9706L31.8396 62.885C31.0221 62.3252 30.5057 61.2385 30.4627 59.7127C30.3766 56.4306 32.528 52.3802 35.2709 50.6678C36.594 49.8446 37.7987 49.7129 38.713 50.1519L42.424 52.1168H42.4348Z" fill="#615D5A" stroke="#00402A" stroke-width="0.5" stroke-linecap="round" stroke-linejoin="round"/>
<path d="M38.8959 52.5887C36.1637 54.3011 34.0016 58.3625 34.0877 61.6336C34.1737 64.9157 36.4649 66.189 39.2078 64.4656C41.94 62.7532 44.1021 58.7028 44.016 55.4207C43.93 52.1387 41.6388 50.8654 38.8959 52.5887Z" fill="#615D5A" stroke="#00402A" stroke-width="0.5" stroke-linecap="round" stroke-linejoin="round"/>
<path d="M39.0894 54.334C37.0672 55.5963 35.486 58.582 35.5505 60.9969C35.615 63.4118 37.3038 64.3449 39.326 63.0825C41.3483 61.8202 42.9295 58.8345 42.865 56.4196C42.8004 54.0047 41.1116 53.0717 39.0894 54.334Z" fill="#615D5A" stroke="#00402A" stroke-width="0.5" stroke-linecap="round" stroke-linejoin="round"/>
<path d="M40.7566 56.7489L41.5526 56.255C41.6386 56.5075 41.7032 56.7928 41.7139 57.1331C41.7247 57.4734 41.6924 57.8247 41.6063 58.1759L40.8104 58.6699C40.7781 58.7467 40.7458 58.8345 40.7243 58.9223L41.1438 59.4931C40.7996 60.2066 40.3263 60.8543 39.7777 61.3372L39.3582 60.7665C39.3582 60.7665 39.2937 60.8104 39.2614 60.8323C39.2292 60.8543 39.1646 60.8872 39.1646 60.8872L38.7881 61.9629C38.2395 62.1825 37.734 62.1385 37.3683 61.8751L37.7447 60.8104C37.7447 60.8104 37.6802 60.7225 37.6479 60.6786L36.8519 61.1726C36.7551 60.9201 36.7014 60.6347 36.6906 60.2944C36.6798 59.9542 36.7229 59.6029 36.7982 59.2517L37.5941 58.7577C37.6264 58.6809 37.6587 58.593 37.6802 58.5052L37.2607 57.9344C37.6049 57.2209 38.0782 56.5733 38.6268 56.0903L39.0463 56.6611C39.0463 56.6611 39.1108 56.6172 39.1431 56.5953C39.1754 56.5733 39.2399 56.5404 39.2399 56.5404L39.6164 55.4647C40.165 55.2451 40.6705 55.289 41.0363 55.5525L40.6598 56.6172C40.6598 56.6172 40.7243 56.705 40.7566 56.7489Z" fill="#89837E" stroke="#00402A" stroke-width="0.5" stroke-linecap="round" stroke-linejoin="round"/>
<path d="M39.1863 57.8246C38.7775 58.0771 38.4548 58.6808 38.4764 59.1747C38.4979 59.6687 38.8313 59.8553 39.2401 59.5919C39.6488 59.3394 39.9715 58.7247 39.95 58.2417C39.9285 57.7587 39.595 57.5611 39.1863 57.8246Z" fill="#D8CFC7" stroke="#00402A" stroke-width="0.5" stroke-linecap="round" stroke-linejoin="round"/>
<path d="M81.4381 19.1645C82.9655 23.5223 83.4926 26.8812 83.4388 29.0875C83.3958 31.2829 82.7396 33.7197 82.7396 33.7197C82.7396 33.7197 82.3631 34.0819 81.5887 34.7186C81.6209 34.3564 81.6425 33.9941 81.6317 33.6429C81.5349 30.0644 79.0394 28.6704 76.0383 30.5474C73.0479 32.4245 70.6923 36.8481 70.7783 40.4375C70.7891 40.9315 70.8536 41.3925 70.9504 41.8096C64.3782 45.6734 53.159 52.0949 44.0482 57.243C44.1988 56.5075 44.2741 55.7831 44.2633 55.0806C44.1665 51.4911 41.671 50.1081 38.6699 51.9851C35.6796 53.8621 33.3239 58.2858 33.4099 61.8752C33.4207 62.3143 33.4745 62.7204 33.5498 63.0936C31.7642 64.0705 30.4734 64.7621 29.8925 65.0365C25.8481 66.9465 23.7398 66.5294 19.5232 65.3219C15.3066 64.1035 6.88422 58.3626 4.74366 56.9356C2.6031 55.5086 1.77483 53.2913 1.05414 51.9192C0.344208 50.5471 0.0645481 47.2321 0.376489 44.444C0.68843 41.6559 7.17464 33.8734 9.68093 31.1182C12.1872 28.363 19.7706 20.3061 28.107 14.2139C36.4433 8.11084 54.7187 1.09667 56.2892 0.460019C57.182 0.0868075 58.021 0.306346 58.5266 0.39416C59.1935 0.514905 60.7424 0.679556 65.8733 4.11529C71.015 7.55103 73.2416 10.7892 73.2416 10.7892C73.2416 10.7892 79.9214 14.8067 81.4488 19.1645H81.4273H81.4381Z" fill="#007F33" stroke="#00402A" stroke-width="0.5" stroke-linecap="round" stroke-linejoin="round"/>
<path d="M81.4382 19.2413C82.9656 23.5991 83.4927 26.958 83.4389 29.1643C83.3959 31.3597 82.7397 33.7965 82.7397 33.7965C82.7397 33.7965 82.3633 34.1587 81.5888 34.7954C81.6211 34.4332 81.6426 34.0709 81.6318 33.7197C81.535 30.1412 79.0395 28.7472 76.0384 30.6242C73.0481 32.5012 70.6924 36.9249 70.7784 40.5143C70.7892 41.0083 70.8537 41.4693 70.9505 41.8864C64.3783 45.7502 53.1591 52.1717 44.0483 57.3198C44.1989 56.5843 44.2742 55.8599 44.2634 55.1574C44.1666 51.5679 41.6711 50.1849 38.67 52.0619C35.6797 53.9389 33.324 58.3626 33.4101 61.952C33.4208 62.3911 33.4746 62.7972 33.5499 63.1704C31.7643 64.1473 30.4735 64.8389 29.8927 65.1133C25.8482 67.0233 23.7399 66.6062 19.5233 65.3987C15.3067 64.1803 6.88434 58.4394 4.74378 57.0124C2.77532 55.6952 1.91479 53.7084 1.22637 52.3363C1.16183 52.2156 1.10804 52.0948 1.05426 51.996C1.02199 51.9302 0.989725 51.8533 0.957455 51.7765C0.946698 51.7546 0.935943 51.7216 0.925187 51.6887C0.903673 51.6338 0.882163 51.5789 0.86065 51.524C0.86065 51.4911 0.839138 51.4582 0.828381 51.4252C0.806868 51.3704 0.785352 51.3155 0.774595 51.2606C0.763839 51.2167 0.753083 51.1728 0.742327 51.1399C0.73157 51.085 0.710054 51.0191 0.688541 50.9642C0.677784 50.9203 0.667029 50.8764 0.656272 50.8325C0.634759 50.7666 0.623999 50.7008 0.602486 50.6239C0.591729 50.5691 0.580974 50.5032 0.570217 50.4483C0.559461 50.3605 0.537944 50.2727 0.516431 50.1739C0.516431 50.108 0.494919 50.0422 0.484163 49.9763C0.484163 49.9214 0.473402 49.8665 0.462645 49.8116C0.451889 49.7458 0.441133 49.669 0.430377 49.6031C0.430377 49.5482 0.408875 49.5043 0.408875 49.4494C0.408875 49.3726 0.387358 49.2957 0.387358 49.2189C0.387358 49.164 0.376596 49.1201 0.36584 49.0762C0.36584 48.9884 0.344322 48.9006 0.344322 48.8128V48.714C0.312052 48.3956 0.290542 48.0554 0.279785 47.7151V47.6492C0.279785 47.5504 0.279785 47.4407 0.279785 47.3419V47.2321C0.279785 47.1333 0.279785 47.0345 0.279785 46.9357V46.8808C0.279785 46.4857 0.29054 46.0795 0.312054 45.6844C0.527185 46.7162 0.828373 47.781 1.29091 48.5384C1.45226 48.714 1.63512 48.8896 1.82874 49.0652C4.66847 51.546 10.9933 56.1782 15.296 57.7918C16.8342 58.3626 18.1357 58.659 19.2221 58.8017C20.4806 58.9334 21.6209 58.9553 22.4921 58.8675C24.4929 58.6809 29.9787 51.3045 31.5169 49.1201C33.0659 46.9357 42.693 32.1171 44.3925 29.768C46.0921 27.43 46.5761 25.9371 56.171 19.1644C65.7659 12.3918 73.2524 10.877 73.2524 10.877C73.2524 10.877 79.9323 14.8945 81.4597 19.2523H81.4489L81.4382 19.2413Z" fill="#00A443" stroke="#00402A" stroke-width="0.5" stroke-linecap="round" stroke-linejoin="round"/>
<path d="M76.06 30.5912C73.0696 32.4682 70.7139 36.8919 70.8 40.4813C70.8107 40.9752 70.8753 41.4363 70.9721 41.8534C64.3998 45.7172 53.1807 52.1387 44.0699 57.2868C44.2205 56.5513 44.2958 55.8269 44.285 55.1243C44.1882 51.5349 41.6927 50.1519 38.6916 52.0289C35.7013 53.9059 33.3456 58.3296 33.4316 61.919C33.4424 62.358 33.4962 62.7642 33.5715 63.1374C31.7859 64.1143 30.4951 64.8059 29.9142 65.0803C25.8697 66.9903 23.7615 66.5731 19.5449 65.3657C15.3283 64.1473 6.90589 58.4064 4.76533 56.9794C3.82951 56.3537 3.15184 55.5854 2.61401 54.806C9.43369 60.4152 19.2007 65.2669 24.7726 65.3218C26.8916 65.3437 29.5485 63.9826 31.2265 62.9728C31.9902 62.4898 32.8723 60.7554 33.0229 59.998C33.6898 56.6282 35.8949 53.1046 38.5625 51.4252C41.8325 49.3725 44.7691 50.6787 44.8659 54.6084C44.8659 54.7731 45.3607 55.4536 45.834 55.1024L69.3801 41.557C69.7458 41.3485 70.1761 40.2069 70.1976 39.8995C70.4665 36.1674 72.8975 31.8975 75.9201 29.9985C78.9427 28.0995 81.7609 29.2301 81.9653 32.5341C81.9868 32.9073 82.4279 33.0829 82.8904 33.1159C82.8044 33.522 82.729 33.7745 82.729 33.7745C82.729 33.7745 82.3526 34.1367 81.5781 34.7734C81.6104 34.4111 81.6319 34.0489 81.6211 33.6976C81.5243 30.1192 79.0288 28.7251 76.0277 30.6022L76.06 30.5912Z" fill="#007F33" stroke="#00402A" stroke-width="0.5" stroke-linecap="round" stroke-linejoin="round"/>
<g opacity="0.2">
<path d="M0.398193 49.3286V49.2737C0.398193 49.2737 0.398193 49.3066 0.398193 49.3286Z" fill="white" stroke="#423C37" stroke-width="0.5" stroke-linecap="round" stroke-linejoin="round"/>
<path d="M0.269043 46.8587C0.269043 46.4636 0.279798 46.0574 0.301311 45.6622C0.516443 46.6941 0.817631 47.7588 1.28016 48.5162C0.785362 47.9674 0.473418 47.4076 0.269043 46.8587Z" fill="white" stroke="#423C37" stroke-width="0.5" stroke-linecap="round" stroke-linejoin="round"/>
<path d="M0.279785 47.5818V47.4186C0.279785 47.473 0.279785 47.5274 0.279785 47.5818Z" fill="white" stroke="#423C37" stroke-width="0.5" stroke-linecap="round" stroke-linejoin="round"/>
<path d="M0.258301 46.8588V47.0219C0.258301 46.9676 0.258301 46.9132 0.258301 46.8588Z" fill="white" stroke="#423C37" stroke-width="0.5" stroke-linecap="round" stroke-linejoin="round"/>
<path d="M0.344482 48.7366V48.7029C0.344482 48.7029 0.344482 48.7253 0.344482 48.7366Z" fill="white" stroke="#423C37" stroke-width="0.5" stroke-linecap="round" stroke-linejoin="round"/>
<path d="M0.30127 48.2079V48.0883C0.30127 48.0883 0.30127 48.1753 0.30127 48.2079Z" fill="white" stroke="#423C37" stroke-width="0.5" stroke-linecap="round" stroke-linejoin="round"/>
</g>
<path d="M60.6028 6.87037C62.8509 8.38517 65.5723 10.7781 67.2826 12.3478C63.4425 13.9504 59.6132 16.1019 55.8807 18.7363C47.2001 24.8613 45.877 26.7603 44.4787 28.7581C44.3173 28.9886 44.156 29.2191 43.9839 29.4497C43.0588 30.723 39.8641 35.5747 36.777 40.2728C35.7551 41.8315 34.7655 43.3353 33.8942 44.6525C30.4951 43.5219 28.0641 42.5889 20.7712 38.4506C15.963 35.7284 12.8974 32.5561 11.144 30.3168L11.2516 30.207C12.1767 29.4387 14.2097 27.5836 16.5761 25.4431C20.4377 21.9415 25.2352 17.5837 27.1068 16.1897C29.5701 14.3566 30.5812 13.7858 33.9157 11.9087C34.6579 11.5026 35.4969 11.0196 36.4865 10.4598C41.768 7.46312 48.265 4.62014 52.8581 2.7431C55.8376 4.03837 58.4407 5.43241 60.592 6.88134L60.6028 6.87037Z" fill="white" stroke="#11422B" stroke-width="0.5" stroke-linecap="round" stroke-linejoin="round"/>
<path d="M13.0586 58.0551L13.1017 59.8334C13.1017 59.987 13.0479 60.0858 12.9941 60.1297C12.9511 60.1736 12.8758 60.2285 12.7575 60.2285C12.6499 60.2285 12.5531 60.1956 12.5316 60.1846C8.17516 58.3734 4.45339 55.1902 3.45303 54.1803C3.2379 53.9608 3.20562 53.6863 3.20562 53.6863L3.1626 51.9191C3.1626 51.5788 3.45303 51.4251 3.70043 51.6556C6.69076 54.312 11.5958 57.0343 12.6714 57.4843C12.7252 57.5172 13.0479 57.7038 13.0586 58.0441V58.0551Z" fill="#FFF5EC" stroke="#00402A" stroke-width="0.5" stroke-linecap="round" stroke-linejoin="round"/>
<path d="M31.1941 49.5811C30.6132 50.569 26.601 55.9696 24.3421 56.8697C22.7179 57.5174 16.9201 56.9136 16.8878 55.9586C16.8663 55.0037 19.5124 52.7205 23.7075 51.1398C27.9133 49.5592 31.2048 49.5811 31.2048 49.5811H31.1941Z" fill="#FFF5EC" stroke="#00402A" stroke-width="0.5" stroke-linecap="round" stroke-linejoin="round"/>
<path d="M2.47405 46.4308C2.02227 46.4418 1.67806 45.7502 1.40914 44.2354C1.28006 43.5219 1.35536 42.6438 1.62427 41.6339C3.02263 39.2739 5.3568 36.2663 7.30375 33.9282V34.1148C7.32526 34.9381 7.18543 35.8711 6.89501 36.87C6.27112 39.0654 3.33457 45.6405 2.90431 46.1783C2.76447 46.343 2.6354 46.4308 2.47405 46.4308Z" fill="#FFF5EC" stroke="#00402A" stroke-width="0.5" stroke-linecap="round" stroke-linejoin="round"/>
<path d="M81.4167 19.1315C81.2123 20.3938 80.7283 21.0524 79.9646 21.0744C79.1794 21.0963 78.3296 20.3938 77.8993 19.9877C77.5981 19.7023 77.4475 19.362 77.4583 18.9998C77.4583 18.1436 78.2973 17.3642 78.7061 16.991L78.7814 16.9142C78.9535 16.7495 78.9965 16.2556 78.9104 15.586L78.8782 15.3555C79.9754 16.508 80.9327 17.8033 81.4275 19.1315H81.4167Z" fill="#FF9C1A" stroke="#00402A" stroke-width="0.5" stroke-linecap="round" stroke-linejoin="round"/>
<path d="M68.1966 12.5125C65.131 13.7419 60.9037 15.8056 56.1708 19.1425C46.5759 25.9152 46.0919 27.408 44.3923 29.7461C43.0262 31.6341 36.5615 41.5571 33.2593 46.5296C29.6343 45.2673 25.0843 43.1378 18.7271 39.5264C12.1118 35.7833 9.92822 30.9206 9.92822 30.9206L10.9286 29.8339C13.3058 27.8691 23.7827 18.0338 26.8268 15.7726C29.8709 13.5004 30.7745 13.1162 36.2603 10.0098C41.7032 6.91435 48.4368 4.00551 52.8793 2.19434C55.0198 3.11639 58.0639 4.55434 60.8822 6.45332C63.4315 8.17668 66.5616 10.9867 68.1966 12.5125Z" fill="#FFF5EC" stroke="#00402A" stroke-width="0.5" stroke-linecap="round" stroke-linejoin="round"/>
<path d="M60.6028 6.87037C62.8509 8.38517 65.5723 10.7781 67.2826 12.3478C63.4425 13.9504 59.6132 16.1019 55.8807 18.7363C47.2001 24.8613 45.877 26.7603 44.4787 28.7581C44.3173 28.9886 44.156 29.2191 43.9839 29.4497C43.0588 30.723 39.8641 35.5747 36.777 40.2728C35.7551 41.8315 34.7655 43.3353 33.8942 44.6525C30.4951 43.5219 28.0641 42.5889 20.7712 38.4506C15.963 35.7284 12.8974 32.5561 11.144 30.3168L11.2516 30.207C12.1767 29.4387 14.2097 27.5836 16.5761 25.4431C20.4377 21.9415 25.2352 17.5837 27.1068 16.1897C29.5701 14.3566 30.5812 13.7858 33.9157 11.9087C34.6579 11.5026 35.4969 11.0196 36.4865 10.4598C41.768 7.46312 48.265 4.62014 52.8581 2.7431C55.8376 4.03837 58.4407 5.43241 60.592 6.88134L60.6028 6.87037Z" fill="#B6E5FF" stroke="#00402A" stroke-width="0.5" stroke-linecap="round" stroke-linejoin="round"/>
<path d="M71.1335 16.5629C71.8112 19.6364 69.6921 24.0271 66.0994 26.9908C62.496 29.9546 42.4242 43.6646 39.2295 45.5087C38.6594 45.838 38.2614 45.9807 37.9817 45.9807C36.7017 46.0136 38.0678 43.2475 38.0678 43.2475C38.0678 43.2475 43.8118 34.1916 45.8663 30.8766C48.62 26.431 57.0747 20.1194 60.1833 18.6155C62.3884 17.5618 66.6265 15.4323 69.1543 15.3554C70.1977 15.3225 70.9614 15.6518 71.1551 16.5519L71.1335 16.5629Z" fill="#5BD38C" stroke="#00402A" stroke-width="0.5" stroke-linecap="round" stroke-linejoin="round"/>
<path d="M65.6905 26.4859C65.3355 26.7713 64.8085 27.1884 64.1308 27.6824L61.603 19.2193C61.603 19.2193 61.6568 18.89 61.8934 18.5277C64.1416 17.452 67.2287 16.0799 69.1541 16.025C70.3481 15.9921 70.4557 16.497 70.5095 16.7056C71.1334 19.5486 69.1111 23.6649 65.6905 26.4859Z" fill="#B6E5FF" stroke="#00402A" stroke-width="0.5" stroke-linecap="round" stroke-linejoin="round"/>
<path d="M61.1189 28.3191C61.0328 28.9667 60.8285 29.6692 60.3552 30.4047C56.7087 32.9952 51.922 36.2992 47.7484 39.1203C46.9094 38.9995 46.1995 38.6153 45.9629 38.0445C45.6186 37.2213 45.6509 34.532 45.8338 33.0172C45.9091 32.3695 46.2533 31.5682 46.619 30.8657C48.9747 27.3751 54.751 22.7209 58.4297 20.3719C58.9138 20.4158 59.3656 20.6463 59.5592 21.272C60.0647 22.9185 61.2695 27.2982 61.1189 28.3191Z" fill="#B6E5FF" stroke="#00402A" stroke-width="0.5" stroke-linecap="round" stroke-linejoin="round"/>
<path d="M43.3169 41.5461C43.177 41.8315 42.9619 42.1608 42.736 42.4791C40.9397 43.6646 39.5628 44.5537 38.8959 44.9379C38.4549 45.1904 38.186 45.2782 38.0461 45.3111C38.0461 44.9599 38.2936 44.2134 38.5947 43.5768C38.8529 43.1707 41.5851 38.8677 43.8762 35.2234C43.9085 37.0017 43.7149 40.7228 43.3169 41.5351V41.5461Z" fill="#B6E5FF" stroke="#00402A" stroke-width="0.5" stroke-linecap="round" stroke-linejoin="round"/>
<path d="M52.8686 2.7321C55.8482 4.02736 58.4513 5.42142 60.6026 6.87036C62.8507 8.38516 65.5722 10.7781 67.2825 12.3478C63.4424 13.9504 59.613 16.1018 55.8805 18.7363C49.362 23.3355 46.9955 25.5529 45.6295 27.2104C42.5746 25.9041 40.9503 24.9821 35.8087 21.7C31.4738 18.9229 29.032 16.7385 27.8918 15.5969C29.8388 14.1919 30.9682 13.5552 33.9263 11.8868C34.6685 11.4806 35.5075 10.9976 36.4971 10.4378C41.7786 7.44115 48.2756 4.59816 52.8686 2.72113V2.7321Z" fill="#00A443" stroke="#00402A" stroke-width="0.5" stroke-linecap="round" stroke-linejoin="round"/>
<path d="M58.9892 34.4331C59.1075 34.1916 59.4947 33.8623 59.8605 33.6977C60.2262 33.533 60.678 33.4671 60.8608 33.555C61.0437 33.6428 61.2265 33.9831 61.2481 34.3124C61.2803 34.6526 61.1943 35.1356 61.0652 35.3881C60.9361 35.6405 60.5489 35.9918 60.2154 36.1565C59.8712 36.3101 59.4302 36.4089 59.2366 36.365C59.043 36.3101 58.8493 35.9589 58.8171 35.5637C58.7848 35.1685 58.8601 34.6526 58.9784 34.4221L58.9892 34.4331Z" fill="#5BD38C" stroke="#00402A" stroke-width="0.5" stroke-linecap="round" stroke-linejoin="round"/>
<path d="M62.1517 33.3135C62.1517 33.1928 62.0549 33.1379 61.9474 33.1928L58.3654 35.4101C58.2578 35.476 58.1718 35.6186 58.1826 35.7504V36.0797C58.1933 36.2004 58.2794 36.2553 58.3869 36.2004L61.9689 33.9831C62.0764 33.9172 62.1625 33.7745 62.1517 33.6428V33.3135Z" fill="#007F33" stroke="#00402A" stroke-width="0.5" stroke-linecap="round" stroke-linejoin="round"/>
<path d="M45.7801 38.4397C45.7478 38.1982 46.1243 38.0445 46.1243 38.0445C46.1243 38.0445 48.5123 38.275 49.2437 38.769C49.9752 39.2629 50.1903 40.2069 49.5987 40.5362C49.0071 40.8655 45.3929 40.8655 45.3929 40.8655L44.2634 41.4802C44.2634 41.4802 43.973 41.59 44.0913 40.2947C44.1989 38.9995 45.651 38.0665 45.651 38.0665V38.6702C45.651 38.6702 45.8124 38.6812 45.7801 38.4506V38.4397Z" fill="#007F33" stroke="#00402A" stroke-width="0.5" stroke-linecap="round" stroke-linejoin="round"/>
<path d="M16.9846 26.6835C18.5981 26.014 30.226 33.5331 33.3992 35.443C35.3353 36.6066 37.0349 37.5835 38.0568 38.3628C37.6373 38.9995 37.2177 39.6362 36.7875 40.2728C35.7656 41.8315 34.776 43.3353 33.9047 44.6525C30.5056 43.5219 28.0746 42.5889 20.7817 38.4507C15.9735 35.7284 12.9079 32.5561 11.1545 30.3169L11.2621 30.2071C11.445 30.0644 11.6709 29.8668 11.9183 29.6473C13.3381 28.7252 15.8552 27.1446 16.9846 26.6835Z" fill="#D8CFC7" stroke="#00402A" stroke-width="0.5" stroke-linecap="round" stroke-linejoin="round"/>
<path d="M30.5597 30.0754C30.2585 30.8547 30.6243 31.689 30.9039 32.1719C31.0223 32.2159 31.1298 32.2598 31.2374 32.3037C31.2912 32.3256 31.3557 32.3366 31.4203 32.3476C31.3987 32.0951 31.5386 31.8975 31.7752 32.0073C31.9581 32.0951 32.3776 32.5013 32.7326 32.8635C33.0122 33.0062 33.2704 33.1599 33.5285 33.3245C33.6684 33.2806 33.8943 33.2696 34.2492 33.3684C34.3353 33.3904 34.3998 33.4233 34.4644 33.4562L35.9165 33.7197C36.0886 34.5539 35.5615 34.8393 35.3141 34.9271C35.4755 35.1247 35.6261 35.3223 35.7444 35.5199C38.4013 34.7625 35.6368 31.5024 35.6368 31.5024C33.2489 29.0765 30.9792 28.9338 30.5275 30.0863L30.5597 30.0754Z" fill="#615D5A" stroke="#00402A" stroke-width="0.5" stroke-linecap="round" stroke-linejoin="round"/>
<path d="M32.3345 30.1961C31.1513 29.9655 31.3987 30.3607 31.5062 30.5473C31.6246 30.7339 32.7217 31.5572 33.0982 31.6011C33.4532 31.634 34.5396 31.8975 35.099 32.4134L35.3679 32.4792C35.2065 32.2377 35.0236 31.9743 34.787 31.6889V31.656C34.1739 31.1291 33.1305 30.3278 32.3453 30.1851L32.3345 30.1961Z" fill="#B6E5FF" stroke="#00402A" stroke-width="0.5" stroke-linecap="round" stroke-linejoin="round"/>
<path d="M25.988 31.0522C25.988 31.0522 28.8169 29.5923 32.9044 32.0731C36.9812 34.5538 37.7126 38.1542 37.7126 38.1542C37.7126 38.1542 33.9693 38.8128 29.1611 36.1784C24.353 33.544 25.9772 31.0412 25.9772 31.0412L25.988 31.0522Z" fill="#B0A9A3" stroke="#00402A" stroke-width="0.5" stroke-linecap="round" stroke-linejoin="round"/>
</svg>
