<svg width="102" height="73" viewBox="0 0 102 73" fill="none" xmlns="http://www.w3.org/2000/svg">
<path d="M51.4922 50.8307L54.1948 55.857L52.2371 58.808L43.1849 53.519L51.4922 50.8307Z" fill="#26231F" stroke="#00402A" stroke-width="0.5" stroke-linejoin="round"/>
<path d="M95.2026 25.3226L97.9053 30.3489L95.9476 33.2999L86.8954 28.0109L95.2026 25.3226Z" fill="#26231F" stroke="#00402A" stroke-width="0.5" stroke-linejoin="round"/>
<path d="M42.4486 54.5961C43.9991 53.6854 45.4111 53.6154 46.4159 54.2283L49.8982 56.2599L41.9635 69.9903L38.4812 67.9587C37.4937 67.3633 36.8873 66.1111 36.8873 64.3422C36.8873 60.7608 39.3734 56.4 42.4486 54.6049V54.5961Z" fill="#3A3735" stroke="#00402A" stroke-width="0.5" stroke-linejoin="round"/>
<path d="M40.3697 66.3651C40.3697 69.9465 42.8558 71.4001 45.9309 69.6138C49.0061 67.8187 51.4922 63.4666 51.4922 59.8764C51.4922 56.2862 49.0061 54.8413 45.9309 56.6277C42.8558 58.4228 40.3697 62.7748 40.3697 66.3651Z" fill="#615D5A" stroke="#00402A" stroke-width="0.5" stroke-linejoin="round"/>
<path d="M45.9398 67.7486C48.0534 66.5664 49.8032 63.5804 49.8379 61.0848C49.8725 58.5891 48.192 57.5208 46.0697 58.703C43.9561 59.8851 42.2063 62.8711 42.1717 65.3668C42.137 67.8624 43.8175 68.9307 45.9398 67.7486Z" fill="#D8CFC7" stroke="#00402A" stroke-width="0.5" stroke-linejoin="round"/>
<path d="M45.9483 67.1093C47.7674 66.0936 49.266 63.5279 49.3007 61.3737C49.3353 59.2196 47.88 58.3089 46.0609 59.3247C44.2418 60.3404 42.7433 62.9061 42.7086 65.0603C42.674 67.2144 44.1292 68.1251 45.9483 67.1093Z" fill="#89837E" stroke="#00402A" stroke-width="0.5" stroke-linejoin="round"/>
<path d="M45.7924 65.3143C46.8232 64.7363 47.6721 63.2915 47.6894 62.0743C47.7068 60.8572 46.8925 60.3405 45.8617 60.9184C44.8308 61.4964 43.9819 62.9412 43.9646 64.1584C43.9473 65.3756 44.7615 65.8922 45.7924 65.3143Z" fill="#D8CFC7" stroke="#00402A" stroke-width="0.5" stroke-linejoin="round"/>
<path d="M43.7741 62.0217C44.2245 61.1986 44.8656 60.4805 45.5759 60.0865C46.9185 59.3334 47.984 60.0164 47.958 61.5926C47.932 63.1776 46.8319 65.0603 45.4893 65.8133C44.2072 66.5314 43.1677 65.9359 43.1071 64.4911C43.1071 63.5629 43.367 62.7485 43.7654 62.0217H43.7741ZM43.9647 64.2984C44.008 65.4105 44.8049 65.8659 45.7924 65.3142C46.8233 64.7363 47.6722 63.2914 47.6895 62.0743C47.7068 60.8571 46.8926 60.3404 45.8617 60.9184C45.316 61.2249 44.8223 61.7765 44.4758 62.407C44.3198 62.6872 44.1986 62.9849 44.1119 63.2827C44.0253 63.5804 43.9733 63.8781 43.9733 64.1671C43.9733 64.2196 43.9733 64.2634 43.9733 64.316L43.9647 64.2984Z" fill="#B0A9A3" stroke="#00402A" stroke-width="0.5" stroke-linejoin="round"/>
<path d="M86.1417 29.0967C87.6922 28.186 89.1042 28.116 90.109 28.7202L93.5913 30.7517L85.6566 44.4821L82.1743 42.4506C81.1868 41.8551 80.5804 40.6029 80.5804 38.8341C80.5804 35.2526 83.0665 30.8918 86.1417 29.0967Z" fill="#3A3735" stroke="#00402A" stroke-width="0.5" stroke-linejoin="round"/>
<path d="M84.0628 40.8656C84.0628 44.4471 86.5489 45.9007 89.6241 44.1143C92.6992 42.3192 95.1853 37.9672 95.1853 34.377C95.1853 30.7867 92.6992 29.3419 89.6241 31.1282C86.5489 32.9233 84.0628 37.2754 84.0628 40.8656Z" fill="#615D5A" stroke="#00402A" stroke-width="0.5" stroke-linejoin="round"/>
<path d="M89.6329 42.2492C91.7465 41.067 93.4963 38.081 93.531 35.5766C93.5656 33.0809 91.8851 32.0126 89.7628 33.1948C87.6492 34.3769 85.8994 37.3629 85.8648 39.8673C85.8301 42.363 87.5106 43.4313 89.6329 42.2492Z" fill="#D8CFC7" stroke="#00402A" stroke-width="0.5" stroke-linejoin="round"/>
<path d="M89.6414 41.6099C91.4605 40.5942 92.9591 38.0285 92.9938 35.8743C93.0284 33.7202 91.5731 32.8095 89.7541 33.8253C87.935 34.841 86.4364 37.4067 86.4017 39.5609C86.3671 41.7063 87.8223 42.6257 89.6414 41.6099Z" fill="#89837E" stroke="#00402A" stroke-width="0.5" stroke-linejoin="round"/>
<path d="M89.4767 39.8148C90.5075 39.2369 91.3564 37.792 91.3738 36.5749C91.3911 35.3577 90.5768 34.8411 89.546 35.419C88.5152 35.9969 87.6663 37.4418 87.6489 38.659C87.6316 39.8761 88.4459 40.3928 89.4767 39.8148Z" fill="#D8CFC7" stroke="#00402A" stroke-width="0.5" stroke-linejoin="round"/>
<path d="M87.4584 36.5223C87.9089 35.6992 88.5499 34.9812 89.2602 34.5871C90.6029 33.834 91.6683 34.5171 91.6424 36.0933C91.6164 37.6782 90.5162 39.5609 89.1736 40.314C87.8916 41.032 86.8521 40.4365 86.7914 38.9917C86.7914 38.0635 87.0513 37.2491 87.4498 36.5223H87.4584ZM87.649 38.7991C87.6923 39.9111 88.4893 40.3665 89.4768 39.8148C90.5076 39.2369 91.3565 37.792 91.3738 36.5749C91.3911 35.3577 90.5769 34.8411 89.5461 35.419C89.0003 35.7255 88.5066 36.2771 88.1601 36.9076C88.0042 37.1878 87.8829 37.4856 87.7963 37.7833C87.7096 38.081 87.6577 38.3787 87.6577 38.6677C87.6577 38.7202 87.6577 38.764 87.6577 38.8166L87.649 38.7991Z" fill="#B0A9A3" stroke="#00402A" stroke-width="0.5" stroke-linejoin="round"/>
<path d="M1.71835 44.4559L1.77898 38.2912L4.62025 25.6028C4.96674 24.7271 5.35654 24.0178 6.10151 23.58L36.4458 7.35395C36.6017 7.26638 45.2987 7.1613 48.166 7.13503C48.755 7.13503 49.3441 7.1613 49.9244 7.2226L57.9371 8.07199L74.4476 0.733922C79.2552 -0.570819 94.449 8.69371 99.1354 14.333C99.7158 15.0248 99.8977 15.9617 99.6551 16.8286C99.5079 17.3365 99.3952 17.8969 99.4386 18.291C99.5685 19.4118 100.729 20.1649 100.729 21.566C100.729 24.6571 100.504 26.5485 100.504 26.5485C100.504 29.9373 98.4597 32.2316 97.5588 32.9409C97.4462 33.0284 96.3894 33.6589 96.3894 33.6589V33.1948C96.3894 29.5783 93.4875 28.3436 89.9186 30.4277C86.341 32.5118 83.4478 37.1353 83.4478 40.7518C83.4478 40.7518 83.4478 40.9444 83.4478 41.2159L52.6791 59.1758V58.7117C52.6791 55.0952 49.7772 53.8605 46.2083 55.9446C42.6307 58.0287 39.7375 62.6522 39.7375 66.2687V66.7328L33.5092 70.3668C33.5092 70.3668 26.1289 72.5735 25.1674 72.0043L2.89643 59.0007C2.14281 58.5628 1.67503 57.7572 1.67503 56.8728C1.65771 53.7642 1.6144 47.8797 1.60574 45.6905C1.60574 45.2702 1.64905 44.8587 1.74434 44.4471L1.71835 44.4559Z" fill="#FFFEFF" stroke="#00402A" stroke-width="0.5" stroke-linejoin="round"/>
<path d="M48.9628 54.5785C50.8425 54.6311 52.0986 55.9708 52.0986 58.3439V58.808L82.8673 40.8481V40.384C82.8673 38.0022 84.1234 35.1913 86.0031 32.9496L48.9541 54.5698L48.9628 54.5785ZM100.019 24.7797C99.9755 25.6378 99.9322 26.1807 99.9322 26.1807C99.9322 29.5695 97.8879 31.8638 96.987 32.5731C96.8744 32.6606 95.8175 33.2911 95.8175 33.2911V32.827C95.8175 30.4452 94.5615 29.1054 92.6818 29.0617L100.019 24.7797ZM42.2928 58.4665C40.413 60.7082 39.157 63.5191 39.157 65.9009V66.365L32.9287 69.999C32.9287 69.999 25.5484 72.2057 24.5869 71.6365L22.1614 70.2179L42.3014 58.4665H42.2928Z" fill="#FFF5EC" stroke="#00402A" stroke-width="0.5" stroke-linejoin="round"/>
<path d="M98.3729 16.0318C92.8376 19.7796 90.3342 20.7866 83.5949 23.3698C83.2657 23.4924 82.8845 23.4399 82.5987 23.2297C69.8563 13.8076 66.504 11.8986 57.5471 7.69544L74.0143 0.374887C78.8132 -0.929854 93.955 8.2909 98.6674 13.9389C99.2044 14.5869 99.0658 15.5589 98.3729 16.0318Z" fill="#FFFEFF" stroke="#00402A" stroke-width="0.5" stroke-linejoin="round"/>
<path d="M4.92319 23.7552C4.98383 23.4312 5.47758 22.7569 5.75478 22.5905L35.6226 5.51506C35.8132 5.40123 36.0558 5.40123 36.2463 5.51506C42.7778 9.14907 50.1408 13.3347 56.7848 17.5029C57.0707 17.678 57.062 18.0984 56.7675 18.2647C52.0638 21.0143 33.2925 31.6712 27.428 35.095C26.7957 35.4628 26.0161 35.4628 25.3837 35.095L4.91453 23.7639L4.92319 23.7552Z" fill="#FFFEFF" stroke="#00402A" stroke-width="0.5" stroke-linejoin="round"/>
<path d="M78.8914 21.9514C74.95 18.3962 68.0287 13.3611 57.8245 8.49242C57.426 8.29978 57.0275 8.25599 56.5944 8.20345C55.7455 8.09837 48.1919 7.12639 44.6144 7.57297C51.2584 11.0669 55.8754 12.932 63.7755 17.8708L78.848 21.9426H78.8827L78.8914 21.9514Z" fill="#B4DEF7" stroke="#00402A" stroke-width="0.5" stroke-linejoin="round"/>
<path d="M58.933 20.8041C59.4441 22.1264 62.9004 29.8322 63.5587 35.2614C63.6107 35.6642 63.8965 35.8481 64.2257 35.6554L78.5186 27.3103C78.7785 27.1615 78.9431 26.7587 78.9258 26.3821L78.6226 24.8847C78.5793 24.7359 78.51 24.6308 78.4147 24.5695C77.5398 23.9653 68.4183 20.0073 66.2874 19.622C65.8716 19.5519 62.7098 18.7814 62.1901 19.0878L59.3748 19.9723C58.7251 20.3576 58.9243 20.7954 58.9243 20.7954L58.933 20.8041Z" fill="#B4DEF7" stroke="#00402A" stroke-width="0.5" stroke-linejoin="round"/>
<path d="M97.0215 18.7901C96.4498 19.3243 96.2332 20.2613 96.3372 21.0318C96.4411 21.8024 96.5364 22.4854 97.4719 22.5818C98.1996 22.6518 100.097 20.883 100.218 20.1211C100.452 18.6238 99.9494 16.1369 99.3257 15.7166C98.8579 17.1614 97.9484 17.9232 97.0215 18.7901Z" fill="#B4DEF7" stroke="#00402A" stroke-width="0.5" stroke-linejoin="round"/>
<path d="M97.0216 18.7902C97.1428 18.6763 97.2554 18.5625 97.3767 18.4487C97.1948 19.7622 97.7665 21.8375 98.0784 22.3892C97.8445 22.5118 97.6366 22.5906 97.4807 22.5818C96.5451 22.4855 96.4498 21.8112 96.3459 21.0319C96.2419 20.2613 96.4585 19.3156 97.0302 18.7902H97.0216Z" fill="#C66D00" stroke="#00402A" stroke-width="0.5" stroke-linejoin="round"/>
<path d="M97.1516 27.6168C97.0216 27.7131 96.935 27.8707 96.935 28.0284L96.9523 32.6606L97.6193 33.0021C100.261 31.461 101.11 31.137 101.405 26.6711V22.4153C101.405 21.7674 101.136 21.1456 100.677 20.699L100.287 20.3225L100.27 21.7411C100.227 23.1597 100.755 24.946 97.1602 27.608L97.1516 27.6168Z" fill="#003020" stroke="#00402A" stroke-width="0.5" stroke-linejoin="round"/>
<path d="M1.01641 50.5505L1.18966 50.4192V51.5838C1.18966 52.083 1.42354 52.5471 1.83067 52.836C3.92696 54.3159 11.1167 59.2196 22.7243 65.4894C24.8033 66.6102 27.6965 66.584 29.8448 65.612C32.0624 64.605 34.4532 63.1951 35.3021 62.6873C35.4667 62.5822 35.6486 62.4333 35.8478 62.4246C36.3416 62.3983 36.8526 62.7661 36.87 63.2564C36.87 63.2827 36.87 67.1882 36.87 67.1969C36.87 67.6435 37.0172 67.985 36.6448 68.2477C33.9334 70.0866 28.7187 72.5297 25.3923 72.0306C21.3557 71.4351 1.81335 58.4403 1.81335 58.4403C0.695904 57.5033 0.158836 56.2511 0.262783 53.4577C0.297432 52.6171 0.245453 51.1547 1.01641 50.5505Z" fill="#003020" stroke="#00402A" stroke-width="0.5" stroke-linejoin="round"/>
<path opacity="0.5" d="M78.7615 3.26465C74.0607 4.89922 69.6746 6.39661 65.6033 7.75681C69.5447 6.03175 75.3831 3.90388 78.7615 3.26465Z" fill="#DCD2AA" stroke="#00402A" stroke-width="0.5" stroke-linejoin="round"/>
<path d="M93.4265 11.7849C93.4265 11.7849 93.3052 11.96 93.0454 12.2139C92.7855 12.4679 92.4217 12.8444 91.9626 13.2647C91.4948 13.6763 90.9751 14.1842 90.3774 14.6833C89.7883 15.1824 89.156 15.7253 88.5236 16.2595C87.8739 16.7761 87.2243 17.284 86.6179 17.7656C86.0115 18.2473 85.4138 18.6588 84.9114 19.0354C84.4176 19.4031 83.9672 19.6833 83.6727 19.8847C83.3695 20.0862 83.1963 20.2 83.1963 20.2C83.1703 20.1737 85.7343 18.0634 88.2897 15.9618C90.8625 13.8689 93.4265 11.7849 93.4265 11.7849Z" fill="#C5BD9D" stroke="#00402A" stroke-width="0.5" stroke-linejoin="round"/>
<path d="M78.4321 24.7271C78.6227 24.8672 80.1819 26.4785 80.4331 26.7324L79.7921 28.2998L78.3628 27.144C78.2762 27.0739 78.2155 26.9776 78.1896 26.8638C78.0423 26.0406 77.8084 24.263 78.4321 24.7271Z" fill="#D8CFC7" stroke="#00402A" stroke-width="0.5" stroke-linejoin="round"/>
<path d="M79.3937 28.2648C79.2204 28.1072 79.1338 27.8795 79.1511 27.6518C79.1858 27.2053 79.2638 26.4347 79.4717 25.8217C79.5843 25.4714 79.8008 25.235 80.182 25.4452C81.9404 26.4172 83.5863 28.5012 83.1012 29.5783C82.5121 30.883 80.5631 29.3681 79.385 28.2648H79.3937Z" fill="#D6CFAD" stroke="#00402A" stroke-width="0.5" stroke-linejoin="round"/>
<path d="M79.1597 27.6519C79.1943 27.2054 79.2723 26.4348 79.4802 25.8218C79.5148 25.7167 79.5668 25.6292 79.6188 25.5504C81.3945 26.5311 83.0491 28.6152 82.564 29.6922C82.486 29.8586 82.3821 29.9812 82.2694 30.06C81.4205 29.99 80.2251 29.0355 79.4022 28.2649C79.229 28.1073 79.1423 27.8796 79.1597 27.6519Z" fill="#A9EFFF" stroke="#00402A" stroke-width="0.5" stroke-linejoin="round"/>
<path d="M46.7366 48.8166L48.7463 47.6432C48.9455 47.5294 49.1101 47.2667 49.1101 47.0653V46.5574C49.1101 46.356 48.9455 46.286 48.7463 46.3998L46.7366 47.5732C46.5374 47.687 46.3728 47.9497 46.3728 48.1511V48.659C46.3728 48.8604 46.5374 48.9305 46.7366 48.8166Z" fill="#282523" stroke="#00402A" stroke-width="0.5" stroke-linejoin="round"/>
<path d="M64.5809 38.4051L66.5905 37.2317C66.7898 37.1178 66.9543 36.8551 66.9543 36.6537V36.1459C66.9543 35.9445 66.7898 35.8744 66.5905 35.9882L64.5809 37.1616C64.3816 37.2755 64.217 37.5382 64.217 37.7396V38.2475C64.217 38.4489 64.3816 38.5189 64.5809 38.4051Z" fill="#615D5A" stroke="#00402A" stroke-width="0.5" stroke-linejoin="round"/>
<path d="M32.0798 63.1513L33.3185 62.4245C33.5004 62.3194 33.6477 62.083 33.6477 61.8991C33.6477 61.5751 33.5004 61.505 33.3185 61.6101L32.0798 62.3369C31.8979 62.442 31.7506 62.6784 31.7506 62.8623C31.7506 63.1863 31.8979 63.2564 32.0798 63.1425V63.1513Z" fill="#D35905" stroke="#00402A" stroke-width="0.5" stroke-linejoin="round"/>
<path d="M80.953 34.6222L82.2004 33.8954C82.3823 33.7903 82.5295 33.5539 82.5295 33.37C82.5295 33.046 82.3823 32.976 82.2004 33.0898L80.953 33.8166C80.7711 33.9217 80.6238 34.1581 80.6238 34.342C80.6238 34.666 80.7711 34.7361 80.953 34.631V34.6222Z" fill="#FF9C1A" stroke="#00402A" stroke-width="0.5" stroke-linejoin="round"/>
<g opacity="0.4" style="mix-blend-mode:multiply">
<path d="M34.7392 54.7187L36.7748 53.5278C36.9914 53.4052 37.208 53.379 37.3552 53.4665C37.4851 53.5454 37.5544 53.6855 37.5544 53.8781V55.0077C37.5544 55.4105 37.2339 55.9272 36.8355 56.1636L34.7998 57.3545C34.6699 57.4333 34.5399 57.4683 34.4273 57.4683C34.3494 57.4683 34.2801 57.4508 34.2194 57.4158C34.0895 57.337 34.0202 57.1969 34.0202 57.0042V55.8746C34.0202 55.4718 34.3407 54.9552 34.7392 54.7187ZM34.1328 56.9955C34.1328 57.1443 34.1848 57.2494 34.2714 57.3019C34.384 57.372 34.5573 57.3457 34.7392 57.2407L36.7748 56.0497C37.1386 55.8396 37.4332 55.3667 37.4332 54.999V53.8693C37.4332 53.7205 37.3812 53.6154 37.2946 53.5629C37.052 53.5278 36.9481 53.5629 36.8355 53.6242L34.7998 54.8151C34.436 55.0252 34.1328 55.4981 34.1328 55.8659V56.9955Z" fill="#CDC6A7"/>
<path d="M34.7392 54.7187L36.7748 53.5278C36.9914 53.4052 37.208 53.379 37.3552 53.4665C37.4851 53.5454 37.5544 53.6855 37.5544 53.8781V55.0077C37.5544 55.4105 37.2339 55.9272 36.8355 56.1636L34.7998 57.3545C34.6699 57.4333 34.5399 57.4683 34.4273 57.4683C34.3494 57.4683 34.2801 57.4508 34.2194 57.4158C34.0895 57.337 34.0202 57.1969 34.0202 57.0042V55.8746C34.0202 55.4718 34.3407 54.9552 34.7392 54.7187ZM34.1328 56.9955C34.1328 57.1443 34.1848 57.2494 34.2714 57.3019C34.384 57.372 34.5573 57.3457 34.7392 57.2407L36.7748 56.0497C37.1386 55.8396 37.4332 55.3667 37.4332 54.999V53.8693C37.4332 53.7205 37.3812 53.6154 37.2946 53.5629C37.052 53.5278 36.9481 53.5629 36.8355 53.6242L34.7998 54.8151C34.436 55.0252 34.1328 55.4981 34.1328 55.8659V56.9955Z" stroke="#00402A" stroke-width="0.5" stroke-linejoin="round"/>
</g>
<path d="M1.36296 45.9795C1.22437 45.9007 1.04246 45.927 0.964495 46.0671C0.427428 46.9691 0.349464 50.0076 1.19838 50.8045C1.38895 50.9884 2.1599 51.4437 2.69697 51.7589C2.94818 51.9078 3.25136 51.7414 3.27735 51.4525C3.33798 50.6031 3.44193 49.0531 3.49391 47.9673C3.51123 47.5382 3.29467 47.1354 2.93085 46.9165L1.37163 45.9795H1.36296Z" fill="#AA0F0F" stroke="#00402A" stroke-width="0.5" stroke-linejoin="round"/>
<path d="M23.7639 59.8237L23.5387 63.4227C23.5214 63.6942 23.6426 63.9481 23.8678 64.0882C24.1624 64.2809 24.6215 64.5523 25.0026 64.78C25.4011 65.0164 25.9122 64.8851 26.1461 64.4823C26.5359 63.8168 26.7091 62.7047 26.7611 61.7677C26.7871 61.2598 26.4406 60.6381 26.0161 60.3842L24.4396 59.4472C24.1537 59.2721 23.7812 59.4735 23.7639 59.815V59.8237Z" fill="#AA0F0F" stroke="#00402A" stroke-width="0.5" stroke-linejoin="round"/>
<path d="M7.49593 54.491L17.9514 60.5857V58.4053L7.49593 52.3019V54.491Z" fill="white" stroke="#00402A" stroke-width="0.5" stroke-linejoin="round"/>
<g opacity="0.5" style="mix-blend-mode:screen">
<path d="M0.271679 53.2125C0.280342 52.8798 0.297668 52.4945 0.340977 52.1092C5.13127 56.3999 19.4675 64.1846 23.4435 66.1899C25.15 67.0568 27.3762 66.654 27.3762 66.654C31.4735 65.8922 35.4669 62.9061 35.5189 62.8799C35.9866 62.6084 36.671 63.1863 36.2032 63.5016C36.0126 63.6329 31.8114 66.7328 27.4542 67.5384C27.4542 67.5384 25.15 68.0375 23.0451 66.978C19.1816 65.034 5.49509 57.5909 0.271679 53.2125Z" fill="#699282"/>
<path d="M0.271679 53.2125C0.280342 52.8798 0.297668 52.4945 0.340977 52.1092C5.13127 56.3999 19.4675 64.1846 23.4435 66.1899C25.15 67.0568 27.3762 66.654 27.3762 66.654C31.4735 65.8922 35.4669 62.9061 35.5189 62.8799C35.9866 62.6084 36.671 63.1863 36.2032 63.5016C36.0126 63.6329 31.8114 66.7328 27.4542 67.5384C27.4542 67.5384 25.15 68.0375 23.0451 66.978C19.1816 65.034 5.49509 57.5909 0.271679 53.2125Z" stroke="#00402A" stroke-width="0.5" stroke-linejoin="round"/>
</g>
<path d="M36.4329 6.40149C36.2661 6.32923 36.0729 6.33938 35.9055 6.43176H35.9045L9.99536 21.5714V21.5724C9.36676 21.9378 8.93192 22.5578 8.78931 23.2863V23.2872C8.78617 23.3033 8.78959 23.3231 8.80298 23.3429C8.81367 23.3586 8.82792 23.3685 8.84204 23.3741H8.8645L8.89087 23.3693C8.91525 23.3598 8.93447 23.3375 8.93872 23.3116L8.9397 23.3068L8.99927 23.0577C9.16972 22.4899 9.54692 22.0094 10.0647 21.7091H10.0637L35.9749 6.57336H35.9739C36.1011 6.49298 36.2235 6.4984 36.3108 6.52356L36.385 6.55286C36.4445 6.58293 36.5497 6.65118 36.6018 6.79016L36.6194 6.84778C36.6259 6.87356 36.6412 6.89424 36.6584 6.9054C36.6737 6.91521 36.6887 6.91704 36.7053 6.91223L36.7131 6.91028L36.7424 6.89661C36.7684 6.87754 36.7823 6.84347 36.7737 6.80676V6.80579C36.7315 6.62346 36.6052 6.47618 36.4329 6.40149Z" fill="#003020" stroke="#00402A" stroke-width="0.5"/>
<path d="M48.3321 13.0727L22.5496 28.0863L25.1141 32.7334L46.5845 20.0818C49.8954 18.1308 52.0018 11.9316 48.3321 13.0727Z" fill="#A2BCB1" stroke="black" stroke-width="0.5"/>
<ellipse cx="2.15008" cy="2.1337" rx="2.15008" ry="2.1337" transform="matrix(0.863736 0.503945 -2.18003e-08 1 21.9304 27.1926)" fill="#2F6852" stroke="#00402A" stroke-width="0.5"/>
<path d="M53.0471 16.2264C52.8803 16.1542 52.6872 16.1643 52.5198 16.2567H52.5188L26.6096 31.3964V31.3973C25.981 31.7627 25.5462 32.3828 25.4036 33.1112V33.1122C25.4004 33.1282 25.4038 33.1481 25.4172 33.1678C25.4279 33.1836 25.4422 33.1934 25.4563 33.1991H25.4788L25.5051 33.1942C25.5295 33.1848 25.5487 33.1624 25.553 33.1366L25.554 33.1317L25.6135 32.8827C25.784 32.3148 26.1612 31.8344 26.679 31.5341H26.678L52.5891 16.3983H52.5881C52.7154 16.3179 52.8378 16.3234 52.925 16.3485L52.9993 16.3778C53.0588 16.4079 53.1639 16.4761 53.2161 16.6151L53.2336 16.6727C53.2401 16.6985 53.2555 16.7192 53.2727 16.7303C53.288 16.7402 53.3029 16.742 53.3196 16.7372L53.3274 16.7352L53.3567 16.7216C53.3827 16.7025 53.3966 16.6684 53.3879 16.6317V16.6307C53.3458 16.4484 53.2194 16.3011 53.0471 16.2264Z" fill="#003020" stroke="#00402A" stroke-width="0.5"/>
<path d="M61.7571 33.983L57.0014 17.8707L27.4368 35.0863C27.4368 35.0863 26.2673 35.5679 25.3924 35.0863L4.92326 23.7552L4.1783 25.2438L1.33704 37.9322V40.5767L25.1412 54.3071L61.5232 35.7343L61.7484 33.983H61.7571Z" fill="#FFFEFF" stroke="#00402A" stroke-width="0.5" stroke-linejoin="round"/>
<path d="M4.29972 39.9842L22.8488 50.8088C23.0827 50.9489 24.7601 52.1017 25.0373 52.128C25.9209 52.2068 27.9565 52.3031 29.1259 51.6901C30.434 50.9984 52.4624 38.046 58.7772 34.4032C59.6954 33.8778 61.5319 33.8077 61.9996 34.7622L62.2508 35.3664C62.554 36.1107 62.502 36.2946 62.5713 37.1002C62.6233 37.6694 62.658 38.2474 62.6753 38.5538V45.4716C62.6753 46.1371 62.3288 46.7501 61.7571 47.0741L31.2742 64.8938C31.2742 64.8938 26.6918 67.7397 21.4771 64.8063C17.1459 62.3719 5.84148 55.3666 2.33322 53.1774C1.19845 52.4682 1.08583 51.5925 1.07717 50.244C1.07717 50.2265 1.07717 50.2089 1.07717 50.1914C1.07717 49.0443 1.18978 45.099 1.26774 41.8503C1.30239 40.4405 1.65874 38.4653 2.86281 39.1921L4.29972 39.9842Z" fill="#FFFEFF" stroke="#00402A" stroke-width="0.5" stroke-linejoin="round"/>
<path d="M5.4753 52.6242L19.8909 61.0412V58.0197L5.4753 49.6207V52.6242Z" fill="#FFF5EC" stroke="#00402A" stroke-width="0.5"/>
<path d="M1.45272 38.7307C1.28004 38.5469 1.00906 38.9509 0.911928 39.2776C0.24281 41.3804 0.145676 48.4647 1.20331 50.3225C1.44074 50.7512 2.36744 51.6213 3.15121 52.0174C3.46418 52.3644 3.51072 51.635 3.5431 50.9613C3.61864 48.981 3.87022 45.8364 3.93498 43.3049C3.95656 42.3045 4.08244 41.1648 3.62917 40.6544L1.88801 38.9711L1.45272 38.7307Z" fill="#C66D00" stroke="#00402A" stroke-width="0.5" stroke-linejoin="round"/>
<path d="M22.011 52.8776L21.5731 60.9757C21.5395 61.5866 21.7752 62.158 22.213 62.4732C22.7856 62.9067 23.6781 63.5175 24.419 64.0298C25.1936 64.5618 26.1872 64.2662 26.6418 63.3599C27.3996 61.8624 27.7364 59.3601 27.8374 57.2518C27.8879 56.109 27.2144 54.71 26.3892 54.1386L23.3244 52.0303C22.7687 51.6363 22.0446 52.0894 22.011 52.8579V52.8776Z" fill="#C66D00" stroke="#00402A" stroke-width="0.5" stroke-linejoin="round"/>
<path d="M4.9234 23.7551L25.3926 35.0862L25.15 52.8972L2.09081 39.088L4.9234 23.7551Z" fill="#FFFEFF" stroke="#00402A" stroke-width="0.5" stroke-linejoin="round"/>
<path d="M12.8495 41.9658C13.1624 42.1484 13.4358 42.3944 13.6229 42.63C13.8151 42.8721 13.8811 43.0537 13.8811 43.1605C13.8809 43.2671 13.8148 43.371 13.6229 43.3888C13.4358 43.406 13.1624 43.333 12.8495 43.1504C12.5366 42.9678 12.2639 42.7223 12.0768 42.4867C11.8847 42.2448 11.8189 42.0641 11.8187 41.9572C11.8187 41.8504 11.8845 41.7457 12.0768 41.7279C12.2639 41.7107 12.5366 41.7833 12.8495 41.9658Z" fill="#615D5A" stroke="#00402A" stroke-width="0.5"/>
<g style="mix-blend-mode:darken">
<path d="M44.2686 44.5654C44.2663 46.319 44.8707 47.6337 45.95 48.2225C48.0324 49.3349 50.8596 47.6109 52.6617 45.3967C54.8677 42.6876 59.8306 35.5682 54.6778 21.6903C54.6778 29.7203 44.2686 36.8672 44.2686 44.5654Z" fill="#FF9C1A" stroke="#00402A" stroke-width="0.5"/>
<path d="M49.0082 31.9753C48.6665 30.0777 48.1187 28.255 47.2996 25.9818C47.2996 34.0153 36.8894 41.166 36.8894 48.8676C36.8871 50.6217 37.4907 51.9372 38.5688 52.5276C40.6513 53.6405 43.5006 51.9 45.2805 49.7005C41.1417 47.1751 42.599 40.4499 49.0082 31.9753Z" fill="#0DA9FF" stroke="#00402A" stroke-width="0.5"/>
<path d="M41.6295 36.2943C41.2878 34.393 40.7391 32.5673 39.921 30.2889C39.921 38.3384 29.5107 45.5032 29.5107 53.2201C29.5107 57.1781 32.3108 57.2135 32.3108 57.2135C31.8757 59.595 31.7847 61.8403 32.0424 63.8372L33.3781 62.7685C32.7249 60.5657 33.1259 57.4889 33.1671 57.1864C34.8757 56.9285 36.6375 55.6219 37.9018 54.057C33.757 51.5279 35.2204 44.7869 41.6295 36.2943Z" fill="#00A443" stroke="#00402A" stroke-width="0.5"/>
</g>
<path d="M11.7312 33.3951L11.4336 33.2123L11.4336 35.5901L11.7312 35.7729L11.7312 33.3951Z" fill="#00A443"/>
<path d="M13.1219 34.9479C13.021 34.8118 12.9061 34.7036 12.7791 34.6264C12.6694 34.5598 12.5754 34.529 12.4988 34.535C12.4222 34.541 12.3578 34.5706 12.3091 34.6279C12.2987 34.6377 12.29 34.6506 12.2813 34.6635L12.2813 33.7117L11.9976 33.5393L11.9976 35.8917L12.2813 36.0641L12.2813 35.7609C12.29 35.7824 12.2987 35.8059 12.3074 35.8273C12.3561 35.9438 12.4188 36.0506 12.4971 36.1507C12.5754 36.2508 12.6694 36.3342 12.7791 36.4008C12.8748 36.459 12.9635 36.4907 13.0454 36.4979C13.1272 36.5032 13.1968 36.4848 13.2577 36.443C13.3186 36.4012 13.3656 36.3368 13.4004 36.2488C13.4352 36.1608 13.4526 36.0522 13.4526 35.9228C13.4526 35.749 13.423 35.5754 13.3621 35.405C13.303 35.2357 13.2211 35.0829 13.1202 34.9448L13.1219 34.9479ZM13.1306 35.9758C13.108 36.0348 13.0767 36.0784 13.0384 36.1057C12.9984 36.1339 12.9514 36.1438 12.8974 36.1372C12.8435 36.1307 12.7843 36.1089 12.7181 36.0688C12.5893 35.9905 12.4832 35.8735 12.3996 35.7197C12.3161 35.5638 12.2743 35.3949 12.2743 35.209C12.2743 35.114 12.2847 35.0375 12.3074 34.9805C12.33 34.9235 12.3596 34.8789 12.3996 34.8527C12.4397 34.8264 12.4866 34.8146 12.5406 34.8231C12.5946 34.8296 12.6537 34.8534 12.7164 34.8915C12.8469 34.9708 12.9548 35.0889 13.0384 35.2407C13.1219 35.3945 13.1637 35.5654 13.1637 35.7513C13.1637 35.8423 13.1533 35.9188 13.1306 35.9778L13.1306 35.9758Z" fill="#00A443"/>
<path d="M14.6329 35.8327C14.5302 35.6979 14.4136 35.591 14.2831 35.5119C14.1786 35.4486 14.0846 35.4118 13.9976 35.4014C13.9123 35.3921 13.8375 35.4052 13.7731 35.4448C13.7087 35.4844 13.66 35.5476 13.6269 35.6363C13.5938 35.7251 13.5764 35.8355 13.5764 35.9685C13.5764 36.1459 13.6077 36.318 13.6687 36.4879C13.7296 36.6579 13.8149 36.8143 13.9228 36.9543C14.0307 37.0942 14.156 37.2084 14.297 37.2938C14.3823 37.3455 14.4641 37.3809 14.5441 37.4012C14.6242 37.4215 14.6973 37.4194 14.7635 37.397C14.8296 37.3746 14.887 37.3268 14.9358 37.2555L14.7165 36.9655C14.6851 37.015 14.6486 37.0493 14.6068 37.0684C14.565 37.0874 14.5163 37.0881 14.4658 37.0777C14.4136 37.0642 14.3579 37.0405 14.2987 37.0047C14.2152 36.954 14.1421 36.8876 14.0759 36.8032C14.0098 36.7188 13.9593 36.6217 13.921 36.5098C13.8915 36.4214 13.874 36.3262 13.8671 36.2232L14.9619 36.8864C14.9636 36.8714 14.9654 36.8563 14.9654 36.8422L14.9654 36.7979C14.9654 36.6245 14.9358 36.4534 14.8766 36.2866C14.8174 36.1198 14.7373 35.9705 14.6347 35.8357L14.6329 35.8327ZM13.975 35.7586C14.0098 35.7272 14.0551 35.7164 14.1073 35.7218C14.1595 35.7272 14.2169 35.7499 14.2813 35.789C14.3979 35.8596 14.4919 35.9649 14.5668 36.109C14.6207 36.2122 14.6538 36.329 14.6695 36.4634L13.8758 35.9826C13.881 35.9535 13.8862 35.9265 13.8932 35.9005C13.9123 35.8375 13.9402 35.7899 13.975 35.7586Z" fill="#00A443"/>
<path d="M15.9121 36.4664L15.8286 36.4155C15.7415 36.3625 15.6632 36.3411 15.5953 36.3504C15.5274 36.3618 15.4717 36.4049 15.4282 36.4838L15.4282 36.204L15.1445 36.0311L15.1445 37.7443L15.4282 37.9172L15.4282 37.0028C15.4282 36.8569 15.4596 36.7584 15.524 36.7104C15.5884 36.6625 15.6684 36.6667 15.7676 36.7271L15.9121 36.8152L15.9121 36.4644L15.9121 36.4664Z" fill="#00A443"/>
<path d="M17.0817 37.4877C17.073 37.4643 17.0643 37.4428 17.0539 37.4183C17.0052 37.3018 16.9408 37.1939 16.8642 37.0949C16.7876 36.9958 16.6936 36.9124 16.5857 36.8469C16.49 36.7887 16.3995 36.756 16.3177 36.7487C16.2358 36.7415 16.1645 36.7587 16.1036 36.8026C16.0426 36.8444 15.9957 36.9108 15.9626 36.9978C15.9295 37.0849 15.9121 37.1955 15.9121 37.3269C15.9121 37.5007 15.9417 37.6743 16.0009 37.8436C16.0601 38.013 16.1401 38.1667 16.2428 38.3039C16.3455 38.441 16.4604 38.5492 16.5874 38.6264C16.6953 38.692 16.7893 38.7228 16.8659 38.7168C16.9442 38.7118 17.0069 38.6812 17.0556 38.6239C17.0643 38.613 17.073 38.6021 17.0817 38.5892L17.0817 38.8923L17.3654 39.0647L17.3654 36.7122L17.0817 36.5399L17.0817 37.4918L17.0817 37.4877ZM16.9651 38.3971C16.9251 38.4253 16.8781 38.4352 16.8241 38.4287C16.7684 38.4211 16.7093 38.3993 16.6466 38.3612C16.5161 38.2819 16.4082 38.1638 16.3246 38.01C16.2411 37.8542 16.1993 37.6853 16.1993 37.4994C16.1993 37.4044 16.2097 37.3279 16.2324 37.2709C16.255 37.2139 16.2846 37.1692 16.3246 37.143C16.3646 37.1168 16.4116 37.1049 16.4656 37.1134C16.5196 37.1199 16.5787 37.1438 16.6449 37.1839C16.7737 37.2622 16.8798 37.3792 16.9634 37.531C17.0469 37.6849 17.0887 37.8558 17.0887 38.0417C17.0887 38.1326 17.0783 38.2091 17.0574 38.2692C17.0365 38.3293 17.0052 38.3729 16.9669 38.4002L16.9651 38.3971Z" fill="#00A443"/>
<path d="M18.3994 37.9176L18.3159 37.8667C18.2288 37.8137 18.1505 37.7923 18.0826 37.8016C18.0148 37.813 17.9591 37.8561 17.9155 37.935L17.9155 37.6552L17.6318 37.4823L17.6318 39.1955L17.9155 39.3684L17.9155 38.454C17.9155 38.308 17.9469 38.2095 18.0113 38.1616C18.0757 38.1137 18.1557 38.1178 18.2549 38.1783L18.3994 38.2663L18.3994 37.9156L18.3994 37.9176Z" fill="#00A443"/>
<path d="M19.5273 38.6911C19.4159 38.5492 19.2871 38.435 19.1427 38.3476C19.0365 38.2833 18.9373 38.2454 18.8468 38.2329C18.7563 38.2204 18.6762 38.2324 18.61 38.2729C18.5422 38.3103 18.49 38.3733 18.4534 38.46C18.4169 38.5466 18.3977 38.6538 18.3977 38.7826C18.3977 38.9558 18.4308 39.1309 18.4952 39.3028C18.5596 39.4766 18.6483 39.6331 18.7615 39.7761C18.8746 39.919 19.0017 40.0342 19.1444 40.1206C19.2506 40.1848 19.348 40.2217 19.4403 40.2352C19.5308 40.2457 19.6109 40.2338 19.677 40.1953C19.7449 40.1578 19.7971 40.0968 19.8336 40.0102C19.8702 39.9236 19.8893 39.8164 19.8893 39.6835C19.8893 39.5063 19.8563 39.3332 19.7919 39.1614C19.7275 38.9895 19.6387 38.8331 19.5273 38.6911ZM19.5656 39.7352C19.543 39.796 19.5099 39.8364 19.4699 39.8625C19.4298 39.8886 19.3811 39.8974 19.3254 39.8898C19.2697 39.8823 19.2088 39.8595 19.1427 39.8195C19.0574 39.7679 18.9808 39.6974 18.9129 39.61C18.845 39.5226 18.7911 39.4214 18.751 39.3086C18.711 39.1958 18.6919 39.0795 18.6919 38.9567C18.6919 38.862 18.7023 38.7858 18.7249 38.729C18.7476 38.6722 18.7789 38.6288 18.8189 38.6027C18.8589 38.5766 18.9077 38.5658 18.9634 38.5753C19.0191 38.5829 19.08 38.6077 19.1427 38.6456C19.2314 38.6993 19.3097 38.7709 19.3794 38.8593C19.4472 38.9467 19.5012 39.0479 19.5412 39.1587C19.5813 39.2695 19.6004 39.3858 19.6004 39.5086C19.6004 39.5992 19.5882 39.6744 19.5656 39.7352Z" fill="#00A443"/>
<path d="M20.373 40.4639C20.3486 40.4144 20.3364 40.356 20.3364 40.2908L20.3364 38.4148L20.0527 38.2411L20.0527 40.1375C20.0527 40.2332 20.0667 40.3232 20.0962 40.4106C20.1258 40.498 20.1693 40.5816 20.2285 40.6566C20.2877 40.7335 20.3608 40.7987 20.4478 40.852L20.6062 40.9489L20.6062 40.6576L20.4896 40.5863C20.4339 40.5522 20.3939 40.5093 20.3695 40.4598L20.373 40.4639Z" fill="#00A443"/>
<path d="M21.924 40.3516C21.8874 40.2447 21.8387 40.1446 21.7777 40.0532C21.7168 39.9618 21.6472 39.8793 21.5689 39.8056C21.4906 39.7319 21.4088 39.6702 21.3217 39.6174C21.1894 39.5372 21.0694 39.4987 20.9632 39.5029C20.857 39.5071 20.7787 39.5625 20.7265 39.67L20.9493 39.9523C20.9788 39.8875 21.0241 39.8504 21.0868 39.842C21.1494 39.8336 21.226 39.8558 21.3165 39.9107C21.3861 39.9529 21.4488 40.005 21.5062 40.0661C21.5637 40.1271 21.6089 40.1989 21.6437 40.2805C21.6785 40.3621 21.6959 40.4513 21.6959 40.5502L21.6959 40.7397C21.6855 40.7213 21.6751 40.7029 21.6646 40.6844C21.5741 40.5388 21.4436 40.4133 21.2713 40.3088C21.1616 40.2424 21.0606 40.2013 20.9701 40.1868C20.8796 40.1723 20.8083 40.1895 20.7561 40.2365C20.7038 40.2835 20.6777 40.3645 20.6777 40.4754C20.6777 40.5863 20.7038 40.699 20.7543 40.8062C20.8048 40.9155 20.8744 41.0162 20.9632 41.1123C21.0502 41.2054 21.1494 41.2878 21.2573 41.3532C21.4314 41.4587 21.5654 41.4915 21.6594 41.4537C21.6785 41.4452 21.6959 41.4355 21.7116 41.4208L21.7116 41.5903L21.9814 41.7538L21.9814 40.6909C21.9814 40.572 21.9622 40.4595 21.9257 40.3526L21.924 40.3516ZM21.6002 41.2343C21.5306 41.2385 21.4436 41.2099 21.3391 41.1466C21.2347 41.0833 21.1442 41.0042 21.0746 40.9157C21.005 40.8271 20.9684 40.7363 20.9684 40.6476C20.9684 40.5528 21.0032 40.5053 21.0746 40.5022C21.1442 40.498 21.233 40.5297 21.3391 40.594C21.4453 40.6584 21.5306 40.7343 21.6002 40.8229C21.6698 40.9115 21.7046 41.0032 21.7046 41.0939C21.7046 41.1847 21.6698 41.2301 21.6002 41.2343Z" fill="#00A443"/>
<path d="M8.76367 33.1583C8.76367 33.3708 8.82285 33.6901 9.01953 34.0384C9.33631 34.5994 9.76622 34.8589 10.0395 34.8531C10.3754 34.845 11.129 34.67 10.3458 31.5628C10.3458 32.8054 8.76367 31.9684 8.76367 33.1604L8.76367 33.1583Z" fill="#FF9C1A"/>
<path d="M9.48259 32.1532C9.43037 31.7955 9.34683 31.4106 9.22325 30.9082C9.22325 32.1513 7.64111 31.314 7.64111 32.5065C7.64111 32.7191 7.70029 33.0385 7.89697 33.387C8.21375 33.9482 8.64713 34.2099 8.91692 34.202C8.28685 33.0391 8.50963 32.2718 9.48259 32.1553L9.48259 32.1532Z" fill="#0DA9FF"/>
<path d="M8.36174 31.5033C8.30952 31.1449 8.22598 30.7593 8.1024 30.2559C8.1024 31.5014 6.52026 30.6629 6.52026 31.8577C6.52026 32.4703 6.94495 32.9989 6.94495 32.9989C6.94495 32.9989 6.83878 33.3846 6.90492 33.9726L7.10856 34.0581C7.00935 33.596 7.07027 33.195 7.07723 33.1566C7.33657 33.4364 7.60461 33.5633 7.79607 33.5583C7.166 32.3933 7.38879 31.6243 8.36174 31.5074L8.36174 31.5033Z" fill="#00A443"/>
<path d="M11.7312 33.3951L11.4336 33.2123L11.4336 35.5901L11.7312 35.7729L11.7312 33.3951Z" fill="#00A443"/>
<path d="M13.1219 34.9479C13.021 34.8118 12.9061 34.7036 12.7791 34.6264C12.6694 34.5598 12.5754 34.529 12.4988 34.535C12.4222 34.541 12.3578 34.5706 12.3091 34.6279C12.2987 34.6377 12.29 34.6506 12.2813 34.6635L12.2813 33.7117L11.9976 33.5393L11.9976 35.8917L12.2813 36.0641L12.2813 35.7609C12.29 35.7824 12.2987 35.8059 12.3074 35.8273C12.3561 35.9438 12.4188 36.0506 12.4971 36.1507C12.5754 36.2508 12.6694 36.3342 12.7791 36.4008C12.8748 36.459 12.9635 36.4907 13.0454 36.4979C13.1272 36.5032 13.1968 36.4848 13.2577 36.443C13.3186 36.4012 13.3656 36.3368 13.4004 36.2488C13.4352 36.1608 13.4526 36.0522 13.4526 35.9228C13.4526 35.749 13.423 35.5754 13.3621 35.405C13.303 35.2357 13.2211 35.0829 13.1202 34.9448L13.1219 34.9479ZM13.1306 35.9758C13.108 36.0348 13.0767 36.0784 13.0384 36.1057C12.9984 36.1339 12.9514 36.1438 12.8974 36.1372C12.8435 36.1307 12.7843 36.1089 12.7181 36.0688C12.5893 35.9905 12.4832 35.8735 12.3996 35.7197C12.3161 35.5638 12.2743 35.3949 12.2743 35.209C12.2743 35.114 12.2847 35.0375 12.3074 34.9805C12.33 34.9235 12.3596 34.8789 12.3996 34.8527C12.4397 34.8264 12.4866 34.8146 12.5406 34.8231C12.5946 34.8296 12.6537 34.8534 12.7164 34.8915C12.8469 34.9708 12.9548 35.0889 13.0384 35.2407C13.1219 35.3945 13.1637 35.5654 13.1637 35.7513C13.1637 35.8423 13.1533 35.9188 13.1306 35.9778L13.1306 35.9758Z" fill="#00A443"/>
<path d="M14.6329 35.8327C14.5302 35.6979 14.4136 35.591 14.2831 35.5119C14.1786 35.4486 14.0846 35.4118 13.9976 35.4014C13.9123 35.3921 13.8375 35.4052 13.7731 35.4448C13.7087 35.4844 13.66 35.5476 13.6269 35.6363C13.5938 35.7251 13.5764 35.8355 13.5764 35.9685C13.5764 36.1459 13.6077 36.318 13.6687 36.4879C13.7296 36.6579 13.8149 36.8143 13.9228 36.9543C14.0307 37.0942 14.156 37.2084 14.297 37.2938C14.3823 37.3455 14.4641 37.3809 14.5441 37.4012C14.6242 37.4215 14.6973 37.4194 14.7635 37.397C14.8296 37.3746 14.887 37.3268 14.9358 37.2555L14.7165 36.9655C14.6851 37.015 14.6486 37.0493 14.6068 37.0684C14.565 37.0874 14.5163 37.0881 14.4658 37.0777C14.4136 37.0642 14.3579 37.0405 14.2987 37.0047C14.2152 36.954 14.1421 36.8876 14.0759 36.8032C14.0098 36.7188 13.9593 36.6217 13.921 36.5098C13.8915 36.4214 13.874 36.3262 13.8671 36.2232L14.9619 36.8864C14.9636 36.8714 14.9654 36.8563 14.9654 36.8422L14.9654 36.7979C14.9654 36.6245 14.9358 36.4534 14.8766 36.2866C14.8174 36.1198 14.7373 35.9705 14.6347 35.8357L14.6329 35.8327ZM13.975 35.7586C14.0098 35.7272 14.0551 35.7164 14.1073 35.7218C14.1595 35.7272 14.2169 35.7499 14.2813 35.789C14.3979 35.8596 14.4919 35.9649 14.5668 36.109C14.6207 36.2122 14.6538 36.329 14.6695 36.4634L13.8758 35.9826C13.881 35.9535 13.8862 35.9265 13.8932 35.9005C13.9123 35.8375 13.9402 35.7899 13.975 35.7586Z" fill="#00A443"/>
<path d="M15.9121 36.4664L15.8286 36.4155C15.7415 36.3625 15.6632 36.3411 15.5953 36.3504C15.5274 36.3618 15.4717 36.4049 15.4282 36.4838L15.4282 36.204L15.1445 36.0311L15.1445 37.7443L15.4282 37.9172L15.4282 37.0028C15.4282 36.8569 15.4596 36.7584 15.524 36.7104C15.5884 36.6625 15.6684 36.6667 15.7676 36.7271L15.9121 36.8152L15.9121 36.4644L15.9121 36.4664Z" fill="#00A443"/>
<path d="M17.0817 37.4877C17.073 37.4643 17.0643 37.4428 17.0539 37.4183C17.0052 37.3018 16.9408 37.1939 16.8642 37.0949C16.7876 36.9958 16.6936 36.9124 16.5857 36.8469C16.49 36.7887 16.3995 36.756 16.3177 36.7487C16.2358 36.7415 16.1645 36.7587 16.1036 36.8026C16.0426 36.8444 15.9957 36.9108 15.9626 36.9978C15.9295 37.0849 15.9121 37.1955 15.9121 37.3269C15.9121 37.5007 15.9417 37.6743 16.0009 37.8436C16.0601 38.013 16.1401 38.1667 16.2428 38.3039C16.3455 38.441 16.4604 38.5492 16.5874 38.6264C16.6953 38.692 16.7893 38.7228 16.8659 38.7168C16.9442 38.7118 17.0069 38.6812 17.0556 38.6239C17.0643 38.613 17.073 38.6021 17.0817 38.5892L17.0817 38.8923L17.3654 39.0647L17.3654 36.7122L17.0817 36.5399L17.0817 37.4918L17.0817 37.4877ZM16.9651 38.3971C16.9251 38.4253 16.8781 38.4352 16.8241 38.4287C16.7684 38.4211 16.7093 38.3993 16.6466 38.3612C16.5161 38.2819 16.4082 38.1638 16.3246 38.01C16.2411 37.8542 16.1993 37.6853 16.1993 37.4994C16.1993 37.4044 16.2097 37.3279 16.2324 37.2709C16.255 37.2139 16.2846 37.1692 16.3246 37.143C16.3646 37.1168 16.4116 37.1049 16.4656 37.1134C16.5196 37.1199 16.5787 37.1438 16.6449 37.1839C16.7737 37.2622 16.8798 37.3792 16.9634 37.531C17.0469 37.6849 17.0887 37.8558 17.0887 38.0417C17.0887 38.1326 17.0783 38.2091 17.0574 38.2692C17.0365 38.3293 17.0052 38.3729 16.9669 38.4002L16.9651 38.3971Z" fill="#00A443"/>
<path d="M18.3994 37.9176L18.3159 37.8667C18.2288 37.8137 18.1505 37.7923 18.0826 37.8016C18.0148 37.813 17.9591 37.8561 17.9155 37.935L17.9155 37.6552L17.6318 37.4823L17.6318 39.1955L17.9155 39.3684L17.9155 38.454C17.9155 38.308 17.9469 38.2095 18.0113 38.1616C18.0757 38.1137 18.1557 38.1178 18.2549 38.1783L18.3994 38.2663L18.3994 37.9156L18.3994 37.9176Z" fill="#00A443"/>
<path d="M19.5273 38.6911C19.4159 38.5492 19.2871 38.435 19.1427 38.3476C19.0365 38.2833 18.9373 38.2454 18.8468 38.2329C18.7563 38.2204 18.6762 38.2324 18.61 38.2729C18.5422 38.3103 18.49 38.3733 18.4534 38.46C18.4169 38.5466 18.3977 38.6538 18.3977 38.7826C18.3977 38.9558 18.4308 39.1309 18.4952 39.3028C18.5596 39.4766 18.6483 39.6331 18.7615 39.7761C18.8746 39.919 19.0017 40.0342 19.1444 40.1206C19.2506 40.1848 19.348 40.2217 19.4403 40.2352C19.5308 40.2457 19.6109 40.2338 19.677 40.1953C19.7449 40.1578 19.7971 40.0968 19.8336 40.0102C19.8702 39.9236 19.8893 39.8164 19.8893 39.6835C19.8893 39.5063 19.8563 39.3332 19.7919 39.1614C19.7275 38.9895 19.6387 38.8331 19.5273 38.6911ZM19.5656 39.7352C19.543 39.796 19.5099 39.8364 19.4699 39.8625C19.4298 39.8886 19.3811 39.8974 19.3254 39.8898C19.2697 39.8823 19.2088 39.8595 19.1427 39.8195C19.0574 39.7679 18.9808 39.6974 18.9129 39.61C18.845 39.5226 18.7911 39.4214 18.751 39.3086C18.711 39.1958 18.6919 39.0795 18.6919 38.9567C18.6919 38.862 18.7023 38.7858 18.7249 38.729C18.7476 38.6722 18.7789 38.6288 18.8189 38.6027C18.8589 38.5766 18.9077 38.5658 18.9634 38.5753C19.0191 38.5829 19.08 38.6077 19.1427 38.6456C19.2314 38.6993 19.3097 38.7709 19.3794 38.8593C19.4472 38.9467 19.5012 39.0479 19.5412 39.1587C19.5813 39.2695 19.6004 39.3858 19.6004 39.5086C19.6004 39.5992 19.5882 39.6744 19.5656 39.7352Z" fill="#00A443"/>
<path d="M20.373 40.4639C20.3486 40.4144 20.3364 40.356 20.3364 40.2908L20.3364 38.4148L20.0527 38.2411L20.0527 40.1375C20.0527 40.2332 20.0667 40.3232 20.0962 40.4106C20.1258 40.498 20.1693 40.5816 20.2285 40.6566C20.2877 40.7335 20.3608 40.7987 20.4478 40.852L20.6062 40.9489L20.6062 40.6576L20.4896 40.5863C20.4339 40.5522 20.3939 40.5093 20.3695 40.4598L20.373 40.4639Z" fill="#00A443"/>
<path d="M21.924 40.3516C21.8874 40.2447 21.8387 40.1446 21.7777 40.0532C21.7168 39.9618 21.6472 39.8793 21.5689 39.8056C21.4906 39.7319 21.4088 39.6702 21.3217 39.6174C21.1894 39.5372 21.0694 39.4987 20.9632 39.5029C20.857 39.5071 20.7787 39.5625 20.7265 39.67L20.9493 39.9523C20.9788 39.8875 21.0241 39.8504 21.0868 39.842C21.1494 39.8336 21.226 39.8558 21.3165 39.9107C21.3861 39.9529 21.4488 40.005 21.5062 40.0661C21.5637 40.1271 21.6089 40.1989 21.6437 40.2805C21.6785 40.3621 21.6959 40.4513 21.6959 40.5502L21.6959 40.7397C21.6855 40.7213 21.6751 40.7029 21.6646 40.6844C21.5741 40.5388 21.4436 40.4133 21.2713 40.3088C21.1616 40.2424 21.0606 40.2013 20.9701 40.1868C20.8796 40.1723 20.8083 40.1895 20.7561 40.2365C20.7038 40.2835 20.6777 40.3645 20.6777 40.4754C20.6777 40.5863 20.7038 40.699 20.7543 40.8062C20.8048 40.9155 20.8744 41.0162 20.9632 41.1123C21.0502 41.2054 21.1494 41.2878 21.2573 41.3532C21.4314 41.4587 21.5654 41.4915 21.6594 41.4537C21.6785 41.4452 21.6959 41.4355 21.7116 41.4208L21.7116 41.5903L21.9814 41.7538L21.9814 40.6909C21.9814 40.572 21.9622 40.4595 21.9257 40.3526L21.924 40.3516ZM21.6002 41.2343C21.5306 41.2385 21.4436 41.2099 21.3391 41.1466C21.2347 41.0833 21.1442 41.0042 21.0746 40.9157C21.005 40.8271 20.9684 40.7363 20.9684 40.6476C20.9684 40.5528 21.0032 40.5053 21.0746 40.5022C21.1442 40.498 21.233 40.5297 21.3391 40.594C21.4453 40.6584 21.5306 40.7343 21.6002 40.8229C21.6698 40.9115 21.7046 41.0032 21.7046 41.0939C21.7046 41.1847 21.6698 41.2301 21.6002 41.2343Z" fill="#00A443"/>
<path d="M8.76367 33.1583C8.76367 33.3708 8.82285 33.6901 9.01953 34.0384C9.33631 34.5994 9.76622 34.8589 10.0395 34.8531C10.3754 34.845 11.129 34.67 10.3458 31.5628C10.3458 32.8054 8.76367 31.9684 8.76367 33.1604L8.76367 33.1583Z" fill="#FF9C1A"/>
<path d="M9.48259 32.1532C9.43037 31.7955 9.34683 31.4106 9.22325 30.9082C9.22325 32.1513 7.64111 31.314 7.64111 32.5065C7.64111 32.7191 7.70029 33.0385 7.89697 33.387C8.21375 33.9482 8.64713 34.2099 8.91692 34.202C8.28685 33.0391 8.50963 32.2718 9.48259 32.1553L9.48259 32.1532Z" fill="#0DA9FF"/>
<path d="M8.36174 31.5033C8.30952 31.1449 8.22598 30.7593 8.1024 30.2559C8.1024 31.5014 6.52026 30.6629 6.52026 31.8577C6.52026 32.4703 6.94495 32.9989 6.94495 32.9989C6.94495 32.9989 6.83878 33.3846 6.90492 33.9726L7.10856 34.0581C7.00935 33.596 7.07027 33.195 7.07723 33.1566C7.33657 33.4364 7.60461 33.5633 7.79607 33.5583C7.166 32.3933 7.38879 31.6243 8.36174 31.5074L8.36174 31.5033Z" fill="#00A443"/>
<path d="M32.6457 45.0478C32.8307 44.9399 32.9877 44.8996 33.091 44.9091C33.1993 44.919 33.2132 44.9753 33.2133 44.9959C33.2133 45.0163 33.1996 45.0887 33.091 45.2255C32.9877 45.3556 32.8307 45.4984 32.6457 45.6064C32.4607 45.7143 32.3036 45.7547 32.2003 45.7452C32.0919 45.7351 32.078 45.6787 32.078 45.6583C32.0781 45.6376 32.0921 45.565 32.2003 45.4288C32.3036 45.2987 32.4607 45.1558 32.6457 45.0478Z" fill="#89837E" stroke="#00402A" stroke-width="0.5"/>
<path d="M38.132 41.8797C38.317 41.7717 38.474 41.7314 38.5774 41.7409C38.6856 41.7509 38.6996 41.8072 38.6997 41.8278C38.6997 41.8482 38.6859 41.9206 38.5774 42.0573C38.474 42.1874 38.3171 42.3303 38.132 42.4383C37.947 42.5462 37.7899 42.5865 37.6866 42.577C37.5783 42.5669 37.5643 42.5106 37.5643 42.4902C37.5644 42.4695 37.5785 42.3968 37.6866 42.2606C37.7899 42.1305 37.947 41.9876 38.132 41.8797Z" fill="#89837E" stroke="#00402A" stroke-width="0.5"/>
<path d="M43.3571 38.9755C43.5421 38.8675 43.6991 38.8272 43.8025 38.8367C43.9107 38.8467 43.9247 38.903 43.9248 38.9236C43.9248 38.944 43.911 39.0164 43.8025 39.1531C43.6991 39.2832 43.5422 39.4261 43.3571 39.5341C43.1721 39.642 43.015 39.6823 42.9117 39.6728C42.8034 39.6628 42.7894 39.6064 42.7894 39.586C42.7895 39.5653 42.8036 39.4926 42.9117 39.3564C43.015 39.2264 43.1721 39.0834 43.3571 38.9755Z" fill="#89837E" stroke="#00402A" stroke-width="0.5"/>
<path d="M43.357 35.2086C43.7584 34.9744 44.1114 34.8793 44.3565 34.9018C44.6068 34.9248 44.709 35.0618 44.7091 35.2283C44.7091 35.3949 44.607 35.6519 44.3565 35.9672C44.1114 36.2758 43.7584 36.5926 43.357 36.8268C42.9556 37.0609 42.6026 37.1562 42.3575 37.1336C42.1072 37.1104 42.0057 36.9722 42.0057 36.8056C42.0059 36.639 42.1074 36.3831 42.3575 36.0681C42.6026 35.7596 42.9556 35.4428 43.357 35.2086Z" fill="#615D5A" stroke="#00402A" stroke-width="0.5"/>
<path d="M48.8437 35.8073C49.0287 35.6993 49.1857 35.659 49.289 35.6685C49.3973 35.6785 49.4112 35.7348 49.4113 35.7554C49.4113 35.7758 49.3976 35.8482 49.289 35.9849C49.1857 36.115 49.0287 36.2579 48.8437 36.3659C48.6587 36.4738 48.5016 36.5141 48.3983 36.5046C48.2899 36.4945 48.276 36.4382 48.276 36.4178C48.2761 36.3971 48.2901 36.3244 48.3983 36.1882C48.5016 36.0582 48.6587 35.9152 48.8437 35.8073Z" fill="#89837E" stroke="#00402A" stroke-width="0.5"/>
<path d="M53.8075 33.1671C53.9925 33.0592 54.1496 33.0189 54.2529 33.0284C54.3612 33.0384 54.3751 33.0946 54.3752 33.1152C54.3752 33.1356 54.3615 33.2081 54.2529 33.3448C54.1496 33.4749 53.9926 33.6178 53.8075 33.7257C53.6225 33.8336 53.4655 33.874 53.3622 33.8645C53.2538 33.8544 53.2399 33.798 53.2399 33.7776C53.2399 33.757 53.254 33.6843 53.3622 33.5481C53.4655 33.418 53.6225 33.2751 53.8075 33.1671Z" fill="#89837E" stroke="#00402A" stroke-width="0.5"/>
<rect x="-0.356771" y="-1.21385e-08" width="0.4073" height="6.1095" rx="0.20365" transform="matrix(-0.875942 0.511066 -0.875942 -0.511066 48.3539 8.13857)" fill="#FF9C1A" stroke="#00402A" stroke-width="0.4073"/>
<rect x="-0.356771" y="-1.21385e-08" width="0.4073" height="6.1095" rx="0.20365" transform="matrix(-0.875942 0.511066 -0.875942 -0.511066 44.786 10.2202)" fill="#FF9C1A" stroke="#00402A" stroke-width="0.4073"/>
<rect x="-0.356771" y="-1.21385e-08" width="0.4073" height="6.1095" rx="0.20365" transform="matrix(-0.875942 0.511066 -0.875942 -0.511066 41.2184 12.3018)" fill="#FF9C1A" stroke="#00402A" stroke-width="0.4073"/>
<rect x="-0.356771" y="-1.21385e-08" width="0.4073" height="6.1095" rx="0.20365" transform="matrix(-0.875942 0.511066 -0.875942 -0.511066 37.6508 14.3833)" fill="#FF9C1A" stroke="#00402A" stroke-width="0.4073"/>
<rect x="-0.356771" y="-1.21385e-08" width="0.4073" height="6.1095" rx="0.20365" transform="matrix(-0.875942 0.511066 -0.875942 -0.511066 34.0829 16.4649)" fill="#FF9C1A" stroke="#00402A" stroke-width="0.4073"/>
<rect x="-0.356771" y="-1.21385e-08" width="0.4073" height="6.1095" rx="0.20365" transform="matrix(-0.875942 0.511066 -0.875942 -0.511066 30.5153 18.5465)" fill="#FF9C1A" stroke="#00402A" stroke-width="0.4073"/>
<rect x="-0.356771" y="-1.21385e-08" width="0.4073" height="6.1095" rx="0.20365" transform="matrix(-0.875942 0.511066 -0.875942 -0.511066 26.9474 20.628)" fill="#FF9C1A" stroke="#00402A" stroke-width="0.4073"/>
<rect x="-0.356771" y="-1.21385e-08" width="0.4073" height="6.1095" rx="0.20365" transform="matrix(-0.875942 0.511066 -0.875942 -0.511066 23.38 22.7096)" fill="#FF9C1A" stroke="#00402A" stroke-width="0.4073"/>
<rect x="-0.356771" y="-1.21385e-08" width="0.4073" height="6.1095" rx="0.20365" transform="matrix(-0.875942 0.511066 -0.875942 -0.511066 19.8122 24.7912)" fill="#FF9C1A" stroke="#00402A" stroke-width="0.4073"/>
<rect y="0.208157" width="0.4073" height="38.6935" rx="0.20365" transform="matrix(0.875942 0.511066 -0.875942 0.511066 45.7397 3.4191)" fill="#FF9C1A" stroke="#00402A" stroke-width="0.4073"/>
<rect y="0.208157" width="0.4073" height="38.6935" rx="0.20365" transform="matrix(0.875942 0.511066 -0.875942 0.511066 50.7346 6.33328)" fill="#FF9C1A" stroke="#00402A" stroke-width="0.4073"/>
</svg>
