<svg width="96" height="85" viewBox="0 0 96 85" fill="none" xmlns="http://www.w3.org/2000/svg">
<path fill-rule="evenodd" clip-rule="evenodd" d="M53.3065 56.9404L52.6675 56.5726V61.5238L53.3065 61.8916V56.9404Z" fill="#B0A9A3" stroke="#00402A" stroke-width="0.5" stroke-linecap="round" stroke-linejoin="round"/>
<path fill-rule="evenodd" clip-rule="evenodd" d="M92.884 38.9545L85.4751 34.6843V37.8482L92.884 42.1184V38.9545Z" fill="#B0A9A3" stroke="#00402A" stroke-width="0.5" stroke-linecap="round" stroke-linejoin="round"/>
<path fill-rule="evenodd" clip-rule="evenodd" d="M92.884 38.9546L93.7331 38.4661L86.3242 34.1959L85.4751 34.6844L92.884 38.9546Z" fill="#D8CFC7" stroke="#00402A" stroke-width="0.5" stroke-linecap="round" stroke-linejoin="round"/>
<path fill-rule="evenodd" clip-rule="evenodd" d="M92.8848 38.9546L93.7339 38.4661V41.6299L92.8848 42.1184V38.9546Z" fill="#615D5A" stroke="#00402A" stroke-width="0.5" stroke-linecap="round" stroke-linejoin="round"/>
<path fill-rule="evenodd" clip-rule="evenodd" d="M53.3064 56.9408L54.38 56.3229V61.2742L53.3064 61.892V56.9408Z" fill="#615D5A" stroke="#00402A" stroke-width="0.5" stroke-linecap="round" stroke-linejoin="round"/>
<path fill-rule="evenodd" clip-rule="evenodd" d="M59.6361 53.2913L60.7097 52.6735V57.6276L59.6361 58.2455L58.9971 57.8776V52.9235L59.6361 53.2913Z" fill="#615D5A" stroke="#00402A" stroke-width="0.5" stroke-linecap="round" stroke-linejoin="round"/>
<path fill-rule="evenodd" clip-rule="evenodd" d="M66.1236 49.5525L67.1973 48.9347V53.8859L66.1236 54.5066L65.4846 54.1359V49.1847L66.1236 49.5525Z" fill="#FFF5EC" stroke="#00402A" stroke-width="0.5" stroke-linecap="round" stroke-linejoin="round"/>
<path fill-rule="evenodd" clip-rule="evenodd" d="M2.20982 53.406L0.407959 52.3657V56.8141L2.20982 57.8543V53.406Z" fill="#00A443" stroke="#00402A" stroke-width="0.5" stroke-linecap="round" stroke-linejoin="round"/>
<path fill-rule="evenodd" clip-rule="evenodd" d="M2.20996 53.4061L2.48915 53.2452V57.6935L2.20996 57.8544V53.4061Z" fill="#FFF5EC" stroke="#00402A" stroke-width="0.5" stroke-linecap="round" stroke-linejoin="round"/>
<path fill-rule="evenodd" clip-rule="evenodd" d="M2.20982 53.4064L2.48901 53.2454L0.687152 52.2052L0.407959 52.3661L2.20982 53.4064Z" fill="#5BD38C" stroke="#00402A" stroke-width="0.5" stroke-linecap="round" stroke-linejoin="round"/>
<path d="M1.30821 54.2421C1.21898 54.2421 1.1499 54.1703 1.1499 54.0812V51.8024C1.1499 51.745 1.18155 51.6932 1.22761 51.6645C1.27654 51.6358 1.33698 51.6358 1.38879 51.6645L2.91146 52.5438C2.9863 52.5869 3.01509 52.6846 2.96903 52.7622C2.92298 52.8369 2.82511 52.8599 2.75027 52.8197L1.46652 52.0783V54.0812C1.46652 54.1703 1.39456 54.2421 1.30821 54.2421Z" fill="#00402A" stroke="#00402A" stroke-width="0.5" stroke-linecap="round" stroke-linejoin="round"/>
<path fill-rule="evenodd" clip-rule="evenodd" d="M55.218 49.4489L63.9366 54.4749L65.9946 51.0151L55.218 46.1414V49.4489Z" fill="#B0A9A3" stroke="#00402A" stroke-width="0.5" stroke-linecap="round" stroke-linejoin="round"/>
<path fill-rule="evenodd" clip-rule="evenodd" d="M89.5106 39.7337L63.9363 54.4753L63.9392 51.1678L89.5106 36.4261V39.7337Z" fill="#D8CFC7" stroke="#00402A" stroke-width="0.5" stroke-linecap="round" stroke-linejoin="round"/>
<path fill-rule="evenodd" clip-rule="evenodd" d="M82.8957 40.8828L81.1169 39.8569L80.8665 39.7391L80.5959 39.6615L80.3052 39.6241L79.9972 39.6328L79.672 39.6816L79.3352 39.7765L78.9869 39.9173L78.6242 40.1041L78.4458 40.2133L78.2644 40.3311L78.0889 40.4604L77.9162 40.5954L77.7463 40.7391L77.5794 40.8885L77.4153 41.0466L77.2541 41.2133L77.0987 41.3828L76.9462 41.561L76.7994 41.742L76.6554 41.9317L76.5173 42.1242L76.3849 42.3225L76.2582 42.5236L76.1344 42.7277L76.0193 42.9346L75.9071 43.1472L75.8034 43.3598L75.7056 43.5754L75.6135 43.7938L75.53 44.0122L75.4523 44.2334L75.3803 44.4518L75.317 44.6731L75.2623 44.8944L75.2134 45.1128L75.176 45.334L75.1443 45.5524L75.1213 45.7679L75.1098 45.9806L75.104 46.1932L75.1213 46.5984L75.176 46.9691L75.2623 47.3082L75.3803 47.6128L75.53 47.8829L75.7056 48.1157L75.9071 48.3111L76.1344 48.4691L77.9162 49.495L82.8957 40.8828Z" fill="#615D5A" stroke="#00402A" stroke-width="0.5" stroke-linecap="round" stroke-linejoin="round"/>
<path fill-rule="evenodd" clip-rule="evenodd" d="M80.4063 41.1295C78.4605 42.2503 76.886 44.9773 76.886 47.2187C76.886 49.4601 78.4634 50.3711 80.4063 49.2504C82.352 48.1296 83.9265 45.4026 83.9265 43.1612C83.9265 40.9198 82.3492 40.0117 80.4063 41.1324V41.1295Z" fill="#3A3735" stroke="#00402A" stroke-width="0.5" stroke-linecap="round" stroke-linejoin="round"/>
<path fill-rule="evenodd" clip-rule="evenodd" d="M80.2827 43.2563C81.3103 42.6643 82.145 43.1442 82.145 44.3282C82.145 45.5121 81.3132 46.9546 80.2827 47.5466C79.2551 48.1386 78.4204 47.6587 78.4204 46.4747C78.4204 45.2908 79.2551 43.8483 80.2827 43.2563Z" fill="#FFF5EC" stroke="#00402A" stroke-width="0.5" stroke-linecap="round" stroke-linejoin="round"/>
<path fill-rule="evenodd" clip-rule="evenodd" d="M80.4062 44.8627C80.2623 44.946 80.1443 45.15 80.1443 45.3167C80.1443 45.4834 80.2623 45.5523 80.4062 45.469C80.5501 45.3857 80.6681 45.1816 80.6681 45.015C80.6681 44.8483 80.5501 44.7793 80.4062 44.8627Z" fill="#FFF5EC" stroke="#00402A" stroke-width="0.5" stroke-linecap="round" stroke-linejoin="round"/>
<path fill-rule="evenodd" clip-rule="evenodd" d="M80.9066 45.4512C80.9468 45.3796 80.9468 45.3023 80.9066 45.2765C80.8664 45.2536 80.7976 45.2908 80.7574 45.3624C80.7143 45.434 80.7143 45.5113 80.7574 45.5342C80.7976 45.5571 80.8664 45.5199 80.9066 45.4483V45.4512Z" fill="#FFF5EC" stroke="#00402A" stroke-width="0.5" stroke-linecap="round" stroke-linejoin="round"/>
<path fill-rule="evenodd" clip-rule="evenodd" d="M79.9056 44.8736C79.8654 44.9452 79.8654 45.0225 79.9056 45.0483C79.9487 45.0712 80.0147 45.034 80.0548 44.9624C80.095 44.8908 80.095 44.8135 80.0548 44.7906C80.0147 44.7677 79.9458 44.8049 79.9056 44.8765V44.8736Z" fill="#FFF5EC" stroke="#00402A" stroke-width="0.5" stroke-linecap="round" stroke-linejoin="round"/>
<path fill-rule="evenodd" clip-rule="evenodd" d="M80.9066 44.2968C80.8664 44.2739 80.7976 44.3112 80.7574 44.3827C80.7143 44.4543 80.7143 44.5317 80.7574 44.5546C80.7976 44.5775 80.8664 44.5403 80.9066 44.4687C80.9468 44.3971 80.9468 44.3197 80.9066 44.2968Z" fill="#FFF5EC" stroke="#00402A" stroke-width="0.5" stroke-linecap="round" stroke-linejoin="round"/>
<path fill-rule="evenodd" clip-rule="evenodd" d="M85.0353 42.0952L83.2536 41.0694L83.0032 40.9515L82.7326 40.874L82.4419 40.8395L82.1339 40.8452L81.8115 40.8941L81.4748 40.9889L81.1236 41.1297L80.7638 41.3165L80.5825 41.4257L80.404 41.5435L80.2284 41.6728L80.0529 41.8079L79.883 41.9516L79.7161 42.1039L79.552 42.259L79.3937 42.4257L79.2383 42.5981L79.0857 42.7734L78.9389 42.9573L78.795 43.1441L78.6569 43.3366L78.5245 43.5349L78.3949 43.7361L78.274 43.9401L78.156 44.1499L78.0466 44.3597L77.943 44.5723L77.8423 44.7878L77.753 45.0062L77.6667 45.2246L77.589 45.4459L77.5199 45.6671L77.4566 45.8855L77.4019 46.1068L77.3529 46.3281L77.3127 46.5465L77.2839 46.7649L77.2609 46.9804L77.2464 47.193L77.2407 47.4057L77.2609 47.8109L77.3127 48.1844L77.4019 48.5206L77.5199 48.8281L77.6667 49.0954L77.8423 49.3281L78.0466 49.5235L78.274 49.6816L80.0529 50.7074L85.0353 42.0952Z" fill="#615D5A" stroke="#00402A" stroke-width="0.5" stroke-linecap="round" stroke-linejoin="round"/>
<path fill-rule="evenodd" clip-rule="evenodd" d="M82.5447 42.3427C80.5989 43.4634 79.0244 46.1905 79.0244 48.4319C79.0244 50.6733 80.6018 51.5814 82.5447 50.4607C84.4904 49.34 86.0649 46.6129 86.0649 44.3715C86.0649 42.1301 84.4876 41.222 82.5447 42.3427Z" fill="#615D5A" stroke="#00402A" stroke-width="0.5" stroke-linecap="round" stroke-linejoin="round"/>
<path fill-rule="evenodd" clip-rule="evenodd" d="M82.3318 43.5006C80.812 44.377 79.5801 46.5092 79.5801 48.2593C79.5801 50.0093 80.812 50.7219 82.3318 49.8455C83.8516 48.969 85.0836 46.8397 85.0836 45.0868C85.0836 43.3339 83.8516 42.6241 82.3318 43.5006Z" fill="#89837E" stroke="#00402A" stroke-width="0.5" stroke-linecap="round" stroke-linejoin="round"/>
<path fill-rule="evenodd" clip-rule="evenodd" d="M82.4212 44.4689C83.4488 43.877 84.2835 44.3569 84.2835 45.5408C84.2835 46.7247 83.4488 48.1673 82.4212 48.7592C81.3936 49.3512 80.5618 48.8713 80.5618 47.6874C80.5618 46.5034 81.3936 45.0609 82.4212 44.4689Z" fill="#FFF5EC" stroke="#00402A" stroke-width="0.5" stroke-linecap="round" stroke-linejoin="round"/>
<path fill-rule="evenodd" clip-rule="evenodd" d="M82.5427 44.0263C81.4173 44.6758 80.502 46.2563 80.502 47.5551C80.502 48.854 81.4173 49.3799 82.5427 48.7304C83.6681 48.081 84.5835 46.5005 84.5835 45.2017C84.5835 43.9028 83.6681 43.3769 82.5427 44.0263Z" fill="#B0A9A3" stroke="#00402A" stroke-width="0.5" stroke-linecap="round" stroke-linejoin="round"/>
<path fill-rule="evenodd" clip-rule="evenodd" d="M82.2605 45.1127C81.9957 45.265 81.7568 45.5265 81.5841 45.8253C81.4114 46.1242 81.3049 46.4604 81.3049 46.765C81.3049 47.0696 81.4114 47.2822 81.5841 47.3828C81.682 47.4374 81.7712 47.4891 81.8691 47.5466C82.0418 47.6472 82.2807 47.6328 82.5455 47.4805C82.8103 47.3282 83.0492 47.0667 83.2219 46.7679C83.3946 46.469 83.5011 46.1328 83.5011 45.8282C83.5011 45.5236 83.3946 45.3109 83.2219 45.2103C83.1269 45.1558 83.0348 45.104 82.9369 45.0466C82.7642 44.946 82.5253 44.9604 82.2605 45.1127Z" fill="#89837E" stroke="#00402A" stroke-width="0.5" stroke-linecap="round" stroke-linejoin="round"/>
<path fill-rule="evenodd" clip-rule="evenodd" d="M82.542 45.2766C82.2772 45.4289 82.0383 45.6904 81.8656 45.9892C81.6929 46.2881 81.5864 46.6243 81.5864 46.9289C81.5864 47.2335 81.6929 47.4462 81.8656 47.5467C82.0383 47.6473 82.2772 47.633 82.542 47.4807C82.8068 47.3283 83.0457 47.0669 83.2184 46.768C83.3911 46.4691 83.4977 46.1329 83.4977 45.8283C83.4977 45.5237 83.3911 45.3111 83.2184 45.2105C83.0457 45.1099 82.8068 45.1243 82.542 45.2766Z" fill="#B0A9A3" stroke="#00402A" stroke-width="0.5" stroke-linecap="round" stroke-linejoin="round"/>
<path fill-rule="evenodd" clip-rule="evenodd" d="M75.4041 45.2019L73.6252 44.1731L73.3748 44.0553L73.1042 43.9777L72.8135 43.9432L72.5055 43.949L72.1832 44.0007L71.8435 44.0955L71.4952 44.2335L71.1354 44.4202L70.9541 44.5294L70.7756 44.6502L70.5972 44.7766L70.4245 44.9116L70.2547 45.0553L70.0877 45.2076L69.9236 45.3657L69.7653 45.5295L69.607 45.7019L69.4573 45.8772L69.3077 46.0611L69.1666 46.2479L69.0285 46.4404L68.8932 46.6387L68.7665 46.8398L68.6456 47.0439L68.5276 47.2536L68.4183 47.4634L68.3118 47.6789L68.2139 47.8945L68.1218 48.1129L68.0383 48.3312L67.9606 48.5496L67.8886 48.7709L67.8282 48.9922L67.7706 49.2106L67.7246 49.4318L67.6843 49.6502L67.6526 49.8686L67.6325 50.0841L67.6181 50.2997L67.6123 50.5094L67.6325 50.9146L67.6843 51.2882L67.7706 51.6273L67.8886 51.9319L68.0383 52.1991L68.2139 52.4319L68.4183 52.6302L68.6456 52.7853L70.4245 53.8112L75.4041 45.2019Z" fill="#615D5A" stroke="#00402A" stroke-width="0.5" stroke-linecap="round" stroke-linejoin="round"/>
<path fill-rule="evenodd" clip-rule="evenodd" d="M72.9143 45.446C70.9685 46.5668 69.394 49.2938 69.394 51.5352C69.394 53.7766 70.9714 54.6876 72.9143 53.564C74.8601 52.4433 76.4374 49.7162 76.4374 47.4748C76.4374 45.2334 74.8601 44.3225 72.9143 45.446Z" fill="#3A3735" stroke="#00402A" stroke-width="0.5" stroke-linecap="round" stroke-linejoin="round"/>
<path fill-rule="evenodd" clip-rule="evenodd" d="M72.793 47.5725C73.8205 46.9805 74.6524 47.4604 74.6524 48.6443C74.6524 49.8282 73.8205 51.2708 72.793 51.8628C71.7654 52.4547 70.9307 51.9748 70.9307 50.7909C70.9307 49.607 71.7654 48.1644 72.793 47.5725Z" fill="#FFF5EC" stroke="#00402A" stroke-width="0.5" stroke-linecap="round" stroke-linejoin="round"/>
<path fill-rule="evenodd" clip-rule="evenodd" d="M72.914 49.1787C72.7701 49.2621 72.6521 49.4661 72.6521 49.6328C72.6521 49.7994 72.7701 49.8684 72.914 49.7851C73.058 49.7017 73.1759 49.4977 73.1759 49.331C73.1759 49.1644 73.058 49.0954 72.914 49.1787Z" fill="#FFF5EC" stroke="#00402A" stroke-width="0.5" stroke-linecap="round" stroke-linejoin="round"/>
<path fill-rule="evenodd" clip-rule="evenodd" d="M73.4142 49.7703C73.4543 49.6987 73.4543 49.6214 73.4142 49.5985C73.374 49.5756 73.3051 49.6128 73.2649 49.6844C73.2219 49.756 73.2219 49.8333 73.2649 49.859C73.3051 49.882 73.374 49.8447 73.4142 49.7731V49.7703Z" fill="#FFF5EC" stroke="#00402A" stroke-width="0.5" stroke-linecap="round" stroke-linejoin="round"/>
<path fill-rule="evenodd" clip-rule="evenodd" d="M72.4132 49.1929C72.373 49.2644 72.373 49.3418 72.4132 49.3647C72.4562 49.3876 72.5222 49.3504 72.5624 49.2788C72.6026 49.2072 72.6026 49.1299 72.5624 49.1041C72.5194 49.0812 72.4534 49.1184 72.4132 49.19V49.1929Z" fill="#FFF5EC" stroke="#00402A" stroke-width="0.5" stroke-linecap="round" stroke-linejoin="round"/>
<path fill-rule="evenodd" clip-rule="evenodd" d="M73.4142 48.6155C73.374 48.5926 73.3051 48.6298 73.2649 48.7014C73.2219 48.773 73.2219 48.8503 73.2649 48.8732C73.3051 48.8961 73.374 48.8589 73.4142 48.7873C73.4543 48.7157 73.4543 48.6384 73.4142 48.6155Z" fill="#FFF5EC" stroke="#00402A" stroke-width="0.5" stroke-linecap="round" stroke-linejoin="round"/>
<path fill-rule="evenodd" clip-rule="evenodd" d="M77.5425 46.4142L75.7608 45.3883L75.5132 45.2705L75.2398 45.1929L74.9519 45.1556L74.644 45.1642L74.3187 45.2131L73.9819 45.3079L73.6336 45.4487L73.271 45.6355L73.0896 45.7447L72.9112 45.8625L72.7356 45.9889L72.5629 46.1269L72.3902 46.2705L72.2261 46.42L72.062 46.578L71.9009 46.7418L71.7454 46.9142L71.5929 47.0924L71.4461 47.2734L71.3022 47.4631L71.164 47.6556L71.0316 47.851L70.905 48.0551L70.7812 48.2591L70.666 48.466L70.5538 48.6786L70.4502 48.8913L70.3523 49.1068L70.2602 49.3252L70.1767 49.5436L70.0961 49.7649L70.027 49.9833L69.9637 50.2045L69.909 50.4258L69.863 50.6442L69.8227 50.8654L69.791 51.081L69.768 51.2994L69.7536 51.512L69.7507 51.7247L69.768 52.127L69.8227 52.5005L69.909 52.8396L70.027 53.1442L70.1767 53.4144L70.3523 53.6471L70.5538 53.8425L70.7812 54.0006L72.5629 55.0264L77.5425 46.4142Z" fill="#615D5A" stroke="#00402A" stroke-width="0.5" stroke-linecap="round" stroke-linejoin="round"/>
<path fill-rule="evenodd" clip-rule="evenodd" d="M75.0525 46.6615C73.1067 47.7823 71.5322 50.5093 71.5322 52.7507C71.5322 54.9921 73.1096 55.9031 75.0525 54.7795C76.9982 53.6588 78.5727 50.9317 78.5727 48.6903C78.5727 46.4489 76.9954 45.538 75.0525 46.6587V46.6615Z" fill="#615D5A" stroke="#00402A" stroke-width="0.5" stroke-linecap="round" stroke-linejoin="round"/>
<path fill-rule="evenodd" clip-rule="evenodd" d="M74.842 47.8196C73.3223 48.696 72.0903 50.8254 72.0903 52.5783C72.0903 54.3312 73.3223 55.041 74.842 54.1645C76.3618 53.2881 77.5938 51.1587 77.5938 49.4058C77.5938 47.6529 76.3618 46.9431 74.842 47.8196Z" fill="#89837E" stroke="#00402A" stroke-width="0.5" stroke-linecap="round" stroke-linejoin="round"/>
<path fill-rule="evenodd" clip-rule="evenodd" d="M74.9289 48.7849C75.9565 48.1929 76.7912 48.6728 76.7912 49.8567C76.7912 51.0407 75.9565 52.4832 74.9289 53.0752C73.9014 53.6671 73.0667 53.1872 73.0667 52.0033C73.0667 50.8194 73.8985 49.3768 74.9289 48.7849Z" fill="#FFF5EC" stroke="#00402A" stroke-width="0.5" stroke-linecap="round" stroke-linejoin="round"/>
<path fill-rule="evenodd" clip-rule="evenodd" d="M75.0527 48.3425C73.9244 48.9919 73.012 50.5724 73.012 51.8713C73.012 53.1702 73.9244 53.696 75.0527 53.0466C76.1782 52.3972 77.0935 50.8167 77.0935 49.5178C77.0935 48.2189 76.181 47.6931 75.0527 48.3425Z" fill="#B0A9A3" stroke="#00402A" stroke-width="0.5" stroke-linecap="round" stroke-linejoin="round"/>
<path fill-rule="evenodd" clip-rule="evenodd" d="M74.7671 49.4291C74.5023 49.5814 74.2634 49.8429 74.0907 50.1417C73.918 50.4406 73.8115 50.7768 73.8115 51.0814C73.8115 51.386 73.918 51.5986 74.0907 51.6992C74.1886 51.7538 74.2778 51.8055 74.3757 51.863C74.5484 51.9636 74.7873 51.9492 75.0521 51.7969C75.3169 51.6446 75.5558 51.3831 75.7285 51.0843C75.9012 50.7854 76.0077 50.4492 76.0077 50.1446C76.0077 49.84 75.9012 49.6273 75.7285 49.5268C75.6335 49.4722 75.5414 49.4176 75.4435 49.363C75.2708 49.2653 75.0319 49.2768 74.7671 49.4291Z" fill="#89837E" stroke="#00402A" stroke-width="0.5" stroke-linecap="round" stroke-linejoin="round"/>
<path fill-rule="evenodd" clip-rule="evenodd" d="M75.053 49.5927C74.7882 49.745 74.5493 50.0065 74.3766 50.3054C74.2039 50.6042 74.0974 50.9404 74.0974 51.245C74.0974 51.5496 74.2039 51.7623 74.3766 51.8628C74.5493 51.9634 74.7882 51.9491 75.053 51.7968C75.3178 51.6445 75.5568 51.3829 75.7295 51.0841C75.9022 50.7852 76.0087 50.449 76.0087 50.1444C76.0087 49.8398 75.9022 49.6272 75.7295 49.5266C75.5568 49.426 75.3178 49.4404 75.053 49.5927Z" fill="#B0A9A3" stroke="#00402A" stroke-width="0.5" stroke-linecap="round" stroke-linejoin="round"/>
<path fill-rule="evenodd" clip-rule="evenodd" d="M25.9454 73.0668L57.8867 54.6556L47.9649 48.4199L16.0237 66.8311L25.9454 73.0668Z" fill="#D8CFC7" stroke="#00402A" stroke-width="0.5" stroke-linecap="round" stroke-linejoin="round"/>
<path fill-rule="evenodd" clip-rule="evenodd" d="M51.5191 61.6335L25.9448 76.3751V73.0676L51.5191 58.326V61.6335Z" fill="#3A3735" stroke="#00402A" stroke-width="0.5" stroke-linecap="round" stroke-linejoin="round"/>
<path fill-rule="evenodd" clip-rule="evenodd" d="M47.5469 61.2567L45.768 60.2308L45.5176 60.113L45.247 60.0354L44.9563 60.0009L44.6484 60.0067L44.3231 60.0555L43.9863 60.1503L43.638 60.2912L43.2782 60.4779L43.0969 60.5871L42.9156 60.705L42.74 60.8343L42.5673 60.9693L42.3975 61.113L42.2305 61.2624L42.0664 61.4205L41.9053 61.5872L41.7498 61.7567L41.5973 61.9349L41.4505 62.1188L41.3094 62.3056L41.1713 62.4981L41.036 62.6964L40.9094 62.8975L40.7885 63.1015L40.6704 63.3113L40.5611 63.5211L40.4546 63.7337L40.3567 63.9493L40.2646 64.1677L40.1811 64.386L40.1034 64.6073L40.0314 64.8286L39.9681 65.047L39.9134 65.2682L39.8674 65.4895L39.8271 65.7079L39.7954 65.9263L39.7724 66.1418L39.7609 66.3545L39.7551 66.5671L39.7724 66.9723L39.8271 67.3459L39.9134 67.6821L40.0314 67.9867L40.1811 68.2568L40.3567 68.4896L40.5611 68.685L40.7885 68.843L42.5673 69.8689L47.5469 61.2567Z" fill="#615D5A" stroke="#00402A" stroke-width="0.5" stroke-linecap="round" stroke-linejoin="round"/>
<path fill-rule="evenodd" clip-rule="evenodd" d="M45.0571 61.5037C43.1113 62.6245 41.5369 65.3515 41.5369 67.5929C41.5369 69.8343 43.1142 70.7424 45.0571 69.6217C47.0029 68.501 48.5773 65.7739 48.5773 63.5325C48.5773 61.2911 47 60.383 45.0571 61.5037Z" fill="#3A3735" stroke="#00402A" stroke-width="0.5" stroke-linecap="round" stroke-linejoin="round"/>
<path fill-rule="evenodd" clip-rule="evenodd" d="M44.9363 63.6304C45.9639 63.0384 46.7957 63.5183 46.7957 64.7022C46.7957 65.8862 45.9639 67.3287 44.9363 67.9207C43.9087 68.5126 43.074 68.0328 43.074 66.8488C43.074 65.6649 43.9058 64.2223 44.9363 63.6304Z" fill="#FFF5EC" stroke="#00402A" stroke-width="0.5" stroke-linecap="round" stroke-linejoin="round"/>
<path fill-rule="evenodd" clip-rule="evenodd" d="M45.0571 65.2367C44.9132 65.32 44.7952 65.5241 44.7952 65.6907C44.7952 65.8574 44.9132 65.9264 45.0571 65.843C45.201 65.7597 45.319 65.5557 45.319 65.389C45.319 65.2223 45.201 65.1534 45.0571 65.2367Z" fill="#FFF5EC" stroke="#00402A" stroke-width="0.5" stroke-linecap="round" stroke-linejoin="round"/>
<path fill-rule="evenodd" clip-rule="evenodd" d="M45.5573 65.8282C45.5975 65.7566 45.5975 65.6793 45.5573 65.6564C45.5171 65.6335 45.4482 65.6707 45.4081 65.7423C45.3679 65.8139 45.3679 65.8912 45.4081 65.9141C45.4511 65.937 45.5171 65.8998 45.5573 65.8282Z" fill="#FFF5EC" stroke="#00402A" stroke-width="0.5" stroke-linecap="round" stroke-linejoin="round"/>
<path fill-rule="evenodd" clip-rule="evenodd" d="M44.5565 65.2507C44.5163 65.3223 44.5163 65.3996 44.5565 65.4254C44.5967 65.4483 44.6655 65.411 44.7057 65.3394C44.7488 65.2679 44.7488 65.1905 44.7057 65.1676C44.6655 65.1447 44.5967 65.1819 44.5565 65.2535V65.2507Z" fill="#FFF5EC" stroke="#00402A" stroke-width="0.5" stroke-linecap="round" stroke-linejoin="round"/>
<path fill-rule="evenodd" clip-rule="evenodd" d="M45.5573 64.673C45.5171 64.6501 45.4482 64.6873 45.4081 64.7589C45.3679 64.8305 45.3679 64.9078 45.4081 64.9307C45.4511 64.9536 45.5171 64.9164 45.5573 64.8448C45.5975 64.7732 45.5975 64.6959 45.5573 64.6701V64.673Z" fill="#FFF5EC" stroke="#00402A" stroke-width="0.5" stroke-linecap="round" stroke-linejoin="round"/>
<path fill-rule="evenodd" clip-rule="evenodd" d="M49.6858 62.4724L47.9041 61.4436L47.6537 61.3258L47.3831 61.2511L47.0924 61.2137L46.7844 61.2195L46.462 61.2712L46.1252 61.3661L45.7741 61.504L45.4143 61.6908L45.2329 61.8L45.0545 61.9207L44.8789 62.0471L44.7062 62.1822L44.5335 62.3258L44.3694 62.4781L44.2054 62.6362L44.0442 62.8L43.8888 62.9724L43.7362 63.1477L43.5894 63.3316L43.4455 63.5184L43.3073 63.7109L43.1749 63.9092L43.0483 64.1104L42.9245 64.3144L42.8094 64.5242L42.6971 64.7339L42.5935 64.9494L42.4956 65.165L42.4035 65.3834L42.3172 65.6018L42.2395 65.8202L42.1704 66.0414L42.107 66.2627L42.0523 66.4811L42.0034 66.7024L41.966 66.9208L41.9343 67.1391L41.9113 67.3547L41.8969 67.5702L41.894 67.78L41.9113 68.1851L41.966 68.5587L42.0523 68.8978L42.1704 69.2024L42.3172 69.4696L42.4956 69.7053L42.6971 69.9007L42.9245 70.0559L44.7062 71.0817L49.6858 62.4724Z" fill="#615D5A" stroke="#00402A" stroke-width="0.5" stroke-linecap="round" stroke-linejoin="round"/>
<path fill-rule="evenodd" clip-rule="evenodd" d="M47.196 62.7168C45.2502 63.8375 43.6758 66.5646 43.6758 68.806C43.6758 71.0474 45.2531 71.9583 47.196 70.8347C49.1418 69.714 50.7163 66.987 50.7163 64.7456C50.7163 62.5041 49.1389 61.5932 47.196 62.7168Z" fill="#615D5A" stroke="#00402A" stroke-width="0.5" stroke-linecap="round" stroke-linejoin="round"/>
<path fill-rule="evenodd" clip-rule="evenodd" d="M46.9851 63.8745C45.4653 64.7509 44.2334 66.8803 44.2334 68.6332C44.2334 70.3861 45.4653 71.0958 46.9851 70.2194C48.5049 69.3429 49.7368 67.2136 49.7368 65.4607C49.7368 63.7078 48.5049 62.998 46.9851 63.8745Z" fill="#89837E" stroke="#00402A" stroke-width="0.5" stroke-linecap="round" stroke-linejoin="round"/>
<path fill-rule="evenodd" clip-rule="evenodd" d="M47.072 64.8433C48.0996 64.2513 48.9314 64.7312 48.9314 65.9151C48.9314 67.0991 48.0996 68.5416 47.072 69.1336C46.0444 69.7255 45.2097 69.2456 45.2097 68.0617C45.2097 66.8778 46.0416 65.4352 47.072 64.8433Z" fill="#FFF5EC" stroke="#00402A" stroke-width="0.5" stroke-linecap="round" stroke-linejoin="round"/>
<path fill-rule="evenodd" clip-rule="evenodd" d="M47.1958 64.4006C46.0675 65.05 45.155 66.6305 45.155 67.9294C45.155 69.2283 46.0675 69.7541 47.1958 69.1047C48.3241 68.4553 49.2366 66.8748 49.2366 65.5759C49.2366 64.277 48.3241 63.7512 47.1958 64.4006Z" fill="#B0A9A3" stroke="#00402A" stroke-width="0.5" stroke-linecap="round" stroke-linejoin="round"/>
<path fill-rule="evenodd" clip-rule="evenodd" d="M46.9109 65.4867C46.6461 65.639 46.4072 65.9005 46.2345 66.1994C46.0618 66.4983 45.9553 66.8345 45.9553 67.1391C45.9553 67.4437 46.0618 67.6563 46.2345 67.7569C46.3324 67.8115 46.4216 67.8632 46.5195 67.9207C46.6922 68.0184 46.9311 68.0069 47.1959 67.8546C47.4607 67.7023 47.6996 67.4408 47.8723 67.1419C48.045 66.8431 48.1515 66.5069 48.1515 66.2023C48.1515 65.8977 48.045 65.685 47.8723 65.5844C47.7773 65.5298 47.6852 65.4752 47.5874 65.4206C47.4147 65.3201 47.1758 65.3344 46.9109 65.4867Z" fill="#89837E" stroke="#00402A" stroke-width="0.5" stroke-linecap="round" stroke-linejoin="round"/>
<path fill-rule="evenodd" clip-rule="evenodd" d="M47.1951 65.6504C46.9303 65.8027 46.6914 66.0642 46.5187 66.363C46.346 66.6619 46.2395 66.9981 46.2395 67.3027C46.2395 67.6073 46.346 67.8199 46.5187 67.9205C46.6914 68.0182 46.9303 68.0067 47.1951 67.8544C47.4599 67.7021 47.6988 67.4406 47.8715 67.1418C48.0443 66.8429 48.1507 66.5067 48.1507 66.2021C48.1507 65.8975 48.0443 65.6849 47.8715 65.5843C47.6988 65.4837 47.4599 65.4981 47.1951 65.6504Z" fill="#B0A9A3" stroke="#00402A" stroke-width="0.5" stroke-linecap="round" stroke-linejoin="round"/>
<path fill-rule="evenodd" clip-rule="evenodd" d="M33.1179 72.5675L30.3201 70.9554V74.1192L33.1179 75.7313V72.5675Z" fill="#B0A9A3" stroke="#00402A" stroke-width="0.5" stroke-linecap="round" stroke-linejoin="round"/>
<path fill-rule="evenodd" clip-rule="evenodd" d="M33.1179 72.567L40.4865 68.3198L37.6887 66.7077L30.3201 70.9549L33.1179 72.567Z" fill="#D8CFC7" stroke="#00402A" stroke-width="0.5" stroke-linecap="round" stroke-linejoin="round"/>
<path fill-rule="evenodd" clip-rule="evenodd" d="M33.1172 72.5672L40.4858 68.32V71.4838L33.1172 75.731V72.5672Z" fill="#615D5A" stroke="#00402A" stroke-width="0.5" stroke-linecap="round" stroke-linejoin="round"/>
<path fill-rule="evenodd" clip-rule="evenodd" d="M20.1246 81.3232L23.9989 79.0674V76.3662L19.759 78.8318V79.2169L0.61499 68.1851V70.2713L19.759 81.306L19.9605 81.4209L20.1246 81.3232Z" fill="#00402A" stroke="#00402A" stroke-width="0.5" stroke-linecap="round" stroke-linejoin="round"/>
<path fill-rule="evenodd" clip-rule="evenodd" d="M36.3933 45.377L16.6995 34.0291L16.7023 56.7278L36.3933 68.0785V45.377Z" fill="#E3850D" stroke="#00402A" stroke-width="0.5" stroke-linecap="round" stroke-linejoin="round"/>
<path fill-rule="evenodd" clip-rule="evenodd" d="M31.0715 73.1849L29.2898 72.159L29.0393 72.0412L28.7688 71.9636L28.4781 71.9291L28.1701 71.9349L27.8477 71.9837L27.5109 72.0786L27.1598 72.2194L26.8 72.4061L26.6186 72.5153L26.4402 72.6332L26.2646 72.7625L26.089 72.8975L25.9192 73.0412L25.7522 73.1906L25.5882 73.3487L25.4299 73.5154L25.2744 73.6849L25.1219 73.8631L24.9722 74.047L24.8312 74.2338L24.693 74.4263L24.5606 74.6246L24.4311 74.8257L24.3102 75.0298L24.1922 75.2395L24.0828 75.4493L23.9792 75.662L23.8784 75.8775L23.7892 76.0959L23.7028 76.3143L23.6251 76.5355L23.556 76.7568L23.4927 76.9752L23.4352 77.1965L23.3891 77.4177L23.3488 77.6361L23.32 77.8545L23.297 78.07L23.2826 78.2827L23.2769 78.4953L23.297 78.9005L23.3488 79.2712L23.4352 79.6103L23.556 79.9149L23.7028 80.185L23.8784 80.4178L24.0828 80.6132L24.3102 80.7712L26.089 81.7971L31.0715 73.1849Z" fill="#615D5A" stroke="#00402A" stroke-width="0.5" stroke-linecap="round" stroke-linejoin="round"/>
<path fill-rule="evenodd" clip-rule="evenodd" d="M28.5788 73.4323C26.6331 74.553 25.0586 77.2801 25.0586 79.5215C25.0586 81.7629 26.6359 82.6739 28.5788 81.5503C30.5246 80.4296 32.102 77.7025 32.102 75.4611C32.102 73.2197 30.5246 72.3116 28.5788 73.4323Z" fill="#615D5A" stroke="#00402A" stroke-width="0.5" stroke-linecap="round" stroke-linejoin="round"/>
<path fill-rule="evenodd" clip-rule="evenodd" d="M28.3679 74.5904C26.8482 75.4669 25.6162 77.5962 25.6162 79.3491C25.6162 81.102 26.8482 81.8118 28.3679 80.9353C29.8877 80.0589 31.1196 77.9295 31.1196 76.1766C31.1196 74.4237 29.8877 73.7139 28.3679 74.5904Z" fill="#89837E" stroke="#00402A" stroke-width="0.5" stroke-linecap="round" stroke-linejoin="round"/>
<path fill-rule="evenodd" clip-rule="evenodd" d="M28.4575 75.5585C29.4851 74.9666 30.3169 75.4465 30.3169 76.6304C30.3169 77.8143 29.4851 79.2569 28.4575 79.8488C27.43 80.4408 26.5952 79.9609 26.5952 78.777C26.5952 77.593 27.4271 76.1505 28.4575 75.5585Z" fill="#FFF5EC" stroke="#00402A" stroke-width="0.5" stroke-linecap="round" stroke-linejoin="round"/>
<path fill-rule="evenodd" clip-rule="evenodd" d="M28.5786 75.1133C27.4532 75.7627 26.5378 77.3432 26.5378 78.6421C26.5378 79.941 27.4503 80.4669 28.5786 79.8174C29.7069 79.168 30.6194 77.5875 30.6194 76.2886C30.6194 74.9898 29.7069 74.4639 28.5786 75.1133Z" fill="#B0A9A3" stroke="#00402A" stroke-width="0.5" stroke-linecap="round" stroke-linejoin="round"/>
<path fill-rule="evenodd" clip-rule="evenodd" d="M28.2964 76.2025C28.0316 76.3548 27.7927 76.6163 27.62 76.9151C27.4473 77.214 27.3408 77.5502 27.3408 77.8548C27.3408 78.1594 27.4473 78.3721 27.62 78.4726C27.7179 78.5272 27.8071 78.579 27.905 78.6364C28.0777 78.737 28.3166 78.7227 28.5814 78.5704C28.8462 78.4181 29.0851 78.1566 29.2578 77.8577C29.4305 77.5588 29.537 77.2226 29.537 76.918C29.537 76.6134 29.4305 76.4008 29.2578 76.3002C29.1599 76.2456 29.0707 76.1939 28.9729 76.1364C28.8001 76.0358 28.5613 76.0502 28.2964 76.2025Z" fill="#89837E" stroke="#00402A" stroke-width="0.5" stroke-linecap="round" stroke-linejoin="round"/>
<path fill-rule="evenodd" clip-rule="evenodd" d="M28.5789 76.3635C28.3141 76.5158 28.0752 76.7773 27.9025 77.0762C27.7298 77.375 27.6233 77.7112 27.6233 78.0158C27.6233 78.3204 27.7298 78.5331 27.9025 78.6337C28.0752 78.7342 28.3141 78.7199 28.5789 78.5676C28.8437 78.4153 29.0826 78.1538 29.2553 77.8549C29.428 77.5561 29.5345 77.2198 29.5345 76.9152C29.5345 76.6106 29.428 76.398 29.2553 76.2974C29.0826 76.1968 28.8437 76.2112 28.5789 76.3635Z" fill="#B0A9A3" stroke="#00402A" stroke-width="0.5" stroke-linecap="round" stroke-linejoin="round"/>
<path fill-rule="evenodd" clip-rule="evenodd" d="M23.6511 61.0814L31.6703 53.1186L11.9765 41.7708L3.96021 49.7307L23.6511 61.0814Z" fill="#5BD38C" stroke="#00402A" stroke-width="0.5" stroke-linecap="round" stroke-linejoin="round"/>
<path d="M3.96306 49.7337L2.43994 52.3664L22.1306 63.7206L23.6537 61.0879L3.96306 49.7337Z" fill="#00A443" stroke="#00402A" stroke-width="0.5" stroke-linecap="round" stroke-linejoin="round"/>
<path fill-rule="evenodd" clip-rule="evenodd" d="M19.9409 76.8288L22.1285 63.7136L2.43755 52.3657L0.25 65.4809L19.9409 76.8288Z" fill="#00A443" stroke="#00402A" stroke-width="0.5" stroke-linecap="round" stroke-linejoin="round"/>
<path fill-rule="evenodd" clip-rule="evenodd" d="M19.4255 75.7395L21.3713 64.0698L2.9526 53.4547L1.00684 65.1244L19.4255 75.7395Z" fill="#B4EDFC" stroke="#00402A" stroke-width="0.5" stroke-linecap="round" stroke-linejoin="round"/>
<path fill-rule="evenodd" clip-rule="evenodd" d="M19.9409 76.8283V81.11L0.25 69.7592V65.4804L19.9409 76.8283Z" fill="#00A443" stroke="#00402A" stroke-width="0.5" stroke-linecap="round" stroke-linejoin="round"/>
<path fill-rule="evenodd" clip-rule="evenodd" d="M19.9409 81.6193V84.3234L0.25 72.9726V70.2714L19.9409 81.6193Z" fill="#00A443" stroke="#00402A" stroke-width="0.5" stroke-linecap="round" stroke-linejoin="round"/>
<path fill-rule="evenodd" clip-rule="evenodd" d="M31.67 70.5471V53.1186L23.6508 61.0814L22.1253 63.7165L19.9377 76.8316V81.1104L24.2841 78.5817C24.8051 76.1104 26.5292 73.5097 28.5786 72.3287C29.232 71.9522 31.0137 70.9235 31.6671 70.5471H31.67ZM19.9406 81.6191L24.1805 79.1506V81.8547L19.9406 84.3231V81.6191Z" fill="#007F33" stroke="#00402A" stroke-width="0.5" stroke-linecap="round" stroke-linejoin="round"/>
<path fill-rule="evenodd" clip-rule="evenodd" d="M22.6889 64.5126L21.1404 73.7973L22.7321 72.8806L28.1406 66.7253V61.3689L22.6889 64.5126Z" fill="#5BD38C" stroke="#00402A" stroke-width="0.5" stroke-linecap="round" stroke-linejoin="round"/>
<path fill-rule="evenodd" clip-rule="evenodd" d="M22.6895 64.5123L21.2273 73.2797L22.3268 72.6475L27.7353 66.4922V61.6042L22.6895 64.5123Z" fill="#B4EDFC" stroke="#00402A" stroke-width="0.5" stroke-linecap="round" stroke-linejoin="round"/>
<path fill-rule="evenodd" clip-rule="evenodd" d="M36.3933 45.3772L94.9939 11.6008L75.303 0.25L16.6995 34.0293L36.3933 45.3772Z" fill="#FFCD52" stroke="#00402A" stroke-width="0.5" stroke-linecap="round" stroke-linejoin="round"/>
<path fill-rule="evenodd" clip-rule="evenodd" d="M36.3928 45.3774L94.9935 11.601L94.9964 34.2996L36.3928 68.0789V45.3774Z" fill="#FF9C1A" stroke="#00402A" stroke-width="0.5" stroke-linecap="round" stroke-linejoin="round"/>
<path fill-rule="evenodd" clip-rule="evenodd" d="M19.9409 81.6193L20.1223 81.513L0.434202 70.1651L0.25 70.2714L19.9409 81.6193Z" fill="#5BD38C" stroke="#00402A" stroke-width="0.5" stroke-linecap="round" stroke-linejoin="round"/>
<path fill-rule="evenodd" clip-rule="evenodd" d="M19.9403 81.619L19.7561 81.5126L23.9988 79.0672L24.183 79.1735L19.9403 81.619Z" fill="#5BD38C" stroke="#00402A" stroke-width="0.5" stroke-linecap="round" stroke-linejoin="round"/>
<path fill-rule="evenodd" clip-rule="evenodd" d="M24.9691 66.5241L23.1672 65.4839V69.9322L24.9691 70.9725V66.5241Z" fill="#00A443" stroke="#00402A" stroke-width="0.5" stroke-linecap="round" stroke-linejoin="round"/>
<path fill-rule="evenodd" clip-rule="evenodd" d="M24.9692 66.524L25.2484 66.3631V70.8114L24.9692 70.9724V66.524Z" fill="#007F33" stroke="#00402A" stroke-width="0.5" stroke-linecap="round" stroke-linejoin="round"/>
<path fill-rule="evenodd" clip-rule="evenodd" d="M24.9691 66.5243L25.2483 66.3634L23.4464 65.3231L23.1672 65.484L24.9691 66.5243Z" fill="#5BD38C" stroke="#00402A" stroke-width="0.5" stroke-linecap="round" stroke-linejoin="round"/>
<path d="M24.0675 67.3602C23.9783 67.3602 23.9063 67.2884 23.9063 67.1993V65.0125L22.4643 64.1791C22.3894 64.136 22.3606 64.0383 22.4067 63.9607C22.4499 63.886 22.5477 63.8601 22.6255 63.9033L24.1481 64.7826C24.197 64.8113 24.2287 64.863 24.2287 64.9205V67.1993C24.2287 67.2884 24.1568 67.3602 24.0675 67.3602Z" fill="#00402A" stroke="#00402A" stroke-width="0.5" stroke-linecap="round" stroke-linejoin="round"/>
<path fill-rule="evenodd" clip-rule="evenodd" d="M14.9435 77.1939V74.9841L5.24341 69.395V71.6048L14.9435 77.1939Z" fill="#FFF5EC" stroke="#00402A" stroke-width="0.5" stroke-linecap="round" stroke-linejoin="round"/>
<path fill-rule="evenodd" clip-rule="evenodd" d="M1.54499 69.4726V67.2628L0.713135 66.7829V68.9927L1.54499 69.4726ZM4.44637 71.145V68.9352L1.77237 67.3921V69.6019L4.44637 71.1422V71.145Z" fill="#FFF5EC" stroke="#00402A" stroke-width="0.5" stroke-linecap="round" stroke-linejoin="round"/>
<path fill-rule="evenodd" clip-rule="evenodd" d="M1.2508 69.639V67.4292L0.418945 66.9522V69.162L1.2508 69.639Z" fill="#FF9C1A" stroke="#00402A" stroke-width="0.5" stroke-linecap="round" stroke-linejoin="round"/>
<path fill-rule="evenodd" clip-rule="evenodd" d="M1.25122 69.6387V67.4289L1.54482 67.2623V69.4634L1.25122 69.6387Z" fill="#C66D00" stroke="#00402A" stroke-width="0.5" stroke-linecap="round" stroke-linejoin="round"/>
<path fill-rule="evenodd" clip-rule="evenodd" d="M0.418945 66.9524L1.2508 67.4295L1.5444 67.2628L0.712545 66.7829L0.418945 66.9524Z" fill="#FFCD52" stroke="#00402A" stroke-width="0.5" stroke-linecap="round" stroke-linejoin="round"/>
<path fill-rule="evenodd" clip-rule="evenodd" d="M4.15204 71.3147V69.102L1.47803 67.5618V69.7716L4.15204 71.3147Z" fill="#0DA9FF" stroke="#00402A" stroke-width="0.5" stroke-linecap="round" stroke-linejoin="round"/>
<path fill-rule="evenodd" clip-rule="evenodd" d="M4.15234 71.3144V69.1017L4.44593 68.935V71.1362L4.15234 71.3144Z" fill="#007ACB" stroke="#00402A" stroke-width="0.5" stroke-linecap="round" stroke-linejoin="round"/>
<path fill-rule="evenodd" clip-rule="evenodd" d="M1.47803 67.5616L4.15204 69.1018L4.44562 68.9352L1.77163 67.392L1.47803 67.5616Z" fill="#6BDAFF" stroke="#00402A" stroke-width="0.5" stroke-linecap="round" stroke-linejoin="round"/>
<path fill-rule="evenodd" clip-rule="evenodd" d="M18.1242 79.3662V77.1563L15.4502 75.6132V77.8259L18.1242 79.3662Z" fill="#0DA9FF" stroke="#00402A" stroke-width="0.5" stroke-linecap="round" stroke-linejoin="round"/>
<path fill-rule="evenodd" clip-rule="evenodd" d="M18.1243 79.3662V77.1564L18.4179 76.9868V79.188L18.1243 79.3662Z" fill="#007ACB" stroke="#00402A" stroke-width="0.5" stroke-linecap="round" stroke-linejoin="round"/>
<path fill-rule="evenodd" clip-rule="evenodd" d="M15.4502 75.6133L18.1242 77.1564L18.4178 76.9868L15.7438 75.4466L15.4502 75.6133Z" fill="#6BDAFF" stroke="#00402A" stroke-width="0.5" stroke-linecap="round" stroke-linejoin="round"/>
<path fill-rule="evenodd" clip-rule="evenodd" d="M19.1834 79.9755V77.7657L18.3516 77.2886V79.4984L19.1834 79.9755Z" fill="#FF9C1A" stroke="#00402A" stroke-width="0.5" stroke-linecap="round" stroke-linejoin="round"/>
<path fill-rule="evenodd" clip-rule="evenodd" d="M19.1836 79.9751V77.7653L19.4743 77.5958V79.7998L19.1836 79.9751Z" fill="#C66D00" stroke="#00402A" stroke-width="0.5" stroke-linecap="round" stroke-linejoin="round"/>
<path fill-rule="evenodd" clip-rule="evenodd" d="M18.3516 77.2886L19.1834 77.7656L19.4741 77.5961L18.6452 77.1191L18.3516 77.2886Z" fill="#FFCD52" stroke="#00402A" stroke-width="0.5" stroke-linecap="round" stroke-linejoin="round"/>
<path fill-rule="evenodd" clip-rule="evenodd" d="M2.87459 73.915V72.3575L0.989258 71.2684V72.8259L2.87459 73.915Z" fill="#FFF5EC" stroke="#00402A" stroke-width="0.5" stroke-linecap="round" stroke-linejoin="round"/>
<path fill-rule="evenodd" clip-rule="evenodd" d="M19.2008 83.3229V81.7654L17.3154 80.6792V82.2367L19.2008 83.3229Z" fill="#FFF5EC" stroke="#00402A" stroke-width="0.5" stroke-linecap="round" stroke-linejoin="round"/>
<path fill-rule="evenodd" clip-rule="evenodd" d="M2.58113 74.0902V72.5241L0.695801 71.4379V73.004L2.58113 74.0902Z" fill="#FF9C1A" stroke="#00402A" stroke-width="0.5" stroke-linecap="round" stroke-linejoin="round"/>
<path fill-rule="evenodd" clip-rule="evenodd" d="M2.58105 74.0904V72.5243L2.87465 72.3577V73.9152L2.58105 74.0904Z" fill="#C66D00" stroke="#00402A" stroke-width="0.5" stroke-linecap="round" stroke-linejoin="round"/>
<path fill-rule="evenodd" clip-rule="evenodd" d="M0.695801 71.4379L2.58113 72.5242L2.87473 72.3575L0.9894 71.2684L0.695801 71.4379Z" fill="#FFCD52" stroke="#00402A" stroke-width="0.5" stroke-linecap="round" stroke-linejoin="round"/>
<path fill-rule="evenodd" clip-rule="evenodd" d="M18.9071 83.5011V81.935L17.0217 80.8488V82.4149L18.9071 83.5011Z" fill="#FF9C1A" stroke="#00402A" stroke-width="0.5" stroke-linecap="round" stroke-linejoin="round"/>
<path fill-rule="evenodd" clip-rule="evenodd" d="M18.9067 83.5012V81.9351L19.2003 81.7655V83.323L18.9067 83.5012Z" fill="#C66D00" stroke="#00402A" stroke-width="0.5" stroke-linecap="round" stroke-linejoin="round"/>
<path fill-rule="evenodd" clip-rule="evenodd" d="M17.0217 80.8488L18.9071 81.935L19.2007 81.7654L17.3153 80.6792L17.0217 80.8488Z" fill="#FFCD52" stroke="#00402A" stroke-width="0.5" stroke-linecap="round" stroke-linejoin="round"/>
<path fill-rule="evenodd" clip-rule="evenodd" d="M14.9435 80.0932V79.3087L5.24341 73.7195V74.5011L14.9435 80.0932Z" fill="#FFF5EC" stroke="#00402A" stroke-width="0.5" stroke-linecap="round" stroke-linejoin="round"/>
<path fill-rule="evenodd" clip-rule="evenodd" d="M26.4224 70.4524L28.1407 69.461V70.1995L26.4224 71.1909V70.4524Z" fill="#00402A" stroke="#00402A" stroke-width="0.5" stroke-linecap="round" stroke-linejoin="round"/>
<path fill-rule="evenodd" clip-rule="evenodd" d="M0.433911 70.3742L0.25 70.2681L0.614963 70.0587V70.2681L0.433911 70.3742Z" fill="#5BD38C" stroke="#00402A" stroke-width="0.5" stroke-linecap="round" stroke-linejoin="round"/>
<path fill-rule="evenodd" clip-rule="evenodd" d="M52.5128 61.3894L51.8738 61.0215V64.1854L52.5128 64.5532V61.3894Z" fill="#B0A9A3" stroke="#00402A" stroke-width="0.5" stroke-linecap="round" stroke-linejoin="round"/>
<path fill-rule="evenodd" clip-rule="evenodd" d="M52.5128 61.3885L69.2188 51.759L68.5798 51.3912L51.8738 61.0206L52.5128 61.3885Z" fill="#D8CFC7" stroke="#00402A" stroke-width="0.5" stroke-linecap="round" stroke-linejoin="round"/>
<path fill-rule="evenodd" clip-rule="evenodd" d="M52.5127 61.3888L69.2187 51.7593V54.9232L52.5127 64.5526V61.3888Z" fill="#615D5A" stroke="#00402A" stroke-width="0.5" stroke-linecap="round" stroke-linejoin="round"/>
</svg>
