<?xml version="1.0" encoding="UTF-8"?>
<svg width="258px" height="184px" viewBox="0 0 258 184" version="1.1" xmlns="http://www.w3.org/2000/svg" xmlns:xlink="http://www.w3.org/1999/xlink">
    <title>Group</title>
    <defs>
        <path d="M0.5232,0.4765 C0.5232,0.4765 0.5,0.5005 0.4768,0.5235 C0.4768,0.5235 0.5232,0.5005 0.5232,0.4765 Z" id="path-1"></path>
        <path d="M0.5232,0.477 C0.5232,0.477 0.5,0.5 0.4768,0.523 C0.4768,0.523 0.5,0.5 0.5232,0.477 Z" id="path-3"></path>
        <path d="M0.561,0.481 C0.793,0.539 1.044,0.578 1.276,0.636 C0.85,0.539 0.425,0.442 0,0.364 C0.174,0.403 0.367,0.442 0.561,0.481 Z" id="path-5"></path>
    </defs>
    <g id="Page-1" stroke="none" stroke-width="1" fill="none" fill-rule="evenodd">
        <g id="Group">
            <rect id="Rectangle" fill-rule="nonzero" x="0" y="0" width="258" height="184"></rect>
            <path d="M187.683,63.35 C189.186,61.768 205,48 205,48 C205,48 191.925,64.651 190.422,66.234 C188.919,67.817 187.085,68.454 186.327,67.656 C185.569,66.858 186.174,64.926 187.677,63.344 L187.683,63.35 Z" id="Path" fill="#FF9C1A" fill-rule="nonzero"></path>
            <path d="M65.32,54.79 C65.32,55.774 64.5725,56.58 63.66,56.58 C62.7476,56.58 62,55.774 62,54.79 C62,53.806 62.7476,53 63.66,53 C64.5725,53 65.32,53.806 65.32,54.79 Z" id="Path" fill="#FFF5EC" fill-rule="nonzero"></path>
            <path d="M128.671,63.901 C128.671,64.399 128.297,64.802 127.835,64.802 C127.374,64.802 127,64.399 127,63.901 C127,63.403 127.374,63 127.835,63 C128.297,63 128.671,63.403 128.671,63.901 Z" id="Path" fill="#FFF5EC" fill-rule="nonzero"></path>
            <path d="M210.921,56.491 C210.921,56.74 210.735,56.942 210.504,56.942 C210.273,56.942 210.086,56.74 210.086,56.491 C210.086,56.243 210.273,56.041 210.504,56.041 C210.735,56.041 210.921,56.243 210.921,56.491 Z" id="Path" fill="#FFF5EC" fill-rule="nonzero"></path>
            <path d="M235.835,30.45 C235.835,30.699 235.649,30.901 235.418,30.901 C235.187,30.901 235,30.699 235,30.45 C235,30.201 235.187,30 235.418,30 C235.649,30 235.835,30.201 235.835,30.45 Z" id="Path" fill="#FFF5EC" fill-rule="nonzero"></path>
            <path d="M208.799,18.45 C208.799,18.699 208.612,18.901 208.382,18.901 C208.151,18.901 207.964,18.699 207.964,18.45 C207.964,18.202 208.151,18 208.382,18 C208.612,18 208.799,18.202 208.799,18.45 Z" id="Path" fill="#FFF5EC" fill-rule="nonzero"></path>
            <polygon id="Path" fill="#FFF5EC" fill-rule="nonzero" points="17.5 27 18.8339 32.961 24 34.5 18.8339 36.039 17.5 42 16.1661 36.039 11 34.5 16.1661 32.961"></polygon>
            <path d="M171.32,28.79 C171.32,29.774 170.572,30.58 169.66,30.58 C168.748,30.58 168,29.774 168,28.79 C168,27.806 168.748,27 169.66,27 C170.572,27 171.32,27.806 171.32,28.79 Z" id="Path" fill="#FFF5EC" fill-rule="nonzero"></path>
            <path d="M29.4741,171.424 C29.4741,171.424 29.4509,171.448 29.4277,171.471 C29.4277,171.471 29.4741,171.448 29.4741,171.424 Z" id="Path" fill="#A2BCB1" fill-rule="nonzero"></path>
            <g id="Clipped" transform="translate(28.9509, 170.9475)">
                <mask id="mask-2" fill="white">
                    <use xlink:href="#path-1"></use>
                </mask>
                <g id="Path"></g>
                <path d="M0.5232,0.4765 L1.0232,0.4765 C1.0232,0.2745 0.9006,0.0915 0.7129,0.0145 C0.5252,-0.0625 0.3096,-0.0185 0.1671,0.1255 L0.5232,0.4765 Z M0.4768,0.5235 L0.1211,0.1725 C-0.0512,0.3475 -0.0716,0.6205 0.0729,0.8185 C0.2174,1.0165 0.4842,1.0805 0.7029,0.9695 L0.4768,0.5235 Z M0.5232,0.4765 C0.1671,0.1255 0.1671,0.1255 0.1671,0.1255 C0.1671,0.1255 0.1671,0.1255 0.1671,0.1255 C0.1671,0.1255 0.1671,0.1255 0.1671,0.1255 C0.1671,0.1255 0.1671,0.1255 0.1671,0.1255 C0.1671,0.1255 0.1671,0.1255 0.1671,0.1255 C0.167,0.1265 0.1669,0.1265 0.1669,0.1265 C0.1667,0.1265 0.1664,0.1265 0.1661,0.1265 C0.1654,0.1275 0.1644,0.1285 0.1632,0.1295 C0.1607,0.1325 0.1571,0.1365 0.1527,0.1405 C0.1441,0.1495 0.1326,0.1605 0.1211,0.1725 L0.8326,0.8755 C0.8443,0.8635 0.8559,0.8515 0.8646,0.8425 C0.869,0.8385 0.8726,0.8345 0.8752,0.8325 C0.8765,0.8305 0.8775,0.8295 0.8781,0.8295 C0.8785,0.8285 0.8788,0.8285 0.8789,0.8285 C0.879,0.8285 0.8791,0.8285 0.8791,0.8285 C0.8792,0.8285 0.8792,0.8285 0.8792,0.8285 C0.8792,0.8275 0.8792,0.8275 0.8792,0.8275 C0.8792,0.8275 0.8792,0.8275 0.8792,0.8275 C0.8792,0.8275 0.8792,0.8275 0.8792,0.8275 C0.8792,0.8275 0.8792,0.8275 0.5232,0.4765 Z M0.4768,0.5235 C0.7029,0.9695 0.703,0.9695 0.7031,0.9695 C0.7031,0.9695 0.7032,0.9695 0.7032,0.9695 C0.7034,0.9695 0.7035,0.9695 0.7036,0.9695 C0.7038,0.9695 0.7041,0.9695 0.7043,0.9695 C0.7048,0.9685 0.7054,0.9685 0.7059,0.9685 C0.707,0.9675 0.7081,0.9675 0.7093,0.9665 C0.7118,0.9655 0.7145,0.9635 0.7174,0.9625 C0.7233,0.9595 0.7305,0.9555 0.7386,0.9505 C0.7537,0.9415 0.7768,0.9265 0.8026,0.9075 C0.8255,0.8895 0.8677,0.8555 0.9084,0.8035 C0.9438,0.7595 1.0232,0.6445 1.0232,0.4765 L0.0232,0.4765 C0.0232,0.3205 0.0967,0.2185 0.1235,0.1845 C0.1555,0.1435 0.186,0.1195 0.1974,0.1115 C0.2116,0.1005 0.2231,0.0935 0.2296,0.0895 C0.2333,0.0875 0.2369,0.0855 0.2402,0.0835 C0.2419,0.0825 0.2436,0.0815 0.2454,0.0805 C0.2463,0.0805 0.2471,0.0795 0.248,0.0795 C0.2485,0.0795 0.2489,0.0785 0.2494,0.0785 C0.2496,0.0785 0.2499,0.0785 0.2501,0.0785 C0.2502,0.0785 0.2503,0.0785 0.2504,0.0785 C0.2505,0.0785 0.2506,0.0785 0.2506,0.0775 C0.2507,0.0775 0.2508,0.0775 0.4768,0.5235 Z" id="Shape" fill="#00402A" fill-rule="nonzero" mask="url(#mask-2)"></path>
            </g>
            <path d="M29.436,171.464 C29.436,171.464 29.4128,171.487 29.3896,171.51 C29.3896,171.51 29.4128,171.487 29.436,171.464 Z" id="Path" fill="#A2BCB1" fill-rule="nonzero"></path>
            <g id="Clipped" transform="translate(28.9128, 170.987)">
                <mask id="mask-4" fill="white">
                    <use xlink:href="#path-3"></use>
                </mask>
                <g id="Path"></g>
                <path d="M0.8789,0.828 C1.073,0.631 1.071,0.315 0.8746,0.121 C0.6781,-0.073 0.3616,-0.071 0.1675,0.125 L0.8789,0.828 Z M0.1211,0.172 C-0.0729,0.368 -0.071,0.685 0.1255,0.879 C0.3219,1.073 0.6385,1.071 0.8325,0.875 L0.1211,0.172 Z M0.5232,0.477 C0.1675,0.125 0.1675,0.125 0.1675,0.125 C0.1675,0.125 0.1675,0.125 0.1675,0.125 C0.1675,0.125 0.1675,0.125 0.1675,0.125 C0.1675,0.125 0.1675,0.125 0.1675,0.125 C0.1674,0.125 0.1676,0.125 0.1675,0.125 C0.1593,0.133 0.1756,0.117 0.1675,0.125 C0.1674,0.125 0.1674,0.125 0.1674,0.125 C0.1674,0.125 0.1674,0.125 0.1674,0.125 C0.1674,0.125 0.1674,0.125 0.1674,0.125 C0.1674,0.125 0.1674,0.125 0.1674,0.125 C0.1674,0.125 0.1674,0.125 0.1674,0.125 C0.1659,0.127 0.1688,0.124 0.1673,0.125 C0.1637,0.129 0.1709,0.122 0.1672,0.125 C0.1606,0.132 0.1737,0.119 0.1671,0.126 C0.1661,0.126 0.1678,0.125 0.1669,0.126 C0.164,0.129 0.1697,0.123 0.1668,0.126 C0.1668,0.126 0.1668,0.126 0.1668,0.126 C0.1668,0.126 0.1668,0.126 0.1667,0.126 C0.1667,0.126 0.1667,0.126 0.1667,0.126 C0.1667,0.126 0.1667,0.126 0.1667,0.126 C0.1664,0.126 0.1669,0.126 0.1666,0.126 C0.1646,0.128 0.1684,0.124 0.1664,0.126 C0.1459,0.147 0.1859,0.106 0.1652,0.127 C0.1618,0.131 0.1671,0.126 0.1635,0.129 C0.1481,0.145 0.177,0.116 0.1614,0.131 C0.1552,0.138 0.167,0.126 0.1608,0.132 C0.1576,0.135 0.1637,0.129 0.1605,0.132 C0.1545,0.138 0.1663,0.126 0.1602,0.132 C0.1593,0.133 0.161,0.132 0.1601,0.133 C0.16,0.133 0.16,0.133 0.16,0.133 C0.16,0.133 0.1599,0.133 0.1599,0.133 C0.1536,0.139 0.1661,0.127 0.1598,0.133 C0.1597,0.133 0.1597,0.133 0.1597,0.133 C0.1596,0.133 0.1596,0.133 0.1596,0.133 C0.1581,0.135 0.1609,0.132 0.1594,0.133 C0.1594,0.133 0.1594,0.133 0.1593,0.133 C0.1593,0.133 0.1593,0.133 0.1593,0.133 C0.1538,0.139 0.1644,0.128 0.1589,0.134 C0.1417,0.151 0.1749,0.118 0.1576,0.135 C0.1397,0.153 0.174,0.119 0.1561,0.137 C0.1444,0.148 0.1671,0.125 0.1554,0.137 C0.1553,0.137 0.1553,0.137 0.1553,0.137 C0.1553,0.137 0.1552,0.138 0.1552,0.138 C0.1552,0.138 0.1551,0.138 0.1551,0.138 C0.1551,0.138 0.155,0.138 0.155,0.138 C0.1391,0.154 0.1705,0.122 0.1546,0.138 C0.1515,0.141 0.1573,0.135 0.1542,0.139 C0.1492,0.144 0.1588,0.134 0.1538,0.139 C0.1538,0.139 0.1538,0.139 0.1537,0.139 C0.1537,0.139 0.1537,0.139 0.1536,0.139 C0.1536,0.139 0.1536,0.139 0.1535,0.139 C0.1535,0.139 0.1535,0.139 0.1534,0.139 C0.1534,0.139 0.1534,0.139 0.1533,0.139 C0.1533,0.139 0.1533,0.14 0.1532,0.14 C0.1468,0.146 0.1595,0.133 0.153,0.14 C0.1282,0.165 0.1762,0.116 0.1514,0.141 C0.1474,0.145 0.1548,0.138 0.1509,0.142 C0.1367,0.156 0.1647,0.128 0.1505,0.142 C0.1442,0.149 0.156,0.137 0.1496,0.143 C0.1487,0.144 0.1503,0.143 0.1494,0.143 C0.1494,0.143 0.1493,0.143 0.1493,0.144 C0.1493,0.144 0.1492,0.144 0.1492,0.144 C0.1449,0.148 0.1533,0.139 0.149,0.144 C0.1489,0.144 0.1489,0.144 0.1489,0.144 C0.1488,0.144 0.1488,0.144 0.1487,0.144 C0.1469,0.146 0.1497,0.143 0.1478,0.145 C0.1363,0.157 0.1576,0.135 0.146,0.147 C0.146,0.147 0.1459,0.147 0.1459,0.147 C0.1458,0.147 0.1458,0.147 0.1458,0.147 C0.1329,0.16 0.1584,0.134 0.1455,0.147 C0.1422,0.151 0.1484,0.144 0.1451,0.148 C0.1423,0.151 0.1476,0.145 0.1448,0.148 C0.1448,0.148 0.1447,0.148 0.1447,0.148 C0.1447,0.148 0.1446,0.148 0.1446,0.148 C0.1445,0.148 0.1445,0.148 0.1445,0.148 C0.1444,0.148 0.1444,0.148 0.1443,0.149 C0.1443,0.149 0.1443,0.149 0.1442,0.149 C0.1442,0.149 0.1441,0.149 0.1441,0.149 C0.1372,0.156 0.1491,0.144 0.1422,0.151 C0.1219,0.171 0.1605,0.132 0.1402,0.153 C0.1212,0.172 0.1582,0.135 0.1392,0.154 C0.133,0.16 0.1448,0.148 0.1387,0.154 C0.1378,0.155 0.139,0.154 0.1382,0.155 C0.1301,0.163 0.1452,0.148 0.1371,0.156 C0.113,0.18 0.1603,0.132 0.1361,0.157 C0.1361,0.157 0.136,0.157 0.136,0.157 C0.1359,0.157 0.1359,0.157 0.1359,0.157 C0.1348,0.158 0.1366,0.156 0.1356,0.157 C0.13,0.163 0.1407,0.152 0.1351,0.158 C0.1332,0.16 0.1367,0.156 0.1348,0.158 C0.1339,0.159 0.1355,0.157 0.1346,0.158 C0.1317,0.161 0.1369,0.156 0.134,0.159 C0.1163,0.177 0.1513,0.142 0.1335,0.16 C0.1287,0.164 0.138,0.155 0.1332,0.16 C0.1332,0.16 0.1332,0.16 0.1331,0.16 C0.1331,0.16 0.133,0.16 0.133,0.16 C0.1235,0.17 0.1422,0.151 0.1327,0.16 C0.1327,0.16 0.1326,0.16 0.1326,0.16 C0.1325,0.16 0.1325,0.161 0.1325,0.161 C0.1254,0.168 0.1393,0.154 0.1322,0.161 C0.1321,0.161 0.1321,0.161 0.1321,0.161 C0.132,0.161 0.132,0.161 0.1319,0.161 C0.1227,0.17 0.139,0.154 0.1298,0.163 C0.1235,0.17 0.135,0.158 0.1287,0.164 C0.1114,0.182 0.1449,0.148 0.1276,0.165 C0.1184,0.175 0.1366,0.156 0.1274,0.166 C0.1273,0.166 0.1273,0.166 0.1272,0.166 C0.1272,0.166 0.1272,0.166 0.1271,0.166 C0.1271,0.166 0.127,0.166 0.127,0.166 C0.1269,0.166 0.1269,0.166 0.1268,0.166 C0.1268,0.166 0.1268,0.166 0.1267,0.166 C0.1267,0.166 0.1266,0.166 0.1266,0.167 C0.1241,0.169 0.1288,0.164 0.1263,0.167 C0.1211,0.172 0.1312,0.162 0.126,0.167 C0.1259,0.167 0.1259,0.167 0.1258,0.167 C0.1244,0.169 0.1268,0.166 0.1255,0.168 C0.1242,0.169 0.1265,0.167 0.1252,0.168 C0.1252,0.168 0.1251,0.168 0.1251,0.168 C0.125,0.168 0.125,0.168 0.1249,0.168 C0.122,0.171 0.1276,0.165 0.1247,0.168 C0.1246,0.168 0.1246,0.169 0.1245,0.169 C0.1245,0.169 0.1245,0.169 0.1244,0.169 C0.0994,0.194 0.1489,0.144 0.1239,0.169 C0.1238,0.169 0.1238,0.169 0.1237,0.169 C0.1237,0.169 0.1236,0.169 0.1236,0.17 C0.1235,0.17 0.1235,0.17 0.1235,0.17 C0.1234,0.17 0.1234,0.17 0.1233,0.17 C0.1054,0.188 0.1402,0.153 0.1222,0.171 C0.1144,0.179 0.1296,0.164 0.1217,0.171 C0.1216,0.172 0.1216,0.172 0.1216,0.172 C0.1215,0.172 0.1215,0.172 0.1214,0.172 C0.1214,0.172 0.1213,0.172 0.1213,0.172 C0.1212,0.172 0.1212,0.172 0.1211,0.172 L0.8325,0.875 C0.8394,0.868 0.8268,0.881 0.8336,0.874 C0.8363,0.871 0.8321,0.875 0.8347,0.873 C0.8412,0.866 0.8288,0.879 0.8353,0.872 C0.8353,0.872 0.8354,0.872 0.8354,0.872 C0.8354,0.872 0.8355,0.872 0.8355,0.872 C0.8356,0.872 0.8356,0.872 0.8357,0.872 C0.8357,0.872 0.8358,0.872 0.8358,0.872 C0.8369,0.87 0.8358,0.871 0.8369,0.87 C0.8503,0.857 0.8246,0.883 0.838,0.869 C0.8392,0.868 0.837,0.87 0.8382,0.869 C0.8406,0.867 0.8362,0.871 0.8385,0.869 C0.8479,0.859 0.8297,0.878 0.839,0.868 C0.8392,0.868 0.84,0.867 0.8401,0.867 C0.8419,0.865 0.8389,0.868 0.8407,0.867 C0.8407,0.867 0.8407,0.867 0.8408,0.866 C0.8408,0.866 0.8409,0.866 0.8409,0.866 C0.841,0.866 0.841,0.866 0.8411,0.866 C0.8411,0.866 0.8412,0.866 0.8412,0.866 C0.8428,0.864 0.8399,0.867 0.8415,0.866 C0.8451,0.862 0.8381,0.869 0.8417,0.866 C0.8462,0.861 0.8378,0.869 0.8423,0.865 C0.8554,0.852 0.8302,0.877 0.8433,0.864 C0.8679,0.839 0.8208,0.887 0.8454,0.862 C0.8455,0.862 0.8455,0.862 0.8456,0.862 C0.8456,0.862 0.8457,0.862 0.8457,0.861 C0.8457,0.861 0.8458,0.861 0.8458,0.861 C0.8459,0.861 0.8459,0.861 0.846,0.861 C0.8563,0.851 0.8362,0.871 0.8465,0.861 C0.8465,0.861 0.8466,0.861 0.8466,0.861 C0.8467,0.861 0.8467,0.86 0.8467,0.86 C0.8488,0.858 0.8449,0.862 0.847,0.86 C0.847,0.86 0.8471,0.86 0.8471,0.86 C0.8472,0.86 0.8472,0.86 0.8473,0.86 C0.8473,0.86 0.8473,0.86 0.8474,0.86 C0.8474,0.86 0.8475,0.86 0.8475,0.86 C0.8596,0.847 0.8359,0.871 0.848,0.859 C0.8481,0.859 0.8481,0.859 0.8482,0.859 C0.8482,0.859 0.8482,0.859 0.8483,0.859 C0.8501,0.857 0.8467,0.86 0.8485,0.859 C0.8521,0.855 0.846,0.861 0.8496,0.858 C0.8546,0.852 0.8465,0.861 0.8516,0.856 C0.8647,0.842 0.8388,0.869 0.8518,0.855 C0.8519,0.855 0.8519,0.855 0.852,0.855 C0.852,0.855 0.852,0.855 0.8521,0.855 C0.8521,0.855 0.8522,0.855 0.8522,0.855 C0.8523,0.855 0.8523,0.855 0.8523,0.855 C0.8524,0.855 0.8524,0.855 0.8525,0.855 C0.8525,0.855 0.8525,0.855 0.8526,0.855 C0.8526,0.854 0.8527,0.854 0.8527,0.854 C0.8527,0.854 0.8528,0.854 0.8528,0.854 C0.8529,0.854 0.8529,0.854 0.853,0.854 C0.853,0.854 0.853,0.854 0.8531,0.854 C0.8593,0.848 0.8474,0.86 0.8536,0.854 C0.8559,0.851 0.8517,0.855 0.8541,0.853 C0.8541,0.853 0.8541,0.853 0.8542,0.853 C0.8542,0.853 0.8543,0.853 0.8543,0.853 C0.8543,0.853 0.8544,0.853 0.8544,0.853 C0.8545,0.853 0.8545,0.853 0.8545,0.853 C0.8662,0.841 0.8433,0.864 0.855,0.852 C0.8551,0.852 0.8551,0.852 0.8551,0.852 C0.8552,0.852 0.8552,0.852 0.8553,0.852 C0.8585,0.849 0.8523,0.855 0.8555,0.852 C0.8773,0.829 0.8356,0.872 0.8574,0.85 C0.8706,0.836 0.8451,0.862 0.8583,0.849 C0.8584,0.849 0.8584,0.849 0.8584,0.849 C0.8585,0.849 0.8585,0.849 0.8586,0.848 C0.8603,0.847 0.8571,0.85 0.8588,0.848 C0.8605,0.847 0.8573,0.85 0.859,0.848 C0.859,0.848 0.8591,0.848 0.8591,0.848 C0.8592,0.848 0.8592,0.848 0.8592,0.848 C0.8705,0.836 0.8482,0.859 0.8595,0.848 C0.8596,0.847 0.8596,0.847 0.8597,0.847 C0.8597,0.847 0.8598,0.847 0.8598,0.847 C0.8598,0.847 0.8599,0.847 0.8599,0.847 C0.8841,0.823 0.836,0.871 0.8601,0.847 C0.8793,0.827 0.8414,0.866 0.8606,0.846 C0.8606,0.846 0.8607,0.846 0.8607,0.846 C0.8607,0.846 0.8608,0.846 0.8608,0.846 C0.8612,0.846 0.8606,0.846 0.861,0.846 C0.8623,0.845 0.8606,0.846 0.8619,0.845 C0.8666,0.84 0.8576,0.849 0.8623,0.845 C0.8819,0.825 0.843,0.864 0.8625,0.844 C0.8626,0.844 0.8626,0.844 0.8626,0.844 C0.8627,0.844 0.8627,0.844 0.8627,0.844 C0.8691,0.838 0.8573,0.85 0.8636,0.843 C0.8656,0.841 0.862,0.845 0.864,0.843 C0.8672,0.84 0.8612,0.846 0.8644,0.843 C0.88,0.827 0.8552,0.852 0.8703,0.837 C0.8954,0.811 0.8459,0.861 0.871,0.836 C0.8801,0.827 0.8622,0.845 0.8713,0.836 C0.8718,0.835 0.8712,0.836 0.8716,0.835 C0.8732,0.834 0.8707,0.836 0.8722,0.835 C0.8758,0.831 0.8689,0.838 0.8725,0.834 C0.8725,0.834 0.8726,0.834 0.8726,0.834 C0.8726,0.834 0.8726,0.834 0.8727,0.834 C0.8885,0.818 0.857,0.85 0.8728,0.834 C0.8775,0.829 0.8693,0.838 0.8739,0.833 C0.878,0.829 0.8708,0.836 0.8749,0.832 C0.8768,0.83 0.8732,0.834 0.8751,0.832 C0.8774,0.829 0.873,0.834 0.8753,0.832 C0.8777,0.829 0.8729,0.834 0.8754,0.831 C0.8812,0.826 0.87,0.837 0.8758,0.831 C0.8867,0.82 0.8657,0.841 0.8766,0.83 C0.8846,0.822 0.87,0.837 0.8778,0.829 C0.8974,0.809 0.8592,0.848 0.8786,0.828 C0.8801,0.827 0.8772,0.83 0.8787,0.828 C0.8792,0.828 0.8782,0.829 0.8787,0.828 C0.8787,0.828 0.8787,0.828 0.8787,0.828 C0.8787,0.828 0.8787,0.828 0.8787,0.828 C0.8842,0.823 0.8734,0.833 0.8788,0.828 C0.8791,0.828 0.8786,0.828 0.8789,0.828 C0.879,0.828 0.8787,0.828 0.8789,0.828 C0.8789,0.828 0.8789,0.828 0.8789,0.828 C0.8789,0.828 0.8789,0.828 0.8789,0.828 C0.8789,0.828 0.8789,0.828 0.8789,0.828 C0.8789,0.828 0.8789,0.828 0.8789,0.828 C0.8789,0.828 0.8789,0.828 0.5232,0.477 Z M0.4768,0.523 C0.8325,0.875 0.8325,0.875 0.8325,0.875 C0.8325,0.875 0.8325,0.875 0.8325,0.875 C0.8325,0.875 0.8325,0.875 0.8326,0.875 C0.8326,0.875 0.8326,0.875 0.8326,0.875 C0.8326,0.875 0.8325,0.875 0.8326,0.875 C0.8327,0.875 0.8325,0.875 0.8326,0.875 C0.8326,0.875 0.8326,0.875 0.8326,0.875 C0.8326,0.875 0.8326,0.875 0.8326,0.875 C0.8326,0.875 0.8326,0.875 0.8326,0.875 C0.8326,0.875 0.8326,0.875 0.8326,0.875 C0.8326,0.875 0.8326,0.875 0.8326,0.875 C0.8326,0.875 0.8326,0.875 0.8326,0.875 C0.8328,0.875 0.8325,0.875 0.8327,0.875 C0.8327,0.875 0.8327,0.875 0.8327,0.875 C0.8327,0.875 0.8327,0.875 0.8327,0.875 C0.8335,0.874 0.832,0.875 0.8328,0.875 C0.8329,0.874 0.8327,0.875 0.8328,0.875 C0.8328,0.875 0.8328,0.875 0.8328,0.875 C0.8328,0.875 0.8328,0.875 0.8328,0.875 C0.8372,0.87 0.8287,0.879 0.8331,0.874 C0.84,0.867 0.8267,0.881 0.8336,0.874 C0.8576,0.849 0.8119,0.896 0.8365,0.871 C0.8402,0.867 0.8329,0.874 0.8366,0.871 C0.8383,0.869 0.8351,0.872 0.8368,0.871 C0.8413,0.866 0.8323,0.875 0.8369,0.87 C0.8369,0.87 0.8369,0.87 0.837,0.87 C0.837,0.87 0.837,0.87 0.837,0.87 C0.8385,0.869 0.8356,0.872 0.8371,0.87 C0.8374,0.87 0.837,0.87 0.8373,0.87 C0.8401,0.867 0.8345,0.873 0.8374,0.87 C0.8374,0.87 0.8374,0.87 0.8375,0.87 C0.8375,0.87 0.8375,0.87 0.8375,0.87 C0.845,0.862 0.8306,0.877 0.8381,0.869 C0.8381,0.869 0.8381,0.869 0.8381,0.869 C0.8382,0.869 0.8382,0.869 0.8382,0.869 C0.8382,0.869 0.8382,0.869 0.8383,0.869 C0.8383,0.869 0.8383,0.869 0.8383,0.869 C0.8384,0.869 0.8384,0.869 0.8384,0.869 C0.8384,0.869 0.8385,0.869 0.8385,0.869 C0.8385,0.869 0.8385,0.869 0.8386,0.869 C0.8386,0.869 0.8386,0.869 0.8386,0.869 C0.85,0.857 0.8276,0.88 0.8389,0.868 C0.8389,0.868 0.839,0.868 0.839,0.868 C0.839,0.868 0.839,0.868 0.8391,0.868 C0.8391,0.868 0.8391,0.868 0.8391,0.868 C0.8392,0.868 0.8392,0.868 0.8392,0.868 C0.8488,0.858 0.8299,0.877 0.8395,0.868 C0.8405,0.867 0.8387,0.869 0.8397,0.868 C0.8397,0.868 0.8397,0.868 0.8397,0.868 C0.8398,0.867 0.8398,0.867 0.8398,0.867 C0.8398,0.867 0.8399,0.867 0.8399,0.867 C0.8399,0.867 0.8399,0.867 0.84,0.867 C0.84,0.867 0.84,0.867 0.8401,0.867 C0.8401,0.867 0.8401,0.867 0.8401,0.867 C0.8427,0.865 0.8379,0.869 0.8404,0.867 C0.8417,0.865 0.8395,0.868 0.8408,0.866 C0.8554,0.852 0.8263,0.881 0.8409,0.866 C0.843,0.864 0.8391,0.868 0.8411,0.866 C0.8412,0.866 0.8423,0.865 0.8425,0.865 C0.8691,0.838 0.8173,0.89 0.8439,0.863 C0.8449,0.862 0.8437,0.864 0.8447,0.863 C0.8544,0.853 0.8357,0.872 0.8454,0.862 C0.8482,0.859 0.8442,0.863 0.847,0.86 C0.8512,0.856 0.8444,0.863 0.8487,0.858 C0.8487,0.858 0.8488,0.858 0.8488,0.858 C0.8488,0.858 0.8489,0.858 0.8489,0.858 C0.8489,0.858 0.849,0.858 0.849,0.858 C0.849,0.858 0.8491,0.858 0.8491,0.858 C0.8633,0.844 0.8353,0.872 0.8495,0.858 C0.8559,0.851 0.8441,0.863 0.8504,0.857 C0.8513,0.856 0.8497,0.857 0.8506,0.856 C0.8507,0.856 0.8507,0.856 0.8507,0.856 C0.8508,0.856 0.8508,0.856 0.8509,0.856 C0.8552,0.852 0.8468,0.86 0.8511,0.856 C0.8511,0.856 0.8511,0.856 0.8512,0.856 C0.8512,0.856 0.8513,0.856 0.8513,0.856 C0.8532,0.854 0.8503,0.857 0.8522,0.855 C0.8638,0.843 0.8424,0.865 0.854,0.853 C0.8541,0.853 0.8541,0.853 0.8542,0.853 C0.8542,0.853 0.8542,0.853 0.8543,0.853 C0.8672,0.84 0.8416,0.866 0.8545,0.853 C0.8579,0.849 0.8516,0.856 0.855,0.852 C0.8578,0.849 0.8524,0.855 0.8552,0.852 C0.8553,0.852 0.8553,0.852 0.8553,0.852 C0.8554,0.852 0.8554,0.852 0.8555,0.852 C0.8555,0.852 0.8555,0.852 0.8556,0.851 C0.8556,0.851 0.8557,0.851 0.8557,0.851 C0.8557,0.851 0.8558,0.851 0.8558,0.851 C0.8558,0.851 0.8559,0.851 0.8559,0.851 C0.8628,0.844 0.851,0.856 0.8579,0.849 C0.8782,0.829 0.8395,0.868 0.8598,0.847 C0.865,0.842 0.8557,0.851 0.8609,0.846 C0.867,0.84 0.8552,0.852 0.8614,0.846 C0.8622,0.845 0.861,0.846 0.8619,0.845 C0.8639,0.843 0.8681,0.839 0.8702,0.837 C0.8755,0.831 0.8661,0.841 0.8713,0.836 C0.8714,0.836 0.8714,0.835 0.8714,0.835 C0.8715,0.835 0.8715,0.835 0.8716,0.835 C0.8716,0.835 0.8717,0.835 0.8717,0.835 C0.8718,0.835 0.8718,0.835 0.8719,0.835 C0.8731,0.834 0.8709,0.836 0.8721,0.835 C0.8899,0.817 0.8546,0.852 0.8724,0.834 C0.8778,0.829 0.8672,0.84 0.8727,0.834 C0.8727,0.834 0.8727,0.834 0.8728,0.834 C0.8728,0.834 0.8729,0.834 0.8729,0.834 C0.873,0.834 0.873,0.834 0.8731,0.834 C0.8731,0.834 0.8732,0.834 0.8732,0.834 C0.8761,0.831 0.8705,0.836 0.8735,0.833 C0.8737,0.833 0.8735,0.833 0.8737,0.833 C0.8738,0.833 0.8738,0.833 0.8739,0.833 C0.8739,0.833 0.874,0.833 0.874,0.833 C0.8741,0.833 0.8741,0.833 0.8741,0.833 C0.8742,0.833 0.8742,0.833 0.8743,0.833 C0.8743,0.833 0.8744,0.832 0.8744,0.832 C0.8745,0.832 0.8745,0.832 0.8745,0.832 C0.8895,0.817 0.864,0.843 0.8789,0.828 L0.1675,0.125 C0.1587,0.134 0.1719,0.121 0.1631,0.13 C0.159,0.134 0.1663,0.126 0.1621,0.131 C0.162,0.131 0.162,0.131 0.1619,0.131 C0.1619,0.131 0.1618,0.131 0.1618,0.131 C0.1618,0.131 0.1617,0.131 0.1617,0.131 C0.1616,0.131 0.1616,0.131 0.1615,0.131 C0.1615,0.131 0.1614,0.131 0.1614,0.131 C0.1613,0.131 0.1613,0.131 0.1613,0.131 C0.1564,0.136 0.1658,0.127 0.161,0.132 C0.1365,0.156 0.1833,0.109 0.1588,0.134 C0.1387,0.154 0.1784,0.114 0.1583,0.134 C0.1541,0.139 0.1623,0.13 0.158,0.135 C0.158,0.135 0.158,0.135 0.1579,0.135 C0.1579,0.135 0.1578,0.135 0.1578,0.135 C0.1378,0.155 0.1767,0.116 0.1567,0.136 C0.1422,0.151 0.1702,0.122 0.1557,0.137 C0.1305,0.163 0.1797,0.113 0.1546,0.138 C0.1358,0.157 0.1713,0.121 0.1525,0.14 C0.143,0.15 0.16,0.133 0.1505,0.142 C0.1454,0.147 0.1535,0.139 0.1484,0.144 C0.1354,0.158 0.1613,0.131 0.1482,0.145 C0.1482,0.145 0.1481,0.145 0.1481,0.145 C0.148,0.145 0.148,0.145 0.148,0.145 C0.1479,0.145 0.1479,0.145 0.1478,0.145 C0.1478,0.145 0.1477,0.145 0.1477,0.145 C0.1477,0.145 0.1476,0.145 0.1476,0.145 C0.1475,0.145 0.1475,0.145 0.1475,0.145 C0.1474,0.145 0.1474,0.145 0.1473,0.146 C0.1473,0.146 0.1472,0.146 0.1472,0.146 C0.1472,0.146 0.1471,0.146 0.1471,0.146 C0.147,0.146 0.147,0.146 0.147,0.146 C0.1408,0.152 0.1527,0.14 0.1465,0.146 C0.1441,0.149 0.1483,0.144 0.146,0.147 C0.1459,0.147 0.1459,0.147 0.1459,0.147 C0.1458,0.147 0.1458,0.147 0.1457,0.147 C0.1457,0.147 0.1457,0.147 0.1456,0.147 C0.1456,0.147 0.1455,0.147 0.1455,0.147 C0.1338,0.159 0.1567,0.136 0.145,0.148 C0.145,0.148 0.1449,0.148 0.1449,0.148 C0.1449,0.148 0.1448,0.148 0.1448,0.148 C0.1415,0.151 0.1478,0.145 0.1445,0.148 C0.1227,0.17 0.1644,0.128 0.1426,0.15 C0.1294,0.164 0.155,0.138 0.1417,0.151 C0.1417,0.151 0.1416,0.151 0.1416,0.151 C0.1416,0.151 0.1415,0.151 0.1415,0.151 C0.1398,0.153 0.143,0.15 0.1413,0.152 C0.1395,0.153 0.1427,0.15 0.141,0.152 C0.141,0.152 0.141,0.152 0.1409,0.152 C0.1409,0.152 0.1408,0.152 0.1408,0.152 C0.1296,0.163 0.1518,0.141 0.1406,0.152 C0.1404,0.152 0.1405,0.152 0.1403,0.153 C0.1403,0.153 0.1403,0.153 0.1402,0.153 C0.1402,0.153 0.1402,0.153 0.1401,0.153 C0.116,0.177 0.1641,0.129 0.1399,0.153 C0.1207,0.172 0.1587,0.134 0.1395,0.153 C0.1394,0.154 0.1394,0.154 0.1393,0.154 C0.1393,0.154 0.1393,0.154 0.1392,0.154 C0.1388,0.154 0.1394,0.154 0.139,0.154 C0.1377,0.155 0.1394,0.153 0.1381,0.155 C0.1369,0.156 0.1386,0.154 0.1373,0.156 C0.1262,0.167 0.1467,0.146 0.1356,0.157 C0.1356,0.157 0.1356,0.157 0.1355,0.157 C0.1355,0.157 0.1355,0.158 0.1354,0.158 C0.1354,0.158 0.1354,0.158 0.1353,0.158 C0.1353,0.158 0.1353,0.158 0.1352,0.158 C0.1322,0.161 0.1381,0.155 0.135,0.158 C0.1309,0.162 0.1389,0.154 0.1348,0.158 C0.1079,0.185 0.1609,0.132 0.134,0.159 C0.1269,0.166 0.1404,0.152 0.1333,0.16 C0.1332,0.16 0.1332,0.16 0.1332,0.16 C0.1331,0.16 0.1331,0.16 0.1331,0.16 C0.133,0.16 0.133,0.16 0.133,0.16 C0.1329,0.16 0.1329,0.16 0.1329,0.16 C0.1305,0.163 0.1349,0.158 0.1325,0.161 C0.1252,0.168 0.1391,0.154 0.1318,0.161 C0.1269,0.166 0.136,0.157 0.1311,0.162 C0.1284,0.165 0.1335,0.159 0.1309,0.162 C0.1309,0.162 0.1308,0.162 0.1308,0.162 C0.1308,0.162 0.1307,0.162 0.1307,0.162 C0.1302,0.163 0.1309,0.162 0.1304,0.163 C0.1223,0.171 0.1381,0.155 0.13,0.163 C0.1125,0.181 0.1472,0.146 0.1297,0.163 C0.1143,0.179 0.1438,0.149 0.1284,0.165 C0.1277,0.165 0.1288,0.164 0.1281,0.165 C0.1281,0.165 0.1281,0.165 0.128,0.165 C0.128,0.165 0.128,0.165 0.128,0.165 C0.1279,0.165 0.1279,0.165 0.1279,0.165 C0.1279,0.165 0.1278,0.165 0.1278,0.165 C0.1196,0.174 0.1355,0.158 0.1272,0.166 C0.119,0.174 0.1349,0.158 0.1267,0.166 C0.1266,0.166 0.1266,0.166 0.1266,0.166 C0.1266,0.167 0.1266,0.167 0.1265,0.167 C0.1253,0.168 0.1277,0.165 0.1264,0.167 C0.1016,0.192 0.1509,0.142 0.1261,0.167 C0.1198,0.173 0.1319,0.161 0.1256,0.167 C0.1122,0.181 0.1385,0.154 0.1251,0.168 C0.1215,0.172 0.1283,0.165 0.1247,0.168 C0.1226,0.171 0.1265,0.167 0.1244,0.169 C0.1178,0.175 0.1308,0.162 0.1242,0.169 C0.1103,0.183 0.1373,0.156 0.1234,0.17 C0.1234,0.17 0.1234,0.17 0.1234,0.17 C0.1234,0.17 0.1234,0.17 0.1233,0.17 C0.1233,0.17 0.1233,0.17 0.1233,0.17 C0.1233,0.17 0.1233,0.17 0.1233,0.17 C0.1157,0.178 0.1307,0.162 0.1232,0.17 C0.1232,0.17 0.1231,0.17 0.1231,0.17 C0.1231,0.17 0.1231,0.17 0.1231,0.17 C0.1231,0.17 0.1231,0.17 0.123,0.17 C0.123,0.17 0.123,0.17 0.123,0.17 C0.1228,0.17 0.1231,0.17 0.1229,0.17 C0.1162,0.177 0.1295,0.164 0.1228,0.17 C0.1214,0.172 0.1235,0.17 0.1222,0.171 C0.12,0.173 0.1243,0.169 0.1221,0.171 C0.1121,0.181 0.1321,0.161 0.1221,0.171 C0.1214,0.172 0.1227,0.17 0.1219,0.171 C0.1198,0.173 0.1239,0.169 0.1217,0.171 C0.1207,0.172 0.1226,0.171 0.1216,0.172 C0.1216,0.172 0.1216,0.172 0.1216,0.172 C0.1216,0.172 0.1216,0.172 0.1216,0.172 C0.1216,0.172 0.1216,0.172 0.1216,0.172 C0.1199,0.173 0.1232,0.17 0.1215,0.172 C0.1206,0.173 0.1223,0.171 0.1214,0.172 C0.1207,0.172 0.1219,0.171 0.1212,0.172 C0.1212,0.172 0.1212,0.172 0.1212,0.172 C0.1212,0.172 0.1212,0.172 0.1212,0.172 C0.1212,0.172 0.1212,0.172 0.1212,0.172 C0.1212,0.172 0.1212,0.172 0.1212,0.172 C0.1212,0.172 0.1212,0.172 0.1212,0.172 C0.1211,0.172 0.1212,0.172 0.1212,0.172 C0.1211,0.172 0.1212,0.172 0.1212,0.172 C0.1211,0.172 0.1211,0.172 0.1211,0.172 C0.1211,0.172 0.1211,0.172 0.4768,0.523 Z" id="Shape" fill="#00402A" fill-rule="nonzero" mask="url(#mask-4)"></path>
            </g>
            <path d="M204.076,89.188 C204.308,89.246 204.559,89.285 204.791,89.343 C204.365,89.246 203.94,89.149 203.515,89.071 C203.689,89.11 203.882,89.149 204.076,89.188 Z" id="Path" fill="#A2BCB1" fill-rule="nonzero"></path>
            <g id="Clipped" transform="translate(203.515, 88.707)">
                <mask id="mask-6" fill="white">
                    <use xlink:href="#path-5"></use>
                </mask>
                <g id="Path"></g>
                <path d="M0.561,0.481 L0.683,-0.004 C0.675,-0.006 0.667,-0.008 0.659,-0.01 L0.561,0.481 Z M1.276,0.636 L1.164,1.124 C1.431,1.185 1.698,1.02 1.762,0.753 C1.826,0.487 1.664,0.218 1.398,0.152 L1.276,0.636 Z M-2.23154828e-14,0.364 L0.09,-0.128 C-0.178,-0.177 -0.436,-0.003 -0.49,0.264 C-0.544,0.531 -0.375,0.792 -0.109,0.852 L-2.23154828e-14,0.364 Z M0.438,0.965 C0.568,0.998 0.701,1.025 0.819,1.049 C0.942,1.073 1.051,1.095 1.154,1.121 L1.398,0.152 C1.268,0.119 1.135,0.092 1.017,0.068 C0.894,0.044 0.785,0.022 0.683,-0.004 L0.438,0.965 Z M1.387,0.149 C0.964,0.052 0.528,-0.048 0.09,-0.128 L-0.09,0.856 C0.323,0.931 0.737,1.026 1.164,1.124 L1.387,0.149 Z M-0.109,0.852 C0.071,0.892 0.27,0.932 0.462,0.971 L0.659,-0.01 C0.465,-0.049 0.277,-0.087 0.109,-0.124 L-0.109,0.852 Z" id="Shape" fill="#00402A" fill-rule="nonzero" mask="url(#mask-6)"></path>
            </g>
        </g>
    </g>
</svg>