<svg width="32" height="33" viewBox="0 0 32 33" fill="none" xmlns="http://www.w3.org/2000/svg">
<rect y="0.733643" width="32" height="32" rx="16" fill="#00A443"/>
<path fill-rule="evenodd" clip-rule="evenodd" d="M16 9.98364C16.4142 9.98364 16.75 10.3194 16.75 10.7336V22.7336C16.75 23.1479 16.4142 23.4836 16 23.4836C15.5858 23.4836 15.25 23.1479 15.25 22.7336V10.7336C15.25 10.3194 15.5858 9.98364 16 9.98364Z" fill="#FFFEFF"/>
<path fill-rule="evenodd" clip-rule="evenodd" d="M22.75 16.7336C22.75 17.1479 22.4142 17.4836 22 17.4836L10 17.4836C9.58579 17.4836 9.25 17.1479 9.25 16.7336C9.25 16.3194 9.58579 15.9836 10 15.9836L22 15.9836C22.4142 15.9836 22.75 16.3194 22.75 16.7336Z" fill="#FFFEFF"/>
</svg>
