<svg width="32" height="33" viewBox="0 0 32 33" fill="none" xmlns="http://www.w3.org/2000/svg">
<rect x="0.5" y="1.23364" width="31" height="31" rx="15.5" fill="#FFFEFF"/>
<rect x="0.5" y="1.23364" width="31" height="31" rx="15.5" stroke="#00A443"/>
<path fill-rule="evenodd" clip-rule="evenodd" d="M11.2271 11.9606C11.52 11.6677 11.9949 11.6677 12.2878 11.9606L20.773 20.4459C21.0659 20.7388 21.0659 21.2137 20.773 21.5066C20.4802 21.7995 20.0053 21.7995 19.7124 21.5066L11.2271 13.0213C10.9342 12.7284 10.9342 12.2535 11.2271 11.9606Z" fill="#00A443"/>
<path fill-rule="evenodd" clip-rule="evenodd" d="M20.773 11.9606C21.0659 12.2535 21.0659 12.7284 20.773 13.0213L12.2877 21.5066C11.9948 21.7995 11.52 21.7995 11.2271 21.5066C10.9342 21.2137 10.9342 20.7388 11.2271 20.4459L19.7123 11.9606C20.0052 11.6677 20.4801 11.6677 20.773 11.9606Z" fill="#00A443"/>
</svg>
