<svg width="70" height="74" viewBox="0 0 70 74" fill="none" xmlns="http://www.w3.org/2000/svg">
<g id="Frame">
<g id="Group 8">
<path id="Vector" d="M45.38 35.0229C45.38 35.0229 48.2728 35.0229 48.1704 33.8112C48.068 32.5994 44.9533 28.6825 45.38 26.8563C45.8066 25.0301 49.4675 25.9603 50.4148 26.8563" stroke="#FF9C1A" stroke-width="2" stroke-linecap="round" stroke-linejoin="round"/>
<path id="Vector_2" d="M35.6689 27.5988C35.6689 27.5988 39.4066 25.5422 40.9086 26.7113" stroke="#FF9C1A" stroke-width="2" stroke-linecap="round" stroke-linejoin="round"/>
<path id="Vector_3" d="M25.4883 29.1434C25.4883 29.1434 22.5954 25.3033 20.9911 29.1434C19.6599 32.3264 23.261 38.6839 26.06 36.9516C27.579 36.0129 27.5108 34.2379 27.5108 34.2379C27.5108 34.2379 28.9103 42.0717 30.6426 43.7699C32.3749 45.4681 40.6695 48.7279 44.2195 47.9343C47.7694 47.1406 48.418 46.4665 50.3722 39.5031C52.3264 32.5397 51.1658 30.6965 51.1658 30.6965" stroke="#FF9C1A" stroke-width="2" stroke-linecap="round" stroke-linejoin="round"/>
<path id="Vector_4" d="M49.9201 21.0023C49.9201 21.0023 48.3499 10.4036 38.6216 10.0196C35.9506 9.91724 33.7063 10.2244 31.8716 10.7279C27.1952 12.008 23.722 15.7969 22.6212 20.5159C22.186 22.3848 21.9556 24.595 22.2799 26.9758" stroke="#FF9C1A" stroke-width="2" stroke-linecap="round" stroke-linejoin="round"/>
<path id="Vector_5" d="M47.0786 39.9041C47.0786 39.9041 43.4603 40.894 40.9941 39.5031" stroke="#FF9C1A" stroke-width="2" stroke-linecap="round" stroke-linejoin="round"/>
<path id="Vector_6" d="M42.5469 42.9592C42.5469 42.9592 44.4669 43.5395 45.9006 42.9592" stroke="#FF9C1A" stroke-width="2" stroke-linecap="round" stroke-linejoin="round"/>
<path id="Vector_7" d="M30.8818 33.1884C30.8818 33.1884 33.3651 34.5367 34.1417 35.8082" stroke="#FF9C1A" stroke-width="2" stroke-linecap="round" stroke-linejoin="round"/>
<path id="Vector_8" d="M36.582 54.6673C40.1405 55.6145 41.5912 64.7625 41.5912 64.7625C41.5912 64.7625 46.0116 55.6486 47.8719 54.7355C47.8719 54.7355 46.8479 50.8954 42.8627 51.5355" stroke="#00A443" stroke-width="2" stroke-linecap="round" stroke-linejoin="round"/>
<path id="Vector_9" d="M44.2194 47.9342C44.2194 47.9342 41.7959 52.9178 42.47 55.8789" stroke="#FF9C1A" stroke-width="2" stroke-linecap="round" stroke-linejoin="round"/>
<path id="Vector_10" d="M46.8477 56.1692C46.8477 56.1692 51.7203 61.0077 59.392 63.7555" stroke="#00A443" stroke-width="2" stroke-linecap="round" stroke-linejoin="round"/>
<path id="Vector_11" d="M21.6654 53.72C21.6654 53.72 14.6081 58.7889 10 60.8626" stroke="#00A443" stroke-width="2" stroke-linecap="round" stroke-linejoin="round"/>
<path id="Vector 7" d="M24.9292 48.3584C24.5749 48.7821 24.6311 49.4128 25.0547 49.7671C25.4784 50.1214 26.109 50.0652 26.4634 49.6416L24.9292 48.3584ZM26.1963 36.5C26.1963 37.9484 26.2207 40.5549 26.0487 43.0396C25.9626 44.2825 25.8291 45.4657 25.6266 46.4398C25.4145 47.4602 25.158 48.0849 24.9292 48.3584L26.4634 49.6416C27.0345 48.9586 27.3656 47.9012 27.5847 46.8469C27.8135 45.7463 27.955 44.4621 28.0439 43.1778C28.2218 40.6081 28.1963 37.9212 28.1963 36.5H26.1963Z" fill="#FF9C1A"/>
<path id="Vector_12" d="M21.6655 53.7286L25.6962 49.1205L36.5907 54.6673C36.5907 54.6673 32.5202 55.734 33.0322 63.7555L21.6655 53.7286Z" stroke="#00A443" stroke-width="2" stroke-linecap="round" stroke-linejoin="round"/>
</g>
</g>
</svg>
