<svg width="70" height="74" viewBox="0 0 70 74" fill="none" xmlns="http://www.w3.org/2000/svg">
<g id="Frame">
<g id="Group 7">
<path id="Vector" d="M46.152 26.1183C36.8018 26.191 42.1104 22.4153 35.5989 18.5102C31.9904 16.3434 28.3818 19.2298 28.3818 19.2298L27.5479 13.5218C31.1724 10.0937 37.6358 10.1422 42.0141 13.7805C43.3293 14.8801 44.4118 16.2868 45.1736 17.9119L48.5737 25.1481C49.7044 27.5493 49.0869 31.2523 48.0525 34.4863C47.1383 37.3403 47.3708 40.445 48.7581 43.0969L50.0331 45.5304L45.2217 44.6896" stroke="#00A443" stroke-width="2" stroke-linecap="round" stroke-linejoin="round"/>
<path id="Vector_2" d="M28.6383 38.1164C25.8157 39.2887 25.3586 36.5317 26.385 35.6262C27.0345 35.0441 27.2591 33.233 27.3313 31.988C27.3794 31.1956 26.9463 30.4033 26.2006 30.1526C23.2015 29.1339 21.8062 31.5433 21.8062 31.5433" stroke="#FF9C1A" stroke-width="2" stroke-linecap="round" stroke-linejoin="round"/>
<path id="Vector_3" d="M32.2549 30.1284C32.2549 30.1284 34.7488 27.5897 37.6196 29.7888" stroke="#FF9C1A" stroke-width="2" stroke-linecap="round" stroke-linejoin="round"/>
<path id="Vector_4" d="M25.6983 19.6907C25.6983 19.6907 14.7659 16.7961 20.1707 39.3049C20.5877 41.0432 18.6551 38.9896 17.2999 35.6262C15.8564 32.0445 14.1851 28.023 14.6983 24.1907C16.1978 12.8474 27.5562 13.5136 27.5562 13.5136" stroke="#00A443" stroke-width="2" stroke-linecap="round" stroke-linejoin="round"/>
<path id="Vector_5" d="M27 46.3098C27 46.3098 31.0737 47.7166 33.6718 45" stroke="#FF9C1A" stroke-width="2" stroke-linecap="round" stroke-linejoin="round"/>
<path id="Vector_6" d="M45.2217 44.6896C45.2217 44.6896 47.058 51.1253 61.396 54.0197" stroke="#00A443" stroke-width="2" stroke-linecap="round" stroke-linejoin="round"/>
<path id="Vector_7" d="M36.8018 63.3822C36.8018 63.3822 36.8018 60.8677 38.9108 60.4554C41.0198 60.0431 44.0189 63.3822 44.0189 63.3822C46.3604 62.1694 45.2217 44.6896 45.2217 44.6896L39.5523 57.0193" stroke="#00A443" stroke-width="2" stroke-linecap="round" stroke-linejoin="round"/>
<path id="Vector_8" d="M29.7774 63.3822C27.5642 61.4579 25.9764 54.3916 25.9764 54.3916C25.9764 54.3916 21.7744 60.8677 21.6221 63.3822" stroke="#00A443" stroke-width="2" stroke-linecap="round" stroke-linejoin="round"/>
<path id="Vector_9" d="M9 62.8809C9 62.8809 24.4927 54.4563 25.9762 54.3916" stroke="#00A443" stroke-width="2" stroke-linecap="round" stroke-linejoin="round"/>
<path id="Vector_10" d="M43.514 33.7748C43.514 33.7748 44.6983 43.6348 42.6983 46.1907C40.1804 49.4085 39.5002 49.5 37.5002 51.5M24.0002 51C22.2842 49.1 21.2613 47.1394 21.0127 42.7977" stroke="#FF9C1A" stroke-width="2" stroke-linecap="round" stroke-linejoin="round"/>
<path id="Vector_11" d="M39.5124 23.0944C39.5124 23.0944 39.2077 34.1547 45.8474 33.7747" stroke="#00A443" stroke-width="2" stroke-linecap="round" stroke-linejoin="round"/>
<path id="Vector_12" d="M36.7862 52.4435C37.6058 51.7005 37.9392 50.5806 37.8379 49.479C37.7469 48.4901 37.6181 47.0618 37.4523 45.1576C37.0904 41 31.3602 41 31.3602 41C31.3602 41 27.825 41 26.2616 42.0356C24.0629 43.4978 23.9014 44.76 24.034 49.8147" stroke="#00A443" stroke-width="2" stroke-linecap="round" stroke-linejoin="round"/>
</g>
</g>
</svg>
