<svg width="70" height="75" viewBox="0 0 70 75" fill="none" xmlns="http://www.w3.org/2000/svg">
<g id="Frame">
<g id="Grupo 9">
<path id="Trazado 136" d="M43.3652 14.9457C43.3652 14.9457 49.9821 13.8753 49.1273 21.0471C48.6176 26.261 46.7926 28.838 46.7926 28.838" stroke="#00A443" stroke-width="2" stroke-linecap="round" stroke-linejoin="round"/>
<path id="Trazado 137" d="M46.5894 41.8124L49.2038 46.1477L44.905 53.6936L42.64 63.8087C40.1083 65.0175 37.3391 65.6448 34.5345 65.6448C31.7299 65.6448 28.9607 65.0175 26.429 63.8087L27.1939 53.7205L26.6808 45.4497C26.6808 45.4497 21.7411 50.9645 10.7651 51.205" stroke="#00A443" stroke-width="2" stroke-linecap="round" stroke-linejoin="round"/>
<path id="Trazado 138" d="M29.4961 47.5496L32.1641 53.2925C32.1641 53.2925 30.6417 60.7579 34.969 60.8384C39.2963 60.919 39.0562 53.774 39.0562 53.774" stroke="#00A443" stroke-width="2" stroke-linecap="round" stroke-linejoin="round"/>
<path id="Trazado 139" d="M44.9866 43.2572C44.9866 43.2572 42.1019 32.821 44.3457 30.0919C46.5894 27.3628 48.8337 29.4493 47.5514 32.9016C46.269 36.3538 43.7667 37.2844 43.7667 37.2844" stroke="#FF9C1A" stroke-width="2" stroke-linecap="round" stroke-linejoin="round"/>
<path id="Trazado 140" d="M24.4435 29.5321C24.4435 29.5321 21.1853 29.5019 21.8262 32.4861C22.4671 35.4702 25.0972 37.7659 25.0972 37.7659" stroke="#FF9C1A" stroke-width="2" stroke-linecap="round" stroke-linejoin="round"/>
<path id="Trazado 141" d="M43.7646 37.2844C43.7646 41.2388 42.2795 48.3117 32.8355 48.1568C23.3915 48.0018 25.0949 37.7659 25.0949 37.7659L24.0112 24.1202" stroke="#FF9C1A" stroke-width="2" stroke-linecap="round" stroke-linejoin="round"/>
<path id="Trazado 142" d="M39.354 20.5205C39.354 20.5205 38.1151 14.5981 30.9646 20.2968C26.2191 24.0773 20.835 25.4346 18.1401 18.2086L21.4547 17.1924L20.9204 14.1954C20.9204 14.1954 23.8051 15.9084 27.3312 13.2324C30.8574 10.5564 39.7425 6.80995 43.3675 14.9448" stroke="#00A443" stroke-width="2" stroke-linecap="round" stroke-linejoin="round"/>
<path id="Trazado 144" d="M43.365 14.946C43.365 14.946 43.3751 20.887 37.5063 21.4222" stroke="#00A443" stroke-width="2" stroke-linecap="round" stroke-linejoin="round"/>
<path id="Trazado 145" d="M39.354 20.5206C39.354 20.5206 43.2525 21.1543 42.5044 25.4359" stroke="#00A443" stroke-width="2" stroke-linecap="round" stroke-linejoin="round"/>
<path id="Trazado 146" d="M26.4307 28.2432C26.4307 28.2432 28.134 26.8216 30.7451 28.5273C33.3562 30.233 29.5532 36.7159 29.5532 36.7159L32.5612 37.2846" stroke="#FF9C1A" stroke-width="2" stroke-linecap="round" stroke-linejoin="round"/>
<path id="L&#195;&#173;nea 21" d="M34.2646 28.4708H40.7486" stroke="#FF9C1A" stroke-width="2" stroke-linecap="round" stroke-linejoin="round"/>
<path id="Trazado 147" d="M29.4961 39.7671C29.4961 39.7671 32.8347 41.6736 36.2268 39.7671" stroke="#FF9C1A" stroke-width="2" stroke-linecap="round" stroke-linejoin="round"/>
<path id="Trazado 148" d="M31.4263 42.5022C31.4263 42.5022 33.1274 43.0827 34.2629 42.5022" stroke="#FF9C1A" stroke-width="2" stroke-linecap="round" stroke-linejoin="round"/>
<path id="L&#195;&#173;nea 22" d="M34.9692 60.8384V65.6239" stroke="#00A443" stroke-width="2" stroke-linecap="round" stroke-linejoin="round"/>
<path id="Trazado 149" d="M49.2036 46.1475C52.7222 48.5317 56.5651 50.3963 60.6139 51.684" stroke="#00A443" stroke-width="2" stroke-linecap="round" stroke-linejoin="round"/>
<path id="Trazado 150" d="M45.3876 23.5892C46.3495 19.2545 42.178 18.7993 42.178 18.7993C42.178 18.7993 39.6545 11.1465 33.5854 14.5182C27.5162 17.8899 25.0061 20.5123 21.4526 17.1937" stroke="#00A443" stroke-width="2" stroke-linecap="round" stroke-linejoin="round"/>
<path id="L&#195;&#173;nea 23" d="M39.0566 53.7736L46.5896 41.8124" stroke="#00A443" stroke-width="2" stroke-linecap="round" stroke-linejoin="round"/>
</g>
</g>
</svg>
