<?xml version="1.0" encoding="UTF-8"?>
<svg id="Layer_1" xmlns="http://www.w3.org/2000/svg" xmlns:xlink="http://www.w3.org/1999/xlink" version="1.1" viewBox="0 0 258 122">
  <!-- Generator: Adobe Illustrator 29.0.0, SVG Export Plug-In . SVG Version: 2.1.0 Build 186)  -->
  <defs>
    <style>
      .st0 {
        mask: url(#mask);
      }

      .st1 {
        fill: #5bd38c;
      }

      .st1, .st2, .st3, .st4, .st5, .st6, .st7, .st8, .st9, .st10, .st11, .st12, .st13, .st14, .st15, .st16, .st17, .st18, .st19, .st20, .st21, .st22, .st23 {
        stroke-width: .5px;
      }

      .st1, .st2, .st3, .st4, .st5, .st6, .st7, .st8, .st9, .st10, .st11, .st12, .st13, .st14, .st15, .st16, .st17, .st18, .st20, .st21, .st22, .st23 {
        stroke: #00402a;
      }

      .st24 {
        fill: #00100b;
      }

      .st25, .st4, .st5, .st20, .st23 {
        fill-rule: evenodd;
      }

      .st25, .st8, .st26 {
        fill: #fff;
      }

      .st2 {
        fill: #999;
      }

      .st3 {
        fill: #dcdcdc;
      }

      .st4 {
        fill: #fffeff;
      }

      .st4, .st5, .st20, .st23 {
        stroke-linecap: round;
        stroke-linejoin: round;
      }

      .st5, .st27, .st13 {
        fill: #ff9c1a;
      }

      .st6, .st20 {
        fill: #b0a9a3;
      }

      .st7 {
        fill: #007acb;
      }

      .st28 {
        mask: url(#mask-3);
      }

      .st29 {
        mask: url(#mask-4);
      }

      .st30 {
        mask: url(#mask-5);
      }

      .st31 {
        mask: url(#mask-7);
      }

      .st32 {
        mask: url(#mask-6);
      }

      .st33 {
        mask: url(#mask-1);
      }

      .st34 {
        mask: url(#mask-9);
      }

      .st35 {
        mask: url(#mask-8);
      }

      .st36 {
        fill: #d8cfc7;
      }

      .st9 {
        fill: #939393;
      }

      .st10 {
        fill: #ffb536;
      }

      .st11 {
        fill: #b3b3b3;
      }

      .st12 {
        fill: #ededed;
      }

      .st37 {
        fill: #b4def7;
      }

      .st14 {
        fill: #0792e5;
      }

      .st38, .st16 {
        fill: #fff5ec;
      }

      .st15 {
        fill: #ffcd52;
      }

      .st17 {
        fill: #afafaf;
      }

      .st18 {
        fill: #00a443;
      }

      .st19 {
        stroke: #fff5ec;
      }

      .st19, .st21 {
        fill: none;
      }

      .st39 {
        mask: url(#mask-10);
      }

      .st40 {
        mask: url(#mask-14);
      }

      .st41 {
        mask: url(#mask-18);
      }

      .st42 {
        mask: url(#mask-11);
      }

      .st43 {
        mask: url(#mask-16);
      }

      .st44 {
        mask: url(#mask-13);
      }

      .st45 {
        mask: url(#mask-19);
      }

      .st46 {
        mask: url(#mask-12);
      }

      .st47 {
        mask: url(#mask-17);
      }

      .st48 {
        mask: url(#mask-15);
      }

      .st49 {
        mask: url(#mask-22);
      }

      .st50 {
        mask: url(#mask-20);
      }

      .st22 {
        fill: #007f33;
      }

      .st23 {
        fill: #26bf64;
      }
    </style>
    <mask id="mask" x="0" y=".4" width="258" height="121" maskUnits="userSpaceOnUse">
      <g id="mask-2">
        <rect id="path-11" data-name="path-1" class="st26" y=".4" width="258" height="121"/>
      </g>
    </mask>
    <mask id="mask-1" x="0" y=".4" width="258" height="121" maskUnits="userSpaceOnUse">
      <g id="mask-21" data-name="mask-2">
        <rect id="path-12" data-name="path-1" class="st26" y=".4" width="258" height="121"/>
      </g>
    </mask>
    <mask id="mask-22" data-name="mask-2" x="0" y=".4" width="258" height="121" maskUnits="userSpaceOnUse">
      <g id="mask-23" data-name="mask-2">
        <rect id="path-13" data-name="path-1" class="st26" y=".4" width="258" height="121"/>
      </g>
    </mask>
    <mask id="mask-3" x="0" y=".4" width="258" height="121" maskUnits="userSpaceOnUse">
      <g id="mask-24" data-name="mask-2">
        <rect id="path-14" data-name="path-1" class="st26" y=".4" width="258" height="121"/>
      </g>
    </mask>
    <mask id="mask-4" x="0" y=".4" width="258" height="121" maskUnits="userSpaceOnUse">
      <g id="mask-25" data-name="mask-2">
        <rect id="path-15" data-name="path-1" class="st26" y=".4" width="258" height="121"/>
      </g>
    </mask>
    <mask id="mask-5" x="0" y=".4" width="258" height="121" maskUnits="userSpaceOnUse">
      <g id="mask-26" data-name="mask-2">
        <rect id="path-16" data-name="path-1" class="st26" y=".4" width="258" height="121"/>
      </g>
    </mask>
    <mask id="mask-6" x="0" y=".4" width="258" height="121" maskUnits="userSpaceOnUse">
      <g id="mask-27" data-name="mask-2">
        <rect id="path-17" data-name="path-1" class="st26" y=".4" width="258" height="121"/>
      </g>
    </mask>
    <mask id="mask-7" x="0" y=".4" width="258" height="121" maskUnits="userSpaceOnUse">
      <g id="mask-28" data-name="mask-2">
        <rect id="path-18" data-name="path-1" class="st26" y=".4" width="258" height="121"/>
      </g>
    </mask>
    <mask id="mask-8" x="0" y=".4" width="258" height="121" maskUnits="userSpaceOnUse">
      <g id="mask-29" data-name="mask-2">
        <rect id="path-19" data-name="path-1" class="st26" y=".4" width="258" height="121"/>
      </g>
    </mask>
    <mask id="mask-9" x="0" y=".4" width="258" height="121" maskUnits="userSpaceOnUse">
      <g id="mask-210" data-name="mask-2">
        <rect id="path-110" data-name="path-1" class="st26" y=".4" width="258" height="121"/>
      </g>
    </mask>
    <mask id="mask-10" x="0" y=".4" width="258" height="121" maskUnits="userSpaceOnUse">
      <g id="mask-211" data-name="mask-2">
        <rect id="path-111" data-name="path-1" class="st26" y=".4" width="258" height="121"/>
      </g>
    </mask>
    <mask id="mask-11" x="0" y=".4" width="258" height="121" maskUnits="userSpaceOnUse">
      <g id="mask-212" data-name="mask-2">
        <rect id="path-112" data-name="path-1" class="st26" y=".4" width="258" height="121"/>
      </g>
    </mask>
    <mask id="mask-12" x="-52.6" y=".4" width="310.6" height="121" maskUnits="userSpaceOnUse">
      <g id="mask-213" data-name="mask-2">
        <rect id="path-113" data-name="path-1" class="st26" y=".4" width="258" height="121"/>
      </g>
    </mask>
    <mask id="mask-13" x="0" y=".4" width="258" height="121" maskUnits="userSpaceOnUse">
      <g id="mask-214" data-name="mask-2">
        <rect id="path-114" data-name="path-1" class="st26" y=".4" width="258" height="121"/>
      </g>
    </mask>
    <mask id="mask-14" x="0" y=".4" width="271.9" height="226" maskUnits="userSpaceOnUse">
      <g id="mask-215" data-name="mask-2">
        <rect id="path-115" data-name="path-1" class="st26" y=".4" width="258" height="121"/>
      </g>
    </mask>
    <mask id="mask-15" x="214.6" y="43.3" width="4.8" height="4.8" maskUnits="userSpaceOnUse">
      <g id="mask-41" data-name="mask-4">
        <path id="path-3" class="st25" d="M218.1,45.9l-3.4,2c.6-.3,1-1.1,1-2.1l3.4-2c0,1.1-.4,1.8-1,2.1Z"/>
      </g>
    </mask>
    <mask id="mask-16" x="201.2" y="18.6" width="7.2" height="3" maskUnits="userSpaceOnUse">
      <g id="mask-61" data-name="mask-6">
        <path id="path-5" class="st25" d="M202.1,21l3.4-2c.6-.4,1.4-.3,2.4.2l-3.4,2c-.9-.5-1.8-.6-2.4-.2h0Z"/>
      </g>
    </mask>
    <mask id="mask-17" x="211.9" y="23.5" width="7.5" height="8.5" maskUnits="userSpaceOnUse">
      <g id="mask-81" data-name="mask-8">
        <path id="path-7" class="st25" d="M212.4,25.8l3.4-2c1.9,1.1,3.3,3.7,3.3,5.8l-3.4,2c0-2.1-1.5-4.7-3.3-5.8Z"/>
      </g>
    </mask>
    <mask id="mask-18" x="206.2" y="66.4" width="1.5" height="3.6" maskUnits="userSpaceOnUse">
      <g id="mask-101" data-name="mask-10">
        <path id="path-9" class="st25" d="M207.4,68.3v-1.9c0,.5-.3,1-1,1.3v1.9c.6-.4,1-.9,1-1.3Z"/>
      </g>
    </mask>
    <mask id="mask-19" x="200.5" y="50.5" width="6.9" height="17.8" maskUnits="userSpaceOnUse">
      <g id="mask-121" data-name="mask-12">
        <path id="path-11" class="st25" d="M207.1,50.5v15.9c0,.5-.3,1-1,1.3-1.3.7-3.4.7-4.7,0-.6-.4-1-.9-1-1.4v-15.9c0,.5.3,1,1,1.4,1.3.7,3.4.7,4.7,0,.6-.4,1-.9,1-1.3Z"/>
      </g>
    </mask>
    <mask id="mask-20" x="208.1" y="55.2" width="6.9" height="17.8" maskUnits="userSpaceOnUse">
      <g id="mask-141" data-name="mask-14">
        <path id="path-13" class="st25" d="M214.7,55.2v15.9c0,.5-.3,1-1,1.3-1.3.7-3.4.7-4.7,0-.6-.4-1-.9-1-1.4v-15.9c0,.5.3,1,1,1.4,1.3.7,3.4.7,4.7,0,.6-.4,1-.9,1-1.3Z"/>
      </g>
    </mask>
  </defs>
  <g id="Page-1">
    <g id="ilustracion">
      <g id="Rectangle">
        <rect id="path-1" class="st24" y=".4" width="258" height="121"/>
      </g>
      <g class="st0">
        <path id="Path" class="st38" d="M44.8,41.6c-.1.2-.4.3-.6.1-.2-.1-.3-.4-.1-.6.1-.2.4-.3.6-.1.2.1.3.4.1.6Z"/>
      </g>
      <g class="st33">
        <path id="Path1" data-name="Path" class="st38" d="M78.3,35.5c-.1.2-.4.3-.6.1-.2-.1-.3-.4-.1-.6.1-.2.4-.3.6-.1.2.1.3.4.1.6Z"/>
      </g>
      <g class="st49">
        <path id="Path2" data-name="Path" class="st38" d="M63.3,8.3c-.1.2-.4.3-.6.1-.2-.1-.3-.4-.1-.6.1-.2.4-.3.6-.1.2.1.3.4.1.6Z"/>
      </g>
      <g class="st28">
        <path id="Path3" data-name="Path" class="st38" d="M206.5,23c.2,0,.4.3.4.5,0,.2-.3.4-.5.4-.2,0-.4-.3-.4-.5,0-.2.3-.4.5-.4Z"/>
      </g>
      <g class="st29">
        <path id="Path4" data-name="Path" class="st38" d="M182.5,11c.2,0,.4.3.4.5,0,.2-.3.4-.5.4-.2,0-.4-.3-.4-.5,0-.2.3-.4.5-.4Z"/>
      </g>
      <g class="st30">
        <path id="Path5" data-name="Path" class="st38" d="M173.1,33.2c.2,0,.4.3.4.5,0,.2-.3.4-.5.4-.2,0-.4-.3-.4-.5,0-.2.3-.4.5-.4Z"/>
      </g>
      <g class="st32">
        <polygon id="Path6" data-name="Path" class="st38" points="120.3 53.9 121.8 59.7 127.6 61.2 121.8 62.7 120.3 68.5 118.8 62.7 113 61.2 118.8 59.7 120.3 53.9"/>
      </g>
      <g class="st31">
        <path id="Path7" data-name="Path" class="st38" d="M163,17.7c0,1-.8,1.8-1.8,1.8s-1.8-.8-1.8-1.8.8-1.8,1.8-1.8,1.8.8,1.8,1.8Z"/>
      </g>
      <g class="st35">
        <path id="Path8" data-name="Path" class="st38" d="M22.9,51.8c.4.9,0,2-.8,2.4-.9.4-2,0-2.4-.8-.4-.9,0-2,.8-2.4.9-.4,2,0,2.4.8Z"/>
      </g>
      <g class="st34">
        <path id="Path9" data-name="Path" class="st38" d="M24,104.5c.4.9,0,2-.8,2.4-.9.4-2,0-2.4-.8-.4-.9,0-2,.8-2.4.9-.4,2,0,2.4.8Z"/>
      </g>
      <g class="st39">
        <path id="Path10" data-name="Path" class="st38" d="M9.5,33.7c0,.5-.4.9-.9.9s-.9-.4-.9-.9.4-.9.9-.9.9.4.9.9Z"/>
      </g>
      <g class="st42">
        <path id="Path11" data-name="Path" class="st37" d="M59.8,84.3c-3.2,0-5.8-2.7-5.8-6s.7-3.3,1.8-4.4c-2.8.9-4.8,3.6-4.8,6.8s3.1,7.2,7,7.2,6.9-3.1,7-6.9c-1,1.9-2.9,3.2-5.2,3.2h0Z"/>
      </g>
      <g class="st46">
        <polyline id="Path12" data-name="Path" class="st19" points="-52.5 68.6 -15 83.5 22.8 105.9 33.1 81.1 21.3 52.6 -15 83.5"/>
      </g>
      <g class="st44">
        <path id="Path13" data-name="Path" class="st27" d="M233.3,26.5c1.2-1.2,13.7-11.5,13.7-11.5,0,0-10.3,12.5-11.5,13.7-1.2,1.2-2.6,1.7-3.2,1.1-.6-.6-.1-2,1.1-3.2h0Z"/>
      </g>
      <g class="st40">
        <g id="Group">
          <g>
            <path id="Path14" data-name="Path" class="st16" d="M208.3,223.9c44.1-10.4,71.5-54.7,61.2-99-10.3-44.3-54.5-71.8-98.6-61.4-44.1,10.4-71.5,54.7-61.2,99,10.3,44.3,54.5,71.8,98.6,61.4Z"/>
            <path id="Path15" data-name="Path" class="st6" d="M221,98.5c1,2.6-.6,4.5-3,3.5-3.1-1.3-4.1-5.9-2-6.9.1,0,.3-.1.5-.2,2.1-.2,3.9,1.9,4.5,3.5h0Z"/>
            <path id="Shape" class="st36" d="M156.2,133.5v-.2.2ZM156.3,132.5h0c0-.1,0,0,0,0ZM156.7,128.7v-.2.2ZM156.8,126.8v-.2.2ZM156.7,121.4v-.2.2ZM156.5,118.8v-.3.3ZM156.4,118s0-.3,0-.4c0,.1,0,.3,0,.4ZM156.3,117.2v-.3.3ZM156.2,116.5c0-.2,0-.4,0-.6,0,.2,0,.3,0,.5h0ZM156,114.9s0-.4,0-.7c0,.2,0,.4.1.7h0ZM156.1,115.6s0-.4,0-.7c0,.2,0,.5,0,.7h0ZM110.4,143.9v.2c0-.2,0-.5,0-.7,0,0,0,.3,0,.5h0ZM110.5,144.3h0s0-.1,0-.2v.2h0ZM110.9,147.2s0,.4.1.5c-.2-1-.4-2.4-.6-3.4,0,.6.2,1.6.5,2.8h0ZM152.3,102.1l.3.8-.3-.7s0-.1,0-.2ZM152.6,102.9l.2.5h0c0-.1-.2-.4-.2-.5ZM152.9,103.4l.3.8-.2-.6s0-.2-.1-.3h0ZM153.2,104.2l.3.7v-.2c0,0-.2-.3-.3-.4h0ZM153.5,104.8l.3.8v-.5c-.1,0-.2-.2-.3-.3h0ZM153.7,105.7l.3.7v-.3c-.1,0-.2-.3-.3-.3h0ZM154,106.4l.3.8v-.4c-.1,0-.2-.3-.3-.4h0ZM154.2,107.2l.3.8v-.5c-.1,0-.2-.2-.2-.3h0ZM154.5,108l.2.8v-.3c0,0-.2-.3-.3-.5h0ZM149,128.7c3.6-11.5,3.9-25.3,2.7-27.7-3-5.4-5.4-6.4-8.7-7.3-21.7-2.8-37.2,32.2-32.2,51.8,6.7,19.6,26,11.1,35.4-9.5,1-2.1,2-4.9,2.7-7.1h0ZM154.7,108.8l.3.9-.2-.7s0-.2,0-.3ZM154.9,109.7l.2.8v-.2s-.1-.4-.2-.6ZM155.2,110.5l.3,1.1-.2-.9s0-.1,0-.2h0ZM155.4,111.6v.7c.1,0,.1,0,.1,0,0,0-.1-.4-.1-.6ZM155.5,112.3l.3,1.9c0-.6-.2-1.3-.3-1.9Z"/>
            <path id="Shape1" data-name="Shape" class="st21" d="M155.2,110.5l-.2-.8c0,.2.2.6.2.6v.2ZM155.2,110.5l.3,1.1-.2-.9s0-.1,0-.2h0ZM156.2,133.5v-.2.2ZM156.3,132.5h0c0-.1,0,0,0,0ZM156.7,128.7v-.2.2ZM156.8,126.8v-.2.2ZM156.7,121.4v-.2.2ZM156.5,118.8v-.3.3ZM156.4,118s0-.3,0-.4c0,.1,0,.3,0,.4ZM156.3,117.2v-.3.3ZM156.2,116.5c0-.2,0-.4,0-.6,0,.2,0,.3,0,.5h0ZM156,114.9s0-.4,0-.7c0,.2,0,.4.1.7h0ZM156.1,115.6s0-.4,0-.7c0,.2,0,.5,0,.7h0ZM110.4,143.9v.2c0-.2,0-.5,0-.7,0,0,0,.3,0,.5h0ZM110.5,144.3h0s0-.1,0-.2v.2h0ZM110.9,147.2s0,.4.1.5c-.2-1-.4-2.4-.6-3.4,0,.6.2,1.6.5,2.8h0ZM152.3,102.1l.3.8-.3-.7s0-.1,0-.2ZM152.6,102.9l.2.5h0c0-.1-.2-.4-.2-.5ZM152.9,103.4l.3.8-.2-.6s0-.2-.1-.3h0ZM153.2,104.2l.3.7v-.2c0,0-.2-.3-.3-.4h0ZM153.5,104.8l.3.8v-.5c-.1,0-.2-.2-.3-.3h0ZM153.7,105.7l.3.7v-.3c-.1,0-.2-.3-.3-.3h0ZM154,106.4l.3.8v-.4c-.1,0-.2-.3-.3-.4h0ZM154.2,107.2l.3.8v-.5c-.1,0-.2-.2-.2-.3h0ZM154.5,108l.2.8v-.3c0,0-.2-.3-.3-.5h0ZM149,128.7c3.6-11.5,3.9-25.3,2.7-27.7-3-5.4-5.4-6.4-8.7-7.3-21.7-2.8-37.2,32.2-32.2,51.8,6.7,19.6,26,11.1,35.4-9.5,1-2.1,2-4.9,2.7-7.1h0ZM154.7,108.8l.3.9-.2-.7s0-.2,0-.3ZM155.4,111.6v.7c.1,0,.1,0,.1,0,0,0-.1-.4-.1-.6ZM155.5,112.3l.3,1.9c0-.6-.2-1.3-.3-1.9Z"/>
            <path id="Path16" data-name="Path" class="st6" d="M155.3,138.3c-6.2,26.9-28.7,38.1-40.2,20-2.5-3.9-4.1-8.9-4.8-14.9,5.1,19.7,21.9,15.6,32.5-1.1,4.7-7.4,10.1-20.3,9.4-40.2,4.7,10.3,5.8,24.2,3,36.2Z"/>
            <path id="Shape2" data-name="Shape" class="st36" d="M184.5,123.1h-.3.3ZM188.5,123.1c-.3,0-.7,0-1,0,.3,0,.7,0,1,0ZM189.5,123c-.3,0-.7,0-1,.1.3,0,.7,0,1-.1ZM196,120.6c-.3.1-.6.3-.8.5.3-.1.6-.3.8-.5ZM196.8,120c-.3.2-.6.4-.8.5.3-.2.6-.4.8-.5ZM197.6,119.4c-.2.2-.5.4-.8.6.2-.2.5-.4.8-.6ZM199,118.1s-.5.5-.7.7c.2-.2.5-.5.7-.7ZM199.7,117.4s-.5.5-.7.7c.2-.2.5-.5.7-.7ZM200.9,115.9c-.2.2-.4.5-.6.8.2-.2.4-.5.6-.8ZM202.3,113.5c-.1.3-.3.6-.4.8.1-.3.3-.6.4-.8ZM203,111.7c0,.3-.2.6-.3.9,0-.3.2-.6.3-.9ZM203.6,109.8c0,.3-.2.7-.2.9,0-.3.2-.7.2-.9ZM203.9,107.9c0,.3,0,.7-.1,1,0-.3,0-.7.1-1ZM203.9,106.9c0,.3,0,.7,0,1,0-.3,0-.7,0-1ZM203.9,104c0,.3,0,.7,0,1,0-.3,0-.7,0-1ZM203.8,103c0,.3,0,.7.1,1,0-.6-.2-1.4-.3-2,0,.3.1.7.2,1ZM202.8,98.8s-.1-.3-.2-.5c0,.2.1.3.2.5ZM202.4,97.9s0,.3.1.3c-1.4-3.5-3.3-6.7-5.9-9.4,0,0,.1.2.2.2,3,3.2,4.7,6.6,5.6,8.8ZM196.5,88.8s0,0-.2-.2c0,0,0,0,.2.2ZM199.2,99.9c-.2-3.8-1.7-15.9-12.2-15.4-13.1,2.4-22.5,25.3-12.8,31.5,10.4,6.6,25.9-1,25.1-16.1Z"/>
            <path id="Shape3" data-name="Shape" class="st21" d="M186.4,123.2h1M187.4,123.2c.3,0,.7,0,1,0M187.4,123.2c.3,0,.7,0,1,0M188.5,123.1c.3,0,.7-.1,1-.1M188.5,123.1c.3,0,.7,0,1-.1M189.5,123c.3,0,.7-.1,1-.2.3,0,.7-.2,1-.3M192.5,122.3c-.3,0-.7.2-1,.3M192.5,122.2c.3,0,.7-.3.9-.3.3-.1.7-.3.9-.4.3-.1.6-.3.9-.4M195.2,121.1c.2-.1.6-.3.8-.5-.2.1-.6.3-.8.5ZM196.8,120c-.3.2-.6.4-.8.5.3-.2.6-.4.8-.5ZM196.8,120c.3-.2.6-.4.8-.6-.3.2-.6.4-.8.6ZM198.3,118.8c-.2.2-.5.4-.7.6M198.3,118.8c.2-.2.7-.7.7-.7M198.3,118.8c.2-.2.5-.5.7-.7M199,118.1c.2-.2.7-.7.7-.7M199,118.1c.2-.2.5-.5.7-.7M199.7,117.4c.2-.2.4-.5.6-.7M200.9,115.9c.2-.2.3-.6.5-.8.1-.3.3-.6.5-.8M202.7,112.6c-.1.3-.3.6-.4.9M203,111.7c0,.3-.2.6-.3.9,0-.3.2-.6.3-.9ZM203,111.7c0-.3.2-.7.3-.9M203.7,108.9c0,.3-.1.7-.2,1M203.7,108.9c0-.3.1-.7.1-1,0,.3-.1.7-.1,1ZM204,106v1M203.9,105v1M203.9,104c0,.3,0,.7,0,1,0-.3,0-.7,0-1ZM203.9,104c0-.3-.1-.7-.1-1,0-.3-.1-.7-.2-1,.1.6.2,1.4.3,2ZM184.5,123.1h-.3.3ZM200.9,115.9c-.2.2-.4.5-.6.8.2-.2.4-.5.6-.8ZM202.3,113.5c-.1.3-.3.6-.4.8.1-.3.3-.6.4-.8ZM203.6,109.8c0,.3-.2.7-.2.9,0-.3.2-.7.2-.9ZM203.9,106.9c0,.3,0,.7,0,1,0-.3,0-.7,0-1ZM202.8,98.8s-.1-.3-.2-.5c0,.2.1.3.2.5ZM202.4,97.9s0,.3.1.3c-1.4-3.5-3.3-6.7-5.9-9.4,0,0,.1.2.2.2,3,3.2,4.7,6.6,5.6,8.8ZM196.5,88.8s0,0-.2-.2c0,0,0,0,.2.2ZM199.2,99.9c-.2-3.8-1.7-15.9-12.2-15.4-13.1,2.4-22.5,25.3-12.8,31.5,10.4,6.6,25.9-1,25.1-16.1Z"/>
            <path id="Path17" data-name="Path" class="st6" d="M203.9,104c1.5,16.3-16.3,24.2-27.3,15.9-2.6-2-3.8-4.2-4.5-5.5,11.2,9.5,27.9.6,27.1-14.5-.4-7-4.3-12.3-4.7-12.9,3.5,2.8,7.8,8.1,9.1,15,0,.6.2,1.4.3,2h0Z"/>
            <g id="Clipped">
              <g class="st48">
                <g id="Group1" data-name="Group">
                  <g id="Path19" data-name="Path">
                    <path class="st11" d="M215.7,45.7l3.4-2c0,.1,0,.3,0,.4l-3.4,2c0-.1,0-.3,0-.4Z"/>
                    <path class="st2" d="M215.7,46.1l3.4-2c0,.8-.4,1.4-1,1.8l-3.4,2c.5-.3.9-.9,1-1.8Z"/>
                  </g>
                </g>
              </g>
            </g>
            <g id="Clipped1" data-name="Clipped">
              <g class="st43">
                <path id="Path21" data-name="Path" class="st2" d="M202.1,21l3.4-2c.6-.4,1.4-.3,2.4.2l-3.4,2c-.9-.5-1.8-.6-2.4-.2h0Z"/>
              </g>
            </g>
            <polygon id="Path22" data-name="Path" class="st9" points="204.5 21.2 207.9 19.3 211.9 21.5 208.4 23.5 204.5 21.2"/>
            <polygon id="Path23" data-name="Path" class="st17" points="215.7 31.6 219.1 29.6 219.1 43.7 215.7 45.7 215.7 31.6"/>
            <polygon id="Path24" data-name="Path" class="st9" points="208.4 23.5 211.9 21.5 215.8 23.8 212.4 25.8 208.4 23.5"/>
            <g id="Clipped2" data-name="Clipped">
              <g class="st47">
                <g id="Group2" data-name="Group">
                  <path id="Path26" data-name="Path" class="st2" d="M212.4,25.8l3.4-2c.7.4,1.4,1,1.9,1.8l-3.4,2c-.5-.7-1.2-1.4-1.9-1.8Z"/>
                  <path id="Path27" data-name="Path" class="st11" d="M214.3,27.6l3.4-2c.9,1.2,1.4,2.7,1.4,4l-3.4,2c0-1.3-.6-2.8-1.4-4Z"/>
                </g>
              </g>
            </g>
            <path id="Path28" data-name="Path" class="st8" d="M212.4,25.8c1.9,1.1,3.3,3.7,3.3,5.8v14.1c0,2.1-1.5,3-3.4,1.9l-3.9-2.3-3.9-2.3c-1.9-1.1-3.3-3.7-3.3-5.8v-14.1c0-2.1,1.5-3,3.4-1.9l3.9,2.3,3.9,2.3Z"/>
            <path id="Path29" data-name="Path" class="st7" d="M207.4,68.3v-1.9c0,.5-.3,1-1,1.3v1.9c.6-.4,1-.9,1-1.3Z"/>
            <g id="Clipped3" data-name="Clipped">
              <g class="st41">
                <path id="Path31" data-name="Path" class="st7" d="M206.4,67.8v1.9c.6-.4,1-.9,1-1.3v-1.9c0,.5-.3,1-1,1.3Z"/>
              </g>
            </g>
            <polygon id="Path32" data-name="Path" class="st7" points="203.1 69.7 203.1 71.6 206.4 69.6 206.4 67.8 203.1 69.7"/>
            <path id="Path33" data-name="Path" class="st7" d="M197.5,68.4v1.9c0,.5.3,1,1,1.3,1.3.7,3.3.7,4.6,0v-1.9c-1.3.7-3.3.7-4.6,0-.6-.4-1-.8-1-1.3Z"/>
            <path id="Path34" data-name="Path" class="st7" d="M198.5,67c-1.3.7-1.3,1.9,0,2.7,1.3.7,3.3.7,4.6,0l3.3-1.9c1.3-.7,1.3-1.9,0-2.7-1.3-.7-3.3-.7-4.6,0l-3.3,1.9Z"/>
            <path id="Path35" data-name="Path" class="st12" d="M207.1,50.5v15.9c0,.5-.3,1-1,1.3-1.3.7-3.4.7-4.7,0-.6-.4-1-.9-1-1.4v-15.9c0,.5.3,1,1,1.4,1.3.7,3.4.7,4.7,0,.6-.4,1-.9,1-1.3Z"/>
            <g id="Clipped4" data-name="Clipped">
              <g class="st45">
                <path id="Path37" data-name="Path" class="st12" d="M207.1,50.5v15.9c0,.2,0,.3-.1.5v-15.9c0-.2.1-.3.1-.5Z"/>
              </g>
            </g>
            <path id="Path38" data-name="Path" class="st12" d="M206.2,49.1c1.3.7,1.3,2,0,2.7-1.3.7-3.4.7-4.7,0-1.3-.7-1.3-2,0-2.7,1.3-.7,3.4-.7,4.7,0Z"/>
            <path id="Path39" data-name="Path" class="st7" d="M214.9,73v-1.9c0,.5-.3,1-1,1.3v1.9c.6-.4,1-.9,1-1.3Z"/>
            <polygon id="Path40" data-name="Path" class="st7" points="210.6 74.4 210.6 76.3 214 74.4 213.9 72.5 210.6 74.4"/>
            <path id="Path41" data-name="Path" class="st7" d="M205.1,73.1v1.9c0,.5.3,1,1,1.3,1.3.7,3.3.7,4.6,0v-1.9c-1.3.7-3.3.7-4.6,0-.6-.4-1-.8-1-1.3Z"/>
            <path id="Path42" data-name="Path" class="st7" d="M206,71.8c-1.3.7-1.3,1.9,0,2.7,1.3.7,3.3.7,4.6,0l3.3-1.9c1.3-.7,1.3-1.9,0-2.7-1.3-.7-3.3-.7-4.6,0l-3.3,1.9Z"/>
            <path id="Path43" data-name="Path" class="st12" d="M214.7,55.2v15.9c0,.5-.3,1-1,1.3-1.3.7-3.4.7-4.7,0-.6-.4-1-.9-1-1.4v-15.9c0,.5.3,1,1,1.4,1.3.7,3.4.7,4.7,0,.6-.4,1-.9,1-1.3Z"/>
            <g id="Clipped5" data-name="Clipped">
              <g class="st50">
                <path id="Path45" data-name="Path" class="st12" d="M214.7,55.2v15.9c0,.2,0,.3-.1.5v-15.9c0-.2.1-.3.1-.5Z"/>
              </g>
            </g>
            <path id="Path46" data-name="Path" class="st12" d="M213.7,53.9c1.3.7,1.3,2,0,2.7-1.3.7-3.4.7-4.7,0-1.3-.7-1.3-2,0-2.7,1.3-.7,3.4-.7,4.7,0Z"/>
            <path id="Path47" data-name="Path" class="st3" d="M199.8,43.7c-.9,1.3-2.6,1.6-3.9.7-1.3-.9-1.6-2.6-.7-3.9l4.7-6.8c.9-1.3,2.6-1.6,3.9-.7,1.3.9,1.6,2.6.7,3.9l-4.7,6.8Z"/>
            <path id="Path48" data-name="Path" class="st3" d="M199.4,51c-.2,1.5-1.5,2.6-3,2.5-1.5-.2-2.6-1.5-2.5-3l.8-8.2c.2-1.5,1.5-2.6,3-2.5,1.5.2,2.6,1.5,2.5,3l-.8,8.2h0Z"/>
            <path id="Path49" data-name="Path" class="st12" d="M214.7,55.6c0,.9,0,1.6-.1,2.3,0,1.1-.1,1.8-.1,1.8l-13.8-7.4s0-1-.1-2.6c0-.7,0-1.5,0-2.4-.1-4.7,0-11.4.9-14.2.5-1.3,5.9-.1,5.9-.1,0,0,7.2,4.1,7.6,6.1.5,3,.2,11.4-.1,16.5h0Z"/>
            <path id="Path50" data-name="Path" class="st7" d="M214.7,55.6c0,.9,0,1.7,0,2.3l-7.6-4.4-6.6-3.8c0-.7,0-1.5,0-2.4l6.6,3.8,7.7,4.4h0Z"/>
            <path id="Path51" data-name="Path" class="st1" d="M210.1,41.3v3.2c.8.4,1.4,0,1.4-.8s-.6-1.9-1.4-2.4h0Z"/>
            <path id="Path52" data-name="Path" class="st18" d="M208.7,42.1c0,.9.6,1.9,1.4,2.4v-3.2c-.8-.4-1.4,0-1.4.8h0Z"/>
            <polygon id="Path53" data-name="Path" class="st7" points="211.5 46.7 208.7 45.1 208.7 46.3 211.5 47.9 211.5 46.7"/>
            <polygon id="Path54" data-name="Path" class="st7" points="208.7 46.3 208.7 47.5 211.5 49.2 211.5 47.9 208.7 46.3"/>
            <polygon id="Path55" data-name="Path" class="st18" points="203.1 37.4 203.1 38.9 204.5 39.7 204.5 38.2 203.1 37.4"/>
            <polygon id="Path56" data-name="Path" class="st1" points="205.9 39 204.5 38.2 204.5 39.7 205.9 40.5 205.9 39"/>
            <polygon id="Path57" data-name="Path" class="st7" points="205.9 41.6 203.1 40 203.1 39.5 205.9 41.1 205.9 41.6"/>
            <path id="Path58" data-name="Path" class="st8" d="M217.1,52.9c-.2,0-.3,0-.4,0-1.4,0-2.6-1-2.9-2.5l-1.3-8.5c-.2-1.6.8-3.1,2.4-3.3.2,0,.3,0,.4,0,1.4,0,2.6,1,2.9,2.5v.2s.3,2,.3,2l1,6.4c.2,1.6-.8,3.1-2.4,3.3h0Z"/>
            <path id="Path59" data-name="Path" class="st8" d="M217.2,59.2c-.4,1.5-2,2.5-3.6,2.1-1.5-.4-2.5-2-2.1-3.6l2.2-8.3c.4-1.5,2-2.5,3.6-2.1,1.5.4,2.5,2,2.1,3.6l-2.2,8.3Z"/>
            <path id="Path60" data-name="Path" class="st7" d="M193.9,50.5c-.1,1.5,1,2.8,2.5,3,1.5.2,2.9-1,3-2.5l-5.5-.5Z"/>
            <path id="Path61" data-name="Path" class="st7" d="M213.7,61.2c1.5.4,3.1-.5,3.6-2.1l-5.6-1.5c-.4,1.5.5,3.1,2.1,3.5Z"/>
            <path id="Path62" data-name="Path" class="st3" d="M210.8,35.9c4-1.6,5.9-6.2,4.3-10.2-1.6-4-6.2-5.9-10.2-4.3-4,1.6-5.9,6.2-4.3,10.2,1.6,4,6.2,5.9,10.2,4.3Z"/>
            <path id="Path63" data-name="Path" class="st7" d="M211.2,31c-.9,2.8-3.8,5.6-6.9,4.6-3-1-5.1-5.6-4.2-8.3.9-2.8,3.2-4.6,6.3-3.6,3,1,5.7,4.6,4.7,7.3h0Z"/>
            <path id="Path64" data-name="Path" class="st14" d="M208.4,30.8c-.4,2-2.6,4.3-5,3.5-2.4-.8-4.1-4.5-3.4-6.7.7-2.2,2.7-3.7,5.1-2.8,2.4.8,3.7,3.7,3.3,6Z"/>
            <path id="Path65" data-name="Path" class="st8" d="M203.2,28.6c.6,0,1.1-.5,1.1-1.1s-.5-1.1-1.1-1.1-1.1.5-1.1,1.1.5,1.1,1.1,1.1Z"/>
            <path id="Path66" data-name="Path" class="st23" d="M157.5,41c0,.2.3.4.6.5.4.2.8.3,1.4.3h.3c.4,0,.8-.1,1.2-.3.4-.2.6-.4.6-.7h0c0-.3-.2-.5-.6-.7-.4-.2-.7-.3-1.2-.3h-.3c-.6,0-1,.1-1.4.3-.3.2-.5.3-.6.5v.4Z"/>
            <path id="Path67" data-name="Path" class="st4" d="M161.5,40.8c0,.3-.2.5-.6.7-.4.2-.7.2-1.2.3h-.3c-.6,0-1,0-1.4-.3-.3-.2-.5-.4-.6-.5v28s0,9.6,0,9.6v11h0c0,0,0,.1,0,.2v.3c0,.4.4.7.9.9.4.2.9.3,1.4.4.3,0,.6,0,.9,0h.3c.7,0,1.3-.2,1.9-.5.6-.3.9-.6.9-1h0c0,0,0-.1,0-.2s0-.1,0-.2l-.3-5.9v-1.7c0,0-.2-3.7-.2-3.7l-.4-9.6-1.2-28.2h0Z"/>
            <path id="Path68" data-name="Path" class="st4" d="M166.8,37.7c.3-.3.6-.5.8-.8l.2-.3c.4-.4.6-.8.6-1.1,0-.7-.8-.8-2.5-.5-1.7.4-3.7,1.1-6,2.3-1,.5-2,1-2.8,1.5-.3.2-.4.5-.4,1s0,.7.2,1.1h0c0,0,0,0,0,0,0,0,0,.1.1.2l.7.9c.2.1.3.2.4.3.2.1.5.2.7.2.2,0,.4-.2.6-.3.2,0,.3-.1.4-.2.7-.4,1.4-.7,2-1.1.7-.4,1.3-.7,1.9-1.1.6-.4,1.1-.7,1.6-1.1.2-.1.3-.2.4-.3.3-.2.6-.5.8-.7h0Z"/>
            <path id="Path69" data-name="Path" class="st4" d="M150.4,14l-.2-.2-.3.8c1,6,2.1,11.3,3.3,16,.3,1.2.6,2.3.9,3.4.7,2.7,1.5,5,2.2,7,0,0,0,.2.1.2v.5c0,0-.1.2-.1.2l-4.1.2h-.2s-4.1,3.3-4.1,3.3l-7,5.7v.8l.9.3c.6-.2,1.1-.5,1.7-.7l4-1.9c.1,0,.3-.1.4-.2,1.4-.7,2.6-1.4,3.8-2.1,2.5-1.6,4.4-3,5.7-4.5h.2c0,0,.7.3.7.3l4.2,4.6,3.4,2.1,13,7.9.2-.3.3-.6c-4.8-3.9-9.1-7.2-13-9.8-.2-.1-.4-.3-.6-.4-2.8-1.9-5.2-3.4-7.1-4.4-.3-.2-.6-.3-.8-.4,0,0,0,0,0,0l-.7-1v-5.3c.1,0-.3-1.4-.3-1.4l-6-19.5-.4-.4h0Z"/>
            <path id="Shape4" data-name="Shape" class="st20" d="M156.2,41.8l-4.1.2.2-.2,3.9-.2v.2s0,0,0,0ZM152,47c-1.2.7-2.5,1.4-3.8,2.1l-.8.4c.1,0,.3-.1.4-.2,1.4-.7,2.6-1.4,3.8-2.1,2.5-1.6,4.4-3,5.7-4.5h.2c-1.3,1.4-3.1,2.8-5.5,4.3ZM150.5,13.6l.6.7,6,19.5.4,1.4v5.3c-.1,0,.6,1,.6,1,0,0,0,0,0,0,.3.1.6.3.8.4,2,1,4.3,2.5,7.1,4.4.2.2.4.3.6.4,3.8,2.7,8.1,5.9,13,9.8l-.5.9h-.2c0-.1.3-.7.3-.7-4.8-3.9-9.1-7.2-13-9.8-.2-.1-.4-.3-.6-.4-2.8-1.9-5.2-3.4-7.1-4.4-.3-.2-.6-.3-.8-.4,0,0,0,0,0,0l-.7-1v-5.3c.1,0-.3-1.4-.3-1.4l-5.9-19.5-.4-.4.2-.4h0Z"/>
            <path id="Path70" data-name="Path" class="st5" d="M157.5,40.8c-.3-.6-.7-.9-1.2-1.2-.5-.2-.9-.3-1.2,0,0,0,0,0-.1,0,0,0-.1,0-.2.2-1,.8-1.5,1.8-1.5,3.1,0,.1,0,.2.2.3.7.3,1.5.5,2.3.6h.4c.2,0,.5,0,.8,0h.2c0,0,0,0,0,0,0,0,.2,0,.2-.1.3-.2.5-.6.5-1.1,0-.5-.2-1.1-.5-1.6h0Z"/>
            <g>
              <g>
                <path class="st13" d="M83.3,79.3s-4.2-1.4-7.7.9,1.3,1.4,1.3,1.4c0,0-4.3,2.4-5.1,5.6-.7,3.2-2.1,5.5-3.1,5.4-1,0,2.2,2.5,7,.6,4.9-2,6.7-6,6.7-6,0,0-.6,2.9,1,1.8s3.8-4.2,4.2-6c.4-1.8-4.4-3.7-4.4-3.7Z"/>
                <path class="st15" d="M84,79.3l-4.7.8-2.2.5,2.1.8s-4.9,3.1-5.3,4.9c-.4,1.8-.3,3.1-1.5,4.4-1.2,1.3,4.6.8,6.9-1.7,2.3-2.5,3.3-3.6,3.3-3.6l.7,2,3.3-6.4-2.7-1.7Z"/>
              </g>
              <g>
                <path class="st1" d="M90.2,62.3s-2.8-4.4-8.4-1.1c-5.6,3.2-7.3,13.4-7.3,13.4l10.5-3,5.1-9.2Z"/>
                <path class="st1" d="M103.4,73.1s4.8,1.9,2.8,8c-2.1,6.1-11.7,9.8-11.7,9.8l.9-10.9,8.1-6.9Z"/>
              </g>
              <g>
                <polygon class="st14" points="83.9 75.7 79.5 77.3 89 86.4 90.9 81.9 83.9 75.7"/>
                <polygon class="st14" points="85.7 73 80.9 75.1 91.2 84.3 94.2 80 85.7 73"/>
              </g>
              <path class="st8" d="M84.1,71.5s-.2-17,12-29.6c12.2-12.6,31.3-14.7,36.9-12.6,2.1,5.8,3.5,23.3-10.3,37.5-8.2,8.4-27.6,15.8-27.6,15.8l-11-11.2Z"/>
              <path class="st1" d="M124.5,45.3c2.6,1.5,5.5,2.7,8.5,3.4,2.2-8.5,1.2-16.1,0-19.5-3.3-1.2-11.2-1-19.6,1.9.9,6.2,5.9,11.1,11.2,14.2Z"/>
              <g>
                <circle class="st10" cx="109.2" cy="54.5" r="9.4" transform="translate(.9 110.6) rotate(-53.9)"/>
                <path class="st22" d="M116.5,53.7c-.4-4-4-6.9-8-6.5-4,.4-6.9,4-6.5,8,.4,4,4,6.9,8,6.5s6.9-4,6.5-8Z"/>
              </g>
            </g>
          </g>
        </g>
      </g>
    </g>
  </g>
</svg>