<?xml version="1.0" encoding="UTF-8"?>
<svg id="Layer_1" xmlns="http://www.w3.org/2000/svg" xmlns:xlink="http://www.w3.org/1999/xlink" version="1.1" viewBox="0 0 501 122">
  <!-- Generator: Adobe Illustrator 29.0.0, SVG Export Plug-In . SVG Version: 2.1.0 Build 186)  -->
  <defs>
    <style>
      .st0 {
        mask: url(#mask);
      }

      .st1 {
        fill: #5bd38c;
      }

      .st1, .st2, .st3, .st4, .st5, .st6, .st7, .st8, .st9, .st10, .st11, .st12, .st13, .st14, .st15, .st16, .st17, .st18, .st19, .st20, .st21, .st22, .st23 {
        stroke-width: .5px;
      }

      .st1, .st2, .st3, .st4, .st5, .st6, .st7, .st8, .st9, .st10, .st11, .st12, .st13, .st14, .st15, .st16, .st17, .st18, .st20, .st21, .st22, .st23 {
        stroke: #00402a;
      }

      .st24 {
        fill: #00100b;
      }

      .st25, .st4, .st5, .st20, .st23 {
        fill-rule: evenodd;
      }

      .st25, .st8, .st26 {
        fill: #fff;
      }

      .st2 {
        fill: #999;
      }

      .st3 {
        fill: #dcdcdc;
      }

      .st4 {
        fill: #fffeff;
      }

      .st4, .st5, .st20, .st23 {
        stroke-linecap: round;
        stroke-linejoin: round;
      }

      .st5, .st27, .st13 {
        fill: #ff9c1a;
      }

      .st6, .st20 {
        fill: #b0a9a3;
      }

      .st7 {
        fill: #007acb;
      }

      .st28 {
        mask: url(#mask-3);
      }

      .st29 {
        mask: url(#mask-4);
      }

      .st30 {
        mask: url(#mask-5);
      }

      .st31 {
        mask: url(#mask-7);
      }

      .st32 {
        mask: url(#mask-6);
      }

      .st33 {
        mask: url(#mask-1);
      }

      .st34 {
        mask: url(#mask-9);
      }

      .st35 {
        mask: url(#mask-8);
      }

      .st36 {
        fill: #d8cfc7;
      }

      .st9 {
        fill: #939393;
      }

      .st10 {
        fill: #ffb536;
      }

      .st11 {
        fill: #b3b3b3;
      }

      .st12 {
        fill: #ededed;
      }

      .st37 {
        fill: #b4def7;
      }

      .st14 {
        fill: #0792e5;
      }

      .st38, .st16 {
        fill: #fff5ec;
      }

      .st15 {
        fill: #ffcd52;
      }

      .st17 {
        fill: #afafaf;
      }

      .st18 {
        fill: #00a443;
      }

      .st19 {
        stroke: #fff5ec;
      }

      .st19, .st21 {
        fill: none;
      }

      .st39 {
        mask: url(#mask-31);
      }

      .st40 {
        mask: url(#mask-30);
      }

      .st41 {
        mask: url(#mask-32);
      }

      .st42 {
        mask: url(#mask-10);
      }

      .st43 {
        mask: url(#mask-14);
      }

      .st44 {
        mask: url(#mask-18);
      }

      .st45 {
        mask: url(#mask-11);
      }

      .st46 {
        mask: url(#mask-16);
      }

      .st47 {
        mask: url(#mask-13);
      }

      .st48 {
        mask: url(#mask-19);
      }

      .st49 {
        mask: url(#mask-12);
      }

      .st50 {
        mask: url(#mask-17);
      }

      .st51 {
        mask: url(#mask-15);
      }

      .st52 {
        mask: url(#mask-22);
      }

      .st53 {
        mask: url(#mask-21);
      }

      .st54 {
        mask: url(#mask-20);
      }

      .st55 {
        mask: url(#mask-25);
      }

      .st56 {
        mask: url(#mask-24);
      }

      .st57 {
        mask: url(#mask-23);
      }

      .st58 {
        mask: url(#mask-28);
      }

      .st59 {
        mask: url(#mask-29);
      }

      .st60 {
        mask: url(#mask-26);
      }

      .st61 {
        mask: url(#mask-27);
      }

      .st22 {
        fill: #007f33;
      }

      .st23 {
        fill: #26bf64;
      }
    </style>
    <mask id="mask" x="0" y=".4" width="501" height="121" maskUnits="userSpaceOnUse">
      <g id="mask-2">
        <rect id="path-11" data-name="path-1" class="st26" y=".4" width="501" height="121"/>
      </g>
    </mask>
    <mask id="mask-1" x="0" y=".4" width="501" height="121" maskUnits="userSpaceOnUse">
      <g id="mask-21" data-name="mask-2">
        <rect id="path-12" data-name="path-1" class="st26" y=".4" width="501" height="121"/>
      </g>
    </mask>
    <mask id="mask-22" data-name="mask-2" x="0" y=".4" width="501" height="121" maskUnits="userSpaceOnUse">
      <g id="mask-23" data-name="mask-2">
        <rect id="path-13" data-name="path-1" class="st26" y=".4" width="501" height="121"/>
      </g>
    </mask>
    <mask id="mask-3" x="0" y=".4" width="501" height="121" maskUnits="userSpaceOnUse">
      <g id="mask-24" data-name="mask-2">
        <rect id="path-14" data-name="path-1" class="st26" y=".4" width="501" height="121"/>
      </g>
    </mask>
    <mask id="mask-4" x="0" y=".4" width="501" height="121" maskUnits="userSpaceOnUse">
      <g id="mask-25" data-name="mask-2">
        <rect id="path-15" data-name="path-1" class="st26" y=".4" width="501" height="121"/>
      </g>
    </mask>
    <mask id="mask-5" x="0" y=".4" width="501" height="121" maskUnits="userSpaceOnUse">
      <g id="mask-26" data-name="mask-2">
        <rect id="path-16" data-name="path-1" class="st26" y=".4" width="501" height="121"/>
      </g>
    </mask>
    <mask id="mask-6" x="0" y=".4" width="501" height="121" maskUnits="userSpaceOnUse">
      <g id="mask-27" data-name="mask-2">
        <rect id="path-17" data-name="path-1" class="st26" y=".4" width="501" height="121"/>
      </g>
    </mask>
    <mask id="mask-7" x="0" y=".4" width="501" height="121" maskUnits="userSpaceOnUse">
      <g id="mask-28" data-name="mask-2">
        <rect id="path-18" data-name="path-1" class="st26" y=".4" width="501" height="121"/>
      </g>
    </mask>
    <mask id="mask-8" x="0" y=".4" width="501" height="121" maskUnits="userSpaceOnUse">
      <g id="mask-29" data-name="mask-2">
        <rect id="path-19" data-name="path-1" class="st26" y=".4" width="501" height="121"/>
      </g>
    </mask>
    <mask id="mask-9" x="0" y=".4" width="501" height="121" maskUnits="userSpaceOnUse">
      <g id="mask-210" data-name="mask-2">
        <rect id="path-110" data-name="path-1" class="st26" y=".4" width="501" height="121"/>
      </g>
    </mask>
    <mask id="mask-10" x="0" y=".4" width="501" height="121" maskUnits="userSpaceOnUse">
      <g id="mask-211" data-name="mask-2">
        <rect id="path-111" data-name="path-1" class="st26" y=".4" width="501" height="121"/>
      </g>
    </mask>
    <mask id="mask-11" x="0" y=".4" width="501" height="121" maskUnits="userSpaceOnUse">
      <g id="mask-212" data-name="mask-2">
        <rect id="path-112" data-name="path-1" class="st26" y=".4" width="501" height="121"/>
      </g>
    </mask>
    <mask id="mask-12" x="0" y=".4" width="501" height="121" maskUnits="userSpaceOnUse">
      <g id="mask-213" data-name="mask-2">
        <rect id="path-113" data-name="path-1" class="st26" y=".4" width="501" height="121"/>
      </g>
    </mask>
    <mask id="mask-13" x="0" y=".4" width="501" height="121" maskUnits="userSpaceOnUse">
      <g id="mask-214" data-name="mask-2">
        <rect id="path-114" data-name="path-1" class="st26" y=".4" width="501" height="121"/>
      </g>
    </mask>
    <mask id="mask-14" x="0" y=".4" width="501" height="121" maskUnits="userSpaceOnUse">
      <g id="mask-215" data-name="mask-2">
        <rect id="path-115" data-name="path-1" class="st26" y=".4" width="501" height="121"/>
      </g>
    </mask>
    <mask id="mask-15" x="0" y=".4" width="501" height="121" maskUnits="userSpaceOnUse">
      <g id="mask-216" data-name="mask-2">
        <rect id="path-116" data-name="path-1" class="st26" y=".4" width="501" height="121"/>
      </g>
    </mask>
    <mask id="mask-16" x="0" y=".4" width="501" height="121" maskUnits="userSpaceOnUse">
      <g id="mask-217" data-name="mask-2">
        <rect id="path-117" data-name="path-1" class="st26" y=".4" width="501" height="121"/>
      </g>
    </mask>
    <mask id="mask-17" x="0" y=".4" width="501" height="121" maskUnits="userSpaceOnUse">
      <g id="mask-218" data-name="mask-2">
        <rect id="path-118" data-name="path-1" class="st26" y=".4" width="501" height="121"/>
      </g>
    </mask>
    <mask id="mask-18" x="0" y=".4" width="501" height="121" maskUnits="userSpaceOnUse">
      <g id="mask-219" data-name="mask-2">
        <rect id="path-119" data-name="path-1" class="st26" y=".4" width="501" height="121"/>
      </g>
    </mask>
    <mask id="mask-19" x="0" y=".4" width="501" height="121" maskUnits="userSpaceOnUse">
      <g id="mask-220" data-name="mask-2">
        <rect id="path-120" data-name="path-1" class="st26" y=".4" width="501" height="121"/>
      </g>
    </mask>
    <mask id="mask-20" x="0" y=".4" width="501" height="121" maskUnits="userSpaceOnUse">
      <g id="mask-221" data-name="mask-2">
        <rect id="path-121" data-name="path-1" class="st26" y=".4" width="501" height="121"/>
      </g>
    </mask>
    <mask id="mask-21" x="0" y=".4" width="501" height="121" maskUnits="userSpaceOnUse">
      <g id="mask-222" data-name="mask-2">
        <rect id="path-122" data-name="path-1" class="st26" y=".4" width="501" height="121"/>
      </g>
    </mask>
    <mask id="mask-22" x="0" y=".4" width="501" height="121" maskUnits="userSpaceOnUse">
      <g id="mask-223" data-name="mask-2">
        <rect id="path-123" data-name="path-1" class="st26" y=".4" width="501" height="121"/>
      </g>
    </mask>
    <mask id="mask-23" x="0" y=".4" width="501" height="121" maskUnits="userSpaceOnUse">
      <g id="mask-224" data-name="mask-2">
        <rect id="path-124" data-name="path-1" class="st26" y=".4" width="501" height="121"/>
      </g>
    </mask>
    <mask id="mask-24" x="0" y=".4" width="501" height="121" maskUnits="userSpaceOnUse">
      <g id="mask-225" data-name="mask-2">
        <rect id="path-125" data-name="path-1" class="st26" y=".4" width="501" height="121"/>
      </g>
    </mask>
    <mask id="mask-25" x="0" y=".4" width="501" height="121" maskUnits="userSpaceOnUse">
      <g id="mask-226" data-name="mask-2">
        <rect id="path-126" data-name="path-1" class="st26" y=".4" width="501" height="121"/>
      </g>
    </mask>
    <mask id="mask-26" x="0" y=".4" width="517.9" height="226" maskUnits="userSpaceOnUse">
      <g id="mask-227" data-name="mask-2">
        <rect id="path-127" data-name="path-1" class="st26" y=".4" width="501" height="121"/>
      </g>
    </mask>
    <mask id="mask-27" x="460.6" y="43.3" width="4.8" height="4.8" maskUnits="userSpaceOnUse">
      <g id="mask-41" data-name="mask-4">
        <path id="path-3" class="st25" d="M464.1,45.9l-3.4,2c.6-.3,1-1.1,1-2.1l3.4-2c0,1.1-.4,1.8-1,2.1Z"/>
      </g>
    </mask>
    <mask id="mask-28" x="447.2" y="18.6" width="7.2" height="3" maskUnits="userSpaceOnUse">
      <g id="mask-61" data-name="mask-6">
        <path id="path-5" class="st25" d="M448.1,21l3.4-2c.6-.4,1.4-.3,2.4.2l-3.4,2c-.9-.5-1.8-.6-2.4-.2h0Z"/>
      </g>
    </mask>
    <mask id="mask-29" x="457.9" y="23.5" width="7.5" height="8.5" maskUnits="userSpaceOnUse">
      <g id="mask-81" data-name="mask-8">
        <path id="path-7" class="st25" d="M458.4,25.8l3.4-2c1.9,1.1,3.3,3.7,3.3,5.8l-3.4,2c0-2.1-1.5-4.7-3.3-5.8Z"/>
      </g>
    </mask>
    <mask id="mask-30" x="452.2" y="66.4" width="1.5" height="3.6" maskUnits="userSpaceOnUse">
      <g id="mask-101" data-name="mask-10">
        <path id="path-9" class="st25" d="M453.4,68.3v-1.9c0,.5-.3,1-1,1.3v1.9c.6-.4,1-.9,1-1.3Z"/>
      </g>
    </mask>
    <mask id="mask-31" x="446.5" y="50.5" width="6.9" height="17.8" maskUnits="userSpaceOnUse">
      <g id="mask-121" data-name="mask-12">
        <path id="path-11" class="st25" d="M453.1,50.5v15.9c0,.5-.3,1-1,1.3-1.3.7-3.4.7-4.7,0-.6-.4-1-.9-1-1.4v-15.9c0,.5.3,1,1,1.4,1.3.7,3.4.7,4.7,0,.6-.4,1-.9,1-1.3Z"/>
      </g>
    </mask>
    <mask id="mask-32" x="454.1" y="55.2" width="6.9" height="17.8" maskUnits="userSpaceOnUse">
      <g id="mask-141" data-name="mask-14">
        <path id="path-13" class="st25" d="M460.7,55.2v15.9c0,.5-.3,1-1,1.3-1.3.7-3.4.7-4.7,0-.6-.4-1-.9-1-1.4v-15.9c0,.5.3,1,1,1.4,1.3.7,3.4.7,4.7,0,.6-.4,1-.9,1-1.3Z"/>
      </g>
    </mask>
  </defs>
  <g id="Page-1">
    <g id="ilustracion-d">
      <g id="Rectangle">
        <rect id="path-1" class="st24" y=".4" width="501" height="121"/>
      </g>
      <g class="st0">
        <path id="Path" class="st27" d="M59.7,85.2c1.4-1.4,15.7-13.2,15.7-13.2,0,0-11.8,14.3-13.2,15.7-1.4,1.4-3,1.9-3.7,1.2-.7-.7-.1-2.3,1.2-3.7Z"/>
      </g>
      <g class="st33">
        <polygon id="Path1" data-name="Path" class="st38" points="31.3 21.9 32.8 27.7 38.6 29.2 32.8 30.7 31.3 36.5 29.8 30.7 24 29.2 29.8 27.7 31.3 21.9"/>
      </g>
      <g class="st52">
        <path id="Path2" data-name="Path" class="st38" d="M76.3,46.8c0,.5-.4.9-.9.9s-.9-.4-.9-.9.4-.9.9-.9.9.4.9.9Z"/>
      </g>
      <g class="st28">
        <path id="Path3" data-name="Path" class="st38" d="M176.9,42.5c0,.2-.2.5-.5.5s-.4-.2-.4-.5.2-.5.4-.5.5.2.5.5Z"/>
      </g>
      <g class="st29">
        <path id="Path4" data-name="Path" class="st38" d="M120.4,70.2c0,1-.8,1.8-1.8,1.8s-1.8-.8-1.8-1.8.8-1.8,1.8-1.8,1.8.8,1.8,1.8Z"/>
      </g>
      <g class="st30">
        <path id="Path5" data-name="Path" class="st38" d="M246.8,41.6c-.1.2-.4.3-.6.1-.2-.1-.3-.4-.1-.6.1-.2.4-.3.6-.1.2.1.3.4.1.6Z"/>
      </g>
      <g class="st32">
        <path id="Path6" data-name="Path" class="st38" d="M280.3,35.5c-.1.2-.4.3-.6.1-.2-.1-.3-.4-.1-.6.1-.2.4-.3.6-.1.2.1.3.4.1.6Z"/>
      </g>
      <g class="st31">
        <path id="Path7" data-name="Path" class="st38" d="M265.3,8.3c-.1.2-.4.3-.6.1-.2-.1-.3-.4-.1-.6.1-.2.4-.3.6-.1.2.1.3.4.1.6Z"/>
      </g>
      <g class="st35">
        <path id="Path8" data-name="Path" class="st38" d="M408.5,23c.2,0,.4.3.4.5,0,.2-.3.4-.5.4-.2,0-.4-.3-.4-.5,0-.2.3-.4.5-.4Z"/>
      </g>
      <g class="st34">
        <path id="Path9" data-name="Path" class="st38" d="M384.5,11c.2,0,.4.3.4.5,0,.2-.3.4-.5.4-.2,0-.4-.3-.4-.5,0-.2.3-.4.5-.4Z"/>
      </g>
      <g class="st42">
        <path id="Path10" data-name="Path" class="st38" d="M375.1,33.2c.2,0,.4.3.4.5,0,.2-.3.4-.5.4-.2,0-.4-.3-.4-.5,0-.2.3-.4.5-.4Z"/>
      </g>
      <g class="st45">
        <path id="Path11" data-name="Path" class="st38" d="M25.8,82.4c0,.5-.4.9-.9.9s-.9-.4-.9-.9.4-.9.9-.9.9.4.9.9Z"/>
      </g>
      <g class="st49">
        <polygon id="Path12" data-name="Path" class="st38" points="322.3 53.9 323.8 59.7 329.6 61.2 323.8 62.7 322.3 68.5 320.8 62.7 315 61.2 320.8 59.7 322.3 53.9"/>
      </g>
      <g class="st47">
        <path id="Path13" data-name="Path" class="st38" d="M365,17.7c0,1-.8,1.8-1.8,1.8s-1.8-.8-1.8-1.8.8-1.8,1.8-1.8,1.8.8,1.8,1.8Z"/>
      </g>
      <g class="st43">
        <path id="Path14" data-name="Path" class="st38" d="M224.9,51.8c.4.9,0,2-.8,2.4-.9.4-2,0-2.4-.8-.4-.9,0-2,.8-2.4.9-.4,2,0,2.4.8Z"/>
      </g>
      <g class="st51">
        <path id="Path15" data-name="Path" class="st38" d="M150.3,70.2c.9-.4,1.3-1.5.8-2.4-.4-.9-1.5-1.3-2.4-.8-.9.4-1.3,1.5-.8,2.4.4.9,1.5,1.3,2.4.8Z"/>
      </g>
      <g class="st46">
        <path id="Path16" data-name="Path" class="st38" d="M485.6,34.8c0,1-.8,1.8-1.8,1.8s-1.8-.8-1.8-1.8.8-1.8,1.8-1.8,1.8.8,1.8,1.8Z"/>
      </g>
      <g class="st50">
        <path id="Path17" data-name="Path" class="st38" d="M465.2,116.5c0,1-.8,1.8-1.8,1.8s-1.8-.8-1.8-1.8.8-1.8,1.8-1.8,1.8.8,1.8,1.8Z"/>
      </g>
      <g class="st44">
        <path id="Path18" data-name="Path" class="st38" d="M150,18.5c.4.9,0,2-.8,2.4-.9.4-2,0-2.4-.8-.4-.9,0-2,.8-2.4.9-.4,2,0,2.4.8Z"/>
      </g>
      <g class="st48">
        <path id="Path19" data-name="Path" class="st38" d="M226,104.5c.4.9,0,2-.8,2.4-.9.4-2,0-2.4-.8-.4-.9,0-2,.8-2.4.9-.4,2,0,2.4.8Z"/>
      </g>
      <g class="st54">
        <path id="Path20" data-name="Path" class="st38" d="M461.6,57.1c.5,0,.9-.4.9-.9s-.4-.9-.9-.9-.9.4-.9.9.4.9.9.9Z"/>
      </g>
      <g class="st53">
        <path id="Path21" data-name="Path" class="st38" d="M211.6,33.7c0,.5-.4.9-.9.9s-.9-.4-.9-.9.4-.9.9-.9.9.4.9.9Z"/>
      </g>
      <g class="st52">
        <path id="Path22" data-name="Path" class="st37" d="M261.8,84.3c-3.2,0-5.8-2.7-5.8-6s.7-3.3,1.8-4.4c-2.8.9-4.8,3.6-4.8,6.8s3.1,7.2,7,7.2,6.9-3.1,7-6.9c-1,1.9-2.9,3.2-5.2,3.2h0Z"/>
      </g>
      <g class="st57">
        <polyline id="Path23" data-name="Path" class="st19" points="149.5 68.6 187 83.5 224.8 105.9 235.1 81.1 223.3 52.6 187 83.5"/>
      </g>
      <g class="st56">
        <line id="Path24" data-name="Path" class="st19" x1="148.4" y1="19.3" x2="149.5" y2="68.6"/>
      </g>
      <g class="st55">
        <path id="Path25" data-name="Path" class="st27" d="M422.3,21.5c1.2-1.2,13.7-11.5,13.7-11.5,0,0-10.3,12.5-11.5,13.7s-2.6,1.7-3.2,1.1c-.6-.6-.1-2,1.1-3.2h0Z"/>
      </g>
      <g class="st60">
        <g id="Group">
          <g>
            <path id="Path26" data-name="Path" class="st16" d="M454.3,223.9c44.1-10.4,71.5-54.7,61.2-99-10.3-44.3-54.5-71.8-98.6-61.4-44.1,10.4-71.5,54.7-61.2,99,10.3,44.3,54.5,71.8,98.6,61.4Z"/>
            <path id="Path27" data-name="Path" class="st6" d="M467,98.5c1,2.6-.6,4.5-3,3.5-3.1-1.3-4.1-5.9-2-6.9.1,0,.3-.1.5-.2,2.1-.2,3.9,1.9,4.5,3.5h0Z"/>
            <path id="Shape" class="st36" d="M402.2,133.5v-.2.2ZM402.3,132.5h0c0-.1,0,0,0,0ZM402.7,128.7v-.2.2ZM402.8,126.8v-.2.2ZM402.7,121.4v-.2.2ZM402.5,118.8v-.3.3ZM402.4,118s0-.3,0-.4c0,.1,0,.3,0,.4ZM402.3,117.2v-.3.3ZM402.2,116.5c0-.2,0-.4,0-.6,0,.2,0,.3,0,.5h0ZM402,114.9s0-.4,0-.7c0,.2,0,.4.1.7h0ZM402.1,115.6s0-.4,0-.7c0,.2,0,.5,0,.7h0ZM356.4,143.9v.2c0-.2,0-.5,0-.7,0,0,0,.3,0,.5h0ZM356.5,144.3h0s0-.1,0-.2v.2h0ZM356.9,147.2s0,.4.1.5c-.2-1-.4-2.4-.6-3.4,0,.6.2,1.6.5,2.8h0ZM398.3,102.1l.3.8-.3-.7s0-.1,0-.2ZM398.6,102.9l.2.5h0c0-.1-.2-.4-.2-.5ZM398.9,103.4l.3.8-.2-.6s0-.2-.1-.3h0ZM399.2,104.2l.3.7v-.2c0,0-.2-.3-.3-.4h0ZM399.5,104.8l.3.8v-.5c-.1,0-.2-.2-.3-.3h0ZM399.7,105.7l.3.7v-.3c-.1,0-.2-.3-.3-.3h0ZM400,106.4l.3.8v-.4c-.1,0-.2-.3-.3-.4h0ZM400.2,107.2l.3.8v-.5c-.1,0-.2-.2-.2-.3h0ZM400.5,108l.2.8v-.3c0,0-.2-.3-.3-.5h0ZM395,128.7c3.6-11.5,3.9-25.3,2.7-27.7-3-5.4-5.4-6.4-8.7-7.3-21.7-2.8-37.2,32.2-32.2,51.8,6.7,19.6,26,11.1,35.4-9.5,1-2.1,2-4.9,2.7-7.1h0ZM400.7,108.8l.3.9-.2-.7s0-.2,0-.3ZM400.9,109.7l.2.8v-.2s-.1-.4-.2-.6ZM401.2,110.5l.3,1.1-.2-.9s0-.1,0-.2h0ZM401.4,111.6v.7c.1,0,.1,0,.1,0,0,0-.1-.4-.1-.6ZM401.5,112.3l.3,1.9c0-.6-.2-1.3-.3-1.9Z"/>
            <path id="Shape1" data-name="Shape" class="st21" d="M401.2,110.5l-.2-.8c0,.2.2.6.2.6v.2ZM401.2,110.5l.3,1.1-.2-.9s0-.1,0-.2h0ZM402.2,133.5v-.2.2ZM402.3,132.5h0c0-.1,0,0,0,0ZM402.7,128.7v-.2.2ZM402.8,126.8v-.2.2ZM402.7,121.4v-.2.2ZM402.5,118.8v-.3.3ZM402.4,118s0-.3,0-.4c0,.1,0,.3,0,.4ZM402.3,117.2v-.3.3ZM402.2,116.5c0-.2,0-.4,0-.6,0,.2,0,.3,0,.5h0ZM402,114.9s0-.4,0-.7c0,.2,0,.4.1.7h0ZM402.1,115.6s0-.4,0-.7c0,.2,0,.5,0,.7h0ZM356.4,143.9v.2c0-.2,0-.5,0-.7,0,0,0,.3,0,.5h0ZM356.5,144.3h0s0-.1,0-.2v.2h0ZM356.9,147.2s0,.4.1.5c-.2-1-.4-2.4-.6-3.4,0,.6.2,1.6.5,2.8h0ZM398.3,102.1l.3.8-.3-.7s0-.1,0-.2ZM398.6,102.9l.2.5h0c0-.1-.2-.4-.2-.5ZM398.9,103.4l.3.8-.2-.6s0-.2-.1-.3h0ZM399.2,104.2l.3.7v-.2c0,0-.2-.3-.3-.4h0ZM399.5,104.8l.3.8v-.5c-.1,0-.2-.2-.3-.3h0ZM399.7,105.7l.3.7v-.3c-.1,0-.2-.3-.3-.3h0ZM400,106.4l.3.8v-.4c-.1,0-.2-.3-.3-.4h0ZM400.2,107.2l.3.8v-.5c-.1,0-.2-.2-.2-.3h0ZM400.5,108l.2.8v-.3c0,0-.2-.3-.3-.5h0ZM395,128.7c3.6-11.5,3.9-25.3,2.7-27.7-3-5.4-5.4-6.4-8.7-7.3-21.7-2.8-37.2,32.2-32.2,51.8,6.7,19.6,26,11.1,35.4-9.5,1-2.1,2-4.9,2.7-7.1h0ZM400.7,108.8l.3.9-.2-.7s0-.2,0-.3ZM401.4,111.6v.7c.1,0,.1,0,.1,0,0,0-.1-.4-.1-.6ZM401.5,112.3l.3,1.9c0-.6-.2-1.3-.3-1.9Z"/>
            <path id="Path28" data-name="Path" class="st6" d="M401.3,138.3c-6.2,26.9-28.7,38.1-40.2,20-2.5-3.9-4.1-8.9-4.8-14.9,5.1,19.7,21.9,15.6,32.5-1.1,4.7-7.4,10.1-20.3,9.4-40.2,4.7,10.3,5.8,24.2,3,36.2Z"/>
            <path id="Shape2" data-name="Shape" class="st36" d="M430.5,123.1h-.3.3ZM434.5,123.1c-.3,0-.7,0-1,0,.3,0,.7,0,1,0ZM435.5,123c-.3,0-.7,0-1,.1.3,0,.7,0,1-.1ZM442,120.6c-.3.1-.6.3-.8.5.3-.1.6-.3.8-.5ZM442.8,120c-.3.2-.6.4-.8.5.3-.2.6-.4.8-.5ZM443.6,119.4c-.2.2-.5.4-.8.6.2-.2.5-.4.8-.6ZM445,118.1s-.5.5-.7.7c.2-.2.5-.5.7-.7ZM445.7,117.4s-.5.5-.7.7c.2-.2.5-.5.7-.7ZM446.9,115.9c-.2.2-.4.5-.6.8.2-.2.4-.5.6-.8ZM448.3,113.5c-.1.3-.3.6-.4.8.1-.3.3-.6.4-.8ZM449,111.7c0,.3-.2.6-.3.9,0-.3.2-.6.3-.9ZM449.6,109.8c0,.3-.2.7-.2.9,0-.3.2-.7.2-.9ZM449.9,107.9c0,.3,0,.7-.1,1,0-.3,0-.7.1-1ZM449.9,106.9c0,.3,0,.7,0,1,0-.3,0-.7,0-1ZM449.9,104c0,.3,0,.7,0,1,0-.3,0-.7,0-1ZM449.8,103c0,.3,0,.7.1,1,0-.6-.2-1.4-.3-2,0,.3.1.7.2,1ZM448.8,98.8s-.1-.3-.2-.5c0,.2.1.3.2.5ZM448.4,97.9s0,.3.1.3c-1.4-3.5-3.3-6.7-5.9-9.4,0,0,.1.2.2.2,3,3.2,4.7,6.6,5.6,8.8ZM442.5,88.8s0,0-.2-.2c0,0,0,0,.2.2ZM445.2,99.9c-.2-3.8-1.7-15.9-12.2-15.4-13.1,2.4-22.5,25.3-12.8,31.5,10.4,6.6,25.9-1,25.1-16.1Z"/>
            <path id="Shape3" data-name="Shape" class="st21" d="M432.4,123.2h1M433.4,123.2c.3,0,.7,0,1,0M433.4,123.2c.3,0,.7,0,1,0M434.5,123.1c.3,0,.7-.1,1-.1M434.5,123.1c.3,0,.7,0,1-.1M435.5,123c.3,0,.7-.1,1-.2.3,0,.7-.2,1-.3M438.5,122.3c-.3,0-.7.2-1,.3M438.5,122.2c.3,0,.7-.3.9-.3.3-.1.7-.3.9-.4.3-.1.6-.3.9-.4M441.2,121.1c.2-.1.6-.3.8-.5-.2.1-.6.3-.8.5ZM442.8,120c-.3.2-.6.4-.8.5.3-.2.6-.4.8-.5ZM442.8,120c.3-.2.6-.4.8-.6-.3.2-.6.4-.8.6ZM444.3,118.8c-.2.2-.5.4-.7.6M444.3,118.8c.2-.2.7-.7.7-.7M444.3,118.8c.2-.2.5-.5.7-.7M445,118.1c.2-.2.7-.7.7-.7M445,118.1c.2-.2.5-.5.7-.7M445.7,117.4c.2-.2.4-.5.6-.7M446.9,115.9c.2-.2.3-.6.5-.8.1-.3.3-.6.5-.8M448.7,112.6c-.1.3-.3.6-.4.9M449,111.7c0,.3-.2.6-.3.9,0-.3.2-.6.3-.9ZM449,111.7c0-.3.2-.7.3-.9M449.7,108.9c0,.3-.1.7-.2,1M449.7,108.9c0-.3.1-.7.1-1,0,.3-.1.7-.1,1ZM450,106v1M449.9,105v1M449.9,104c0,.3,0,.7,0,1,0-.3,0-.7,0-1ZM449.9,104c0-.3-.1-.7-.1-1,0-.3-.1-.7-.2-1,.1.6.2,1.4.3,2ZM430.5,123.1h-.3.3ZM446.9,115.9c-.2.2-.4.5-.6.8.2-.2.4-.5.6-.8ZM448.3,113.5c-.1.3-.3.6-.4.8.1-.3.3-.6.4-.8ZM449.6,109.8c0,.3-.2.7-.2.9,0-.3.2-.7.2-.9ZM449.9,106.9c0,.3,0,.7,0,1,0-.3,0-.7,0-1ZM448.8,98.8s-.1-.3-.2-.5c0,.2.1.3.2.5ZM448.4,97.9s0,.3.1.3c-1.4-3.5-3.3-6.7-5.9-9.4,0,0,.1.2.2.2,3,3.2,4.7,6.6,5.6,8.8ZM442.5,88.8s0,0-.2-.2c0,0,0,0,.2.2ZM445.2,99.9c-.2-3.8-1.7-15.9-12.2-15.4-13.1,2.4-22.5,25.3-12.8,31.5,10.4,6.6,25.9-1,25.1-16.1Z"/>
            <path id="Path29" data-name="Path" class="st6" d="M449.9,104c1.5,16.3-16.3,24.2-27.3,15.9-2.6-2-3.8-4.2-4.5-5.5,11.2,9.5,27.9.6,27.1-14.5-.4-7-4.3-12.3-4.7-12.9,3.5,2.8,7.8,8.1,9.1,15,0,.6.2,1.4.3,2h0Z"/>
            <g id="Clipped">
              <g class="st61">
                <g id="Group1" data-name="Group">
                  <g id="Path31" data-name="Path">
                    <path class="st11" d="M461.7,45.7l3.4-2c0,.1,0,.3,0,.4l-3.4,2c0-.1,0-.3,0-.4Z"/>
                    <path class="st2" d="M461.7,46.1l3.4-2c0,.8-.4,1.4-1,1.8l-3.4,2c.5-.3.9-.9,1-1.8Z"/>
                  </g>
                </g>
              </g>
            </g>
            <g id="Clipped1" data-name="Clipped">
              <g class="st58">
                <path id="Path33" data-name="Path" class="st2" d="M448.1,21l3.4-2c.6-.4,1.4-.3,2.4.2l-3.4,2c-.9-.5-1.8-.6-2.4-.2h0Z"/>
              </g>
            </g>
            <polygon id="Path34" data-name="Path" class="st9" points="450.5 21.2 453.9 19.3 457.9 21.5 454.4 23.5 450.5 21.2"/>
            <polygon id="Path35" data-name="Path" class="st17" points="461.7 31.6 465.1 29.6 465.1 43.7 461.7 45.7 461.7 31.6"/>
            <polygon id="Path36" data-name="Path" class="st9" points="454.4 23.5 457.9 21.5 461.8 23.8 458.4 25.8 454.4 23.5"/>
            <g id="Clipped2" data-name="Clipped">
              <g class="st59">
                <g id="Group2" data-name="Group">
                  <path id="Path38" data-name="Path" class="st2" d="M458.4,25.8l3.4-2c.7.4,1.4,1,1.9,1.8l-3.4,2c-.5-.7-1.2-1.4-1.9-1.8Z"/>
                  <path id="Path39" data-name="Path" class="st11" d="M460.3,27.6l3.4-2c.9,1.2,1.4,2.7,1.4,4l-3.4,2c0-1.3-.6-2.8-1.4-4Z"/>
                </g>
              </g>
            </g>
            <path id="Path40" data-name="Path" class="st8" d="M458.4,25.8c1.9,1.1,3.3,3.7,3.3,5.8v14.1c0,2.1-1.5,3-3.4,1.9l-3.9-2.3-3.9-2.3c-1.9-1.1-3.3-3.7-3.3-5.8v-14.1c0-2.1,1.5-3,3.4-1.9l3.9,2.3,3.9,2.3Z"/>
            <path id="Path41" data-name="Path" class="st7" d="M453.4,68.3v-1.9c0,.5-.3,1-1,1.3v1.9c.6-.4,1-.9,1-1.3Z"/>
            <g id="Clipped3" data-name="Clipped">
              <g class="st40">
                <path id="Path43" data-name="Path" class="st7" d="M452.4,67.8v1.9c.6-.4,1-.9,1-1.3v-1.9c0,.5-.3,1-1,1.3Z"/>
              </g>
            </g>
            <polygon id="Path44" data-name="Path" class="st7" points="449.1 69.7 449.1 71.6 452.4 69.6 452.4 67.8 449.1 69.7"/>
            <path id="Path45" data-name="Path" class="st7" d="M443.5,68.4v1.9c0,.5.3,1,1,1.3,1.3.7,3.3.7,4.6,0v-1.9c-1.3.7-3.3.7-4.6,0-.6-.4-1-.8-1-1.3Z"/>
            <path id="Path46" data-name="Path" class="st7" d="M444.5,67c-1.3.7-1.3,1.9,0,2.7,1.3.7,3.3.7,4.6,0l3.3-1.9c1.3-.7,1.3-1.9,0-2.7-1.3-.7-3.3-.7-4.6,0l-3.3,1.9Z"/>
            <path id="Path47" data-name="Path" class="st12" d="M453.1,50.5v15.9c0,.5-.3,1-1,1.3-1.3.7-3.4.7-4.7,0-.6-.4-1-.9-1-1.4v-15.9c0,.5.3,1,1,1.4,1.3.7,3.4.7,4.7,0,.6-.4,1-.9,1-1.3Z"/>
            <g id="Clipped4" data-name="Clipped">
              <g class="st39">
                <path id="Path49" data-name="Path" class="st12" d="M453.1,50.5v15.9c0,.2,0,.3-.1.5v-15.9c0-.2.1-.3.1-.5Z"/>
              </g>
            </g>
            <path id="Path50" data-name="Path" class="st12" d="M452.2,49.1c1.3.7,1.3,2,0,2.7-1.3.7-3.4.7-4.7,0-1.3-.7-1.3-2,0-2.7,1.3-.7,3.4-.7,4.7,0Z"/>
            <path id="Path51" data-name="Path" class="st7" d="M460.9,73v-1.9c0,.5-.3,1-1,1.3v1.9c.6-.4,1-.9,1-1.3Z"/>
            <polygon id="Path52" data-name="Path" class="st7" points="456.6 74.4 456.6 76.3 460 74.4 459.9 72.5 456.6 74.4"/>
            <path id="Path53" data-name="Path" class="st7" d="M451.1,73.1v1.9c0,.5.3,1,1,1.3,1.3.7,3.3.7,4.6,0v-1.9c-1.3.7-3.3.7-4.6,0-.6-.4-1-.8-1-1.3Z"/>
            <path id="Path54" data-name="Path" class="st7" d="M452,71.8c-1.3.7-1.3,1.9,0,2.7,1.3.7,3.3.7,4.6,0l3.3-1.9c1.3-.7,1.3-1.9,0-2.7-1.3-.7-3.3-.7-4.6,0l-3.3,1.9Z"/>
            <path id="Path55" data-name="Path" class="st12" d="M460.7,55.2v15.9c0,.5-.3,1-1,1.3-1.3.7-3.4.7-4.7,0-.6-.4-1-.9-1-1.4v-15.9c0,.5.3,1,1,1.4,1.3.7,3.4.7,4.7,0,.6-.4,1-.9,1-1.3Z"/>
            <g id="Clipped5" data-name="Clipped">
              <g class="st41">
                <path id="Path57" data-name="Path" class="st12" d="M460.7,55.2v15.9c0,.2,0,.3-.1.5v-15.9c0-.2.1-.3.1-.5Z"/>
              </g>
            </g>
            <path id="Path58" data-name="Path" class="st12" d="M459.7,53.9c1.3.7,1.3,2,0,2.7-1.3.7-3.4.7-4.7,0-1.3-.7-1.3-2,0-2.7,1.3-.7,3.4-.7,4.7,0Z"/>
            <path id="Path59" data-name="Path" class="st3" d="M445.8,43.7c-.9,1.3-2.6,1.6-3.9.7-1.3-.9-1.6-2.6-.7-3.9l4.7-6.8c.9-1.3,2.6-1.6,3.9-.7,1.3.9,1.6,2.6.7,3.9l-4.7,6.8Z"/>
            <path id="Path60" data-name="Path" class="st3" d="M445.4,51c-.2,1.5-1.5,2.6-3,2.5-1.5-.2-2.6-1.5-2.5-3l.8-8.2c.2-1.5,1.5-2.6,3-2.5,1.5.2,2.6,1.5,2.5,3l-.8,8.2h0Z"/>
            <path id="Path61" data-name="Path" class="st12" d="M460.7,55.6c0,.9,0,1.6-.1,2.3,0,1.1-.1,1.8-.1,1.8l-13.8-7.4s0-1-.1-2.6c0-.7,0-1.5,0-2.4-.1-4.7,0-11.4.9-14.2.5-1.3,5.9-.1,5.9-.1,0,0,7.2,4.1,7.6,6.1.5,3,.2,11.4-.1,16.5h0Z"/>
            <path id="Path62" data-name="Path" class="st7" d="M460.7,55.6c0,.9,0,1.7,0,2.3l-7.6-4.4-6.6-3.8c0-.7,0-1.5,0-2.4l6.6,3.8,7.7,4.4h0Z"/>
            <path id="Path63" data-name="Path" class="st1" d="M456.1,41.3v3.2c.8.4,1.4,0,1.4-.8s-.6-1.9-1.4-2.4h0Z"/>
            <path id="Path64" data-name="Path" class="st18" d="M454.7,42.1c0,.9.6,1.9,1.4,2.4v-3.2c-.8-.4-1.4,0-1.4.8h0Z"/>
            <polygon id="Path65" data-name="Path" class="st7" points="457.5 46.7 454.7 45.1 454.7 46.3 457.5 47.9 457.5 46.7"/>
            <polygon id="Path66" data-name="Path" class="st7" points="454.7 46.3 454.7 47.5 457.5 49.2 457.5 47.9 454.7 46.3"/>
            <polygon id="Path67" data-name="Path" class="st18" points="449.1 37.4 449.1 38.9 450.5 39.7 450.5 38.2 449.1 37.4"/>
            <polygon id="Path68" data-name="Path" class="st1" points="451.9 39 450.5 38.2 450.5 39.7 451.9 40.5 451.9 39"/>
            <polygon id="Path69" data-name="Path" class="st7" points="451.9 41.6 449.1 40 449.1 39.5 451.9 41.1 451.9 41.6"/>
            <path id="Path70" data-name="Path" class="st8" d="M463.1,52.9c-.2,0-.3,0-.4,0-1.4,0-2.6-1-2.9-2.5l-1.3-8.5c-.2-1.6.8-3.1,2.4-3.3.2,0,.3,0,.4,0,1.4,0,2.6,1,2.9,2.5v.2s.3,2,.3,2l1,6.4c.2,1.6-.8,3.1-2.4,3.3h0Z"/>
            <path id="Path71" data-name="Path" class="st8" d="M463.2,59.2c-.4,1.5-2,2.5-3.6,2.1-1.5-.4-2.5-2-2.1-3.6l2.2-8.3c.4-1.5,2-2.5,3.6-2.1,1.5.4,2.5,2,2.1,3.6l-2.2,8.3Z"/>
            <path id="Path72" data-name="Path" class="st7" d="M439.9,50.5c-.1,1.5,1,2.8,2.5,3,1.5.2,2.9-1,3-2.5l-5.5-.5Z"/>
            <path id="Path73" data-name="Path" class="st7" d="M459.7,61.2c1.5.4,3.1-.5,3.6-2.1l-5.6-1.5c-.4,1.5.5,3.1,2.1,3.5Z"/>
            <path id="Path74" data-name="Path" class="st3" d="M456.8,35.9c4-1.6,5.9-6.2,4.3-10.2-1.6-4-6.2-5.9-10.2-4.3-4,1.6-5.9,6.2-4.3,10.2,1.6,4,6.2,5.9,10.2,4.3Z"/>
            <path id="Path75" data-name="Path" class="st7" d="M457.2,31c-.9,2.8-3.8,5.6-6.9,4.6-3-1-5.1-5.6-4.2-8.3.9-2.8,3.2-4.6,6.3-3.6,3,1,5.7,4.6,4.7,7.3h0Z"/>
            <path id="Path76" data-name="Path" class="st14" d="M454.4,30.8c-.4,2-2.6,4.3-5,3.5-2.4-.8-4.1-4.5-3.4-6.7.7-2.2,2.7-3.7,5.1-2.8,2.4.8,3.7,3.7,3.3,6Z"/>
            <path id="Path77" data-name="Path" class="st8" d="M449.2,28.6c.6,0,1.1-.5,1.1-1.1s-.5-1.1-1.1-1.1-1.1.5-1.1,1.1.5,1.1,1.1,1.1Z"/>
            <path id="Path78" data-name="Path" class="st23" d="M403.5,41c0,.2.3.4.6.5.4.2.8.3,1.4.3h.3c.4,0,.8-.1,1.2-.3.4-.2.6-.4.6-.7h0c0-.3-.2-.5-.6-.7-.4-.2-.7-.3-1.2-.3h-.3c-.6,0-1,.1-1.4.3-.3.2-.5.3-.6.5v.4Z"/>
            <path id="Path79" data-name="Path" class="st4" d="M407.5,40.8c0,.3-.2.5-.6.7-.4.2-.7.2-1.2.3h-.3c-.6,0-1,0-1.4-.3-.3-.2-.5-.4-.6-.5v28s0,9.6,0,9.6v11h0c0,0,0,.1,0,.2v.3c0,.4.4.7.9.9.4.2.9.3,1.4.4.3,0,.6,0,.9,0h.3c.7,0,1.3-.2,1.9-.5.6-.3.9-.6.9-1h0c0,0,0-.1,0-.2s0-.1,0-.2l-.3-5.9v-1.7c0,0-.2-3.7-.2-3.7l-.4-9.6-1.2-28.2h0Z"/>
            <path id="Path80" data-name="Path" class="st4" d="M412.8,37.7c.3-.3.6-.5.8-.8l.2-.3c.4-.4.6-.8.6-1.1,0-.7-.8-.8-2.5-.5-1.7.4-3.7,1.1-6,2.3-1,.5-2,1-2.8,1.5-.3.2-.4.5-.4,1s0,.7.2,1.1h0c0,0,0,0,0,0,0,0,0,.1.1.2l.7.9c.2.1.3.2.4.3.2.1.5.2.7.2.2,0,.4-.2.6-.3.2,0,.3-.1.4-.2.7-.4,1.4-.7,2-1.1.7-.4,1.3-.7,1.9-1.1.6-.4,1.1-.7,1.6-1.1.2-.1.3-.2.4-.3.3-.2.6-.5.8-.7h0Z"/>
            <path id="Path81" data-name="Path" class="st4" d="M396.4,14l-.2-.2-.3.8c1,6,2.1,11.3,3.3,16,.3,1.2.6,2.3.9,3.4.7,2.7,1.5,5,2.2,7,0,0,0,.2.1.2v.5c0,0-.1.2-.1.2l-4.1.2h-.2s-4.1,3.3-4.1,3.3l-7,5.6v.8l.9.3c.6-.2,1.1-.5,1.7-.7l4-1.9c.1,0,.3-.1.4-.2,1.4-.7,2.6-1.4,3.8-2.1,2.5-1.6,4.4-3,5.7-4.5h.2c0,0,.7.3.7.3l4.2,4.6,3.4,2.1,13,7.9.2-.3.3-.6c-4.8-3.9-9.1-7.2-13-9.8-.2-.1-.4-.3-.6-.4-2.8-1.9-5.2-3.4-7.1-4.4-.3-.2-.6-.3-.8-.4,0,0,0,0,0,0l-.7-1v-5.3c.1,0-.3-1.4-.3-1.4l-6-19.5-.4-.4h0Z"/>
            <path id="Shape4" data-name="Shape" class="st20" d="M402.2,41.8l-4.1.2.2-.2,3.9-.2v.2s0,0,0,0ZM398,47c-1.2.7-2.5,1.4-3.8,2.1l-.8.4c.1,0,.3-.1.4-.2,1.4-.7,2.6-1.4,3.8-2.1,2.5-1.6,4.4-3,5.7-4.5h.2c-1.3,1.4-3.1,2.8-5.5,4.3ZM396.5,13.6l.6.7,6,19.5.4,1.4v5.3c-.1,0,.6,1,.6,1,0,0,0,0,0,0,.3.1.6.3.8.4,2,1,4.3,2.5,7.1,4.4.2.2.4.3.6.4,3.8,2.7,8.1,5.9,13,9.8l-.5.9h-.2c0-.1.3-.7.3-.7-4.8-3.9-9.1-7.2-13-9.8-.2-.1-.4-.3-.6-.4-2.8-1.9-5.2-3.4-7.1-4.4-.3-.2-.6-.3-.8-.4,0,0,0,0,0,0l-.7-1v-5.3c.1,0-.3-1.4-.3-1.4l-5.9-19.5-.4-.4.2-.4h0Z"/>
            <path id="Path82" data-name="Path" class="st5" d="M403.5,40.8c-.3-.6-.7-.9-1.2-1.2-.5-.2-.9-.3-1.2,0,0,0,0,0-.1,0,0,0-.1,0-.2.2-1,.8-1.5,1.8-1.5,3.1,0,.1,0,.2.2.3.7.3,1.5.5,2.3.6h.4c.2,0,.5,0,.8,0h.2c0,0,0,0,0,0,0,0,.2,0,.2-.1.3-.2.5-.6.5-1.1,0-.5-.2-1.1-.5-1.6h0Z"/>
          </g>
          <g>
            <g>
              <path class="st13" d="M308,84.2s-4.2-1.4-7.7.9,1.3,1.4,1.3,1.4c0,0-4.3,2.4-5.1,5.6-.7,3.2-2.1,5.5-3.1,5.4-1,0,2.2,2.5,7,.6,4.9-2,6.7-6,6.7-6,0,0-.6,2.9,1,1.8s3.8-4.2,4.2-6c.4-1.8-4.4-3.7-4.4-3.7Z"/>
              <path class="st15" d="M308.7,84.2l-4.7.8-2.2.5,2.1.8s-4.9,3.1-5.3,4.9c-.4,1.8-.3,3.1-1.5,4.4-1.2,1.3,4.6.8,6.9-1.7,2.3-2.5,3.3-3.6,3.3-3.6l.7,2,3.3-6.4-2.7-1.7Z"/>
            </g>
            <g>
              <path class="st1" d="M315,67.2s-2.8-4.4-8.4-1.1c-5.6,3.2-7.3,13.4-7.3,13.4l10.5-3,5.1-9.2Z"/>
              <path class="st1" d="M328.1,78s4.8,1.9,2.8,8c-2.1,6.1-11.7,9.8-11.7,9.8l.9-10.9,8.1-6.9Z"/>
            </g>
            <g>
              <polygon class="st14" points="308.7 80.7 304.3 82.2 313.7 91.4 315.7 86.9 308.7 80.7"/>
              <polygon class="st14" points="310.5 78 305.6 80 315.9 89.3 319 85 310.5 78"/>
            </g>
            <path class="st8" d="M308.9,76.4s-.2-17,12-29.6c12.2-12.6,31.3-14.7,36.9-12.6,2.1,5.8,3.5,23.3-10.3,37.5-8.2,8.4-27.6,15.8-27.6,15.8l-11-11.2Z"/>
            <path class="st1" d="M349.3,50.3c2.6,1.5,5.5,2.7,8.5,3.4,2.2-8.5,1.2-16.1,0-19.5-3.3-1.2-11.2-1-19.6,1.9.9,6.2,5.9,11.1,11.2,14.2Z"/>
            <g>
              <circle class="st10" cx="334" cy="59.4" r="9.4" transform="translate(89.2 294.3) rotate(-53.9)"/>
              <path class="st22" d="M341.2,58.7c-.4-4-4-6.9-8-6.5-4,.4-6.9,4-6.5,8,.4,4,4,6.9,8,6.5s6.9-4,6.5-8Z"/>
            </g>
          </g>
        </g>
      </g>
    </g>
  </g>
</svg>