<svg width="40" height="93" viewBox="0 0 40 93" fill="none" xmlns="http://www.w3.org/2000/svg">
<path fill-rule="evenodd" clip-rule="evenodd" d="M9.78142 21.672C8.87359 20.6756 7.62809 17.6922 6.63169 15.1954C6.62038 15.1819 3.8916 16.1918 3.8916 16.1918C5.99689 18.7052 6.63169 22.9175 8.37539 24.9103C8.62449 25.1594 9.02634 25.6745 9.78142 25.4681C10.6532 25.2299 11.6645 24.6905 12.5818 24.1363C13.5399 23.5574 14.5523 22.8644 15.4646 22.2082C16.3804 21.5495 17.2139 20.9146 17.8176 20.4451C18.1199 20.21 18.3657 20.0155 18.5368 19.8791C18.6223 19.8109 18.6892 19.7572 18.7352 19.7201L18.7882 19.6773L18.8025 19.6658L18.8076 19.6616C18.8076 19.6616 18.8082 19.6611 17.7082 18.3082C16.6081 16.9553 16.6083 16.9552 16.6083 16.9552L16.5941 16.9666L16.5474 17.0044C16.5057 17.0379 16.4434 17.088 16.3627 17.1523C16.2012 17.2811 15.9665 17.4668 15.6767 17.6922C15.096 18.1438 14.2987 18.751 13.4283 19.377C12.5546 20.0055 11.6256 20.6395 10.7784 21.1514C9.95264 21.6503 9.78142 21.672 9.78142 21.672Z" fill="#DCEBE1" stroke="#00402A" stroke-width="0.5" stroke-miterlimit="10"/>
<path d="M15.3447 16.1025C16.453 15.1583 17.5053 14.9776 18.2764 15.2559C19.0467 15.5339 19.618 16.2999 19.7109 17.4238C19.779 18.2388 19.4265 19.0726 18.8154 19.8838C18.2061 20.6927 17.3593 21.4521 16.4922 22.1074C15.6269 22.7613 14.7506 23.305 14.0898 23.6855C13.7597 23.8757 13.4838 24.0247 13.291 24.126C13.2553 24.1447 13.2222 24.1613 13.1924 24.1768L11.0234 20.6426C12.3454 19.0209 13.7894 17.5023 15.3447 16.1025Z" fill="#DCEBE1" stroke="#00402A" stroke-width="0.5"/>
<path d="M15.3467 16.1001C16.454 15.1569 17.5058 14.9764 18.2764 15.2544C19.0461 15.5322 19.6171 16.2971 19.71 17.4214V17.4224C19.7679 18.1002 19.534 18.7917 19.0996 19.4741C18.7198 20.0708 18.1946 20.6474 17.6064 21.1831L17.3506 21.4106C16.7945 21.8901 16.2098 22.3354 15.5996 22.7437L15.5986 22.7446C14.8239 23.2667 14.0183 23.7407 13.1895 24.1714L11.0244 20.6411C12.3467 19.0192 13.7919 17.5009 15.3477 16.1011L15.3467 16.1001Z" fill="#00402A" stroke="#00402A" stroke-width="0.5"/>
<path d="M4.9751 15.1011L4.18408 16.0991C3.36595 16.1659 2.70579 15.7746 2.22998 15.3296C1.98389 15.0994 1.79426 14.8604 1.66553 14.6792C1.62819 14.6266 1.59732 14.5784 1.5708 14.5376L3.2749 12.7964L4.9751 15.1011Z" fill="#DCEBE1" stroke="#00402A" stroke-width="0.5"/>
<path d="M2.87793 12.4873L1.24805 14.1523L0.317383 13.2656L1.25 11.708L2.87793 12.4873Z" fill="#DCEBE1" stroke="#00402A" stroke-width="0.5"/>
<path opacity="0.2" d="M16.9849 20.6904C17.126 20.9369 17.2156 21.2097 17.2505 21.4932C16.9174 21.7763 16.5739 22.0466 16.2212 22.3047C16.432 21.7472 16.6873 21.2073 16.9849 20.6904Z" fill="#DCEBE1" stroke="#00402A" stroke-width="0.5"/>
<path d="M17.5635 91.7915L17.5645 91.7935C17.5691 91.811 17.5699 91.8294 17.5664 91.8472C17.5629 91.8651 17.555 91.8824 17.5439 91.897C17.533 91.9113 17.519 91.923 17.5029 91.9312C17.4867 91.9393 17.4683 91.9437 17.4502 91.9438H17.4492C16.4451 91.9538 14.9643 91.9349 13.6885 91.9692C12.949 91.9891 12.3442 91.9806 11.7021 91.9731C11.0601 91.9657 10.3825 91.9593 9.50391 91.9829H9.50293C9.06691 91.9946 8.80493 91.7861 8.69043 91.5903C8.63053 91.4879 8.61747 91.4019 8.62305 91.356C8.62404 91.348 8.62579 91.3421 8.62695 91.3384C9.11602 91.218 9.56444 91.1332 9.99121 91.0562C10.4175 90.9792 10.8286 90.9096 11.2295 90.8198C12.0393 90.6385 12.8211 90.3743 13.7031 89.7964L13.7109 89.7915C13.8536 89.6902 14.0217 89.6305 14.1963 89.6196L14.1953 89.6187L16.9775 89.5454L17.5635 91.7915Z" fill="#00402A" stroke="#00402A" stroke-width="0.5"/>
<path d="M31.8662 91.7915L31.8672 91.7935C31.8719 91.811 31.8726 91.8294 31.8691 91.8472C31.8656 91.8651 31.8578 91.8824 31.8467 91.897C31.8357 91.9113 31.8217 91.923 31.8057 91.9312C31.7894 91.9393 31.7711 91.9437 31.7529 91.9438H31.752C30.7475 91.9538 29.2667 91.9349 27.9912 91.9692C27.2517 91.9891 26.647 91.9806 26.0049 91.9731C25.3627 91.9657 24.6851 91.9593 23.8066 91.9829H23.8057C23.3696 91.9946 23.1077 91.7861 22.9932 91.5903C22.9333 91.4879 22.9202 91.4019 22.9258 91.356C22.9268 91.348 22.9285 91.3421 22.9297 91.3384C23.4188 91.218 23.8672 91.1332 24.2939 91.0562C24.7202 90.9792 25.1314 90.9096 25.5322 90.8198C26.342 90.6385 27.1239 90.3743 28.0059 89.7964L28.0137 89.7915C28.1562 89.6903 28.3245 89.6306 28.499 89.6196L28.498 89.6187L31.2803 89.5454L31.8662 91.7915Z" fill="#00402A" stroke="#00402A" stroke-width="0.5"/>
<path d="M33.083 34.1299C33.22 34.8861 33.3127 36.1951 33.3633 37.9404C33.4191 39.8642 33.4254 42.2957 33.3945 45.0508C33.3328 50.5605 33.1234 57.3593 32.8721 63.9766C32.6207 70.5935 32.3274 77.0277 32.0967 81.8076C31.9813 84.1974 31.8814 86.174 31.8105 87.5527C31.7751 88.2419 31.7469 88.7818 31.7275 89.1494C31.7209 89.2764 31.7154 89.3829 31.7109 89.4678L27.7471 89.3438L26.1641 47.3838L25.6689 47.3447L17.2578 89.6924L13.415 89.1172C14.9742 74.3396 16.6684 61.5822 17.9746 52.5049C18.6312 47.9421 19.1895 44.3093 19.584 41.8174C19.7812 40.5714 19.9371 39.6101 20.0439 38.9609C20.0974 38.6365 20.1393 38.39 20.167 38.2246C20.1808 38.1421 20.1912 38.0798 20.1982 38.0381C20.2018 38.0172 20.2043 38.0007 20.2061 37.9902C20.2069 37.9852 20.2076 37.981 20.208 37.9785C20.2082 37.9774 20.2079 37.9762 20.208 37.9756H20.209V37.9746L20.2119 37.9541V37.9326L20.2061 35.9043L33.083 34.1299Z" fill="#A2BCB1" stroke="#00402A" stroke-width="0.5"/>
<path d="M27.4136 12.3672C28.318 12.3278 29.1785 12.3339 29.813 12.3496C30.1299 12.3575 30.3901 12.3676 30.5708 12.376C30.5832 12.3765 30.5953 12.3764 30.6069 12.377C30.4839 15.1082 30.5579 17.8449 30.8315 20.5654V20.5664C31.0189 22.5239 31.2789 24.3743 31.5552 26.043C31.8782 27.9985 32.2236 29.7087 32.5005 31.0557C32.7397 32.2192 32.92 33.0971 32.9995 33.6348C30.7728 33.9428 24.0182 34.8742 20.1216 35.4102C17.7539 28.732 17.0141 23.6213 16.8667 20.1787C16.7923 18.4412 16.8681 17.128 16.9624 16.252C17.0096 15.8139 17.0616 15.4845 17.1011 15.2666C17.1179 15.1739 17.1319 15.1012 17.1431 15.0488L20.0728 13.3779C20.0839 13.375 20.0977 13.3714 20.1138 13.3672C20.1591 13.3553 20.2226 13.3393 20.2925 13.3213C20.4329 13.2852 20.5988 13.2433 20.7095 13.2178L20.7085 13.2168C22.5689 12.8494 24.4491 12.5899 26.3394 12.4385H26.3413C26.6973 12.4071 27.0606 12.3839 27.4136 12.3672Z" fill="#DCEBE1" stroke="#00402A" stroke-width="0.5"/>
<g opacity="0.7">
<path d="M27.415 12.3716C28.3188 12.3303 29.1778 12.3353 29.8115 12.3501C30.1282 12.3575 30.3888 12.3674 30.5693 12.3755C30.5811 12.376 30.5925 12.376 30.6035 12.3765C30.5326 13.8739 30.5244 15.3736 30.5811 16.8716L30.6113 17.5493C30.6368 18.0643 30.6693 18.5735 30.7061 19.0767L30.8291 20.5679C30.8322 20.6073 30.8376 20.6568 30.8447 20.7056L30.8438 20.7065C31.0292 22.6124 31.284 24.4153 31.5527 26.0435C31.8765 27.9998 32.222 29.7103 32.499 31.0571C32.7384 32.2206 32.9202 33.0982 33 33.6362C30.7742 33.9453 24.0193 34.8766 20.125 35.4116C17.7571 28.7345 17.0166 23.6241 16.8691 20.1812C16.7947 18.4433 16.8705 17.1297 16.9648 16.2534C17.012 15.8153 17.064 15.486 17.1035 15.2681C17.1203 15.1754 17.1344 15.1027 17.1455 15.0503L20.0723 13.3804C20.0837 13.3773 20.0983 13.3741 20.1152 13.3696C20.1606 13.3576 20.2239 13.341 20.2939 13.3228C20.434 13.2863 20.6 13.2439 20.7119 13.2173C22.5718 12.8521 24.4514 12.5941 26.3408 12.4438H26.3428C26.7021 12.4117 27.0645 12.3859 27.4141 12.3716H27.415Z" fill="#DCEBE1" stroke="#00402A" stroke-width="0.5"/>
</g>
<path d="M28.4683 18.7676C28.3431 18.8004 28.1809 18.8387 27.9761 18.8701C27.4622 18.9489 26.6838 19.0007 25.5718 18.9229C25.5538 19.7282 25.5799 20.5341 25.6548 21.335C25.656 21.3388 25.6631 21.3597 25.6978 21.3975C25.738 21.4413 25.8008 21.4924 25.8872 21.5479C26.0599 21.6586 26.2931 21.7667 26.5356 21.8623C26.7761 21.9571 27.0164 22.0363 27.1968 22.0918C27.2818 22.118 27.3534 22.1378 27.4048 22.1523C27.4328 22.1382 27.4672 22.1206 27.5063 22.0996C27.619 22.039 27.7696 21.9521 27.9214 21.8467C28.0741 21.7405 28.222 21.6204 28.3345 21.4941C28.4492 21.3654 28.5106 21.2496 28.5249 21.1523C28.5693 20.851 28.5516 20.1898 28.519 19.5762C28.5031 19.2753 28.4843 18.9945 28.4692 18.7891C28.4687 18.7818 28.4688 18.7746 28.4683 18.7676Z" fill="#DCEBE1" stroke="#00402A" stroke-width="0.5"/>
<path d="M23.5317 6.73047C23.5925 7.40884 23.6921 8.08336 23.8286 8.75098V8.75586L23.8335 8.78125C23.9871 9.51806 24.2048 10.2562 24.5063 10.8828C24.7467 11.3822 25.0501 11.8251 25.4312 12.1377C25.3667 12.1869 25.2925 12.2443 25.2095 12.3066C24.9103 12.5313 24.5025 12.8307 24.0669 13.1289C23.6303 13.4277 23.17 13.7228 22.7651 13.9414C22.5627 14.0507 22.3786 14.1387 22.2212 14.1982C22.0589 14.2597 21.9454 14.2829 21.8774 14.2822C21.7778 14.2811 21.6419 14.2365 21.478 14.1445C21.3186 14.0551 21.1548 13.9335 21.0044 13.8066C20.8908 13.7108 20.7887 13.6137 20.7046 13.5312C21.0102 13.3432 21.2808 13.1017 21.5015 12.8164L21.5054 12.8105C21.8719 12.3077 21.9441 11.7523 21.8589 11.2061C21.7826 10.7172 21.5773 10.2293 21.3433 9.77344L23.5317 6.73047Z" fill="#DCEBE1" stroke="#00402A" stroke-width="0.5"/>
<path d="M25.4409 11.8247C25.5389 11.8416 25.6704 11.8671 25.8062 11.9038C25.9435 11.941 26.0778 11.9874 26.1841 12.0415C26.2719 12.0863 26.3173 12.1277 26.3403 12.1548C26.3788 12.4002 26.3117 12.6852 26.1392 13.0054C25.9568 13.3435 25.6725 13.695 25.3384 14.0356C24.7329 14.6528 23.99 15.2051 23.48 15.5542C23.113 15.2671 22.7724 14.9841 22.5151 14.7632C22.4337 14.6933 22.3613 14.6289 22.2983 14.5737C23.4035 13.922 24.1884 13.2391 24.7065 12.6987C24.9887 12.4044 25.1928 12.1535 25.3267 11.9741C25.3696 11.9166 25.4032 11.8646 25.4321 11.8228C25.435 11.8233 25.4379 11.8242 25.4409 11.8247Z" fill="#DCEBE1" stroke="#00402A" stroke-width="0.5"/>
<path d="M21.1528 12.6748C21.1083 12.9596 21.1106 13.2506 21.1616 13.5361C21.2239 13.8841 21.3569 14.2147 21.5503 14.5088C21.1806 14.9075 20.8549 15.3448 20.5796 15.8135C20.5174 15.7284 20.4579 15.6138 20.4058 15.4658C20.3081 15.1885 20.2502 14.8412 20.2261 14.4854C20.202 14.1309 20.2117 13.7796 20.2427 13.502C20.2582 13.3631 20.279 13.2469 20.3013 13.1602C20.3145 13.1085 20.3252 13.0763 20.3325 13.0586C20.5824 12.8835 20.8598 12.7538 21.1528 12.6748Z" fill="#DCEBE1" stroke="#00402A" stroke-width="0.5"/>
<g opacity="0.5">
<path d="M25.4409 11.8247C25.5389 11.8416 25.6704 11.8671 25.8062 11.9038C25.9435 11.941 26.0778 11.9874 26.1841 12.0415C26.2719 12.0863 26.3173 12.1277 26.3403 12.1548C26.3788 12.4002 26.3117 12.6852 26.1392 13.0054C25.9568 13.3435 25.6725 13.695 25.3384 14.0356C24.7329 14.6528 23.99 15.2051 23.48 15.5542C23.113 15.2671 22.7724 14.9841 22.5151 14.7632C22.4337 14.6933 22.3613 14.6289 22.2983 14.5737C23.4035 13.922 24.1884 13.2391 24.7065 12.6987C24.9887 12.4044 25.1928 12.1535 25.3267 11.9741C25.3696 11.9166 25.4032 11.8646 25.4321 11.8228C25.435 11.8233 25.4379 11.8242 25.4409 11.8247Z" fill="#DCEBE1" stroke="#00402A" stroke-width="0.5"/>
<path d="M21.1528 12.6748C21.1083 12.9596 21.1106 13.2506 21.1616 13.5361C21.2239 13.8841 21.3569 14.2147 21.5503 14.5088C21.1806 14.9075 20.8549 15.3448 20.5796 15.8135C20.5174 15.7284 20.4579 15.6138 20.4058 15.4658C20.3081 15.1885 20.2502 14.8412 20.2261 14.4854C20.202 14.1309 20.2117 13.7796 20.2427 13.502C20.2582 13.3631 20.279 13.2469 20.3013 13.1602C20.3145 13.1085 20.3252 13.0763 20.3325 13.0586C20.5824 12.8835 20.8598 12.7538 21.1528 12.6748Z" fill="#DCEBE1" stroke="#00402A" stroke-width="0.5"/>
</g>
<path d="M17.3198 3.13428C17.3493 3.11404 17.3893 3.10301 17.4634 3.12744C17.5448 3.1544 17.6498 3.22119 17.7671 3.33545C17.8823 3.44766 17.9986 3.59458 18.103 3.76416C18.314 4.10686 18.4615 4.51312 18.48 4.85986C18.4982 5.20254 18.3926 5.43729 18.1587 5.55713C17.8519 5.71429 17.6606 5.69457 17.5376 5.63135C17.402 5.56153 17.2794 5.40357 17.1899 5.1499C17.0106 4.64113 17.0214 3.90976 17.1567 3.43408C17.2121 3.23957 17.2796 3.16195 17.3198 3.13428Z" fill="#DCEBE1" stroke="#00402A" stroke-width="0.5"/>
<path d="M20.6431 1.43604C21.2175 1.42389 21.7857 1.55768 22.2944 1.82471C22.803 2.0917 23.236 2.48285 23.5522 2.9624C23.8684 3.44199 24.058 3.99422 24.103 4.56689V4.56982C24.3374 7.24544 24.5819 8.65823 23.5298 10.0894C22.7477 11.1528 21.5713 11.5117 20.4653 11.313C19.3546 11.1134 18.3214 10.3519 17.8472 9.17627C17.4035 8.07607 17.1267 6.56718 17.2534 5.17041C17.3805 3.77061 17.9056 2.53552 19.0103 1.89404C19.5071 1.60583 20.0688 1.44821 20.6431 1.43604Z" fill="#DCEBE1" stroke="#00402A" stroke-width="0.5"/>
<path d="M21.1011 0.254883C22.1393 0.306876 22.7464 0.515037 23.0845 0.695312C23.2532 0.785333 23.3568 0.869154 23.4146 0.924805C23.4432 0.952453 23.4609 0.973549 23.4702 0.985352L23.478 0.996094L23.52 1.06641L23.6021 1.09766C24.4032 1.40036 24.893 1.83338 25.1733 2.31152C25.4547 2.79172 25.5387 3.34139 25.4868 3.89844C25.3816 5.02711 24.725 6.12643 24.1616 6.5918C24.0429 6.68988 23.9347 6.72778 23.8374 6.73438C23.7377 6.7411 23.6281 6.71548 23.5063 6.65332C23.2553 6.52506 22.9944 6.26092 22.7515 5.93652C22.5127 5.61767 22.309 5.26487 22.1636 4.98926C22.0913 4.85222 22.0335 4.73546 21.9946 4.65332C21.9752 4.6123 21.9606 4.57943 21.9507 4.55762C21.9458 4.54691 21.9423 4.53862 21.9399 4.5332L21.936 4.52539L21.6938 3.96777L21.6851 3.99023C21.6375 3.78283 21.5793 3.56052 21.5073 3.35547C21.4304 3.13634 21.3325 2.91615 21.2056 2.75586C21.065 2.57833 20.8889 2.48613 20.7036 2.46387C20.5275 2.44278 20.3631 2.48767 20.2339 2.54199C20.1548 2.57524 20.0826 2.61465 20.021 2.65332C19.9846 2.61447 19.945 2.57772 19.9009 2.54688C19.765 2.45203 19.6017 2.40346 19.436 2.4082H19.4272L19.4194 2.40918C19.0611 2.44462 18.2822 2.81912 18.0659 3.86523C18.0612 3.85484 18.0557 3.84449 18.0513 3.83398L17.8052 3.25098L17.5864 3.8457C17.5328 3.99143 17.4993 4.14276 17.4858 4.2959C17.4468 4.24402 17.4152 4.18688 17.394 4.125L17.2222 3.62305L16.9448 4.07422C16.8746 4.18819 16.8137 4.30779 16.7651 4.43164C16.6405 4.12271 16.5395 3.65015 16.6489 3.00098C16.7526 2.38558 17.328 1.67137 18.1851 1.11426C19.0325 0.563452 20.0989 0.204817 21.1011 0.254883Z" fill="#00402A" stroke="#00402A" stroke-width="0.5"/>
<path d="M24.4116 5.44629C24.5559 5.42002 24.7046 5.43069 24.8442 5.47559C24.9844 5.52066 25.1113 5.60003 25.2134 5.70605C25.3154 5.81201 25.3894 5.94143 25.4292 6.08301C25.469 6.22466 25.4729 6.37396 25.4409 6.51758L25.4399 6.52539L25.439 6.53223C25.3914 6.82359 25.2865 7.103 25.1304 7.35352C24.9742 7.6039 24.7693 7.82027 24.5288 7.99121C24.2466 8.18768 24.0179 8.15772 23.8521 8.04004C23.6675 7.90903 23.5161 7.63524 23.4946 7.27441C23.4746 6.9357 23.5381 6.49693 23.7007 6.12988C23.8639 5.76151 24.1035 5.5105 24.4116 5.44629Z" fill="#DCEBE1" stroke="#00402A" stroke-width="0.5"/>
<path d="M33.2168 35.1909L20.1621 36.0991L19.9893 35.1655L33.0537 33.2407L33.2168 35.1909Z" fill="#DCEBE1" stroke="#00402A" stroke-width="0.5"/>
<path d="M20.6309 35.7358L20.0361 35.8071L19.9883 35.5229L20.5859 35.4478L20.6309 35.7358Z" fill="#DCEBE1" stroke="#00402A" stroke-width="0.5"/>
<path d="M28.2085 34.8262L21.6157 35.6152L21.5718 35.3213L28.1597 34.5L28.2085 34.8262Z" fill="#DCEBE1" stroke="#00402A" stroke-width="0.5"/>
<path d="M33.2168 34.2275L29.1982 34.71L29.1475 34.3818L33.1846 33.876L33.2168 34.2275Z" fill="#DCEBE1" stroke="#00402A" stroke-width="0.5"/>
<path d="M34.9521 31.8628L35.2051 33.1099C34.7283 33.7788 34.0025 34.0301 33.3545 34.106C33.0197 34.1451 32.7148 34.1365 32.4932 34.1177C32.429 34.1122 32.3725 34.1033 32.3242 34.0972L32.0957 31.6714L34.9521 31.8628Z" fill="#DCEBE1" stroke="#00402A" stroke-width="0.5"/>
<path d="M31.8213 34.0942L30.542 34.2329L29.9551 32.5151L31.6025 31.7729L31.8213 34.0942Z" fill="#DCEBE1" stroke="#00402A" stroke-width="0.5"/>
<path opacity="0.2" d="M30.2441 17.439C30.3778 17.498 30.5029 17.5736 30.6182 17.6646C30.6477 18.2391 30.6873 18.8062 30.7305 19.3657C30.6021 19.0095 30.499 18.648 30.4199 18.3159C30.3378 17.9712 30.2806 17.6644 30.2441 17.439Z" fill="#DCEBE1" stroke="#00402A" stroke-width="0.5"/>
<path fill-rule="evenodd" clip-rule="evenodd" d="M30.1357 15.1969C30.1357 15.1969 30.1358 15.1969 31.0157 14.3154C31.8956 13.4339 31.8958 13.4341 31.8958 13.4341L31.9145 13.4528L31.9662 13.5048C32.0112 13.5501 32.0767 13.6163 32.1601 13.7011C32.3268 13.8706 32.5651 14.1148 32.8534 14.415C33.4293 15.0149 34.2078 15.8421 35.015 16.7483C35.82 17.652 36.318 17.7478 37.0221 18.6824C37.6993 19.5814 38.6849 21.441 38.9677 22.2483C39.1547 22.7811 39.1652 23.3596 39.1178 23.8754C39.0688 24.4075 38.9476 24.9752 38.7904 25.54C38.4762 26.6696 37.984 27.9064 37.483 29.0309C36.9789 30.1623 36.4506 31.2138 36.0497 31.9803C35.8488 32.3644 35.6789 32.6788 35.5588 32.8981C35.4986 33.0077 35.4509 33.0938 35.4179 33.1529C35.4013 33.1825 35.3885 33.2054 35.3796 33.2212L35.3693 33.2395L35.3653 33.2465C35.3653 33.2465 35.3651 33.2468 34.282 32.6319C33.1989 32.0171 33.1988 32.0172 33.1988 32.0172L33.1991 32.0166L33.2009 32.0133L33.2092 31.9988C33.2166 31.9856 33.228 31.9653 33.243 31.9385C33.273 31.8847 33.3175 31.8045 33.3743 31.7009C33.4878 31.4938 33.6499 31.1937 33.8424 30.8259C34.228 30.0885 34.7577 28.6734 35.0137 27.9054C35.2697 26.8814 35.5148 26.0487 35.7817 25.0893C35.9651 24.4301 36.0201 23.9763 35.7817 23.2972C35.639 22.8895 34.2076 21.0703 33.5347 20.177C32.8883 19.319 33.9379 19.284 33.155 18.4052C32.3744 17.5289 31.6182 16.7253 31.0565 16.1402C30.7759 15.8479 30.5446 15.611 30.3839 15.4475C30.3035 15.3659 30.2409 15.3026 30.1987 15.26L30.1509 15.2121L30.1357 15.1969Z" fill="#DCEBE1" stroke="#00402A" stroke-width="0.5" stroke-miterlimit="10"/>
<path d="M29.9927 12.3804C30.8008 12.2554 31.6572 12.549 32.5093 13.1021C33.3588 13.6534 34.1758 14.4449 34.8901 15.2642C35.603 16.0818 36.2064 16.9186 36.6323 17.5513C36.845 17.8672 37.0129 18.1317 37.1274 18.3169C37.1486 18.3511 37.1676 18.383 37.1851 18.4116L33.811 20.8237C32.1016 19.6184 30.4864 18.2841 28.9819 16.8306C27.9626 15.79 27.7078 14.754 27.9312 13.9653C28.1545 13.1773 28.878 12.5531 29.9927 12.3804Z" fill="#DCEBE1" stroke="#00402A" stroke-width="0.5"/>
<path d="M29.9927 12.3804C30.8008 12.2554 31.6572 12.549 32.5093 13.1021C33.3588 13.6534 34.1758 14.4449 34.8901 15.2642C35.603 16.0818 36.2064 16.9186 36.6323 17.5513C36.845 17.8672 37.0129 18.1317 37.1274 18.3169C37.1486 18.3511 37.1676 18.383 37.1851 18.4116L33.811 20.8237C32.1016 19.6184 30.4864 18.2841 28.9819 16.8306C27.9626 15.79 27.7078 14.754 27.9312 13.9653C28.1545 13.1773 28.878 12.5531 29.9927 12.3804Z" fill="#00402A" stroke="#00402A" stroke-width="0.5"/>
<path d="M5.63086 82.4614L5.54102 90.5161L5.0791 91.5425L4.63965 90.5093L4.73047 82.4546L5.63086 82.4614Z" fill="#DCEBE1" stroke="#00402A" stroke-width="0.5"/>
<path d="M5.10205 3.92236L6.39307 3.93994C6.39531 3.93999 6.40135 3.94039 6.41064 3.9458C6.42063 3.95172 6.43525 3.96339 6.45068 3.98486C6.4664 4.00678 6.48089 4.03704 6.4917 4.07373C6.50242 4.11024 6.5086 4.15099 6.5083 4.19287L6.45459 11.5981L4.93213 11.5786L4.98584 4.16943C4.98612 4.12757 4.99227 4.08725 5.00342 4.05127C5.01459 4.01533 5.02982 3.98637 5.04541 3.96533C5.0611 3.94427 5.07593 3.93249 5.08545 3.92725C5.09424 3.92244 5.09991 3.92233 5.10205 3.92236Z" fill="#DCEBE1" stroke="#00402A" stroke-width="0.5"/>
<path d="M4.32422 10.2119L7.08008 10.249C7.23264 10.251 7.40096 10.3345 7.54004 10.5215C7.67985 10.7096 7.76777 10.9768 7.77344 11.2686C8.22554 35.1441 8.04656 59.0237 7.23535 82.9072V82.9404C7.23524 82.9562 7.23438 82.981 7.2334 83.0137C7.23143 83.079 7.22693 83.1775 7.2168 83.3057C7.19651 83.5623 7.15392 83.939 7.06348 84.4111C6.88804 85.3268 6.53066 86.6009 5.81543 88.0615L4.45703 88.0537C3.76354 86.5753 3.43422 85.2896 3.28027 84.3672C3.20091 83.8916 3.16774 83.513 3.1543 83.2549C3.14758 83.1258 3.14564 83.0266 3.14551 82.9609C3.14544 82.9281 3.14614 82.9036 3.14648 82.8877V82.8506C2.67236 58.9758 2.82997 35.0959 3.61914 11.2109C3.62883 10.9191 3.72138 10.6545 3.86328 10.4707C3.98651 10.3111 4.13051 10.231 4.2666 10.2148L4.32422 10.2119Z" fill="#00402A" stroke="#00402A" stroke-width="0.5"/>
<path d="M1.9541 9.21729L7.06152 9.28564C7.06484 9.28763 7.07389 9.29431 7.08496 9.31006C7.09613 9.32601 7.10776 9.3491 7.11621 9.37842C7.12463 9.40769 7.12913 9.44091 7.12891 9.4751L7.125 9.94287L2.67578 9.87646L2.43262 9.87256L2.42285 10.1167C2.20282 15.544 2.15748 20.52 2.16699 24.1392C2.17175 25.9488 2.18971 27.4196 2.20703 28.438C2.21569 28.9472 2.22427 29.3438 2.23047 29.6128C2.23356 29.7469 2.2365 29.8494 2.23828 29.9185C2.23917 29.9527 2.23976 29.979 2.24023 29.9966V30.0239L2.24414 30.1509L2.34863 30.2222L2.55762 30.3657L2.05469 31.5347C1.91587 30.5966 1.81858 29.2591 1.75488 27.6851C1.67072 25.6052 1.64534 23.1368 1.65137 20.6851C1.66342 15.7824 1.80176 10.9547 1.84863 9.44971C1.85133 9.36395 1.87827 9.29429 1.90918 9.25342C1.92387 9.23404 1.93609 9.22419 1.94336 9.22021C1.94696 9.21825 1.95004 9.21757 1.95117 9.21729H1.9541Z" fill="#DCEBE1" stroke="#00402A" stroke-width="0.5"/>
<path d="M2.81689 57.8496L7.91357 57.917C7.92512 57.9171 7.94041 57.9201 7.9585 57.9307C7.97729 57.9417 8.00056 57.9616 8.02295 57.9932C8.04522 58.0246 8.06548 58.0653 8.07959 58.1143C8.09365 58.163 8.1008 58.2167 8.1001 58.2715C7.9878 65.3748 7.8218 72.4656 7.60303 79.543C7.59948 79.6533 7.5645 79.7467 7.51904 79.8057C7.47473 79.863 7.43484 79.8723 7.41553 79.8721L3.01123 79.8135C2.99152 79.8132 2.95019 79.803 2.90576 79.7432C2.8605 79.6821 2.82667 79.587 2.82471 79.4766C2.70277 72.4038 2.63795 65.3107 2.62939 58.1973C2.62939 58.1422 2.63713 58.0884 2.65186 58.04C2.66665 57.9915 2.68795 57.9514 2.71045 57.9209C2.73269 57.8909 2.75471 57.8725 2.77295 57.8623C2.79051 57.8526 2.80538 57.8495 2.81689 57.8496Z" fill="#DCEBE1" stroke="#00402A" stroke-width="0.5"/>
<path d="M2.89237 45.7162L2.89926 44.7407L8.0199 44.8083L8.01302 45.7838L2.89237 45.7162Z" fill="#DCEBE1" stroke="#00402A" stroke-width="0.5"/>
</svg>
