<svg width="32" height="32" viewBox="0 0 32 32" fill="none" xmlns="http://www.w3.org/2000/svg">
<rect x="-0.5" y="0.5" width="31" height="31" rx="15.5" transform="matrix(-1 0 0 1 31 0)" stroke="#00402A"/>
<path id="Arrow 1 (Stroke)" fill-rule="evenodd" clip-rule="evenodd" d="M13.5688 10.8574L8.94051 15.4858C8.65649 15.7698 8.65649 16.2303 8.94051 16.5143L13.5688 21.1426C13.8529 21.4266 14.3133 21.4266 14.5974 21.1426C14.8814 20.8586 14.8814 20.3981 14.5974 20.1141L11.2106 16.7273L22.5457 16.7273C22.9473 16.7273 23.2729 16.4017 23.2729 16C23.2729 15.5984 22.9473 15.2727 22.5457 15.2727L11.2106 15.2727L14.5974 11.8859C14.8814 11.6019 14.8814 11.1414 14.5974 10.8574C14.3133 10.5734 13.8529 10.5734 13.5688 10.8574Z" fill="#00402A"/>
</svg>
