<svg width="105" height="43" viewBox="0 0 105 43" fill="none" xmlns="http://www.w3.org/2000/svg">
<path d="M83.9324 31.2715H80.6763L71.2256 28.3618L75.2473 23.9834H79.138L81.1385 24.8246L83.4426 27.624L83.9324 31.2715Z" fill="#68605B"/>
<path d="M44.4117 37.415H29.8906V26.438L36.5751 23.9834L41.2798 24.9004L46.3225 29.3546L44.4117 37.415Z" fill="#68605B"/>
<path d="M74.8404 43.0002C71.9086 43.0002 69.5355 39.4424 69.5355 35.0433C69.5355 30.6443 71.9086 27.0864 74.8404 27.0864H78.6207V43.0002H74.8404Z" fill="#3A3735"/>
<path d="M51.6273 43.0002C48.6955 43.0002 46.3225 39.4424 46.3225 35.0433C46.3225 30.6443 48.6955 27.0864 51.6273 27.0864H55.4077V43.0002H51.6273Z" fill="#3A3735"/>
<path d="M8.18839 43.0002C5.25658 43.0002 2.88355 39.4424 2.88355 35.0433C2.88355 30.6443 5.25658 27.0864 8.18839 27.0864H11.9687V43.0002H8.18839Z" fill="#3A3735"/>
<path d="M32.1947 43.0002C29.2629 43.0002 26.8898 39.4424 26.8898 35.0433C26.8898 30.6443 29.2629 27.0864 32.1947 27.0864H35.975V43.0002H32.1947Z" fill="#3A3735"/>
<path d="M78.6206 43.0002C75.6908 43.0002 73.3158 39.4378 73.3158 35.0433C73.3158 30.6488 75.6908 27.0864 78.6206 27.0864C81.5504 27.0864 83.9255 30.6488 83.9255 35.0433C83.9255 39.4378 81.5504 43.0002 78.6206 43.0002Z" fill="#615D5A"/>
<path d="M78.6207 40.1108C76.7576 40.1108 75.2474 37.8419 75.2474 35.043C75.2474 32.2441 76.7576 29.9751 78.6207 29.9751C80.4837 29.9751 81.994 32.2441 81.994 35.043C81.994 37.8419 80.4837 40.1108 78.6207 40.1108Z" fill="#E0D7D0"/>
<path d="M78.0688 38.1663C76.9182 38.1663 75.9855 36.7679 75.9855 35.0429C75.9855 33.3179 76.9182 31.9194 78.0688 31.9194C79.2194 31.9194 80.1521 33.3179 80.1521 35.0429C80.1521 36.7679 79.2194 38.1663 78.0688 38.1663Z" fill="#68605B"/>
<path d="M35.9749 43.0002C33.0452 43.0002 30.6701 39.4378 30.6701 35.0433C30.6701 30.6488 33.0452 27.0864 35.9749 27.0864C38.9047 27.0864 41.2798 30.6488 41.2798 35.0433C41.2798 39.4378 38.9047 43.0002 35.9749 43.0002Z" fill="#615D5A"/>
<path d="M35.975 40.1108C34.1119 40.1108 32.6017 37.8419 32.6017 35.043C32.6017 32.2441 34.1119 29.9751 35.975 29.9751C37.838 29.9751 39.3483 32.2441 39.3483 35.043C39.3483 37.8419 37.838 40.1108 35.975 40.1108Z" fill="#E0D7D0"/>
<path d="M35.4162 38.1663C34.2656 38.1663 33.3329 36.7679 33.3329 35.0429C33.3329 33.3179 34.2656 31.9194 35.4162 31.9194C36.5668 31.9194 37.4995 33.3179 37.4995 35.0429C37.4995 36.7679 36.5668 38.1663 35.4162 38.1663Z" fill="#68605B"/>
<path d="M11.9687 43.0002C9.03887 43.0002 6.66381 39.4378 6.66381 35.0433C6.66381 30.6488 9.03887 27.0864 11.9687 27.0864C14.8984 27.0864 17.2735 30.6488 17.2735 35.0433C17.2735 39.4378 14.8984 43.0002 11.9687 43.0002Z" fill="#615D5A"/>
<path d="M55.4077 43.0002C52.4779 43.0002 50.1028 39.4378 50.1028 35.0433C50.1028 30.6488 52.4779 27.0864 55.4077 27.0864C58.3375 27.0864 60.7125 30.6488 60.7125 35.0433C60.7125 39.4378 58.3375 43.0002 55.4077 43.0002Z" fill="#615D5A"/>
<path d="M42.4111 37.415H71.3015C71.3015 37.415 71.0325 25.8934 78.6207 25.8934C81.994 25.8934 83.9255 29.8856 83.9255 31.2715C83.9255 32.6574 85.4707 26.5139 81.994 22.6665V18.364C81.994 8.22827 73.7711 0.00937471 63.6305 0.00937471H52.1654C52.1654 0.00937471 22.0955 -1.06625 7.09153 19.8257C7.09153 19.8257 3.84239 20.9014 3.84239 24.4316C3.84239 24.4316 0 27.1828 0 31.9128C0 36.6428 2.79384 37.4081 2.79384 37.4081H28.7386C28.7386 37.4081 27.9246 25.5831 35.975 25.5831C43.3355 25.5831 42.4111 37.4081 42.4111 37.4081V37.415Z" fill="#008638"/>
<mask id="mask0_7394_16321" style="mask-type:luminance" maskUnits="userSpaceOnUse" x="0" y="0" width="85" height="38">
<path d="M42.4111 37.415H71.3015C71.3015 37.415 71.0325 25.8934 78.6207 25.8934C81.994 25.8934 83.9255 29.8856 83.9255 31.2715C83.9255 32.6574 85.4707 26.5139 81.994 22.6665V18.364C81.994 8.22827 73.7711 0.00937471 63.6305 0.00937471H52.1654C52.1654 0.00937471 22.0955 -1.06625 7.09153 19.8257C7.09153 19.8257 3.84239 20.9014 3.84239 24.4316C3.84239 24.4316 0 27.1828 0 31.9128C0 36.6428 2.79384 37.4081 2.79384 37.4081H28.7386C28.7386 37.4081 27.9246 25.5831 35.975 25.5831C43.3355 25.5831 42.4111 37.4081 42.4111 37.4081V37.415Z" fill="white"/>
</mask>
<g mask="url(#mask0_7394_16321)">
<path d="M71.6326 0.00960265C71.6326 0.00960265 56.4148 -1.47973 47.8677 4.90509C39.3207 11.2899 31.4289 20.2673 31.4289 20.2673C31.4289 20.2673 23.2268 19.9018 19.6672 24.3836H8.52637C8.52637 24.3836 7.49851 20.0604 4.63569 19.7501L-2.73865 30.6926L-1.51074 40.0974L13.5484 40.6352L65.7966 40.0974L84.2704 37.4083L86.5883 29.0653L85.0499 8.27677L71.6326 0.00960265Z" fill="#3EAD57"/>
<path d="M81.9043 16.4751C76.6477 18.6953 71.3981 24.9767 70.2116 26.7074L51.4756 27.0314C46.8399 27.1142 43.0458 23.3633 43.0803 18.7298L76.6064 15.4546L81.6973 14.9927L81.9043 16.4751Z" fill="#007B35"/>
<path d="M2.88352 23.6939C2.88352 23.6939 4.43565 25.8934 12.5757 25.8934C20.7158 25.8934 25.7378 25.2453 25.7378 25.2453C25.7378 25.2453 21.1297 28.9135 23.4337 35.774H-5.72205e-06L-1.71769 28.1964L2.87662 23.687L2.88352 23.6939Z" fill="#FFFAF6"/>
<path d="M14.7832 21.398L31.4289 18.7158L46.3225 4.70508H24.1029L5.76702 14.5374V19.3433L14.7832 21.398Z" fill="#143323"/>
</g>
<path d="M19.9776 25.2522C19.9776 25.2522 22.7163 20.8325 31.222 20.8325C31.222 20.8325 30.5597 23.7422 27.6072 24.4455C24.6547 25.1419 19.9776 25.2522 19.9776 25.2522Z" fill="#FFCF49"/>
<path d="M40.1829 18.7155L76.5994 15.461C76.5994 15.461 77.3651 3.17402 64.3065 3.24986C51.241 3.32571 40.1829 18.7224 40.1829 18.7224V18.7155Z" fill="#143323"/>
<path d="M43.032 18.7154V33.7121C43.032 34.443 43.6253 35.0429 44.3634 35.0429H67.0176C67.742 35.0429 68.3352 34.4637 68.3421 33.7466C68.3697 31.4506 68.963 26.6309 72.9985 23.4454C78.4551 19.1429 76.6133 15.4609 76.6133 15.4609" stroke="#FFFAF6" stroke-width="0.74" stroke-miterlimit="10"/>
<path d="M68.5007 31.6919H43.032V33.657H68.3352L68.5007 31.6919Z" stroke="#FFFAF6" stroke-width="0.74" stroke-miterlimit="10"/>
<path d="M58.3947 17.0815V31.6922" stroke="#FFFAF6" stroke-width="0.74" stroke-miterlimit="10"/>
<path d="M3.92515 29.9819H17.5977L14.8315 34.2707H6.76038L3.92515 29.9819Z" fill="#B2A9A2"/>
<path d="M18.6325 34.2707C18.061 34.2707 17.5977 33.8076 17.5977 33.2364C17.5977 32.6652 18.061 32.2021 18.6325 32.2021C19.204 32.2021 19.6672 32.6652 19.6672 33.2364C19.6672 33.8076 19.204 34.2707 18.6325 34.2707Z" fill="#FFCF49"/>
<path d="M2.88352 34.2707C2.31204 34.2707 1.84876 33.8076 1.84876 33.2364C1.84876 32.6652 2.31204 32.2021 2.88352 32.2021C3.455 32.2021 3.91827 32.6652 3.91827 33.2364C3.91827 33.8076 3.455 34.2707 2.88352 34.2707Z" fill="#FFCF49"/>
<path d="M37.1891 20.2671H39.3483C39.5578 20.2671 39.7277 20.4369 39.7277 20.6463V21.0187C39.7277 21.2281 39.5578 21.3979 39.3483 21.3979H37.1891C36.9795 21.3979 36.8097 21.2281 36.8097 21.0187V20.6463C36.8097 20.4369 36.9795 20.2671 37.1891 20.2671Z" fill="#FFCF49"/>
<path d="M5.76704 20.5703C5.76704 20.5703 7.51234 22.0527 8.07111 24.9762C8.07111 24.9762 5.35315 24.6177 3.84241 23.7696C3.84241 23.7696 3.82171 21.6735 5.76704 20.5703Z" fill="#FFCF49"/>
<path d="M31.222 24.9832C33.7744 22.9078 37.9203 22.5907 40.183 25.2521C37.5064 23.1285 34.1124 23.4801 31.222 24.9832Z" fill="#FFFAF6"/>
<path d="M80.7523 22.7767C77.6756 22.3216 74.93 23.349 73.3158 26.0794C73.4607 25.7347 73.5918 25.383 73.7849 25.059C75.1025 22.6595 78.2757 21.8114 80.7523 22.7767Z" fill="#FFFAF6"/>
<path d="M27.3865 5.38086C27.3865 5.38086 14.6866 12.7517 10.589 19.3089C10.589 19.3089 17.7633 18.2815 24.8272 18.0815C24.8272 16.213 26.3379 14.703 28.2074 14.703H28.7179V11.5657C28.7179 10.3591 29.6974 9.37309 30.9116 9.37309H33.3329L34.8712 5.38086H27.3865Z" fill="#D0EDFB"/>
<path d="M37.2167 5.38086L35.5817 12.3449L42.1352 5.38086H37.2167Z" fill="#D0EDFB"/>
<path d="M53.214 8.104L50.5995 9.71745H53.8279L53.214 8.104Z" fill="#D0EDFB"/>
<path d="M48.6818 10.7935V14.634L42.9147 16.475L48.6818 10.7935Z" fill="#D0EDFB"/>
<path d="M41.7213 16.5918L39.0586 18.4879C39.0586 18.9982 39.4725 19.4119 39.983 19.4119H40.39L43.4114 18.1846L41.7213 16.5987V16.5918Z" fill="#B2A9A2"/>
<path d="M40.5555 16.923V18.7157L44.7635 19.1639C45.681 19.2605 46.5501 18.7295 46.8813 17.8677L46.9227 17.7642C47.1296 17.2333 47.0951 16.6334 46.8399 16.1301C46.4191 15.2889 45.4809 14.8476 44.5703 15.0545L40.5555 16.9299V16.923Z" fill="#FFFAF6"/>
</svg>
