<svg width="230" height="230" viewBox="0 0 230 230" fill="none" xmlns="http://www.w3.org/2000/svg">
<g clip-path="url(#clip0_138_20072)">
<mask id="mask0_138_20072" style="mask-type:luminance" maskUnits="userSpaceOnUse" x="-44" y="-66" width="339" height="345">
<path d="M295 -66H-44V278.77H295V-66Z" fill="white"/>
</mask>
<g mask="url(#mask0_138_20072)">
<path d="M4.19312 -269.592V461.681" stroke="#5BD38C" stroke-width="0.2" stroke-miterlimit="10"/>
<path d="M16.3748 -269.592V461.681" stroke="#5BD38C" stroke-width="0.2" stroke-miterlimit="10"/>
<path d="M28.3945 -269.592V461.681" stroke="#5BD38C" stroke-width="0.2" stroke-miterlimit="10"/>
<path d="M40.5767 -269.592V461.681" stroke="#5BD38C" stroke-width="0.2" stroke-miterlimit="10"/>
<path d="M52.5962 -269.592V461.681" stroke="#5BD38C" stroke-width="0.2" stroke-miterlimit="10"/>
<path d="M64.7783 -269.592V461.681" stroke="#5BD38C" stroke-width="0.2" stroke-miterlimit="10"/>
<path d="M76.9604 -269.592V461.681" stroke="#5BD38C" stroke-width="0.2" stroke-miterlimit="10"/>
<path d="M88.9795 -269.592V461.681" stroke="#5BD38C" stroke-width="0.2" stroke-miterlimit="10"/>
<path d="M101.162 -269.592V461.681" stroke="#5BD38C" stroke-width="0.2" stroke-miterlimit="10"/>
<path d="M113.181 -269.592V461.681" stroke="#5BD38C" stroke-width="0.2" stroke-miterlimit="10"/>
<path d="M125.364 -269.592V461.681" stroke="#5BD38C" stroke-width="0.2" stroke-miterlimit="10"/>
<path d="M137.546 -269.592V461.681" stroke="#5BD38C" stroke-width="0.2" stroke-miterlimit="10"/>
<path d="M149.565 -269.592V461.681" stroke="#5BD38C" stroke-width="0.2" stroke-miterlimit="10"/>
<path d="M161.748 -269.592V461.681" stroke="#5BD38C" stroke-width="0.2" stroke-miterlimit="10"/>
<path d="M173.766 -269.592V461.681" stroke="#5BD38C" stroke-width="0.2" stroke-miterlimit="10"/>
<path d="M185.949 -269.592V461.681" stroke="#5BD38C" stroke-width="0.2" stroke-miterlimit="10"/>
<path d="M198.131 -269.592V461.681" stroke="#5BD38C" stroke-width="0.2" stroke-miterlimit="10"/>
<path d="M210.15 -269.592V461.681" stroke="#5BD38C" stroke-width="0.2" stroke-miterlimit="10"/>
<path d="M222.332 -269.592V461.681" stroke="#5BD38C" stroke-width="0.2" stroke-miterlimit="10"/>
<path d="M-365.14 219.322L264.475 584.955" stroke="#5BD38C" stroke-width="0.2" stroke-miterlimit="10"/>
<path d="M-359.081 208.766L270.534 574.399" stroke="#5BD38C" stroke-width="0.2" stroke-miterlimit="10"/>
<path d="M-353.023 198.211L276.592 563.845" stroke="#5BD38C" stroke-width="0.2" stroke-miterlimit="10"/>
<path d="M-346.964 187.656L282.651 553.29" stroke="#5BD38C" stroke-width="0.2" stroke-miterlimit="10"/>
<path d="M-340.906 177.102L288.71 542.735" stroke="#5BD38C" stroke-width="0.2" stroke-miterlimit="10"/>
<path d="M-334.848 166.547L294.768 532.18" stroke="#5BD38C" stroke-width="0.2" stroke-miterlimit="10"/>
<path d="M-328.789 155.991L300.826 521.625" stroke="#5BD38C" stroke-width="0.2" stroke-miterlimit="10"/>
<path d="M-322.731 145.437L306.884 511.07" stroke="#5BD38C" stroke-width="0.2" stroke-miterlimit="10"/>
<path d="M-316.672 134.882L312.944 500.515" stroke="#5BD38C" stroke-width="0.2" stroke-miterlimit="10"/>
<path d="M-310.614 124.327L319.001 489.961" stroke="#5BD38C" stroke-width="0.2" stroke-miterlimit="10"/>
<path d="M-304.555 113.771L325.06 479.405" stroke="#5BD38C" stroke-width="0.2" stroke-miterlimit="10"/>
<path d="M-298.497 103.217L331.119 468.85" stroke="#5BD38C" stroke-width="0.2" stroke-miterlimit="10"/>
<path d="M-292.438 92.6621L337.178 458.295" stroke="#5BD38C" stroke-width="0.2" stroke-miterlimit="10"/>
<path d="M-286.38 82.1072L343.235 447.741" stroke="#5BD38C" stroke-width="0.2" stroke-miterlimit="10"/>
<path d="M-280.321 71.5525L349.295 437.186" stroke="#5BD38C" stroke-width="0.2" stroke-miterlimit="10"/>
<path d="M-274.263 60.9978L355.353 426.631" stroke="#5BD38C" stroke-width="0.2" stroke-miterlimit="10"/>
<path d="M-268.205 50.4419L361.41 416.075" stroke="#5BD38C" stroke-width="0.2" stroke-miterlimit="10"/>
<path d="M-262.146 39.8875L367.469 405.521" stroke="#5BD38C" stroke-width="0.2" stroke-miterlimit="10"/>
<path d="M-256.088 29.3325L373.528 394.966" stroke="#5BD38C" stroke-width="0.2" stroke-miterlimit="10"/>
<path d="M-250.029 18.7778L379.587 384.411" stroke="#5BD38C" stroke-width="0.2" stroke-miterlimit="10"/>
<path d="M-243.97 8.22217L385.645 373.856" stroke="#5BD38C" stroke-width="0.2" stroke-miterlimit="10"/>
<path d="M-237.912 -2.33252L391.704 363.301" stroke="#5BD38C" stroke-width="0.2" stroke-miterlimit="10"/>
<path d="M-231.854 -12.8872L397.762 352.746" stroke="#5BD38C" stroke-width="0.2" stroke-miterlimit="10"/>
<path d="M-225.795 -23.4419L403.82 342.191" stroke="#5BD38C" stroke-width="0.2" stroke-miterlimit="10"/>
<path d="M-219.737 -33.9966L409.879 331.637" stroke="#5BD38C" stroke-width="0.2" stroke-miterlimit="10"/>
<path d="M-213.677 -44.5522L415.937 321.081" stroke="#5BD38C" stroke-width="0.2" stroke-miterlimit="10"/>
<path d="M-207.62 -55.1072L421.996 310.526" stroke="#5BD38C" stroke-width="0.2" stroke-miterlimit="10"/>
<path d="M-201.562 -65.6619L428.054 299.971" stroke="#5BD38C" stroke-width="0.2" stroke-miterlimit="10"/>
<path d="M-195.503 -76.2166L434.113 289.417" stroke="#5BD38C" stroke-width="0.2" stroke-miterlimit="10"/>
<path d="M-189.444 -86.7712L440.171 278.862" stroke="#5BD38C" stroke-width="0.2" stroke-miterlimit="10"/>
<path d="M-183.385 -97.3269L446.23 268.306" stroke="#5BD38C" stroke-width="0.2" stroke-miterlimit="10"/>
<path d="M-177.327 -107.882L452.288 257.752" stroke="#5BD38C" stroke-width="0.2" stroke-miterlimit="10"/>
<path d="M-171.269 -118.436L458.346 247.197" stroke="#5BD38C" stroke-width="0.2" stroke-miterlimit="10"/>
<path d="M-165.21 -128.991L464.406 236.642" stroke="#5BD38C" stroke-width="0.2" stroke-miterlimit="10"/>
<path d="M-159.151 -139.547L470.464 226.087" stroke="#5BD38C" stroke-width="0.2" stroke-miterlimit="10"/>
<path d="M-153.094 -150.101L476.522 215.532" stroke="#5BD38C" stroke-width="0.2" stroke-miterlimit="10"/>
<path d="M-147.035 -160.656L482.581 204.977" stroke="#5BD38C" stroke-width="0.2" stroke-miterlimit="10"/>
<path d="M-140.977 -171.211L488.639 194.422" stroke="#5BD38C" stroke-width="0.2" stroke-miterlimit="10"/>
<path d="M-134.917 -181.766L494.698 183.868" stroke="#5BD38C" stroke-width="0.2" stroke-miterlimit="10"/>
<path d="M-128.859 -192.321L500.756 173.312" stroke="#5BD38C" stroke-width="0.2" stroke-miterlimit="10"/>
<path d="M-122.801 -202.876L506.814 162.757" stroke="#5BD38C" stroke-width="0.2" stroke-miterlimit="10"/>
<path d="M-116.742 -213.431L512.874 152.203" stroke="#5BD38C" stroke-width="0.2" stroke-miterlimit="10"/>
<path d="M-110.684 -223.986L518.932 141.648" stroke="#5BD38C" stroke-width="0.2" stroke-miterlimit="10"/>
<path d="M-104.626 -234.54L524.99 131.093" stroke="#5BD38C" stroke-width="0.2" stroke-miterlimit="10"/>
<path d="M-98.5669 -245.096L531.049 120.538" stroke="#5BD38C" stroke-width="0.2" stroke-miterlimit="10"/>
<path d="M-92.5088 -255.651L537.107 109.982" stroke="#5BD38C" stroke-width="0.2" stroke-miterlimit="10"/>
<path d="M-86.4504 -266.206L543.165 99.4278" stroke="#5BD38C" stroke-width="0.2" stroke-miterlimit="10"/>
<path d="M-80.3916 -276.76L549.224 88.8731" stroke="#5BD38C" stroke-width="0.2" stroke-miterlimit="10"/>
<path d="M-74.333 -287.315L555.282 78.3184" stroke="#5BD38C" stroke-width="0.2" stroke-miterlimit="10"/>
<path d="M-68.2744 -297.87L561.341 67.763" stroke="#5BD38C" stroke-width="0.2" stroke-miterlimit="10"/>
<path d="M-62.2158 -308.425L567.4 57.2081" stroke="#5BD38C" stroke-width="0.2" stroke-miterlimit="10"/>
<path d="M-56.1582 -318.98L573.457 46.6534" stroke="#5BD38C" stroke-width="0.2" stroke-miterlimit="10"/>
<path d="M-50.0991 -329.535L579.516 36.0987" stroke="#5BD38C" stroke-width="0.2" stroke-miterlimit="10"/>
<path d="M-44.0408 -340.09L585.575 25.5438" stroke="#5BD38C" stroke-width="0.2" stroke-miterlimit="10"/>
<path d="M-37.9824 -350.645L591.633 14.9883" stroke="#5BD38C" stroke-width="0.2" stroke-miterlimit="10"/>
<path d="M-31.9238 -361.2L597.691 4.43365" stroke="#5BD38C" stroke-width="0.2" stroke-miterlimit="10"/>
<path d="M-13.7483 584.955L615.867 219.322" stroke="#5BD38C" stroke-width="0.2" stroke-miterlimit="10"/>
<path d="M-19.8066 574.399L609.809 208.766" stroke="#5BD38C" stroke-width="0.2" stroke-miterlimit="10"/>
<path d="M-25.8657 563.845L603.75 198.211" stroke="#5BD38C" stroke-width="0.2" stroke-miterlimit="10"/>
<path d="M-31.9238 553.29L597.691 187.656" stroke="#5BD38C" stroke-width="0.2" stroke-miterlimit="10"/>
<path d="M-37.9824 542.735L591.633 177.102" stroke="#5BD38C" stroke-width="0.2" stroke-miterlimit="10"/>
<path d="M-44.0408 532.18L585.575 166.547" stroke="#5BD38C" stroke-width="0.2" stroke-miterlimit="10"/>
<path d="M-50.0991 521.625L579.516 155.991" stroke="#5BD38C" stroke-width="0.2" stroke-miterlimit="10"/>
<path d="M-56.1582 511.07L573.457 145.437" stroke="#5BD38C" stroke-width="0.2" stroke-miterlimit="10"/>
<path d="M-62.2158 500.515L567.4 134.882" stroke="#5BD38C" stroke-width="0.2" stroke-miterlimit="10"/>
<path d="M-68.2744 489.961L561.341 124.327" stroke="#5BD38C" stroke-width="0.2" stroke-miterlimit="10"/>
<path d="M-74.333 479.405L555.283 113.771" stroke="#5BD38C" stroke-width="0.2" stroke-miterlimit="10"/>
<path d="M-80.3916 468.85L549.224 103.217" stroke="#5BD38C" stroke-width="0.2" stroke-miterlimit="10"/>
<path d="M-86.4504 458.295L543.165 92.6621" stroke="#5BD38C" stroke-width="0.2" stroke-miterlimit="10"/>
<path d="M-92.5088 447.741L537.107 82.1072" stroke="#5BD38C" stroke-width="0.2" stroke-miterlimit="10"/>
<path d="M-98.5669 437.186L531.049 71.5525" stroke="#5BD38C" stroke-width="0.2" stroke-miterlimit="10"/>
<path d="M-104.626 426.631L524.99 60.9978" stroke="#5BD38C" stroke-width="0.2" stroke-miterlimit="10"/>
<path d="M-110.684 416.075L518.932 50.4419" stroke="#5BD38C" stroke-width="0.2" stroke-miterlimit="10"/>
<path d="M-116.742 405.521L512.874 39.8875" stroke="#5BD38C" stroke-width="0.2" stroke-miterlimit="10"/>
<path d="M-122.801 394.966L506.814 29.3325" stroke="#5BD38C" stroke-width="0.2" stroke-miterlimit="10"/>
<path d="M-128.859 384.411L500.756 18.7778" stroke="#5BD38C" stroke-width="0.2" stroke-miterlimit="10"/>
<path d="M-134.917 373.856L494.698 8.22217" stroke="#5BD38C" stroke-width="0.2" stroke-miterlimit="10"/>
<path d="M-140.977 363.301L488.639 -2.33252" stroke="#5BD38C" stroke-width="0.2" stroke-miterlimit="10"/>
<path d="M-147.035 352.746L482.581 -12.8872" stroke="#5BD38C" stroke-width="0.2" stroke-miterlimit="10"/>
<path d="M-153.094 342.191L476.522 -23.4419" stroke="#5BD38C" stroke-width="0.2" stroke-miterlimit="10"/>
<path d="M-159.151 331.636L470.464 -33.9976" stroke="#5BD38C" stroke-width="0.2" stroke-miterlimit="10"/>
<path d="M-165.21 321.081L464.406 -44.5522" stroke="#5BD38C" stroke-width="0.2" stroke-miterlimit="10"/>
<path d="M-171.269 310.526L458.346 -55.1072" stroke="#5BD38C" stroke-width="0.2" stroke-miterlimit="10"/>
<path d="M-177.327 299.971L452.288 -65.6619" stroke="#5BD38C" stroke-width="0.2" stroke-miterlimit="10"/>
<path d="M-183.385 289.417L446.23 -76.2166" stroke="#5BD38C" stroke-width="0.2" stroke-miterlimit="10"/>
<path d="M-189.444 278.862L440.171 -86.7712" stroke="#5BD38C" stroke-width="0.2" stroke-miterlimit="10"/>
<path d="M-195.503 268.306L434.113 -97.3269" stroke="#5BD38C" stroke-width="0.2" stroke-miterlimit="10"/>
<path d="M-201.562 257.752L428.054 -107.882" stroke="#5BD38C" stroke-width="0.2" stroke-miterlimit="10"/>
<path d="M-207.62 247.197L421.996 -118.436" stroke="#5BD38C" stroke-width="0.2" stroke-miterlimit="10"/>
<path d="M-213.677 236.642L415.937 -128.991" stroke="#5BD38C" stroke-width="0.2" stroke-miterlimit="10"/>
<path d="M-219.737 226.087L409.879 -139.547" stroke="#5BD38C" stroke-width="0.2" stroke-miterlimit="10"/>
<path d="M-225.795 215.532L403.82 -150.101" stroke="#5BD38C" stroke-width="0.2" stroke-miterlimit="10"/>
<path d="M-231.854 204.977L397.762 -160.656" stroke="#5BD38C" stroke-width="0.2" stroke-miterlimit="10"/>
<path d="M-237.912 194.422L391.704 -171.211" stroke="#5BD38C" stroke-width="0.2" stroke-miterlimit="10"/>
<path d="M-243.97 183.868L385.645 -181.766" stroke="#5BD38C" stroke-width="0.2" stroke-miterlimit="10"/>
<path d="M-250.029 173.312L379.587 -192.321" stroke="#5BD38C" stroke-width="0.2" stroke-miterlimit="10"/>
<path d="M-256.088 162.757L373.528 -202.876" stroke="#5BD38C" stroke-width="0.2" stroke-miterlimit="10"/>
<path d="M-262.146 152.203L367.469 -213.431" stroke="#5BD38C" stroke-width="0.2" stroke-miterlimit="10"/>
<path d="M-268.205 141.648L361.41 -223.986" stroke="#5BD38C" stroke-width="0.2" stroke-miterlimit="10"/>
<path d="M-274.263 131.093L355.353 -234.54" stroke="#5BD38C" stroke-width="0.2" stroke-miterlimit="10"/>
<path d="M-280.321 120.538L349.295 -245.096" stroke="#5BD38C" stroke-width="0.2" stroke-miterlimit="10"/>
<path d="M-286.38 109.982L343.235 -255.651" stroke="#5BD38C" stroke-width="0.2" stroke-miterlimit="10"/>
<path d="M-292.438 99.4278L337.178 -266.206" stroke="#5BD38C" stroke-width="0.2" stroke-miterlimit="10"/>
<path d="M-298.497 88.8731L331.119 -276.76" stroke="#5BD38C" stroke-width="0.2" stroke-miterlimit="10"/>
<path d="M-304.555 78.3184L325.06 -287.315" stroke="#5BD38C" stroke-width="0.2" stroke-miterlimit="10"/>
<path d="M-310.614 67.763L319.001 -297.87" stroke="#5BD38C" stroke-width="0.2" stroke-miterlimit="10"/>
<path d="M-316.672 57.2081L312.944 -308.425" stroke="#5BD38C" stroke-width="0.2" stroke-miterlimit="10"/>
<path d="M-322.731 46.6534L306.884 -318.98" stroke="#5BD38C" stroke-width="0.2" stroke-miterlimit="10"/>
<path d="M-328.789 36.0987L300.826 -329.535" stroke="#5BD38C" stroke-width="0.2" stroke-miterlimit="10"/>
<path d="M-334.848 25.5438L294.768 -340.09" stroke="#5BD38C" stroke-width="0.2" stroke-miterlimit="10"/>
<path d="M-340.906 14.9883L288.71 -350.645" stroke="#5BD38C" stroke-width="0.2" stroke-miterlimit="10"/>
<path d="M-346.964 4.43365L282.651 -361.2" stroke="#5BD38C" stroke-width="0.2" stroke-miterlimit="10"/>
</g>
<path d="M249 186.468L210.276 164.104L171.552 186.468L210.276 208.832L249 186.468Z" fill="#5BD38C" stroke="#00402A" stroke-width="0.5" stroke-miterlimit="10" stroke-linejoin="round"/>
<path d="M218.431 177.369C216.029 176.105 213.361 175.432 210.648 175.405C207.934 175.377 205.253 175.997 202.826 177.212C198.456 179.682 198.354 183.757 202.605 186.316C205.006 187.581 207.674 188.255 210.388 188.283C213.102 188.31 215.783 187.691 218.21 186.476C222.581 184.005 222.679 179.93 218.431 177.369Z" fill="#5BD38C" stroke="#00402A" stroke-width="0.5" stroke-miterlimit="10" stroke-linejoin="round"/>
<path d="M218.209 186.47C215.783 187.686 213.102 188.305 210.388 188.277C207.674 188.249 205.006 187.575 202.605 186.31C201.734 185.903 200.987 185.272 200.438 184.482C199.89 183.693 199.558 182.774 199.473 181.817L199.524 186.732C199.608 187.689 199.942 188.608 200.491 189.397C201.039 190.187 201.787 190.818 202.658 191.225C205.06 192.488 207.728 193.162 210.441 193.189C213.155 193.216 215.836 192.597 218.263 191.382C219.18 190.987 219.974 190.352 220.56 189.543C221.149 188.732 221.51 187.779 221.607 186.782L221.554 181.87C221.459 182.866 221.098 183.818 220.51 184.627C219.921 185.436 219.127 186.072 218.209 186.47Z" fill="#5BD38C" stroke="#00402A" stroke-width="0.5" stroke-miterlimit="10" stroke-linejoin="round"/>
<path d="M204.264 146.771L204.304 180.619C204.346 181.163 204.53 181.686 204.837 182.138C205.145 182.587 205.566 182.947 206.057 183.182C207.421 183.899 208.936 184.281 210.476 184.296C212.017 184.312 213.539 183.96 214.916 183.27C215.438 183.046 215.889 182.685 216.222 182.226C216.556 181.765 216.761 181.224 216.817 180.658L216.774 146.811L204.264 146.771Z" fill="#5BD38C" stroke="#00402A" stroke-width="0.5" stroke-miterlimit="10" stroke-linejoin="round"/>
<path d="M200.88 139.154C200.88 139.154 202.783 147.659 204.427 148.65C206.318 149.645 208.418 150.175 210.554 150.196C212.691 150.217 214.801 149.73 216.711 148.773C218.459 147.787 220.786 139.154 220.786 139.154H200.88Z" fill="#5BD38C" stroke="#00402A" stroke-width="0.5" stroke-miterlimit="10" stroke-linejoin="round"/>
<path d="M217.967 135.108C215.801 133.968 213.394 133.361 210.946 133.336C208.498 133.311 206.079 133.871 203.89 134.967C199.948 137.195 199.858 140.873 203.693 143.179C205.859 144.32 208.267 144.928 210.715 144.953C213.164 144.978 215.583 144.419 217.773 143.322C221.715 141.102 221.802 137.427 217.967 135.108Z" fill="#5BD38C" stroke="#00402A" stroke-width="0.5" stroke-miterlimit="10" stroke-linejoin="round"/>
<path fill-rule="evenodd" clip-rule="evenodd" d="M213.932 37.7917C213.932 38.3408 213.535 38.8152 212.741 39.2149C212.009 39.5272 211.228 39.7077 210.433 39.748H209.9C208.954 39.7736 208.015 39.5916 207.147 39.2149C206.677 38.9874 206.287 38.6221 206.03 38.1676L204.701 123.325V138.58C204.83 139.01 205.059 139.404 205.369 139.728C205.679 140.052 206.062 140.298 206.487 140.446C207.326 140.86 208.225 141.138 209.152 141.269C209.699 141.321 210.27 141.345 210.865 141.344H211.534C212.797 141.29 214.037 140.984 215.18 140.446C216.177 139.96 216.918 139.246 216.966 138.495L213.932 37.7917Z" fill="#5BD38C" stroke="#00402A" stroke-width="0.5" stroke-miterlimit="10" stroke-linejoin="round"/>
<path fill-rule="evenodd" clip-rule="evenodd" d="M200.601 34.8137C200.601 34.8137 210.361 27.5645 210.547 27.322C210.734 27.0794 216.312 23.7507 219.572 28.0816C222.831 32.4124 218.58 36.9832 218.58 36.9832L204.29 42.8465C204.29 42.8465 202.645 42.7426 200.988 39.8562C199.05 36.4981 200.601 34.8137 200.601 34.8137Z" fill="#5BD38C" stroke="#00402A" stroke-width="0.5" stroke-miterlimit="10" stroke-linejoin="round"/>
<path fill-rule="evenodd" clip-rule="evenodd" d="M220.417 -14.3873L220.291 -15.0376L218.921 -13.9502C214.433 -2.75651 210.697 7.40218 207.712 16.5259C207.001 18.8357 206.311 21.0504 205.641 23.1701C204.042 28.5199 202.85 33.2124 202.064 37.2475C202.069 37.4157 202.054 37.5839 202.019 37.7485L201.401 38.4654L201.163 38.7133L194.074 34.8648L193.808 34.7395L183.464 36.0455L165.821 38.2655L165 39.5981L166.269 41.096C167.473 41.2878 168.665 41.4593 169.845 41.6103L178.512 42.6045L179.389 42.6684C182.397 42.9011 185.259 43.0407 187.974 43.0868C192.746 43.2162 197.513 42.656 202.126 41.4237L202.32 41.6903L203.269 42.8523L205.473 55.0774L209.012 62.1347L222.586 89.0287L223.218 88.717L224.374 88.1253C220.37 76.5141 216.565 66.4754 212.962 58.0091C212.757 57.5853 212.56 57.1402 212.376 56.6765C210.205 51.5915 207.764 46.6264 205.063 41.8023C204.759 41.2586 204.439 40.7326 204.103 40.2245C204.099 40.196 204.089 40.1687 204.074 40.1445C204.059 40.1198 204.039 40.0988 204.015 40.0832L203.871 37.6126L209.548 28.8176L210.262 26.0911L220.656 -13.1799L220.417 -14.3873Z" fill="#5BD38C" stroke="#00402A" stroke-width="0.5" stroke-miterlimit="10" stroke-linejoin="round"/>
<path fill-rule="evenodd" clip-rule="evenodd" d="M204.287 37.5C203.755 36.5107 202.937 35.7046 201.939 35.1866C201.585 34.95 201.173 34.8137 200.748 34.7921C200.322 34.7705 199.899 34.8645 199.522 35.0641C199.432 35.1127 199.351 35.1747 199.28 35.248C199.166 35.3577 199.045 35.4593 198.917 35.5518C198.003 36.2832 197.263 37.2084 196.75 38.2606C196.237 39.3128 195.964 40.4658 195.951 41.6364C195.945 41.7458 195.97 41.8548 196.023 41.9509C196.075 42.0485 196.155 42.1289 196.252 42.1827C197.686 42.8785 199.248 43.2723 200.841 43.3394H201.686C202.192 43.3385 202.698 43.2975 203.197 43.2168L203.618 43.0942H203.802L204.285 42.8517C204.622 42.6024 204.887 42.2686 205.054 41.8839C205.22 41.4992 205.282 41.0773 205.234 40.6609C205.219 39.5397 204.891 38.4449 204.287 37.5Z" fill="#5BD38C" stroke="#00402A" stroke-width="0.5" stroke-miterlimit="10" stroke-linejoin="round"/>
<path d="M-6.40167 201.569V208.653L0.171631 204.879V197.734L-6.40167 201.569Z" fill="#5BD38C" stroke="#00402A" stroke-width="0.5" stroke-miterlimit="10" stroke-linejoin="round"/>
<path d="M0.171631 197.734L-6.40167 193.909L-12.975 197.734L-6.40167 201.568L0.171631 197.734Z" fill="#5BD38C" stroke="#00402A" stroke-width="0.5" stroke-miterlimit="10" stroke-linejoin="round"/>
<path d="M47.2864 232.399V239.543L40.7131 235.719V228.574L47.2864 232.399Z" fill="#5BD38C" stroke="#00402A" stroke-width="0.5" stroke-miterlimit="10" stroke-linejoin="round"/>
<path d="M47.2863 232.399V239.543L53.8596 235.719V228.574L47.2863 232.399Z" fill="#5BD38C" stroke="#00402A" stroke-width="0.5" stroke-miterlimit="10" stroke-linejoin="round"/>
<path d="M53.8596 228.574L47.2863 224.749L40.713 228.574L47.2863 232.398L53.8596 228.574Z" fill="#5BD38C" stroke="#00402A" stroke-width="0.5" stroke-miterlimit="10" stroke-linejoin="round"/>
<path d="M47.1743 212.875V228.574L44.1101 226.836V211.128L47.1743 212.875Z" fill="#5BD38C" stroke="#00402A" stroke-width="0.5" stroke-miterlimit="10" stroke-linejoin="round"/>
<path d="M47.1743 212.875V228.574L50.1926 226.836V211.128L47.1743 212.875Z" fill="#5BD38C" stroke="#00402A" stroke-width="0.5" stroke-miterlimit="10" stroke-linejoin="round"/>
<path d="M124.893 187.754V194.838L118.32 191.064V183.919L124.893 187.754Z" fill="#5BD38C" stroke="#00402A" stroke-width="0.5" stroke-miterlimit="10" stroke-linejoin="round"/>
<path d="M124.893 187.754V194.838L131.467 191.064V183.919L124.893 187.754Z" fill="#5BD38C" stroke="#00402A" stroke-width="0.5" stroke-miterlimit="10" stroke-linejoin="round"/>
<path d="M131.467 183.919L124.893 180.094L118.32 183.919L124.893 187.754L131.467 183.919Z" fill="#5BD38C" stroke="#00402A" stroke-width="0.5" stroke-miterlimit="10" stroke-linejoin="round"/>
<path d="M124.68 168.216V183.924L121.607 182.176V166.432L124.68 168.216Z" fill="#5BD38C" stroke="#00402A" stroke-width="0.5" stroke-miterlimit="10" stroke-linejoin="round"/>
<path d="M124.681 168.216V183.924L127.7 182.176V166.432L124.681 168.216Z" fill="#5BD38C" stroke="#00402A" stroke-width="0.5" stroke-miterlimit="10" stroke-linejoin="round"/>
<path d="M67.6823 99L139.019 165.431L47.3363 218.31L-24 151.929L67.6823 99Z" fill="#5BD38C" stroke="#00402A" stroke-width="0.5" stroke-miterlimit="10" stroke-linejoin="round"/>
<path d="M47.3363 218.309L47.3363 222.94L139.019 170.061L139.019 165.43L47.3363 218.309Z" fill="#5BD38C" stroke="#00402A" stroke-width="0.5" stroke-miterlimit="10" stroke-linejoin="round"/>
<path d="M-23.9999 151.928L47.3367 218.309V222.834L-23.9999 156.867V151.928Z" fill="#5BD38C" stroke="#00402A" stroke-width="0.5" stroke-miterlimit="10" stroke-linejoin="round"/>
<path d="M49.228 114.66C49.1342 115.53 49.0877 115.883 49.0024 116.748L61.7466 128.603C62.5243 128.7 63.0877 128.748 63.8745 128.837L80.7202 119.088C80.8107 118.414 80.8582 118.061 80.9409 117.349L67.9897 105.29C67.21 105.19 66.6426 105.105 65.8325 105.057L49.228 114.66Z" fill="#5BD38C" stroke="#00402A" stroke-width="0.5" stroke-miterlimit="10" stroke-linejoin="round"/>
<path d="M27.9226 126.955C27.8288 127.825 27.7822 128.179 27.697 129.043L40.4412 140.899C41.2189 140.995 41.7824 141.043 42.5691 141.132L59.4148 131.383C59.5053 130.71 59.5528 130.357 59.6355 129.645L46.6853 117.587C45.9157 117.492 45.3465 117.443 44.5232 117.355L27.9226 126.955Z" fill="#5BD38C" stroke="#00402A" stroke-width="0.5" stroke-miterlimit="10" stroke-linejoin="round"/>
<path d="M6.55859 139.242C6.46476 140.112 6.41822 140.465 6.33301 141.33L19.0771 153.185C19.8551 153.282 20.4181 153.329 21.2051 153.419L38.0508 143.67C38.1412 142.996 38.1888 142.643 38.2715 141.931L25.3213 129.874C24.5517 129.778 23.9824 129.73 23.1592 129.641L6.55859 139.242Z" fill="#5BD38C" stroke="#00402A" stroke-width="0.5" stroke-miterlimit="10" stroke-linejoin="round"/>
<path d="M-14.7468 151.539C-14.8407 152.409 -14.8874 152.763 -14.9724 153.627L-2.22827 165.483C-1.45052 165.579 -0.887426 165.627 -0.100342 165.716L16.7454 155.967C16.8359 155.294 16.8834 154.941 16.9661 154.23L4.02075 142.175C3.24658 142.125 2.65045 142.029 1.85278 141.94L-14.7468 151.539Z" fill="#5BD38C" stroke="#00402A" stroke-width="0.5" stroke-miterlimit="10" stroke-linejoin="round"/>
<path d="M66.0098 130.236C65.9159 131.106 65.8692 131.459 65.7842 132.324L78.5283 144.179C79.3059 144.276 79.8695 144.323 80.6562 144.413L97.502 134.664C97.5924 133.991 97.6402 133.638 97.7227 132.926L84.7725 120.868C84.0028 120.772 83.4335 120.724 82.6104 120.635L66.0098 130.236Z" fill="#5BD38C" stroke="#00402A" stroke-width="0.5" stroke-miterlimit="10" stroke-linejoin="round"/>
<path d="M44.7036 142.581C44.6098 143.451 44.5632 143.805 44.478 144.669L57.2222 156.525C58 156.621 58.5631 156.669 59.3501 156.758L76.1958 147.009C76.2863 146.336 76.3338 145.983 76.4165 145.271L63.4644 133.211C62.6851 133.112 62.1178 133.026 61.3081 132.979L44.7036 142.581Z" fill="#5BD38C" stroke="#00402A" stroke-width="0.5" stroke-miterlimit="10" stroke-linejoin="round"/>
<path d="M23.3882 154.868C23.2944 155.738 23.2478 156.091 23.1626 156.956L35.9067 168.811C36.6844 168.908 37.2479 168.956 38.0347 169.045L54.8804 159.296C54.9708 158.622 55.0184 158.27 55.1011 157.557L42.1509 145.5C41.3815 145.404 40.8127 145.355 39.9897 145.266L23.3882 154.868Z" fill="#5BD38C" stroke="#00402A" stroke-width="0.5" stroke-miterlimit="10" stroke-linejoin="round"/>
<path d="M2.03369 167.165C1.93986 168.035 1.89331 168.388 1.80811 169.253L14.5522 181.108C15.3297 181.205 15.8934 181.253 16.6802 181.342L33.5259 171.593C33.6163 170.92 33.6639 170.567 33.7466 169.854L20.7964 157.797C20.0269 157.701 19.4576 157.653 18.6343 157.564L2.03369 167.165Z" fill="#5BD38C" stroke="#00402A" stroke-width="0.5" stroke-miterlimit="10" stroke-linejoin="round"/>
<path d="M82.7896 145.862C82.6957 146.732 82.6492 147.085 82.564 147.95L95.3081 159.805C96.0859 159.902 96.649 159.949 97.436 160.039L114.282 150.29C114.372 149.616 114.42 149.263 114.502 148.551L101.552 136.494C100.783 136.398 100.213 136.35 99.3901 136.261L82.7896 145.862Z" fill="#5BD38C" stroke="#00402A" stroke-width="0.5" stroke-miterlimit="10" stroke-linejoin="round"/>
<path d="M61.4746 158.207C61.3808 159.077 61.3342 159.43 61.249 160.295L73.9932 172.15C74.7709 172.247 75.3343 172.294 76.1211 172.384L92.9668 162.635C93.0573 161.961 93.1048 161.608 93.1875 160.896L80.2363 148.837C79.4567 148.737 78.8892 148.652 78.0791 148.604L61.4746 158.207Z" fill="#5BD38C" stroke="#00402A" stroke-width="0.5" stroke-miterlimit="10" stroke-linejoin="round"/>
<path d="M40.1687 170.494C40.0749 171.364 40.0282 171.717 39.9431 172.582L52.6873 184.437C53.4649 184.534 54.0285 184.582 54.8152 184.671L71.6609 174.922C71.7513 174.249 71.7991 173.896 71.8816 173.184L58.9314 161.126C58.1618 161.03 57.5925 160.982 56.7693 160.893L40.1687 170.494Z" fill="#5BD38C" stroke="#00402A" stroke-width="0.5" stroke-miterlimit="10" stroke-linejoin="round"/>
<path d="M18.8057 182.78C18.7118 183.65 18.6653 184.003 18.5801 184.868L31.3242 196.724C32.1019 196.82 32.6654 196.868 33.4521 196.957L50.2979 187.208C50.3884 186.535 50.4359 186.182 50.5186 185.471L37.5684 173.412C36.799 173.317 36.2302 173.267 35.4072 173.179L18.8057 182.78Z" fill="#5BD38C" stroke="#00402A" stroke-width="0.5" stroke-miterlimit="10" stroke-linejoin="round"/>
<path d="M99.5681 161.488C99.4743 162.358 99.4277 162.711 99.3425 163.576L112.087 175.431C112.864 175.528 113.428 175.575 114.215 175.665L131.06 165.916C131.151 165.243 131.198 164.89 131.281 164.178L118.331 152.12C117.561 152.024 116.992 151.976 116.169 151.887L99.5681 161.488Z" fill="#5BD38C" stroke="#00402A" stroke-width="0.5" stroke-miterlimit="10" stroke-linejoin="round"/>
<path d="M78.2532 173.774C78.1593 174.644 78.1126 174.997 78.0276 175.862L90.7717 187.718C91.5495 187.814 92.1126 187.862 92.8997 187.951L109.745 178.202C109.836 177.529 109.884 177.176 109.966 176.465L97.0159 164.406C96.2462 164.311 95.6769 164.262 94.8538 164.174L78.2532 173.774Z" fill="#5BD38C" stroke="#00402A" stroke-width="0.5" stroke-miterlimit="10" stroke-linejoin="round"/>
<path d="M75.8333 176.524L88.9236 188.714C88.8264 189.558 88.7778 189.908 88.671 190.704L71.648 200.554C70.8032 200.457 70.2011 200.409 69.3563 200.302L56.4602 188.306C56.5573 187.307 56.6059 186.967 56.7127 185.967L73.4931 176.262C74.3865 176.311 74.9885 176.408 75.8333 176.515V176.524Z" fill="#5BD38C" stroke="#00402A" stroke-width="0.5" stroke-miterlimit="10" stroke-linejoin="round"/>
<path d="M35.6318 198.406C35.538 199.276 35.4915 199.629 35.4062 200.494L48.1504 212.349C48.928 212.446 49.4916 212.494 50.2783 212.583L67.123 202.835C67.2146 202.118 67.2617 201.806 67.3447 201.095L54.3945 189.038C53.625 188.942 53.0557 188.894 52.2324 188.805L35.6318 198.406Z" fill="#5BD38C" stroke="#00402A" stroke-width="0.5" stroke-miterlimit="10" stroke-linejoin="round"/>
<path d="M97.2056 56.3054C118.486 47.9047 115.838 20.568 103.021 -2.11318C90.204 -24.7945 67.7759 -38.6596 53.401 -26.9042L99.7356 55.091L97.2056 56.3054Z" fill="#5BD38C" stroke="#00402A" stroke-width="0.5" stroke-miterlimit="10" stroke-linejoin="round"/>
<path d="M53.3636 27.9085C40.5688 5.26603 40.5863 -19.2745 53.4027 -26.9045C66.219 -34.5345 86.9809 -22.3644 99.7757 0.277965C112.57 22.9205 112.553 47.461 99.7366 55.0911C86.9203 62.7209 66.1584 50.5508 53.3636 27.9085Z" fill="#5BD38C" stroke="#00402A" stroke-width="0.5" stroke-miterlimit="10" stroke-linejoin="round"/>
<path d="M21.149 -2.84211L18.5493 -4.36041C18.3525 -4.50503 18.1214 -4.59413 17.8794 -4.61858C17.6374 -4.64303 17.3934 -4.60192 17.1722 -4.49953L12.891 -1.99521C13.1121 -2.09761 13.3561 -2.13868 13.5981 -2.11423C13.8401 -2.08978 14.0713 -2.00068 14.268 -1.85606L16.8665 -0.337762C17.1092 -0.157446 17.3954 -0.0465481 17.695 -0.0166511C17.9947 0.0132458 18.2967 -0.0389581 18.5696 -0.167831L22.8508 -2.67218C22.5782 -2.54342 22.2763 -2.49122 21.9769 -2.52111C21.6775 -2.55101 21.3915 -2.6619 21.149 -2.84211Z" fill="#5BD38C" stroke="#00402A" stroke-width="0.5" stroke-miterlimit="10" stroke-linejoin="round"/>
<path d="M39.9077 -8.69096C35.5624 -11.2301 31.7961 -10.5085 29.9787 -7.32166C29.1561 -8.15807 28.2314 -8.88474 27.2269 -9.48398C27.0169 -9.60712 26.8048 -9.72163 26.5907 -9.82753C22.4984 -11.8581 19.2212 -9.87308 18.9974 -5.22953C18.9584 -4.28077 19.0261 -3.33062 19.1993 -2.39736C19.5509 -0.445622 18.4049 0.557963 16.8661 -0.342178L14.2677 -1.86048C13.3103 -2.42076 12.4673 -2.08951 12.3712 -1.03667C12.3659 -0.356015 12.5304 0.31496 12.8493 0.914195C13.1683 1.51343 13.6314 2.02155 14.1959 2.39149L67.9247 33.7918C68.9977 34.4198 69.8711 33.8435 69.7641 32.5074C69.6889 31.8925 69.481 31.3018 69.1552 30.7772C68.8293 30.2527 68.3934 29.8071 67.8785 29.4721L63.7424 27.0561C62.2826 26.2015 61.3094 23.9099 61.8605 22.6514C62.4059 21.3035 62.6514 19.8505 62.5794 18.3958C62.3283 15.0466 61.3326 11.7982 59.6668 8.89335C58.0009 5.98849 55.708 3.50233 52.9594 1.62064C52.8791 1.57138 52.7988 1.5246 52.7161 1.4778C51.2947 0.569628 49.6454 0.0939106 47.9645 0.107265C46.0922 -3.49325 43.3127 -6.52858 39.9077 -8.69096Z" fill="#5BD38C" stroke="#00402A" stroke-width="0.5" stroke-miterlimit="10" stroke-linejoin="round"/>
<path d="M43.5035 -10.7971C40.4331 -12.5912 37.6522 -12.7575 35.6425 -11.5753L32.0465 -9.47029C34.0549 -10.6512 36.8359 -10.4862 39.9075 -8.69083C43.3152 -6.52828 46.097 -3.49157 47.9704 0.111068L51.5676 -1.99518C49.6931 -5.5974 46.911 -8.63397 43.5035 -10.7971Z" fill="#5BD38C" stroke="#00402A" stroke-width="0.5" stroke-miterlimit="10" stroke-linejoin="round"/>
<path d="M71.5287 27.3394L67.3926 24.9234C65.9328 24.0689 64.9596 21.7785 65.5107 20.5188C66.0568 19.1711 66.3023 17.7179 66.2296 16.2631C65.9795 12.914 64.9843 9.6655 63.3186 6.76072C61.6529 3.85594 59.3598 1.37012 56.6108 -0.510786C56.5297 -0.560041 56.4486 -0.608071 56.3675 -0.654863C54.948 -1.56136 53.3016 -2.03699 51.6232 -2.0254L47.9744 0.110812C49.6553 0.0974577 51.3046 0.573176 52.7261 1.48135C52.8051 1.52814 52.8854 1.57493 52.9694 1.62419C55.7179 3.50587 58.0108 5.99204 59.6767 8.8969C61.3425 11.8017 62.3382 15.0502 62.5894 18.3993C62.6613 19.8541 62.4159 21.3071 61.8704 22.655C61.3194 23.9135 62.2901 26.2051 63.7523 27.0597L67.8884 29.4756C68.4034 29.8107 68.8392 30.2562 69.1651 30.7808C69.4909 31.3053 69.6988 31.896 69.774 32.511C69.8274 32.7729 69.8059 33.0448 69.712 33.2948C69.618 33.5448 69.4555 33.7624 69.2436 33.9222L72.8924 31.7871C73.1043 31.6271 73.2667 31.4093 73.3607 31.1591C73.4546 30.909 73.4761 30.6369 73.4228 30.3748C73.3464 29.7592 73.1371 29.1681 72.8098 28.6435C72.4824 28.1189 72.0451 27.6737 71.5287 27.3394Z" fill="#5BD38C" stroke="#00402A" stroke-width="0.5" stroke-miterlimit="10" stroke-linejoin="round"/>
<path d="M121.327 70.7316C120.661 70.0438 119.956 69.3946 119.217 68.7872C118.513 68.2671 117.711 67.9006 116.86 67.7108C116.009 67.5211 115.129 67.5124 114.274 67.6852C112.976 68.0336 110.231 69.4474 109.088 70.1605L118.02 73.6995L121.327 70.7316Z" fill="#5BD38C" stroke="#00402A" stroke-width="0.5" stroke-miterlimit="10" stroke-linejoin="round"/>
<path d="M109.087 70.1633L109.047 70.1858" stroke="#00402A" stroke-width="0.5" stroke-miterlimit="10" stroke-linejoin="round"/>
<path d="M108.804 77.4032L106.205 75.885C106.008 75.7403 105.777 75.6512 105.535 75.6268C105.293 75.6023 105.049 75.6434 104.828 75.7458L100.546 78.2501C100.768 78.1478 101.012 78.1067 101.254 78.1311C101.496 78.1556 101.727 78.2447 101.924 78.3893L104.522 79.9076C104.765 80.0879 105.051 80.1988 105.351 80.2287C105.65 80.2586 105.952 80.2064 106.225 80.0775L110.506 77.5732C110.234 77.7019 109.932 77.7541 109.632 77.7242C109.333 77.6943 109.047 77.5835 108.804 77.4032Z" fill="#5BD38C" stroke="#00402A" stroke-width="0.5" stroke-miterlimit="10" stroke-linejoin="round"/>
<path d="M127.563 71.5544C123.218 69.0153 119.452 69.7369 117.634 72.9237C116.812 72.0873 115.887 71.3606 114.883 70.7614C114.673 70.6382 114.461 70.5237 114.246 70.4178C110.154 68.3873 106.877 70.3723 106.653 75.0158C106.614 75.9646 106.682 76.9147 106.855 77.848C107.207 79.7997 106.061 80.8033 104.522 79.9032L101.923 78.3849C100.966 77.8246 100.123 78.1559 100.027 79.2087C100.022 79.8893 100.186 80.5603 100.505 81.1596C100.824 81.7588 101.287 82.2669 101.852 82.6369L155.58 114.037C156.653 114.665 157.527 114.089 157.42 112.753C157.345 112.138 157.137 111.547 156.811 111.023C156.485 110.498 156.049 110.052 155.534 109.717L151.398 107.301C149.938 106.447 148.965 104.155 149.516 102.897C150.062 101.549 150.307 100.096 150.235 98.6411C149.984 95.292 148.988 92.0436 147.323 89.1387C145.657 86.2339 143.364 83.7477 140.615 81.866C140.535 81.8167 140.455 81.77 140.372 81.7232C138.95 80.815 137.301 80.3393 135.62 80.3526C133.748 76.7521 130.968 73.7168 127.563 71.5544Z" fill="#5BD38C" stroke="#00402A" stroke-width="0.5" stroke-miterlimit="10" stroke-linejoin="round"/>
<path d="M131.159 69.4482C128.089 67.6541 125.308 67.4879 123.299 68.67L119.703 70.7751C121.711 69.5942 124.492 69.7592 127.564 71.5545C130.971 73.7171 133.753 76.7538 135.626 80.3564L139.224 78.2502C137.349 74.648 134.567 71.6114 131.159 69.4482Z" fill="#5BD38C" stroke="#00402A" stroke-width="0.5" stroke-miterlimit="10" stroke-linejoin="round"/>
<path d="M159.184 107.585L155.048 105.169C153.588 104.314 152.615 102.024 153.166 100.764C153.712 99.4167 153.958 97.9635 153.885 96.5087C153.635 93.1596 152.64 89.9111 150.974 87.0063C149.308 84.1015 147.015 81.6157 144.266 79.7348C144.185 79.6856 144.104 79.6375 144.023 79.5907C142.604 78.6842 140.957 78.2086 139.279 78.2202L135.63 80.3564C137.311 80.3431 138.96 80.8188 140.382 81.727C140.461 81.7737 140.541 81.8205 140.625 81.8698C143.373 83.7515 145.666 86.2376 147.332 89.1425C148.998 92.0474 149.994 95.2958 150.245 98.645C150.317 100.1 150.071 101.553 149.526 102.901C148.975 104.159 149.946 106.451 151.408 107.305L155.544 109.721C156.059 110.056 156.495 110.502 156.821 111.026C157.146 111.551 157.354 112.142 157.429 112.757C157.483 113.019 157.461 113.29 157.367 113.54C157.274 113.79 157.111 114.008 156.899 114.168L160.548 112.033C160.76 111.873 160.922 111.655 161.016 111.405C161.11 111.155 161.132 110.882 161.078 110.62C161.002 110.005 160.793 109.414 160.465 108.889C160.138 108.365 159.701 107.919 159.184 107.585Z" fill="#5BD38C" stroke="#00402A" stroke-width="0.5" stroke-miterlimit="10" stroke-linejoin="round"/>
</g>
<defs>
<clipPath id="clip0_138_20072">
<rect width="230" height="230" rx="16" fill="white"/>
</clipPath>
</defs>
</svg>
