<svg viewBox="0 0 32 32" fill="none" xmlns="http://www.w3.org/2000/svg">
<rect x="0.5" y="0.5" width="31" height="31" rx="15.5" stroke="#00402A"/>
<path id="Arrow 1 (Stroke)" fill-rule="evenodd" clip-rule="evenodd" d="M18.4312 10.8574L23.0595 15.4858C23.3435 15.7698 23.3435 16.2303 23.0595 16.5143L18.4312 21.1426C18.1471 21.4266 17.6867 21.4266 17.4026 21.1426C17.1186 20.8586 17.1186 20.3981 17.4026 20.1141L20.7894 16.7273L9.45432 16.7273C9.05266 16.7273 8.72705 16.4017 8.72705 16C8.72705 15.5984 9.05266 15.2727 9.45432 15.2727L20.7894 15.2727L17.4026 11.8859C17.1186 11.6019 17.1186 11.1414 17.4026 10.8574C17.6867 10.5734 18.1471 10.5734 18.4312 10.8574Z" fill="#00402A"/>
</svg>
