<svg width="74" height="78" viewBox="0 0 74 78" fill="none" xmlns="http://www.w3.org/2000/svg">
<path d="M3.028 50.382L40.7192 28.4618L72.7886 47.1085L35.0934 69.0287L3.028 50.382Z" fill="white" stroke="#00402A" stroke-width="0.5" stroke-linejoin="round"/>
<path d="M32.7955 35.8261L60.2456 19.8123V45.6976L32.7955 61.6525V35.8261Z" fill="white" stroke="#00402A" stroke-width="0.5" stroke-linejoin="round"/>
<path opacity="0.2" d="M57.3 33.877V28.3321L53.3792 30.6231V36.1562L57.3 33.877Z" fill="#6BDAFF" stroke="#00402A" stroke-width="0.5" stroke-linejoin="round"/>
<path d="M57.3001 33.8769L58.1311 34.3996V27.8447L57.3001 28.332V33.8769Z" fill="white" stroke="#00402A" stroke-width="0.5" stroke-linejoin="round"/>
<path d="M57.3001 33.877L58.1311 34.3996L53.3792 37.1622V36.1562L57.3001 33.877Z" fill="white" stroke="#00402A" stroke-width="0.5" stroke-linejoin="round"/>
<path opacity="0.2" d="M43.7544 41.7719V36.227L39.8335 38.518V44.0511L43.7544 41.7719Z" fill="#6BDAFF" stroke="#00402A" stroke-width="0.5" stroke-linejoin="round"/>
<path d="M43.7545 41.7718L44.5894 42.2945V35.7396L43.7545 36.2269V41.7718Z" fill="white" stroke="#00402A" stroke-width="0.5" stroke-linejoin="round"/>
<path d="M43.7545 41.7719L44.5894 42.2945L39.8336 45.0611V44.0511L43.7545 41.7719Z" fill="white" stroke="#00402A" stroke-width="0.5" stroke-linejoin="round"/>
<path d="M44.7922 35.5707L45.3423 35.8891L40.1652 38.8992L39.619 38.5809L44.7922 35.5707Z" fill="white" stroke="#00402A" stroke-width="0.5" stroke-linejoin="round"/>
<path d="M39.6191 38.5809V39.0878L40.1653 39.4061V38.8992L39.6191 38.5809Z" fill="white" stroke="#00402A" stroke-width="0.5" stroke-linejoin="round"/>
<path d="M40.1652 38.8992V39.4062L45.3423 36.396V35.889L40.1652 38.8992Z" fill="white" stroke="#00402A" stroke-width="0.5" stroke-linejoin="round"/>
<path d="M58.2365 27.7662L58.7866 28.0845L53.6095 31.0947L53.0633 30.7764L58.2365 27.7662Z" fill="white" stroke="#00402A" stroke-width="0.5" stroke-linejoin="round"/>
<path d="M53.0632 30.7764V31.2833L53.6094 31.6016V31.0947L53.0632 30.7764Z" fill="white" stroke="#00402A" stroke-width="0.5" stroke-linejoin="round"/>
<path d="M53.6095 31.0947V31.6016L58.7866 28.5914V28.0845L53.6095 31.0947Z" fill="white" stroke="#00402A" stroke-width="0.5" stroke-linejoin="round"/>
<path d="M63.9715 44.5462L59.4303 47.187L63.9715 49.8278L68.5127 47.187L63.9715 44.5462Z" fill="#D8CFC7" stroke="#00402A" stroke-width="0.5" stroke-linejoin="round"/>
<path d="M59.4302 47.1871V47.9219L59.438 47.9259L59.4302 47.9219V48.6529L63.9714 51.2976V50.7514V50.5627V49.8279L59.4302 47.1871Z" fill="#B0A9A3" stroke="#00402A" stroke-width="0.5" stroke-linejoin="round"/>
<path d="M63.9715 49.8279V51.2976L68.5127 48.6529V47.1871L63.9715 49.8279Z" fill="#B0A9A3" stroke="#00402A" stroke-width="0.5" stroke-linejoin="round"/>
<path d="M63.6789 18.7002C62.7114 18.7002 61.9311 19.4901 61.9311 20.4607V46.3225C61.9311 47.2971 62.7153 48.083 63.6789 48.083C64.6426 48.083 65.4268 47.2931 65.4268 46.3225V20.4607C65.4268 19.4901 64.6426 18.7002 63.6789 18.7002Z" fill="#00A443" stroke="#00402A" stroke-width="0.5" stroke-linejoin="round"/>
<path d="M63.679 18.7002C62.7114 18.7002 61.9311 19.4901 61.9311 20.4607V46.3225C61.9311 47.2971 62.7153 48.083 63.679 48.083V18.7002Z" fill="#008C39" stroke="#00402A" stroke-width="0.5" stroke-linejoin="round"/>
<path d="M63.0079 18.2522L58.4628 20.893L63.0079 23.5338L67.5491 20.893L63.0079 18.2522Z" fill="white" stroke="#00402A" stroke-width="0.5" stroke-linejoin="round"/>
<path d="M58.4627 20.8931V21.624L58.4744 21.6319L58.4627 21.6279V22.3589L63.0078 24.9997V24.4574V24.2687V23.5339L58.4627 20.8931Z" fill="white" stroke="#00402A" stroke-width="0.5" stroke-linejoin="round"/>
<path d="M63.0079 23.5339V24.9997L67.5491 22.3589V20.8931L63.0079 23.5339Z" fill="white" stroke="#00402A" stroke-width="0.5" stroke-linejoin="round"/>
<path d="M50.7027 52.2722L46.1615 54.9169L50.7027 57.5577L55.2439 54.9169L50.7027 52.2722Z" fill="#D8CFC7" stroke="#00402A" stroke-width="0.5" stroke-linejoin="round"/>
<path d="M46.1617 54.9168V55.6477L46.1695 55.6556L46.1617 55.6477V56.3826L50.7029 59.0234V58.4811V58.2885V57.5576L46.1617 54.9168Z" fill="#B0A9A3" stroke="#00402A" stroke-width="0.5" stroke-linejoin="round"/>
<path d="M50.7027 57.5576V59.0234L55.2439 56.3826V54.9168L50.7027 57.5576Z" fill="#B0A9A3" stroke="#00402A" stroke-width="0.5" stroke-linejoin="round"/>
<path d="M50.4101 26.4261C49.4426 26.4261 48.6623 27.216 48.6623 28.1866V54.0484C48.6623 55.0229 49.4465 55.8089 50.4101 55.8089C51.3738 55.8089 52.158 55.019 52.158 54.0484V28.1866C52.158 27.216 51.3738 26.4261 50.4101 26.4261Z" fill="#00A443" stroke="#00402A" stroke-width="0.5" stroke-linejoin="round"/>
<path d="M50.4104 26.4261C49.4429 26.4261 48.6626 27.216 48.6626 28.1866V54.0484C48.6626 55.023 49.4468 55.8089 50.4104 55.8089V26.4222V26.4261Z" fill="#008C39" stroke="#00402A" stroke-width="0.5" stroke-linejoin="round"/>
<path d="M49.7393 25.9782L45.1981 28.619L49.7393 31.2598L54.2805 28.619L49.7393 25.9782Z" fill="white" stroke="#00402A" stroke-width="0.5" stroke-linejoin="round"/>
<path d="M45.1981 28.6189V29.3538L45.2059 29.3616L45.1981 29.3538V30.0886L49.7393 32.7294V32.1832V31.9946V31.2597L45.1981 28.6189Z" fill="white" stroke="#00402A" stroke-width="0.5" stroke-linejoin="round"/>
<path d="M49.7393 31.2597V32.7294L54.2805 30.0886V28.6189L49.7393 31.2597Z" fill="white" stroke="#00402A" stroke-width="0.5" stroke-linejoin="round"/>
<path d="M32.7954 35.8261V61.6525L14.022 50.7317V24.8503L32.7954 35.8261Z" fill="white" stroke="#00402A" stroke-width="0.5" stroke-linejoin="round"/>
<path d="M27.2827 47.7844V58.4419L19.5307 53.9384V43.2534L27.2827 47.7844Z" fill="white" stroke="#00402A" stroke-width="0.5" stroke-linejoin="round"/>
<path opacity="0.2" d="M20.8923 53.0856V44.0472L27.2827 47.7844V56.7992L20.8923 53.0856Z" fill="#6BDAFF" stroke="#00402A" stroke-width="0.5" stroke-linejoin="round"/>
<path d="M20.8923 53.0857L19.5308 53.9384V43.2534L20.8923 44.0472V53.0857Z" fill="white" stroke="#00402A" stroke-width="0.5" stroke-linejoin="round"/>
<path d="M20.8923 53.0856L19.5307 53.9383L27.2827 58.4418V56.7992L20.8923 53.0856Z" fill="white" stroke="#00402A" stroke-width="0.5" stroke-linejoin="round"/>
<path d="M21.7623 44.5659V52.5905L24.0875 53.9423V45.9256L24.9575 46.4365V54.4453H24.9497L27.2827 55.8011V56.7992L20.8923 53.0856V44.0472L21.7623 44.5659Z" fill="white" stroke="#00402A" stroke-width="0.5" stroke-linejoin="round"/>
<path d="M20.0145 42.4634L19.1718 42.9507L27.0994 47.5603L27.9421 47.073L20.0145 42.4634Z" fill="white" stroke="#00402A" stroke-width="0.5" stroke-linejoin="round"/>
<path d="M27.9421 47.0731V47.8511L27.0994 48.3384V47.5603L27.9421 47.0731Z" fill="white" stroke="#00402A" stroke-width="0.5" stroke-linejoin="round"/>
<path d="M27.0994 47.5604V48.3384L19.1718 43.7288V42.9507L27.0994 47.5604Z" fill="white" stroke="#00402A" stroke-width="0.5" stroke-linejoin="round"/>
<path d="M8.96587 46.1889L13.5071 48.8297L8.96587 51.4744L4.42077 48.8297L8.96587 46.1889Z" fill="#D8CFC7" stroke="#00402A" stroke-width="0.5" stroke-linejoin="round"/>
<path d="M13.5071 48.8297V49.5645L13.4954 49.5724L13.5071 49.5645V50.2994L8.96587 52.9402V52.3979V52.2053V51.4744L13.5071 48.8297Z" fill="#B0A9A3" stroke="#00402A" stroke-width="0.5" stroke-linejoin="round"/>
<path d="M8.96606 51.4744V52.9402L4.42096 50.2994V48.8297L8.96606 51.4744Z" fill="#B0A9A3" stroke="#00402A" stroke-width="0.5" stroke-linejoin="round"/>
<path d="M9.25462 20.3428C10.2222 20.3428 11.0024 21.1327 11.0024 22.1034V47.9651C11.0024 48.9358 10.2222 49.7256 9.25462 49.7256C8.28708 49.7256 7.5068 48.9358 7.5068 47.9651V22.1034C7.5068 21.1288 8.29098 20.3428 9.25462 20.3428Z" fill="#008C39" stroke="#00402A" stroke-width="0.5" stroke-linejoin="round"/>
<path d="M9.25462 20.3428C10.2222 20.3428 11.0024 21.1327 11.0024 22.1034V47.9651C11.0024 48.9358 10.2222 49.7256 9.25462 49.7256V20.3428Z" fill="#00A443" stroke="#00402A" stroke-width="0.5" stroke-linejoin="round"/>
<path d="M9.9295 19.8948L14.4707 22.5356L9.9295 25.1764L5.38829 22.5356L9.9295 19.8948Z" fill="white" stroke="#00402A" stroke-width="0.5" stroke-linejoin="round"/>
<path d="M14.4707 22.5357V23.2706L14.4629 23.2745L14.4707 23.2706V24.0015L9.9295 26.6462V26.1V25.9114V25.1765L14.4707 22.5357Z" fill="#B0A9A3" stroke="#00402A" stroke-width="0.5" stroke-linejoin="round"/>
<path d="M9.92944 25.0272V26.6462L5.38824 24.0015V22.5357L9.92944 25.0272Z" fill="#B0A9A3" stroke="#00402A" stroke-width="0.5" stroke-linejoin="round"/>
<path d="M35.0897 61.3656L39.6348 64.0064L35.0897 66.6472L30.5485 64.0064L35.0897 61.3656Z" fill="#D8CFC7" stroke="#00402A" stroke-width="0.5" stroke-linejoin="round"/>
<path d="M39.6348 64.0064V64.7373L39.6231 64.7452L39.6348 64.7373V65.4722L35.0897 68.113V67.5707V67.3781V66.6472L39.6348 64.0064Z" fill="#B0A9A3" stroke="#00402A" stroke-width="0.5" stroke-linejoin="round"/>
<path d="M35.0896 66.6472V68.113L30.5484 65.4722V64.0064L35.0896 66.6472Z" fill="#B0A9A3" stroke="#00402A" stroke-width="0.5" stroke-linejoin="round"/>
<path d="M35.3823 35.5157C36.3499 35.5157 37.1301 36.3056 37.1301 37.2762V63.138C37.1301 64.1125 36.3499 64.8985 35.3823 64.8985C34.4148 64.8985 33.6345 64.1125 33.6345 63.138V37.2762C33.6345 36.3056 34.4187 35.5157 35.3823 35.5157Z" fill="#008C39" stroke="#00402A" stroke-width="0.5" stroke-linejoin="round"/>
<path d="M35.3823 35.5157C36.3499 35.5157 37.1301 36.3056 37.1301 37.2762V63.138C37.1301 64.1126 36.3499 64.8985 35.3823 64.8985V35.5118V35.5157Z" fill="#00A443" stroke="#00402A" stroke-width="0.5" stroke-linejoin="round"/>
<path d="M36.0572 35.0677L40.5984 37.7085L36.0572 40.3493L31.5121 37.7124L36.0572 35.0677Z" fill="white" stroke="#00402A" stroke-width="0.5" stroke-linejoin="round"/>
<path d="M40.5984 37.7125V38.4434L40.5867 38.4513L40.5984 38.4434V39.1783L36.0572 41.8191V41.2768V41.0842V40.3493L40.5984 37.7125Z" fill="#B0A9A3" stroke="#00402A" stroke-width="0.5" stroke-linejoin="round"/>
<path d="M36.0571 40.3493V41.8191L31.512 39.1783V37.7125L36.0571 40.3493Z" fill="#B0A9A3" stroke="#00402A" stroke-width="0.5" stroke-linejoin="round"/>
<path d="M7.49507 17.765L3.93701 19.8359L37.5396 39.3786L41.0977 37.3076L7.49507 17.765Z" fill="#D8CFC7" stroke="#00402A" stroke-width="0.5" stroke-linejoin="round"/>
<path d="M41.0977 37.3076V39.1625L37.5396 41.2334V39.3786L41.0977 37.3076Z" fill="white" stroke="#00402A" stroke-width="0.5" stroke-linejoin="round"/>
<path d="M37.5396 39.3786V41.2334L3.93697 21.6907V19.8359L37.5396 39.3786Z" fill="#D8CFC7" stroke="#00402A" stroke-width="0.5" stroke-linejoin="round"/>
<path d="M22.5193 16.2441L7.49507 17.7649L41.0977 37.3076L22.5193 16.2441Z" fill="#D8CFC7" stroke="#00402A" stroke-width="0.5" stroke-linejoin="round"/>
<path d="M41.0977 37.3076L22.5193 16.2441L18.9651 18.3151L37.5396 39.3786L41.0977 37.3076Z" fill="white" stroke="#00402A" stroke-width="0.5" stroke-linejoin="round"/>
<path d="M18.9651 18.3151L3.93701 19.8359L7.72135 17.7099L22.5193 16.2441L18.9651 18.3151Z" fill="white" stroke="#00402A" stroke-width="0.5" stroke-linejoin="round"/>
<path d="M18.9651 18.3112L37.5396 39.3747L34.7813 37.7713L18.9651 19.832L5.57164 20.8498L3.93697 19.8359L18.9651 18.3112Z" fill="#D8CFC7" stroke="#00402A" stroke-width="0.5" stroke-linejoin="round"/>
<path d="M68.6455 21.3135V23.1683L65.0874 25.2393V23.3845L68.6455 21.3135Z" fill="white" stroke="#00402A" stroke-width="0.5" stroke-linejoin="round"/>
<path d="M68.6455 21.3135L37.5398 39.3747L18.9653 18.3112L50.0632 0.25L68.6455 21.3135Z" fill="white" stroke="#00402A" stroke-width="0.5" stroke-linejoin="round"/>
<path d="M50.063 0.25L18.9651 18.3112L3.93697 19.8359L35.0427 1.73938L50.063 0.25Z" fill="white" stroke="#00402A" stroke-width="0.5" stroke-linejoin="round"/>
<path d="M68.6455 21.3135V23.1683L37.4774 41.2924V39.4375L68.6455 21.3135Z" fill="#D8CFC7" stroke="#00402A" stroke-width="0.5" stroke-linejoin="round"/>
<path opacity="0.2" d="M57.3 42.8094V37.2645L53.3792 39.5555V45.0886L57.3 42.8094Z" fill="#6BDAFF" stroke="#00402A" stroke-width="0.5" stroke-linejoin="round"/>
<path d="M57.3001 42.8093L58.1311 43.3319V36.7771L57.3001 37.2644V42.8093Z" fill="white" stroke="#00402A" stroke-width="0.5" stroke-linejoin="round"/>
<path d="M57.3001 42.8093L58.1311 43.332L53.3792 46.0946V45.0886L57.3001 42.8093Z" fill="white" stroke="#00402A" stroke-width="0.5" stroke-linejoin="round"/>
<path opacity="0.2" d="M43.7544 50.7042V45.1593L39.8335 47.4504V52.9835L43.7544 50.7042Z" fill="#6BDAFF" stroke="#00402A" stroke-width="0.5" stroke-linejoin="round"/>
<path d="M43.7545 50.7041L44.5894 51.2268V44.6719L43.7545 45.1592V50.7041Z" fill="white" stroke="#00402A" stroke-width="0.5" stroke-linejoin="round"/>
<path d="M43.7545 50.7042L44.5894 51.2269L39.8336 53.9934V52.9835L43.7545 50.7042Z" fill="white" stroke="#00402A" stroke-width="0.5" stroke-linejoin="round"/>
<path d="M44.7922 44.5031L45.3423 44.8214L40.1652 47.8316L39.619 47.5132L44.7922 44.5031Z" fill="white" stroke="#00402A" stroke-width="0.5" stroke-linejoin="round"/>
<path d="M39.6191 47.5132V48.0202L40.1653 48.3385V47.8316L39.6191 47.5132Z" fill="white" stroke="#00402A" stroke-width="0.5" stroke-linejoin="round"/>
<path d="M40.1652 47.8315V48.3385L45.3423 45.3283V44.8214L40.1652 47.8315Z" fill="white" stroke="#00402A" stroke-width="0.5" stroke-linejoin="round"/>
<path d="M58.2365 36.6985L58.7866 37.0169L53.6095 40.0271L53.0633 39.7087L58.2365 36.6985Z" fill="white" stroke="#00402A" stroke-width="0.5" stroke-linejoin="round"/>
<path d="M53.0632 39.7087V40.2117L53.6094 40.5339V40.027L53.0632 39.7087Z" fill="white" stroke="#00402A" stroke-width="0.5" stroke-linejoin="round"/>
<path d="M53.6095 40.027V40.534L58.7866 37.5238V37.0168L53.6095 40.027Z" fill="white" stroke="#00402A" stroke-width="0.5" stroke-linejoin="round"/>
<path d="M32.3157 77.3558V75.1159L33.7046 74.3535V72.0939L35.191 71.3629L35.0895 69.0326L72.7886 47.1085V53.9384L32.3157 77.3558Z" fill="white" stroke="#00402A" stroke-width="0.5" stroke-linejoin="round"/>
<path d="M3.02795 50.382L35.0895 69.0326L35.1909 71.3629L3.02795 52.6455V50.382Z" fill="white" stroke="#00402A" stroke-width="0.5" stroke-linejoin="round"/>
<path d="M1.6389 53.4432L33.7043 72.0939V74.3535L1.6389 55.7068V53.4432Z" fill="white" stroke="#00402A" stroke-width="0.5" stroke-linejoin="round"/>
<path d="M35.1909 71.363L33.7045 72.0939L1.63905 53.4432L3.02794 52.6455L35.1909 71.363Z" fill="white" stroke="#00402A" stroke-width="0.5" stroke-linejoin="round"/>
<path d="M0.250233 56.4652L32.3157 75.1158V77.3794L0.250233 58.7287V56.4652Z" fill="white" stroke="#00402A" stroke-width="0.5" stroke-linejoin="round"/>
<path d="M33.7043 74.3535L32.3155 75.1159L0.250011 56.4652L1.6389 55.6675L33.7043 74.3535Z" fill="white" stroke="#00402A" stroke-width="0.5" stroke-linejoin="round"/>
<path d="M19.5309 53.9383L14.0651 56.7992L22.0863 61.4638L27.2634 58.4536L19.5309 53.9383Z" fill="#5BD38C" stroke="#00402A" stroke-width="0.5" stroke-linejoin="round"/>
<path d="M11.1545 65.1107L5.73942 68.1131L13.9947 72.7934L19.1719 69.7832L11.1545 65.1107Z" fill="#5BD38C" stroke="#00402A" stroke-width="0.5" stroke-linejoin="round"/>
<path d="M22.0862 61.4638V63.7313L14.0649 59.0667V56.7992L22.0862 61.4638Z" fill="#26BF64" stroke="#00402A" stroke-width="0.5" stroke-linejoin="round"/>
<path d="M20.6663 64.4859V66.7534L12.645 62.0888V59.8213L20.6663 64.4859Z" fill="#26BF64" stroke="#00402A" stroke-width="0.5" stroke-linejoin="round"/>
<path d="M19.2461 67.5118L19.172 69.7753L11.1546 65.1107L11.2288 62.8511L19.2461 67.5118Z" fill="#26BF64" stroke="#00402A" stroke-width="0.5" stroke-linejoin="round"/>
<path d="M22.0862 63.7313L20.6661 64.5094L12.6487 59.8487L14.0649 59.0667L22.0862 63.7313Z" fill="#5BD38C" stroke="#00402A" stroke-width="0.5" stroke-linejoin="round"/>
<path d="M20.6663 66.7337L19.2462 67.5117L11.2288 62.8511L12.645 62.069L20.6663 66.7337Z" fill="#5BD38C" stroke="#00402A" stroke-width="0.5" stroke-linejoin="round"/>
</svg>
