<svg width="66" height="69" viewBox="0 0 66 69" fill="none" xmlns="http://www.w3.org/2000/svg">
<path fill-rule="evenodd" clip-rule="evenodd" d="M32.6946 29.0131V20.6682L44.1219 14.0984V22.4433L40.7249 24.3964V17.4723L40.4156 17.2943L36.4009 19.6026V26.8819L32.6946 29.0131Z" fill="#89837E" stroke="#3A3735" stroke-width="0.5" stroke-miterlimit="10" stroke-linejoin="round"/>
<path fill-rule="evenodd" clip-rule="evenodd" d="M9.99414 24.4854L14.1639 26.8819V28.6579L9.99414 26.2606V24.4854Z" fill="#D8CFC7" stroke="#3A3735" stroke-width="0.5" stroke-miterlimit="10" stroke-linejoin="round"/>
<path fill-rule="evenodd" clip-rule="evenodd" d="M14.1638 26.8819L19.5682 23.775V25.373L18.6413 25.9054V26.0833L14.1638 28.6578V26.8819Z" fill="#89837E" stroke="#3A3735" stroke-width="0.5" stroke-miterlimit="10" stroke-linejoin="round"/>
<path fill-rule="evenodd" clip-rule="evenodd" d="M32.6947 39.3111V40.1987L29.2976 38.2456L28.5249 36.9138L32.6947 39.3111Z" fill="#B0A9A3" stroke="#3A3735" stroke-width="0.5" stroke-miterlimit="10" stroke-linejoin="round"/>
<path fill-rule="evenodd" clip-rule="evenodd" d="M26.5175 27.7703V31.3214L25.2821 32.031V30.611L23.429 29.5455L26.5175 27.7703Z" fill="#89837E" stroke="#3A3735" stroke-width="0.5" stroke-miterlimit="10" stroke-linejoin="round"/>
<path fill-rule="evenodd" clip-rule="evenodd" d="M38.8716 31.3214V27.7703L41.9594 29.5455L40.1062 30.611V32.031L38.8716 31.3214Z" fill="#D8CFC7" stroke="#3A3735" stroke-width="0.5" stroke-miterlimit="10" stroke-linejoin="round"/>
<path fill-rule="evenodd" clip-rule="evenodd" d="M38.7168 34.0731L40.5699 33.0075V34.7834L38.7168 35.8482V34.0731Z" fill="#89837E" stroke="#3A3735" stroke-width="0.5" stroke-miterlimit="10" stroke-linejoin="round"/>
<path fill-rule="evenodd" clip-rule="evenodd" d="M32.6946 39.3111L36.8644 36.9138L36.0916 38.2456L32.6946 40.1987V39.3111Z" fill="#615D5A" stroke="#3A3735" stroke-width="0.5" stroke-miterlimit="10" stroke-linejoin="round"/>
<path fill-rule="evenodd" clip-rule="evenodd" d="M36.0918 34.6944L36.4011 34.5164L37.9449 35.4048L36.8645 36.0262V35.1386L36.0918 34.6944Z" fill="#FFFAF6" stroke="#3A3735" stroke-width="0.5" stroke-miterlimit="10" stroke-linejoin="round"/>
<path fill-rule="evenodd" clip-rule="evenodd" d="M38.7167 34.0731V35.8482L37.9448 37.18V35.4048L36.4009 34.5165V32.7413L38.7167 34.0731Z" fill="#D8CFC7" stroke="#3A3735" stroke-width="0.5" stroke-miterlimit="10" stroke-linejoin="round"/>
<path fill-rule="evenodd" clip-rule="evenodd" d="M28.5249 36.9138V35.1386L32.6947 37.5351V39.3111L28.5249 36.9138Z" fill="#D8CFC7" stroke="#3A3735" stroke-width="0.5" stroke-miterlimit="10" stroke-linejoin="round"/>
<path fill-rule="evenodd" clip-rule="evenodd" d="M25.2822 32.386L23.7383 33.2736V35.0495L22.9663 33.7178V31.9427L25.2822 30.6109V32.386Z" fill="#89837E" stroke="#3A3735" stroke-width="0.5" stroke-miterlimit="10" stroke-linejoin="round"/>
<path fill-rule="evenodd" clip-rule="evenodd" d="M25.2819 32.3861L25.5912 32.5641L24.8184 33.0075V33.8951L23.738 33.2737L25.2819 32.3861Z" fill="#FFFAF6" stroke="#3A3735" stroke-width="0.5" stroke-miterlimit="10" stroke-linejoin="round"/>
<path fill-rule="evenodd" clip-rule="evenodd" d="M42.4231 31.9427V33.7178L41.6511 35.0495V33.2736L40.1064 32.386V30.6109L42.4231 31.9427Z" fill="#D8CFC7" stroke="#3A3735" stroke-width="0.5" stroke-miterlimit="10" stroke-linejoin="round"/>
<path fill-rule="evenodd" clip-rule="evenodd" d="M39.7979 32.5641L40.1063 32.3861L41.651 33.2737L40.5698 33.8951V33.0075L39.7979 32.5641Z" fill="#FFFAF6" stroke="#3A3735" stroke-width="0.5" stroke-miterlimit="10" stroke-linejoin="round"/>
<path fill-rule="evenodd" clip-rule="evenodd" d="M28.9883 32.7413V34.5165L27.4444 35.4048V37.18L26.6716 35.8482V34.0731L28.9883 32.7413Z" fill="#89837E" stroke="#3A3735" stroke-width="0.5" stroke-miterlimit="10" stroke-linejoin="round"/>
<path fill-rule="evenodd" clip-rule="evenodd" d="M28.9882 34.5164L29.2975 34.6944L28.5247 35.1386V36.0262L27.4443 35.4048L28.9882 34.5164Z" fill="#FFFAF6" stroke="#3A3735" stroke-width="0.5" stroke-miterlimit="10" stroke-linejoin="round"/>
<path fill-rule="evenodd" clip-rule="evenodd" d="M42.5781 27.415V25.6391L44.894 26.9709V28.7468L42.5781 27.415Z" fill="#D8CFC7" stroke="#3A3735" stroke-width="0.5" stroke-miterlimit="10" stroke-linejoin="round"/>
<path fill-rule="evenodd" clip-rule="evenodd" d="M24.8186 34.7834L26.6718 35.8482L27.4445 37.1799L25.5913 36.1151L24.8186 34.7834Z" fill="#B0A9A3" stroke="#3A3735" stroke-width="0.5" stroke-miterlimit="10" stroke-linejoin="round"/>
<path fill-rule="evenodd" clip-rule="evenodd" d="M42.5781 27.4151L44.122 28.3027L43.967 28.3917L42.4231 27.5033L42.5781 27.4151Z" fill="#FFFAF6" stroke="#3A3735" stroke-width="0.5" stroke-miterlimit="10" stroke-linejoin="round"/>
<path fill-rule="evenodd" clip-rule="evenodd" d="M44.1221 28.3026L44.894 28.7468L44.8173 28.8799L44.1221 28.4798V28.3026Z" fill="#D8CFC7" stroke="#3A3735" stroke-width="0.5" stroke-miterlimit="10" stroke-linejoin="round"/>
<path fill-rule="evenodd" clip-rule="evenodd" d="M24.8186 33.0075L26.6718 34.0731V35.8482L24.8186 34.7834V33.0075Z" fill="#D8CFC7" stroke="#3A3735" stroke-width="0.5" stroke-miterlimit="10" stroke-linejoin="round"/>
<path fill-rule="evenodd" clip-rule="evenodd" d="M41.6511 35.0496L42.4231 33.7178L46.2836 31.4985L45.0482 33.0964L41.6511 35.0496Z" fill="#615D5A" stroke="#3A3735" stroke-width="0.5" stroke-miterlimit="10" stroke-linejoin="round"/>
<path fill-rule="evenodd" clip-rule="evenodd" d="M22.9662 31.9427L18.7964 29.5454L24.2016 26.4385L26.5175 27.7702L23.4289 29.5454L25.282 30.6109L22.9662 31.9427Z" fill="#FFFAF6" stroke="#3A3735" stroke-width="0.5" stroke-miterlimit="10" stroke-linejoin="round"/>
<path fill-rule="evenodd" clip-rule="evenodd" d="M38.8716 27.7703L40.879 26.6157L46.2834 29.7234L42.4229 31.9427L40.1062 30.611L41.9594 29.5454L38.8716 27.7703Z" fill="#FFFAF6" stroke="#3A3735" stroke-width="0.5" stroke-miterlimit="10" stroke-linejoin="round"/>
<path fill-rule="evenodd" clip-rule="evenodd" d="M27.1352 31.6757L28.9884 32.7413L26.6718 34.073L24.8186 33.0075L27.1352 31.6757Z" fill="#FFFAF6" stroke="#3A3735" stroke-width="0.5" stroke-miterlimit="10" stroke-linejoin="round"/>
<path fill-rule="evenodd" clip-rule="evenodd" d="M36.4009 32.7413L38.2532 31.6757L40.5699 33.0075L38.7167 34.073L36.4009 32.7413Z" fill="#FFFAF6" stroke="#3A3735" stroke-width="0.5" stroke-miterlimit="10" stroke-linejoin="round"/>
<path fill-rule="evenodd" clip-rule="evenodd" d="M34.5478 33.8068L36.8645 35.1386L32.6947 37.5351L28.5249 35.1386L30.8415 33.8068L32.6947 34.8716L34.5478 33.8068Z" fill="#FFFAF6" stroke="#3A3735" stroke-width="0.5" stroke-miterlimit="10" stroke-linejoin="round"/>
<path fill-rule="evenodd" clip-rule="evenodd" d="M22.9662 33.7178L23.7381 35.0496L20.3411 33.0964L18.7964 31.3213L22.9662 33.7178Z" fill="#B0A9A3" stroke="#3A3735" stroke-width="0.5" stroke-miterlimit="10" stroke-linejoin="round"/>
<path fill-rule="evenodd" clip-rule="evenodd" d="M27.5441 53.6641V54.5525L27.2356 54.7297V53.8421L27.5441 53.6641Z" fill="#C66D00" stroke="#3A3735" stroke-width="0.5" stroke-miterlimit="10" stroke-linejoin="round"/>
<path fill-rule="evenodd" clip-rule="evenodd" d="M56.375 33.2461L57.6563 32.5098L58.429 32.9532L56.375 34.1345V33.2461Z" fill="#B0A9A3" stroke="#3A3735" stroke-width="0.5" stroke-miterlimit="10" stroke-linejoin="round"/>
<path fill-rule="evenodd" clip-rule="evenodd" d="M6.96013 41.8312L9.01418 43.0118L8.70493 43.189L6.65088 42.0084L6.96013 41.8312Z" fill="#FFCD52" stroke="#3A3735" stroke-width="0.5" stroke-miterlimit="10" stroke-linejoin="round"/>
<path fill-rule="evenodd" clip-rule="evenodd" d="M26.2629 54.1706V55.5914L25.491 56.0348V53.7264L26.2629 54.1706Z" fill="#89837E" stroke="#3A3735" stroke-width="0.5" stroke-miterlimit="10" stroke-linejoin="round"/>
<path fill-rule="evenodd" clip-rule="evenodd" d="M56.375 31.4709L56.6843 31.6481L57.6563 31.0889V32.5097L56.375 33.246V31.4709Z" fill="#3A3735" stroke="#3A3735" stroke-width="0.5" stroke-miterlimit="10" stroke-linejoin="round"/>
<path fill-rule="evenodd" clip-rule="evenodd" d="M7.73215 44.938L9.01425 45.6744V46.5628L6.96021 45.3814L7.73215 44.938Z" fill="#FFFAF6" stroke="#3A3735" stroke-width="0.5" stroke-miterlimit="10" stroke-linejoin="round"/>
<path fill-rule="evenodd" clip-rule="evenodd" d="M36.7093 19.7806V27.0599L36.4009 26.8819V19.6026L36.7093 19.7806Z" fill="#C66D00" stroke="#3A3735" stroke-width="0.5" stroke-miterlimit="10" stroke-linejoin="round"/>
<path fill-rule="evenodd" clip-rule="evenodd" d="M42.4231 33.7179V31.9427L46.2836 29.7234V31.4985L42.4231 33.7179Z" fill="#89837E" stroke="#3A3735" stroke-width="0.5" stroke-miterlimit="10" stroke-linejoin="round"/>
<path fill-rule="evenodd" clip-rule="evenodd" d="M7.73215 43.5173V44.938L6.96021 45.3814V43.0739L7.73215 43.5173Z" fill="#89837E" stroke="#3A3735" stroke-width="0.5" stroke-miterlimit="10" stroke-linejoin="round"/>
<path fill-rule="evenodd" clip-rule="evenodd" d="M27.2356 53.8422V54.7297L25.1824 53.5492V52.6616L27.2356 53.8422Z" fill="#FF9C1A" stroke="#3A3735" stroke-width="0.5" stroke-miterlimit="10" stroke-linejoin="round"/>
<path fill-rule="evenodd" clip-rule="evenodd" d="M57.6562 32.5098V31.089L58.429 30.6456V32.9532L57.6562 32.5098Z" fill="#B0A9A3" stroke="#3A3735" stroke-width="0.5" stroke-miterlimit="10" stroke-linejoin="round"/>
<path fill-rule="evenodd" clip-rule="evenodd" d="M36.7092 19.7805L40.7248 17.4722V24.7515L39.952 25.1957V18.8039L37.4812 20.2239V26.6157L36.7092 27.0598V19.7805Z" fill="#FF9C1A" stroke="#3A3735" stroke-width="0.5" stroke-miterlimit="10" stroke-linejoin="round"/>
<path fill-rule="evenodd" clip-rule="evenodd" d="M40.4156 17.2942L40.7249 17.4722L36.7093 19.7805L36.4009 19.6025L40.4156 17.2942Z" fill="#FFCD52" stroke="#3A3735" stroke-width="0.5" stroke-miterlimit="10" stroke-linejoin="round"/>
<path fill-rule="evenodd" clip-rule="evenodd" d="M46.593 8.23969V10.0148L45.0483 10.9024L44.894 10.8142L44.1221 11.2576L42.7324 10.459L46.593 8.23969Z" fill="#89837E" stroke="#3A3735" stroke-width="0.5" stroke-miterlimit="10" stroke-linejoin="round"/>
<path fill-rule="evenodd" clip-rule="evenodd" d="M18.6414 27.6813V25.9053L20.4953 26.9709V28.5688L20.3411 28.6578L18.6414 27.6813Z" fill="#D8CFC7" stroke="#3A3735" stroke-width="0.5" stroke-miterlimit="10" stroke-linejoin="round"/>
<path fill-rule="evenodd" clip-rule="evenodd" d="M9.99414 26.2605L14.1639 28.6578V29.5454L10.7669 27.5922L9.99414 26.2605Z" fill="#B0A9A3" stroke="#3A3735" stroke-width="0.5" stroke-miterlimit="10" stroke-linejoin="round"/>
<path fill-rule="evenodd" clip-rule="evenodd" d="M22.9663 10.281L21.4216 11.1694L19.105 9.83764V8.06171L22.9663 10.281Z" fill="#D8CFC7" stroke="#3A3735" stroke-width="0.5" stroke-miterlimit="10" stroke-linejoin="round"/>
<path fill-rule="evenodd" clip-rule="evenodd" d="M45.0483 47.6552L48.4462 45.7028V56.3553L47.8277 56.7104V46.7676L45.0483 48.3655V47.6552Z" fill="#FF9C1A" stroke="#3A3735" stroke-width="0.5" stroke-miterlimit="10" stroke-linejoin="round"/>
<path fill-rule="evenodd" clip-rule="evenodd" d="M28.9883 5.04389L29.2975 4.86591L30.8414 5.75348L28.9883 6.81904V5.04389Z" fill="#FFFAF6" stroke="#3A3735" stroke-width="0.5" stroke-miterlimit="10" stroke-linejoin="round"/>
<path fill-rule="evenodd" clip-rule="evenodd" d="M19.105 8.06173L22.9663 5.84241L25.2822 7.17416L23.429 8.23972L24.9737 9.12729L24.8962 9.17139L22.9663 10.2811L19.105 8.06173Z" fill="#FFFAF6" stroke="#3A3735" stroke-width="0.5" stroke-miterlimit="10" stroke-linejoin="round"/>
<path fill-rule="evenodd" clip-rule="evenodd" d="M40.1064 7.17416L42.4231 5.84241L46.5929 8.23972L42.7323 10.459L40.4932 9.17139L40.4157 9.12729L41.9596 8.23972L40.1064 7.17416Z" fill="#FFFAF6" stroke="#3A3735" stroke-width="0.5" stroke-miterlimit="10" stroke-linejoin="round"/>
<path fill-rule="evenodd" clip-rule="evenodd" d="M25.4908 52.4836L27.5441 53.6642L27.2356 53.8422L25.1824 52.6616L25.4908 52.4836Z" fill="#FFCD52" stroke="#3A3735" stroke-width="0.5" stroke-miterlimit="10" stroke-linejoin="round"/>
<path fill-rule="evenodd" clip-rule="evenodd" d="M26.2629 55.5914L27.5442 56.3277V57.2153L25.491 56.0348L26.2629 55.5914Z" fill="#FFFAF6" stroke="#3A3735" stroke-width="0.5" stroke-miterlimit="10" stroke-linejoin="round"/>
<path fill-rule="evenodd" clip-rule="evenodd" d="M26.2627 55.5914V54.1707L27.2355 54.7298L27.544 54.5526V56.3278L26.2627 55.5914Z" fill="#3A3735" stroke="#3A3735" stroke-width="0.5" stroke-miterlimit="10" stroke-linejoin="round"/>
<path fill-rule="evenodd" clip-rule="evenodd" d="M8.70493 43.1889V44.0765L6.65088 42.8959V42.0084L8.70493 43.1889Z" fill="#FF9C1A" stroke="#3A3735" stroke-width="0.5" stroke-miterlimit="10" stroke-linejoin="round"/>
<path fill-rule="evenodd" clip-rule="evenodd" d="M56.375 30.5834L58.4291 29.402L58.7383 29.58L56.6843 30.7606L56.375 30.5834Z" fill="#FFCD52" stroke="#3A3735" stroke-width="0.5" stroke-miterlimit="10" stroke-linejoin="round"/>
<path fill-rule="evenodd" clip-rule="evenodd" d="M39.7979 6.99701L40.1063 7.17421V8.94935L38.2532 7.88458L39.7979 6.99701Z" fill="#FFFAF6" stroke="#3A3735" stroke-width="0.5" stroke-miterlimit="10" stroke-linejoin="round"/>
<path fill-rule="evenodd" clip-rule="evenodd" d="M9.01409 43.0117V43.8993L8.70483 44.0765V43.1889L9.01409 43.0117Z" fill="#C66D00" stroke="#3A3735" stroke-width="0.5" stroke-miterlimit="10" stroke-linejoin="round"/>
<path fill-rule="evenodd" clip-rule="evenodd" d="M58.7384 29.58V30.4676L56.6843 31.6481V30.7606L58.7384 29.58Z" fill="#C66D00" stroke="#3A3735" stroke-width="0.5" stroke-miterlimit="10" stroke-linejoin="round"/>
<path fill-rule="evenodd" clip-rule="evenodd" d="M56.375 31.471V30.5834L56.6843 30.7606V31.6482L56.375 31.471Z" fill="#FF9C1A" stroke="#3A3735" stroke-width="0.5" stroke-miterlimit="10" stroke-linejoin="round"/>
<path fill-rule="evenodd" clip-rule="evenodd" d="M7.73193 44.9381V43.5173L8.70478 44.0765L9.01403 43.8993V45.6744L7.73193 44.9381Z" fill="#3A3735" stroke="#3A3735" stroke-width="0.5" stroke-miterlimit="10" stroke-linejoin="round"/>
<path fill-rule="evenodd" clip-rule="evenodd" d="M27.6991 19.5395V20.4271L25.645 19.2466V18.359L27.6991 19.5395Z" fill="#FF9C1A" stroke="#3A3735" stroke-width="0.5" stroke-miterlimit="10" stroke-linejoin="round"/>
<path fill-rule="evenodd" clip-rule="evenodd" d="M28.0077 19.3615V20.2499L27.6992 20.4271V19.5395L28.0077 19.3615Z" fill="#C66D00" stroke="#3A3735" stroke-width="0.5" stroke-miterlimit="10" stroke-linejoin="round"/>
<path fill-rule="evenodd" clip-rule="evenodd" d="M25.9535 18.181L28.0075 19.3616L27.6991 19.5396L25.645 18.359L25.9535 18.181Z" fill="#FFCD52" stroke="#3A3735" stroke-width="0.5" stroke-miterlimit="10" stroke-linejoin="round"/>
<path fill-rule="evenodd" clip-rule="evenodd" d="M26.7264 19.868V21.2888L25.9536 21.7321V19.4238L26.7264 19.868Z" fill="#89837E" stroke="#3A3735" stroke-width="0.5" stroke-miterlimit="10" stroke-linejoin="round"/>
<path fill-rule="evenodd" clip-rule="evenodd" d="M26.7263 19.8679L27.6992 20.4271L28.0076 20.2499V22.025L26.7263 21.2887V19.8679Z" fill="#3A3735" stroke="#3A3735" stroke-width="0.5" stroke-miterlimit="10" stroke-linejoin="round"/>
<path fill-rule="evenodd" clip-rule="evenodd" d="M26.7264 21.2887L28.0077 22.0251V22.9126L25.9536 21.7321L26.7264 21.2887Z" fill="#FFFAF6" stroke="#3A3735" stroke-width="0.5" stroke-miterlimit="10" stroke-linejoin="round"/>
<path fill-rule="evenodd" clip-rule="evenodd" d="M22.811 25.6391V27.237L20.4951 28.5688V26.9709L22.811 25.6391Z" fill="#89837E" stroke="#3A3735" stroke-width="0.5" stroke-miterlimit="10" stroke-linejoin="round"/>
<path fill-rule="evenodd" clip-rule="evenodd" d="M38.7168 35.8482L40.5699 34.7834L39.798 36.1151L37.9448 37.1799L38.7168 35.8482Z" fill="#615D5A" stroke="#3A3735" stroke-width="0.5" stroke-miterlimit="10" stroke-linejoin="round"/>
<path fill-rule="evenodd" clip-rule="evenodd" d="M18.7964 29.5454L22.9662 31.9427V33.7179L18.7964 31.3213V29.5454Z" fill="#D8CFC7" stroke="#3A3735" stroke-width="0.5" stroke-miterlimit="10" stroke-linejoin="round"/>
<path fill-rule="evenodd" clip-rule="evenodd" d="M36.8645 2.64648V4.42241L36.7095 4.86581L36.401 5.04379L36.0917 4.86581L34.5479 5.75338V3.97824L36.8645 2.64648Z" fill="#89837E" stroke="#3A3735" stroke-width="0.5" stroke-miterlimit="10" stroke-linejoin="round"/>
<path fill-rule="evenodd" clip-rule="evenodd" d="M46.1294 25.3729V23.5978L51.5338 26.7047V28.4798L46.1294 25.3729Z" fill="#D8CFC7" stroke="#3A3735" stroke-width="0.5" stroke-miterlimit="10" stroke-linejoin="round"/>
<path fill-rule="evenodd" clip-rule="evenodd" d="M30.8415 3.97827L28.5249 2.64652L32.6947 0.25L36.8645 2.64652L34.5478 3.97827L32.6947 2.91271L30.8415 3.97827Z" fill="#FFFAF6" stroke="#3A3735" stroke-width="0.5" stroke-miterlimit="10" stroke-linejoin="round"/>
<path fill-rule="evenodd" clip-rule="evenodd" d="M32.6946 37.5351L36.8644 35.1386V36.9138L32.6946 39.3111V37.5351Z" fill="#89837E" stroke="#3A3735" stroke-width="0.5" stroke-miterlimit="10" stroke-linejoin="round"/>
<path fill-rule="evenodd" clip-rule="evenodd" d="M44.8171 28.8799L44.8939 28.7468L46.747 27.6812L45.9751 29.013L45.5116 29.2792L44.8171 28.8799Z" fill="#615D5A" stroke="#3A3735" stroke-width="0.5" stroke-miterlimit="10" stroke-linejoin="round"/>
<path fill-rule="evenodd" clip-rule="evenodd" d="M24.8186 6.55285V4.77771L27.1352 6.10867V7.8846L25.5913 6.99703L25.2821 7.17423L24.9736 6.99703L24.8186 6.55285Z" fill="#D8CFC7" stroke="#3A3735" stroke-width="0.5" stroke-miterlimit="10" stroke-linejoin="round"/>
<path fill-rule="evenodd" clip-rule="evenodd" d="M38.2532 6.10867L40.5698 4.77771V6.55285L40.4156 6.99703L40.1063 7.17423L39.7979 6.99703L38.2532 7.8846V6.10867Z" fill="#89837E" stroke="#3A3735" stroke-width="0.5" stroke-miterlimit="10" stroke-linejoin="round"/>
<path fill-rule="evenodd" clip-rule="evenodd" d="M47.6733 26.2605L51.5339 28.4798L51.2254 29.5454L48.1368 27.7702L47.6733 26.2605Z" fill="#D8CFC7" stroke="#3A3735" stroke-width="0.5" stroke-miterlimit="10" stroke-linejoin="round"/>
<path fill-rule="evenodd" clip-rule="evenodd" d="M25.282 8.94935V7.17421L25.5912 6.99701L27.1351 7.88458L25.282 8.94935Z" fill="#FFFAF6" stroke="#3A3735" stroke-width="0.5" stroke-miterlimit="10" stroke-linejoin="round"/>
<path fill-rule="evenodd" clip-rule="evenodd" d="M28.9884 5.04385L27.1352 6.10862L24.8186 4.77766L26.6718 3.7121L28.9884 5.04385Z" fill="#FFFAF6" stroke="#3A3735" stroke-width="0.5" stroke-miterlimit="10" stroke-linejoin="round"/>
<path fill-rule="evenodd" clip-rule="evenodd" d="M45.0483 10.9023L46.593 10.0148L45.5632 11.1985L45.0483 10.9023Z" fill="#89837E" stroke="#3A3735" stroke-width="0.5" stroke-miterlimit="10" stroke-linejoin="round"/>
<path fill-rule="evenodd" clip-rule="evenodd" d="M34.5479 5.75348L36.0917 4.86591L36.401 5.04389V6.81904L34.5479 5.75348Z" fill="#FFFAF6" stroke="#3A3735" stroke-width="0.5" stroke-miterlimit="10" stroke-linejoin="round"/>
<path fill-rule="evenodd" clip-rule="evenodd" d="M59.1004 24.1302L58.3277 25.4619L56.4753 26.5267L57.2473 25.1957L59.1004 24.1302Z" fill="#615D5A" stroke="#3A3735" stroke-width="0.5" stroke-miterlimit="10" stroke-linejoin="round"/>
<path fill-rule="evenodd" clip-rule="evenodd" d="M36.4009 5.04385L38.7167 3.7121L40.5699 4.77766L38.2532 6.10862L36.4009 5.04385Z" fill="#FFFAF6" stroke="#3A3735" stroke-width="0.5" stroke-miterlimit="10" stroke-linejoin="round"/>
<path fill-rule="evenodd" clip-rule="evenodd" d="M32.6946 4.68865V2.91272L34.5477 3.97828V5.75342L32.6946 4.68865Z" fill="#D8CFC7" stroke="#3A3735" stroke-width="0.5" stroke-miterlimit="10" stroke-linejoin="round"/>
<path fill-rule="evenodd" clip-rule="evenodd" d="M38.2532 6.10853V7.88446L36.4009 6.81891V5.04376L38.2532 6.10853Z" fill="#D8CFC7" stroke="#3A3735" stroke-width="0.5" stroke-miterlimit="10" stroke-linejoin="round"/>
<path fill-rule="evenodd" clip-rule="evenodd" d="M40.1064 7.17419L41.9596 8.23975L40.4157 9.12732L40.1064 8.94934V7.17419Z" fill="#D8CFC7" stroke="#3A3735" stroke-width="0.5" stroke-miterlimit="10" stroke-linejoin="round"/>
<path fill-rule="evenodd" clip-rule="evenodd" d="M65.1234 18.8922V20.6681L60.9536 23.0647V21.2895L65.1234 18.8922Z" fill="#89837E" stroke="#3A3735" stroke-width="0.5" stroke-miterlimit="10" stroke-linejoin="round"/>
<path fill-rule="evenodd" clip-rule="evenodd" d="M28.5249 4.42241V2.64648L30.8415 3.97824V5.75338L29.2976 4.86581L28.9884 5.04379L28.6791 4.86581L28.5249 4.42241Z" fill="#D8CFC7" stroke="#3A3735" stroke-width="0.5" stroke-miterlimit="10" stroke-linejoin="round"/>
<path fill-rule="evenodd" clip-rule="evenodd" d="M25.2821 7.17419V8.94934L24.9736 9.12732L23.429 8.23975L25.2821 7.17419Z" fill="#89837E" stroke="#3A3735" stroke-width="0.5" stroke-miterlimit="10" stroke-linejoin="round"/>
<path fill-rule="evenodd" clip-rule="evenodd" d="M27.1353 7.88446V6.10853L28.9884 5.04376V6.81891L27.1353 7.88446Z" fill="#89837E" stroke="#3A3735" stroke-width="0.5" stroke-miterlimit="10" stroke-linejoin="round"/>
<path fill-rule="evenodd" clip-rule="evenodd" d="M32.6945 2.91272V4.68865L30.8413 5.75342V3.97828L32.6945 2.91272Z" fill="#89837E" stroke="#3A3735" stroke-width="0.5" stroke-miterlimit="10" stroke-linejoin="round"/>
<path fill-rule="evenodd" clip-rule="evenodd" d="M19.105 9.83771L21.4216 11.1695L21.2674 11.2577L20.4954 10.8143L19.9291 11.1395L19.105 9.83771Z" fill="#D8CFC7" stroke="#3A3735" stroke-width="0.5" stroke-miterlimit="10" stroke-linejoin="round"/>
<path fill-rule="evenodd" clip-rule="evenodd" d="M51.5337 26.7047L55.3942 24.4854V26.2606L51.5337 28.4799V26.7047Z" fill="#89837E" stroke="#3A3735" stroke-width="0.5" stroke-miterlimit="10" stroke-linejoin="round"/>
<path fill-rule="evenodd" clip-rule="evenodd" d="M32.6945 8.23969L40.4155 12.6783L32.6945 17.117L24.9734 12.6783L32.6945 8.23969Z" fill="#615D5A" stroke="#3A3735" stroke-width="0.5" stroke-miterlimit="10" stroke-linejoin="round"/>
<path fill-rule="evenodd" clip-rule="evenodd" d="M32.6946 8.23974V6.46381L41.9595 11.7908L40.4156 12.6784L32.6946 8.23974Z" fill="#D8CFC7" stroke="#3A3735" stroke-width="0.5" stroke-miterlimit="10" stroke-linejoin="round"/>
<path fill-rule="evenodd" clip-rule="evenodd" d="M32.6947 6.46381V8.23974L24.9736 12.6784L23.429 11.7908L32.6947 6.46381Z" fill="#89837E" stroke="#3A3735" stroke-width="0.5" stroke-miterlimit="10" stroke-linejoin="round"/>
<path fill-rule="evenodd" clip-rule="evenodd" d="M45.0481 11.7908V13.5659L32.6946 20.6681V18.8921L45.0481 11.7908Z" fill="#89837E" stroke="#3A3735" stroke-width="0.5" stroke-miterlimit="10" stroke-linejoin="round"/>
<path fill-rule="evenodd" clip-rule="evenodd" d="M20.3411 13.5659V11.7908L32.6946 18.8921V20.6681L20.3411 13.5659Z" fill="#D8CFC7" stroke="#3A3735" stroke-width="0.5" stroke-miterlimit="10" stroke-linejoin="round"/>
<path fill-rule="evenodd" clip-rule="evenodd" d="M32.6946 17.1171L41.9596 11.7909L32.6946 6.46465L23.4296 11.7909L32.6946 17.1171ZM20.3411 11.7909L32.6946 4.68872L45.0482 11.7909L32.6946 18.893L20.3411 11.7909Z" fill="#FFFAF6" stroke="#3A3735" stroke-width="0.5" stroke-miterlimit="10" stroke-linejoin="round"/>
<path fill-rule="evenodd" clip-rule="evenodd" d="M25.6451 19.2466L25.9544 19.4238V21.7321L28.0084 22.9126V19.3615L25.9544 18.181L25.6451 18.3582V19.2458M21.2673 14.0975L32.6947 20.6673V29.0122L21.2673 22.4432V14.0983" fill="#D8CFC7"/>
<path d="M25.6451 19.2466L25.9544 19.4238V21.7321L28.0084 22.9126V19.3615L25.9544 18.181L25.6451 18.3582V19.2458M21.2673 14.0975L32.6947 20.6673V29.0122L21.2673 22.4432V14.0983" stroke="#3A3735" stroke-width="0.5" stroke-miterlimit="10" stroke-linejoin="round"/>
<path fill-rule="evenodd" clip-rule="evenodd" d="M17.2524 56.178V27.7702L18.0244 26.4385L18.6413 26.7937V27.6812L19.4117 29.0114L19.5683 29.1012L18.7963 29.5454V31.3213L20.341 33.0964V57.9532L17.2524 56.178Z" fill="#D8CFC7" stroke="#3A3735" stroke-width="0.5" stroke-miterlimit="10" stroke-linejoin="round"/>
<path fill-rule="evenodd" clip-rule="evenodd" d="M17.2524 27.7703V56.1781L14.1638 57.9533V29.5455L17.2524 27.7703Z" fill="#89837E" stroke="#3A3735" stroke-width="0.5" stroke-miterlimit="10" stroke-linejoin="round"/>
<path fill-rule="evenodd" clip-rule="evenodd" d="M14.1638 29.5454V28.6578L18.0244 26.4385L17.2524 27.7702L14.1638 29.5454Z" fill="#615D5A" stroke="#3A3735" stroke-width="0.5" stroke-miterlimit="10" stroke-linejoin="round"/>
<path fill-rule="evenodd" clip-rule="evenodd" d="M18.6414 25.9054L20.958 24.5744L22.8111 25.6392L20.4953 26.9709L18.6414 25.9054Z" fill="#FFFAF6" stroke="#3A3735" stroke-width="0.5" stroke-miterlimit="10" stroke-linejoin="round"/>
<path fill-rule="evenodd" clip-rule="evenodd" d="M0.265625 18.8921L4.43541 16.4956L6.75205 17.8274L4.8989 18.8921L6.75205 19.9577L4.43541 21.2894L0.265625 18.8921Z" fill="#FFFAF6" stroke="#3A3735" stroke-width="0.5" stroke-miterlimit="10" stroke-linejoin="round"/>
<path fill-rule="evenodd" clip-rule="evenodd" d="M10.4576 15.6963L8.60442 16.7618L6.28857 15.4301L8.14093 14.3653L10.4576 15.6963Z" fill="#FFFAF6" stroke="#3A3735" stroke-width="0.5" stroke-miterlimit="10" stroke-linejoin="round"/>
<path fill-rule="evenodd" clip-rule="evenodd" d="M6.28857 22.3551L8.60442 21.0233L10.4576 22.0881L8.14093 23.4198L6.28857 22.3551Z" fill="#FFFAF6" stroke="#3A3735" stroke-width="0.5" stroke-miterlimit="10" stroke-linejoin="round"/>
<path fill-rule="evenodd" clip-rule="evenodd" d="M9.99414 13.2997L13.8547 11.0804L19.2599 14.1873L17.2525 15.341L14.1639 13.5659L12.3108 14.6315L9.99414 13.2997Z" fill="#FFFAF6" stroke="#3A3735" stroke-width="0.5" stroke-miterlimit="10" stroke-linejoin="round"/>
<path fill-rule="evenodd" clip-rule="evenodd" d="M12.3108 23.1537L14.1639 24.2192L17.2525 22.4433L19.5684 23.775L14.1639 26.8819L9.99414 24.4854L12.3108 23.1537Z" fill="#FFFAF6" stroke="#3A3735" stroke-width="0.5" stroke-miterlimit="10" stroke-linejoin="round"/>
<path fill-rule="evenodd" clip-rule="evenodd" d="M6.28857 24.1301V22.355L8.14093 23.4198V25.1957L6.28857 24.1301Z" fill="#D8CFC7" stroke="#3A3735" stroke-width="0.5" stroke-miterlimit="10" stroke-linejoin="round"/>
<path fill-rule="evenodd" clip-rule="evenodd" d="M18.6414 11.879L20.3411 12.8556V13.566L20.958 13.9212V14.9867L19.4141 14.0984L19.2599 14.1873L18.7189 13.877L18.6414 13.655V11.879Z" fill="#D8CFC7" stroke="#3A3735" stroke-width="0.5" stroke-miterlimit="10" stroke-linejoin="round"/>
<path fill-rule="evenodd" clip-rule="evenodd" d="M19.2598 15.9633V14.1874L19.414 14.0984L20.9579 14.9867L19.2598 15.9633Z" fill="#FFFAF6" stroke="#3A3735" stroke-width="0.5" stroke-miterlimit="10" stroke-linejoin="round"/>
<path fill-rule="evenodd" clip-rule="evenodd" d="M8.14093 25.1957L8.91367 26.5267L7.06052 25.4619L6.28857 24.1302L8.14093 25.1957Z" fill="#B0A9A3" stroke="#3A3735" stroke-width="0.5" stroke-miterlimit="10" stroke-linejoin="round"/>
<path fill-rule="evenodd" clip-rule="evenodd" d="M5.20728 22.6212L6.75196 21.7336L7.06043 21.9108L6.28848 22.355V23.2425L5.20728 22.6212Z" fill="#FFFAF6" stroke="#3A3735" stroke-width="0.5" stroke-miterlimit="10" stroke-linejoin="round"/>
<path fill-rule="evenodd" clip-rule="evenodd" d="M6.75194 19.9577V21.7336L5.20725 22.6212V24.3963L4.4353 23.0646V21.2895L6.75194 19.9577Z" fill="#89837E" stroke="#3A3735" stroke-width="0.5" stroke-miterlimit="10" stroke-linejoin="round"/>
<path fill-rule="evenodd" clip-rule="evenodd" d="M18.0244 26.4385L18.6413 26.0833V26.7937L18.0244 26.4385Z" fill="#FFFAF6" stroke="#3A3735" stroke-width="0.5" stroke-miterlimit="10" stroke-linejoin="round"/>
<path fill-rule="evenodd" clip-rule="evenodd" d="M10.4575 15.6963L10.7668 15.5191L12.3107 16.4067L10.4575 17.4722V15.6963Z" fill="#FFFAF6" stroke="#3A3735" stroke-width="0.5" stroke-miterlimit="10" stroke-linejoin="round"/>
<path fill-rule="evenodd" clip-rule="evenodd" d="M12.3108 14.6316V16.4067L10.7669 15.5191L10.4576 15.6963L10.1492 15.5191L9.99414 15.0749V13.2998L12.3108 14.6316Z" fill="#D8CFC7" stroke="#3A3735" stroke-width="0.5" stroke-miterlimit="10" stroke-linejoin="round"/>
<path fill-rule="evenodd" clip-rule="evenodd" d="M8.91357 24.7516L10.4575 23.864L10.7667 24.0412L9.99399 24.4854V25.373L8.91357 24.7516Z" fill="#FFFAF6" stroke="#3A3735" stroke-width="0.5" stroke-miterlimit="10" stroke-linejoin="round"/>
<path fill-rule="evenodd" clip-rule="evenodd" d="M8.14087 25.1957V23.4198L10.4575 22.088V23.8639L8.91361 24.7515V26.5267L8.14087 25.1957Z" fill="#89837E" stroke="#3A3735" stroke-width="0.5" stroke-miterlimit="10" stroke-linejoin="round"/>
<path fill-rule="evenodd" clip-rule="evenodd" d="M0.265625 18.8922L4.43541 21.2895V23.0647L0.265625 20.6681V18.8922Z" fill="#D8CFC7" stroke="#3A3735" stroke-width="0.5" stroke-miterlimit="10" stroke-linejoin="round"/>
<path fill-rule="evenodd" clip-rule="evenodd" d="M6.28857 15.4301L8.60442 16.7619V18.5378L7.06052 17.6494L6.75206 17.8274L6.44281 17.6494L6.28857 17.206V15.4301Z" fill="#D8CFC7" stroke="#3A3735" stroke-width="0.5" stroke-miterlimit="10" stroke-linejoin="round"/>
<path fill-rule="evenodd" clip-rule="evenodd" d="M6.7522 19.6025V17.8274L7.06066 17.6494L8.60456 18.5378L6.7522 19.6025Z" fill="#FFFAF6" stroke="#3A3735" stroke-width="0.5" stroke-miterlimit="10" stroke-linejoin="round"/>
<path fill-rule="evenodd" clip-rule="evenodd" d="M20.3411 28.6578L19.5683 29.1012L19.4117 29.0114L18.6414 27.6812L20.3411 28.6578Z" fill="#B0A9A3" stroke="#3A3735" stroke-width="0.5" stroke-miterlimit="10" stroke-linejoin="round"/>
<path fill-rule="evenodd" clip-rule="evenodd" d="M20.4953 10.8143L21.2672 11.2577L20.3411 11.7908V12.8556L18.6414 11.879L20.4953 10.8143Z" fill="#FFFAF6" stroke="#3A3735" stroke-width="0.5" stroke-miterlimit="10" stroke-linejoin="round"/>
<path fill-rule="evenodd" clip-rule="evenodd" d="M19.2598 14.1874V15.9633L20.958 14.9868V13.9212L21.2672 14.0984V16.5847L17.2524 18.8922V15.3412L19.2598 14.1874Z" fill="#89837E" stroke="#3A3735" stroke-width="0.5" stroke-miterlimit="10" stroke-linejoin="round"/>
<path fill-rule="evenodd" clip-rule="evenodd" d="M14.1638 13.566L17.2524 15.3411V18.8922L14.1638 17.1171V13.566Z" fill="#D8CFC7" stroke="#3A3735" stroke-width="0.5" stroke-miterlimit="10" stroke-linejoin="round"/>
<path fill-rule="evenodd" clip-rule="evenodd" d="M6.75208 17.8274V19.6026L8.60444 18.5378V16.7619L10.4576 15.6963V17.4722L12.3107 16.4067V14.6315L14.1639 13.566V17.1171L6.75208 21.3785V19.9578L6.52033 19.8247L4.89893 18.8922L6.75208 17.8274Z" fill="#89837E" stroke="#3A3735" stroke-width="0.5" stroke-miterlimit="10" stroke-linejoin="round"/>
<path fill-rule="evenodd" clip-rule="evenodd" d="M0.265625 20.6681L4.43541 23.0646L5.20736 24.3964L1.80952 22.4432L0.265625 20.6681Z" fill="#B0A9A3" stroke="#3A3735" stroke-width="0.5" stroke-miterlimit="10" stroke-linejoin="round"/>
<path fill-rule="evenodd" clip-rule="evenodd" d="M57.2476 25.1957V23.4198L59.1007 22.355V24.1301L57.2476 25.1957Z" fill="#89837E" stroke="#3A3735" stroke-width="0.5" stroke-miterlimit="10" stroke-linejoin="round"/>
<path fill-rule="evenodd" clip-rule="evenodd" d="M42.5781 25.6392L44.4305 24.5744L46.7471 25.9054L44.894 26.9709L42.5781 25.6392Z" fill="#FFFAF6" stroke="#3A3735" stroke-width="0.5" stroke-miterlimit="10" stroke-linejoin="round"/>
<path fill-rule="evenodd" clip-rule="evenodd" d="M60.9536 23.0646L65.1234 20.6681L63.5787 22.4432L60.1809 24.3964L60.9536 23.0646Z" fill="#615D5A" stroke="#3A3735" stroke-width="0.5" stroke-miterlimit="10" stroke-linejoin="round"/>
<path fill-rule="evenodd" clip-rule="evenodd" d="M51.2253 17.1171V13.566L53.0777 14.6315V16.4067L54.9309 17.4722V15.6963L56.784 16.7619V18.5378L58.6372 19.6026V17.8274L60.4903 18.8922L58.8689 19.8247L58.6372 19.9578V20.2239V21.3785L51.2253 17.1171Z" fill="#D8CFC7" stroke="#3A3735" stroke-width="0.5" stroke-miterlimit="10" stroke-linejoin="round"/>
<path fill-rule="evenodd" clip-rule="evenodd" d="M48.1367 15.3411L51.2253 13.566V17.1171L48.1367 18.8922V15.3411Z" fill="#89837E" stroke="#3A3735" stroke-width="0.5" stroke-miterlimit="10" stroke-linejoin="round"/>
<path fill-rule="evenodd" clip-rule="evenodd" d="M45.0483 47.6551V47.3007L48.1369 45.5248L48.4462 45.7028L45.0483 47.6551Z" fill="#FFCD52" stroke="#3A3735" stroke-width="0.5" stroke-miterlimit="10" stroke-linejoin="round"/>
<path fill-rule="evenodd" clip-rule="evenodd" d="M46.7471 56.0891V47.389L47.8275 46.7676V56.7105L46.7471 56.0891Z" fill="#C66D00" stroke="#3A3735" stroke-width="0.5" stroke-miterlimit="10" stroke-linejoin="round"/>
<path fill-rule="evenodd" clip-rule="evenodd" d="M43.9668 28.3916L44.1218 28.3026V28.4798L43.9668 28.3916Z" fill="#A38261" stroke="#3A3735" stroke-width="0.5" stroke-miterlimit="10" stroke-linejoin="round"/>
<path fill-rule="evenodd" clip-rule="evenodd" d="M46.2838 31.4985V29.7234L45.5118 29.2792L45.9753 29.013L46.7473 27.6812V26.7937L47.6734 26.2605L48.1369 27.7702V45.5248L45.0483 47.3007V33.0965L46.2838 31.4985Z" fill="#89837E" stroke="#3A3735" stroke-width="0.5" stroke-miterlimit="10" stroke-linejoin="round"/>
<path fill-rule="evenodd" clip-rule="evenodd" d="M8.70493 30.7606V31.6481L6.65088 30.4676V29.58L8.70493 30.7606Z" fill="#FF9C1A" stroke="#3A3735" stroke-width="0.5" stroke-miterlimit="10" stroke-linejoin="round"/>
<path fill-rule="evenodd" clip-rule="evenodd" d="M7.73215 31.089V32.5098L6.96021 32.9532V30.6456L7.73215 31.089Z" fill="#89837E" stroke="#3A3735" stroke-width="0.5" stroke-miterlimit="10" stroke-linejoin="round"/>
<path fill-rule="evenodd" clip-rule="evenodd" d="M38.8716 24.5744V19.4254L39.952 18.804V25.1958L38.8716 24.5744Z" fill="#C66D00" stroke="#3A3735" stroke-width="0.5" stroke-miterlimit="10" stroke-linejoin="round"/>
<path fill-rule="evenodd" clip-rule="evenodd" d="M7.73215 32.5098L9.01425 33.2461V34.1345L6.96021 32.9532L7.73215 32.5098Z" fill="#FFFAF6" stroke="#3A3735" stroke-width="0.5" stroke-miterlimit="10" stroke-linejoin="round"/>
<path fill-rule="evenodd" clip-rule="evenodd" d="M37.4814 20.224L38.8719 19.4254V24.5744L37.4814 25.373V20.224Z" fill="#3A3735" stroke="#3A3735" stroke-width="0.5" stroke-miterlimit="10" stroke-linejoin="round"/>
<path fill-rule="evenodd" clip-rule="evenodd" d="M26.2627 41.7422L27.2355 42.3014L27.544 42.1242V43.8994L26.2627 43.1622V41.7422Z" fill="#3A3735" stroke="#3A3735" stroke-width="0.5" stroke-miterlimit="10" stroke-linejoin="round"/>
<path fill-rule="evenodd" clip-rule="evenodd" d="M6.96013 29.402L9.01418 30.5834L8.70493 30.7606L6.65088 29.58L6.96013 29.402Z" fill="#FFCD52" stroke="#3A3735" stroke-width="0.5" stroke-miterlimit="10" stroke-linejoin="round"/>
<path fill-rule="evenodd" clip-rule="evenodd" d="M7.73193 32.5097V31.0889L8.70478 31.6481L9.01403 31.4709V33.246L7.73193 32.5097Z" fill="#3A3735" stroke="#3A3735" stroke-width="0.5" stroke-miterlimit="10" stroke-linejoin="round"/>
<path fill-rule="evenodd" clip-rule="evenodd" d="M9.01409 30.5834V31.471L8.70483 31.6482V30.7606L9.01409 30.5834Z" fill="#C66D00" stroke="#3A3735" stroke-width="0.5" stroke-miterlimit="10" stroke-linejoin="round"/>
<path fill-rule="evenodd" clip-rule="evenodd" d="M26.2629 43.1622L27.5442 43.8994V44.787L25.491 43.6064L26.2629 43.1622Z" fill="#FFFAF6" stroke="#3A3735" stroke-width="0.5" stroke-miterlimit="10" stroke-linejoin="round"/>
<path fill-rule="evenodd" clip-rule="evenodd" d="M27.5441 41.2357V42.1241L27.2356 42.3013V41.4137L27.5441 41.2357Z" fill="#C66D00" stroke="#3A3735" stroke-width="0.5" stroke-miterlimit="10" stroke-linejoin="round"/>
<path fill-rule="evenodd" clip-rule="evenodd" d="M27.2356 41.4138V42.3013L25.1824 41.1208V40.2332L27.2356 41.4138Z" fill="#FF9C1A" stroke="#3A3735" stroke-width="0.5" stroke-miterlimit="10" stroke-linejoin="round"/>
<path fill-rule="evenodd" clip-rule="evenodd" d="M25.4908 40.0552L27.5441 41.2358L27.2356 41.4138L25.1824 40.2332L25.4908 40.0552Z" fill="#FFCD52" stroke="#3A3735" stroke-width="0.5" stroke-miterlimit="10" stroke-linejoin="round"/>
<path fill-rule="evenodd" clip-rule="evenodd" d="M26.2629 41.7421V43.1621L25.491 43.6062V41.2979L26.2629 41.7421Z" fill="#89837E" stroke="#3A3735" stroke-width="0.5" stroke-miterlimit="10" stroke-linejoin="round"/>
<path fill-rule="evenodd" clip-rule="evenodd" d="M37.8442 42.1242L38.1535 42.3014L39.1263 41.7422V43.1622L37.8442 43.8994V42.1242Z" fill="#3A3735" stroke="#3A3735" stroke-width="0.5" stroke-miterlimit="10" stroke-linejoin="round"/>
<path fill-rule="evenodd" clip-rule="evenodd" d="M58.7384 42.0084V42.8959L56.6843 44.0765V43.1889L58.7384 42.0084Z" fill="#C66D00" stroke="#3A3735" stroke-width="0.5" stroke-miterlimit="10" stroke-linejoin="round"/>
<path fill-rule="evenodd" clip-rule="evenodd" d="M37.8442 54.5526L38.1535 54.7298L39.1263 54.1707V55.5914L37.8442 56.3278V54.5526Z" fill="#3A3735" stroke="#3A3735" stroke-width="0.5" stroke-miterlimit="10" stroke-linejoin="round"/>
<path fill-rule="evenodd" clip-rule="evenodd" d="M37.8442 42.1241V41.2357L38.1535 41.4137V42.3013L37.8442 42.1241Z" fill="#FF9C1A" stroke="#3A3735" stroke-width="0.5" stroke-miterlimit="10" stroke-linejoin="round"/>
<path fill-rule="evenodd" clip-rule="evenodd" d="M40.2076 40.2332V41.1208L38.1536 42.3013V41.4138L40.2076 40.2332Z" fill="#C66D00" stroke="#3A3735" stroke-width="0.5" stroke-miterlimit="10" stroke-linejoin="round"/>
<path fill-rule="evenodd" clip-rule="evenodd" d="M37.8442 41.2358L39.8983 40.0552L40.2075 40.2332L38.1535 41.4138L37.8442 41.2358Z" fill="#FFCD52" stroke="#3A3735" stroke-width="0.5" stroke-miterlimit="10" stroke-linejoin="round"/>
<path fill-rule="evenodd" clip-rule="evenodd" d="M57.6562 44.938V43.5173L58.429 43.0739V45.3814L57.6562 44.938Z" fill="#B0A9A3" stroke="#3A3735" stroke-width="0.5" stroke-miterlimit="10" stroke-linejoin="round"/>
<path fill-rule="evenodd" clip-rule="evenodd" d="M56.375 43.0118L58.4291 41.8312L58.7383 42.0084L56.6843 43.189L56.375 43.0118Z" fill="#FFCD52" stroke="#3A3735" stroke-width="0.5" stroke-miterlimit="10" stroke-linejoin="round"/>
<path fill-rule="evenodd" clip-rule="evenodd" d="M56.375 43.8993L56.6843 44.0765L57.6563 43.5173V44.9381L56.375 45.6744V43.8993Z" fill="#3A3735" stroke="#3A3735" stroke-width="0.5" stroke-miterlimit="10" stroke-linejoin="round"/>
<path fill-rule="evenodd" clip-rule="evenodd" d="M39.1262 55.5914V54.1706L39.8982 53.7264V56.0348L39.1262 55.5914Z" fill="#B0A9A3" stroke="#3A3735" stroke-width="0.5" stroke-miterlimit="10" stroke-linejoin="round"/>
<path fill-rule="evenodd" clip-rule="evenodd" d="M37.8442 56.3277L39.1263 55.5914L39.8983 56.0348L37.8442 57.2153V56.3277Z" fill="#B0A9A3" stroke="#3A3735" stroke-width="0.5" stroke-miterlimit="10" stroke-linejoin="round"/>
<path fill-rule="evenodd" clip-rule="evenodd" d="M37.8442 53.6642L39.8983 52.4836L40.2075 52.6616L38.1535 53.8422L37.8442 53.6642Z" fill="#FFCD52" stroke="#3A3735" stroke-width="0.5" stroke-miterlimit="10" stroke-linejoin="round"/>
<path fill-rule="evenodd" clip-rule="evenodd" d="M40.2076 52.6616V53.5492L38.1536 54.7297V53.8422L40.2076 52.6616Z" fill="#C66D00" stroke="#3A3735" stroke-width="0.5" stroke-miterlimit="10" stroke-linejoin="round"/>
<path fill-rule="evenodd" clip-rule="evenodd" d="M37.8442 54.5525V53.6641L38.1535 53.8421V54.7297L37.8442 54.5525Z" fill="#FF9C1A" stroke="#3A3735" stroke-width="0.5" stroke-miterlimit="10" stroke-linejoin="round"/>
<path fill-rule="evenodd" clip-rule="evenodd" d="M56.375 45.6744L57.6563 44.938L58.429 45.3814L56.375 46.5628V45.6744Z" fill="#B0A9A3" stroke="#3A3735" stroke-width="0.5" stroke-miterlimit="10" stroke-linejoin="round"/>
<path fill-rule="evenodd" clip-rule="evenodd" d="M39.1262 43.1621V41.7421L39.8982 41.2979V43.6062L39.1262 43.1621Z" fill="#B0A9A3" stroke="#3A3735" stroke-width="0.5" stroke-miterlimit="10" stroke-linejoin="round"/>
<path fill-rule="evenodd" clip-rule="evenodd" d="M56.375 43.8993V43.0117L56.6843 43.1889V44.0765L56.375 43.8993Z" fill="#FF9C1A" stroke="#3A3735" stroke-width="0.5" stroke-miterlimit="10" stroke-linejoin="round"/>
<path fill-rule="evenodd" clip-rule="evenodd" d="M37.8442 43.8994L39.1263 43.1622L39.8983 43.6064L37.8442 44.787V43.8994Z" fill="#B0A9A3" stroke="#3A3735" stroke-width="0.5" stroke-miterlimit="10" stroke-linejoin="round"/>
<path fill-rule="evenodd" clip-rule="evenodd" d="M45.0483 48.3655L46.7473 47.3889V56.089L45.0483 57.0656V48.9869V48.3655Z" fill="#3A3735" stroke="#3A3735" stroke-width="0.5" stroke-miterlimit="10" stroke-linejoin="round"/>
<path fill-rule="evenodd" clip-rule="evenodd" d="M44.1221 11.2577L44.894 10.8143L46.7472 11.879L45.0483 12.8556V11.7908L44.1221 11.2577Z" fill="#FFFAF6" stroke="#3A3735" stroke-width="0.5" stroke-miterlimit="10" stroke-linejoin="round"/>
<path fill-rule="evenodd" clip-rule="evenodd" d="M60.4904 18.8921L58.6372 17.8274L60.9538 16.4956L65.1236 18.8921L60.9538 21.2894L58.6372 19.9577L60.4904 18.8921Z" fill="#FFFAF6" stroke="#3A3735" stroke-width="0.5" stroke-miterlimit="10" stroke-linejoin="round"/>
<path fill-rule="evenodd" clip-rule="evenodd" d="M54.9309 22.0881L56.7841 21.0233L59.1007 22.3551L57.2475 23.4198L54.9309 22.0881Z" fill="#FFFAF6" stroke="#3A3735" stroke-width="0.5" stroke-miterlimit="10" stroke-linejoin="round"/>
<path fill-rule="evenodd" clip-rule="evenodd" d="M59.1007 15.4301L56.7841 16.7618L54.9309 15.6963L57.2475 14.3653L59.1007 15.4301Z" fill="#FFFAF6" stroke="#3A3735" stroke-width="0.5" stroke-miterlimit="10" stroke-linejoin="round"/>
<path fill-rule="evenodd" clip-rule="evenodd" d="M44.4304 14.9867L45.8201 14.1873V15.7853L44.4304 14.9867Z" fill="#FFFAF6" stroke="#3A3735" stroke-width="0.5" stroke-miterlimit="10" stroke-linejoin="round"/>
<path fill-rule="evenodd" clip-rule="evenodd" d="M54.6223 24.0412L54.9308 23.864L56.4755 24.7516L55.3943 25.373V24.4854L54.6223 24.0412Z" fill="#FFFAF6" stroke="#3A3735" stroke-width="0.5" stroke-miterlimit="10" stroke-linejoin="round"/>
<path fill-rule="evenodd" clip-rule="evenodd" d="M45.8201 14.0102L51.2253 10.9025L55.3943 13.2998L53.0776 14.6316L51.2253 13.566L48.1367 15.3412L45.8201 14.0102Z" fill="#FFFAF6" stroke="#3A3735" stroke-width="0.5" stroke-miterlimit="10" stroke-linejoin="round"/>
<path fill-rule="evenodd" clip-rule="evenodd" d="M56.4756 24.7515L54.9309 23.8639V22.088L57.2475 23.4198V25.1957L56.4756 26.5267V24.7515Z" fill="#D8CFC7" stroke="#3A3735" stroke-width="0.5" stroke-miterlimit="10" stroke-linejoin="round"/>
<path fill-rule="evenodd" clip-rule="evenodd" d="M46.7469 25.9053V27.6813L44.8938 28.7468V26.9709L46.7469 25.9053Z" fill="#89837E" stroke="#3A3735" stroke-width="0.5" stroke-miterlimit="10" stroke-linejoin="round"/>
<path fill-rule="evenodd" clip-rule="evenodd" d="M44.4305 13.9212V14.9868L45.8202 15.7853V14.0102L48.1368 15.3412V18.8922L44.1221 16.5847V14.0984L44.4305 13.9212Z" fill="#D8CFC7" stroke="#3A3735" stroke-width="0.5" stroke-miterlimit="10" stroke-linejoin="round"/>
<path fill-rule="evenodd" clip-rule="evenodd" d="M45.0481 13.566V12.8556L46.7471 11.879V13.477L45.8201 14.0101V14.1873L44.4304 14.9867V13.9212L45.0481 13.566Z" fill="#89837E" stroke="#3A3735" stroke-width="0.5" stroke-miterlimit="10" stroke-linejoin="round"/>
<path fill-rule="evenodd" clip-rule="evenodd" d="M58.3279 21.9108L58.6371 21.7336L60.181 22.6212L59.1006 23.2425V22.355L58.3279 21.9108Z" fill="#FFFAF6" stroke="#3A3735" stroke-width="0.5" stroke-miterlimit="10" stroke-linejoin="round"/>
<path fill-rule="evenodd" clip-rule="evenodd" d="M59.1006 15.4301V17.206L58.9463 17.6494L58.6371 17.8274L58.3278 17.6494L56.7839 18.5378V16.7619L59.1006 15.4301Z" fill="#89837E" stroke="#3A3735" stroke-width="0.5" stroke-miterlimit="10" stroke-linejoin="round"/>
<path fill-rule="evenodd" clip-rule="evenodd" d="M56.7839 18.5378L58.3278 17.6494L58.6371 17.8274V19.6025L56.7839 18.5378Z" fill="#FFFAF6" stroke="#3A3735" stroke-width="0.5" stroke-miterlimit="10" stroke-linejoin="round"/>
<path fill-rule="evenodd" clip-rule="evenodd" d="M45.9751 25.4619L46.1293 25.3729L47.6732 26.2605L46.747 26.7937V25.9053L45.9751 25.4619Z" fill="#FFFAF6" stroke="#3A3735" stroke-width="0.5" stroke-miterlimit="10" stroke-linejoin="round"/>
<path fill-rule="evenodd" clip-rule="evenodd" d="M53.0776 16.4067L54.6223 15.5191L54.9308 15.6963V17.4722L53.0776 16.4067Z" fill="#FFFAF6" stroke="#3A3735" stroke-width="0.5" stroke-miterlimit="10" stroke-linejoin="round"/>
<path fill-rule="evenodd" clip-rule="evenodd" d="M55.3943 13.2998V15.0749L55.24 15.5191L54.9308 15.6963L54.6223 15.5191L53.0776 16.4067V14.6316L55.3943 13.2998Z" fill="#89837E" stroke="#3A3735" stroke-width="0.5" stroke-miterlimit="10" stroke-linejoin="round"/>
<path fill-rule="evenodd" clip-rule="evenodd" d="M58.6372 19.9577L60.9538 21.2895V23.0646L60.1811 24.3963V22.6212L58.6372 21.7336V19.9577Z" fill="#D8CFC7" stroke="#3A3735" stroke-width="0.5" stroke-miterlimit="10" stroke-linejoin="round"/>
<path fill-rule="evenodd" clip-rule="evenodd" d="M6.7522 21.3785L14.164 17.1171L17.2526 18.8922L21.2674 16.5847V22.4433L32.6947 29.0131L36.401 26.882L36.7095 27.06L37.4814 26.6158V25.373L38.8719 24.5744L39.8756 25.1517L39.9523 25.1958L40.0298 25.1517L40.7251 24.7516V24.3964L44.1221 22.4433V16.5847L48.1369 18.8922L51.2255 17.1171L58.6373 21.3785V21.7337L58.328 21.9109L56.7841 21.0234L54.931 22.0881V23.8641L54.6225 24.0413L53.0778 23.1537L51.2255 24.2192L48.1369 22.4433L46.1295 23.5979V25.373L45.9753 25.462L44.4306 24.5744L42.5782 25.6392V27.4151L42.4232 27.5033L40.8793 26.6158L38.8719 27.7703V31.3214L40.1065 32.031V32.3862L39.7981 32.5642L38.2534 31.6758L36.401 32.7414V34.5165L36.0918 34.6945L34.5479 33.8069L32.6947 34.8717L30.8416 33.8069L29.2977 34.6945L28.9884 34.5165V32.7414L27.1353 31.6758L25.5914 32.5642L25.2821 32.3862V32.031L26.5176 31.3214V27.7703L24.2017 26.4386L22.8113 27.2372V25.6392L20.9581 24.5744L19.5684 25.373V23.7751L17.2526 22.4433L14.164 24.2192L12.3109 23.1537L10.767 24.0413L10.4577 23.8641V22.0881L8.60456 21.0234L7.06066 21.9109L6.7522 21.7337V21.3785Z" fill="#615D5A" stroke="#3A3735" stroke-width="0.5" stroke-miterlimit="10" stroke-linejoin="round"/>
<path fill-rule="evenodd" clip-rule="evenodd" d="M51.2253 29.5454L51.5338 28.4798L55.3943 26.2605L54.6224 27.5922L51.2253 29.5454Z" fill="#615D5A" stroke="#3A3735" stroke-width="0.5" stroke-miterlimit="10" stroke-linejoin="round"/>
<path fill-rule="evenodd" clip-rule="evenodd" d="M48.1368 22.4433L51.2254 24.2192L53.0777 23.1537L55.3944 24.4854L51.5338 26.7047L46.1294 23.5979L48.1368 22.4433Z" fill="#FFFAF6" stroke="#3A3735" stroke-width="0.5" stroke-miterlimit="10" stroke-linejoin="round"/>
<path fill-rule="evenodd" clip-rule="evenodd" d="M48.1367 27.7703L51.2253 29.5455V57.9533L48.446 56.3553V45.7029L48.1367 45.5249V27.7703Z" fill="#D8CFC7" stroke="#3A3735" stroke-width="0.5" stroke-miterlimit="10" stroke-linejoin="round"/>
<path d="M40.4156 12.6783L32.6946 8.23969L40.4156 12.6783Z" fill="#556178" stroke="#3A3735" stroke-width="0.5" stroke-miterlimit="10" stroke-linejoin="round"/>
<path d="M24.9734 12.6783L32.6945 8.23969L24.9734 12.6783Z" fill="#556178" stroke="#3A3735" stroke-width="0.5" stroke-miterlimit="10" stroke-linejoin="round"/>
<path fill-rule="evenodd" clip-rule="evenodd" d="M29.2976 38.2454L28.5248 36.9137V36.0261L27.4444 35.4047V37.1799L25.5913 36.1143L24.8185 34.7826V33.895L23.7381 33.2736V35.0488L20.3411 33.0956V61.5034L32.6946 68.6056V40.197L29.2976 38.2439V38.2454ZM27.5449 57.2152L25.4908 56.0347V53.7264L25.1824 53.5492V52.6616L25.4908 52.4844L27.5449 53.6649V57.216V57.2152ZM27.5449 44.7869L25.4908 43.6063V41.298L25.1824 41.1208V40.2332L25.4908 40.056L27.5449 41.2366V44.7876V44.7869Z" fill="#D8CFC7" stroke="#3A3735" stroke-width="0.5" stroke-miterlimit="10" stroke-linejoin="round"/>
<path fill-rule="evenodd" clip-rule="evenodd" d="M9.99412 26.2606V25.373L8.91371 24.7516V26.5268L7.06056 25.4612L6.28782 24.1294V23.2419L5.20741 22.6205V24.3956L1.80957 22.4425V50.8503L14.1639 57.9525V29.5447L10.7669 27.5915L9.99412 26.2598V26.2606ZM9.01337 46.5621L6.95932 45.3815V43.0732L6.65007 42.896V42.0085L6.95932 41.8313L9.01337 43.0118V46.5629V46.5621ZM9.01337 34.1337L6.95932 32.9532V30.6449L6.65007 30.4677V29.5801L6.95932 29.4029L9.01337 30.5834V34.1345V34.1337Z" fill="#D8CFC7" stroke="#3A3735" stroke-width="0.5" stroke-miterlimit="10" stroke-linejoin="round"/>
<path fill-rule="evenodd" clip-rule="evenodd" d="M60.1809 24.3964V22.6213L59.1005 23.2427V24.1302L58.3277 25.462L56.4746 26.5275V24.7524L55.3942 25.3738V26.2614L54.6214 27.5931L51.2244 29.5462V57.954L63.5787 50.8519V22.4441L60.1809 24.3972V24.3964ZM58.7374 42.896L58.4282 43.0732V45.3816L56.3741 46.5621V43.011L58.4282 41.8305L58.7374 42.0077V42.8953V42.896ZM58.7374 30.4677L58.4282 30.6449V32.9532L56.3741 34.1337V30.5827L58.4282 29.4021L58.7374 29.5793V30.4669V30.4677Z" fill="#89837E" stroke="#3A3735" stroke-width="0.5" stroke-miterlimit="10" stroke-linejoin="round"/>
<path fill-rule="evenodd" clip-rule="evenodd" d="M41.6511 33.2737L40.5707 33.8951V34.7827L39.7979 36.1144L37.9448 37.18V35.4048L36.8644 36.0262V36.9138L36.0916 38.2455L32.6946 40.1986V68.6072L45.0481 61.5051V33.0973L41.6511 35.0504V33.2753V33.2737ZM40.2076 53.5492L39.8984 53.7264V56.0347L37.8443 57.2153V53.6642L39.8984 52.4837L40.2076 52.6609V53.5485V53.5492ZM40.2076 41.1209L39.8984 41.2981V43.6064L37.8443 44.7869V41.2359L39.8984 40.0553L40.2076 40.2325V41.1201V41.1209Z" fill="#89837E" stroke="#3A3735" stroke-width="0.5" stroke-miterlimit="10" stroke-linejoin="round"/>
</svg>
