<svg width="71" height="66" viewBox="0 0 71 66" fill="none" xmlns="http://www.w3.org/2000/svg">
<path d="M34.095 65.3617L34.1625 41.2773L1.74878 23.9969V46.5288L34.095 65.3617Z" fill="white" stroke="#00402A" stroke-width="0.5" stroke-linecap="round" stroke-linejoin="round"/>
<path d="M34.0952 64.4976L65.6985 45.4082V19.8658L51.288 18.9343L34.0952 41.5067V64.4976Z" fill="#D8CFC7" stroke="#00402A" stroke-width="0.5" stroke-linecap="round" stroke-linejoin="round"/>
<path d="M34.0952 64.1333V65.4428L67.0086 46.3265V45.2194L34.0952 64.1333Z" fill="#D8CFC7" stroke="#00402A" stroke-width="0.5" stroke-linecap="round" stroke-linejoin="round"/>
<path d="M34.0952 64.133V65.4425L0.898193 46.0967V44.9762L34.0952 64.133Z" fill="white" stroke="#00402A" stroke-width="0.5" stroke-linecap="round" stroke-linejoin="round"/>
<path d="M1.74906 45.0166V44.4631L0.898193 44.9762L34.0952 64.133V63.62L1.74906 45.0166Z" fill="white" stroke="#00402A" stroke-width="0.5" stroke-linecap="round" stroke-linejoin="round"/>
<path d="M65.7526 44.8278V45.3408L34.0952 63.6201V64.1331L67.0086 45.2193L65.7526 44.8278Z" fill="#D8CFC7" stroke="#00402A" stroke-width="0.5" stroke-linecap="round" stroke-linejoin="round"/>
<path d="M64.6452 48.4053L57.9329 52.2799V54.4399L64.6452 50.5654V48.4053Z" fill="#D8CFC7" stroke="#00402A" stroke-width="0.5" stroke-linecap="round" stroke-linejoin="round"/>
<path d="M55.7717 51.0515L57.9326 52.28V54.44L55.7717 53.225V51.0515Z" fill="white" stroke="#00402A" stroke-width="0.5" stroke-linecap="round" stroke-linejoin="round"/>
<path d="M64.645 48.4054L57.9326 52.2799L55.7717 51.0514L62.6326 47.2173L64.645 48.4054Z" fill="#FFF5EC" stroke="#00402A" stroke-width="0.5" stroke-linecap="round" stroke-linejoin="round"/>
<path d="M36.9583 2.22095L70.0337 21.1213L51.5039 19.5553L18.3879 0.344421L36.9583 2.22095Z" fill="#00A443" stroke="#00402A" stroke-width="0.5" stroke-linecap="round" stroke-linejoin="round"/>
<path d="M51.8418 19.5148L33.6901 42.2087L0.25 23.4164L18.5772 0.25L51.8418 19.5148Z" fill="#00A443" stroke="#00402A" stroke-width="0.5" stroke-linecap="round" stroke-linejoin="round"/>
<path d="M69.2642 21.4724L51.7743 19.5148L33.6902 42.1142L35.5 40.9937L52.22 20.4328L67.7246 21.7694L69.2642 21.4724Z" fill="#FFCD52" stroke="#00402A" stroke-width="0.5" stroke-linecap="round" stroke-linejoin="round"/>
<path d="M55.6501 51.1054L62.8756 46.7313V29.8696L55.4475 34.3786V51.0514L55.6501 51.1054Z" fill="#FFF5EC" stroke="#00402A" stroke-width="0.5" stroke-linecap="round" stroke-linejoin="round"/>
<path d="M62.8757 46.9744V30.0991L55.6501 34.4596V51.1324L62.8757 46.9744Z" fill="#FFF5EC" stroke="#00402A" stroke-width="0.5" stroke-linecap="round" stroke-linejoin="round"/>
<path d="M60.2018 33.7037C60.499 33.8792 60.6881 34.2573 60.6881 34.7703V34.8243L57.7168 36.5523C57.7168 36.5523 57.7168 36.6198 57.7168 36.6468V36.8493L61.0392 34.9187V34.8648C61.0392 34.1897 60.7016 33.7847 60.2154 33.7172L60.2018 33.7037Z" fill="#FFF5EC" stroke="#00402A" stroke-width="0.5" stroke-linecap="round" stroke-linejoin="round"/>
<path d="M60.6881 34.7703C60.6881 34.2573 60.499 33.8792 60.2018 33.7037C59.9587 33.6632 59.6751 33.6902 59.3645 33.8522C58.4731 34.3382 57.7573 35.5263 57.7168 36.5523L60.6881 34.8243V34.7703Z" fill="#E3850D" stroke="#00402A" stroke-width="0.5" stroke-linecap="round" stroke-linejoin="round"/>
<path d="M60.6338 46.4614L57.7031 48.1895V48.6485L61.0255 46.6909V35.4722L60.6338 35.7017V46.4614Z" fill="#FFF5EC" stroke="#00402A" stroke-width="0.5" stroke-linecap="round" stroke-linejoin="round"/>
<path d="M60.6338 35.7017L57.7031 37.4297V48.1894L60.6338 46.4614V35.7017Z" fill="#E3850D" stroke="#00402A" stroke-width="0.5" stroke-linecap="round" stroke-linejoin="round"/>
<path d="M14.7145 36.2551V48.2973L5.6792 43.1132V31.0845L14.7145 36.2551Z" fill="#E3850D" stroke="#00402A" stroke-width="0.5" stroke-linecap="round" stroke-linejoin="round"/>
<path d="M13.8907 46.7176V36.9029L6.5166 32.6774V42.4785L13.8907 46.7176Z" fill="#B4EDFC" stroke="#00402A" stroke-width="0.5" stroke-linecap="round" stroke-linejoin="round"/>
<path d="M7.32695 42.006L7.29996 33.1634L6.5166 32.6774V42.4785L13.8907 46.7176V45.7726L7.32695 42.006Z" fill="#FFF5EC" stroke="#00402A" stroke-width="0.5" stroke-linecap="round" stroke-linejoin="round"/>
<path d="M28.8686 44.5307V56.5729L19.8333 51.3753V39.3601L28.8686 44.5307Z" fill="#E3850D" stroke="#00402A" stroke-width="0.5" stroke-linecap="round" stroke-linejoin="round"/>
<path d="M28.031 54.9797V45.1651L20.6704 40.953V50.7542L28.031 54.9797Z" fill="#B4EDFC" stroke="#00402A" stroke-width="0.5" stroke-linecap="round" stroke-linejoin="round"/>
<path d="M21.4672 50.2817L21.4537 41.439L20.6704 40.953V50.7542L28.031 54.9797V54.0482L21.4672 50.2817Z" fill="#FFF5EC" stroke="#00402A" stroke-width="0.5" stroke-linecap="round" stroke-linejoin="round"/>
<path d="M40.3755 42.9648V54.791L49.2623 49.6879V37.8752L40.3755 42.9648Z" fill="#E3850D" stroke="#00402A" stroke-width="0.5" stroke-linecap="round" stroke-linejoin="round"/>
<path d="M41.1316 53.3465V43.5318L48.5057 39.3062V49.1209L41.1316 53.3465Z" fill="#B4EDFC" stroke="#00402A" stroke-width="0.5" stroke-linecap="round" stroke-linejoin="round"/>
<path d="M47.6954 48.6484L47.7089 39.8057L48.5057 39.3062V49.1209L41.1316 53.3465V52.4015L47.6954 48.6484Z" fill="#FFF5EC" stroke="#00402A" stroke-width="0.5" stroke-linecap="round" stroke-linejoin="round"/>
<path d="M18.9315 4.73438L5.56079 21.4882L26.6567 33.6654L40.0274 16.8981L18.9315 4.73438Z" fill="#FFF5EC" stroke="#00402A" stroke-width="0.5" stroke-linecap="round" stroke-linejoin="round"/>
<path d="M26.6567 33.6656L26.7242 34.2461L5.62834 22.0824L5.56079 21.4883L26.6567 33.6656Z" fill="#FFF5EC" stroke="#00402A" stroke-width="0.5" stroke-linecap="round" stroke-linejoin="round"/>
<path d="M40.0274 16.8979L26.6567 33.6652L26.7243 34.2457L40.1084 17.5865L40.0274 16.8979Z" fill="#FFF5EC" stroke="#00402A" stroke-width="0.5" stroke-linecap="round" stroke-linejoin="round"/>
<path d="M18.8636 5.69281L16.311 8.89236C16.3516 9.10837 16.3785 9.18938 16.4191 9.40538L20.4978 11.7544C20.6868 11.7274 20.8084 11.7004 20.9975 11.6734L23.5096 8.52787C23.4555 8.28487 23.4285 8.17685 23.388 7.93385L19.3633 5.61182C19.1742 5.63882 19.0527 5.66581 18.8636 5.69281Z" fill="#B4EDFC" stroke="#00402A" stroke-width="0.5" stroke-linecap="round" stroke-linejoin="round"/>
<path d="M23.9686 8.63575L21.416 11.8353C21.4565 12.0513 21.4835 12.1323 21.524 12.3483L25.6028 14.6974C25.7919 14.6704 25.9134 14.6434 26.1025 14.6164L28.6145 11.4708C28.5605 11.2278 28.5335 11.1198 28.493 10.8768L24.4683 8.55475C24.2792 8.58175 24.1577 8.60875 23.9686 8.63575Z" fill="#6BDAFF" stroke="#00402A" stroke-width="0.5" stroke-linecap="round" stroke-linejoin="round"/>
<path d="M29.0743 11.5789L26.5217 14.7784C26.5622 14.9944 26.5892 15.0754 26.6298 15.2914L30.7085 17.6405C30.8976 17.6135 31.0191 17.5865 31.2082 17.5595L33.7202 14.4139C33.6662 14.1709 33.6392 14.0629 33.5987 13.8199L29.574 11.4979C29.3849 11.5249 29.2634 11.5519 29.0743 11.5789Z" fill="#6BDAFF" stroke="#00402A" stroke-width="0.5" stroke-linecap="round" stroke-linejoin="round"/>
<path d="M34.1656 14.5084L31.613 17.7079C31.6536 17.9239 31.6806 18.0049 31.7211 18.2209L35.7998 20.57C35.9889 20.543 36.1104 20.516 36.2995 20.489L38.8116 17.3434C38.7576 17.1004 38.7305 16.9924 38.69 16.7494L34.6653 14.4274C34.4763 14.4544 34.3547 14.4814 34.1656 14.5084Z" fill="#6BDAFF" stroke="#00402A" stroke-width="0.5" stroke-linecap="round" stroke-linejoin="round"/>
<path d="M15.5953 9.78351L13.0427 12.9831C13.0832 13.1991 13.1103 13.2801 13.1508 13.4961L17.2295 15.8451C17.4186 15.8181 17.5401 15.7911 17.7292 15.7641L20.2413 12.6186C20.1873 12.3756 20.1602 12.2676 20.1197 12.0246L16.095 9.70251C15.9059 9.72952 15.7844 9.75651 15.5953 9.78351Z" fill="#6BDAFF" stroke="#00402A" stroke-width="0.5" stroke-linecap="round" stroke-linejoin="round"/>
<path d="M20.7003 12.7264L18.1477 15.926C18.1882 16.142 18.2153 16.223 18.2558 16.439L22.3345 18.7881C22.5236 18.7611 22.6451 18.7341 22.8342 18.7071L25.3463 15.5615C25.2922 15.3185 25.2652 15.2105 25.2247 14.9675L21.2 12.6454C21.0109 12.6724 20.8894 12.6994 20.7003 12.7264Z" fill="#6BDAFF" stroke="#00402A" stroke-width="0.5" stroke-linecap="round" stroke-linejoin="round"/>
<path d="M25.7921 15.6697L23.2395 18.8692C23.28 19.0852 23.307 19.1662 23.3475 19.3822L27.4262 21.7313C27.6153 21.7043 27.7369 21.6773 27.9259 21.6503L30.438 18.5047C30.384 18.2617 30.357 18.1537 30.3165 17.9107L26.2918 15.5887C26.1027 15.6157 25.9811 15.6427 25.7921 15.6697Z" fill="#B4EDFC" stroke="#00402A" stroke-width="0.5" stroke-linecap="round" stroke-linejoin="round"/>
<path d="M30.897 18.6126L28.3445 21.8122C28.385 22.0282 28.412 22.1092 28.4525 22.3252L32.5312 24.6742C32.7203 24.6472 32.8419 24.6202 33.031 24.5932L35.543 21.4477C35.489 21.2047 35.462 21.0967 35.4215 20.8537L31.3967 18.5316C31.2077 18.5586 31.0861 18.5856 30.897 18.6126Z" fill="#6BDAFF" stroke="#00402A" stroke-width="0.5" stroke-linecap="round" stroke-linejoin="round"/>
<path d="M12.3272 13.8876L9.77466 17.0872C9.81518 17.3032 9.84217 17.3842 9.88269 17.6002L13.9614 19.9493C14.1505 19.9223 14.2721 19.8953 14.4611 19.8683L16.9732 16.7227C16.9192 16.4797 16.8921 16.3717 16.8516 16.1287L12.8269 13.8066C12.6378 13.8336 12.5163 13.8606 12.3272 13.8876Z" fill="#B4EDFC" stroke="#00402A" stroke-width="0.5" stroke-linecap="round" stroke-linejoin="round"/>
<path d="M17.4324 16.8306L14.8799 20.0301C14.9204 20.2461 14.9474 20.3271 14.9879 20.5431L19.0666 22.8922C19.2557 22.8652 19.3773 22.8382 19.5664 22.8112L22.0784 19.6656C22.0244 19.4226 21.9974 19.3146 21.9569 19.0716L17.9321 16.7496C17.7431 16.7766 17.6215 16.8036 17.4324 16.8306Z" fill="#6BDAFF" stroke="#00402A" stroke-width="0.5" stroke-linecap="round" stroke-linejoin="round"/>
<path d="M22.5237 19.7738L19.9712 22.9734C20.0117 23.1894 20.0387 23.2704 20.0792 23.4864L24.158 25.8354C24.347 25.8084 24.4686 25.7814 24.6577 25.7544L27.1697 22.6089C27.1157 22.3659 27.0887 22.2579 27.0482 22.0149L23.0235 19.6928C22.8344 19.7198 22.7128 19.7468 22.5237 19.7738Z" fill="#6BDAFF" stroke="#00402A" stroke-width="0.5" stroke-linecap="round" stroke-linejoin="round"/>
<path d="M27.6288 22.7167L25.0762 25.9163C25.1167 26.1323 25.1437 26.2133 25.1842 26.4293L29.2629 28.7784C29.452 28.7514 29.5736 28.7243 29.7627 28.6973L32.2747 25.5518C32.2207 25.3088 32.1937 25.2008 32.1531 24.9578L28.1285 22.6357C27.9394 22.6627 27.8178 22.6897 27.6288 22.7167Z" fill="#6BDAFF" stroke="#00402A" stroke-width="0.5" stroke-linecap="round" stroke-linejoin="round"/>
<path d="M9.05846 17.9781L6.50586 21.1777C6.54638 21.3937 6.57337 21.4747 6.61389 21.6907L10.6926 24.0397C10.8817 24.0127 11.0033 23.9857 11.1923 23.9587L13.7044 20.8132C13.6504 20.5701 13.6234 20.4621 13.5828 20.2191L9.55816 17.8971C9.36908 17.9241 9.24754 17.9511 9.05846 17.9781Z" fill="#6BDAFF" stroke="#00402A" stroke-width="0.5" stroke-linecap="round" stroke-linejoin="round"/>
<path d="M14.1503 20.921L11.5977 24.1206C11.6382 24.3366 11.6652 24.4176 11.7057 24.6336L15.7844 26.9826C15.9735 26.9556 16.0951 26.9286 16.2841 26.9016L18.7962 23.7561C18.7422 23.5131 18.7152 23.4051 18.6747 23.1621L14.65 20.84C14.4609 20.867 14.3393 20.894 14.1503 20.921Z" fill="#B4EDFC" stroke="#00402A" stroke-width="0.5" stroke-linecap="round" stroke-linejoin="round"/>
<path d="M19.2555 23.8641L16.7029 27.0637C16.7434 27.2797 16.7704 27.3607 16.8109 27.5767L20.8897 29.9258C21.0787 29.8988 21.2003 29.8718 21.3894 29.8448L23.9014 26.6992C23.8474 26.4562 23.8204 26.3482 23.7799 26.1052L19.7552 23.7831C19.5661 23.8101 19.4446 23.8371 19.2555 23.8641Z" fill="#6BDAFF" stroke="#00402A" stroke-width="0.5" stroke-linecap="round" stroke-linejoin="round"/>
<path d="M24.3602 26.8072L21.8076 30.0067C21.8481 30.2227 21.8752 30.3038 21.9157 30.5198L25.9944 32.8688C26.1835 32.8418 26.305 32.8148 26.4941 32.7878L29.0062 29.6423C28.9522 29.3992 28.9251 29.2912 28.8846 29.0482L24.8599 26.7262C24.6708 26.7532 24.5493 26.7802 24.3602 26.8072Z" fill="#B4EDFC" stroke="#00402A" stroke-width="0.5" stroke-linecap="round" stroke-linejoin="round"/>
<path d="M37.7551 23.3489V18.5293L41.6718 19.3663V25.5494L37.7551 23.3489Z" fill="white" stroke="#00402A" stroke-width="0.5" stroke-linecap="round" stroke-linejoin="round"/>
<path d="M41.6716 25.5495L45.0346 21.3104V18.7319L41.6716 19.3664V25.5495Z" fill="#D8CFC7" stroke="#00402A" stroke-width="0.5" stroke-linecap="round" stroke-linejoin="round"/>
<path d="M45.035 18.7317L41.1318 16.4637L37.7554 18.5292L41.672 20.6758L45.035 18.7317Z" fill="#D8CFC7" stroke="#00402A" stroke-width="0.5" stroke-linecap="round" stroke-linejoin="round"/>
<path d="M39.1733 18.4886L41.2127 17.3411L43.5492 18.7316L41.6313 19.8656L39.1733 18.4886Z" fill="#FFF5EC" stroke="#00402A" stroke-width="0.5" stroke-linecap="round" stroke-linejoin="round"/>
<path d="M41.2127 17.3411V19.6361L39.1733 18.4886L41.2127 17.3411Z" fill="#FFF5EC" stroke="#00402A" stroke-width="0.5" stroke-linecap="round" stroke-linejoin="round"/>
</svg>
