<svg width="88" height="70" viewBox="0 0 88 70" fill="none" xmlns="http://www.w3.org/2000/svg">
<path d="M0.417519 38.0093L26.3815 53.0332L87.4336 17.6902L61.4696 2.66626L0.417519 38.0093Z" fill="#00A443" stroke="#00402A" stroke-width="0.5" stroke-linejoin="round"/>
<path d="M0.417568 54.6123L26.3816 69.6362V53.0333L0.417568 38.0093V54.6123Z" fill="#939598" stroke="#00402A" stroke-width="0.5" stroke-linejoin="round"/>
<path d="M3.53588 42.802L3.45632 42.7462V45.306L12.2383 50.3938V50.2901L3.53588 45.2582V42.802Z" fill="#3A3735" stroke="#00402A" stroke-width="0.5" stroke-linejoin="round"/>
<path d="M3.88575 42.9933L3.55164 42.8019L3.53574 45.258L12.2461 50.2899V49.8992L3.88575 45.0667V42.9933Z" fill="#3CC2FF" stroke="#00402A" stroke-width="0.5" stroke-linejoin="round"/>
<path d="M3.88575 45.0667L12.2461 49.8993V47.8339L3.88575 42.9933V45.0667Z" fill="#3CC2FF" stroke="#00402A" stroke-width="0.5" stroke-linejoin="round"/>
<path d="M6.4394 47.0364L6.51099 47.0763V44.5164L6.4394 44.4766V47.0364Z" fill="#3A3735" stroke="#00402A" stroke-width="0.5" stroke-linejoin="round"/>
<path d="M9.70073 48.9264L9.78027 48.9663V46.4065L9.70073 46.3666V48.9264Z" fill="#3A3735" stroke="#00402A" stroke-width="0.5" stroke-linejoin="round"/>
<path d="M3.36084 42.5866L12.3496 47.794V50.5531L3.36084 45.3538V42.5866ZM9.7007 48.9263L12.2382 50.3937V47.8338L9.7007 46.3586V48.9184V48.9263ZM6.43929 47.0364L9.6291 48.8865V46.3267L6.43929 44.4766V47.0364ZM3.45629 45.3059L6.37565 46.9965V44.4367L3.45629 42.7541V45.3139V45.3059Z" fill="#454545" stroke="#00402A" stroke-width="0.5" stroke-linejoin="round"/>
<path d="M3.53588 48.9663L3.45632 48.9105V51.4703L12.2383 56.558V56.4544L3.53588 51.4145V48.9663Z" fill="#3A3735" stroke="#00402A" stroke-width="0.5" stroke-linejoin="round"/>
<path d="M3.88575 49.1657L3.55164 48.9663L3.53574 51.4145L12.2461 56.4544V56.0636L3.88575 51.2231V49.1657Z" fill="#3CC2FF" stroke="#00402A" stroke-width="0.5" stroke-linejoin="round"/>
<path d="M3.88575 51.223L12.2461 56.0635V53.9981L3.88575 49.1656V51.223Z" fill="#3CC2FF" stroke="#00402A" stroke-width="0.5" stroke-linejoin="round"/>
<path d="M6.4394 53.2007L6.51099 53.2406V50.6808L6.4394 50.6409V53.2007Z" fill="#3A3735" stroke="#00402A" stroke-width="0.5" stroke-linejoin="round"/>
<path d="M9.70073 55.0907L9.78027 55.1306V52.5707L9.70073 52.5229V55.0907Z" fill="#3A3735" stroke="#00402A" stroke-width="0.5" stroke-linejoin="round"/>
<path d="M3.36084 48.751L12.3496 53.9583V56.7255L3.36084 51.5181V48.751ZM9.7007 55.0907L12.2382 56.558V53.9982L9.7007 52.5229V55.0907ZM6.43929 53.2007L9.6291 55.0508V52.491L6.43929 50.6409V53.2007ZM3.45629 51.4703L6.37565 53.1609V50.5931L3.45629 48.9105V51.4703Z" fill="#454545" stroke="#00402A" stroke-width="0.5" stroke-linejoin="round"/>
<path d="M16.1521 50.0986L16.0646 50.0428V52.6106L24.8545 57.6983V57.5787L16.1521 52.5468V50.0986Z" fill="#3A3735" stroke="#00402A" stroke-width="0.5" stroke-linejoin="round"/>
<path d="M16.4941 50.29L16.1521 50.0986V52.5468L24.8545 57.5867V57.1959L16.4941 52.3634V50.29Z" fill="#3CC2FF" stroke="#00402A" stroke-width="0.5" stroke-linejoin="round"/>
<path d="M16.4941 52.3634L24.8545 57.1959V55.1305L16.4941 50.29V52.3634Z" fill="#3CC2FF" stroke="#00402A" stroke-width="0.5" stroke-linejoin="round"/>
<path d="M19.0555 54.333L19.1191 54.3729V51.8131L19.0555 51.7732V54.333Z" fill="#3A3735" stroke="#00402A" stroke-width="0.5" stroke-linejoin="round"/>
<path d="M22.3167 56.223L22.3804 56.2628V53.703L22.3167 53.6631V56.223Z" fill="#3A3735" stroke="#00402A" stroke-width="0.5" stroke-linejoin="round"/>
<path d="M15.9691 49.8834L24.9658 55.0907V57.8499L15.9691 52.6505V49.8834ZM22.3169 56.2231L24.8545 57.6984V55.1306L22.3169 53.6633V56.2231ZM19.0555 54.3331L22.2453 56.1912V53.6234L19.0555 51.7733V54.3331ZM16.0645 52.6107L18.9839 54.3012V51.7414L16.0645 50.0508V52.6107Z" fill="#454545" stroke="#00402A" stroke-width="0.5" stroke-linejoin="round"/>
<path d="M16.1521 56.2231L16.0646 56.1672V58.727L24.8545 63.8148V63.7111L16.1521 58.6792V56.2231Z" fill="#3A3735" stroke="#00402A" stroke-width="0.5" stroke-linejoin="round"/>
<path d="M16.4941 56.4224L16.1521 56.223V58.6792L24.8545 63.7111V63.3203L16.4941 58.4878V56.4224Z" fill="#3CC2FF" stroke="#00402A" stroke-width="0.5" stroke-linejoin="round"/>
<path d="M16.4941 58.4878L24.8545 63.3203V61.2549L16.4941 56.4224V58.4878Z" fill="#3CC2FF" stroke="#00402A" stroke-width="0.5" stroke-linejoin="round"/>
<path d="M19.0555 60.4575L19.1191 60.4974V57.9376L19.0555 57.8977V60.4575Z" fill="#3A3735" stroke="#00402A" stroke-width="0.5" stroke-linejoin="round"/>
<path d="M22.3167 62.3474L22.3804 62.3873V59.8275L22.3167 59.7876V62.3474Z" fill="#3A3735" stroke="#00402A" stroke-width="0.5" stroke-linejoin="round"/>
<path d="M15.9691 56.0077L24.9658 61.207V63.9742L15.9691 58.7668V55.9997V56.0077ZM22.3169 62.3474L24.8545 63.8227V61.2629L22.3169 59.7956V62.3554V62.3474ZM19.0555 60.4574L22.2453 62.3075V59.7477L19.0555 57.8976V60.4574ZM16.0645 58.727L18.9839 60.4096V57.8498L16.0645 56.1672V58.727Z" fill="#454545" stroke="#00402A" stroke-width="0.5" stroke-linejoin="round"/>
<path d="M26.3815 69.6362L87.4336 34.2932V17.6903L26.3815 53.0333V69.6362Z" fill="#BCBEC0" stroke="#00402A" stroke-width="0.5" stroke-linejoin="round"/>
<path d="M40.9626 49.9711L32.2681 55.003V55.1067L41.05 50.019V47.4592L40.9626 47.515V49.9711Z" fill="#454545" stroke="#00402A" stroke-width="0.5" stroke-linejoin="round"/>
<path d="M40.6203 49.7798L32.2679 54.6123V55.0031L40.9624 49.9712V47.515L40.6203 47.7144V49.7798Z" fill="#3CC2FF" stroke="#00402A" stroke-width="0.5" stroke-linejoin="round"/>
<path d="M32.268 54.6123L40.6204 49.7797V47.7143L32.268 52.5468V54.6123Z" fill="#3CC2FF" stroke="#00402A" stroke-width="0.5" stroke-linejoin="round"/>
<path d="M38.0033 51.7893L38.0669 51.7494V49.1896L38.0033 49.2295V51.7893Z" fill="#454545" stroke="#00402A" stroke-width="0.5" stroke-linejoin="round"/>
<path d="M34.7338 53.6872L34.8054 53.6394V51.0795L34.7338 51.1194V53.6872Z" fill="#454545" stroke="#00402A" stroke-width="0.5" stroke-linejoin="round"/>
<path d="M32.1566 52.507L41.1533 47.2996V50.0588L32.1566 55.2661V52.507ZM38.1385 51.7175L41.0499 50.0269V47.4671L38.1385 49.1577V51.7175ZM34.8771 53.5995L38.0669 51.7494V49.1896L34.8771 51.0397V53.5995ZM32.268 55.1067L34.8055 53.6394V51.0795L32.268 52.5548V55.1146V55.1067Z" fill="#3A3735" stroke="#00402A" stroke-width="0.5" stroke-linejoin="round"/>
<path d="M51.8203 43.6712L43.1259 48.7032V48.8148L51.9158 43.7191V41.1672L51.8203 41.2151V43.6712Z" fill="#454545" stroke="#00402A" stroke-width="0.5" stroke-linejoin="round"/>
<path d="M51.4862 43.4798L43.1259 48.3204V48.7032L51.8203 43.6712V41.2151L51.4862 41.4145V43.4798Z" fill="#3CC2FF" stroke="#00402A" stroke-width="0.5" stroke-linejoin="round"/>
<path d="M43.126 48.3203L51.4863 43.4798V41.4144L43.126 46.2549V48.3203Z" fill="#3CC2FF" stroke="#00402A" stroke-width="0.5" stroke-linejoin="round"/>
<path d="M48.8612 45.4895L48.9248 45.4576V42.8898L48.8612 42.9296V45.4895Z" fill="#454545" stroke="#00402A" stroke-width="0.5" stroke-linejoin="round"/>
<path d="M45.5917 47.3873L45.6633 47.3395V44.7797L45.5917 44.8196V47.3873Z" fill="#454545" stroke="#00402A" stroke-width="0.5" stroke-linejoin="round"/>
<path d="M43.0225 46.2071L52.0112 40.9998V43.7669L43.0225 48.9743V46.2071ZM48.9964 45.4097L51.9158 43.7191V41.1592L48.9964 42.8419V45.4017V45.4097ZM45.743 47.2996L48.9328 45.4495V42.8897L45.743 44.7398V47.2996ZM43.1259 48.8148L45.6634 47.3395V44.7797L43.1259 46.255V48.8148Z" fill="#3A3735" stroke="#00402A" stroke-width="0.5" stroke-linejoin="round"/>
<path d="M69.0741 33.7351L60.3797 38.767V38.8786L69.1616 33.7909V31.2231L69.0741 31.2789V33.7351Z" fill="#454545" stroke="#00402A" stroke-width="0.5" stroke-linejoin="round"/>
<path d="M68.7319 33.5437L60.3795 38.3842V38.767L69.074 33.7351V31.2789L68.7319 31.4783V33.5437Z" fill="#3CC2FF" stroke="#00402A" stroke-width="0.5" stroke-linejoin="round"/>
<path d="M60.3795 38.3841L68.7319 33.5436V31.4782L60.3795 36.3187V38.3841Z" fill="#3CC2FF" stroke="#00402A" stroke-width="0.5" stroke-linejoin="round"/>
<path d="M66.1151 35.5532L66.1787 35.5213V32.9535L66.1151 33.0013V35.5532Z" fill="#454545" stroke="#00402A" stroke-width="0.5" stroke-linejoin="round"/>
<path d="M62.8456 37.4511L62.9172 37.4033V34.8434L62.8456 34.8833V37.4511Z" fill="#454545" stroke="#00402A" stroke-width="0.5" stroke-linejoin="round"/>
<path d="M60.2684 36.2709L69.2651 31.0635V33.8227L60.2684 39.0301V36.2629V36.2709ZM66.2503 35.4814L69.1617 33.7908V31.231L66.2503 32.9216V35.4814ZM62.9889 37.3634L66.1787 35.5133V32.9455L62.9889 34.7956V37.3554V37.3634ZM60.3798 38.8786L62.9173 37.4033V34.8435L60.3798 36.3187V38.8786Z" fill="#3A3735" stroke="#00402A" stroke-width="0.5" stroke-linejoin="round"/>
<path d="M79.9321 27.4351L71.2377 32.4671V32.5787L80.0276 27.483V24.9312L79.9321 24.979V27.4351Z" fill="#454545" stroke="#00402A" stroke-width="0.5" stroke-linejoin="round"/>
<path d="M79.598 27.2438L71.2377 32.0843V32.4671L79.9321 27.4352V24.979L79.598 25.1784V27.2438Z" fill="#3CC2FF" stroke="#00402A" stroke-width="0.5" stroke-linejoin="round"/>
<path d="M71.2376 32.0842L79.5979 27.2437V25.1783L71.2376 30.0108V32.0842Z" fill="#3CC2FF" stroke="#00402A" stroke-width="0.5" stroke-linejoin="round"/>
<path d="M76.973 29.2532L77.0366 29.2214V26.6536L76.973 26.6934V29.2532Z" fill="#454545" stroke="#00402A" stroke-width="0.5" stroke-linejoin="round"/>
<path d="M73.7035 31.1512L73.7751 31.1034V28.5436L73.7035 28.5914V31.1512Z" fill="#454545" stroke="#00402A" stroke-width="0.5" stroke-linejoin="round"/>
<path d="M71.1343 29.971L80.123 24.7637V27.5308L71.1343 32.7382V29.971ZM77.1162 29.1815L80.0276 27.491V24.9311L77.1162 26.6217V29.1815ZM73.8548 31.0635L77.0446 29.2134V26.6536L73.8548 28.5037V31.0635ZM71.2377 32.5787L73.7752 31.1034V28.5436L71.2377 30.0109V32.5707V32.5787Z" fill="#3A3735" stroke="#00402A" stroke-width="0.5" stroke-linejoin="round"/>
<path d="M0.250267 35.7046L26.3813 50.8243L87.6084 15.3856L61.4694 0.25L0.250267 35.7046Z" fill="#FF9C1A" stroke="#00402A" stroke-width="0.5" stroke-linejoin="round"/>
<path d="M4.13203 35.7524L5.94569 36.8051L61.6204 4.54023L81.7298 16.183L83.5435 15.1304L61.6204 2.44293L4.13203 35.7524Z" fill="#C66D00" stroke="#00402A" stroke-width="0.5" stroke-linejoin="round"/>
<path d="M5.94588 36.8051L26.0473 48.4399L81.73 16.183L61.6206 4.54028L5.94588 36.8051Z" fill="#E3850D" stroke="#00402A" stroke-width="0.5" stroke-linejoin="round"/>
<path d="M0.250038 38.081L26.3811 53.2086V50.8243L0.250038 35.7046V38.081Z" fill="#FFCD52" stroke="#00402A" stroke-width="0.5" stroke-linejoin="round"/>
<path d="M26.3813 53.2086L87.6084 17.7699V15.3856L26.3813 50.8243V53.2086Z" fill="#FFB536" stroke="#00402A" stroke-width="0.5" stroke-linejoin="round"/>
<path opacity="0.3" d="M66.9819 19.1575L70.1876 21.0076L78.0071 16.4382L74.8014 14.5881L66.9819 19.1575Z" fill="#3A3735" stroke="#00402A" stroke-width="0.5" stroke-linejoin="round"/>
<path d="M70.1878 20.864L77.7527 16.4382V12.2277L70.1878 16.6615V20.864Z" fill="#939598" stroke="#00402A" stroke-width="0.5" stroke-linejoin="round"/>
<path d="M67.2286 19.1575L70.1877 20.8641V16.6615L67.2286 14.947V19.1575Z" fill="#BCBEC0" stroke="#00402A" stroke-width="0.5" stroke-linejoin="round"/>
<path d="M67.2287 14.947L70.1878 16.6615L77.7527 12.2277L74.8015 10.5291L67.2287 14.947Z" fill="#BCBEC0" stroke="#00402A" stroke-width="0.5" stroke-linejoin="round"/>
<path d="M18.5301 29.2931H17.9494V32.2277C17.9494 32.443 18.0926 32.6743 18.3869 32.8417C18.9756 33.1846 19.9301 33.1846 20.5188 32.8417C20.8131 32.6743 20.9563 32.451 20.9563 32.2277V29.2931H20.3676C19.8267 29.0538 19.071 29.0538 18.5222 29.2931H18.5301Z" fill="#B0A9A3" stroke="#00402A" stroke-width="0.5" stroke-linejoin="round"/>
<path d="M18.0846 27.5149H17.2176V28.5436C17.2176 28.8785 17.4323 29.2055 17.8698 29.4606C18.7449 29.963 20.1687 29.963 21.0358 29.4606C21.4813 29.2055 21.696 28.8785 21.696 28.5436V27.5149H20.821C20.0176 27.156 18.888 27.156 18.0846 27.5149Z" fill="#B0A9A3" stroke="#00402A" stroke-width="0.5" stroke-linejoin="round"/>
<path d="M21.0359 26.5898C20.1688 26.0874 18.737 26.0874 17.8699 26.5898C16.9949 27.1002 16.9949 27.9216 17.8699 28.4239C18.7449 28.9343 20.1688 28.9343 21.0359 28.4239C21.9109 27.9216 21.9109 27.1002 21.0359 26.5898Z" fill="#B0A9A3" stroke="#00402A" stroke-width="0.5" stroke-linejoin="round"/>
<path d="M20.6221 26.837C19.9698 26.4702 18.9198 26.4702 18.2754 26.837C17.822 27.1081 17.6868 27.483 17.8697 27.8019C17.9493 27.6664 18.0845 27.5308 18.2754 27.4192C18.9198 27.0444 19.9698 27.0444 20.6221 27.4192C20.805 27.5308 20.9482 27.6584 21.0198 27.8019C21.2027 27.483 21.0675 27.1002 20.6221 26.837Z" fill="#B0A9A3" stroke="#00402A" stroke-width="0.5" stroke-linejoin="round"/>
<path d="M20.6223 27.4191C19.97 27.0443 18.92 27.0443 18.2757 27.4191C18.0768 27.5307 17.9416 27.6583 17.87 27.8019C17.9495 27.9454 18.0848 28.081 18.2757 28.1926C18.92 28.5594 19.97 28.5594 20.6223 28.1926C20.8052 28.081 20.9484 27.9374 21.02 27.8019C20.9405 27.6663 20.8052 27.5307 20.6223 27.4191Z" fill="#B0A9A3" stroke="#00402A" stroke-width="0.5" stroke-linejoin="round"/>
<path d="M11.9357 33.3443H11.3551V36.2789C11.3551 36.5022 11.4982 36.7334 11.7926 36.9009C12.3732 37.2438 13.3358 37.2438 13.9244 36.9009C14.2187 36.7334 14.3699 36.5102 14.3699 36.2789V33.3443H13.7812C13.2403 33.105 12.4767 33.105 11.9437 33.3443H11.9357Z" fill="#B0A9A3" stroke="#00402A" stroke-width="0.5" stroke-linejoin="round"/>
<path d="M11.4824 31.566H10.6154V32.5947C10.6154 32.9296 10.8302 33.2726 11.2677 33.5198C12.1427 34.0301 13.5666 34.0301 14.4416 33.5198C14.887 33.2726 15.1018 32.9376 15.1018 32.5947V31.566H14.2268C13.4234 31.2072 12.2938 31.2072 11.4904 31.566H11.4824Z" fill="#B0A9A3" stroke="#00402A" stroke-width="0.5" stroke-linejoin="round"/>
<path d="M14.4333 30.6409C13.5663 30.1385 12.1344 30.1385 11.2594 30.6409C10.3844 31.1592 10.3844 31.9806 11.2594 32.483C12.1344 32.9934 13.5583 32.9934 14.4333 32.483C15.3084 31.9806 15.3084 31.1592 14.4333 30.6409Z" fill="#B0A9A3" stroke="#00402A" stroke-width="0.5" stroke-linejoin="round"/>
<path d="M14.0278 30.8882C13.3755 30.5213 12.3334 30.5213 11.6891 30.8882C11.2357 31.1513 11.1004 31.5261 11.2834 31.861C11.355 31.7175 11.4902 31.5819 11.6891 31.4703C12.3334 31.0955 13.3755 31.0955 14.0278 31.4703C14.2107 31.5819 14.346 31.7175 14.4255 31.861C14.6164 31.5261 14.4812 31.1513 14.0278 30.8882Z" fill="#B0A9A3" stroke="#00402A" stroke-width="0.5" stroke-linejoin="round"/>
<path d="M14.028 31.4702C13.3758 31.0954 12.3337 31.0954 11.6894 31.4702C11.4905 31.5819 11.3553 31.7175 11.2837 31.861C11.3553 31.9966 11.4905 32.1242 11.6894 32.2438C12.3337 32.6186 13.3758 32.6186 14.028 32.2438C14.211 32.1321 14.3462 31.9966 14.4258 31.861C14.3462 31.7175 14.219 31.5819 14.028 31.4702Z" fill="#B0A9A3" stroke="#00402A" stroke-width="0.5" stroke-linejoin="round"/>
<path d="M61.0001 20.888H60.4194V23.8147C60.4194 24.03 60.5546 24.2613 60.8569 24.4287C61.4456 24.7716 62.4001 24.7716 62.9888 24.4287C63.2831 24.2613 63.4263 24.038 63.4263 23.8147V20.888H62.8376C62.2967 20.6488 61.541 20.6488 60.9921 20.888H61.0001Z" fill="#B0A9A3" stroke="#00402A" stroke-width="0.5" stroke-linejoin="round"/>
<path d="M60.5546 19.1018H59.6875V20.1305C59.6875 20.4574 59.9023 20.7924 60.3398 21.0476C61.2148 21.5579 62.6387 21.5579 63.5058 21.0476C63.9512 20.7924 64.166 20.4654 64.166 20.1305V19.1018H63.291C62.4876 18.7429 61.366 18.7429 60.5546 19.1018Z" fill="#B0A9A3" stroke="#00402A" stroke-width="0.5" stroke-linejoin="round"/>
<path d="M63.506 18.1767C62.6389 17.6743 61.2071 17.6743 60.34 18.1767C59.465 18.687 59.465 19.5084 60.34 20.0108C61.215 20.5212 62.6389 20.5212 63.506 20.0108C64.389 19.5084 64.389 18.687 63.506 18.1767Z" fill="#B0A9A3" stroke="#00402A" stroke-width="0.5" stroke-linejoin="round"/>
<path d="M63.1001 18.4238C62.4478 18.049 61.3978 18.049 60.7614 18.4238C60.308 18.687 60.1728 19.0697 60.3557 19.3887C60.4353 19.2452 60.5626 19.1176 60.7614 19.0059C61.4057 18.6311 62.4558 18.6311 63.1001 19.0059C63.291 19.1176 63.4262 19.2532 63.4978 19.3887C63.6808 19.0697 63.5455 18.687 63.1001 18.4238Z" fill="#B0A9A3" stroke="#00402A" stroke-width="0.5" stroke-linejoin="round"/>
<path d="M63.1001 19.006C62.4478 18.6312 61.3978 18.6312 60.7614 19.006C60.5625 19.1177 60.4353 19.2532 60.3557 19.3888C60.4353 19.5244 60.5625 19.6679 60.7614 19.7795C61.4057 20.1464 62.4557 20.1464 63.1001 19.7795C63.291 19.6679 63.4262 19.5244 63.4978 19.3888C63.4183 19.2452 63.283 19.1177 63.1001 19.006Z" fill="#B0A9A3" stroke="#00402A" stroke-width="0.5" stroke-linejoin="round"/>
<path d="M55.5668 23.9901H54.9862V26.9247C54.9862 27.148 55.1293 27.3793 55.4237 27.5467C56.0044 27.8816 56.9669 27.8816 57.5555 27.5467C57.8498 27.3793 58.001 27.156 58.001 26.9247V23.9901H57.4123C56.8714 23.7588 56.1078 23.7588 55.5748 23.9901H55.5668Z" fill="#B0A9A3" stroke="#00402A" stroke-width="0.5" stroke-linejoin="round"/>
<path d="M55.1134 22.2118H54.2384V23.2405C54.2384 23.5754 54.4532 23.9183 54.8907 24.1655C55.7657 24.6679 57.1976 24.6679 58.0646 24.1655C58.5101 23.9183 58.7249 23.5834 58.7249 23.2405V22.2118H57.8498C57.0464 21.8529 55.9169 21.8529 55.1134 22.2118Z" fill="#B0A9A3" stroke="#00402A" stroke-width="0.5" stroke-linejoin="round"/>
<path d="M58.0729 21.2948C57.2058 20.7924 55.774 20.7924 54.899 21.2948C54.024 21.8131 54.024 22.6345 54.899 23.1369C55.774 23.6472 57.2058 23.6472 58.0729 23.1369C58.9558 22.6345 58.9558 21.8131 58.0729 21.2948Z" fill="#B0A9A3" stroke="#00402A" stroke-width="0.5" stroke-linejoin="round"/>
<path d="M57.6592 22.1241C57.0069 21.7493 55.9648 21.7493 55.3205 22.1241C55.1296 22.2357 54.9864 22.3713 54.9148 22.5068C54.9864 22.6504 55.1296 22.778 55.3205 22.8896C55.9648 23.2644 57.0069 23.2644 57.6592 22.8896C57.8421 22.778 57.9773 22.6424 58.0569 22.5068C57.9773 22.3713 57.8421 22.2357 57.6592 22.1241Z" fill="#B0A9A3" stroke="#00402A" stroke-width="0.5" stroke-linejoin="round"/>
<path d="M45.8067 30.8801H48.7419V31.0556C48.7419 31.2709 48.5988 31.4862 48.3124 31.6537C47.7396 31.9806 46.809 31.9806 46.2362 31.6537C45.9498 31.4862 45.8067 31.2709 45.8067 31.0556V30.8801Z" fill="#939598" stroke="#00402A" stroke-width="0.5" stroke-linejoin="round"/>
<path d="M46.236 31.4782C46.8087 31.8051 47.7394 31.8051 48.3121 31.4782C48.8849 31.1433 48.8849 30.609 48.3121 30.274C47.7394 29.9391 46.8087 29.9391 46.236 30.274C45.6632 30.601 45.6632 31.1433 46.236 31.4782Z" fill="#E6E7E8" stroke="#00402A" stroke-width="0.5" stroke-linejoin="round"/>
<path d="M46.252 30.4973H48.2964V30.7924C48.2964 30.9439 48.193 31.0954 47.9941 31.2071C47.5964 31.4383 46.9441 31.4383 46.5464 31.2071C46.3475 31.0954 46.2441 30.9439 46.2441 30.7924V30.4973H46.252Z" fill="#939598" stroke="#00402A" stroke-width="0.5" stroke-linejoin="round"/>
<path d="M46.5545 30.92C46.9522 31.1512 47.6045 31.1512 48.0022 30.92C48.4 30.6887 48.4 30.3139 48.0022 30.0826C47.6045 29.8514 46.9522 29.8514 46.5545 30.0826C46.1568 30.3139 46.1568 30.6887 46.5545 30.92Z" fill="#E6E7E8" stroke="#00402A" stroke-width="0.5" stroke-linejoin="round"/>
<path d="M46.6737 29.4846H47.8828V30.4495C47.8828 30.5372 47.8271 30.6249 47.7078 30.6967C47.4692 30.8322 47.0873 30.8322 46.8487 30.6967C46.7294 30.6249 46.6737 30.5372 46.6737 30.4495V29.4846Z" fill="#BCBEC0" stroke="#00402A" stroke-width="0.5" stroke-linejoin="round"/>
<path d="M46.8486 29.7318C47.0873 29.8673 47.4691 29.8673 47.7077 29.7318C47.9464 29.5962 47.9464 29.3729 47.7077 29.2374C47.4691 29.1018 47.0873 29.1018 46.8486 29.2374C46.61 29.3729 46.61 29.5962 46.8486 29.7318Z" fill="#E6E7E8" stroke="#00402A" stroke-width="0.5" stroke-linejoin="round"/>
<path d="M47.0157 26.829H47.5327V29.4606C47.5327 29.4606 47.5088 29.5404 47.4532 29.5643C47.3498 29.6201 47.1907 29.6201 47.0873 29.5643C47.0395 29.5324 47.0077 29.5005 47.0077 29.4606V26.829H47.0157Z" fill="#939598" stroke="#00402A" stroke-width="0.5" stroke-linejoin="round"/>
<path d="M47.0951 26.9327C47.1985 26.9965 47.3576 26.9965 47.461 26.9327C47.5644 26.8768 47.5644 26.7811 47.461 26.7173C47.3576 26.6615 47.1985 26.6615 47.0951 26.7173C46.9917 26.7732 46.9917 26.8689 47.0951 26.9327Z" fill="#B0A9A3" stroke="#00402A" stroke-width="0.5" stroke-linejoin="round"/>
<path d="M50.5396 30.4015L51.2953 29.2931L52.9578 26.3904L53.5146 25.242L45.4486 20.577L42.4736 25.7365L50.5396 30.4015Z" fill="#BCBEC0" stroke="#00402A" stroke-width="0.5" stroke-linejoin="round"/>
<path d="M45.534 20.9492L53.1462 25.3551L50.4496 30.0375L42.8373 25.6315L45.534 20.9492Z" fill="#3CC2FF" stroke="#00402A" stroke-width="0.5" stroke-linejoin="round"/>
<path d="M43.8973 23.7907C44.0246 23.5754 44.303 23.4956 44.5178 23.6232L46.1167 24.5483C46.3314 24.6759 46.411 24.955 46.2837 25.1703L45.4564 26.6137C45.3292 26.829 45.2257 27.0124 45.2257 27.0124C45.2257 27.0124 45.0507 26.9087 44.828 26.7811L43.2291 25.8561C43.0143 25.7285 42.9348 25.4494 43.0621 25.2341L43.8973 23.7907Z" fill="#0DA9FF" stroke="#00402A" stroke-width="0.5" stroke-linejoin="round"/>
<path d="M50.1922 23.6267L48.3734 22.5744C48.1529 22.4469 47.8773 22.5268 47.754 22.7409L46.8276 24.3502C46.7004 24.5712 46.7801 24.8475 46.9937 24.9711L48.8125 26.0234C49.033 26.151 49.3086 26.071 49.4319 25.8569L50.3583 24.2476C50.4856 24.0266 50.4058 23.7503 50.1922 23.6267Z" fill="#0DA9FF" stroke="#00402A" stroke-width="0.5" stroke-linejoin="round"/>
<path d="M48.7728 26.08L46.9539 25.0277C46.7335 24.9002 46.4579 24.9801 46.3346 25.1942L45.5036 26.6377C45.3764 26.8587 45.4561 27.1351 45.6697 27.2586L47.4885 28.3109C47.709 28.4385 47.9846 28.3586 48.1079 28.1445L48.9389 26.7009C49.0661 26.4799 48.9864 26.2036 48.7728 26.08Z" fill="#0DA9FF" stroke="#00402A" stroke-width="0.5" stroke-linejoin="round"/>
<path d="M51.3334 27.5585L49.6045 26.5574C49.3841 26.4298 49.1084 26.5096 48.9851 26.7237L48.1536 28.1669C48.0263 28.3879 48.1059 28.6643 48.3194 28.7879L50.0484 29.789C50.2688 29.9166 50.5444 29.8368 50.6678 29.6227L51.4993 28.1795C51.6266 27.9585 51.547 27.6822 51.3334 27.5585Z" fill="#0DA9FF" stroke="#00402A" stroke-width="0.5" stroke-linejoin="round"/>
<path d="M47.535 22.1091L45.9366 21.1843C45.7162 21.0568 45.4405 21.1367 45.3173 21.3508L44.3908 22.9601C44.2636 23.1811 44.3433 23.4574 44.5569 23.581L46.1553 24.5058C46.3758 24.6333 46.6514 24.5534 46.7747 24.3393L47.7011 22.73C47.8283 22.509 47.7486 22.2327 47.535 22.1091Z" fill="#0DA9FF" stroke="#00402A" stroke-width="0.5" stroke-linejoin="round"/>
<path d="M52.754 25.126L51.0249 24.1252C50.8044 23.9976 50.5288 24.0775 50.4055 24.2916L49.4788 25.9007C49.3515 26.1217 49.4312 26.398 49.6447 26.5216L51.3739 27.5224C51.5943 27.65 51.8699 27.5701 51.9932 27.356L52.9239 25.74C53.0512 25.519 52.9715 25.2427 52.758 25.1191L52.754 25.126Z" fill="#0DA9FF" stroke="#00402A" stroke-width="0.5" stroke-linejoin="round"/>
<path d="M36.0061 25.21H38.9414V25.3855C38.9414 25.6008 38.7982 25.8161 38.5119 25.9835C37.9391 26.3105 37.0084 26.3105 36.4357 25.9835C36.1493 25.8161 36.0061 25.6008 36.0061 25.3855V25.21Z" fill="#939598" stroke="#00402A" stroke-width="0.5" stroke-linejoin="round"/>
<path d="M36.4357 25.8081C37.0084 26.1431 37.9391 26.1431 38.5119 25.8081C39.0846 25.4732 39.0846 24.9389 38.5119 24.604C37.9391 24.2691 37.0084 24.2691 36.4357 24.604C35.863 24.9389 35.863 25.4732 36.4357 25.8081Z" fill="#E6E7E8" stroke="#00402A" stroke-width="0.5" stroke-linejoin="round"/>
<path d="M36.4434 24.8271H38.4878V25.1222C38.4878 25.2737 38.3844 25.4252 38.1855 25.5448C37.7878 25.7761 37.1355 25.7761 36.7378 25.5448C36.5389 25.4332 36.4355 25.2737 36.4355 25.1222V24.8271H36.4434Z" fill="#939598" stroke="#00402A" stroke-width="0.5" stroke-linejoin="round"/>
<path d="M36.7459 25.2419C37.1436 25.4732 37.7959 25.4732 38.1936 25.2419C38.5914 25.0107 38.5914 24.6358 38.1936 24.4046C37.7959 24.1733 37.1436 24.1733 36.7459 24.4046C36.3482 24.6358 36.3482 25.0107 36.7459 25.2419Z" fill="#E6E7E8" stroke="#00402A" stroke-width="0.5" stroke-linejoin="round"/>
<path d="M36.8651 23.8146H38.0742V24.7795C38.0742 24.8672 38.0185 24.9549 37.8992 25.0267C37.6606 25.1623 37.2787 25.1623 37.0401 25.0267C36.9208 24.9549 36.8651 24.8672 36.8651 24.7795V23.8146Z" fill="#BCBEC0" stroke="#00402A" stroke-width="0.5" stroke-linejoin="round"/>
<path d="M37.04 24.0617C37.2787 24.1973 37.6605 24.1973 37.8991 24.0617C38.1378 23.9262 38.1378 23.7029 37.8991 23.5673C37.6605 23.4317 37.2787 23.4317 37.04 23.5673C36.8014 23.7029 36.8014 23.9262 37.04 24.0617Z" fill="#E6E7E8" stroke="#00402A" stroke-width="0.5" stroke-linejoin="round"/>
<path d="M37.2071 21.1589H37.7241V23.7905C37.7241 23.7905 37.7003 23.8703 37.6446 23.8942C37.5412 23.95 37.3821 23.95 37.2787 23.8942C37.2309 23.8623 37.1991 23.8224 37.1991 23.7905V21.1589H37.2071Z" fill="#939598" stroke="#00402A" stroke-width="0.5" stroke-linejoin="round"/>
<path d="M37.2867 21.2626C37.3902 21.3184 37.5493 21.3184 37.6527 21.2626C37.7561 21.2068 37.7561 21.1111 37.6527 21.0473C37.5493 20.9915 37.3902 20.9915 37.2867 21.0473C37.1833 21.1031 37.1833 21.1988 37.2867 21.2626Z" fill="#B0A9A3" stroke="#00402A" stroke-width="0.5" stroke-linejoin="round"/>
<path d="M40.7392 24.7317L41.4949 23.6232L43.1495 20.7125L43.7063 19.5722L35.6403 14.8991L32.6732 20.0586L40.7392 24.7317Z" fill="#BCBEC0" stroke="#00402A" stroke-width="0.5" stroke-linejoin="round"/>
<path d="M35.7312 15.2686L43.3442 19.6732L40.6484 24.356L33.0354 19.9514L35.7312 15.2686Z" fill="#3CC2FF" stroke="#00402A" stroke-width="0.5" stroke-linejoin="round"/>
<path d="M34.097 18.1207C34.2243 17.9054 34.5027 17.8256 34.7175 17.9532L36.3164 18.8782C36.5311 19.0058 36.6107 19.2849 36.4834 19.5002L35.6482 20.9436C35.5209 21.1589 35.4175 21.3424 35.4175 21.3424C35.4175 21.3424 35.2425 21.2387 35.0198 21.1111L33.4209 20.1861C33.2061 20.0585 33.1266 19.7794 33.2538 19.564L34.0891 18.1207H34.097Z" fill="#0DA9FF" stroke="#00402A" stroke-width="0.5" stroke-linejoin="round"/>
<path d="M40.388 17.9716L38.5692 16.9193C38.3487 16.7917 38.0731 16.8716 37.9498 17.0857L37.0234 18.695C36.8962 18.9161 36.9759 19.1924 37.1895 19.3159L39.0083 20.3682C39.2288 20.4958 39.5044 20.4159 39.6277 20.2018L40.5541 18.5925C40.6814 18.3715 40.6016 18.0952 40.388 17.9716Z" fill="#0DA9FF" stroke="#00402A" stroke-width="0.5" stroke-linejoin="round"/>
<path d="M38.9686 20.4091L37.1498 19.3568C36.9293 19.2293 36.6537 19.3092 36.5304 19.5233L35.6994 20.9668C35.5722 21.1879 35.6519 21.4642 35.8655 21.5877L37.6843 22.64C37.9048 22.7676 38.1804 22.6877 38.3037 22.4736L39.1347 21.03C39.2619 20.809 39.1822 20.5327 38.9686 20.4091Z" fill="#0DA9FF" stroke="#00402A" stroke-width="0.5" stroke-linejoin="round"/>
<path d="M41.5366 21.9027L39.8076 20.9016C39.5872 20.7739 39.3116 20.8538 39.1882 21.0678L38.3567 22.5111C38.2294 22.732 38.309 23.0084 38.5226 23.132L40.2515 24.1331C40.4719 24.2607 40.7476 24.1809 40.8709 23.9669L41.7024 22.5236C41.8297 22.3026 41.7501 22.0263 41.5366 21.9027Z" fill="#0DA9FF" stroke="#00402A" stroke-width="0.5" stroke-linejoin="round"/>
<path d="M37.7347 16.4471L36.1363 15.5223C35.9159 15.3948 35.6402 15.4747 35.517 15.6888L34.5905 17.2981C34.4633 17.5191 34.543 17.7954 34.7566 17.919L36.355 18.8438C36.5755 18.9713 36.8511 18.8914 36.9744 18.6773L37.9008 17.068C38.028 16.847 37.9483 16.5707 37.7347 16.4471Z" fill="#0DA9FF" stroke="#00402A" stroke-width="0.5" stroke-linejoin="round"/>
<path d="M42.9494 19.4461L41.2205 18.445C41 18.3173 40.7244 18.3972 40.6011 18.6112L39.6701 20.2271C39.5428 20.4481 39.6224 20.7244 39.8359 20.848L41.5649 21.8491C41.7853 21.9768 42.061 21.8969 42.1843 21.6829L43.1113 20.0739C43.2386 19.8529 43.159 19.5766 42.9454 19.453L42.9494 19.4461Z" fill="#0DA9FF" stroke="#00402A" stroke-width="0.5" stroke-linejoin="round"/>
<path d="M41.0257 33.6472H43.9609V33.8226C43.9609 34.0379 43.8178 34.2612 43.5314 34.4207C42.9587 34.7556 42.028 34.7556 41.4552 34.4207C41.1689 34.2532 41.0257 34.0379 41.0257 33.8226V33.6472Z" fill="#939598" stroke="#00402A" stroke-width="0.5" stroke-linejoin="round"/>
<path d="M41.4552 34.2453C42.028 34.5802 42.9586 34.5802 43.5314 34.2453C44.1041 33.9103 44.1041 33.376 43.5314 33.0411C42.9586 32.7062 42.028 32.7062 41.4552 33.0411C40.8825 33.3681 40.8825 33.9103 41.4552 34.2453Z" fill="#E6E7E8" stroke="#00402A" stroke-width="0.5" stroke-linejoin="round"/>
<path d="M41.4713 33.2644H43.5156V33.5595C43.5156 33.711 43.4122 33.8625 43.2133 33.9821C42.8156 34.2134 42.1633 34.2134 41.7656 33.9821C41.5667 33.8625 41.4633 33.719 41.4633 33.5595V33.2644H41.4713Z" fill="#939598" stroke="#00402A" stroke-width="0.5" stroke-linejoin="round"/>
<path d="M41.7735 33.687C42.1712 33.9183 42.8235 33.9183 43.2212 33.687C43.619 33.4558 43.619 33.081 43.2212 32.8497C42.8235 32.6185 42.1712 32.6185 41.7735 32.8497C41.3757 33.081 41.3757 33.4558 41.7735 33.687Z" fill="#E6E7E8" stroke="#00402A" stroke-width="0.5" stroke-linejoin="round"/>
<path d="M41.8932 32.2516H43.1023V33.2166C43.1023 33.3043 43.0466 33.392 42.9273 33.4638C42.6887 33.5993 42.3068 33.5993 42.0682 33.4638C41.9489 33.392 41.8932 33.3043 41.8932 33.2166V32.2516Z" fill="#BCBEC0" stroke="#00402A" stroke-width="0.5" stroke-linejoin="round"/>
<path d="M42.0681 32.4989C42.3068 32.6344 42.6886 32.6344 42.9272 32.4989C43.1659 32.3633 43.1659 32.14 42.9272 32.0044C42.6886 31.8689 42.3068 31.8689 42.0681 32.0044C41.8295 32.14 41.8295 32.3633 42.0681 32.4989Z" fill="#E6E7E8" stroke="#00402A" stroke-width="0.5" stroke-linejoin="round"/>
<path d="M42.2349 29.5961H42.752V32.2277C42.752 32.2277 42.7281 32.3075 42.6724 32.3314C42.569 32.3952 42.4099 32.3952 42.3065 32.3314C42.2588 32.2995 42.2269 32.2676 42.2269 32.2277V29.5961H42.2349Z" fill="#939598" stroke="#00402A" stroke-width="0.5" stroke-linejoin="round"/>
<path d="M42.3143 29.6998C42.4178 29.7556 42.5768 29.7556 42.6803 29.6998C42.7837 29.636 42.7837 29.5483 42.6803 29.4845C42.5768 29.4287 42.4178 29.4287 42.3143 29.4845C42.2109 29.5403 42.2109 29.636 42.3143 29.6998Z" fill="#B0A9A3" stroke="#00402A" stroke-width="0.5" stroke-linejoin="round"/>
<path d="M45.7666 33.1687L46.5222 32.0602L48.1768 29.1496L48.7336 28.0092L40.6676 23.3441L37.7005 28.5036L45.7666 33.1687Z" fill="#BCBEC0" stroke="#00402A" stroke-width="0.5" stroke-linejoin="round"/>
<path d="M40.7613 23.7103L48.3728 28.1175L45.6754 32.7994L38.0639 28.3921L40.7613 23.7103Z" fill="#3CC2FF" stroke="#00402A" stroke-width="0.5" stroke-linejoin="round"/>
<path d="M39.1246 26.5578C39.2519 26.3425 39.5303 26.2627 39.7451 26.3903L41.344 27.3154C41.5587 27.443 41.6383 27.7221 41.511 27.9374L40.6758 29.3808C40.5485 29.5961 40.4451 29.7795 40.4451 29.7795C40.4451 29.7795 40.2701 29.6758 40.0473 29.5482L38.4485 28.6232C38.2337 28.4956 38.1541 28.2165 38.2814 28.0012L39.1167 26.5578H39.1246Z" fill="#0DA9FF" stroke="#00402A" stroke-width="0.5" stroke-linejoin="round"/>
<path d="M45.4049 26.3844L43.5864 25.3314C43.366 25.2038 43.0903 25.2836 42.967 25.4977L42.04 27.1066C41.9127 27.3276 41.9923 27.6039 42.2059 27.7276L44.0244 28.7805C44.2448 28.9082 44.5204 28.8283 44.6438 28.6143L45.5747 26.9984C45.702 26.7774 45.6224 26.5011 45.4089 26.3775L45.4049 26.3844Z" fill="#0DA9FF" stroke="#00402A" stroke-width="0.5" stroke-linejoin="round"/>
<path d="M43.9923 28.8482L42.1734 27.7959C41.953 27.6683 41.6773 27.7482 41.5541 27.9623L40.7231 29.4059C40.5958 29.6269 40.6756 29.9032 40.8891 30.0268L42.708 31.0791C42.9285 31.2066 43.2041 31.1267 43.3274 30.9126L44.1584 29.4691C44.2856 29.248 44.2059 28.9717 43.9923 28.8482Z" fill="#0DA9FF" stroke="#00402A" stroke-width="0.5" stroke-linejoin="round"/>
<path d="M46.565 30.3381L44.8356 29.3379C44.6151 29.2104 44.3395 29.2904 44.2162 29.5045L43.3855 30.9482C43.2583 31.1692 43.3381 31.4455 43.5517 31.569L45.2811 32.5692C45.5016 32.6968 45.7772 32.6168 45.9004 32.4026L46.7312 30.959C46.8584 30.7379 46.7786 30.4616 46.565 30.3381Z" fill="#0DA9FF" stroke="#00402A" stroke-width="0.5" stroke-linejoin="round"/>
<path d="M42.7607 24.8672L41.1626 23.9419C40.9422 23.8142 40.6666 23.8941 40.5432 24.1081L39.6162 25.7171C39.4889 25.9381 39.5685 26.2144 39.7821 26.3381L41.3801 27.2634C41.6006 27.391 41.8762 27.3112 41.9995 27.0971L42.9265 25.4881C43.0539 25.2672 42.9742 24.9908 42.7607 24.8672Z" fill="#0DA9FF" stroke="#00402A" stroke-width="0.5" stroke-linejoin="round"/>
<path d="M47.9657 27.8852L46.2366 26.8844C46.0162 26.7568 45.7405 26.8367 45.6172 27.0508L44.6905 28.6599C44.5632 28.8809 44.6429 29.1572 44.8565 29.2808L46.5856 30.2816C46.806 30.4092 47.0817 30.3293 47.205 30.1153L48.1317 28.5061C48.259 28.2851 48.1793 28.0088 47.9657 27.8852Z" fill="#0DA9FF" stroke="#00402A" stroke-width="0.5" stroke-linejoin="round"/>
<path d="M31.2256 27.9694H34.1609V28.1449C34.1609 28.3602 34.0177 28.5755 33.7313 28.7429C33.1586 29.0779 32.2279 29.0779 31.6552 28.7429C31.3688 28.5755 31.2256 28.3602 31.2256 28.1449V27.9694Z" fill="#939598" stroke="#00402A" stroke-width="0.5" stroke-linejoin="round"/>
<path d="M31.6552 28.5755C32.2279 28.9105 33.1586 28.9105 33.7313 28.5755C34.3041 28.2406 34.3041 27.7063 33.7313 27.3714C33.1586 27.0364 32.2279 27.0364 31.6552 27.3714C31.0824 27.7063 31.0824 28.2406 31.6552 28.5755Z" fill="#E6E7E8" stroke="#00402A" stroke-width="0.5" stroke-linejoin="round"/>
<path d="M31.671 27.5947H33.7153V27.8898C33.7153 28.0413 33.6119 28.1928 33.4131 28.3045C33.0153 28.5357 32.363 28.5357 31.9653 28.3045C31.7664 28.1928 31.663 28.0413 31.663 27.8898V27.5947H31.671Z" fill="#939598" stroke="#00402A" stroke-width="0.5" stroke-linejoin="round"/>
<path d="M31.9651 28.0094C32.3629 28.2407 33.0151 28.2407 33.4129 28.0094C33.8106 27.7782 33.8106 27.4034 33.4129 27.1721C33.0151 26.9408 32.3629 26.9408 31.9651 27.1721C31.5674 27.4034 31.5674 27.7782 31.9651 28.0094Z" fill="#E6E7E8" stroke="#00402A" stroke-width="0.5" stroke-linejoin="round"/>
<path d="M32.0846 26.574H33.2937V27.5389C33.2937 27.6266 33.238 27.7143 33.1187 27.7861C32.8801 27.9217 32.4982 27.9217 32.2596 27.7861C32.1403 27.7143 32.0846 27.6266 32.0846 27.5389V26.574Z" fill="#BCBEC0" stroke="#00402A" stroke-width="0.5" stroke-linejoin="round"/>
<path d="M32.2598 26.8212C32.4984 26.9568 32.8802 26.9568 33.1189 26.8212C33.3575 26.6856 33.3575 26.4623 33.1189 26.3268C32.8802 26.1912 32.4984 26.1912 32.2598 26.3268C32.0211 26.4623 32.0211 26.6856 32.2598 26.8212Z" fill="#E6E7E8" stroke="#00402A" stroke-width="0.5" stroke-linejoin="round"/>
<path d="M32.4349 23.9265H32.9519V26.558C32.9519 26.558 32.928 26.6378 32.8803 26.6617C32.7769 26.7175 32.6178 26.7175 32.5144 26.6617C32.4667 26.6298 32.4349 26.5979 32.4349 26.558V23.9265Z" fill="#939598" stroke="#00402A" stroke-width="0.5" stroke-linejoin="round"/>
<path d="M32.5062 24.0301C32.6097 24.0859 32.7687 24.0859 32.8721 24.0301C32.9756 23.9742 32.9756 23.8786 32.8721 23.8148C32.7687 23.7589 32.6097 23.7589 32.5062 23.8148C32.4028 23.8706 32.4028 23.9663 32.5062 24.0301Z" fill="#B0A9A3" stroke="#00402A" stroke-width="0.5" stroke-linejoin="round"/>
<path d="M35.9587 27.4989L36.7144 26.3825L38.369 23.4797L38.9258 22.3394L30.8598 17.6663L27.8927 22.8258L35.9587 27.4989Z" fill="#BCBEC0" stroke="#00402A" stroke-width="0.5" stroke-linejoin="round"/>
<path d="M30.9566 18.0466L38.5681 22.4539L35.8707 27.1357L28.2592 22.7285L30.9566 18.0466Z" fill="#3CC2FF" stroke="#00402A" stroke-width="0.5" stroke-linejoin="round"/>
<path d="M29.3163 20.8801C29.4435 20.6647 29.722 20.585 29.9367 20.7126L31.5356 21.6376C31.7504 21.7652 31.8299 22.0443 31.7027 22.2597L30.8674 23.703C30.7402 23.9183 30.6367 24.1018 30.6367 24.1018C30.6367 24.1018 30.4617 23.9981 30.239 23.8705L28.6401 22.9455C28.4253 22.8179 28.3458 22.5387 28.4731 22.3234L29.3083 20.8801H29.3163Z" fill="#0DA9FF" stroke="#00402A" stroke-width="0.5" stroke-linejoin="round"/>
<path d="M35.6039 20.7435L33.7855 19.6906C33.565 19.563 33.2894 19.6428 33.166 19.8569L32.239 21.4658C32.1117 21.6868 32.1914 21.9631 32.4049 22.0868L34.2234 23.1397C34.4438 23.2674 34.7195 23.1875 34.8428 22.9735L35.7698 21.3645C35.8971 21.1435 35.8175 20.8672 35.6039 20.7435Z" fill="#0DA9FF" stroke="#00402A" stroke-width="0.5" stroke-linejoin="round"/>
<path d="M34.197 23.1746L32.3787 22.1214C32.1583 21.9937 31.8826 22.0735 31.7593 22.2875L30.9275 23.7306C30.8001 23.9516 30.8797 24.2279 31.0932 24.3516L32.9115 25.4049C33.1319 25.5325 33.4076 25.4527 33.531 25.2387L34.3628 23.7956C34.4901 23.5747 34.4105 23.2983 34.197 23.1746Z" fill="#0DA9FF" stroke="#00402A" stroke-width="0.5" stroke-linejoin="round"/>
<path d="M36.7548 24.6492L35.0259 23.6481C34.8055 23.5204 34.5298 23.6003 34.4065 23.8143L33.575 25.2576C33.4477 25.4786 33.5273 25.7549 33.7408 25.8785L35.4698 26.8796C35.6902 27.0073 35.9658 26.9274 36.0892 26.7134L36.9207 25.2701C37.048 25.0492 36.9684 24.7728 36.7548 24.6492Z" fill="#0DA9FF" stroke="#00402A" stroke-width="0.5" stroke-linejoin="round"/>
<path d="M32.9512 19.2101L31.3527 18.2856C31.1322 18.1581 30.8566 18.238 30.7334 18.4522L29.8072 20.0616C29.68 20.2827 29.7598 20.559 29.9734 20.6825L31.5719 21.607C31.7924 21.7345 32.068 21.6545 32.1913 21.4404L33.1174 19.8309C33.2446 19.6099 33.1648 19.3336 32.9512 19.2101Z" fill="#0DA9FF" stroke="#00402A" stroke-width="0.5" stroke-linejoin="round"/>
<path d="M38.1757 22.2245L36.4467 21.2234C36.2263 21.0958 35.9506 21.1756 35.8273 21.3897L34.9003 22.9986C34.773 23.2196 34.8526 23.4959 35.0662 23.6196L36.7951 24.6207C37.0155 24.7483 37.2912 24.6685 37.4145 24.4544L38.3455 22.8386C38.4728 22.6176 38.3932 22.3412 38.1796 22.2176L38.1757 22.2245Z" fill="#0DA9FF" stroke="#00402A" stroke-width="0.5" stroke-linejoin="round"/>
<path d="M36.1494 36.4701H39.0847V36.6455C39.0847 36.8608 38.9415 37.0762 38.6552 37.2436C38.0824 37.5785 37.1517 37.5785 36.579 37.2436C36.2926 37.0762 36.1494 36.8608 36.1494 36.6455V36.4701Z" fill="#939598" stroke="#00402A" stroke-width="0.5" stroke-linejoin="round"/>
<path d="M36.579 37.0682C37.1517 37.4031 38.0824 37.4031 38.6552 37.0682C39.2279 36.7333 39.2279 36.199 38.6552 35.8641C38.0824 35.5291 37.1517 35.5291 36.579 35.8641C36.0063 36.199 36.0063 36.7333 36.579 37.0682Z" fill="#E6E7E8" stroke="#00402A" stroke-width="0.5" stroke-linejoin="round"/>
<path d="M36.5946 36.0873H38.6389V36.3824C38.6389 36.5339 38.5355 36.6854 38.3366 36.805C37.9389 37.0363 37.2866 37.0363 36.8889 36.805C36.69 36.6854 36.5866 36.5339 36.5866 36.3824V36.0873H36.5946Z" fill="#939598" stroke="#00402A" stroke-width="0.5" stroke-linejoin="round"/>
<path d="M36.8968 36.51C37.2945 36.7412 37.9468 36.7412 38.3445 36.51C38.7423 36.2787 38.7423 35.9039 38.3445 35.6727C37.9468 35.4414 37.2945 35.4414 36.8968 35.6727C36.499 35.9039 36.499 36.2787 36.8968 36.51Z" fill="#E6E7E8" stroke="#00402A" stroke-width="0.5" stroke-linejoin="round"/>
<path d="M37.0162 35.0747H38.2253V36.0396C38.2253 36.1273 38.1697 36.2151 38.0503 36.2868C37.8117 36.4224 37.4299 36.4224 37.1912 36.2868C37.0719 36.223 37.0162 36.1273 37.0162 36.0396V35.0747Z" fill="#BCBEC0" stroke="#00402A" stroke-width="0.5" stroke-linejoin="round"/>
<path d="M37.1914 35.3218C37.43 35.4574 37.8119 35.4574 38.0505 35.3218C38.2892 35.1862 38.2892 34.9629 38.0505 34.8274C37.8119 34.6918 37.43 34.6918 37.1914 34.8274C36.9528 34.9629 36.9528 35.1862 37.1914 35.3218Z" fill="#E6E7E8" stroke="#00402A" stroke-width="0.5" stroke-linejoin="round"/>
<path d="M37.3587 32.419H37.8757V35.0506C37.8757 35.0506 37.8519 35.1303 37.7962 35.1543C37.6928 35.2101 37.5337 35.2101 37.4303 35.1543C37.3825 35.1224 37.3507 35.0905 37.3507 35.0506V32.419H37.3587Z" fill="#939598" stroke="#00402A" stroke-width="0.5" stroke-linejoin="round"/>
<path d="M37.4381 32.5227C37.5415 32.5785 37.7006 32.5785 37.804 32.5227C37.9074 32.4669 37.9074 32.3712 37.804 32.3074C37.7006 32.2515 37.5415 32.2515 37.4381 32.3074C37.3347 32.3632 37.3347 32.4589 37.4381 32.5227Z" fill="#B0A9A3" stroke="#00402A" stroke-width="0.5" stroke-linejoin="round"/>
<path d="M40.8826 35.9917L41.6383 34.8832L43.3008 31.9726L43.8577 30.8322L35.7916 26.1671L32.8166 31.3266L40.8826 35.9917Z" fill="#BCBEC0" stroke="#00402A" stroke-width="0.5" stroke-linejoin="round"/>
<path d="M35.885 26.544L43.4973 30.95L40.8007 35.6323L33.1884 31.2264L35.885 26.544Z" fill="#3CC2FF" stroke="#00402A" stroke-width="0.5" stroke-linejoin="round"/>
<path d="M34.2481 29.3808C34.3754 29.1655 34.6538 29.0858 34.8686 29.2134L36.4675 30.1384C36.6823 30.266 36.7618 30.5451 36.6345 30.7604L35.7993 32.2038C35.672 32.4191 35.5686 32.6026 35.5686 32.6026C35.5686 32.6026 35.3936 32.4989 35.1709 32.3713L33.572 31.4462C33.3572 31.3186 33.2777 31.0395 33.405 30.8242L34.2402 29.3808H34.2481Z" fill="#0DA9FF" stroke="#00402A" stroke-width="0.5" stroke-linejoin="round"/>
<path d="M40.5307 29.2349L38.7122 28.1819C38.4918 28.0543 38.2161 28.1341 38.0928 28.3482L37.1658 29.9572C37.0385 30.1781 37.1181 30.4545 37.3317 30.5781L39.1502 31.6311C39.3706 31.7587 39.6462 31.6789 39.7696 31.4648L40.6966 29.8558C40.8239 29.6348 40.7443 29.3585 40.5307 29.2349Z" fill="#0DA9FF" stroke="#00402A" stroke-width="0.5" stroke-linejoin="round"/>
<path d="M39.1176 31.6676L37.2991 30.6147C37.0787 30.487 36.8031 30.5669 36.6797 30.7809L35.8482 32.2242C35.7209 32.4451 35.8005 32.7215 36.0141 32.8451L37.8326 33.8981C38.053 34.0257 38.3286 33.9459 38.452 33.7318L39.2835 32.2886C39.4108 32.0676 39.3312 31.7913 39.1176 31.6676Z" fill="#0DA9FF" stroke="#00402A" stroke-width="0.5" stroke-linejoin="round"/>
<path d="M41.6975 33.1724L39.9685 32.1713C39.7481 32.0437 39.4724 32.1235 39.3491 32.3376L38.5176 33.7808C38.3903 34.0018 38.4699 34.2781 38.6834 34.4018L40.4124 35.4029C40.6328 35.5305 40.9085 35.4507 41.0318 35.2366L41.8633 33.7934C41.9906 33.5724 41.911 33.2961 41.6975 33.1724Z" fill="#0DA9FF" stroke="#00402A" stroke-width="0.5" stroke-linejoin="round"/>
<path d="M37.8852 27.6978L36.2871 26.7725C36.0667 26.6449 35.791 26.7247 35.6677 26.9388L34.7407 28.5477C34.6134 28.7687 34.693 29.045 34.9066 29.1687L36.5046 30.094C36.7251 30.2216 37.0007 30.1418 37.1241 29.9278L38.0511 28.3188C38.1784 28.0978 38.0987 27.8215 37.8852 27.6978Z" fill="#0DA9FF" stroke="#00402A" stroke-width="0.5" stroke-linejoin="round"/>
<path d="M43.0986 30.7208L41.3698 29.7194C41.1494 29.5918 40.8738 29.6715 40.7504 29.8856L39.8192 31.5013C39.6918 31.7222 39.7714 31.9986 39.9849 32.1223L41.7137 33.1237C41.9341 33.2514 42.2097 33.1716 42.3331 32.9575L43.2604 31.3487C43.3877 31.1278 43.3082 30.8514 43.0946 30.7277L43.0986 30.7208Z" fill="#0DA9FF" stroke="#00402A" stroke-width="0.5" stroke-linejoin="round"/>
<path d="M26.3496 30.7924H29.2849V30.9678C29.2849 31.1831 29.1417 31.3984 28.8554 31.5659C28.2826 31.8928 27.3519 31.8928 26.7792 31.5659C26.4928 31.3984 26.3496 31.1831 26.3496 30.9678V30.7924Z" fill="#939598" stroke="#00402A" stroke-width="0.5" stroke-linejoin="round"/>
<path d="M26.7789 31.3985C27.3517 31.7254 28.2824 31.7254 28.8551 31.3985C29.4279 31.0635 29.4279 30.5292 28.8551 30.1943C28.2824 29.8594 27.3517 29.8594 26.7789 30.1943C26.2062 30.5292 26.2062 31.0635 26.7789 31.3985Z" fill="#E6E7E8" stroke="#00402A" stroke-width="0.5" stroke-linejoin="round"/>
<path d="M26.7948 30.4177H28.8391V30.7127C28.8391 30.8642 28.7437 31.0157 28.5368 31.1354C28.1391 31.3666 27.4868 31.3666 27.0891 31.1354C26.8902 31.0157 26.7868 30.8642 26.7868 30.7127V30.4177H26.7948Z" fill="#939598" stroke="#00402A" stroke-width="0.5" stroke-linejoin="round"/>
<path d="M27.0892 30.8323C27.4869 31.0636 28.1392 31.0636 28.5369 30.8323C28.9346 30.601 28.9346 30.2262 28.5369 29.995C28.1392 29.7637 27.4869 29.7637 27.0892 29.995C26.6914 30.2262 26.6914 30.601 27.0892 30.8323Z" fill="#E6E7E8" stroke="#00402A" stroke-width="0.5" stroke-linejoin="round"/>
<path d="M27.2086 29.3969H28.4177V30.3618C28.4177 30.4495 28.362 30.5373 28.2427 30.609C28.0041 30.7446 27.6223 30.7446 27.3836 30.609C27.2643 30.5373 27.2086 30.4495 27.2086 30.3618V29.3969Z" fill="#BCBEC0" stroke="#00402A" stroke-width="0.5" stroke-linejoin="round"/>
<path d="M27.3835 29.6441C27.6222 29.7797 28.004 29.7797 28.2427 29.6441C28.4813 29.5086 28.4813 29.2853 28.2427 29.1497C28.004 29.0141 27.6222 29.0141 27.3835 29.1497C27.1449 29.2853 27.1449 29.5086 27.3835 29.6441Z" fill="#E6E7E8" stroke="#00402A" stroke-width="0.5" stroke-linejoin="round"/>
<path d="M27.5586 26.7493H28.0757V29.3809C28.0757 29.3809 28.0518 29.4607 27.9961 29.4846C27.8927 29.5404 27.7336 29.5404 27.6302 29.4846C27.5825 29.4527 27.5507 29.4128 27.5507 29.3809V26.7493H27.5586Z" fill="#939598" stroke="#00402A" stroke-width="0.5" stroke-linejoin="round"/>
<path d="M27.63 26.8529C27.7334 26.9088 27.8925 26.9088 27.9959 26.8529C28.0993 26.7971 28.0993 26.7014 27.9959 26.6376C27.8925 26.5818 27.7334 26.5818 27.63 26.6376C27.5266 26.6935 27.5266 26.7891 27.63 26.8529Z" fill="#B0A9A3" stroke="#00402A" stroke-width="0.5" stroke-linejoin="round"/>
<path d="M31.0825 30.3219L31.8382 29.2054L33.4927 26.3027L34.0496 25.1624L25.9835 20.4893L23.0164 25.6488L31.0825 30.3219Z" fill="#BCBEC0" stroke="#00402A" stroke-width="0.5" stroke-linejoin="round"/>
<path d="M26.0784 20.8654L33.6907 25.2713L30.994 29.9537L23.3818 25.5477L26.0784 20.8654Z" fill="#3CC2FF" stroke="#00402A" stroke-width="0.5" stroke-linejoin="round"/>
<path d="M24.4403 23.7031C24.5676 23.4877 24.846 23.408 25.0607 23.5356L26.6596 24.4606C26.8744 24.5882 26.954 24.8673 26.8267 25.0826L25.9994 26.526C25.8721 26.7413 25.7687 26.9248 25.7687 26.9248C25.7687 26.9248 25.5937 26.8211 25.371 26.6935L23.7721 25.7685C23.5573 25.6409 23.4778 25.3618 23.605 25.1464L24.4403 23.7031Z" fill="#0DA9FF" stroke="#00402A" stroke-width="0.5" stroke-linejoin="round"/>
<path d="M30.7309 23.5789L28.9126 22.5257C28.6922 22.398 28.4166 22.4778 28.2932 22.6918L27.3659 24.3006C27.2386 24.5216 27.3181 24.7979 27.5317 24.9216L29.35 25.9749C29.5704 26.1025 29.846 26.0227 29.9694 25.8087L30.8967 24.1999C31.024 23.9789 30.9445 23.7026 30.7309 23.5789Z" fill="#0DA9FF" stroke="#00402A" stroke-width="0.5" stroke-linejoin="round"/>
<path d="M29.3178 25.9876L27.4991 24.9349C27.2787 24.8073 27.003 24.8872 26.8797 25.1013L26.0485 26.5447C25.9212 26.7657 26.0009 27.042 26.2144 27.1656L28.0331 28.2182C28.2536 28.3458 28.5292 28.266 28.6525 28.0519L29.4837 26.6085C29.611 26.3875 29.5313 26.1112 29.3178 25.9876Z" fill="#0DA9FF" stroke="#00402A" stroke-width="0.5" stroke-linejoin="round"/>
<path d="M31.8922 27.4945L30.1629 26.494C29.9424 26.3664 29.6668 26.4464 29.5436 26.6605L28.7125 28.104C28.5853 28.325 28.665 28.6013 28.8786 28.7249L30.6079 29.7254C30.8284 29.8529 31.104 29.773 31.2273 29.5589L32.0583 28.1154C32.1855 27.8944 32.1058 27.618 31.8922 27.4945Z" fill="#0DA9FF" stroke="#00402A" stroke-width="0.5" stroke-linejoin="round"/>
<path d="M28.0762 22.0277L26.4777 21.1032C26.2572 20.9757 25.9816 21.0557 25.8584 21.2698L24.9322 22.8792C24.805 23.1003 24.8848 23.3766 25.0984 23.5001L26.6969 24.4246C26.9174 24.5521 27.193 24.4721 27.3163 24.258L28.2424 22.6486C28.3696 22.4275 28.2898 22.1512 28.0762 22.0277Z" fill="#0DA9FF" stroke="#00402A" stroke-width="0.5" stroke-linejoin="round"/>
<path d="M33.2969 25.0292L31.5676 24.0287C31.3472 23.9012 31.0715 23.9811 30.9483 24.1952L30.0218 25.8045C29.8946 26.0255 29.9743 26.3018 30.1879 26.4254L31.9172 27.4259C32.1377 27.5534 32.4133 27.4735 32.5366 27.2594L33.467 25.6432C33.5942 25.4222 33.5145 25.1459 33.3009 25.0223L33.2969 25.0292Z" fill="#0DA9FF" stroke="#00402A" stroke-width="0.5" stroke-linejoin="round"/>
</svg>
