<svg width="189" height="81" viewBox="0 0 189 81" fill="none" xmlns="http://www.w3.org/2000/svg">
<path d="M51.7189 73.7846C55.5787 69.93 55.5787 63.6804 51.7188 59.8258C47.859 55.9711 41.6009 55.9711 37.741 59.8258C33.8811 63.6804 33.8811 69.93 37.741 73.7846C41.6009 77.6392 47.859 77.6393 51.7189 73.7846Z" fill="#00402A"/>
<path d="M49.6721 71.7405C52.4015 69.0148 52.4015 64.5956 49.6721 61.8699C46.9427 59.1442 42.5175 59.1442 39.7881 61.8699C37.0587 64.5956 37.0587 69.0148 39.7881 71.7405C42.5175 74.4662 46.9427 74.4662 49.6721 71.7405Z" fill="#699282"/>
<path d="M0.657835 26.3022H3.52481C3.88809 26.3022 4.18264 26.5964 4.18264 26.9592V34.7836C4.18264 35.1464 3.88809 35.4405 3.52481 35.4405H0.657835C0.294555 35.4405 0 35.1464 0 34.7836V26.9592C0 26.5964 0.294555 26.3022 0.657835 26.3022Z" fill="#DCEBE1"/>
<path d="M1.2728 27.8628C1.13698 27.8628 1.02734 27.7534 1.02734 27.6177V25.0161C1.02734 24.235 1.66389 23.5977 2.44773 23.5977H10.0684C10.2043 23.5977 10.3139 23.7071 10.3139 23.8428C10.3139 23.9784 10.2043 24.0879 10.0684 24.0879H2.44773C1.93553 24.0879 1.51826 24.5046 1.51826 25.0161V27.6177C1.51826 27.7534 1.40862 27.8628 1.2728 27.8628Z" fill="#00402A"/>
<path d="M10.5022 22.2788L9.2569 23.5224C9.04417 23.7349 9.04417 24.0813 9.2569 24.2937L10.4662 25.5014C10.5693 25.6044 10.7084 25.6616 10.8524 25.6616H12.4708C12.7719 25.6616 13.0173 25.4164 13.0173 25.1157V22.6645C13.0173 22.3638 12.7719 22.1187 12.4708 22.1187H10.8884C10.7427 22.1187 10.6037 22.1759 10.5022 22.2788Z" fill="#00402A"/>
<path d="M10.4187 23.844C10.4187 24.0369 10.2616 24.1954 10.0668 24.1954C9.87211 24.1954 9.71503 24.0385 9.71503 23.844C9.71503 23.6496 9.87211 23.4927 10.0668 23.4927C10.2616 23.4927 10.4187 23.6496 10.4187 23.844Z" fill="#DCEBE1"/>
<path d="M55.9633 4.99431L45.96 61.8374V69.2337H8.83506C5.13353 69.2337 2.13239 66.2366 2.13239 62.5401C2.13239 62.0728 2.1815 61.607 2.27805 61.1494L10.5631 10.7057C11.1048 7.41125 13.9553 4.99268 17.2985 4.99268H55.9617L55.9633 4.99431Z" fill="#008C39"/>
<path d="M4.72571 46.252H47.1542V18.0674H9.35508L4.72571 46.252Z" fill="#DCEBE1"/>
<path d="M188.306 11.6877V62.5416C188.306 66.2381 185.305 69.2352 181.604 69.2352H36.2966C32.595 69.2352 29.5939 66.2381 29.5939 62.5416C29.5939 62.0742 29.6429 61.6085 29.7395 61.1509L38.4681 10.297C39.1259 7.20517 41.8587 4.99414 45.0235 4.99414H181.602C185.304 4.99414 188.305 7.99121 188.305 11.6877H188.306Z" fill="#5BD38C"/>
<path d="M39.1782 58.7764H57.9935V65.0173C57.9935 66.524 56.7679 67.748 55.2591 67.748H41.9126C40.4039 67.748 39.1782 66.524 39.1782 65.0173V58.7764Z" fill="#008C39"/>
<path d="M115.091 58.7764H133.907V65.0173C133.907 66.524 132.681 67.748 131.172 67.748H117.826C116.317 67.748 115.091 66.524 115.091 65.0173V58.7764Z" fill="#008C39"/>
<path d="M62.2258 69.2333H61.7349V46.252H171.416V69.2333H170.925V46.7422H62.2258V69.2333Z" fill="#008C39"/>
<path d="M84.0632 46.4976H83.5722V69.2338H84.0632V46.4976Z" fill="#008C39"/>
<path d="M105.901 46.4976H105.41V69.2338H105.901V46.4976Z" fill="#008C39"/>
<path d="M127.741 46.4976H127.25V69.2338H127.741V46.4976Z" fill="#008C39"/>
<path d="M149.578 46.4976H149.087V69.2338H149.578V46.4976Z" fill="#008C39"/>
<path d="M167.908 18.0674H45.1648C43.3762 18.0674 41.8298 19.3175 41.4583 21.0661L39.2639 31.3875C39.1919 31.7258 39.169 32.0625 39.187 32.3893C39.1804 32.3893 39.1805 63.0399 39.1805 63.0399C39.1805 64.2066 40.1279 65.1528 41.2963 65.1528H55.8799C57.0483 65.1528 57.9958 64.2066 57.9958 63.0399V35.9583H115.091V63.0611C115.091 64.2165 116.029 65.1528 117.186 65.1528H131.814C132.971 65.1528 133.908 64.2165 133.908 63.0611V35.9583H167.909C170.002 35.9583 171.699 34.2637 171.699 32.1736V21.8521C171.699 19.762 170.002 18.0674 167.909 18.0674H167.908Z" fill="#DCEBE1"/>
<path d="M43.4938 4.99405H118.006L115.528 2.47414C113.972 0.890627 111.844 0 109.624 0H56.675C55.536 0 54.4085 0.235316 53.3645 0.689617L43.4921 4.99405H43.4938Z" fill="#008C39"/>
<path d="M65.0568 4.99405H146.114L143.637 2.47414C142.08 0.890627 139.953 0 137.732 0H78.2379C77.099 0 75.9715 0.235316 74.9275 0.689617L65.0551 4.99405H65.0568Z" fill="#5BD38C"/>
<path d="M89.8723 15.1674C90.6349 15.1674 91.2567 14.548 91.2567 13.7848C91.2567 13.0217 90.6365 12.4023 89.8723 12.4023H88.0772C87.3146 12.4023 86.6928 13.0217 86.6928 13.7848C86.6928 14.548 87.313 15.1674 88.0772 15.1674H89.8723Z" fill="white"/>
<path d="M88.0772 14.3496H89.8723C90.1848 14.3496 90.4385 14.0963 90.4385 13.7842C90.4385 13.472 90.1848 13.2188 89.8723 13.2188H88.0772C87.7646 13.2188 87.511 13.472 87.511 13.7842C87.511 14.0963 87.7646 14.3496 88.0772 14.3496Z" fill="#FF9C1A"/>
<path d="M108.436 15.1674C109.198 15.1674 109.82 14.548 109.82 13.7848C109.82 13.0217 109.2 12.4023 108.436 12.4023H106.64C105.878 12.4023 105.256 13.0217 105.256 13.7848C105.256 14.548 105.876 15.1674 106.64 15.1674H108.436Z" fill="white"/>
<path d="M106.64 14.3496H108.435C108.748 14.3496 109.002 14.0963 109.002 13.7842C109.002 13.472 108.748 13.2188 108.435 13.2188H106.64C106.328 13.2188 106.074 13.472 106.074 13.7842C106.074 14.0963 106.328 14.3496 106.64 14.3496Z" fill="#FF9C1A"/>
<path d="M126.999 15.1674C127.762 15.1674 128.383 14.548 128.383 13.7848C128.383 13.0217 127.763 12.4023 126.999 12.4023H125.204C124.441 12.4023 123.819 13.0217 123.819 13.7848C123.819 14.548 124.44 15.1674 125.204 15.1674H126.999Z" fill="white"/>
<path d="M125.204 14.3496H126.999C127.311 14.3496 127.565 14.0963 127.565 13.7842C127.565 13.472 127.311 13.2188 126.999 13.2188H125.204C124.891 13.2188 124.638 13.472 124.638 13.7842C124.638 14.0963 124.891 14.3496 125.204 14.3496Z" fill="#FF9C1A"/>
<path d="M178.655 64.4096C179.417 64.4096 180.039 63.7886 180.039 63.0271C180.039 62.2655 179.419 61.6445 178.655 61.6445H176.86C176.097 61.6445 175.475 62.2639 175.475 63.0271C175.475 63.7902 176.096 64.4096 176.86 64.4096H178.655Z" fill="white"/>
<path d="M176.86 63.5928H178.655C178.967 63.5928 179.221 63.3395 179.221 63.0274C179.221 62.7152 178.967 62.4619 178.655 62.4619H176.86C176.547 62.4619 176.294 62.7152 176.294 63.0274C176.294 63.3395 176.547 63.5928 176.86 63.5928Z" fill="#FF9C1A"/>
<path d="M171.697 40.8105H171.207V44.3387H171.697V40.8105Z" fill="#008C39"/>
<path d="M170.601 40.8105H170.11V44.3387H170.601V40.8105Z" fill="#008C39"/>
<path d="M169.506 40.8105H169.016V44.3387H169.506V40.8105Z" fill="#008C39"/>
<path d="M168.412 40.8105H167.921V44.3387H168.412V40.8105Z" fill="#008C39"/>
<path d="M167.317 40.8105H166.826V44.3387H167.317V40.8105Z" fill="#008C39"/>
<path d="M166.222 40.8105H165.731V44.3387H166.222V40.8105Z" fill="#008C39"/>
<path d="M165.127 40.8105H164.637V44.3387H165.127V40.8105Z" fill="#008C39"/>
<path d="M164.031 40.8105H163.54V44.3387H164.031V40.8105Z" fill="#008C39"/>
<path d="M162.936 40.8105H162.445V44.3387H162.936V40.8105Z" fill="#008C39"/>
<path d="M161.841 40.8105H161.35V44.3387H161.841V40.8105Z" fill="#008C39"/>
<path d="M160.747 40.8105H160.256V44.3387H160.747V40.8105Z" fill="#008C39"/>
<path d="M159.652 40.8105H159.161V44.3387H159.652V40.8105Z" fill="#008C39"/>
<path d="M158.557 40.8105H158.066V44.3387H158.557V40.8105Z" fill="#008C39"/>
<path d="M157.461 40.8105H156.97V44.3387H157.461V40.8105Z" fill="#008C39"/>
<path d="M156.366 40.8105H155.875V44.3387H156.366V40.8105Z" fill="#008C39"/>
<path d="M155.271 40.8105H154.78V44.3387H155.271V40.8105Z" fill="#008C39"/>
<path d="M154.177 40.8105H153.686V44.3387H154.177V40.8105Z" fill="#008C39"/>
<path d="M153.082 40.8105H152.591V44.3387H153.082V40.8105Z" fill="#008C39"/>
<path d="M151.985 40.8105H151.494V44.3387H151.985V40.8105Z" fill="#008C39"/>
<path d="M88.342 69.0576C89.5959 63.7521 86.3056 58.436 80.9929 57.1838C75.6802 55.9316 70.3569 59.2174 69.1029 64.5229C67.849 69.8284 71.1393 75.1445 76.4521 76.3967C81.7648 77.6489 87.0881 74.3631 88.342 69.0576Z" fill="#00402A"/>
<path d="M83.6827 71.7414C86.4121 69.0157 86.4121 64.5965 83.6827 61.8709C80.9533 59.1452 76.5281 59.1452 73.7987 61.8708C71.0693 64.5965 71.0693 69.0158 73.7987 71.7415C76.5281 74.4671 80.9533 74.4671 83.6827 71.7414Z" fill="#B0A9A3"/>
<path d="M78.7401 62.3262C76.2675 62.3262 74.2547 64.3362 74.2547 66.8054C74.2547 69.2747 76.2675 71.2847 78.7401 71.2847C81.2127 71.2847 83.2255 69.2763 83.2255 66.8054C83.2255 64.3346 81.2127 62.3262 78.7401 62.3262ZM78.7401 70.7945C76.5375 70.7945 74.7456 69.005 74.7456 66.8054C74.7456 64.6059 76.5375 62.8164 78.7401 62.8164C80.9427 62.8164 82.7346 64.6059 82.7346 66.8054C82.7346 69.005 80.9427 70.7945 78.7401 70.7945ZM78.7401 63.56C76.945 63.56 75.4902 65.0128 75.4902 66.8054C75.4902 68.5981 76.945 70.0509 78.7401 70.0509C80.5353 70.0509 81.99 68.5981 81.99 66.8054C81.99 65.0128 80.5353 63.56 78.7401 63.56Z" fill="#DCEBE1"/>
<path d="M166.814 69.0576C168.068 63.7521 164.777 58.436 159.465 57.1838C154.152 55.9316 148.829 59.2174 147.575 64.5229C146.321 69.8284 149.611 75.1445 154.924 76.3967C160.237 77.6489 165.56 74.3631 166.814 69.0576Z" fill="#00402A"/>
<path d="M162.158 71.741C164.887 69.0153 164.887 64.5961 162.158 61.8704C159.429 59.1447 155.003 59.1447 152.274 61.8704C149.544 64.5961 149.545 69.0153 152.274 71.741C155.003 74.4667 159.429 74.4667 162.158 71.741Z" fill="#B0A9A3"/>
<path d="M157.215 62.3262C154.743 62.3262 152.73 64.3362 152.73 66.8054C152.73 69.2747 154.741 71.2847 157.215 71.2847C159.69 71.2847 161.701 69.2763 161.701 66.8054C161.701 64.3346 159.69 62.3262 157.215 62.3262ZM157.215 70.7945C155.013 70.7945 153.221 69.005 153.221 66.8054C153.221 64.6059 155.013 62.8164 157.215 62.8164C159.418 62.8164 161.21 64.6059 161.21 66.8054C161.21 69.005 159.418 70.7945 157.215 70.7945ZM157.215 63.56C155.42 63.56 153.966 65.0128 153.966 66.8054C153.966 68.5981 155.42 70.0509 157.215 70.0509C159.011 70.0509 160.465 68.5981 160.465 66.8054C160.465 65.0128 159.011 63.56 157.215 63.56Z" fill="#DCEBE1"/>
<path d="M77.3543 18.0674H76.8634V35.9567H77.3543V18.0674Z" fill="#5BD38C"/>
<path d="M96.2218 18.0674H95.7309V35.9567H96.2218V18.0674Z" fill="#5BD38C"/>
<path d="M58.4863 18.0674H57.9954V35.9567H58.4863V18.0674Z" fill="#5BD38C"/>
<path d="M44.1483 18.0674H43.6574V65.1577H44.1483V18.0674Z" fill="#5BD38C"/>
<path d="M120.067 18.0674H119.576V65.1577H120.067V18.0674Z" fill="#5BD38C"/>
<path d="M115.091 18.0674H114.6V35.9567H115.091V18.0674Z" fill="#5BD38C"/>
<path d="M134.397 18.0674H133.906V35.9567H134.397V18.0674Z" fill="#5BD38C"/>
<path d="M152.829 18.0674H152.338V35.9567H152.829V18.0674Z" fill="#5BD38C"/>
<path d="M76.1413 11.1353H44.9875C44.3883 11.1353 43.9026 11.6203 43.9026 12.2187V15.3498C43.9026 15.9482 44.3883 16.4333 44.9875 16.4333H76.1413C76.7405 16.4333 77.2262 15.9482 77.2262 15.3498V12.2187C77.2262 11.6203 76.7405 11.1353 76.1413 11.1353Z" fill="#008C39"/>
<path d="M170.611 11.1353H139.457C138.858 11.1353 138.372 11.6203 138.372 12.2187V15.3498C138.372 15.9482 138.858 16.4333 139.457 16.4333H170.611C171.21 16.4333 171.696 15.9482 171.696 15.3498V12.2187C171.696 11.6203 171.21 11.1353 170.611 11.1353Z" fill="#008C39"/>
<path d="M25.0857 26.3022H27.9527C28.3159 26.3022 28.6105 26.5964 28.6105 26.9592V34.7836C28.6105 35.1464 28.3159 35.4405 27.9527 35.4405H25.0857C24.7224 35.4405 24.4279 35.1464 24.4279 34.7836V26.9592C24.4279 26.5964 24.7224 26.3022 25.0857 26.3022Z" fill="#00A443"/>
<path d="M25.7007 27.8628C25.5649 27.8628 25.4553 27.7534 25.4553 27.6177V25.0161C25.4553 24.235 26.0918 23.5977 26.8756 23.5977H34.4964C34.6322 23.5977 34.7418 23.7071 34.7418 23.8428C34.7418 23.9784 34.6322 24.0879 34.4964 24.0879H26.8756C26.3635 24.0879 25.9462 24.5046 25.9462 25.0161V27.6177C25.9462 27.7534 25.8365 27.8628 25.7007 27.8628Z" fill="#00402A"/>
<path d="M34.93 22.2788L33.6848 23.5224C33.472 23.7349 33.472 24.0813 33.6848 24.2937L34.894 25.5014C34.9971 25.6044 35.1362 25.6616 35.2802 25.6616H36.8986C37.1997 25.6616 37.4452 25.4164 37.4452 25.1157V22.6645C37.4452 22.3638 37.1997 22.1187 36.8986 22.1187H35.3162C35.1706 22.1187 35.0315 22.1759 34.93 22.2788Z" fill="#00402A"/>
<path d="M34.8465 23.844C34.8465 24.0369 34.6894 24.1954 34.4947 24.1954C34.3 24.1954 34.1429 24.0385 34.1429 23.844C34.1429 23.6496 34.3 23.4927 34.4947 23.4927C34.6894 23.4927 34.8465 23.6496 34.8465 23.844Z" fill="#DCEBE1"/>
<path d="M25.8499 59.3208H7.44862C7.0117 59.3208 6.65826 58.9678 6.65826 58.5315C6.65826 58.0952 7.0117 57.7422 7.44862 57.7422H25.8499C26.2868 57.7422 26.6403 58.0952 26.6403 58.5315C26.6403 58.9678 26.2868 59.3208 25.8499 59.3208Z" fill="#00402A"/>
<path d="M20.1687 61.7637H8.71066C8.20907 61.7637 7.80249 62.1697 7.80249 62.6706V65.4912C7.80249 65.9921 8.20907 66.3982 8.71066 66.3982H20.1687C20.6703 66.3982 21.0769 65.9921 21.0769 65.4912V62.6706C21.0769 62.1697 20.6703 61.7637 20.1687 61.7637Z" fill="#5BD38C"/>
<path d="M6.07708 61.7638H2.17753C2.14807 62.022 2.13007 62.2802 2.13007 62.5401C2.13007 63.4683 2.31989 64.354 2.6619 65.1564H6.07544C6.5549 65.1564 6.94274 64.7691 6.94274 64.2903V62.6283C6.94274 62.1495 6.5549 61.7622 6.07544 61.7622L6.07708 61.7638Z" fill="#00402A"/>
<path d="M5.07238 64.5367C5.66796 64.5367 6.15078 64.0545 6.15078 63.4597C6.15078 62.865 5.66796 62.3828 5.07238 62.3828C4.4768 62.3828 3.99402 62.865 3.99402 63.4597C3.99402 64.0545 4.4768 64.5367 5.07238 64.5367Z" fill="#A2BCB1"/>
<path d="M5.20183 63.3146C5.20183 63.5581 5.00548 63.7542 4.76165 63.7542C4.51783 63.7542 4.32147 63.5581 4.32147 63.3146C4.32147 63.0711 4.51783 62.875 4.76165 62.875C5.00548 62.875 5.20183 63.0711 5.20183 63.3146Z" fill="white"/>
<path d="M2.57834 62.3848C2.4196 62.3848 2.26906 62.4191 2.13488 62.4812C2.13488 62.5008 2.13324 62.5204 2.13324 62.5416C2.13324 63.2329 2.23798 63.8996 2.43435 64.5272C2.48181 64.5337 2.53088 64.5386 2.57997 64.5386C3.17562 64.5386 3.65837 64.0565 3.65837 63.4617C3.65837 62.8668 3.17562 62.3848 2.57997 62.3848H2.57834Z" fill="#A2BCB1"/>
<path d="M31.1012 61.7637H23.2105C22.7315 61.7637 22.3432 62.1514 22.3432 62.6298V64.2917C22.3432 64.7701 22.7315 65.1578 23.2105 65.1578H31.1012C31.5802 65.1578 31.9685 64.7701 31.9685 64.2917V62.6298C31.9685 62.1514 31.5802 61.7637 31.1012 61.7637Z" fill="#00402A"/>
<path d="M24.3087 64.5367C24.9043 64.5367 25.3871 64.0545 25.3871 63.4597C25.3871 62.865 24.9043 62.3828 24.3087 62.3828C23.7132 62.3828 23.2303 62.865 23.2303 63.4597C23.2303 64.0545 23.7132 64.5367 24.3087 64.5367Z" fill="#A2BCB1"/>
<path d="M24.4396 63.3141C24.4396 63.5576 24.2432 63.7537 23.9994 63.7537C23.7556 63.7537 23.5592 63.5576 23.5592 63.3141C23.5592 63.0706 23.7556 62.8745 23.9994 62.8745C24.2432 62.8745 24.4396 63.0706 24.4396 63.3141Z" fill="white"/>
<path d="M27.0759 64.5367C27.6714 64.5367 28.1543 64.0545 28.1543 63.4597C28.1543 62.865 27.6714 62.3828 27.0759 62.3828C26.4803 62.3828 25.9975 62.865 25.9975 63.4597C25.9975 64.0545 26.4803 64.5367 27.0759 64.5367Z" fill="#A2BCB1"/>
<path d="M26.737 63.7537C26.9801 63.7537 27.1772 63.5569 27.1772 63.3141C27.1772 63.0713 26.9801 62.8745 26.737 62.8745C26.4939 62.8745 26.2968 63.0713 26.2968 63.3141C26.2968 63.5569 26.4939 63.7537 26.737 63.7537Z" fill="white"/>
<path d="M30.5512 62.953H29.319C29.1619 62.953 29.0343 62.8255 29.0343 62.6686C29.0343 62.5117 29.1619 62.3843 29.319 62.3843H30.5512C30.7083 62.3843 30.836 62.5117 30.836 62.6686C30.836 62.8255 30.7083 62.953 30.5512 62.953Z" fill="white"/>
<path d="M30.5512 63.744H29.319C29.1619 63.744 29.0343 63.6165 29.0343 63.4597C29.0343 63.3028 29.1619 63.1753 29.319 63.1753H30.5512C30.7083 63.1753 30.836 63.3028 30.836 63.4597C30.836 63.6165 30.7083 63.744 30.5512 63.744Z" fill="#A2BCB1"/>
<path d="M30.5512 64.537H29.319C29.1619 64.537 29.0343 64.4095 29.0343 64.2526C29.0343 64.0957 29.1619 63.9683 29.319 63.9683H30.5512C30.7083 63.9683 30.836 64.0957 30.836 64.2526C30.836 64.4095 30.7083 64.537 30.5512 64.537Z" fill="#A2BCB1"/>
<path d="M184.908 54.9998V47.1182C184.908 46.641 185.296 46.2521 185.775 46.2521H188.307V55.8643H185.775C185.297 55.8643 184.908 55.477 184.908 54.9982V54.9998Z" fill="#FF9C1A"/>
</svg>
