<svg width="84" height="60" viewBox="0 0 84 60" fill="none" xmlns="http://www.w3.org/2000/svg">
<path d="M24.7263 53.3718C27.8165 50.2907 27.8165 45.2953 24.7263 42.2142C21.636 39.1331 16.6257 39.1331 13.5355 42.2142C10.4452 45.2953 10.4452 50.2907 13.5355 53.3718C16.6257 56.4529 21.636 56.4529 24.7263 53.3718Z" fill="#003020"/>
<path d="M58.3166 53.3722C61.4068 50.2911 61.4068 45.2957 58.3166 42.2146C55.2263 39.1335 50.216 39.1335 47.1258 42.2146C44.0355 45.2957 44.0355 50.2912 47.1257 53.3723C50.216 56.4533 55.2263 56.4533 58.3166 53.3722Z" fill="#003020"/>
<path d="M54.5597 50.8774H61.3464L61.3464 4.67122H54.5597L54.5597 50.8774Z" fill="#00A443"/>
<path d="M61.3463 50.8774H63.3435L63.3435 4.67122H61.3463L61.3463 50.8774Z" fill="#00402A"/>
<path d="M50.4529 50.8774H57.2396L57.2396 4.67122H50.4529L50.4529 50.8774Z" fill="#00A443"/>
<path d="M57.2393 50.8774H59.2366L59.2366 4.67122H57.2393L57.2393 50.8774Z" fill="#00402A"/>
<path d="M61.3182 33.6729H62.3436V18.0505H61.3182V33.6729Z" fill="#5BD38C"/>
<path d="M62.3464 33.6729H64.1049V18.0505H62.3464V33.6729Z" fill="#26BF64"/>
<path d="M57.0487 33.6729H58.0739V18.0505H57.0487V33.6729Z" fill="#5BD38C"/>
<path d="M58.0741 33.6729H59.8326V18.0505H58.0741V33.6729Z" fill="#26BF64"/>
<path d="M57.0484 34.8101L82.3022 34.8101V33.6758L57.0484 33.6758V34.8101Z" fill="#5BD38C"/>
<path d="M83.4407 33.6729H77.2761V34.8071H83.4407V33.6729Z" fill="#26BF64"/>
<path d="M56.1891 4.67139L63.0123 4.67139V2.66047L56.1891 2.66047V4.67139Z" fill="#5BD38C"/>
<path d="M64.973 2.66016H63.0095V4.67107H64.973V2.66016Z" fill="#26BF64"/>
<path d="M50.4502 4.67139L58.5346 4.67139V2.66047L50.4502 2.66047V4.67139Z" fill="#5BD38C"/>
<path d="M60.8634 2.66016H58.5375V4.67107H60.8634V2.66016Z" fill="#26BF64"/>
<path d="M32.8655 19.3753C32.7391 18.9272 33.1408 18.4595 34.0874 17.9441C34.8655 17.524 35.933 17.1123 37.0987 16.7874C37.5706 16.6558 41.7084 15.5467 42.0651 16.8182C42.4219 18.0898 38.301 19.2745 37.8319 19.4061C36.6662 19.731 35.5397 19.9298 34.6549 19.969C34.5481 19.9746 34.4442 19.9774 34.3458 19.9774C33.4638 19.9774 32.9778 19.7786 32.8655 19.3753ZM37.2841 17.4428C35.0088 18.0758 33.7082 18.8712 33.5425 19.1877C33.8487 19.3725 35.374 19.3837 37.6493 18.7507C39.9246 18.1178 41.2252 17.3224 41.391 17.0059C41.0848 16.821 39.5594 16.8098 37.2841 17.4428Z" fill="#003020"/>
<path d="M38.3459 17.1821L39.8881 17.4006L41.1016 17.2914C41.1016 17.2914 40.346 17.8627 38.933 18.3444H38.6578L38.3459 17.1821Z" fill="#CE9578"/>
<path d="M41.8123 17.5632C41.8123 17.5632 40.86 17.4876 40.419 17.7089C39.978 17.9301 39.4807 18.4679 39.4807 18.4679L40.2307 18.5575C40.2307 18.5575 41.169 18.5575 41.4752 18.2354C41.7814 17.9133 41.8151 17.5632 41.8151 17.5632H41.8123Z" fill="#CE9578"/>
<path d="M9.99683 28.438V38.5514H35.812V51.0146H5.97988C4.0304 51.0146 2.44888 49.4378 2.44888 47.4941V31.6756C2.44888 29.886 3.90399 28.438 5.69616 28.438H9.99683Z" fill="#FFF5EC"/>
<path d="M17.1199 53.3225C20.2716 50.1802 20.2716 45.0854 17.1199 41.9431C13.9682 38.8008 8.85835 38.8008 5.70666 41.9431C2.55497 45.0854 2.55497 50.1802 5.70666 53.3225C8.85835 56.4649 13.9682 56.4649 17.1199 53.3225Z" fill="#2F6852"/>
<path d="M12.3778 55.5032C16.7158 54.4824 19.4024 50.1486 18.3786 45.8235C17.3547 41.4984 13.0081 38.8198 8.67014 39.8406C4.33217 40.8614 1.64549 45.1951 2.66934 49.5202C3.6932 53.8453 8.03988 56.524 12.3778 55.5032Z" fill="#003020"/>
<path d="M10.5225 43.0972C10.632 43.0972 10.7415 43.1028 10.8483 43.1112C8.48587 43.2792 6.62346 45.2397 6.62346 47.6371C6.62346 50.0345 8.48868 51.995 10.8483 52.1631C10.7415 52.1715 10.632 52.1771 10.5225 52.1771C8.00836 52.1771 5.96893 50.1438 5.96893 47.6399C5.96893 45.1361 8.00836 43.1028 10.5225 43.1028V43.0972Z" fill="#A2BCB1"/>
<path d="M6.62344 47.6343C6.62344 45.2369 8.48866 43.2764 10.8483 43.1084C13.2107 43.2764 15.0731 45.2369 15.0731 47.6343C15.0731 50.0318 13.2079 51.9923 10.8483 52.1603C8.48585 51.9923 6.62344 50.0318 6.62344 47.6343Z" fill="#DCEBE1"/>
<path d="M12.0757 1.16509L10.719 3.50369C10.2471 4.3159 9.99988 5.23734 9.99988 6.17558V38.5491H35.815L43.1354 34.8493H50.4558V19.8515L44.4361 1.24351C44.1973 0.50132 43.5034 0 42.7225 0H14.1067C13.2696 0 12.4971 0.445309 12.0785 1.16789L12.0757 1.16509ZM39.478 21.3863L34.27 2.02772C34.2167 1.83447 34.3656 1.64402 34.565 1.64402H40.9331C41.259 1.64402 41.5455 1.85407 41.641 2.16495L47.6046 21.3863H39.478ZM24.2221 6.72732C24.2221 6.05235 24.4468 5.39698 24.8597 4.86204L26.989 2.10614C27.2137 1.81486 27.5593 1.64402 27.9273 1.64402H30.225C30.7812 1.64402 31.2672 2.02211 31.402 2.55985L38.1213 29.4243H24.2221V6.72732ZM13.5983 6.32682C13.5983 5.39698 13.882 4.48674 14.4129 3.72215L15.5 2.15655C15.7219 1.83727 16.0899 1.64402 16.4804 1.64402H24.2221L22.1603 4.66319C21.8148 5.17012 21.6293 5.76947 21.6293 6.38563V29.4243H13.5983V6.32682Z" fill="#00A443"/>
<path d="M39.4778 21.3862L43.1324 34.8493H50.4528V21.3862H39.4778Z" fill="#5BD38C"/>
<path d="M17.7976 19.1035L22.8988 19.2716L24.9748 26.5954L34.7137 27.3908V29.4242H17.7976L16.3706 19.3136L17.7976 19.1035Z" fill="#D8CFC7"/>
<path d="M17.7976 19.1035L19.9381 26.9735L29.4243 27.5169V29.4242H17.7976L16.3706 19.3136L17.7976 19.1035Z" fill="#FFF5EC"/>
<path d="M2.44917 38.5488H7.98587L7.98587 33.2023H2.44917L2.44917 38.5488Z" fill="#FF9C1A"/>
<path d="M38.1212 29.4243L40.0959 36.3841L35.8121 38.5491H29.4243V29.4243H38.1212Z" fill="#00A443"/>
<path d="M30.2783 23.1083L34.8824 24.0101C36.0819 24.2454 37.0425 25.1388 37.3628 26.3151L40.096 36.3837L35.8122 26.9004L28.312 23.2371L30.2812 23.1055L30.2783 23.1083Z" fill="#003020"/>
<path d="M23.8906 18.0085L22.9383 18.7899C22.9383 18.7899 22.1574 17.4483 22.0562 16.6865C22.0562 16.6865 22.3035 18.9299 22.4524 19.9158C22.6125 20.9828 26.8148 20.924 26.8148 20.924C26.8148 20.924 25.5339 20.3023 23.8906 18.0057V18.0085Z" fill="#F4C54E"/>
<path d="M26.4861 16.3476C26.9776 17.1739 28.2614 18.7675 28.2614 18.7675L27.0704 16.5297C26.8709 16.1572 26.6434 15.7987 26.385 15.4626L24.7782 13.3677L26.4299 16.2496C26.4467 16.2804 26.4636 16.3112 26.4832 16.342V16.3476H26.4861Z" fill="#F4C54E"/>
<path d="M26.5255 5.68271C26.5255 5.68271 28.4975 8.7887 26.7053 9.21721C24.9131 9.64572 23.2389 7.94288 23.4608 6.48651C23.6799 5.02734 25.3682 3.58497 26.5255 5.68551V5.68271Z" fill="#E2A888"/>
<path d="M23.5003 7.23438C23.5003 7.23438 24.2671 9.36852 24.2334 11.231C24.2334 11.231 25.7138 11.7911 26.5677 11.5167C27.4217 11.2394 25.3486 7.83093 25.3486 7.83093L23.5003 7.23718V7.23438Z" fill="#E2A888"/>
<path d="M26.8316 7.38574C26.8316 7.38574 26.1293 7.49217 25.9945 7.79464C25.8596 8.09712 25.8512 8.49482 25.8512 8.49482L26.8316 7.66861V7.38574Z" fill="#3A3735"/>
<path d="M26.8318 7.38585L26.9863 7.26541C27.1155 7.16738 27.2981 7.18979 27.3992 7.31862L27.5032 7.45306L26.8318 7.66871V7.38585Z" fill="#3A3735"/>
<path d="M24.5 5.76904L24.4158 6.99295C24.4045 7.14699 24.3371 7.29263 24.2219 7.39906C24.2219 7.39906 24.1517 7.03497 23.986 7.04617C23.8202 7.05737 23.4972 7.72674 24.2416 7.98441L24.2107 8.60897C24.2023 8.76861 24.118 8.91705 23.9832 9.00388C23.9832 9.00388 23.1376 7.90599 23.0028 7.32345C23.0028 7.32345 23.6349 6.31518 24.4972 5.76904H24.5Z" fill="#3A3735"/>
<path d="M26.927 5.33853C26.927 5.33853 27.1208 6.24596 26.9017 6.35799C26.9017 6.35799 26.441 5.47857 26.2163 5.2153C26.2163 5.2153 26.6321 5.16489 26.927 5.33853Z" fill="#3A3735"/>
<path d="M23.0057 7.32345C23.0057 7.32345 24.517 4.89523 26.767 5.07448C26.767 5.07448 26.4721 3.40805 24.2978 4.08862C22.1236 4.76919 23.0057 7.32345 23.0057 7.32345Z" fill="#FF9C1A"/>
<path d="M24.2277 5.96273C24.2277 5.96273 25.2418 4.75282 27.2053 4.93767C28.1856 5.03009 26.9272 5.33818 26.9272 5.33818C26.9272 5.33818 25.8681 5.0553 24.2277 5.96273Z" fill="#FFB536"/>
<path d="M23.8907 10.4886C23.8907 10.4886 26.107 9.51954 28.0537 10.8527L31.228 14.0287L29.7784 16.807L29.0397 20.3891H22.2586L22.0564 16.6922C22.0564 16.6922 19.6462 12.4631 23.8907 10.4914V10.4886Z" fill="#DCECE1"/>
<mask id="mask0_7394_16457" style="mask-type:luminance" maskUnits="userSpaceOnUse" x="21" y="10" width="11" height="11">
<path d="M23.8907 10.4886C23.8907 10.4886 26.107 9.51954 28.0537 10.8527L31.228 14.0287L29.7784 16.807L29.0397 20.3891H22.2586L22.0564 16.6922C22.0564 16.6922 19.6462 12.4631 23.8907 10.4914V10.4886Z" fill="white"/>
</mask>
<g mask="url(#mask0_7394_16457)">
<path d="M22.0564 16.6895L23.607 18.2439L23.8908 18.0086L25.388 19.8095H24.6352L21.9188 18.8096L22.0564 16.6895Z" fill="#DCECE1"/>
<path d="M28.1689 11.0039C28.1689 11.0039 29.9162 13.3649 30.2449 15.9136L29.6578 17.3979L28.9162 13.4965L28.1689 11.0039Z" fill="#DCECE1"/>
</g>
<path d="M30.2785 23.109C30.1802 17.7652 29.7954 13.6342 28.1745 11.0183C28.0313 10.7886 27.815 10.6122 27.5622 10.517L27.4133 10.4609C27.4133 10.4609 28.5172 13.4969 28.7307 15.2754L27.388 15.5106C27.388 15.5106 24.8767 11.4636 23.5003 10.657L22.8935 11.0295C22.8935 11.0295 26.7756 14.662 26.6829 18.0593C26.5902 21.4566 22.1351 18.0929 22.1351 18.0929L21.7699 23.0586C21.739 23.4647 21.7643 23.8708 21.8457 24.2685C22.1912 26.0049 23.52 27.3801 25.2503 27.789L30.8656 28.8505C32.0201 29.0689 33.0651 29.6823 33.8179 30.5841L39.0849 36.9025L40.1018 36.39L37.1101 27.7638C36.5062 26.0245 35.1213 24.6718 33.3657 24.106L30.2869 23.1146L30.2785 23.109Z" fill="#00402A"/>
<mask id="mask1_7394_16457" style="mask-type:luminance" maskUnits="userSpaceOnUse" x="21" y="10" width="20" height="27">
<path d="M30.2785 23.109C30.1802 17.7652 29.7954 13.6342 28.1745 11.0183C28.0313 10.7886 27.815 10.6122 27.5622 10.517L27.4133 10.4609C27.4133 10.4609 28.5172 13.4969 28.7307 15.2754L27.388 15.5106C27.388 15.5106 24.8767 11.4636 23.5003 10.657L22.8935 11.0295C22.8935 11.0295 26.7756 14.662 26.6829 18.0593C26.5902 21.4566 22.1351 18.0929 22.1351 18.0929L21.7699 23.0586C21.739 23.4647 21.7643 23.8708 21.8457 24.2685C22.1912 26.0049 23.52 27.3801 25.2503 27.789L30.8656 28.8505C32.0201 29.0689 33.0651 29.6823 33.8179 30.5841L39.0849 36.9025L40.1018 36.39L37.1101 27.7638C36.5062 26.0245 35.1213 24.6718 33.3657 24.106L30.2869 23.1146L30.2785 23.109Z" fill="white"/>
</mask>
<g mask="url(#mask1_7394_16457)">
<path d="M30.2784 23.1089H26.9554C26.9554 23.1089 33.5369 23.543 35.4639 25.3018L35.0623 24.0443L30.2784 23.1089Z" fill="#003020"/>
</g>
<path d="M23.8905 18.0087L26.3035 15.9614L28.2614 18.7677L35.0649 17.1993L35.4666 18.8042L28.8401 21.4228C28.4637 21.5713 28.0507 21.6189 27.649 21.5544C27.1125 21.4704 26.6209 21.1988 26.2698 20.7843L23.8933 18.0059L23.8905 18.0087Z" fill="#E2A888"/>
<path d="M31.0396 14.3843L33.7391 16.6305L34.9863 16.8993L35.0621 17.199L31.2278 18.098L29.9413 17.1122L29.8766 16.5969L31.0396 14.3843Z" fill="#CE9578"/>
<path d="M35.6688 40.4926L35.8121 40.3917V38.5489L43.1325 34.8491H50.4529V51.0121H30.2249C30.2249 46.8334 32.253 42.9124 35.6688 40.4926Z" fill="#D8CFC7"/>
<path d="M47.3915 55.5047C51.7295 54.4838 54.4161 50.1501 53.3923 45.825C52.3684 41.4999 48.0218 38.8213 43.6838 39.8421C39.3459 40.8629 36.6593 45.1966 37.6831 49.5217C38.707 53.8468 43.0536 56.5255 47.3915 55.5047Z" fill="#2F6852"/>
<path d="M52.1038 50.7118C53.8095 46.6061 51.854 41.8992 47.7361 40.1986C43.6182 38.498 38.8973 40.4476 37.1916 44.5533C35.486 48.659 37.4414 53.3659 41.5593 55.0665C45.6772 56.7672 50.3981 54.8174 52.1038 50.7118Z" fill="#003020"/>
<path d="M44.6493 43.0972C44.7589 43.0972 44.8684 43.1028 44.9752 43.1112C42.6128 43.2792 40.7504 45.2397 40.7504 47.6371C40.7504 50.0345 42.6156 51.995 44.9752 52.1631C44.8684 52.1715 44.7589 52.1771 44.6493 52.1771C42.1352 52.1771 40.0986 50.1438 40.0986 47.6399C40.0986 45.1361 42.1381 43.1028 44.6493 43.1028V43.0972Z" fill="#A2BCB1"/>
<path d="M40.7505 47.6343C40.7505 45.2369 42.6157 43.2764 44.9753 43.1084C47.3377 43.2764 49.2001 45.2369 49.2001 47.6343C49.2001 50.0318 47.3349 51.9923 44.9753 52.1603C42.6129 51.9923 40.7505 50.0318 40.7505 47.6343Z" fill="#DCEBE1"/>
<path d="M43.1327 37.3779H50.4137V34.9077H43.1327V37.3779Z" fill="#FFF5EC"/>
<path d="M13.9408 29.4243H13.2582V38.5491H13.9408V29.4243Z" fill="#00A443"/>
</svg>
