<svg width="21" height="80" viewBox="0 0 21 80" fill="none" xmlns="http://www.w3.org/2000/svg">
<path d="M7.98134 0H2.7677V8.58209H7.98134V0Z" fill="#3CC2FF"/>
<path d="M7.98157 0H7.21179V8.58209H7.98157V0Z" fill="#0792E5"/>
<path d="M16.3234 0H7.89734V8.58209H16.3234V0Z" fill="#007ACB"/>
<path d="M8.6098 6.67871H0V79.8391H8.6098V6.67871Z" fill="#DCEBE1"/>
<path d="M10.4815 8.70898H8.6098V79.8397H10.4815V8.70898Z" fill="#007F33"/>
<path d="M18.323 6.67871H10.4815V79.8391H18.323V6.67871Z" fill="#0792E5"/>
<path d="M20.0274 8.70898H18.3229V79.8397H20.0274V8.70898Z" fill="#007F33"/>
<path d="M15.6108 8.53516H14.405V14.8181H15.6108V8.53516Z" fill="#5BD38C"/>
<path d="M17.7494 12.7529H16.5436V19.0359H17.7494V12.7529Z" fill="#5BD38C"/>
<path d="M15.6105 18.8062H14.4046V25.0891H15.6105V18.8062Z" fill="#5BD38C"/>
<path d="M17.7494 23.0239H16.5436V29.3069H17.7494V23.0239Z" fill="#5BD38C"/>
<path d="M15.6105 29.0771H14.4046V35.3601H15.6105V29.0771Z" fill="#5BD38C"/>
<path d="M17.7494 33.2949H16.5436V39.5779H17.7494V33.2949Z" fill="#5BD38C"/>
<path d="M15.6105 39.3491H14.4046V45.6321H15.6105V39.3491Z" fill="#5BD38C"/>
<path d="M17.7494 43.5659H16.5436V49.8489H17.7494V43.5659Z" fill="#5BD38C"/>
<path d="M15.6105 49.6201H14.4046V55.9031H15.6105V49.6201Z" fill="#5BD38C"/>
<path d="M17.7494 53.8374H16.5436V60.1203H17.7494V53.8374Z" fill="#5BD38C"/>
<path d="M15.6105 59.8911H14.4046V66.1741H15.6105V59.8911Z" fill="#5BD38C"/>
<path d="M17.7494 64.1079H16.5436V70.3908H17.7494V64.1079Z" fill="#5BD38C"/>
<path d="M15.6105 70.1626H14.4046V76.4455H15.6105V70.1626Z" fill="#5BD38C"/>
<path d="M5.54016 8.53516H4.33429V14.8181H5.54016V8.53516Z" fill="#5BD38C"/>
<path d="M7.67926 12.7529H6.47339V19.0359H7.67926V12.7529Z" fill="#5BD38C"/>
<path d="M5.54016 18.8062H4.33429V25.0891H5.54016V18.8062Z" fill="#5BD38C"/>
<path d="M7.67926 23.0239H6.47339V29.3069H7.67926V23.0239Z" fill="#5BD38C"/>
<path d="M5.54016 29.0771H4.33429V35.3601H5.54016V29.0771Z" fill="#5BD38C"/>
<path d="M7.67926 33.2949H6.47339V39.5779H7.67926V33.2949Z" fill="#5BD38C"/>
<path d="M5.54016 39.3491H4.33429V45.6321H5.54016V39.3491Z" fill="#5BD38C"/>
<path d="M7.67926 43.5664H6.47339V49.8493H7.67926V43.5664Z" fill="#5BD38C"/>
<path d="M5.54016 49.6201H4.33429V55.9031H5.54016V49.6201Z" fill="#5BD38C"/>
<path d="M7.67926 53.8374H6.47339V60.1203H7.67926V53.8374Z" fill="#5BD38C"/>
<path d="M5.54016 59.8911H4.33429V66.1741H5.54016V59.8911Z" fill="#5BD38C"/>
<path d="M7.67926 64.1079H6.47339V70.3908H7.67926V64.1079Z" fill="#5BD38C"/>
<path d="M5.54016 70.1626H4.33429V76.4455H5.54016V70.1626Z" fill="#5BD38C"/>
</svg>
