<svg width="72" height="80" viewBox="0 0 72 80" fill="none" xmlns="http://www.w3.org/2000/svg">
<path d="M20.6318 30.147H15.6988V74.7532H20.6318V30.147Z" fill="#B0A9A3"/>
<path d="M38.5881 30.147H33.6551V74.7532H38.5881V30.147Z" fill="#B0A9A3"/>
<path d="M38.5886 30.147H37.1999V74.7532H38.5886V30.147Z" fill="#D8CFC7"/>
<path d="M20.6317 30.147H19.243V74.7532H20.6317V30.147Z" fill="#D8CFC7"/>
<path d="M56.6183 30.147H51.6853V74.7532H56.6183V30.147Z" fill="#B0A9A3"/>
<path d="M56.6183 30.147H55.2296V74.7532H56.6183V30.147Z" fill="#D8CFC7"/>
<path d="M58.2524 29.7378C58.2524 29.8743 58.2524 30.0108 58.2434 30.1473H14.0547C14.0456 30.0108 14.0456 29.8743 14.0456 29.7378C14.0456 17.4738 23.9449 7.53027 36.1506 7.53027C48.3563 7.53027 58.2524 17.4768 58.2524 29.7378Z" fill="#D8CFC7"/>
<path d="M59.8093 30.1475H12.3843C12.1925 30.1475 12.0371 30.3036 12.0371 30.4963V32.9715C12.0371 33.1642 12.1925 33.3204 12.3843 33.3204H59.8093C60.0011 33.3204 60.1565 33.1642 60.1565 32.9715V30.4963C60.1565 30.3036 60.0011 30.1475 59.8093 30.1475Z" fill="#B0A9A3"/>
<path d="M44.5828 8.49912C44.5828 8.55174 44.5828 8.60435 44.5803 8.65447H27.6679C27.6654 8.60185 27.6654 8.54923 27.6654 8.49912C27.6654 3.80605 31.4533 0 36.1241 0C40.7948 0 44.5828 3.80605 44.5828 8.49912Z" fill="#D8CFC7"/>
<path d="M47.088 8.65479H25.1124C25.024 8.65479 24.9524 8.72678 24.9524 8.81557V9.96527C24.9524 10.0541 25.024 10.126 25.1124 10.126H47.088C47.1764 10.126 47.248 10.0541 47.248 9.96527V8.81557C47.248 8.72678 47.1764 8.65479 47.088 8.65479Z" fill="#B0A9A3"/>
<path d="M8.4576 72.3237H62.5606C62.7568 72.3237 62.9198 72.4372 62.9198 72.5784V74.9156H8.10135V72.5784C8.10135 72.4393 8.26134 72.3237 8.46059 72.3237H8.4576Z" fill="#89837E"/>
<path d="M4.26574 74.7422H66.7524C66.9637 74.7422 67.1358 74.8642 67.1358 75.014V77.3319H3.8793V75.014C3.8793 74.8642 4.05139 74.7422 4.26272 74.7422H4.26574Z" fill="#B0A9A3"/>
<path d="M0.407554 77.2461H70.6077C70.8341 77.2461 71.0153 77.3745 71.0153 77.535V79.8379H0V77.535C0 77.3745 0.181131 77.2461 0.407554 77.2461Z" fill="#B0A9A3"/>
<path d="M20.6319 33.3203H15.6988V36.1839H20.6319V33.3203Z" fill="#D8CFC7"/>
<path d="M38.5672 33.3203H33.6341V36.1839H38.5672V33.3203Z" fill="#D8CFC7"/>
<path d="M56.6184 33.3203H51.6853V36.1839H56.6184V33.3203Z" fill="#D8CFC7"/>
</svg>
