<svg width="78" height="80" viewBox="0 0 78 80" fill="none" xmlns="http://www.w3.org/2000/svg">
<path d="M53.2378 0.000488281H36.5231C36.5231 34.6977 6.10352e-05 41.182 6.10352e-05 41.182H16.7148C16.7148 41.182 53.2378 34.699 53.2378 0.000488281Z" fill="#DCEBE1"/>
<path d="M60.6656 0H53.2369C53.2369 34.6972 16.7138 41.1815 16.7138 41.1815V79.839H77.3803V0.00126121H60.6656V0Z" fill="#0792E5"/>
<path d="M16.7159 41.1821H0.0012207V79.8397H16.7159V41.1821Z" fill="#3CC2FF"/>
<path d="M31.4382 33.6436C27.2469 36.0357 23.26 37.5253 20.4427 38.4013H13.178C15.748 37.1488 18.477 35.5882 21.1606 33.6436H31.4382Z" fill="#007F33"/>
<path d="M40.1484 27.2031C38.2256 29.0337 36.1968 30.6107 34.1592 31.9608H23.3579C25.0852 30.5499 26.7784 28.9728 28.3555 27.2031H40.1484Z" fill="#007F33"/>
<path d="M45.5518 20.7632C44.4175 22.4974 43.1508 24.0744 41.8122 25.5209H29.7707C30.9403 24.058 32.0392 22.4721 33.0221 20.7632H45.5505H45.5518Z" fill="#007F33"/>
<path d="M48.8944 14.3237C48.2295 16.0149 47.4587 17.6008 46.5995 19.0814H33.9385C34.7006 17.5919 35.392 16.006 35.9761 14.3237H48.8944Z" fill="#007F33"/>
<path d="M50.7457 7.88379C50.4265 9.54829 50.0101 11.1342 49.5055 12.6415H36.5165C36.977 11.1253 37.358 9.53942 37.6419 7.88379H50.7457Z" fill="#007F33"/>
<path d="M51.4367 1.75195C51.3749 3.29349 51.2411 4.78305 51.0292 6.20289H37.89C38.0944 4.77418 38.2181 3.29349 38.2711 1.75195H51.438H51.4367Z" fill="#007F33"/>
<path d="M75.6071 1.75195V6.20289H54.609C54.8033 4.77418 54.9282 3.29349 54.9812 1.75195H75.6071Z" fill="#5BD38C"/>
<path d="M75.6073 7.88379V12.6415H53.2352C53.6869 11.1253 54.0679 9.54829 54.3518 7.88379H75.6073Z" fill="#5BD38C"/>
<path d="M75.6074 14.3237V19.0814H50.6488C51.4197 17.583 52.1023 16.006 52.6864 14.3237H75.6074Z" fill="#5BD38C"/>
<path d="M75.6082 20.7632V25.5209H46.4849C47.6545 24.058 48.7446 22.4721 49.7363 20.7632H75.6082Z" fill="#5BD38C"/>
<path d="M75.6066 27.2031V31.9608H40.0689C41.8049 30.5588 43.4893 28.9728 45.0576 27.2031H75.6078H75.6066Z" fill="#5BD38C"/>
<path d="M75.6069 33.6436V38.4013H29.8887C32.4575 37.1488 35.1953 35.5882 37.8802 33.6436H75.6069Z" fill="#5BD38C"/>
<path d="M75.6081 40.082V44.8397H18.4869V42.5794C20.0729 42.194 22.8107 41.4144 26.1151 40.082H75.6081Z" fill="#5BD38C"/>
<path d="M75.6081 46.522H18.4869V51.2797H75.6081V46.522Z" fill="#5BD38C"/>
<path d="M75.6081 52.9614H18.4869V57.7191H75.6081V52.9614Z" fill="#5BD38C"/>
<path d="M75.6081 59.4019H18.4869V64.1596H75.6081V59.4019Z" fill="#5BD38C"/>
<path d="M75.6081 65.833H18.4869V70.5996H75.6081V65.833Z" fill="#5BD38C"/>
<path d="M75.6081 72.272H18.4869V78.0895H75.6081V72.272Z" fill="#5BD38C"/>
</svg>
