<svg width="113" height="68" viewBox="0 0 113 68" fill="none" xmlns="http://www.w3.org/2000/svg">
<path d="M85.9204 0H47.9638L71.3505 21.5906L109.171 16.9122L85.9204 0Z" fill="#FF9C1A"/>
<path d="M71.3605 67.8423H24.8523V18.7505L48.176 2.57422L71.3605 18.7505V67.8423Z" fill="#FFD97D"/>
<path d="M71.3505 16.9122L48.1031 0L24.8523 16.9122V21.5906L48.1031 4.67842L71.3505 21.5906V16.9122Z" fill="#C66D00"/>
<path d="M109.171 16.9121H71.3505V21.5905H109.171V16.9121Z" fill="#E3850D"/>
<path d="M109.171 21.5908H71.3505V67.8422H109.171V21.5908Z" fill="#FFE5A8"/>
<path d="M63.681 44.5801H32.0842V67.8423H63.681V44.5801Z" fill="#FFE5A8"/>
<path d="M47.6388 28.4468H15.9459L32.0842 44.5798L63.6776 40.1145L47.6388 28.4468Z" fill="#FF9C1A"/>
<path d="M32.0875 67.8422H0V41.3834L16.0918 31.4604L32.0875 41.3834V67.8422Z" fill="#FFD97D"/>
<path d="M32.0842 40.1145L16.0421 28.4468L0 40.1145V44.5798L16.0421 32.9121L32.0842 44.5798V40.1145Z" fill="#C66D00"/>
<path d="M63.681 40.1143H32.0842V44.5796H63.681V40.1143Z" fill="#E3850D"/>
<path d="M21.0258 67.8423V52.7515C21.0258 50.0244 18.8241 47.8101 16.1051 47.8101H15.7868C13.0711 47.8101 10.8694 50.0211 10.8694 52.7515V67.8423H21.0258Z" fill="#FFE5A8"/>
<path d="M21.0258 67.8423V52.7515C21.0258 50.0244 19.1722 47.8101 16.8909 47.8101H16.6224C14.3377 47.8101 12.4875 50.0211 12.4875 52.7515V67.8423H21.0291H21.0258Z" fill="#615D5A"/>
<path d="M44.0511 61.8549V52.7545C44.0511 50.0273 46.2528 47.813 48.9685 47.813H49.2868C52.0025 47.813 54.2043 50.024 54.2043 52.7545V61.8549H44.0478H44.0511Z" fill="#D8CFC7"/>
<path d="M44.0511 61.8549V52.7545C44.0511 50.0273 45.9014 47.813 48.186 47.813H48.4546C50.7392 47.813 52.5894 50.024 52.5894 52.7545V61.8549H44.0478H44.0511Z" fill="#615D5A"/>
<path d="M87.3893 59.9303V52.7545C87.3893 50.0273 89.5911 47.813 92.3101 47.813H92.6284C95.3474 47.813 97.5491 50.024 97.5491 52.7545V59.9303H87.3927H87.3893Z" fill="#D8CFC7"/>
<path d="M87.3893 59.9303V52.7545C87.3893 50.0273 89.2395 47.813 91.5242 47.813H91.7927C94.0774 47.813 95.9276 50.024 95.9276 52.7545V59.9303H87.386H87.3893Z" fill="#615D5A"/>
<path d="M52.5198 24.3976V19.3229C52.5198 16.5958 50.3181 14.3848 47.5991 14.3848H47.2808C44.5651 14.3848 42.36 16.5958 42.36 19.3229V24.3976H52.5165H52.5198Z" fill="#FFE5A8"/>
<path d="M52.5198 24.3976V19.3229C52.5198 16.5958 50.6695 14.3848 48.3849 14.3848H48.1163C45.8317 14.3848 43.9814 16.5958 43.9814 19.3229V24.3976H52.5198Z" fill="#615D5A"/>
<path d="M87.3893 39.8648V34.7901C87.3893 32.063 89.5911 29.8486 92.3101 29.8486H92.6284C95.3474 29.8486 97.5491 32.0596 97.5491 34.7901V39.8648H87.3927H87.3893Z" fill="#D8CFC7"/>
<path d="M87.3893 39.8648V34.7901C87.3893 32.063 89.2395 29.8486 91.5242 29.8486H91.7927C94.0774 29.8486 95.9276 32.0596 95.9276 34.7901V39.8648H87.386H87.3893Z" fill="#615D5A"/>
<path d="M98.4211 63.7333C98.4211 58.0259 93.8121 53.3975 88.1287 53.3975C82.4453 53.3975 77.8363 58.0259 77.8363 63.7333H98.4178H98.4211Z" fill="#00A443"/>
<path d="M108.992 63.7332C108.992 60.3667 106.273 57.6362 102.921 57.6362C99.5684 57.6362 96.8494 60.3667 96.8494 63.7332H108.995H108.992Z" fill="#007F33"/>
<path d="M54.2341 63.7596C54.2341 60.0902 57.1985 57.1133 60.8526 57.1133C64.5066 57.1133 67.471 60.0902 67.471 63.7596H54.2341Z" fill="#00A443"/>
<path d="M47.4366 63.7599C47.4366 61.5922 49.184 59.8374 51.3427 59.8374C53.5013 59.8374 55.2487 61.5922 55.2487 63.7599H47.4366Z" fill="#007F33"/>
<path d="M112.504 61.855H81.381V67.842H112.504V61.855Z" fill="#FFB536"/>
<path d="M81.3809 61.855H75.7506V67.842H81.3809V61.855Z" fill="#FFCD52"/>
<path d="M67.6997 61.855H44.0113V67.842H67.6997V61.855Z" fill="#FFB536"/>
<path d="M44.0113 61.855H38.381V67.842H44.0113V61.855Z" fill="#FFCD52"/>
</svg>
