<svg width="40" height="40" viewBox="0 0 40 40" fill="none" xmlns="http://www.w3.org/2000/svg">
<path d="M19.4917 23.7167H7.94582C7.25832 23.7167 6.64582 23.3042 6.37915 22.6667C6.12082 22.0417 6.25415 21.3292 6.71665 20.8417L8.06248 19.1251C7.59165 18.9251 7.22915 18.5209 7.08748 18.0251C6.92498 17.4417 7.07915 16.8209 7.48748 16.3917L9.49582 13.9709C9.34582 13.8959 9.20832 13.8001 9.08748 13.6876C8.47498 13.1042 8.27498 12.0417 9.08332 11.1376L12.4333 7.57089C12.7667 7.21672 13.2333 7.01672 13.7167 7.01672C14.2 7.01672 14.6667 7.22089 15 7.57089L18.3417 11.1251C19.1583 12.0459 18.9583 13.1084 18.3417 13.6876C18.2208 13.8001 18.0875 13.8959 17.9375 13.9667L19.95 16.3876C20.2542 16.7126 20.4167 17.1334 20.4125 17.5792C20.4042 18.0334 20.2208 18.4584 19.8958 18.7751C19.7417 18.9251 19.5667 19.0417 19.375 19.1209L20.7208 20.8376C21.1833 21.3209 21.3167 22.0334 21.0667 22.6584C21.0667 22.6584 21.0667 22.6626 21.0625 22.6626C20.7958 23.3084 20.1792 23.7167 19.4917 23.7167ZM9.49582 17.6876C9.64165 17.6876 9.78748 17.7376 9.90832 17.8417C10.1583 18.0584 10.1917 18.4376 9.98748 18.6959L7.67915 21.6417C7.66248 21.6626 7.64582 21.6792 7.62915 21.7001C7.49998 21.8292 7.46248 22.0209 7.52915 22.1917C7.59998 22.3584 7.76248 22.4667 7.94165 22.4667H19.4875C19.6708 22.4667 19.8333 22.3584 19.9042 22.1917C19.9708 22.0209 19.9333 21.8292 19.8042 21.7001C19.7875 21.6834 19.7708 21.6626 19.7542 21.6417L17.45 18.6959C17.2458 18.4334 17.2792 18.0584 17.5292 17.8417C17.7792 17.6251 18.1542 17.6376 18.3875 17.8751C18.4708 17.9626 18.5833 18.0084 18.7042 18.0084C18.825 18.0042 18.9375 17.9667 19.0208 17.8834C19.1083 17.8001 19.1583 17.6876 19.1583 17.5667C19.1583 17.4459 19.1167 17.3334 19.0292 17.2459C19.0167 17.2334 19.0083 17.2209 18.9958 17.2084L15.9583 13.5501C15.7458 13.2917 15.7708 12.9167 16.0167 12.6917C16.2625 12.4667 16.6417 12.4751 16.8792 12.7084C17.1667 12.9959 17.3792 12.8792 17.4792 12.7834C17.6458 12.6292 17.725 12.3209 17.4125 11.9709L14.0833 8.42922C13.8917 8.22506 13.5292 8.22506 13.3333 8.42922L9.99582 11.9834C9.69582 12.3209 9.77498 12.6292 9.93748 12.7834C10.0375 12.8792 10.25 12.9959 10.5375 12.7084C10.775 12.4751 11.1542 12.4667 11.4 12.6917C11.6458 12.9167 11.6708 13.2959 11.4583 13.5501L8.42498 17.2084C8.41248 17.2209 8.40415 17.2334 8.39165 17.2459C8.27915 17.3584 8.23748 17.5292 8.27915 17.6876C8.32082 17.8376 8.44582 17.9584 8.60415 18.0001C8.75832 18.0376 8.92498 17.9917 9.03748 17.8751C9.17082 17.7501 9.33332 17.6876 9.49582 17.6876Z" fill="#00A443"/>
<path d="M31.7415 21.4376H23.0915C23.0415 21.4376 22.9915 21.4293 22.9415 21.4209C22.3707 21.2793 21.9124 20.8418 21.7374 20.2793C21.5665 19.7209 21.6915 19.1293 22.0707 18.6834L23.804 16.3626C23.7582 16.3334 23.7124 16.3001 23.6665 16.2668C23.0332 15.7543 22.7582 14.6418 23.4082 13.7376L25.9957 10.2543C26.3207 9.80843 26.8499 9.5376 27.4124 9.5376C27.9707 9.5376 28.4999 9.80843 28.829 10.2584L31.4124 13.7293C32.0707 14.6459 31.7915 15.7584 31.1624 16.2709C31.1207 16.3043 31.0749 16.3376 31.0249 16.3668L32.7582 18.6876C33.1374 19.1334 33.2624 19.7251 33.0915 20.2834C32.9207 20.8459 32.4582 21.2834 31.8874 21.4251C31.8415 21.4293 31.7915 21.4376 31.7415 21.4376ZM23.1874 20.1876H31.6457C31.7665 20.1376 31.8582 20.0376 31.8999 19.9126C31.9457 19.7668 31.9082 19.6084 31.804 19.4918C31.7915 19.4793 31.7832 19.4668 31.7707 19.4501L29.1832 15.9834C28.9832 15.7168 29.029 15.3376 29.2874 15.1251C29.5457 14.9126 29.9249 14.9418 30.1457 15.1876C30.2957 15.3543 30.3457 15.3126 30.3749 15.2918C30.5165 15.1793 30.6457 14.8043 30.3999 14.4626L27.8165 10.9959C27.6165 10.7209 27.1874 10.7334 26.9999 10.9876L24.4124 14.4709C24.1749 14.8001 24.304 15.1751 24.4457 15.2918C24.479 15.3168 24.5249 15.3543 24.6749 15.1918C24.8999 14.9459 25.279 14.9168 25.5374 15.1293C25.7957 15.3418 25.8415 15.7168 25.6415 15.9876L23.054 19.4543C23.0457 19.4668 23.0332 19.4834 23.0207 19.4959C22.9165 19.6126 22.8832 19.7709 22.929 19.9168C22.9707 20.0376 23.0665 20.1376 23.1874 20.1876Z" fill="#00A443"/>
<path d="M14.3416 23.0959H13.0916V27.6626H14.3416V23.0959Z" fill="#00A443"/>
<path d="M28.0376 20.8125H26.7876V24.2375H28.0376V20.8125Z" fill="#00A443"/>
<path d="M23.5293 32.7001C18.9751 28.8667 12.8001 27.4126 7.01676 28.8084L6.7251 27.5917C12.8959 26.1042 19.4793 27.6542 24.3376 31.7417L23.5293 32.7001Z" fill="#FF9C1A"/>
<path d="M19.8334 27.3542L19.175 26.2917C23.375 23.6792 28.5167 22.9376 33.2834 24.2501L32.95 25.4542C28.5209 24.2334 23.7417 24.9251 19.8334 27.3542Z" fill="#FF9C1A"/>
</svg>
