<svg width="40" height="40" viewBox="0 0 40 40" fill="none" xmlns="http://www.w3.org/2000/svg">
<path d="M19.9499 13.9083C17.8499 13.9083 16.1416 12.2 16.1416 10.1C16.1416 7.99996 17.8499 6.29163 19.9499 6.29163C22.0499 6.29163 23.7583 7.99996 23.7583 10.1C23.7583 12.2 22.0499 13.9083 19.9499 13.9083ZM19.9499 7.53746C18.5374 7.53746 17.3916 8.68746 17.3916 10.0958C17.3916 11.5041 18.5416 12.6541 19.9499 12.6541C21.3583 12.6541 22.5083 11.5041 22.5083 10.0958C22.5083 8.68746 21.3583 7.53746 19.9499 7.53746Z" fill="#00A443"/>
<path d="M29.7666 21.3375C28.3083 21.3375 26.9541 20.4875 26.3291 19.1667C26.0833 18.65 25.9583 18.1 25.9583 17.525C25.9583 15.425 27.6666 13.7167 29.7666 13.7167C31.8666 13.7167 33.5749 15.425 33.5749 17.525C33.5749 19.625 31.8666 21.3333 29.7666 21.3333V21.3375ZM29.7666 14.9708C28.3541 14.9708 27.2083 16.1208 27.2083 17.5292C27.2083 17.9167 27.2916 18.2875 27.4583 18.6292C27.8833 19.5167 28.7874 20.0875 29.7708 20.0875C31.1833 20.0875 32.3291 18.9375 32.3291 17.5292C32.3291 16.1208 31.1791 14.9708 29.7708 14.9708H29.7666Z" fill="#00A443"/>
<path d="M12.625 33.6624C10.4541 33.6624 8.69165 31.8999 8.69165 29.7291C8.69165 27.5583 10.4541 25.7958 12.625 25.7958C13.6583 25.7958 14.6375 26.1958 15.375 26.9166C16.1375 27.6624 16.5583 28.6624 16.5583 29.7291C16.5583 31.8999 14.7958 33.6624 12.625 33.6624ZM12.625 27.0458C11.1458 27.0458 9.94165 28.2499 9.94165 29.7291C9.94165 31.2083 11.1458 32.4124 12.625 32.4124C14.1041 32.4124 15.3083 31.2083 15.3083 29.7291C15.3083 28.9999 15.0208 28.3208 14.5 27.8124C13.9958 27.3208 13.3292 27.0499 12.625 27.0499V27.0458Z" fill="#00A443"/>
<path d="M10.1667 21.3416C8.06673 21.3416 6.3584 19.6333 6.3584 17.5333C6.3584 15.4333 8.06673 13.725 10.1667 13.725C12.2667 13.725 13.9751 15.4333 13.9751 17.5333C13.9751 18 13.8917 18.4583 13.7251 18.8916C13.1667 20.3583 11.7334 21.3416 10.1667 21.3416ZM10.1667 14.975C8.75423 14.975 7.6084 16.125 7.6084 17.5333C7.6084 18.9416 8.7584 20.0916 10.1667 20.0916C11.2209 20.0916 12.1834 19.4291 12.5584 18.4458C12.6709 18.1541 12.7251 17.8458 12.7251 17.5333C12.7251 16.1208 11.5751 14.975 10.1667 14.975Z" fill="#00A443"/>
<path d="M13.4061 18.1026L12.8765 19.2349L16.126 20.755L16.6556 19.6227L13.4061 18.1026Z" fill="#00A443"/>
<path d="M20.575 13.2833H19.325V17.7417H20.575V13.2833Z" fill="#00A443"/>
<path d="M16.9813 23.6754L14.0186 26.4305L14.8698 27.3459L17.8326 24.5908L16.9813 23.6754Z" fill="#00A443"/>
<path d="M27.3667 33.6624C25.2 33.6624 23.4333 31.8999 23.4333 29.7291C23.4333 28.6624 23.8542 27.6624 24.6167 26.9166C25.3542 26.1958 26.3333 25.7958 27.3667 25.7958C29.5375 25.7958 31.3 27.5583 31.3 29.7291C31.3 31.8999 29.5375 33.6624 27.3667 33.6624ZM27.3667 27.0458C26.6625 27.0458 25.9958 27.3166 25.4917 27.8083C24.9708 28.3166 24.6833 28.9999 24.6833 29.7249C24.6833 31.2041 25.8875 32.4083 27.3667 32.4083C28.8458 32.4083 30.05 31.2041 30.05 29.7249C30.05 28.2458 28.8458 27.0416 27.3667 27.0416V27.0458Z" fill="#00A443"/>
<path d="M23.0037 23.6757L22.1523 24.5909L25.1146 27.3466L25.966 26.4313L23.0037 23.6757Z" fill="#00A443"/>
<path d="M26.7136 18.02L23.4644 19.5406L23.9942 20.6728L27.2435 19.1521L26.7136 18.02Z" fill="#00A443"/>
<path d="M19.95 25.7C18.7917 25.7 17.7084 25.2459 16.9 24.4209C16.1084 23.6167 15.675 22.55 15.675 21.425C15.675 20.9542 15.75 20.4917 15.9 20.0542C16.4875 18.3167 18.1167 17.15 19.9542 17.15C21.7917 17.15 23.3292 18.2584 23.9542 19.9125C24.1375 20.3959 24.2334 20.9084 24.2334 21.4292C24.2334 22.5709 23.7875 23.6459 22.9792 24.4542C22.1709 25.2625 21.0959 25.7084 19.9542 25.7084L19.95 25.7ZM19.95 18.3959C18.65 18.3959 17.4959 19.2209 17.0834 20.4542C16.9792 20.7667 16.925 21.0917 16.925 21.425C16.925 22.225 17.2334 22.9792 17.7917 23.5459C18.3667 24.1292 19.1334 24.45 19.95 24.45C20.7667 24.45 21.5209 24.1334 22.0917 23.5625C22.6625 22.9917 22.9792 22.2292 22.9792 21.4209C22.9792 21.05 22.9125 20.6917 22.7834 20.3459C22.3417 19.175 21.2042 18.3917 19.95 18.3917V18.3959Z" fill="#FF9C1A"/>
</svg>
