<svg width="40" height="40" viewBox="0 0 40 40" fill="none" xmlns="http://www.w3.org/2000/svg">
<path d="M26.2419 31.0791L25.0085 30.875C25.3627 28.7416 27.1877 27.1917 29.346 27.1917C31.5085 27.1917 33.3294 28.7416 33.6835 30.875L32.4502 31.0791C32.2002 29.55 30.896 28.4417 29.3502 28.4417C27.8044 28.4417 26.496 29.55 26.2419 31.0791Z" fill="#FF9C1A"/>
<path d="M29.375 26.6333C27.8167 26.6333 26.55 25.3667 26.55 23.8083C26.55 22.25 27.8167 20.9833 29.375 20.9833C30.9334 20.9833 32.2 22.25 32.2 23.8083C32.2 25.3667 30.9334 26.6333 29.375 26.6333ZM29.375 22.2292C28.5042 22.2292 27.8 22.9375 27.8 23.8042C27.8 24.675 28.5084 25.3792 29.375 25.3792C30.2417 25.3792 30.95 24.6708 30.95 23.8042C30.95 22.9375 30.2459 22.2292 29.375 22.2292Z" fill="#00A443"/>
<path d="M7.52093 31.0791L6.2876 30.875C6.64176 28.7416 8.46676 27.1917 10.6251 27.1917C12.7876 27.1917 14.6084 28.7416 14.9626 30.875L13.7293 31.0791C13.4793 29.55 12.1751 28.4417 10.6293 28.4417C9.07926 28.4417 7.7751 29.55 7.52093 31.0791Z" fill="#FF9C1A"/>
<path d="M10.6543 26.6333C9.09601 26.6333 7.82935 25.3667 7.82935 23.8083C7.82935 22.25 9.09601 20.9833 10.6543 20.9833C12.2127 20.9833 13.4793 22.25 13.4793 23.8083C13.4835 25.3667 12.2127 26.6333 10.6543 26.6333ZM10.6543 22.2292C9.78351 22.2292 9.07935 22.9375 9.07935 23.8042C9.07935 24.675 9.78768 25.3792 10.6543 25.3792C11.521 25.3792 12.2293 24.6708 12.2293 23.8042C12.2335 22.9375 11.5252 22.2292 10.6543 22.2292Z" fill="#00A443"/>
<path d="M16.8959 31.0791L15.6626 30.875C16.0168 28.7416 17.8418 27.1917 20.0001 27.1917C22.1626 27.1917 23.9834 28.7416 24.3376 30.875L23.1043 31.0791C22.8543 29.55 21.5501 28.4417 20.0043 28.4417C18.4543 28.4417 17.1501 29.55 16.8959 31.0791Z" fill="#FF9C1A"/>
<path d="M20.0293 26.6333C18.471 26.6333 17.2043 25.3667 17.2043 23.8083C17.2043 22.25 18.471 20.9833 20.0293 20.9833C21.5877 20.9833 22.8543 22.25 22.8543 23.8083C22.8585 25.3667 21.5877 26.6333 20.0293 26.6333ZM20.0293 22.2292C19.1585 22.2292 18.4543 22.9375 18.4543 23.8042C18.4543 24.675 19.1627 25.3792 20.0293 25.3792C20.9002 25.3792 21.6043 24.6708 21.6043 23.8042C21.6085 22.9375 20.9002 22.2292 20.0293 22.2292Z" fill="#00A443"/>
<path d="M12.2084 18.6083L10.9751 18.4042C11.3293 16.2708 13.1543 14.7208 15.3126 14.7208C17.4751 14.7208 19.2959 16.2708 19.6501 18.4042L18.4168 18.6083C18.1668 17.0792 16.8626 15.9708 15.3168 15.9708C13.7709 15.9708 12.4626 17.0792 12.2084 18.6083Z" fill="#FF9C1A"/>
<path d="M15.3418 14.1625C13.7835 14.1625 12.5168 12.8958 12.5168 11.3375C12.5168 9.77918 13.7835 8.51251 15.3418 8.51251C16.9002 8.51251 18.1668 9.77918 18.1668 11.3375C18.171 12.8958 16.9002 14.1625 15.3418 14.1625ZM15.3418 9.75835C14.471 9.75835 13.7668 10.4667 13.7668 11.3333C13.7668 12.2042 14.4752 12.9083 15.3418 12.9083C16.2127 12.9083 16.9168 12.2 16.9168 11.3333C16.921 10.4667 16.2127 9.75835 15.3418 9.75835Z" fill="#00A443"/>
<path d="M21.5834 18.6083L20.3501 18.4042C20.7043 16.2708 22.5293 14.7208 24.6876 14.7208C26.8501 14.7208 28.6709 16.2708 29.0251 18.4042L27.7918 18.6083C27.5418 17.0792 26.2376 15.9708 24.6918 15.9708C23.1459 15.9708 21.8376 17.0792 21.5834 18.6083Z" fill="#FF9C1A"/>
<path d="M24.7168 14.1625C23.1585 14.1625 21.8918 12.8958 21.8918 11.3375C21.8918 9.77918 23.1585 8.51251 24.7168 8.51251C26.2752 8.51251 27.5418 9.77918 27.5418 11.3375C27.546 12.8958 26.2752 14.1625 24.7168 14.1625ZM24.7168 9.75835C23.846 9.75835 23.1418 10.4667 23.1418 11.3333C23.1418 12.2042 23.8502 12.9083 24.7168 12.9083C25.5835 12.9083 26.2918 12.2 26.2918 11.3333C26.296 10.4667 25.5877 9.75835 24.7168 9.75835Z" fill="#00A443"/>
</svg>
