<svg width="40" height="40" viewBox="0 0 40 40" fill="none" xmlns="http://www.w3.org/2000/svg">
<path d="M29.9832 32.2208H10.2957C9.94982 32.2208 9.67065 31.9417 9.67065 31.5958V17.8167H10.9207V30.975H29.3582V17.8167H30.6082V31.6C30.6082 31.9416 30.329 32.2208 29.9832 32.2208Z" fill="#00A443"/>
<path d="M32.9041 18.3292L20.1374 9.39165L7.37072 18.3292L6.65405 17.3041L19.7791 8.11665C19.9957 7.96665 20.2791 7.96665 20.4957 8.11665L33.6207 17.3041L32.9041 18.3292Z" fill="#00A443"/>
<path d="M10.9207 15.4083H9.67065V9.28333C9.67065 8.93749 9.94982 8.65833 10.2957 8.65833H14.8873V9.90833H10.9207V15.4083Z" fill="#00A443"/>
<path d="M16.754 28.825C16.6373 28.825 16.5248 28.7916 16.4207 28.7291C16.1665 28.5666 16.0623 28.2458 16.1748 27.9666L18.1373 23.1583H16.3248C16.104 23.1583 15.8998 23.0416 15.7873 22.8541C15.6748 22.6666 15.6707 22.4291 15.7748 22.2375L19.3748 15.6125C19.4832 15.4125 19.6957 15.2875 19.9248 15.2875H23.2665C23.4915 15.2875 23.704 15.4083 23.8123 15.6083C23.9207 15.8083 23.9165 16.05 23.7957 16.2416L21.6457 19.7041H23.954C24.1998 19.7041 24.4248 19.85 24.5248 20.0791C24.6248 20.3041 24.579 20.5708 24.4123 20.7541L17.2123 28.625C17.0915 28.7583 16.9248 28.825 16.754 28.825ZM17.3707 21.9041H19.0623C19.2707 21.9041 19.4665 22.0083 19.5832 22.1791C19.6998 22.35 19.7207 22.5708 19.6415 22.7625L18.6498 25.1916L22.5332 20.9416H20.5165C20.2915 20.9416 20.079 20.8208 19.9707 20.6208C19.8623 20.4208 19.8665 20.1791 19.9873 19.9875L22.1373 16.525H20.2915L17.3707 21.9041Z" fill="#FF9C1A"/>
</svg>
