<svg width="40" height="40" viewBox="0 0 40 40" fill="none" xmlns="http://www.w3.org/2000/svg">
<path d="M31.2375 33.8958H27.4875C27.1417 33.8958 26.8625 33.6166 26.8625 33.2708V16.3958C26.8625 16.05 27.1417 15.7708 27.4875 15.7708H31.2375C31.5834 15.7708 31.8625 16.05 31.8625 16.3958V33.2708C31.8625 33.6125 31.5834 33.8958 31.2375 33.8958ZM28.1125 32.6458H30.6125V17.0208H28.1125V32.6458Z" fill="#FF9C1A"/>
<path d="M33.7375 32.6458H6.23755V33.8958H33.7375V32.6458Z" fill="#00A443"/>
<path d="M12.4875 33.8958H8.73755C8.39172 33.8958 8.11255 33.6166 8.11255 33.2708V29.5208C8.11255 29.175 8.39172 28.8958 8.73755 28.8958H12.4875C12.8334 28.8958 13.1125 29.175 13.1125 29.5208V33.2708C13.1125 33.6125 12.8334 33.8958 12.4875 33.8958ZM9.36255 32.6458H11.8625V30.1458H9.36255V32.6458Z" fill="#00A443"/>
<path d="M24.9875 33.8958H21.2375C20.8917 33.8958 20.6125 33.6166 20.6125 33.2708V20.1458C20.6125 19.8 20.8917 19.5208 21.2375 19.5208H24.9875C25.3334 19.5208 25.6125 19.8 25.6125 20.1458V33.2708C25.6125 33.6125 25.3334 33.8958 24.9875 33.8958ZM21.8625 32.6458H24.3625V20.7708H21.8625V32.6458Z" fill="#00A443"/>
<path d="M18.7375 33.8958H14.9875C14.6417 33.8958 14.3625 33.6166 14.3625 33.2708V23.8958C14.3625 23.55 14.6417 23.2708 14.9875 23.2708H18.7375C19.0834 23.2708 19.3625 23.55 19.3625 23.8958V33.2708C19.3625 33.6125 19.0834 33.8958 18.7375 33.8958ZM15.6125 32.6458H18.1125V24.5208H15.6125V32.6458Z" fill="#00A443"/>
<path d="M30.3187 7.36296L7.86523 21.8483L8.54286 22.8987L30.9964 8.41334L30.3187 7.36296Z" fill="#FF9C1A"/>
<path d="M30.3708 12.7791L29.1333 12.5916L29.7875 8.30414L25.6375 7.46664L25.8833 6.24164L30.6166 7.19997C30.9416 7.26664 31.1625 7.57497 31.1125 7.9083L30.3708 12.7791Z" fill="#FF9C1A"/>
</svg>
