<svg width="40" height="40" viewBox="0 0 40 40" fill="none" xmlns="http://www.w3.org/2000/svg">
<path d="M26.1538 13.8828L25.2881 14.7844L30.5265 19.8144L31.3923 18.9128L26.1538 13.8828Z" fill="#FF9C1A"/>
<path d="M9.16255 33.0417C8.92088 33.0417 8.67505 33.0125 8.43338 32.9542C7.41672 32.7 6.62088 31.9292 6.35422 30.95C6.08338 29.9584 6.39172 28.9042 7.15422 28.2L18.3584 17.4417C17.0834 14.6375 17.6501 11.325 19.8376 9.06252C22.1209 6.70002 25.7334 5.95002 28.8251 7.20002C29.1959 7.35002 29.4626 7.66669 29.5417 8.05419C29.6209 8.44585 29.4959 8.84169 29.2084 9.12085L26.3459 11.8667V13.7125H28.3334L31.1917 10.9542C31.4709 10.6875 31.8667 10.5709 32.2542 10.6417C32.6417 10.7167 32.9709 10.9709 33.125 11.3292C34.4375 14.3209 33.6542 17.8125 31.1792 20.0209C28.8251 22.1167 25.3792 22.6542 22.475 21.4167L11.2375 32.2C10.6917 32.7459 9.93338 33.0417 9.16255 33.0417ZM25.7292 7.84585C23.8709 7.84585 22.0459 8.57502 20.7375 9.92919C18.8167 11.9167 18.3917 14.8709 19.6751 17.2792C19.8084 17.525 19.7584 17.8292 19.5542 18.025L8.01255 29.1084C7.58338 29.5042 7.41255 30.0834 7.56255 30.6209C7.71255 31.1667 8.16255 31.5959 8.74172 31.7417C9.32505 31.8875 9.95005 31.7209 10.3667 31.3084L21.9167 20.2167C22.1042 20.0334 22.3876 19.9917 22.625 20.1084C25.1584 21.3542 28.2625 20.9417 30.35 19.0834C32.4042 17.2542 33.0667 14.3667 32.0084 11.8834L29.175 14.625C28.95 14.8417 28.6542 14.9584 28.3417 14.9584H25.7292C25.3834 14.9584 25.1042 14.6792 25.1042 14.3334V11.825C25.1042 11.5125 25.2334 11.2042 25.4625 10.9875L28.2501 8.30835C27.4292 7.99585 26.5751 7.84585 25.7292 7.84585Z" fill="#00A443"/>
<path d="M22.2338 14.0924L20.5237 15.7344L21.3894 16.6361L23.0995 14.994L22.2338 14.0924Z" fill="#FF9C1A"/>
<path d="M23.6578 15.4595L21.9478 17.1015L22.8135 18.0031L24.5236 16.3611L23.6578 15.4595Z" fill="#FF9C1A"/>
<path d="M25.0819 16.8237L23.3716 18.4655L24.2372 19.3673L25.9475 17.7255L25.0819 16.8237Z" fill="#FF9C1A"/>
</svg>
