<?xml version="1.0" encoding="UTF-8"?>
<svg width="475px" height="341px" viewBox="0 0 475 341" version="1.1" xmlns="http://www.w3.org/2000/svg" xmlns:xlink="http://www.w3.org/1999/xlink">
    <title>Group</title>
    <defs>
        <polygon id="path-1" points="287.559 82.7011 265.789 95.2711 244.019 82.7011 265.789 70.1311"></polygon>
    </defs>
    <g id="Page-1" stroke="none" stroke-width="1" fill="none" fill-rule="evenodd">
        <g id="3" transform="translate(0, -38)">
            <polygon id="Path" stroke="#00402A" stroke-width="0.5" fill="#89837E" fill-rule="nonzero" stroke-linejoin="round" points="234.293 98.186 228.582 107.402 250.195 119.879 252.037 108.436 244.573 101.686"></polygon>
            <polygon id="Path" stroke="#00402A" stroke-width="0.5" fill="#5BD38C" fill-rule="nonzero" stroke-linejoin="round" points="251.402 88.3109 234.293 98.1921 256.025 110.735 268.885 98.406"></polygon>
            <polygon id="Path" stroke="#00402A" stroke-width="0.5" fill="#89837E" fill-rule="nonzero" stroke-linejoin="round" points="248.733 89.0475 242.024 96.8134 256.637 105.251 265.248 98.5781 258.301 92.2976"></polygon>
            <polygon id="Path" stroke="#00402A" stroke-width="0.5" fill="#5BD38C" fill-rule="nonzero" stroke-linejoin="round" points="264.654 79.8556 248.733 89.0475 268.95 100.717 280.918 89.2495"></polygon>
            <polygon id="Path" stroke="#00402A" stroke-width="0.5" fill="#D8CFC7" fill-rule="nonzero" stroke-linejoin="round" points="302.407 96.8254 300.137 91.7036 267.565 87.1462 263.827 88.5307 255.448 100.474 254.082 126.641 273.582 120 276.082 123.385 280.211 123.385 298.538 127.675 306.899 118.768 307.517 103.92 305.598 102.607"></polygon>
            <path d="M264.582,110 C257.026,111.619 255.915,121 255.582,126 L272.582,120.5 C272.082,117.667 271.582,108.5 264.582,110 Z" id="Path" stroke="#00402A" stroke-width="0.5" fill="#615D5A" fill-rule="nonzero" stroke-linejoin="round"></path>
            <path d="M260.582,112 C267.382,112.8 271.082,118 272.082,120.5 L255.582,126 C255.582,118 258.915,113.333 260.582,112 Z" id="Path" stroke="#00402A" stroke-width="0.5" fill="#89837E" fill-rule="nonzero" stroke-linejoin="round"></path>
            <polygon id="Path" fill="#FDF9F2" fill-rule="nonzero" points="246.051 109.431 248.158 110.646 248.168 110.793 247.903 110.793 245.796 109.578 245.796 109.431"></polygon>
            <path d="M251.245,112.429 C251.627,112.645 251.99,112.861 252.362,113.086 L252.362,113.243 L252.098,113.243 C251.725,113.017 251.363,112.792 250.99,112.576 L250.01,112.008 L250.01,111.851 L250.265,111.851 L251.245,112.42 L251.245,112.429 Z" id="Path" fill="#FDF9F2" fill-rule="nonzero"></path>
            <path d="M258.817,117.578 C259.199,117.794 259.561,118.009 259.934,118.235 L259.934,118.392 L259.669,118.392 C259.297,118.166 258.934,117.941 258.562,117.725 L257.582,117.157 L257.582,117 L257.837,117 L258.817,117.568 L258.817,117.578 Z" id="Path" fill="#FDF9F2" fill-rule="nonzero"></path>
            <path d="M261.31,119.976 C261.79,120.476 262.28,120.985 262.751,121.495 L262.662,121.642 L262.447,121.622 L262.408,121.593 C261.957,121.083 261.486,120.583 260.987,120.084 L261.055,119.937 L261.31,119.976 Z" id="Path" fill="#FDF9F2" fill-rule="nonzero"></path>
            <polygon id="Path" stroke="#00402A" stroke-width="0.5" fill="#D8CFC7" fill-rule="nonzero" opacity="0.5" stroke-linejoin="round" points="300.137 91.7037 293.351 93.5338 293.707 99.3746 302.407 96.8255"></polygon>
            <polygon id="Path" stroke="#00402A" stroke-width="0.5" fill="#5BD38C" fill-rule="nonzero" stroke-linejoin="round" points="255.449 100.474 248.252 104.283 257.082 109 270.133 105.732"></polygon>
            <polygon id="Path" stroke="#00402A" stroke-width="0.5" fill="#89837E" fill-rule="nonzero" stroke-linejoin="round" points="248.252 104.282 241.733 120.082 254.082 126.5 257.082 109"></polygon>
            <polygon id="Path" stroke="#00402A" stroke-width="0.5" fill="#89837E" fill-rule="nonzero" stroke-linejoin="round" points="285.369 104.544 279.7 103.385 273.582 120.201 278.582 128 299.953 111.942"></polygon>
            <polygon id="Path" stroke="#00402A" stroke-width="0.5" fill="#5BD38C" fill-rule="nonzero" stroke-linejoin="round" points="305.58 102.56 294.444 105.732 288.436 101.662 279.7 103.385 304.065 113.73 307.517 103.92"></polygon>
            <polygon id="Path" stroke="#00402A" stroke-width="0.5" fill="#D8CFC7" fill-rule="nonzero" stroke-linejoin="round" points="292.608 122.583 291.562 120.028 279.855 120.201 279.582 122 297.255 126.101"></polygon>
            <polygon id="Path" stroke="#00402A" stroke-width="0.5" fill="#B0A9A3" fill-rule="nonzero" stroke-linejoin="round" points="263.827 88.5308 255.448 100.474 270.132 105.732 273.43 97.2592"></polygon>
            <polygon id="Path" stroke="#00402A" stroke-width="0.5" fill="#89837E" fill-rule="nonzero" stroke-linejoin="round" points="301.812 108.881 295.668 96.1954 294.444 105.732 299.685 112.048"></polygon>
            <polygon id="Path" stroke="#00402A" stroke-width="0.5" fill="#89837E" fill-rule="nonzero" stroke-linejoin="round" points="279.855 120.2 277.389 135.316 287.378 136.285 300.606 126.998"></polygon>
            <polygon id="Path" stroke="#00402A" stroke-width="0.5" fill="#B0A9A3" fill-rule="nonzero" stroke-linejoin="round" points="295.484 97.6038 293.499 94.3715 290.771 95.1558 288.436 101.662 294.444 105.732"></polygon>
            <path d="M323.247,119.523 C322.635,116.962 322.077,114.484 321.619,112.031 C320.579,106.487 315.017,103.017 309.556,104.407 L306.341,105.221 L301.812,108.881 L292.607,122.583 L296.304,146.439 L306.228,152.185 L308.314,152.007 L315.231,149.357 L315.7,146.101 L319.557,146.101 L325.321,144.045 C324.567,135.863 325.173,127.586 323.247,119.517 L323.247,119.523 Z" id="Path" stroke="#00402A" stroke-width="0.5" fill="#D8CFC7" fill-rule="nonzero" stroke-linejoin="round"></path>
            <polygon id="Path" stroke="#00402A" stroke-width="0.5" fill="#D8CFC7" fill-rule="nonzero" stroke-linejoin="round" points="341.753 130.456 337.528 128.02 335.442 118.62 337.486 111.817 332.851 113.409 327.782 122.078 319.242 126.433 316.651 133.118 312.248 138.673 308.32 152.007 316.74 158.032 326.73 159 332.138 157.224 341.753 151.668"></polygon>
            <polygon id="Path" stroke="#00402A" stroke-width="0.5" fill="#D8CFC7" fill-rule="nonzero" stroke-linejoin="round" points="317.228 134.128 328.518 138.893 328.518 113.73 319.575 113.73 320.3 117.099 319.052 126.1"></polygon>
            <polygon id="Path" stroke="#00402A" stroke-width="0.5" fill="#D8CFC7" fill-rule="nonzero" stroke-linejoin="round" points="292.608 122.583 287.598 126.998 294.509 132.048 305.402 135.405 311.446 131.597 299.685 126.57"></polygon>
            <polygon id="Path" stroke="#00402A" stroke-width="0.5" fill="#B0A9A3" fill-rule="nonzero" stroke-linejoin="round" points="287.598 126.998 281.917 140.551 306.234 152.185 305.402 135.406"></polygon>
            <polygon id="Path" stroke="#00402A" stroke-width="0.5" fill="#D8CFC7" fill-rule="nonzero" stroke-linejoin="round" points="337.278 142.595 330.908 142.744 319.201 142.916 315.415 142.744 318.422 144.461 327.58 146.445"></polygon>
            <polygon id="Path" stroke="#00402A" stroke-width="0.5" fill="#89837E" fill-rule="nonzero" stroke-linejoin="round" points="324.715 127.259 319.052 126.101 317.228 134.128 330.908 142.743 331.847 129.969"></polygon>
            <polygon id="Path" stroke="#00402A" stroke-width="0.5" fill="#D8CFC7" fill-rule="nonzero" stroke-linejoin="round" points="338.283 128.477 331.235 131.418 330.908 142.743 338.283 142.571"></polygon>
            <polygon id="Path" stroke="#00402A" stroke-width="0.5" fill="#89837E" fill-rule="nonzero" stroke-linejoin="round" points="312.248 138.673 308.32 152.007 316.74 158.032 319.201 142.916"></polygon>
            <polygon id="Path" stroke="#00402A" stroke-width="0.5" fill="#5BD38C" fill-rule="nonzero" stroke-linejoin="round" points="337.528 128.02 333.79 128.448 325.191 124.817 319.052 126.101 324.026 128.317 331.235 131.418 337.278 131.597 341.753 130.456"></polygon>
            <polygon id="Path" stroke="#00402A" stroke-width="0.5" fill="#B0A9A3" fill-rule="nonzero" stroke-linejoin="round" points="301.813 108.881 293.351 121.014 311.446 131.597 312.783 116.291"></polygon>
            <polygon id="Path" stroke="#00402A" stroke-width="0.5" fill="#D8CFC7" fill-rule="nonzero" stroke-linejoin="round" points="337.486 111.817 332.702 112.565 333.79 128.448 337.528 128.02"></polygon>
            <polygon id="Path" stroke="#00402A" stroke-width="0.5" fill="#B0A9A3" fill-rule="nonzero" stroke-linejoin="round" points="319.2 142.916 316.74 158.032 326.73 159 327.58 146.445"></polygon>
            <polygon id="Path" stroke="#00402A" stroke-width="0.5" fill="#89837E" fill-rule="nonzero" stroke-linejoin="round" points="332.851 113.409 328.519 113.73 325.405 115.536 325.191 124.817 333.79 128.447"></polygon>
            <polygon id="Path" stroke="#00402A" stroke-width="0.5" fill="#5BD38C" fill-rule="nonzero" stroke-linejoin="round" points="280.645 79 263.828 88.5306 273.431 97.2531 280.948 98.0612 286.053 96.4985 290.771 95.1497 295.484 97.5977 301.813 108.875 312.777 116.285 320.294 117.093 325.399 115.53 332.845 113.403 337.486 111.81"></polygon>
            <path d="M308.772,77.3596 C308.809,77.4477 308.903,77.5304 309.047,77.6185 C309.233,77.7023 309.461,77.7485 309.732,77.7485 L309.863,77.7485 C310.073,77.7345 310.263,77.6926 310.436,77.6185 C310.632,77.5218 310.729,77.4058 310.729,77.2715 L310.711,77.2156 C310.697,77.105 310.608,77.0072 310.436,76.9245 C310.264,76.8364 310.073,76.7902 309.863,76.7762 L309.732,76.7762 C309.461,76.7762 309.233,76.8267 309.047,76.9245 C308.898,76.9986 308.805,77.0813 308.772,77.1834 L308.772,77.3596 Z" id="Path" stroke="#00402A" stroke-width="0.5" fill="#26BF64" stroke-linecap="round" stroke-linejoin="round"></path>
            <path d="M310.729,77.2672 C310.729,77.4015 310.632,77.5175 310.436,77.6142 C310.264,77.6883 310.073,77.7302 309.863,77.7442 L309.732,77.7442 C309.461,77.7442 309.233,77.7023 309.047,77.6142 C308.898,77.5261 308.805,77.4434 308.772,77.3553 L308.763,91.0242 L308.753,95.6844 L308.753,101.061 L308.79,101.061 C308.776,101.098 308.766,101.131 308.753,101.153 L308.753,101.32 C308.79,101.505 308.939,101.657 309.195,101.778 C309.391,101.874 309.615,101.944 309.862,101.982 C309.997,101.996 310.136,102 310.286,102 L310.453,102 C310.812,101.976 311.11,101.903 311.358,101.778 C311.642,101.643 311.791,101.487 311.8,101.301 L311.8,101.282 C311.814,101.268 311.818,101.25 311.818,101.227 C311.818,101.203 311.814,101.176 311.8,101.152 L311.669,98.2884 L311.632,97.4645 L311.548,95.6833 L311.334,91.0232 L310.728,77.2661 L310.729,77.2672 Z" id="Path" stroke="#00402A" stroke-width="0.5" fill="#FFFEFF" stroke-linecap="round" stroke-linejoin="round"></path>
            <path d="M313.325,75.7718 C313.478,75.6375 313.614,75.5075 313.721,75.3872 L313.842,75.2572 C314.019,75.0402 314.112,74.8597 314.112,74.7158 C314.112,74.3967 313.712,74.3226 312.911,74.4934 C312.1,74.6642 311.126,75.0391 309.994,75.6128 C309.5,75.8577 309.039,76.108 308.611,76.3669 C308.476,76.4636 308.406,76.6258 308.406,76.8439 C308.406,77.0147 308.448,77.1866 308.527,77.3574 L308.536,77.3939 L308.546,77.3939 C308.565,77.4261 308.588,77.4637 308.611,77.5046 L308.96,77.9257 C309.035,77.9762 309.1,78.0181 309.166,78.0557 C309.287,78.1158 309.398,78.1437 309.497,78.1298 C309.594,78.0933 309.693,78.0514 309.79,77.9998 C309.865,77.9762 309.93,77.9396 309.996,77.8891 C310.341,77.7183 310.672,77.5422 310.993,77.3574 C311.324,77.1726 311.641,76.9921 311.934,76.8063 C312.204,76.6215 312.465,76.4453 312.712,76.2745 C312.786,76.2144 312.851,76.1585 312.917,76.108 C313.066,75.992 313.206,75.877 313.327,75.7707 L313.325,75.7718 Z" id="Path" stroke="#00402A" stroke-width="0.5" fill="#FFFEFF" stroke-linecap="round" stroke-linejoin="round"></path>
            <path d="M305.32,64.2127 L305.208,64.0924 L305.059,64.4953 C305.562,67.4054 306.093,70.0062 306.648,72.2923 C306.797,72.8659 306.937,73.417 307.072,73.9445 C307.431,75.2637 307.785,76.397 308.144,77.3413 C308.168,77.3779 308.186,77.4155 308.2,77.452 L308.163,77.6829 L308.145,77.7614 L306.15,77.8817 L306.076,77.8914 L304.063,79.506 L300.629,82.2593 L300.629,82.6439 L301.089,82.7922 C301.369,82.6761 301.644,82.5558 301.909,82.4355 L303.866,81.5191 C303.931,81.4869 303.997,81.4493 304.062,81.4171 C304.728,81.0744 305.348,80.7328 305.925,80.3901 C307.155,79.6317 308.082,78.9044 308.698,78.2061 L308.772,78.234 L309.122,78.3544 L311.171,80.6125 L312.835,81.6212 L319.19,85.4574 L319.283,85.3092 L319.45,85.0363 C317.098,83.1391 314.992,81.5428 313.132,80.2472 C313.035,80.1871 312.937,80.1172 312.839,80.0431 C311.474,79.1128 310.314,78.3963 309.368,77.8956 C309.233,77.8215 309.098,77.7571 308.963,77.6915 C308.949,77.6776 308.939,77.6733 308.926,77.6733 L308.577,77.178 L308.633,74.6095 L308.427,73.9477 L305.52,64.4244 L305.32,64.2117 L305.32,64.2127 Z" id="Path" stroke="#00402A" stroke-width="0.5" fill="#FFFEFF" stroke-linecap="round" stroke-linejoin="round"></path>
            <path d="M308.144,77.7613 L306.149,77.8817 L306.261,77.7979 L308.161,77.6776 L308.143,77.7613 L308.144,77.7613 Z M306.112,80.2923 C305.535,80.635 304.911,80.9766 304.249,81.3193 L303.871,81.5138 C303.936,81.4815 304.002,81.4439 304.067,81.4117 C304.733,81.069 305.353,80.7274 305.931,80.3847 C307.161,79.6263 308.088,78.899 308.703,78.2007 L308.778,78.2286 C308.162,78.8904 307.273,79.5801 306.112,80.2923 Z M305.39,64 L305.703,64.3287 L308.606,73.8521 L308.811,74.5138 L308.755,77.0824 L309.104,77.5776 C309.118,77.5776 309.128,77.5819 309.141,77.5959 C309.276,77.6561 309.411,77.7259 309.547,77.8 C310.497,78.2995 311.653,79.0172 313.018,79.9475 C313.115,80.0216 313.213,80.0861 313.311,80.1516 C315.17,81.4471 317.276,83.0435 319.629,84.9407 L319.368,85.3618 L319.275,85.3059 L319.443,85.033 C317.09,83.1359 314.984,81.5395 313.125,80.244 C313.027,80.1838 312.929,80.114 312.832,80.0399 C311.467,79.1095 310.306,78.393 309.361,77.8924 C309.225,77.8183 309.09,77.7538 308.955,77.6883 C308.941,77.6743 308.931,77.67 308.918,77.67 L308.569,77.1748 L308.625,74.6062 L308.42,73.9445 L305.522,64.4265 L305.316,64.2138 L305.391,64.0011 L305.39,64 Z" id="Shape" stroke="#00402A" stroke-width="0.5" fill="#B0A9A3" stroke-linecap="round" stroke-linejoin="round"></path>
            <path d="M308.782,77.2618 C308.624,76.9932 308.428,76.8041 308.195,76.6967 C307.957,76.5764 307.757,76.5667 307.593,76.6688 C307.575,76.6784 307.551,76.6924 307.533,76.715 C307.514,76.7332 307.482,76.7612 307.444,76.7891 C306.974,77.178 306.731,77.6732 306.708,78.2791 C306.708,78.3393 306.731,78.3855 306.782,78.4134 C307.132,78.5799 307.513,78.6777 307.923,78.6959 L308.133,78.6959 C308.254,78.6959 308.38,78.6862 308.506,78.668 L308.613,78.6401 L308.66,78.6401 C308.702,78.6218 308.739,78.5982 308.781,78.5799 C308.939,78.4832 309.019,78.3027 309.019,78.0428 C309.023,77.7785 308.944,77.5196 308.781,77.2607 L308.782,77.2618 Z" id="Path" stroke="#00402A" stroke-width="0.5" fill="#FF9C1A" stroke-linecap="round" stroke-linejoin="round"></path>
            <polygon id="Path" stroke="#00402A" stroke-width="0.5" fill="#D8CFC7" fill-rule="nonzero" stroke-linejoin="round" points="319.2 142.916 327.579 146.445 337.278 142.595"></polygon>
            <path d="M225.599,128.551 C224.579,129.321 224.029,130.851 223.629,132.631 C224.189,134.171 225.179,135.321 226.549,136.131 L229.809,140.601 C230.679,141.751 232.009,142.521 233.529,143.131 C234.979,143.481 236.519,143.501 238.129,143.221 C240.219,142.541 240.879,141.821 241.539,140.561 C241.169,139.301 239.409,137.851 237.149,136.481 L234.009,132.681 L233.879,128.691 L228.079,125.931 L225.599,128.541 L225.599,128.551 Z" id="Path" stroke="#00402A" stroke-width="0.5" fill="#3A3735" fill-rule="nonzero" stroke-linejoin="round"></path>
            <path d="M261.729,96.8511 L255.259,116.441 C255.189,116.621 255.119,116.791 255.029,116.961 C254.029,119.031 252.119,120.811 249.789,122.501 C245.129,125.881 238.839,128.861 235.019,132.961 C231.639,134.211 225.609,131.701 225.609,128.041 C227.689,125.081 229.519,122.831 231.569,120.821 C234.249,118.181 237.289,115.931 241.719,112.971 L245.949,97.3711 L261.709,96.8711 L261.729,96.8511 Z" id="Path" stroke="#00402A" stroke-width="0.5" fill="#007ACB" fill-rule="nonzero" stroke-linejoin="round"></path>
            <path d="M261.009,72.7411 L281.759,91.8811 C283.139,91.2411 285.689,89.1211 286.409,87.4911 L263.449,60.5011 C261.289,58.3111 258.849,57.4111 256.239,57.2611 L261.019,72.7411 L261.009,72.7411 Z" id="Path" stroke="#00402A" stroke-width="0.5" fill="#F2F2F2" fill-rule="nonzero" stroke-linejoin="round"></path>
            <path d="M254.839,56.1711 L259.749,71.5211 C259.749,71.5211 263.339,65.7711 261.459,60.8211 C259.959,56.8811 254.849,56.1711 254.849,56.1711 L254.839,56.1711 Z" id="Path" stroke="#00402A" stroke-width="0.5" fill="#F2F2F2" fill-rule="nonzero" stroke-linejoin="round"></path>
            <path d="M261.729,96.8511 C258.999,99.5211 257.789,101.431 256.359,103.041 C255.529,103.981 254.649,104.801 253.399,105.601 C248.639,108.641 248.389,113.161 243.109,108.681 C243.089,108.671 243.059,108.641 243.029,108.621 C236.949,104.791 236.719,99.7911 237.379,94.9911 L236.049,89.2111 L234.799,83.7711 L234.599,81.9411 L234.539,81.3611 L233.059,67.8111 C233.649,67.1311 234.259,66.4611 234.889,65.8011 C235.559,65.1011 236.239,64.4111 236.949,63.7411 C239.569,61.2411 242.449,58.9511 245.569,56.8711 L256.279,56.8711 C258.739,59.1811 260.089,62.8711 260.809,67.3411 C260.809,67.3411 261.729,91.2111 261.729,96.8511 Z" id="Path" stroke="#00402A" stroke-width="0.5" fill="#0DA9FF" fill-rule="nonzero" stroke-linejoin="round"></path>
            <path d="M258.429,68.5411 C256.009,71.6311 251.319,73.7211 245.469,75.2911 C244.709,68.8911 241.699,63.8511 236.949,63.7411 C239.569,61.2411 242.449,58.9511 245.569,56.8711 L253.969,56.8711 C256.779,60.1111 258.269,64.9711 258.429,68.5411 Z" id="Path" stroke="#00402A" stroke-width="0.5" fill="#F2F2F2" fill-rule="nonzero" stroke-linejoin="round"></path>
            <path d="M252.229,65.3511 C251.969,65.8711 251.619,66.2411 251.159,66.3711 C246.779,67.6611 243.189,62.6711 243.699,59.7211 C244.109,56.6911 244.349,55.0511 244.349,55.0511 L252.819,57.1411 C252.819,57.1411 252.909,57.9311 252.959,59.0611 C253.039,60.9611 253.019,63.8211 252.239,65.3611 L252.229,65.3511 Z" id="Path" stroke="#00402A" stroke-width="0.5" fill="#FFB294" fill-rule="nonzero" stroke-linejoin="round"></path>
            <path d="M245.009,56.5212 C245.009,56.5212 245.929,60.1812 247.569,61.7712 C249.209,63.3512 251.819,64.1412 252.819,64.2012 C253.819,64.2612 254.599,64.1612 255.249,63.4112 C255.899,62.6512 256.289,55.6812 256.289,55.6812 C256.269,52.9912 256.229,52.1712 255.909,50.6712 C255.439,48.4612 253.839,43.5612 247.399,44.4512 C244.289,44.8812 242.369,47.1412 241.969,49.8712 C241.649,52.0412 243.389,55.9112 243.389,55.9112 L245.019,56.5312 L245.009,56.5212 Z" id="Path" stroke="#00402A" stroke-width="0.5" fill="#FFB294" fill-rule="nonzero" stroke-linejoin="round"></path>
            <path d="M243.309,56.3511 L246.369,57.9811 L246.599,56.1511 C246.589,55.2811 247.319,54.5711 248.199,54.6411 C249.669,54.7511 251.919,54.6711 254.079,53.6111 C256.129,52.6011 256.489,51.2311 256.489,51.2311 C257.519,47.2611 252.289,44.2011 248.349,44.3311 C243.559,44.4911 241.629,47.7011 241.619,50.5411 C241.619,53.1211 243.329,56.3511 243.329,56.3511 L243.309,56.3511 Z" id="Path" stroke="#00402A" stroke-width="0.5" fill="#3A3735" fill-rule="nonzero" stroke-linejoin="round"></path>
            <path d="M243.019,89.1211 C241.049,90.1611 238.439,89.9911 236.049,89.2111 L234.799,83.7711 L233.059,67.8111 C233.649,67.1311 234.259,66.4611 234.889,65.8011 C237.379,66.1311 240.549,67.4011 241.609,71.5211 C243.659,79.4811 243.679,84.9511 243.019,89.1211 Z" id="Path" stroke="#00402A" stroke-width="0.5" fill="#F2F2F2" fill-rule="nonzero" stroke-linejoin="round"></path>
            <path d="M253.189,52.9411 C251.469,53.9311 249.499,54.6211 247.579,54.9911 C247.639,55.0211 247.689,55.0611 247.749,55.0911 C250.959,56.9411 255.109,58.8811 259.319,56.4511 C263.929,53.7911 260.179,51.6211 256.969,49.7711 C256.899,49.7311 256.829,49.7011 256.759,49.6611 C256.139,50.7811 254.939,51.9411 253.189,52.9511 L253.189,52.9411 Z" id="Path" stroke="#00402A" stroke-width="0.5" fill="#FFFEFF" fill-rule="nonzero" stroke-linejoin="round"></path>
            <path d="M247.739,55.0811 C245.209,54.9411 243.339,54.1611 241.929,52.9411 C241.929,52.9411 239.759,46.0811 245.649,43.8411 C255.269,40.1811 256.759,49.6511 256.759,49.6511 C256.089,52.6211 252.389,54.0911 247.749,55.0911 L247.739,55.0811 Z" id="Path" stroke="#00402A" stroke-width="0.5" fill="#FFF5EC" fill-rule="nonzero" stroke-linejoin="round"></path>
            <path d="M243.989,53.8811 C243.569,53.6711 242.979,53.7011 242.699,54.0811 C242.539,54.2911 242.499,54.5811 242.539,54.8411 C242.579,55.1011 242.689,55.3511 242.809,55.5911 C243.009,56.0011 243.239,56.4111 243.479,56.8011 C243.679,57.1211 243.929,57.4511 244.289,57.5411 C244.659,57.6311 245.109,57.8911 245.309,57.5611 C245.509,57.2311 245.489,56.3511 245.419,55.9711 C245.259,55.1711 244.739,54.2711 243.989,53.9011 L243.989,53.8811 Z" id="Path" stroke="#00402A" stroke-width="0.5" fill="#FFB294" fill-rule="nonzero" stroke-linejoin="round"></path>
            <path d="M263.959,159.001 C263.969,161.271 264.139,163.371 264.899,164.811 C265.459,165.521 266.239,165.981 267.129,166.291 C267.969,167.551 268.849,168.591 269.889,168.881 C272.959,170.041 278.599,168.221 279.439,165.681 C278.599,164.111 277.099,162.551 275.069,161.651 L271.239,157.931 L270.059,153.681 L263.549,155.241 L263.959,159.001 Z" id="Path" stroke="#00402A" stroke-width="0.5" fill="#3A3735" fill-rule="nonzero" stroke-linejoin="round"></path>
            <path d="M272.139,156.981 C270.939,159.681 268.119,160.671 263.499,159.741 C262.799,158.141 262.109,156.531 261.449,154.921 C258.299,147.231 255.629,139.501 253.479,131.691 L243.109,108.681 L242.419,107.161 C241.64,105.436 242.619,103.427 244.459,102.979 L248.429,102.011 L255.209,100.361 C255.589,101.261 255.969,102.171 256.329,103.071 C256.619,103.761 256.899,104.451 257.169,105.141 L258.659,108.981 L258.749,109.201 C259.639,111.581 260.469,113.961 261.229,116.341 C262.579,120.521 263.709,124.691 264.559,128.851 L272.139,156.981 Z" id="Path" stroke="#00402A" stroke-width="0.5" fill="#0DA9FF" fill-rule="nonzero" stroke-linejoin="round"></path>
            <polygon id="Path" stroke="#00402A" stroke-width="0.5" fill="#FF9C1A" fill-rule="nonzero" stroke-linejoin="round" points="265.789 117.041 244.019 104.471 244.019 82.701 265.789 95.271"></polygon>
            <polygon id="Path" stroke="#00402A" stroke-width="0.5" fill="#FF9C1A" fill-rule="nonzero" stroke-linejoin="round" points="287.559 104.471 265.789 117.041 265.789 95.271 287.559 82.701"></polygon>
            <polygon id="Path" stroke="#00402A" stroke-width="0.5" fill="#C66D00" fill-rule="nonzero" stroke-linejoin="round" points="265.789 95.2711 287.559 82.7011 265.789 70.1311"></polygon>
            <g id="Clipped">
                <mask id="mask-2" fill="white">
                    <use xlink:href="#path-1"></use>
                </mask>
                <g id="Path"></g>
            </g>
            <polygon id="Path" stroke="#00402A" stroke-width="0.5" fill="#E3850D" fill-rule="nonzero" stroke-linejoin="round" points="287.56 82.7011 265.79 95.2711 244.02 82.7011 265.79 70.1311"></polygon>
            <path d="M286.509,93.781 L287.559,92.801 L287.559,90.951 L288.989,93.321 L288.989,96.771 L288.439,97.791 L287.569,98.141 L287.369,98.141 C286.719,98.141 286.189,97.611 286.189,96.961 L286.189,94.571 C286.169,94.271 286.279,93.971 286.509,93.761 L286.509,93.781 Z" id="Path" stroke="#00402A" stroke-width="0.5" fill="#FFB294" fill-rule="nonzero" stroke-linejoin="round"></path>
            <path d="M257.179,105.761 L261.519,108.371 C262.609,109.151 265.939,110.841 265.939,110.841 C266.749,110.841 267.719,110.361 269.099,110.111 C270.379,109.891 270.759,108.921 269.629,108.831 C271.719,108.611 271.849,107.561 270.509,107.471 C271.779,107.201 271.989,106.151 270.779,106.121 C271.939,105.451 271.499,104.531 270.079,105.081 L268.429,105.391 L266.289,105.371 L265.649,104.171 L266.259,103.441 L267.509,103.131 C268.399,102.681 268.529,101.941 267.779,101.951 L265.109,102.321 C263.429,103.151 263.839,102.291 263.049,103.661 L258.909,101.951 L257.179,105.731 L257.179,105.761 Z" id="Path" stroke="#00402A" stroke-width="0.5" fill="#FFB294" fill-rule="nonzero" stroke-linejoin="round"></path>
            <path d="M231.589,78.5011 C233.199,81.7411 236.529,90.0811 241.919,95.9811 C249.199,102.211 255.459,105.861 260.949,108.031 C260.349,106.911 259.359,104.021 261.729,103.141 L245.609,86.7211 L240.909,75.0711 C239.319,70.0411 235.619,66.3111 233.049,67.8011 C231.279,68.8311 229.509,72.9011 231.579,78.4911 L231.589,78.5011 Z" id="Path" stroke="#00402A" stroke-width="0.5" fill="#F2F2F2" fill-rule="nonzero" stroke-linejoin="round"></path>
            <path d="M283.045,62.5604 C283.045,63.2968 283.642,63.8938 284.378,63.8938 C285.115,63.8938 285.712,63.2968 285.712,62.5604 C285.712,61.824 285.115,61.2271 284.378,61.2271 C283.642,61.2271 283.045,61.824 283.045,62.5604 Z M284.378,38.4828 L284.128,38.4828 L284.128,62.5604 L284.378,62.5604 L284.628,62.5604 L284.628,38.4828 L284.378,38.4828 Z" id="Shape" fill="#00402A" fill-rule="nonzero"></path>
        </g>
    </g>
</svg>