<?xml version="1.0" encoding="UTF-8"?>
<svg width="475px" height="341px" viewBox="0 0 475 341" version="1.1" xmlns="http://www.w3.org/2000/svg" xmlns:xlink="http://www.w3.org/1999/xlink">
    <title>Group</title>
    <g id="Page-1" stroke="none" stroke-width="1" fill="none" fill-rule="evenodd">
        <g id="Group" transform="translate(0, -38)" fill-rule="nonzero">
            <g id="6" transform="translate(-0, 0)">
                <path d="M421.924,195.779 C424.521,197.279 424.551,199.719 421.963,201.219 L403.636,211.872 C401.049,213.381 396.835,213.371 394.238,211.872 L325.18,171.999 C322.573,170.49 322.554,168.059 325.151,166.56 L343.478,155.907 C346.055,154.407 350.26,154.407 352.867,155.907 L421.924,195.779 Z" id="Path" stroke="#00402A" stroke-width="0.5" fill-opacity="0.5" fill="#DCEBE1" stroke-linejoin="round"></path>
                <path d="M373.887,173.087 L373.887,168.959 L375.205,168.959 L375.205,173.087 C375.205,173.185 375.142,173.283 375.014,173.357 C374.756,173.506 374.341,173.506 374.083,173.357 C373.953,173.283 373.892,173.185 373.892,173.087 L373.887,173.087 Z" id="Path" stroke="#00402A" stroke-width="0.5" fill="#FFF5EC"></path>
                <path d="M369.687,167.475 C369.687,170.201 371.892,170.773 374.613,170.773 C377.334,170.773 379.54,170.201 379.54,167.475 C379.54,164.75 377.334,157.999 374.613,157.999 C371.892,157.999 369.687,164.751 369.687,167.475 Z" id="Path" stroke="#00402A" stroke-width="0.5" fill="#2F6852"></path>
                <path d="M407.197,192.306 L407.197,186.709 L408.983,186.709 L408.983,192.306 C408.983,192.44 408.898,192.57 408.723,192.671 C408.374,192.872 407.809,192.872 407.461,192.671 C407.287,192.571 407.201,192.437 407.201,192.306 L407.198,192.306 L407.197,192.306 Z" id="Path" stroke="#00402A" stroke-width="0.5" fill="#FFFEFF"></path>
                <path d="M408.088,192.875 C407.85,192.875 407.609,192.823 407.427,192.719 C407.241,192.611 407.137,192.463 407.137,192.302 L407.137,186.705 C407.137,186.672 407.162,186.65 407.192,186.65 L408.979,186.65 C409.008,186.65 409.034,186.675 409.034,186.705 L409.034,192.302 C409.034,192.462 408.93,192.607 408.744,192.719 C408.562,192.823 408.325,192.875 408.083,192.875 L408.086,192.875 L408.088,192.875 Z" id="Path" stroke="#00402A" stroke-width="0.5" fill="#FFF5EC"></path>
                <path d="M407.456,186.343 C407.107,186.544 407.107,186.872 407.456,187.073 C407.806,187.274 408.37,187.274 408.718,187.073 C409.067,186.872 409.068,186.544 408.718,186.343 C408.369,186.143 407.804,186.143 407.456,186.343 Z" id="Path" stroke="#00402A" stroke-width="0.5" fill="#FFFEFF"></path>
                <path d="M408.088,187.281 C407.85,187.281 407.609,187.229 407.427,187.125 C407.241,187.017 407.137,186.869 407.137,186.708 C407.137,186.548 407.241,186.403 407.427,186.291 C407.791,186.08 408.381,186.08 408.745,186.291 C408.931,186.399 409.035,186.548 409.035,186.708 C409.035,186.869 408.931,187.013 408.745,187.125 C408.563,187.229 408.326,187.281 408.084,187.281 L408.087,187.281 L408.088,187.281 Z M407.486,186.392 C407.337,186.477 407.252,186.589 407.252,186.708 C407.252,186.827 407.334,186.935 407.486,187.024 C407.816,187.217 408.359,187.217 408.693,187.024 C408.842,186.939 408.926,186.827 408.926,186.708 C408.926,186.589 408.845,186.482 408.693,186.392 C408.363,186.199 407.82,186.199 407.486,186.392 Z" id="Shape" stroke="#00402A" stroke-width="0.5" fill="#00402A"></path>
                <path d="M404.121,184.611 L407.482,177.994 L408.693,177.994 L412.054,184.611 C412.466,185.422 412.121,186.336 411.01,186.976 C409.395,187.909 406.777,187.909 405.161,186.976 C404.054,186.336 403.706,185.422 404.118,184.611 L404.121,184.611 Z" id="Path" stroke="#00402A" stroke-width="0.5" fill="#00A443"></path>
                <path d="M407.642,177.838 C407.397,177.979 407.397,178.21 407.642,178.355 C407.887,178.496 408.288,178.496 408.534,178.355 C408.779,178.213 408.779,177.982 408.534,177.838 C408.288,177.697 407.887,177.697 407.642,177.838 Z" id="Path" stroke="#00402A" stroke-width="0.5" fill="#FFFEFF"></path>
                <path d="M408.088,178.518 C407.917,178.518 407.746,178.481 407.613,178.403 C407.476,178.326 407.397,178.214 407.397,178.095 C407.397,177.976 407.472,177.869 407.613,177.787 C407.88,177.635 408.296,177.635 408.564,177.787 C408.701,177.864 408.779,177.976 408.779,178.095 C408.779,178.214 408.705,178.322 408.564,178.403 C408.43,178.481 408.259,178.518 408.088,178.518 Z M407.672,177.886 C407.572,177.945 407.516,178.02 407.516,178.094 C407.516,178.169 407.571,178.243 407.672,178.302 C407.903,178.436 408.277,178.436 408.508,178.302 C408.607,178.243 408.664,178.169 408.664,178.094 C408.664,178.02 408.608,177.945 408.508,177.886 C408.277,177.752 407.903,177.752 407.672,177.886 Z" id="Shape" stroke="#00402A" stroke-width="0.5" fill="#00402A"></path>
                <path d="M405.017,179.935 L407.62,174.814 L408.56,174.814 L411.163,179.935 C411.482,180.564 411.215,181.27 410.357,181.769 C409.105,182.491 407.078,182.491 405.829,181.769 C404.972,181.275 404.7,180.564 405.024,179.935 L405.016,179.935 L405.017,179.935 Z" id="Path" stroke="#00402A" stroke-width="0.5" fill="#00A443"></path>
                <path d="M407.743,174.692 C407.554,174.804 407.554,174.983 407.743,175.09 C407.932,175.202 408.244,175.202 408.434,175.09 C408.623,174.978 408.623,174.8 408.434,174.692 C408.245,174.581 407.933,174.581 407.743,174.692 Z" id="Path" stroke="#00402A" stroke-width="0.5" fill="#FFFEFF"></path>
                <path d="M408.088,175.234 C407.954,175.234 407.817,175.205 407.713,175.145 C407.602,175.082 407.542,174.993 407.542,174.896 C407.542,174.8 407.602,174.71 407.713,174.648 C407.921,174.525 408.251,174.525 408.464,174.648 C408.575,174.71 408.635,174.8 408.635,174.896 C408.635,174.993 408.575,175.082 408.464,175.145 C408.36,175.205 408.226,175.234 408.089,175.234 L408.088,175.234 Z M408.088,174.669 C407.973,174.669 407.858,174.694 407.773,174.743 C407.698,174.784 407.658,174.84 407.658,174.892 C407.658,174.944 407.698,175 407.773,175.041 C407.944,175.141 408.233,175.141 408.407,175.041 C408.482,175.001 408.522,174.944 408.522,174.892 C408.522,174.84 408.482,174.785 408.407,174.743 C408.322,174.695 408.207,174.669 408.092,174.669 L408.089,174.669 L408.088,174.669 Z" id="Shape" stroke="#00402A" stroke-width="0.5" fill="#00402A"></path>
                <path d="M406.004,175.611 L407.771,172.133 L408.406,172.133 L410.174,175.611 C410.389,176.038 410.207,176.519 409.624,176.854 C408.773,177.345 407.399,177.345 406.548,176.854 C405.966,176.515 405.783,176.035 405.999,175.611 L406.002,175.611 L406.004,175.611 Z" id="Path" stroke="#00402A" stroke-width="0.5" fill="#00A443"></path>
                <path d="M407.855,172.055 C407.725,172.129 407.725,172.252 407.855,172.326 C407.984,172.4 408.192,172.4 408.323,172.326 C408.452,172.252 408.452,172.129 408.323,172.055 C408.193,171.98 407.985,171.98 407.855,172.055 Z" id="Path" stroke="#00402A" stroke-width="0.5" fill="#00A443"></path>
                <path d="M347.888,165.087 L347.888,160.959 L349.206,160.959 L349.206,165.087 C349.206,165.185 349.143,165.283 349.015,165.357 C348.757,165.506 348.342,165.506 348.084,165.357 C347.954,165.283 347.893,165.185 347.893,165.087 L347.888,165.087 Z" id="Path" stroke="#00402A" stroke-width="0.5" fill="#FFF5EC"></path>
                <path d="M343.688,159.475 C343.688,162.201 345.893,162.773 348.614,162.773 C351.335,162.773 353.541,162.201 353.541,159.475 C353.541,156.75 351.335,149.999 348.614,149.999 C345.893,149.999 343.688,156.751 343.688,159.475 Z" id="Path" stroke="#00402A" stroke-width="0.5" fill="#2F6852"></path>
                <path d="M382.358,118.56 C382.358,119.296 382.955,119.893 383.691,119.893 C384.428,119.893 385.024,119.296 385.024,118.56 C385.024,117.823 384.428,117.226 383.691,117.226 C382.955,117.226 382.358,117.823 382.358,118.56 Z M383.691,94.4819 L383.441,94.4819 L383.441,118.56 L383.691,118.56 L383.941,118.56 L383.941,94.4819 L383.691,94.4819 Z" id="Shape" fill="#00402A"></path>
                <path d="M418.197,199.306 L418.197,193.709 L419.983,193.709 L419.983,199.306 C419.983,199.44 419.898,199.57 419.723,199.671 C419.374,199.872 418.809,199.872 418.461,199.671 C418.287,199.571 418.201,199.437 418.201,199.306 L418.198,199.306 L418.197,199.306 Z" id="Path" stroke="#00402A" stroke-width="0.5" fill="#FFFEFF"></path>
                <path d="M419.087,199.875 C418.849,199.875 418.608,199.823 418.426,199.719 C418.24,199.611 418.136,199.463 418.136,199.302 L418.136,193.705 C418.136,193.672 418.161,193.65 418.191,193.65 L419.978,193.65 C420.008,193.65 420.033,193.675 420.033,193.705 L420.033,199.302 C420.033,199.461 419.929,199.607 419.743,199.719 C419.562,199.823 419.324,199.875 419.082,199.875 L419.085,199.875 L419.087,199.875 Z" id="Path" stroke="#00402A" stroke-width="0.5" fill="#FFF5EC"></path>
                <path d="M418.456,193.345 C418.106,193.545 418.106,193.873 418.456,194.074 C418.805,194.275 419.37,194.275 419.718,194.074 C420.066,193.873 420.067,193.545 419.718,193.345 C419.368,193.144 418.804,193.144 418.456,193.345 Z" id="Path" stroke="#00402A" stroke-width="0.5" fill="#FFFEFF"></path>
                <path d="M419.087,194.281 C418.849,194.281 418.608,194.229 418.426,194.125 C418.24,194.018 418.136,193.869 418.136,193.708 C418.136,193.548 418.24,193.403 418.426,193.291 C418.79,193.08 419.38,193.08 419.744,193.291 C419.93,193.399 420.034,193.548 420.034,193.708 C420.034,193.869 419.93,194.013 419.744,194.125 C419.563,194.229 419.325,194.281 419.083,194.281 L419.086,194.281 L419.087,194.281 Z M418.485,193.392 C418.337,193.478 418.252,193.589 418.252,193.708 C418.252,193.827 418.333,193.935 418.485,194.024 C418.815,194.217 419.358,194.217 419.692,194.024 C419.841,193.939 419.926,193.827 419.926,193.708 C419.926,193.589 419.844,193.482 419.692,193.392 C419.362,193.199 418.82,193.199 418.485,193.392 Z" id="Shape" stroke="#00402A" stroke-width="0.5" fill="#00402A"></path>
                <path d="M415.121,191.611 L418.482,184.994 L419.693,184.994 L423.054,191.611 C423.466,192.422 423.121,193.336 422.01,193.976 C420.395,194.909 417.777,194.909 416.161,193.976 C415.054,193.336 414.706,192.422 415.118,191.611 L415.121,191.611 Z" id="Path" stroke="#00402A" stroke-width="0.5" fill="#008C39"></path>
                <path d="M418.641,184.839 C418.396,184.98 418.396,185.211 418.641,185.356 C418.886,185.497 419.287,185.497 419.533,185.356 C419.778,185.214 419.778,184.984 419.533,184.839 C419.287,184.698 418.886,184.698 418.641,184.839 Z" id="Path" stroke="#00402A" stroke-width="0.5" fill="#FFFEFF"></path>
                <path d="M419.087,185.519 C418.916,185.519 418.745,185.482 418.611,185.405 C418.474,185.327 418.396,185.215 418.396,185.096 C418.396,184.977 418.47,184.87 418.611,184.788 C418.879,184.636 419.295,184.636 419.562,184.788 C419.699,184.866 419.778,184.977 419.778,185.096 C419.778,185.215 419.704,185.323 419.562,185.405 C419.429,185.482 419.258,185.519 419.087,185.519 Z M418.671,184.887 C418.571,184.946 418.515,185.021 418.515,185.095 C418.515,185.17 418.57,185.244 418.671,185.304 C418.901,185.437 419.276,185.437 419.506,185.304 C419.606,185.244 419.662,185.17 419.662,185.095 C419.662,185.021 419.607,184.946 419.506,184.887 C419.276,184.753 418.901,184.753 418.671,184.887 Z" id="Shape" stroke="#00402A" stroke-width="0.5" fill="#00402A"></path>
                <path d="M416.016,186.936 L418.619,181.816 L419.558,181.816 L422.161,186.936 C422.481,187.565 422.213,188.272 421.355,188.77 C420.104,189.492 418.076,189.492 416.828,188.77 C415.97,188.276 415.698,187.565 416.022,186.936 L416.015,186.936 L416.016,186.936 Z" id="Path" stroke="#00402A" stroke-width="0.5" fill="#008C39"></path>
                <path d="M418.742,181.692 C418.553,181.804 418.553,181.983 418.742,182.09 C418.931,182.202 419.243,182.202 419.433,182.09 C419.622,181.978 419.622,181.8 419.433,181.692 C419.244,181.581 418.932,181.581 418.742,181.692 Z" id="Path" stroke="#00402A" stroke-width="0.5" fill="#FFFEFF"></path>
                <path d="M419.087,182.236 C418.953,182.236 418.816,182.206 418.712,182.146 C418.6,182.083 418.541,181.994 418.541,181.897 C418.541,181.801 418.6,181.711 418.712,181.649 C418.92,181.526 419.25,181.526 419.462,181.649 C419.574,181.711 419.633,181.801 419.633,181.897 C419.633,181.994 419.574,182.083 419.462,182.146 C419.358,182.206 419.225,182.236 419.088,182.236 L419.087,182.236 Z M419.087,181.67 C418.972,181.67 418.856,181.695 418.771,181.744 C418.697,181.785 418.657,181.841 418.657,181.893 C418.657,181.945 418.697,182.001 418.771,182.042 C418.942,182.142 419.232,182.142 419.406,182.042 C419.48,182.002 419.521,181.945 419.521,181.893 C419.521,181.841 419.48,181.786 419.406,181.744 C419.321,181.697 419.206,181.67 419.091,181.67 L419.088,181.67 L419.087,181.67 Z" id="Shape" stroke="#00402A" stroke-width="0.5" fill="#00402A"></path>
                <path d="M417.003,182.611 L418.77,179.133 L419.405,179.133 L421.173,182.611 C421.388,183.038 421.206,183.519 420.623,183.854 C419.773,184.345 418.398,184.345 417.547,183.854 C416.965,183.515 416.782,183.035 416.998,182.611 L417.001,182.611 L417.003,182.611 Z" id="Path" stroke="#00402A" stroke-width="0.5" fill="#008C39"></path>
                <path d="M418.853,179.055 C418.723,179.129 418.723,179.252 418.853,179.326 C418.983,179.4 419.191,179.4 419.321,179.326 C419.451,179.252 419.451,179.129 419.321,179.055 C419.192,178.98 418.984,178.98 418.853,179.055 Z" id="Path" stroke="#00402A" stroke-width="0.5" fill="#008C39"></path>
                <path d="M393.683,197.452 L403.182,191.885 C404.206,191.282 404.206,189.787 403.182,189.183 L392.722,183.055 C391.47,182.318 389.927,182.318 388.675,183.055 L379.176,188.622 C378.152,189.225 378.152,190.72 379.176,191.324 L389.636,197.452 C390.888,198.189 392.431,198.189 393.683,197.452 Z" id="Path" stroke="#00402A" stroke-width="0.5" fill="#A2BCB1" stroke-linejoin="round"></path>
                <path d="M392.106,186.333 C395.109,186.361 398.955,186.726 398.16,190.103 C397.364,193.479 395.026,194.7 390.674,193.928 C386.322,193.156 381.777,190.053 385.416,187.842 C389.055,185.631 389.768,186.312 392.106,186.333 Z" id="Path" stroke="#00402A" stroke-width="0.5" fill="#C66D00" stroke-linejoin="round"></path>
                <path d="M367.518,174.78 C366.965,174.808 366.307,175.047 366.176,175.664 C366.045,176.282 366.176,177.819 366.176,177.819 C366.176,177.819 365.996,178.528 367.788,179.623 C369.58,180.718 370.507,181.631 372.838,182.971 C375.17,184.312 377.01,184.277 377.84,183.919 C378.663,183.561 380.172,182.234 378.919,181.315 C377.667,180.395 367.525,174.773 367.525,174.773 L367.518,174.78 Z" id="Path" stroke="#00402A" stroke-width="0.5" fill="#003020" stroke-linejoin="round"></path>
                <path d="M340.219,155.45 C340.219,155.45 340.371,154.867 339.769,154.186 C339.167,153.498 338.323,153.674 337.866,153.863 C337.541,153.997 335.999,154.663 335.957,156.397 C335.922,157.843 336.116,158.678 336.185,159.612 C336.261,160.552 335.86,165.003 336.711,166.877 C337.23,168.028 338.067,168.407 339.16,168.28 C340.26,168.154 340.212,155.45 340.212,155.45 L340.219,155.45 Z" id="Path" stroke="#00402A" stroke-width="0.5" fill="#003020" stroke-linejoin="round"></path>
                <path d="M372.313,175.082 C372.313,175.082 373.648,176.331 374.949,176.865 C376.249,177.398 378.954,179.883 379.328,180.746 C379.701,181.61 378.276,183.21 376.976,183.308 C375.675,183.406 372.493,181.617 372.223,181.343 C371.946,181.076 368.701,178.304 367.781,177.847 C366.868,177.391 366.059,176.675 366.439,175.075 C366.82,173.474 368.169,172.843 369.469,172.843 C370.77,172.843 372.313,175.075 372.313,175.075 L372.313,175.082 Z" id="Path" stroke="#00402A" stroke-width="0.5" fill="#3A3735" stroke-linejoin="round"></path>
                <path d="M343.968,159.31 C343.318,158.805 342.543,157.611 342.356,156.418 C342.246,155.709 341.602,155.148 340.136,154.39 C339.81,154.221 339.257,154.348 339.257,154.348 C339.257,154.348 337.41,154.846 337.271,156.173 C337.064,158.173 337.756,160.791 337.659,162.258 C337.562,163.732 337.43,166.399 337.79,167.185 C338.517,168.772 340.634,168.666 341.346,166.982 C341.609,166.35 341.9,163.648 341.9,163.648 L342.695,161.451 L343.968,159.317 L343.968,159.31 Z" id="Path" stroke="#00402A" stroke-width="0.5" fill="#3A3735" stroke-linejoin="round"></path>
                <path d="M361.472,153.765 C363.305,155.492 375.253,161.549 377.723,161.788 C380.193,162.026 381.929,161.142 382.628,160.194 C383.327,159.247 382.358,157.141 381.189,155.548 C380.02,153.955 372.7,148.009 369.296,145.876 C365.892,143.742 362.717,142.528 360.275,143.44 C357.833,144.352 361.472,153.765 361.472,153.765 Z" id="Path" stroke="#00402A" stroke-width="0.5" fill="#007F33" stroke-linejoin="round"></path>
                <path d="M380.511,157.633 C380.808,157.808 382.78,159.9 382.78,159.9 C382.78,159.9 382.109,161.823 381.383,162.813 C379.819,164.925 375.211,172.787 372.956,176.008 C370.203,178.079 366.314,174.878 367.795,172.443 C368.598,171.116 371.413,158.37 375.322,156.776 C379.224,155.183 380.511,157.633 380.511,157.633 Z" id="Path" stroke="#00402A" stroke-width="0.5" fill="#007F33" stroke-linejoin="round"></path>
                <path d="M359.403,175.264 C359.403,175.264 361.562,177.833 359.244,177.475 C356.926,177.117 354.941,175.678 351.675,173.334 C348.403,170.99 340.378,163.908 340.142,163.606 C339.907,163.304 338.108,161.149 339.333,158.826 C340.737,156.151 342.246,156.524 342.709,156.804 C342.937,156.938 353.695,164.125 354.927,165.01 C356.158,165.887 359.396,175.264 359.396,175.264 L359.403,175.264 Z" id="Path" stroke="#00402A" stroke-width="0.5" fill="#00A443" stroke-linejoin="round"></path>
                <path d="M362.606,149.399 C362.703,149.497 364.474,153.561 363.976,154.916 C363.478,156.271 362.205,156.776 361.942,157.457 C361.672,158.131 363.935,169.937 364.135,172 C364.336,174.064 363.872,175.924 361.361,177.174 C359.673,178.016 357.168,177.293 356.47,175.299 C355.771,173.306 354.802,169.074 354.201,167.578 C353.599,166.09 350.997,163.213 349.365,155.829 C347.732,148.445 349.662,144.149 354.367,141.882 C359.071,139.615 361.043,140.359 362.011,140.632 C362.98,140.906 362.613,149.399 362.613,149.399 L362.606,149.399 Z" id="Path" stroke="#00402A" stroke-width="0.5" fill="#00A443" stroke-linejoin="round"></path>
                <path d="M349.219,147.75 C348.832,150.003 349.351,151.919 351.233,153.519 C353.107,155.12 357.992,156.264 359.839,156.341 C361.693,156.418 364.945,154.376 365.547,154.137 C366.148,153.898 371.289,153.611 371.953,153.519 C372.617,153.428 377.958,153.765 380.462,148.009 C382.967,142.254 382.434,141.306 381.127,139.818 C379.826,138.33 376.554,136.905 370.417,136.639 C364.28,136.365 359.438,138.807 355.736,140.836 C352.035,142.864 350.077,144.044 349.219,147.757 L349.219,147.75 Z" id="Path" stroke="#00402A" stroke-width="0.5" fill="#FFF5EC" stroke-linejoin="round"></path>
                <path d="M369.179,137.046 C375.433,138.134 382.718,143.63 380.711,146.886 C378.705,150.136 377.674,151.365 377.674,151.365 C377.674,151.365 377.57,151.505 378.145,151.365 C378.719,151.224 381.064,149.315 381.708,147.02 C382.351,144.725 383.057,142.149 379.086,139.895 C375.108,137.642 369.172,137.046 369.172,137.046 L369.179,137.046 Z" id="Path" stroke="#00402A" stroke-width="0.5" fill="#007F33" stroke-linejoin="round"></path>
                <path d="M358.518,140.295 C365.249,138.737 372.541,142.015 373.724,145.841 C374.907,149.666 374.208,152.396 370.521,152.228 C366.833,152.066 372.029,152.881 373.24,152.747 C374.45,152.614 376.581,151.498 376.152,147.701 C375.723,143.903 374.637,143.187 372.458,141.496 C370.279,139.804 368.072,138.162 362.067,138.407 C360.455,138.927 358.518,140.288 358.518,140.288 L358.518,140.295 Z" id="Path" stroke="#00402A" stroke-width="0.5" fill="#007F33" stroke-linejoin="round"></path>
                <path d="M348.873,149.526 C349.309,144.409 351.226,143.222 354.975,141.25 C358.725,139.285 360.122,138.527 361.845,137.979 C363.568,137.432 365.18,137.046 365.18,137.046 C365.18,137.046 360.787,139.32 360.316,140.057 C359.846,140.794 355.487,144.402 355.895,147.265 C356.297,150.129 360.288,152.537 363.173,150.417 C366.058,148.297 371.15,150.129 371.15,150.129 C371.15,150.129 371.482,151.744 374.748,151.224 C378.02,150.705 378.546,150.915 378.546,150.915 C378.546,150.915 376.36,153.758 372.769,153.688 C369.179,153.618 365.553,154.214 363.713,155.288 C361.873,156.362 360.053,156.776 358.76,156.608 C357.466,156.446 351.98,155.253 350.16,153.246 C348.341,151.238 348.873,149.519 348.873,149.519 L348.873,149.526 Z" id="Path" stroke="#00402A" stroke-width="0.5" fill="#00A443" stroke-linejoin="round"></path>
                <path d="M387.775,144.73 L387.774,144.731 C387.774,144.731 387.772,144.731 387.771,144.731 C387.767,144.732 387.763,144.733 387.757,144.734 C387.745,144.736 387.726,144.739 387.703,144.743 C387.657,144.751 387.588,144.763 387.502,144.779 C387.329,144.811 387.081,144.857 386.783,144.919 C386.188,145.044 385.39,145.228 384.58,145.468 C383.773,145.707 382.943,146.005 382.291,146.359 C381.965,146.536 381.675,146.733 381.452,146.95 C381.23,147.166 381.062,147.418 381.012,147.707 C380.852,148.625 380.963,149.866 381.151,151.015 C381.341,152.172 381.613,153.268 381.791,153.909 C381.963,154.528 382.256,156.23 382.562,158.001 C382.864,159.742 383.177,161.546 383.392,162.368 C383.405,162.6 383.484,162.984 383.603,163.458 C383.73,163.97 383.91,164.615 384.123,165.346 C384.549,166.808 385.111,168.624 385.666,170.428 C386.221,172.234 386.769,174.028 387.168,175.45 C387.367,176.161 387.529,176.776 387.635,177.252 C387.688,177.489 387.725,177.689 387.748,177.846 C387.772,178.01 387.775,178.108 387.77,178.152 C387.682,178.829 387.747,179.475 387.899,180.017 C388.05,180.554 388.292,181.01 388.575,181.289 C388.832,181.542 389.191,181.815 389.479,182.02 C389.56,182.079 389.639,182.13 389.707,182.177 C389.663,182.215 389.617,182.257 389.57,182.301 C389.465,182.403 389.352,182.526 389.265,182.662 C389.179,182.795 389.103,182.963 389.103,183.146 C389.103,183.335 389.188,183.509 389.28,183.646 C389.375,183.787 389.497,183.919 389.612,184.028 C389.728,184.138 389.844,184.231 389.93,184.297 C389.973,184.331 390.009,184.357 390.034,184.376 C390.047,184.385 390.057,184.392 390.064,184.397 C390.068,184.399 390.07,184.402 390.072,184.403 C390.073,184.404 390.075,184.404 390.075,184.405 L390.076,184.406 C390.097,184.42 390.121,184.432 390.146,184.439 L390.147,184.439 C390.148,184.439 390.15,184.44 390.151,184.44 C390.155,184.441 390.16,184.443 390.167,184.445 C390.181,184.449 390.201,184.455 390.227,184.462 C390.278,184.477 390.351,184.498 390.439,184.523 C390.617,184.573 390.858,184.639 391.11,184.702 C391.362,184.765 391.629,184.825 391.857,184.866 C391.971,184.886 392.08,184.901 392.175,184.909 C392.262,184.916 392.362,184.919 392.447,184.899 C392.601,184.862 392.754,184.747 392.879,184.633 C393.013,184.511 393.153,184.357 393.279,184.192 C393.406,184.027 393.524,183.846 393.617,183.671 C393.708,183.501 393.783,183.318 393.807,183.153 C393.841,182.91 393.916,182.406 393.956,181.909 C393.976,181.66 393.987,181.406 393.979,181.183 C393.971,180.97 393.944,180.748 393.866,180.587 L393.865,180.585 C393.801,180.456 393.671,180.258 393.51,180.02 C393.343,179.773 393.139,179.476 392.903,179.126 C392.44,178.435 391.881,177.566 391.371,176.621 C391.323,176.463 391.266,176.151 391.21,175.696 C391.152,175.232 391.095,174.641 391.036,173.963 C390.919,172.609 390.799,170.915 390.674,169.202 C390.548,167.49 390.417,165.758 390.275,164.334 C390.204,163.621 390.13,162.983 390.053,162.461 C389.98,161.967 389.902,161.562 389.815,161.294 C389.809,161.128 389.774,160.901 389.724,160.636 C389.669,160.35 389.593,160.002 389.504,159.611 C389.324,158.825 389.091,157.857 388.863,156.803 C388.407,154.693 387.981,152.284 388.065,150.428 C388.152,148.531 388.153,147.165 388.131,146.272 C388.12,145.826 388.104,145.497 388.09,145.279 C388.083,145.17 388.077,145.089 388.072,145.035 C388.07,145.008 388.068,144.987 388.066,144.973 C388.066,144.966 388.066,144.961 388.065,144.958 C388.065,144.956 388.065,144.954 388.064,144.953 L388.064,144.951 C388.057,144.883 388.022,144.821 387.968,144.779 C387.913,144.737 387.843,144.719 387.775,144.73 Z" id="Path" fill="#FAB189"></path>
                <path d="M387.775,144.73 L387.599,144.553 C387.636,144.516 387.683,144.492 387.735,144.483 L387.775,144.73 Z M387.774,144.731 L387.951,144.908 C387.914,144.945 387.867,144.969 387.815,144.978 L387.774,144.731 Z M387.771,144.731 L387.73,144.484 L387.739,144.483 L387.771,144.731 Z M387.757,144.734 L387.799,144.98 L387.798,144.98 L387.757,144.734 Z M387.703,144.743 L387.661,144.496 L387.661,144.496 L387.703,144.743 Z M387.502,144.779 L387.457,144.533 L387.457,144.533 L387.502,144.779 Z M386.783,144.919 L386.732,144.675 L386.732,144.675 L386.783,144.919 Z M384.58,145.468 L384.509,145.229 L384.509,145.229 L384.58,145.468 Z M382.291,146.359 L382.172,146.139 L382.172,146.139 L382.291,146.359 Z M381.452,146.95 L381.278,146.771 L381.278,146.771 L381.452,146.95 Z M381.012,147.707 L380.765,147.664 L380.765,147.664 L381.012,147.707 Z M381.151,151.015 L380.905,151.056 L380.905,151.056 L381.151,151.015 Z M381.791,153.909 L381.55,153.976 L381.55,153.976 L381.791,153.909 Z M382.562,158.001 L382.316,158.043 L382.562,158.001 Z M383.392,162.368 L383.634,162.305 C383.638,162.32 383.64,162.337 383.641,162.353 L383.392,162.368 Z M383.603,163.458 L383.36,163.518 L383.36,163.518 L383.603,163.458 Z M384.123,165.346 L383.883,165.416 L383.883,165.416 L384.123,165.346 Z M385.666,170.428 L385.905,170.355 L385.905,170.355 L385.666,170.428 Z M387.168,175.45 L387.409,175.382 L387.409,175.382 L387.168,175.45 Z M387.635,177.252 L387.879,177.197 L387.879,177.197 L387.635,177.252 Z M387.748,177.846 L387.996,177.811 L387.996,177.811 L387.748,177.846 Z M387.77,178.152 L388.018,178.183 L388.017,178.184 L387.77,178.152 Z M387.899,180.017 L387.659,180.085 L387.659,180.085 L387.899,180.017 Z M388.575,181.289 L388.4,181.467 L388.4,181.467 L388.575,181.289 Z M389.479,182.02 L389.333,182.224 L389.333,182.224 L389.479,182.02 Z M389.707,182.177 L389.848,181.971 C389.913,182.015 389.953,182.086 389.957,182.164 C389.961,182.242 389.929,182.317 389.869,182.367 L389.707,182.177 Z M389.57,182.301 L389.397,182.121 L389.397,182.121 L389.57,182.301 Z M389.265,182.662 L389.054,182.526 L389.055,182.526 L389.265,182.662 Z M389.103,183.146 L388.853,183.146 L388.853,183.146 L389.103,183.146 Z M389.28,183.646 L389.073,183.786 L389.073,183.786 L389.28,183.646 Z M389.612,184.028 L389.44,184.209 L389.44,184.209 L389.612,184.028 Z M389.93,184.297 L389.777,184.495 L389.777,184.495 L389.93,184.297 Z M390.034,184.376 L389.888,184.578 L389.888,184.578 L390.034,184.376 Z M390.064,184.397 L389.921,184.602 L389.921,184.602 L390.064,184.397 Z M390.072,184.403 L389.93,184.609 L389.93,184.608 L390.072,184.403 Z M390.075,184.405 L390.216,184.199 C390.229,184.207 390.241,184.217 390.252,184.228 L390.075,184.405 Z M390.076,184.406 L389.935,184.612 C389.922,184.604 389.91,184.594 389.899,184.583 L390.076,184.406 Z M390.146,184.439 L390.146,184.689 C390.121,184.689 390.097,184.686 390.074,184.679 L390.146,184.439 Z M390.147,184.439 L390.147,184.189 C390.17,184.189 390.193,184.192 390.215,184.198 L390.147,184.439 Z M390.151,184.44 L390.222,184.2 L390.223,184.2 L390.151,184.44 Z M390.167,184.445 L390.237,184.205 L390.237,184.205 L390.167,184.445 Z M390.227,184.462 L390.157,184.703 L390.157,184.703 L390.227,184.462 Z M390.439,184.523 L390.372,184.764 L390.372,184.764 L390.439,184.523 Z M391.11,184.702 L391.05,184.944 L391.05,184.944 L391.11,184.702 Z M391.857,184.866 L391.814,185.112 L391.814,185.112 L391.857,184.866 Z M392.175,184.909 L392.155,185.158 L392.155,185.158 L392.175,184.909 Z M392.447,184.899 L392.505,185.142 L392.505,185.142 L392.447,184.899 Z M392.879,184.633 L393.047,184.818 L393.047,184.818 L392.879,184.633 Z M393.279,184.192 L393.478,184.344 L393.478,184.344 L393.279,184.192 Z M393.617,183.671 L393.838,183.789 L393.838,183.789 L393.617,183.671 Z M393.807,183.153 L393.559,183.118 L393.559,183.118 L393.807,183.153 Z M393.956,181.909 L394.205,181.929 L394.205,181.929 L393.956,181.909 Z M393.979,181.183 L394.228,181.174 L394.228,181.174 L393.979,181.183 Z M393.866,180.587 L393.641,180.697 C393.637,180.687 393.632,180.677 393.629,180.667 L393.866,180.587 Z M393.865,180.585 L394.089,180.473 C394.094,180.483 394.099,180.494 394.102,180.505 L393.865,180.585 Z M393.51,180.02 L393.717,179.88 L393.717,179.88 L393.51,180.02 Z M392.903,179.126 L392.696,179.265 L392.696,179.265 L392.903,179.126 Z M391.371,176.621 L391.151,176.739 C391.143,176.725 391.137,176.71 391.132,176.694 L391.371,176.621 Z M391.21,175.696 L390.962,175.727 L390.962,175.727 L391.21,175.696 Z M391.036,173.963 L390.787,173.985 L390.787,173.985 L391.036,173.963 Z M390.674,169.202 L390.923,169.183 L390.923,169.183 L390.674,169.202 Z M390.275,164.334 L390.524,164.309 L390.524,164.309 L390.275,164.334 Z M390.053,162.461 L390.3,162.424 L390.3,162.424 L390.053,162.461 Z M389.815,161.294 L389.578,161.371 C389.571,161.35 389.567,161.327 389.566,161.304 L389.815,161.294 Z M389.724,160.636 L389.969,160.59 L389.969,160.59 L389.724,160.636 Z M389.504,159.611 L389.748,159.555 L389.748,159.555 L389.504,159.611 Z M388.863,156.803 L388.619,156.856 L388.619,156.856 L388.863,156.803 Z M388.065,150.428 L387.816,150.417 L387.816,150.417 L388.065,150.428 Z M388.131,146.272 L388.381,146.266 L388.381,146.266 L388.131,146.272 Z M388.09,145.279 L388.339,145.263 L388.339,145.263 L388.09,145.279 Z M388.072,145.035 L388.321,145.014 L388.321,145.014 L388.072,145.035 Z M388.066,144.973 L387.817,144.997 L387.817,144.996 L388.066,144.973 Z M388.065,144.958 L388.314,144.932 L388.314,144.933 L388.065,144.958 Z M388.064,144.953 L387.816,144.978 C387.815,144.97 387.814,144.961 387.814,144.953 L388.064,144.953 Z M388.064,144.951 L388.313,144.924 C388.314,144.933 388.314,144.942 388.314,144.951 L388.064,144.951 Z M387.968,144.779 L388.12,144.58 L388.12,144.58 L387.968,144.779 Z M387.775,144.73 L387.952,144.907 L387.951,144.908 L387.774,144.731 L387.598,144.554 L387.599,144.553 L387.775,144.73 Z M387.774,144.731 L387.815,144.978 C387.801,144.98 387.79,144.981 387.783,144.981 C387.775,144.981 387.769,144.981 387.766,144.981 C387.763,144.981 387.76,144.981 387.759,144.981 C387.758,144.981 387.758,144.981 387.758,144.981 C387.758,144.981 387.758,144.981 387.758,144.981 C387.759,144.981 387.764,144.981 387.771,144.981 C387.778,144.981 387.789,144.981 387.802,144.979 L387.771,144.731 L387.739,144.483 C387.753,144.481 387.765,144.481 387.773,144.481 C387.78,144.481 387.786,144.481 387.787,144.481 C387.788,144.481 387.788,144.481 387.788,144.481 C387.788,144.481 387.788,144.481 387.788,144.481 C387.788,144.481 387.788,144.481 387.788,144.481 C387.788,144.481 387.788,144.481 387.788,144.481 C387.788,144.481 387.788,144.481 387.788,144.481 C387.787,144.481 387.784,144.481 387.781,144.481 C387.778,144.481 387.773,144.481 387.766,144.481 C387.759,144.481 387.748,144.482 387.734,144.484 L387.774,144.731 Z M387.771,144.731 L387.811,144.978 C387.818,144.977 387.823,144.975 387.823,144.975 C387.824,144.975 387.824,144.975 387.824,144.975 C387.824,144.975 387.824,144.975 387.823,144.975 C387.823,144.975 387.823,144.975 387.822,144.976 C387.819,144.976 387.81,144.979 387.799,144.98 L387.757,144.734 L387.715,144.488 C387.71,144.488 387.706,144.489 387.707,144.489 C387.707,144.489 387.707,144.489 387.708,144.489 C387.708,144.489 387.708,144.489 387.709,144.489 C387.709,144.488 387.711,144.488 387.712,144.488 C387.715,144.487 387.721,144.486 387.73,144.484 L387.771,144.731 Z M387.757,144.734 L387.798,144.98 C387.775,144.984 387.773,144.984 387.746,144.989 L387.703,144.743 L387.661,144.496 C387.68,144.493 387.714,144.488 387.715,144.487 L387.757,144.734 Z M387.703,144.743 L387.746,144.989 C387.7,144.997 387.633,145.009 387.547,145.025 L387.502,144.779 L387.457,144.533 C387.544,144.517 387.613,144.505 387.661,144.496 L387.703,144.743 Z M387.502,144.779 L387.547,145.025 C387.375,145.056 387.129,145.103 386.834,145.164 L386.783,144.919 L386.732,144.675 C387.032,144.612 387.282,144.565 387.457,144.533 L387.502,144.779 Z M386.783,144.919 L386.834,145.164 C386.243,145.288 385.452,145.471 384.651,145.708 L384.58,145.468 L384.509,145.229 C385.327,144.986 386.133,144.8 386.732,144.675 L386.783,144.919 Z M384.58,145.468 L384.651,145.708 C383.85,145.945 383.039,146.237 382.41,146.579 L382.291,146.359 L382.172,146.139 C382.846,145.773 383.696,145.47 384.509,145.229 L384.58,145.468 Z M382.291,146.359 L382.41,146.579 C382.096,146.749 381.827,146.933 381.627,147.129 L381.452,146.95 L381.278,146.771 C381.522,146.532 381.834,146.323 382.172,146.139 L382.291,146.359 Z M381.452,146.95 L381.627,147.129 C381.427,147.324 381.296,147.531 381.258,147.75 L381.012,147.707 L380.765,147.664 C380.828,147.305 381.034,147.008 381.278,146.771 L381.452,146.95 Z M381.012,147.707 L381.258,147.75 C381.106,148.623 381.21,149.829 381.398,150.975 L381.151,151.015 L380.905,151.056 C380.716,149.902 380.598,148.626 380.765,147.664 L381.012,147.707 Z M381.151,151.015 L381.398,150.975 C381.586,152.12 381.855,153.207 382.032,153.842 L381.791,153.909 L381.55,153.976 C381.37,153.329 381.096,152.224 380.905,151.056 L381.151,151.015 Z M381.791,153.909 L382.032,153.842 C382.208,154.477 382.504,156.197 382.809,157.958 L382.562,158.001 L382.316,158.043 C382.008,156.263 381.718,154.58 381.55,153.976 L381.791,153.909 Z M382.562,158.001 L382.809,157.958 C383.111,159.706 383.422,161.496 383.634,162.305 L383.392,162.368 L383.15,162.431 C382.932,161.596 382.616,159.778 382.316,158.043 L382.562,158.001 Z M383.392,162.368 L383.641,162.353 C383.653,162.559 383.726,162.922 383.845,163.397 L383.603,163.458 L383.36,163.518 C383.242,163.046 383.158,162.641 383.142,162.383 L383.392,162.368 Z M383.603,163.458 L383.845,163.397 C383.972,163.905 384.15,164.547 384.363,165.276 L384.123,165.346 L383.883,165.416 C383.67,164.684 383.489,164.035 383.36,163.518 L383.603,163.458 Z M384.123,165.346 L384.363,165.276 C384.788,166.736 385.35,168.55 385.905,170.355 L385.666,170.428 L385.427,170.502 C384.873,168.699 384.31,166.88 383.883,165.416 L384.123,165.346 Z M385.666,170.428 L385.905,170.355 C386.46,172.16 387.009,173.957 387.409,175.382 L387.168,175.45 L386.927,175.517 C386.53,174.099 385.983,172.308 385.427,170.502 L385.666,170.428 Z M387.168,175.45 L387.409,175.382 C387.608,176.095 387.771,176.715 387.879,177.197 L387.635,177.252 L387.391,177.306 C387.286,176.837 387.126,176.227 386.927,175.517 L387.168,175.45 Z M387.635,177.252 L387.879,177.197 C387.933,177.438 387.972,177.645 387.996,177.811 L387.748,177.846 L387.501,177.882 C387.479,177.733 387.443,177.54 387.391,177.306 L387.635,177.252 Z M387.748,177.846 L387.996,177.811 C388.019,177.975 388.028,178.103 388.018,178.183 L387.77,178.152 L387.522,178.12 C387.521,178.122 387.523,178.105 387.52,178.059 C387.518,178.017 387.512,177.959 387.501,177.882 L387.748,177.846 Z M387.77,178.152 L388.017,178.184 C387.934,178.826 387.997,179.438 388.14,179.95 L387.899,180.017 L387.659,180.085 C387.498,179.512 387.43,178.832 387.522,178.12 L387.77,178.152 Z M387.899,180.017 L388.14,179.95 C388.284,180.461 388.509,180.872 388.751,181.111 L388.575,181.289 L388.4,181.467 C388.076,181.147 387.817,180.648 387.659,180.085 L387.899,180.017 Z M388.575,181.289 L388.751,181.111 C388.993,181.349 389.339,181.613 389.624,181.817 L389.479,182.02 L389.333,182.224 C389.044,182.017 388.671,181.734 388.4,181.467 L388.575,181.289 Z M389.479,182.02 L389.624,181.817 C389.703,181.873 389.776,181.922 389.848,181.971 L389.707,182.177 L389.566,182.384 C389.501,182.339 389.418,182.284 389.333,182.224 L389.479,182.02 Z M389.707,182.177 L389.869,182.367 C389.829,182.402 389.786,182.44 389.743,182.482 L389.57,182.301 L389.397,182.121 C389.447,182.073 389.497,182.028 389.545,181.987 L389.707,182.177 Z M389.57,182.301 L389.744,182.482 C389.646,182.576 389.548,182.684 389.475,182.797 L389.265,182.662 L389.055,182.526 C389.157,182.368 389.284,182.229 389.397,182.121 L389.57,182.301 Z M389.265,182.662 L389.475,182.797 C389.402,182.911 389.353,183.031 389.353,183.146 L389.103,183.146 L388.853,183.146 C388.853,182.895 388.956,182.679 389.054,182.526 L389.265,182.662 Z M389.103,183.146 L389.353,183.146 C389.353,183.262 389.407,183.386 389.488,183.506 L389.28,183.646 L389.073,183.786 C388.97,183.632 388.853,183.408 388.853,183.146 L389.103,183.146 Z M389.28,183.646 L389.488,183.506 C389.569,183.627 389.677,183.744 389.784,183.847 L389.612,184.028 L389.44,184.209 C389.318,184.093 389.182,183.948 389.073,183.786 L389.28,183.646 Z M389.612,184.028 L389.784,183.847 C389.892,183.949 390,184.036 390.082,184.099 L389.93,184.297 L389.777,184.495 C389.688,184.427 389.565,184.328 389.44,184.209 L389.612,184.028 Z M389.93,184.297 L390.082,184.099 C390.123,184.131 390.157,184.156 390.18,184.173 L390.034,184.376 L389.888,184.578 C389.86,184.558 389.822,184.53 389.777,184.495 L389.93,184.297 Z M390.034,184.376 L390.18,184.173 C390.192,184.181 390.201,184.188 390.208,184.192 L390.064,184.397 L389.921,184.602 C389.913,184.596 389.902,184.588 389.888,184.578 L390.034,184.376 Z M390.064,184.397 L390.208,184.192 C390.215,184.197 390.22,184.201 390.222,184.203 C390.224,184.204 390.223,184.203 390.222,184.203 C390.222,184.202 390.219,184.2 390.215,184.197 L390.072,184.403 L389.93,184.608 C389.925,184.605 389.921,184.602 389.919,184.6 C389.918,184.6 389.917,184.599 389.916,184.599 C389.916,184.598 389.916,184.598 389.916,184.598 C389.916,184.598 389.916,184.598 389.915,184.598 C389.915,184.597 389.917,184.599 389.921,184.602 L390.064,184.397 Z M390.072,184.403 L390.214,184.197 C390.212,184.196 390.211,184.195 390.211,184.195 C390.211,184.195 390.211,184.195 390.212,184.195 C390.212,184.195 390.212,184.196 390.212,184.196 C390.213,184.196 390.214,184.197 390.216,184.199 L390.075,184.405 L389.934,184.611 C389.935,184.612 389.936,184.612 389.936,184.613 C389.936,184.613 389.937,184.613 389.937,184.613 C389.937,184.613 389.937,184.613 389.937,184.613 C389.937,184.613 389.937,184.613 389.936,184.613 C389.936,184.612 389.933,184.611 389.93,184.609 L390.072,184.403 Z M390.075,184.405 L390.252,184.228 L390.253,184.229 L390.076,184.406 L389.899,184.583 L389.898,184.582 L390.075,184.405 Z M390.076,184.406 L390.217,184.199 L390.217,184.199 L390.146,184.439 L390.074,184.679 C390.024,184.664 389.977,184.641 389.935,184.612 L390.076,184.406 Z M390.146,184.439 L390.146,184.189 L390.147,184.189 L390.147,184.439 L390.147,184.689 L390.146,184.689 L390.146,184.439 Z M390.147,184.439 L390.215,184.198 C390.21,184.197 390.206,184.196 390.205,184.196 C390.205,184.196 390.204,184.196 390.205,184.196 C390.205,184.196 390.205,184.196 390.205,184.196 C390.205,184.196 390.205,184.196 390.205,184.196 C390.205,184.196 390.205,184.196 390.206,184.196 C390.208,184.196 390.214,184.198 390.222,184.2 L390.151,184.44 L390.081,184.68 C390.087,184.682 390.092,184.683 390.093,184.683 C390.093,184.683 390.093,184.683 390.093,184.683 C390.093,184.683 390.092,184.683 390.091,184.683 C390.09,184.682 390.085,184.681 390.08,184.68 L390.147,184.439 Z M390.151,184.44 L390.223,184.2 C390.226,184.201 390.229,184.202 390.23,184.203 C390.232,184.203 390.234,184.204 390.234,184.204 C390.236,184.205 390.237,184.205 390.237,184.205 L390.167,184.445 L390.097,184.685 C390.09,184.683 390.085,184.681 390.082,184.68 C390.079,184.679 390.079,184.679 390.078,184.679 C390.078,184.679 390.079,184.679 390.08,184.68 L390.151,184.44 Z M390.167,184.445 L390.237,184.205 C390.255,184.21 390.27,184.215 390.296,184.222 L390.227,184.462 L390.157,184.703 C390.132,184.695 390.107,184.688 390.097,184.685 L390.167,184.445 Z M390.227,184.462 L390.296,184.222 C390.346,184.237 390.419,184.258 390.507,184.282 L390.439,184.523 L390.372,184.764 C390.283,184.739 390.209,184.718 390.157,184.703 L390.227,184.462 Z M390.439,184.523 L390.507,184.282 C390.683,184.332 390.922,184.397 391.171,184.459 L391.11,184.702 L391.05,184.944 C390.794,184.88 390.551,184.814 390.372,184.764 L390.439,184.523 Z M391.11,184.702 L391.171,184.459 C391.42,184.521 391.681,184.581 391.901,184.62 L391.857,184.866 L391.814,185.112 C391.577,185.07 391.304,185.008 391.05,184.944 L391.11,184.702 Z M391.857,184.866 L391.901,184.62 C392.01,184.639 392.111,184.653 392.195,184.66 L392.175,184.909 L392.155,185.158 C392.05,185.15 391.933,185.133 391.814,185.112 L391.857,184.866 Z M392.175,184.909 L392.195,184.66 C392.28,184.666 392.346,184.666 392.389,184.656 L392.447,184.899 L392.505,185.142 C392.379,185.172 392.244,185.165 392.155,185.158 L392.175,184.909 Z M392.447,184.899 L392.389,184.656 C392.477,184.635 392.59,184.558 392.711,184.448 L392.879,184.633 L393.047,184.818 C392.919,184.935 392.726,185.089 392.505,185.142 L392.447,184.899 Z M392.879,184.633 L392.711,184.448 C392.832,184.338 392.962,184.195 393.081,184.04 L393.279,184.192 L393.478,184.344 C393.344,184.519 393.194,184.685 393.047,184.818 L392.879,184.633 Z M393.279,184.192 L393.081,184.04 C393.2,183.884 393.311,183.715 393.396,183.554 L393.617,183.671 L393.838,183.789 C393.738,183.977 393.612,184.17 393.478,184.344 L393.279,184.192 Z M393.617,183.671 L393.396,183.554 C393.482,183.394 393.542,183.241 393.559,183.118 L393.807,183.153 L394.054,183.188 C394.025,183.395 393.934,183.609 393.838,183.789 L393.617,183.671 Z M393.807,183.153 L393.559,183.118 C393.594,182.872 393.668,182.377 393.707,181.889 L393.956,181.909 L394.205,181.929 C394.165,182.435 394.088,182.948 394.054,183.188 L393.807,183.153 Z M393.956,181.909 L393.707,181.889 C393.726,181.645 393.736,181.402 393.729,181.192 L393.979,181.183 L394.228,181.174 C394.237,181.41 394.225,181.675 394.205,181.929 L393.956,181.909 Z M393.979,181.183 L393.729,181.192 C393.721,180.984 393.695,180.807 393.641,180.697 L393.866,180.587 L394.091,180.478 C394.194,180.69 394.22,180.957 394.228,181.174 L393.979,181.183 Z M393.866,180.587 L393.629,180.667 L393.628,180.664 L393.865,180.585 L394.102,180.505 L394.103,180.508 L393.866,180.587 Z M393.865,180.585 L393.642,180.697 C393.586,180.586 393.467,180.403 393.303,180.16 L393.51,180.02 L393.717,179.88 C393.875,180.114 394.016,180.327 394.089,180.473 L393.865,180.585 Z M393.51,180.02 L393.303,180.16 C393.138,179.916 392.93,179.614 392.696,179.265 L392.903,179.126 L393.111,178.986 C393.347,179.338 393.547,179.629 393.717,179.88 L393.51,180.02 Z M392.903,179.126 L392.696,179.265 C392.231,178.572 391.666,177.695 391.151,176.739 L391.371,176.621 L391.591,176.502 C392.096,177.437 392.65,178.299 393.111,178.986 L392.903,179.126 Z M391.371,176.621 L391.132,176.694 C391.076,176.513 391.018,176.181 390.962,175.727 L391.21,175.696 L391.458,175.665 C391.515,176.12 391.569,176.413 391.61,176.547 L391.371,176.621 Z M391.21,175.696 L390.962,175.727 C390.904,175.258 390.846,174.663 390.787,173.985 L391.036,173.963 L391.285,173.942 C391.344,174.618 391.401,175.206 391.458,175.665 L391.21,175.696 Z M391.036,173.963 L390.787,173.985 C390.67,172.628 390.55,170.932 390.424,169.22 L390.674,169.202 L390.923,169.183 C391.049,170.898 391.168,172.589 391.285,173.942 L391.036,173.963 Z M390.674,169.202 L390.424,169.22 C390.299,167.508 390.168,165.779 390.027,164.358 L390.275,164.334 L390.524,164.309 C390.666,165.737 390.798,167.472 390.923,169.183 L390.674,169.202 Z M390.275,164.334 L390.027,164.358 C389.956,163.648 389.882,163.014 389.805,162.497 L390.053,162.461 L390.3,162.424 C390.378,162.952 390.453,163.595 390.524,164.309 L390.275,164.334 Z M390.053,162.461 L389.805,162.497 C389.733,162.005 389.657,161.617 389.578,161.371 L389.815,161.294 L390.053,161.218 C390.146,161.506 390.227,161.929 390.3,162.424 L390.053,162.461 Z M389.815,161.294 L389.566,161.304 C389.56,161.158 389.528,160.946 389.478,160.683 L389.724,160.636 L389.969,160.59 C390.02,160.855 390.058,161.098 390.065,161.285 L389.815,161.294 Z M389.724,160.636 L389.478,160.683 C389.424,160.401 389.349,160.057 389.26,159.667 L389.504,159.611 L389.748,159.555 C389.837,159.948 389.914,160.298 389.969,160.59 L389.724,160.636 Z M389.504,159.611 L389.26,159.667 C389.082,158.884 388.847,157.911 388.619,156.856 L388.863,156.803 L389.108,156.75 C389.335,157.802 389.567,158.765 389.748,159.555 L389.504,159.611 Z M388.863,156.803 L388.619,156.856 C388.162,154.746 387.729,152.309 387.816,150.417 L388.065,150.428 L388.315,150.44 C388.232,152.259 388.651,154.639 389.108,156.75 L388.863,156.803 Z M388.065,150.428 L387.816,150.417 C387.902,148.525 387.903,147.165 387.881,146.278 L388.131,146.272 L388.381,146.266 C388.403,147.165 388.402,148.537 388.315,150.44 L388.065,150.428 Z M388.131,146.272 L387.881,146.278 C387.87,145.835 387.854,145.509 387.84,145.295 L388.09,145.279 L388.339,145.263 C388.353,145.484 388.37,145.816 388.381,146.266 L388.131,146.272 Z M388.09,145.279 L387.84,145.295 C387.834,145.188 387.828,145.108 387.823,145.055 L388.072,145.035 L388.321,145.014 C388.326,145.07 388.332,145.153 388.339,145.263 L388.09,145.279 Z M388.072,145.035 L387.823,145.056 C387.821,145.029 387.819,145.017 387.817,144.997 L388.066,144.973 L388.315,144.95 C388.316,144.957 388.319,144.986 388.321,145.014 L388.072,145.035 Z M388.066,144.973 L387.817,144.996 C387.817,144.987 387.816,144.979 387.816,144.976 C387.816,144.973 387.816,144.974 387.816,144.974 C387.816,144.974 387.816,144.978 387.817,144.982 L388.065,144.958 L388.314,144.933 C388.315,144.939 388.315,144.945 388.315,144.947 C388.315,144.95 388.316,144.953 388.316,144.953 C388.316,144.954 388.316,144.953 388.315,144.95 L388.066,144.973 Z M388.065,144.958 L387.817,144.983 C387.818,144.993 387.819,145.001 387.82,145.005 C387.821,145.009 387.822,145.013 387.822,145.013 C387.822,145.013 387.822,145.013 387.822,145.013 C387.822,145.013 387.822,145.013 387.822,145.013 C387.822,145.012 387.821,145.011 387.821,145.009 C387.82,145.007 387.82,145.003 387.819,144.999 C387.818,144.994 387.817,144.987 387.816,144.978 L388.064,144.953 L388.313,144.927 C388.312,144.919 388.311,144.912 388.31,144.908 C388.31,144.904 388.309,144.9 388.309,144.899 C388.308,144.897 388.308,144.896 388.308,144.896 C388.308,144.896 388.308,144.895 388.308,144.896 C388.308,144.896 388.308,144.896 388.308,144.896 C388.308,144.898 388.309,144.902 388.31,144.907 C388.311,144.913 388.313,144.921 388.314,144.932 L388.065,144.958 Z M388.064,144.953 L387.814,144.953 L387.814,144.951 L388.064,144.951 L388.314,144.951 L388.314,144.953 L388.064,144.953 Z M388.064,144.951 L387.816,144.977 L387.816,144.977 L387.968,144.779 L388.12,144.58 C388.228,144.663 388.299,144.788 388.313,144.924 L388.064,144.951 Z M387.968,144.779 L387.816,144.978 L387.816,144.977 L387.775,144.73 L387.735,144.483 C387.873,144.461 388.012,144.498 388.12,144.58 L387.968,144.779 Z" id="Shape" fill="#00402A"></path>
                <path d="M380.359,140.696 C378.933,141.054 377.141,142.942 376.463,144.746 C375.786,146.549 376.256,147.111 376.498,147.988 C376.699,148.704 377.647,149.505 378.601,148.999 C379.632,148.459 380.656,148.95 382.828,148.95 C385.001,148.95 380.352,140.696 380.352,140.696 L380.359,140.696 Z" id="Path" stroke="#00402A" stroke-width="0.5" fill="#FBBD9B" stroke-linejoin="round"></path>
                <path d="M382.489,144.072 C382.489,144.072 380.123,146.339 380.136938,147.497 C380.151,148.662 382.323,151.94 383.416,152.347 C384.51,152.754 386.087,151.533 386.087,151.533 C386.087,151.533 387.941,151.961 388.543,151.28 C389.145,150.592 388.64,149.778 389.595,149.259 C390.542,148.739 392.396,146.683 392.3,145.132 C392.203,143.58 388.695,140.941 387.491,141.32 C386.288,141.699 382.489,144.065 382.489,144.065 L382.489,144.072 Z" id="Path" stroke="#00402A" stroke-width="0.5" fill="#FBBD9B" stroke-linejoin="round"></path>
                <path d="M381.016,146.002 C381.459,145.539 381.14,144.837 380.718,144.647 C380.296,144.458 379.944,145.09 379.826,145.321 C379.708,145.553 379.432,146.36 379.951,146.402 C380.462,146.444 381.023,145.995 381.023,145.995 L381.016,146.002 Z" id="Path" stroke="#00402A" stroke-width="0.5" fill="#FBBD9B" stroke-linejoin="round"></path>
                <path d="M383.416,132.055 C387.865,132.532 389.193,138.428 384.039,138.962 C382.877,139.081 380.898,142.872 377.695,143.138 C374.492,143.405 367.649,143.77 367.809,134.968 C372.105,137.691 375.495,137.123 377.086,135.024 C379.3,132.076 381.569,131.852 383.416,132.055 Z" id="Path" stroke="#00402A" stroke-width="0.5" fill="#3A3735" stroke-linejoin="round"></path>
                <path d="M391.248,146.585 C391.248,146.585 387.892,147.953 385.644,147.216 C383.388,146.479 382.517,146.325 382.517,146.325 C382.517,146.325 381.389,147.076 380.718,146.879 C381.942,145.819 380.365,144.97 380.365,144.97 C380.365,144.97 380.04,145.335 379.037,145.132 C378.034,144.928 377.411,140.106 380.137,138.049 C382.863,135.993 386.944,135.494 389.324,136.603 C391.704,137.713 393.676,142.921 393.282,145.153 C392.479,146.114 391.254,146.578 391.254,146.578 L391.248,146.585 Z" id="Path" stroke="#00402A" stroke-width="0.5" fill="#3A3735" stroke-linejoin="round"></path>
                <path d="M389.083,178.416 C389.055,178.57 389.145,179.813 389.622,180.332 C390.1,180.851 391.324,182.122 391.4,182.417 C391.476,182.712 391.2,183.47 391.525,184.284 C391.85,185.098 392.452,184.691 392.5,184.424 C392.549,184.157 392.5,183.406 392.5,183.28 C392.5,183.154 392.639,182.775 392.403,181.975 C392.168,181.174 392.078,179.637 391.85,179.083 C391.622,178.521 391.248,177.623 390.812,177.195 C390.376,176.766 389.636,176.991 389.325,177.321 C389.014,177.651 389.09,178.423 389.09,178.423 L389.083,178.416 Z" id="Path" stroke="#00402A" stroke-width="0.5" fill="#FBBD9B" stroke-linejoin="round"></path>
                <path d="M391.151,190.087 L391.151,185.959 L392.468,185.959 L392.468,190.087 C392.468,190.185 392.405,190.283 392.277,190.357 C392.019,190.506 391.604,190.506 391.346,190.357 C391.216,190.283 391.155,190.185 391.155,190.087 L391.151,190.087 Z" id="Path" stroke="#00402A" stroke-width="0.5" fill="#FFF5EC" stroke-linejoin="round"></path>
                <path d="M386.95,184.475 C386.95,187.201 389.156,187.773 391.876,187.773 C394.597,187.773 396.803,187.201 396.803,184.475 C396.803,181.75 394.597,174.999 391.876,174.999 C389.156,174.999 386.95,181.751 386.95,184.475 Z" id="Path" stroke="#00402A" stroke-width="0.5" fill="#2F6852" stroke-linejoin="round"></path>
                <path d="M368.317,151.692 C367.886,151.562 367.463,151.495 367.088,151.545 C366.704,151.597 366.366,151.774 366.143,152.123 C365.926,152.461 365.835,152.93 365.864,153.531 L365.864,153.532 C365.98,155.86 366.931,160.126 367.916,163.915 C368.409,165.814 368.913,167.602 369.329,168.979 C369.537,169.667 369.724,170.255 369.876,170.703 C370.014,171.11 370.133,171.421 370.215,171.584 C370.41,172.429 371.116,173.387 372.022,174.332 C372.95,175.299 374.123,176.29 375.282,177.185 C376.442,178.081 377.594,178.885 378.48,179.477 C379.358,180.064 379.994,180.454 380.117,180.514 C380.167,180.539 380.27,180.628 380.415,180.806 C380.552,180.974 380.704,181.192 380.856,181.434 C381.162,181.92 381.455,182.481 381.613,182.887 L381.614,182.888 C381.783,183.312 382.135,184.193 382.527,185 C382.723,185.402 382.933,185.794 383.14,186.104 C383.243,186.259 383.349,186.398 383.455,186.51 C383.558,186.619 383.678,186.72 383.812,186.771 L383.813,186.77 C384.19,186.915 384.701,186.964 385.095,186.979 C385.296,186.987 385.476,186.986 385.605,186.983 C385.67,186.982 385.723,186.981 385.76,186.979 C385.764,186.979 385.767,186.978 385.771,186.978 C385.778,186.98 385.785,186.984 385.794,186.987 C385.838,187.001 385.903,187.023 385.981,187.047 C386.138,187.097 386.352,187.164 386.582,187.23 C386.812,187.296 387.059,187.364 387.283,187.415 C387.5,187.464 387.717,187.502 387.872,187.503 C388.163,187.503 388.451,187.424 388.672,187.301 C388.782,187.24 388.885,187.163 388.963,187.071 C389.04,186.979 389.104,186.857 389.104,186.712 C389.104,186.585 389.056,186.466 389.005,186.372 C388.975,186.317 388.94,186.263 388.902,186.211 C388.938,186.23 388.994,186.257 389.062,186.26 C389.087,186.262 389.118,186.265 389.159,186.269 C389.198,186.273 389.245,186.278 389.294,186.282 C389.389,186.289 389.508,186.294 389.625,186.276 C389.741,186.258 389.881,186.213 389.99,186.102 C390.105,185.986 390.156,185.83 390.156,185.653 C390.156,185.309 389.973,185.03 389.822,184.835 C389.783,184.784 389.744,184.736 389.709,184.693 C389.673,184.649 389.641,184.611 389.613,184.575 C389.585,184.539 389.564,184.51 389.55,184.486 C389.543,184.474 389.538,184.465 389.535,184.459 C389.533,184.453 389.532,184.451 389.531,184.45 C389.513,184.384 389.478,184.317 389.444,184.261 C389.408,184.201 389.364,184.133 389.312,184.062 C389.21,183.919 389.076,183.746 388.93,183.562 C388.634,183.19 388.283,182.764 388.003,182.386 C387.703,181.985 387.207,181.501 386.706,181.087 C386.209,180.677 385.675,180.308 385.295,180.156 C385.113,180.083 384.928,180.03 384.763,179.977 C384.593,179.923 384.43,179.865 384.263,179.779 C383.933,179.61 383.556,179.318 383.101,178.684 L383.084,178.663 L379.642,174.837 C379.64,174.836 379.638,174.834 379.637,174.832 C379.629,174.822 379.618,174.807 379.604,174.788 C379.574,174.749 379.529,174.69 379.473,174.617 C379.359,174.469 379.195,174.258 378.993,174 C378.59,173.482 378.037,172.777 377.433,172.028 C376.714,171.136 375.916,170.173 375.216,169.386 C375.224,169.238 375.21,169.063 375.185,168.879 C375.148,168.611 375.082,168.287 374.998,167.927 C374.83,167.208 374.583,166.322 374.328,165.404 C374.072,164.483 373.807,163.527 373.6,162.658 C373.391,161.785 373.245,161.015 373.22,160.463 C373.172,159.321 373.218,157.934 373.276,156.829 C373.306,156.277 373.338,155.797 373.363,155.455 C373.376,155.284 373.386,155.147 373.394,155.053 C373.397,155.007 373.4,154.97 373.402,154.946 C373.403,154.934 373.405,154.925 373.405,154.919 L373.405,154.91 C373.412,154.828 373.379,154.747 373.315,154.695 L373.313,154.693 C373.313,154.692 373.311,154.691 373.31,154.69 C373.306,154.687 373.3,154.682 373.293,154.676 C373.279,154.665 373.258,154.648 373.231,154.627 C373.177,154.583 373.098,154.521 372.998,154.443 C372.798,154.287 372.512,154.07 372.171,153.825 C371.489,153.334 370.576,152.724 369.666,152.257 C369.211,152.024 368.751,151.823 368.317,151.692 Z M387.612,184.665 C387.62,184.675 387.629,184.69 387.642,184.708 C387.67,184.749 387.712,184.809 387.762,184.879 C387.862,185.021 387.999,185.211 388.145,185.402 C388.184,185.453 388.225,185.504 388.266,185.555 C388.204,185.512 388.134,185.466 388.064,185.423 C387.934,185.343 387.78,185.253 387.634,185.168 C387.485,185.081 387.344,184.998 387.234,184.927 C387.18,184.892 387.136,184.862 387.104,184.837 C387.067,184.808 387.065,184.802 387.074,184.815 C387.085,184.83 387.078,184.824 387.06,184.763 C387.044,184.713 387.026,184.647 387.008,184.566 C386.971,184.405 386.931,184.203 386.895,184.003 C386.893,183.992 386.892,183.981 386.89,183.97 L387.612,184.665 Z" id="Shape" fill="#FBBD9B"></path>
                <path d="M368.317,151.692 L368.39,151.453 L368.39,151.453 L368.317,151.692 Z M367.088,151.545 L367.055,151.298 L367.055,151.298 L367.088,151.545 Z M366.143,152.123 L365.932,151.988 L365.932,151.988 L366.143,152.123 Z M365.864,153.531 L366.114,153.519 L366.114,153.531 L365.864,153.531 Z M365.864,153.532 L365.614,153.544 L365.614,153.532 L365.864,153.532 Z M367.916,163.915 L367.674,163.977 L367.674,163.977 L367.916,163.915 Z M369.329,168.979 L369.09,169.051 L369.09,169.051 L369.329,168.979 Z M369.876,170.703 L369.639,170.783 L369.639,170.783 L369.876,170.703 Z M370.215,171.584 L370.438,171.471 C370.447,171.489 370.454,171.508 370.458,171.527 L370.215,171.584 Z M372.022,174.332 L371.842,174.505 L371.842,174.505 L372.022,174.332 Z M375.282,177.185 L375.129,177.383 L375.129,177.383 L375.282,177.185 Z M378.48,179.477 L378.342,179.685 L378.342,179.685 L378.48,179.477 Z M380.117,180.514 L380.007,180.739 L380.007,180.739 L380.117,180.514 Z M380.415,180.806 L380.609,180.648 L380.609,180.648 L380.415,180.806 Z M380.856,181.434 L381.068,181.301 L381.068,181.301 L380.856,181.434 Z M381.613,182.887 L381.437,183.064 C381.412,183.04 381.393,183.01 381.38,182.978 L381.613,182.887 Z M381.614,182.888 L381.791,182.711 C381.815,182.735 381.834,182.764 381.846,182.796 L381.614,182.888 Z M382.527,185 L382.303,185.109 L382.303,185.109 L382.527,185 Z M383.14,186.104 L382.932,186.243 L382.932,186.243 L383.14,186.104 Z M383.455,186.51 L383.274,186.682 L383.274,186.682 L383.455,186.51 Z M383.812,186.771 L383.989,186.948 C383.92,187.017 383.816,187.04 383.724,187.005 L383.812,186.771 Z M383.813,186.77 L383.637,186.593 C383.707,186.523 383.811,186.501 383.903,186.537 L383.813,186.77 Z M385.095,186.979 L385.085,187.229 L385.085,187.229 L385.095,186.979 Z M385.605,186.983 L385.61,187.233 L385.61,187.233 L385.605,186.983 Z M385.76,186.979 L385.77,187.229 L385.77,187.229 L385.76,186.979 Z M385.771,186.978 L385.76,186.728 C385.79,186.727 385.82,186.731 385.849,186.741 L385.771,186.978 Z M385.794,186.987 L385.716,187.224 L385.716,187.224 L385.794,186.987 Z M385.981,187.047 L385.906,187.286 L385.906,187.286 L385.981,187.047 Z M386.582,187.23 L386.513,187.47 L386.513,187.47 L386.582,187.23 Z M387.283,187.415 L387.228,187.658 L387.228,187.658 L387.283,187.415 Z M387.872,187.503 L387.872,187.753 L387.872,187.753 L387.872,187.503 Z M388.672,187.301 L388.793,187.52 L388.793,187.52 L388.672,187.301 Z M388.963,187.071 L389.154,187.232 L389.154,187.232 L388.963,187.071 Z M389.104,186.712 L389.354,186.712 L389.354,186.712 L389.104,186.712 Z M389.005,186.372 L389.224,186.252 L389.224,186.252 L389.005,186.372 Z M388.902,186.211 L388.7,186.357 C388.631,186.262 388.638,186.133 388.715,186.045 C388.791,185.958 388.919,185.935 389.021,185.991 L388.902,186.211 Z M389.062,186.26 L389.076,186.011 L389.076,186.011 L389.062,186.26 Z M389.159,186.269 L389.185,186.02 L389.185,186.02 L389.159,186.269 Z M389.294,186.282 L389.274,186.531 L389.274,186.531 L389.294,186.282 Z M389.625,186.276 L389.663,186.523 L389.663,186.523 L389.625,186.276 Z M389.99,186.102 L390.168,186.278 L390.168,186.278 L389.99,186.102 Z M390.156,185.653 L390.406,185.653 L390.406,185.653 L390.156,185.653 Z M389.822,184.835 L390.02,184.682 L390.02,184.682 L389.822,184.835 Z M389.709,184.693 L389.902,184.534 L389.902,184.534 L389.709,184.693 Z M389.613,184.575 L389.416,184.728 L389.416,184.728 L389.613,184.575 Z M389.55,184.486 L389.336,184.616 L389.336,184.616 L389.55,184.486 Z M389.535,184.459 L389.309,184.564 L389.308,184.564 L389.535,184.459 Z M389.531,184.45 L389.295,184.53 C389.293,184.525 389.291,184.521 389.29,184.516 L389.531,184.45 Z M389.444,184.261 L389.659,184.133 L389.659,184.133 L389.444,184.261 Z M389.312,184.062 L389.516,183.917 L389.516,183.917 L389.312,184.062 Z M388.93,183.562 L389.125,183.406 L389.125,183.406 L388.93,183.562 Z M388.003,182.386 L388.203,182.236 L388.204,182.237 L388.003,182.386 Z M386.706,181.087 L386.865,180.895 L386.865,180.895 L386.706,181.087 Z M385.295,180.156 L385.388,179.924 L385.388,179.924 L385.295,180.156 Z M384.763,179.977 L384.686,180.215 L384.686,180.215 L384.763,179.977 Z M384.263,179.779 L384.149,180.001 L384.149,180.001 L384.263,179.779 Z M383.101,178.684 L383.299,178.531 L383.304,178.538 L383.101,178.684 Z M383.084,178.663 L383.27,178.495 C383.274,178.5 383.278,178.505 383.282,178.51 L383.084,178.663 Z M379.642,174.837 L379.456,175.005 C379.451,175 379.447,174.995 379.443,174.989 L379.642,174.837 Z M379.637,174.832 L379.438,174.984 L379.438,174.983 L379.637,174.832 Z M379.604,174.788 L379.802,174.636 L379.802,174.636 L379.604,174.788 Z M379.473,174.617 L379.671,174.464 L379.671,174.464 L379.473,174.617 Z M378.993,174 L379.19,173.846 L379.19,173.846 L378.993,174 Z M377.433,172.028 L377.627,171.871 L377.627,171.871 L377.433,172.028 Z M375.216,169.386 L375.029,169.553 C374.985,169.503 374.963,169.439 374.966,169.373 L375.216,169.386 Z M375.185,168.879 L375.432,168.845 L375.432,168.845 L375.185,168.879 Z M374.998,167.927 L375.241,167.87 L375.241,167.87 L374.998,167.927 Z M374.328,165.404 L374.087,165.471 L374.087,165.471 L374.328,165.404 Z M373.6,162.658 L373.356,162.716 L373.356,162.716 L373.6,162.658 Z M373.22,160.463 L372.97,160.475 L372.97,160.474 L373.22,160.463 Z M373.276,156.829 L373.027,156.815 L373.027,156.815 L373.276,156.829 Z M373.363,155.455 L373.114,155.436 L373.114,155.436 L373.363,155.455 Z M373.394,155.053 L373.144,155.033 L373.144,155.033 L373.394,155.053 Z M373.402,154.946 L373.153,154.925 L373.153,154.925 L373.402,154.946 Z M373.405,154.919 L373.655,154.919 C373.655,154.926 373.655,154.933 373.654,154.94 L373.405,154.919 Z M373.405,154.91 L373.155,154.91 C373.155,154.903 373.156,154.896 373.156,154.888 L373.405,154.91 Z M373.315,154.695 L373.157,154.888 C373.15,154.883 373.144,154.877 373.139,154.872 L373.315,154.695 Z M373.313,154.693 L373.469,154.497 C373.476,154.503 373.483,154.509 373.49,154.516 L373.313,154.693 Z M373.31,154.69 L373.151,154.884 L373.151,154.884 L373.31,154.69 Z M373.293,154.676 L373.451,154.482 L373.451,154.482 L373.293,154.676 Z M373.231,154.627 L373.388,154.431 L373.388,154.431 L373.231,154.627 Z M372.998,154.443 L373.152,154.246 L373.152,154.246 L372.998,154.443 Z M372.171,153.825 L372.317,153.622 L372.317,153.622 L372.171,153.825 Z M369.666,152.257 L369.78,152.035 L369.78,152.035 L369.666,152.257 Z M387.612,184.665 L387.786,184.484 C387.798,184.496 387.809,184.509 387.818,184.523 L387.612,184.665 Z M387.642,184.708 L387.436,184.85 L387.436,184.85 L387.642,184.708 Z M387.762,184.879 L387.558,185.024 L387.558,185.024 L387.762,184.879 Z M388.145,185.402 L387.946,185.553 L387.946,185.553 L388.145,185.402 Z M388.266,185.555 L388.462,185.401 C388.539,185.498 388.532,185.638 388.447,185.728 C388.361,185.818 388.222,185.831 388.121,185.759 L388.266,185.555 Z M388.064,185.423 L388.196,185.211 L388.196,185.211 L388.064,185.423 Z M387.634,185.168 L387.508,185.383 L387.508,185.383 L387.634,185.168 Z M387.234,184.927 L387.099,185.137 L387.099,185.137 L387.234,184.927 Z M387.104,184.837 L386.952,185.036 L386.952,185.036 L387.104,184.837 Z M387.074,184.815 L387.279,184.672 L387.279,184.672 L387.074,184.815 Z M387.06,184.763 L386.821,184.836 L386.821,184.836 L387.06,184.763 Z M387.008,184.566 L386.764,184.622 L386.764,184.622 L387.008,184.566 Z M386.895,184.003 L386.649,184.048 L386.649,184.048 L386.895,184.003 Z M386.89,183.97 L386.644,184.015 C386.624,183.908 386.676,183.801 386.771,183.75 C386.867,183.699 386.985,183.715 387.063,183.79 L386.89,183.97 Z M368.317,151.692 L368.245,151.931 C367.831,151.806 367.446,151.75 367.121,151.793 L367.088,151.545 L367.055,151.298 C367.479,151.241 367.942,151.318 368.39,151.453 L368.317,151.692 Z M367.088,151.545 L367.121,151.793 C366.796,151.837 366.53,151.981 366.353,152.258 L366.143,152.123 L365.932,151.988 C366.202,151.567 366.611,151.357 367.055,151.298 L367.088,151.545 Z M366.143,152.123 L366.353,152.258 C366.176,152.534 366.086,152.944 366.114,153.519 L365.864,153.531 L365.615,153.543 C365.584,152.916 365.676,152.387 365.932,151.988 L366.143,152.123 Z M365.864,153.531 L366.114,153.531 L366.114,153.532 L365.864,153.532 L365.614,153.532 L365.614,153.531 L365.864,153.531 Z M365.864,153.532 L366.114,153.519 C366.228,155.818 367.172,160.059 368.158,163.852 L367.916,163.915 L367.674,163.977 C366.69,160.192 365.732,155.902 365.615,153.544 L365.864,153.532 Z M367.916,163.915 L368.158,163.852 C368.651,165.748 369.153,167.533 369.568,168.907 L369.329,168.979 L369.09,169.051 C368.673,167.671 368.168,165.879 367.674,163.977 L367.916,163.915 Z M369.329,168.979 L369.568,168.907 C369.776,169.593 369.962,170.178 370.113,170.622 L369.876,170.703 L369.639,170.783 C369.486,170.332 369.298,169.741 369.09,169.051 L369.329,168.979 Z M369.876,170.703 L370.113,170.622 C370.251,171.03 370.365,171.326 370.438,171.471 L370.215,171.584 L369.992,171.696 C369.901,171.516 369.777,171.189 369.639,170.783 L369.876,170.703 Z M370.215,171.584 L370.458,171.527 C370.637,172.301 371.3,173.217 372.203,174.159 L372.022,174.332 L371.842,174.505 C370.933,173.557 370.182,172.557 369.971,171.64 L370.215,171.584 Z M372.022,174.332 L372.203,174.159 C373.119,175.113 374.281,176.096 375.435,176.987 L375.282,177.185 L375.129,177.383 C373.966,176.484 372.782,175.484 371.842,174.505 L372.022,174.332 Z M375.282,177.185 L375.435,176.987 C376.589,177.879 377.736,178.679 378.619,179.269 L378.48,179.477 L378.342,179.685 C377.451,179.09 376.295,178.283 375.129,177.383 L375.282,177.185 Z M378.48,179.477 L378.619,179.269 C379.502,179.859 380.123,180.238 380.227,180.29 L380.117,180.514 L380.007,180.739 C379.866,180.669 379.215,180.268 378.342,179.685 L378.48,179.477 Z M380.117,180.514 L380.227,180.29 C380.288,180.319 380.348,180.37 380.403,180.422 C380.462,180.478 380.531,180.553 380.609,180.648 L380.415,180.806 L380.221,180.964 C380.154,180.881 380.099,180.823 380.058,180.784 C380.012,180.74 379.997,180.734 380.007,180.739 L380.117,180.514 Z M380.415,180.806 L380.609,180.648 C380.754,180.826 380.912,181.054 381.068,181.301 L380.856,181.434 L380.645,181.567 C380.496,181.33 380.349,181.121 380.221,180.964 L380.415,180.806 Z M380.856,181.434 L381.068,181.301 C381.379,181.796 381.68,182.372 381.846,182.796 L381.613,182.887 L381.38,182.978 C381.229,182.591 380.944,182.043 380.645,181.567 L380.856,181.434 Z M381.613,182.887 L381.79,182.71 L381.791,182.711 L381.614,182.888 L381.437,183.065 L381.437,183.064 L381.613,182.887 Z M381.614,182.888 L381.846,182.796 C382.016,183.22 382.364,184.093 382.752,184.89 L382.527,185 L382.303,185.109 C381.905,184.293 381.551,183.404 381.382,182.981 L381.614,182.888 Z M382.527,185 L382.752,184.89 C382.946,185.289 383.151,185.669 383.348,185.965 L383.14,186.104 L382.932,186.243 C382.716,185.919 382.501,185.516 382.303,185.109 L382.527,185 Z M383.14,186.104 L383.348,185.965 C383.446,186.113 383.543,186.24 383.636,186.338 L383.455,186.51 L383.274,186.682 C383.154,186.557 383.039,186.405 382.932,186.243 L383.14,186.104 Z M383.455,186.51 L383.636,186.338 C383.73,186.437 383.819,186.506 383.901,186.537 L383.812,186.771 L383.724,187.005 C383.537,186.934 383.386,186.801 383.274,186.682 L383.455,186.51 Z M383.812,186.771 L383.636,186.594 L383.637,186.593 L383.813,186.77 L383.99,186.947 L383.989,186.948 L383.812,186.771 Z M383.813,186.77 L383.903,186.537 C384.239,186.666 384.714,186.714 385.104,186.729 L385.095,186.979 L385.085,187.229 C384.688,187.214 384.142,187.165 383.724,187.003 L383.813,186.77 Z M385.095,186.979 L385.104,186.729 C385.299,186.737 385.474,186.736 385.6,186.733 L385.605,186.983 L385.61,187.233 C385.478,187.236 385.293,187.237 385.085,187.229 L385.095,186.979 Z M385.605,186.983 L385.6,186.733 C385.666,186.732 385.716,186.731 385.75,186.729 L385.76,186.979 L385.77,187.229 C385.73,187.23 385.674,187.232 385.61,187.233 L385.605,186.983 Z M385.76,186.979 L385.75,186.729 C385.745,186.729 385.741,186.73 385.739,186.73 C385.737,186.73 385.735,186.73 385.737,186.73 C385.737,186.73 385.74,186.73 385.743,186.729 C385.747,186.729 385.753,186.729 385.76,186.728 L385.771,186.978 L385.781,187.228 C385.786,187.228 385.791,187.227 385.793,187.227 C385.794,187.227 385.796,187.227 385.794,187.227 C385.793,187.227 385.79,187.227 385.786,187.228 C385.782,187.228 385.777,187.229 385.77,187.229 L385.76,186.979 Z M385.771,186.978 L385.849,186.741 C385.856,186.743 385.862,186.745 385.866,186.747 C385.869,186.748 385.873,186.75 385.874,186.75 C385.878,186.752 385.876,186.751 385.872,186.749 L385.794,186.987 L385.716,187.224 C385.703,187.22 385.693,187.216 385.689,187.215 C385.688,187.214 385.687,187.214 385.687,187.214 C385.686,187.213 385.686,187.213 385.686,187.213 C385.687,187.214 385.689,187.214 385.692,187.216 L385.771,186.978 Z M385.794,186.987 L385.872,186.749 C385.916,186.764 385.98,186.785 386.057,186.809 L385.981,187.047 L385.906,187.286 C385.827,187.26 385.761,187.239 385.716,187.224 L385.794,186.987 Z M385.981,187.047 L386.057,186.809 C386.212,186.858 386.424,186.924 386.652,186.99 L386.582,187.23 L386.513,187.47 C386.28,187.403 386.064,187.336 385.906,187.286 L385.981,187.047 Z M386.582,187.23 L386.652,186.99 C386.879,187.056 387.122,187.122 387.339,187.171 L387.283,187.415 L387.228,187.658 C386.997,187.606 386.744,187.537 386.513,187.47 L386.582,187.23 Z M387.283,187.415 L387.339,187.171 C387.555,187.22 387.747,187.252 387.872,187.253 L387.872,187.503 L387.872,187.753 C387.686,187.752 387.446,187.708 387.228,187.658 L387.283,187.415 Z M387.872,187.503 L387.872,187.253 C388.121,187.253 388.368,187.184 388.551,187.083 L388.672,187.301 L388.793,187.52 C388.535,187.663 388.205,187.753 387.872,187.753 L387.872,187.503 Z M388.672,187.301 L388.55,187.083 C388.643,187.032 388.719,186.973 388.772,186.91 L388.963,187.071 L389.154,187.232 C389.051,187.354 388.922,187.449 388.793,187.52 L388.672,187.301 Z M388.963,187.071 L388.772,186.91 C388.824,186.847 388.854,186.78 388.854,186.712 L389.104,186.712 L389.354,186.712 C389.354,186.933 389.256,187.111 389.154,187.232 L388.963,187.071 Z M389.104,186.712 L388.854,186.712 C388.854,186.646 388.828,186.57 388.785,186.491 L389.005,186.372 L389.224,186.252 C389.284,186.362 389.354,186.525 389.354,186.712 L389.104,186.712 Z M389.005,186.372 L388.785,186.491 C388.762,186.448 388.733,186.402 388.7,186.357 L388.902,186.211 L389.105,186.064 C389.147,186.123 389.189,186.186 389.224,186.252 L389.005,186.372 Z M388.902,186.211 L389.021,185.991 C389.047,186.005 389.064,186.01 389.076,186.011 L389.062,186.26 L389.049,186.51 C388.925,186.503 388.83,186.455 388.784,186.43 L388.902,186.211 Z M389.062,186.26 L389.076,186.011 C389.108,186.012 389.146,186.016 389.185,186.02 L389.159,186.269 L389.133,186.518 C389.09,186.513 389.066,186.511 389.049,186.51 L389.062,186.26 Z M389.159,186.269 L389.185,186.02 C389.224,186.024 389.268,186.029 389.314,186.033 L389.294,186.282 L389.274,186.531 C389.222,186.527 389.173,186.522 389.133,186.518 L389.159,186.269 Z M389.294,186.282 L389.314,186.033 C389.403,186.04 389.499,186.042 389.587,186.029 L389.625,186.276 L389.663,186.523 C389.518,186.546 389.376,186.539 389.274,186.531 L389.294,186.282 Z M389.625,186.276 L389.587,186.029 C389.675,186.015 389.755,185.985 389.812,185.927 L389.99,186.102 L390.168,186.278 C390.007,186.442 389.808,186.501 389.663,186.523 L389.625,186.276 Z M389.99,186.102 L389.812,185.927 C389.87,185.868 389.906,185.781 389.906,185.653 L390.156,185.653 L390.406,185.653 C390.406,185.878 390.34,186.104 390.168,186.278 L389.99,186.102 Z M390.156,185.653 L389.906,185.653 C389.906,185.397 389.769,185.176 389.624,184.987 L389.822,184.835 L390.02,184.682 C390.177,184.885 390.406,185.22 390.406,185.653 L390.156,185.653 Z M389.822,184.835 L389.624,184.987 C389.588,184.94 389.551,184.894 389.516,184.852 L389.709,184.693 L389.902,184.534 C389.938,184.578 389.979,184.628 390.02,184.682 L389.822,184.835 Z M389.709,184.693 L389.516,184.852 C389.481,184.809 389.446,184.767 389.416,184.728 L389.613,184.575 L389.811,184.421 C389.836,184.454 389.865,184.489 389.902,184.534 L389.709,184.693 Z M389.613,184.575 L389.416,184.728 C389.386,184.69 389.358,184.652 389.336,184.616 L389.55,184.486 L389.763,184.356 C389.77,184.367 389.784,184.388 389.811,184.421 L389.613,184.575 Z M389.55,184.486 L389.336,184.616 C389.323,184.594 389.314,184.576 389.309,184.564 L389.535,184.459 L389.762,184.353 C389.762,184.354 389.762,184.354 389.763,184.356 L389.55,184.486 Z M389.535,184.459 L389.308,184.564 C389.307,184.561 389.305,184.557 389.304,184.554 C389.303,184.552 389.302,184.55 389.301,184.547 C389.301,184.546 389.298,184.539 389.295,184.53 L389.531,184.45 L389.768,184.369 C389.766,184.364 389.765,184.36 389.764,184.359 C389.763,184.357 389.763,184.355 389.762,184.354 C389.762,184.353 389.761,184.352 389.761,184.351 C389.761,184.351 389.761,184.351 389.762,184.353 L389.535,184.459 Z M389.531,184.45 L389.29,184.516 C389.281,184.484 389.26,184.441 389.23,184.389 L389.444,184.261 L389.659,184.133 C389.695,184.193 389.745,184.284 389.772,184.384 L389.531,184.45 Z M389.444,184.261 L389.23,184.389 C389.198,184.337 389.157,184.275 389.109,184.207 L389.312,184.062 L389.516,183.917 C389.57,183.992 389.619,184.066 389.659,184.133 L389.444,184.261 Z M389.312,184.062 L389.109,184.207 C389.011,184.07 388.88,183.901 388.734,183.718 L388.93,183.562 L389.125,183.406 C389.272,183.591 389.41,183.768 389.516,183.917 L389.312,184.062 Z M388.93,183.562 L388.734,183.718 C388.442,183.35 388.086,182.918 387.802,182.535 L388.003,182.386 L388.204,182.237 C388.481,182.611 388.825,183.029 389.125,183.406 L388.93,183.562 Z M388.003,182.386 L387.803,182.536 C387.519,182.157 387.04,181.688 386.547,181.28 L386.706,181.087 L386.865,180.895 C387.374,181.315 387.886,181.813 388.203,182.236 L388.003,182.386 Z M386.706,181.087 L386.547,181.28 C386.053,180.872 385.545,180.525 385.202,180.388 L385.295,180.156 L385.388,179.924 C385.806,180.091 386.365,180.481 386.865,180.895 L386.706,181.087 Z M385.295,180.156 L385.202,180.388 C385.031,180.32 384.861,180.271 384.686,180.215 L384.763,179.977 L384.839,179.739 C384.994,179.789 385.195,179.847 385.388,179.924 L385.295,180.156 Z M384.763,179.977 L384.686,180.215 C384.512,180.159 384.334,180.096 384.149,180.001 L384.263,179.779 L384.377,179.556 C384.526,179.633 384.674,179.686 384.839,179.739 L384.763,179.977 Z M384.263,179.779 L384.149,180.001 C383.777,179.811 383.372,179.49 382.898,178.83 L383.101,178.684 L383.304,178.538 C383.741,179.147 384.089,179.409 384.377,179.556 L384.263,179.779 Z M383.101,178.684 L382.903,178.837 L382.886,178.816 L383.084,178.663 L383.282,178.51 L383.298,178.531 L383.101,178.684 Z M383.084,178.663 L382.898,178.83 L379.456,175.005 L379.642,174.837 L379.827,174.67 L383.27,178.495 L383.084,178.663 Z M379.642,174.837 L379.443,174.989 C379.446,174.994 379.449,174.997 379.45,174.997 C379.45,174.998 379.451,174.999 379.45,174.998 C379.45,174.998 379.448,174.996 379.446,174.994 C379.445,174.992 379.442,174.988 379.438,174.984 L379.637,174.832 L379.835,174.679 C379.833,174.676 379.831,174.674 379.83,174.673 C379.829,174.671 379.828,174.671 379.828,174.671 C379.828,174.671 379.83,174.673 379.832,174.675 C379.833,174.677 379.836,174.681 379.84,174.686 L379.642,174.837 Z M379.637,174.832 L379.438,174.983 C379.433,174.977 379.428,174.97 379.423,174.963 C379.417,174.956 379.412,174.948 379.405,174.94 L379.604,174.788 L379.802,174.636 C379.81,174.646 379.817,174.655 379.823,174.663 C379.829,174.671 379.832,174.676 379.835,174.68 L379.637,174.832 Z M379.604,174.788 L379.405,174.94 C379.374,174.899 379.331,174.843 379.275,174.769 L379.473,174.617 L379.671,174.464 C379.727,174.538 379.773,174.598 379.802,174.636 L379.604,174.788 Z M379.473,174.617 L379.275,174.769 C379.162,174.623 378.998,174.412 378.796,174.153 L378.993,174 L379.19,173.846 C379.392,174.104 379.557,174.316 379.671,174.464 L379.473,174.617 Z M378.993,174 L378.796,174.153 C378.394,173.637 377.841,172.933 377.238,172.185 L377.433,172.028 L377.627,171.871 C378.233,172.622 378.787,173.328 379.19,173.846 L378.993,174 Z M377.433,172.028 L377.238,172.185 C376.52,171.294 375.726,170.335 375.029,169.553 L375.216,169.386 L375.403,169.22 C376.107,170.011 376.907,170.978 377.627,171.871 L377.433,172.028 Z M375.216,169.386 L374.966,169.373 C374.973,169.247 374.961,169.091 374.937,168.914 L375.185,168.879 L375.432,168.845 C375.458,169.035 375.475,169.228 375.465,169.4 L375.216,169.386 Z M375.185,168.879 L374.937,168.914 C374.901,168.656 374.838,168.341 374.755,167.984 L374.998,167.927 L375.241,167.87 C375.326,168.233 375.394,168.566 375.432,168.845 L375.185,168.879 Z M374.998,167.927 L374.755,167.984 C374.588,167.271 374.343,166.391 374.087,165.471 L374.328,165.404 L374.569,165.337 C374.824,166.253 375.072,167.145 375.241,167.87 L374.998,167.927 Z M374.328,165.404 L374.087,165.471 C373.831,164.551 373.565,163.59 373.356,162.716 L373.6,162.658 L373.843,162.6 C374.049,163.464 374.313,164.415 374.569,165.337 L374.328,165.404 Z M373.6,162.658 L373.356,162.716 C373.148,161.841 372.996,161.052 372.97,160.475 L373.22,160.463 L373.469,160.452 C373.493,160.978 373.635,161.728 373.843,162.6 L373.6,162.658 Z M373.22,160.463 L372.97,160.474 C372.922,159.32 372.968,157.923 373.027,156.815 L373.276,156.829 L373.526,156.842 C373.467,157.945 373.422,159.323 373.47,160.453 L373.22,160.463 Z M373.276,156.829 L373.027,156.815 C373.056,156.262 373.089,155.78 373.114,155.436 L373.363,155.455 L373.613,155.473 C373.588,155.814 373.555,156.292 373.526,156.842 L373.276,156.829 Z M373.363,155.455 L373.114,155.436 C373.126,155.266 373.137,155.128 373.144,155.033 L373.394,155.053 L373.643,155.073 C373.635,155.166 373.625,155.302 373.613,155.473 L373.363,155.455 Z M373.394,155.053 L373.144,155.033 C373.148,154.986 373.151,154.95 373.153,154.925 L373.402,154.946 L373.651,154.967 C373.649,154.991 373.646,155.027 373.643,155.073 L373.394,155.053 Z M373.402,154.946 L373.153,154.925 C373.154,154.915 373.155,154.906 373.156,154.901 C373.156,154.897 373.156,154.897 373.156,154.895 C373.157,154.894 373.156,154.895 373.156,154.897 L373.405,154.919 L373.654,154.94 C373.654,154.945 373.653,154.95 373.653,154.952 C373.653,154.955 373.652,154.958 373.652,154.959 C373.652,154.963 373.652,154.965 373.651,154.967 L373.402,154.946 Z M373.405,154.919 L373.155,154.919 L373.155,154.91 L373.405,154.91 L373.655,154.91 L373.655,154.919 L373.405,154.919 Z M373.405,154.91 L373.156,154.888 L373.157,154.888 L373.315,154.695 L373.474,154.502 C373.602,154.607 373.668,154.768 373.654,154.931 L373.405,154.91 Z M373.315,154.695 L373.139,154.872 L373.137,154.87 L373.313,154.693 L373.49,154.516 L373.492,154.518 L373.315,154.695 Z M373.313,154.693 L373.158,154.889 C373.162,154.892 373.165,154.894 373.165,154.894 C373.166,154.895 373.166,154.895 373.166,154.895 C373.166,154.895 373.166,154.895 373.166,154.895 C373.166,154.895 373.166,154.895 373.166,154.895 C373.166,154.894 373.165,154.894 373.165,154.894 C373.163,154.893 373.158,154.889 373.151,154.884 L373.31,154.69 L373.468,154.496 C373.463,154.492 373.459,154.489 373.458,154.489 C373.458,154.489 373.458,154.489 373.459,154.489 C373.459,154.489 373.459,154.49 373.46,154.49 C373.461,154.491 373.464,154.494 373.469,154.497 L373.313,154.693 Z M373.31,154.69 L373.151,154.884 C373.149,154.881 373.145,154.878 373.143,154.877 C373.14,154.875 373.138,154.873 373.135,154.87 L373.293,154.676 L373.451,154.482 C373.455,154.486 373.459,154.489 373.462,154.492 C373.466,154.495 373.467,154.496 373.468,154.496 L373.31,154.69 Z M373.293,154.676 L373.135,154.87 C373.12,154.858 373.101,154.842 373.075,154.822 L373.231,154.627 L373.388,154.431 C373.415,154.453 373.437,154.472 373.451,154.482 L373.293,154.676 Z M373.231,154.627 L373.075,154.822 C373.022,154.779 372.944,154.718 372.845,154.64 L372.998,154.443 L373.152,154.246 C373.252,154.324 373.332,154.387 373.388,154.431 L373.231,154.627 Z M372.998,154.443 L372.845,154.64 C372.646,154.486 372.363,154.271 372.025,154.028 L372.171,153.825 L372.317,153.622 C372.661,153.87 372.949,154.088 373.152,154.246 L372.998,154.443 Z M372.171,153.825 L372.025,154.028 C371.347,153.54 370.446,152.938 369.552,152.48 L369.666,152.257 L369.78,152.035 C370.706,152.51 371.63,153.128 372.317,153.622 L372.171,153.825 Z M369.666,152.257 L369.552,152.48 C369.105,152.251 368.66,152.056 368.245,151.931 L368.317,151.692 L368.39,151.453 C368.843,151.589 369.317,151.798 369.78,152.035 L369.666,152.257 Z M387.612,184.665 L387.818,184.523 C387.83,184.54 387.834,184.546 387.847,184.565 L387.642,184.708 L387.436,184.85 C387.425,184.834 387.409,184.811 387.406,184.806 L387.612,184.665 Z M387.642,184.708 L387.847,184.565 C387.876,184.607 387.916,184.665 387.966,184.735 L387.762,184.879 L387.558,185.024 C387.507,184.952 387.465,184.892 387.436,184.85 L387.642,184.708 Z M387.762,184.879 L387.966,184.735 C388.065,184.875 388.2,185.063 388.343,185.25 L388.145,185.402 L387.946,185.553 C387.798,185.36 387.659,185.167 387.558,185.024 L387.762,184.879 Z M388.145,185.402 L388.343,185.25 C388.381,185.3 388.417,185.344 388.462,185.401 L388.266,185.555 L388.069,185.71 C388.033,185.665 387.986,185.606 387.946,185.553 L388.145,185.402 Z M388.266,185.555 L388.121,185.759 C388.065,185.72 388,185.678 387.933,185.636 L388.064,185.423 L388.196,185.211 C388.268,185.255 388.343,185.303 388.41,185.351 L388.266,185.555 Z M388.064,185.423 L387.933,185.636 C387.806,185.557 387.655,185.469 387.508,185.383 L387.634,185.168 L387.76,184.952 C387.905,185.037 388.062,185.128 388.196,185.211 L388.064,185.423 Z M387.634,185.168 L387.508,185.383 C387.36,185.297 387.214,185.212 387.099,185.137 L387.234,184.927 L387.37,184.717 C387.474,184.784 387.61,184.864 387.76,184.952 L387.634,185.168 Z M387.234,184.927 L387.099,185.137 C387.041,185.1 386.991,185.066 386.952,185.036 L387.104,184.837 L387.257,184.639 C387.281,184.658 387.318,184.684 387.37,184.717 L387.234,184.927 Z M387.104,184.837 L386.952,185.036 C386.927,185.016 386.912,185.003 386.904,184.996 C386.898,184.991 386.906,184.998 386.913,185.003 C386.914,185.004 386.926,185.014 386.944,185.025 C386.947,185.026 386.982,185.048 387.032,185.056 C387.058,185.06 387.124,185.065 387.194,185.026 C387.275,184.979 387.308,184.903 387.316,184.849 C387.324,184.802 387.316,184.765 387.313,184.751 C387.309,184.733 387.303,184.72 387.3,184.712 C387.294,184.698 387.288,184.687 387.286,184.683 C387.281,184.674 387.276,184.667 387.275,184.666 C387.272,184.662 387.267,184.656 387.272,184.662 C387.274,184.664 387.276,184.668 387.279,184.672 L387.074,184.815 L386.869,184.958 C386.87,184.959 386.87,184.96 386.871,184.96 C386.874,184.964 386.868,184.956 386.865,184.952 C386.864,184.95 386.859,184.944 386.854,184.934 C386.851,184.93 386.845,184.92 386.839,184.905 C386.836,184.897 386.831,184.884 386.826,184.866 C386.823,184.852 386.815,184.815 386.823,184.769 C386.832,184.714 386.864,184.638 386.946,184.592 C387.015,184.552 387.081,184.557 387.107,184.561 C387.157,184.569 387.193,184.591 387.195,184.593 C387.213,184.603 387.226,184.614 387.227,184.614 C387.23,184.617 387.233,184.62 387.234,184.621 C387.236,184.622 387.237,184.623 387.238,184.623 C387.239,184.624 387.24,184.625 387.24,184.625 C387.24,184.625 387.244,184.63 387.257,184.639 L387.104,184.837 Z M387.074,184.815 L387.279,184.672 C387.281,184.674 387.282,184.676 387.283,184.677 C387.283,184.678 387.283,184.678 387.284,184.678 C387.284,184.679 387.284,184.679 387.284,184.679 C387.292,184.69 387.278,184.668 387.261,184.65 C387.257,184.646 387.249,184.638 387.239,184.63 C387.231,184.623 387.209,184.605 387.176,184.592 C387.147,184.579 387.062,184.551 386.968,184.598 C386.873,184.645 386.844,184.73 386.836,184.762 C386.828,184.798 386.829,184.826 386.83,184.837 C386.831,184.85 386.832,184.861 386.833,184.867 C386.835,184.879 386.838,184.887 386.839,184.891 C386.842,184.9 386.845,184.909 386.843,184.904 C386.84,184.895 386.832,184.873 386.821,184.836 L387.06,184.763 L387.299,184.69 C387.306,184.714 387.31,184.726 387.313,184.732 C387.313,184.733 387.314,184.735 387.315,184.737 C387.315,184.738 387.317,184.744 387.319,184.752 C387.32,184.756 387.323,184.765 387.325,184.777 C387.326,184.783 387.328,184.793 387.329,184.807 C387.329,184.818 387.331,184.846 387.322,184.881 C387.314,184.914 387.286,184.999 387.19,185.046 C387.096,185.093 387.012,185.065 386.982,185.052 C386.949,185.039 386.927,185.021 386.919,185.014 C386.909,185.006 386.901,184.998 386.897,184.994 C386.889,184.985 386.883,184.977 386.881,184.975 C386.878,184.971 386.876,184.968 386.875,184.967 C386.873,184.964 386.871,184.961 386.871,184.96 C386.869,184.958 386.869,184.958 386.869,184.958 L387.074,184.815 Z M387.06,184.763 L386.821,184.836 C386.803,184.78 386.784,184.707 386.764,184.622 L387.008,184.566 L387.251,184.51 C387.269,184.586 387.285,184.647 387.299,184.69 L387.06,184.763 Z M387.008,184.566 L386.764,184.622 C386.726,184.456 386.685,184.249 386.649,184.048 L386.895,184.003 L387.14,183.958 C387.177,184.157 387.215,184.354 387.251,184.51 L387.008,184.566 Z M386.895,184.003 L386.649,184.048 C386.646,184.036 386.645,184.024 386.644,184.019 C386.643,184.012 386.643,184.013 386.644,184.015 L386.89,183.97 L387.136,183.926 C387.138,183.938 387.139,183.95 387.14,183.955 C387.141,183.961 387.141,183.96 387.14,183.958 L386.895,184.003 Z M386.89,183.97 L387.063,183.79 L387.786,184.484 L387.612,184.665 L387.439,184.845 L386.716,184.151 L386.89,183.97 Z" id="Shape" fill="#00402A"></path>
                <path d="M365.851,157.029 C366.273,159.38 373.025,158.854 373.226,158.012 C373.648,155.871 373.848,152.396 373.862031,149.266 C373.869,147.392 372.672,145.104 372.299,144.984 C368.079,143.601 366.723,145.686 365.892,148.929 C365.657,149.848 365.574,152.775 365.595,153.779 C365.623,154.783 365.747,156.453 365.851,157.036 L365.851,157.029 Z" id="Path" stroke="#00402A" stroke-width="0.5" fill="#FFFEFF" stroke-linejoin="round"></path>
                <path d="M332.573,173.046 L332.573,168.072 L334.161,168.072 L334.161,173.046 C334.161,173.165 334.084,173.281 333.929,173.37 C333.619,173.549 333.117,173.549 332.807,173.37 C332.652,173.281 332.576,173.162 332.576,173.046 L332.573,173.046 Z" id="Path" stroke="#00402A" stroke-width="0.5" fill="#FFFEFF"></path>
                <path d="M333.365,173.552 C333.154,173.552 332.94,173.506 332.778,173.413 C332.614,173.317 332.52,173.184 332.52,173.043 L332.52,168.069 C332.52,168.039 332.544,168.019 332.57,168.019 L334.158,168.019 C334.185,168.019 334.208,168.042 334.208,168.069 L334.208,173.043 C334.208,173.186 334.116,173.314 333.95,173.413 C333.789,173.506 333.578,173.552 333.363,173.552 L333.366,173.552 L333.365,173.552 Z" id="Path" stroke="#00402A" stroke-width="0.5" fill="#FFF5EC"></path>
                <path d="M332.803,167.748 C332.493,167.926 332.493,168.218 332.803,168.395 C333.113,168.574 333.615,168.574 333.925,168.395 C334.235,168.217 334.235,167.925 333.925,167.748 C333.615,167.57 333.113,167.569 332.803,167.748 Z" id="Path" stroke="#00402A" stroke-width="0.5" fill="#FFFEFF"></path>
                <path d="M333.365,168.58 C333.154,168.58 332.94,168.534 332.778,168.441 C332.614,168.345 332.52,168.213 332.52,168.071 C332.52,167.93 332.613,167.8 332.778,167.701 C333.102,167.513 333.626,167.513 333.95,167.701 C334.115,167.797 334.208,167.93 334.208,168.071 C334.208,168.213 334.116,168.342 333.95,168.441 C333.789,168.534 333.578,168.58 333.363,168.58 L333.366,168.58 L333.365,168.58 Z M332.83,167.79 C332.699,167.867 332.622,167.966 332.622,168.071 C332.622,168.176 332.694,168.273 332.83,168.352 C333.124,168.524 333.606,168.524 333.902,168.352 C334.034,168.275 334.11,168.176 334.11,168.071 C334.11,167.966 334.038,167.869 333.902,167.79 C333.608,167.618 333.126,167.618 332.83,167.79 Z" id="Shape" stroke="#00402A" stroke-width="0.5" fill="#00402A"></path>
                <path d="M329.839,166.207 L332.827,160.328 L333.903,160.328 L336.89,166.207 C337.257,166.928 336.95,167.741 335.963,168.309 C334.526,169.138 332.2,169.138 330.764,168.309 C329.78,167.74 329.47,166.927 329.836,166.207 L329.839,166.207 Z" id="Path" stroke="#00402A" stroke-width="0.5" fill="#007F33"></path>
                <path d="M332.969,160.188 C332.751,160.314 332.751,160.519 332.969,160.648 C333.186,160.773 333.543,160.773 333.761,160.648 C333.978,160.522 333.978,160.317 333.761,160.188 C333.543,160.063 333.186,160.063 332.969,160.188 Z" id="Path" stroke="#00402A" stroke-width="0.5" fill="#FFFEFF"></path>
                <path d="M333.365,160.793 C333.213,160.793 333.062,160.76 332.943,160.691 C332.821,160.622 332.752,160.522 332.752,160.417 C332.752,160.312 332.818,160.215 332.943,160.143 C333.181,160.008 333.55,160.008 333.788,160.143 C333.91,160.212 333.979,160.312 333.979,160.417 C333.979,160.522 333.913,160.619 333.788,160.691 C333.669,160.76 333.517,160.793 333.365,160.793 Z M332.996,160.231 C332.907,160.284 332.857,160.35 332.857,160.416 C332.857,160.482 332.907,160.548 332.996,160.601 C333.201,160.72 333.534,160.72 333.739,160.601 C333.828,160.548 333.878,160.482 333.878,160.416 C333.878,160.35 333.828,160.284 333.739,160.231 C333.534,160.112 333.201,160.112 332.996,160.231 Z" id="Shape" stroke="#00402A" stroke-width="0.5" fill="#00402A"></path>
                <path d="M330.634,162.053 L332.949,157.502 L333.784,157.502 L336.098,162.053 C336.382,162.611 336.145,163.239 335.382,163.683 C334.269,164.324 332.468,164.324 331.358,163.683 C330.596,163.243 330.355,162.612 330.642,162.053 L330.635,162.053 L330.634,162.053 Z" id="Path" stroke="#00402A" stroke-width="0.5" fill="#007F33"></path>
                <path d="M333.058,157.393 C332.89,157.491 332.89,157.651 333.058,157.747 C333.227,157.845 333.504,157.845 333.672,157.747 C333.841,157.648 333.841,157.488 333.672,157.393 C333.503,157.294 333.226,157.294 333.058,157.393 Z" id="Path" stroke="#00402A" stroke-width="0.5" fill="#FFFEFF"></path>
                <path d="M333.365,157.875 C333.246,157.875 333.124,157.849 333.032,157.795 C332.933,157.739 332.88,157.66 332.88,157.574 C332.88,157.488 332.933,157.409 333.032,157.353 C333.217,157.244 333.511,157.244 333.699,157.353 C333.797,157.409 333.85,157.488 333.85,157.574 C333.85,157.66 333.797,157.739 333.699,157.795 C333.606,157.849 333.487,157.875 333.365,157.875 Z M333.365,157.372 C333.263,157.372 333.16,157.396 333.085,157.438 C333.019,157.474 332.983,157.524 332.983,157.57 C332.983,157.616 333.019,157.666 333.085,157.702 C333.237,157.791 333.495,157.791 333.65,157.702 C333.716,157.666 333.752,157.616 333.752,157.57 C333.752,157.524 333.716,157.474 333.65,157.438 C333.573,157.396 333.471,157.372 333.37,157.372 L333.366,157.372 L333.365,157.372 Z" id="Shape" stroke="#00402A" stroke-width="0.5" fill="#00402A"></path>
                <path d="M331.513,158.209 L333.084,155.119 L333.649,155.119 L335.22,158.209 C335.411,158.59 335.25,159.016 334.732,159.312 C333.976,159.748 332.755,159.748 332,159.312 C331.481,159.012 331.32,158.585 331.511,158.209 L331.514,158.209 L331.513,158.209 Z" id="Path" stroke="#00402A" stroke-width="0.5" fill="#007F33"></path>
                <path d="M333.157,155.048 C333.042,155.114 333.042,155.224 333.157,155.29 C333.273,155.356 333.458,155.356 333.573,155.29 C333.689,155.224 333.689,155.114 333.573,155.048 C333.458,154.983 333.273,154.983 333.157,155.048 Z" id="Path" stroke="#00402A" stroke-width="0.5" fill="#007F33"></path>
            </g>
        </g>
    </g>
</svg>