<?xml version="1.0" encoding="UTF-8"?>
<svg width="475px" height="341px" viewBox="0 0 475 341" version="1.1" xmlns="http://www.w3.org/2000/svg" xmlns:xlink="http://www.w3.org/1999/xlink">
    <title>Group</title>
    <defs>
        <linearGradient x1="3.59884018%" y1="49.9822359%" x2="121.42248%" y2="49.9822359%" id="linearGradient-1">
            <stop stop-color="#FFFFFF" offset="0%"></stop>
            <stop stop-color="#9DF4FF" offset="98%"></stop>
        </linearGradient>
        <linearGradient x1="57.8239575%" y1="113.481217%" x2="45.9231373%" y2="14.5663073%" id="linearGradient-2">
            <stop stop-color="#FFFFFF" offset="0%"></stop>
            <stop stop-color="#9DF4FF" offset="98%"></stop>
        </linearGradient>
    </defs>
    <g id="Page-1" stroke="none" stroke-width="1" fill="none" fill-rule="evenodd">
        <g id="2" transform="translate(0, -38)">
            <path d="M287.77,247.154 C290.368,248.654 290.397,251.094 287.8,252.594 L232.545,284.7 C229.967,286.199 225.743,286.199 223.146,284.7 L148.544,241.627 C145.937,240.117 145.928,237.687 148.515,236.187 L203.77,204.071 C206.358,202.562 210.562,202.562 213.169,204.071 L287.77,247.144 L287.77,247.154 Z" id="Path" stroke="#00402A" stroke-width="0.5" fill-opacity="0.5" fill="#DCEBE1" fill-rule="nonzero" stroke-linejoin="round"></path>
            <path d="M225.541,268.804 L225.541,265.505 L226.604,265.505 L226.604,268.804 C226.604,268.882 226.553,268.96 226.449,269.019 C226.241,269.138 225.906,269.138 225.698,269.019 C225.594,268.96 225.544,268.882 225.544,268.804 L225.541,268.804 Z" id="Path" stroke="#00402A" stroke-width="0.5" fill="#FFF5EC" fill-rule="nonzero"></path>
            <path d="M222.151,264.32 C222.151,266.498 223.931,266.954 226.126,266.954 C228.321,266.954 230.101,266.498 230.101,264.32 C230.101,262.142 228.321,256.749 226.126,256.749 C223.931,256.749 222.151,262.143 222.151,264.32 Z" id="Path" stroke="#00402A" stroke-width="0.5" fill="#2F6852" fill-rule="nonzero"></path>
            <polygon id="Path" stroke="#00402A" stroke-width="0.5" fill="#FFF5EC" fill-rule="nonzero" stroke-linejoin="round" points="230.101 250.244 230.101 251.481 247.754 261.731 247.754 260.494"></polygon>
            <polygon id="Path" stroke="#00402A" stroke-width="0.5" fill="#DCEBE1" fill-rule="nonzero" stroke-linejoin="round" points="247.754 260.495 247.754 261.731 267.854 250.122 267.854 248.886"></polygon>
            <polygon id="Path" stroke="#00402A" stroke-width="0.5" fill="#26BF64" fill-rule="nonzero" stroke-linejoin="round" points="230.101 250.244 247.754 260.494 267.854 248.885 250.21 238.635"></polygon>
            <polygon id="Path" stroke="#00402A" stroke-width="0.5" fill="#FFF5EC" fill-rule="nonzero" stroke-linejoin="round" points="231.651 182.594 231.756 250.105 247.867 259.467 247.763 191.956"></polygon>
            <polygon id="Path" stroke="#00402A" stroke-width="0.5" fill="#DCEBE1" fill-rule="nonzero" stroke-linejoin="round" points="247.763 191.955 247.867 259.466 266.225 248.868 266.121 181.357"></polygon>
            <polygon id="Path" stroke="#00402A" stroke-width="0.5" fill="#26BF64" fill-rule="nonzero" stroke-linejoin="round" points="231.651 182.594 247.763 191.956 266.121 181.357 250.01 171.995"></polygon>
            <polygon id="Path" stroke="#00402A" stroke-width="0.5" fill="#DCEBE1" fill-rule="nonzero" stroke-linejoin="round" points="261.836 175.304 261.828 180.747 249.54 179.737 249.54 168.259"></polygon>
            <polygon id="Path" stroke="#00402A" stroke-width="0.5" fill="#DCEBE1" fill-rule="nonzero" stroke-linejoin="round" points="249.539 168.259 249.539 179.737 235.936 181.609 235.945 176.166"></polygon>
            <polygon id="Path" stroke="#00402A" stroke-width="0.5" fill="#5BD38C" fill-rule="nonzero" stroke-linejoin="round" points="249.54 169.191 235.945 177.09 248.233 184.135 261.836 176.236"></polygon>
            <polygon id="Path" stroke="#00402A" stroke-width="0.5" fill="#FFF5EC" fill-rule="nonzero" stroke-linejoin="round" points="248.242 184.065 248.233 189.517 234.456 181.61 234.456 176.167"></polygon>
            <polygon id="Path" stroke="#00402A" stroke-width="0.5" fill="#DCEBE1" fill-rule="nonzero" stroke-linejoin="round" points="263.317 175.304 263.317 180.747 248.233 189.517 248.242 184.065"></polygon>
            <path d="M234.456,176.166 L248.242,184.074 L263.325,175.313 L249.539,167.405 L234.456,176.166 Z M248.233,183.212 L235.945,176.166 L249.548,168.259 L261.836,175.304 L248.233,183.212 Z" id="Shape" stroke="#00402A" stroke-width="0.5" fill="#26BF64" fill-rule="nonzero" stroke-linejoin="round"></path>
            <polygon id="Path" stroke="#00402A" stroke-width="0.5" fill="#DCEBE1" fill-rule="nonzero" stroke-linejoin="round" points="240.047 192.164 240.03 196.719 237.565 195.299 237.591 190.745"></polygon>
            <polygon id="Path" stroke="#00402A" stroke-width="0.5" fill="#DCEBE1" fill-rule="nonzero" stroke-linejoin="round" points="244.672 194.873 244.654 199.436 242.198 198.017 242.216 193.453"></polygon>
            <polygon id="Path" stroke="#00402A" stroke-width="0.5" fill="#DCEBE1" fill-rule="nonzero" stroke-linejoin="round" points="240.047 201.578 240.03 206.142 237.565 204.714 237.591 200.159"></polygon>
            <polygon id="Path" stroke="#00402A" stroke-width="0.5" fill="#DCEBE1" fill-rule="nonzero" stroke-linejoin="round" points="244.672 204.287 244.654 208.851 242.198 207.431 242.216 202.868"></polygon>
            <polygon id="Path" stroke="#00402A" stroke-width="0.5" fill="#DCEBE1" fill-rule="nonzero" stroke-linejoin="round" points="240.047 211.272 240.03 215.835 237.565 214.416 237.591 209.852"></polygon>
            <polygon id="Path" stroke="#00402A" stroke-width="0.5" fill="#DCEBE1" fill-rule="nonzero" stroke-linejoin="round" points="244.672 213.98 244.654 218.543 242.198 217.124 242.216 212.56"></polygon>
            <polygon id="Path" stroke="#00402A" stroke-width="0.5" fill="#DCEBE1" fill-rule="nonzero" stroke-linejoin="round" points="235.493 189.839 235.475 194.394 233.019 192.974 233.037 188.42"></polygon>
            <polygon id="Path" stroke="#00402A" stroke-width="0.5" fill="#DCEBE1" fill-rule="nonzero" stroke-linejoin="round" points="235.492 189.839 235.475 194.394 233.019 192.974 233.037 188.42"></polygon>
            <polygon id="Path" stroke="#00402A" stroke-width="0.5" fill="#DCEBE1" fill-rule="nonzero" stroke-linejoin="round" points="235.493 199.254 235.475 203.808 233.019 202.389 233.037 197.834"></polygon>
            <polygon id="Path" stroke="#00402A" stroke-width="0.5" fill="#DCEBE1" fill-rule="nonzero" stroke-linejoin="round" points="235.493 208.946 235.475 213.501 233.019 212.081 233.037 207.527"></polygon>
            <polygon id="Path" stroke="#00402A" stroke-width="0.5" fill="#DCEBE1" fill-rule="nonzero" stroke-linejoin="round" points="240.021 225.928 240.004 230.492 237.539 229.072 237.565 224.509"></polygon>
            <polygon id="Path" stroke="#00402A" stroke-width="0.5" fill="#DCEBE1" fill-rule="nonzero" stroke-linejoin="round" points="244.645 228.637 244.628 233.2 242.172 231.781 242.189 227.217"></polygon>
            <polygon id="Path" stroke="#00402A" stroke-width="0.5" fill="#DCEBE1" fill-rule="nonzero" stroke-linejoin="round" points="240.021 235.343 240.004 239.906 237.539 238.487 237.565 233.923"></polygon>
            <polygon id="Path" stroke="#00402A" stroke-width="0.5" fill="#DCEBE1" fill-rule="nonzero" stroke-linejoin="round" points="244.645 238.051 244.628 242.615 242.172 241.195 242.189 236.64"></polygon>
            <polygon id="Path" stroke="#00402A" stroke-width="0.5" fill="#DCEBE1" fill-rule="nonzero" stroke-linejoin="round" points="240.021 245.036 240.004 249.6 237.539 248.18 237.565 243.617"></polygon>
            <polygon id="Path" stroke="#00402A" stroke-width="0.5" fill="#DCEBE1" fill-rule="nonzero" stroke-linejoin="round" points="244.645 247.753 244.628 252.308 242.172 250.888 242.189 246.333"></polygon>
            <polygon id="Path" stroke="#00402A" stroke-width="0.5" fill="#DCEBE1" fill-rule="nonzero" stroke-linejoin="round" points="235.466 223.604 235.449 228.167 232.993 226.747 233.01 222.184"></polygon>
            <polygon id="Path" stroke="#00402A" stroke-width="0.5" fill="#DCEBE1" fill-rule="nonzero" stroke-linejoin="round" points="235.466 233.018 235.449 237.581 232.993 236.161 233.01 231.598"></polygon>
            <polygon id="Path" stroke="#00402A" stroke-width="0.5" fill="#DCEBE1" fill-rule="nonzero" stroke-linejoin="round" points="235.466 242.711 235.449 247.274 232.993 245.854 233.01 241.291"></polygon>
            <polygon id="Path" stroke="#00402A" stroke-width="0.5" fill="#FFF5EC" fill-rule="nonzero" stroke-linejoin="round" points="234.203 214.154 234.195 217.786 232.453 218.796 232.462 215.165"></polygon>
            <polygon id="Path" stroke="#00402A" stroke-width="0.5" fill="#26BF64" fill-rule="nonzero" stroke-linejoin="round" points="243.644 222.349 243.635 225.981 231.19 218.796 231.208 215.165"></polygon>
            <polygon id="Path" stroke="#00402A" stroke-width="0.5" fill="#26BF64" fill-rule="nonzero" stroke-linejoin="round" points="246.012 220.973 246.003 224.605 243.635 225.981 243.643 222.349"></polygon>
            <polygon id="Path" stroke="#00402A" stroke-width="0.5" fill="#DCEBE1" fill-rule="nonzero" stroke-linejoin="round" points="246.012 220.973 243.644 222.349 231.207 215.165 233.568 213.789 234.203 214.154 232.461 215.165 243.644 221.627 245.385 220.616"></polygon>
            <polygon id="Path" stroke="#00402A" stroke-width="0.5" fill="#FFF5EC" fill-rule="nonzero" stroke-linejoin="round" points="253.824 195.073 253.842 200.203 261.593 195.726 261.575 190.597"></polygon>
            <polygon id="Path" stroke="#00402A" stroke-width="0.5" fill="#FFF5EC" fill-rule="nonzero" stroke-linejoin="round" points="253.824 205.333 253.842 210.462 261.593 205.986 261.575 200.856"></polygon>
            <polygon id="Path" stroke="#00402A" stroke-width="0.5" fill="#FFF5EC" fill-rule="nonzero" stroke-linejoin="round" points="253.824 215.522 253.842 220.643 261.593 216.166 261.575 211.045"></polygon>
            <polygon id="Path" stroke="#00402A" stroke-width="0.5" fill="#FFF5EC" fill-rule="nonzero" stroke-linejoin="round" points="253.824 225.781 253.842 230.902 261.593 226.425 261.575 221.304"></polygon>
            <polygon id="Path" stroke="#00402A" stroke-width="0.5" fill="#FFF5EC" fill-rule="nonzero" stroke-linejoin="round" points="254.068 235.979 254.086 241.108 261.845 236.632 261.828 231.502"></polygon>
            <polygon id="Path" stroke="#00402A" stroke-width="0.5" fill="#007F33" fill-rule="nonzero" stroke-linecap="round" stroke-linejoin="round" points="256.281 177.29 256.281 178.168 257.07 177.7 257.07 176.815"></polygon>
            <polygon id="Path" stroke="#00402A" stroke-width="0.5" fill="#699282" fill-rule="nonzero" stroke-linecap="round" stroke-linejoin="round" points="256.281 177.29 256.281 178.168 255.493 177.7 255.493 176.815"></polygon>
            <polygon id="Path" stroke="#00402A" stroke-width="0.5" fill="#FFF5EC" fill-rule="nonzero" stroke-linecap="round" stroke-linejoin="round" points="255.493 176.815 256.281 176.341 257.07 176.815 256.281 177.29"></polygon>
            <polygon id="Path" stroke="#00402A" stroke-width="0.5" fill="#007F33" fill-rule="nonzero" stroke-linecap="round" stroke-linejoin="round" points="256.281 172.706 256.281 177.091 256.679 176.853 256.679 172.462"></polygon>
            <polygon id="Path" stroke="#00402A" stroke-width="0.5" fill="#699282" fill-rule="nonzero" stroke-linecap="round" stroke-linejoin="round" points="256.281 172.706 256.281 177.091 255.884 176.853 255.884 172.462"></polygon>
            <polygon id="Path" stroke="#00402A" stroke-width="0.5" fill="#007F33" fill-rule="nonzero" stroke-linecap="round" stroke-linejoin="round" points="249.843 181.11 249.843 181.995 250.632 181.521 250.632 180.636"></polygon>
            <polygon id="Path" stroke="#00402A" stroke-width="0.5" fill="#699282" fill-rule="nonzero" stroke-linecap="round" stroke-linejoin="round" points="249.843 181.11 249.843 181.995 249.055 181.521 249.055 180.636"></polygon>
            <polygon id="Path" stroke="#00402A" stroke-width="0.5" fill="#FFF5EC" fill-rule="nonzero" stroke-linecap="round" stroke-linejoin="round" points="249.055 180.636 249.843 180.162 250.631 180.636 249.843 181.11"></polygon>
            <polygon id="Path" stroke="#00402A" stroke-width="0.5" fill="#FFF5EC" fill-rule="nonzero" stroke-linecap="round" stroke-linejoin="round" points="249.844 178.777 249.844 180.911 250.247 180.675 250.247 178.539"></polygon>
            <polygon id="Path" stroke="#00402A" stroke-width="0.5" fill="#FFF5EC" fill-rule="nonzero" stroke-linecap="round" stroke-linejoin="round" points="249.843 178.777 249.843 180.911 249.446 180.675 249.446 178.539"></polygon>
            <polygon id="Path" stroke="#00402A" stroke-width="0.5" fill="#007F33" fill-rule="nonzero" stroke-linecap="round" stroke-linejoin="round" points="240.536 175.578 240.536 176.456 241.325 175.988 241.325 175.103"></polygon>
            <polygon id="Path" stroke="#00402A" stroke-width="0.5" fill="#699282" fill-rule="nonzero" stroke-linecap="round" stroke-linejoin="round" points="240.537 175.578 240.537 176.456 239.748 175.988 239.748 175.103"></polygon>
            <polygon id="Path" stroke="#00402A" stroke-width="0.5" fill="#FFF5EC" fill-rule="nonzero" stroke-linecap="round" stroke-linejoin="round" points="239.748 175.103 240.537 174.629 241.325 175.103 240.537 175.578"></polygon>
            <polygon id="Path" stroke="#00402A" stroke-width="0.5" fill="#FFF5EC" fill-rule="nonzero" stroke-linecap="round" stroke-linejoin="round" points="240.537 173.244 240.537 175.379 240.941 175.142 240.941 173.001"></polygon>
            <polygon id="Path" stroke="#00402A" stroke-width="0.5" fill="#FFF5EC" fill-rule="nonzero" stroke-linecap="round" stroke-linejoin="round" points="240.537 173.244 240.537 175.379 240.139 175.142 240.139 173.001"></polygon>
            <polygon id="Path" stroke="#00402A" stroke-width="0.5" fill="#FFFEFF" fill-rule="nonzero" stroke-linecap="round" stroke-linejoin="round" points="247.397 166 238.843 174.231 249.837 180.783 258.392 172.558"></polygon>
            <polygon id="Path" stroke="#00402A" stroke-width="0.5" fill="#699282" fill-rule="nonzero" stroke-linecap="round" stroke-linejoin="round" points="249.837 180.783 249.837 181.085 238.843 174.533 238.843 174.231"></polygon>
            <polygon id="Path" stroke="#00402A" stroke-width="0.5" fill="#007F33" fill-rule="nonzero" stroke-linecap="round" stroke-linejoin="round" points="258.392 172.558 249.837 180.783 249.837 181.085 258.392 172.911"></polygon>
            <path d="M247.298,166.486 L245.666,168.057 C245.678,168.166 245.684,168.211 245.697,168.313 L247.82,169.582 C247.925,169.57 248,169.564 248.106,169.55 L249.714,168.004 C249.702,167.876 249.696,167.832 249.682,167.703 L247.59,166.453 C247.478,166.459 247.403,166.471 247.298,166.485 L247.298,166.486 Z" id="Path" stroke="#00402A" stroke-width="0.5" fill="#B4DEF7" fill-rule="nonzero" stroke-linecap="round" stroke-linejoin="round"></path>
            <path d="M249.955,168.071 L248.323,169.641 C248.335,169.75 248.341,169.795 248.354,169.897 L250.477,171.167 C250.582,171.154 250.657,171.148 250.762,171.134 L252.37,169.589 C252.358,169.46 252.352,169.416 252.339,169.287 L250.247,168.037 C250.135,168.049 250.06,168.056 249.955,168.069 L249.955,168.071 Z" id="Path" stroke="#00402A" stroke-width="0.5" fill="#3CC2FF" fill-rule="nonzero" stroke-linecap="round" stroke-linejoin="round"></path>
            <path d="M252.619,169.654 L250.986,171.224 C250.998,171.333 251.005,171.378 251.018,171.48 L253.14,172.75 C253.246,172.737 253.321,172.731 253.426,172.717 L255.034,171.172 C255.022,171.043 255.016,170.999 255.003,170.87 L252.91,169.62 C252.799,169.632 252.724,169.639 252.619,169.652 L252.619,169.654 Z" id="Path" stroke="#00402A" stroke-width="0.5" fill="#3CC2FF" fill-rule="nonzero" stroke-linecap="round" stroke-linejoin="round"></path>
            <path d="M255.275,171.238 L253.643,172.808 C253.655,172.917 253.661,172.962 253.675,173.065 L255.797,174.334 C255.903,174.321 255.978,174.315 256.083,174.301 L257.691,172.756 C257.679,172.627 257.673,172.583 257.66,172.454 L255.567,171.204 C255.456,171.217 255.381,171.23 255.275,171.237 L255.275,171.238 Z" id="Path" stroke="#00402A" stroke-width="0.5" fill="#3CC2FF" fill-rule="nonzero" stroke-linecap="round" stroke-linejoin="round"></path>
            <path d="M245.205,168.493 L243.573,170.064 C243.585,170.173 243.591,170.218 243.605,170.32 L245.727,171.589 C245.833,171.577 245.908,171.57 246.013,171.557 L247.621,170.011 C247.609,169.882 247.603,169.839 247.59,169.71 L245.497,168.459 C245.386,168.472 245.311,168.478 245.205,168.492 L245.205,168.493 Z" id="Path" stroke="#00402A" stroke-width="0.5" fill="#3CC2FF" fill-rule="nonzero" stroke-linecap="round" stroke-linejoin="round"></path>
            <path d="M247.862,170.084 L246.23,171.654 C246.242,171.763 246.248,171.808 246.261,171.911 L248.384,173.18 C248.489,173.167 248.565,173.161 248.67,173.147 L250.278,171.602 C250.266,171.473 250.26,171.429 250.246,171.3 L248.154,170.05 C248.043,170.056 247.968,170.069 247.862,170.083 L247.862,170.084 Z" id="Path" stroke="#00402A" stroke-width="0.5" fill="#3CC2FF" fill-rule="nonzero" stroke-linecap="round" stroke-linejoin="round"></path>
            <path d="M250.52,171.667 L248.888,173.237 C248.9,173.346 248.906,173.391 248.919,173.494 L251.042,174.763 C251.147,174.75 251.222,174.744 251.328,174.73 L252.936,173.185 C252.924,173.056 252.918,173.012 252.904,172.883 L250.812,171.633 C250.701,171.646 250.626,171.652 250.52,171.666 L250.52,171.667 Z" id="Path" stroke="#00402A" stroke-width="0.5" fill="#B4DEF7" fill-rule="nonzero" stroke-linecap="round" stroke-linejoin="round"></path>
            <path d="M253.183,173.251 L251.551,174.822 C251.563,174.93 251.569,174.975 251.582,175.078 L253.705,176.347 C253.81,176.335 253.885,176.328 253.99,176.314 L255.598,174.769 C255.586,174.64 255.58,174.596 255.567,174.468 L253.475,173.217 C253.363,173.23 253.288,173.236 253.183,173.25 L253.183,173.251 Z" id="Path" stroke="#00402A" stroke-width="0.5" fill="#3CC2FF" fill-rule="nonzero" stroke-linecap="round" stroke-linejoin="round"></path>
            <path d="M243.113,170.506 L241.481,172.077 C241.493,172.186 241.499,172.231 241.512,172.333 L243.635,173.602 C243.74,173.59 243.816,173.584 243.921,173.57 L245.529,172.024 C245.517,171.896 245.511,171.852 245.497,171.723 L243.405,170.473 C243.294,170.485 243.219,170.491 243.113,170.505 L243.113,170.506 Z" id="Path" stroke="#00402A" stroke-width="0.5" fill="#B4DEF7" fill-rule="nonzero" stroke-linecap="round" stroke-linejoin="round"></path>
            <path d="M245.771,172.097 L244.139,173.667 C244.151,173.776 244.157,173.821 244.17,173.924 L246.293,175.193 C246.398,175.18 246.473,175.174 246.579,175.16 L248.187,173.615 C248.174,173.486 248.168,173.442 248.155,173.314 L246.063,172.063 C245.951,172.069 245.876,172.082 245.771,172.096 L245.771,172.097 Z" id="Path" stroke="#00402A" stroke-width="0.5" fill="#3CC2FF" fill-rule="nonzero" stroke-linecap="round" stroke-linejoin="round"></path>
            <path d="M248.428,173.68 L246.795,175.25 C246.808,175.359 246.814,175.404 246.827,175.507 L248.95,176.776 C249.055,176.763 249.13,176.757 249.235,176.743 L250.843,175.198 C250.831,175.069 250.825,175.025 250.812,174.897 L248.719,173.646 C248.608,173.659 248.533,173.665 248.428,173.679 L248.428,173.68 Z" id="Path" stroke="#00402A" stroke-width="0.5" fill="#3CC2FF" fill-rule="nonzero" stroke-linecap="round" stroke-linejoin="round"></path>
            <path d="M251.091,175.263 L249.459,176.833 C249.471,176.942 249.477,176.987 249.491,177.09 L251.613,178.359 C251.719,178.346 251.794,178.34 251.899,178.326 L253.507,176.781 C253.495,176.652 253.489,176.608 253.476,176.48 L251.383,175.229 C251.272,175.242 251.197,175.248 251.091,175.262 L251.091,175.263 Z" id="Path" stroke="#00402A" stroke-width="0.5" fill="#3CC2FF" fill-rule="nonzero" stroke-linecap="round" stroke-linejoin="round"></path>
            <path d="M241.021,172.52 L239.389,174.09 C239.401,174.199 239.407,174.244 239.42,174.346 L241.543,175.616 C241.648,175.603 241.723,175.597 241.829,175.583 L243.437,174.038 C243.424,173.909 243.418,173.865 243.405,173.736 L241.313,172.486 C241.201,172.498 241.126,172.505 241.021,172.518 L241.021,172.52 Z" id="Path" stroke="#00402A" stroke-width="0.5" fill="#3CC2FF" fill-rule="nonzero" stroke-linecap="round" stroke-linejoin="round"></path>
            <path d="M243.679,174.103 L242.047,175.673 C242.059,175.782 242.065,175.827 242.078,175.929 L244.201,177.199 C244.306,177.186 244.381,177.18 244.487,177.166 L246.095,175.621 C246.082,175.492 246.076,175.448 246.063,175.319 L243.971,174.069 C243.859,174.081 243.784,174.088 243.679,174.101 L243.679,174.103 Z" id="Path" stroke="#00402A" stroke-width="0.5" fill="#B4DEF7" fill-rule="nonzero" stroke-linecap="round" stroke-linejoin="round"></path>
            <path d="M246.335,175.693 L244.703,177.264 C244.715,177.372 244.721,177.417 244.735,177.52 L246.857,178.789 C246.963,178.777 247.038,178.77 247.143,178.757 L248.751,177.211 C248.739,177.082 248.733,177.038 248.72,176.91 L246.627,175.659 C246.516,175.666 246.441,175.678 246.335,175.692 L246.335,175.693 Z" id="Path" stroke="#00402A" stroke-width="0.5" fill="#3CC2FF" fill-rule="nonzero" stroke-linecap="round" stroke-linejoin="round"></path>
            <path d="M248.993,177.276 L247.361,178.847 C247.373,178.955 247.379,178.994 247.393,179.103 L249.515,180.372 C249.621,180.36 249.696,180.353 249.801,180.34 L251.409,178.794 C251.397,178.665 251.391,178.621 251.378,178.493 L249.285,177.242 C249.174,177.255 249.099,177.261 248.993,177.275 L248.993,177.276 Z" id="Path" stroke="#00402A" stroke-width="0.5" fill="#B4DEF7" fill-rule="nonzero" stroke-linecap="round" stroke-linejoin="round"></path>
            <path d="M190.214,242.712 C190.348,242.362 191.228,241.514 191.228,241.514 L204.235,238.932 C204.235,238.932 204.331,240.475 204.318,240.621 C204.242,241.457 201.186,242.413 201.186,242.413 L200.535,242.126 C200.197,242.202 199.681,242.375 199.259,242.591 C198.513,242.98 197.269,243.752 196.019,244.255 C194.768,244.759 193.308,245.237 191.84,244.848 C190.373,244.466 189.997,243.28 190.207,242.7 L190.214,242.712 Z" id="Path" stroke="#00402A" stroke-width="0.5" fill="#FFF5EC" fill-rule="nonzero" stroke-linejoin="round"></path>
            <path d="M198.641,235.05 C198.641,235.05 197.85,235.375 196.012,237.23 C194.175,239.079 190.756,241.049 190.227,242.132 C189.774,243.057 190.156,243.988 191.872,244.478 C193.544,244.957 196.236,243.79 197.907,242.655 C199.578,241.527 203.304,240.864 203.987,239.716 C204.663,238.588 203.827,236.65 203.514,236.172 C203.202,235.693 202.532,234.144 198.647,235.05 L198.641,235.05 Z" id="Path" stroke="#00402A" stroke-width="0.5" fill="#00402A" fill-rule="nonzero" stroke-linejoin="round"></path>
            <path d="M202.94,231.728 C202.94,231.728 202.628,234.871 202.711,235.738 C202.794,236.605 199.081,237.128 198.067,235.974 C198.067,235.974 197.901,233.966 197.869,232.589" id="Path" fill="#FFD1A4" fill-rule="nonzero"></path>
            <path d="M202.94,231.728 C202.94,231.728 202.628,234.871 202.711,235.738 C202.794,236.605 199.081,237.128 198.067,235.974 C198.067,235.974 197.901,233.966 197.869,232.589" id="Path" stroke="#00402A" stroke-width="0.5" stroke-linejoin="round"></path>
            <path d="M211.214,247.29 C211.214,247.29 210.512,248.832 210.506,249.884 C210.506,250.885 211.01,251.931 211.705,252.447 C212.292,252.881 214.11,253.729 217.096,251.727 C220.024,249.763 219.29,246.021 219.239,245.473 C219.195,244.918 219.118,243.222 219.233,242.368" id="Path" fill="#FFF5EC" fill-rule="nonzero"></path>
            <path d="M211.214,247.29 C211.214,247.29 210.512,248.832 210.506,249.884 C210.506,250.885 211.01,251.931 211.705,252.447 C212.292,252.881 214.11,253.729 217.096,251.727 C220.024,249.763 219.29,246.021 219.239,245.473 C219.195,244.918 219.118,243.222 219.233,242.368" id="Path" stroke="#00402A" stroke-width="0.5" stroke-linejoin="round"></path>
            <path d="M219.278,242.049 C219.278,242.049 219.125,242.974 219.118,245.02 C219.106,247.067 219.182,248.444 218.13,249.916 C216.822,251.746 214.104,252.811 212.529,252.18 C210.347,251.3 210.564,248.82 210.998,247.475 C211.432,246.13 212.969,244.81 213.256,243.375 C213.543,241.941 212.969,239.04 215.897,238.651 C218.442,238.314 219.75,239.512 219.278,242.049 Z" id="Path" stroke="#00402A" stroke-width="0.5" fill="#00402A" fill-rule="nonzero" stroke-linejoin="round"></path>
            <path d="M218.939,236.229 C218.939,236.229 218.627,239.372 218.71,240.239 C218.786,241.01 215.833,241.514 214.474,240.787 C214.206,240.647 214.053,240.354 214.027,240.047 C213.976,239.384 213.887,238.071 213.862,237.083" id="Path" fill="#FFD1A4" fill-rule="nonzero"></path>
            <path d="M218.939,236.229 C218.939,236.229 218.627,239.372 218.71,240.239 C218.786,241.01 215.833,241.514 214.474,240.787 C214.206,240.647 214.053,240.354 214.027,240.047 C213.976,239.384 213.887,238.071 213.862,237.083" id="Path" stroke="#00402A" stroke-width="0.5" stroke-linejoin="round"></path>
            <path d="M195.56,207.821 C196.134,211.111 197.103,231.014 197.256,234.182 C197.269,234.444 197.429,234.68 197.671,234.782 C200.523,235.942 202.755,234.89 203.534,234.431 C203.719,234.316 203.84,234.131 203.859,233.915 C204.076,231.588 205.409,217.397 205.467,216.989 C206.098,212.284 205.83,206.463 205.422,204.99 C205.014,203.518 206.002,193.062 207.176,189.193 C207.712,187.427 208.146,186.247 208.503,185.081 C208.93,183.697 209.237,182.339 209.447,180.051 C209.849,175.805 207.814,171.935 207.814,171.935 C207.814,171.935 195.445,171.043 195.151,174.198 C194.788,178.106 194.15,199.776 195.553,207.821 L195.56,207.821 Z" id="Path" stroke="#00402A" stroke-width="0.5" fill="#3A3735" fill-rule="nonzero" stroke-linejoin="round"></path>
            <path d="M217.587,176.678 C217.587,176.678 219.928,180.605 219.858,184.838 C219.788,189.04 219.731,190.123 218.857,193.961 C217.983,197.799 219.999,208.07 220.522,209.549 C221.045,211.034 221.53,215.752 221.262,220.444 C221.032,224.511 219.922,235.687 219.692,237.969 C219.667,238.243 219.52,238.486 219.284,238.632 C218.468,239.13 216.35,240.086 213.556,238.977 C213.23,238.849 213.007,238.562 212.975,238.218 C212.688,234.743 211.017,215.114 209.9,211.933 C207.196,204.257 204.599,189.282 204.102,186.451 C202.73,182.741 203.228,179.298 203.228,177.29 C203.228,175.282 217.594,176.678 217.594,176.678 L217.587,176.678 Z" id="Path" stroke="#00402A" stroke-width="0.5" fill="#615D5A" fill-rule="nonzero" stroke-linejoin="round"></path>
            <path d="M193.407,145.321 C193.512,145.347 193.621,145.377 193.736,145.406 C193.944,145.459 194.166,145.515 194.399,145.577 C194.773,145.676 195.173,145.786 195.582,145.906 C195.668,145.932 195.755,145.957 195.843,145.983 C195.943,146.014 196.044,146.045 196.144,146.076 C196.251,146.109 196.357,146.143 196.464,146.177 C196.569,146.21 196.673,146.245 196.777,146.279 C197.179,146.413 197.571,146.553 197.934,146.697 C198.209,146.806 198.468,146.917 198.703,147.03 C198.719,147.038 198.735,147.046 198.751,147.054 C198.877,147.115 198.997,147.177 199.107,147.239 C199.176,147.278 199.242,147.318 199.304,147.357 C199.323,147.369 199.34,147.381 199.357,147.393 C199.4,147.421 199.441,147.448 199.48,147.477 C199.5,147.491 199.519,147.504 199.538,147.519 C199.642,147.598 199.729,147.677 199.798,147.756 C199.806,147.765 199.813,147.775 199.82,147.784 C199.844,147.814 199.864,147.844 199.883,147.873 C199.892,147.889 199.903,147.903 199.911,147.919 C199.915,147.926 199.918,147.934 199.922,147.941 C199.935,147.971 199.947,147.999 199.955,148.028 C200.121,148.66 199.71,150.508 198.644,153.559 C198.547,153.836 198.444,154.123 198.337,154.421 C197.975,155.417 197.551,156.526 197.065,157.745 L197.206,158.649 C197.177,158.664 193.737,160.379 192.498,160.963 C189.911,162.173 181.62,165.285 181.602,165.292 L180.958,164.106 L179.867,161.958 L179.874,161.958 C180.078,161.818 180.748,161.371 181.705,160.721 C182.866,159.93 184.46,158.84 186.182,157.629 C187.877,156.44 189.693,155.104 191.425,153.865 C191.515,152.927 191.609,151.968 191.696,151.045 C191.998,147.853 192.252,145.086 192.256,145.045 L193.407,145.321 Z" id="Path" fill="#FFD1A4" fill-rule="nonzero"></path>
            <path d="M193.407,145.321 L193.467,145.079 L193.465,145.078 L193.407,145.321 Z M193.736,145.406 L193.675,145.649 L193.675,145.649 L193.736,145.406 Z M194.399,145.577 L194.463,145.336 L194.463,145.336 L194.399,145.577 Z M195.582,145.906 L195.511,146.146 L195.511,146.146 L195.582,145.906 Z M195.843,145.983 L195.914,145.744 L195.914,145.744 L195.843,145.983 Z M196.144,146.076 L196.07,146.315 L196.07,146.315 L196.144,146.076 Z M196.464,146.177 L196.54,145.939 L196.54,145.939 L196.464,146.177 Z M196.777,146.279 L196.698,146.517 L196.698,146.517 L196.777,146.279 Z M197.934,146.697 L198.027,146.465 L198.027,146.465 L197.934,146.697 Z M198.703,147.03 L198.595,147.256 L198.595,147.256 L198.703,147.03 Z M198.751,147.054 L198.861,146.829 L198.861,146.829 L198.751,147.054 Z M199.107,147.239 L198.984,147.457 L198.984,147.457 L199.107,147.239 Z M199.304,147.357 L199.438,147.146 L199.438,147.146 L199.304,147.357 Z M199.357,147.393 L199.22,147.602 L199.22,147.602 L199.357,147.393 Z M199.48,147.477 L199.626,147.274 L199.626,147.274 L199.48,147.477 Z M199.538,147.519 L199.386,147.717 L199.386,147.717 L199.538,147.519 Z M199.798,147.756 L199.609,147.92 L199.609,147.92 L199.798,147.756 Z M199.82,147.784 L200.014,147.627 L200.014,147.627 L199.82,147.784 Z M199.883,147.873 L199.671,148.005 L199.671,148.005 L199.883,147.873 Z M199.911,147.919 L200.133,147.803 L200.133,147.803 L199.911,147.919 Z M199.922,147.941 L199.695,148.048 L199.695,148.048 L199.922,147.941 Z M199.955,148.028 L200.197,147.965 L200.196,147.964 L199.955,148.028 Z M198.644,153.559 L198.408,153.476 L198.408,153.476 L198.644,153.559 Z M198.337,154.421 L198.572,154.506 L198.572,154.506 L198.337,154.421 Z M197.065,157.745 L196.833,157.653 C196.816,157.694 196.811,157.739 196.818,157.784 L197.065,157.745 Z M197.206,158.649 L197.317,158.873 C197.415,158.825 197.47,158.719 197.453,158.611 L197.206,158.649 Z M192.498,160.963 L192.604,161.189 L192.604,161.189 L192.498,160.963 Z M181.602,165.292 L181.383,165.411 C181.442,165.521 181.573,165.57 181.69,165.526 L181.602,165.292 Z M180.958,164.106 L180.735,164.22 L180.738,164.226 L180.958,164.106 Z M179.867,161.958 L179.867,161.708 C179.78,161.708 179.699,161.753 179.654,161.827 C179.608,161.901 179.605,161.994 179.644,162.071 L179.867,161.958 Z M179.874,161.958 L179.874,162.208 C179.924,162.208 179.974,162.193 180.015,162.164 L179.874,161.958 Z M181.705,160.721 L181.845,160.927 L181.846,160.927 L181.705,160.721 Z M186.182,157.629 L186.039,157.424 L186.039,157.424 L186.182,157.629 Z M191.425,153.865 L191.57,154.069 C191.629,154.027 191.667,153.961 191.673,153.889 L191.425,153.865 Z M191.696,151.045 L191.945,151.068 L191.945,151.068 L191.696,151.045 Z M192.256,145.045 L192.314,144.802 C192.243,144.785 192.169,144.799 192.11,144.842 C192.051,144.884 192.013,144.95 192.007,145.022 L192.256,145.045 Z M193.407,145.321 L193.347,145.564 C193.455,145.591 193.549,145.617 193.675,145.649 L193.736,145.406 L193.797,145.164 C193.693,145.138 193.568,145.104 193.467,145.079 L193.407,145.321 Z M193.736,145.406 L193.675,145.649 C193.882,145.701 194.104,145.757 194.335,145.819 L194.399,145.577 L194.463,145.336 C194.229,145.273 194.005,145.216 193.797,145.164 L193.736,145.406 Z M194.399,145.577 L194.335,145.819 C194.707,145.918 195.106,146.027 195.511,146.146 L195.582,145.906 L195.652,145.666 C195.241,145.546 194.838,145.435 194.463,145.336 L194.399,145.577 Z M195.582,145.906 L195.511,146.146 C195.598,146.172 195.684,146.197 195.771,146.223 L195.843,145.983 L195.914,145.744 C195.826,145.718 195.739,145.692 195.652,145.666 L195.582,145.906 Z M195.843,145.983 L195.771,146.223 C195.87,146.253 195.969,146.284 196.07,146.315 L196.144,146.076 L196.218,145.837 C196.118,145.806 196.016,145.775 195.914,145.744 L195.843,145.983 Z M196.144,146.076 L196.07,146.315 C196.176,146.348 196.282,146.381 196.387,146.415 L196.464,146.177 L196.54,145.939 C196.433,145.904 196.326,145.871 196.218,145.837 L196.144,146.076 Z M196.464,146.177 L196.387,146.415 C196.491,146.448 196.595,146.482 196.698,146.517 L196.777,146.279 L196.856,146.042 C196.751,146.007 196.646,145.973 196.54,145.939 L196.464,146.177 Z M196.777,146.279 L196.698,146.517 C197.097,146.649 197.484,146.787 197.842,146.93 L197.934,146.697 L198.027,146.465 C197.657,146.318 197.261,146.177 196.856,146.042 L196.777,146.279 Z M197.934,146.697 L197.842,146.93 C198.113,147.037 198.366,147.146 198.595,147.256 L198.703,147.03 L198.811,146.805 C198.57,146.689 198.305,146.575 198.027,146.465 L197.934,146.697 Z M198.703,147.03 L198.595,147.256 C198.61,147.263 198.622,147.269 198.641,147.278 L198.751,147.054 L198.861,146.829 C198.848,146.823 198.828,146.813 198.811,146.805 L198.703,147.03 Z M198.751,147.054 L198.641,147.278 C198.765,147.339 198.88,147.398 198.984,147.457 L199.107,147.239 L199.23,147.022 C199.114,146.956 198.989,146.892 198.861,146.829 L198.751,147.054 Z M199.107,147.239 L198.984,147.457 C199.049,147.494 199.111,147.531 199.171,147.569 L199.304,147.357 L199.438,147.146 C199.373,147.105 199.304,147.063 199.23,147.022 L199.107,147.239 Z M199.304,147.357 L199.171,147.569 C199.192,147.582 199.186,147.579 199.22,147.602 L199.357,147.393 L199.494,147.183 C199.494,147.183 199.453,147.155 199.438,147.146 L199.304,147.357 Z M199.357,147.393 L199.22,147.602 C199.261,147.629 199.299,147.654 199.334,147.679 L199.48,147.477 L199.626,147.274 C199.583,147.243 199.539,147.213 199.494,147.183 L199.357,147.393 Z M199.48,147.477 L199.334,147.679 C199.356,147.695 199.371,147.706 199.386,147.717 L199.538,147.519 L199.689,147.32 C199.667,147.303 199.643,147.286 199.626,147.274 L199.48,147.477 Z M199.538,147.519 L199.386,147.717 C199.481,147.789 199.554,147.857 199.609,147.92 L199.798,147.756 L199.987,147.592 C199.904,147.497 199.803,147.406 199.689,147.32 L199.538,147.519 Z M199.798,147.756 L199.609,147.92 C199.608,147.919 199.608,147.919 199.611,147.923 C199.612,147.924 199.613,147.925 199.614,147.926 C199.614,147.927 199.616,147.929 199.617,147.93 C199.619,147.933 199.622,147.937 199.626,147.942 L199.82,147.784 L200.014,147.627 C200.013,147.625 200.012,147.624 200.007,147.617 C200.003,147.612 199.995,147.602 199.987,147.592 L199.798,147.756 Z M199.82,147.784 L199.626,147.942 C199.641,147.96 199.655,147.981 199.671,148.005 L199.883,147.873 L200.095,147.741 C200.073,147.706 200.047,147.667 200.014,147.627 L199.82,147.784 Z M199.883,147.873 L199.671,148.005 C199.674,148.011 199.678,148.017 199.68,148.021 C199.683,148.025 199.685,148.028 199.687,148.031 C199.69,148.036 199.69,148.036 199.689,148.035 L199.911,147.919 L200.133,147.803 C200.123,147.786 200.114,147.771 200.108,147.761 C200.099,147.747 200.099,147.748 200.095,147.741 L199.883,147.873 Z M199.911,147.919 L199.689,148.034 C199.689,148.034 199.689,148.034 199.69,148.036 C199.691,148.038 199.691,148.039 199.692,148.041 C199.693,148.043 199.694,148.045 199.695,148.048 L199.922,147.941 L200.148,147.835 C200.148,147.834 200.14,147.817 200.133,147.803 L199.911,147.919 Z M199.922,147.941 L199.695,148.048 C199.706,148.07 199.711,148.084 199.713,148.093 L199.955,148.028 L200.196,147.964 C200.183,147.915 200.165,147.871 200.148,147.835 L199.922,147.941 Z M199.955,148.028 L199.713,148.092 C199.743,148.205 199.752,148.403 199.721,148.704 C199.691,149 199.624,149.374 199.518,149.829 C199.306,150.74 198.94,151.955 198.408,153.476 L198.644,153.559 L198.88,153.641 C199.415,152.111 199.787,150.877 200.005,149.943 C200.114,149.476 200.186,149.079 200.219,148.755 C200.252,148.437 200.25,148.167 200.197,147.965 L199.955,148.028 Z M198.644,153.559 L198.408,153.476 C198.312,153.752 198.209,154.039 198.102,154.336 L198.337,154.421 L198.572,154.506 C198.68,154.208 198.783,153.92 198.88,153.641 L198.644,153.559 Z M198.337,154.421 L198.102,154.336 C197.742,155.329 197.318,156.435 196.833,157.653 L197.065,157.745 L197.297,157.838 C197.784,156.616 198.209,155.506 198.572,154.506 L198.337,154.421 Z M197.065,157.745 L196.818,157.784 L196.959,158.688 L197.206,158.649 L197.453,158.611 L197.312,157.707 L197.065,157.745 Z M197.206,158.649 L197.094,158.426 C197.064,158.441 193.627,160.154 192.391,160.737 L192.498,160.963 L192.604,161.189 C193.846,160.603 197.29,158.887 197.317,158.873 L197.206,158.649 Z M192.498,160.963 L192.392,160.736 C189.816,161.941 181.538,165.049 181.514,165.058 L181.602,165.292 L181.69,165.526 C181.702,165.522 190.005,162.405 192.604,161.189 L192.498,160.963 Z M181.602,165.292 L181.822,165.173 L181.177,163.987 L180.958,164.106 L180.738,164.226 L181.383,165.411 L181.602,165.292 Z M180.958,164.106 L181.181,163.993 L180.09,161.845 L179.867,161.958 L179.644,162.071 L180.735,164.22 L180.958,164.106 Z M179.867,161.958 L179.867,162.208 L179.874,162.208 L179.874,161.958 L179.874,161.708 L179.867,161.708 L179.867,161.958 Z M179.874,161.958 L180.015,162.164 C180.22,162.024 180.885,161.58 181.845,160.927 L181.705,160.721 L181.564,160.514 C180.612,161.161 179.936,161.612 179.732,161.752 L179.874,161.958 Z M181.705,160.721 L181.846,160.927 C183.007,160.137 184.603,159.046 186.326,157.833 L186.182,157.629 L186.039,157.424 C184.318,158.634 182.725,159.724 181.564,160.514 L181.705,160.721 Z M186.182,157.629 L186.326,157.834 C188.021,156.645 189.843,155.304 191.57,154.069 L191.425,153.865 L191.279,153.662 C189.543,154.904 187.733,156.236 186.039,157.424 L186.182,157.629 Z M191.425,153.865 L191.673,153.889 C191.763,152.951 191.858,151.992 191.945,151.068 L191.696,151.045 L191.447,151.021 C191.36,151.944 191.266,152.902 191.176,153.841 L191.425,153.865 Z M191.696,151.045 L191.945,151.068 C192.246,147.876 192.501,145.109 192.505,145.068 L192.256,145.045 L192.007,145.022 C192.003,145.063 191.749,147.83 191.447,151.021 L191.696,151.045 Z M192.256,145.045 L192.197,145.288 L193.349,145.564 L193.407,145.321 L193.465,145.078 L192.314,144.802 L192.256,145.045 Z" id="Shape" fill="#00402A" fill-rule="nonzero"></path>
            <path d="M193.576,135.418 C193.576,135.418 192.147,141.188 191.343,150.578 C191.343,150.578 193.18,151.751 197.206,152.306" id="Path" fill="url(#linearGradient-1)" fill-rule="nonzero"></path>
            <path d="M193.576,135.418 C193.576,135.418 192.147,141.188 191.343,150.578 C191.343,150.578 193.18,151.751 197.206,152.306" id="Path" stroke="#00402A" stroke-width="0.5" stroke-linejoin="round"></path>
            <path d="M195.49,169.009 C196.931,158.49 193.238,139.658 193.448,136.323 C193.474,135.96 193.525,135.603 193.614,135.265 C194.208,132.925 196.179,131.185 198.539,130.643 C201.454,129.967 205.83,130.624 207.457,130.975 C208.51,131.191 209.556,131.446 210.57,131.759 C210.787,131.822 210.998,131.886 211.208,131.956 L212.191,132.32 C213.262,132.74 222.442,137.873 223.418,140.977 C223.533,141.347 223.769,141.698 223.922,142.106 C223.999,143.355 221.817,151.624 221.07,154.078 C220.713,155.232 220.299,156.38 219.871,157.521 C218.347,161.614 216.758,165.726 217.67,170.195 C217.702,170.354 220.018,178.935 219.571,180.574 C219.118,182.212 213.517,183.43 210.781,182.971 C202.596,181.6 197.219,177.182 195.617,175.55 C195.075,175.174 194.782,174.53 194.865,173.86 C195.037,172.426 195.254,170.781 195.503,169.009 L195.49,169.009 Z" id="Path" stroke="#00402A" stroke-width="0.5" fill="#FFFFFF" fill-rule="nonzero" stroke-linejoin="round"></path>
            <path d="M214.826,149.654 C214.826,149.654 216.516,157.986 216.924,159.892 C217.339,161.799 217.664,162.984 217.735,164.215 C217.735,164.215 217.996,162.564 219.54,158.311 C220.376,155.991 214.826,149.654 214.826,149.654 Z" id="Path" stroke="#00402A" stroke-width="0.5" fill="url(#linearGradient-2)" fill-rule="nonzero" stroke-linejoin="round"></path>
            <path d="M203.585,132.358 C203.585,132.358 201.64,134.213 203.196,135.616 L204.102,133.658 L203.235,132.868" id="Path" fill="#E5AE80" fill-rule="nonzero"></path>
            <path d="M203.585,132.358 C203.585,132.358 201.64,134.213 203.196,135.616 L204.102,133.658 L203.235,132.868" id="Path" stroke="#00402A" stroke-width="0.5" stroke-linejoin="round"></path>
            <path d="M211.387,125.46 L211.17,133.015 C211.17,133.015 205.486,137.445 203.196,135.616 C203.158,134.277 203.17,131.083 203.202,129.234 L205.359,128.801 L211.381,125.466 L211.387,125.46 Z" id="Path" stroke="#00402A" stroke-width="0.5" fill="#FFC48F" fill-rule="nonzero" stroke-linejoin="round"></path>
            <path d="M199.05,119.659 C199.05,119.659 198.686,123.312 199.439,126.652 C200.192,129.993 200.421,130.745 201.767,131.338 C203.113,131.931 204.325,131.995 206.59,130.541 C208.855,129.088 210.092,126.716 210.092,126.716 C210.092,126.716 210.418,126.926 211.221,126.015 C212.491,124.587 212.733,123.873 212.733,121.935 C212.733,119.997 212.248,117.555 210.736,115.024 C209.225,112.493 204.593,113.303 202.488,114.38 C200.383,115.457 199.439,117.491 199.037,119.659 L199.05,119.659 Z" id="Path" stroke="#00402A" stroke-width="0.5" fill="#FFD1A4" fill-rule="nonzero" stroke-linejoin="round"></path>
            <path d="M198.807,120.099 C200.982,121.998 205.212,120.099 205.212,120.099 L205.295,121.214 C205.722,122.993 206.966,123.159 207.566,123.484 C208.159,123.815 208.299,125.632 208.299,125.632 L209.058,125.549 C209.058,125.549 209.033,123.822 209.301,122.955 C209.575,122.088 211.01,121.418 211.814,122.68 C212.478,123.713 211.852,124.956 211.361,125.855 C211.361,125.855 212.733,126.27 213.09,120.666 C213.09,120.666 215.655,117.083 212.28,115.253 C211.948,113.443 209.824,111.989 206.921,112.008 C206.921,112.008 203.177,111.76 201.269,113.966 C198.96,116.637 198.482,116.573 197.825,115.948 C196.925,116.866 197.327,118.804 198.807,120.099 Z" id="Path" stroke="#00402A" stroke-width="0.5" fill="#3A3735" fill-rule="nonzero" stroke-linejoin="round"></path>
            <polygon id="Path" stroke="#00402A" stroke-width="0.5" fill="#D6D6D6" fill-rule="nonzero" stroke-linejoin="round" points="204.363 134.525 204.102 136.298 205.499 136.177"></polygon>
            <polygon id="Path" stroke="#00402A" stroke-width="0.5" fill="#D6D6D6" fill-rule="nonzero" stroke-linejoin="round" points="203.636 134.411 203.636 136.419 202.749 135.616"></polygon>
            <path d="M204.752,135.412 C204.752,135.412 204.012,135.52 203.24,134.883 L202.59,136.196 L202.8,137.873 L203.948,138.332 L205.129,136.897" id="Path" fill="#008C39" fill-rule="nonzero"></path>
            <path d="M204.752,135.412 C204.752,135.412 204.012,135.52 203.24,134.883 L202.59,136.196 L202.8,137.873 L203.948,138.332 L205.129,136.897" id="Path" stroke="#00402A" stroke-width="0.5" stroke-linejoin="round"></path>
            <path d="M212.05,132.269 L211.24,130.617 C211.24,130.617 208.388,133.474 204.369,134.519 L205.084,137.012 C205.084,137.012 209.792,135.858 212.056,132.269 L212.05,132.269 Z" id="Path" stroke="#00402A" stroke-width="0.5" fill="#EFEFEF" fill-rule="nonzero" stroke-linejoin="round"></path>
            <path d="M203.17,132.505 C203.17,132.505 203.151,133.831 203.636,134.411 L202.596,136.419 C202.596,136.419 201.524,134.06 203.176,132.505 L203.17,132.505 Z" id="Path" stroke="#00402A" stroke-width="0.5" fill="#EFEFEF" fill-rule="nonzero" stroke-linejoin="round"></path>
            <path d="M203.948,138.332 C203.948,138.332 204.644,162.226 203.948,170.437 C203.808,172.056 201.62,176.175 200.931,176.200098 C200.242,176.232 198.08,168.41 198.085988,165.413 C198.099,162.417 202.8,137.873 202.8,137.873" id="Path" fill="#00A443" fill-rule="nonzero"></path>
            <path d="M203.948,138.332 C203.948,138.332 204.644,162.226 203.948,170.437 C203.808,172.056 201.62,176.175 200.931,176.200098 C200.242,176.232 198.08,168.41 198.085988,165.413 C198.099,162.417 202.8,137.873 202.8,137.873" id="Path" stroke="#00402A" stroke-width="0.5" stroke-linejoin="round"></path>
            <path d="M206.672,183.614 L182.571,169.532 C181.615,168.971 180.83,168.167 180.3,167.192 L170.802,149.705 C170.464,149.08 171.159,148.411 171.771,148.768 L195.872,162.85 C196.829,163.411 197.614,164.215 198.137,165.19 L207.635,182.677 C207.974,183.302 207.278,183.971 206.666,183.614 L206.672,183.614 Z" id="Path" stroke="#00402A" stroke-width="0.5" fill="#0DA9FF" fill-rule="nonzero" stroke-linejoin="round"></path>
            <path d="M225.816,150.534 C225.836,150.593 230.106,163.491 228.241,164.827 L228.169,164.906 C227.211,165.794 219.862,168.801 213.843,170.66 C208.428,172.33 207.311,173.318 207.056,173.465 C206.635,173.739 205.072,175.142 203.924,175.849 C203.599,176.047 202.692,176.34 201.831,175.92 C200.46,175.251 199.599,174.486 199.528,174.428 C198.616,173.618 197.832,171.414 198.29,171.437 L198.297,171.437 C198.558,171.45 200.842,172.745 201.231,172.611 C201.614,172.484 201.761,171.987 201.761,171.865 C201.761,171.75 200.849,170.169 200.849,170.169 C200.852,170.164 200.929,170.076 201.34,169.914 L201.346,169.914 C201.575,169.876 201.735,169.856 201.786,169.869 C202.035,169.933 203.579,170.545 204.141,170.277 C204.351,170.175 204.593,170.067 204.842,169.952 C204.842,169.952 209.876,167.269 212.733,165.432 C214.387,164.37 217.46,162.512 219.82,161.095 C218.494,158.791 216.554,154.269 216.554,154.269 L225.816,150.534 Z" id="Path" fill="#FFD1A4" fill-rule="nonzero"></path>
            <path d="M225.816,150.534 L226.054,150.455 C226.032,150.39 225.984,150.336 225.921,150.307 C225.859,150.278 225.787,150.276 225.723,150.302 L225.816,150.534 Z M228.241,164.827 L228.096,164.624 C228.081,164.634 228.068,164.646 228.057,164.658 L228.241,164.827 Z M228.169,164.906 L228.339,165.09 C228.344,165.085 228.349,165.08 228.354,165.075 L228.169,164.906 Z M213.843,170.66 L213.916,170.899 L213.917,170.899 L213.843,170.66 Z M207.056,173.465 L206.931,173.248 L206.919,173.255 L207.056,173.465 Z M203.924,175.849 L204.054,176.063 L204.055,176.062 L203.924,175.849 Z M201.831,175.92 L201.941,175.695 L201.941,175.695 L201.831,175.92 Z M199.528,174.428 L199.362,174.615 L199.37,174.621 L199.528,174.428 Z M198.29,171.437 L198.277,171.687 L198.29,171.687 L198.29,171.437 Z M198.297,171.437 L198.309,171.187 L198.297,171.187 L198.297,171.437 Z M201.231,172.611 L201.152,172.374 L201.15,172.375 L201.231,172.611 Z M201.761,171.865 L202.011,171.866 L202.011,171.865 L201.761,171.865 Z M200.849,170.169 L200.656,170.009 C200.589,170.09 200.58,170.203 200.632,170.294 L200.849,170.169 Z M201.34,169.914 L201.34,169.664 C201.308,169.664 201.277,169.67 201.248,169.681 L201.34,169.914 Z M201.346,169.914 L201.346,170.164 C201.359,170.164 201.373,170.163 201.387,170.161 L201.346,169.914 Z M201.786,169.869 L201.848,169.627 L201.846,169.626 L201.786,169.869 Z M204.141,170.277 L204.248,170.503 L204.25,170.502 L204.141,170.277 Z M204.842,169.952 L204.947,170.179 C204.951,170.177 204.955,170.175 204.959,170.173 L204.842,169.952 Z M212.733,165.432 L212.598,165.222 L212.598,165.222 L212.733,165.432 Z M219.82,161.095 L219.949,161.309 C220.066,161.239 220.105,161.088 220.037,160.97 L219.82,161.095 Z M216.554,154.269 L216.46,154.038 C216.398,154.063 216.348,154.112 216.323,154.174 C216.297,154.236 216.297,154.306 216.324,154.368 L216.554,154.269 Z M225.816,150.534 L225.579,150.613 C225.588,150.641 226.658,153.872 227.493,157.261 C227.91,158.957 228.266,160.683 228.403,162.063 C228.471,162.754 228.483,163.346 228.425,163.8 C228.365,164.269 228.238,164.522 228.096,164.624 L228.241,164.827 L228.387,165.03 C228.71,164.798 228.858,164.356 228.921,163.863 C228.986,163.356 228.97,162.721 228.9,162.014 C228.76,160.598 228.397,158.845 227.978,157.142 C227.139,153.733 226.064,150.487 226.054,150.455 L225.816,150.534 Z M228.241,164.827 L228.057,164.658 L227.984,164.738 L228.169,164.906 L228.354,165.075 L228.426,164.996 L228.241,164.827 Z M228.169,164.906 L227.999,164.723 C227.903,164.812 227.706,164.944 227.403,165.114 C227.105,165.281 226.722,165.476 226.266,165.692 C225.354,166.125 224.162,166.64 222.81,167.187 C220.106,168.28 216.771,169.494 213.769,170.421 L213.843,170.66 L213.917,170.899 C216.934,169.967 220.283,168.748 222.998,167.651 C224.355,167.102 225.557,166.583 226.48,166.144 C226.942,165.925 227.337,165.725 227.648,165.55 C227.953,165.378 228.196,165.222 228.339,165.09 L228.169,164.906 Z M213.843,170.66 L213.769,170.421 C211.054,171.259 209.409,171.927 208.407,172.408 C207.411,172.886 207.026,173.194 206.931,173.248 L207.056,173.465 L207.18,173.681 C207.341,173.589 207.642,173.329 208.623,172.859 C209.597,172.392 211.217,171.731 213.916,170.899 L213.843,170.66 Z M207.056,173.465 L206.919,173.255 C206.801,173.332 206.613,173.481 206.393,173.659 C206.165,173.844 205.901,174.062 205.605,174.3 C205.018,174.774 204.352,175.292 203.793,175.637 L203.924,175.849 L204.055,176.062 C204.644,175.699 205.333,175.162 205.919,174.689 C206.211,174.454 206.488,174.225 206.708,174.048 C206.934,173.864 207.1,173.734 207.192,173.674 L207.056,173.465 Z M203.924,175.849 L203.794,175.636 C203.516,175.805 202.702,176.067 201.941,175.695 L201.831,175.92 L201.721,176.144 C202.683,176.614 203.682,176.289 204.054,176.063 L203.924,175.849 Z M201.831,175.92 L201.941,175.695 C200.599,175.04 199.758,174.293 199.687,174.234 L199.528,174.428 L199.37,174.621 C199.44,174.678 200.321,175.461 201.721,176.144 L201.831,175.92 Z M199.528,174.428 L199.694,174.241 C199.282,173.875 198.875,173.164 198.628,172.529 C198.505,172.214 198.43,171.938 198.411,171.754 C198.406,171.709 198.405,171.673 198.406,171.647 C198.407,171.619 198.411,171.607 198.411,171.608 C198.411,171.608 198.402,171.632 198.373,171.655 C198.339,171.682 198.301,171.688 198.277,171.687 L198.29,171.437 L198.303,171.188 C198.222,171.183 198.137,171.205 198.064,171.261 C197.996,171.315 197.959,171.384 197.938,171.444 C197.899,171.557 197.901,171.689 197.913,171.808 C197.94,172.055 198.032,172.377 198.162,172.711 C198.421,173.375 198.863,174.171 199.362,174.615 L199.528,174.428 Z M198.29,171.437 L198.29,171.687 L198.297,171.687 L198.297,171.437 L198.297,171.187 L198.29,171.187 L198.29,171.437 Z M198.297,171.437 L198.285,171.687 C198.265,171.686 198.263,171.683 198.291,171.692 C198.314,171.699 198.346,171.711 198.387,171.728 C198.469,171.762 198.577,171.811 198.704,171.871 C198.975,171.999 199.264,172.142 199.609,172.305 C199.936,172.46 200.274,172.613 200.557,172.72 C200.698,172.773 200.833,172.817 200.949,172.844 C201.008,172.857 201.067,172.867 201.123,172.87 C201.177,172.873 201.245,172.871 201.313,172.848 L201.231,172.611 L201.15,172.375 C201.169,172.368 201.174,172.372 201.151,172.371 C201.131,172.369 201.101,172.365 201.059,172.356 C200.975,172.337 200.865,172.302 200.734,172.252 C200.471,172.153 200.149,172.007 199.823,171.853 C199.516,171.708 199.161,171.534 198.918,171.419 C198.788,171.358 198.672,171.305 198.577,171.266 C198.53,171.246 198.486,171.229 198.446,171.216 C198.412,171.205 198.361,171.19 198.309,171.188 L198.297,171.437 Z M201.231,172.611 L201.31,172.848 C201.586,172.757 201.759,172.539 201.859,172.355 C201.91,172.261 201.947,172.167 201.971,172.087 C201.994,172.012 202.011,171.931 202.011,171.866 L201.761,171.865 L201.511,171.865 C201.511,171.86 201.509,171.887 201.492,171.943 C201.477,171.994 201.453,172.055 201.42,172.117 C201.351,172.244 201.259,172.338 201.152,172.374 L201.231,172.611 Z M201.761,171.865 L202.011,171.865 C202.011,171.828 202.003,171.797 201.999,171.785 C201.995,171.768 201.99,171.753 201.985,171.74 C201.975,171.714 201.962,171.684 201.949,171.655 C201.921,171.595 201.883,171.52 201.84,171.436 C201.753,171.269 201.637,171.058 201.523,170.852 C201.409,170.647 201.294,170.444 201.208,170.294 C201.165,170.219 201.13,170.156 201.105,170.113 C201.092,170.091 201.082,170.074 201.076,170.062 C201.072,170.056 201.07,170.052 201.068,170.049 C201.067,170.047 201.066,170.046 201.066,170.045 C201.066,170.045 201.065,170.044 201.065,170.044 C201.065,170.044 201.065,170.044 201.065,170.044 C201.065,170.044 201.065,170.044 201.065,170.044 C201.065,170.044 201.065,170.044 200.849,170.169 C200.632,170.294 200.632,170.294 200.632,170.294 C200.632,170.294 200.632,170.294 200.632,170.294 C200.632,170.294 200.632,170.294 200.632,170.294 C200.632,170.294 200.632,170.294 200.633,170.295 C200.633,170.296 200.634,170.297 200.635,170.298 C200.636,170.301 200.639,170.306 200.642,170.311 C200.649,170.323 200.659,170.34 200.671,170.361 C200.696,170.405 200.731,170.467 200.774,170.542 C200.859,170.691 200.973,170.892 201.086,171.096 C201.2,171.3 201.313,171.506 201.396,171.667 C201.439,171.748 201.472,171.815 201.494,171.864 C201.506,171.888 201.513,171.905 201.516,171.915 C201.518,171.92 201.518,171.919 201.517,171.916 C201.516,171.914 201.515,171.909 201.514,171.902 C201.513,171.896 201.511,171.883 201.511,171.865 L201.761,171.865 Z M200.849,170.169 L201.041,170.328 C201.003,170.375 201.029,170.305 201.431,170.147 L201.34,169.914 L201.248,169.681 C200.829,169.846 200.702,169.954 200.656,170.009 L200.849,170.169 Z M201.34,169.914 L201.34,170.164 L201.346,170.164 L201.346,169.914 L201.346,169.664 L201.34,169.664 L201.34,169.914 Z M201.346,169.914 L201.387,170.161 C201.5,170.142 201.591,170.128 201.659,170.121 C201.693,170.117 201.718,170.116 201.734,170.115 C201.756,170.115 201.748,170.117 201.727,170.112 L201.786,169.869 L201.846,169.626 C201.799,169.615 201.751,169.615 201.722,169.615 C201.686,169.616 201.647,169.619 201.606,169.624 C201.524,169.633 201.421,169.648 201.305,169.667 L201.346,169.914 Z M201.786,169.869 L201.724,170.111 C201.775,170.124 201.901,170.169 202.102,170.235 C202.292,170.298 202.532,170.374 202.783,170.439 C203.033,170.505 203.301,170.562 203.548,170.584 C203.786,170.606 204.045,170.6 204.248,170.503 L204.141,170.277 L204.033,170.052 C203.956,170.088 203.811,170.106 203.594,170.086 C203.385,170.067 203.147,170.018 202.909,169.956 C202.673,169.894 202.445,169.821 202.258,169.76 C202.082,169.702 201.921,169.646 201.848,169.627 L201.786,169.869 Z M204.141,170.277 L204.25,170.502 C204.457,170.402 204.694,170.295 204.947,170.179 L204.842,169.952 L204.737,169.725 C204.492,169.838 204.245,169.949 204.032,170.052 L204.141,170.277 Z M204.842,169.952 C204.959,170.173 204.959,170.173 204.959,170.173 C204.96,170.173 204.96,170.173 204.96,170.173 C204.96,170.172 204.96,170.172 204.96,170.172 C204.961,170.172 204.962,170.171 204.963,170.171 C204.966,170.169 204.969,170.167 204.974,170.165 C204.984,170.16 204.998,170.152 205.017,170.142 C205.055,170.122 205.11,170.092 205.182,170.053 C205.325,169.976 205.534,169.864 205.792,169.724 C206.309,169.443 207.029,169.05 207.838,168.599 C209.454,167.698 211.433,166.565 212.869,165.643 L212.733,165.432 L212.598,165.222 C211.176,166.136 209.209,167.262 207.594,168.162 C206.787,168.612 206.07,169.004 205.554,169.284 C205.296,169.424 205.088,169.536 204.945,169.613 C204.874,169.651 204.819,169.681 204.781,169.701 C204.762,169.711 204.748,169.719 204.739,169.724 C204.734,169.726 204.73,169.728 204.728,169.73 C204.727,169.73 204.726,169.731 204.725,169.731 C204.725,169.731 204.725,169.731 204.724,169.731 C204.724,169.731 204.724,169.731 204.724,169.731 C204.724,169.731 204.724,169.731 204.842,169.952 Z M212.733,165.432 L212.869,165.643 C214.518,164.583 217.588,162.727 219.949,161.309 L219.82,161.095 L219.692,160.88 C217.332,162.297 214.256,164.158 212.598,165.222 L212.733,165.432 Z M219.82,161.095 L220.037,160.97 C219.38,159.829 218.568,158.132 217.917,156.714 C217.592,156.006 217.309,155.37 217.106,154.911 C217.005,154.682 216.924,154.496 216.869,154.369 C216.841,154.305 216.82,154.255 216.805,154.222 C216.798,154.205 216.793,154.192 216.789,154.184 C216.787,154.179 216.786,154.176 216.785,154.174 C216.784,154.173 216.784,154.172 216.784,154.172 C216.784,154.171 216.784,154.171 216.784,154.171 C216.784,154.171 216.783,154.171 216.783,154.171 C216.783,154.171 216.783,154.171 216.554,154.269 C216.324,154.368 216.324,154.368 216.324,154.368 C216.324,154.368 216.324,154.368 216.324,154.368 C216.324,154.368 216.324,154.369 216.324,154.369 C216.325,154.369 216.325,154.37 216.325,154.371 C216.326,154.374 216.328,154.377 216.33,154.381 C216.333,154.39 216.339,154.403 216.346,154.42 C216.361,154.454 216.382,154.504 216.41,154.568 C216.466,154.696 216.547,154.882 216.649,155.113 C216.852,155.573 217.136,156.212 217.462,156.922 C218.113,158.341 218.934,160.057 219.604,161.219 L219.82,161.095 Z M216.554,154.269 L216.647,154.501 L225.91,150.766 L225.816,150.534 L225.723,150.302 L216.46,154.038 L216.554,154.269 Z" id="Shape" fill="#00402A" fill-rule="nonzero"></path>
            <path d="M213.792,144.209 C213.798,147.614 216.037,153.39 217.574,157.374 C217.574,157.374 220.305,156.973 222.876,155.831 C226.237,154.346 227.526,153.301 227.526,153.301 C227.111,151.579 224.553,142.928 223.252,140.665 C222.11,139.116 220.885,138.969 219.954,138.873 C217.441,138.618 213.766,140.684 213.784927,144.203 L213.792,144.209 Z" id="Path" stroke="#00402A" stroke-width="0.5" fill="#FFFFFF" fill-rule="nonzero" stroke-linejoin="round"></path>
            <path d="M175.331,158.05 C175.331,158.05 175.746,158.872 176.332,159.172 C176.919,159.471 178.769,160.74 179.05,161.359 C179.324,161.977 180.422,164.138 180.115,164.45 C179.809,164.763 178.31,164.183 176.97,163.207 C176.014,162.506 173.921,158.796 175.331,158.05 Z" id="Path" stroke="#00402A" stroke-width="0.5" fill="#FFD1A4" fill-rule="nonzero" stroke-linejoin="round"></path>
            <path d="M203.121,104.56 C203.121,105.297 203.717,105.894 204.454,105.894 C205.19,105.894 205.787,105.297 205.787,104.56 C205.787,103.824 205.19,103.227 204.454,103.227 C203.717,103.227 203.121,103.824 203.121,104.56 Z M204.454,80.4828 L204.204,80.4828 L204.204,104.56 L204.454,104.56 L204.704,104.56 L204.704,80.4828 L204.454,80.4828 Z" id="Shape" fill="#00402A" fill-rule="nonzero"></path>
        </g>
    </g>
</svg>