<?xml version="1.0" encoding="UTF-8"?>
<svg width="273px" height="228px" viewBox="0 0 273 228" version="1.1" xmlns="http://www.w3.org/2000/svg" xmlns:xlink="http://www.w3.org/1999/xlink">
    <title>ilustracion</title>
    <g id="Page-1" stroke="none" stroke-width="1" fill="none" fill-rule="evenodd">
        <g id="ilustracion" transform="translate(0, 17)" fill-rule="nonzero">
            <g id="4" transform="translate(0, -24)">
                <path d="M242.063,112.325 C243.553,113.185 243.57,114.585 242.086,115.445 L231.571,121.557 C230.087,122.423 227.669,122.418 226.179,121.557 L186.558,98.6812 C185.063,97.8152 185.051,96.4208 186.541,95.5605 L197.056,89.4484 C198.535,88.5881 200.947,88.5881 202.443,89.4484 L242.063,112.325 Z" id="Path" stroke="#00402A" stroke-width="0.2721" fill-opacity="0.5" fill="#DCEBE1" stroke-linejoin="round"></path>
                <path d="M214.503,99.3054 L214.503,96.9371 L215.259,96.9371 L215.259,99.3054 C215.259,99.3615 215.223,99.4177 215.149,99.4604 C215.001,99.5457 214.763,99.5457 214.615,99.4604 C214.541,99.4177 214.506,99.3615 214.506,99.3054 L214.503,99.3054 Z" id="Path" stroke="#00402A" stroke-width="0.2721" fill="#FFF5EC"></path>
                <path d="M212.093,96.0857 C212.093,97.6495 213.359,97.9777 214.92,97.9777 C216.481,97.9777 217.746,97.6495 217.746,96.0857 C217.746,94.5219 216.481,90.6489 214.92,90.6489 C213.359,90.6489 212.093,94.5225 212.093,96.0857 Z" id="Path" stroke="#00402A" stroke-width="0.2721" fill="#2F6852"></path>
                <path d="M233.614,110.332 L233.614,107.121 L234.639,107.121 L234.639,110.332 C234.639,110.409 234.59,110.483 234.49,110.541 C234.289,110.657 233.965,110.657 233.765,110.541 C233.666,110.484 233.616,110.407 233.616,110.332 L233.614,110.332 L233.614,110.332 Z" id="Path" stroke="#00402A" stroke-width="0.2721" fill="#FFFEFF"></path>
                <path d="M234.125,110.658 C233.989,110.658 233.85,110.628 233.746,110.569 C233.639,110.507 233.579,110.422 233.579,110.33 L233.579,107.118 C233.579,107.099 233.594,107.087 233.611,107.087 L234.636,107.087 C234.653,107.087 234.668,107.101 234.668,107.118 L234.668,110.33 C234.668,110.421 234.608,110.505 234.501,110.569 C234.397,110.628 234.261,110.658 234.122,110.658 L234.124,110.658 L234.125,110.658 Z" id="Path" stroke="#00402A" stroke-width="0.2721" fill="#FFF5EC"></path>
                <path d="M233.763,106.911 C233.562,107.026 233.562,107.214 233.763,107.329 C233.963,107.445 234.287,107.445 234.487,107.329 C234.687,107.214 234.687,107.026 234.487,106.911 C234.287,106.796 233.963,106.796 233.763,106.911 Z" id="Path" stroke="#00402A" stroke-width="0.2721" fill="#FFFEFF"></path>
                <path d="M234.125,107.449 C233.989,107.449 233.85,107.419 233.746,107.359 C233.639,107.298 233.579,107.212 233.579,107.12 C233.579,107.028 233.639,106.945 233.746,106.881 C233.955,106.76 234.293,106.76 234.502,106.881 C234.609,106.943 234.668,107.028 234.668,107.12 C234.668,107.212 234.609,107.295 234.502,107.359 C234.398,107.419 234.261,107.449 234.123,107.449 L234.124,107.449 L234.125,107.449 Z M233.78,106.939 C233.694,106.988 233.646,107.052 233.646,107.12 C233.646,107.189 233.693,107.25 233.78,107.301 C233.969,107.412 234.28,107.412 234.472,107.301 C234.557,107.253 234.606,107.189 234.606,107.12 C234.606,107.052 234.559,106.99 234.472,106.939 C234.283,106.828 233.972,106.828 233.78,106.939 Z" id="Shape" stroke="#00402A" stroke-width="0.2721" fill="#00402A"></path>
                <path d="M231.849,105.917 L233.777,102.121 L234.472,102.121 L236.401,105.917 C236.637,106.382 236.439,106.907 235.802,107.274 C234.875,107.809 233.373,107.809 232.446,107.274 C231.811,106.907 231.611,106.382 231.847,105.917 L231.849,105.917 Z" id="Path" stroke="#00402A" stroke-width="0.2721" fill="#00A443"></path>
                <path d="M233.869,102.031 C233.728,102.112 233.728,102.245 233.869,102.327 C234.01,102.409 234.24,102.409 234.381,102.327 C234.521,102.246 234.521,102.114 234.381,102.031 C234.24,101.95 234.01,101.95 233.869,102.031 Z" id="Path" stroke="#00402A" stroke-width="0.2721" fill="#FFFEFF"></path>
                <path d="M234.125,102.421 C234.027,102.421 233.929,102.4 233.852,102.356 C233.774,102.311 233.729,102.247 233.729,102.179 C233.729,102.11 233.771,102.049 233.852,102.002 C234.006,101.915 234.245,101.915 234.398,102.002 C234.477,102.046 234.522,102.11 234.522,102.179 C234.522,102.247 234.479,102.309 234.398,102.356 C234.321,102.4 234.223,102.421 234.125,102.421 Z M233.887,102.059 C233.829,102.093 233.797,102.135 233.797,102.178 C233.797,102.221 233.829,102.263 233.887,102.298 C234.019,102.374 234.234,102.374 234.366,102.298 C234.423,102.263 234.455,102.221 234.455,102.178 C234.455,102.135 234.424,102.093 234.366,102.059 C234.234,101.982 234.019,101.982 233.887,102.059 Z" id="Shape" stroke="#00402A" stroke-width="0.2721" fill="#00402A"></path>
                <path d="M232.363,103.234 L233.857,100.297 L234.396,100.297 L235.889,103.234 C236.073,103.595 235.919,104.001 235.427,104.287 C234.709,104.701 233.546,104.701 232.829,104.287 C232.337,104.003 232.181,103.595 232.367,103.234 L232.363,103.234 L232.363,103.234 Z" id="Path" stroke="#00402A" stroke-width="0.2721" fill="#00A443"></path>
                <path d="M233.927,100.226 C233.819,100.29 233.819,100.393 233.927,100.454 C234.036,100.519 234.215,100.519 234.324,100.454 C234.432,100.39 234.432,100.288 234.324,100.226 C234.215,100.162 234.036,100.162 233.927,100.226 Z" id="Path" stroke="#00402A" stroke-width="0.2721" fill="#FFFEFF"></path>
                <path d="M234.125,100.537 C234.048,100.537 233.97,100.52 233.91,100.486 C233.846,100.45 233.812,100.399 233.812,100.344 C233.812,100.288 233.846,100.237 233.91,100.201 C234.029,100.131 234.219,100.131 234.341,100.201 C234.405,100.237 234.439,100.288 234.439,100.344 C234.439,100.399 234.405,100.45 234.341,100.486 C234.281,100.52 234.204,100.537 234.126,100.537 L234.125,100.537 Z M234.125,100.213 C234.059,100.213 233.993,100.228 233.944,100.256 C233.902,100.279 233.878,100.311 233.878,100.341 C233.878,100.371 233.902,100.403 233.944,100.426 C234.042,100.484 234.209,100.484 234.308,100.426 C234.351,100.403 234.374,100.371 234.374,100.341 C234.374,100.311 234.351,100.279 234.308,100.256 C234.26,100.228 234.193,100.213 234.127,100.213 L234.126,100.213 L234.125,100.213 Z" id="Shape" stroke="#00402A" stroke-width="0.2721" fill="#00402A"></path>
                <path d="M232.929,100.753 L233.944,98.7583 L234.308,98.7583 L235.322,100.753 C235.445,100.999 235.341,101.274 235.006,101.466 C234.518,101.748 233.73,101.748 233.242,101.466 C232.908,101.272 232.803,100.997 232.926,100.753 L232.928,100.753 L232.929,100.753 Z" id="Path" stroke="#00402A" stroke-width="0.2721" fill="#00A443"></path>
                <path d="M233.991,98.7132 C233.917,98.7559 233.917,98.826 233.991,98.8687 C234.066,98.9114 234.185,98.9114 234.26,98.8687 C234.334,98.826 234.334,98.7559 234.26,98.7132 C234.186,98.6705 234.066,98.6705 233.991,98.7132 Z" id="Path" stroke="#00402A" stroke-width="0.2721" fill="#00A443"></path>
                <path d="M199.587,94.7156 L199.587,92.3473 L200.342,92.3473 L200.342,94.7156 C200.342,94.7717 200.307,94.8278 200.233,94.8705 C200.085,94.9559 199.847,94.9559 199.699,94.8705 C199.624,94.8278 199.589,94.7717 199.589,94.7156 L199.587,94.7156 Z" id="Path" stroke="#00402A" stroke-width="0.2721" fill="#FFF5EC"></path>
                <path d="M197.177,91.4959 C197.177,93.0597 198.442,93.3878 200.003,93.3878 C201.564,93.3878 202.83,93.0597 202.83,91.4959 C202.83,89.932 201.564,86.0591 200.003,86.0591 C198.442,86.0591 197.177,89.9327 197.177,91.4959 Z" id="Path" stroke="#00402A" stroke-width="0.2721" fill="#2F6852"></path>
                <path d="M239.925,114.348 L239.925,111.137 L240.95,111.137 L240.95,114.348 C240.95,114.425 240.901,114.499 240.801,114.557 C240.6,114.673 240.276,114.673 240.076,114.557 C239.977,114.5 239.927,114.423 239.927,114.348 L239.925,114.348 L239.925,114.348 Z" id="Path" stroke="#00402A" stroke-width="0.2721" fill="#FFFEFF"></path>
                <path d="M240.436,114.674 C240.299,114.674 240.161,114.645 240.056,114.585 C239.95,114.523 239.89,114.438 239.89,114.346 L239.89,111.134 C239.89,111.116 239.905,111.103 239.922,111.103 L240.947,111.103 C240.964,111.103 240.978,111.117 240.978,111.134 L240.978,114.346 C240.978,114.437 240.919,114.521 240.812,114.585 C240.708,114.645 240.571,114.674 240.433,114.674 L240.434,114.674 L240.436,114.674 Z" id="Path" stroke="#00402A" stroke-width="0.2721" fill="#FFF5EC"></path>
                <path d="M240.073,110.928 C239.873,111.043 239.873,111.231 240.073,111.346 C240.274,111.461 240.598,111.461 240.798,111.346 C240.997,111.231 240.998,111.043 240.798,110.928 C240.597,110.812 240.273,110.812 240.073,110.928 Z" id="Path" stroke="#00402A" stroke-width="0.2721" fill="#FFFEFF"></path>
                <path d="M240.436,111.465 C240.299,111.465 240.161,111.435 240.056,111.375 C239.95,111.314 239.89,111.228 239.89,111.136 C239.89,111.044 239.95,110.961 240.056,110.897 C240.265,110.776 240.604,110.776 240.813,110.897 C240.919,110.959 240.979,111.044 240.979,111.136 C240.979,111.228 240.919,111.311 240.813,111.375 C240.708,111.435 240.572,111.465 240.433,111.465 L240.435,111.465 L240.436,111.465 Z M240.09,110.955 C240.005,111.004 239.956,111.068 239.956,111.136 C239.956,111.205 240.003,111.266 240.09,111.318 C240.28,111.429 240.591,111.429 240.783,111.318 C240.868,111.269 240.917,111.205 240.917,111.136 C240.917,111.068 240.87,111.006 240.783,110.955 C240.593,110.844 240.282,110.844 240.09,110.955 Z" id="Shape" stroke="#00402A" stroke-width="0.2721" fill="#00402A"></path>
                <path d="M238.16,109.933 L240.088,106.137 L240.783,106.137 L242.712,109.933 C242.948,110.398 242.75,110.923 242.113,111.29 C241.186,111.826 239.684,111.826 238.757,111.29 C238.122,110.923 237.922,110.398 238.158,109.933 L238.16,109.933 Z" id="Path" stroke="#00402A" stroke-width="0.2721" fill="#008C39"></path>
                <path d="M240.18,106.048 C240.039,106.129 240.039,106.261 240.18,106.344 C240.32,106.425 240.551,106.425 240.691,106.344 C240.832,106.263 240.832,106.131 240.691,106.048 C240.551,105.967 240.32,105.967 240.18,106.048 Z" id="Path" stroke="#00402A" stroke-width="0.2721" fill="#FFFEFF"></path>
                <path d="M240.436,106.438 C240.337,106.438 240.239,106.417 240.163,106.372 C240.084,106.328 240.039,106.264 240.039,106.195 C240.039,106.127 240.082,106.066 240.163,106.019 C240.316,105.931 240.555,105.931 240.708,106.019 C240.787,106.063 240.832,106.127 240.832,106.195 C240.832,106.264 240.789,106.325 240.708,106.372 C240.632,106.417 240.534,106.438 240.436,106.438 Z M240.197,106.075 C240.14,106.109 240.107,106.152 240.107,106.195 C240.107,106.237 240.139,106.28 240.197,106.314 C240.329,106.391 240.544,106.391 240.676,106.314 C240.733,106.28 240.766,106.237 240.766,106.195 C240.766,106.152 240.734,106.109 240.676,106.075 C240.544,105.998 240.329,105.998 240.197,106.075 Z" id="Shape" stroke="#00402A" stroke-width="0.2721" fill="#00402A"></path>
                <path d="M238.674,107.251 L240.167,104.313 L240.706,104.313 L242.199,107.251 C242.383,107.612 242.229,108.017 241.737,108.303 C241.019,108.717 239.856,108.717 239.139,108.303 C238.647,108.02 238.491,107.612 238.677,107.251 L238.673,107.251 L238.674,107.251 Z" id="Path" stroke="#00402A" stroke-width="0.2721" fill="#008C39"></path>
                <path d="M240.238,104.242 C240.129,104.307 240.129,104.409 240.238,104.471 C240.346,104.535 240.525,104.535 240.634,104.471 C240.742,104.407 240.742,104.304 240.634,104.242 C240.526,104.178 240.347,104.178 240.238,104.242 Z" id="Path" stroke="#00402A" stroke-width="0.2721" fill="#FFFEFF"></path>
                <path d="M240.436,104.554 C240.359,104.554 240.28,104.537 240.221,104.503 C240.157,104.467 240.123,104.416 240.123,104.36 C240.123,104.305 240.157,104.254 240.221,104.218 C240.34,104.147 240.529,104.147 240.651,104.218 C240.715,104.254 240.749,104.305 240.749,104.36 C240.749,104.416 240.715,104.467 240.651,104.503 C240.592,104.537 240.515,104.554 240.436,104.554 L240.436,104.554 Z M240.436,104.23 C240.37,104.23 240.303,104.244 240.255,104.272 C240.212,104.296 240.189,104.328 240.189,104.358 C240.189,104.388 240.212,104.419 240.255,104.443 C240.353,104.501 240.519,104.501 240.619,104.443 C240.662,104.42 240.685,104.388 240.685,104.358 C240.685,104.328 240.662,104.296 240.619,104.272 C240.57,104.245 240.504,104.23 240.438,104.23 L240.436,104.23 L240.436,104.23 Z" id="Shape" stroke="#00402A" stroke-width="0.2721" fill="#00402A"></path>
                <path d="M239.24,104.769 L240.254,102.774 L240.618,102.774 L241.632,104.769 C241.756,105.015 241.651,105.29 241.317,105.482 C240.829,105.764 240.04,105.764 239.552,105.482 C239.218,105.288 239.113,105.013 239.237,104.769 L239.239,104.769 L239.24,104.769 Z" id="Path" stroke="#00402A" stroke-width="0.2721" fill="#008C39"></path>
                <path d="M240.301,102.729 C240.227,102.772 240.227,102.842 240.301,102.885 C240.376,102.928 240.495,102.928 240.57,102.885 C240.644,102.842 240.644,102.772 240.57,102.729 C240.496,102.687 240.376,102.687 240.301,102.729 Z" id="Path" stroke="#00402A" stroke-width="0.2721" fill="#008C39"></path>
                <path d="M225.861,113.284 L231.311,110.091 C231.898,109.744 231.898,108.886 231.311,108.54 L225.309,105.025 C224.591,104.602 223.706,104.602 222.987,105.025 L217.537,108.218 C216.95,108.564 216.95,109.422 217.537,109.768 L223.539,113.284 C224.257,113.707 225.142,113.707 225.861,113.284 Z" id="Path" stroke="#00402A" stroke-width="0.2721" fill="#A2BCB1" stroke-linejoin="round"></path>
                <path d="M224.956,106.905 C226.678,106.921 228.885,107.131 228.429,109.068 C227.972,111.005 226.631,111.705 224.134,111.262 C221.638,110.819 219.03,109.039 221.118,107.771 C223.205,106.502 223.614,106.893 224.956,106.905 Z" id="Path" stroke="#00402A" stroke-width="0.2721" fill="#C66D00" stroke-linejoin="round"></path>
                <path d="M210.849,100.277 C210.531,100.293 210.154,100.43 210.079,100.784 C210.004,101.138 210.079,102.02 210.079,102.02 C210.079,102.02 209.976,102.427 211.004,103.055 C212.032,103.683 212.564,104.207 213.901,104.976 C215.239,105.745 216.295,105.725 216.771,105.52 C217.243,105.314 218.109,104.553 217.39,104.026 C216.672,103.498 210.853,100.273 210.853,100.273 L210.849,100.277 Z" id="Path" stroke="#00402A" stroke-width="0.2721" fill="#003020" stroke-linejoin="round"></path>
                <path d="M195.186,89.1862 C195.186,89.1862 195.274,88.852 194.928,88.4613 C194.583,88.0667 194.099,88.1674 193.837,88.2761 C193.65,88.3526 192.765,88.7352 192.741,89.7299 C192.721,90.5594 192.832,91.0387 192.872,91.5742 C192.916,92.1139 192.686,94.667 193.174,95.7422 C193.471,96.4027 193.952,96.6201 194.579,96.5476 C195.21,96.4752 195.182,89.1862 195.182,89.1862 L195.186,89.1862 Z" id="Path" stroke="#00402A" stroke-width="0.2721" fill="#003020" stroke-linejoin="round"></path>
                <path d="M213.6,100.45 C213.6,100.45 214.366,101.167 215.112,101.473 C215.858,101.779 217.41,103.204 217.624,103.7 C217.839,104.195 217.021,105.113 216.275,105.169 C215.529,105.226 213.703,104.199 213.548,104.042 C213.389,103.889 211.528,102.298 211,102.036 C210.476,101.775 210.011,101.364 210.23,100.446 C210.448,99.5276 211.222,99.1652 211.968,99.1652 C212.714,99.1652 213.6,100.446 213.6,100.446 L213.6,100.45 Z" id="Path" stroke="#00402A" stroke-width="0.2721" fill="#3A3735" stroke-linejoin="round"></path>
                <path d="M197.338,91.401 C196.965,91.1111 196.52,90.4265 196.413,89.7419 C196.349,89.3352 195.98,89.013 195.139,88.5781 C194.952,88.4814 194.635,88.5539 194.635,88.5539 C194.635,88.5539 193.575,88.8398 193.495,89.601 C193.376,90.7487 193.773,92.2507 193.718,93.0924 C193.662,93.9381 193.587,95.4683 193.793,95.9194 C194.21,96.8295 195.424,96.7691 195.833,95.8026 C195.984,95.4402 196.151,93.8898 196.151,93.8898 L196.607,92.6293 L197.338,91.4051 L197.338,91.401 Z" id="Path" stroke="#00402A" stroke-width="0.2721" fill="#3A3735" stroke-linejoin="round"></path>
                <path d="M207.38,88.2197 C208.432,89.2104 215.287,92.6857 216.704,92.8226 C218.121,92.9595 219.117,92.4521 219.518,91.9085 C219.919,91.3648 219.363,90.1567 218.692,89.2426 C218.021,88.3284 213.822,84.9175 211.869,83.6933 C209.916,82.4691 208.094,81.7724 206.693,82.2959 C205.292,82.8195 207.38,88.2197 207.38,88.2197 Z" id="Path" stroke="#00402A" stroke-width="0.2721" fill="#007F33" stroke-linejoin="round"></path>
                <path d="M218.303,90.4386 C218.474,90.5393 219.605,91.7393 219.605,91.7393 C219.605,91.7393 219.22,92.8427 218.803,93.4105 C217.906,94.6227 215.263,99.133 213.969,100.981 C212.389,102.169 210.158,100.333 211.008,98.9356 C211.468,98.1745 213.084,90.8614 215.326,89.9473 C217.565,89.0331 218.303,90.4386 218.303,90.4386 Z" id="Path" stroke="#00402A" stroke-width="0.2721" fill="#007F33" stroke-linejoin="round"></path>
                <path d="M206.193,100.555 C206.193,100.555 207.431,102.028 206.102,101.823 C204.772,101.618 203.633,100.792 201.759,99.4471 C199.882,98.1021 195.278,94.0388 195.143,93.8656 C195.008,93.6925 193.976,92.4562 194.678,91.1232 C195.484,89.5889 196.349,89.8024 196.615,89.9634 C196.746,90.04 202.918,94.1636 203.625,94.6711 C204.331,95.1744 206.189,100.555 206.189,100.555 L206.193,100.555 Z" id="Path" stroke="#00402A" stroke-width="0.2721" fill="#00A443" stroke-linejoin="round"></path>
                <path d="M208.031,85.7149 C208.086,85.7712 209.103,88.1029 208.817,88.8801 C208.531,89.6573 207.801,89.9473 207.65,90.3379 C207.495,90.7245 208.793,97.498 208.908,98.6819 C209.023,99.8659 208.757,100.933 207.316,101.65 C206.348,102.133 204.911,101.718 204.51,100.575 C204.109,99.4309 203.554,97.0026 203.208,96.1449 C202.863,95.2912 201.37,93.6401 200.434,89.4036 C199.497,85.1672 200.604,82.7026 203.303,81.4019 C206.003,80.1012 207.134,80.528 207.689,80.6851 C208.245,80.8421 208.035,85.7149 208.035,85.7149 L208.031,85.7149 Z" id="Path" stroke="#00402A" stroke-width="0.2721" fill="#00A443" stroke-linejoin="round"></path>
                <path d="M200.35,84.7685 C200.128,86.0612 200.426,87.1606 201.505,88.0787 C202.581,88.9969 205.383,89.6533 206.443,89.6976 C207.507,89.7419 209.372,88.57 209.718,88.4331 C210.063,88.2962 213.012,88.1311 213.393,88.0787 C213.774,88.0264 216.839,88.2197 218.275,84.9175 C219.712,81.6153 219.407,81.0717 218.657,80.2179 C217.91,79.3642 216.033,78.5467 212.512,78.3937 C208.991,78.2366 206.213,79.6381 204.089,80.8019 C201.966,81.9657 200.843,82.6422 200.35,84.7725 L200.35,84.7685 Z" id="Path" stroke="#00402A" stroke-width="0.2721" fill="#FFF5EC" stroke-linejoin="round"></path>
                <path d="M211.801,78.6273 C215.39,79.2514 219.569,82.4046 218.418,84.2732 C217.267,86.1377 216.676,86.8424 216.676,86.8424 C216.676,86.8424 216.616,86.923 216.946,86.8424 C217.275,86.7619 218.621,85.6665 218.99,84.3497 C219.359,83.0328 219.764,81.5549 217.485,80.2622 C215.203,78.9696 211.797,78.6273 211.797,78.6273 L211.801,78.6273 Z" id="Path" stroke="#00402A" stroke-width="0.2721" fill="#007F33" stroke-linejoin="round"></path>
                <path d="M205.685,80.4918 C209.547,79.5978 213.731,81.4784 214.409,83.6732 C215.088,85.8679 214.687,87.4344 212.572,87.3378 C210.456,87.2451 213.437,87.7123 214.131,87.6358 C214.826,87.5593 216.049,86.919 215.803,84.7403 C215.556,82.5617 214.933,82.1509 213.683,81.1804 C212.433,80.2099 211.166,79.2676 207.721,79.4085 C206.796,79.7065 205.685,80.4878 205.685,80.4878 L205.685,80.4918 Z" id="Path" stroke="#00402A" stroke-width="0.2721" fill="#007F33" stroke-linejoin="round"></path>
                <path d="M200.152,85.7873 C200.402,82.8516 201.501,82.1711 203.653,81.0395 C205.804,79.9119 206.606,79.477 207.594,79.1629 C208.583,78.8487 209.507,78.6273 209.507,78.6273 C209.507,78.6273 206.987,79.932 206.717,80.3549 C206.447,80.7777 203.947,82.8476 204.181,84.4906 C204.411,86.1337 206.701,87.5149 208.356,86.2988 C210.012,85.0826 212.933,86.1337 212.933,86.1337 C212.933,86.1337 213.123,87.0599 214.997,86.7619 C216.874,86.4639 217.176,86.5847 217.176,86.5847 C217.176,86.5847 215.922,88.2156 213.862,88.1754 C211.802,88.1351 209.722,88.4774 208.666,89.0935 C207.61,89.7097 206.566,89.9473 205.824,89.8506 C205.082,89.758 201.934,89.0734 200.89,87.9217 C199.846,86.7699 200.152,85.7833 200.152,85.7833 L200.152,85.7873 Z" id="Path" stroke="#00402A" stroke-width="0.2721" fill="#00A443" stroke-linejoin="round"></path>
                <path d="M222.462,83.0449 C222.455,83.0461 222.445,83.0485 222.432,83.0508 C222.405,83.0554 222.365,83.0622 222.315,83.0713 C222.216,83.0895 222.074,83.1168 221.903,83.1523 C221.562,83.2235 221.104,83.3294 220.641,83.4668 C220.178,83.6039 219.702,83.7749 219.329,83.9775 C219.143,84.0788 218.976,84.1907 218.849,84.3145 C218.722,84.438 218.626,84.5817 218.598,84.7451 C218.506,85.2704 218.571,85.9813 218.679,86.6406 C218.787,87.304 218.944,87.9321 219.046,88.2998 C219.145,88.6558 219.313,89.6329 219.488,90.6484 C219.66,91.6439 219.84,92.6738 219.963,93.1475 C219.969,93.279 220.014,93.5018 220.083,93.7783 C220.156,94.0719 220.26,94.4424 220.382,94.8613 C220.626,95.6999 220.949,96.7425 221.268,97.7773 C221.586,98.8131 221.9,99.8433 222.129,100.659 C222.243,101.067 222.336,101.42 222.396,101.692 C222.427,101.829 222.449,101.945 222.462,102.035 C222.475,102.129 222.478,102.186 222.475,102.212 C222.425,102.599 222.462,102.969 222.549,103.279 C222.635,103.587 222.774,103.847 222.935,104.006 C223.081,104.151 223.288,104.306 223.452,104.424 C223.503,104.46 223.552,104.492 223.594,104.521 C223.566,104.544 223.535,104.568 223.505,104.597 C223.445,104.655 223.381,104.725 223.331,104.803 C223.282,104.879 223.239,104.973 223.239,105.076 C223.239,105.182 223.288,105.281 223.34,105.358 C223.394,105.439 223.464,105.515 223.529,105.577 C223.595,105.64 223.662,105.694 223.711,105.731 C223.735,105.75 223.756,105.765 223.771,105.775 C223.778,105.78 223.784,105.785 223.788,105.788 C223.79,105.789 223.792,105.79 223.793,105.791 L223.795,105.793 C223.806,105.801 223.82,105.807 223.833,105.811 L223.834,105.812 L223.836,105.812 C223.838,105.812 223.841,105.813 223.845,105.814 C223.852,105.817 223.865,105.82 223.879,105.824 C223.908,105.833 223.95,105.845 224.001,105.859 C224.103,105.888 224.241,105.925 224.386,105.961 C224.53,105.997 224.684,106.033 224.814,106.056 C224.879,106.067 224.942,106.076 224.995,106.08 C225.045,106.084 225.102,106.085 225.149,106.074 C225.236,106.054 225.322,105.99 225.394,105.925 C225.47,105.855 225.55,105.766 225.622,105.672 C225.695,105.577 225.762,105.474 225.815,105.374 C225.867,105.277 225.91,105.173 225.923,105.079 C225.942,104.94 225.986,104.651 226.009,104.366 C226.02,104.224 226.027,104.078 226.022,103.95 C226.018,103.828 226.003,103.702 225.959,103.611 L225.958,103.61 C225.921,103.537 225.847,103.424 225.755,103.287 C225.659,103.145 225.541,102.974 225.406,102.773 C225.14,102.377 224.819,101.878 224.526,101.335 C224.498,101.244 224.466,101.063 224.434,100.803 C224.401,100.536 224.368,100.197 224.334,99.8086 C224.267,99.0312 224.198,98.0591 224.126,97.0762 C224.054,96.0942 223.979,95.1005 223.897,94.2832 C223.857,93.8748 223.814,93.5083 223.77,93.209 C223.728,92.9263 223.683,92.6945 223.634,92.542 C223.63,92.4468 223.611,92.3159 223.582,92.1631 C223.551,91.9988 223.507,91.7997 223.456,91.5752 C223.353,91.1242 223.219,90.5683 223.088,89.9639 C222.826,88.753 222.582,87.3702 222.631,86.3047 C222.681,85.2166 222.68,84.4331 222.668,83.9209 C222.662,83.6648 222.652,83.4764 222.645,83.3516 C222.641,83.2895 222.637,83.2431 222.635,83.2119 C222.633,83.1963 222.633,83.1837 222.632,83.1758 C222.631,83.172 222.631,83.169 222.631,83.167 L222.63,83.165 L222.63,83.1641 L222.613,83.1113 C222.604,83.0954 222.592,83.0807 222.577,83.0693 C222.548,83.0469 222.509,83.0381 222.473,83.0439 L222.47,83.0439 C222.468,83.0442 222.465,83.0444 222.462,83.0449 Z" id="Path" fill="#FAB189"></path>
                <path d="M222.462,83.0449 L222.439,82.9108 L222.441,82.9106 L222.462,83.0449 Z M222.432,83.0508 L222.455,83.1848 L222.455,83.1848 L222.432,83.0508 Z M222.315,83.0713 L222.291,82.9375 L222.291,82.9375 L222.315,83.0713 Z M221.903,83.1523 L221.876,83.0192 L221.876,83.0192 L221.903,83.1523 Z M220.641,83.4668 L220.602,83.3364 L220.602,83.3364 L220.641,83.4668 Z M219.329,83.9775 L219.264,83.858 L219.264,83.858 L219.329,83.9775 Z M218.598,84.7451 L218.464,84.7218 L218.464,84.7217 L218.598,84.7451 Z M218.679,86.6406 L218.544,86.6626 L218.544,86.6626 L218.679,86.6406 Z M219.046,88.2998 L219.177,88.2634 L219.177,88.2634 L219.046,88.2998 Z M219.488,90.6484 L219.354,90.6716 L219.354,90.6716 L219.488,90.6484 Z M219.963,93.1475 L220.095,93.1133 C220.097,93.1223 220.098,93.1314 220.099,93.1407 L219.963,93.1475 Z M220.083,93.7783 L219.951,93.8113 L219.951,93.8113 L220.083,93.7783 Z M220.382,94.8613 L220.251,94.8994 L220.251,94.8994 L220.382,94.8613 Z M221.268,97.7773 L221.398,97.7374 L221.398,97.7374 L221.268,97.7773 Z M222.129,100.659 L222.26,100.622 L222.26,100.622 L222.129,100.659 Z M222.396,101.692 L222.529,101.663 L222.529,101.663 L222.396,101.692 Z M222.462,102.035 L222.597,102.016 L222.597,102.016 L222.462,102.035 Z M222.475,102.212 L222.61,102.229 L222.61,102.229 L222.475,102.212 Z M222.549,103.279 L222.418,103.316 L222.418,103.316 L222.549,103.279 Z M223.452,104.424 L223.373,104.535 L223.373,104.535 L223.452,104.424 Z M223.594,104.521 L223.67,104.408 C223.706,104.432 223.727,104.471 223.73,104.514 C223.732,104.556 223.714,104.597 223.682,104.624 L223.594,104.521 Z M223.331,104.803 L223.217,104.729 L223.217,104.729 L223.331,104.803 Z M223.239,105.076 L223.103,105.076 L223.103,105.076 L223.239,105.076 Z M223.34,105.358 L223.227,105.434 L223.227,105.434 L223.34,105.358 Z M223.711,105.731 L223.628,105.839 L223.628,105.839 L223.711,105.731 Z M223.771,105.775 L223.85,105.665 L223.85,105.665 L223.771,105.775 Z M223.788,105.788 L223.71,105.9 L223.71,105.899 L223.788,105.788 Z M223.793,105.791 L223.863,105.675 C223.873,105.68 223.881,105.687 223.889,105.695 L223.793,105.791 Z M223.795,105.793 L223.718,105.905 C223.711,105.901 223.705,105.895 223.699,105.889 L223.795,105.793 Z M223.833,105.811 L223.872,105.68 C223.894,105.687 223.913,105.698 223.929,105.714 L223.833,105.811 Z M223.834,105.812 L223.834,105.948 C223.798,105.948 223.763,105.933 223.738,105.908 L223.834,105.812 Z M223.836,105.812 L223.836,105.675 C223.849,105.675 223.862,105.677 223.874,105.681 L223.836,105.812 Z M223.845,105.814 L223.806,105.945 L223.805,105.945 L223.845,105.814 Z M223.879,105.824 L223.917,105.694 L223.917,105.694 L223.879,105.824 Z M224.001,105.859 L223.964,105.99 L223.964,105.99 L224.001,105.859 Z M224.386,105.961 L224.353,106.093 L224.353,106.093 L224.386,105.961 Z M224.814,106.056 L224.791,106.19 L224.791,106.19 L224.814,106.056 Z M224.995,106.08 L224.984,106.216 L224.984,106.216 L224.995,106.08 Z M225.149,106.074 L225.181,106.207 L225.181,106.207 L225.149,106.074 Z M225.394,105.925 L225.485,106.026 L225.485,106.026 L225.394,105.925 Z M225.622,105.672 L225.73,105.755 L225.73,105.755 L225.622,105.672 Z M225.815,105.374 L225.936,105.438 L225.936,105.438 L225.815,105.374 Z M225.923,105.079 L225.788,105.06 L225.788,105.06 L225.923,105.079 Z M226.009,104.366 L226.144,104.377 L226.144,104.377 L226.009,104.366 Z M226.022,103.95 L226.158,103.945 L226.158,103.945 L226.022,103.95 Z M225.959,103.611 L226.055,103.515 C226.066,103.526 226.075,103.538 226.081,103.552 L225.959,103.611 Z M225.958,103.61 L225.862,103.707 C225.852,103.696 225.843,103.684 225.836,103.671 L225.958,103.61 Z M225.755,103.287 L225.868,103.211 L225.868,103.211 L225.755,103.287 Z M225.406,102.773 L225.293,102.849 L225.293,102.849 L225.406,102.773 Z M224.526,101.335 L224.407,101.4 C224.402,101.392 224.399,101.383 224.396,101.375 L224.526,101.335 Z M224.434,100.803 L224.299,100.82 L224.299,100.82 L224.434,100.803 Z M224.334,99.8086 L224.198,99.8203 L224.198,99.8203 L224.334,99.8086 Z M224.126,97.0762 L224.262,97.0662 L224.262,97.0662 L224.126,97.0762 Z M223.897,94.2832 L224.033,94.2697 L224.033,94.2697 L223.897,94.2832 Z M223.77,93.209 L223.904,93.1891 L223.904,93.1891 L223.77,93.209 Z M223.634,92.542 L223.504,92.5837 C223.5,92.5719 223.498,92.5595 223.498,92.5471 L223.634,92.542 Z M223.582,92.1631 L223.716,92.1376 L223.716,92.1377 L223.582,92.1631 Z M223.456,91.5752 L223.589,91.5449 L223.589,91.5449 L223.456,91.5752 Z M223.088,89.9639 L222.955,89.9926 L222.955,89.9926 L223.088,89.9639 Z M222.631,86.3047 L222.767,86.3109 L222.767,86.3109 L222.631,86.3047 Z M222.668,83.9209 L222.804,83.9176 L222.804,83.9176 L222.668,83.9209 Z M222.645,83.3516 L222.78,83.343 L222.78,83.343 L222.645,83.3516 Z M222.635,83.2119 L222.77,83.2006 L222.77,83.2006 L222.635,83.2119 Z M222.632,83.1758 L222.767,83.163 L222.767,83.1631 L222.632,83.1758 Z M222.631,83.167 L222.753,83.1061 C222.76,83.121 222.765,83.1371 222.766,83.1536 L222.631,83.167 Z M222.63,83.165 L222.508,83.2259 C222.499,83.207 222.494,83.1862 222.494,83.165 L222.63,83.165 Z M222.63,83.1641 L222.76,83.1232 C222.764,83.1364 222.766,83.1502 222.766,83.1641 L222.63,83.1641 Z M222.613,83.1113 L222.732,83.0448 C222.737,83.053 222.74,83.0616 222.743,83.0705 L222.613,83.1113 Z M222.577,83.0693 L222.659,82.961 L222.66,82.9614 L222.577,83.0693 Z M222.473,83.0439 L222.494,83.1783 C222.487,83.1794 222.48,83.18 222.473,83.18 L222.473,83.0439 Z M222.47,83.0439 L222.447,82.9097 C222.455,82.9085 222.462,82.9079 222.47,82.9079 L222.47,83.0439 Z M222.462,83.0449 L222.484,83.1791 C222.485,83.179 222.484,83.1791 222.483,83.1794 C222.481,83.1798 222.479,83.1801 222.476,83.1807 C222.471,83.1818 222.463,83.1833 222.455,83.1848 L222.432,83.0508 L222.408,82.9167 C222.413,82.916 222.417,82.9151 222.422,82.9141 C222.424,82.9137 222.427,82.9131 222.43,82.9126 C222.432,82.9121 222.436,82.9114 222.439,82.9108 L222.462,83.0449 Z M222.432,83.0508 L222.455,83.1848 C222.428,83.1895 222.389,83.1962 222.34,83.2051 L222.315,83.0713 L222.291,82.9375 C222.341,82.9283 222.382,82.9213 222.408,82.9167 L222.432,83.0508 Z M222.315,83.0713 L222.34,83.2051 C222.242,83.2231 222.1,83.2502 221.931,83.2855 L221.903,83.1523 L221.876,83.0192 C222.047,82.9834 222.191,82.9558 222.291,82.9375 L222.315,83.0713 Z M221.903,83.1523 L221.931,83.2855 C221.592,83.3563 221.138,83.4612 220.679,83.5972 L220.641,83.4668 L220.602,83.3364 C221.071,83.1975 221.532,83.0908 221.876,83.0192 L221.903,83.1523 Z M220.641,83.4668 L220.679,83.5972 C220.22,83.7333 219.755,83.9011 219.394,84.0971 L219.329,83.9775 L219.264,83.858 C219.65,83.6486 220.136,83.4745 220.602,83.3364 L220.641,83.4668 Z M219.329,83.9775 L219.394,84.0971 C219.213,84.1952 219.058,84.3001 218.944,84.4119 L218.849,84.3145 L218.754,84.217 C218.893,84.0812 219.072,83.9624 219.264,83.858 L219.329,83.9775 Z M218.849,84.3145 L218.944,84.4118 C218.829,84.5238 218.754,84.6432 218.732,84.7685 L218.598,84.7451 L218.464,84.7217 C218.499,84.5203 218.615,84.3521 218.754,84.2171 L218.849,84.3145 Z M218.598,84.7451 L218.732,84.7685 C218.644,85.2697 218.705,85.9613 218.813,86.6186 L218.679,86.6406 L218.544,86.6626 C218.436,86.0013 218.368,85.2711 218.464,84.7218 L218.598,84.7451 Z M218.679,86.6406 L218.813,86.6186 C218.921,87.2758 219.076,87.8988 219.177,88.2634 L219.046,88.2998 L218.915,88.3362 C218.812,87.9653 218.654,87.3323 218.544,86.6626 L218.679,86.6406 Z M219.046,88.2998 L219.177,88.2634 C219.278,88.6279 219.448,89.6151 219.622,90.6253 L219.488,90.6484 L219.354,90.6716 C219.178,89.6506 219.011,88.6837 218.915,88.3362 L219.046,88.2998 Z M219.488,90.6484 L219.622,90.6253 C219.795,91.6241 219.974,92.6466 220.095,93.1133 L219.963,93.1475 L219.831,93.1816 C219.707,92.701 219.526,91.6637 219.354,90.6716 L219.488,90.6484 Z M219.963,93.1475 L220.099,93.1407 C220.105,93.2573 220.146,93.468 220.215,93.7454 L220.083,93.7783 L219.951,93.8113 C219.882,93.5355 219.834,93.3008 219.827,93.1542 L219.963,93.1475 Z M220.083,93.7783 L220.215,93.7454 C220.288,94.0363 220.391,94.4048 220.512,94.8233 L220.382,94.8613 L220.251,94.8994 C220.129,94.4799 220.025,94.1074 219.951,93.8113 L220.083,93.7783 Z M220.382,94.8613 L220.512,94.8233 C220.757,95.6606 221.079,96.7019 221.398,97.7374 L221.268,97.7773 L221.138,97.8173 C220.819,96.7831 220.496,95.7392 220.251,94.8994 L220.382,94.8613 Z M221.268,97.7773 L221.398,97.7374 C221.716,98.7729 222.031,99.8046 222.26,100.622 L222.129,100.659 L221.998,100.696 C221.77,99.8819 221.456,98.8533 221.138,97.8173 L221.268,97.7773 Z M222.129,100.659 L222.26,100.622 C222.374,101.031 222.468,101.386 222.529,101.663 L222.396,101.692 L222.264,101.722 C222.204,101.453 222.112,101.103 221.998,100.696 L222.129,100.659 Z M222.396,101.692 L222.529,101.663 C222.56,101.801 222.583,101.921 222.597,102.016 L222.462,102.035 L222.327,102.055 C222.315,101.969 222.294,101.856 222.264,101.722 L222.396,101.692 Z M222.462,102.035 L222.597,102.016 C222.61,102.109 222.615,102.182 222.61,102.229 L222.475,102.212 L222.34,102.195 C222.34,102.196 222.34,102.193 222.34,102.186 C222.34,102.179 222.34,102.17 222.339,102.158 C222.337,102.133 222.334,102.099 222.327,102.054 L222.462,102.035 Z M222.475,102.212 L222.61,102.229 C222.562,102.598 222.598,102.949 222.68,103.243 L222.549,103.279 L222.418,103.316 C222.326,102.989 222.287,102.601 222.34,102.194 L222.475,102.212 Z M222.549,103.279 L222.68,103.243 C222.762,103.536 222.891,103.772 223.03,103.909 L222.935,104.006 L222.839,104.103 C222.656,103.922 222.508,103.637 222.418,103.316 L222.549,103.279 Z M222.935,104.006 L223.03,103.909 C223.169,104.046 223.367,104.196 223.531,104.313 L223.452,104.424 L223.373,104.535 C223.208,104.417 222.994,104.255 222.839,104.103 L222.935,104.006 Z M223.452,104.424 L223.531,104.313 C223.581,104.348 223.625,104.377 223.67,104.408 L223.594,104.521 L223.517,104.633 C223.479,104.607 223.425,104.572 223.373,104.535 L223.452,104.424 Z M223.594,104.521 L223.682,104.624 C223.648,104.653 223.625,104.67 223.599,104.695 L223.505,104.597 L223.411,104.499 C223.444,104.466 223.484,104.435 223.506,104.417 L223.594,104.521 Z M223.505,104.597 L223.599,104.695 C223.544,104.748 223.488,104.811 223.445,104.876 L223.331,104.803 L223.217,104.729 C223.274,104.64 223.346,104.561 223.411,104.499 L223.505,104.597 Z M223.331,104.803 L223.445,104.876 C223.404,104.942 223.375,105.01 223.375,105.076 L223.239,105.076 L223.103,105.076 C223.103,104.936 223.161,104.816 223.217,104.729 L223.331,104.803 Z M223.239,105.076 L223.375,105.076 C223.375,105.142 223.406,105.213 223.453,105.283 L223.34,105.358 L223.227,105.434 C223.169,105.348 223.103,105.222 223.103,105.076 L223.239,105.076 Z M223.34,105.358 L223.453,105.282 C223.499,105.352 223.562,105.42 223.623,105.479 L223.529,105.577 L223.436,105.676 C223.366,105.609 223.288,105.526 223.227,105.434 L223.34,105.358 Z M223.529,105.577 L223.623,105.478 C223.684,105.537 223.747,105.588 223.794,105.624 L223.711,105.731 L223.628,105.839 C223.577,105.8 223.506,105.743 223.436,105.676 L223.529,105.577 Z M223.711,105.731 L223.794,105.624 C223.816,105.641 223.835,105.654 223.85,105.665 L223.771,105.775 L223.691,105.886 C223.677,105.876 223.654,105.859 223.628,105.839 L223.711,105.731 Z M223.771,105.775 L223.85,105.665 C223.859,105.672 223.863,105.674 223.866,105.677 L223.788,105.788 L223.71,105.899 C223.705,105.896 223.696,105.889 223.691,105.886 L223.771,105.775 Z M223.788,105.788 L223.866,105.677 C223.862,105.674 223.859,105.672 223.859,105.672 C223.858,105.672 223.858,105.672 223.859,105.672 C223.859,105.672 223.861,105.673 223.863,105.675 L223.793,105.791 L223.722,105.907 C223.724,105.908 223.725,105.909 223.725,105.909 C223.725,105.909 223.725,105.909 223.725,105.909 C223.725,105.909 223.725,105.909 223.724,105.908 C223.724,105.908 223.724,105.908 223.723,105.908 C223.721,105.907 223.716,105.904 223.71,105.9 L223.788,105.788 Z M223.793,105.791 L223.889,105.695 L223.891,105.697 L223.795,105.793 L223.699,105.889 L223.697,105.887 L223.793,105.791 Z M223.795,105.793 L223.871,105.68 L223.872,105.68 L223.833,105.811 L223.794,105.941 C223.771,105.934 223.744,105.923 223.718,105.905 L223.795,105.793 Z M223.833,105.811 L223.929,105.714 L223.93,105.715 L223.834,105.812 L223.738,105.908 L223.737,105.907 L223.833,105.811 Z M223.834,105.812 L223.834,105.675 L223.836,105.675 L223.836,105.812 L223.836,105.948 L223.834,105.948 L223.834,105.812 Z M223.836,105.812 L223.874,105.681 C223.878,105.682 223.88,105.683 223.882,105.683 C223.883,105.684 223.884,105.684 223.885,105.684 C223.886,105.685 223.885,105.685 223.884,105.684 L223.845,105.814 L223.805,105.945 C223.801,105.943 223.797,105.942 223.795,105.941 C223.795,105.941 223.794,105.941 223.794,105.941 C223.794,105.941 223.794,105.941 223.794,105.941 C223.794,105.941 223.794,105.941 223.794,105.941 C223.794,105.941 223.794,105.941 223.795,105.941 C223.795,105.941 223.796,105.942 223.797,105.942 L223.836,105.812 Z M223.845,105.814 L223.883,105.684 C223.892,105.687 223.899,105.688 223.917,105.694 L223.879,105.824 L223.841,105.955 C223.831,105.952 223.813,105.947 223.806,105.945 L223.845,105.814 Z M223.879,105.824 L223.917,105.694 C223.947,105.702 223.988,105.714 224.038,105.728 L224.001,105.859 L223.964,105.99 C223.913,105.976 223.869,105.963 223.841,105.955 L223.879,105.824 Z M224.001,105.859 L224.038,105.728 C224.138,105.757 224.275,105.793 224.419,105.829 L224.386,105.961 L224.353,106.093 C224.207,106.057 224.067,106.019 223.964,105.99 L224.001,105.859 Z M224.386,105.961 L224.419,105.829 C224.562,105.865 224.712,105.899 224.838,105.922 L224.814,106.056 L224.791,106.19 C224.655,106.166 224.498,106.129 224.353,106.093 L224.386,105.961 Z M224.814,106.056 L224.838,105.922 C224.9,105.933 224.958,105.941 225.006,105.944 L224.995,106.08 L224.984,106.216 C224.925,106.211 224.858,106.202 224.791,106.19 L224.814,106.056 Z M224.995,106.08 L225.006,105.944 C225.054,105.948 225.093,105.948 225.118,105.942 L225.149,106.074 L225.181,106.207 C225.111,106.223 225.036,106.22 224.984,106.216 L224.995,106.08 Z M225.149,106.074 L225.118,105.942 C225.169,105.93 225.234,105.886 225.302,105.824 L225.394,105.925 L225.485,106.026 C225.411,106.093 225.303,106.177 225.181,106.207 L225.149,106.074 Z M225.394,105.925 L225.302,105.824 C225.371,105.761 225.445,105.679 225.514,105.589 L225.622,105.672 L225.73,105.755 C225.654,105.854 225.569,105.949 225.485,106.026 L225.394,105.925 Z M225.622,105.672 L225.514,105.589 C225.583,105.5 225.646,105.402 225.695,105.31 L225.815,105.374 L225.936,105.438 C225.879,105.545 225.806,105.655 225.73,105.755 L225.622,105.672 Z M225.815,105.374 L225.695,105.31 C225.744,105.218 225.778,105.131 225.788,105.06 L225.923,105.079 L226.058,105.098 C226.041,105.214 225.99,105.335 225.936,105.438 L225.815,105.374 Z M225.923,105.079 L225.788,105.06 C225.808,104.919 225.851,104.635 225.873,104.355 L226.009,104.366 L226.144,104.377 C226.121,104.667 226.077,104.96 226.058,105.098 L225.923,105.079 Z M226.009,104.366 L225.873,104.355 C225.884,104.215 225.891,104.075 225.887,103.955 L226.022,103.95 L226.158,103.945 C226.163,104.08 226.156,104.232 226.144,104.377 L226.009,104.366 Z M226.022,103.95 L225.887,103.955 C225.882,103.835 225.867,103.734 225.837,103.671 L225.959,103.611 L226.081,103.552 C226.139,103.67 226.154,103.821 226.158,103.945 L226.022,103.95 Z M225.959,103.611 L225.863,103.708 L225.862,103.707 L225.958,103.61 L226.054,103.514 L226.055,103.515 L225.959,103.611 Z M225.958,103.61 L225.836,103.671 C225.805,103.608 225.736,103.502 225.642,103.363 L225.755,103.287 L225.868,103.211 C225.958,103.345 226.038,103.467 226.08,103.549 L225.958,103.61 Z M225.755,103.287 L225.642,103.363 C225.548,103.224 225.428,103.049 225.293,102.849 L225.406,102.773 L225.519,102.698 C225.655,102.899 225.77,103.067 225.868,103.211 L225.755,103.287 Z M225.406,102.773 L225.293,102.849 C225.026,102.452 224.702,101.948 224.407,101.4 L224.526,101.335 L224.646,101.27 C224.936,101.808 225.254,102.303 225.519,102.698 L225.406,102.773 Z M224.526,101.335 L224.396,101.375 C224.364,101.271 224.331,101.08 224.299,100.82 L224.434,100.803 L224.569,100.786 C224.601,101.047 224.632,101.216 224.656,101.295 L224.526,101.335 Z M224.434,100.803 L224.299,100.82 C224.265,100.551 224.232,100.209 224.198,99.8203 L224.334,99.8086 L224.47,99.7969 C224.503,100.185 224.536,100.522 224.569,100.786 L224.434,100.803 Z M224.334,99.8086 L224.198,99.8203 C224.131,99.0417 224.062,98.0683 223.99,97.0861 L224.126,97.0762 L224.262,97.0662 C224.334,98.0498 224.402,99.0206 224.47,99.7969 L224.334,99.8086 Z M224.126,97.0762 L223.99,97.0861 C223.918,96.1039 223.843,95.1119 223.762,94.2967 L223.897,94.2832 L224.033,94.2697 C224.114,95.089 224.19,96.0844 224.262,97.0662 L224.126,97.0762 Z M223.897,94.2832 L223.762,94.2967 C223.721,93.8894 223.679,93.5253 223.635,93.2289 L223.77,93.209 L223.904,93.1891 C223.949,93.4914 223.992,93.8602 224.033,94.2697 L223.897,94.2832 Z M223.77,93.209 L223.635,93.2289 C223.593,92.947 223.55,92.7248 223.504,92.5837 L223.634,92.542 L223.763,92.5002 C223.816,92.6643 223.862,92.9057 223.904,93.1891 L223.77,93.209 Z M223.634,92.542 L223.498,92.5471 C223.495,92.4626 223.477,92.3399 223.448,92.1885 L223.582,92.1631 L223.716,92.1377 C223.745,92.2919 223.766,92.4311 223.77,92.5369 L223.634,92.542 Z M223.582,92.1631 L223.448,92.1885 C223.418,92.0267 223.375,91.8296 223.323,91.6055 L223.456,91.5752 L223.589,91.5449 C223.64,91.7699 223.684,91.9708 223.716,92.1376 L223.582,92.1631 Z M223.456,91.5752 L223.323,91.6055 C223.221,91.1569 223.086,90.5979 222.955,89.9926 L223.088,89.9639 L223.221,89.9351 C223.351,90.5387 223.485,91.0915 223.589,91.5449 L223.456,91.5752 Z M223.088,89.9639 L222.955,89.9926 C222.693,88.7821 222.445,87.3836 222.495,86.2985 L222.631,86.3047 L222.767,86.3109 C222.719,87.3569 222.959,88.724 223.221,89.9351 L223.088,89.9639 Z M222.631,86.3047 L222.495,86.2985 C222.545,85.2134 222.544,84.4331 222.532,83.9242 L222.668,83.9209 L222.804,83.9176 C222.817,84.4332 222.817,85.2198 222.767,86.3109 L222.631,86.3047 Z M222.668,83.9209 L222.532,83.9242 C222.526,83.6698 222.517,83.4831 222.509,83.3601 L222.645,83.3516 L222.78,83.343 C222.788,83.4696 222.798,83.6598 222.804,83.9176 L222.668,83.9209 Z M222.645,83.3516 L222.509,83.3601 C222.505,83.2983 222.502,83.253 222.499,83.2232 L222.635,83.2119 L222.77,83.2006 C222.773,83.2332 222.776,83.2807 222.78,83.343 L222.645,83.3516 Z M222.635,83.2119 L222.499,83.2232 C222.498,83.2045 222.497,83.1959 222.496,83.1885 L222.632,83.1758 L222.767,83.1631 C222.768,83.1715 222.769,83.1882 222.77,83.2006 L222.635,83.2119 Z M222.632,83.1758 L222.496,83.1885 C222.496,83.1883 222.496,83.1878 222.496,83.1868 C222.496,83.1866 222.496,83.1852 222.496,83.1845 C222.496,83.1837 222.496,83.1821 222.495,83.1804 L222.631,83.167 L222.766,83.1536 C222.766,83.1528 222.766,83.1525 222.766,83.1528 C222.766,83.1535 222.766,83.1534 222.766,83.1547 C222.767,83.1566 222.767,83.1595 222.767,83.163 L222.632,83.1758 Z M222.631,83.167 L222.509,83.2278 L222.508,83.2259 L222.63,83.165 L222.752,83.1042 L222.753,83.1061 L222.631,83.167 Z M222.63,83.165 L222.494,83.165 L222.494,83.1641 L222.63,83.1641 L222.766,83.1641 L222.766,83.165 L222.63,83.165 Z M222.63,83.1641 L222.5,83.2049 L222.484,83.1522 L222.613,83.1113 L222.743,83.0705 L222.76,83.1232 L222.63,83.1641 Z M222.613,83.1113 L222.495,83.1778 L222.494,83.1772 L222.577,83.0693 L222.66,82.9614 C222.69,82.9846 222.715,83.0137 222.732,83.0448 L222.613,83.1113 Z M222.577,83.0693 L222.495,83.1777 L222.494,83.1783 L222.473,83.0439 L222.451,82.9096 C222.523,82.8982 222.599,82.9148 222.659,82.961 L222.577,83.0693 Z M222.473,83.0439 L222.473,83.18 L222.47,83.18 L222.47,83.0439 L222.47,82.9079 L222.473,82.9079 L222.473,83.0439 Z M222.47,83.0439 L222.492,83.1782 C222.488,83.1788 222.485,83.1791 222.484,83.1793 C222.483,83.1794 222.481,83.1796 222.481,83.1796 C222.48,83.1797 222.481,83.1796 222.483,83.1793 L222.462,83.0449 L222.441,82.9106 C222.446,82.9097 222.45,82.9093 222.452,82.9091 C222.453,82.909 222.453,82.909 222.453,82.909 C222.452,82.909 222.45,82.9093 222.447,82.9097 L222.47,83.0439 Z" id="Shape" fill="#00402A"></path>
                <path d="M218.216,80.7213 C217.398,80.9267 216.37,82.01 215.981,83.0449 C215.592,84.0799 215.862,84.402 216.001,84.9054 C216.116,85.3162 216.66,85.7752 217.208,85.4853 C217.799,85.1752 218.387,85.4571 219.633,85.4571 C220.879,85.4571 218.212,80.7213 218.212,80.7213 L218.216,80.7213 Z" id="Path" stroke="#00402A" stroke-width="0.2721" fill="#FBBD9B" stroke-linejoin="round"></path>
                <path d="M219.438,82.6584 C219.438,82.6584 218.081,83.9591 218.088965,84.6236 C218.097,85.292 219.343,87.1727 219.97,87.4062 C220.597,87.6398 221.502,86.9391 221.502,86.9391 C221.502,86.9391 222.566,87.1847 222.911,86.7941 C223.257,86.3995 222.967,85.9323 223.515,85.6343 C224.059,85.3363 225.122,84.1564 225.067,83.2664 C225.011,82.3765 222.999,80.8623 222.308,81.0798 C221.617,81.2972 219.438,82.6543 219.438,82.6543 L219.438,82.6584 Z" id="Path" stroke="#00402A" stroke-width="0.2721" fill="#FBBD9B" stroke-linejoin="round"></path>
                <path d="M218.593,83.7658 C218.847,83.5 218.664,83.0973 218.422,82.9886 C218.18,82.8798 217.978,83.2423 217.91,83.3752 C217.843,83.5081 217.684,83.9712 217.982,83.9953 C218.275,84.0195 218.597,83.7618 218.597,83.7618 L218.593,83.7658 Z" id="Path" stroke="#00402A" stroke-width="0.2721" fill="#FBBD9B" stroke-linejoin="round"></path>
                <path d="M219.97,75.7641 C222.522,76.0379 223.284,79.4206 220.327,79.7267 C219.661,79.7951 218.525,81.9697 216.688,82.1228 C214.85,82.2758 210.924,82.4852 211.016,77.4353 C213.48,78.9978 215.425,78.6716 216.338,77.4675 C217.608,75.7761 218.91,75.6473 219.97,75.7641 Z" id="Path" stroke="#00402A" stroke-width="0.2721" fill="#3A3735" stroke-linejoin="round"></path>
                <path d="M224.463,84.1 C224.463,84.1 222.538,84.8853 221.248,84.4624 C219.954,84.0396 219.454,83.951 219.454,83.951 C219.454,83.951 218.807,84.3819 218.422,84.2691 C219.125,83.6611 218.22,83.1738 218.22,83.1738 C218.22,83.1738 218.033,83.3832 217.458,83.2664 C216.882,83.1496 216.525,80.3831 218.089,79.2031 C219.653,78.0232 221.994,77.7373 223.36,78.3736 C224.725,79.0098 225.856,81.9979 225.63,83.2785 C225.17,83.8302 224.467,84.096 224.467,84.096 L224.463,84.1 Z" id="Path" stroke="#00402A" stroke-width="0.2721" fill="#3A3735" stroke-linejoin="round"></path>
                <path d="M223.221,102.363 C223.205,102.451 223.257,103.164 223.531,103.462 C223.805,103.76 224.507,104.489 224.551,104.658 C224.594,104.827 224.436,105.262 224.622,105.729 C224.809,106.196 225.154,105.963 225.182,105.81 C225.21,105.657 225.182,105.226 225.182,105.153 C225.182,105.081 225.261,104.863 225.126,104.404 C224.991,103.945 224.94,103.063 224.809,102.745 C224.678,102.423 224.463,101.908 224.213,101.662 C223.963,101.416 223.539,101.545 223.36,101.734 C223.181,101.924 223.225,102.367 223.225,102.367 L223.221,102.363 Z" id="Path" stroke="#00402A" stroke-width="0.2721" fill="#FBBD9B" stroke-linejoin="round"></path>
                <path d="M224.407,109.059 L224.407,106.69 L225.163,106.69 L225.163,109.059 C225.163,109.115 225.127,109.171 225.054,109.214 C224.906,109.299 224.668,109.299 224.52,109.214 C224.445,109.171 224.41,109.115 224.41,109.059 L224.407,109.059 Z" id="Path" stroke="#00402A" stroke-width="0.2721" fill="#FFF5EC" stroke-linejoin="round"></path>
                <path d="M221.997,105.839 C221.997,107.403 223.263,107.731 224.824,107.731 C226.385,107.731 227.65,107.403 227.65,105.839 C227.65,104.275 226.385,100.402 224.824,100.402 C223.263,100.402 221.997,104.276 221.997,105.839 Z" id="Path" stroke="#00402A" stroke-width="0.2721" fill="#2F6852" stroke-linejoin="round"></path>
                <path d="M210.603,86.9535 C210.384,86.9829 210.193,87.0837 210.066,87.2816 C209.943,87.4738 209.891,87.7416 209.907,88.0853 C209.974,89.4204 210.519,91.8673 211.084,94.0414 C211.367,95.1308 211.656,96.1566 211.895,96.9467 C212.014,97.3413 212.121,97.678 212.208,97.9349 C212.288,98.1691 212.356,98.3471 212.403,98.4398 C212.513,98.9231 212.918,99.4718 213.439,100.014 C213.971,100.568 214.643,101.137 215.308,101.651 C215.973,102.164 216.633,102.625 217.142,102.965 C217.645,103.301 218.01,103.525 218.08,103.56 C218.111,103.575 218.171,103.628 218.254,103.73 C218.333,103.826 218.421,103.951 218.508,104.09 C218.683,104.369 218.851,104.692 218.943,104.925 L218.943,104.926 C219.04,105.169 219.242,105.675 219.467,106.137 C219.579,106.368 219.7,106.593 219.818,106.77 C219.877,106.858 219.937,106.939 219.997,107.002 C220.041,107.049 220.091,107.092 220.145,107.122 L220.199,107.149 C220.414,107.232 220.707,107.259 220.933,107.268 C221.048,107.272 221.152,107.272 221.226,107.271 C221.263,107.27 221.294,107.269 221.315,107.268 C221.317,107.268 221.319,107.267 221.322,107.267 C221.326,107.268 221.331,107.271 221.337,107.273 C221.363,107.281 221.399,107.294 221.444,107.308 C221.533,107.337 221.656,107.374 221.788,107.412 C221.92,107.451 222.062,107.489 222.191,107.518 C222.315,107.546 222.438,107.569 222.527,107.569 C222.692,107.569 222.856,107.524 222.982,107.454 C223.044,107.42 223.103,107.376 223.147,107.324 C223.19,107.272 223.227,107.203 223.227,107.122 C223.227,107.051 223.199,106.984 223.17,106.931 C223.146,106.887 223.117,106.844 223.085,106.804 C223.097,106.812 223.107,106.822 223.119,106.828 C223.14,106.84 223.172,106.854 223.21,106.856 C223.225,106.857 223.242,106.858 223.266,106.861 C223.288,106.863 223.315,106.866 223.343,106.869 C223.398,106.873 223.465,106.875 223.531,106.865 C223.597,106.854 223.675,106.829 223.737,106.767 C223.8,106.702 223.829,106.615 223.829,106.515 C223.829,106.32 223.726,106.161 223.64,106.049 C223.618,106.02 223.595,105.993 223.574,105.968 C223.554,105.943 223.536,105.921 223.52,105.901 C223.485,105.856 223.474,105.834 223.472,105.827 C223.462,105.79 223.441,105.752 223.422,105.72 C223.402,105.686 223.376,105.647 223.347,105.606 C223.288,105.524 223.211,105.425 223.127,105.32 C222.957,105.106 222.757,104.863 222.596,104.646 L222.596,104.645 C222.424,104.415 222.14,104.139 221.853,103.902 C221.568,103.666 221.262,103.455 221.045,103.369 C220.941,103.327 220.835,103.295 220.74,103.265 C220.643,103.234 220.549,103.201 220.452,103.152 C220.262,103.054 220.045,102.885 219.783,102.521 C219.781,102.517 219.777,102.513 219.774,102.509 L217.796,100.311 C217.792,100.305 217.785,100.297 217.777,100.286 C217.759,100.263 217.734,100.23 217.701,100.188 C217.636,100.103 217.543,99.9817 217.427,99.8334 C217.196,99.5367 216.878,99.1323 216.531,98.7025 C216.119,98.1909 215.66,97.64 215.258,97.1888 C215.263,97.103 215.254,97.001 215.24,96.8929 C215.218,96.7391 215.181,96.5533 215.133,96.347 C215.037,95.9344 214.895,95.4266 214.748,94.8998 C214.601,94.3715 214.45,93.8226 214.33,93.3236 C214.211,92.8229 214.127,92.3811 214.113,92.0638 L214.101,91.5502 C214.098,91.0199 214.12,90.4528 214.145,89.9769 C214.162,89.6605 214.18,89.3851 214.195,89.1888 C214.202,89.0908 214.208,89.0121 214.212,88.9584 C214.214,88.9316 214.216,88.9108 214.217,88.8969 C214.218,88.89 214.219,88.8847 214.219,88.8812 L214.219,88.8763 C214.223,88.8318 214.205,88.7876 214.17,88.7592 L214.169,88.7592 L214.169,88.7582 C214.169,88.7577 214.167,88.7571 214.166,88.7562 C214.164,88.7545 214.161,88.7516 214.157,88.7484 C214.149,88.7419 214.138,88.7323 214.122,88.7201 C214.091,88.6953 214.046,88.6592 213.989,88.6146 C213.874,88.5254 213.71,88.4011 213.514,88.2601 C213.123,87.9787 212.599,87.6292 212.077,87.3617 C211.817,87.228 211.553,87.1124 211.305,87.0375 C211.058,86.9631 210.816,86.9249 210.603,86.9535 Z M222.381,105.941 L222.401,105.968 C222.417,105.992 222.44,106.026 222.469,106.067 C222.527,106.148 222.605,106.257 222.689,106.367 C222.724,106.413 222.762,106.458 222.798,106.503 C222.755,106.467 222.694,106.427 222.633,106.389 C222.558,106.343 222.47,106.292 222.386,106.243 C222.301,106.193 222.22,106.146 222.156,106.105 C222.125,106.085 222.1,106.067 222.081,106.053 C222.06,106.036 222.058,106.032 222.063,106.038 C222.068,106.046 222.063,106.041 222.053,106.006 C222.044,105.977 222.034,105.939 222.024,105.893 C222.002,105.801 221.979,105.684 221.958,105.57 C221.956,105.556 221.954,105.542 221.951,105.528 L222.381,105.941 Z" id="Shape" fill="#FBBD9B"></path>
                <path d="M210.603,86.9535 L210.585,86.8187 L210.585,86.8186 L210.603,86.9535 Z M210.066,87.2816 L209.951,87.2082 L209.951,87.2082 L210.066,87.2816 Z M209.907,88.0853 L209.772,88.0921 L209.772,88.0919 L209.907,88.0853 Z M211.084,94.0414 L210.953,94.0756 L210.953,94.0756 L211.084,94.0414 Z M211.895,96.9467 L211.765,96.986 L211.765,96.986 L211.895,96.9467 Z M212.208,97.9349 L212.079,97.9787 L212.079,97.9787 L212.208,97.9349 Z M212.403,98.4398 L212.524,98.3786 C212.529,98.3884 212.533,98.3987 212.535,98.4094 L212.403,98.4398 Z M215.308,101.651 L215.225,101.758 L215.225,101.758 L215.308,101.651 Z M217.142,102.965 L217.066,103.078 L217.066,103.078 L217.142,102.965 Z M218.08,103.56 L218.02,103.682 L218.02,103.682 L218.08,103.56 Z M218.254,103.73 L218.36,103.644 L218.36,103.644 L218.254,103.73 Z M218.508,104.09 L218.623,104.018 L218.623,104.018 L218.508,104.09 Z M218.943,104.925 L219.069,104.876 C219.076,104.891 219.079,104.908 219.079,104.925 L218.943,104.925 Z M218.943,104.926 L218.816,104.977 C218.81,104.961 218.807,104.943 218.807,104.926 L218.943,104.926 Z M219.467,106.137 L219.345,106.197 L219.345,106.197 L219.467,106.137 Z M219.818,106.77 L219.704,106.845 L219.704,106.845 L219.818,106.77 Z M220.145,107.122 L220.086,107.245 L220.077,107.24 L220.145,107.122 Z M220.199,107.149 L220.15,107.276 L220.14,107.271 L220.199,107.149 Z M220.933,107.268 L220.928,107.404 L220.928,107.404 L220.933,107.268 Z M221.226,107.271 L221.229,107.407 L221.229,107.407 L221.226,107.271 Z M221.315,107.268 L221.32,107.404 L221.32,107.404 L221.315,107.268 Z M221.322,107.267 L221.316,107.131 C221.332,107.13 221.349,107.133 221.364,107.138 L221.322,107.267 Z M221.337,107.273 L221.38,107.144 L221.38,107.144 L221.337,107.273 Z M221.444,107.308 L221.402,107.438 L221.402,107.438 L221.444,107.308 Z M221.788,107.412 L221.751,107.543 L221.751,107.543 L221.788,107.412 Z M222.191,107.518 L222.161,107.651 L222.161,107.651 L222.191,107.518 Z M222.527,107.569 L222.527,107.705 L222.527,107.705 L222.527,107.569 Z M222.982,107.454 L223.048,107.573 L223.048,107.573 L222.982,107.454 Z M223.147,107.324 L223.251,107.411 L223.251,107.411 L223.147,107.324 Z M223.227,107.122 L223.363,107.122 L223.363,107.123 L223.227,107.122 Z M223.17,106.931 L223.29,106.866 L223.29,106.866 L223.17,106.931 Z M223.085,106.804 L222.978,106.888 C222.936,106.834 222.94,106.759 222.987,106.71 C223.034,106.661 223.109,106.654 223.164,106.693 L223.085,106.804 Z M223.119,106.828 L223.054,106.948 L223.054,106.948 L223.119,106.828 Z M223.21,106.856 L223.218,106.72 L223.218,106.72 L223.21,106.856 Z M223.266,106.861 L223.28,106.725 L223.28,106.725 L223.266,106.861 Z M223.343,106.869 L223.332,107.004 L223.332,107.004 L223.343,106.869 Z M223.531,106.865 L223.552,106.999 L223.552,106.999 L223.531,106.865 Z M223.829,106.515 L223.965,106.515 L223.965,106.515 L223.829,106.515 Z M223.64,106.049 L223.748,105.966 L223.748,105.966 L223.64,106.049 Z M223.574,105.968 L223.469,106.054 L223.469,106.054 L223.574,105.968 Z M223.52,105.901 L223.412,105.984 L223.412,105.984 L223.52,105.901 Z M223.472,105.827 L223.341,105.865 L223.341,105.862 L223.472,105.827 Z M223.422,105.72 L223.539,105.65 L223.539,105.65 L223.422,105.72 Z M223.347,105.606 L223.458,105.527 L223.458,105.527 L223.347,105.606 Z M223.127,105.32 L223.234,105.235 L223.234,105.235 L223.127,105.32 Z M222.596,104.646 L222.487,104.727 C222.469,104.703 222.46,104.675 222.46,104.646 L222.596,104.646 Z M222.596,104.645 L222.705,104.563 C222.722,104.587 222.732,104.616 222.732,104.645 L222.596,104.645 Z M221.853,103.902 L221.939,103.797 L221.939,103.797 L221.853,103.902 Z M221.045,103.369 L221.096,103.242 L221.096,103.242 L221.045,103.369 Z M220.74,103.265 L220.699,103.395 L220.699,103.395 L220.74,103.265 Z M220.452,103.152 L220.39,103.273 L220.39,103.273 L220.452,103.152 Z M219.783,102.521 L219.894,102.441 L219.894,102.442 L219.783,102.521 Z M219.774,102.509 L219.673,102.6 L219.673,102.6 L219.774,102.509 Z M217.796,100.311 L217.695,100.402 L217.688,100.394 L217.796,100.311 Z M217.777,100.286 L217.669,100.368 L217.669,100.368 L217.777,100.286 Z M217.701,100.188 L217.594,100.271 L217.594,100.271 L217.701,100.188 Z M217.427,99.8334 L217.534,99.7498 L217.534,99.7498 L217.427,99.8334 Z M216.531,98.7025 L216.637,98.6171 L216.637,98.6171 L216.531,98.7025 Z M215.258,97.1888 L215.156,97.2793 C215.132,97.2522 215.12,97.2166 215.122,97.1804 L215.258,97.1888 Z M215.24,96.8929 L215.374,96.8744 L215.374,96.8744 L215.24,96.8929 Z M215.133,96.347 L215.266,96.3161 L215.266,96.3161 L215.133,96.347 Z M214.748,94.8998 L214.617,94.9362 L214.617,94.9362 L214.748,94.8998 Z M214.33,93.3236 L214.198,93.3552 L214.198,93.3552 L214.33,93.3236 Z M214.113,92.0638 L213.977,92.07 L213.977,92.0669 L214.113,92.0638 Z M214.101,91.5502 L213.965,91.5533 L213.965,91.5508 L214.101,91.5502 Z M214.145,89.9769 L214.009,89.9697 L214.009,89.9697 L214.145,89.9769 Z M214.195,89.1888 L214.059,89.1789 L214.059,89.1789 L214.195,89.1888 Z M214.212,88.9584 L214.077,88.9475 L214.077,88.9475 L214.212,88.9584 Z M214.217,88.8969 L214.081,88.8855 L214.081,88.8855 L214.217,88.8969 Z M214.219,88.8812 L214.356,88.8812 L214.354,88.8934 L214.219,88.8812 Z M214.219,88.8763 L214.082,88.8763 L214.083,88.8646 L214.219,88.8763 Z M214.17,88.7592 L214.17,88.6231 C214.202,88.6231 214.232,88.6341 214.257,88.6542 L214.17,88.7592 Z M214.169,88.7592 L214.169,88.8952 C214.094,88.8952 214.033,88.8343 214.033,88.7592 L214.169,88.7592 Z M214.169,88.7582 L214.252,88.6506 C214.286,88.6764 214.305,88.7161 214.305,88.7582 L214.169,88.7582 Z M214.166,88.7562 L214.08,88.8616 L214.08,88.8614 L214.166,88.7562 Z M214.157,88.7484 L214.243,88.6428 L214.243,88.6428 L214.157,88.7484 Z M214.122,88.7201 L214.207,88.6139 L214.207,88.6139 L214.122,88.7201 Z M213.989,88.6146 L214.072,88.5072 L214.072,88.5072 L213.989,88.6146 Z M213.514,88.2601 L213.593,88.1497 L213.593,88.1497 L213.514,88.2601 Z M212.077,87.3617 L212.139,87.2406 L212.139,87.2406 L212.077,87.3617 Z M211.305,87.0375 L211.344,86.9072 L211.344,86.9072 L211.305,87.0375 Z M222.381,105.941 L222.475,105.843 C222.481,105.849 222.487,105.855 222.492,105.862 L222.381,105.941 Z M222.401,105.968 L222.511,105.889 L222.513,105.891 L222.401,105.968 Z M222.469,106.067 L222.358,106.145 L222.358,106.145 L222.469,106.067 Z M222.689,106.367 L222.581,106.449 L222.581,106.449 L222.689,106.367 Z M222.798,106.503 L222.904,106.418 C222.948,106.472 222.943,106.551 222.893,106.6 C222.844,106.649 222.765,106.653 222.711,106.608 L222.798,106.503 Z M222.633,106.389 L222.705,106.273 L222.705,106.273 L222.633,106.389 Z M222.386,106.243 L222.317,106.36 L222.317,106.36 L222.386,106.243 Z M222.156,106.105 L222.083,106.219 L222.083,106.219 L222.156,106.105 Z M222.081,106.053 L221.998,106.161 L221.998,106.161 L222.081,106.053 Z M222.063,106.038 L222.174,105.961 L222.175,105.961 L222.063,106.038 Z M222.053,106.006 L221.923,106.046 L221.923,106.046 L222.053,106.006 Z M222.024,105.893 L221.891,105.924 L221.891,105.924 L222.024,105.893 Z M221.958,105.57 L221.824,105.594 L221.824,105.594 L221.958,105.57 Z M221.951,105.528 L221.818,105.552 C221.807,105.494 221.835,105.436 221.887,105.408 C221.939,105.38 222.003,105.389 222.046,105.43 L221.951,105.528 Z M210.603,86.9535 L210.621,87.0883 C210.435,87.1134 210.282,87.1964 210.18,87.3551 L210.066,87.2816 L209.951,87.2082 C210.103,86.971 210.334,86.8524 210.585,86.8187 L210.603,86.9535 Z M210.066,87.2816 L210.18,87.355 C210.079,87.5138 210.027,87.7491 210.043,88.0788 L209.907,88.0853 L209.772,88.0919 C209.754,87.7341 209.807,87.4339 209.951,87.2082 L210.066,87.2816 Z M209.907,88.0853 L210.043,88.0786 C210.109,89.3975 210.65,91.8311 211.216,94.0072 L211.084,94.0414 L210.953,94.0756 C210.388,91.9036 209.839,89.4433 209.772,88.0921 L209.907,88.0853 Z M211.084,94.0414 L211.216,94.0072 C211.499,95.0951 211.787,96.1191 212.025,96.9073 L211.895,96.9467 L211.765,96.986 C211.525,96.194 211.236,95.1666 210.953,94.0756 L211.084,94.0414 Z M211.895,96.9467 L212.025,96.9073 C212.144,97.3011 212.25,97.6362 212.337,97.8912 L212.208,97.9349 L212.079,97.9787 C211.991,97.7198 211.884,97.3816 211.765,96.986 L211.895,96.9467 Z M212.208,97.9349 L212.337,97.8911 C212.417,98.1257 212.482,98.2953 212.524,98.3786 L212.403,98.4398 L212.281,98.5011 C212.23,98.3988 212.159,98.2124 212.079,97.9787 L212.208,97.9349 Z M212.403,98.4398 L212.535,98.4094 C212.637,98.8536 213.018,99.379 213.537,99.9198 L213.439,100.014 L213.341,100.108 C212.819,99.5645 212.39,98.9926 212.27,98.4702 L212.403,98.4398 Z M213.439,100.014 L213.537,99.9198 C214.062,100.467 214.729,101.032 215.391,101.543 L215.308,101.651 L215.225,101.758 C214.557,101.243 213.879,100.669 213.341,100.108 L213.439,100.014 Z M215.308,101.651 L215.391,101.543 C216.053,102.054 216.711,102.514 217.217,102.852 L217.142,102.965 L217.066,103.078 C216.556,102.737 215.893,102.274 215.225,101.758 L215.308,101.651 Z M217.142,102.965 L217.217,102.852 C217.723,103.19 218.08,103.408 218.14,103.438 L218.08,103.56 L218.02,103.682 C217.94,103.642 217.567,103.413 217.066,103.078 L217.142,102.965 Z M218.08,103.56 L218.14,103.438 C218.175,103.455 218.209,103.483 218.241,103.514 C218.276,103.546 218.315,103.59 218.36,103.644 L218.254,103.73 L218.149,103.816 C218.11,103.768 218.078,103.734 218.054,103.711 C218.027,103.685 218.016,103.68 218.02,103.682 L218.08,103.56 Z M218.254,103.73 L218.36,103.644 C218.443,103.746 218.534,103.876 218.623,104.018 L218.508,104.09 L218.393,104.163 C218.308,104.027 218.223,103.907 218.149,103.816 L218.254,103.73 Z M218.508,104.09 L218.623,104.018 C218.802,104.302 218.974,104.632 219.069,104.876 L218.943,104.925 L218.816,104.975 C218.729,104.751 218.565,104.436 218.393,104.163 L218.508,104.09 Z M218.943,104.925 L219.079,104.925 L219.079,104.926 L218.943,104.926 L218.807,104.926 L218.807,104.925 L218.943,104.925 Z M218.943,104.926 L219.069,104.876 C219.166,105.119 219.367,105.62 219.589,106.078 L219.467,106.137 L219.345,106.197 C219.117,105.729 218.913,105.22 218.816,104.977 L218.943,104.926 Z M219.467,106.137 L219.589,106.078 C219.701,106.306 219.818,106.525 219.931,106.694 L219.818,106.77 L219.704,106.845 C219.581,106.661 219.458,106.43 219.345,106.197 L219.467,106.137 Z M219.818,106.77 L219.931,106.694 C219.988,106.78 220.043,106.853 220.096,106.909 L219.997,107.002 L219.899,107.096 C219.831,107.024 219.766,106.937 219.704,106.845 L219.818,106.77 Z M219.997,107.002 L220.096,106.909 C220.134,106.949 220.174,106.982 220.213,107.005 L220.145,107.122 L220.077,107.24 C220.008,107.201 219.949,107.149 219.899,107.096 L219.997,107.002 Z M220.145,107.122 L220.204,107 L220.259,107.026 L220.199,107.149 L220.14,107.271 L220.086,107.245 L220.145,107.122 Z M220.199,107.149 L220.249,107.022 C220.441,107.096 220.713,107.123 220.938,107.132 L220.933,107.268 L220.928,107.404 C220.7,107.395 220.388,107.368 220.15,107.276 L220.199,107.149 Z M220.933,107.268 L220.938,107.132 C221.051,107.136 221.151,107.136 221.223,107.135 L221.226,107.271 L221.229,107.407 C221.152,107.408 221.046,107.408 220.928,107.404 L220.933,107.268 Z M221.226,107.271 L221.223,107.135 C221.259,107.134 221.288,107.133 221.309,107.132 L221.315,107.268 L221.32,107.404 C221.3,107.405 221.267,107.406 221.229,107.407 L221.226,107.271 Z M221.315,107.268 L221.309,107.132 C221.303,107.132 221.299,107.133 221.296,107.133 C221.294,107.134 221.292,107.134 221.292,107.134 C221.292,107.134 221.293,107.134 221.294,107.134 C221.295,107.133 221.297,107.133 221.299,107.133 C221.302,107.132 221.308,107.131 221.316,107.131 L221.322,107.267 L221.327,107.403 C221.334,107.403 221.339,107.402 221.341,107.402 C221.343,107.401 221.345,107.401 221.344,107.401 C221.344,107.401 221.341,107.402 221.337,107.402 C221.333,107.403 221.327,107.404 221.32,107.404 L221.315,107.268 Z M221.322,107.267 L221.364,107.138 C221.368,107.139 221.372,107.14 221.374,107.141 C221.376,107.142 221.378,107.143 221.379,107.143 C221.382,107.144 221.381,107.144 221.38,107.144 L221.337,107.273 L221.295,107.402 C221.287,107.4 221.281,107.397 221.279,107.396 C221.277,107.396 221.277,107.395 221.276,107.395 C221.276,107.395 221.277,107.396 221.279,107.396 L221.322,107.267 Z M221.337,107.273 L221.38,107.144 C221.409,107.153 221.44,107.164 221.485,107.178 L221.444,107.308 L221.402,107.438 C221.358,107.423 221.317,107.409 221.295,107.402 L221.337,107.273 Z M221.444,107.308 L221.485,107.178 C221.573,107.207 221.695,107.244 221.826,107.282 L221.788,107.412 L221.751,107.543 C221.617,107.505 221.493,107.467 221.402,107.438 L221.444,107.308 Z M221.788,107.412 L221.826,107.282 C221.956,107.319 222.096,107.357 222.221,107.385 L222.191,107.518 L222.161,107.651 C222.029,107.621 221.884,107.582 221.751,107.543 L221.788,107.412 Z M222.191,107.518 L222.221,107.385 C222.346,107.414 222.455,107.433 222.527,107.433 L222.527,107.569 L222.527,107.705 C222.422,107.705 222.285,107.679 222.161,107.651 L222.191,107.518 Z M222.527,107.569 L222.527,107.433 C222.67,107.433 222.811,107.394 222.916,107.335 L222.982,107.454 L223.048,107.573 C222.902,107.654 222.715,107.705 222.527,107.705 L222.527,107.569 Z M222.982,107.454 L222.916,107.336 C222.968,107.306 223.012,107.272 223.043,107.236 L223.147,107.324 L223.251,107.411 C223.193,107.479 223.121,107.533 223.048,107.573 L222.982,107.454 Z M223.147,107.324 L223.043,107.236 C223.073,107.2 223.091,107.161 223.091,107.122 L223.227,107.122 L223.363,107.123 C223.363,107.245 223.307,107.344 223.251,107.411 L223.147,107.324 Z M223.227,107.122 L223.091,107.123 C223.091,107.085 223.075,107.042 223.051,106.996 L223.17,106.931 L223.29,106.866 C223.323,106.927 223.363,107.018 223.363,107.122 L223.227,107.122 Z M223.17,106.931 L223.051,106.996 C223.032,106.961 223.006,106.924 222.978,106.888 L223.085,106.804 L223.193,106.721 C223.227,106.764 223.261,106.814 223.29,106.866 L223.17,106.931 Z M223.085,106.804 L223.164,106.693 C223.169,106.697 223.173,106.7 223.177,106.703 C223.181,106.706 223.182,106.707 223.184,106.709 C223.188,106.712 223.188,106.711 223.185,106.709 L223.119,106.828 L223.054,106.948 C223.039,106.94 223.027,106.93 223.02,106.925 C223.01,106.917 223.01,106.917 223.006,106.915 L223.085,106.804 Z M223.119,106.828 L223.184,106.709 C223.189,106.712 223.195,106.714 223.202,106.717 C223.208,106.719 223.213,106.72 223.218,106.72 L223.21,106.856 L223.203,106.992 C223.136,106.988 223.083,106.964 223.054,106.948 L223.119,106.828 Z M223.21,106.856 L223.218,106.72 C223.236,106.721 223.256,106.723 223.28,106.725 L223.266,106.861 L223.252,106.996 C223.229,106.994 223.214,106.992 223.203,106.992 L223.21,106.856 Z M223.266,106.861 L223.28,106.725 C223.306,106.728 223.328,106.731 223.354,106.733 L223.343,106.869 L223.332,107.004 C223.302,107.002 223.271,106.998 223.252,106.996 L223.266,106.861 Z M223.343,106.869 L223.354,106.733 C223.404,106.737 223.46,106.738 223.511,106.73 L223.531,106.865 L223.552,106.999 C223.471,107.012 223.391,107.009 223.332,107.004 L223.343,106.869 Z M223.531,106.865 L223.511,106.73 C223.561,106.722 223.607,106.705 223.64,106.671 L223.737,106.767 L223.833,106.863 C223.744,106.953 223.634,106.986 223.552,106.999 L223.531,106.865 Z M223.737,106.767 L223.64,106.672 C223.673,106.638 223.693,106.588 223.693,106.515 L223.829,106.515 L223.965,106.515 C223.965,106.641 223.928,106.766 223.834,106.862 L223.737,106.767 Z M223.829,106.515 L223.693,106.515 C223.693,106.368 223.615,106.24 223.532,106.132 L223.64,106.049 L223.748,105.966 C223.837,106.083 223.965,106.272 223.965,106.515 L223.829,106.515 Z M223.64,106.049 L223.532,106.132 C223.512,106.106 223.49,106.08 223.469,106.054 L223.574,105.968 L223.68,105.882 C223.699,105.905 223.724,105.935 223.748,105.966 L223.64,106.049 Z M223.574,105.968 L223.469,106.054 C223.45,106.031 223.43,106.007 223.412,105.984 L223.52,105.901 L223.627,105.817 C223.642,105.836 223.658,105.856 223.68,105.882 L223.574,105.968 Z M223.52,105.901 L223.412,105.984 C223.377,105.939 223.352,105.9 223.342,105.865 L223.472,105.827 L223.602,105.788 C223.601,105.783 223.6,105.78 223.599,105.778 C223.598,105.777 223.598,105.775 223.598,105.775 C223.597,105.774 223.598,105.776 223.6,105.779 C223.604,105.785 223.612,105.798 223.627,105.817 L223.52,105.901 Z M223.472,105.827 L223.341,105.862 C223.336,105.845 223.324,105.821 223.305,105.79 L223.422,105.72 L223.539,105.65 C223.558,105.683 223.588,105.735 223.603,105.791 L223.472,105.827 Z M223.422,105.72 L223.305,105.79 C223.287,105.759 223.263,105.723 223.236,105.685 L223.347,105.606 L223.458,105.527 C223.489,105.57 223.516,105.613 223.539,105.65 L223.422,105.72 Z M223.347,105.606 L223.236,105.685 C223.18,105.606 223.105,105.51 223.021,105.404 L223.127,105.32 L223.234,105.235 C223.317,105.34 223.397,105.442 223.458,105.527 L223.347,105.606 Z M223.127,105.32 L223.021,105.404 C222.853,105.194 222.649,104.946 222.487,104.727 L222.596,104.646 L222.705,104.565 C222.864,104.779 223.062,105.019 223.234,105.235 L223.127,105.32 Z M222.596,104.646 L222.46,104.646 L222.46,104.645 L222.596,104.645 L222.732,104.645 L222.732,104.646 L222.596,104.646 Z M222.596,104.645 L222.487,104.726 C222.324,104.509 222.049,104.241 221.766,104.007 L221.853,103.902 L221.939,103.797 C222.231,104.037 222.524,104.322 222.705,104.563 L222.596,104.645 Z M221.853,103.902 L221.766,104.007 C221.483,103.773 221.191,103.573 220.995,103.495 L221.045,103.369 L221.096,103.242 C221.334,103.337 221.652,103.56 221.939,103.797 L221.853,103.902 Z M221.045,103.369 L220.995,103.495 C220.896,103.456 220.797,103.426 220.699,103.395 L220.74,103.265 L220.782,103.135 C220.873,103.165 220.986,103.198 221.096,103.242 L221.045,103.369 Z M220.74,103.265 L220.699,103.395 C220.6,103.363 220.497,103.328 220.39,103.273 L220.452,103.152 L220.514,103.031 C220.601,103.075 220.686,103.105 220.782,103.135 L220.74,103.265 Z M220.452,103.152 L220.39,103.273 C220.177,103.164 219.945,102.979 219.673,102.6 L219.783,102.521 L219.894,102.442 C220.146,102.792 220.347,102.945 220.514,103.031 L220.452,103.152 Z M219.783,102.521 L219.673,102.6 L219.673,102.6 L219.774,102.509 L219.875,102.418 C219.878,102.421 219.886,102.431 219.894,102.441 L219.783,102.521 Z M219.774,102.509 L219.673,102.6 L217.695,100.402 L217.796,100.311 L217.897,100.22 L219.875,102.418 L219.774,102.509 Z M217.796,100.311 L217.688,100.394 C217.683,100.387 217.679,100.381 217.669,100.368 L217.777,100.286 L217.885,100.203 C217.892,100.212 217.901,100.223 217.904,100.228 L217.796,100.311 Z M217.777,100.286 L217.669,100.368 C217.652,100.346 217.626,100.313 217.594,100.271 L217.701,100.188 L217.809,100.105 C217.841,100.147 217.867,100.18 217.885,100.203 L217.777,100.286 Z M217.701,100.188 L217.594,100.271 C217.529,100.187 217.435,100.065 217.32,99.917 L217.427,99.8334 L217.534,99.7498 C217.65,99.8984 217.744,100.02 217.809,100.105 L217.701,100.188 Z M217.427,99.8334 L217.32,99.917 C217.089,99.6207 216.772,99.217 216.426,98.7879 L216.531,98.7025 L216.637,98.6171 C216.985,99.0477 217.303,99.4527 217.534,99.7498 L217.427,99.8334 Z M216.531,98.7025 L216.426,98.7879 C216.014,98.2773 215.556,97.7282 215.156,97.2793 L215.258,97.1888 L215.36,97.0984 C215.763,97.5517 216.224,98.1046 216.637,98.6171 L216.531,98.7025 Z M215.258,97.1888 L215.122,97.1804 C215.127,97.1085 215.119,97.0173 215.105,96.9115 L215.24,96.8929 L215.374,96.8744 C215.389,96.9848 215.4,97.0976 215.394,97.1973 L215.258,97.1888 Z M215.24,96.8929 L215.105,96.9115 C215.084,96.7635 215.048,96.5822 215.001,96.378 L215.133,96.347 L215.266,96.3161 C215.314,96.5243 215.352,96.7147 215.374,96.8744 L215.24,96.8929 Z M215.133,96.347 L215.001,96.378 C214.905,95.9688 214.764,95.4641 214.617,94.9362 L214.748,94.8998 L214.879,94.8633 C215.026,95.389 215.168,95.9001 215.266,96.3161 L215.133,96.347 Z M214.748,94.8998 L214.617,94.9362 C214.47,94.4083 214.318,93.857 214.198,93.3552 L214.33,93.3236 L214.463,93.292 C214.581,93.7881 214.732,94.3346 214.879,94.8633 L214.748,94.8998 Z M214.33,93.3236 L214.198,93.3552 C214.078,92.8536 213.992,92.4011 213.977,92.07 L214.113,92.0638 L214.248,92.0577 C214.262,92.3611 214.343,92.7921 214.463,93.292 L214.33,93.3236 Z M214.113,92.0638 L213.977,92.0669 L213.965,91.5533 L214.101,91.5502 L214.237,91.5471 L214.249,92.0607 L214.113,92.0638 Z M214.101,91.5502 L213.965,91.5508 C213.962,91.0169 213.984,90.4469 214.009,89.9697 L214.145,89.9769 L214.281,89.9841 C214.255,90.4586 214.234,91.0229 214.237,91.5495 L214.101,91.5502 Z M214.145,89.9769 L214.009,89.9697 C214.026,89.6521 214.045,89.3758 214.059,89.1789 L214.195,89.1888 L214.33,89.1988 C214.316,89.3943 214.297,89.6688 214.281,89.9841 L214.145,89.9769 Z M214.195,89.1888 L214.059,89.1789 C214.066,89.0806 214.072,89.0015 214.077,88.9475 L214.212,88.9584 L214.348,88.9693 C214.343,89.0226 214.337,89.101 214.33,89.1988 L214.195,89.1888 Z M214.212,88.9584 L214.077,88.9475 C214.079,88.922 214.08,88.8995 214.081,88.8855 L214.217,88.8969 L214.353,88.9082 C214.351,88.9221 214.35,88.9413 214.348,88.9693 L214.212,88.9584 Z M214.217,88.8969 L214.081,88.8855 C214.082,88.8781 214.083,88.8719 214.083,88.8684 C214.084,88.8659 214.084,88.8662 214.084,88.8654 C214.084,88.8649 214.084,88.8666 214.083,88.869 L214.219,88.8812 L214.354,88.8934 C214.354,88.8977 214.354,88.9013 214.353,88.903 C214.353,88.9044 214.353,88.9071 214.353,88.9072 C214.353,88.9089 214.353,88.9088 214.353,88.9082 L214.217,88.8969 Z M214.219,88.8812 L214.083,88.8812 L214.083,88.8763 L214.219,88.8763 L214.355,88.8763 L214.355,88.8812 L214.219,88.8812 Z M214.219,88.8763 L214.083,88.8646 L214.084,88.8641 L214.17,88.7592 L214.257,88.6542 C214.326,88.7116 214.362,88.7997 214.355,88.8881 L214.219,88.8763 Z M214.17,88.7592 L214.17,88.8952 L214.169,88.8952 L214.169,88.7592 L214.169,88.6231 L214.17,88.6231 L214.17,88.7592 Z M214.169,88.7592 L214.033,88.7592 L214.033,88.7582 L214.169,88.7582 L214.305,88.7582 L214.305,88.7592 L214.169,88.7592 Z M214.169,88.7582 L214.086,88.8657 C214.089,88.8682 214.092,88.87 214.093,88.871 C214.095,88.872 214.096,88.8728 214.096,88.8731 C214.097,88.8735 214.097,88.8737 214.097,88.8737 C214.097,88.8737 214.097,88.8737 214.097,88.8736 C214.097,88.8736 214.097,88.8736 214.097,88.8735 C214.097,88.8735 214.097,88.8733 214.097,88.8732 C214.096,88.8726 214.094,88.8713 214.091,88.8696 C214.088,88.8679 214.085,88.8652 214.08,88.8616 L214.166,88.7562 L214.252,88.6508 C214.248,88.6477 214.245,88.6454 214.243,88.644 C214.241,88.6427 214.24,88.6417 214.239,88.6415 C214.239,88.6414 214.239,88.6413 214.239,88.6415 C214.239,88.6416 214.24,88.642 214.241,88.6425 C214.242,88.643 214.243,88.6439 214.245,88.645 C214.246,88.6461 214.249,88.648 214.252,88.6506 L214.169,88.7582 Z M214.166,88.7562 L214.08,88.8614 C214.077,88.8586 214.074,88.8561 214.073,88.8551 C214.072,88.8544 214.071,88.8538 214.071,88.8535 C214.07,88.853 214.07,88.8529 214.07,88.8526 C214.069,88.8519 214.07,88.8528 214.072,88.8541 L214.157,88.7484 L214.243,88.6428 C214.249,88.6472 214.253,88.6511 214.255,88.6531 C214.255,88.6535 214.256,88.654 214.256,88.6542 C214.256,88.6544 214.257,88.6545 214.256,88.6544 C214.256,88.6543 214.256,88.654 214.255,88.6535 C214.255,88.653 214.254,88.6521 214.253,88.6511 L214.166,88.7562 Z M214.157,88.7484 L214.072,88.8541 C214.064,88.8477 214.052,88.8383 214.037,88.8263 L214.122,88.7201 L214.207,88.6139 C214.223,88.6263 214.235,88.636 214.243,88.6428 L214.157,88.7484 Z M214.122,88.7201 L214.037,88.8263 C214.007,88.8019 213.962,88.7662 213.905,88.722 L213.989,88.6146 L214.072,88.5072 C214.13,88.5523 214.176,88.5887 214.207,88.6139 L214.122,88.7201 Z M213.989,88.6146 L213.905,88.722 C213.791,88.6337 213.629,88.5104 213.434,88.3706 L213.514,88.2601 L213.593,88.1497 C213.791,88.2917 213.956,88.417 214.072,88.5072 L213.989,88.6146 Z M213.514,88.2601 L213.434,88.3706 C213.046,88.0909 212.528,87.7458 212.015,87.4828 L212.077,87.3617 L212.139,87.2406 C212.67,87.5125 213.2,87.8665 213.593,88.1497 L213.514,88.2601 Z M212.077,87.3617 L212.015,87.4828 C211.759,87.3511 211.503,87.2394 211.266,87.1677 L211.305,87.0375 L211.344,86.9072 C211.603,86.9854 211.875,87.1048 212.139,87.2406 L212.077,87.3617 Z M211.305,87.0375 L211.266,87.1677 C211.028,87.096 210.807,87.0634 210.621,87.0883 L210.603,86.9535 L210.585,86.8186 C210.825,86.7864 211.089,86.8301 211.344,86.9072 L211.305,87.0375 Z M222.381,105.941 L222.492,105.862 L222.511,105.889 L222.401,105.968 L222.29,106.047 L222.27,106.02 L222.381,105.941 Z M222.401,105.968 L222.513,105.891 C222.53,105.916 222.552,105.948 222.58,105.988 L222.469,106.067 L222.358,106.145 C222.329,106.104 222.304,106.068 222.289,106.046 L222.401,105.968 Z M222.469,106.067 L222.58,105.988 C222.637,106.069 222.715,106.176 222.797,106.284 L222.689,106.367 L222.581,106.449 C222.496,106.338 222.416,106.227 222.358,106.145 L222.469,106.067 Z M222.689,106.367 L222.797,106.284 C222.831,106.328 222.866,106.371 222.904,106.418 L222.798,106.503 L222.692,106.589 C222.658,106.546 222.617,106.497 222.581,106.449 L222.689,106.367 Z M222.798,106.503 L222.711,106.608 C222.676,106.578 222.621,106.542 222.562,106.505 L222.633,106.389 L222.705,106.273 C222.767,106.312 222.834,106.356 222.885,106.399 L222.798,106.503 Z M222.633,106.389 L222.562,106.505 C222.489,106.46 222.402,106.41 222.317,106.36 L222.386,106.243 L222.455,106.125 C222.538,106.174 222.628,106.226 222.705,106.273 L222.633,106.389 Z M222.386,106.243 L222.317,106.36 C222.233,106.311 222.149,106.262 222.083,106.219 L222.156,106.105 L222.23,105.99 C222.29,106.029 222.368,106.075 222.455,106.125 L222.386,106.243 Z M222.156,106.105 L222.083,106.219 C222.05,106.198 222.021,106.178 221.998,106.161 L222.081,106.053 L222.164,105.945 C222.178,105.956 222.2,105.971 222.23,105.99 L222.156,106.105 Z M222.081,106.053 L221.998,106.161 C221.984,106.15 221.974,106.141 221.968,106.135 C221.967,106.134 221.965,106.133 221.965,106.133 C221.965,106.133 221.966,106.133 221.966,106.133 C221.966,106.133 221.966,106.133 221.967,106.134 C221.967,106.134 221.967,106.135 221.968,106.136 C221.969,106.136 221.971,106.138 221.973,106.14 C221.975,106.141 221.977,106.143 221.98,106.145 C221.982,106.147 221.989,106.152 221.999,106.157 C222.004,106.159 222.015,106.165 222.03,106.168 C222.042,106.171 222.081,106.178 222.123,106.157 C222.175,106.13 222.192,106.081 222.196,106.051 C222.199,106.026 222.194,106.006 222.192,106 C222.188,105.984 222.182,105.973 222.18,105.971 C222.178,105.967 222.176,105.964 222.175,105.962 C222.173,105.959 222.172,105.957 222.171,105.956 C222.17,105.955 222.166,105.949 222.17,105.954 C222.171,105.956 222.173,105.958 222.174,105.961 L222.063,106.038 L221.951,106.116 C221.952,106.117 221.952,106.118 221.953,106.119 C221.956,106.123 221.951,106.117 221.95,106.115 C221.95,106.115 221.948,106.112 221.946,106.109 C221.945,106.107 221.943,106.104 221.941,106.1 C221.94,106.098 221.934,106.087 221.929,106.072 C221.928,106.065 221.923,106.045 221.926,106.02 C221.929,105.99 221.946,105.941 221.998,105.915 C222.041,105.893 222.079,105.9 222.091,105.903 C222.106,105.906 222.117,105.912 222.122,105.914 C222.132,105.919 222.139,105.925 222.141,105.926 C222.145,105.928 222.147,105.93 222.148,105.931 C222.151,105.933 222.152,105.935 222.153,105.936 C222.154,105.937 222.155,105.937 222.155,105.938 C222.156,105.938 222.156,105.939 222.156,105.939 C222.157,105.939 222.157,105.939 222.156,105.939 C222.155,105.938 222.157,105.94 222.164,105.945 L222.081,106.053 Z M222.063,106.038 L222.175,105.961 C222.175,105.962 222.176,105.962 222.176,105.963 C222.176,105.963 222.176,105.963 222.175,105.962 C222.175,105.962 222.175,105.961 222.174,105.96 C222.173,105.959 222.172,105.957 222.17,105.955 C222.169,105.954 222.164,105.948 222.158,105.942 C222.154,105.939 222.147,105.933 222.137,105.926 C222.13,105.922 222.105,105.906 222.069,105.905 C222.048,105.905 222.023,105.909 221.999,105.922 C221.975,105.936 221.959,105.954 221.949,105.971 C221.931,106 221.929,106.028 221.929,106.036 C221.928,106.055 221.932,106.07 221.932,106.071 C221.933,106.076 221.934,106.08 221.935,106.081 C221.935,106.083 221.936,106.084 221.936,106.085 C221.937,106.087 221.937,106.088 221.936,106.086 C221.934,106.08 221.929,106.067 221.923,106.046 L222.053,106.006 L222.183,105.966 C222.187,105.98 222.19,105.987 222.191,105.99 C222.191,105.99 222.192,105.993 222.193,105.996 C222.193,105.997 222.196,106.003 222.198,106.011 C222.198,106.013 222.202,106.028 222.201,106.047 C222.2,106.055 222.199,106.083 222.181,106.112 C222.157,106.152 222.111,106.179 222.061,106.177 C222.025,106.176 221.999,106.161 221.992,106.156 C221.982,106.15 221.975,106.144 221.972,106.141 C221.965,106.134 221.961,106.129 221.959,106.127 C221.956,106.123 221.953,106.12 221.953,106.119 C221.952,106.118 221.952,106.117 221.951,106.117 C221.951,106.116 221.951,106.116 221.951,106.116 L222.063,106.038 Z M222.053,106.006 L221.923,106.046 C221.913,106.013 221.902,105.971 221.891,105.924 L222.024,105.893 L222.156,105.862 C222.167,105.907 222.176,105.942 222.183,105.966 L222.053,106.006 Z M222.024,105.893 L221.891,105.924 C221.869,105.828 221.846,105.71 221.824,105.594 L221.958,105.57 L222.092,105.545 C222.113,105.659 222.135,105.773 222.156,105.862 L222.024,105.893 Z M221.958,105.57 L221.824,105.594 C221.823,105.585 221.821,105.576 221.82,105.569 C221.819,105.562 221.818,105.557 221.818,105.552 L221.951,105.528 L222.085,105.504 C222.087,105.513 222.088,105.521 222.089,105.528 C222.09,105.535 222.091,105.54 222.092,105.545 L221.958,105.57 Z M221.951,105.528 L222.046,105.43 L222.475,105.843 L222.381,105.941 L222.287,106.039 L221.857,105.626 L221.951,105.528 Z" id="Shape" fill="#00402A"></path>
                <path d="M209.892,90.0922 C210.134,91.4413 214.008,91.1393 214.124,90.656 C214.366,89.4278 214.481,87.4344 214.489017,85.6383 C214.493,84.5631 213.806,83.2503 213.592,83.1819 C211.17,82.3885 210.392,83.5846 209.916,85.445 C209.781,85.9726 209.734,87.6519 209.746,88.2277 C209.761,88.8036 209.833,89.762 209.892,90.0963 L209.892,90.0922 Z" id="Path" stroke="#00402A" stroke-width="0.2721" fill="#FFFEFF" stroke-linejoin="round"></path>
                <path d="M190.8,99.2819 L190.8,96.4281 L191.711,96.4281 L191.711,99.2819 C191.711,99.3502 191.667,99.4167 191.578,99.4679 C191.4,99.5704 191.112,99.5704 190.934,99.4679 C190.845,99.4167 190.801,99.3484 190.801,99.2819 L190.8,99.2819 Z" id="Path" stroke="#00402A" stroke-width="0.2721" fill="#FFFEFF"></path>
                <path d="M191.254,99.5723 C191.133,99.5723 191.01,99.5455 190.918,99.4924 C190.823,99.4375 190.77,99.3613 190.77,99.2802 L190.77,96.4264 C190.77,96.4093 190.783,96.3977 190.798,96.3977 L191.709,96.3977 C191.725,96.3977 191.738,96.4111 191.738,96.4264 L191.738,99.2802 C191.738,99.3619 191.685,99.4357 191.59,99.4924 C191.497,99.5455 191.376,99.5723 191.253,99.5723 L191.255,99.5723 L191.254,99.5723 Z" id="Path" stroke="#00402A" stroke-width="0.2721" fill="#FFF5EC"></path>
                <path d="M190.932,96.2421 C190.754,96.3446 190.754,96.5117 190.932,96.6136 C191.11,96.7161 191.398,96.7161 191.576,96.6136 C191.754,96.5111 191.754,96.344 191.576,96.2421 C191.398,96.1403 191.11,96.1397 190.932,96.2421 Z" id="Path" stroke="#00402A" stroke-width="0.2721" fill="#FFFEFF"></path>
                <path d="M191.254,96.7198 C191.133,96.7198 191.01,96.6929 190.918,96.6399 C190.823,96.585 190.77,96.5087 190.77,96.4276 C190.77,96.3465 190.823,96.2721 190.918,96.2154 C191.103,96.1074 191.404,96.1074 191.59,96.2154 C191.684,96.2703 191.738,96.3465 191.738,96.4276 C191.738,96.5087 191.685,96.5831 191.59,96.6399 C191.497,96.6929 191.376,96.7198 191.253,96.7198 L191.255,96.7198 L191.254,96.7198 Z M190.947,96.2666 C190.872,96.3105 190.828,96.3672 190.828,96.4276 C190.828,96.488 190.869,96.5435 190.947,96.5886 C191.116,96.6874 191.393,96.6874 191.563,96.5886 C191.638,96.5447 191.682,96.488 191.682,96.4276 C191.682,96.3672 191.64,96.3117 191.563,96.2666 C191.394,96.1678 191.117,96.1678 190.947,96.2666 Z" id="Shape" stroke="#00402A" stroke-width="0.2721" fill="#00402A"></path>
                <path d="M189.231,95.3584 L190.945,91.985 L191.563,91.985 L193.277,95.3584 C193.487,95.7719 193.311,96.2385 192.744,96.5642 C191.92,97.04 190.586,97.04 189.762,96.5642 C189.197,96.2379 189.02,95.7713 189.23,95.3584 L189.231,95.3584 Z" id="Path" stroke="#00402A" stroke-width="0.2721" fill="#007F33"></path>
                <path d="M191.027,91.9051 C190.902,91.977 190.902,92.0947 191.027,92.1685 C191.152,92.2405 191.356,92.2405 191.481,92.1685 C191.606,92.0966 191.606,91.9789 191.481,91.9051 C191.356,91.8331 191.152,91.8331 191.027,91.9051 Z" id="Path" stroke="#00402A" stroke-width="0.2721" fill="#FFFEFF"></path>
                <path d="M191.254,92.2522 C191.167,92.2522 191.08,92.2333 191.012,92.1936 C190.942,92.154 190.902,92.0966 190.902,92.0363 C190.902,91.9759 190.94,91.9204 191.012,91.8789 C191.148,91.8014 191.36,91.8014 191.497,91.8789 C191.567,91.9185 191.606,91.9759 191.606,92.0363 C191.606,92.0966 191.569,92.1521 191.497,92.1936 C191.429,92.2333 191.341,92.2522 191.254,92.2522 Z M191.042,91.9295 C190.991,91.96 190.963,91.9978 190.963,92.0356 C190.963,92.0735 190.991,92.1113 191.042,92.1418 C191.16,92.2101 191.351,92.2101 191.469,92.1418 C191.52,92.1113 191.549,92.0735 191.549,92.0356 C191.549,91.9978 191.52,91.96 191.469,91.9295 C191.351,91.8612 191.16,91.8612 191.042,91.9295 Z" id="Shape" stroke="#00402A" stroke-width="0.2721" fill="#00402A"></path>
                <path d="M189.688,92.9748 L191.015,90.3638 L191.495,90.3638 L192.822,92.9748 C192.985,93.295 192.849,93.6555 192.411,93.9098 C191.773,94.2776 190.739,94.2776 190.103,93.9098 C189.666,93.6573 189.527,93.2956 189.692,92.9748 L189.688,92.9748 L189.688,92.9748 Z" id="Path" stroke="#00402A" stroke-width="0.2721" fill="#007F33"></path>
                <path d="M191.078,90.301 C190.981,90.3577 190.981,90.4492 191.078,90.5041 C191.175,90.5608 191.334,90.5608 191.43,90.5041 C191.527,90.4473 191.527,90.3559 191.43,90.301 C191.333,90.2442 191.174,90.2442 191.078,90.301 Z" id="Path" stroke="#00402A" stroke-width="0.2721" fill="#FFFEFF"></path>
                <path d="M191.254,90.5778 C191.186,90.5778 191.116,90.5625 191.063,90.532 C191.006,90.4997 190.976,90.4546 190.976,90.4052 C190.976,90.3558 191.006,90.3106 191.063,90.2783 C191.169,90.2155 191.338,90.2155 191.445,90.2783 C191.502,90.3106 191.532,90.3558 191.532,90.4052 C191.532,90.4546 191.502,90.4997 191.445,90.532 C191.392,90.5625 191.324,90.5778 191.254,90.5778 Z M191.254,90.2893 C191.196,90.2893 191.137,90.3027 191.093,90.3271 C191.056,90.3478 191.035,90.3765 191.035,90.4027 C191.035,90.429 191.056,90.4576 191.093,90.4784 C191.18,90.5296 191.328,90.5296 191.417,90.4784 C191.455,90.4576 191.476,90.429 191.476,90.4027 C191.476,90.3765 191.455,90.3478 191.417,90.3271 C191.374,90.3027 191.315,90.2893 191.257,90.2893 L191.255,90.2893 L191.254,90.2893 Z" id="Shape" stroke="#00402A" stroke-width="0.2721" fill="#00402A"></path>
                <path d="M190.192,90.7694 L191.093,88.9963 L191.417,88.9963 L192.319,90.7694 C192.428,90.9877 192.336,91.2323 192.038,91.4025 C191.605,91.6525 190.904,91.6525 190.471,91.4025 C190.173,91.2298 190.081,90.9853 190.191,90.7694 L190.192,90.7694 L190.192,90.7694 Z" id="Path" stroke="#00402A" stroke-width="0.2721" fill="#007F33"></path>
                <path d="M191.135,88.9561 C191.069,88.9939 191.069,89.0567 191.135,89.0945 C191.201,89.1324 191.307,89.1324 191.374,89.0945 C191.44,89.0567 191.44,88.9939 191.374,88.9561 C191.307,88.9183 191.201,88.9183 191.135,88.9561 Z" id="Path" stroke="#00402A" stroke-width="0.2721" fill="#007F33"></path>
                <path d="M229.1664,113 C229.1664,112.264 228.5694,111.667 227.8334,111.667 C227.0974,111.667 226.5004,112.264 226.5004,113 C226.5004,113.736 227.0974,114.333 227.8334,114.333 C228.5694,114.333 229.1664,113.736 229.1664,113 Z M227.8334,235 L228.0834,235 L228.0834,113 L227.8334,113 L227.5834,113 L227.5834,235 L227.8334,235 Z" id="Shape" fill="#00402A"></path>
            </g>
        </g>
    </g>
</svg>