<?xml version="1.0" encoding="UTF-8"?>
<svg width="475px" height="341px" viewBox="0 0 475 341" version="1.1" xmlns="http://www.w3.org/2000/svg" xmlns:xlink="http://www.w3.org/1999/xlink">
    <title>Group</title>
    <g id="Page-1" stroke="none" stroke-width="1" fill="none" fill-rule="evenodd">
        <g id="5" transform="translate(0, -38)">
            <path d="M221.564,311.659 C224.161,313.158 224.19,315.599 221.593,317.098 L185.831,337.875 C183.254,339.375 179.029,339.375 176.432,337.875 L80.5441,282.512 C77.9372,281.003 77.9274,278.572 80.5147,277.073 L116.277,256.296 C118.864,254.787 123.069,254.787 125.675,256.296 L221.564,311.659 Z" id="Path" stroke="#00402A" stroke-width="0.5" fill-opacity="0.5" fill="#DCEBE1" fill-rule="nonzero" stroke-linejoin="round"></path>
            <path d="M158.983,236.568 C158.983,237.305 159.58,237.902 160.316,237.902 C161.053,237.902 161.65,237.305 161.65,236.568 C161.65,235.832 161.053,235.235 160.316,235.235 C159.58,235.235 158.983,235.832 158.983,236.568 Z M160.316,195.568 L160.066,195.568 L160.066,236.568 L160.316,236.568 L160.566,236.568 L160.566,195.568 L160.316,195.568 Z" id="Shape" fill="#00402A" fill-rule="nonzero"></path>
            <path d="M137.3,290.145 C137.73,290.425 138.19,290.645 138.68,290.815 C139.59,291.125 140.59,291.235 141.42,291.735 C141.97,292.065 142.41,292.555 142.81,293.065 C143.44,293.875 143.99,294.735 144.65,295.515 C145.31,296.285 146.11,296.975 147.08,297.305 C147.6,297.475 148.18,297.535 148.68,297.345 L148.86,297.255 C149.32,296.995 149.62,296.525 149.82,296.035 C150.26,294.945 150.32,293.595 149.76,292.535 C149.35,291.755 148.61,291.145 147.79,290.845 C146.8,290.495 145.95,289.855 145.18,289.165 C144.72,288.765 144.28,288.325 143.91,287.825 C143.57,287.365 143.42,286.845 143.25,286.335 C143.11,285.945 142.97,285.565 142.71,285.215 C142.14,284.445 141.23,283.935 140.28,283.845 C139.1,283.735 137.89,284.245 137.1,285.125 C136.46,285.825 136.09,286.745 136.01,287.675 C135.92,288.675 136.46,289.605 137.3,290.145 Z" id="Path" stroke="#00402A" stroke-width="0.5" fill="#3A3735" fill-rule="nonzero"></path>
            <path d="M126.919,258.455 C127.039,259.115 127.189,259.785 127.549,260.355 C127.989,261.075 128.709,261.565 129.439,261.995 C131.199,263.035 133.109,263.805 135.009,264.565 C136.569,265.185 138.139,265.805 139.709,266.405 C140.769,266.815 142.399,267.125 142.649,268.515 C142.739,269.085 142.379,269.735 142.149,270.245 C141.429,271.835 140.849,273.475 140.369,275.155 C139.919,276.705 139.549,278.275 139.209,279.855 C139.059,280.535 138.459,283.175 138.349,283.825 C138.349,283.885 138.329,283.945 138.349,283.995 C138.369,284.045 138.379,284.095 138.399,284.145 C138.589,284.545 139.029,284.955 139.359,285.245 L139.379,285.265 C140.309,286.055 141.499,286.535 142.719,286.595 C142.939,286.605 143.189,286.595 143.359,286.455 C143.549,286.305 143.689,286.025 143.829,285.835 C144.069,285.525 150.179,276.495 151.739,273.975 C152.699,272.415 153.649,270.805 154.089,269.035 C154.439,267.635 154.469,265.975 153.909,264.625 C153.389,263.365 152.329,262.395 151.349,261.485 L147.629,258.065 C145.599,256.205 143.569,254.345 141.539,252.475 C141.379,252.335 141.229,252.185 141.069,252.045 C139.259,250.375 137.629,248.205 134.979,248.065 C133.599,247.995 132.209,248.395 130.969,249.025 C129.499,249.765 128.169,250.875 127.419,252.345 C126.479,254.195 126.559,256.405 126.929,258.455 L126.919,258.455 Z" id="Path" stroke="#00402A" stroke-width="0.5" fill="#B0A9A3" fill-rule="nonzero"></path>
            <path d="M98.6296,272.395 C98.6296,273.025 98.9196,273.615 99.0196,274.235 C99.0996,274.705 99.0796,275.215 99.3096,275.625 C99.6896,276.315 100.61,276.475 101.4,276.455 C102.2,276.435 103,276.305 103.76,276.065 C104.14,275.945 104.53,275.795 104.82,275.515 C105.11,275.235 105.28,274.805 105.15,274.425 C104.96,273.835 104.13,273.515 104.16,272.895 C104.18,272.385 104.81,272.105 105.31,272.185 C105.81,272.255 106.26,272.545 106.76,272.665 C106.8,272.675 106.85,272.685 106.9,272.695 C107.06,272.715 107.24,272.715 107.39,272.655 C107.56,272.595 107.71,272.465 107.84,272.325 C108.14,272.035 108.42,271.725 108.68,271.405 C108.93,271.105 109.16,270.785 109.31,270.425 C109.47,270.065 109.82,269.495 109.6,269.105 C109.52,268.965 109.39,268.855 109.26,268.745 C108.63,268.225 108.01,267.705 107.38,267.195 C106.67,266.605 106.04,265.955 105.48,265.225 C105.23,264.905 105,264.565 104.75,264.245 C104.35,263.725 103.86,263.345 103.19,263.275 C102.45,263.195 101.87,263.775 101.62,264.425 C101.41,265.005 101.39,265.645 101.28,266.255 C101,267.725 100.15,269.005 99.3896,270.285 C99.3596,270.335 99.3296,270.395 99.2996,270.445 C98.9396,271.055 98.6196,271.695 98.6296,272.395 Z" id="Path" stroke="#00402A" stroke-width="0.5" fill="#3A3735" fill-rule="nonzero"></path>
            <path d="M136.569,230.061 L140.761,240.189 C141.281,242.218 144.14,244.398 147.15,248.062 C148.969,250.284 153.262,248.012 151.778,245.32 L146.521,235.972 L143.067,227.092 C141.44,224.024 138.581,222.355 136.569,223.395 L136.569,230.061 Z" id="Path" stroke="#00402A" stroke-width="0.5" fill="#FFF5EC" fill-rule="nonzero" stroke-linejoin="round"></path>
            <path d="M104.23,270.985 C104.25,271.105 104.32,271.205 104.38,271.305 C104.71,271.855 105.04,272.405 105.35,272.955 C105.62,273.455 107.21,275.775 107.53,276.255 C110.32,280.495 113.46,284.625 117.58,287.605 C119.71,289.145 122.65,291.275 125.42,290.245 C126.06,290.015 126.62,289.635 127.09,289.165 C127.97,288.275 128.49,287.055 128.45,285.805 C128.28,280.385 126.6,275.135 127.08,269.665 C127.42,265.845 129.44,262.705 131.52,259.595 C131.99,258.885 132.46,258.175 132.9,257.445 C133.95,255.735 134.85,253.935 135.26,251.975 C135.17,252.395 133.93,252.845 133.58,252.955 C133.01,253.135 132.33,253.225 131.72,253.205 C131.09,253.185 130.44,252.845 129.82,252.705 C129.16,252.555 128.49,252.445 127.83,252.325 C124.28,251.675 121.05,249.425 119.21,246.315 C117.43,246.905 116.15,248.445 114.97,249.905 C113.39,251.865 112.2,254.205 111.86,256.735 C111.52,259.255 111.82,261.855 112.18,264.335 C112.52,266.685 112.98,269.015 113.57,271.315 C113.57,271.335 113.57,271.345 113.57,271.365 C113.54,271.345 113.52,271.325 113.49,271.305 C113.01,270.995 112.51,270.675 112.03,270.365 C111.13,269.795 110.24,269.225 109.37,268.615 C108.67,268.135 108.11,267.355 107.25,267.145 C106.38,266.925 105.44,267.415 104.92,268.145 C104.67,268.495 104.5,268.895 104.39,269.325 C104.27,269.765 104.22,270.235 104.2,270.695 C104.2,270.795 104.2,270.895 104.22,270.985 L104.23,270.985 Z" id="Path" stroke="#00402A" stroke-width="0.5" fill="#D8CFC7" fill-rule="nonzero"></path>
            <path d="M127.56,217.085 C127.46,217.185 127.37,217.285 127.29,217.405 C127.09,217.685 126.95,218.005 126.84,218.335 C126.8,218.455 126.77,218.565 126.74,218.685 C126.24,220.695 126.97,223.235 129.25,223.645 C130.83,223.935 132.57,223.115 133.25,221.665 C133.54,221.045 133.64,220.355 133.62,219.675 C133.62,219.265 133.56,218.845 133.4,218.465 C133.16,217.895 132.77,217.395 132.3,216.985 C131.86,216.595 131.32,216.325 130.75,216.185 C129.76,215.955 128.66,216.185 127.86,216.825 C127.75,216.905 127.65,217.005 127.55,217.095 L127.56,217.085 Z" id="Path" stroke="#00402A" stroke-width="0.5" fill="#C66D00" fill-rule="nonzero"></path>
            <path d="M119.34,238.385 C119.4,238.615 119.3,238.985 119.29,239.225 C119.27,239.765 119.25,240.305 119.24,240.845 C119.22,241.955 119.24,243.055 119.26,244.155 C119.33,246.315 119.5,248.465 119.78,250.605 C119.81,250.865 119.87,251.115 119.95,251.355 C120.55,253.295 122.4,254.705 124.24,255.525 C124.48,255.635 124.71,255.725 124.94,255.815 C126.52,256.405 128.23,256.625 129.92,256.605 C131.03,256.595 132.15,256.485 133.18,256.065 C134.56,255.505 135.55,254.035 136.43,252.895 C138.16,250.635 139.7,248.235 141.46,246.005 C142.04,245.265 142.66,244.545 143.08,243.705 C143.84,242.205 143.89,240.465 143.88,238.785 C143.85,236.085 143.71,233.375 143.44,230.685 C143.44,230.605 143.44,230.525 143.42,230.455 C143.32,229.445 143.46,227.645 142.65,226.975 C141.7,226.185 140.7,225.455 139.57,224.925 C138.15,224.245 136.56,223.875 135,224.055 C133.17,224.265 131.51,225.185 129.96,226.165 C127.01,228.025 124.24,230.175 121.7,232.555 C120.98,233.235 120.27,233.935 119.74,234.765 C119.4,235.295 119.13,235.885 119,236.515 C118.94,236.815 118.64,237.885 119,238.085 C119.26,238.235 119.27,238.105 119.35,238.385 L119.34,238.385 Z" id="Path" stroke="#00402A" stroke-width="0.5" fill="#FFFEFF" fill-rule="nonzero"></path>
            <path d="M129.74,227.155 C129.63,227.995 130.01,228.945 130.44,229.655 C131.22,230.905 132.25,231.755 133.58,232.285 C133.74,232.355 133.9,232.415 134.07,232.465 C134.88,232.725 135.88,232.805 136.72,232.635 C137.06,232.575 137.41,232.455 137.67,232.225 C138.2,231.735 137.9,231.085 137.82,230.485 C137.82,230.465 137.82,230.445 137.82,230.425 C137.78,230.025 137.93,229.685 138.15,229.365 C138.59,228.745 139.24,228.205 138.91,227.375 C138.71,226.885 138.31,226.525 137.93,226.165 C136.97,225.245 136.06,224.225 135.54,222.995 C135,221.735 134.91,220.325 134.41,219.045 C134.04,219.855 133.67,220.675 133.29,221.485 C133.23,221.625 133.16,221.755 133.1,221.895 C132.77,222.605 132.44,223.315 131.99,223.955 C131.51,224.615 130.91,225.175 130.41,225.815 C130.1,226.215 129.82,226.655 129.75,227.155 L129.74,227.155 Z" id="Path" stroke="#00402A" stroke-width="0.5" fill="#FFCFB3" fill-rule="nonzero"></path>
            <path d="M132.279,222.085 C132.439,222.815 132.899,223.475 133.529,223.875 C133.739,224.005 133.969,224.115 134.119,224.315 C134.209,224.455 134.259,224.615 134.299,224.785 C134.459,225.505 134.519,226.265 134.869,226.915 C135.299,227.715 136.109,228.245 136.879,228.725 C137.989,229.415 139.129,230.095 140.399,230.335 C140.809,230.415 141.279,230.425 141.639,230.225 C141.739,230.185 141.829,230.115 141.909,230.035 C142.219,229.705 142.269,229.175 142.599,228.875 C142.869,228.635 143.299,228.565 143.459,228.255 C143.519,228.145 143.539,228.025 143.609,227.925 C143.869,227.585 144.409,227.915 144.829,227.855 C145.139,227.815 145.379,227.555 145.479,227.255 C145.579,226.955 145.549,226.635 145.479,226.325 C145.369,225.775 145.159,225.215 145.209,224.645 C145.319,223.405 146.589,222.565 146.929,221.365 C147.029,221.025 147.039,220.665 147.059,220.305 C147.089,219.495 147.139,218.685 147.169,217.875 C147.189,217.275 146.949,216.865 146.559,216.415 C145.749,215.465 144.529,214.895 143.299,214.785 C141.869,214.665 140.419,215.145 139.299,216.035 C138.669,216.535 138.149,217.165 137.789,217.885 C137.589,218.285 137.429,218.715 137.109,219.025 C136.579,219.525 135.789,219.555 135.069,219.685 C134.409,219.795 133.759,220.005 133.159,220.315 C132.879,220.465 132.599,220.635 132.429,220.895 C132.199,221.235 132.189,221.685 132.279,222.085 Z" id="Path" stroke="#00402A" stroke-width="0.5" fill="#FFCFB3" fill-rule="nonzero"></path>
            <path d="M131.22,218.545 C131.25,219.495 131.29,220.595 131.73,221.455 C131.85,221.715 132.05,221.925 132.2,222.165 C132.26,222.265 132.43,222.455 132.43,222.565 C132.43,222.175 132.34,221.585 132.54,221.235 C132.78,220.835 133.19,220.535 133.65,220.485 C133.93,220.455 134.21,220.515 134.47,220.595 C134.77,220.685 135.05,220.805 135.3,220.985 C135.65,221.245 135.89,221.635 136.09,222.025 C136.24,222.295 136.36,222.575 136.48,222.865 C136.52,222.975 136.69,223.455 136.64,223.555 C136.98,222.865 137.32,222.145 137.91,221.635 C138.59,221.055 139.51,220.825 140.26,220.335 C141.26,219.695 141.95,218.585 142.08,217.405 C142.08,217.445 142.13,217.495 142.2,217.535 C142.61,217.795 143.91,218.095 144.1,218.125 C144.99,218.275 146.11,218.335 146.92,217.855 C147.95,217.265 147.13,215.245 146.7,214.435 C145.89,212.925 144.67,211.775 143.12,211.065 C141.57,210.345 139.86,209.975 138.15,210.115 C136.87,210.235 135.62,210.665 134.55,211.365 C134.37,211.485 134.2,211.605 134.03,211.745 C133.44,212.205 132.92,212.765 132.51,213.405 C132.23,213.845 131.97,214.235 131.77,214.725 C131.6,215.175 131.47,215.655 131.38,216.125 C131.23,216.925 131.18,217.735 131.22,218.545 Z" id="Path" stroke="#00402A" stroke-width="0.5" fill="#C66D00" fill-rule="nonzero"></path>
            <path d="M142.109,217.425 C142.109,217.425 142.089,217.405 142.079,217.405 C142.079,217.445 142.129,217.495 142.199,217.535 C142.169,217.495 142.139,217.455 142.109,217.425 Z" id="Path" fill="#F2EEE3" fill-rule="nonzero"></path>
            <path d="M142.109,217.425 C142.109,217.425 142.089,217.405 142.079,217.405 C142.079,217.445 142.129,217.495 142.199,217.535 C142.169,217.495 142.139,217.455 142.109,217.425 Z" id="Path" stroke="#00402A" stroke-width="0.5"></path>
            <path d="M118.801,236.257 C116.772,240.96 117.594,250.67 118.868,253.579 C120.126,256.447 132.267,260.379 135.059,259.289 C136.459,258.023 136.258,257.017 135.872,255.39 C133.784,253.193 130.321,251.189 126.062,249.211 L126.691,239.946 C125.819,233.372 120.26,231.838 118.793,236.248 L118.801,236.257 Z" id="Path" stroke="#00402A" stroke-width="0.5" fill="#FFF5EC" fill-rule="nonzero" stroke-linejoin="round"></path>
            <polygon id="Path" stroke="#00402A" stroke-width="0.5" fill="#FFF5EC" fill-rule="nonzero" stroke-linejoin="round" points="143.503 252.271 139.051 259.473 139.436 259.934 151.904 253.286 156.742 246.536 156.356 246.075"></polygon>
            <polygon id="Path" stroke="#00402A" stroke-width="0.5" fill="#B0A9A3" fill-rule="nonzero" stroke-linejoin="round" points="143.88 252.732 139.436 259.934 152.29 253.747 156.742 246.536"></polygon>
            <path d="M146.236,256.229 L141.339,257.042 L140.635,256.866 L140.912,256.522 L141.784,255.071 L139.419,254.443 C138.162,254.711 136.971,255.021 135.889,255.398 L134.699,255.021 C133.651,254.912 133.005,258.4 134.062,258.61 L136.627,259.264 L139.738,259.934 C140.878,260.261 141.473,259.96 142.773,259.934 L144.165,259.289 L145.137,258.375 L146.11,257.436 L146.546,257.151 C147.2,256.95 147.208,256.237 146.236,256.229 Z" id="Path" stroke="#00402A" stroke-width="0.5" fill="#FFCFB3" fill-rule="nonzero" stroke-linejoin="round"></path>
            <path d="M152.164,252.288 L154.21,250.636 L155.056,249.261 L155.45,251.03 L154.931,252.774 L153.606,254.057 C153.388,254.275 153.103,254.409 152.793,254.459 L152.189,254.552 C151.971,254.585 151.753,254.485 151.644,254.292 L151.594,254.208 L151.208,254.023 C151.057,253.948 150.948,253.805 150.931,253.638 L150.889,253.369 C150.856,253.151 150.965,252.942 151.158,252.833 L152.164,252.288 Z" id="Path" stroke="#00402A" stroke-width="0.5" fill="#FFCFB3" fill-rule="nonzero" stroke-linejoin="round"></path>
            <path d="M149.648,249.311 L149.212,248.465 C148.214,246.612 150.503,245.765 151.803,246.721 L153.714,247.349 L149.639,249.311 L149.648,249.311 Z" id="Path" stroke="#00402A" stroke-width="0.5" fill="#FFCFB3" fill-rule="nonzero" stroke-linejoin="round"></path>
            <polygon id="Path" stroke="#00402A" stroke-width="0.5" fill="#DCEBE1" fill-rule="nonzero" stroke-linejoin="round" points="145.734 285.495 145.765 297.097 160.811 305.832 160.781 294.241"></polygon>
            <polygon id="Path" stroke="#00402A" stroke-width="0.5" fill="#A2BCB1" fill-rule="nonzero" stroke-linejoin="round" points="160.781 294.241 160.811 305.832 180.994 294.179 180.963 282.587"></polygon>
            <polygon id="Path" stroke="#00402A" stroke-width="0.5" fill="#007F33" fill-rule="nonzero" stroke-linejoin="round" points="145.733 285.495 160.78 294.24 180.963 282.586 165.927 273.841"></polygon>
            <polygon id="Path" stroke="#00402A" stroke-width="0.5" fill="#00A443" fill-rule="nonzero" stroke-linejoin="round" points="150.065 289.311 144.661 286.176 144.692 297.819 150.096 300.965"></polygon>
            <polygon id="Path" stroke="#00402A" stroke-width="0.5" fill="#007F33" fill-rule="nonzero" stroke-linejoin="round" points="151.137 288.64 145.733 285.495 144.661 286.176 150.065 289.311"></polygon>
            <polygon id="Path" stroke="#00402A" stroke-width="0.5" fill="#007F33" fill-rule="nonzero" stroke-linejoin="round" points="150.065 289.311 150.096 300.965 151.169 300.284 151.138 288.641"></polygon>
            <polygon id="Path" stroke="#00402A" stroke-width="0.5" fill="#DCEBE1" fill-rule="nonzero" stroke-linejoin="round" points="145.702 273.924 145.733 285.516 160.78 294.261 160.749 282.659"></polygon>
            <polygon id="Path" stroke="#00402A" stroke-width="0.5" fill="#A2BCB1" fill-rule="nonzero" stroke-linejoin="round" points="160.749 282.659 160.78 294.261 180.963 282.607 180.932 271.005"></polygon>
            <polygon id="Path" stroke="#00402A" stroke-width="0.5" fill="#007F33" fill-rule="nonzero" stroke-linejoin="round" points="145.702 273.923 160.749 282.659 180.932 271.005 165.885 262.27"></polygon>
            <polygon id="Path" stroke="#00402A" stroke-width="0.5" fill="#00A443" fill-rule="nonzero" stroke-linejoin="round" points="150.033 277.739 144.629 274.604 144.66 286.247 150.064 289.393"></polygon>
            <polygon id="Path" stroke="#00402A" stroke-width="0.5" fill="#007F33" fill-rule="nonzero" stroke-linejoin="round" points="151.106 277.069 145.702 273.924 144.629 274.604 150.033 277.74"></polygon>
            <polygon id="Path" stroke="#00402A" stroke-width="0.5" fill="#007F33" fill-rule="nonzero" stroke-linejoin="round" points="150.034 277.739 150.065 289.393 151.137 288.713 151.106 277.069"></polygon>
            <polygon id="Path" stroke="#00402A" stroke-width="0.5" fill="#A2BCB1" fill-rule="nonzero" stroke-linejoin="round" points="160.11 280.514 176.487 271.057 176.508 269.138 160.141 278.606"></polygon>
            <polygon id="Path" stroke="#00402A" stroke-width="0.5" fill="#00A443" fill-rule="nonzero" stroke-linejoin="round" points="160.14 278.606 176.507 269.138 166.287 263.208 149.91 272.665"></polygon>
            <polygon id="Path" stroke="#00402A" stroke-width="0.5" fill="#007F33" fill-rule="nonzero" stroke-linecap="round" stroke-linejoin="round" points="156.02 271.116 156.02 271.896 155.304 271.48 155.304 270.694"></polygon>
            <polygon id="Path" stroke="#00402A" stroke-width="0.5" fill="#699282" fill-rule="nonzero" stroke-linecap="round" stroke-linejoin="round" points="156.02 271.116 156.02 271.896 156.737 271.48 156.737 270.694"></polygon>
            <polygon id="Path" stroke="#00402A" stroke-width="0.5" fill="#FFF5EC" fill-rule="nonzero" stroke-linecap="round" stroke-linejoin="round" points="156.737 270.694 156.02 270.273 155.304 270.694 156.02 271.116"></polygon>
            <polygon id="Path" stroke="#00402A" stroke-width="0.5" fill="#007F33" fill-rule="nonzero" stroke-linecap="round" stroke-linejoin="round" points="156.02 267.043 156.02 270.939 155.659 270.728 155.659 266.827"></polygon>
            <polygon id="Path" stroke="#00402A" stroke-width="0.5" fill="#699282" fill-rule="nonzero" stroke-linecap="round" stroke-linejoin="round" points="156.02 267.043 156.02 270.939 156.381 270.728 156.381 266.827"></polygon>
            <polygon id="Path" stroke="#00402A" stroke-width="0.5" fill="#007F33" fill-rule="nonzero" stroke-linecap="round" stroke-linejoin="round" points="161.87 274.51 161.87 275.296 161.154 274.875 161.154 274.089"></polygon>
            <polygon id="Path" stroke="#00402A" stroke-width="0.5" fill="#699282" fill-rule="nonzero" stroke-linecap="round" stroke-linejoin="round" points="161.87 274.51 161.87 275.296 162.586 274.875 162.586 274.089"></polygon>
            <polygon id="Path" stroke="#00402A" stroke-width="0.5" fill="#FFF5EC" fill-rule="nonzero" stroke-linecap="round" stroke-linejoin="round" points="162.586 274.089 161.87 273.668 161.154 274.089 161.87 274.51"></polygon>
            <polygon id="Path" stroke="#00402A" stroke-width="0.5" fill="#FFF5EC" fill-rule="nonzero" stroke-linecap="round" stroke-linejoin="round" points="161.87 272.437 161.87 274.333 161.504 274.123 161.504 272.226"></polygon>
            <polygon id="Path" stroke="#00402A" stroke-width="0.5" fill="#FFF5EC" fill-rule="nonzero" stroke-linecap="round" stroke-linejoin="round" points="161.87 272.437 161.87 274.333 162.231 274.123 162.231 272.226"></polygon>
            <polygon id="Path" stroke="#00402A" stroke-width="0.5" fill="#007F33" fill-rule="nonzero" stroke-linecap="round" stroke-linejoin="round" points="170.327 269.595 170.327 270.375 169.61 269.959 169.61 269.173"></polygon>
            <polygon id="Path" stroke="#00402A" stroke-width="0.5" fill="#699282" fill-rule="nonzero" stroke-linecap="round" stroke-linejoin="round" points="170.326 269.595 170.326 270.375 171.043 269.959 171.043 269.173"></polygon>
            <polygon id="Path" stroke="#00402A" stroke-width="0.5" fill="#FFF5EC" fill-rule="nonzero" stroke-linecap="round" stroke-linejoin="round" points="171.043 269.173 170.326 268.752 169.61 269.173 170.326 269.595"></polygon>
            <polygon id="Path" stroke="#00402A" stroke-width="0.5" fill="#FFF5EC" fill-rule="nonzero" stroke-linecap="round" stroke-linejoin="round" points="170.326 267.521 170.326 269.418 169.959 269.207 169.959 267.305"></polygon>
            <polygon id="Path" stroke="#00402A" stroke-width="0.5" fill="#FFF5EC" fill-rule="nonzero" stroke-linecap="round" stroke-linejoin="round" points="170.327 267.521 170.327 269.418 170.688 269.207 170.688 267.305"></polygon>
            <polygon id="Path" stroke="#00402A" stroke-width="0.5" fill="#FFFEFF" fill-rule="nonzero" stroke-linecap="round" stroke-linejoin="round" points="164.093 261.086 171.866 268.399 161.876 274.22 154.103 266.912"></polygon>
            <polygon id="Path" stroke="#00402A" stroke-width="0.5" fill="#699282" fill-rule="nonzero" stroke-linecap="round" stroke-linejoin="round" points="161.876 274.22 161.876 274.487 171.866 268.666 171.866 268.399"></polygon>
            <polygon id="Path" stroke="#00402A" stroke-width="0.5" fill="#007F33" fill-rule="nonzero" stroke-linecap="round" stroke-linejoin="round" points="154.103 266.912 161.876 274.22 161.876 274.487 154.103 267.226"></polygon>
            <path d="M164.183,261.518 L165.666,262.913 C165.655,263.01 165.65,263.05 165.637,263.141 L163.709,264.268 C163.613,264.257 163.545,264.252 163.449,264.239 L161.988,262.866 C161.999,262.752 162.004,262.713 162.017,262.599 L163.918,261.488 C164.019,261.493 164.087,261.504 164.183,261.517 L164.183,261.518 Z" id="Path" stroke="#00402A" stroke-width="0.5" fill="#B4DEF7" fill-rule="nonzero" stroke-linecap="round" stroke-linejoin="round"></path>
            <path d="M161.769,262.925 L163.252,264.321 C163.241,264.417 163.235,264.457 163.223,264.548 L161.295,265.676 C161.199,265.665 161.131,265.659 161.035,265.647 L159.574,264.274 C159.585,264.159 159.59,264.121 159.602,264.006 L161.504,262.895 C161.605,262.906 161.673,262.912 161.769,262.924 L161.769,262.925 Z" id="Path" stroke="#00402A" stroke-width="0.5" fill="#3CC2FF" fill-rule="nonzero" stroke-linecap="round" stroke-linejoin="round"></path>
            <path d="M159.348,264.332 L160.832,265.727 C160.821,265.824 160.815,265.864 160.803,265.955 L158.874,267.082 C158.779,267.071 158.71,267.066 158.615,267.053 L157.153,265.68 C157.164,265.566 157.17,265.527 157.182,265.413 L159.083,264.302 C159.184,264.313 159.253,264.318 159.348,264.33 L159.348,264.332 Z" id="Path" stroke="#00402A" stroke-width="0.5" fill="#3CC2FF" fill-rule="nonzero" stroke-linecap="round" stroke-linejoin="round"></path>
            <path d="M156.935,265.739 L158.418,267.134 C158.407,267.231 158.401,267.271 158.389,267.362 L156.46,268.49 C156.365,268.479 156.296,268.473 156.201,268.461 L154.74,267.088 C154.751,266.973 154.756,266.934 154.768,266.82 L156.669,265.709 C156.771,265.72 156.839,265.732 156.935,265.738 L156.935,265.739 Z" id="Path" stroke="#00402A" stroke-width="0.5" fill="#3CC2FF" fill-rule="nonzero" stroke-linecap="round" stroke-linejoin="round"></path>
            <path d="M166.084,263.301 L167.567,264.696 C167.556,264.793 167.551,264.833 167.539,264.924 L165.61,266.051 C165.514,266.04 165.446,266.035 165.35,266.022 L163.889,264.649 C163.9,264.535 163.906,264.496 163.918,264.382 L165.819,263.271 C165.92,263.282 165.988,263.287 166.084,263.3 L166.084,263.301 Z" id="Path" stroke="#00402A" stroke-width="0.5" fill="#3CC2FF" fill-rule="nonzero" stroke-linecap="round" stroke-linejoin="round"></path>
            <path d="M163.67,264.714 L165.153,266.109 C165.142,266.206 165.137,266.246 165.125,266.337 L163.196,267.464 C163.1,267.453 163.032,267.448 162.936,267.435 L161.475,266.062 C161.486,265.948 161.492,265.909 161.504,265.795 L163.405,264.684 C163.506,264.689 163.574,264.7 163.67,264.713 L163.67,264.714 Z" id="Path" stroke="#00402A" stroke-width="0.5" fill="#3CC2FF" fill-rule="nonzero" stroke-linecap="round" stroke-linejoin="round"></path>
            <path d="M161.255,266.12 L162.738,267.515 C162.727,267.612 162.722,267.652 162.71,267.743 L160.781,268.871 C160.685,268.86 160.617,268.854 160.521,268.842 L159.06,267.469 C159.071,267.354 159.077,267.315 159.089,267.201 L160.99,266.09 C161.091,266.101 161.159,266.107 161.255,266.119 L161.255,266.12 Z" id="Path" stroke="#00402A" stroke-width="0.5" fill="#B4DEF7" fill-rule="nonzero" stroke-linecap="round" stroke-linejoin="round"></path>
            <path d="M158.836,267.528 L160.319,268.923 C160.308,269.02 160.302,269.06 160.29,269.151 L158.362,270.278 C158.266,270.267 158.198,270.262 158.102,270.249 L156.641,268.876 C156.652,268.762 156.657,268.723 156.669,268.609 L158.571,267.498 C158.672,267.509 158.74,267.514 158.836,267.527 L158.836,267.528 Z" id="Path" stroke="#00402A" stroke-width="0.5" fill="#3CC2FF" fill-rule="nonzero" stroke-linecap="round" stroke-linejoin="round"></path>
            <path d="M167.985,265.089 L169.468,266.484 C169.457,266.581 169.452,266.621 169.44,266.712 L167.511,267.84 C167.415,267.829 167.347,267.823 167.251,267.811 L165.79,266.438 C165.801,266.323 165.807,266.285 165.819,266.17 L167.72,265.059 C167.821,265.07 167.889,265.076 167.985,265.088 L167.985,265.089 Z" id="Path" stroke="#00402A" stroke-width="0.5" fill="#B4DEF7" fill-rule="nonzero" stroke-linecap="round" stroke-linejoin="round"></path>
            <path d="M165.57,266.502 L167.053,267.898 C167.042,267.994 167.037,268.034 167.025,268.125 L165.096,269.253 C165,269.242 164.932,269.236 164.837,269.224 L163.375,267.851 C163.386,267.736 163.392,267.698 163.404,267.583 L165.305,266.472 C165.406,266.478 165.475,266.489 165.57,266.501 L165.57,266.502 Z" id="Path" stroke="#00402A" stroke-width="0.5" fill="#3CC2FF" fill-rule="nonzero" stroke-linecap="round" stroke-linejoin="round"></path>
            <path d="M163.156,267.909 L164.639,269.304 C164.628,269.401 164.623,269.441 164.611,269.532 L162.682,270.659 C162.586,270.648 162.518,270.643 162.422,270.63 L160.961,269.257 C160.972,269.143 160.978,269.104 160.99,268.99 L162.891,267.879 C162.992,267.89 163.061,267.895 163.156,267.908 L163.156,267.909 Z" id="Path" stroke="#00402A" stroke-width="0.5" fill="#3CC2FF" fill-rule="nonzero" stroke-linecap="round" stroke-linejoin="round"></path>
            <path d="M160.736,269.315 L162.219,270.71 C162.208,270.807 162.203,270.847 162.19,270.938 L160.262,272.066 C160.166,272.054 160.098,272.049 160.002,272.037 L158.541,270.664 C158.552,270.549 158.557,270.51 158.57,270.396 L160.471,269.285 C160.572,269.296 160.64,269.302 160.736,269.314 L160.736,269.315 Z" id="Path" stroke="#00402A" stroke-width="0.5" fill="#3CC2FF" fill-rule="nonzero" stroke-linecap="round" stroke-linejoin="round"></path>
            <path d="M169.886,266.878 L171.369,268.273 C171.358,268.37 171.353,268.41 171.341,268.501 L169.412,269.628 C169.316,269.617 169.248,269.612 169.152,269.599 L167.691,268.226 C167.702,268.112 167.708,268.073 167.72,267.959 L169.621,266.848 C169.722,266.859 169.791,266.864 169.886,266.877 L169.886,266.878 Z" id="Path" stroke="#00402A" stroke-width="0.5" fill="#3CC2FF" fill-rule="nonzero" stroke-linecap="round" stroke-linejoin="round"></path>
            <path d="M167.471,268.284 L168.954,269.679 C168.943,269.776 168.938,269.816 168.926,269.907 L166.997,271.035 C166.901,271.024 166.833,271.018 166.737,271.006 L165.276,269.633 C165.287,269.518 165.293,269.479 165.305,269.365 L167.206,268.254 C167.307,268.265 167.376,268.271 167.471,268.283 L167.471,268.284 Z" id="Path" stroke="#00402A" stroke-width="0.5" fill="#B4DEF7" fill-rule="nonzero" stroke-linecap="round" stroke-linejoin="round"></path>
            <path d="M165.057,269.697 L166.541,271.093 C166.53,271.189 166.524,271.229 166.512,271.32 L164.583,272.448 C164.488,272.437 164.419,272.431 164.324,272.419 L162.862,271.046 C162.873,270.931 162.879,270.893 162.891,270.778 L164.792,269.667 C164.893,269.673 164.962,269.684 165.057,269.696 L165.057,269.697 Z" id="Path" stroke="#00402A" stroke-width="0.5" fill="#3CC2FF" fill-rule="nonzero" stroke-linecap="round" stroke-linejoin="round"></path>
            <path d="M162.642,271.104 L164.125,272.499 C164.114,272.596 164.109,272.63 164.097,272.727 L162.168,273.854 C162.072,273.843 162.004,273.838 161.909,273.825 L160.447,272.452 C160.458,272.338 160.464,272.299 160.476,272.185 L162.377,271.074 C162.478,271.085 162.547,271.09 162.642,271.102 L162.642,271.104 Z" id="Path" stroke="#00402A" stroke-width="0.5" fill="#B4DEF7" fill-rule="nonzero" stroke-linecap="round" stroke-linejoin="round"></path>
            <polygon id="Path" stroke="#00402A" stroke-width="0.5" fill="#DCEBE1" fill-rule="nonzero" stroke-linejoin="round" points="149.91 272.665 149.889 274.583 160.11 280.513 160.141 278.606"></polygon>
            <polygon id="Path" stroke="#00402A" stroke-width="0.5" fill="#FFCD52" fill-rule="nonzero" stroke-linejoin="round" points="167.989 284.843 168.01 291.867 170.547 290.402 170.526 283.379"></polygon>
            <polygon id="Path" stroke="#00402A" stroke-width="0.5" fill="#FFCD52" fill-rule="nonzero" stroke-linejoin="round" points="163.224 287.638 163.245 294.661 165.772 293.197 165.751 286.174"></polygon>
            <polygon id="Path" stroke="#00402A" stroke-width="0.5" fill="#FFF5EC" fill-rule="nonzero" stroke-linejoin="round" points="177.415 279.408 177.436 286.421 179.973 284.957 179.952 277.944"></polygon>
            <polygon id="Path" stroke="#00402A" stroke-width="0.5" fill="#FFF5EC" fill-rule="nonzero" stroke-linejoin="round" points="172.651 282.203 172.671 289.216 175.198 287.752 175.177 280.739"></polygon>
            <polygon id="Path" stroke="#00402A" stroke-width="0.5" fill="#FFCD52" fill-rule="nonzero" stroke-linejoin="round" points="154.582 284.947 154.561 291.959 152.024 290.495 152.045 283.482"></polygon>
            <polygon id="Path" stroke="#00402A" stroke-width="0.5" fill="#FFCD52" fill-rule="nonzero" stroke-linejoin="round" points="159.347 287.741 159.326 294.754 156.789 293.299 156.81 286.276"></polygon>
            <polygon id="Path" stroke="#00402A" stroke-width="0.5" fill="#00A443" fill-rule="nonzero" stroke-linejoin="round" points="162.131 298.108 162.152 305.1 166.483 307.606 166.463 300.614"></polygon>
            <polygon id="Path" stroke="#00402A" stroke-width="0.5" fill="#A2BCB1" fill-rule="nonzero" stroke-linejoin="round" points="166.463 300.614 166.483 307.606 183.201 297.953 183.18 290.961"></polygon>
            <polygon id="Path" stroke="#00402A" stroke-width="0.5" fill="#007F33" fill-rule="nonzero" stroke-linejoin="round" points="162.131 298.108 166.462 300.614 183.18 290.961 178.859 288.454"></polygon>
            <path d="M142.438,300.961 L142.438,297.759 L143.469,297.759 L143.469,300.961 C143.469,301.036 143.42,301.112 143.32,301.17 C143.118,301.286 142.793,301.286 142.591,301.17 C142.489,301.112 142.441,301.036 142.441,300.961 L142.438,300.961 Z" id="Path" stroke="#00402A" stroke-width="0.5" fill="#FFF5EC" fill-rule="nonzero"></path>
            <path d="M139.147,296.607 C139.147,298.722 140.875,299.165 143.006,299.165 C145.137,299.165 146.865,298.722 146.865,296.607 C146.865,294.493 145.137,289.257 143.006,289.257 C140.875,289.257 139.147,294.494 139.147,296.607 Z" id="Path" stroke="#00402A" stroke-width="0.5" fill="#2F6852" fill-rule="nonzero"></path>
            <polygon id="Path" stroke="#00402A" stroke-width="0.395735" fill="#FDF9F2" fill-rule="nonzero" stroke-linejoin="round" points="167.248 324.291 167.839 324.605 178.332 318.989 177.741 318.663"></polygon>
            <polygon id="Path" stroke="#00402A" stroke-width="0.395735" fill="#FDF9F2" fill-rule="nonzero" stroke-linejoin="round" points="160.629 320.725 161.221 321.04 171.713 315.424 171.122 315.098"></polygon>
            <polygon id="Path" stroke="#00402A" stroke-width="0.395735" fill="#FDF9F2" fill-rule="nonzero" stroke-linejoin="round" points="181.326 331.771 181.917 332.086 192.41 326.47 191.819 326.143"></polygon>
            <polygon id="Path" stroke="#00402A" stroke-width="0.395735" fill="#FDF9F2" fill-rule="nonzero" stroke-linejoin="round" points="174.708 328.205 175.3 328.52 185.792 322.904 185.201 322.578"></polygon>
            <polygon id="Path" stroke="#00402A" stroke-width="0.395735" fill="#FDF9F2" fill-rule="nonzero" stroke-linejoin="round" points="192.41 326.47 191.819 326.796 170.519 315.424 171.11 315.098"></polygon>
            <polygon id="Path" stroke="#00402A" stroke-width="0.395735" fill="#FDF9F2" fill-rule="nonzero" stroke-linejoin="round" points="186.017 313.933 186.608 314.248 197.088 308.62 196.497 308.305"></polygon>
            <polygon id="Path" stroke="#00402A" stroke-width="0.395735" fill="#FDF9F2" fill-rule="nonzero" stroke-linejoin="round" points="179.4 310.368 179.991 310.682 190.472 305.054 189.88 304.74"></polygon>
            <polygon id="Path" stroke="#00402A" stroke-width="0.395735" fill="#FDF9F2" fill-rule="nonzero" stroke-linejoin="round" points="200.095 321.413 200.687 321.727 211.167 316.111 210.576 315.785"></polygon>
            <polygon id="Path" stroke="#00402A" stroke-width="0.395735" fill="#FDF9F2" fill-rule="nonzero" stroke-linejoin="round" points="193.478 317.847 194.069 318.162 204.549 312.546 203.958 312.22"></polygon>
            <polygon id="Path" stroke="#00402A" stroke-width="0.395735" fill="#FDF9F2" fill-rule="nonzero" stroke-linejoin="round" points="211.167 316.112 210.576 316.426 189.276 305.054 189.867 304.74"></polygon>
            <polygon id="Path" stroke="#00402A" stroke-width="0.5" fill="#5BD38C" fill-rule="nonzero" stroke-linejoin="round" points="192.772 308.281 188.44 305.772 188.44 305.968 192.772 308.477"></polygon>
            <path d="M193.262,307.468 L188.94,304.959 C188.94,304.959 188.891,304.949 188.851,304.959 L193.173,307.468 C193.173,307.468 193.242,307.448 193.262,307.468 Z" id="Path" stroke="#00402A" stroke-width="0.5" fill="#5BD38C" fill-rule="nonzero" stroke-linejoin="round"></path>
            <path d="M192.762,307.713 L192.762,308.281 L192.762,308.477 L193.174,308.242 C193.242,308.203 193.301,308.105 193.301,308.026 L193.301,307.546 C193.301,307.468 193.242,307.438 193.174,307.477 L192.762,307.713 Z" id="Path" stroke="#00402A" stroke-width="0.5" fill="#5BD38C" fill-rule="nonzero" stroke-linejoin="round"></path>
            <path d="M192.723,305.88 L188.401,303.371 C188.401,303.371 188.312,303.332 188.263,303.322 L192.585,305.831 C192.634,305.841 192.683,305.86 192.723,305.88 Z" id="Path" stroke="#00402A" stroke-width="0.5" fill="#008C39" fill-rule="nonzero" stroke-linejoin="round"></path>
            <polygon id="Path" stroke="#00402A" stroke-width="0.5" fill="#008C39" fill-rule="nonzero" stroke-linejoin="round" points="192.586 305.831 188.263 303.312 187.832 303.224 192.154 305.742"></polygon>
            <path d="M191.439,304.635 C191.321,304.567 191.154,304.576 190.978,304.684 L187.813,306.517 L183.49,304.008 L186.656,302.175 C186.832,302.077 186.989,302.058 187.117,302.126 L191.439,304.635 Z" id="Path" stroke="#00402A" stroke-width="0.5" fill="#FDF9F2" fill-rule="nonzero" stroke-linejoin="round"></path>
            <path d="M189.871,305.595 C189.753,305.664 189.655,305.84 189.655,305.987 L189.655,307.085 C189.655,307.232 189.753,307.301 189.88,307.222 L191.419,306.33 C191.586,306.232 191.684,305.968 191.615,305.831 L191.174,304.978 C191.135,304.909 191.057,304.89 190.978,304.939 L189.871,305.576 L189.871,305.595 Z" id="Path" stroke="#00402A" stroke-width="0.5" fill="#007F33" fill-rule="nonzero" stroke-linejoin="round"></path>
            <polygon id="Path" stroke="#00402A" stroke-width="0.5" fill="#008C39" fill-rule="nonzero" stroke-linejoin="round" points="184.04 311.956 179.708 309.437 179.708 310.329 184.04 312.838"></polygon>
            <path d="M192.762,307.713 L192.762,308.281 L192.507,308.428 C192.507,308.399 192.507,308.36 192.507,308.33 C192.507,307.664 192.027,307.389 191.449,307.722 C190.871,308.056 190.4,308.869 190.4,309.545 C190.4,309.575 190.4,309.604 190.4,309.634 L186.696,311.77 C186.696,311.77 186.696,311.701 186.696,311.672 C186.696,311.006 186.225,310.731 185.637,311.064 C185.059,311.398 184.588,312.211 184.588,312.887 C184.588,312.917 184.588,312.946 184.588,312.976 L184.53,313.005 L184.53,312.525 L184.01,312.829 L184.01,311.937 C184.01,311.456 184.285,310.868 184.696,310.506 L186.382,308.977 L186.774,308.752 L187.342,306.948 C187.46,306.752 187.617,306.586 187.783,306.488 L190.949,304.655 C191.145,304.537 191.331,304.537 191.449,304.635 L191.331,304.704 L191.939,305.821 L192.115,305.713 L192.547,305.802 C192.762,305.851 192.909,306.027 192.948,306.292 L193.135,307.458 L192.723,307.693 L192.762,307.713 Z" id="Path" stroke="#00402A" stroke-width="0.5" fill="#5BD38C" fill-rule="nonzero" stroke-linejoin="round"></path>
            <path d="M192.801,306.488 C192.732,306.527 192.674,306.664 192.674,306.791 C192.674,306.919 192.732,306.997 192.801,306.958 C192.87,306.919 192.919,306.782 192.919,306.654 C192.919,306.527 192.86,306.448 192.791,306.488 L192.801,306.488 Z" id="Path" stroke="#00402A" stroke-width="0.5" fill="#A2BCB1" fill-rule="nonzero" stroke-linejoin="round"></path>
            <path d="M191.458,308.634 C191.311,308.722 191.184,308.928 191.184,309.104 C191.184,309.271 191.302,309.349 191.458,309.261 C191.606,309.173 191.733,308.967 191.733,308.791 C191.733,308.614 191.615,308.546 191.458,308.634 Z" id="Path" stroke="#00402A" stroke-width="0.5" fill="#5BD38C" fill-rule="nonzero" stroke-linejoin="round"></path>
            <path d="M192.086,308.585 C192.086,308.977 191.812,309.457 191.469,309.653 C191.125,309.849 190.851,309.692 190.851,309.3 C190.851,308.908 191.125,308.428 191.469,308.232 C191.812,308.036 192.086,308.193 192.096,308.585 L192.086,308.585 Z M191.469,309.251 C191.616,309.163 191.743,308.957 191.743,308.781 C191.743,308.604 191.625,308.536 191.469,308.624 C191.312,308.712 191.194,308.918 191.194,309.094 C191.194,309.261 191.312,309.339 191.469,309.251 Z" id="Shape" stroke="#00402A" stroke-width="0.5" fill="#007F33" fill-rule="nonzero" stroke-linejoin="round"></path>
            <path d="M192.517,308.34 C192.517,308.34 192.517,308.399 192.517,308.438 C192.478,309.085 192.027,309.839 191.469,310.163 C190.998,310.437 190.606,310.31 190.469,309.908 C190.44,309.83 190.43,309.741 190.42,309.653 C190.42,309.624 190.42,309.594 190.42,309.565 C190.42,308.899 190.89,308.085 191.469,307.742 C192.047,307.409 192.527,307.674 192.527,308.35 L192.517,308.34 Z M191.469,309.653 C191.812,309.457 192.086,308.977 192.086,308.585 C192.086,308.193 191.812,308.036 191.459,308.232 C191.116,308.428 190.841,308.908 190.841,309.3 C190.841,309.692 191.116,309.849 191.459,309.653" id="Shape" fill="#00402A" fill-rule="nonzero"></path>
            <path d="M191.469,309.653 C191.812,309.457 192.086,308.977 192.086,308.585 C192.086,308.193 191.812,308.036 191.459,308.232 C191.116,308.428 190.841,308.908 190.841,309.3 C190.841,309.692 191.116,309.849 191.459,309.653 M192.517,308.34 C192.517,308.34 192.517,308.399 192.517,308.438 C192.478,309.085 192.027,309.839 191.469,310.163 C190.998,310.437 190.606,310.31 190.469,309.908 C190.44,309.83 190.43,309.741 190.42,309.653 C190.42,309.624 190.42,309.594 190.42,309.565 C190.42,308.899 190.89,308.085 191.469,307.742 C192.047,307.409 192.527,307.674 192.527,308.35 L192.517,308.34 Z" id="Shape" stroke="#00402A" stroke-width="0.5" stroke-linejoin="round"></path>
            <path d="M191.37,304.733 L191.978,305.85 L192.154,305.742 L191.556,304.753 C191.556,304.753 191.507,304.694 191.478,304.664 L191.36,304.733 L191.37,304.733 Z" id="Path" stroke="#00402A" stroke-width="0.5" fill="#007F33" fill-rule="nonzero" stroke-linejoin="round"></path>
            <path d="M186.715,311.78 C186.715,311.888 186.695,311.986 186.666,312.093 L190.468,309.898 C190.439,309.82 190.429,309.731 190.419,309.633 L186.715,311.77 L186.715,311.78 Z" id="Path" stroke="#00402A" stroke-width="0.5" fill="#007F33" fill-rule="nonzero" stroke-linejoin="round"></path>
            <path d="M186.715,311.682 C186.715,311.682 186.715,311.741 186.715,311.78 C186.715,311.888 186.696,311.986 186.666,312.093 C186.529,312.652 186.137,313.23 185.667,313.495 C185.108,313.818 184.657,313.583 184.618,312.985 C184.618,312.956 184.618,312.926 184.618,312.897 C184.618,312.231 185.089,311.417 185.667,311.074 C186.245,310.741 186.725,311.006 186.725,311.682 L186.715,311.682 Z M185.667,313.005 C186.01,312.809 186.284,312.329 186.284,311.937 C186.284,311.545 186.01,311.378 185.667,311.584 C185.324,311.78 185.049,312.26 185.049,312.652 C185.049,313.044 185.334,313.201 185.667,313.005 Z" id="Shape" stroke="#00402A" stroke-width="0.5" fill="#00402A" fill-rule="nonzero" stroke-linejoin="round"></path>
            <path d="M186.284,311.937 C186.284,312.329 186.01,312.809 185.667,313.005 C185.324,313.201 185.049,313.044 185.049,312.652 C185.049,312.26 185.324,311.78 185.667,311.584 C186.01,311.388 186.284,311.545 186.284,311.937 Z M185.667,312.603 C185.814,312.515 185.941,312.309 185.941,312.133 C185.941,311.956 185.814,311.888 185.667,311.976 C185.52,312.064 185.392,312.27 185.392,312.446 C185.392,312.613 185.52,312.691 185.667,312.603 Z" id="Shape" stroke="#00402A" stroke-width="0.5" fill="#007F33" fill-rule="nonzero" stroke-linejoin="round"></path>
            <path d="M185.656,311.976 C185.509,312.064 185.382,312.27 185.382,312.446 C185.382,312.613 185.509,312.691 185.656,312.603 C185.804,312.515 185.931,312.309 185.931,312.133 C185.931,311.956 185.804,311.888 185.656,311.976 Z" id="Path" stroke="#00402A" stroke-width="0.5" fill="#5BD38C" fill-rule="nonzero" stroke-linejoin="round"></path>
            <path d="M187.871,306.742 C187.793,306.781 187.724,306.87 187.685,306.968 L187.097,308.408 C186.999,308.644 187.107,308.82 187.283,308.722 L189.096,307.673 C189.214,307.605 189.322,307.428 189.312,307.281 L189.312,306.184 C189.312,306.037 189.204,305.978 189.087,306.046 L187.871,306.752 L187.871,306.742 Z" id="Path" stroke="#00402A" stroke-width="0.5" fill="#007F33" fill-rule="nonzero" stroke-linejoin="round"></path>
            <path d="M179.659,310.868 L183.981,313.377 C183.981,313.377 183.961,313.348 183.961,313.328 L179.639,310.819 C179.639,310.819 179.639,310.858 179.659,310.868 Z" id="Path" stroke="#00402A" stroke-width="0.5" fill="#5BD38C" fill-rule="nonzero" stroke-linejoin="round"></path>
            <polygon id="Path" stroke="#00402A" stroke-width="0.5" fill="#5BD38C" fill-rule="nonzero" stroke-linejoin="round" points="183.961 312.975 179.629 310.466 179.639 310.819 183.961 313.338"></polygon>
            <path d="M184.039,312.838 L179.717,310.329 C179.717,310.329 179.639,310.417 179.639,310.466 L183.961,312.975 C183.961,312.926 183.99,312.867 184.039,312.838 Z" id="Path" stroke="#00402A" stroke-width="0.5" fill="#5BD38C" fill-rule="nonzero" stroke-linejoin="round"></path>
            <path d="M184.039,312.838 C184.039,312.838 183.961,312.927 183.961,312.976 L183.961,313.338 C183.961,313.387 184,313.407 184.039,313.387 L184.559,313.093 L184.559,313.034 L184.559,312.554 L184.039,312.848 L184.039,312.838 Z" id="Path" stroke="#00402A" stroke-width="0.5" fill="#5BD38C" fill-rule="nonzero" stroke-linejoin="round"></path>
            <path d="M187.813,306.507 L183.491,303.998 C183.324,304.096 183.167,304.253 183.05,304.459 L187.372,306.968 C187.489,306.772 187.646,306.605 187.813,306.507 Z" id="Path" stroke="#00402A" stroke-width="0.5" fill="#008C39" fill-rule="nonzero" stroke-linejoin="round"></path>
            <path d="M187.372,306.968 L186.803,308.761 L186.411,308.986 L182.089,306.478 L182.981,304.586 C182.981,304.586 183.03,304.498 183.05,304.459 L187.372,306.968 Z" id="Path" stroke="#00402A" stroke-width="0.5" fill="#007F33" fill-rule="nonzero" stroke-linejoin="round"></path>
            <path d="M184.706,310.937 C184.647,310.966 184.608,311.045 184.608,311.113 C184.608,311.182 184.657,311.201 184.706,311.172 L184.941,311.035 C185,311.005 185.039,310.927 185.039,310.858 C185.039,310.79 184.99,310.77 184.941,310.8 L184.706,310.937 Z" id="Path" stroke="#00402A" stroke-width="0.5" fill="#A2BCB1" fill-rule="nonzero" stroke-linejoin="round"></path>
            <polygon id="Path" stroke="#00402A" stroke-width="0.5" fill="#008C39" fill-rule="nonzero" stroke-linejoin="round" points="186.412 308.987 182.08 306.478 180.394 308.007 184.716 310.515"></polygon>
            <path d="M184.716,310.515 L180.394,308.006 C179.992,308.369 179.708,308.957 179.708,309.437 L184.03,311.946 C184.03,311.466 184.304,310.878 184.716,310.515 Z" id="Path" stroke="#00402A" stroke-width="0.5" fill="#008C39" fill-rule="nonzero" stroke-linejoin="round"></path>
            <path d="M183.599,312.015 L183.599,312.505 L180.139,310.496 L180.139,310.065 C180.139,309.937 180.276,309.869 180.384,309.927 L183.413,311.682 C183.53,311.75 183.609,311.888 183.609,312.025 L183.599,312.015 Z" id="Path" stroke="#00402A" stroke-width="0.5" fill="#FDF9F2" fill-rule="nonzero" stroke-linejoin="round"></path>
            <path d="M171.865,310.344 L171.865,313.618 C171.865,313.735 171.953,313.84 172.117,313.921 L172.117,310.647 C171.953,310.566 171.865,310.449 171.865,310.344 Z" id="Path" stroke="#00402A" stroke-width="0.395735" fill="#007F33" fill-rule="nonzero" stroke-linejoin="round"></path>
            <path d="M196.725,325.06 L196.725,321.786 C196.725,321.902 196.637,322.007 196.473,322.1 L196.473,325.374 C196.65,325.293 196.725,325.176 196.725,325.06 Z" id="Path" stroke="#00402A" stroke-width="0.395735" fill="#007F33" fill-rule="nonzero" stroke-linejoin="round"></path>
            <polygon id="Path" stroke="#00402A" stroke-width="0.395735" fill="#007F33" fill-rule="nonzero" stroke-linejoin="round" points="172.103 310.647 172.116 313.921 194.359 325.887 194.347 322.613"></polygon>
            <polygon id="Path" stroke="#00402A" stroke-width="0.395735" fill="#007F33" fill-rule="nonzero" stroke-linejoin="round" points="195.505 322.613 195.518 325.887 196.486 325.375 196.474 322.1"></polygon>
            <path d="M194.347,322.613 L194.347,325.887 C194.674,326.062 195.19,326.062 195.505,325.887 L195.505,322.613 C195.178,322.788 194.662,322.788 194.347,322.613 Z" id="Path" stroke="#00402A" stroke-width="0.395735" fill="#007F33" fill-rule="nonzero" stroke-linejoin="round"></path>
            <path d="M172.116,310.029 C171.801,310.204 171.801,310.472 172.116,310.647 L194.36,322.613 C194.674,322.788 195.19,322.788 195.517,322.613 L196.486,322.089 C196.8,321.914 196.8,321.646 196.486,321.471 L174.242,309.505 C173.928,309.33 173.412,309.33 173.085,309.505 L172.116,310.029 Z" id="Path" stroke="#00402A" stroke-width="0.395735" fill="#26BF64" fill-rule="nonzero" stroke-linejoin="round"></path>
            <path d="M188.793,324.532 L188.793,325.561 C188.793,325.561 188.793,325.61 188.793,325.63 L189.372,325.297 C189.538,325.199 189.685,324.934 189.725,324.63 L189.773,324.277 C189.803,324.101 189.725,323.983 189.636,324.032 L188.793,324.522 L188.793,324.532 Z" id="Path" stroke="#00402A" stroke-width="0.5" fill="#007F33" fill-rule="nonzero" stroke-linejoin="round"></path>
            <path d="M187.96,325.806 C187.843,325.875 187.745,326.041 187.745,326.179 L188.176,325.934 C188.176,325.796 188.078,325.747 187.96,325.816 L187.96,325.806 Z" id="Path" stroke="#00402A" stroke-width="0.5" fill="#5BD38C" fill-rule="nonzero" stroke-linejoin="round"></path>
            <path d="M187.96,325.483 C187.686,325.639 187.47,326.022 187.47,326.325 C187.47,326.639 187.696,326.767 187.96,326.61 C188.235,326.453 188.45,326.071 188.45,325.757 C188.45,325.443 188.225,325.326 187.96,325.473 L187.96,325.483 Z M187.96,326.296 C187.843,326.365 187.745,326.316 187.745,326.169 C187.745,326.031 187.843,325.865 187.96,325.796 C188.078,325.728 188.176,325.786 188.176,325.914 C188.176,326.051 188.078,326.218 187.96,326.286 L187.96,326.296 Z" id="Shape" stroke="#00402A" stroke-width="0.5" fill="#007F33" fill-rule="nonzero" stroke-linejoin="round"></path>
            <path d="M187.186,326.139 C187.147,326.277 187.128,326.404 187.128,326.531 C187.128,327.061 187.5,327.276 187.97,327.012 C188.411,326.757 188.774,326.159 188.803,325.64 C188.803,325.62 188.803,325.591 188.803,325.571 C188.803,325.551 188.803,325.542 188.803,325.522 C188.784,325.022 188.411,324.836 187.97,325.091 C187.618,325.297 187.324,325.718 187.196,326.139 L187.186,326.139 Z M187.961,326.62 C187.686,326.776 187.471,326.649 187.471,326.335 C187.471,326.022 187.686,325.649 187.961,325.493 C188.235,325.336 188.451,325.463 188.451,325.777 C188.451,326.09 188.235,326.473 187.961,326.629" id="Shape" fill="#00402A" fill-rule="nonzero"></path>
            <path d="M187.961,326.62 C187.686,326.776 187.471,326.649 187.471,326.335 C187.471,326.022 187.686,325.649 187.961,325.493 C188.235,325.336 188.451,325.463 188.451,325.777 C188.451,326.09 188.235,326.473 187.961,326.629 M187.186,326.139 C187.147,326.277 187.128,326.404 187.128,326.531 C187.128,327.061 187.5,327.276 187.97,327.012 C188.411,326.757 188.774,326.159 188.803,325.64 C188.803,325.62 188.803,325.591 188.803,325.571 C188.803,325.551 188.803,325.542 188.803,325.522 C188.784,325.022 188.411,324.836 187.97,325.091 C187.618,325.297 187.324,325.718 187.196,326.139 L187.186,326.139 Z" id="Shape" stroke="#00402A" stroke-width="0.5" stroke-linejoin="round"></path>
            <path d="M188.176,325.924 L187.745,326.169 C187.745,326.306 187.843,326.365 187.96,326.296 C188.078,326.228 188.176,326.061 188.176,325.924 Z" id="Path" stroke="#00402A" stroke-width="0.5" fill="#5BD38C" fill-rule="nonzero" stroke-linejoin="round"></path>
            <path d="M176.876,327.619 C176.906,327.796 176.994,327.923 177.102,327.992 L181.424,330.501 C181.306,330.432 181.228,330.305 181.198,330.128 C179.904,329.374 178.17,328.374 176.876,327.619 Z" id="Path" stroke="#00402A" stroke-width="0.5" fill="#00402A" fill-rule="nonzero" stroke-linejoin="round"></path>
            <path d="M181.336,329.305 C181.238,329.521 181.179,329.756 181.179,329.962 C181.179,330.02 181.179,330.079 181.198,330.128 C181.267,330.53 181.61,330.677 182.022,330.442 C182.482,330.177 182.855,329.53 182.855,329.001 C182.855,328.874 182.835,328.766 182.796,328.678 C182.669,328.394 182.375,328.315 182.022,328.521 C181.747,328.678 181.502,328.982 181.345,329.305 L181.336,329.305 Z M182.022,330.05 C181.747,330.207 181.532,330.079 181.532,329.766 C181.532,329.452 181.747,329.08 182.022,328.923 C182.296,328.766 182.512,328.893 182.522,329.197 C182.522,329.511 182.306,329.893 182.031,330.05" id="Shape" fill="#00402A" fill-rule="nonzero"></path>
            <path d="M182.022,330.05 C181.747,330.207 181.532,330.079 181.532,329.766 C181.532,329.452 181.747,329.08 182.022,328.923 C182.296,328.766 182.512,328.893 182.522,329.197 C182.522,329.511 182.306,329.893 182.031,330.05 M181.336,329.305 C181.238,329.521 181.179,329.756 181.179,329.962 C181.179,330.02 181.179,330.079 181.198,330.128 C181.267,330.53 181.61,330.677 182.022,330.442 C182.482,330.177 182.855,329.53 182.855,329.001 C182.855,328.874 182.835,328.766 182.796,328.678 C182.669,328.394 182.375,328.315 182.022,328.521 C181.747,328.678 181.502,328.982 181.345,329.305 L181.336,329.305 Z" id="Shape" stroke="#00402A" stroke-width="0.5" stroke-linejoin="round"></path>
            <path d="M183.041,324.552 L187.363,327.061 C187.216,326.973 187.118,326.786 187.118,326.522 C187.118,326.394 187.138,326.267 187.177,326.13 L182.855,323.621 C182.816,323.758 182.796,323.885 182.796,324.013 C182.796,324.277 182.894,324.464 183.041,324.552 Z" id="Path" stroke="#00402A" stroke-width="0.5" fill="#00402A" fill-rule="nonzero" stroke-linejoin="round"></path>
            <path d="M182.795,328.678 C182.835,328.766 182.854,328.874 182.854,329.001 L187.127,326.531 C187.127,326.404 187.147,326.277 187.186,326.139 L182.795,328.678 Z" id="Path" stroke="#00402A" stroke-width="0.5" fill="#007F33" fill-rule="nonzero" stroke-linejoin="round"></path>
            <path d="M182.012,328.913 C181.737,329.07 181.522,329.452 181.522,329.756 C181.522,330.069 181.747,330.197 182.012,330.04 C182.286,329.883 182.502,329.501 182.502,329.187 C182.502,328.874 182.276,328.756 182.002,328.913 L182.012,328.913 Z M182.021,329.726 C181.904,329.795 181.806,329.736 181.806,329.599 C181.806,329.462 181.904,329.295 182.021,329.227 C182.139,329.158 182.237,329.217 182.237,329.344 C182.237,329.481 182.139,329.648 182.021,329.717 L182.021,329.726 Z" id="Shape" stroke="#00402A" stroke-width="0.5" fill="#007F33" fill-rule="nonzero" stroke-linejoin="round"></path>
            <path d="M182.237,329.354 L181.806,329.599 C181.806,329.736 181.904,329.795 182.021,329.727 C182.139,329.658 182.237,329.491 182.237,329.354 Z" id="Path" stroke="#00402A" stroke-width="0.5" fill="#5BD38C" fill-rule="nonzero" stroke-linejoin="round"></path>
            <path d="M182.012,329.237 C181.894,329.305 181.796,329.472 181.796,329.609 L182.227,329.364 C182.227,329.227 182.129,329.168 182.012,329.246 L182.012,329.237 Z" id="Path" stroke="#00402A" stroke-width="0.5" fill="#5BD38C" fill-rule="nonzero" stroke-linejoin="round"></path>
            <path d="M182.012,328.521 C182.365,328.315 182.668,328.393 182.786,328.678 L187.177,326.139 C187.304,325.708 187.598,325.287 187.951,325.091 L182.002,328.521 L182.012,328.521 Z" id="Path" stroke="#00402A" stroke-width="0.5" fill="#A2BCB1" fill-rule="nonzero" stroke-linejoin="round"></path>
            <path d="M175.68,327.776 L175.739,327.963 C175.749,328.031 175.788,328.07 175.837,328.1 L180.14,330.599 C180.14,330.599 180.14,330.599 180.13,330.589 C180.13,330.589 180.12,330.579 180.11,330.56 C180.11,330.55 180.1,330.54 180.091,330.53 C180.091,330.52 180.081,330.501 180.071,330.481 L180.012,330.295 C180.002,330.236 180.012,330.158 180.061,330.089 C180.081,330.05 180.12,330.011 180.159,329.991 L175.837,327.482 C175.837,327.482 175.769,327.541 175.739,327.58 C175.69,327.649 175.671,327.727 175.69,327.786 L175.68,327.776 Z" id="Path" stroke="#00402A" stroke-width="0.5" fill="#007F33" fill-rule="nonzero" stroke-linejoin="round"></path>
            <path d="M180.013,330.295 L180.071,330.481 C180.071,330.481 180.081,330.52 180.091,330.53 C180.091,330.54 180.091,330.55 180.111,330.559 C180.111,330.569 180.12,330.579 180.13,330.589 C180.13,330.589 180.13,330.589 180.14,330.599 L180.16,330.599 C180.228,330.658 180.326,330.648 180.424,330.589 L181.189,330.148 L181.198,330.148 C181.198,330.089 181.189,330.03 181.189,329.971 C181.189,329.766 181.247,329.53 181.345,329.315 L180.16,330.001 C180.16,330.001 180.091,330.06 180.062,330.099 C180.013,330.167 179.993,330.246 180.013,330.305 L180.013,330.295 Z" id="Path" stroke="#00402A" stroke-width="0.5" fill="#007F33" fill-rule="nonzero" stroke-linejoin="round"></path>
            <path d="M179.169,321.053 L183.491,323.562 L188.499,320.671 C188.646,320.583 188.784,320.573 188.882,320.632 L184.56,318.123 C184.462,318.064 184.324,318.074 184.177,318.162 L179.169,321.053 Z" id="Path" stroke="#00402A" stroke-width="0.5" fill="#007F33" fill-rule="nonzero" stroke-linejoin="round"></path>
            <path d="M178.719,321.612 L183.041,324.121 L183.168,323.885 C183.266,323.748 183.374,323.631 183.501,323.562 L179.179,321.053 C179.062,321.122 178.944,321.239 178.846,321.376 L178.719,321.612 Z" id="Path" stroke="#00402A" stroke-width="0.5" fill="#A2BCB1" fill-rule="nonzero" stroke-linejoin="round"></path>
            <path d="M175.632,326.61 L175.73,327.561 L180.052,330.07 L179.954,329.119 C179.934,328.864 180.062,328.521 180.287,328.296 L181.473,327.071 L177.151,324.562 L175.965,325.787 C175.74,326.012 175.612,326.355 175.632,326.61 Z" id="Path" stroke="#00402A" stroke-width="0.5" fill="#A2BCB1" fill-rule="nonzero" stroke-linejoin="round"></path>
            <path d="M179.954,329.119 L180.052,330.069 C180.052,330.069 180.11,330.011 180.15,329.991 L181.335,329.305 C181.492,328.982 181.737,328.678 182.012,328.521 L187.951,325.091 C188.392,324.836 188.764,325.022 188.784,325.522 L188.784,324.542 L189.627,324.052 L189.009,320.867 C188.96,320.612 188.745,320.534 188.49,320.681 L183.482,323.572 C183.364,323.64 183.247,323.758 183.149,323.895 L183.021,324.13 L181.453,327.08 L180.267,328.305 C180.042,328.531 179.914,328.874 179.934,329.129 L179.954,329.119 Z" id="Path" stroke="#00402A" stroke-width="0.5" fill="#699282" fill-rule="nonzero" stroke-linejoin="round"></path>
            <polygon id="Path" stroke="#00402A" stroke-width="0.5" fill="#FDF9F2" fill-rule="nonzero" stroke-linejoin="round" points="177.151 324.562 181.473 327.08 183.041 324.121 178.719 321.612"></polygon>
            <path d="M183.472,323.915 C183.423,323.944 183.374,324.003 183.345,324.062 L182.022,326.59 C181.973,326.678 182.022,326.767 182.09,326.718 L184.168,325.522 C184.354,325.414 184.521,325.179 184.599,324.934 L184.923,323.807 C185.04,323.386 184.815,323.14 184.492,323.327 L183.492,323.905 L183.472,323.915 Z" id="Path" stroke="#00402A" stroke-width="0.5" fill="#FDF9F2" fill-rule="nonzero" stroke-linejoin="round"></path>
            <path d="M180.179,328.717 C180.179,328.717 180.101,328.805 180.091,328.864 C180.091,328.952 180.091,329.08 180.12,329.197 C180.12,329.236 180.169,329.246 180.199,329.227 C180.209,329.227 180.228,329.207 180.238,329.187 L180.718,328.58 C180.787,328.492 180.757,328.384 180.679,328.423 L180.179,328.717 Z" id="Path" stroke="#00402A" stroke-width="0.5" fill="#A2BCB1" fill-rule="nonzero" stroke-linejoin="round"></path>
            <polygon id="Path" stroke="#00402A" stroke-width="0.5" fill="#007F33" fill-rule="nonzero" stroke-linejoin="round" points="179.718 328.913 175.886 326.698 175.974 327.531 179.806 329.756"></polygon>
            <path d="M190.723,300.056 L190.723,303.33 C190.723,303.446 190.811,303.551 190.975,303.633 L190.975,300.358 C190.811,300.277 190.723,300.16 190.723,300.056 Z" id="Path" stroke="#00402A" stroke-width="0.395735" fill="#007F33" fill-rule="nonzero" stroke-linejoin="round"></path>
            <path d="M215.584,314.772 L215.584,311.497 C215.584,311.614 215.496,311.719 215.333,311.812 L215.333,315.086 C215.509,315.005 215.584,314.888 215.584,314.772 Z" id="Path" stroke="#00402A" stroke-width="0.395735" fill="#007F33" fill-rule="nonzero" stroke-linejoin="round"></path>
            <polygon id="Path" stroke="#00402A" stroke-width="0.395735" fill="#007F33" fill-rule="nonzero" stroke-linejoin="round" points="190.963 300.359 190.975 303.633 213.219 315.61 213.206 312.336"></polygon>
            <polygon id="Path" stroke="#00402A" stroke-width="0.395735" fill="#007F33" fill-rule="nonzero" stroke-linejoin="round" points="214.365 312.336 214.365 315.611 215.346 315.086 215.333 311.812"></polygon>
            <path d="M213.206,312.336 L213.206,315.61 C213.533,315.785 214.049,315.785 214.364,315.61 L214.364,312.336 C214.037,312.511 213.521,312.511 213.206,312.336 Z" id="Path" stroke="#00402A" stroke-width="0.395735" fill="#007F33" fill-rule="nonzero" stroke-linejoin="round"></path>
            <path d="M190.962,299.741 C190.648,299.916 190.648,300.184 190.962,300.359 L213.206,312.325 C213.52,312.499 214.036,312.499 214.363,312.325 L215.332,311.8 C215.647,311.626 215.647,311.358 215.332,311.183 L193.088,299.217 C192.774,299.042 192.258,299.042 191.931,299.217 L190.962,299.741 Z" id="Path" stroke="#00402A" stroke-width="0.395735" fill="#26BF64" fill-rule="nonzero" stroke-linejoin="round"></path>
        </g>
    </g>
</svg>