<?xml version="1.0" encoding="UTF-8"?>
<svg width="273px" height="228px" viewBox="0 0 273 228" version="1.1" xmlns="http://www.w3.org/2000/svg" xmlns:xlink="http://www.w3.org/1999/xlink">
    <title>ilustracion</title>
    <g id="Page-1" stroke="none" stroke-width="1" fill="none" fill-rule="evenodd">
        <g id="ilustracion" transform="translate(0, 17)" fill-rule="nonzero">
            <g id="6" transform="translate(0, -24)">
                <path d="M54.4251,135.456 C55.9208,136.322 55.932,137.716 54.4419,138.577 L32.3891,151.391 C30.9103,152.252 28.4925,152.257 26.9968,151.391 L6.0404,139.291 C4.55034,138.431 4.53909,137.03 6.02353,136.17 L28.0764,123.356 C29.5608,122.49 31.9786,122.495 33.4687,123.356 L54.4251,135.456 Z" id="Path" stroke="#00402A" stroke-width="0.2721" fill-opacity="0.5" fill="#DCEBE1" stroke-linejoin="round"></path>
                <polygon id="Path" stroke="#00402A" stroke-width="0.2721" fill="#FDF9F2" stroke-linejoin="round" points="39.8459 128.213 39.8211 137.602 27.6368 144.685 27.6699 135.288"></polygon>
                <polygon id="Path" stroke="#00402A" stroke-width="0.2721" fill="#5BD38C" stroke-linejoin="round" points="27.6704 135.288 27.6372 144.685 11.2892 135.246 11.3141 125.849"></polygon>
                <polygon id="Path" stroke="#00402A" stroke-width="0.2721" fill="#007F33" stroke-linejoin="round" points="39.8459 128.213 27.6699 135.288 11.3136 125.849 23.4979 118.774"></polygon>
                <polygon id="Path" stroke="#00402A" stroke-width="0.2721" fill="#699282" stroke-linejoin="round" points="36.3381 131.306 40.7175 128.76 40.6926 138.199 36.3133 140.745"></polygon>
                <polygon id="Path" stroke="#00402A" stroke-width="0.2721" fill="#007F33" stroke-linejoin="round" points="35.4755 130.759 39.8549 128.213 40.7175 128.76 36.3381 131.306"></polygon>
                <polygon id="Path" stroke="#00402A" stroke-width="0.2721" fill="#007F33" stroke-linejoin="round" points="36.3381 131.306 36.3133 140.745 35.4424 140.189 35.4755 130.759"></polygon>
                <polygon id="Path" stroke="#00402A" stroke-width="0.2721" fill="#FDF9F2" stroke-linejoin="round" points="39.8711 118.84 39.8462 128.229 27.6619 135.313 27.6951 125.915"></polygon>
                <polygon id="Path" stroke="#00402A" stroke-width="0.2721" fill="#5BD38C" stroke-linejoin="round" points="27.6956 125.915 27.6624 135.313 11.3144 125.874 11.3475 116.476"></polygon>
                <polygon id="Path" stroke="#00402A" stroke-width="0.2721" fill="#007F33" stroke-linejoin="round" points="39.8711 118.84 27.6951 125.915 11.3471 116.476 23.5231 109.401"></polygon>
                <polygon id="Path" stroke="#00402A" stroke-width="0.2721" fill="#699282" stroke-linejoin="round" points="36.3709 121.934 40.7502 119.388 40.7171 128.826 36.3377 131.373"></polygon>
                <polygon id="Path" stroke="#00402A" stroke-width="0.2721" fill="#007F33" stroke-linejoin="round" points="35.5 121.387 39.8793 118.84 40.7502 119.388 36.3709 121.934"></polygon>
                <polygon id="Path" stroke="#00402A" stroke-width="0.2721" fill="#007F33" stroke-linejoin="round" points="36.3706 121.934 36.3374 131.373 35.4748 130.817 35.4997 121.387"></polygon>
                <polygon id="Path" stroke="#00402A" stroke-width="0.2721" fill="#FDF9F2" stroke-linejoin="round" points="21.8225 127.574 21.8059 133.256 19.7572 132.07 19.7738 126.388"></polygon>
                <polygon id="Path" stroke="#00402A" stroke-width="0.2721" fill="#FDF9F2" stroke-linejoin="round" points="25.6882 129.839 25.6716 135.52 23.6147 134.334 23.6312 128.652"></polygon>
                <polygon id="Path" stroke="#00402A" stroke-width="0.2721" fill="#FDF9F2" stroke-linejoin="round" points="14.1919 123.162 14.1753 128.851 12.1183 127.665 12.1349 121.975"></polygon>
                <polygon id="Path" stroke="#00402A" stroke-width="0.2721" fill="#FDF9F2" stroke-linejoin="round" points="18.0493 125.426 18.0327 131.116 15.984 129.93 16.0006 124.24"></polygon>
                <polygon id="Path" stroke="#00402A" stroke-width="0.2721" fill="#FDF9F2" stroke-linejoin="round" points="32.6884 127.657 32.705 133.338 34.7537 132.152 34.7371 126.471"></polygon>
                <polygon id="Path" stroke="#00402A" stroke-width="0.2721" fill="#FDF9F2" stroke-linejoin="round" points="28.8229 129.921 28.8395 135.603 30.8965 134.417 30.8799 128.735"></polygon>
                <polygon id="Path" stroke="#00402A" stroke-width="0.2721" fill="#699282" stroke-linejoin="round" points="26.5676 138.423 26.551 144.088 23.0509 146.12 23.0674 140.455"></polygon>
                <polygon id="Path" stroke="#00402A" stroke-width="0.2721" fill="#5BD38C" stroke-linejoin="round" points="23.0674 140.455 23.0508 146.12 9.50624 138.307 9.52283 132.642"></polygon>
                <polygon id="Path" stroke="#00402A" stroke-width="0.2721" fill="#007F33" stroke-linejoin="round" points="26.5676 138.423 23.0674 140.455 9.52289 132.642 13.0231 130.601"></polygon>
                <path d="M27.5754,90.1691 C29.2752,90.3763 30.8316,90.9978 31.6019,93.9884 L34.2578,100.57 L39.1713,106.094 L36.4144,109.074 L35.8992,107.082 L30.582,101.861 L27.5754,90.1638 L27.5754,90.1691 Z" id="Path" stroke="#00402A" stroke-width="0.2721" fill="#FFC7A6" stroke-linejoin="round"></path>
                <path d="M34.8842,109.791 C33.6678,109.882 32.8392,110.955 32.8392,110.955 L32.2867,111.89 L31.9893,112.702 C31.9893,113.048 32.3505,112.899 32.5736,112.628 L33.2535,111.566 L33.6784,111.507 L33.79,112.166 L33.8484,113.058 C33.8325,113.409 34.2574,113.366 34.2946,113.048 L34.5071,111.342 L34.8736,111.401 L34.8736,112.107 L35.0011,113.148 C35.0383,113.51 35.4154,113.531 35.442,113.287 L35.5323,112.192 L35.5323,111.231 L35.697,111.332 L35.8829,112.224 L35.9679,113.026 C36.0422,113.494 36.4672,113.446 36.4725,113.138 L36.4194,112.203 L36.4194,111.528 L36.7859,111.773 C36.7859,111.773 37.0621,112.219 37.0887,112.277 C37.1896,112.479 37.4127,112.851 37.4127,112.851 C37.5827,113.026 37.6889,112.994 37.7367,112.793 L37.5349,112.006 L37.1365,111.369 C36.8868,110.875 36.5044,110.45 35.9732,110.099 C35.9732,110.099 35.3145,109.749 34.8683,109.781 L34.8842,109.791 Z" id="Path" stroke="#00402A" stroke-width="0.2721" fill="#FFB294" stroke-linejoin="round"></path>
                <path d="M42.2413,139.506 C42.1244,138.369 42.0926,137.333 42.6078,136.611 C40.4406,130.678 37.4234,128.909 38.4008,122.901 C36.3451,123.268 22.5767,122.561 20.2926,115.799 C19.4798,113.446 23.7453,111.98 26.619,112.394 C31.2882,114.147 37.2269,115.602 41.6198,119.985 C44.3767,123.294 43.1071,130.396 45.4603,136.149 C46.2677,138.428 47.346,140.074 49.014,141.328 L47.9941,143.346 C47.9941,143.346 44.7326,142.714 44.6848,142.566 C44.637,142.422 42.2519,139.501 42.2519,139.501 L42.2413,139.506 Z" id="Path" stroke="#00402A" stroke-width="0.2721" fill="#F4B28B" stroke-linejoin="round"></path>
                <path d="M42.6079,136.611 C41.4659,137.349 41.5137,138.847 41.758,139.968 C42.2945,140.866 43.0647,141.418 43.9465,142.741 L44.7805,143.607 C46.4431,144.712 49.4178,144.855 50.4642,144.271 C51.1441,143.32 50.3314,142.385 48.2863,140.728 C49.0672,141.997 48.1748,142.613 46.1563,142.443 C45.1948,142.3 44.5521,141.275 43.5056,139.888 C42.5442,138.433 41.9068,137.578 42.6079,136.606 L42.6079,136.611 Z" id="Path" stroke="#00402A" stroke-width="0.2721" fill="#3A3735" stroke-linejoin="round"></path>
                <path d="M33.9921,109.218 L40.9878,115.751 C42.6823,117.334 43.3516,119.746 42.6717,121.966 C40.8763,127.809 38.0503,131.995 37.6095,135.506 C37.5829,137.211 38.0875,139.278 38.7462,141.45 L37.7422,142.242 L35.6016,140.993 L33.8486,137.944 L34.3692,135.501 C34.8473,134.986 35.2403,134.412 35.4741,133.727 C36.1699,127.289 35.3785,121.828 39.3677,119.401 L33.5459,114.917 L26.6191,112.394 L33.9974,109.218 L33.9921,109.218 Z" id="Path" stroke="#00402A" stroke-width="0.2721" fill="#FFC7A6" stroke-linejoin="round"></path>
                <path d="M34.5975,135.241 C33.3332,135.496 32.8711,136.33 33.0039,137.371 C33.2642,138.406 34.0078,138.555 34.4381,140.09 L35.0808,141.987 C35.4686,142.847 36.3132,143.378 37.2587,143.835 C38.2042,144.292 38.8417,144.005 38.8417,144.005 C39.7712,143.734 39.6491,142.752 39.3038,141.62 L38.268,139.777 L38.5123,140.924 C38.1724,141.413 37.7527,141.456 36.7753,141.084 C36.7753,141.084 36.3132,141.179 35.5589,139.331 C34.8737,137.658 33.7954,136.361 34.5975,135.241 Z" id="Path" stroke="#00402A" stroke-width="0.2721" fill="#3A3735" stroke-linejoin="round"></path>
                <path d="M42.4805,117.919 C41.45,117.6 40.361,118.083 39.458,119.055 C39.1074,119.438 38.6612,119.714 38.1832,119.916 C37.2483,120.309 36.8499,121.021 36.6533,121.855 C36.5683,122.211 36.5205,122.588 36.4887,122.975 C31.0865,122.625 22.2634,121.568 20.1918,116.532 C19.2356,113.568 19.3631,111.008 20.6805,108.894 L32.0745,107.491 L32.356,107.454 C32.5154,107.576 32.68,107.698 32.8447,107.821 C33.8274,108.57 34.8101,109.388 35.7556,110.222 C39.2296,113.281 42.199,116.612 42.4805,117.913 L42.4805,117.919 Z" id="Path" stroke="#00402A" stroke-width="0.2721" fill="#C66D00" stroke-linejoin="round"></path>
                <path d="M31.7396,103.969 C31.7396,105.473 32.0796,107.003 32.7329,108.57 C32.053,115.358 21.9817,115.119 19.6657,111.029 C19.9791,109.053 21.3442,107.682 20.4146,105.722 C19.1345,103.019 18.2474,100.851 18.2474,100.851 C17.9552,100.156 17.695,99.5287 17.4878,98.9497 C16.7335,96.8515 16.8504,95.7254 18.5395,94.2115 C21.8117,91.7309 25.0838,89.8398 28.8127,90.0045 C30.3107,89.962 31.1765,92.5861 30.9003,94.8064 C30.656,96.8037 33.5616,98.8807 33.7847,100.278 C34.2256,102.997 31.7396,103.964 31.7396,103.964 L31.7396,103.969 Z" id="Path" stroke="#00402A" stroke-width="0.2721" fill="#FF9C1A" stroke-linejoin="round"></path>
                <path d="M20.9939,86.9554 L21.4135,91.3749 L23.0071,93.6431 C25.2381,96.7825 28.6005,96.9949 27.2407,92.6179 L26.9273,91.3962 L26.1942,89.0643 L20.9992,86.9448 L20.9939,86.9554 Z" id="Path" stroke="#00402A" stroke-width="0.2721" fill="#F4B28B" stroke-linejoin="round"></path>
                <path d="M26.9058,91.8158 C25.7638,92.3311 23.9737,91.1094 23.1503,90.4719 C22.8741,90.2542 22.6457,89.9779 22.4916,89.6645 L21.7586,88.1931 L20.7706,88.2675 C20.7706,88.2675 18.9805,87.3592 19.0283,84.0286 C19.0495,82.366 21.0999,80.6927 22.9007,80.6819896 C25.7372,80.6662 26.8899,82.3713 27.7185,83.508 C28.5472,84.6448 28.2763,86.9767 28.2763,86.9767 C28.2763,86.9767 28.4303,91.12 26.9005,91.8105 L26.9058,91.8158 Z" id="Path" stroke="#00402A" stroke-width="0.2721" fill="#FFC7A6" stroke-linejoin="round"></path>
                <path d="M22.7413,90.0576 C22.7413,90.0576 26.5924,88.4269 27.0652,84.2198 C27.0652,84.2198 28.0638,86.573 29.174,87.1626 C29.174,87.1626 28.765,86.2012 28.8181,85.4363 C28.8606,84.7617 29.2962,81.5267 25.4769,80.4537 C21.6524,79.3754 18.0668,81.123 18.4971,85.0963 C18.9699,89.4786 21.2699,91.9008 22.3854,92.7826 C22.3854,92.7826 21.9126,90.7322 22.7466,90.0576 L22.7413,90.0576 Z" id="Path" stroke="#00402A" stroke-width="0.2721" fill="#3A3735" stroke-linejoin="round"></path>
                <path d="M35.1561,114.583 C34.832,114.583 29.3024,115.13 29.3024,115.13 C30.0726,116.442 28.2293,119.018 28.1019,121.414 C27.6185,122.407 26.3489,122.179 26.418,121.414 L26.6517,114.221 C26.6677,113.781 26.8536,113.361 27.1723,113.053 C28.8721,111.422 31.2571,110.71 33.86,110.296 L37.063,112.336 L35.1507,114.577 L35.1561,114.583 Z" id="Path" stroke="#00402A" stroke-width="0.2721" fill="#FFC7A6" stroke-linejoin="round"></path>
                <path d="M33.7005,126.46 C33.5411,127.496 35.3259,127.241 35.5596,126.258 C35.6552,125.43 35.788,124.622 35.9155,123.852 C36.3298,121.318 36.6964,119.167 35.5596,117.934 C37.2647,117.318 38.8264,116.516 40.0535,115.289 C40.0907,115.252 40.1279,115.215 40.165,115.178 C40.9193,114.126 40.8981,112.947 40.4944,111.847 C40.4837,111.826 39.3842,110.02 39.3842,110.02 L38.5821,109.898 L34.0723,109.196 L33.6261,111.156 C33.9448,112.219 34.3591,113.127 34.8903,113.85 C34.0192,114.551 33.403,115.209 33.0046,115.836 C32.6328,116.415 32.4415,116.968 32.4097,117.488 C32.9196,120.564 34.0351,123.379 33.7058,126.46 L33.7005,126.46 Z" id="Path" stroke="#00402A" stroke-width="0.2721" fill="#FFC7A6" stroke-linejoin="round"></path>
                <path d="M37.0679,112.341 L35.1556,114.583 C34.9165,114.609 30.9114,115.199 29.3019,115.13 C29.4931,114.588 29.5675,113.218 28.0854,112.314 C29.7534,111.056 31.6922,110.647 33.8595,110.301 L37.0626,112.341 L37.0679,112.341 Z" id="Path" stroke="#00402A" stroke-width="0.2721" fill="#FFCD52" stroke-linejoin="round"></path>
                <path d="M32.9409,115.927 C33.9449,115.762 34.9223,116.468 35.3419,117.201 C35.4853,117.451 35.565,117.706 35.5597,117.929 C37.0789,117.339 38.9115,116.405 40.0535,115.284 C40.0907,115.247 40.1279,115.209 40.1651,115.172 C40.9194,114.12 40.8981,112.941 40.4944,111.842 C40.4838,111.82 39.3842,110.014 39.3842,110.014 L38.5822,109.892 L34.0724,109.191 L33.6262,111.151 C33.9449,112.214 34.2051,113.053 34.7363,113.775 C33.8652,114.476 33.3871,115.204 32.9993,115.831 C32.9834,115.863 32.9622,115.895 32.9462,115.921 L32.9409,115.927 Z" id="Path" stroke="#00402A" stroke-width="0.2721" fill="#FFCD52" stroke-linejoin="round"></path>
                <path d="M31.3035,98.3323 C31.3374,98.3519 31.3613,98.3856 31.3689,98.4241 L31.5652,99.4172 C31.5711,99.4469 31.567,99.4781 31.5535,99.5051 L30.8962,100.815 C30.907,100.84 30.9124,100.868 30.906,100.897 L30.7859,101.423 C31.2363,101.295 31.8803,101.106 32.5632,100.986 C33.3636,100.845 34.2462,100.793 34.9636,101.058 C34.9994,101.071 35.0284,101.1 35.0427,101.135 C35.057,101.17 35.0554,101.211 35.0388,101.245 L33.8757,103.646 C33.8553,103.688 33.814,103.717 33.7673,103.722 L28.8855,104.232 L28.8777,104.233 C28.6114,104.245 28.387,104.155 28.2087,103.978 C28.0347,103.805 27.9103,103.554 27.822,103.253 C27.8152,103.23 27.8149,103.205 27.821,103.181 C28.0812,102.177 28.5341,101.274 29.2986,100.554 L29.2341,100.463 L29.2341,100.462 C29.1493,100.353 29.0815,100.23 29.075,100.098 C29.0688,99.9744 29.1178,99.8652 29.2087,99.7708 C29.2079,99.623 29.222,99.4688 29.2878,99.342 C29.327,99.267 29.3847,99.2013 29.4636,99.1536 C29.5126,99.124 29.5675,99.1032 29.6277,99.0901 C29.6544,98.921 29.7083,98.7729 29.8142,98.6809 C29.9434,98.569 30.1053,98.5727 30.2683,98.635 L31.1921,98.3215 L31.2488,98.3147 C31.2677,98.3165 31.2866,98.3226 31.3035,98.3323 Z" id="Path" fill="#F4B28B"></path>
                <path d="M31.3035,98.3323 L31.3715,98.2144 L31.3711,98.2142 L31.3035,98.3323 Z M31.3689,98.4241 L31.5024,98.3977 L31.5023,98.3976 L31.3689,98.4241 Z M31.5652,99.4172 L31.4317,99.4436 L31.4317,99.4436 L31.5652,99.4172 Z M31.5535,99.5051 L31.6751,99.5662 L31.6751,99.5661 L31.5535,99.5051 Z M30.8962,100.815 L30.7746,100.754 C30.7567,100.789 30.7554,100.831 30.7711,100.868 L30.8962,100.815 Z M30.906,100.897 L31.0386,100.927 L31.0388,100.926 L30.906,100.897 Z M30.7859,101.423 L30.6532,101.393 C30.6426,101.44 30.6574,101.489 30.6922,101.522 C30.7271,101.555 30.7768,101.567 30.8231,101.554 L30.7859,101.423 Z M32.5632,100.986 L32.5396,100.852 L32.5396,100.852 L32.5632,100.986 Z M34.9636,101.058 L35.0111,100.93 L35.0108,100.93 L34.9636,101.058 Z M35.0427,101.135 L35.1689,101.084 L35.1689,101.084 L35.0427,101.135 Z M35.0388,101.245 L35.1613,101.305 L35.1615,101.304 L35.0388,101.245 Z M33.8757,103.646 L33.7533,103.586 L33.7533,103.586 L33.8757,103.646 Z M33.7673,103.722 L33.7815,103.857 L33.7819,103.857 L33.7673,103.722 Z M28.8855,104.232 L28.8714,104.096 L28.8686,104.097 L28.8855,104.232 Z M28.8777,104.233 L28.884,104.369 L28.8946,104.368 L28.8777,104.233 Z M27.822,103.253 L27.6914,103.291 L27.6915,103.291 L27.822,103.253 Z M27.821,103.181 L27.6893,103.147 L27.6893,103.147 L27.821,103.181 Z M29.2986,100.554 L29.3919,100.653 C29.4413,100.606 29.4488,100.531 29.4095,100.475 L29.2986,100.554 Z M29.2341,100.463 L29.0981,100.463 C29.0981,100.491 29.1069,100.519 29.1232,100.542 L29.2341,100.463 Z M29.2341,100.462 L29.3702,100.462 C29.3702,100.432 29.3601,100.402 29.3414,100.378 L29.2341,100.462 Z M29.075,100.098 L28.9391,100.105 L28.9391,100.105 L29.075,100.098 Z M29.2087,99.7708 L29.3067,99.8651 C29.3314,99.8396 29.345,99.8054 29.3448,99.7699 L29.2087,99.7708 Z M29.2878,99.342 L29.1672,99.2792 L29.1671,99.2793 L29.2878,99.342 Z M29.4636,99.1536 L29.3933,99.0371 L29.3932,99.0371 L29.4636,99.1536 Z M29.6277,99.0901 L29.6567,99.223 C29.7115,99.2111 29.7533,99.1667 29.7621,99.1113 L29.6277,99.0901 Z M29.8142,98.6809 L29.7251,98.5781 L29.725,98.5782 L29.8142,98.6809 Z M30.2683,98.635 L30.2198,98.7621 C30.2494,98.7734 30.282,98.774 30.312,98.7638 L30.2683,98.635 Z M31.1921,98.3215 L31.1758,98.1865 C31.1665,98.1876 31.1573,98.1897 31.1484,98.1927 L31.1921,98.3215 Z M31.2488,98.3147 L31.262,98.1793 C31.2522,98.1783 31.2423,98.1784 31.2325,98.1796 L31.2488,98.3147 Z M31.3035,98.3323 L31.2354,98.4501 L31.2354,98.4505 L31.3689,98.4241 L31.5023,98.3976 C31.4872,98.3213 31.44,98.254 31.3715,98.2145 L31.3035,98.3323 Z M31.3689,98.4241 L31.2354,98.4505 L31.4317,99.4436 L31.5652,99.4172 L31.6987,99.3909 L31.5024,98.3977 L31.3689,98.4241 Z M31.5652,99.4172 L31.4317,99.4436 L31.4319,99.4441 L31.5535,99.5051 L31.6751,99.5661 C31.7025,99.5115 31.7103,99.4495 31.6986,99.3908 L31.5652,99.4172 Z M31.5535,99.5051 L31.4319,99.4441 L30.7746,100.754 L30.8962,100.815 L31.0178,100.876 L31.6751,99.5662 L31.5535,99.5051 Z M30.8962,100.815 L30.7711,100.868 C30.7742,100.875 30.7717,100.874 30.7732,100.867 L30.906,100.897 L31.0388,100.926 C31.053,100.862 31.0398,100.805 31.0214,100.761 L30.8962,100.815 Z M30.906,100.897 L30.7734,100.866 L30.6532,101.393 L30.7859,101.423 L30.9185,101.453 L31.0386,100.927 L30.906,100.897 Z M30.7859,101.423 L30.8231,101.554 C31.2752,101.426 31.9121,101.239 32.5869,101.12 L32.5632,100.986 L32.5396,100.852 C31.8485,100.973 31.1975,101.165 30.7487,101.292 L30.7859,101.423 Z M32.5632,100.986 L32.5868,101.12 C33.3813,100.98 34.2341,100.933 34.9165,101.185 L34.9636,101.058 L35.0108,100.93 C34.2583,100.652 33.3459,100.71 32.5396,100.852 L32.5632,100.986 Z M34.9636,101.058 L34.9162,101.185 L34.9166,101.186 L35.0427,101.135 L35.1689,101.084 C35.1404,101.014 35.0831,100.957 35.0111,100.93 L34.9636,101.058 Z M35.0427,101.135 L34.9165,101.186 L34.9162,101.186 L35.0388,101.245 L35.1615,101.304 C35.1942,101.236 35.1978,101.156 35.1689,101.084 L35.0427,101.135 Z M35.0388,101.245 L34.9164,101.186 L33.7533,103.586 L33.8757,103.646 L33.9982,103.705 L35.1613,101.305 L35.0388,101.245 Z M33.8757,103.646 L33.7533,103.586 L33.7528,103.587 L33.7673,103.722 L33.7819,103.857 C33.8749,103.847 33.9571,103.79 33.9982,103.705 L33.8757,103.646 Z M33.7673,103.722 L33.7532,103.587 L28.8714,104.096 L28.8855,104.232 L28.8996,104.367 L33.7815,103.857 L33.7673,103.722 Z M28.8855,104.232 L28.8686,104.097 L28.8608,104.098 L28.8777,104.233 L28.8946,104.368 L28.9024,104.367 L28.8855,104.232 Z M28.8777,104.233 L28.8714,104.097 C28.6432,104.107 28.4559,104.032 28.3047,103.881 L28.2087,103.978 L28.1128,104.074 C28.3181,104.278 28.5796,104.383 28.8839,104.369 L28.8777,104.233 Z M28.2087,103.978 L28.3047,103.881 C28.1533,103.731 28.0376,103.504 27.9526,103.215 L27.822,103.253 L27.6915,103.291 C27.7831,103.604 27.9162,103.878 28.1127,104.074 L28.2087,103.978 Z M27.822,103.253 L27.9527,103.215 L27.9528,103.215 L27.821,103.181 L27.6893,103.147 C27.6772,103.194 27.6776,103.244 27.6914,103.291 L27.822,103.253 Z M27.821,103.181 L27.9527,103.215 C28.2081,102.23 28.6505,101.352 29.3919,100.653 L29.2986,100.554 L29.2053,100.455 C28.4178,101.197 27.9542,102.125 27.6893,103.147 L27.821,103.181 Z M29.2986,100.554 L29.4095,100.475 L29.3451,100.384 L29.2341,100.463 L29.1232,100.542 L29.1876,100.633 L29.2986,100.554 Z M29.2341,100.463 L29.3702,100.463 L29.3702,100.462 L29.2341,100.462 L29.0981,100.462 L29.0981,100.463 L29.2341,100.463 Z M29.2341,100.462 L29.3414,100.378 C29.2633,100.278 29.2154,100.182 29.2108,100.091 L29.075,100.098 L28.9391,100.105 C28.9477,100.278 29.0353,100.429 29.1269,100.546 L29.2341,100.462 Z M29.075,100.098 L29.2108,100.091 C29.2069,100.012 29.2364,99.9382 29.3067,99.8651 L29.2087,99.7708 L29.1107,99.6764 C28.9992,99.7922 28.9307,99.9365 28.9391,100.105 L29.075,100.098 Z M29.2087,99.7708 L29.3448,99.7699 C29.3439,99.6274 29.3585,99.501 29.4086,99.4048 L29.2878,99.342 L29.1671,99.2793 C29.0854,99.4366 29.0718,99.6185 29.0727,99.7716 L29.2087,99.7708 Z M29.2878,99.342 L29.4085,99.4049 C29.437,99.3502 29.4781,99.3038 29.534,99.27 L29.4636,99.1536 L29.3932,99.0371 C29.2913,99.0988 29.2169,99.1838 29.1672,99.2792 L29.2878,99.342 Z M29.4636,99.1536 L29.5339,99.27 C29.5684,99.2492 29.6089,99.2334 29.6567,99.223 L29.6277,99.0901 L29.5987,98.9572 C29.5261,98.973 29.4569,98.9987 29.3933,99.0371 L29.4636,99.1536 Z M29.6277,99.0901 L29.7621,99.1113 C29.7872,98.9525 29.8341,98.8439 29.9034,98.7836 L29.8142,98.6809 L29.725,98.5782 C29.5824,98.702 29.5216,98.8895 29.4933,99.0689 L29.6277,99.0901 Z M29.8142,98.6809 L29.9033,98.7837 C29.9791,98.718 30.0808,98.709 30.2198,98.7621 L30.2683,98.635 L30.3169,98.5079 C30.1298,98.4364 29.9076,98.42 29.7251,98.5781 L29.8142,98.6809 Z M30.2683,98.635 L30.312,98.7638 L31.2359,98.4504 L31.1921,98.3215 L31.1484,98.1927 L30.2246,98.5062 L30.2683,98.635 Z M31.1921,98.3215 L31.2084,98.4566 L31.2651,98.4498 L31.2488,98.3147 L31.2325,98.1796 L31.1758,98.1865 L31.1921,98.3215 Z M31.2488,98.3147 L31.2356,98.4501 L31.2358,98.4503 L31.3035,98.3323 L31.3711,98.2142 C31.3378,98.1952 31.3005,98.183 31.262,98.1793 L31.2488,98.3147 Z" id="Shape" fill="#00402A"></path>
                <path d="M31.4213,101.388 C32.4464,101.112 33.8753,100.804 34.9165,101.186 L33.7532,103.587 C33.7532,103.587 32.5102,103.72 31.2778,103.847 C31.5541,103.066 31.6072,102.222 31.4266,101.388 L31.4213,101.388 Z" id="Path" stroke="#00402A" stroke-width="0.2721" fill="#0792E5" stroke-linejoin="round"></path>
                <path d="M33.6209,111.156 C34.0565,112.113 36.3778,112.824 38.2316,112.766 C39.2728,112.734 40.1599,112.458 40.4892,111.847 C40.3936,111.666 39.8943,110.636 40.5051,108.809 C40.9991,107.332 41.0788,106.546 41.0045,105.51 C40.9938,105.313 40.9726,105.106 40.946,104.883 C40.8132,103.63 39.225,101.685 37.9023,101.298 L34.9117,101.186 C33.8334,101.446 33.6953,102.041 33.4509,103.486 C33.0632,106.524 32.8507,108.617 33.6156,111.151 L33.6209,111.156 Z" id="Path" stroke="#00402A" stroke-width="0.2721" fill="#0DA9FF" stroke-linejoin="round"></path>
                <path d="M39.1875,100.246 C39.1928,100.299 39.0653,102.503 39.0653,102.503 C39.0653,102.503 37.7214,104.591 36.0322,103.667 C35.2301,103.231 35.6869,102.036 35.6869,102.036 L36.0853,99.8315 L39.1875,100.251 L39.1875,100.246 Z" id="Path" stroke="#00402A" stroke-width="0.2721" fill="#F4B28B" stroke-linejoin="round"></path>
                <path d="M38.6138,101.298 C38.1835,102.525 35.5701,103.369 34.4811,102.381 C33.8224,101.786 33.4825,100.225 34.0084,98.7478 C34.0084,98.7478 33.9234,97.0958 35.0495,95.8847 C35.6763,95.2101 37.2114,94.424 38.4066,94.8914 C42.2896,96.4159 39.9524,99.959 39.9524,99.959 L38.6085,101.298 L38.6138,101.298 Z" id="Path" stroke="#00402A" stroke-width="0.2721" fill="#FFC7A6" stroke-linejoin="round"></path>
                <path d="M39.602,100.198 L38.6937,100.474 C37.7641,99.7412 38.2634,99.3641 37.9925,98.1104 C35.9793,98.8276 34.492,97.5633 33.8227,98.3495 C33.8227,98.3495 32.5638,94.2221 38.1094,94.5355 C40.0907,94.6471 41.2912,96.4 41.0522,98.1848 C40.6644,101.053 39.2993,101.186 39.2993,101.186 L39.602,100.198 Z" id="Path" stroke="#00402A" stroke-width="0.2721" fill="#3A3735" stroke-linejoin="round"></path>
                <path d="M39.8516,99.874 C40.7759,100.687 39.4001,101.659 38.6139,101.298 C38.6139,101.298 38.5077,100.745 38.9008,100.225 C39.3363,99.6403 39.6975,99.7412 39.8569,99.8793 L39.8516,99.874 Z" id="Path" stroke="#00402A" stroke-width="0.2721" fill="#FFC7A6" stroke-linejoin="round"></path>
                <path d="M31.2944,103.784 C31.0129,103.252 30.7367,102.7 30.4604,102.142 L31.4272,101.425 C31.5919,102.222 31.5441,103.029 31.2944,103.784 Z" id="Path" stroke="#00402A" stroke-width="0.2721" fill="#FFB294" stroke-linejoin="round"></path>
                <path d="M24.6011,124.367 C25.86,124.442 26.3965,123.655 27.3314,123.422 C27.8148,123.305 28.3938,123.3 28.5053,122.678 C28.5053,122.561 28.5,122.439 28.4894,122.327 C28.4575,121.86 28.3778,121.446 28.2238,121.276 L28.1654,120.829 C27.7723,121.339 26.5877,121.361 26.4178,120.883 C26.4178,120.883 26.4284,121.35 26.4178,121.408 C26.4071,121.467 25.3182,122.322 25.2704,122.349 C24.9623,122.513 24.617,122.683 24.3408,122.875 C24.0752,123.06 23.8734,123.268 23.8149,123.523 C23.7459,123.831 23.6609,124.309 24.5958,124.362 L24.6011,124.367 Z" id="Path" stroke="#00402A" stroke-width="0.2721" fill="#0792E5" stroke-linejoin="round"></path>
                <path d="M33.1161,130.093 C33.7111,130.205 34.4653,130.051 34.9115,129.626 C35.4799,129.169 35.4055,128.495 35.4852,128.08 C35.5543,127.746 35.634,127.629 35.703,127.384 C35.7402,126.954 35.8517,126.805 35.6552,126.285 C35.6446,126.258 35.634,126.232 35.6233,126.2 L35.6499,125.531 C35.3046,126.056 33.9182,125.94 33.7535,125.531 L33.6898,126.306 L32.7974,128.314 C32.654,128.569 32.5531,128.824 32.4893,129.058 C32.3618,129.52 32.6487,130.003 33.1161,130.093 Z" id="Path" stroke="#00402A" stroke-width="0.2721" fill="#0792E5" stroke-linejoin="round"></path>
                <path d="M33.1161,130.093 C33.7111,130.205 34.4653,130.051 34.9115,129.626 C35.4799,129.169 35.4055,128.495 35.4852,128.08 C35.5543,127.746 35.634,127.629 35.703,127.384 C35.7402,126.954 35.8517,126.805 35.6552,126.285 C35.5543,126.901 35.2196,128.622 34.6831,128.834 C34.6831,128.834 33.7535,127.857 32.7974,128.314 C32.654,128.569 32.5531,128.824 32.4893,129.058 C32.3618,129.52 32.6487,130.003 33.1161,130.093 Z" id="Path" stroke="#00402A" stroke-width="0.2721" fill="#D8CFC7" stroke-linejoin="round"></path>
                <path d="M24.6009,124.367 C25.8598,124.442 26.3963,123.655 27.3312,123.422 C27.8146,123.305 28.3936,123.299 28.5051,122.678 C28.5051,122.561 28.4998,122.439 28.4892,122.327 C27.5331,122.774 26.885,123.581 25.403,123.703 C25.1268,123.241 24.8399,122.816 24.3459,122.88 C24.0803,123.066 23.8785,123.273 23.8201,123.528 C23.751,123.836 23.666,124.314 24.6009,124.367 Z" id="Path" stroke="#00402A" stroke-width="0.2721" fill="#D8CFC7" stroke-linejoin="round"></path>
                <path d="M31.0527,97.1827 C31.2083,97.1702 31.3332,97.2814 31.3633,97.4396 C31.4022,97.4265 31.4439,97.4235 31.4854,97.4298 C31.6383,97.4531 31.7346,97.5981 31.7373,97.7433 L31.751,98.0343 C31.7599,98.0331 31.7691,98.0326 31.7783,98.0323 C31.8887,98.0298 31.9683,98.0952 32.0137,98.1837 L32.0479,98.2775 L32.0498,98.2882 L32.1455,98.9523 C32.1468,98.9619 32.1472,98.9719 32.1465,98.9816 L32.0615,100.076 C32.0607,100.087 32.058,100.097 32.0547,100.108 L31.6523,101.342 L34.5693,104.675 L38.2422,103.626 L38.2559,103.623 C38.6857,103.548 39.0534,103.678 39.335,103.918 C39.6133,104.156 39.8066,104.499 39.9062,104.855 C40.0057,105.21 40.0163,105.592 39.9131,105.912 C39.8086,106.236 39.5836,106.502 39.2207,106.593 L39.2197,106.592 C37.3864,107.083 35.5636,107.293 33.752,107.261 C33.7241,107.26 33.6964,107.251 33.6738,107.234 C33.036,106.77 32.4586,106.025 31.916,105.148 C31.3725,104.268 30.856,103.243 30.3438,102.208 C30.3357,102.192 30.3313,102.175 30.3301,102.157 L30.0596,101.55 L30.0586,101.549 C29.871,101.122 29.8355,100.635 29.9912,100.191 L29.9922,100.187 C30.0324,100.081 30.0831,99.9755 30.1455,99.8693 L30.0898,98.8673 L30.0898,98.8663 C30.0673,98.7208 30.0896,98.5694 30.1875,98.4816 C30.2099,98.4615 30.2363,98.4469 30.2637,98.4366 L30.1758,98.1573 L30.1758,98.1564 C30.1131,98.0028 30.1177,97.8252 30.252,97.7335 C30.3983,97.6342 30.5675,97.7191 30.6641,97.8488 C30.6676,97.8536 30.6709,97.8592 30.6738,97.8644 L30.7314,97.9679 L30.749,97.5577 L30.749,97.5529 C30.7656,97.3503 30.8814,97.1968 31.0527,97.1827 Z" id="Path" fill="#FFC7A6"></path>
                <path d="M31.0527,97.1827 L31.0418,97.0471 L31.0416,97.0471 L31.0527,97.1827 Z M31.3633,97.4396 L31.2296,97.465 C31.237,97.5036 31.2606,97.5371 31.2946,97.557 C31.3285,97.5769 31.3694,97.5811 31.4066,97.5685 L31.3633,97.4396 Z M31.4854,97.4298 L31.5058,97.2953 L31.5057,97.2953 L31.4854,97.4298 Z M31.7373,97.7433 L31.6012,97.7458 L31.6014,97.7497 L31.7373,97.7433 Z M31.751,98.0343 L31.6151,98.0407 C31.6169,98.0787 31.6345,98.1142 31.6637,98.1386 C31.6928,98.163 31.7309,98.1741 31.7686,98.1692 L31.751,98.0343 Z M31.7783,98.0323 L31.7752,97.8963 L31.775,97.8963 L31.7783,98.0323 Z M32.0137,98.1837 L32.1415,98.1371 C32.1396,98.1318 32.1373,98.1267 32.1347,98.1216 L32.0137,98.1837 Z M32.0479,98.2775 L32.1817,98.2531 C32.1803,98.2455 32.1783,98.2381 32.1757,98.2309 L32.0479,98.2775 Z M32.0498,98.2882 L32.1846,98.2688 L32.1837,98.2639 L32.0498,98.2882 Z M32.1455,98.9523 L32.2803,98.9335 L32.2802,98.9329 L32.1455,98.9523 Z M32.1465,98.9816 L32.2821,98.9921 L32.2821,98.9918 L32.1465,98.9816 Z M32.0615,100.076 L32.1971,100.087 L32.1972,100.087 L32.0615,100.076 Z M32.0547,100.108 L32.184,100.15 L32.1841,100.15 L32.0547,100.108 Z M31.6523,101.342 L31.523,101.3 C31.5081,101.345 31.5184,101.395 31.55,101.432 L31.6523,101.342 Z M34.5693,104.675 L34.467,104.765 C34.5016,104.804 34.5561,104.82 34.6067,104.806 L34.5693,104.675 Z M38.2422,103.626 L38.2136,103.493 L38.2048,103.495 L38.2422,103.626 Z M38.2559,103.623 L38.2324,103.489 L38.2274,103.49 L38.2559,103.623 Z M39.335,103.918 L39.4233,103.815 L39.4233,103.815 L39.335,103.918 Z M39.9062,104.855 L40.0373,104.818 L40.0373,104.818 L39.9062,104.855 Z M39.9131,105.912 L40.0425,105.954 L40.0426,105.954 L39.9131,105.912 Z M39.2207,106.593 L39.1245,106.689 C39.1583,106.723 39.2074,106.736 39.2538,106.725 L39.2207,106.593 Z M39.2197,106.592 L39.3159,106.496 C39.2816,106.461 39.2315,106.448 39.1845,106.461 L39.2197,106.592 Z M33.752,107.261 L33.7495,107.397 L33.7496,107.397 L33.752,107.261 Z M33.6738,107.234 L33.5937,107.344 L33.5939,107.345 L33.6738,107.234 Z M31.916,105.148 L31.8003,105.219 L31.8003,105.219 L31.916,105.148 Z M30.3438,102.208 L30.2218,102.268 L30.2218,102.268 L30.3438,102.208 Z M30.3301,102.157 L30.4658,102.148 C30.4647,102.132 30.4608,102.117 30.4544,102.102 L30.3301,102.157 Z M30.0596,101.55 L30.1839,101.495 C30.1771,101.479 30.1676,101.466 30.1558,101.454 L30.0596,101.55 Z M30.0586,101.549 L29.9341,101.604 C29.9408,101.619 29.9505,101.633 29.9624,101.645 L30.0586,101.549 Z M29.9912,100.191 L30.1202,100.236 L30.1232,100.224 L29.9912,100.191 Z M29.9922,100.187 L29.8651,100.138 C29.8631,100.143 29.8615,100.148 29.8602,100.154 L29.9922,100.187 Z M30.1455,99.8693 L30.2628,99.9382 C30.2764,99.9151 30.2828,99.8885 30.2813,99.8617 L30.1455,99.8693 Z M30.0898,98.8673 L29.9536,98.8673 L29.954,98.8749 L30.0898,98.8673 Z M30.0898,98.8663 L30.2259,98.8663 C30.2259,98.8594 30.2254,98.8524 30.2243,98.8455 L30.0898,98.8663 Z M30.1875,98.4816 L30.0969,98.3801 L30.0966,98.3803 L30.1875,98.4816 Z M30.2637,98.4366 L30.3113,98.5641 C30.3791,98.5387 30.4152,98.4648 30.3934,98.3958 L30.2637,98.4366 Z M30.1758,98.1573 L30.0397,98.1573 C30.0397,98.1712 30.0418,98.185 30.046,98.1982 L30.1758,98.1573 Z M30.1758,98.1564 L30.3118,98.1564 C30.3118,98.1387 30.3084,98.1213 30.3017,98.1049 L30.1758,98.1564 Z M30.252,97.7335 L30.1756,97.6209 L30.1752,97.6212 L30.252,97.7335 Z M30.6641,97.8488 L30.7733,97.7677 L30.7732,97.7675 L30.6641,97.8488 Z M30.6738,97.8644 L30.5549,97.9305 L30.555,97.9305 L30.6738,97.8644 Z M30.7314,97.9679 L30.6126,98.0341 C30.6422,98.0873 30.7035,98.1143 30.7628,98.1003 C30.8221,98.0863 30.8648,98.0346 30.8674,97.9737 L30.7314,97.9679 Z M30.749,97.5577 L30.8851,97.5636 L30.8851,97.5577 L30.749,97.5577 Z M30.749,97.5529 L30.613,97.5417 L30.613,97.5529 L30.749,97.5529 Z M31.0527,97.1827 L31.0637,97.3183 C31.1381,97.3123 31.2102,97.3627 31.2296,97.465 L31.3633,97.4396 L31.4969,97.4142 C31.4563,97.2001 31.2785,97.028 31.0418,97.0471 L31.0527,97.1827 Z M31.3633,97.4396 L31.4066,97.5685 C31.4234,97.5629 31.4431,97.561 31.465,97.5643 L31.4854,97.4298 L31.5057,97.2953 C31.4447,97.2861 31.381,97.2901 31.3199,97.3106 L31.3633,97.4396 Z M31.4854,97.4298 L31.4649,97.5643 C31.5366,97.5752 31.5995,97.6497 31.6013,97.7458 L31.7373,97.7433 L31.8733,97.7407 C31.8697,97.5465 31.7399,97.3309 31.5058,97.2953 L31.4854,97.4298 Z M31.7373,97.7433 L31.6014,97.7497 L31.6151,98.0407 L31.751,98.0343 L31.8869,98.0279 L31.8732,97.7369 L31.7373,97.7433 Z M31.751,98.0343 L31.7686,98.1692 C31.7714,98.1688 31.7756,98.1685 31.7816,98.1684 L31.7783,98.0323 L31.775,97.8963 C31.7626,97.8966 31.7483,97.8974 31.7333,97.8994 L31.751,98.0343 Z M31.7783,98.0323 L31.7814,98.1684 C31.8264,98.1673 31.8643,98.1905 31.8926,98.2458 L32.0137,98.1837 L32.1347,98.1216 C32.0723,97.9999 31.951,97.8923 31.7752,97.8963 L31.7783,98.0323 Z M32.0137,98.1837 L31.8859,98.2303 L31.92,98.3241 L32.0479,98.2775 L32.1757,98.2309 L32.1415,98.1371 L32.0137,98.1837 Z M32.0479,98.2775 L31.914,98.3018 L31.9159,98.3125 L32.0498,98.2882 L32.1837,98.2639 L32.1817,98.2531 L32.0479,98.2775 Z M32.0498,98.2882 L31.9151,98.3076 L32.0108,98.9717 L32.1455,98.9523 L32.2802,98.9329 L32.1845,98.2688 L32.0498,98.2882 Z M32.1455,98.9523 L32.0108,98.971 L32.0108,98.9713 L32.1465,98.9816 L32.2821,98.9918 C32.2836,98.972 32.2829,98.9522 32.2803,98.9335 L32.1455,98.9523 Z M32.1465,98.9816 L32.0108,98.971 L31.9259,100.066 L32.0615,100.076 L32.1972,100.087 L32.2821,98.9921 L32.1465,98.9816 Z M32.0615,100.076 L31.9259,100.065 L31.9253,100.065 L32.0547,100.108 L32.1841,100.15 C32.189,100.134 32.195,100.113 32.1971,100.087 L32.0615,100.076 Z M32.0547,100.108 L31.9253,100.065 L31.523,101.3 L31.6523,101.342 L31.7817,101.384 L32.184,100.15 L32.0547,100.108 Z M31.6523,101.342 L31.55,101.432 L34.467,104.765 L34.5693,104.675 L34.6717,104.585 L31.7547,101.252 L31.6523,101.342 Z M34.5693,104.675 L34.6067,104.806 L38.2795,103.757 L38.2422,103.626 L38.2048,103.495 L34.532,104.544 L34.5693,104.675 Z M38.2422,103.626 L38.2707,103.759 L38.2844,103.756 L38.2559,103.623 L38.2274,103.49 L38.2137,103.493 L38.2422,103.626 Z M38.2559,103.623 L38.2793,103.757 C38.6656,103.69 38.993,103.805 39.2467,104.022 L39.335,103.918 L39.4233,103.815 C39.1138,103.551 38.7059,103.406 38.2324,103.489 L38.2559,103.623 Z M39.335,103.918 L39.2466,104.022 C39.5003,104.238 39.6813,104.556 39.7752,104.891 L39.9062,104.855 L40.0373,104.818 C39.9319,104.442 39.7263,104.073 39.4233,103.815 L39.335,103.918 Z M39.9062,104.855 L39.7752,104.891 C39.8692,105.227 39.8768,105.582 39.7836,105.87 L39.9131,105.912 L40.0426,105.954 C40.1557,105.603 40.1422,105.193 40.0373,104.818 L39.9062,104.855 Z M39.9131,105.912 L39.7836,105.87 C39.6903,106.159 39.4955,106.384 39.1876,106.461 L39.2207,106.593 L39.2538,106.725 C39.6717,106.62 39.9269,106.312 40.0425,105.954 L39.9131,105.912 Z M39.2207,106.593 L39.3169,106.497 L39.3159,106.496 L39.2197,106.592 L39.1235,106.688 L39.1245,106.689 L39.2207,106.593 Z M39.2197,106.592 L39.1845,106.461 C37.3638,106.949 35.5537,107.157 33.7544,107.125 L33.752,107.261 L33.7496,107.397 C35.5735,107.429 37.409,107.218 39.255,106.723 L39.2197,106.592 Z M33.752,107.261 L33.7544,107.125 L33.7538,107.124 L33.6738,107.234 L33.5939,107.345 C33.6384,107.377 33.693,107.396 33.7495,107.397 L33.752,107.261 Z M33.6738,107.234 L33.7539,107.125 C33.1377,106.676 32.5715,105.949 32.0317,105.076 L31.916,105.148 L31.8003,105.219 C32.3457,106.101 32.9343,106.864 33.5937,107.344 L33.6738,107.234 Z M31.916,105.148 L32.0317,105.076 C31.492,104.203 30.9782,103.183 30.4657,102.148 L30.3438,102.208 L30.2218,102.268 C30.7338,103.303 31.2529,104.334 31.8003,105.219 L31.916,105.148 Z M30.3438,102.208 L30.4657,102.148 L30.4658,102.148 L30.3301,102.157 L30.1943,102.167 C30.1967,102.201 30.2056,102.236 30.2218,102.268 L30.3438,102.208 Z M30.3301,102.157 L30.4544,102.102 L30.1839,101.495 L30.0596,101.55 L29.9353,101.605 L30.2058,102.213 L30.3301,102.157 Z M30.0596,101.55 L30.1558,101.454 L30.1548,101.453 L30.0586,101.549 L29.9624,101.645 L29.9634,101.646 L30.0596,101.55 Z M30.0586,101.549 L30.1831,101.494 C30.008,101.096 29.9763,100.644 30.1196,100.236 L29.9912,100.191 L29.8628,100.146 C29.6946,100.626 29.7339,101.149 29.9341,101.604 L30.0586,101.549 Z M29.9912,100.191 L30.1232,100.224 L30.1242,100.22 L29.9922,100.187 L29.8602,100.154 L29.8592,100.158 L29.9912,100.191 Z M29.9922,100.187 L30.1193,100.235 C30.1567,100.137 30.2041,100.038 30.2628,99.9382 L30.1455,99.8693 L30.0282,99.8003 C29.9621,99.9128 29.908,100.025 29.8651,100.138 L29.9922,100.187 Z M30.1455,99.8693 L30.2813,99.8617 L30.2257,98.8598 L30.0898,98.8673 L29.954,98.8749 L30.0097,99.8768 L30.1455,99.8693 Z M30.0898,98.8673 L30.2259,98.8673 L30.2259,98.8663 L30.0898,98.8663 L29.9538,98.8663 L29.9538,98.8673 L30.0898,98.8673 Z M30.0898,98.8663 L30.2243,98.8455 C30.2045,98.7176 30.2314,98.625 30.2784,98.5828 L30.1875,98.4816 L30.0966,98.3803 C29.9478,98.5139 29.9301,98.724 29.9554,98.8871 L30.0898,98.8663 Z M30.1875,98.4816 L30.2781,98.583 C30.2857,98.5763 30.2966,98.5696 30.3113,98.5641 L30.2637,98.4366 L30.216,98.3092 C30.1759,98.3242 30.1341,98.3468 30.0969,98.3801 L30.1875,98.4816 Z M30.2637,98.4366 L30.3934,98.3958 L30.3056,98.1165 L30.1758,98.1573 L30.046,98.1982 L30.1339,98.4775 L30.2637,98.4366 Z M30.1758,98.1573 L30.3118,98.1573 L30.3118,98.1564 L30.1758,98.1564 L30.0397,98.1564 L30.0397,98.1573 L30.1758,98.1573 Z M30.1758,98.1564 L30.3017,98.1049 C30.248,97.9734 30.2747,97.8827 30.3287,97.8459 L30.252,97.7335 L30.1752,97.6212 C29.9606,97.7677 29.9781,98.0322 30.0498,98.2078 L30.1758,98.1564 Z M30.252,97.7335 L30.3283,97.8461 C30.3615,97.8236 30.3948,97.821 30.4324,97.8339 C30.4742,97.8483 30.5196,97.8825 30.555,97.93 L30.6641,97.8488 L30.7732,97.7675 C30.712,97.6854 30.6245,97.6123 30.521,97.5767 C30.4133,97.5396 30.2888,97.5442 30.1756,97.6209 L30.252,97.7335 Z M30.6641,97.8488 L30.5548,97.9298 L30.5549,97.9305 L30.6738,97.8644 L30.7928,97.7983 C30.7891,97.7917 30.7823,97.7798 30.7733,97.7677 L30.6641,97.8488 Z M30.6738,97.8644 L30.555,97.9305 L30.6126,98.0341 L30.7314,97.9679 L30.8503,97.9017 L30.7927,97.7982 L30.6738,97.8644 Z M30.7314,97.9679 L30.8674,97.9737 L30.8849,97.5636 L30.749,97.5577 L30.6131,97.5519 L30.5955,97.9621 L30.7314,97.9679 Z M30.749,97.5577 L30.8851,97.5577 L30.8851,97.5529 L30.749,97.5529 L30.613,97.5529 L30.613,97.5577 L30.749,97.5577 Z M30.749,97.5529 L30.8846,97.564 C30.8981,97.4 30.9832,97.3249 31.0639,97.3183 L31.0527,97.1827 L31.0416,97.0471 C30.7796,97.0686 30.6332,97.3005 30.6134,97.5417 L30.749,97.5529 Z" id="Shape" fill="#00402A"></path>
                <path d="M35.9631,104.421 L38.2791,103.762 C40.4517,102.817 41.7903,106.312 39.1875,106.684 C38.3535,106.806 37.5567,106.843 36.744,106.955 C37.1796,106.078 36.9193,104.819 35.9631,104.426 L35.9631,104.421 Z" id="Path" stroke="#00402A" stroke-width="0.2721" fill="#0792E5" stroke-linejoin="round"></path>
                <path d="M29.1263,114.769 L31.3892,115.353 C32.2975,115.544 33.0359,115.836 33.907,115.772 L35.6812,116.266 L36.4567,116.415 C36.7701,116.479 36.9242,116.16 36.5364,115.958 L34.656,115.332 L34.7304,115.119 L35.7662,115.3 L36.6798,115.555 C37.1473,115.666 37.211,115.3 36.7808,115.023 L35.6812,114.545 L34.8047,114.306 L34.8844,114.195 L35.7981,114.397 L36.7754,114.806 C37.296,114.933 37.4447,114.625 37.0623,114.359 L36.1168,113.919 L34.98,113.541 L35.0597,113.377 L35.9627,113.531 L37.142,113.972 C37.6307,114.083 37.6732,113.759 37.2323,113.467 L36.0743,112.883 L34.2045,112.49 L34.2629,112.399 L34.8525,112.325 L35.6121,112.447 C36.0849,112.538 36.2868,112.219 35.6971,111.98 L34.6826,111.741 C34.6826,111.741 33.2218,112.012 32.8712,112.229 C32.3984,112.522 30.5712,113.132 30.5712,113.132 L30.0134,112.984 C29.2697,112.83 28.372,114.529 29.1263,114.758 L29.1263,114.769 Z" id="Path" stroke="#00402A" stroke-width="0.2721" fill="#FFC7A6" stroke-linejoin="round"></path>
                <path d="M16.9836,96.7294 C16.8508,100.48 17.4245,105.096 18.4019,109.425 C18.455,109.664 18.5984,109.882 18.7949,110.03 C22.0086,112.378 25.5145,113.876 29.9924,114.997 L30.4571,114.634 C31.0465,114.175 31.0082,113.271 30.3816,112.863 C27.7463,111.149 24.8941,109.328 21.6262,107.73 C21.6315,104.825 21.4243,101.914 21.0206,98.9975 C20.6063,95.3748 17.281,93.7069 16.9889,96.7347 L16.9836,96.7294 Z" id="Path" stroke="#00402A" stroke-width="0.2721" fill="#FFC7A6" stroke-linejoin="round"></path>
                <path d="M51.498,136.202 L51.498,134.421 L52.072,134.421 L52.072,136.202 C52.072,136.244 52.0447,136.286 51.9887,136.318 C51.8764,136.382 51.6955,136.382 51.5831,136.318 C51.5267,136.286 51.4999,136.244 51.4999,136.202 L51.498,136.202 Z" id="Path" stroke="#00402A" stroke-width="0.2721" fill="#FFF5EC" stroke-linejoin="round"></path>
                <path d="M49.6677,133.781 C49.6677,134.957 50.6288,135.203 51.8141,135.203 C52.9994,135.203 53.9605,134.957 53.9605,133.781 C53.9605,132.605 52.9994,129.692 51.8141,129.692 C50.6288,129.692 49.6677,132.605 49.6677,133.781 Z" id="Path" stroke="#00402A" stroke-width="0.2721" fill="#2F6852" stroke-linejoin="round"></path>
                <path d="M31.6666,140 C31.6666,139.264 31.0697,138.667 30.3333,138.667 C29.5969,138.667 29,139.264 29,140 C29,140.736 29.5969,141.333 30.3333,141.333 C31.0697,141.333 31.6666,140.736 31.6666,140 Z M46.8334,186 L47.0834,186 L47.0834,185.75 L46.8334,185.75 L46.8334,186 Z M30.3334,186 L30.0834,186 L30.0834,186.25 L30.3334,186.25 L30.3334,186 Z M46.8333,235 L47.0833,235 L47.0834,186 L46.8334,186 L46.5834,186 L46.5833,235 L46.8333,235 Z M46.8334,186 L46.8334,185.75 L30.3334,185.75 L30.3334,186 L30.3334,186.25 L46.8334,186.25 L46.8334,186 Z M30.3334,186 L30.5834,186 L30.5833,140 L30.3333,140 L30.0833,140 L30.0834,186 L30.3334,186 Z" id="Shape" fill="#00402A"></path>
            </g>
        </g>
    </g>
</svg>