<?xml version="1.0" encoding="UTF-8"?>
<svg width="273px" height="228px" viewBox="0 0 273 228" version="1.1" xmlns="http://www.w3.org/2000/svg" xmlns:xlink="http://www.w3.org/1999/xlink">
    <title>ilustracion</title>
    <defs>
        <polygon id="path-1" points="164.974 47.4481 152.484 54.6599 139.994 47.4481 152.484 40.2363"></polygon>
    </defs>
    <g id="Page-1" stroke="none" stroke-width="1" fill="none" fill-rule="evenodd">
        <g id="ilustracion" transform="translate(0, 17)">
            <g id="3" transform="translate(0, -24)">
                <polygon id="Path" stroke="#00402A" stroke-width="0.2721" fill="#89837E" fill-rule="nonzero" stroke-linejoin="round" points="134.413 56.3323 131.137 61.6197 143.537 68.7785 144.594 62.2128 140.312 58.3402"></polygon>
                <polygon id="Path" stroke="#00402A" stroke-width="0.2721" fill="#5BD38C" fill-rule="nonzero" stroke-linejoin="round" points="144.229 50.6667 134.414 56.3358 146.882 63.5322 154.26 56.4585"></polygon>
                <polygon id="Path" stroke="#00402A" stroke-width="0.2721" fill="#89837E" fill-rule="nonzero" stroke-linejoin="round" points="142.699 51.0892 138.849 55.5448 147.233 60.3855 152.173 56.5572 148.188 52.9539"></polygon>
                <polygon id="Path" stroke="#00402A" stroke-width="0.2721" fill="#5BD38C" fill-rule="nonzero" stroke-linejoin="round" points="151.832 45.8156 142.698 51.0892 154.297 57.7845 161.164 51.2051"></polygon>
                <polygon id="Path" stroke="#00402A" stroke-width="0.2721" fill="#D8CFC7" fill-rule="nonzero" stroke-linejoin="round" points="173.493 55.5517 172.19 52.6132 153.503 49.9985 151.358 50.7928 146.551 57.6448 145.767 72.6579 156.955 68.8477 158.389 70.7898 160.758 70.7898 171.273 73.2511 176.07 68.141 176.425 59.622 175.323 58.8686"></polygon>
                <path d="M151.791,63.1104 C147.456,64.0393 146.819,69.4214 146.628,72.29 L156.381,69.1345 C156.094,67.509 155.807,62.2498 151.791,63.1104 Z" id="Path" stroke="#00402A" stroke-width="0.2721" fill="#615D5A" fill-rule="nonzero" stroke-linejoin="round"></path>
                <path d="M149.496,64.2578 C153.398,64.7168 155.521,67.7002 156.094,69.1345 L146.628,72.29 C146.628,67.7002 148.54,65.0228 149.496,64.2578 Z" id="Path" stroke="#00402A" stroke-width="0.2721" fill="#89837E" fill-rule="nonzero" stroke-linejoin="round"></path>
                <polygon id="Path" fill="#FDF9F2" fill-rule="nonzero" points="141.159 62.7838 142.368 63.481 142.374 63.5653 142.222 63.5653 141.013 62.8681 141.013 62.7838"></polygon>
                <path d="M144.14,64.5042 C144.359,64.6279 144.567,64.7516 144.781,64.8809 L144.781,64.9709 L144.629,64.9709 C144.415,64.8415 144.207,64.7122 143.993,64.5885 L143.431,64.2624 L143.431,64.1724 L143.577,64.1724 L144.14,64.4985 L144.14,64.5042 Z" id="Path" fill="#FDF9F2" fill-rule="nonzero"></path>
                <path d="M148.484,67.4582 C148.703,67.5819 148.911,67.7056 149.125,67.8349 L149.125,67.9249 L148.973,67.9249 C148.759,67.7956 148.551,67.6663 148.337,67.5426 L147.775,67.2164 L147.775,67.1265 L147.921,67.1265 L148.484,67.4526 L148.484,67.4582 Z" id="Path" fill="#FDF9F2" fill-rule="nonzero"></path>
                <path d="M149.914,68.8338 C150.19,69.1206 150.471,69.413 150.741,69.7054 L150.69,69.7897 L150.566,69.7785 L150.544,69.7616 C150.285,69.4692 150.015,69.1824 149.729,68.8957 L149.768,68.8113 L149.914,68.8338 Z" id="Path" fill="#FDF9F2" fill-rule="nonzero"></path>
                <polygon id="Path" stroke="#00402A" stroke-width="0.2721" fill="#D8CFC7" fill-rule="nonzero" opacity="0.5" stroke-linejoin="round" points="172.19 52.6132 168.297 53.6632 168.501 57.0142 173.493 55.5518"></polygon>
                <polygon id="Path" stroke="#00402A" stroke-width="0.2721" fill="#5BD38C" fill-rule="nonzero" stroke-linejoin="round" points="146.551 57.6449 142.422 59.8301 147.488 62.5368 154.976 60.6618"></polygon>
                <polygon id="Path" stroke="#00402A" stroke-width="0.2721" fill="#89837E" fill-rule="nonzero" stroke-linejoin="round" points="142.422 59.83 138.682 68.8945 145.767 72.577 147.488 62.5367"></polygon>
                <polygon id="Path" stroke="#00402A" stroke-width="0.2721" fill="#89837E" fill-rule="nonzero" stroke-linejoin="round" points="163.718 59.9801 160.465 59.3154 156.955 68.9628 159.823 73.4377 172.084 64.2243"></polygon>
                <polygon id="Path" stroke="#00402A" stroke-width="0.2721" fill="#5BD38C" fill-rule="nonzero" stroke-linejoin="round" points="175.313 58.8415 168.924 60.6619 165.477 58.3268 160.465 59.3154 174.444 65.2504 176.425 59.6222"></polygon>
                <polygon id="Path" stroke="#00402A" stroke-width="0.2721" fill="#D8CFC7" fill-rule="nonzero" stroke-linejoin="round" points="167.87 70.3297 167.27 68.8639 160.554 68.9627 160.397 69.9953 170.537 72.3479"></polygon>
                <polygon id="Path" stroke="#00402A" stroke-width="0.2721" fill="#B0A9A3" fill-rule="nonzero" stroke-linejoin="round" points="151.358 50.7928 146.551 57.6448 154.976 60.6618 156.868 55.8006"></polygon>
                <polygon id="Path" stroke="#00402A" stroke-width="0.2721" fill="#89837E" fill-rule="nonzero" stroke-linejoin="round" points="173.152 62.4684 169.626 55.1902 168.924 60.6617 171.931 64.2854"></polygon>
                <polygon id="Path" stroke="#00402A" stroke-width="0.2721" fill="#89837E" fill-rule="nonzero" stroke-linejoin="round" points="160.554 68.9626 159.139 77.635 164.87 78.1907 172.46 72.8625"></polygon>
                <polygon id="Path" stroke="#00402A" stroke-width="0.2721" fill="#B0A9A3" fill-rule="nonzero" stroke-linejoin="round" points="169.521 55.9983 168.382 54.1438 166.817 54.5938 165.477 58.3266 168.924 60.6618"></polygon>
                <path d="M185.449,68.574 C185.098,67.1048 184.778,65.6832 184.515,64.2753 C183.919,61.0947 180.727,59.1039 177.594,59.9016 L175.75,60.3686 L173.152,62.4686 L167.87,70.3297 L169.991,84.0167 L175.685,87.3132 L176.882,87.2109 L180.85,85.6905 L181.119,83.8224 L183.332,83.8224 L186.639,82.6429 C186.206,77.9487 186.554,73.2 185.449,68.5706 L185.449,68.574 Z" id="Path" stroke="#00402A" stroke-width="0.2721" fill="#D8CFC7" fill-rule="nonzero" stroke-linejoin="round"></path>
                <polygon id="Path" stroke="#00402A" stroke-width="0.2721" fill="#D8CFC7" fill-rule="nonzero" stroke-linejoin="round" points="196.067 74.8465 193.642 73.4488 192.446 68.0558 193.619 64.1525 190.959 65.0661 188.051 70.0398 183.152 72.5386 181.665 76.3737 179.139 79.5611 176.885 87.2108 181.716 90.6675 187.447 91.2232 190.55 90.2039 196.067 87.0165"></polygon>
                <polygon id="Path" stroke="#00402A" stroke-width="0.2721" fill="#D8CFC7" fill-rule="nonzero" stroke-linejoin="round" points="181.996 76.9531 188.474 79.6871 188.474 65.2501 183.342 65.2501 183.758 67.183 183.042 72.3476"></polygon>
                <polygon id="Path" stroke="#00402A" stroke-width="0.2721" fill="#D8CFC7" fill-rule="nonzero" stroke-linejoin="round" points="167.871 70.3297 164.997 72.8625 168.962 75.7601 175.211 77.6862 178.679 75.5011 171.931 72.6171"></polygon>
                <polygon id="Path" stroke="#00402A" stroke-width="0.2721" fill="#B0A9A3" fill-rule="nonzero" stroke-linejoin="round" points="164.996 72.8625 161.737 80.6384 175.689 87.3132 175.211 77.6863"></polygon>
                <polygon id="Path" stroke="#00402A" stroke-width="0.2721" fill="#D8CFC7" fill-rule="nonzero" stroke-linejoin="round" points="193.499 81.8111 189.844 81.8963 183.128 81.9952 180.956 81.8963 182.681 82.8815 187.935 84.0201"></polygon>
                <polygon id="Path" stroke="#00402A" stroke-width="0.2721" fill="#89837E" fill-rule="nonzero" stroke-linejoin="round" points="186.292 73.0125 183.042 72.3477 181.996 76.9532 189.844 81.8963 190.383 74.567"></polygon>
                <polygon id="Path" stroke="#00402A" stroke-width="0.2721" fill="#D8CFC7" fill-rule="nonzero" stroke-linejoin="round" points="194.076 73.7113 190.032 75.3987 189.844 81.8963 194.076 81.7974"></polygon>
                <polygon id="Path" stroke="#00402A" stroke-width="0.2721" fill="#89837E" fill-rule="nonzero" stroke-linejoin="round" points="179.139 79.5611 176.885 87.2108 181.716 90.6675 183.128 81.9951"></polygon>
                <polygon id="Path" stroke="#00402A" stroke-width="0.2721" fill="#5BD38C" fill-rule="nonzero" stroke-linejoin="round" points="193.643 73.4488 191.498 73.6943 186.565 71.6114 183.043 72.3477 185.896 73.6193 190.032 75.3988 193.5 75.501 196.067 74.8465"></polygon>
                <polygon id="Path" stroke="#00402A" stroke-width="0.2721" fill="#B0A9A3" fill-rule="nonzero" stroke-linejoin="round" points="173.152 62.4684 168.297 69.4296 178.679 75.501 179.446 66.7194"></polygon>
                <polygon id="Path" stroke="#00402A" stroke-width="0.2721" fill="#D8CFC7" fill-rule="nonzero" stroke-linejoin="round" points="193.619 64.1525 190.874 64.5821 191.498 73.6943 193.642 73.4488"></polygon>
                <polygon id="Path" stroke="#00402A" stroke-width="0.2721" fill="#B0A9A3" fill-rule="nonzero" stroke-linejoin="round" points="183.128 81.9951 181.716 90.6675 187.447 91.2232 187.935 84.02"></polygon>
                <polygon id="Path" stroke="#00402A" stroke-width="0.2721" fill="#89837E" fill-rule="nonzero" stroke-linejoin="round" points="190.959 65.0661 188.474 65.2502 186.687 66.2865 186.564 71.6113 191.498 73.6942"></polygon>
                <polygon id="Path" stroke="#00402A" stroke-width="0.2721" fill="#5BD38C" fill-rule="nonzero" stroke-linejoin="round" points="161.007 45.3247 151.359 50.7927 156.868 55.7971 161.181 56.2607 164.11 55.3641 166.817 54.5903 169.521 55.9948 173.152 62.465 179.442 66.716 183.755 67.1797 186.684 66.2831 190.956 65.0627 193.619 64.1491"></polygon>
                <path d="M177.145,44.3836 C177.166,44.4341 177.22,44.4816 177.302,44.5321 C177.409,44.5802 177.54,44.6067 177.695,44.6067 L177.77,44.6067 C177.891,44.5987 178,44.5746 178.099,44.5321 C178.212,44.4766 178.267,44.4101 178.267,44.333 L178.257,44.301 C178.249,44.2375 178.198,44.1814 178.099,44.1339 C178.001,44.0834 177.891,44.0569 177.77,44.0489 L177.695,44.0489 C177.54,44.0489 177.409,44.0779 177.302,44.1339 C177.217,44.1765 177.163,44.2239 177.145,44.2825 L177.145,44.3836 Z" id="Path" stroke="#00402A" stroke-width="0.2721" fill="#26BF64" stroke-linecap="round" stroke-linejoin="round"></path>
                <path d="M178.267,44.3306 C178.267,44.4076 178.211,44.4742 178.099,44.5297 C178,44.5722 177.891,44.5962 177.77,44.6042 L177.695,44.6042 C177.54,44.6042 177.409,44.5802 177.302,44.5297 C177.217,44.4791 177.163,44.4317 177.145,44.3811 L177.139,52.2234 L177.134,54.8971 L177.134,57.9819 L177.155,57.9819 C177.147,58.0028 177.141,58.0219 177.134,58.0349 L177.134,58.1304 C177.155,58.2364 177.24,58.3239 177.387,58.393 C177.5,58.4484 177.628,58.4885 177.77,58.5101 C177.847,58.5181 177.927,58.5205 178.013,58.5205 L178.109,58.5205 C178.315,58.507 178.486,58.4651 178.628,58.393 C178.791,58.3159 178.877,58.2259 178.882,58.1193 L178.882,58.1088 C178.89,58.1008 178.892,58.0903 178.892,58.0768 C178.892,58.0632 178.89,58.0478 178.882,58.0343 L178.807,56.3911 L178.785,55.9184 L178.737,54.8965 L178.614,52.2228 L178.267,44.33 L178.267,44.3306 Z" id="Path" stroke="#00402A" stroke-width="0.2721" fill="#FFFEFF" stroke-linecap="round" stroke-linejoin="round"></path>
                <path d="M179.757,43.4726 C179.845,43.3955 179.922,43.3209 179.984,43.2519 L180.053,43.1773 C180.155,43.0528 180.208,42.9493 180.208,42.8667 C180.208,42.6837 179.979,42.6411 179.519,42.7391 C179.054,42.8371 178.495,43.0522 177.846,43.3813 C177.562,43.5219 177.298,43.6655 177.052,43.814 C176.975,43.8695 176.934,43.9626 176.934,44.0877 C176.934,44.1857 176.959,44.2843 177.004,44.3823 L177.009,44.4032 L177.015,44.4032 C177.026,44.4217 177.039,44.4433 177.052,44.4667 L177.253,44.7083 C177.295,44.7373 177.333,44.7613 177.371,44.7829 C177.44,44.8174 177.504,44.8334 177.56,44.8254 C177.616,44.8045 177.673,44.7804 177.729,44.7509 C177.771,44.7373 177.809,44.7163 177.847,44.6874 C178.045,44.5894 178.234,44.4883 178.419,44.3823 C178.609,44.2763 178.79,44.1727 178.959,44.0661 C179.114,43.9601 179.263,43.859 179.405,43.761 C179.448,43.7265 179.485,43.6944 179.523,43.6655 C179.608,43.5989 179.688,43.533 179.758,43.4719 L179.757,43.4726 Z" id="Path" stroke="#00402A" stroke-width="0.2721" fill="#FFFEFF" stroke-linecap="round" stroke-linejoin="round"></path>
                <path d="M175.164,36.8408 L175.1,36.7717 L175.014,37.0029 C175.303,38.6725 175.608,40.1647 175.926,41.4762 C176.012,41.8054 176.092,42.1216 176.169,42.4242 C176.375,43.181 176.578,43.8313 176.784,44.373 C176.798,44.394 176.808,44.4156 176.816,44.4365 L176.795,44.569 L176.785,44.614 L175.64,44.6831 L175.598,44.6886 L174.443,45.615 L172.472,47.1946 L172.472,47.4153 L172.737,47.5003 C172.897,47.4338 173.055,47.3648 173.207,47.2957 L174.33,46.77 C174.367,46.7515 174.405,46.7299 174.442,46.7114 C174.824,46.5148 175.18,46.3188 175.511,46.1222 C176.217,45.6871 176.749,45.2698 177.102,44.8692 L177.145,44.8852 L177.345,44.9542 L178.521,46.2498 L179.476,46.8285 L183.121,49.0295 L183.175,48.9444 L183.271,48.7879 C181.921,47.6994 180.713,46.7835 179.646,46.0402 C179.59,46.0057 179.534,45.9657 179.478,45.9231 C178.695,45.3894 178.029,44.9783 177.487,44.6911 C177.409,44.6485 177.331,44.6116 177.254,44.574 C177.246,44.566 177.24,44.5635 177.233,44.5635 L177.032,44.2794 L177.065,42.8057 L176.947,42.426 L175.279,36.9622 L175.164,36.8401 L175.164,36.8408 Z" id="Path" stroke="#00402A" stroke-width="0.2721" fill="#FFFEFF" stroke-linecap="round" stroke-linejoin="round"></path>
                <path d="M176.784,44.6141 L175.64,44.6831 L175.704,44.635 L176.794,44.566 L176.783,44.6141 L176.784,44.6141 Z M175.619,46.0661 C175.287,46.2628 174.929,46.4588 174.549,46.6554 L174.333,46.7669 C174.37,46.7484 174.408,46.7269 174.445,46.7084 C174.827,46.5118 175.183,46.3158 175.514,46.1192 C176.22,45.684 176.752,45.2668 177.105,44.8661 L177.148,44.8822 C176.795,45.2618 176.284,45.6575 175.619,46.0661 Z M175.204,36.7188 L175.383,36.9073 L177.049,42.3712 L177.167,42.7509 L177.135,44.2245 L177.335,44.5087 C177.343,44.5087 177.349,44.5111 177.356,44.5191 C177.434,44.5537 177.511,44.5937 177.589,44.6362 C178.134,44.9228 178.797,45.3346 179.58,45.8683 C179.636,45.9108 179.693,45.9478 179.748,45.9854 C180.815,46.7287 182.023,47.6446 183.373,48.733 L183.224,48.9747 L183.17,48.9426 L183.266,48.7861 C181.917,47.6976 180.708,46.7817 179.642,46.0384 C179.586,46.0039 179.529,45.9638 179.474,45.9213 C178.69,45.3876 178.025,44.9765 177.482,44.6892 C177.405,44.6467 177.327,44.6097 177.249,44.5721 C177.241,44.5641 177.236,44.5617 177.228,44.5617 L177.028,44.2775 L177.06,42.8039 L176.942,42.4242 L175.28,36.9634 L175.162,36.8414 L175.205,36.7194 L175.204,36.7188 Z" id="Shape" stroke="#00402A" stroke-width="0.2721" fill="#B0A9A3" stroke-linecap="round" stroke-linejoin="round"></path>
                <path d="M177.15,44.3275 C177.06,44.1734 176.947,44.0649 176.813,44.0033 C176.677,43.9343 176.562,43.9287 176.468,43.9873 C176.458,43.9928 176.444,44.0008 176.433,44.0138 C176.423,44.0242 176.404,44.0403 176.383,44.0563 C176.113,44.2794 175.974,44.5635 175.96,44.9111 C175.96,44.9457 175.974,44.9722 176.003,44.9882 C176.203,45.0837 176.422,45.1398 176.657,45.1503 L176.778,45.1503 C176.847,45.1503 176.919,45.1447 176.992,45.1343 L177.053,45.1182 L177.08,45.1182 C177.104,45.1078 177.125,45.0942 177.15,45.0837 C177.24,45.0283 177.286,44.9247 177.286,44.7756 C177.289,44.6239 177.243,44.4754 177.15,44.3269 L177.15,44.3275 Z" id="Path" stroke="#00402A" stroke-width="0.2721" fill="#FF9C1A" stroke-linecap="round" stroke-linejoin="round"></path>
                <polygon id="Path" stroke="#00402A" stroke-width="0.2721" fill="#D8CFC7" fill-rule="nonzero" stroke-linejoin="round" points="183.128 81.9951 187.935 84.02 193.499 81.811"></polygon>
                <path d="M129.426,73.7537 C128.841,74.1954 128.525,75.0732 128.296,76.0945 C128.617,76.978 129.185,77.6378 129.971,78.1025 L131.841,80.6671 C132.34,81.3269 133.104,81.7687 133.976,82.1187 C134.807,82.3195 135.691,82.3309 136.615,82.1703 C137.814,81.7802 138.193,81.3671 138.571,80.6442 C138.359,79.9213 137.349,79.0894 136.052,78.3033 L134.251,76.1232 L134.176,73.834 L130.849,72.2505 L129.426,73.7479 L129.426,73.7537 Z" id="Path" stroke="#00402A" stroke-width="0.2721" fill="#3A3735" fill-rule="nonzero" stroke-linejoin="round"></path>
                <path d="M150.155,55.5664 L146.443,66.8058 C146.403,66.9091 146.362,67.0066 146.311,67.1041 C145.737,68.2918 144.641,69.313 143.304,70.2826 C140.631,72.2218 137.022,73.9315 134.83,76.2838 C132.891,77.001 129.432,75.5609 129.432,73.4611 C130.625,71.7628 131.675,70.4719 132.851,69.3187 C134.389,67.8041 136.133,66.5132 138.674,64.8149 L141.101,55.8647 L150.143,55.5779 L150.155,55.5664 Z" id="Path" stroke="#00402A" stroke-width="0.2721" fill="#007ACB" fill-rule="nonzero" stroke-linejoin="round"></path>
                <path d="M149.742,41.7338 L161.647,52.715 C162.438,52.3478 163.901,51.1315 164.315,50.1963 L151.142,34.7113 C149.902,33.4548 148.503,32.9385 147.005,32.8524 L149.748,41.7338 L149.742,41.7338 Z" id="Path" stroke="#00402A" stroke-width="0.2721" fill="#F2F2F2" fill-rule="nonzero" stroke-linejoin="round"></path>
                <path d="M146.202,32.2271 L149.019,41.0338 C149.019,41.0338 151.079,37.7349 150,34.8949 C149.139,32.6344 146.208,32.2271 146.208,32.2271 L146.202,32.2271 Z" id="Path" stroke="#00402A" stroke-width="0.2721" fill="#F2F2F2" fill-rule="nonzero" stroke-linejoin="round"></path>
                <path d="M150.155,55.5664 C148.589,57.0983 147.894,58.1941 147.074,59.1178 C146.598,59.6571 146.093,60.1276 145.376,60.5866 C142.645,62.3307 142.501,64.924 139.472,62.3536 C139.461,62.3479 139.443,62.3307 139.426,62.3192 C135.938,60.1218 135.806,57.2532 136.185,54.4993 L135.422,51.1831 L134.704,48.062 L134.59,47.0121 L134.555,46.6793 L133.706,38.9053 C134.045,38.5151 134.395,38.1307 134.756,37.7521 C135.14,37.3505 135.531,36.9546 135.938,36.5702 C137.441,35.1359 139.093,33.822 140.883,32.6287 L147.028,32.6287 C148.439,33.954 149.214,36.071 149.627,38.6356 C149.627,38.6356 150.155,52.3306 150.155,55.5664 Z" id="Path" stroke="#00402A" stroke-width="0.2721" fill="#0DA9FF" fill-rule="nonzero" stroke-linejoin="round"></path>
                <path d="M148.261,39.3241 C146.873,41.0969 144.182,42.296 140.826,43.1968 C140.39,39.5249 138.663,36.6333 135.938,36.5702 C137.441,35.1359 139.093,33.822 140.883,32.6287 L145.703,32.6287 C147.315,34.4875 148.17,37.2759 148.261,39.3241 Z" id="Path" stroke="#00402A" stroke-width="0.2721" fill="#F2F2F2" fill-rule="nonzero" stroke-linejoin="round"></path>
                <path d="M144.704,37.494 C144.555,37.7923 144.354,38.0046 144.091,38.0792 C141.578,38.8193 139.518,35.9564 139.81,34.2639 C140.046,32.5255 140.183,31.5845 140.183,31.5845 L145.043,32.7836 C145.043,32.7836 145.095,33.2369 145.123,33.8852 C145.169,34.9753 145.158,36.6162 144.71,37.4997 L144.704,37.494 Z" id="Path" stroke="#00402A" stroke-width="0.2721" fill="#FFB294" fill-rule="nonzero" stroke-linejoin="round"></path>
                <path d="M140.562,32.4279 C140.562,32.4279 141.09,34.5277 142.031,35.44 C142.972,36.3464 144.469,36.7997 145.043,36.8341 C145.617,36.8685 146.064,36.8112 146.437,36.3809 C146.81,35.9448 147.034,31.9459 147.034,31.9459 C147.022,30.4026 146.999,29.9321 146.816,29.0715 C146.546,27.8036 145.628,24.9923 141.933,25.5029 C140.149,25.7496 139.047,27.0463 138.818,28.6126 C138.634,29.8576 139.633,32.0779 139.633,32.0779 L140.568,32.4336 L140.562,32.4279 Z" id="Path" stroke="#00402A" stroke-width="0.2721" fill="#FFB294" fill-rule="nonzero" stroke-linejoin="round"></path>
                <path d="M139.587,32.3304 L141.342,33.2655 L141.474,32.2156 C141.469,31.7165 141.887,31.3091 142.392,31.3493 C143.236,31.4124 144.527,31.3665 145.766,30.7583 C146.942,30.1789 147.149,29.3929 147.149,29.3929 C147.74,27.1151 144.739,25.3595 142.478,25.4341 C139.73,25.5259 138.623,27.3676 138.617,28.997 C138.617,30.4772 139.598,32.3304 139.598,32.3304 L139.587,32.3304 Z" id="Path" stroke="#00402A" stroke-width="0.2721" fill="#3A3735" fill-rule="nonzero" stroke-linejoin="round"></path>
                <path d="M139.42,51.1315 C138.29,51.7282 136.793,51.6306 135.422,51.1831 L134.704,48.062 L133.706,38.9053 C134.045,38.5151 134.395,38.1307 134.756,37.7521 C136.185,37.9414 138.003,38.67 138.611,41.0338 C139.788,45.6007 139.799,48.739 139.42,51.1315 Z" id="Path" stroke="#00402A" stroke-width="0.2721" fill="#F2F2F2" fill-rule="nonzero" stroke-linejoin="round"></path>
                <path d="M145.255,30.3739 C144.268,30.9419 143.138,31.3378 142.037,31.55 C142.071,31.5673 142.1,31.5902 142.134,31.6074 C143.976,32.6688 146.357,33.7819 148.772,32.3877 C151.417,30.8616 149.266,29.6166 147.424,28.5552 C147.384,28.5322 147.344,28.515 147.303,28.4921 C146.948,29.1346 146.259,29.8002 145.255,30.3796 L145.255,30.3739 Z" id="Path" stroke="#00402A" stroke-width="0.2721" fill="#FFFEFF" fill-rule="nonzero" stroke-linejoin="round"></path>
                <path d="M142.128,31.6017 C140.677,31.5214 139.604,31.0739 138.795,30.3739 C138.795,30.3739 137.55,26.4381 140.929,25.153 C146.448,23.0531 147.303,28.4863 147.303,28.4863 C146.919,30.1903 144.796,31.0337 142.134,31.6074 L142.128,31.6017 Z" id="Path" stroke="#00402A" stroke-width="0.2721" fill="#FFF5EC" fill-rule="nonzero" stroke-linejoin="round"></path>
                <path d="M139.977,30.9133 C139.736,30.7928 139.397,30.81 139.237,31.028 C139.145,31.1485 139.122,31.3149 139.145,31.464 C139.168,31.6132 139.231,31.7566 139.3,31.8943 C139.415,32.1296 139.547,32.3648 139.684,32.5885 C139.799,32.7721 139.942,32.9615 140.149,33.0131 C140.361,33.0647 140.619,33.2139 140.734,33.0246 C140.849,32.8353 140.838,32.3304 140.797,32.1124 C140.706,31.6534 140.407,31.137 139.977,30.9247 L139.977,30.9133 Z" id="Path" stroke="#00402A" stroke-width="0.2721" fill="#FFB294" fill-rule="nonzero" stroke-linejoin="round"></path>
                <path d="M151.434,91.2238 C151.44,92.5261 151.537,93.731 151.974,94.5571 C152.295,94.9645 152.742,95.2284 153.253,95.4063 C153.735,96.1292 154.24,96.7258 154.836,96.8922 C156.598,97.5577 159.834,96.5136 160.316,95.0563 C159.834,94.1555 158.973,93.2605 157.808,92.7441 L155.611,90.6099 L154.934,88.1715 L151.199,89.0665 L151.434,91.2238 Z" id="Path" stroke="#00402A" stroke-width="0.2721" fill="#3A3735" fill-rule="nonzero" stroke-linejoin="round"></path>
                <path d="M156.127,90.0648 C155.439,91.6139 153.821,92.1819 151.17,91.6483 C150.769,90.7304 150.373,89.8066 149.994,88.8829 C148.187,84.471 146.655,80.036 145.422,75.5552 L139.472,62.3536 L139.076,61.4816 C138.629,60.4917 139.191,59.3391 140.246,59.0819 L142.524,58.5269 L146.414,57.5802 C146.632,58.0966 146.85,58.6187 147.057,59.135 C147.223,59.5309 147.384,59.9268 147.539,60.3226 L148.394,62.5258 L148.445,62.652 C148.956,64.0175 149.432,65.3829 149.868,66.7484 C150.643,69.1466 151.291,71.5391 151.779,73.9258 L156.127,90.0648 Z" id="Path" stroke="#00402A" stroke-width="0.2721" fill="#0DA9FF" fill-rule="nonzero" stroke-linejoin="round"></path>
                <polygon id="Path" stroke="#00402A" stroke-width="0.2721" fill="#FF9C1A" fill-rule="nonzero" stroke-linejoin="round" points="152.484 67.15 139.994 59.9382 139.994 47.4481 152.484 54.6599"></polygon>
                <polygon id="Path" stroke="#00402A" stroke-width="0.2721" fill="#FF9C1A" fill-rule="nonzero" stroke-linejoin="round" points="164.974 59.9382 152.484 67.15 152.484 54.6599 164.974 47.4481"></polygon>
                <polygon id="Path" stroke="#00402A" stroke-width="0.2721" fill="#C66D00" fill-rule="nonzero" stroke-linejoin="round" points="152.484 54.6599 164.974 47.4481 152.484 40.2363"></polygon>
                <g id="Clipped">
                    <mask id="mask-2" fill="white">
                        <use xlink:href="#path-1"></use>
                    </mask>
                    <g id="Path"></g>
                </g>
                <polygon id="Path" stroke="#00402A" stroke-width="0.2721" fill="#E3850D" fill-rule="nonzero" stroke-linejoin="round" points="164.974 47.4481 152.484 54.6599 139.994 47.4481 152.484 40.2363"></polygon>
                <path d="M164.372,53.8051 L164.974,53.2428 L164.974,52.1814 L165.795,53.5411 L165.795,55.5205 L165.479,56.1057 L164.98,56.3065 L164.865,56.3065 C164.492,56.3065 164.188,56.0024 164.188,55.6295 L164.188,54.2583 C164.177,54.0862 164.24,53.9141 164.372,53.7936 L164.372,53.8051 Z" id="Path" stroke="#00402A" stroke-width="0.2721" fill="#FFB294" fill-rule="nonzero" stroke-linejoin="round"></path>
                <path d="M147.544,60.6784 L150.034,62.1758 C150.66,62.6234 152.57,63.593 152.57,63.593 C153.035,63.593 153.592,63.3176 154.383,63.1741 C155.118,63.0479 155.336,62.4914 154.687,62.4398 C155.886,62.3135 155.961,61.7111 155.192,61.6595 C155.921,61.5046 156.041,60.9022 155.347,60.8849 C156.013,60.5005 155.76,59.9727 154.946,60.2883 L153.999,60.4661 L152.771,60.4546 L152.404,59.7662 L152.754,59.3473 L153.471,59.1695 C153.982,58.9113 154.056,58.4868 153.626,58.4925 L152.094,58.7048 C151.13,59.181 151.365,58.6876 150.912,59.4736 L148.537,58.4925 L147.544,60.6612 L147.544,60.6784 Z" id="Path" stroke="#00402A" stroke-width="0.2721" fill="#FFB294" fill-rule="nonzero" stroke-linejoin="round"></path>
                <path d="M132.863,45.0385 C133.786,46.8974 135.697,51.6823 138.789,55.0673 C142.966,58.6416 146.557,60.7357 149.707,61.9807 C149.363,61.3382 148.795,59.6801 150.155,59.1752 L140.906,49.7545 L138.21,43.0706 C137.297,40.1847 135.175,38.0447 133.7,38.8995 C132.685,39.4905 131.669,41.8256 132.857,45.0327 L132.863,45.0385 Z" id="Path" stroke="#00402A" stroke-width="0.2721" fill="#F2F2F2" fill-rule="nonzero" stroke-linejoin="round"></path>
                <path d="M165.1664,55 C165.1664,55.736 164.5694,56.333 163.8334,56.333 C163.0974,56.333 162.5004,55.736 162.5004,55 C162.5004,54.264 163.0974,53.667 163.8334,53.667 C164.5694,53.667 165.1664,54.264 165.1664,55 Z M227.8334,55 L228.0834,55 L228.0834,55.25 L227.8334,55.25 L227.8334,55 Z M227.8334,7 L228.0834,7 L228.0834,55 L227.8334,55 L227.5834,55 L227.5834,7 L227.8334,7 Z M227.8334,55 L227.8334,55.25 L163.8334,55.25 L163.8334,55 L163.8334,54.75 L227.8334,54.75 L227.8334,55 Z" id="Shape" fill="#00402A" fill-rule="nonzero"></path>
            </g>
        </g>
    </g>
</svg>