<?xml version="1.0" encoding="UTF-8"?>
<svg width="475px" height="341px" viewBox="0 0 475 341" version="1.1" xmlns="http://www.w3.org/2000/svg" xmlns:xlink="http://www.w3.org/1999/xlink">
    <title>Group</title>
    <g id="Page-1" stroke="none" stroke-width="1" fill="none" fill-rule="evenodd">
        <g id="1" transform="translate(0, -38)">
            <path d="M181.839,186.398 C184.436,187.897 184.466,190.338 181.878,191.837 L128.466,222.875 C125.888,224.375 121.674,224.375 119.077,222.875 L82.5405,201.785 C79.9433,200.285 79.9237,197.855 82.5111,196.355 L135.924,165.317 C138.501,163.818 142.706,163.818 145.303,165.317 L181.839,186.408 L181.839,186.398 Z" id="Path" stroke="#00402A" stroke-width="0.5" fill-opacity="0.5" fill="#DCEBE1" fill-rule="nonzero" stroke-linejoin="round"></path>
            <path d="M171.809,188.98 L171.809,186.045 L172.755,186.045 L172.755,188.98 C172.755,189.049 172.71,189.119 172.618,189.172 C172.433,189.278 172.135,189.278 171.949,189.172 C171.856,189.119 171.812,189.049 171.812,188.98 L171.809,188.98 Z" id="Path" stroke="#00402A" stroke-width="0.5" fill="#FFF5EC" fill-rule="nonzero"></path>
            <path d="M168.792,184.989 C168.792,186.928 170.376,187.334 172.33,187.334 C174.284,187.334 175.868,186.928 175.868,184.989 C175.868,183.051 174.284,178.251 172.33,178.251 C170.376,178.251 168.792,183.052 168.792,184.989 Z" id="Path" stroke="#00402A" stroke-width="0.5" fill="#2F6852" fill-rule="nonzero"></path>
            <path d="M121.201,74.8116 C121.201,75.548 121.798,76.145 122.534,76.145 C123.27,76.145 123.867,75.548 123.867,74.8116 C123.867,74.0753 123.27,73.4783 122.534,73.4783 C121.798,73.4783 121.201,74.0753 121.201,74.8116 Z M122.534,50.734 L122.284,50.734 L122.284,74.8116 L122.534,74.8116 L122.784,74.8116 L122.784,50.734 L122.534,50.734 Z" id="Shape" fill="#00402A" fill-rule="nonzero"></path>
            <path d="M145.738,180.506 C145.714,180.535 145.685,180.572 145.649,180.614 C145.546,180.738 145.398,180.914 145.213,181.128 C144.843,181.556 144.328,182.133 143.747,182.732 C143.167,183.329 142.518,183.951 141.881,184.467 C141.249,184.978 140.608,185.402 140.044,185.58 C139.071,185.888 137.922,186.791 137.001,187.759 C136.544,188.239 136.153,188.725 135.877,189.145 C135.738,189.354 135.631,189.544 135.558,189.704 C135.484,189.87 135.455,189.986 135.452909,190.055 C135.45,190.151 135.52,190.297 135.794,190.461 C136.057,190.619 136.451,190.755 136.936,190.848 C137.905,191.033 139.178,191.033 140.349,190.745 C141.508,190.46 142.611,189.765 143.654,189.043 C144.169,188.687 144.676,188.32 145.151,188.01 C145.627,187.699 146.093,187.43 146.538,187.27 L146.539,187.269 C147.394,186.963 148.101,186.888 148.675,186.781 C149.249,186.675 149.705,186.536 150.159,186.124 C150.576,185.746 150.683,185.11 150.659,184.454 C150.647,184.134 150.605,183.828 150.565,183.573 C150.547,183.455 150.525,183.324 150.511,183.236 C150.498,183.147 150.484,183.055 150.484,182.985 C150.484,182.91 150.465,182.709 150.431,182.431 C150.399,182.16 150.357,181.832 150.313,181.515 C150.27,181.198 150.227,180.892 150.194,180.665 C150.186,180.606 150.178,180.553 150.172,180.506 L145.738,180.506 Z" id="Path" stroke="#00402A" stroke-width="0.5" fill="#00A443" fill-rule="nonzero" stroke-linejoin="round"></path>
            <path d="M145.732,180.139 C145.709,180.167 145.681,180.201 145.648,180.24 C145.546,180.364 145.397,180.54 145.212,180.754 C144.842,181.182 144.327,181.759 143.746,182.358 C143.166,182.955 142.517,183.578 141.88,184.093 C141.248,184.604 140.607,185.028 140.043,185.206 C139.07,185.514 137.921,186.418 137,187.386 C136.544,187.866 136.153,188.351 135.876,188.771 C135.738,188.981 135.63,189.171 135.558,189.331 C135.483,189.497 135.454,189.612 135.451958,189.681 C135.45,189.777 135.519,189.923 135.793,190.087 C136.056,190.245 136.451,190.381 136.937,190.474 C137.905,190.659 139.177,190.66 140.349,190.372 C141.501,190.089 142.601,189.335 143.646,188.549 C144.16,188.162 144.667,187.763 145.144,187.429 C145.62,187.095 146.088,186.809 146.538,186.649 C147.394,186.343 148.022,186.283 148.518,186.192 C149.004,186.102 149.388,185.982 149.846,185.57 C150.278,185.18 150.45,184.568 150.502,183.965 C150.556,183.347 150.483,182.859 150.483,182.618 C150.483,182.543 150.465,182.342 150.432,182.064 C150.399,181.792 150.356,181.465 150.312,181.148 C150.269,180.831 150.226,180.524 150.193,180.298 C150.185,180.239 150.178,180.186 150.171,180.139 L145.732,180.139 Z" id="Path" stroke="#00402A" stroke-width="0.5" fill="#3A3735" fill-rule="nonzero" stroke-linejoin="round"></path>
            <path d="M139.993,136.189 L140.711,137.508 L141.905,138.427 C141.91,138.41 141.917,138.394 141.921,138.378 C141.961,138.215 141.945,138.068 141.805,137.953 C141.559,137.751 141.338,137.562 141.18,137.425 C141.101,137.356 141.037,137.3 140.992,137.26 C140.97,137.241 140.952,137.225 140.94,137.215 C140.935,137.21 140.931,137.206 140.928,137.203 C140.926,137.202 140.925,137.201 140.924,137.2 L140.923,137.199 L140.923,137.198 C140.893,137.172 140.871,137.138 140.856,137.101 L140.496,136.161 C140.48,136.118 140.475,136.072 140.483,136.027 L140.79,134.318 L140.247,134.176 L139.993,136.189 Z" id="Path" stroke="#00402A" stroke-width="0.5" fill="#FFC7A6" fill-rule="nonzero" stroke-linejoin="round"></path>
            <path d="M140.908,134.394 C140.904,134.44 140.901,134.491 140.896,134.546 C140.883,134.706 140.865,134.915 140.847,135.12 C140.83,135.325 140.813,135.529 140.8,135.681 C140.794,135.75 140.789,135.808 140.785,135.851 L141.302,136.716 L142.055,137.24 C142.053,137.184 142.032,137.142 141.986,137.105 C141.808,136.971 141.648,136.846 141.533,136.755 C141.475,136.709 141.428,136.672 141.396,136.646 C141.38,136.633 141.368,136.623 141.359,136.616 C141.355,136.613 141.352,136.61 141.349,136.608 C141.348,136.607 141.347,136.607 141.346,136.606 L141.345,136.606 L141.345,136.605 C141.314,136.58 141.289,136.548 141.273,136.511 L140.993,135.863 C140.974,135.819 140.968,135.769 140.976,135.722 L141.24,134.206 L140.908,134.394 Z" id="Path" stroke="#00402A" stroke-width="0.5" fill="#FFC7A6" fill-rule="nonzero" stroke-linejoin="round"></path>
            <path d="M140.697,111.249 C140.684,111.304 139.303,117.19 139.722,120.193 C140,122.191 139.097,126.426 138.414,129.208 C137.995,129.488 137.514,129.897 137.16,130.456 L137.158,130.458 C136.231,131.266 135.464,133.321 135.51,134.022 C135.557,134.72 135.821,137.319 135.823,137.339 L135.817,137.332 C135.817,137.332 135.857,138.38 136.457,137.633 C136.951,137.026 136.744,136.238 136.744,136.238 L136.838,134.876 C136.845,134.871 136.991,134.77 137.21,134.602 L137.465,137.179 L138.406,138.74 L140.115,139.936 C140.115,139.936 140.581,139.188 140.021,138.761 C139.46,138.334 139.013,137.967 139.013,137.967 L138.566,136.932 L138.613,136.581 L138.606,136.712 L139.68,138.374 L141.582,139.609 C141.582,139.609 142.063,138.781 141.443,138.34 C140.825,137.907 140.337,137.532 140.322,137.52 L139.794,136.418 L139.933,135.02 C140.375,134.888 140.865,134.662 141.389,134.296 C141.796,134.009 141.409,130.764 141.409,129.817 C141.409,129.714 141.399,129.621 141.38,129.535 C142.452,127.226 144.93,121.815 146.089,118.704 C147.598,114.68 148.038,98.1135 148.038,98.1135 L144.581,98.1135 L140.697,111.249 Z" id="Path" fill="#FFC7A6" fill-rule="nonzero"></path>
            <path d="M140.697,111.249 L140.453,111.192 C140.454,111.187 140.455,111.183 140.457,111.178 L140.697,111.249 Z M139.722,120.193 L139.97,120.158 L139.97,120.158 L139.722,120.193 Z M138.414,129.208 L138.657,129.268 C138.642,129.329 138.605,129.382 138.553,129.416 L138.414,129.208 Z M137.16,130.456 L137.372,130.59 C137.362,130.606 137.35,130.62 137.337,130.633 L137.16,130.456 Z M137.158,130.458 L137.335,130.635 C137.331,130.639 137.327,130.643 137.323,130.647 L137.158,130.458 Z M135.51,134.022 L135.261,134.038 L135.261,134.038 L135.51,134.022 Z M135.823,137.339 L136.072,137.314 C136.083,137.419 136.026,137.52 135.931,137.565 C135.835,137.61 135.721,137.591 135.647,137.516 L135.823,137.339 Z M135.817,137.332 L135.567,137.342 C135.563,137.239 135.622,137.144 135.717,137.103 C135.811,137.062 135.921,137.083 135.993,137.155 L135.817,137.332 Z M136.457,137.633 L136.262,137.476 L136.263,137.475 L136.457,137.633 Z M136.744,136.238 L136.503,136.301 C136.496,136.275 136.493,136.247 136.495,136.22 L136.744,136.238 Z M136.838,134.876 L136.589,134.859 C136.594,134.783 136.633,134.714 136.695,134.671 L136.838,134.876 Z M137.21,134.602 L137.058,134.403 C137.13,134.348 137.227,134.336 137.31,134.372 C137.393,134.409 137.45,134.487 137.459,134.577 L137.21,134.602 Z M137.465,137.179 L137.251,137.308 C137.232,137.276 137.22,137.24 137.216,137.204 L137.465,137.179 Z M138.406,138.74 L138.262,138.945 C138.234,138.925 138.209,138.899 138.191,138.869 L138.406,138.74 Z M140.115,139.936 L140.327,140.068 C140.29,140.126 140.232,140.167 140.164,140.181 C140.097,140.194 140.027,140.18 139.971,140.141 L140.115,139.936 Z M140.021,138.761 L139.869,138.96 L139.869,138.96 L140.021,138.761 Z M139.013,137.967 L138.854,138.16 C138.824,138.135 138.799,138.103 138.783,138.066 L139.013,137.967 Z M138.566,136.932 L138.336,137.031 C138.318,136.989 138.312,136.944 138.318,136.899 L138.566,136.932 Z M138.613,136.581 L138.365,136.548 C138.383,136.415 138.502,136.32 138.636,136.332 C138.769,136.345 138.869,136.46 138.862,136.594 L138.613,136.581 Z M138.606,136.712 L138.396,136.848 C138.367,136.804 138.353,136.752 138.356,136.699 L138.606,136.712 Z M139.68,138.374 L139.544,138.584 C139.514,138.565 139.489,138.54 139.47,138.51 L139.68,138.374 Z M141.582,139.609 L141.798,139.734 C141.764,139.793 141.707,139.836 141.64,139.852 C141.574,139.868 141.504,139.856 141.446,139.818 L141.582,139.609 Z M141.443,138.34 L141.586,138.135 L141.587,138.136 L141.443,138.34 Z M140.322,137.52 L140.169,137.718 C140.138,137.694 140.113,137.663 140.096,137.628 L140.322,137.52 Z M139.794,136.418 L139.569,136.526 C139.549,136.485 139.541,136.439 139.545,136.394 L139.794,136.418 Z M139.933,135.02 L139.684,134.995 C139.694,134.894 139.764,134.809 139.861,134.78 L139.933,135.02 Z M141.389,134.296 L141.533,134.5 L141.532,134.501 L141.389,134.296 Z M141.409,129.817 L141.659,129.817 L141.659,129.817 L141.409,129.817 Z M141.38,129.535 L141.136,129.588 C141.124,129.535 141.13,129.48 141.153,129.43 L141.38,129.535 Z M146.089,118.704 L145.855,118.617 L145.855,118.617 L146.089,118.704 Z M148.038,98.1135 L148.038,97.8635 C148.106,97.8635 148.17,97.8908 148.217,97.9391 C148.265,97.9874 148.29,98.0527 148.288,98.1202 L148.038,98.1135 Z M144.581,98.1135 L144.342,98.0426 C144.373,97.9364 144.471,97.8635 144.581,97.8635 L144.581,98.1135 Z M140.697,111.249 L140.94,111.306 C140.934,111.331 140.587,112.81 140.294,114.655 C140,116.509 139.766,118.698 139.97,120.158 L139.722,120.193 L139.474,120.227 C139.259,118.685 139.506,116.429 139.801,114.576 C140.096,112.714 140.446,111.222 140.453,111.192 L140.697,111.249 Z M139.722,120.193 L139.97,120.158 C140.114,121.2 139.951,122.792 139.675,124.448 C139.397,126.113 138.999,127.874 138.657,129.268 L138.414,129.208 L138.172,129.149 C138.512,127.761 138.907,126.013 139.182,124.366 C139.458,122.708 139.608,121.184 139.474,120.227 L139.722,120.193 Z M138.414,129.208 L138.553,129.416 C138.152,129.683 137.701,130.07 137.372,130.59 L137.16,130.456 L136.949,130.323 C137.327,129.725 137.838,129.292 138.276,129 L138.414,129.208 Z M137.16,130.456 L137.337,130.633 L137.335,130.635 L137.158,130.458 L136.982,130.281 L136.984,130.28 L137.16,130.456 Z M137.158,130.458 L137.323,130.647 C136.901,131.014 136.496,131.688 136.199,132.379 C136.052,132.72 135.936,133.056 135.859,133.346 C135.781,133.643 135.751,133.871 135.759,134.005 L135.51,134.022 L135.261,134.038 C135.246,133.822 135.294,133.53 135.376,133.219 C135.459,132.902 135.584,132.542 135.739,132.181 C136.046,131.467 136.488,130.71 136.994,130.27 L137.158,130.458 Z M135.51,134.022 L135.759,134.005 C135.806,134.698 136.07,137.29 136.072,137.314 L135.823,137.339 L135.575,137.364 C135.573,137.347 135.307,134.742 135.261,134.038 L135.51,134.022 Z M135.823,137.339 L135.647,137.516 L135.64,137.509 L135.817,137.332 L135.993,137.155 L136,137.162 L135.823,137.339 Z M135.817,137.332 C136.066,137.323 136.066,137.323 136.066,137.323 C136.066,137.323 136.066,137.323 136.066,137.322 C136.066,137.322 136.066,137.322 136.066,137.322 C136.066,137.322 136.066,137.322 136.066,137.322 C136.066,137.322 136.066,137.323 136.066,137.323 C136.067,137.324 136.067,137.326 136.067,137.329 C136.067,137.335 136.068,137.344 136.069,137.355 C136.071,137.378 136.074,137.41 136.079,137.447 C136.091,137.526 136.11,137.602 136.135,137.65 C136.163,137.705 136.152,137.647 136.085,137.652 C136.067,137.653 136.074,137.659 136.11,137.633 C136.145,137.607 136.196,137.56 136.262,137.476 L136.457,137.633 L136.652,137.79 C136.498,137.982 136.324,138.135 136.123,138.151 C135.88,138.169 135.746,137.989 135.689,137.876 C135.628,137.755 135.599,137.616 135.585,137.522 C135.578,137.472 135.573,137.428 135.57,137.397 C135.569,137.381 135.568,137.368 135.568,137.359 C135.567,137.354 135.567,137.35 135.567,137.347 C135.567,137.346 135.567,137.345 135.567,137.344 C135.567,137.343 135.567,137.343 135.567,137.343 C135.567,137.342 135.567,137.342 135.567,137.342 C135.567,137.342 135.567,137.342 135.567,137.342 C135.567,137.342 135.567,137.342 135.817,137.332 Z M136.457,137.633 L136.263,137.475 C136.465,137.228 136.527,136.938 136.536,136.698 C136.541,136.579 136.531,136.477 136.521,136.405 C136.516,136.369 136.511,136.341 136.507,136.323 C136.506,136.314 136.504,136.308 136.503,136.304 C136.503,136.302 136.503,136.301 136.502,136.3 C136.502,136.3 136.502,136.3 136.502,136.3 C136.502,136.3 136.502,136.3 136.502,136.3 C136.502,136.3 136.502,136.301 136.502,136.301 C136.502,136.301 136.503,136.301 136.503,136.301 C136.503,136.301 136.503,136.301 136.744,136.238 C136.986,136.174 136.986,136.174 136.986,136.174 C136.986,136.174 136.986,136.174 136.986,136.175 C136.986,136.175 136.986,136.175 136.986,136.175 C136.987,136.175 136.987,136.176 136.987,136.176 C136.987,136.177 136.987,136.178 136.988,136.179 C136.988,136.182 136.989,136.185 136.99,136.189 C136.992,136.197 136.994,136.208 136.997,136.222 C137.003,136.25 137.01,136.288 137.017,136.336 C137.03,136.43 137.042,136.563 137.036,136.717 C137.025,137.023 136.944,137.431 136.651,137.791 L136.457,137.633 Z M136.744,136.238 L136.495,136.22 L136.589,134.859 L136.838,134.876 L137.088,134.893 L136.994,136.255 L136.744,136.238 Z M136.838,134.876 L136.695,134.671 C136.7,134.668 136.842,134.569 137.058,134.403 L137.21,134.602 L137.362,134.8 C137.139,134.971 136.99,135.075 136.981,135.082 L136.838,134.876 Z M137.21,134.602 L137.459,134.577 L137.714,137.154 L137.465,137.179 L137.216,137.204 L136.961,134.626 L137.21,134.602 Z M137.465,137.179 L137.679,137.05 L138.62,138.611 L138.406,138.74 L138.191,138.869 L137.251,137.308 L137.465,137.179 Z M138.406,138.74 L138.549,138.536 L140.258,139.731 L140.115,139.936 L139.971,140.141 L138.262,138.945 L138.406,138.74 Z M140.115,139.936 C139.902,139.803 139.902,139.803 139.902,139.804 C139.902,139.804 139.902,139.804 139.902,139.804 C139.902,139.804 139.902,139.804 139.902,139.804 C139.902,139.804 139.902,139.804 139.902,139.804 C139.902,139.804 139.902,139.804 139.902,139.804 C139.902,139.803 139.903,139.802 139.904,139.801 C139.906,139.797 139.91,139.791 139.914,139.783 C139.923,139.766 139.937,139.741 139.951,139.709 C139.981,139.643 140.014,139.556 140.032,139.461 C140.069,139.272 140.045,139.094 139.869,138.96 L140.021,138.761 L140.172,138.562 C140.557,138.855 140.58,139.264 140.523,139.556 C140.495,139.701 140.447,139.828 140.406,139.916 C140.386,139.961 140.367,139.997 140.353,140.023 C140.346,140.036 140.34,140.046 140.335,140.054 C140.333,140.058 140.331,140.061 140.33,140.063 C140.329,140.065 140.328,140.066 140.328,140.066 C140.327,140.067 140.327,140.067 140.327,140.067 C140.327,140.068 140.327,140.068 140.327,140.068 C140.327,140.068 140.327,140.068 140.327,140.068 C140.327,140.068 140.327,140.068 140.115,139.936 Z M140.021,138.761 L139.869,138.96 C139.587,138.745 139.334,138.545 139.151,138.399 C139.059,138.326 138.985,138.267 138.934,138.225 C138.909,138.205 138.889,138.188 138.875,138.177 C138.869,138.172 138.863,138.168 138.86,138.165 C138.858,138.163 138.857,138.162 138.856,138.162 C138.855,138.161 138.855,138.161 138.855,138.161 C138.855,138.161 138.855,138.16 138.855,138.16 C138.854,138.16 138.854,138.16 138.854,138.16 C138.854,138.16 138.854,138.16 138.854,138.16 C138.854,138.16 138.854,138.16 139.013,137.967 C139.171,137.774 139.171,137.774 139.171,137.774 C139.171,137.774 139.171,137.774 139.171,137.774 C139.171,137.774 139.172,137.774 139.172,137.774 C139.172,137.774 139.172,137.774 139.172,137.774 C139.172,137.774 139.172,137.774 139.173,137.775 C139.173,137.775 139.175,137.776 139.176,137.778 C139.18,137.78 139.185,137.785 139.191,137.79 C139.204,137.801 139.224,137.816 139.249,137.837 C139.299,137.877 139.372,137.936 139.463,138.008 C139.643,138.153 139.894,138.35 140.172,138.562 L140.021,138.761 Z M139.013,137.967 L138.783,138.066 L138.336,137.031 L138.566,136.932 L138.795,136.833 L139.242,137.868 L139.013,137.967 Z M138.566,136.932 L138.318,136.899 L138.365,136.548 L138.613,136.581 L138.86,136.614 L138.813,136.965 L138.566,136.932 Z M138.613,136.581 L138.862,136.594 L138.855,136.725 L138.606,136.712 L138.356,136.699 L138.363,136.568 L138.613,136.581 Z M138.606,136.712 L138.816,136.576 L139.89,138.239 L139.68,138.374 L139.47,138.51 L138.396,136.848 L138.606,136.712 Z M139.68,138.374 L139.816,138.165 L141.718,139.399 L141.582,139.609 L141.446,139.818 L139.544,138.584 L139.68,138.374 Z M141.582,139.609 C141.366,139.483 141.366,139.483 141.366,139.483 C141.366,139.483 141.366,139.483 141.366,139.483 C141.366,139.483 141.366,139.484 141.366,139.484 C141.366,139.484 141.366,139.484 141.366,139.484 C141.366,139.484 141.366,139.484 141.366,139.483 C141.366,139.483 141.367,139.481 141.368,139.479 C141.37,139.475 141.374,139.468 141.379,139.459 C141.388,139.44 141.402,139.412 141.417,139.376 C141.448,139.303 141.481,139.205 141.498,139.099 C141.533,138.889 141.5,138.688 141.298,138.544 L141.443,138.34 L141.587,138.136 C142.006,138.433 142.043,138.866 141.992,139.18 C141.967,139.336 141.919,139.473 141.878,139.569 C141.858,139.618 141.839,139.657 141.825,139.685 C141.817,139.7 141.811,139.711 141.807,139.719 C141.805,139.723 141.803,139.727 141.801,139.729 C141.801,139.73 141.8,139.731 141.8,139.732 C141.799,139.733 141.799,139.733 141.799,139.733 C141.799,139.734 141.799,139.734 141.799,139.734 C141.799,139.734 141.799,139.734 141.799,139.734 C141.798,139.734 141.798,139.734 141.582,139.609 Z M141.443,138.34 L141.299,138.545 C140.677,138.108 140.186,137.731 140.169,137.718 L140.322,137.52 L140.474,137.322 C140.488,137.332 140.973,137.705 141.586,138.135 L141.443,138.34 Z M140.322,137.52 L140.096,137.628 L139.569,136.526 L139.794,136.418 L140.02,136.31 L140.547,137.412 L140.322,137.52 Z M139.794,136.418 L139.545,136.394 L139.684,134.995 L139.933,135.02 L140.182,135.044 L140.043,136.443 L139.794,136.418 Z M139.933,135.02 L139.861,134.78 C140.277,134.656 140.742,134.442 141.246,134.091 L141.389,134.296 L141.532,134.501 C140.987,134.881 140.474,135.119 140.004,135.259 L139.933,135.02 Z M141.389,134.296 L141.245,134.092 C141.223,134.107 141.222,134.118 141.232,134.099 C141.241,134.081 141.252,134.05 141.264,134.002 C141.287,133.905 141.304,133.767 141.314,133.594 C141.335,133.248 141.325,132.797 141.302,132.316 C141.279,131.836 141.244,131.336 141.214,130.893 C141.184,130.454 141.159,130.064 141.159,129.817 L141.409,129.817 L141.659,129.817 C141.659,130.043 141.683,130.414 141.713,130.859 C141.743,131.3 141.779,131.806 141.802,132.292 C141.825,132.777 141.835,133.25 141.813,133.623 C141.803,133.809 141.783,133.98 141.75,134.119 C141.733,134.188 141.711,134.257 141.681,134.319 C141.651,134.379 141.606,134.449 141.533,134.5 L141.389,134.296 Z M141.409,129.817 L141.159,129.817 C141.159,129.732 141.151,129.656 141.136,129.588 L141.38,129.535 L141.624,129.482 C141.647,129.585 141.659,129.696 141.659,129.817 L141.409,129.817 Z M141.38,129.535 L141.153,129.43 C142.226,127.118 144.7,121.717 145.855,118.617 L146.089,118.704 L146.323,118.792 C145.161,121.913 142.677,127.333 141.607,129.641 L141.38,129.535 Z M146.089,118.704 L145.855,118.617 C146.22,117.642 146.528,115.881 146.782,113.759 C147.034,111.647 147.231,109.204 147.38,106.884 C147.529,104.564 147.631,102.369 147.696,100.755 C147.729,99.9476 147.752,99.2854 147.767,98.8251 C147.774,98.5949 147.78,98.4153 147.783,98.2932 C147.785,98.2322 147.786,98.1855 147.787,98.1542 C147.788,98.1385 147.788,98.1267 147.788,98.1187 C147.788,98.1148 147.788,98.1118 147.788,98.1098 C147.788,98.1088 147.788,98.1081 147.788,98.1076 C147.788,98.1073 147.788,98.1072 147.788,98.1069793 C147.788,98.1069793 147.788,98.1069793 148.038,98.1135 C148.288,98.1202 148.288,98.1202 148.288,98.1204 C148.288,98.1205 148.288,98.1207 148.288,98.121 C148.288,98.1215 148.288,98.1223 148.288,98.1233 C148.288,98.1253 148.288,98.1283 148.288,98.1324 C148.288,98.1404 148.287,98.1524 148.287,98.1682 C148.286,98.1997 148.285,98.2466 148.283,98.3079 C148.279,98.4305 148.274,98.6106 148.266,98.8413 C148.251,99.3027 148.228,99.9662 148.196,100.775 C148.131,102.392 148.028,104.591 147.879,106.916 C147.729,109.24 147.532,111.693 147.278,113.819 C147.025,115.936 146.712,117.754 146.323,118.792 L146.089,118.704 Z M148.038,98.1135 L148.038,98.3635 L144.581,98.3635 L144.581,98.1135 L144.581,97.8635 L148.038,97.8635 L148.038,98.1135 Z M144.581,98.1135 L144.821,98.1844 L140.936,111.32 L140.697,111.249 L140.457,111.178 L144.342,98.0426 L144.581,98.1135 Z" id="Shape" fill="#00402A" fill-rule="nonzero"></path>
            <path d="M157.173,189.503 C157.167,189.508 157.16,189.514 157.153,189.52 C157.107,189.565 157.04,189.634 156.954,189.724 C156.782,189.903 156.542,190.162 156.254,190.476 C155.678,191.105 154.916,191.953 154.14,192.825 C152.581,194.578 150.988,196.407 150.718,196.787 C150.644,196.89 150.543,197.019 150.44,197.153 C150.335,197.291 150.222,197.44 150.116,197.598 C149.899,197.919 149.732,198.24 149.697,198.514 C149.68,198.644 149.695,198.754 149.74,198.848 C149.785,198.94 149.87,199.038 150.029,199.128 C150.36,199.315 150.975,199.45 152.046,199.435 C154.179,199.406 155.672,198.974 156.755,198.342 C157.836,197.71 158.53,196.867 159.049,195.981 C159.598,195.044 160.125,194.499 160.567,194.101 C160.676,194.003 160.78,193.915 160.876,193.833 C160.972,193.75 161.058,193.676 161.137,193.603 C161.296,193.458 161.414,193.331 161.499,193.189 C161.521,193.153 161.551,193.06 161.569,192.891 C161.586,192.729 161.59,192.526 161.584,192.294 C161.571,191.829 161.516,191.268 161.447,190.722 C161.378,190.177 161.297,189.652 161.232,189.264 C161.206,189.105 161.182,188.969 161.164,188.864 L157.173,189.503 Z" id="Path" stroke="#00402A" stroke-width="0.5" fill="#FFFEFF" fill-rule="nonzero" stroke-linejoin="round"></path>
            <path d="M157.173,189.122 C157.167,189.128 157.16,189.133 157.153,189.14 C157.107,189.185 157.04,189.253 156.954,189.343 C156.782,189.523 156.542,189.782 156.254,190.096 C155.678,190.725 154.916,191.573 154.14,192.445 C152.581,194.197 150.988,196.027 150.718,196.407 C150.644,196.51 150.543,196.639 150.44,196.773 C150.335,196.91 150.222,197.06 150.116,197.217 C149.899,197.539 149.732,197.86 149.697,198.133 C149.68,198.264 149.695,198.374 149.74,198.467 C149.785,198.56 149.87,198.657 150.029,198.747 C150.36,198.934 150.975,199.07 152.046,199.055 C154.179,199.025 155.672,198.594 156.755,197.961 C157.836,197.33 158.53,196.486 159.049,195.601 C159.589,194.678 160.104,193.964 160.535,193.396 C160.972,192.818 161.301,192.416 161.499,192.087 C161.523,192.047 161.552,191.962 161.569,191.817 C161.586,191.677 161.59,191.504 161.584,191.307 C161.571,190.912 161.517,190.442 161.448,189.987 C161.38,189.533 161.298,189.099 161.234,188.779 C161.211,188.664 161.19,188.564 161.173,188.483 L157.173,189.122 Z" id="Path" stroke="#00402A" stroke-width="0.5" fill="#3A3735" fill-rule="nonzero" stroke-linejoin="round"></path>
            <path d="M141.225,123.152 C141.17,123.388 141.09,123.734 140.997,124.174 C140.809,125.054 140.563,126.308 140.329,127.798 C139.86,130.782 139.438,134.708 139.624,138.495 C139.809,142.279 140.956,147.333 142.052,151.774 C142.598,153.988 143.132,156.053 143.522,157.715 C143.718,158.547 143.878,159.282 143.987,159.89 C144.095,160.492 144.156,160.988 144.143,161.329 C144.097,162.568 144.285,167.54 144.485,172.22 C144.585,174.556 144.688,176.814 144.766,178.488 C144.805,179.325 144.838,180.016 144.861,180.497 C144.873,180.738 144.881,180.927 144.887,181.055 C144.888,181.072 144.89,181.087 144.89,181.102 C144.956,181.132 145.044,181.173 145.152,181.216 C145.402,181.316 145.754,181.439 146.161,181.529 C146.982,181.71 147.992,181.75 148.854,181.254 L150.638,180.229 C150.639,180.227 150.639,180.225 150.639,180.223 C150.655,180.146 150.677,180.032 150.705,179.886 C150.762,179.593 150.843,179.169 150.94,178.646 C151.135,177.6 151.397,176.158 151.661,174.576 C152.19,171.404 152.728,167.685 152.774,165.44 C152.82,163.206 152.379,160.824 151.91,158.844 C151.676,157.855 151.435,156.971 151.247,156.255 C151.062,155.553 150.918,154.988 150.892,154.666 C150.885,154.57 150.894,154.377 150.913,154.127 C150.932,153.868 150.963,153.524 151.004,153.11 C151.085,152.28 151.206,151.161 151.353,149.852 C151.649,147.233 152.051,143.852 152.457,140.509 C152.862,137.166 153.271,133.86 153.578,131.389 C153.731,130.154 153.859,129.127 153.949,128.41 C153.994,128.051 154.029,127.769 154.053,127.578 C154.058,127.544 154.062,127.512 154.065,127.484 L141.248,123.061 C141.241,123.089 141.233,123.119 141.225,123.152 Z" id="Path" stroke="#00402A" stroke-width="0.5" fill="#89837E" fill-rule="nonzero" stroke-linejoin="round"></path>
            <path d="M145.711,93.0039 C145.11,92.8617 144.148,93.0708 143.317,93.6562 C142.549,94.1977 141.926,95.0378 141.826,96.1514 L141.813,96.3779 C141.783,97.7009 141.768,98.8756 141.761,99.7197 C141.757,100.142 141.756,100.482 141.755,100.716 C141.755,100.748 141.755,100.778 141.755,100.806 C141.877,100.795 142.037,100.782 142.224,100.763 C142.669,100.715 143.263,100.639 143.86,100.523 C144.461,100.407 145.052,100.254 145.5,100.057 C145.724,99.9579 145.9,99.8538 146.022,99.7461 C146.144,99.6386 146.196,99.5417 146.209,99.458 C146.3,98.8552 146.197,97.7367 146.063,96.7363 C145.998,96.243 145.927,95.7885 145.871,95.458 C145.843,95.2931 145.819,95.1591 145.803,95.0664 C145.794,95.02 145.788,94.9833 145.783,94.959 C145.781,94.9471 145.779,94.9377 145.778,94.9316 C145.778,94.9287 145.778,94.9263 145.777,94.9248 L145.776,94.9229 C145.768,94.8763 145.773,94.8287 145.79,94.7852 L145.811,94.7432 L145.812,94.7402 C145.814,94.7376 145.817,94.7333 145.82,94.7275 C145.827,94.716 145.838,94.6985 145.851,94.6758 C145.877,94.63 145.913,94.5633 145.952,94.4824 C146.032,94.3188 146.121,94.1045 146.17,93.8867 C146.22,93.6645 146.22,93.47 146.16,93.3252 C146.107,93.1977 145.992,93.0704 145.711,93.0039 Z" id="Path" stroke="#00402A" stroke-width="0.5" fill="#00A443" fill-rule="nonzero" stroke-linejoin="round"></path>
            <path d="M147.098,128.039 C147.105,128.128 147.115,128.256 147.129,128.418 C147.159,128.761 147.204,129.259 147.266,129.879 C147.39,131.12 147.58,132.851 147.847,134.811 C148.382,138.735 149.22,143.561 150.437,147.212 C151.668,150.904 152.376,154.558 152.94,157.543 C153.222,159.038 153.469,160.36 153.725,161.442 C153.983,162.53 154.245,163.341 154.55,163.832 C155.241,164.944 155.596,166.694 155.796,168.741 C155.998,170.799 156.046,173.206 156.096,175.659 C156.146,178.119 156.147,181.702 156.134,184.669 C156.128,186.153 156.119,187.483 156.111,188.443 C156.107,188.922 156.104,189.309 156.101,189.576 C156.1,189.71 156.099,189.813 156.098,189.883 C156.098,189.888 156.098,189.894 156.098,189.899 C156.122,189.925 156.153,189.961 156.196,189.998 C156.3,190.09 156.464,190.203 156.691,190.278 C157.136,190.426 157.884,190.448 159.015,189.773 L161.266,188.424 C161.27,188.403 161.273,188.379 161.277,188.353 C161.297,188.231 161.327,188.052 161.364,187.823 C161.438,187.365 161.543,186.706 161.669,185.901 C161.922,184.292 162.258,182.103 162.587,179.781 C162.917,177.46 163.24,175.007 163.469,172.871 C163.699,170.73 163.832,168.924 163.787,167.886 C163.696,165.83 162.928,164.615 162.2,163.076 C161.468,161.53 160.82,159.722 161.057,156.563 C161.291,153.449 162.047,149.075 162.609,144.57 C163.174,140.047 163.547,135.372 163.035,131.593 C162.524,127.827 161.085,125.158 159.778,123.433 C159.124,122.57 158.503,121.943 158.047,121.532 C157.819,121.327 157.633,121.176 157.504,121.077 C157.483,121.06 157.462,121.045 157.444,121.031 L147.098,128.039 Z" id="Path" stroke="#00402A" stroke-width="0.5" fill="#B0A9A3" fill-rule="nonzero" stroke-linejoin="round"></path>
            <path d="M148.502,93.0203 C147.821,92.9888 147.151,92.9977 146.646,93.0867 C146.392,93.1314 146.198,93.1934 146.069,93.2683 C145.942,93.3416 145.903,93.4102 145.895,93.4666 C145.877,93.5785 145.826,93.7203 145.761,93.8728 C145.693,94.0315 145.601,94.2229 145.49,94.4402 C145.269,94.8752 144.964,95.4278 144.609,96.0583 C143.897,97.323 142.979,98.9052 142.086,100.527 C141.194,102.149 140.332,103.799 139.738,105.188 C139.44,105.883 139.213,106.507 139.08,107.025 C138.945,107.554 138.92,107.933 138.987,108.163 C139.314,109.298 140.158,110.389 140.948,111.377 C141.336,111.862 141.714,112.326 141.989,112.743 C142.256,113.149 142.466,113.566 142.447,113.951 C142.417,114.538 142.402,115.88 142.395,117.082 C142.391,117.681 142.389,118.244 142.388,118.657 C142.387,118.863 142.387,119.032 142.387,119.149 L142.387,119.332 C142.387,119.371 142.378,119.411 142.36,119.446 L142.359,119.447 C142.358,119.448 142.357,119.45 142.356,119.453 C142.353,119.458 142.349,119.465 142.344,119.475 C142.334,119.495 142.319,119.525 142.3,119.563 C142.262,119.639 142.206,119.749 142.138,119.885 C142.002,120.158 141.816,120.535 141.616,120.953 C141.266,121.688 140.878,122.539 140.643,123.172 L140.552,123.428 C140.339,124.064 140.232,124.689 140.178,125.156 C140.151,125.389 140.138,125.581 140.131,125.715 C140.13,125.743 140.129,125.769 140.128,125.792 C140.174,125.824 140.235,125.866 140.31,125.917 C140.499,126.045 140.778,126.227 141.133,126.442 C141.843,126.872 142.857,127.433 144.068,127.957 C146.495,129.007 149.688,129.895 152.817,129.311 C155.972,128.722 157.942,127.514 159.118,126.466 C159.707,125.941 160.099,125.454 160.343,125.101 C160.465,124.925 160.55,124.782 160.604,124.685 C160.606,124.681 160.609,124.676 160.612,124.672 C160.593,124.648 160.571,124.621 160.548,124.592 C160.446,124.459 160.302,124.268 160.13,124.034 C159.786,123.565 159.33,122.922 158.886,122.224 C158.442,121.528 158.006,120.771 157.703,120.076 C157.552,119.729 157.431,119.391 157.361,119.08 C157.291,118.772 157.267,118.472 157.324,118.21 C157.425,117.754 157.719,117.051 158.096,116.254 C158.477,115.449 158.953,114.523 159.432,113.613 C159.913,112.698 160.391,111.808 160.786,111.052 C161.183,110.296 161.481,109.703 161.6,109.391 C161.649,109.261 161.692,109.031 161.721,108.705 C161.749,108.385 161.763,107.992 161.763,107.547 C161.763,106.656 161.708,105.569 161.615,104.468 C161.521,103.367 161.387,102.256 161.232,101.317 C161.074,100.369 160.898,99.6206 160.724,99.2292 C160.649,99.0622 160.486,98.8537 160.229,98.6091 C159.975,98.3679 159.645,98.1061 159.256,97.8308 C158.479,97.2802 157.487,96.6872 156.448,96.1072 C155.411,95.5277 154.332,94.9637 153.384,94.4705 C152.482,94.0012 151.693,93.5922 151.175,93.2976 C151.165,93.2961 151.152,93.2943 151.135,93.2917 C151.096,93.2857 151.039,93.277 150.966,93.2664 C150.82,93.2449 150.61,93.2156 150.358,93.1843 C149.853,93.1218 149.18,93.0516 148.502,93.0203 Z" id="Path" stroke="#00402A" stroke-width="0.5" fill="#FFFEFF" fill-rule="nonzero" stroke-linejoin="round"></path>
            <path d="M157.261,76.1321 C156.547,75.6784 155.23,75.3871 153.597,75.5442 C151.974,75.7005 150.062,76.2985 148.172,77.5891 C146.286,78.8767 145.845,79.9918 145.822,80.7356 C145.811,81.114 145.906,81.4187 146.004,81.6282 C146.053,81.7329 146.102,81.8136 146.137,81.8665 C146.155,81.8928 146.17,81.9121 146.179,81.9241 L148.16,83.6575 C148.185,83.6727 148.208,83.692 148.227,83.7161 L152.746,89.4553 C152.756,89.4677 152.764,89.4814 152.771,89.4954 L152.789,89.5383 L152.789,89.5393 C152.789,89.5398 152.789,89.5411 152.79,89.5422 C152.79,89.5445 152.791,89.5477 152.793,89.552 C152.795,89.561 152.8,89.5744 152.805,89.592 C152.816,89.6276 152.832,89.6802 152.853,89.7473 C152.896,89.8815 152.958,90.0742 153.037,90.3079 C153.194,90.7757 153.417,91.406 153.68,92.0569 C153.945,92.709 154.247,93.3762 154.562,93.9202 C154.72,94.192 154.878,94.4286 155.033,94.6155 C155.19,94.8046 155.333,94.9305 155.457,94.9963 C155.736,95.1444 156.207,95.2314 156.792,95.2659 C157.367,95.2997 158.018,95.2814 158.635,95.2405 C159.25,95.1996 159.826,95.1367 160.248,95.0842 C160.317,95.0756 160.382,95.0658 160.442,95.0579 C160.299,94.906 160.124,94.714 159.946,94.4895 C159.509,93.9385 159.018,93.1726 158.89,92.3801 C158.854,92.1514 158.886,91.8552 158.952,91.5315 C159.019,91.2009 159.126,90.8132 159.259,90.3879 C159.523,89.5385 159.894,88.5115 160.26,87.4553 C160.627,86.3944 160.99,85.2985 161.244,84.2942 C161.499,83.2841 161.637,82.393 161.571,81.7327 C161.439,80.4014 160.765,79.5267 160.119,78.9807 C159.795,78.7071 159.478,78.5171 159.244,78.3958 C159.127,78.3354 159.031,78.2925 158.966,78.2649 C158.933,78.2511 158.907,78.2409 158.89,78.2346 C158.882,78.2316 158.877,78.2291 158.873,78.2278 L158.869,78.2268 L158.868,78.2258 C158.768,78.1909 158.7,78.0967 158.7,77.9905 L158.7,77.9895 C158.7,77.9854 158.699,77.9774 158.698,77.9661 C158.696,77.9431 158.692,77.9056 158.681,77.8567 C158.661,77.7589 158.619,77.613 158.532,77.4368 C158.359,77.0862 158.002,76.6026 157.261,76.1321 Z" id="Path" stroke="#00402A" stroke-width="0.5" fill="#3A3735" fill-rule="nonzero" stroke-linejoin="round"></path>
            <path d="M147.146,91.2836 C147.178,91.3989 147.221,91.5519 147.271,91.7347 C147.387,92.1628 147.542,92.7554 147.696,93.4135 C148,94.7206 148.308,96.3179 148.287,97.391 C148.268,98.3993 148.5,98.9621 148.907,99.2611 C149.33,99.5708 150.021,99.6592 151.073,99.514 C152.075,99.376 153.1,98.7864 153.941,98.1615 C154.358,97.851 154.723,97.5379 155.009,97.2777 L155.608,96.7113 L155.61,96.7094 C155.8,96.5313 155.974,96.3121 156.055,96.1293 C156.096,96.0371 156.103,95.9785 156.099,95.9496 C156.097,95.9369 156.096,95.9267 156.068,95.9105 C155.799,95.7646 155.556,95.4797 155.356,94.931 C155.157,94.3855 154.991,93.554 154.89,92.2738 C154.82,91.4082 154.988,90.5281 155.168,89.8734 C155.238,89.62 155.313,89.3987 155.376,89.2211 L147.146,91.2836 Z" id="Path" stroke="#00402A" stroke-width="0.5" fill="#E9AB87" fill-rule="nonzero" stroke-linejoin="round"></path>
            <path d="M151.599,81.2653 C151.331,81.3657 150.96,81.5023 150.549,81.6442 C149.734,81.9255 148.737,82.2383 148.073,82.3356 C147.291,82.4502 146.864,81.9238 146.633,81.691 C146.588,81.6451 146.555,81.6153 146.531,81.5963 C146.523,81.6051 146.513,81.6155 146.502,81.6305 C146.456,81.6977 146.398,81.8087 146.326,81.983 C146.322,81.9941 146.314,82.0032 146.308,82.0133 C146.178,82.3282 146.073,82.6136 146.005,82.8473 C145.97,82.9677 145.946,83.0701 145.934,83.153 C145.927,83.196 145.925,83.2298 145.924,83.2555 L145.927,83.3102 L145.928,83.3131 C146.006,83.7584 145.953,84.1033 145.868,84.3912 C145.827,84.531 145.779,84.6589 145.739,84.7672 C145.697,84.8795 145.664,84.9707 145.645,85.0582 C145.604,85.2434 145.581,85.6758 145.57,86.1715 C145.558,86.6561 145.558,87.1709 145.558,87.5016 C145.558,87.8491 145.512,89.0007 145.548,90.1578 C145.566,90.7342 145.604,91.2991 145.676,91.7506 C145.712,91.9767 145.755,92.1672 145.805,92.3131 C145.857,92.4649 145.908,92.5375 145.938,92.5641 C145.983,92.6026 146.072,92.6512 146.221,92.6998 C146.365,92.747 146.547,92.7887 146.759,92.8239 C147.183,92.894 147.709,92.9349 148.262,92.9518 C149.371,92.9857 150.553,92.9209 151.191,92.8082 C151.465,92.7597 151.826,92.5747 152.231,92.2946 C152.628,92.0191 153.042,91.6699 153.42,91.3239 C153.797,90.9785 154.134,90.6399 154.377,90.3873 C154.498,90.2612 154.596,90.1563 154.663,90.0836 C154.697,90.0474 154.722,90.0188 154.74,89.9996 C154.748,89.9902 154.755,89.983 154.759,89.9781 C154.761,89.9757 154.763,89.9735 154.764,89.9723 L154.766,89.9713 C154.812,89.9192 154.879,89.8884 154.948,89.8873 C155.018,89.8863 155.086,89.9147 155.134,89.9655 L155.134,89.9664 C155.137,89.9692 155.143,89.9743 155.151,89.9811 C155.167,89.9949 155.193,90.0155 155.227,90.0367 C155.295,90.0796 155.391,90.1239 155.508,90.1364 C155.721,90.1589 156.102,90.0845 156.586,89.4225 L156.763,89.1598 C157.161,88.5186 157.449,87.6939 157.584,86.9899 C157.662,86.5874 157.685,86.2427 157.658,86.0065 C157.645,85.8868 157.621,85.8152 157.601,85.7799 C157.6,85.779 157.6,85.7778 157.6,85.777 C157.569,85.7792 157.509,85.7889 157.413,85.8239 C157.302,85.8642 157.167,85.9265 157.015,86.0065 C156.71,86.1663 156.355,86.3862 156.014,86.611 C155.674,86.835 155.352,87.061 155.115,87.2311 C154.997,87.316 154.901,87.3876 154.833,87.4371 C154.8,87.4619 154.773,87.4816 154.755,87.4948 C154.747,87.5011 154.74,87.5061 154.736,87.5094 C154.733,87.5111 154.731,87.5125 154.73,87.5133 L154.729,87.5143 C154.621,87.5952 154.468,87.5753 154.383,87.4703 L154.382,87.4684 L154.358,87.4391 C154.341,87.4184 154.318,87.3882 154.287,87.3492 C154.227,87.2712 154.14,87.1573 154.035,87.0162 C153.827,86.7344 153.546,86.34 153.257,85.8903 C152.687,85.0025 152.056,83.8547 151.928,82.9235 C151.808,82.0511 151.749,81.5419 151.72,81.2496 C151.719,81.2398 151.719,81.2297 151.718,81.2203 C151.681,81.2343 151.641,81.2494 151.599,81.2653 Z" id="Path" stroke="#00402A" stroke-width="0.5" fill="#FFC7A6" fill-rule="nonzero" stroke-linejoin="round"></path>
            <path d="M102.507,100.8 L133.139,106.293 L136.323,193.831 C136.323,193.831 131.446,204.739 111.541,207.8 C111.541,207.8 99.5053,199.756 99.3228,187.191 L102.507,100.8 Z" id="Path" stroke="#00402A" stroke-width="0.5" fill="#D8F3FF" fill-rule="nonzero" stroke-linecap="round" stroke-linejoin="round"></path>
            <path d="M111.602,203.489 C131.304,200.422 136.14,189.461 136.14,189.461 L136.171,189.461 L136.323,193.622 C136.323,193.622 131.446,204.694 111.541,207.8 C111.541,207.8 99.5053,199.636 99.3228,186.882 L99.4749,182.8 L99.5053,182.8 C99.6878,195.414 111.612,203.499 111.612,203.499 L111.602,203.489 Z" id="Path" stroke="#00402A" stroke-width="0.5" fill="#00A443" fill-rule="nonzero" stroke-linecap="round" stroke-linejoin="round"></path>
            <path d="M102.323,101.309 C102.323,101.309 115.918,98.3678 132.323,106.623 C132.323,106.623 128.36,115.352 112.233,117.8 C112.233,117.8 102.472,111.357 102.323,101.3 L102.323,101.309 Z" id="Path" stroke="#00402A" stroke-width="0.5" fill="#00A443" fill-rule="nonzero" stroke-linecap="round" stroke-linejoin="round"></path>
            <path d="M102.323,101.309 C102.323,101.309 115.918,98.3678 132.323,106.623 C132.323,106.623 128.36,115.352 112.233,117.8 C112.233,117.8 102.472,111.357 102.323,101.3 L102.323,101.309 Z" id="Path" stroke="#00402A" stroke-width="0.5" fill="#00A443" fill-rule="nonzero" stroke-linecap="round" stroke-linejoin="round"></path>
            <path d="M102.323,97.3392 C102.323,97.3392 115.918,94.2248 132.323,102.965 C132.323,102.965 128.36,112.208 112.233,114.8 C112.233,114.8 102.472,107.978 102.323,97.3291 L102.323,97.3392 Z" id="Path" stroke="#00402A" stroke-width="0.5" fill="#5BD38C" fill-rule="nonzero" stroke-linecap="round" stroke-linejoin="round"></path>
            <path d="M112.283,114.354 C128.251,111.9 132.174,103.132 132.174,103.132 L132.204,103.132 L132.323,106.462 C132.323,106.462 128.37,115.317 112.233,117.8 C112.233,117.8 102.472,111.265 102.323,101.063 L102.442,97.7999 L102.472,97.7999 C102.621,107.896 112.283,114.364 112.283,114.364 L112.283,114.354 Z" id="Path" stroke="#00402A" stroke-width="0.5" fill="#007F33" fill-rule="nonzero" stroke-linecap="round" stroke-linejoin="round"></path>
            <path d="M102.418,100.8 C102.565,111.198 112.224,117.858 112.224,117.858 L112.323,117.839 L111.163,207.8 C111.163,207.8 99.4996,199.756 99.3228,187.191 L102.418,100.8 Z" id="Path" stroke="#00402A" stroke-width="0.5" fill="#D8F3FF" fill-rule="nonzero" opacity="0.3" stroke-linecap="round" stroke-linejoin="round"></path>
            <path d="M102.418,100.8 C102.565,111.198 112.224,117.858 112.224,117.858 L112.323,117.839 L111.163,207.8 C111.163,207.8 99.4996,199.756 99.3228,187.191 L102.418,100.8 Z" id="Path" stroke="#00402A" stroke-width="0.5" stroke-linecap="round" stroke-linejoin="round"></path>
            <path d="M132.83,110.326 C132.83,110.326 128.773,119.406 112.211,121.944 C112.211,121.944 102.189,115.257 102.037,104.801" id="Path" stroke="#00402A" stroke-width="0.5" stroke-linecap="round" stroke-linejoin="round"></path>
            <path d="M132.982,114.817 C132.982,114.817 128.885,123.985 112.151,126.552 C112.151,126.552 102.038,119.796 101.876,109.233" id="Path" stroke="#00402A" stroke-width="0.5" stroke-linecap="round" stroke-linejoin="round"></path>
            <path d="M133.143,119.318 C133.143,119.318 128.995,128.573 112.109,131.17 C112.109,131.17 101.895,124.346 101.734,113.675" id="Path" stroke="#00402A" stroke-width="0.5" stroke-linecap="round" stroke-linejoin="round"></path>
            <path d="M133.295,123.33 C133.295,123.33 129.107,132.683 112.05,135.3 C112.05,135.3 101.725,128.407 101.573,117.629" id="Path" stroke="#00402A" stroke-width="0.5" stroke-linecap="round" stroke-linejoin="round"></path>
            <path d="M133.457,127.812 C133.457,127.812 129.228,137.252 111.999,139.908 C111.999,139.908 101.573,132.947 101.412,122.061" id="Path" stroke="#00402A" stroke-width="0.5" stroke-linecap="round" stroke-linejoin="round"></path>
            <path d="M133.618,132.527 C133.618,132.527 129.349,142.065 111.949,144.74 C111.949,144.74 101.422,137.711 101.261,126.718" id="Path" stroke="#00402A" stroke-width="0.5" stroke-linecap="round" stroke-linejoin="round"></path>
            <path d="M133.78,137.184 C133.78,137.184 129.47,146.82 111.888,149.514 C111.888,149.514 101.25,142.417 101.089,131.316" id="Path" stroke="#00402A" stroke-width="0.5" stroke-linecap="round" stroke-linejoin="round"></path>
            <path d="M133.941,141.557 C133.941,141.557 129.591,151.291 111.828,154.015 C111.828,154.015 101.089,146.839 100.917,135.631" id="Path" stroke="#00402A" stroke-width="0.5" stroke-linecap="round" stroke-linejoin="round"></path>
            <path d="M134.103,146.273 C134.103,146.273 129.702,156.094 111.767,158.857 C111.767,158.857 100.917,151.613 100.756,140.288" id="Path" stroke="#00402A" stroke-width="0.5" stroke-linecap="round" stroke-linejoin="round"></path>
            <path d="M134.273,150.783 C134.273,150.783 129.833,160.712 111.716,163.494 C111.716,163.494 100.755,156.172 100.594,144.74" id="Path" stroke="#00402A" stroke-width="0.5" stroke-linecap="round" stroke-linejoin="round"></path>
            <path d="M134.435,155.655 C134.435,155.655 129.944,165.681 111.656,168.493 C111.656,168.493 100.594,161.103 100.412,149.553" id="Path" stroke="#00402A" stroke-width="0.5" stroke-linecap="round" stroke-linejoin="round"></path>
            <path d="M134.607,160.526 C134.607,160.526 130.075,170.65 111.595,173.491 C111.595,173.491 100.423,166.023 100.251,154.366" id="Path" stroke="#00402A" stroke-width="0.5" stroke-linecap="round" stroke-linejoin="round"></path>
            <path d="M134.779,165.554 C134.779,165.554 130.197,175.776 111.535,178.646 C111.535,178.646 100.251,171.109 100.07,159.326" id="Path" stroke="#00402A" stroke-width="0.5" stroke-linecap="round" stroke-linejoin="round"></path>
            <path d="M134.95,170.709 C134.95,170.709 130.327,181.038 111.484,183.938 C111.484,183.938 100.089,176.323 99.9075,164.422" id="Path" stroke="#00402A" stroke-width="0.5" stroke-linecap="round" stroke-linejoin="round"></path>
            <path d="M135.132,175.551 C135.132,175.551 130.469,185.978 111.424,188.907 C111.424,188.907 99.9082,181.214 99.7366,169.196" id="Path" stroke="#00402A" stroke-width="0.5" stroke-linecap="round" stroke-linejoin="round"></path>
            <path d="M135.303,180.12 C135.303,180.12 130.59,190.654 111.363,193.612 C111.363,193.612 99.7359,185.841 99.5542,173.706" id="Path" stroke="#00402A" stroke-width="0.5" stroke-linecap="round" stroke-linejoin="round"></path>
            <path d="M135.485,184.797 C135.485,184.797 130.722,195.438 111.303,198.425 C111.303,198.425 99.5549,190.576 99.3733,178.324" id="Path" stroke="#00402A" stroke-width="0.5" stroke-linecap="round" stroke-linejoin="round"></path>
            <path d="M125.813998,108.227 C125.813,109.115 126.119,109.797 126.667,110.122 C127.724,110.737 129.159,109.933 130.073,108.856 C131.193,107.538 133.712,104.053 131.097,96.8921 C131.097,100.961 125.813998,104.326 125.813998,108.227 Z" id="Path" stroke="#00402A" stroke-width="0.5" fill="#FF9C1A" fill-rule="nonzero" stroke-linejoin="round"></path>
            <path d="M128.219,102.062 C128.045,101.092 127.767,100.155 127.352,98.9834 C127.352,103.053 122.067998,106.417 122.067998,110.318 C122.067,111.207 122.373,111.888 122.92,112.214 C123.977,112.829 125.423,112.018 126.327,110.948 C124.226,109.566 124.966,106.196 128.219,102.062 Z" id="Path" stroke="#00402A" stroke-width="0.5" fill="#0DA9FF" fill-rule="nonzero" stroke-linejoin="round"></path>
            <path d="M124.474,104.153 C124.3,103.183 124.022,102.247 123.607,101.075 C123.607,105.144 118.323,108.508 118.323,112.41 C118.323,114.411 119.744,114.498 119.744,114.498 C119.524,115.691 119.477,116.824 119.608,117.84 L120.286,117.333 C119.954,116.203 120.158,114.657 120.179,114.505 C121.046,114.417 121.94,113.801 122.582,113.041 C120.478,111.659 121.221,108.288 124.474,104.153 Z" id="Path" stroke="#00402A" stroke-width="0.5" fill="#00A443" fill-rule="nonzero" stroke-linejoin="round"></path>
            <path d="M130.346,100.357 C130.086,100.357 129.807,100.38 129.576,100.455 C129.352,100.528 129.103,100.677 129.043,100.972 C129.022,101.073 129.016,101.181 129.045,101.283 C129.076,101.394 129.143,101.48 129.232,101.538 C129.314,101.591 129.406,101.614 129.484,101.628 C129.565,101.642 129.652,101.647 129.737,101.65 C130.09,101.665 130.508,101.651 130.949,101.838 C131.367,102.014 131.591,102.331 131.713,102.613 C131.774,102.755 131.808,102.886 131.827,102.98 C131.83,102.997 131.833,103.012 131.835,103.026 C131.823,103.034 131.808,103.043 131.79,103.05 C131.721,103.075 131.537,103.104 131.173,102.892 L131.171,102.891 C130.717,102.632 130.048,102.505 129.469,102.474 C129.175,102.458 128.89,102.466 128.653,102.498 C128.535,102.514 128.424,102.537 128.326,102.568 C128.256,102.591 128.182,102.621 128.117,102.662 L128.055,102.707 L128.052,102.709 C127.819,102.91 127.688,103.278 127.912,103.601 C128.118,103.897 128.562,104.048 129.208,104.037 C129.727,104.028 130.247,104.378 130.664,104.786 C130.765,104.885 130.858,104.984 130.939,105.077 C130.871,105.071 130.797,105.066 130.719,105.062 C130.402,105.05 129.866,105.173 129.425,105.328 C129.2,105.407 128.983,105.5 128.815,105.6 C128.732,105.649 128.651,105.706 128.588,105.77 C128.53,105.828 128.454,105.925 128.446,106.055 C128.437,106.208 128.428,106.531 128.724,106.722 C128.859,106.809 129.033,106.849 129.239,106.854 C129.447,106.858 129.707,106.827 130.03,106.753 C130.502,106.646 130.861,106.706 131.118,106.806 C130.825,106.873 130.565,106.988 130.349,107.122 C130.156,107.241 129.994,107.377 129.87,107.507 C129.781,107.601 129.703,107.701 129.65,107.799 L129.607,107.896 L129.605,107.902 C129.582,107.974 129.572,108.053 129.589,108.133 C129.606,108.215 129.646,108.282 129.696,108.332 C129.788,108.425 129.911,108.462 129.992,108.479 C130.081,108.498 130.168,108.503 130.229,108.504 C130.261,108.504 130.288,108.503 130.308,108.502 C130.317,108.502 130.325,108.501 130.331,108.501 L130.341,108.501 L130.342,108.5 C130.373,108.497 130.404,108.489 130.433,108.476 C131.508,107.949 132.138,108.023 132.48,108.174 C132.656,108.251 132.773,108.356 132.845,108.438 C132.877,108.476 132.901,108.51 132.916,108.533 C132.918,108.565 132.922,108.606 132.931,108.652 C132.952,108.765 132.997,108.915 133.092,109.077 C133.285,109.407 133.668,109.751 134.392,109.941 L134.391,109.942 C134.577,109.997 134.723,110.067 134.854,110.152 L136.849,112.76 C136.869,112.787 136.896,112.806 136.925,112.822 L136.927,112.824 C136.941,112.835 136.961,112.85 136.987,112.869 C137.04,112.909 137.117,112.966 137.21,113.036 C137.397,113.177 137.652,113.371 137.925,113.583 C138.476,114.011 139.086,114.501 139.369,114.784 C139.465,114.88 139.665,115.022 139.915,115.187 C140.174,115.357 140.511,115.566 140.898,115.798 C141.674,116.263 142.662,116.826 143.662,117.371 C144.662,117.916 145.677,118.443 146.506,118.835 C146.92,119.031 147.291,119.194 147.593,119.31 C147.743,119.367 147.881,119.414 147.999,119.446 C148.113,119.478 148.225,119.501 148.322,119.501 C148.8,119.501 149.496,119.605 150.552,119.215 C151.6,118.827 152.997,117.96 154.966,116.065 C156.922,114.184 158.293,112.719 159.129,111.412 C159.972,110.094 160.279,108.92 160.09,107.629 C159.904,106.363 159.389,105.464 158.765,104.931 C158.145,104.402 157.401,104.225 156.799,104.459 L156.798,104.459 C156.696,104.499 156.59,104.579 156.493,104.664 C156.39,104.754 156.273,104.87 156.146,105.007 C155.892,105.281 155.582,105.649 155.237,106.077 C154.547,106.934 153.703,108.05 152.851,109.176 C151.997,110.304 151.133,111.442 150.399,112.352 C150.033,112.806 149.7,113.2 149.42,113.506 C149.136,113.816 148.921,114.016 148.784,114.103 C148.749,114.123 148.725,114.133 148.712,114.138 C148.639,114.149 148.49,114.14 148.252,114.084 C148.012,114.028 147.715,113.935 147.375,113.813 C146.696,113.57 145.867,113.22 145.026,112.844 C143.362,112.1 141.618,111.242 140.989,110.979 L140.764,110.87 C140.524,110.74 140.247,110.551 139.952,110.326 C139.563,110.03 139.155,109.681 138.785,109.346 C138.449,109.041 138.144,108.749 137.912,108.522 C137.741,108.301 137.512,108.005 137.243,107.657 C136.641,106.878 135.837,105.839 135.025,104.797 C134.214,103.755 133.396,102.71 132.769,101.921 C132.455,101.527 132.188,101.195 131.993,100.959 C131.896,100.841 131.814,100.745 131.754,100.677 C131.724,100.643 131.697,100.614 131.674,100.591 C131.663,100.58 131.649,100.567 131.636,100.556 C131.63,100.551 131.597,100.521 131.551,100.503 L131.548,100.502 C131.467,100.472 131.287,100.437 131.086,100.41 C130.875,100.382 130.61,100.357 130.346,100.357 Z" id="Path" fill="#FFC7A6" fill-rule="nonzero"></path>
            <path d="M130.346,100.357 L130.346,100.107 L130.346,100.107 L130.346,100.357 Z M129.576,100.455 L129.499,100.217 L129.499,100.217 L129.576,100.455 Z M129.043,100.972 L128.798,100.922 L128.798,100.922 L129.043,100.972 Z M129.045,101.283 L128.804,101.351 L128.804,101.351 L129.045,101.283 Z M129.232,101.538 L129.097,101.748 L129.097,101.748 L129.232,101.538 Z M129.484,101.628 L129.442,101.874 L129.442,101.874 L129.484,101.628 Z M129.737,101.65 L129.727,101.9 L129.727,101.9 L129.737,101.65 Z M130.949,101.838 L131.046,101.608 L131.047,101.608 L130.949,101.838 Z M131.713,102.613 L131.942,102.514 L131.942,102.514 L131.713,102.613 Z M131.827,102.98 L132.072,102.932 L132.072,102.932 L131.827,102.98 Z M131.835,103.026 L132.081,102.985 C132.098,103.083 132.055,103.181 131.972,103.235 L131.835,103.026 Z M131.79,103.05 L131.876,103.285 L131.876,103.285 L131.79,103.05 Z M131.173,102.892 L131.285,102.668 C131.289,102.67 131.294,102.673 131.299,102.676 L131.173,102.892 Z M131.171,102.891 L131.059,103.115 L131.047,103.108 L131.171,102.891 Z M129.469,102.474 L129.482,102.224 L129.482,102.224 L129.469,102.474 Z M128.653,102.498 L128.619,102.25 L128.62,102.25 L128.653,102.498 Z M128.326,102.568 L128.25,102.33 L128.25,102.33 L128.326,102.568 Z M128.117,102.662 L127.971,102.459 C127.975,102.456 127.979,102.454 127.983,102.451 L128.117,102.662 Z M128.055,102.707 L128.201,102.91 L128.193,102.915 L128.055,102.707 Z M128.052,102.709 L127.888,102.52 C127.896,102.513 127.904,102.507 127.913,102.501 L128.052,102.709 Z M127.912,103.601 L127.707,103.743 L127.707,103.743 L127.912,103.601 Z M129.208,104.037 L129.204,103.787 L129.204,103.787 L129.208,104.037 Z M130.664,104.786 L130.839,104.607 L130.839,104.607 L130.664,104.786 Z M130.939,105.077 L131.128,104.913 C131.195,104.99 131.209,105.1 131.162,105.191 C131.116,105.282 131.019,105.335 130.917,105.326 L130.939,105.077 Z M130.719,105.062 L130.729,104.813 L130.729,104.813 L130.719,105.062 Z M129.425,105.328 L129.342,105.092 L129.342,105.092 L129.425,105.328 Z M128.815,105.6 L128.688,105.385 L128.688,105.385 L128.815,105.6 Z M128.588,105.77 L128.41,105.594 L128.411,105.593 L128.588,105.77 Z M128.446,106.055 L128.696,106.07 L128.696,106.07 L128.446,106.055 Z M128.724,106.722 L128.588,106.932 L128.588,106.932 L128.724,106.722 Z M129.239,106.854 L129.234,107.103 L129.234,107.103 L129.239,106.854 Z M130.03,106.753 L129.975,106.509 L129.975,106.509 L130.03,106.753 Z M131.118,106.806 L131.209,106.573 C131.311,106.612 131.375,106.714 131.368,106.824 C131.36,106.933 131.281,107.025 131.174,107.049 L131.118,106.806 Z M130.349,107.122 L130.217,106.909 L130.217,106.909 L130.349,107.122 Z M129.87,107.507 L129.689,107.335 L129.689,107.335 L129.87,107.507 Z M129.65,107.799 L129.422,107.698 C129.424,107.692 129.427,107.687 129.43,107.681 L129.65,107.799 Z M129.607,107.896 L129.37,107.817 C129.373,107.81 129.375,107.803 129.379,107.796 L129.607,107.896 Z M129.605,107.902 L129.368,107.825 L129.368,107.823 L129.605,107.902 Z M129.589,108.133 L129.344,108.183 L129.344,108.183 L129.589,108.133 Z M129.696,108.332 L129.519,108.508 L129.519,108.508 L129.696,108.332 Z M129.992,108.479 L129.94,108.724 L129.94,108.724 L129.992,108.479 Z M130.229,108.504 L130.227,108.754 L130.227,108.754 L130.229,108.504 Z M130.308,108.502 L130.297,108.252 L130.297,108.252 L130.308,108.502 Z M130.331,108.501 L130.316,108.251 C130.321,108.251 130.326,108.251 130.331,108.251 L130.331,108.501 Z M130.341,108.501 L130.518,108.678 C130.471,108.725 130.407,108.751 130.341,108.751 L130.341,108.501 Z M130.342,108.5 L130.165,108.323 C130.207,108.281 130.263,108.256 130.322,108.251 L130.342,108.5 Z M130.433,108.476 L130.323,108.251 L130.323,108.251 L130.433,108.476 Z M132.48,108.174 L132.581,107.945 L132.581,107.945 L132.48,108.174 Z M132.845,108.438 L133.034,108.275 L133.034,108.275 L132.845,108.438 Z M132.916,108.533 L133.127,108.399 C133.149,108.434 133.162,108.474 133.165,108.515 L132.916,108.533 Z M132.931,108.652 L132.685,108.698 L132.685,108.698 L132.931,108.652 Z M133.092,109.077 L132.876,109.204 L132.876,109.204 L133.092,109.077 Z M134.392,109.941 L134.455,109.7 C134.542,109.722 134.61,109.79 134.633,109.876 C134.656,109.963 134.632,110.055 134.568,110.118 L134.392,109.941 Z M134.391,109.942 L134.321,110.182 C134.236,110.158 134.17,110.09 134.148,110.004 C134.127,109.919 134.151,109.828 134.214,109.766 L134.391,109.942 Z M134.854,110.152 L134.991,109.943 C135.014,109.959 135.035,109.978 135.052,110 L134.854,110.152 Z M136.849,112.76 L136.65,112.912 L136.65,112.912 L136.849,112.76 Z M136.925,112.822 L137.048,112.605 C137.068,112.616 137.086,112.63 137.102,112.645 L136.925,112.822 Z M136.927,112.824 L136.778,113.025 C136.768,113.018 136.759,113.01 136.75,113.001 L136.927,112.824 Z M136.987,112.869 L137.137,112.669 L137.137,112.669 L136.987,112.869 Z M137.21,113.036 L137.36,112.837 L137.36,112.837 L137.21,113.036 Z M137.925,113.583 L138.078,113.386 L138.078,113.386 L137.925,113.583 Z M139.369,114.784 L139.546,114.607 L139.546,114.607 L139.369,114.784 Z M139.915,115.187 L139.778,115.396 L139.778,115.396 L139.915,115.187 Z M140.898,115.798 L140.77,116.012 L140.77,116.012 L140.898,115.798 Z M143.662,117.371 L143.543,117.591 L143.543,117.591 L143.662,117.371 Z M146.506,118.835 L146.399,119.061 L146.399,119.061 L146.506,118.835 Z M147.593,119.31 L147.504,119.543 L147.504,119.543 L147.593,119.31 Z M147.999,119.446 L147.932,119.687 L147.932,119.687 L147.999,119.446 Z M148.322,119.501 L148.322,119.751 L148.322,119.751 L148.322,119.501 Z M150.552,119.215 L150.638,119.449 L150.638,119.449 L150.552,119.215 Z M154.966,116.065 L155.139,116.246 L155.139,116.246 L154.966,116.065 Z M159.129,111.412 L159.34,111.547 L159.34,111.547 L159.129,111.412 Z M160.09,107.629 L160.337,107.593 L160.337,107.593 L160.09,107.629 Z M158.765,104.931 L158.927,104.741 L158.927,104.741 L158.765,104.931 Z M156.799,104.459 L156.889,104.692 C156.861,104.703 156.83,104.709 156.799,104.709 L156.799,104.459 Z M156.798,104.459 L156.706,104.226 C156.735,104.215 156.767,104.209 156.798,104.209 L156.798,104.459 Z M156.493,104.664 L156.329,104.476 L156.329,104.476 L156.493,104.664 Z M156.146,105.007 L155.964,104.836 L155.964,104.836 L156.146,105.007 Z M155.237,106.077 L155.043,105.92 L155.043,105.92 L155.237,106.077 Z M152.851,109.176 L153.05,109.327 L153.05,109.327 L152.851,109.176 Z M150.399,112.352 L150.594,112.509 L150.594,112.509 L150.399,112.352 Z M149.42,113.506 L149.604,113.675 L149.604,113.675 L149.42,113.506 Z M148.784,114.103 L148.918,114.314 L148.909,114.319 L148.784,114.103 Z M148.712,114.138 L148.802,114.371 C148.785,114.377 148.767,114.382 148.749,114.385 L148.712,114.138 Z M148.252,114.084 L148.195,114.327 L148.195,114.327 L148.252,114.084 Z M147.375,113.813 L147.291,114.049 L147.291,114.049 L147.375,113.813 Z M145.026,112.844 L144.924,113.072 L144.924,113.072 L145.026,112.844 Z M140.989,110.979 L140.893,111.211 L140.88,111.204 L140.989,110.979 Z M140.764,110.87 L140.654,111.095 L140.644,111.09 L140.764,110.87 Z M139.952,110.326 L139.801,110.525 L139.801,110.525 L139.952,110.326 Z M138.785,109.346 L138.617,109.531 L138.617,109.531 L138.785,109.346 Z M137.912,108.522 L137.737,108.701 C137.729,108.693 137.721,108.684 137.714,108.675 L137.912,108.522 Z M137.243,107.657 L137.441,107.504 L137.441,107.504 L137.243,107.657 Z M135.025,104.797 L135.223,104.643 L135.223,104.643 L135.025,104.797 Z M132.769,101.921 L132.964,101.765 L132.964,101.765 L132.769,101.921 Z M131.993,100.959 L132.186,100.8 L132.186,100.8 L131.993,100.959 Z M131.754,100.677 L131.941,100.511 L131.941,100.511 L131.754,100.677 Z M131.674,100.591 L131.851,100.414 L131.851,100.414 L131.674,100.591 Z M131.636,100.556 L131.474,100.746 L131.474,100.746 L131.636,100.556 Z M131.551,100.503 L131.63,100.265 L131.642,100.27 L131.551,100.503 Z M131.548,100.502 L131.469,100.739 L131.461,100.736 L131.548,100.502 Z M131.086,100.41 L131.119,100.162 L131.119,100.162 L131.086,100.41 Z M130.346,100.357 L130.346,100.607 C130.095,100.607 129.847,100.63 129.654,100.693 L129.576,100.455 L129.499,100.217 C129.766,100.13 130.076,100.107 130.346,100.107 L130.346,100.357 Z M129.576,100.455 L129.654,100.693 C129.459,100.756 129.321,100.861 129.288,101.022 L129.043,100.972 L128.798,100.922 C128.885,100.493 129.245,100.3 129.499,100.217 L129.576,100.455 Z M129.043,100.972 L129.288,101.021 C129.272,101.102 129.271,101.165 129.286,101.215 L129.045,101.283 L128.804,101.351 C128.761,101.196 128.773,101.045 128.798,100.922 L129.043,100.972 Z M129.045,101.283 L129.286,101.215 C129.3,101.266 129.329,101.303 129.368,101.328 L129.232,101.538 L129.097,101.748 C128.958,101.658 128.853,101.523 128.804,101.351 L129.045,101.283 Z M129.232,101.538 L129.368,101.328 C129.408,101.354 129.461,101.37 129.526,101.381 L129.484,101.628 L129.442,101.874 C129.35,101.859 129.22,101.827 129.097,101.748 L129.232,101.538 Z M129.484,101.628 L129.526,101.381 C129.59,101.392 129.664,101.397 129.747,101.401 L129.737,101.65 L129.727,101.9 C129.64,101.897 129.539,101.891 129.442,101.874 L129.484,101.628 Z M129.737,101.65 L129.747,101.401 C130.08,101.414 130.553,101.399 131.046,101.608 L130.949,101.838 L130.852,102.068 C130.462,101.904 130.1,101.915 129.727,101.9 L129.737,101.65 Z M130.949,101.838 L131.047,101.608 C131.54,101.816 131.803,102.191 131.942,102.514 L131.713,102.613 L131.483,102.712 C131.379,102.47 131.194,102.213 130.852,102.068 L130.949,101.838 Z M131.713,102.613 L131.942,102.514 C132.012,102.675 132.051,102.824 132.072,102.932 L131.827,102.98 L131.582,103.029 C131.566,102.948 131.536,102.834 131.483,102.712 L131.713,102.613 Z M131.827,102.98 L132.072,102.932 C132.076,102.953 132.081,102.979 132.081,102.985 L131.835,103.026 L131.588,103.068 C131.585,103.045 131.584,103.041 131.582,103.029 L131.827,102.98 Z M131.835,103.026 L131.972,103.235 C131.953,103.248 131.92,103.268 131.876,103.285 L131.79,103.05 L131.704,102.815 C131.696,102.818 131.692,102.821 131.698,102.817 L131.835,103.026 Z M131.79,103.05 L131.876,103.285 C131.714,103.343 131.451,103.343 131.047,103.108 L131.173,102.892 L131.299,102.676 C131.623,102.865 131.728,102.806 131.704,102.815 L131.79,103.05 Z M131.173,102.892 L131.061,103.115 L131.059,103.114 L131.171,102.891 L131.283,102.667 L131.285,102.668 L131.173,102.892 Z M131.171,102.891 L131.047,103.108 C130.643,102.877 130.019,102.754 129.455,102.723 L129.469,102.474 L129.482,102.224 C130.078,102.256 130.792,102.387 131.295,102.673 L131.171,102.891 Z M129.469,102.474 L129.455,102.723 C129.173,102.708 128.905,102.716 128.687,102.746 L128.653,102.498 L128.62,102.25 C128.876,102.215 129.177,102.208 129.482,102.224 L129.469,102.474 Z M128.653,102.498 L128.687,102.746 C128.579,102.761 128.482,102.781 128.402,102.807 L128.326,102.568 L128.25,102.33 C128.365,102.294 128.491,102.268 128.619,102.25 L128.653,102.498 Z M128.326,102.568 L128.402,102.807 C128.344,102.825 128.292,102.847 128.251,102.873 L128.117,102.662 L127.983,102.451 C128.072,102.394 128.168,102.357 128.25,102.33 L128.326,102.568 Z M128.117,102.662 L128.263,102.865 L128.201,102.91 L128.055,102.707 L127.909,102.504 L127.971,102.459 L128.117,102.662 Z M128.055,102.707 L128.193,102.915 L128.19,102.917 L128.052,102.709 L127.913,102.501 L127.916,102.499 L128.055,102.707 Z M128.052,102.709 L128.216,102.898 C128.049,103.043 127.987,103.271 128.117,103.458 L127.912,103.601 L127.707,103.743 C127.388,103.285 127.59,102.778 127.888,102.52 L128.052,102.709 Z M127.912,103.601 L128.117,103.458 C128.249,103.647 128.578,103.798 129.204,103.787 L129.208,104.037 L129.212,104.287 C128.546,104.299 127.988,104.148 127.707,103.743 L127.912,103.601 Z M129.208,104.037 L129.204,103.787 C129.829,103.776 130.412,104.19 130.839,104.607 L130.664,104.786 L130.489,104.965 C130.081,104.566 129.625,104.28 129.212,104.287 L129.208,104.037 Z M130.664,104.786 L130.839,104.607 C130.945,104.711 131.042,104.814 131.128,104.913 L130.939,105.077 L130.751,105.241 C130.674,105.153 130.586,105.059 130.489,104.965 L130.664,104.786 Z M130.939,105.077 L130.917,105.326 C130.852,105.32 130.782,105.315 130.708,105.312 L130.719,105.062 L130.729,104.813 C130.812,104.816 130.89,104.822 130.962,104.828 L130.939,105.077 Z M130.719,105.062 L130.709,105.312 C130.441,105.301 129.942,105.412 129.508,105.564 L129.425,105.328 L129.342,105.092 C129.79,104.935 130.363,104.798 130.729,104.813 L130.719,105.062 Z M129.425,105.328 L129.508,105.564 C129.291,105.64 129.091,105.727 128.943,105.815 L128.815,105.6 L128.688,105.385 C128.875,105.274 129.109,105.174 129.342,105.092 L129.425,105.328 Z M128.815,105.6 L128.943,105.815 C128.869,105.859 128.808,105.903 128.765,105.946 L128.588,105.77 L128.411,105.593 C128.495,105.508 128.596,105.439 128.688,105.385 L128.815,105.6 Z M128.588,105.77 L128.765,105.946 C128.723,105.989 128.698,106.03 128.696,106.07 L128.446,106.055 L128.197,106.04 C128.21,105.819 128.336,105.668 128.41,105.594 L128.588,105.77 Z M128.446,106.055 L128.696,106.07 C128.686,106.225 128.694,106.405 128.859,106.512 L128.724,106.722 L128.588,106.932 C128.163,106.657 128.187,106.192 128.197,106.039 L128.446,106.055 Z M128.724,106.722 L128.859,106.512 C128.942,106.565 129.064,106.6 129.244,106.604 L129.239,106.854 L129.234,107.103 C129.001,107.099 128.776,107.053 128.588,106.932 L128.724,106.722 Z M129.239,106.854 L129.244,106.604 C129.425,106.607 129.663,106.58 129.975,106.509 L130.03,106.753 L130.086,106.997 C129.75,107.073 129.469,107.108 129.234,107.103 L129.239,106.854 Z M130.03,106.753 L129.975,106.509 C130.496,106.391 130.906,106.455 131.209,106.573 L131.118,106.806 L131.028,107.039 C130.816,106.956 130.507,106.901 130.085,106.997 L130.03,106.753 Z M131.118,106.806 L131.174,107.049 C130.91,107.11 130.675,107.214 130.48,107.335 L130.349,107.122 L130.217,106.909 C130.455,106.763 130.741,106.636 131.062,106.562 L131.118,106.806 Z M130.349,107.122 L130.48,107.335 C130.305,107.443 130.16,107.565 130.051,107.679 L129.87,107.507 L129.689,107.335 C129.827,107.189 130.006,107.04 130.217,106.909 L130.349,107.122 Z M129.87,107.507 L130.051,107.679 C129.972,107.763 129.909,107.845 129.871,107.917 L129.65,107.799 L129.43,107.681 C129.496,107.557 129.59,107.438 129.689,107.335 L129.87,107.507 Z M129.65,107.799 L129.879,107.9 L129.836,107.997 L129.607,107.896 L129.379,107.796 L129.422,107.698 L129.65,107.799 Z M129.607,107.896 L129.845,107.976 L129.843,107.981 L129.605,107.902 L129.368,107.823 L129.37,107.817 L129.607,107.896 Z M129.605,107.902 L129.843,107.98 C129.83,108.02 129.828,108.054 129.834,108.082 L129.589,108.133 L129.344,108.183 C129.317,108.051 129.334,107.928 129.368,107.825 L129.605,107.902 Z M129.589,108.133 L129.834,108.082 C129.84,108.112 129.854,108.136 129.874,108.156 L129.696,108.332 L129.519,108.508 C129.438,108.427 129.372,108.318 129.344,108.183 L129.589,108.133 Z M129.696,108.332 L129.874,108.156 C129.914,108.197 129.978,108.221 130.044,108.235 L129.992,108.479 L129.94,108.724 C129.843,108.704 129.663,108.653 129.519,108.508 L129.696,108.332 Z M129.992,108.479 L130.044,108.235 C130.11,108.249 130.18,108.253 130.232,108.254 L130.229,108.504 L130.227,108.754 C130.156,108.753 130.051,108.747 129.94,108.724 L129.992,108.479 Z M130.229,108.504 L130.232,108.254 C130.255,108.254 130.274,108.253 130.297,108.252 L130.308,108.502 L130.318,108.752 C130.302,108.752 130.266,108.754 130.227,108.754 L130.229,108.504 Z M130.308,108.502 L130.297,108.252 C130.303,108.252 130.308,108.252 130.311,108.252 C130.315,108.251 130.316,108.251 130.316,108.251 L130.331,108.501 L130.347,108.75 C130.337,108.751 130.322,108.752 130.318,108.752 L130.308,108.502 Z M130.331,108.501 L130.331,108.251 L130.341,108.251 L130.341,108.501 L130.341,108.751 L130.331,108.751 L130.331,108.501 Z M130.341,108.501 L130.164,108.324 L130.165,108.323 L130.342,108.5 L130.519,108.677 L130.518,108.678 L130.341,108.501 Z M130.342,108.5 L130.322,108.251 L130.323,108.251 L130.433,108.476 L130.543,108.7 C130.484,108.729 130.422,108.744 130.362,108.749 L130.342,108.5 Z M130.433,108.476 L130.323,108.251 C131.441,107.703 132.151,107.755 132.581,107.945 L132.48,108.174 L132.38,108.403 C132.125,108.29 131.574,108.194 130.543,108.7 L130.433,108.476 Z M132.48,108.174 L132.581,107.945 C132.796,108.04 132.942,108.169 133.034,108.275 L132.845,108.438 L132.656,108.602 C132.604,108.543 132.516,108.463 132.379,108.403 L132.48,108.174 Z M132.845,108.438 L133.034,108.275 C133.075,108.323 133.106,108.366 133.127,108.399 L132.916,108.533 L132.705,108.667 C132.696,108.653 132.68,108.63 132.656,108.602 L132.845,108.438 Z M132.916,108.533 L133.165,108.515 C133.167,108.544 133.17,108.573 133.176,108.606 L132.931,108.652 L132.685,108.698 C132.674,108.638 132.669,108.587 132.667,108.552 L132.916,108.533 Z M132.931,108.652 L133.176,108.606 C133.193,108.695 133.229,108.818 133.307,108.951 L133.092,109.077 L132.876,109.204 C132.764,109.013 132.71,108.834 132.685,108.698 L132.931,108.652 Z M133.092,109.077 L133.307,108.951 C133.463,109.216 133.786,109.524 134.455,109.7 L134.392,109.941 L134.328,110.183 C133.55,109.978 133.108,109.598 132.876,109.204 L133.092,109.077 Z M134.392,109.941 L134.568,110.118 L134.567,110.119 L134.391,109.942 L134.214,109.766 L134.215,109.765 L134.392,109.941 Z M134.391,109.942 L134.461,109.702 C134.67,109.764 134.839,109.844 134.991,109.943 L134.854,110.152 L134.716,110.361 C134.607,110.29 134.483,110.23 134.321,110.182 L134.391,109.942 Z M134.854,110.152 L135.052,110 L137.047,112.608 L136.849,112.76 L136.65,112.912 L134.655,110.304 L134.854,110.152 Z M136.849,112.76 L137.047,112.607 C137.043,112.602 137.04,112.6 137.039,112.599 C137.039,112.599 137.041,112.601 137.048,112.605 L136.925,112.822 L136.802,113.04 C136.758,113.015 136.7,112.976 136.65,112.912 L136.849,112.76 Z M136.925,112.822 L137.102,112.645 L137.104,112.647 L136.927,112.824 L136.75,113.001 L136.748,112.999 L136.925,112.822 Z M136.927,112.824 L137.076,112.624 C137.087,112.632 137.111,112.65 137.137,112.669 L136.987,112.869 L136.838,113.069 C136.811,113.05 136.794,113.037 136.778,113.025 L136.927,112.824 Z M136.987,112.869 L137.137,112.669 C137.19,112.708 137.267,112.766 137.36,112.837 L137.21,113.036 L137.059,113.236 C136.967,113.166 136.89,113.109 136.838,113.069 L136.987,112.869 Z M137.21,113.036 L137.36,112.837 C137.548,112.978 137.804,113.173 138.078,113.386 L137.925,113.583 L137.772,113.781 C137.499,113.569 137.245,113.376 137.059,113.236 L137.21,113.036 Z M137.925,113.583 L138.078,113.386 C138.627,113.811 139.25,114.311 139.546,114.607 L139.369,114.784 L139.192,114.961 C138.923,114.691 138.326,114.211 137.772,113.781 L137.925,113.583 Z M139.369,114.784 L139.546,114.607 C139.62,114.682 139.798,114.81 140.052,114.978 L139.915,115.187 L139.778,115.396 C139.532,115.234 139.309,115.078 139.192,114.961 L139.369,114.784 Z M139.915,115.187 L140.052,114.978 C140.307,115.145 140.641,115.352 141.027,115.583 L140.898,115.798 L140.77,116.012 C140.381,115.779 140.041,115.568 139.778,115.396 L139.915,115.187 Z M140.898,115.798 L141.027,115.583 C141.799,116.046 142.784,116.608 143.782,117.152 L143.662,117.371 L143.543,117.591 C142.54,117.045 141.549,116.479 140.77,116.012 L140.898,115.798 Z M143.662,117.371 L143.782,117.152 C144.779,117.695 145.789,118.22 146.613,118.609 L146.506,118.835 L146.399,119.061 C145.564,118.666 144.544,118.136 143.543,117.591 L143.662,117.371 Z M146.506,118.835 L146.613,118.609 C147.024,118.803 147.389,118.964 147.682,119.076 L147.593,119.31 L147.504,119.543 C147.193,119.425 146.816,119.258 146.399,119.061 L146.506,118.835 Z M147.593,119.31 L147.682,119.076 C147.828,119.132 147.958,119.175 148.066,119.205 L147.999,119.446 L147.932,119.687 C147.805,119.652 147.659,119.602 147.504,119.543 L147.593,119.31 Z M147.999,119.446 L148.066,119.205 C148.173,119.235 148.26,119.251 148.322,119.251 L148.322,119.501 L148.322,119.751 C148.191,119.751 148.052,119.72 147.932,119.687 L147.999,119.446 Z M148.322,119.501 L148.322,119.251 C148.822,119.251 149.462,119.351 150.465,118.98 L150.552,119.215 L150.638,119.449 C149.53,119.859 148.779,119.751 148.322,119.751 L148.322,119.501 Z M150.552,119.215 L150.465,118.98 C151.469,118.609 152.836,117.767 154.792,115.885 L154.966,116.065 L155.139,116.246 C153.158,118.152 151.732,119.045 150.638,119.449 L150.552,119.215 Z M154.966,116.065 L154.792,115.885 C156.748,114.003 158.1,112.557 158.918,111.277 L159.129,111.412 L159.34,111.547 C158.486,112.882 157.095,114.364 155.139,116.246 L154.966,116.065 Z M159.129,111.412 L158.918,111.277 C159.736,109.998 160.021,108.883 159.842,107.665 L160.09,107.629 L160.337,107.593 C160.537,108.956 160.207,110.19 159.34,111.547 L159.129,111.412 Z M160.09,107.629 L159.842,107.665 C159.664,106.447 159.172,105.608 158.602,105.121 L158.765,104.931 L158.927,104.741 C159.606,105.32 160.144,106.278 160.337,107.593 L160.09,107.629 Z M158.765,104.931 L158.602,105.121 C158.032,104.634 157.383,104.5 156.889,104.692 L156.799,104.459 L156.708,104.226 C157.419,103.949 158.258,104.17 158.927,104.741 L158.765,104.931 Z M156.799,104.459 L156.799,104.709 L156.798,104.709 L156.798,104.459 L156.798,104.209 L156.799,104.209 L156.799,104.459 Z M156.798,104.459 L156.889,104.692 C156.83,104.715 156.751,104.77 156.658,104.852 L156.493,104.664 L156.329,104.476 C156.429,104.388 156.562,104.283 156.706,104.226 L156.798,104.459 Z M156.493,104.664 L156.658,104.852 C156.564,104.934 156.453,105.044 156.329,105.177 L156.146,105.007 L155.964,104.836 C156.094,104.697 156.217,104.574 156.329,104.476 L156.493,104.664 Z M156.146,105.007 L156.329,105.177 C156.081,105.444 155.776,105.807 155.432,106.234 L155.237,106.077 L155.043,105.92 C155.388,105.491 155.702,105.117 155.964,104.836 L156.146,105.007 Z M155.237,106.077 L155.432,106.234 C154.745,107.088 153.903,108.2 153.05,109.327 L152.851,109.176 L152.651,109.025 C153.503,107.9 154.35,106.781 155.043,105.92 L155.237,106.077 Z M152.851,109.176 L153.05,109.327 C152.196,110.454 151.33,111.596 150.594,112.509 L150.399,112.352 L150.205,112.195 C150.936,111.289 151.797,110.153 152.651,109.025 L152.851,109.176 Z M150.399,112.352 L150.594,112.509 C150.226,112.965 149.89,113.364 149.604,113.675 L149.42,113.506 L149.236,113.337 C149.511,113.037 149.84,112.647 150.205,112.195 L150.399,112.352 Z M149.42,113.506 L149.604,113.675 C149.32,113.984 149.086,114.207 148.918,114.314 L148.784,114.103 L148.65,113.891 C148.756,113.824 148.951,113.647 149.236,113.337 L149.42,113.506 Z M148.784,114.103 L148.909,114.319 C148.86,114.347 148.824,114.362 148.802,114.371 L148.712,114.138 L148.622,113.905 C148.625,113.903 148.629,113.902 148.634,113.899 C148.639,113.897 148.648,113.893 148.659,113.886 L148.784,114.103 Z M148.712,114.138 L148.749,114.385 C148.627,114.403 148.44,114.385 148.195,114.327 L148.252,114.084 L148.309,113.841 C148.54,113.895 148.65,113.894 148.675,113.891 L148.712,114.138 Z M148.252,114.084 L148.195,114.327 C147.942,114.268 147.635,114.172 147.291,114.049 L147.375,113.813 L147.459,113.578 C147.795,113.698 148.082,113.788 148.309,113.841 L148.252,114.084 Z M147.375,113.813 L147.291,114.049 C146.603,113.802 145.767,113.449 144.924,113.072 L145.026,112.844 L145.128,112.615 C145.968,112.991 146.79,113.338 147.459,113.578 L147.375,113.813 Z M145.026,112.844 L144.924,113.072 C143.239,112.319 141.523,111.474 140.893,111.21 L140.989,110.979 L141.086,110.749 C141.713,111.011 143.484,111.881 145.128,112.615 L145.026,112.844 Z M140.989,110.979 L140.88,111.204 L140.655,111.095 L140.764,110.87 L140.873,110.645 L141.098,110.755 L140.989,110.979 Z M140.764,110.87 L140.644,111.09 C140.389,110.951 140.1,110.753 139.801,110.525 L139.952,110.326 L140.104,110.127 C140.394,110.348 140.66,110.529 140.883,110.651 L140.764,110.87 Z M139.952,110.326 L139.801,110.525 C139.404,110.223 138.991,109.869 138.617,109.531 L138.785,109.346 L138.953,109.16 C139.32,109.492 139.722,109.836 140.104,110.127 L139.952,110.326 Z M138.785,109.346 L138.617,109.531 C138.278,109.224 137.971,108.929 137.737,108.701 L137.912,108.522 L138.087,108.344 C138.318,108.569 138.619,108.859 138.953,109.16 L138.785,109.346 Z M137.912,108.522 L137.714,108.675 C137.544,108.454 137.315,108.159 137.045,107.81 L137.243,107.657 L137.441,107.504 C137.71,107.852 137.939,108.149 138.11,108.37 L137.912,108.522 Z M137.243,107.657 L137.045,107.81 C136.443,107.031 135.639,105.992 134.828,104.95 L135.025,104.797 L135.223,104.643 C136.034,105.685 136.839,106.725 137.441,107.504 L137.243,107.657 Z M135.025,104.797 L134.828,104.95 C134.017,103.909 133.2,102.865 132.573,102.076 L132.769,101.921 L132.964,101.765 C133.593,102.556 134.411,103.601 135.223,104.643 L135.025,104.797 Z M132.769,101.921 L132.573,102.076 C132.26,101.683 131.994,101.352 131.8,101.118 L131.993,100.959 L132.186,100.8 C132.383,101.038 132.651,101.371 132.964,101.765 L132.769,101.921 Z M131.993,100.959 L131.8,101.118 C131.704,101.001 131.625,100.908 131.567,100.843 L131.754,100.677 L131.941,100.511 C132.004,100.582 132.088,100.681 132.186,100.8 L131.993,100.959 Z M131.754,100.677 L131.567,100.843 C131.539,100.811 131.515,100.786 131.497,100.767 L131.674,100.591 L131.851,100.414 C131.878,100.442 131.909,100.475 131.941,100.511 L131.754,100.677 Z M131.674,100.591 L131.497,100.767 C131.49,100.761 131.482,100.753 131.474,100.746 L131.636,100.556 L131.798,100.365 C131.817,100.381 131.835,100.398 131.851,100.414 L131.674,100.591 Z M131.636,100.556 L131.474,100.746 C131.472,100.745 131.471,100.744 131.471,100.744 C131.47,100.743 131.47,100.743 131.47,100.743 C131.469,100.742 131.469,100.742 131.469,100.742 C131.468,100.741 131.467,100.74 131.465,100.739 C131.464,100.738 131.462,100.737 131.461,100.736 C131.46,100.736 131.459,100.736 131.46,100.736 L131.551,100.503 L131.642,100.27 C131.689,100.288 131.726,100.312 131.752,100.33 C131.765,100.339 131.776,100.347 131.785,100.354 C131.792,100.36 131.801,100.368 131.798,100.365 L131.636,100.556 Z M131.551,100.503 L131.472,100.74 L131.469,100.739 L131.548,100.502 L131.627,100.265 L131.63,100.266 L131.551,100.503 Z M131.548,100.502 L131.461,100.736 C131.409,100.717 131.256,100.685 131.052,100.658 L131.086,100.41 L131.119,100.162 C131.318,100.189 131.524,100.227 131.635,100.268 L131.548,100.502 Z M131.086,100.41 L131.052,100.658 C130.849,100.63 130.596,100.607 130.346,100.607 L130.346,100.357 L130.346,100.107 C130.624,100.107 130.9,100.133 131.119,100.162 L131.086,100.41 Z" id="Shape" fill="#00402A" fill-rule="nonzero"></path>
            <path d="M161.094,98.718 C160.452,98.4148 159.674,98.4321 158.822,98.7522 C157.966,99.0741 157.052,99.6972 156.172,100.573 C154.412,102.326 152.818,105.054 152.097,108.257 C152.095,108.266 152.092,108.275 152.089,108.283 C151.403,110.287 152.604,111.967 154.112,113.102 C154.509,113.4 154.772,113.653 154.975,113.859 C155.185,114.072 155.302,114.204 155.434,114.3 C155.647,114.456 155.906,114.523 156.834,114.416 C157.924,113.353 159.278,112.123 160.473,110.817 C161.692,109.483 162.709,108.107 163.093,106.804 C163.488,105.461 163.72,103.995 163.485,102.587 C163.253,101.196 162.564,99.8483 161.094,98.718 Z" id="Path" stroke="#00402A" stroke-width="0.5" fill="#00A443" fill-rule="nonzero" stroke-linejoin="round"></path>
        </g>
    </g>
</svg>