<?xml version="1.0" encoding="UTF-8"?>
<svg width="273px" height="228px" viewBox="0 0 273 228" version="1.1" xmlns="http://www.w3.org/2000/svg" xmlns:xlink="http://www.w3.org/1999/xlink">
    <title>ilustracion</title>
    <g id="Page-1" stroke="none" stroke-width="1" fill="none" fill-rule="evenodd">
        <g id="ilustracion" transform="translate(0, 17)">
            <g id="5" transform="translate(0, -24)">
                <path d="M127.111,178.808 C128.601,179.669 128.618,181.069 127.128,181.929 L106.61,193.849 C105.131,194.71 102.707,194.71 101.217,193.849 L46.2034,162.086 C44.7077,161.22 44.7021,159.826 46.1865,158.965 L66.7043,147.045 C68.1888,146.179 70.601,146.179 72.0966,147.045 L127.111,178.808 Z" id="Path" stroke="#00402A" stroke-width="0.2721" fill-opacity="0.5" fill="#DCEBE1" fill-rule="nonzero" stroke-linejoin="round"></path>
                <path d="M78.7662,166.465 C79.0129,166.626 79.2768,166.752 79.5579,166.849 C80.08,167.027 80.6537,167.09 81.1299,167.377 C81.4455,167.566 81.6979,167.848 81.9274,168.14 C82.2889,168.605 82.6044,169.098 82.9831,169.546 C83.3618,169.988 83.8207,170.384 84.3773,170.573 C84.6756,170.67 85.0084,170.705 85.2952,170.596 L85.3985,170.544 C85.6624,170.395 85.8345,170.125 85.9493,169.844 C86.2017,169.219 86.2361,168.444 85.9149,167.836 C85.6796,167.389 85.2551,167.039 84.7846,166.867 C84.2166,166.666 83.7289,166.299 83.2872,165.903 C83.0233,165.673 82.7708,165.421 82.5585,165.134 C82.3635,164.87 82.2774,164.572 82.1799,164.279 C82.0995,164.055 82.0192,163.837 81.8701,163.636 C81.543,163.195 81.0209,162.902 80.4759,162.85 C79.7989,162.787 79.1047,163.08 78.6514,163.585 C78.2842,163.986 78.072,164.514 78.0261,165.048 C77.9744,165.622 78.2842,166.155 78.7662,166.465 Z" id="Path" stroke="#00402A" stroke-width="0.2721" fill="#3A3735" fill-rule="nonzero"></path>
                <path d="M72.8107,148.283 C72.8795,148.662 72.9656,149.046 73.1721,149.373 C73.4246,149.787 73.8377,150.068 74.2565,150.314 C75.2662,150.911 76.3621,151.353 77.4522,151.789 C78.3472,152.145 79.2479,152.5 80.1487,152.845 C80.7568,153.08 81.692,153.258 81.8355,154.055 C81.8871,154.382 81.6806,154.755 81.5486,155.048 C81.1355,155.96 80.8027,156.901 80.5274,157.865 C80.2692,158.754 80.0569,159.655 79.8618,160.561 C79.7758,160.951 79.4315,162.466 79.3684,162.839 C79.3684,162.873 79.3569,162.908 79.3684,162.936 C79.3799,162.965 79.3856,162.994 79.3971,163.022 C79.5061,163.252 79.7586,163.487 79.9479,163.654 L79.9594,163.665 C80.4929,164.118 81.1757,164.394 81.8756,164.428 C82.0018,164.434 82.1453,164.428 82.2428,164.348 C82.3518,164.262 82.4321,164.101 82.5125,163.992 C82.6502,163.814 86.1557,158.633 87.0507,157.188 C87.6015,156.293 88.1465,155.369 88.3989,154.353 C88.5997,153.55 88.617,152.598 88.2957,151.823 C87.9973,151.1 87.3892,150.544 86.8269,150.022 L84.6926,148.06 C83.528,146.992 82.3633,145.925 81.1986,144.852 C81.1068,144.772 81.0208,144.686 80.929,144.606 C79.8905,143.648 78.9553,142.403 77.4349,142.322 C76.6432,142.282 75.8457,142.512 75.1343,142.873 C74.2909,143.298 73.5278,143.934 73.0975,144.778 C72.5582,145.839 72.6041,147.107 72.8164,148.283 L72.8107,148.283 Z" id="Path" stroke="#00402A" stroke-width="0.2721" fill="#B0A9A3" fill-rule="nonzero"></path>
                <path d="M56.5797,156.281 C56.5797,156.643 56.7461,156.981 56.8035,157.337 C56.8494,157.607 56.8379,157.899 56.9699,158.134 C57.1879,158.53 57.7157,158.622 58.169,158.611 C58.628,158.599 59.0869,158.525 59.523,158.387 C59.741,158.318 59.9647,158.232 60.1311,158.071 C60.2975,157.911 60.395,157.664 60.3205,157.446 C60.2114,157.107 59.7353,156.924 59.7525,156.568 C59.7639,156.275 60.1254,156.115 60.4123,156.161 C60.6991,156.201 60.9573,156.367 61.2442,156.436 C61.2671,156.442 61.2958,156.448 61.3245,156.453 C61.4163,156.465 61.5196,156.465 61.6056,156.43 C61.7031,156.396 61.7892,156.321 61.8638,156.241 C62.0359,156.075 62.1966,155.897 62.3457,155.713 C62.4892,155.541 62.6211,155.358 62.7072,155.151 C62.799,154.944 62.9998,154.617 62.8736,154.394 C62.8277,154.313 62.7531,154.25 62.6785,154.187 C62.317,153.889 61.9613,153.59 61.5999,153.298 C61.1925,152.959 60.8311,152.586 60.5098,152.168 C60.3664,151.984 60.2344,151.789 60.091,151.605 C59.8615,151.307 59.5803,151.089 59.1959,151.049 C58.7714,151.003 58.4386,151.336 58.2952,151.709 C58.1747,152.041 58.1632,152.409 58.1001,152.759 C57.9395,153.602 57.4518,154.336 57.0158,155.071 C56.9986,155.099 56.9813,155.134 56.9641,155.162 C56.7576,155.512 56.574,155.88 56.5797,156.281 Z" id="Path" stroke="#00402A" stroke-width="0.2721" fill="#3A3735" fill-rule="nonzero"></path>
                <path d="M78.3467,131.993 L80.7519,137.804 C81.0501,138.968 82.6905,140.219 84.4174,142.321 C85.4613,143.595 87.9243,142.292 87.0728,140.748 L84.0567,135.384 L82.0748,130.29 C81.1415,128.529 79.5012,127.572 78.3467,128.168 L78.3467,131.993 Z" id="Path" stroke="#00402A" stroke-width="0.2721" fill="#FFF5EC" fill-rule="nonzero" stroke-linejoin="round"></path>
                <path d="M59.7928,155.472 C59.8043,155.541 59.8445,155.599 59.8789,155.656 C60.0682,155.971 60.2576,156.287 60.4354,156.603 C60.5903,156.889 61.5026,158.22 61.6861,158.496 C63.2869,160.928 65.0884,163.298 67.4521,165.008 C68.6742,165.891 70.361,167.113 71.9502,166.522 C72.3174,166.39 72.6387,166.172 72.9083,165.903 C73.4132,165.392 73.7115,164.692 73.6886,163.975 C73.5911,160.865 72.6272,157.853 72.9026,154.715 C73.0977,152.523 74.2566,150.722 75.45,148.938 C75.7196,148.53 75.9893,148.123 76.2417,147.704 C76.8441,146.723 77.3605,145.69 77.5957,144.566 C77.5441,144.807 76.8326,145.065 76.6318,145.128 C76.3048,145.231 75.9147,145.283 75.5647,145.271 C75.2032,145.26 74.8303,145.065 74.4746,144.984 C74.0959,144.898 73.7115,144.835 73.3329,144.766 C71.2961,144.394 69.443,143.103 68.3873,141.318 C67.3661,141.657 66.6317,142.54 65.9547,143.378 C65.0482,144.503 64.3655,145.845 64.1704,147.297 C63.9753,148.742 64.1475,150.234 64.354,151.657 C64.5491,153.005 64.813,154.342 65.1515,155.662 C65.1515,155.673 65.1515,155.679 65.1515,155.69 C65.1343,155.679 65.1228,155.667 65.1056,155.656 C64.8302,155.478 64.5433,155.294 64.2679,155.117 C63.7516,154.79 63.241,154.463 62.7418,154.113 C62.3402,153.837 62.0189,153.39 61.5255,153.269 C61.0264,153.143 60.4871,153.424 60.1887,153.843 C60.0453,154.044 59.9477,154.273 59.8846,154.52 C59.8158,154.772 59.7871,155.042 59.7756,155.306 C59.7756,155.363 59.7756,155.421 59.7871,155.472 L59.7928,155.472 Z" id="Path" stroke="#00402A" stroke-width="0.2721" fill="#D8CFC7" fill-rule="nonzero"></path>
                <path d="M73.1778,124.548 C73.1204,124.605 73.0688,124.663 73.0229,124.732 C72.9081,124.892 72.8278,125.076 72.7647,125.265 C72.7418,125.334 72.7245,125.397 72.7073,125.466 C72.4205,126.619 72.8393,128.077 74.1474,128.312 C75.0539,128.478 76.0522,128.008 76.4423,127.176 C76.6087,126.82 76.6661,126.424 76.6546,126.034 C76.6546,125.799 76.6202,125.558 76.5284,125.34 C76.3907,125.013 76.1669,124.726 75.8973,124.491 C75.6448,124.267 75.335,124.112 75.008,124.032 C74.44,123.9 73.8089,124.032 73.3499,124.399 C73.2868,124.445 73.2294,124.502 73.172,124.554 L73.1778,124.548 Z" id="Path" stroke="#00402A" stroke-width="0.2721" fill="#C66D00" fill-rule="nonzero"></path>
                <path d="M68.4618,136.769 C68.4962,136.901 68.4389,137.113 68.4331,137.251 C68.4217,137.56 68.4102,137.87 68.4044,138.18 C68.393,138.817 68.4044,139.448 68.4159,140.079 C68.4561,141.318 68.5536,142.552 68.7143,143.78 C68.7315,143.929 68.7659,144.072 68.8118,144.21 C69.156,145.323 70.2174,146.132 71.2731,146.602 C71.4108,146.666 71.5427,146.717 71.6747,146.769 C72.5812,147.107 73.5623,147.234 74.5319,147.222 C75.1687,147.216 75.8113,147.153 76.4022,146.912 C77.194,146.591 77.762,145.748 78.2669,145.094 C79.2594,143.797 80.143,142.42 81.1527,141.14 C81.4855,140.716 81.8412,140.303 82.0822,139.821 C82.5182,138.96 82.5469,137.962 82.5412,136.998 C82.524,135.449 82.4436,133.894 82.2887,132.351 C82.2887,132.305 82.2887,132.259 82.2773,132.219 C82.2199,131.64 82.3002,130.607 81.8355,130.222 C81.2904,129.769 80.7167,129.35 80.0684,129.046 C79.2537,128.656 78.3415,128.444 77.4464,128.547 C76.3965,128.668 75.4441,129.195 74.5548,129.758 C72.8623,130.825 71.2731,132.058 69.8158,133.424 C69.4027,133.814 68.9954,134.216 68.6913,134.692 C68.4962,134.996 68.3413,135.334 68.2667,135.696 C68.2323,135.868 68.0602,136.482 68.2667,136.597 C68.4159,136.683 68.4217,136.608 68.4676,136.769 L68.4618,136.769 Z" id="Path" stroke="#00402A" stroke-width="0.2721" fill="#FFFEFF" fill-rule="nonzero"></path>
                <path d="M74.4289,130.326 C74.3658,130.807 74.5838,131.353 74.8305,131.76 C75.278,132.477 75.8689,132.965 76.632,133.269 C76.7238,133.309 76.8156,133.343 76.9131,133.372 C77.3779,133.521031 77.9516,133.567 78.4335,133.47 C78.6286,133.435 78.8294,133.366 78.9786,133.234 C79.2826,132.953 79.1105,132.58 79.0646,132.236 C79.0646,132.225 79.0646,132.213 79.0646,132.202 C79.0417,131.972 79.1277,131.777 79.254,131.594 C79.5064,131.238 79.8793,130.928 79.69,130.452 C79.5752,130.171 79.3458,129.964 79.1277,129.758 C78.577,129.23 78.0549,128.645 77.7565,127.939 C77.4467,127.216 77.3951,126.407 77.1082,125.673 C76.8959,126.137 76.6836,126.608 76.4656,127.073 C76.4312,127.153 76.391,127.227 76.3566,127.308 C76.1673,127.715 75.978,128.122 75.7198,128.49 C75.4444,128.868 75.1001,129.19 74.8133,129.557 C74.6354,129.786 74.4748,130.039 74.4346,130.326 L74.4289,130.326 Z" id="Path" stroke="#00402A" stroke-width="0.2721" fill="#FFCFB3" fill-rule="nonzero"></path>
                <path d="M75.8859,127.417 C75.9777,127.836 76.2416,128.214 76.6031,128.444 C76.7236,128.518 76.8555,128.581 76.9416,128.696 C76.9932,128.777 77.0219,128.868 77.0449,128.966 C77.1367,129.379 77.1711,129.815 77.3719,130.188 C77.6186,130.647 78.0833,130.951 78.5251,131.226 C79.1619,131.622 79.816,132.012 80.5446,132.15 C80.7799,132.196 81.0495,132.202 81.256,132.087 C81.3134,132.064 81.3651,132.024 81.411,131.978 C81.5888,131.789 81.6175,131.485 81.8068,131.312 C81.9617,131.175 82.2084,131.135 82.3002,130.957 C82.3347,130.894 82.3461,130.825 82.3863,130.767 C82.5355,130.572 82.8453,130.762 83.0862,130.727 C83.2641,130.704 83.4018,130.555 83.4592,130.383 C83.5165,130.211 83.4993,130.027 83.4592,129.849 C83.3961,129.534 83.2756,129.213 83.3043,128.886 C83.3674,128.174 84.096,127.692 84.2911,127.004 C84.3485,126.809 84.3542,126.602 84.3657,126.396 C84.3829,125.931 84.4116,125.466 84.4288,125.001 C84.4403,124.657 84.3026,124.422 84.0788,124.164 C83.6141,123.619 82.9141,123.292 82.2084,123.229 C81.388,123.16 80.5561,123.435 79.9135,123.946 C79.5521,124.233 79.2537,124.594 79.0472,125.007 C78.9324,125.237 78.8406,125.483 78.657,125.661 C78.353,125.948 77.8997,125.965 77.4866,126.04 C77.108,126.103 76.735,126.223 76.3908,126.401 C76.2302,126.487 76.0695,126.585 75.972,126.734 C75.84,126.929 75.8343,127.187 75.8859,127.417 Z" id="Path" stroke="#00402A" stroke-width="0.2721" fill="#FFCFB3" fill-rule="nonzero"></path>
                <path d="M75.2777,125.386 C75.2949,125.931 75.3178,126.562 75.5703,127.055 C75.6391,127.205 75.7539,127.325 75.8399,127.463 C75.8743,127.52 75.9719,127.629 75.9719,127.692 C75.9719,127.468 75.9202,127.13 76.035,126.929 C76.1727,126.7 76.4079,126.528 76.6718,126.499 C76.8325,126.482 76.9931,126.516 77.1423,126.562 C77.3144,126.614 77.4751,126.682 77.6185,126.786 C77.8193,126.935 77.957,127.159 78.0717,127.382 C78.1578,127.537 78.2266,127.698 78.2955,127.864 C78.3184,127.927 78.416,128.203 78.3873,128.26 C78.5824,127.864 78.7774,127.451 79.1159,127.159 C79.5061,126.826 80.0339,126.694 80.4642,126.413 C81.0379,126.046 81.4338,125.409 81.5084,124.732 C81.5084,124.755 81.5371,124.783 81.5772,124.806 C81.8125,124.956 82.5583,125.128 82.6673,125.145 C83.1779,125.231 83.8205,125.265 84.2852,124.99 C84.8762,124.651 84.4057,123.492 84.159,123.028 C83.6943,122.161 82.9943,121.502 82.1051,121.094 C81.2158,120.681 80.2347,120.469 79.2536,120.549 C78.5192,120.618 77.8021,120.865 77.1882,121.266 C77.0849,121.335 76.9874,121.404 76.8898,121.484 C76.5513,121.748 76.253,122.07 76.0178,122.437 C75.8571,122.689 75.708,122.913 75.5932,123.194 C75.4957,123.452 75.4211,123.728 75.3695,123.997 C75.2834,124.456 75.2547,124.921 75.2777,125.386 Z" id="Path" stroke="#00402A" stroke-width="0.2721" fill="#C66D00" fill-rule="nonzero"></path>
                <path d="M81.5258,124.743 C81.5258,124.743 81.5143,124.732 81.5085,124.732 C81.5085,124.755 81.5372,124.783 81.5774,124.806 C81.5602,124.783 81.543,124.76 81.5258,124.743 Z" id="Path" fill="#F2EEE3" fill-rule="nonzero"></path>
                <path d="M81.5258,124.743 C81.5258,124.743 81.5143,124.732 81.5085,124.732 C81.5085,124.755 81.5372,124.783 81.5774,124.806 C81.5602,124.783 81.543,124.76 81.5258,124.743 Z" id="Path" stroke="#00402A" stroke-width="0.2721"></path>
                <path d="M68.1529,135.548 C66.9888,138.246 67.4602,143.817 68.1914,145.486 C68.913,147.131 75.8785,149.387 77.4804,148.762 C78.2837,148.035 78.1683,147.458 77.947,146.525 C76.7492,145.265 74.7625,144.115 72.3188,142.98 L72.6796,137.664 C72.1793,133.893 68.99,133.012 68.1481,135.543 L68.1529,135.548 Z" id="Path" stroke="#00402A" stroke-width="0.2721" fill="#FFF5EC" fill-rule="nonzero" stroke-linejoin="round"></path>
                <polygon id="Path" stroke="#00402A" stroke-width="0.2721" fill="#FFF5EC" fill-rule="nonzero" stroke-linejoin="round" points="82.3251 144.736 79.7708 148.868 79.992 149.132 87.1451 145.318 89.9208 141.445 89.6995 141.181"></polygon>
                <polygon id="Path" stroke="#00402A" stroke-width="0.2721" fill="#B0A9A3" fill-rule="nonzero" stroke-linejoin="round" points="82.5415 145 79.9919 149.132 87.3663 145.582 89.9207 141.445"></polygon>
                <path d="M83.8929,147.006 L81.0836,147.473 L80.6795,147.372 L80.8382,147.174 L81.3385,146.342 L79.982,145.981 C79.2604,146.135 78.5773,146.313 77.9568,146.53 L77.2737,146.313 C76.6724,146.251 76.302,148.252 76.9081,148.372 L78.3801,148.747 L80.1648,149.132 C80.819,149.32 81.1605,149.147 81.9062,149.132 L82.7047,148.762 L83.2627,148.238 L83.8207,147.699 L84.0708,147.535 C84.4461,147.42 84.4509,147.011 83.8929,147.006 Z" id="Path" stroke="#00402A" stroke-width="0.2721" fill="#FFCFB3" fill-rule="nonzero" stroke-linejoin="round"></path>
                <path d="M87.294,144.745 L88.4677,143.797 L88.9536,143.009 L89.1797,144.024 L88.8814,145.024 L88.1214,145.76 C87.9963,145.885 87.8327,145.962 87.6547,145.991 L87.3084,146.044 C87.1833,146.063 87.0583,146.005 86.9957,145.895 L86.9669,145.847 L86.7456,145.741 C86.659,145.698 86.5965,145.616 86.5868,145.52 L86.5628,145.366 C86.5435,145.241 86.6061,145.12 86.7167,145.058 L87.294,144.745 Z" id="Path" stroke="#00402A" stroke-width="0.2721" fill="#FFCFB3" fill-rule="nonzero" stroke-linejoin="round"></path>
                <path d="M85.8506,143.037 L85.6005,142.552 C85.028,141.488 86.3413,141.003 87.0869,141.551 L88.1837,141.912 L85.8458,143.037 L85.8506,143.037 Z" id="Path" stroke="#00402A" stroke-width="0.2721" fill="#FFCFB3" fill-rule="nonzero" stroke-linejoin="round"></path>
                <polygon id="Path" stroke="#00402A" stroke-width="0.2721" fill="#DCEBE1" fill-rule="nonzero" stroke-linejoin="round" points="83.6047 163.797 83.6225 170.454 92.2553 175.465 92.2376 168.815"></polygon>
                <polygon id="Path" stroke="#00402A" stroke-width="0.2721" fill="#A2BCB1" fill-rule="nonzero" stroke-linejoin="round" points="92.2375 168.815 92.2553 175.465 103.835 168.779 103.817 162.129"></polygon>
                <polygon id="Path" stroke="#00402A" stroke-width="0.2721" fill="#007F33" fill-rule="nonzero" stroke-linejoin="round" points="83.6045 163.797 92.2373 168.815 103.817 162.128 95.1899 157.111"></polygon>
                <polygon id="Path" stroke="#00402A" stroke-width="0.2721" fill="#00A443" fill-rule="nonzero" stroke-linejoin="round" points="86.0897 165.986 82.9893 164.188 83.007 170.868 86.1075 172.673"></polygon>
                <polygon id="Path" stroke="#00402A" stroke-width="0.2721" fill="#007F33" fill-rule="nonzero" stroke-linejoin="round" points="86.7049 165.602 83.6044 163.797 82.989 164.188 86.0895 165.986"></polygon>
                <polygon id="Path" stroke="#00402A" stroke-width="0.2721" fill="#007F33" fill-rule="nonzero" stroke-linejoin="round" points="86.0898 165.986 86.1076 172.673 86.723 172.282 86.7052 165.602"></polygon>
                <polygon id="Path" stroke="#00402A" stroke-width="0.2721" fill="#DCEBE1" fill-rule="nonzero" stroke-linejoin="round" points="83.5869 157.158 83.6047 163.809 92.2375 168.827 92.2198 162.17"></polygon>
                <polygon id="Path" stroke="#00402A" stroke-width="0.2721" fill="#A2BCB1" fill-rule="nonzero" stroke-linejoin="round" points="92.2192 162.17 92.237 168.826 103.816 162.14 103.799 155.484"></polygon>
                <polygon id="Path" stroke="#00402A" stroke-width="0.2721" fill="#007F33" fill-rule="nonzero" stroke-linejoin="round" points="83.5867 157.158 92.2195 162.17 103.799 155.484 95.1662 150.472"></polygon>
                <polygon id="Path" stroke="#00402A" stroke-width="0.2721" fill="#00A443" fill-rule="nonzero" stroke-linejoin="round" points="86.0714 159.347 82.9709 157.549 82.9887 164.229 86.0892 166.034"></polygon>
                <polygon id="Path" stroke="#00402A" stroke-width="0.2721" fill="#007F33" fill-rule="nonzero" stroke-linejoin="round" points="86.6868 158.963 83.5863 157.158 82.9709 157.549 86.0714 159.348"></polygon>
                <polygon id="Path" stroke="#00402A" stroke-width="0.2721" fill="#007F33" fill-rule="nonzero" stroke-linejoin="round" points="86.0718 159.347 86.0895 166.034 86.7049 165.643 86.6871 158.963"></polygon>
                <polygon id="Path" stroke="#00402A" stroke-width="0.2721" fill="#A2BCB1" fill-rule="nonzero" stroke-linejoin="round" points="91.8525 160.939 101.249 155.513 101.261 154.413 91.8703 159.845"></polygon>
                <polygon id="Path" stroke="#00402A" stroke-width="0.2721" fill="#00A443" fill-rule="nonzero" stroke-linejoin="round" points="91.8701 159.845 101.26 154.413 95.3966 151.01 86.0005 156.436"></polygon>
                <polygon id="Path" stroke="#00402A" stroke-width="0.2721" fill="#007F33" fill-rule="nonzero" stroke-linecap="round" stroke-linejoin="round" points="89.5063 155.547 89.5063 155.995 89.0954 155.756 89.0954 155.305"></polygon>
                <polygon id="Path" stroke="#00402A" stroke-width="0.2721" fill="#699282" fill-rule="nonzero" stroke-linecap="round" stroke-linejoin="round" points="89.5063 155.547 89.5063 155.995 89.9172 155.756 89.9172 155.305"></polygon>
                <polygon id="Path" stroke="#00402A" stroke-width="0.2721" fill="#FFF5EC" fill-rule="nonzero" stroke-linecap="round" stroke-linejoin="round" points="89.9172 155.305 89.5063 155.064 89.0954 155.305 89.5063 155.547"></polygon>
                <polygon id="Path" stroke="#00402A" stroke-width="0.2721" fill="#007F33" fill-rule="nonzero" stroke-linecap="round" stroke-linejoin="round" points="89.5063 153.211 89.5063 155.446 89.2993 155.325 89.2993 153.087"></polygon>
                <polygon id="Path" stroke="#00402A" stroke-width="0.2721" fill="#699282" fill-rule="nonzero" stroke-linecap="round" stroke-linejoin="round" points="89.5063 153.211 89.5063 155.446 89.7134 155.325 89.7134 153.087"></polygon>
                <polygon id="Path" stroke="#00402A" stroke-width="0.2721" fill="#007F33" fill-rule="nonzero" stroke-linecap="round" stroke-linejoin="round" points="92.8628 157.494 92.8628 157.946 92.4519 157.704 92.4519 157.253"></polygon>
                <polygon id="Path" stroke="#00402A" stroke-width="0.2721" fill="#699282" fill-rule="nonzero" stroke-linecap="round" stroke-linejoin="round" points="92.8627 157.494 92.8627 157.946 93.2737 157.704 93.2737 157.253"></polygon>
                <polygon id="Path" stroke="#00402A" stroke-width="0.2721" fill="#FFF5EC" fill-rule="nonzero" stroke-linecap="round" stroke-linejoin="round" points="93.2737 157.253 92.8627 157.011 92.4518 157.253 92.8627 157.494"></polygon>
                <polygon id="Path" stroke="#00402A" stroke-width="0.2721" fill="#FFF5EC" fill-rule="nonzero" stroke-linecap="round" stroke-linejoin="round" points="92.8625 156.305 92.8625 157.393 92.6524 157.273 92.6524 156.184"></polygon>
                <polygon id="Path" stroke="#00402A" stroke-width="0.2721" fill="#FFF5EC" fill-rule="nonzero" stroke-linecap="round" stroke-linejoin="round" points="92.8625 156.305 92.8625 157.393 93.0696 157.273 93.0696 156.184"></polygon>
                <polygon id="Path" stroke="#00402A" stroke-width="0.2721" fill="#007F33" fill-rule="nonzero" stroke-linecap="round" stroke-linejoin="round" points="97.7144 154.675 97.7144 155.122 97.3034 154.884 97.3034 154.433"></polygon>
                <polygon id="Path" stroke="#00402A" stroke-width="0.2721" fill="#699282" fill-rule="nonzero" stroke-linecap="round" stroke-linejoin="round" points="97.7143 154.675 97.7143 155.122 98.1252 154.884 98.1252 154.433"></polygon>
                <polygon id="Path" stroke="#00402A" stroke-width="0.2721" fill="#FFF5EC" fill-rule="nonzero" stroke-linecap="round" stroke-linejoin="round" points="98.1252 154.433 97.7143 154.191 97.3034 154.433 97.7143 154.675"></polygon>
                <polygon id="Path" stroke="#00402A" stroke-width="0.2721" fill="#FFF5EC" fill-rule="nonzero" stroke-linecap="round" stroke-linejoin="round" points="97.7144 153.485 97.7144 154.574 97.5035 154.452 97.5035 153.361"></polygon>
                <polygon id="Path" stroke="#00402A" stroke-width="0.2721" fill="#FFF5EC" fill-rule="nonzero" stroke-linecap="round" stroke-linejoin="round" points="97.7143 153.485 97.7143 154.574 97.9214 154.452 97.9214 153.361"></polygon>
                <polygon id="Path" stroke="#00402A" stroke-width="0.2721" fill="#FFFEFF" fill-rule="nonzero" stroke-linecap="round" stroke-linejoin="round" points="94.1377 149.793 98.5974 153.988 92.8658 157.328 88.4061 153.136"></polygon>
                <polygon id="Path" stroke="#00402A" stroke-width="0.2721" fill="#699282" fill-rule="nonzero" stroke-linecap="round" stroke-linejoin="round" points="92.8658 157.328 92.8658 157.482 98.5974 154.142 98.5974 153.988"></polygon>
                <polygon id="Path" stroke="#00402A" stroke-width="0.2721" fill="#007F33" fill-rule="nonzero" stroke-linecap="round" stroke-linejoin="round" points="88.406 153.136 92.8657 157.328 92.8657 157.482 88.406 153.315"></polygon>
                <path d="M94.1894,150.041 L95.0403,150.841 C95.034,150.897 95.0308,150.92 95.0239,150.972 L93.9173,151.619 C93.8624,151.612 93.8233,151.609 93.7683,151.602 L92.9301,150.814 C92.9364,150.749 92.9395,150.726 92.9465,150.661 L94.0373,150.023 C94.0953,150.027 94.1345,150.033 94.1894,150.04 L94.1894,150.041 Z" id="Path" stroke="#00402A" stroke-width="0.2721" fill="#B4DEF7" fill-rule="nonzero" stroke-linecap="round" stroke-linejoin="round"></path>
                <path d="M92.8046,150.848 L93.6555,151.649 C93.6492,151.704 93.646,151.727 93.6391,151.779 L92.5325,152.426 C92.4776,152.42 92.4385,152.417 92.3836,152.41 L91.5453,151.622 C91.5516,151.556 91.5548,151.534 91.5617,151.468 L92.6525,150.831 C92.7106,150.837 92.7497,150.84 92.8046,150.848 L92.8046,150.848 Z" id="Path" stroke="#00402A" stroke-width="0.2721" fill="#3CC2FF" fill-rule="nonzero" stroke-linecap="round" stroke-linejoin="round"></path>
                <path d="M91.4159,151.655 L92.2668,152.456 C92.2605,152.511 92.2574,152.534 92.2504,152.586 L91.1439,153.233 C91.089,153.227 91.0498,153.224 90.9949,153.217 L90.1566,152.429 C90.1629,152.363 90.1661,152.341 90.173,152.275 L91.2638,151.638 C91.3219,151.644 91.361,151.647 91.4159,151.654 L91.4159,151.655 Z" id="Path" stroke="#00402A" stroke-width="0.2721" fill="#3CC2FF" fill-rule="nonzero" stroke-linecap="round" stroke-linejoin="round"></path>
                <path d="M90.0309,152.463 L90.8818,153.263 C90.8755,153.319 90.8724,153.342 90.8654,153.394 L89.7589,154.041 C89.704,154.034 89.6648,154.031 89.6099,154.024 L88.7716,153.236 C88.7779,153.171 88.7811,153.148 88.788,153.083 L89.8788,152.445 C89.9369,152.452 89.976,152.459 90.0309,152.462 L90.0309,152.463 Z" id="Path" stroke="#00402A" stroke-width="0.2721" fill="#3CC2FF" fill-rule="nonzero" stroke-linecap="round" stroke-linejoin="round"></path>
                <path d="M95.2802,151.064 L96.1311,151.864 C96.1248,151.92 96.1216,151.943 96.1147,151.995 L95.0081,152.642 C94.9532,152.635 94.9141,152.632 94.8592,152.625 L94.0209,151.837 C94.0272,151.772 94.0304,151.749 94.0373,151.684 L95.1281,151.046 C95.1861,151.053 95.2253,151.056 95.2802,151.063 L95.2802,151.064 Z" id="Path" stroke="#00402A" stroke-width="0.2721" fill="#3CC2FF" fill-rule="nonzero" stroke-linecap="round" stroke-linejoin="round"></path>
                <path d="M93.8954,151.874 L94.7463,152.675 C94.74,152.73 94.7369,152.753 94.7299,152.806 L93.6234,153.452 C93.5685,153.446 93.5293,153.443 93.4744,153.436 L92.6361,152.648 C92.6424,152.582 92.6456,152.56 92.6525,152.495 L93.7433,151.857 C93.8014,151.86 93.8405,151.867 93.8954,151.874 L93.8954,151.874 Z" id="Path" stroke="#00402A" stroke-width="0.2721" fill="#3CC2FF" fill-rule="nonzero" stroke-linecap="round" stroke-linejoin="round"></path>
                <path d="M92.5097,152.681 L93.3606,153.482 C93.3543,153.537 93.3511,153.56 93.3442,153.612 L92.2376,154.259 C92.1827,154.253 92.1436,154.25 92.0887,154.243 L91.2504,153.455 C91.2567,153.389 91.2598,153.367 91.2668,153.301 L92.3576,152.664 C92.4156,152.67 92.4548,152.674 92.5097,152.681 L92.5097,152.681 Z" id="Path" stroke="#00402A" stroke-width="0.2721" fill="#B4DEF7" fill-rule="nonzero" stroke-linecap="round" stroke-linejoin="round"></path>
                <path d="M91.1217,153.489 L91.9727,154.289 C91.9663,154.345 91.9632,154.368 91.9562,154.42 L90.8497,155.067 C90.7948,155.06 90.7556,155.057 90.7007,155.05 L89.8624,154.263 C89.8687,154.197 89.8719,154.175 89.8788,154.109 L90.9696,153.472 C91.0277,153.478 91.0668,153.481 91.1217,153.488 L91.1217,153.489 Z" id="Path" stroke="#00402A" stroke-width="0.2721" fill="#3CC2FF" fill-rule="nonzero" stroke-linecap="round" stroke-linejoin="round"></path>
                <path d="M96.371,152.09 L97.2219,152.89 C97.2156,152.946 97.2124,152.969 97.2055,153.021 L96.099,153.668 C96.044,153.661 96.0049,153.658 95.95,153.651 L95.1117,152.863 C95.118,152.798 95.1212,152.776 95.1281,152.71 L96.2189,152.073 C96.277,152.079 96.3161,152.082 96.371,152.089 L96.371,152.09 Z" id="Path" stroke="#00402A" stroke-width="0.2721" fill="#B4DEF7" fill-rule="nonzero" stroke-linecap="round" stroke-linejoin="round"></path>
                <path d="M94.9855,152.901 L95.8364,153.701 C95.8301,153.756 95.827,153.779 95.82,153.832 L94.7135,154.479 C94.6585,154.472 94.6194,154.469 94.5645,154.462 L93.7262,153.674 C93.7325,153.609 93.7357,153.586 93.7426,153.521 L94.8334,152.883 C94.8915,152.886 94.9306,152.893 94.9855,152.9 L94.9855,152.901 Z" id="Path" stroke="#00402A" stroke-width="0.2721" fill="#3CC2FF" fill-rule="nonzero" stroke-linecap="round" stroke-linejoin="round"></path>
                <path d="M93.6005,153.707 L94.4514,154.508 C94.4451,154.563 94.442,154.586 94.435,154.639 L93.3284,155.285 C93.2735,155.279 93.2344,155.276 93.1795,155.269 L92.3412,154.481 C92.3475,154.415 92.3507,154.393 92.3576,154.328 L93.4484,153.69 C93.5065,153.697 93.5456,153.7 93.6005,153.707 L93.6005,153.707 Z" id="Path" stroke="#00402A" stroke-width="0.2721" fill="#3CC2FF" fill-rule="nonzero" stroke-linecap="round" stroke-linejoin="round"></path>
                <path d="M92.2118,154.514 L93.0627,155.315 C93.0564,155.37 93.0533,155.393 93.0463,155.445 L91.9398,156.092 C91.8849,156.086 91.8457,156.083 91.7908,156.076 L90.9525,155.288 C90.9588,155.222 90.962,155.2 90.9689,155.134 L92.0597,154.497 C92.1178,154.503 92.1569,154.507 92.2118,154.514 L92.2118,154.514 Z" id="Path" stroke="#00402A" stroke-width="0.2721" fill="#3CC2FF" fill-rule="nonzero" stroke-linecap="round" stroke-linejoin="round"></path>
                <path d="M97.4618,153.116 L98.3127,153.916 C98.3064,153.972 98.3033,153.995 98.2963,154.047 L97.1898,154.694 C97.1349,154.688 97.0957,154.684 97.0408,154.677 L96.2025,153.89 C96.2088,153.824 96.212,153.802 96.2189,153.736 L97.3097,153.099 C97.3678,153.105 97.4069,153.108 97.4618,153.115 L97.4618,153.116 Z" id="Path" stroke="#00402A" stroke-width="0.2721" fill="#3CC2FF" fill-rule="nonzero" stroke-linecap="round" stroke-linejoin="round"></path>
                <path d="M96.0761,153.923 L96.927,154.723 C96.9207,154.779 96.9175,154.802 96.9106,154.854 L95.804,155.501 C95.7491,155.495 95.71,155.491 95.6551,155.484 L94.8168,154.697 C94.8231,154.631 94.8263,154.609 94.8332,154.543 L95.924,153.906 C95.982,153.912 96.0212,153.915 96.0761,153.922 L96.0761,153.923 Z" id="Path" stroke="#00402A" stroke-width="0.2721" fill="#B4DEF7" fill-rule="nonzero" stroke-linecap="round" stroke-linejoin="round"></path>
                <path d="M94.6913,154.734 L95.5422,155.534 C95.5359,155.589 95.5328,155.612 95.5258,155.665 L94.4193,156.312 C94.3644,156.305 94.3252,156.302 94.2703,156.295 L93.432,155.507 C93.4383,155.442 93.4415,155.419 93.4484,155.354 L94.5392,154.716 C94.5973,154.719 94.6364,154.726 94.6913,154.733 L94.6913,154.734 Z" id="Path" stroke="#00402A" stroke-width="0.2721" fill="#3CC2FF" fill-rule="nonzero" stroke-linecap="round" stroke-linejoin="round"></path>
                <path d="M93.3056,155.54 L94.1565,156.341 C94.1502,156.396 94.147,156.416 94.1401,156.472 L93.0335,157.118 C92.9786,157.112 92.9395,157.109 92.8846,157.102 L92.0463,156.314 C92.0526,156.249 92.0557,156.226 92.0627,156.161 L93.1535,155.523 C93.2115,155.53 93.2507,155.533 93.3056,155.54 L93.3056,155.54 Z" id="Path" stroke="#00402A" stroke-width="0.2721" fill="#B4DEF7" fill-rule="nonzero" stroke-linecap="round" stroke-linejoin="round"></path>
                <polygon id="Path" stroke="#00402A" stroke-width="0.2721" fill="#DCEBE1" fill-rule="nonzero" stroke-linejoin="round" points="86.0008 156.436 85.989 157.537 91.8527 160.939 91.8705 159.844"></polygon>
                <polygon id="Path" stroke="#00402A" stroke-width="0.2721" fill="#FFCD52" fill-rule="nonzero" stroke-linejoin="round" points="96.3733 163.423 96.3851 167.453 97.8407 166.612 97.8289 162.583"></polygon>
                <polygon id="Path" stroke="#00402A" stroke-width="0.2721" fill="#FFCD52" fill-rule="nonzero" stroke-linejoin="round" points="93.6396 165.027 93.6515 169.056 95.1011 168.216 95.0893 164.187"></polygon>
                <polygon id="Path" stroke="#00402A" stroke-width="0.2721" fill="#FFF5EC" fill-rule="nonzero" stroke-linejoin="round" points="101.781 160.305 101.793 164.328 103.249 163.488 103.237 159.465"></polygon>
                <polygon id="Path" stroke="#00402A" stroke-width="0.2721" fill="#FFF5EC" fill-rule="nonzero" stroke-linejoin="round" points="99.0479 161.908 99.0597 165.932 100.509 165.092 100.498 161.068"></polygon>
                <polygon id="Path" stroke="#00402A" stroke-width="0.2721" fill="#FFCD52" fill-rule="nonzero" stroke-linejoin="round" points="88.6813 163.482 88.6694 167.506 87.2139 166.666 87.2257 162.642"></polygon>
                <polygon id="Path" stroke="#00402A" stroke-width="0.2721" fill="#FFCD52" fill-rule="nonzero" stroke-linejoin="round" points="91.4152 165.086 91.4033 169.109 89.9478 168.275 89.9596 164.245"></polygon>
                <polygon id="Path" stroke="#00402A" stroke-width="0.2721" fill="#00A443" fill-rule="nonzero" stroke-linejoin="round" points="93.0125 171.034 93.0243 175.045 95.5094 176.483 95.4976 172.471"></polygon>
                <polygon id="Path" stroke="#00402A" stroke-width="0.2721" fill="#A2BCB1" fill-rule="nonzero" stroke-linejoin="round" points="95.4976 172.471 95.5094 176.483 105.101 170.945 105.089 166.933"></polygon>
                <polygon id="Path" stroke="#00402A" stroke-width="0.2721" fill="#007F33" fill-rule="nonzero" stroke-linejoin="round" points="93.0122 171.033 95.4973 172.471 105.089 166.933 102.61 165.495"></polygon>
                <path d="M81.7136,172.67 L81.7136,170.833 L82.3057,170.833 L82.3057,172.67 C82.3057,172.714 82.2775,172.757 82.2198,172.79 C82.1039,172.857 81.9173,172.857 81.8014,172.79 C81.7432,172.757 81.7155,172.714 81.7155,172.67 L81.7136,172.67 Z" id="Path" stroke="#00402A" stroke-width="0.2721" fill="#FFF5EC" fill-rule="nonzero"></path>
                <path d="M79.8257,170.173 C79.8257,171.386 80.8171,171.64 82.0398,171.64 C83.2626,171.64 84.254,171.386 84.254,170.173 C84.254,168.96 83.2626,165.955 82.0398,165.955 C80.8171,165.955 79.8257,168.96 79.8257,170.173 Z" id="Path" stroke="#00402A" stroke-width="0.2721" fill="#2F6852" fill-rule="nonzero"></path>
                <polygon id="Path" stroke="#00402A" stroke-width="0.215359" fill="#FDF9F2" fill-rule="nonzero" stroke-linejoin="round" points="95.948 186.056 96.2873 186.236 102.307 183.014 101.968 182.827"></polygon>
                <polygon id="Path" stroke="#00402A" stroke-width="0.215359" fill="#FDF9F2" fill-rule="nonzero" stroke-linejoin="round" points="92.1509 184.01 92.4901 184.191 98.5101 180.968 98.1709 180.781"></polygon>
                <polygon id="Path" stroke="#00402A" stroke-width="0.215359" fill="#FDF9F2" fill-rule="nonzero" stroke-linejoin="round" points="104.025 190.347 104.364 190.528 110.384 187.306 110.045 187.119"></polygon>
                <polygon id="Path" stroke="#00402A" stroke-width="0.215359" fill="#FDF9F2" fill-rule="nonzero" stroke-linejoin="round" points="100.228 188.302 100.568 188.482 106.588 185.26 106.248 185.073"></polygon>
                <polygon id="Path" stroke="#00402A" stroke-width="0.215359" fill="#FDF9F2" fill-rule="nonzero" stroke-linejoin="round" points="110.384 187.306 110.045 187.493 97.8247 180.968 98.164 180.781"></polygon>
                <polygon id="Path" stroke="#00402A" stroke-width="0.215359" fill="#FDF9F2" fill-rule="nonzero" stroke-linejoin="round" points="106.716 180.113 107.056 180.293 113.068 177.065 112.729 176.884"></polygon>
                <polygon id="Path" stroke="#00402A" stroke-width="0.215359" fill="#FDF9F2" fill-rule="nonzero" stroke-linejoin="round" points="102.92 178.067 103.259 178.248 109.272 175.019 108.933 174.839"></polygon>
                <polygon id="Path" stroke="#00402A" stroke-width="0.215359" fill="#FDF9F2" fill-rule="nonzero" stroke-linejoin="round" points="114.794 184.404 115.133 184.585 121.146 181.363 120.806 181.175"></polygon>
                <polygon id="Path" stroke="#00402A" stroke-width="0.215359" fill="#FDF9F2" fill-rule="nonzero" stroke-linejoin="round" points="110.997 182.359 111.336 182.539 117.349 179.317 117.01 179.13"></polygon>
                <polygon id="Path" stroke="#00402A" stroke-width="0.215359" fill="#FDF9F2" fill-rule="nonzero" stroke-linejoin="round" points="121.146 181.363 120.807 181.543 108.586 175.019 108.925 174.839"></polygon>
                <polygon id="Path" stroke="#00402A" stroke-width="0.2721" fill="#5BD38C" fill-rule="nonzero" stroke-linejoin="round" points="110.592 176.87 108.106 175.431 108.106 175.543 110.592 176.983"></polygon>
                <path d="M110.873,176.403 L108.393,174.964 C108.393,174.964 108.365,174.958 108.343,174.964 L110.822,176.403 C110.822,176.403 110.862,176.392 110.873,176.403 Z" id="Path" stroke="#00402A" stroke-width="0.2721" fill="#5BD38C" fill-rule="nonzero" stroke-linejoin="round"></path>
                <path d="M110.586,176.544 L110.586,176.87 L110.586,176.983 L110.823,176.848 C110.862,176.825 110.896,176.769 110.896,176.724 L110.896,176.448 C110.896,176.403 110.862,176.387 110.823,176.409 L110.586,176.544 Z" id="Path" stroke="#00402A" stroke-width="0.2721" fill="#5BD38C" fill-rule="nonzero" stroke-linejoin="round"></path>
                <path d="M110.564,175.493 L108.084,174.053 C108.084,174.053 108.033,174.031 108.005,174.025 L110.485,175.465 C110.513,175.47 110.541,175.481 110.564,175.493 Z" id="Path" stroke="#00402A" stroke-width="0.2721" fill="#008C39" fill-rule="nonzero" stroke-linejoin="round"></path>
                <polygon id="Path" stroke="#00402A" stroke-width="0.2721" fill="#008C39" fill-rule="nonzero" stroke-linejoin="round" points="110.485 175.464 108.005 174.019 107.758 173.969 110.237 175.414"></polygon>
                <path d="M109.827,174.778 C109.76,174.739 109.664,174.745 109.563,174.807 L107.747,175.858 L105.267,174.419 L107.083,173.367 C107.184,173.311 107.274,173.3 107.347,173.339 L109.827,174.778 Z" id="Path" stroke="#00402A" stroke-width="0.2721" fill="#FDF9F2" fill-rule="nonzero" stroke-linejoin="round"></path>
                <path d="M108.927,175.329 C108.86,175.369 108.804,175.47 108.804,175.554 L108.804,176.184 C108.804,176.268 108.86,176.308 108.933,176.263 L109.816,175.751 C109.911,175.695 109.968,175.543 109.928,175.464 L109.675,174.975 C109.653,174.936 109.608,174.925 109.563,174.953 L108.927,175.318 L108.927,175.329 Z" id="Path" stroke="#00402A" stroke-width="0.2721" fill="#007F33" fill-rule="nonzero" stroke-linejoin="round"></path>
                <polygon id="Path" stroke="#00402A" stroke-width="0.2721" fill="#008C39" fill-rule="nonzero" stroke-linejoin="round" points="105.582 178.979 103.097 177.534 103.097 178.045 105.582 179.485"></polygon>
                <path d="M110.586,176.544 L110.586,176.87 L110.44,176.955 C110.44,176.938 110.44,176.915 110.44,176.898 C110.44,176.516 110.165,176.359 109.833,176.55 C109.501,176.741 109.231,177.208 109.231,177.596 C109.231,177.612 109.231,177.629 109.231,177.646 L107.106,178.872 C107.106,178.872 107.106,178.833 107.106,178.816 C107.106,178.433 106.836,178.276 106.499,178.467 C106.167,178.658 105.897,179.125 105.897,179.513 C105.897,179.53 105.897,179.547 105.897,179.564 L105.863,179.58 L105.863,179.305 L105.565,179.479 L105.565,178.968 C105.565,178.692 105.723,178.355 105.959,178.147 L106.926,177.269 L107.151,177.14 L107.477,176.106 C107.544,175.993 107.634,175.897 107.73,175.841 L109.546,174.79 C109.659,174.722 109.765,174.722 109.833,174.779 L109.765,174.818 L110.114,175.459 L110.215,175.397 L110.463,175.448 C110.586,175.476 110.671,175.577 110.693,175.729 L110.8,176.398 L110.564,176.533 L110.586,176.544 Z" id="Path" stroke="#00402A" stroke-width="0.2721" fill="#5BD38C" fill-rule="nonzero" stroke-linejoin="round"></path>
                <path d="M110.609,175.841 C110.569,175.864 110.536,175.942 110.536,176.016 C110.536,176.089 110.569,176.134 110.609,176.111 C110.648,176.089 110.676,176.01 110.676,175.937 C110.676,175.864 110.642,175.819 110.603,175.841 L110.609,175.841 Z" id="Path" stroke="#00402A" stroke-width="0.2721" fill="#A2BCB1" fill-rule="nonzero" stroke-linejoin="round"></path>
                <path d="M109.838,177.073 C109.754,177.123 109.681,177.241 109.681,177.342 C109.681,177.438 109.748,177.483 109.838,177.432 C109.923,177.382 109.996,177.264 109.996,177.163 C109.996,177.061 109.928,177.022 109.838,177.073 Z" id="Path" stroke="#00402A" stroke-width="0.2721" fill="#5BD38C" fill-rule="nonzero" stroke-linejoin="round"></path>
                <path d="M110.198,177.044 C110.198,177.269 110.041,177.545 109.844,177.657 C109.647,177.77 109.49,177.68 109.49,177.455 C109.49,177.23 109.647,176.954 109.844,176.842 C110.041,176.73 110.198,176.82 110.204,177.044 L110.198,177.044 Z M109.844,177.427 C109.929,177.376 110.002,177.258 110.002,177.157 C110.002,177.056 109.934,177.016 109.844,177.067 C109.754,177.118 109.687,177.236 109.687,177.337 C109.687,177.432 109.754,177.477 109.844,177.427 Z" id="Shape" stroke="#00402A" stroke-width="0.2721" fill="#007F33" fill-rule="nonzero" stroke-linejoin="round"></path>
                <path d="M110.446,176.904 C110.446,176.904 110.446,176.938 110.446,176.96 C110.423,177.331 110.165,177.764 109.844,177.95 C109.574,178.107 109.349,178.034 109.271,177.804 C109.254,177.759 109.248,177.708 109.242,177.657 C109.242,177.641 109.242,177.624 109.242,177.607 C109.242,177.225 109.512,176.758 109.844,176.561 C110.176,176.37 110.451,176.522 110.451,176.91 L110.446,176.904 Z M109.844,177.657 C110.041,177.545 110.198,177.27 110.198,177.045 C110.198,176.82 110.041,176.73 109.838,176.842 C109.642,176.955 109.484,177.23 109.484,177.455 C109.484,177.68 109.642,177.77 109.838,177.657" id="Shape" fill="#00402A" fill-rule="nonzero"></path>
                <path d="M109.844,177.657 C110.041,177.545 110.198,177.27 110.198,177.045 C110.198,176.82 110.041,176.73 109.838,176.842 C109.642,176.955 109.484,177.23 109.484,177.455 C109.484,177.68 109.642,177.77 109.838,177.657 M110.446,176.904 C110.446,176.904 110.446,176.938 110.446,176.96 C110.423,177.331 110.165,177.764 109.844,177.95 C109.574,178.107 109.349,178.034 109.271,177.804 C109.254,177.759 109.248,177.708 109.242,177.657 C109.242,177.641 109.242,177.624 109.242,177.607 C109.242,177.225 109.512,176.758 109.844,176.561 C110.176,176.37 110.451,176.522 110.451,176.91 L110.446,176.904 Z" id="Shape" stroke="#00402A" stroke-width="0.2721" stroke-linejoin="round"></path>
                <path d="M109.788,174.835 L110.136,175.476 L110.237,175.414 L109.894,174.846 C109.894,174.846 109.866,174.812 109.849,174.795 L109.782,174.835 L109.788,174.835 Z" id="Path" stroke="#00402A" stroke-width="0.2721" fill="#007F33" fill-rule="nonzero" stroke-linejoin="round"></path>
                <path d="M107.117,178.878 C107.117,178.939 107.105,178.996 107.089,179.057 L109.27,177.798 C109.253,177.753 109.248,177.702 109.242,177.646 L107.117,178.872 L107.117,178.878 Z" id="Path" stroke="#00402A" stroke-width="0.2721" fill="#007F33" fill-rule="nonzero" stroke-linejoin="round"></path>
                <path d="M107.117,178.821 C107.117,178.821 107.117,178.855 107.117,178.877 C107.117,178.939 107.106,178.996 107.089,179.057 C107.01,179.378 106.785,179.71 106.515,179.861 C106.195,180.047 105.936,179.912 105.914,179.569 C105.914,179.552 105.914,179.535 105.914,179.519 C105.914,179.136 106.184,178.669 106.515,178.473 C106.847,178.281 107.123,178.433 107.123,178.821 L107.117,178.821 Z M106.515,179.58 C106.712,179.468 106.87,179.192 106.87,178.967 C106.87,178.743 106.712,178.647 106.515,178.765 C106.319,178.878 106.161,179.153 106.161,179.378 C106.161,179.603 106.324,179.693 106.515,179.58 Z" id="Shape" stroke="#00402A" stroke-width="0.2721" fill="#00402A" fill-rule="nonzero" stroke-linejoin="round"></path>
                <path d="M106.87,178.968 C106.87,179.192 106.712,179.468 106.515,179.58 C106.319,179.693 106.161,179.603 106.161,179.378 C106.161,179.153 106.319,178.878 106.515,178.765 C106.712,178.653 106.87,178.743 106.87,178.968 Z M106.515,179.35 C106.6,179.299 106.673,179.181 106.673,179.08 C106.673,178.979 106.6,178.939 106.515,178.99 C106.431,179.041 106.358,179.159 106.358,179.26 C106.358,179.355 106.431,179.4 106.515,179.35 Z" id="Shape" stroke="#00402A" stroke-width="0.2721" fill="#007F33" fill-rule="nonzero" stroke-linejoin="round"></path>
                <path d="M106.51,178.99 C106.425,179.041 106.352,179.159 106.352,179.26 C106.352,179.356 106.425,179.401 106.51,179.35 C106.594,179.299 106.667,179.181 106.667,179.08 C106.667,178.979 106.594,178.939 106.51,178.99 Z" id="Path" stroke="#00402A" stroke-width="0.2721" fill="#5BD38C" fill-rule="nonzero" stroke-linejoin="round"></path>
                <path d="M107.78,175.987 C107.735,176.01 107.696,176.06 107.673,176.117 L107.336,176.943 C107.28,177.078 107.342,177.179 107.443,177.123 L108.483,176.522 C108.551,176.482 108.612,176.381 108.607,176.297 L108.607,175.667 C108.607,175.583 108.545,175.549 108.477,175.588 L107.78,175.993 L107.78,175.987 Z" id="Path" stroke="#00402A" stroke-width="0.2721" fill="#007F33" fill-rule="nonzero" stroke-linejoin="round"></path>
                <path d="M103.068,178.355 L105.548,179.794 C105.548,179.794 105.537,179.777 105.537,179.766 L103.057,178.326 C103.057,178.326 103.057,178.349 103.068,178.355 Z" id="Path" stroke="#00402A" stroke-width="0.2721" fill="#5BD38C" fill-rule="nonzero" stroke-linejoin="round"></path>
                <polygon id="Path" stroke="#00402A" stroke-width="0.2721" fill="#5BD38C" fill-rule="nonzero" stroke-linejoin="round" points="105.537 179.563 103.052 178.124 103.057 178.326 105.537 179.772"></polygon>
                <path d="M105.582,179.485 L103.102,178.045 C103.102,178.045 103.057,178.096 103.057,178.124 L105.537,179.563 C105.537,179.535 105.554,179.502 105.582,179.485 Z" id="Path" stroke="#00402A" stroke-width="0.2721" fill="#5BD38C" fill-rule="nonzero" stroke-linejoin="round"></path>
                <path d="M105.582,179.485 C105.582,179.485 105.537,179.535 105.537,179.564 L105.537,179.772 C105.537,179.8 105.559,179.811 105.582,179.8 L105.88,179.631 L105.88,179.597 L105.88,179.322 L105.582,179.49 L105.582,179.485 Z" id="Path" stroke="#00402A" stroke-width="0.2721" fill="#5BD38C" fill-rule="nonzero" stroke-linejoin="round"></path>
                <path d="M107.747,175.852 L105.267,174.413 C105.172,174.469 105.082,174.559 105.014,174.677 L107.494,176.117 C107.561,176.004 107.651,175.909 107.747,175.852 Z" id="Path" stroke="#00402A" stroke-width="0.2721" fill="#008C39" fill-rule="nonzero" stroke-linejoin="round"></path>
                <path d="M107.494,176.117 L107.167,177.146 L106.943,177.275 L104.463,175.835 L104.975,174.75 C104.975,174.75 105.003,174.7 105.014,174.677 L107.494,176.117 Z" id="Path" stroke="#00402A" stroke-width="0.2721" fill="#007F33" fill-rule="nonzero" stroke-linejoin="round"></path>
                <path d="M105.964,178.394 C105.93,178.411 105.908,178.456 105.908,178.495 C105.908,178.535 105.936,178.546 105.964,178.529 L106.099,178.45 C106.133,178.433 106.155,178.388 106.155,178.349 C106.155,178.31 106.127,178.298 106.099,178.315 L105.964,178.394 Z" id="Path" stroke="#00402A" stroke-width="0.2721" fill="#A2BCB1" fill-rule="nonzero" stroke-linejoin="round"></path>
                <polygon id="Path" stroke="#00402A" stroke-width="0.2721" fill="#008C39" fill-rule="nonzero" stroke-linejoin="round" points="106.943 177.275 104.457 175.836 103.49 176.713 105.97 178.152"></polygon>
                <path d="M105.97,178.152 L103.49,176.713 C103.26,176.921 103.097,177.258 103.097,177.534 L105.576,178.973 C105.576,178.698 105.734,178.36 105.97,178.152 Z" id="Path" stroke="#00402A" stroke-width="0.2721" fill="#008C39" fill-rule="nonzero" stroke-linejoin="round"></path>
                <path d="M105.329,179.012 L105.329,179.294 L103.344,178.141 L103.344,177.894 C103.344,177.82 103.423,177.781 103.485,177.815 L105.222,178.821 C105.29,178.861 105.335,178.939 105.335,179.018 L105.329,179.012 Z" id="Path" stroke="#00402A" stroke-width="0.2721" fill="#FDF9F2" fill-rule="nonzero" stroke-linejoin="round"></path>
                <path d="M98.5972,178.054 L98.5972,179.932 C98.5972,179.999 98.6477,180.059 98.7415,180.106 L98.7415,178.228 C98.6477,178.181 98.5972,178.114 98.5972,178.054 Z" id="Path" stroke="#00402A" stroke-width="0.215359" fill="#007F33" fill-rule="nonzero" stroke-linejoin="round"></path>
                <path d="M112.86,186.497 L112.86,184.618 C112.86,184.685 112.809,184.745 112.716,184.799 L112.716,186.677 C112.817,186.631 112.86,186.564 112.86,186.497 Z" id="Path" stroke="#00402A" stroke-width="0.215359" fill="#007F33" fill-rule="nonzero" stroke-linejoin="round"></path>
                <polygon id="Path" stroke="#00402A" stroke-width="0.215359" fill="#007F33" fill-rule="nonzero" stroke-linejoin="round" points="98.7336 178.228 98.7409 180.106 111.503 186.971 111.495 185.093"></polygon>
                <polygon id="Path" stroke="#00402A" stroke-width="0.215359" fill="#007F33" fill-rule="nonzero" stroke-linejoin="round" points="112.16 185.093 112.167 186.972 112.723 186.677 112.716 184.799"></polygon>
                <path d="M111.496,185.093 L111.496,186.971 C111.684,187.072 111.979,187.072 112.16,186.971 L112.16,185.093 C111.972,185.193 111.676,185.193 111.496,185.093 Z" id="Path" stroke="#00402A" stroke-width="0.215359" fill="#007F33" fill-rule="nonzero" stroke-linejoin="round"></path>
                <path d="M98.7411,177.873 C98.5606,177.974 98.5606,178.127 98.7411,178.228 L111.503,185.093 C111.683,185.193 111.979,185.193 112.167,185.093 L112.723,184.792 C112.903,184.692 112.903,184.538 112.723,184.438 L99.9609,177.573 C99.7805,177.472 99.4845,177.472 99.2969,177.573 L98.7411,177.873 Z" id="Path" stroke="#00402A" stroke-width="0.215359" fill="#26BF64" fill-rule="nonzero" stroke-linejoin="round"></path>
                <path d="M108.309,186.194 L108.309,186.784 C108.309,186.784 108.309,186.812 108.309,186.824 L108.641,186.633 C108.737,186.576 108.821,186.424 108.844,186.25 L108.872,186.048 C108.889,185.947 108.844,185.879 108.793,185.907 L108.309,186.188 L108.309,186.194 Z" id="Path" stroke="#00402A" stroke-width="0.2721" fill="#007F33" fill-rule="nonzero" stroke-linejoin="round"></path>
                <path d="M107.831,186.925 C107.764,186.964 107.708,187.06 107.708,187.139 L107.955,186.998 C107.955,186.919 107.899,186.891 107.831,186.931 L107.831,186.925 Z" id="Path" stroke="#00402A" stroke-width="0.2721" fill="#5BD38C" fill-rule="nonzero" stroke-linejoin="round"></path>
                <path d="M107.831,186.739 C107.674,186.829 107.55,187.049 107.55,187.223 C107.55,187.403 107.68,187.476 107.831,187.386 C107.989,187.296 108.113,187.077 108.113,186.897 C108.113,186.717 107.983,186.649 107.831,186.734 L107.831,186.739 Z M107.831,187.206 C107.764,187.245 107.708,187.217 107.708,187.133 C107.708,187.054 107.764,186.959 107.831,186.919 C107.899,186.88 107.955,186.914 107.955,186.987 C107.955,187.065 107.899,187.161 107.831,187.2 L107.831,187.206 Z" id="Shape" stroke="#00402A" stroke-width="0.2721" fill="#007F33" fill-rule="nonzero" stroke-linejoin="round"></path>
                <path d="M107.387,187.116 C107.365,187.195 107.353,187.268 107.353,187.341 C107.353,187.645 107.567,187.768 107.837,187.617 C108.09,187.47 108.298,187.127 108.315,186.829 C108.315,186.818 108.315,186.801 108.315,186.79 C108.315,186.779 108.315,186.773 108.315,186.762 C108.304,186.475 108.09,186.368 107.837,186.514 C107.635,186.633 107.466,186.874 107.393,187.116 L107.387,187.116 Z M107.831,187.392 C107.674,187.482 107.55,187.408 107.55,187.229 C107.55,187.049 107.674,186.835 107.831,186.745 C107.989,186.655 108.113,186.728 108.113,186.908 C108.113,187.088 107.989,187.307 107.831,187.397" id="Shape" fill="#00402A" fill-rule="nonzero"></path>
                <path d="M107.831,187.392 C107.674,187.482 107.55,187.408 107.55,187.229 C107.55,187.049 107.674,186.835 107.831,186.745 C107.989,186.655 108.113,186.728 108.113,186.908 C108.113,187.088 107.989,187.307 107.831,187.397 M107.387,187.116 C107.365,187.195 107.353,187.268 107.353,187.341 C107.353,187.645 107.567,187.768 107.837,187.617 C108.09,187.47 108.298,187.127 108.315,186.829 C108.315,186.818 108.315,186.801 108.315,186.79 C108.315,186.779 108.315,186.773 108.315,186.762 C108.304,186.475 108.09,186.368 107.837,186.514 C107.635,186.633 107.466,186.874 107.393,187.116 L107.387,187.116 Z" id="Shape" stroke="#00402A" stroke-width="0.2721" stroke-linejoin="round"></path>
                <path d="M107.955,186.992 L107.708,187.133 C107.708,187.212 107.764,187.245 107.831,187.206 C107.899,187.167 107.955,187.071 107.955,186.992 Z" id="Path" stroke="#00402A" stroke-width="0.2721" fill="#5BD38C" fill-rule="nonzero" stroke-linejoin="round"></path>
                <path d="M101.472,187.965 C101.489,188.066 101.54,188.14 101.601,188.179 L104.081,189.618 C104.014,189.579 103.969,189.506 103.952,189.405 C103.21,188.972 102.214,188.398 101.472,187.965 Z" id="Path" stroke="#00402A" stroke-width="0.2721" fill="#00402A" fill-rule="nonzero" stroke-linejoin="round"></path>
                <path d="M104.031,188.932 C103.974,189.056 103.941,189.191 103.941,189.309 C103.941,189.343 103.941,189.376 103.952,189.405 C103.991,189.635 104.188,189.719 104.424,189.585 C104.688,189.433 104.902,189.062 104.902,188.758 C104.902,188.685 104.891,188.623 104.868,188.572 C104.795,188.409 104.627,188.364 104.424,188.482 C104.267,188.572 104.126,188.747 104.036,188.932 L104.031,188.932 Z M104.424,189.36 C104.267,189.45 104.143,189.376 104.143,189.197 C104.143,189.017 104.267,188.803 104.424,188.713 C104.582,188.623 104.705,188.696 104.711,188.87 C104.711,189.05 104.587,189.27 104.43,189.36" id="Shape" fill="#00402A" fill-rule="nonzero"></path>
                <path d="M104.424,189.36 C104.267,189.45 104.143,189.376 104.143,189.197 C104.143,189.017 104.267,188.803 104.424,188.713 C104.582,188.623 104.705,188.696 104.711,188.87 C104.711,189.05 104.587,189.27 104.43,189.36 M104.031,188.932 C103.974,189.056 103.941,189.191 103.941,189.309 C103.941,189.343 103.941,189.376 103.952,189.405 C103.991,189.635 104.188,189.719 104.424,189.585 C104.688,189.433 104.902,189.062 104.902,188.758 C104.902,188.685 104.891,188.623 104.868,188.572 C104.795,188.409 104.627,188.364 104.424,188.482 C104.267,188.572 104.126,188.747 104.036,188.932 L104.031,188.932 Z" id="Shape" stroke="#00402A" stroke-width="0.2721" stroke-linejoin="round"></path>
                <path d="M105.009,186.205 L107.489,187.645 C107.404,187.594 107.348,187.487 107.348,187.335 C107.348,187.262 107.359,187.189 107.382,187.11 L104.902,185.671 C104.88,185.75 104.869,185.823 104.869,185.896 C104.869,186.048 104.925,186.155 105.009,186.205 Z" id="Path" stroke="#00402A" stroke-width="0.2721" fill="#00402A" fill-rule="nonzero" stroke-linejoin="round"></path>
                <path d="M104.868,188.572 C104.891,188.623 104.902,188.685 104.902,188.758 L107.353,187.341 C107.353,187.268 107.365,187.195 107.387,187.116 L104.868,188.572 Z" id="Path" stroke="#00402A" stroke-width="0.2721" fill="#007F33" fill-rule="nonzero" stroke-linejoin="round"></path>
                <path d="M104.418,188.707 C104.261,188.797 104.137,189.017 104.137,189.191 C104.137,189.371 104.267,189.444 104.418,189.354 C104.576,189.264 104.699,189.045 104.699,188.865 C104.699,188.685 104.57,188.617 104.413,188.707 L104.418,188.707 Z M104.424,189.174 C104.356,189.213 104.3,189.18 104.3,189.101 C104.3,189.022 104.356,188.927 104.424,188.887 C104.491,188.848 104.548,188.882 104.548,188.955 C104.548,189.034 104.491,189.129 104.424,189.168 L104.424,189.174 Z" id="Shape" stroke="#00402A" stroke-width="0.2721" fill="#007F33" fill-rule="nonzero" stroke-linejoin="round"></path>
                <path d="M104.548,188.96 L104.3,189.101 C104.3,189.18 104.357,189.213 104.424,189.174 C104.492,189.135 104.548,189.039 104.548,188.96 Z" id="Path" stroke="#00402A" stroke-width="0.2721" fill="#5BD38C" fill-rule="nonzero" stroke-linejoin="round"></path>
                <path d="M104.418,188.893 C104.351,188.932 104.295,189.028 104.295,189.107 L104.542,188.966 C104.542,188.887 104.486,188.854 104.418,188.899 L104.418,188.893 Z" id="Path" stroke="#00402A" stroke-width="0.2721" fill="#5BD38C" fill-rule="nonzero" stroke-linejoin="round"></path>
                <path d="M104.418,188.482 C104.621,188.364 104.795,188.409 104.863,188.572 L107.382,187.116 C107.455,186.869 107.624,186.627 107.826,186.514 L104.413,188.482 L104.418,188.482 Z" id="Path" stroke="#00402A" stroke-width="0.2721" fill="#A2BCB1" fill-rule="nonzero" stroke-linejoin="round"></path>
                <path d="M100.786,188.055 L100.82,188.162 C100.825,188.201 100.848,188.224 100.876,188.241 L103.344,189.675 C103.344,189.675 103.344,189.675 103.339,189.669 C103.339,189.669 103.333,189.663 103.328,189.652 C103.328,189.647 103.322,189.641 103.316,189.635 C103.316,189.63 103.311,189.618 103.305,189.607 L103.271,189.5 C103.266,189.467 103.271,189.422 103.299,189.382 C103.311,189.36 103.333,189.337 103.356,189.326 L100.876,187.887 C100.876,187.887 100.837,187.92 100.82,187.943 C100.792,187.982 100.78,188.027 100.792,188.061 L100.786,188.055 Z" id="Path" stroke="#00402A" stroke-width="0.2721" fill="#007F33" fill-rule="nonzero" stroke-linejoin="round"></path>
                <path d="M103.271,189.5 L103.305,189.607 C103.305,189.607 103.311,189.629 103.316,189.635 C103.316,189.641 103.316,189.646 103.328,189.652 C103.328,189.658 103.333,189.663 103.339,189.669 C103.339,189.669 103.339,189.669 103.345,189.674 L103.356,189.674 C103.395,189.708 103.451,189.703 103.508,189.669 L103.946,189.416 L103.952,189.416 C103.952,189.382 103.946,189.348 103.946,189.315 C103.946,189.197 103.98,189.062 104.036,188.938 L103.356,189.331 C103.356,189.331 103.316,189.365 103.3,189.388 C103.271,189.427 103.26,189.472 103.271,189.506 L103.271,189.5 Z" id="Path" stroke="#00402A" stroke-width="0.2721" fill="#007F33" fill-rule="nonzero" stroke-linejoin="round"></path>
                <path d="M102.788,184.198 L105.267,185.637 L108.141,183.979 C108.225,183.928 108.304,183.922 108.36,183.956 L105.88,182.517 C105.824,182.483 105.745,182.489 105.661,182.539 L102.788,184.198 Z" id="Path" stroke="#00402A" stroke-width="0.2721" fill="#007F33" fill-rule="nonzero" stroke-linejoin="round"></path>
                <path d="M102.529,184.518 L105.009,185.958 L105.082,185.823 C105.138,185.744 105.2,185.677 105.273,185.637 L102.793,184.198 C102.726,184.237 102.658,184.305 102.602,184.383 L102.529,184.518 Z" id="Path" stroke="#00402A" stroke-width="0.2721" fill="#A2BCB1" fill-rule="nonzero" stroke-linejoin="round"></path>
                <path d="M100.758,187.386 L100.814,187.932 L103.294,189.371 L103.238,188.826 C103.227,188.679 103.3,188.483 103.429,188.353 L104.109,187.65 L101.63,186.211 L100.949,186.914 C100.82,187.043 100.747,187.24 100.758,187.386 Z" id="Path" stroke="#00402A" stroke-width="0.2721" fill="#A2BCB1" fill-rule="nonzero" stroke-linejoin="round"></path>
                <path d="M103.238,188.825 L103.294,189.371 C103.294,189.371 103.328,189.337 103.35,189.326 L104.03,188.932 C104.12,188.747 104.261,188.572 104.418,188.482 L107.826,186.514 C108.079,186.368 108.293,186.475 108.304,186.762 L108.304,186.2 L108.787,185.918 L108.433,184.091 C108.405,183.945 108.281,183.9 108.135,183.984 L105.262,185.643 C105.194,185.682 105.127,185.75 105.071,185.828 L104.998,185.963 L104.098,187.656 L103.418,188.359 C103.288,188.488 103.215,188.685 103.226,188.831 L103.238,188.825 Z" id="Path" stroke="#00402A" stroke-width="0.2721" fill="#699282" fill-rule="nonzero" stroke-linejoin="round"></path>
                <polygon id="Path" stroke="#00402A" stroke-width="0.2721" fill="#FDF9F2" fill-rule="nonzero" stroke-linejoin="round" points="101.629 186.211 104.109 187.656 105.009 185.958 102.529 184.518"></polygon>
                <path d="M105.256,185.84 C105.228,185.857 105.2,185.89 105.183,185.924 L104.424,187.375 C104.396,187.425 104.424,187.476 104.464,187.448 L105.656,186.762 C105.762,186.7 105.858,186.565 105.903,186.424 L106.089,185.778 C106.156,185.536 106.027,185.395 105.841,185.502 L105.268,185.834 L105.256,185.84 Z" id="Path" stroke="#00402A" stroke-width="0.2721" fill="#FDF9F2" fill-rule="nonzero" stroke-linejoin="round"></path>
                <path d="M103.367,188.595 C103.367,188.595 103.322,188.646 103.316,188.679 C103.316,188.73 103.316,188.803 103.333,188.87 C103.333,188.893 103.361,188.899 103.378,188.887 C103.384,188.887 103.395,188.876 103.401,188.865 L103.676,188.516 C103.716,188.466 103.699,188.404 103.654,188.426 L103.367,188.595 Z" id="Path" stroke="#00402A" stroke-width="0.2721" fill="#A2BCB1" fill-rule="nonzero" stroke-linejoin="round"></path>
                <polygon id="Path" stroke="#00402A" stroke-width="0.2721" fill="#007F33" fill-rule="nonzero" stroke-linejoin="round" points="103.102 188.707 100.904 187.437 100.955 187.915 103.153 189.191"></polygon>
                <path d="M109.417,172.151 L109.417,174.029 C109.417,174.096 109.467,174.156 109.561,174.203 L109.561,172.325 C109.467,172.278 109.417,172.211 109.417,172.151 Z" id="Path" stroke="#00402A" stroke-width="0.215359" fill="#007F33" fill-rule="nonzero" stroke-linejoin="round"></path>
                <path d="M123.68,180.594 L123.68,178.716 C123.68,178.782 123.63,178.843 123.536,178.896 L123.536,180.775 C123.637,180.728 123.68,180.661 123.68,180.594 Z" id="Path" stroke="#00402A" stroke-width="0.215359" fill="#007F33" fill-rule="nonzero" stroke-linejoin="round"></path>
                <polygon id="Path" stroke="#00402A" stroke-width="0.215359" fill="#007F33" fill-rule="nonzero" stroke-linejoin="round" points="109.554 172.325 109.561 174.203 122.323 181.075 122.316 179.197"></polygon>
                <polygon id="Path" stroke="#00402A" stroke-width="0.215359" fill="#007F33" fill-rule="nonzero" stroke-linejoin="round" points="122.98 179.197 122.98 181.075 123.543 180.775 123.536 178.896"></polygon>
                <path d="M122.316,179.197 L122.316,181.075 C122.503,181.175 122.799,181.175 122.98,181.075 L122.98,179.197 C122.792,179.297 122.496,179.297 122.316,179.197 Z" id="Path" stroke="#00402A" stroke-width="0.215359" fill="#007F33" fill-rule="nonzero" stroke-linejoin="round"></path>
                <path d="M109.554,171.971 C109.373,172.071 109.373,172.225 109.554,172.325 L122.315,179.19 C122.496,179.29 122.792,179.29 122.979,179.19 L123.535,178.889 C123.716,178.789 123.716,178.635 123.535,178.535 L110.773,171.67 C110.593,171.569 110.297,171.569 110.109,171.67 L109.554,171.971 Z" id="Path" stroke="#00402A" stroke-width="0.215359" fill="#26BF64" fill-rule="nonzero" stroke-linejoin="round"></path>
                <path d="M103.1664,160 C103.1664,159.264 102.5694,158.667 101.8334,158.667 C101.0974,158.667 100.5004,159.264 100.5004,160 C100.5004,160.736 101.0974,161.333 101.8334,161.333 C102.5694,161.333 103.1664,160.736 103.1664,160 Z M135.8334,160 L136.0834,160 L136.0834,159.75 L135.8334,159.75 L135.8334,160 Z M135.8334,235 L136.0834,235 L136.0834,160 L135.8334,160 L135.5834,160 L135.5834,235 L135.8334,235 Z M135.8334,160 L135.8334,159.75 L101.8334,159.75 L101.8334,160 L101.8334,160.25 L135.8334,160.25 L135.8334,160 Z" id="Shape" fill="#00402A" fill-rule="nonzero"></path>
            </g>
        </g>
    </g>
</svg>