<?xml version="1.0" encoding="UTF-8"?>
<svg width="273px" height="228px" viewBox="0 0 273 228" version="1.1" xmlns="http://www.w3.org/2000/svg" xmlns:xlink="http://www.w3.org/1999/xlink">
    <title>ilustracion</title>
    <defs>
        <linearGradient x1="3.59690844%" y1="49.9809064%" x2="121.432818%" y2="49.9809064%" id="linearGradient-1">
            <stop stop-color="#FFFFFF" offset="0%"></stop>
            <stop stop-color="#9DF4FF" offset="98%"></stop>
        </linearGradient>
        <linearGradient x1="57.825321%" y1="113.485755%" x2="45.9232946%" y2="14.5642806%" id="linearGradient-2">
            <stop stop-color="#FFFFFF" offset="0%"></stop>
            <stop stop-color="#9DF4FF" offset="98%"></stop>
        </linearGradient>
    </defs>
    <g id="Page-1" stroke="none" stroke-width="1" fill="none" fill-rule="evenodd">
        <g id="ilustracion" transform="translate(0, 17)">
            <g id="2" transform="translate(0, -24)">
                <path d="M165.095,141.8 C166.585,142.66 166.602,144.06 165.112,144.921 L133.411,163.341 C131.932,164.201 129.508,164.201 128.018,163.341 L85.2171,138.629 C83.7214,137.763 83.7158,136.368 85.2002,135.508 L116.902,117.082 C118.386,116.216 120.798,116.216 122.294,117.082 L165.095,141.794 L165.095,141.8 Z" id="Path" stroke="#00402A" stroke-width="0.2721" fill-opacity="0.5" fill="#DCEBE1" fill-rule="nonzero" stroke-linejoin="round"></path>
                <path d="M129.392,154.221 L129.392,152.329 L130.002,152.329 L130.002,154.221 C130.002,154.266 129.973,154.31 129.914,154.345 C129.794,154.413 129.602,154.413 129.483,154.345 C129.423,154.31 129.394,154.266 129.394,154.221 L129.392,154.221 Z" id="Path" stroke="#00402A" stroke-width="0.2721" fill="#FFF5EC" fill-rule="nonzero"></path>
                <path d="M127.448,151.648 C127.448,152.898 128.469,153.16 129.728,153.16 C130.988,153.16 132.009,152.898 132.009,151.648 C132.009,150.399 130.988,147.305 129.728,147.305 C128.469,147.305 127.448,150.399 127.448,151.648 Z" id="Path" stroke="#00402A" stroke-width="0.2721" fill="#2F6852" fill-rule="nonzero"></path>
                <polygon id="Path" stroke="#00402A" stroke-width="0.2721" fill="#FFF5EC" fill-rule="nonzero" stroke-linejoin="round" points="132.009 143.573 132.009 144.282 142.137 150.163 142.137 149.454"></polygon>
                <polygon id="Path" stroke="#00402A" stroke-width="0.2721" fill="#DCEBE1" fill-rule="nonzero" stroke-linejoin="round" points="142.137 149.454 142.137 150.163 153.669 143.503 153.669 142.793"></polygon>
                <polygon id="Path" stroke="#00402A" stroke-width="0.2721" fill="#26BF64" fill-rule="nonzero" stroke-linejoin="round" points="132.009 143.573 142.137 149.454 153.669 142.793 143.546 136.912"></polygon>
                <polygon id="Path" stroke="#00402A" stroke-width="0.2721" fill="#FFF5EC" fill-rule="nonzero" stroke-linejoin="round" points="132.898 104.76 132.958 143.493 142.202 148.864 142.142 110.131"></polygon>
                <polygon id="Path" stroke="#00402A" stroke-width="0.2721" fill="#DCEBE1" fill-rule="nonzero" stroke-linejoin="round" points="142.142 110.131 142.202 148.864 152.734 142.783 152.674 104.05"></polygon>
                <polygon id="Path" stroke="#00402A" stroke-width="0.2721" fill="#26BF64" fill-rule="nonzero" stroke-linejoin="round" points="132.898 104.759 142.142 110.131 152.675 104.05 143.431 98.6787"></polygon>
                <polygon id="Path" stroke="#00402A" stroke-width="0.2721" fill="#DCEBE1" fill-rule="nonzero" stroke-linejoin="round" points="150.216 100.577 150.211 103.7 143.161 103.121 143.161 96.5353"></polygon>
                <polygon id="Path" stroke="#00402A" stroke-width="0.2721" fill="#DCEBE1" fill-rule="nonzero" stroke-linejoin="round" points="143.161 96.5353 143.161 103.121 135.357 104.195 135.362 101.072"></polygon>
                <polygon id="Path" stroke="#00402A" stroke-width="0.2721" fill="#5BD38C" fill-rule="nonzero" stroke-linejoin="round" points="143.161 97.0698 135.362 101.602 142.412 105.644 150.216 101.112"></polygon>
                <polygon id="Path" stroke="#00402A" stroke-width="0.2721" fill="#FFF5EC" fill-rule="nonzero" stroke-linejoin="round" points="142.417 105.604 142.412 108.732 134.507 104.195 134.507 101.072"></polygon>
                <polygon id="Path" stroke="#00402A" stroke-width="0.2721" fill="#DCEBE1" fill-rule="nonzero" stroke-linejoin="round" points="151.066 100.577 151.066 103.7 142.412 108.732 142.417 105.604"></polygon>
                <path d="M134.507,101.072 L142.417,105.609 L151.071,100.582 L143.161,96.0455 L134.507,101.072 Z M142.412,105.114 L135.361,101.072 L143.166,96.5352 L150.216,100.577 L142.412,105.114 Z" id="Shape" stroke="#00402A" stroke-width="0.2721" fill="#26BF64" fill-rule="nonzero" stroke-linejoin="round"></path>
                <polygon id="Path" stroke="#00402A" stroke-width="0.2721" fill="#DCEBE1" fill-rule="nonzero" stroke-linejoin="round" points="137.715 110.25 137.705 112.864 136.291 112.049 136.306 109.436"></polygon>
                <polygon id="Path" stroke="#00402A" stroke-width="0.2721" fill="#DCEBE1" fill-rule="nonzero" stroke-linejoin="round" points="140.368 111.804 140.358 114.423 138.949 113.608 138.959 110.99"></polygon>
                <polygon id="Path" stroke="#00402A" stroke-width="0.2721" fill="#DCEBE1" fill-rule="nonzero" stroke-linejoin="round" points="137.715 115.652 137.705 118.27 136.291 117.45 136.306 114.837"></polygon>
                <polygon id="Path" stroke="#00402A" stroke-width="0.2721" fill="#DCEBE1" fill-rule="nonzero" stroke-linejoin="round" points="140.368 117.206 140.358 119.824 138.949 119.01 138.959 116.391"></polygon>
                <polygon id="Path" stroke="#00402A" stroke-width="0.2721" fill="#DCEBE1" fill-rule="nonzero" stroke-linejoin="round" points="137.715 121.213 137.705 123.831 136.291 123.017 136.306 120.399"></polygon>
                <polygon id="Path" stroke="#00402A" stroke-width="0.2721" fill="#DCEBE1" fill-rule="nonzero" stroke-linejoin="round" points="140.368 122.767 140.358 125.385 138.949 124.571 138.959 121.952"></polygon>
                <polygon id="Path" stroke="#00402A" stroke-width="0.2721" fill="#DCEBE1" fill-rule="nonzero" stroke-linejoin="round" points="135.102 108.916 135.092 111.53 133.683 110.715 133.693 108.102"></polygon>
                <polygon id="Path" stroke="#00402A" stroke-width="0.2721" fill="#DCEBE1" fill-rule="nonzero" stroke-linejoin="round" points="135.102 108.916 135.092 111.53 133.683 110.715 133.693 108.102"></polygon>
                <polygon id="Path" stroke="#00402A" stroke-width="0.2721" fill="#DCEBE1" fill-rule="nonzero" stroke-linejoin="round" points="135.102 114.318 135.092 116.931 133.683 116.117 133.693 113.503"></polygon>
                <polygon id="Path" stroke="#00402A" stroke-width="0.2721" fill="#DCEBE1" fill-rule="nonzero" stroke-linejoin="round" points="135.102 119.879 135.092 122.492 133.683 121.678 133.693 119.064"></polygon>
                <polygon id="Path" stroke="#00402A" stroke-width="0.2721" fill="#DCEBE1" fill-rule="nonzero" stroke-linejoin="round" points="137.7 129.622 137.69 132.24 136.276 131.426 136.291 128.807"></polygon>
                <polygon id="Path" stroke="#00402A" stroke-width="0.2721" fill="#DCEBE1" fill-rule="nonzero" stroke-linejoin="round" points="140.353 131.176 140.343 133.794 138.934 132.98 138.944 130.362"></polygon>
                <polygon id="Path" stroke="#00402A" stroke-width="0.2721" fill="#DCEBE1" fill-rule="nonzero" stroke-linejoin="round" points="137.7 135.023 137.69 137.642 136.276 136.827 136.291 134.209"></polygon>
                <polygon id="Path" stroke="#00402A" stroke-width="0.2721" fill="#DCEBE1" fill-rule="nonzero" stroke-linejoin="round" points="140.353 136.577 140.343 139.195 138.934 138.381 138.944 135.768"></polygon>
                <polygon id="Path" stroke="#00402A" stroke-width="0.2721" fill="#DCEBE1" fill-rule="nonzero" stroke-linejoin="round" points="137.7 140.585 137.69 143.203 136.276 142.388 136.291 139.77"></polygon>
                <polygon id="Path" stroke="#00402A" stroke-width="0.2721" fill="#DCEBE1" fill-rule="nonzero" stroke-linejoin="round" points="140.353 142.144 140.343 144.757 138.934 143.942 138.944 141.329"></polygon>
                <polygon id="Path" stroke="#00402A" stroke-width="0.2721" fill="#DCEBE1" fill-rule="nonzero" stroke-linejoin="round" points="135.086 128.288 135.076 130.906 133.667 130.092 133.677 127.474"></polygon>
                <polygon id="Path" stroke="#00402A" stroke-width="0.2721" fill="#DCEBE1" fill-rule="nonzero" stroke-linejoin="round" points="135.086 133.689 135.076 136.307 133.667 135.493 133.677 132.875"></polygon>
                <polygon id="Path" stroke="#00402A" stroke-width="0.2721" fill="#DCEBE1" fill-rule="nonzero" stroke-linejoin="round" points="135.086 139.25 135.076 141.869 133.667 141.054 133.677 138.436"></polygon>
                <polygon id="Path" stroke="#00402A" stroke-width="0.2721" fill="#FFF5EC" fill-rule="nonzero" stroke-linejoin="round" points="134.362 122.867 134.357 124.95 133.358 125.53 133.363 123.447"></polygon>
                <polygon id="Path" stroke="#00402A" stroke-width="0.2721" fill="#26BF64" fill-rule="nonzero" stroke-linejoin="round" points="139.779 127.569 139.774 129.652 132.634 125.53 132.644 123.447"></polygon>
                <polygon id="Path" stroke="#00402A" stroke-width="0.2721" fill="#26BF64" fill-rule="nonzero" stroke-linejoin="round" points="141.137 126.779 141.132 128.863 139.773 129.652 139.778 127.569"></polygon>
                <polygon id="Path" stroke="#00402A" stroke-width="0.2721" fill="#DCEBE1" fill-rule="nonzero" stroke-linejoin="round" points="141.137 126.779 139.778 127.569 132.643 123.447 133.997 122.657 134.362 122.867 133.363 123.447 139.778 127.154 140.778 126.574"></polygon>
                <polygon id="Path" stroke="#00402A" stroke-width="0.2721" fill="#FFF5EC" fill-rule="nonzero" stroke-linejoin="round" points="145.619 111.92 145.629 114.862 150.076 112.294 150.066 109.351"></polygon>
                <polygon id="Path" stroke="#00402A" stroke-width="0.2721" fill="#FFF5EC" fill-rule="nonzero" stroke-linejoin="round" points="145.619 117.806 145.629 120.748 150.076 118.18 150.066 115.237"></polygon>
                <polygon id="Path" stroke="#00402A" stroke-width="0.2721" fill="#FFF5EC" fill-rule="nonzero" stroke-linejoin="round" points="145.619 123.651 145.629 126.589 150.076 124.021 150.066 121.083"></polygon>
                <polygon id="Path" stroke="#00402A" stroke-width="0.2721" fill="#FFF5EC" fill-rule="nonzero" stroke-linejoin="round" points="145.619 129.537 145.629 132.475 150.076 129.907 150.066 126.969"></polygon>
                <polygon id="Path" stroke="#00402A" stroke-width="0.2721" fill="#FFF5EC" fill-rule="nonzero" stroke-linejoin="round" points="145.759 135.388 145.769 138.331 150.221 135.763 150.211 132.82"></polygon>
                <polygon id="Path" stroke="#00402A" stroke-width="0.2721" fill="#007F33" fill-rule="nonzero" stroke-linecap="round" stroke-linejoin="round" points="147.029 101.717 147.029 102.22 147.481 101.952 147.481 101.444"></polygon>
                <polygon id="Path" stroke="#00402A" stroke-width="0.2721" fill="#699282" fill-rule="nonzero" stroke-linecap="round" stroke-linejoin="round" points="147.029 101.717 147.029 102.22 146.577 101.952 146.577 101.444"></polygon>
                <polygon id="Path" stroke="#00402A" stroke-width="0.2721" fill="#FFF5EC" fill-rule="nonzero" stroke-linecap="round" stroke-linejoin="round" points="146.577 101.444 147.029 101.172 147.481 101.444 147.029 101.717"></polygon>
                <polygon id="Path" stroke="#00402A" stroke-width="0.2721" fill="#007F33" fill-rule="nonzero" stroke-linecap="round" stroke-linejoin="round" points="147.029 99.0867 147.029 101.603 147.257 101.466 147.257 98.9468"></polygon>
                <polygon id="Path" stroke="#00402A" stroke-width="0.2721" fill="#699282" fill-rule="nonzero" stroke-linecap="round" stroke-linejoin="round" points="147.029 99.0867 147.029 101.603 146.801 101.466 146.801 98.9468"></polygon>
                <polygon id="Path" stroke="#00402A" stroke-width="0.2721" fill="#007F33" fill-rule="nonzero" stroke-linecap="round" stroke-linejoin="round" points="143.335 103.908 143.335 104.416 143.787 104.144 143.787 103.636"></polygon>
                <polygon id="Path" stroke="#00402A" stroke-width="0.2721" fill="#699282" fill-rule="nonzero" stroke-linecap="round" stroke-linejoin="round" points="143.335 103.908 143.335 104.416 142.883 104.144 142.883 103.636"></polygon>
                <polygon id="Path" stroke="#00402A" stroke-width="0.2721" fill="#FFF5EC" fill-rule="nonzero" stroke-linecap="round" stroke-linejoin="round" points="142.883 103.636 143.335 103.364 143.788 103.636 143.335 103.908"></polygon>
                <polygon id="Path" stroke="#00402A" stroke-width="0.2721" fill="#FFF5EC" fill-rule="nonzero" stroke-linecap="round" stroke-linejoin="round" points="143.335 102.57 143.335 103.794 143.567 103.659 143.567 102.433"></polygon>
                <polygon id="Path" stroke="#00402A" stroke-width="0.2721" fill="#FFF5EC" fill-rule="nonzero" stroke-linecap="round" stroke-linejoin="round" points="143.336 102.57 143.336 103.794 143.108 103.659 143.108 102.433"></polygon>
                <polygon id="Path" stroke="#00402A" stroke-width="0.2721" fill="#007F33" fill-rule="nonzero" stroke-linecap="round" stroke-linejoin="round" points="137.996 100.735 137.996 101.238 138.448 100.97 138.448 100.462"></polygon>
                <polygon id="Path" stroke="#00402A" stroke-width="0.2721" fill="#699282" fill-rule="nonzero" stroke-linecap="round" stroke-linejoin="round" points="137.996 100.735 137.996 101.238 137.543 100.97 137.543 100.462"></polygon>
                <polygon id="Path" stroke="#00402A" stroke-width="0.2721" fill="#FFF5EC" fill-rule="nonzero" stroke-linecap="round" stroke-linejoin="round" points="137.543 100.462 137.996 100.19 138.448 100.462 137.996 100.734"></polygon>
                <polygon id="Path" stroke="#00402A" stroke-width="0.2721" fill="#FFF5EC" fill-rule="nonzero" stroke-linecap="round" stroke-linejoin="round" points="137.996 99.395 137.996 100.62 138.228 100.484 138.228 99.2559"></polygon>
                <polygon id="Path" stroke="#00402A" stroke-width="0.2721" fill="#FFF5EC" fill-rule="nonzero" stroke-linecap="round" stroke-linejoin="round" points="137.996 99.395 137.996 100.62 137.768 100.484 137.768 99.2559"></polygon>
                <polygon id="Path" stroke="#00402A" stroke-width="0.2721" fill="#FFFEFF" fill-rule="nonzero" stroke-linecap="round" stroke-linejoin="round" points="141.932 95.2393 137.024 99.9618 143.332 103.721 148.24 99.002"></polygon>
                <polygon id="Path" stroke="#00402A" stroke-width="0.2721" fill="#699282" fill-rule="nonzero" stroke-linecap="round" stroke-linejoin="round" points="143.332 103.721 143.332 103.894 137.024 100.135 137.024 99.9618"></polygon>
                <polygon id="Path" stroke="#00402A" stroke-width="0.2721" fill="#007F33" fill-rule="nonzero" stroke-linecap="round" stroke-linejoin="round" points="148.24 99.002 143.332 103.721 143.332 103.894 148.24 99.2043"></polygon>
                <path d="M141.875,95.5183 L140.939,96.4193 C140.946,96.4817 140.949,96.5075 140.957,96.5664 L142.175,97.2945 C142.235,97.2874 142.278,97.2838 142.339,97.2759 L143.261,96.3892 C143.254,96.3153 143.251,96.2902 143.243,96.2163 L142.043,95.4989 C141.979,95.5025 141.936,95.5097 141.875,95.5176 L141.875,95.5183 Z" id="Path" stroke="#00402A" stroke-width="0.2721" fill="#B4DEF7" fill-rule="nonzero" stroke-linecap="round" stroke-linejoin="round"></path>
                <path d="M143.399,96.4272 L142.463,97.3282 C142.47,97.3907 142.473,97.4165 142.481,97.4753 L143.699,98.2035 C143.759,98.1963 143.802,98.1927 143.863,98.1848 L144.785,97.2981 C144.778,97.2242 144.775,97.1991 144.767,97.1252 L143.567,96.4078 C143.503,96.415 143.46,96.4186 143.399,96.4265 L143.399,96.4272 Z" id="Path" stroke="#00402A" stroke-width="0.2721" fill="#3CC2FF" fill-rule="nonzero" stroke-linecap="round" stroke-linejoin="round"></path>
                <path d="M144.928,97.3355 L143.991,98.2366 C143.998,98.299 144.002,98.3248 144.009,98.3836 L145.227,99.1118 C145.288,99.1046 145.331,99.101 145.391,99.0931 L146.314,98.2064 C146.307,98.1326 146.303,98.1074 146.296,98.0335 L145.095,97.3162 C145.031,97.3233 144.988,97.3269 144.928,97.3348 L144.928,97.3355 Z" id="Path" stroke="#00402A" stroke-width="0.2721" fill="#3CC2FF" fill-rule="nonzero" stroke-linecap="round" stroke-linejoin="round"></path>
                <path d="M146.452,98.2444 L145.515,99.1454 C145.522,99.2078 145.526,99.2336 145.533,99.2924 L146.751,100.021 C146.812,100.013 146.855,100.01 146.915,100.002 L147.838,99.1153 C147.831,99.0414 147.827,99.0163 147.82,98.9424 L146.619,98.225 C146.555,98.2322 146.512,98.2401 146.452,98.2436 L146.452,98.2444 Z" id="Path" stroke="#00402A" stroke-width="0.2721" fill="#3CC2FF" fill-rule="nonzero" stroke-linecap="round" stroke-linejoin="round"></path>
                <path d="M140.674,96.6698 L139.738,97.5708 C139.745,97.6332 139.748,97.659 139.756,97.7179 L140.974,98.446 C141.034,98.4388 141.077,98.4353 141.138,98.4274 L142.06,97.5407 C142.054,97.4668 142.05,97.4417 142.042,97.3678 L140.842,96.6504 C140.778,96.6576 140.735,96.6611 140.674,96.669 L140.674,96.6698 Z" id="Path" stroke="#00402A" stroke-width="0.2721" fill="#3CC2FF" fill-rule="nonzero" stroke-linecap="round" stroke-linejoin="round"></path>
                <path d="M142.199,97.5822 L141.262,98.4833 C141.269,98.5457 141.273,98.5715 141.28,98.6303 L142.498,99.3585 C142.559,99.3513 142.602,99.3477 142.662,99.3398 L143.585,98.4531 C143.578,98.3793 143.574,98.3541 143.567,98.2803 L142.366,97.5629 C142.302,97.5664 142.259,97.5736 142.199,97.5815 L142.199,97.5822 Z" id="Path" stroke="#00402A" stroke-width="0.2721" fill="#3CC2FF" fill-rule="nonzero" stroke-linecap="round" stroke-linejoin="round"></path>
                <path d="M143.724,98.4904 L142.787,99.3915 C142.794,99.4539 142.798,99.4797 142.805,99.5385 L144.023,100.267 C144.084,100.26 144.127,100.256 144.187,100.248 L145.11,99.3613 C145.103,99.2875 145.099,99.2623 145.092,99.1885 L143.891,98.4711 C143.827,98.4783 143.784,98.4818 143.724,98.4897 L143.724,98.4904 Z" id="Path" stroke="#00402A" stroke-width="0.2721" fill="#B4DEF7" fill-rule="nonzero" stroke-linecap="round" stroke-linejoin="round"></path>
                <path d="M145.251,99.3994 L144.315,100.3 C144.322,100.363 144.325,100.389 144.333,100.447 L145.551,101.176 C145.611,101.168 145.654,101.165 145.715,101.157 L146.637,100.27 C146.63,100.196 146.627,100.171 146.619,100.097 L145.419,99.38 C145.355,99.3872 145.312,99.3908 145.251,99.3987 L145.251,99.3994 Z" id="Path" stroke="#00402A" stroke-width="0.2721" fill="#3CC2FF" fill-rule="nonzero" stroke-linecap="round" stroke-linejoin="round"></path>
                <path d="M139.474,97.8248 L138.538,98.7258 C138.545,98.7882 138.548,98.8141 138.556,98.8729 L139.773,99.601 C139.834,99.5939 139.877,99.5903 139.937,99.5824 L140.86,98.6957 C140.853,98.6218 140.85,98.5967 140.842,98.5228 L139.641,97.8054 C139.578,97.8126 139.535,97.8162 139.474,97.8241 L139.474,97.8248 Z" id="Path" stroke="#00402A" stroke-width="0.2721" fill="#B4DEF7" fill-rule="nonzero" stroke-linecap="round" stroke-linejoin="round"></path>
                <path d="M140.999,98.7373 L140.062,99.6383 C140.069,99.7007 140.073,99.7265 140.081,99.7854 L141.298,100.514 C141.359,100.506 141.402,100.503 141.462,100.495 L142.385,99.6082 C142.378,99.5343 142.375,99.5092 142.367,99.4353 L141.166,98.7179 C141.102,98.7215 141.059,98.7287 140.999,98.7366 L140.999,98.7373 Z" id="Path" stroke="#00402A" stroke-width="0.2721" fill="#3CC2FF" fill-rule="nonzero" stroke-linecap="round" stroke-linejoin="round"></path>
                <path d="M142.523,99.6455 L141.587,100.547 C141.594,100.609 141.597,100.635 141.605,100.694 L142.823,101.422 C142.883,101.415 142.926,101.411 142.987,101.403 L143.909,100.516 C143.902,100.442 143.899,100.417 143.891,100.343 L142.691,99.6261 C142.627,99.6333 142.584,99.6369 142.523,99.6448 L142.523,99.6455 Z" id="Path" stroke="#00402A" stroke-width="0.2721" fill="#3CC2FF" fill-rule="nonzero" stroke-linecap="round" stroke-linejoin="round"></path>
                <path d="M144.051,100.554 L143.115,101.455 C143.122,101.517 143.125,101.543 143.133,101.602 L144.351,102.33 C144.411,102.323 144.454,102.319 144.515,102.311 L145.437,101.425 C145.43,101.351 145.427,101.326 145.419,101.252 L144.219,100.534 C144.155,100.541 144.112,100.545 144.051,100.553 L144.051,100.554 Z" id="Path" stroke="#00402A" stroke-width="0.2721" fill="#3CC2FF" fill-rule="nonzero" stroke-linecap="round" stroke-linejoin="round"></path>
                <path d="M138.274,98.9797 L137.337,99.8807 C137.344,99.9432 137.348,99.969 137.355,100.028 L138.573,100.756 C138.634,100.749 138.677,100.745 138.737,100.737 L139.66,99.8506 C139.653,99.7767 139.649,99.7516 139.642,99.6777 L138.441,98.9603 C138.377,98.9675 138.334,98.9711 138.274,98.979 L138.274,98.9797 Z" id="Path" stroke="#00402A" stroke-width="0.2721" fill="#3CC2FF" fill-rule="nonzero" stroke-linecap="round" stroke-linejoin="round"></path>
                <path d="M139.799,99.8879 L138.862,100.789 C138.869,100.851 138.872,100.877 138.88,100.936 L140.098,101.664 C140.158,101.657 140.201,101.653 140.262,101.645 L141.184,100.759 C141.178,100.685 141.174,100.66 141.166,100.586 L139.966,99.8685 C139.902,99.8757 139.859,99.8793 139.799,99.8872 L139.799,99.8879 Z" id="Path" stroke="#00402A" stroke-width="0.2721" fill="#B4DEF7" fill-rule="nonzero" stroke-linecap="round" stroke-linejoin="round"></path>
                <path d="M141.323,100.8 L140.386,101.702 C140.393,101.764 140.397,101.79 140.405,101.849 L141.622,102.577 C141.683,102.57 141.726,102.566 141.786,102.558 L142.709,101.671 C142.702,101.598 142.698,101.572 142.691,101.499 L141.49,100.781 C141.426,100.785 141.383,100.792 141.323,100.8 L141.323,100.8 Z" id="Path" stroke="#00402A" stroke-width="0.2721" fill="#3CC2FF" fill-rule="nonzero" stroke-linecap="round" stroke-linejoin="round"></path>
                <path d="M142.848,101.709 L141.911,102.61 C141.918,102.672 141.922,102.694 141.929,102.757 L143.147,103.485 C143.208,103.478 143.251,103.474 143.311,103.466 L144.234,102.58 C144.227,102.506 144.223,102.481 144.216,102.407 L143.015,101.689 C142.951,101.696 142.908,101.7 142.848,101.708 L142.848,101.709 Z" id="Path" stroke="#00402A" stroke-width="0.2721" fill="#B4DEF7" fill-rule="nonzero" stroke-linecap="round" stroke-linejoin="round"></path>
                <path d="M109.124,139.252 C109.201,139.05 109.706,138.564 109.706,138.564 L117.169,137.083 C117.169,137.083 117.224,137.968 117.216,138.052 C117.173,138.531 115.419,139.08 115.419,139.08 L115.046,138.915 C114.852,138.959 114.556,139.058 114.314,139.182 C113.886,139.405 113.172,139.848 112.455,140.137 C111.737,140.426 110.899,140.7 110.058,140.477 C109.216,140.257 109,139.577 109.121,139.244 L109.124,139.252 Z" id="Path" stroke="#00402A" stroke-width="0.2721" fill="#FFF5EC" fill-rule="nonzero" stroke-linejoin="round"></path>
                <path d="M113.959,134.855 C113.959,134.855 113.505,135.042 112.451,136.106 C111.397,137.167 109.435,138.297 109.132,138.919 C108.872,139.449 109.091,139.983 110.076,140.265 C111.035,140.539 112.579,139.87 113.538,139.219 C114.497,138.571 116.634,138.191 117.026,137.532 C117.414,136.885 116.935,135.773 116.755,135.499 C116.576,135.224 116.192,134.336 113.963,134.855 L113.959,134.855 Z" id="Path" stroke="#00402A" stroke-width="0.2721" fill="#00402A" fill-rule="nonzero" stroke-linejoin="round"></path>
                <path d="M116.426,132.949 C116.426,132.949 116.246,134.753 116.294,135.25 C116.342,135.748 114.212,136.047 113.63,135.385 C113.63,135.385 113.534,134.233 113.516,133.443" id="Path" fill="#FFD1A4" fill-rule="nonzero"></path>
                <path d="M116.426,132.949 C116.426,132.949 116.246,134.753 116.294,135.25 C116.342,135.748 114.212,136.047 113.63,135.385 C113.63,135.385 113.534,134.233 113.516,133.443" id="Path" stroke="#00402A" stroke-width="0.2721" stroke-linejoin="round"></path>
                <path d="M121.173,141.878 C121.173,141.878 120.77,142.763 120.767,143.366 C120.767,143.941 121.056,144.541 121.455,144.837 C121.791,145.086 122.834,145.572 124.547,144.423 C126.227,143.297 125.806,141.15 125.777,140.835 C125.751,140.517 125.708,139.544 125.773,139.054" id="Path" fill="#FFF5EC" fill-rule="nonzero"></path>
                <path d="M121.173,141.878 C121.173,141.878 120.77,142.763 120.767,143.366 C120.767,143.941 121.056,144.541 121.455,144.837 C121.791,145.086 122.834,145.572 124.547,144.423 C126.227,143.297 125.806,141.15 125.777,140.835 C125.751,140.517 125.708,139.544 125.773,139.054" id="Path" stroke="#00402A" stroke-width="0.2721" stroke-linejoin="round"></path>
                <path d="M125.799,138.871 C125.799,138.871 125.712,139.402 125.708,140.576 C125.701,141.75 125.744,142.54 125.141,143.385 C124.39,144.435 122.831,145.045 121.927,144.683 C120.675,144.179 120.8,142.756 121.049,141.984 C121.298,141.212 122.18,140.455 122.344,139.632 C122.509,138.809 122.18,137.145 123.86,136.922 C125.32,136.728 126.07,137.416 125.799,138.871 Z" id="Path" stroke="#00402A" stroke-width="0.2721" fill="#00402A" fill-rule="nonzero" stroke-linejoin="round"></path>
                <path d="M125.605,135.532 C125.605,135.532 125.426,137.335 125.473,137.832 C125.517,138.275 123.823,138.564 123.043,138.147 C122.889,138.066 122.801,137.898 122.787,137.723 C122.758,137.342 122.706,136.589 122.692,136.022" id="Path" fill="#FFD1A4" fill-rule="nonzero"></path>
                <path d="M125.605,135.532 C125.605,135.532 125.426,137.335 125.473,137.832 C125.517,138.275 123.823,138.564 123.043,138.147 C122.889,138.066 122.801,137.898 122.787,137.723 C122.758,137.342 122.706,136.589 122.692,136.022" id="Path" stroke="#00402A" stroke-width="0.2721" stroke-linejoin="round"></path>
                <path d="M112.191,119.233 C112.521,121.121 113.077,132.54 113.165,134.358 C113.172,134.508 113.264,134.643 113.403,134.701 C115.039,135.367 116.32,134.764 116.766,134.5 C116.873,134.434 116.942,134.328 116.953,134.204 C117.078,132.869 117.842,124.727 117.875,124.493 C118.238,121.794 118.084,118.454 117.85,117.609 C117.616,116.764 118.183,110.766 118.856,108.546 C119.164,107.533 119.413,106.856 119.618,106.187 C119.863,105.393 120.038,104.614 120.159,103.301 C120.39,100.865 119.222,98.6445 119.222,98.6445 C119.222,98.6445 112.126,98.1324 111.957,99.9429 C111.749,102.185 111.383,114.617 112.188,119.233 L112.191,119.233 Z" id="Path" stroke="#00402A" stroke-width="0.2721" fill="#3A3735" fill-rule="nonzero" stroke-linejoin="round"></path>
                <path d="M124.829,101.366 C124.829,101.366 126.173,103.619 126.132,106.048 C126.092,108.458 126.059,109.08 125.558,111.282 C125.056,113.484 126.213,119.376 126.513,120.225 C126.813,121.077 127.091,123.783 126.937,126.475 C126.806,128.809 126.169,135.221 126.037,136.53 C126.022,136.688 125.938,136.827 125.803,136.911 C125.334,137.196 124.119,137.745 122.516,137.108 C122.33,137.035 122.201,136.87 122.183,136.673 C122.018,134.68 121.06,123.418 120.419,121.592 C118.867,117.189 117.378,108.597 117.092,106.973 C116.305,104.844 116.591,102.869 116.591,101.717 C116.591,100.565 124.833,101.366 124.833,101.366 L124.829,101.366 Z" id="Path" stroke="#00402A" stroke-width="0.2721" fill="#615D5A" fill-rule="nonzero" stroke-linejoin="round"></path>
                <path d="M110.957,83.3749 C111.028,83.3926 111.104,83.4132 111.184,83.4335 C111.294,83.4615 111.412,83.4918 111.534,83.5243 C111.611,83.5448 111.69,83.5666 111.77,83.5887 C111.916,83.6288 112.066,83.6719 112.218,83.7167 C112.552,83.8148 112.896,83.9218 113.216,84.037 C113.338,84.0808 113.457,84.1263 113.571,84.1718 C113.59,84.1793 113.609,84.1866 113.627,84.1942 C113.71,84.228 113.79,84.2632 113.867,84.2977 C113.902,84.3134 113.936,84.3288 113.969,84.3446 C114.036,84.3762 114.099,84.4084 114.159,84.4403 C114.241,84.4846 114.317,84.5285 114.384,84.5731 C114.399,84.5832 114.414,84.5933 114.428,84.6034 C114.476,84.6368 114.518,84.6696 114.555,84.703 C114.579,84.7246 114.6,84.7469 114.619,84.7684 C114.626,84.7768 114.633,84.7855 114.639,84.7938 C114.651,84.8083 114.661,84.8224 114.67,84.8368 C114.676,84.845 114.681,84.853 114.685,84.8612 C114.697,84.8838 114.707,84.9061 114.713,84.9286 C114.722,84.9616 114.728,85.0003 114.731,85.0448 C114.776,85.6831 114.246,87.5062 113.054,90.4979 L113.136,91.0214 C113.136,91.0214 111.149,92.0129 110.435,92.3495 C108.958,93.0404 104.239,94.8124 104.184,94.8329 L103.814,94.1532 L103.188,92.9198 L103.192,92.9198 C103.309,92.8392 103.693,92.5835 104.242,92.2108 C104.908,91.7573 105.823,91.1313 106.811,90.4364 C107.783,89.7546 108.825,88.9875 109.818,88.2772 C109.841,88.0328 109.867,87.7861 109.89,87.5399 C110.097,85.3688 110.293,83.2457 110.295,83.2167 L110.957,83.3749 Z" id="Path" fill="#FFD1A4" fill-rule="nonzero"></path>
                <path d="M110.957,83.3749 L110.989,83.2428 L110.988,83.2426 L110.957,83.3749 Z M111.184,83.4335 L111.151,83.5653 L111.151,83.5653 L111.184,83.4335 Z M111.534,83.5243 L111.569,83.3928 L111.569,83.3928 L111.534,83.5243 Z M111.77,83.5887 L111.734,83.7199 L111.734,83.7199 L111.77,83.5887 Z M112.218,83.7167 L112.257,83.5861 L112.257,83.5861 L112.218,83.7167 Z M113.216,84.037 L113.17,84.165 L113.17,84.165 L113.216,84.037 Z M113.571,84.1718 L113.621,84.0454 L113.621,84.0454 L113.571,84.1718 Z M113.627,84.1942 L113.576,84.3202 L113.576,84.3202 L113.627,84.1942 Z M113.867,84.2977 L113.923,84.1737 L113.923,84.1737 L113.867,84.2977 Z M113.969,84.3446 L113.911,84.4675 L113.911,84.4675 L113.969,84.3446 Z M114.159,84.4403 L114.223,84.3204 L114.223,84.3204 L114.159,84.4403 Z M114.384,84.5731 L114.309,84.6864 L114.309,84.6864 L114.384,84.5731 Z M114.428,84.6034 L114.507,84.4923 L114.507,84.4923 L114.428,84.6034 Z M114.555,84.703 L114.464,84.8037 L114.464,84.8037 L114.555,84.703 Z M114.619,84.7684 L114.721,84.6785 L114.721,84.6784 L114.619,84.7684 Z M114.639,84.7938 L114.533,84.8783 L114.533,84.8784 L114.639,84.7938 Z M114.67,84.8368 L114.785,84.764 L114.785,84.764 L114.67,84.8368 Z M114.685,84.8612 L114.565,84.9258 L114.565,84.9258 L114.685,84.8612 Z M114.713,84.9286 L114.845,84.894 L114.845,84.8934 L114.713,84.9286 Z M114.731,85.0448 L114.595,85.0544 L114.595,85.0544 L114.731,85.0448 Z M113.054,90.4979 L112.928,90.4476 C112.919,90.4702 112.916,90.4949 112.92,90.519 L113.054,90.4979 Z M113.136,91.0214 L113.197,91.1431 C113.25,91.1166 113.28,91.0589 113.271,91.0003 L113.136,91.0214 Z M110.435,92.3495 L110.493,92.4727 L110.493,92.4725 L110.435,92.3495 Z M104.184,94.8329 L104.065,94.8979 C104.097,94.9575 104.168,94.9841 104.232,94.9603 L104.184,94.8329 Z M103.814,94.1532 L103.693,94.2148 L103.694,94.2183 L103.814,94.1532 Z M103.188,92.9198 L103.188,92.7837 C103.141,92.7837 103.097,92.8083 103.072,92.8486 C103.047,92.8889 103.045,92.9392 103.067,92.9814 L103.188,92.9198 Z M103.192,92.9198 L103.192,93.0559 C103.219,93.0559 103.246,93.0475 103.269,93.0319 L103.192,92.9198 Z M104.242,92.2108 L104.318,92.3233 L104.318,92.3233 L104.242,92.2108 Z M106.811,90.4364 L106.733,90.325 L106.733,90.3251 L106.811,90.4364 Z M109.818,88.2772 L109.897,88.3879 C109.929,88.365 109.95,88.3294 109.953,88.2902 L109.818,88.2772 Z M109.89,87.5399 L110.026,87.5528 L110.026,87.5528 L109.89,87.5399 Z M110.295,83.2167 L110.327,83.0844 C110.289,83.0752 110.248,83.0831 110.216,83.1061 C110.184,83.1291 110.164,83.1649 110.16,83.2043 L110.295,83.2167 Z M110.957,83.3749 L110.924,83.507 C110.996,83.5248 111.067,83.5441 111.151,83.5653 L111.184,83.4335 L111.218,83.3016 C111.142,83.2823 111.061,83.2604 110.989,83.2428 L110.957,83.3749 Z M111.184,83.4335 L111.151,83.5653 C111.26,83.5933 111.377,83.6234 111.499,83.6558 L111.534,83.5243 L111.569,83.3928 C111.446,83.3601 111.328,83.3297 111.218,83.3016 L111.184,83.4335 Z M111.534,83.5243 L111.499,83.6558 C111.575,83.6761 111.653,83.6977 111.734,83.7199 L111.77,83.5887 L111.806,83.4576 C111.726,83.4355 111.646,83.4135 111.569,83.3928 L111.534,83.5243 Z M111.77,83.5887 L111.734,83.7199 C111.879,83.7597 112.028,83.8026 112.18,83.8472 L112.218,83.7167 L112.257,83.5861 C112.104,83.5412 111.953,83.4979 111.806,83.4576 L111.77,83.5887 Z M112.218,83.7167 L112.18,83.8472 C112.513,83.945 112.853,84.0512 113.17,84.165 L113.216,84.037 L113.262,83.9089 C112.938,83.7925 112.592,83.6847 112.257,83.5861 L112.218,83.7167 Z M113.216,84.037 L113.17,84.165 C113.291,84.2082 113.408,84.2531 113.52,84.2981 L113.571,84.1718 L113.621,84.0454 C113.506,83.9994 113.386,83.9534 113.262,83.9089 L113.216,84.037 Z M113.571,84.1718 L113.52,84.2981 C113.542,84.3069 113.557,84.3125 113.576,84.3202 L113.627,84.1942 L113.679,84.0682 C113.66,84.0607 113.637,84.0517 113.621,84.0454 L113.571,84.1718 Z M113.627,84.1942 L113.576,84.3202 C113.657,84.3531 113.735,84.3875 113.811,84.4218 L113.867,84.2977 L113.923,84.1737 C113.845,84.139 113.764,84.103 113.679,84.0682 L113.627,84.1942 Z M113.867,84.2977 L113.811,84.4218 C113.846,84.4377 113.879,84.4524 113.911,84.4675 L113.969,84.3446 L114.028,84.2217 C113.993,84.2051 113.957,84.1891 113.923,84.1737 L113.867,84.2977 Z M113.969,84.3446 L113.911,84.4675 C113.975,84.4981 114.036,84.5292 114.095,84.5603 L114.159,84.4403 L114.223,84.3204 C114.161,84.2875 114.096,84.2543 114.028,84.2217 L113.969,84.3446 Z M114.159,84.4403 L114.094,84.5603 C114.175,84.6033 114.247,84.645 114.309,84.6864 L114.384,84.5731 L114.46,84.4599 C114.388,84.412 114.308,84.3658 114.223,84.3204 L114.159,84.4403 Z M114.384,84.5731 L114.309,84.6864 C114.323,84.6955 114.336,84.7048 114.35,84.7145 L114.428,84.6034 L114.507,84.4923 C114.492,84.4818 114.476,84.4709 114.46,84.4599 L114.384,84.5731 Z M114.428,84.6034 L114.35,84.7145 C114.395,84.7465 114.433,84.7755 114.464,84.8037 L114.555,84.703 L114.647,84.6023 C114.604,84.5636 114.556,84.5272 114.507,84.4923 L114.428,84.6034 Z M114.555,84.703 L114.464,84.8037 C114.482,84.8205 114.499,84.8386 114.517,84.8584 L114.619,84.7684 L114.721,84.6784 C114.7,84.6551 114.676,84.6287 114.647,84.6023 L114.555,84.703 Z M114.619,84.7684 L114.517,84.8584 C114.521,84.8632 114.523,84.8664 114.533,84.8783 L114.639,84.7938 L114.746,84.7093 C114.742,84.7045 114.731,84.6904 114.721,84.6785 L114.619,84.7684 Z M114.639,84.7938 L114.533,84.8784 C114.543,84.8917 114.55,84.9013 114.555,84.9096 L114.67,84.8368 L114.785,84.764 C114.772,84.7434 114.758,84.7249 114.746,84.7093 L114.639,84.7938 Z M114.67,84.8368 L114.555,84.9096 C114.561,84.9182 114.563,84.9223 114.565,84.9258 L114.685,84.8612 L114.805,84.7967 C114.798,84.7837 114.79,84.7719 114.785,84.764 L114.67,84.8368 Z M114.685,84.8612 L114.565,84.9258 C114.575,84.9439 114.58,84.9557 114.582,84.9637 L114.713,84.9286 L114.845,84.8934 C114.835,84.8566 114.819,84.8238 114.805,84.7966 L114.685,84.8612 Z M114.713,84.9286 L114.582,84.9632 C114.588,84.9856 114.593,85.0155 114.595,85.0544 L114.731,85.0448 L114.867,85.0352 C114.863,84.9851 114.856,84.9375 114.845,84.894 L114.713,84.9286 Z M114.731,85.0448 L114.595,85.0544 C114.605,85.1952 114.584,85.4143 114.522,85.7185 C114.462,86.0203 114.364,86.397 114.226,86.8493 C113.952,87.7538 113.523,88.9536 112.928,90.4476 L113.054,90.4979 L113.181,90.5483 C113.777,89.0505 114.209,87.8429 114.487,86.9283 C114.625,86.4711 114.726,86.0854 114.789,85.7723 C114.852,85.4617 114.879,85.2135 114.867,85.0352 L114.731,85.0448 Z M113.054,90.4979 L112.92,90.519 L113.002,91.0424 L113.136,91.0214 L113.271,91.0003 L113.189,90.4769 L113.054,90.4979 Z M113.136,91.0214 C113.075,90.8996 113.075,90.8996 113.075,90.8996 C113.075,90.8996 113.075,90.8997 113.075,90.8997 C113.075,90.8997 113.075,90.8997 113.075,90.8998 C113.075,90.8999 113.075,90.9001 113.074,90.9003 C113.073,90.9008 113.072,90.9015 113.07,90.9025 C113.066,90.9044 113.06,90.9072 113.053,90.9108 C113.038,90.9182 113.017,90.929 112.989,90.9429 C112.933,90.9706 112.853,91.0106 112.754,91.0597 C112.557,91.1579 112.286,91.2923 111.993,91.4373 C111.407,91.7274 110.733,92.0588 110.377,92.2264 L110.435,92.3495 L110.493,92.4725 C110.851,92.3036 111.528,91.971 112.114,91.6811 C112.407,91.5361 112.678,91.4016 112.875,91.3034 C112.974,91.2542 113.054,91.2142 113.11,91.1864 C113.138,91.1725 113.16,91.1617 113.174,91.1543 C113.182,91.1507 113.187,91.1479 113.191,91.146 C113.193,91.145 113.195,91.1443 113.196,91.1438 C113.196,91.1436 113.196,91.1434 113.197,91.1433 C113.197,91.1432 113.197,91.1432 113.197,91.1431 C113.197,91.1431 113.197,91.1431 113.197,91.1431 C113.197,91.1431 113.197,91.1431 113.136,91.0214 Z M110.435,92.3495 L110.377,92.2262 C108.906,92.9143 104.194,94.6838 104.136,94.7055 L104.184,94.8329 L104.232,94.9603 C104.283,94.9409 109.009,93.1665 110.493,92.4727 L110.435,92.3495 Z M104.184,94.8329 L104.304,94.7678 L103.933,94.0881 L103.814,94.1532 L103.694,94.2183 L104.065,94.8979 L104.184,94.8329 Z M103.814,94.1532 L103.935,94.0916 L103.309,92.8582 L103.188,92.9198 L103.067,92.9814 L103.693,94.2148 L103.814,94.1532 Z M103.188,92.9198 L103.188,93.0559 L103.192,93.0559 L103.192,92.9198 L103.192,92.7837 L103.188,92.7837 L103.188,92.9198 Z M103.192,92.9198 L103.269,93.0319 C103.387,92.9511 103.767,92.6976 104.318,92.3233 L104.242,92.2108 L104.165,92.0983 C103.619,92.4693 103.232,92.7272 103.115,92.8077 L103.192,92.9198 Z M104.242,92.2108 L104.318,92.3233 C104.985,91.8696 105.9,91.2432 106.889,90.5477 L106.811,90.4364 L106.733,90.3251 C105.745,91.0194 104.831,91.645 104.165,92.0984 L104.242,92.2108 Z M106.811,90.4364 L106.889,90.5478 C107.861,89.8658 108.906,89.0963 109.897,88.3879 L109.818,88.2772 L109.739,88.1666 C108.743,88.8787 107.705,89.6434 106.733,90.325 L106.811,90.4364 Z M109.818,88.2772 L109.953,88.2902 C109.976,88.0495 110.002,87.7965 110.026,87.5528 L109.89,87.5399 L109.755,87.527 C109.731,87.7757 109.706,88.016 109.682,88.2642 L109.818,88.2772 Z M109.89,87.5399 L110.026,87.5528 C110.232,85.3815 110.428,83.2582 110.431,83.2291 L110.295,83.2167 L110.16,83.2043 C110.157,83.2332 109.962,85.3561 109.755,87.527 L109.89,87.5399 Z M110.295,83.2167 L110.264,83.349 L110.925,83.5072 L110.957,83.3749 L110.988,83.2426 L110.327,83.0844 L110.295,83.2167 Z" id="Shape" fill="#00402A" fill-rule="nonzero"></path>
                <path d="M111.053,77.6934 C111.053,77.6934 110.233,81.0036 109.772,86.3913 C109.772,86.3913 110.826,87.0643 113.136,87.3825" id="Path" fill="url(#linearGradient-1)" fill-rule="nonzero"></path>
                <path d="M111.053,77.6934 C111.053,77.6934 110.233,81.0036 109.772,86.3913 C109.772,86.3913 110.826,87.0643 113.136,87.3825" id="Path" stroke="#00402A" stroke-width="0.2721" stroke-linejoin="round"></path>
                <path d="M112.151,96.9656 C112.978,90.9305 110.859,80.1258 110.98,78.2129 C110.995,78.0044 111.024,77.7996 111.075,77.6057 C111.416,76.2634 112.547,75.2648 113.901,74.9539 C115.573,74.5662 118.084,74.9429 119.017,75.1441 C119.621,75.2685 120.221,75.4148 120.803,75.594 C120.928,75.6306 121.049,75.6672 121.169,75.7074 L121.733,75.9159 C122.348,76.1573 127.615,79.1017 128.175,80.883 C128.24,81.0951 128.376,81.2963 128.464,81.5304 C128.508,82.2473 127.256,86.9912 126.828,88.3994 C126.623,89.0614 126.385,89.7198 126.14,90.3745 C125.265,92.7227 124.354,95.0819 124.877,97.6459 C124.895,97.7374 126.224,102.661 125.968,103.601 C125.708,104.541 122.494,105.239 120.924,104.976 C116.228,104.189 113.143,101.655 112.224,100.718 C111.913,100.503 111.745,100.133 111.793,99.7491 C111.891,98.9261 112.016,97.9824 112.159,96.9656 L112.151,96.9656 Z" id="Path" stroke="#00402A" stroke-width="0.2721" fill="#FFFFFF" fill-rule="nonzero" stroke-linejoin="round"></path>
                <path d="M123.245,85.861 C123.245,85.861 124.215,90.6415 124.449,91.7351 C124.687,92.8288 124.874,93.5091 124.914,94.215 C124.914,94.215 125.064,93.2677 125.95,90.828 C126.429,89.4967 123.245,85.861 123.245,85.861 Z" id="Path" stroke="#00402A" stroke-width="0.2721" fill="url(#linearGradient-2)" fill-rule="nonzero" stroke-linejoin="round"></path>
                <path d="M116.796,75.9377 C116.796,75.9377 115.68,77.0021 116.573,77.8068 L117.093,76.6839 L116.595,76.2304" id="Path" fill="#E5AE80" fill-rule="nonzero"></path>
                <path d="M116.796,75.9377 C116.796,75.9377 115.68,77.0021 116.573,77.8068 L117.093,76.6839 L116.595,76.2304" id="Path" stroke="#00402A" stroke-width="0.2721" stroke-linejoin="round"></path>
                <path d="M121.272,71.9802 L121.148,76.3145 C121.148,76.3145 117.887,78.8566 116.573,77.8068 C116.551,77.0387 116.558,75.2063 116.576,74.1455 L117.813,73.8968 L121.268,71.9839 L121.272,71.9802 Z" id="Path" stroke="#00402A" stroke-width="0.2721" fill="#FFC48F" fill-rule="nonzero" stroke-linejoin="round"></path>
                <path d="M114.194,68.6519 C114.194,68.6519 113.985,70.7477 114.417,72.6643 C114.849,74.5809 114.981,75.0125 115.753,75.3527 C116.525,75.6928 117.22,75.7294 118.52,74.8955 C119.819,74.0615 120.529,72.7009 120.529,72.7009 C120.529,72.7009 120.716,72.8216 121.177,72.2985 C121.905,71.4792 122.044,71.0696 122.044,69.9576 C122.044,68.8457 121.766,67.4448 120.899,65.9928 C120.031,64.5407 117.374,65.0052 116.166,65.6233 C114.959,66.2415 114.417,67.4083 114.186,68.6519 L114.194,68.6519 Z" id="Path" stroke="#00402A" stroke-width="0.2721" fill="#FFD1A4" fill-rule="nonzero" stroke-linejoin="round"></path>
                <path d="M114.054,68.9042 C115.303,69.9942 117.729,68.9042 117.729,68.9042 L117.777,69.5443 C118.022,70.5648 118.736,70.6599 119.08,70.8464 C119.42,71.0366 119.5,72.079 119.5,72.079 L119.936,72.0315 C119.936,72.0315 119.921,71.0402 120.075,70.5428 C120.232,70.0454 121.056,69.6613 121.517,70.3855 C121.898,70.9781 121.539,71.6913 121.257,72.207 C121.257,72.207 122.044,72.4448 122.249,69.2297 C122.249,69.2297 123.72,67.1741 121.784,66.1244 C121.594,65.0856 120.375,64.2517 118.71,64.2626 C118.71,64.2626 116.562,64.12 115.467,65.3855 C114.142,66.9181 113.868,66.8815 113.491,66.5231 C112.975,67.0498 113.205,68.1617 114.054,68.9042 Z" id="Path" stroke="#00402A" stroke-width="0.2721" fill="#3A3735" fill-rule="nonzero" stroke-linejoin="round"></path>
                <polygon id="Path" stroke="#00402A" stroke-width="0.2721" fill="#D6D6D6" fill-rule="nonzero" stroke-linejoin="round" points="117.242 77.1813 117.092 78.1982 117.894 78.1287"></polygon>
                <polygon id="Path" stroke="#00402A" stroke-width="0.2721" fill="#D6D6D6" fill-rule="nonzero" stroke-linejoin="round" points="116.825 77.1155 116.825 78.2676 116.316 77.8068"></polygon>
                <path d="M117.465,77.6898 C117.465,77.6898 117.041,77.752 116.598,77.3862 L116.225,78.1397 L116.345,79.1017 L117.004,79.365 L117.681,78.542" id="Path" fill="#008C39" fill-rule="nonzero"></path>
                <path d="M117.465,77.6898 C117.465,77.6898 117.041,77.752 116.598,77.3862 L116.225,78.1397 L116.345,79.1017 L117.004,79.365 L117.681,78.542" id="Path" stroke="#00402A" stroke-width="0.2721" stroke-linejoin="round"></path>
                <path d="M121.652,75.8865 L121.188,74.9392 C121.188,74.9392 119.552,76.5778 117.246,77.1777 L117.656,78.6078 C117.656,78.6078 120.357,77.9458 121.656,75.8865 L121.652,75.8865 Z" id="Path" stroke="#00402A" stroke-width="0.2721" fill="#EFEFEF" fill-rule="nonzero" stroke-linejoin="round"></path>
                <path d="M116.558,76.022 C116.558,76.022 116.547,76.7828 116.825,77.1156 L116.228,78.2678 C116.228,78.2678 115.613,76.9144 116.561,76.022 L116.558,76.022 Z" id="Path" stroke="#00402A" stroke-width="0.2721" fill="#EFEFEF" fill-rule="nonzero" stroke-linejoin="round"></path>
                <path d="M117.004,79.365 C117.004,79.365 117.403,93.0739 117.004,97.7849 C116.924,98.714 115.668,101.077 115.273,101.09106 C114.878,101.11 113.637,96.6218 113.64099,94.9027 C113.648,93.1836 116.346,79.1017 116.346,79.1017" id="Path" fill="#00A443" fill-rule="nonzero"></path>
                <path d="M117.004,79.365 C117.004,79.365 117.403,93.0739 117.004,97.7849 C116.924,98.714 115.668,101.077 115.273,101.09106 C114.878,101.11 113.637,96.6218 113.64099,94.9027 C113.648,93.1836 116.346,79.1017 116.346,79.1017" id="Path" stroke="#00402A" stroke-width="0.2721" stroke-linejoin="round"></path>
                <path d="M118.567,105.345 L104.74,97.2656 C104.191,96.9437 103.741,96.4828 103.437,95.9232 L97.9871,85.8903 C97.7932,85.5318 98.1921,85.1478 98.5434,85.3526 L112.371,93.4323 C112.92,93.7542 113.37,94.2151 113.67,94.7747 L119.12,104.808 C119.314,105.166 118.915,105.55 118.563,105.345 L118.567,105.345 Z" id="Path" stroke="#00402A" stroke-width="0.2721" fill="#0DA9FF" fill-rule="nonzero" stroke-linejoin="round"></path>
                <path d="M129.551,86.366 C129.563,86.4032 132.011,93.8 130.941,94.5662 L130.9,94.6111 C130.352,95.1199 126.136,96.8461 122.682,97.9128 C119.575,98.8711 118.934,99.438 118.787,99.5222 C118.546,99.6795 117.649,100.484 116.99,100.89 C116.804,101.004 116.283,101.172 115.789,100.93 C115.006,100.548 114.512,100.111 114.469,100.075 C113.946,99.6107 113.495,98.3459 113.758,98.3591 L113.762,98.3591 C113.912,98.3664 115.222,99.1084 115.445,99.032 C115.665,98.9589 115.749,98.674 115.749,98.6042 C115.749,98.5389 115.234,97.6459 115.226,97.6316 C115.226,97.6316 115.266,97.5802 115.508,97.4851 L115.512,97.4851 C115.643,97.4632 115.734,97.4525 115.764,97.4597 C115.906,97.4963 116.792,97.8467 117.114,97.6931 C117.235,97.6346 117.374,97.5724 117.517,97.5066 C117.517,97.5066 120.404,95.9672 122.044,94.9138 C122.993,94.3044 124.756,93.2377 126.11,92.4246 C125.353,91.1095 124.248,88.5356 124.236,88.5095 L129.551,86.366 Z" id="Path" fill="#FFD1A4" fill-rule="nonzero"></path>
                <path d="M129.551,86.366 L129.68,86.3232 C129.668,86.2875 129.642,86.2583 129.608,86.2425 C129.574,86.2267 129.535,86.2257 129.5,86.2398 L129.551,86.366 Z M130.941,94.5662 L130.862,94.4556 C130.854,94.4611 130.847,94.4674 130.841,94.4744 L130.941,94.5662 Z M130.9,94.6111 L130.993,94.7112 L131.001,94.7028 L130.9,94.6111 Z M122.682,97.9128 L122.722,98.0428 L122.722,98.0428 L122.682,97.9128 Z M118.787,99.5222 L118.719,99.4041 L118.713,99.4082 L118.787,99.5222 Z M116.99,100.89 L117.061,101.007 L117.062,101.006 L116.99,100.89 Z M115.789,100.93 L115.849,100.808 L115.849,100.808 L115.789,100.93 Z M114.469,100.075 L114.378,100.177 L114.382,100.18 L114.469,100.075 Z M113.758,98.3591 L113.751,98.4952 L113.758,98.4952 L113.758,98.3591 Z M113.762,98.3591 L113.768,98.2231 L113.762,98.2231 L113.762,98.3591 Z M115.445,99.032 L115.402,98.9029 L115.401,98.9032 L115.445,99.032 Z M115.749,98.6042 L115.885,98.6045 L115.885,98.6042 L115.749,98.6042 Z M115.226,97.6316 L115.119,97.5472 C115.084,97.5909 115.08,97.6513 115.108,97.6996 L115.226,97.6316 Z M115.508,97.4851 L115.508,97.3491 C115.491,97.3491 115.474,97.3523 115.458,97.3585 L115.508,97.4851 Z M115.512,97.4851 L115.512,97.6212 C115.519,97.6212 115.527,97.6205 115.534,97.6193 L115.512,97.4851 Z M115.764,97.4597 L115.797,97.3279 L115.796,97.3276 L115.764,97.4597 Z M117.114,97.6931 L117.173,97.8159 L117.174,97.8155 L117.114,97.6931 Z M117.517,97.5066 L117.574,97.6303 L117.581,97.6266 L117.517,97.5066 Z M122.044,94.9138 L121.97,94.7993 L121.97,94.7994 L122.044,94.9138 Z M126.11,92.4246 L126.18,92.5412 C126.244,92.503 126.265,92.421 126.228,92.3567 L126.11,92.4246 Z M124.236,88.5095 L124.185,88.3833 C124.151,88.397 124.125,88.4238 124.111,88.4577 C124.097,88.4915 124.097,88.5295 124.111,88.5632 L124.236,88.5095 Z M129.551,86.366 L129.422,86.4087 C129.428,86.4265 130.041,88.2809 130.52,90.2252 C130.759,91.1981 130.963,92.1883 131.042,92.9803 C131.081,93.3769 131.088,93.7172 131.054,93.978 C131.02,94.2473 130.947,94.3951 130.862,94.4556 L130.941,94.5662 L131.021,94.6768 C131.204,94.5457 131.288,94.2947 131.324,94.0127 C131.362,93.7223 131.353,93.3586 131.313,92.9535 C131.232,92.142 131.024,91.1369 130.784,90.1602 C130.303,88.2053 129.686,86.3427 129.68,86.3232 L129.551,86.366 Z M130.941,94.5662 L130.841,94.4744 L130.8,94.5193 L130.9,94.6111 L131.001,94.7028 L131.042,94.6579 L130.941,94.5662 Z M130.9,94.6111 L130.808,94.5114 C130.752,94.563 130.639,94.639 130.465,94.7367 C130.294,94.8326 130.074,94.9444 129.812,95.0687 C129.289,95.3172 128.605,95.6129 127.83,95.9266 C126.278,96.5539 124.364,97.2508 122.641,97.7829 L122.682,97.9128 L122.722,98.0428 C124.453,97.5082 126.374,96.8086 127.932,96.1789 C128.71,95.864 129.399,95.5661 129.929,95.3145 C130.194,95.1888 130.42,95.074 130.598,94.9739 C130.773,94.8756 130.912,94.7863 130.993,94.7108 L130.9,94.6111 Z M122.682,97.9128 L122.642,97.7828 C121.084,98.2633 120.14,98.6469 119.565,98.9226 C118.995,99.1965 118.774,99.3727 118.719,99.4043 L118.787,99.5222 L118.855,99.6402 C118.946,99.5876 119.12,99.4382 119.683,99.168 C120.242,98.8996 121.173,98.5206 122.722,98.0428 L122.682,97.9128 Z M118.787,99.5222 L118.713,99.4082 C118.645,99.4522 118.538,99.537 118.411,99.6395 C118.281,99.7454 118.129,99.8705 117.96,100.007 C117.623,100.279 117.24,100.577 116.919,100.775 L116.99,100.89 L117.062,101.006 C117.399,100.798 117.794,100.49 118.131,100.219 C118.298,100.084 118.457,99.9529 118.583,99.851 C118.713,99.7457 118.808,99.6709 118.861,99.6362 L118.787,99.5222 Z M116.99,100.89 L116.92,100.774 C116.844,100.82 116.686,100.885 116.489,100.908 C116.293,100.932 116.067,100.915 115.849,100.808 L115.789,100.93 L115.729,101.053 C116.005,101.187 116.286,101.207 116.521,101.179 C116.754,101.15 116.95,101.074 117.061,101.007 L116.99,100.89 Z M115.789,100.93 L115.849,100.808 C115.081,100.433 114.599,100.006 114.555,99.9699 L114.469,100.075 L114.382,100.18 C114.426,100.216 114.93,100.662 115.729,101.053 L115.789,100.93 Z M114.469,100.075 L114.559,99.9732 C114.321,99.7621 114.087,99.3532 113.945,98.9886 C113.875,98.8073 113.831,98.6486 113.82,98.5417 C113.817,98.5156 113.816,98.4948 113.817,98.4789 C113.817,98.4711 113.818,98.4651 113.819,98.4608 C113.819,98.4587 113.819,98.4571 113.82,98.456 C113.82,98.4548 113.82,98.4543 113.82,98.4543 C113.82,98.4543 113.82,98.455 113.819,98.4561 C113.819,98.4573 113.818,98.4591 113.817,98.4612 C113.814,98.4657 113.809,98.4719 113.801,98.478 C113.783,98.4921 113.763,98.4956 113.751,98.495 L113.758,98.3591 L113.765,98.2233 C113.72,98.221 113.673,98.2328 113.633,98.2642 C113.595,98.2938 113.574,98.3324 113.563,98.3657 C113.541,98.4289 113.542,98.5033 113.549,98.5711 C113.565,98.7121 113.617,98.8961 113.692,99.0874 C113.84,99.4679 114.093,99.9236 114.378,100.177 L114.469,100.075 Z M113.758,98.3591 L113.758,98.4952 L113.762,98.4952 L113.762,98.3591 L113.762,98.2231 L113.758,98.2231 L113.758,98.3591 Z M113.762,98.3591 L113.755,98.495 C113.745,98.4945 113.744,98.4927 113.761,98.4981 C113.774,98.5024 113.792,98.5093 113.816,98.5191 C113.864,98.5386 113.925,98.5667 113.999,98.6012 C114.153,98.674 114.32,98.7567 114.518,98.85 C114.705,98.9386 114.899,99.0264 115.061,99.0875 C115.142,99.1179 115.219,99.143 115.285,99.158 C115.318,99.1655 115.352,99.1711 115.384,99.1729 C115.414,99.1747 115.452,99.1735 115.489,99.1607 L115.445,99.032 L115.401,98.9032 C115.411,98.9 115.412,98.902 115.399,98.9013 C115.387,98.9006 115.369,98.8981 115.345,98.8926 C115.296,98.8816 115.233,98.8613 115.157,98.8328 C115.006,98.776 114.821,98.6922 114.634,98.604 C114.457,98.5204 114.255,98.4209 114.115,98.355 C114.04,98.3201 113.974,98.2896 113.92,98.2675 C113.893,98.2564 113.867,98.2467 113.845,98.2394 C113.826,98.2331 113.797,98.2246 113.768,98.2232 L113.762,98.3591 Z M115.445,99.032 L115.488,99.1611 C115.644,99.1092 115.742,98.9862 115.799,98.8819 C115.828,98.8283 115.849,98.7751 115.863,98.7294 C115.876,98.6868 115.885,98.6412 115.885,98.6045 L115.749,98.6042 L115.613,98.604 C115.613,98.6021 115.612,98.6184 115.602,98.651 C115.593,98.6806 115.579,98.7163 115.56,98.7518 C115.52,98.8256 115.466,98.8817 115.402,98.9029 L115.445,99.032 Z M115.749,98.6042 L115.885,98.6042 C115.885,98.5839 115.881,98.5671 115.879,98.5602 C115.876,98.5511 115.873,98.5425 115.871,98.5352 C115.865,98.5206 115.858,98.5042 115.85,98.4875 C115.835,98.4538 115.814,98.4112 115.789,98.364 C115.74,98.2691 115.674,98.1495 115.609,98.0326 C115.479,97.7985 115.348,97.5709 115.343,97.5636 L115.226,97.6316 L115.108,97.6996 C115.112,97.7066 115.242,97.9327 115.372,98.165 C115.436,98.2812 115.5,98.3981 115.548,98.4895 C115.572,98.5354 115.591,98.5734 115.603,98.6011 C115.61,98.6151 115.614,98.6246 115.616,98.6302 C115.617,98.6331 115.617,98.6332 115.616,98.6313 C115.616,98.6302 115.615,98.6277 115.615,98.624 C115.614,98.6207 115.613,98.6136 115.613,98.6042 L115.749,98.6042 Z M115.226,97.6316 C115.332,97.716 115.332,97.7161 115.332,97.7162 C115.332,97.7163 115.332,97.7164 115.332,97.7164 C115.332,97.7166 115.332,97.7167 115.332,97.7168 C115.331,97.7171 115.331,97.7174 115.331,97.7176 C115.331,97.7181 115.33,97.7186 115.33,97.7191 C115.329,97.72 115.328,97.7209 115.328,97.7216 C115.326,97.7231 115.325,97.7243 115.324,97.7252 C115.323,97.7269 115.322,97.7274 115.323,97.7267 C115.324,97.7253 115.332,97.7196 115.347,97.71 C115.379,97.6906 115.442,97.6573 115.558,97.6117 L115.508,97.4851 L115.458,97.3585 C115.332,97.408 115.254,97.4479 115.205,97.478 C115.18,97.4931 115.162,97.5062 115.149,97.5174 C115.142,97.5231 115.136,97.5283 115.131,97.5332 C115.129,97.5357 115.127,97.538 115.125,97.5404 C115.124,97.5415 115.123,97.5427 115.122,97.5438 C115.121,97.5444 115.121,97.5449 115.12,97.5455 C115.12,97.5458 115.12,97.546 115.12,97.5463 C115.119,97.5465 115.119,97.5466 115.119,97.5467 C115.119,97.5468 115.119,97.5469 115.119,97.547 C115.119,97.5471 115.119,97.5472 115.226,97.6316 Z M115.508,97.4851 L115.508,97.6212 L115.512,97.6212 L115.512,97.4851 L115.512,97.3491 L115.508,97.3491 L115.508,97.4851 Z M115.512,97.4851 L115.534,97.6193 C115.599,97.6085 115.651,97.6009 115.69,97.5968 C115.71,97.5947 115.724,97.5938 115.733,97.5936 C115.746,97.5933 115.742,97.5945 115.731,97.5918 L115.764,97.4597 L115.796,97.3276 C115.771,97.3213 115.744,97.3212 115.727,97.3215 C115.707,97.322 115.685,97.3237 115.662,97.3262 C115.615,97.3311 115.556,97.3398 115.489,97.3509 L115.512,97.4851 Z M115.764,97.4597 L115.73,97.5915 C115.76,97.5991 115.832,97.6247 115.947,97.6624 C116.056,97.6984 116.194,97.7418 116.337,97.7794 C116.48,97.8167 116.634,97.8493 116.775,97.8621 C116.911,97.8744 117.058,97.8707 117.173,97.8159 L117.114,97.6931 L117.056,97.5703 C117.01,97.5923 116.925,97.6024 116.8,97.5911 C116.68,97.5802 116.542,97.5517 116.406,97.5161 C116.27,97.4806 116.139,97.4392 116.032,97.404 C115.931,97.3706 115.839,97.3386 115.797,97.3279 L115.764,97.4597 Z M117.114,97.6931 L117.174,97.8155 C117.293,97.7578 117.429,97.6969 117.574,97.6301 L117.517,97.5066 L117.46,97.383 C117.319,97.4479 117.177,97.5115 117.055,97.5707 L117.114,97.6931 Z M117.517,97.5066 C117.581,97.6266 117.581,97.6266 117.581,97.6266 C117.581,97.6266 117.581,97.6266 117.581,97.6266 C117.581,97.6265 117.581,97.6265 117.581,97.6264 C117.582,97.6262 117.582,97.6259 117.583,97.6255 C117.584,97.6248 117.586,97.6236 117.589,97.6222 C117.595,97.6192 117.603,97.6148 117.614,97.609 C117.635,97.5974 117.667,97.5803 117.708,97.5582 C117.791,97.514 117.91,97.4497 118.058,97.3692 C118.355,97.2082 118.768,96.9826 119.232,96.7241 C120.159,96.2074 121.294,95.5574 122.117,95.0283 L122.044,94.9138 L121.97,94.7994 C121.154,95.3236 120.026,95.97 119.099,96.4864 C118.636,96.7443 118.225,96.9694 117.929,97.13 C117.781,97.2103 117.661,97.2745 117.579,97.3185 C117.538,97.3406 117.507,97.3576 117.485,97.3691 C117.474,97.3748 117.466,97.3792 117.461,97.3821 C117.458,97.3836 117.456,97.3847 117.455,97.3854 C117.454,97.3858 117.453,97.3861 117.453,97.3863 C117.453,97.3864 117.453,97.3864 117.453,97.3865 C117.453,97.3865 117.453,97.3865 117.453,97.3865 C117.453,97.3865 117.453,97.3865 117.517,97.5066 Z M122.044,94.9138 L122.117,95.0283 C123.064,94.4202 124.826,93.3546 126.18,92.5412 L126.11,92.4246 L126.04,92.3079 C124.686,93.1208 122.921,94.1886 121.97,94.7993 L122.044,94.9138 Z M126.11,92.4246 L126.228,92.3567 C125.476,91.0499 124.374,88.4842 124.361,88.4559 L124.236,88.5095 L124.111,88.5632 C124.121,88.5869 125.23,91.169 125.992,92.4924 L126.11,92.4246 Z M124.236,88.5095 L124.287,88.6357 L129.602,86.4921 L129.551,86.366 L129.5,86.2398 L124.185,88.3833 L124.236,88.5095 Z" id="Shape" fill="#00402A" fill-rule="nonzero"></path>
                <path d="M122.652,82.7374 C122.655,84.6906 123.94,88.0044 124.822,90.2904 C124.822,90.2904 126.388,90.06 127.863,89.4053 C129.792,88.5531 130.532,87.9532 130.532,87.9532 C130.294,86.9656 128.826,82.0022 128.079,80.7038 C127.424,79.8149 126.722,79.7308 126.187,79.676 C124.745,79.5297 122.637,80.7147 122.647957,82.7337 L122.652,82.7374 Z" id="Path" stroke="#00402A" stroke-width="0.2721" fill="#FFFFFF" fill-rule="nonzero" stroke-linejoin="round"></path>
                <path d="M100.586,90.678 C100.586,90.678 100.824,91.1498 101.16,91.3217 C101.497,91.4936 102.558,92.2215 102.719,92.5763 C102.877,92.9311 103.506,94.171 103.331,94.3502 C103.155,94.5295 102.295,94.1966 101.526,93.637 C100.977,93.2347 99.7768,91.1059 100.586,90.678 Z" id="Path" stroke="#00402A" stroke-width="0.2721" fill="#FFD1A4" fill-rule="nonzero" stroke-linejoin="round"></path>
                <path d="M120.1664,62 C120.1664,62.736 119.5694,63.333 118.8334,63.333 C118.0974,63.333 117.5004,62.736 117.5004,62 C117.5004,61.264 118.0974,60.667 118.8334,60.667 C119.5694,60.667 120.1664,61.264 120.1664,62 Z M118.8334,18.934 L118.5834,18.934 L118.5834,18.684 L118.8334,18.684 L118.8334,18.934 Z M136.8334,18.934 L137.0834,18.934 L137.0834,19.184 L136.8334,19.184 L136.8334,18.934 Z M118.8334,18.934 L119.0834,18.934 L119.0834,62 L118.8334,62 L118.5834,62 L118.5834,18.934 L118.8334,18.934 Z M136.8334,7 L137.0834,7 L137.0834,18.934 L136.8334,18.934 L136.5834,18.934 L136.5834,7 L136.8334,7 Z M136.8334,18.934 L136.8334,19.184 L118.8334,19.184 L118.8334,18.934 L118.8334,18.684 L136.8334,18.684 L136.8334,18.934 Z" id="Shape" fill="#00402A" fill-rule="nonzero"></path>
            </g>
        </g>
    </g>
</svg>