<?xml version="1.0" encoding="UTF-8"?>
<svg width="475px" height="341px" viewBox="0 0 475 341" version="1.1" xmlns="http://www.w3.org/2000/svg" xmlns:xlink="http://www.w3.org/1999/xlink">
    <title>Group</title>
    <g id="Page-1" stroke="none" stroke-width="1" fill="none" fill-rule="evenodd">
        <g id="Group" transform="translate(0, -38)" fill-rule="nonzero">
            <g id="4">
                <path d="M94.8744,236.097 C97.4813,237.606 97.5009,240.037 94.9038,241.536 L56.4662,263.872 C53.8886,265.371 49.6744,265.381 47.0675,263.872 L10.541,242.781 C7.94382,241.282 7.92422,238.841 10.5116,237.342 L48.9492,215.006 C51.5365,213.497 55.7507,213.507 58.3479,215.006 L94.8744,236.097 Z" id="Path" stroke="#00402A" stroke-width="0.5" fill-opacity="0.5" fill="#DCEBE1" stroke-linejoin="round"></path>
                <polygon id="Path" stroke="#00402A" stroke-width="0.5" fill="#FDF9F2" stroke-linejoin="round" points="69.4634 223.472 69.42 239.837 48.1831 252.183 48.2409 235.803"></polygon>
                <polygon id="Path" stroke="#00402A" stroke-width="0.5" fill="#5BD38C" stroke-linejoin="round" points="48.2415 235.804 48.1836 252.183 19.6894 235.731 19.7328 219.352"></polygon>
                <polygon id="Path" stroke="#00402A" stroke-width="0.5" fill="#007F33" stroke-linejoin="round" points="69.4634 223.472 48.2409 235.803 19.7322 219.351 40.9691 207.02"></polygon>
                <polygon id="Path" stroke="#00402A" stroke-width="0.5" fill="#699282" stroke-linejoin="round" points="63.3493 228.864 70.9824 224.426 70.939 240.877 63.3059 245.316"></polygon>
                <polygon id="Path" stroke="#00402A" stroke-width="0.5" fill="#007F33" stroke-linejoin="round" points="61.8458 227.91 69.4789 223.472 70.9824 224.426 63.3493 228.864"></polygon>
                <polygon id="Path" stroke="#00402A" stroke-width="0.5" fill="#007F33" stroke-linejoin="round" points="63.3491 228.864 63.3058 245.316 61.7878 244.347 61.8456 227.91"></polygon>
                <polygon id="Path" stroke="#00402A" stroke-width="0.5" fill="#FDF9F2" stroke-linejoin="round" points="69.5068 207.136 69.4635 223.501 48.2265 235.847 48.2843 219.468"></polygon>
                <polygon id="Path" stroke="#00402A" stroke-width="0.5" fill="#5BD38C" stroke-linejoin="round" points="48.2849 219.467 48.2271 235.847 19.7329 219.395 19.7907 203.016"></polygon>
                <polygon id="Path" stroke="#00402A" stroke-width="0.5" fill="#007F33" stroke-linejoin="round" points="69.5066 207.135 48.2841 219.467 19.7899 203.015 41.0124 190.684"></polygon>
                <polygon id="Path" stroke="#00402A" stroke-width="0.5" fill="#699282" stroke-linejoin="round" points="63.4059 212.528 71.0391 208.09 70.9812 224.542 63.3481 228.98"></polygon>
                <polygon id="Path" stroke="#00402A" stroke-width="0.5" fill="#007F33" stroke-linejoin="round" points="61.888 211.574 69.5211 207.136 71.0391 208.09 63.4059 212.528"></polygon>
                <polygon id="Path" stroke="#00402A" stroke-width="0.5" fill="#007F33" stroke-linejoin="round" points="63.4058 212.528 63.3479 228.98 61.8444 228.012 61.8878 211.574"></polygon>
                <polygon id="Path" stroke="#00402A" stroke-width="0.5" fill="#FDF9F2" stroke-linejoin="round" points="38.0486 222.359 38.0197 232.262 34.4489 230.194 34.4778 220.291"></polygon>
                <polygon id="Path" stroke="#00402A" stroke-width="0.5" fill="#FDF9F2" stroke-linejoin="round" points="44.7859 226.306 44.757 236.208 41.1717 234.141 41.2006 224.238"></polygon>
                <polygon id="Path" stroke="#00402A" stroke-width="0.5" fill="#FDF9F2" stroke-linejoin="round" points="24.7485 214.668 24.7196 224.585 21.1343 222.518 21.1632 212.6"></polygon>
                <polygon id="Path" stroke="#00402A" stroke-width="0.5" fill="#FDF9F2" stroke-linejoin="round" points="31.4719 218.615 31.443 228.532 27.8722 226.465 27.9011 216.547"></polygon>
                <polygon id="Path" stroke="#00402A" stroke-width="0.5" fill="#FDF9F2" stroke-linejoin="round" points="56.9877 222.503 57.0166 232.406 60.5874 230.339 60.5585 220.436"></polygon>
                <polygon id="Path" stroke="#00402A" stroke-width="0.5" fill="#FDF9F2" stroke-linejoin="round" points="50.2503 226.45 50.2792 236.353 53.8645 234.285 53.8356 224.383"></polygon>
                <polygon id="Path" stroke="#00402A" stroke-width="0.5" fill="#699282" stroke-linejoin="round" points="46.3188 241.268 46.2899 251.142 40.1892 254.684 40.2181 244.81"></polygon>
                <polygon id="Path" stroke="#00402A" stroke-width="0.5" fill="#5BD38C" stroke-linejoin="round" points="40.2183 244.81 40.1894 254.684 16.5815 241.066 16.6104 231.192"></polygon>
                <polygon id="Path" stroke="#00402A" stroke-width="0.5" fill="#007F33" stroke-linejoin="round" points="46.3188 241.268 40.2181 244.81 16.6102 231.192 22.711 227.635"></polygon>
                <path d="M48.0762,157.163 C51.0389,157.524 53.7516,158.607 55.0941,163.82 L59.7234,175.291 L68.2875,184.92 L63.4823,190.114 L62.5843,186.642 L53.3165,177.541 L48.0762,157.154 L48.0762,157.163 Z" id="Path" stroke="#00402A" stroke-width="0.5" fill="#FFC7A6" stroke-linejoin="round"></path>
                <path d="M60.8154,191.364 C58.6952,191.521 57.2509,193.391 57.2509,193.391 L56.288,195.021 L55.7695,196.438 C55.7695,197.039 56.3991,196.78 56.788,196.308 L57.9731,194.456 L58.7137,194.354 L58.9082,195.502 L59.01,197.058 C58.9822,197.669 59.7229,197.595 59.7877,197.039 L60.1581,194.067 L60.7969,194.169 L60.7969,195.401 L61.0191,197.215 C61.0839,197.845 61.7413,197.882 61.7876,197.456 L61.945,195.549 L61.945,193.873 L62.232,194.049 L62.556,195.604 L62.7042,197.002 C62.8338,197.817 63.5745,197.734 63.5837,197.197 L63.4911,195.567 L63.4911,194.391 L64.13,194.817 C64.13,194.817 64.6114,195.595 64.6577,195.697 C64.8336,196.049 65.2225,196.697 65.2225,196.697 C65.5188,197.002 65.7039,196.947 65.7872,196.595 L65.4354,195.225 L64.741,194.114 C64.3059,193.253 63.6393,192.512 62.7134,191.901 C62.7134,191.901 61.5654,191.29 60.7876,191.345 L60.8154,191.364 Z" id="Path" stroke="#00402A" stroke-width="0.5" fill="#FFB294" stroke-linejoin="round"></path>
                <path d="M73.6388,243.156 C73.4351,241.175 73.3795,239.369 74.2776,238.11 C70.5001,227.768 65.2413,224.685 66.9449,214.214 C63.3618,214.853 39.3638,213.621 35.3826,201.835 C33.966,197.734 41.4006,195.178 46.4095,195.901 C54.5477,198.956 64.8987,201.493 72.5555,209.131 C77.3607,214.899 75.1479,227.278 79.2494,237.305 C80.6567,241.277 82.5362,244.147 85.4434,246.332 L83.6658,249.85 C83.6658,249.85 77.981,248.748 77.8977,248.489 C77.8144,248.239 73.6573,243.147 73.6573,243.147 L73.6388,243.156 Z" id="Path" stroke="#00402A" stroke-width="0.5" fill="#F4B28B" stroke-linejoin="round"></path>
                <path d="M74.2775,238.11 C72.287,239.397 72.3703,242.008 72.7962,243.961 C73.7313,245.526 75.0738,246.489 76.6107,248.794 L78.0643,250.304 C80.9622,252.229 86.147,252.479 87.9709,251.461 C89.156,249.804 87.7394,248.174 84.1749,245.285 C85.5359,247.498 83.9805,248.572 80.4622,248.276 C78.7864,248.026 77.6662,246.239 75.8422,243.823 C74.1664,241.286 73.0554,239.795 74.2775,238.101 L74.2775,238.11 Z" id="Path" stroke="#00402A" stroke-width="0.5" fill="#3A3735" stroke-linejoin="round"></path>
                <path d="M59.2605,190.364 L71.454,201.752 C74.4074,204.511 75.574,208.714 74.3889,212.584 C71.2595,222.769 66.334,230.064 65.5655,236.184 C65.5192,239.156 66.3988,242.758 67.5469,246.545 L65.797,247.924 L62.0658,245.748 L59.0105,240.434 L59.9178,236.175 C60.7511,235.277 61.4362,234.277 61.8436,233.083 C63.0565,221.861 61.677,212.344 68.6301,208.112 L58.4828,200.298 L46.4097,195.9 L59.2697,190.364 L59.2605,190.364 Z" id="Path" stroke="#00402A" stroke-width="0.5" fill="#FFC7A6" stroke-linejoin="round"></path>
                <path d="M60.3158,235.721 C58.1123,236.166 57.3068,237.619 57.5383,239.434 C57.9919,241.24 59.2881,241.499 60.0381,244.174 L61.1583,247.48 C61.8342,248.98 63.3063,249.905 64.9543,250.702 C66.6023,251.498 67.7134,250.998 67.7134,250.998 C69.3336,250.526 69.1207,248.813 68.5189,246.841 L66.7135,243.628 L67.1393,245.628 C66.5468,246.48 65.8154,246.554 64.1118,245.906 C64.1118,245.906 63.3063,246.072 61.9916,242.85 C60.7973,239.934 58.9178,237.675 60.3158,235.721 Z" id="Path" stroke="#00402A" stroke-width="0.5" fill="#3A3735" stroke-linejoin="round"></path>
                <path d="M74.0556,205.529 C72.2594,204.974 70.3614,205.816 68.7875,207.511 C68.1764,208.177 67.3987,208.659 66.5654,209.011 C64.9359,209.696 64.2415,210.936 63.899,212.39 C63.7508,213.01 63.6675,213.668 63.612,214.344 C54.196,213.732 38.8177,211.89 35.2068,203.113 C33.5403,197.947 33.7625,193.484 36.0586,189.799 L55.9181,187.355 L56.4088,187.29 C56.6866,187.503 56.9736,187.716 57.2606,187.929 C58.9734,189.234 60.6863,190.66 62.3343,192.114 C68.3894,197.447 73.5649,203.252 74.0556,205.52 L74.0556,205.529 Z" id="Path" stroke="#00402A" stroke-width="0.5" fill="#C66D00" stroke-linejoin="round"></path>
                <path d="M55.3346,181.217 C55.3346,183.837 55.9271,186.503 57.0659,189.234 C55.8809,201.067 38.3267,200.65 34.29,193.521 C34.8362,190.077 37.2157,187.688 35.5954,184.272 C33.3641,179.559 31.818,175.782 31.818,175.782 C31.3088,174.569 30.8551,173.476 30.494,172.467 C29.1793,168.81 29.383,166.847 32.3272,164.209 C38.0304,159.885 43.7337,156.589 50.2332,156.876 C52.8441,156.802 54.3532,161.376 53.8718,165.246 C53.4459,168.727 58.5103,172.347 58.8991,174.782 C59.6676,179.522 55.3346,181.207 55.3346,181.207 L55.3346,181.217 Z" id="Path" stroke="#00402A" stroke-width="0.5" fill="#FF9C1A" stroke-linejoin="round"></path>
                <path d="M36.605,151.561 L37.3364,159.265 L40.114,163.218 C44.0025,168.69 49.8632,169.06 47.493,161.431 L46.9467,159.302 L45.6691,155.237 L36.6142,151.543 L36.605,151.561 Z" id="Path" stroke="#00402A" stroke-width="0.5" fill="#F4B28B" stroke-linejoin="round"></path>
                <path d="M46.9093,160.033 C44.9187,160.931 41.7986,158.802 40.3635,157.691 C39.8821,157.311 39.4839,156.83 39.2154,156.283 L37.9378,153.719 L36.2157,153.848 C36.2157,153.848 33.0956,152.265 33.1789,146.46 C33.2159,143.562 36.7897,140.646 39.9283,140.627 C44.8724,140.599 46.8815,143.571 48.3258,145.553 C49.7701,147.534 49.298,151.598 49.298,151.598 C49.298,151.598 49.5665,158.82 46.9,160.024 L46.9093,160.033 Z" id="Path" stroke="#00402A" stroke-width="0.5" fill="#FFC7A6" stroke-linejoin="round"></path>
                <path d="M39.6508,156.968 C39.6508,156.968 46.3632,154.126 47.1872,146.793 C47.1872,146.793 48.9278,150.895 50.8628,151.923 C50.8628,151.923 50.1499,150.247 50.2425,148.914 C50.3166,147.738 51.0758,142.099 44.4189,140.229 C37.7528,138.35 31.5033,141.396 32.2532,148.321 C33.0772,155.959 37.0862,160.181 39.0304,161.718 C39.0304,161.718 38.2064,158.144 39.66,156.968 L39.6508,156.968 Z" id="Path" stroke="#00402A" stroke-width="0.5" fill="#3A3735" stroke-linejoin="round"></path>
                <path d="M61.2892,199.715 C60.7244,199.715 51.0863,200.669 51.0863,200.669 C52.4288,202.956 49.2161,207.446 48.9939,211.621 C48.1513,213.353 45.9386,212.955 46.0589,211.621 L46.4663,199.085 C46.4941,198.317 46.8181,197.586 47.3736,197.049 C50.3364,194.206 54.4934,192.966 59.0301,192.243 L64.613,195.799 L61.2799,199.706 L61.2892,199.715 Z" id="Path" stroke="#00402A" stroke-width="0.5" fill="#FFC7A6" stroke-linejoin="round"></path>
                <path d="M58.7523,220.417 C58.4745,222.222 61.5854,221.778 61.9927,220.065 C62.1594,218.621 62.3909,217.214 62.6131,215.871 C63.3352,211.455 63.9741,207.705 61.9927,205.557 C64.9647,204.483 67.6867,203.085 69.8254,200.946 C69.8903,200.882 69.9551,200.817 70.0199,200.752 C71.3346,198.919 71.2976,196.863 70.5939,194.947 C70.5754,194.91 68.6589,191.762 68.6589,191.762 L67.2608,191.549 L59.4004,190.327 L58.6226,193.743 C59.1782,195.595 59.9003,197.178 60.8262,198.437 C59.3078,199.659 58.2338,200.808 57.5394,201.9 C56.8913,202.909 56.558,203.872 56.5024,204.779 C57.3913,210.14 59.3355,215.047 58.7615,220.417 L58.7523,220.417 Z" id="Path" stroke="#00402A" stroke-width="0.5" fill="#FFC7A6" stroke-linejoin="round"></path>
                <path d="M64.6217,195.808 L61.2887,199.715 C60.872,199.761 53.8911,200.789 51.0858,200.669 C51.4191,199.724 51.5487,197.336 48.9656,195.762 C51.8728,193.567 55.2521,192.854 59.0296,192.253 L64.6125,195.808 L64.6217,195.808 Z" id="Path" stroke="#00402A" stroke-width="0.5" fill="#FFCD52" stroke-linejoin="round"></path>
                <path d="M57.4285,202.057 C59.1783,201.77 60.8819,203.002 61.6133,204.279 C61.8633,204.715 62.0022,205.159 61.9929,205.548 C64.6409,204.52 67.835,202.891 69.8256,200.937 C69.8904,200.872 69.9552,200.808 70.0201,200.743 C71.3348,198.91 71.2977,196.854 70.5941,194.938 C70.5756,194.901 68.659,191.753 68.659,191.753 L67.261,191.54 L59.4005,190.318 L58.6228,193.734 C59.1783,195.586 59.632,197.049 60.5578,198.308 C59.0394,199.53 58.2062,200.798 57.5303,201.891 C57.5025,201.946 57.4655,202.002 57.4377,202.048 L57.4285,202.057 Z" id="Path" stroke="#00402A" stroke-width="0.5" fill="#FFCD52" stroke-linejoin="round"></path>
                <path d="M54.3748,171.36 C54.4428,171.337 54.5185,171.344 54.5808,171.38 C54.643,171.416 54.6868,171.477 54.7009,171.548 L55.0437,173.279 C55.0545,173.334 55.0471,173.391 55.0222,173.44 L53.8796,175.715 C53.8986,175.761 53.9052,175.813 53.8933,175.865 L53.6892,176.761 C54.473,176.538 55.5861,176.212 56.7664,176.004 C58.1623,175.758 59.7037,175.667 60.9578,176.131 C61.0238,176.155 61.0769,176.206 61.1033,176.271 C61.1295,176.337 61.127,176.41 61.0964,176.474 L59.0681,180.659 C59.0304,180.737 58.9555,180.79 58.8699,180.799 L50.3611,181.688 C50.3564,181.688 50.3511,181.688 50.3464,181.688 C49.8783,181.71 49.483,181.551 49.1697,181.239 C48.8647,180.935 48.647,180.497 48.4929,179.973 C48.4802,179.929 48.4797,179.883 48.491,179.839 C48.9439,178.09 49.7328,176.518 51.0632,175.262 L50.9636,175.122 L50.8562,174.972 C50.7573,174.817 50.6864,174.648 50.6775,174.469 C50.6667,174.25 50.7502,174.054 50.9099,173.888 C50.9092,173.632 50.9356,173.365 51.0505,173.145 C51.1197,173.012 51.2203,172.895 51.3601,172.811 C51.4444,172.76 51.5389,172.724 51.6414,172.701 C51.6886,172.408 51.7833,172.151 51.9695,171.989 C52.2002,171.789 52.4904,171.793 52.7781,171.903 L54.3748,171.36 Z" id="Path" fill="#F4B28B"></path>
                <path d="M54.3748,171.36 L54.4552,171.597 L54.4554,171.597 L54.3748,171.36 Z M54.5808,171.38 L54.7058,171.163 L54.7052,171.163 L54.5808,171.38 Z M54.7009,171.548 L54.9462,171.499 L54.946,171.499 L54.7009,171.548 Z M55.0437,173.279 L55.2889,173.231 L55.2889,173.231 L55.0437,173.279 Z M55.0222,173.44 L55.2456,173.553 L55.2457,173.553 L55.0222,173.44 Z M53.8796,175.715 L53.6562,175.603 C53.6237,175.667 53.6209,175.743 53.6484,175.81 L53.8796,175.715 Z M53.8933,175.865 L54.1371,175.921 L54.1371,175.921 L53.8933,175.865 Z M53.6892,176.761 L53.4455,176.705 C53.4258,176.791 53.4531,176.881 53.5172,176.942 C53.5812,177.003 53.6726,177.025 53.7576,177.001 L53.6892,176.761 Z M56.7664,176.004 L56.723,175.758 L56.7229,175.758 L56.7664,176.004 Z M60.9578,176.131 L61.0446,175.896 L61.0444,175.896 L60.9578,176.131 Z M61.1033,176.271 L61.3352,176.178 L61.3351,176.178 L61.1033,176.271 Z M61.0964,176.474 L61.3214,176.583 L61.3216,176.582 L61.0964,176.474 Z M59.0681,180.659 L59.2929,180.769 L59.2931,180.768 L59.0681,180.659 Z M58.8699,180.799 L58.8958,181.047 L58.8962,181.047 L58.8699,180.799 Z M50.3611,181.688 L50.3862,181.936 L50.3871,181.936 L50.3611,181.688 Z M50.3464,181.688 L50.358,181.938 L50.3581,181.938 L50.3464,181.688 Z M49.1697,181.239 L48.9932,181.416 L48.9933,181.416 L49.1697,181.239 Z M48.4929,179.973 L48.253,180.043 L48.253,180.043 L48.4929,179.973 Z M48.491,179.839 L48.249,179.776 L48.2489,179.776 L48.491,179.839 Z M51.0632,175.262 L51.2349,175.443 C51.3257,175.358 51.3393,175.218 51.2668,175.117 L51.0632,175.262 Z M50.9636,175.122 L51.1672,174.977 L51.1671,174.977 L50.9636,175.122 Z M50.8562,174.972 L50.6453,175.107 L50.6528,175.117 L50.8562,174.972 Z M50.6775,174.469 L50.4278,174.481 L50.4278,174.481 L50.6775,174.469 Z M50.9099,173.888 L51.0903,174.061 C51.1351,174.014 51.1601,173.952 51.1599,173.887 L50.9099,173.888 Z M51.0505,173.145 L50.8288,173.029 L50.8288,173.029 L51.0505,173.145 Z M51.3601,172.811 L51.2309,172.597 L51.2308,172.597 L51.3601,172.811 Z M51.6414,172.701 L51.6967,172.945 C51.7962,172.922 51.8719,172.842 51.8882,172.741 L51.6414,172.701 Z M51.9695,171.989 L51.8056,171.8 L51.8055,171.801 L51.9695,171.989 Z M52.7781,171.903 L52.6885,172.137 C52.7431,172.158 52.8032,172.159 52.8586,172.14 L52.7781,171.903 Z M54.3748,171.36 L54.4554,171.597 C54.4554,171.597 54.4559,171.597 54.4565,171.597 C54.4571,171.597 54.4571,171.597 54.4564,171.597 L54.5808,171.38 L54.7052,171.163 C54.5798,171.091 54.4293,171.078 54.2941,171.124 L54.3748,171.36 Z M54.5808,171.38 L54.4558,171.596 L54.4558,171.597 L54.7009,171.548 L54.946,171.499 C54.918,171.359 54.8311,171.236 54.7058,171.163 L54.5808,171.38 Z M54.7009,171.548 L54.4557,171.596 L54.7985,173.328 L55.0437,173.279 L55.2889,173.231 L54.9462,171.499 L54.7009,171.548 Z M55.0437,173.279 L54.7985,173.328 L54.7987,173.328 L55.0222,173.44 L55.2457,173.553 C55.296,173.452 55.3103,173.339 55.2889,173.231 L55.0437,173.279 Z M55.0222,173.44 L54.7988,173.328 L53.6562,175.603 L53.8796,175.715 L54.103,175.827 L55.2456,173.553 L55.0222,173.44 Z M53.8796,175.715 L53.6484,175.81 C53.6493,175.812 53.6493,175.813 53.6493,175.813 C53.6492,175.812 53.6492,175.811 53.6495,175.81 L53.8933,175.865 L54.1371,175.921 C54.1616,175.813 54.1473,175.708 54.1109,175.62 L53.8796,175.715 Z M53.8933,175.865 L53.6496,175.81 L53.4455,176.705 L53.6892,176.761 L53.933,176.816 L54.1371,175.921 L53.8933,175.865 Z M53.6892,176.761 L53.7576,177.001 C54.5442,176.778 55.6445,176.456 56.8098,176.25 L56.7664,176.004 L56.7229,175.758 C55.5277,175.968 54.4018,176.298 53.6209,176.52 L53.6892,176.761 Z M56.7664,176.004 L56.8098,176.25 C58.1948,176.006 59.6814,175.926 60.8711,176.365 L60.9578,176.131 L61.0444,175.896 C59.726,175.409 58.1298,175.51 56.723,175.758 L56.7664,176.004 Z M60.9578,176.131 L60.871,176.365 L60.8715,176.365 L61.1033,176.271 L61.3351,176.178 C61.2819,176.046 61.1753,175.945 61.0446,175.896 L60.9578,176.131 Z M61.1033,176.271 L60.8714,176.365 L60.8712,176.365 L61.0964,176.474 L61.3216,176.582 C61.3826,176.456 61.3879,176.309 61.3352,176.178 L61.1033,176.271 Z M61.0964,176.474 L60.8715,176.365 L58.8431,180.55 L59.0681,180.659 L59.2931,180.768 L61.3214,176.583 L61.0964,176.474 Z M59.0681,180.659 L58.8434,180.55 L58.8435,180.55 L58.8699,180.799 L58.8962,181.047 C59.0688,181.029 59.2179,180.922 59.2929,180.769 L59.0681,180.659 Z M58.8699,180.799 L58.8439,180.55 L50.3351,181.439 L50.3611,181.688 L50.3871,181.936 L58.8958,181.047 L58.8699,180.799 Z M50.3611,181.688 L50.3359,181.439 C50.3377,181.439 50.3386,181.439 50.338,181.439 C50.3374,181.439 50.3365,181.439 50.3348,181.439 L50.3464,181.688 L50.3581,181.938 C50.3631,181.938 50.3743,181.937 50.3862,181.936 L50.3611,181.688 Z M50.3464,181.688 L50.3349,181.439 C49.937,181.457 49.6099,181.325 49.3461,181.062 L49.1697,181.239 L48.9933,181.416 C49.3562,181.778 49.8196,181.963 50.358,181.938 L50.3464,181.688 Z M49.1697,181.239 L49.3462,181.062 C49.0825,180.799 48.8807,180.406 48.7328,179.902 L48.4929,179.973 L48.253,180.043 C48.4133,180.589 48.6469,181.071 48.9932,181.416 L49.1697,181.239 Z M48.4929,179.973 L48.7328,179.902 L48.733,179.902 L48.491,179.839 L48.2489,179.776 C48.2265,179.863 48.2275,179.956 48.253,180.043 L48.4929,179.973 Z M48.491,179.839 L48.733,179.902 C49.1773,178.187 49.9466,176.66 51.2349,175.443 L51.0632,175.262 L50.8916,175.08 C49.519,176.376 48.7106,177.994 48.249,179.776 L48.491,179.839 Z M51.0632,175.262 L51.2668,175.117 L51.1672,174.977 L50.9636,175.122 L50.7601,175.267 L50.8597,175.407 L51.0632,175.262 Z M50.9636,175.122 L51.1671,174.977 L51.0596,174.826 L50.8562,174.972 L50.6528,175.117 L50.7602,175.267 L50.9636,175.122 Z M50.8562,174.972 L51.0668,174.837 C50.9821,174.704 50.9332,174.577 50.9272,174.456 L50.6775,174.469 L50.4278,174.481 C50.4396,174.718 50.5326,174.93 50.6456,175.106 L50.8562,174.972 Z M50.6775,174.469 L50.9272,174.456 C50.9203,174.316 50.9709,174.185 51.0903,174.061 L50.9099,173.888 L50.7295,173.715 C50.5296,173.923 50.4132,174.184 50.4278,174.481 L50.6775,174.469 Z M50.9099,173.888 L51.1599,173.887 C51.1592,173.642 51.186,173.426 51.2723,173.26 L51.0505,173.145 L50.8288,173.029 C50.6851,173.305 50.6591,173.622 50.6599,173.888 L50.9099,173.888 Z M51.0505,173.145 L51.2722,173.26 C51.3227,173.163 51.3933,173.083 51.4894,173.024 L51.3601,172.811 L51.2308,172.597 C51.0473,172.708 50.9166,172.861 50.8288,173.029 L51.0505,173.145 Z M51.3601,172.811 L51.4893,173.025 C51.5464,172.99 51.6148,172.964 51.6967,172.945 L51.6414,172.701 L51.586,172.457 C51.4629,172.485 51.3424,172.529 51.2309,172.597 L51.3601,172.811 Z M51.6414,172.701 L51.8882,172.741 C51.9323,172.468 52.0138,172.282 52.1334,172.178 L51.9695,171.989 L51.8055,171.801 C51.5528,172.02 51.445,172.349 51.3946,172.661 L51.6414,172.701 Z M51.9695,171.989 L52.1334,172.178 C52.2675,172.062 52.4479,172.044 52.6885,172.137 L52.7781,171.903 L52.8676,171.67 C52.533,171.542 52.1329,171.516 51.8056,171.8 L51.9695,171.989 Z M52.7781,171.903 L52.8586,172.14 L54.4552,171.597 L54.3748,171.36 L54.2943,171.124 L52.6976,171.667 L52.7781,171.903 Z" id="Shape" fill="#00402A"></path>
                <path d="M54.7795,176.717 C56.5664,176.235 59.057,175.698 60.8716,176.365 L58.844,180.55 C58.844,180.55 56.6775,180.781 54.5295,181.004 C55.011,179.643 55.1036,178.17 54.7888,176.717 L54.7795,176.717 Z" id="Path" stroke="#00402A" stroke-width="0.5" fill="#0792E5" stroke-linejoin="round"></path>
                <path d="M58.6133,193.743 C59.3725,195.41 63.4185,196.65 66.6497,196.549 C68.4643,196.493 70.0105,196.012 70.5845,194.947 C70.4179,194.632 69.5476,192.836 70.6123,189.651 C71.4734,187.077 71.6122,185.707 71.4826,183.901 C71.4641,183.559 71.4271,183.198 71.3808,182.809 C71.1493,180.624 68.381,177.235 66.0757,176.559 L60.8631,176.365 C58.9836,176.819 58.7429,177.856 58.317,180.374 C57.6411,185.67 57.2708,189.318 58.604,193.734 L58.6133,193.743 Z" id="Path" stroke="#00402A" stroke-width="0.5" fill="#0DA9FF" stroke-linejoin="round"></path>
                <path d="M68.3159,174.726 C68.3252,174.819 68.103,178.661 68.103,178.661 C68.103,178.661 65.7606,182.3 62.8164,180.689 C61.4183,179.93 62.2146,177.846 62.2146,177.846 L62.9089,174.004 L68.3159,174.736 L68.3159,174.726 Z" id="Path" stroke="#00402A" stroke-width="0.5" fill="#F4B28B" stroke-linejoin="round"></path>
                <path d="M67.316,176.559 C66.5661,178.698 62.0109,180.17 60.1129,178.448 C58.9648,177.411 58.3723,174.689 59.2889,172.115 C59.2889,172.115 59.1407,169.236 61.1035,167.125 C62.1961,165.949 64.8718,164.579 66.9549,165.394 C73.7229,168.051 69.6492,174.226 69.6492,174.226 L67.3068,176.559 L67.316,176.559 Z" id="Path" stroke="#00402A" stroke-width="0.5" fill="#FFC7A6" stroke-linejoin="round"></path>
                <path d="M69.0384,174.643 L67.4552,175.124 C65.835,173.847 66.7053,173.189 66.2331,171.004 C62.7241,172.254 60.1317,170.051 58.9652,171.421 C58.9652,171.421 56.7709,164.227 66.4368,164.773 C69.8902,164.968 71.9826,168.023 71.566,171.134 C70.8901,176.134 68.5107,176.365 68.5107,176.365 L69.0384,174.643 Z" id="Path" stroke="#00402A" stroke-width="0.5" fill="#3A3735" stroke-linejoin="round"></path>
                <path d="M69.4735,174.078 C71.0845,175.495 68.6865,177.189 67.3163,176.559 C67.3163,176.559 67.1311,175.597 67.8162,174.689 C68.5754,173.671 69.205,173.847 69.4827,174.087 L69.4735,174.078 Z" id="Path" stroke="#00402A" stroke-width="0.5" fill="#FFC7A6" stroke-linejoin="round"></path>
                <path d="M54.5583,180.893 C54.0676,179.967 53.5862,179.004 53.1047,178.032 L54.7898,176.782 C55.0768,178.171 54.9935,179.578 54.5583,180.893 Z" id="Path" stroke="#00402A" stroke-width="0.5" fill="#FFB294" stroke-linejoin="round"></path>
                <path d="M42.8922,216.769 C45.0864,216.899 46.0215,215.529 47.651,215.121 C48.4936,214.918 49.5028,214.908 49.6972,213.825 C49.6972,213.621 49.6879,213.408 49.6694,213.214 C49.6139,212.399 49.475,211.677 49.2065,211.381 L49.1046,210.603 C48.4195,211.492 46.3549,211.529 46.0586,210.696 C46.0586,210.696 46.0771,211.51 46.0586,211.612 C46.0401,211.714 44.1421,213.205 44.0587,213.251 C43.5218,213.538 42.9199,213.834 42.4385,214.168 C41.9756,214.492 41.6238,214.853 41.5219,215.297 C41.4016,215.834 41.2534,216.667 42.8829,216.76 L42.8922,216.769 Z" id="Path" stroke="#00402A" stroke-width="0.5" fill="#0792E5" stroke-linejoin="round"></path>
                <path d="M57.7338,226.75 C58.7707,226.944 60.0854,226.676 60.8631,225.935 C61.8538,225.139 61.7242,223.963 61.863,223.241 C61.9834,222.658 62.1223,222.454 62.2426,222.028 C62.3075,221.278 62.5019,221.019 62.1593,220.112 C62.1408,220.065 62.1223,220.019 62.1038,219.963 L62.1501,218.797 C61.5483,219.713 59.1318,219.51 58.8448,218.797 L58.7337,220.149 L57.1782,223.648 C56.9283,224.093 56.7523,224.537 56.6412,224.945 C56.419,225.75 56.919,226.593 57.7338,226.75 Z" id="Path" stroke="#00402A" stroke-width="0.5" fill="#0792E5" stroke-linejoin="round"></path>
                <path d="M57.7338,226.75 C58.7707,226.944 60.0854,226.676 60.8631,225.935 C61.8538,225.139 61.7242,223.963 61.863,223.241 C61.9834,222.658 62.1223,222.454 62.2426,222.028 C62.3075,221.278 62.5019,221.019 62.1593,220.112 C61.9834,221.186 61.4001,224.185 60.465,224.556 C60.465,224.556 58.8448,222.852 57.1782,223.648 C56.9283,224.093 56.7523,224.537 56.6412,224.945 C56.419,225.75 56.919,226.593 57.7338,226.75 Z" id="Path" stroke="#00402A" stroke-width="0.5" fill="#D8CFC7" stroke-linejoin="round"></path>
                <path d="M42.8919,216.769 C45.0862,216.899 46.0213,215.529 47.6508,215.121 C48.4933,214.917 49.5025,214.908 49.697,213.825 C49.697,213.621 49.6877,213.408 49.6692,213.214 C48.0026,213.992 46.8731,215.399 44.29,215.612 C43.8085,214.806 43.3086,214.066 42.4475,214.177 C41.9846,214.501 41.6328,214.862 41.5309,215.306 C41.4106,215.843 41.2624,216.677 42.8919,216.769 Z" id="Path" stroke="#00402A" stroke-width="0.5" fill="#D8CFC7" stroke-linejoin="round"></path>
                <path d="M54.1372,169.373 C54.4116,169.351 54.6323,169.545 54.6899,169.819 C54.7553,169.8 54.8248,169.793 54.894,169.804 C55.1675,169.846 55.3379,170.105 55.3433,170.362 L55.3442,170.362 L55.3667,170.858 C55.3784,170.856 55.3908,170.854 55.4028,170.854 C55.634,170.849 55.7898,171.01 55.8599,171.206 L55.8853,171.292 L55.8882,171.311 L56.0552,172.468 C56.0578,172.486 56.0585,172.505 56.0571,172.524 L55.9087,174.431 C55.9072,174.45 55.9029,174.47 55.897,174.488 L55.1978,176.637 L60.27,182.432 L66.6646,180.606 L66.6899,180.6 C67.4436,180.468 68.088,180.696 68.5815,181.117 C69.0693,181.534 69.4074,182.135 69.5815,182.757 C69.7554,183.378 69.7732,184.046 69.5923,184.607 C69.4095,185.172 69.0162,185.638 68.3804,185.799 L68.3813,185.8 C65.1824,186.658 62.0013,187.022 58.8403,186.966 C58.7891,186.965 58.7392,186.948 58.6978,186.918 C57.5841,186.107 56.5773,184.807 55.6313,183.277 C54.6834,181.744 53.7831,179.956 52.8901,178.151 C52.8757,178.122 52.8683,178.092 52.8657,178.061 L52.394,177.003 L52.394,177.002 C52.0656,176.255 52.003,175.402 52.2759,174.624 L52.2778,174.618 C52.3482,174.434 52.435,174.248 52.5444,174.062 L52.4468,172.323 L52.4458,172.323 C52.4062,172.067 52.4457,171.798 52.6216,171.641 C52.6589,171.607 52.7023,171.583 52.7476,171.565 L52.5972,171.089 L52.5972,171.088 C52.4869,170.817 52.4933,170.5 52.7358,170.335 C52.9665,170.179 53.2267,170.278 53.4019,170.458 L53.4712,170.54 L53.4888,170.568 L53.5669,170.708 L53.5952,170.04 L53.5952,170.029 C53.6248,169.673 53.83,169.398 54.1372,169.373 Z" id="Path" fill="#FFC7A6"></path>
                <path d="M54.1372,169.373 L54.1173,169.124 L54.1171,169.124 L54.1372,169.373 Z M54.6899,169.819 L54.4453,169.871 C54.4597,169.939 54.5021,169.999 54.5623,170.034 C54.6225,170.07 54.6949,170.079 54.762,170.059 L54.6899,169.819 Z M54.894,169.804 L54.9318,169.557 L54.9316,169.557 L54.894,169.804 Z M55.3433,170.362 L55.0933,170.368 C55.0961,170.504 55.2072,170.612 55.3433,170.612 L55.3433,170.362 Z M55.3442,170.362 L55.594,170.351 C55.5879,170.218 55.4779,170.112 55.3442,170.112 L55.3442,170.362 Z M55.3667,170.858 L55.117,170.869 C55.1201,170.938 55.1514,171.002 55.2035,171.047 C55.2556,171.092 55.3239,171.113 55.3923,171.106 L55.3667,170.858 Z M55.4028,170.854 L55.3975,170.604 L55.3971,170.604 L55.4028,170.854 Z M55.8599,171.206 L56.1,171.135 L56.0953,171.122 L55.8599,171.206 Z M55.8853,171.292 L56.1322,171.253 C56.1305,171.242 56.1281,171.232 56.125,171.221 L55.8853,171.292 Z M55.8882,171.311 L56.1356,171.275 L56.1351,171.272 L55.8882,171.311 Z M56.0552,172.468 L56.3026,172.432 L56.3026,172.432 L56.0552,172.468 Z M56.0571,172.524 L56.3064,172.543 L56.3064,172.542 L56.0571,172.524 Z M55.9087,174.431 L56.1579,174.451 L56.1579,174.45 L55.9087,174.431 Z M55.897,174.488 L56.1347,174.566 L56.1349,174.565 L55.897,174.488 Z M55.1978,176.637 L54.96,176.559 C54.9328,176.643 54.9516,176.735 55.0096,176.801 L55.1978,176.637 Z M60.27,182.432 L60.0819,182.596 C60.1456,182.669 60.2456,182.699 60.3387,182.672 L60.27,182.432 Z M66.6646,180.606 L66.6083,180.362 L66.5959,180.365 L66.6646,180.606 Z M66.6899,180.6 L66.6468,180.353 L66.6337,180.356 L66.6899,180.6 Z M68.5815,181.117 L68.7439,180.927 L68.7438,180.927 L68.5815,181.117 Z M69.5815,182.757 L69.8223,182.69 L69.8223,182.69 L69.5815,182.757 Z M69.5923,184.607 L69.8302,184.683 L69.8302,184.683 L69.5923,184.607 Z M68.3804,185.799 L68.3192,185.557 C68.2319,185.579 68.1633,185.646 68.1394,185.733 C68.1155,185.819 68.14,185.912 68.2036,185.976 L68.3804,185.799 Z M68.3813,185.8 L68.4461,186.041 C68.5324,186.018 68.5997,185.951 68.6228,185.865 C68.6459,185.778 68.6213,185.686 68.5581,185.623 L68.3813,185.8 Z M58.8403,186.966 L58.8359,187.216 L58.8359,187.216 L58.8403,186.966 Z M58.6978,186.918 L58.5506,187.12 L58.5509,187.12 L58.6978,186.918 Z M55.6313,183.277 L55.4187,183.409 L55.4187,183.409 L55.6313,183.277 Z M52.8901,178.151 L52.6661,178.262 L52.6661,178.262 L52.8901,178.151 Z M52.8657,178.061 L53.1149,178.04 C53.1126,178.012 53.1055,177.985 53.094,177.959 L52.8657,178.061 Z M52.394,177.003 L52.144,177.003 C52.144,177.038 52.1514,177.073 52.1657,177.105 L52.394,177.003 Z M52.394,177.002 L52.644,177.002 C52.644,176.967 52.6368,176.933 52.6229,176.901 L52.394,177.002 Z M52.2759,174.624 L52.5118,174.707 L52.513,174.703 L52.2759,174.624 Z M52.2778,174.618 L52.044,174.529 L52.0407,174.539 L52.2778,174.618 Z M52.5444,174.062 L52.7599,174.188 C52.7849,174.146 52.7968,174.097 52.794,174.048 L52.5444,174.062 Z M52.4468,172.323 L52.6964,172.309 C52.6889,172.177 52.5794,172.073 52.4468,172.073 L52.4468,172.323 Z M52.4458,172.323 L52.1987,172.362 C52.2176,172.483 52.3225,172.573 52.4458,172.573 L52.4458,172.323 Z M52.6216,171.641 L52.4553,171.454 L52.4549,171.454 L52.6216,171.641 Z M52.7476,171.565 L52.8414,171.796 C52.9623,171.747 53.0253,171.614 52.9859,171.489 L52.7476,171.565 Z M52.5972,171.089 L52.3472,171.089 C52.3472,171.115 52.3511,171.14 52.3588,171.164 L52.5972,171.089 Z M52.5972,171.088 L52.8472,171.088 C52.8472,171.056 52.8409,171.024 52.8287,170.994 L52.5972,171.088 Z M52.7358,170.335 L52.5958,170.128 L52.5955,170.128 L52.7358,170.335 Z M53.4019,170.458 L53.5928,170.297 C53.5891,170.292 53.5852,170.288 53.5812,170.284 L53.4019,170.458 Z M53.4712,170.54 L53.6815,170.405 C53.6756,170.396 53.6691,170.387 53.6621,170.379 L53.4712,170.54 Z M53.4888,170.568 L53.7073,170.446 C53.7047,170.441 53.702,170.437 53.6991,170.432 L53.4888,170.568 Z M53.5669,170.708 L53.3484,170.83 C53.4027,170.927 53.5155,170.977 53.6245,170.951 C53.7334,170.926 53.8119,170.831 53.8167,170.719 L53.5669,170.708 Z M53.5952,170.04 L53.8452,170.051 L53.8452,170.04 L53.5952,170.04 Z M53.5952,170.029 L53.3461,170.009 C53.3455,170.016 53.3452,170.023 53.3452,170.029 L53.5952,170.029 Z M54.1372,169.373 L54.1571,169.622 C54.285,169.612 54.4089,169.698 54.4453,169.871 L54.6899,169.819 L54.9346,169.768 C54.8558,169.392 54.5382,169.09 54.1173,169.124 L54.1372,169.373 Z M54.6899,169.819 L54.762,170.059 C54.7951,170.049 54.8271,170.047 54.8565,170.051 L54.894,169.804 L54.9316,169.557 C54.8224,169.54 54.7155,169.551 54.6179,169.58 L54.6899,169.819 Z M54.894,169.804 L54.8562,170.051 C54.9801,170.07 55.0898,170.199 55.0933,170.368 L55.3433,170.362 L55.5932,170.357 C55.586,170.011 55.3549,169.621 54.9318,169.557 L54.894,169.804 Z M55.3433,170.362 L55.3433,170.612 L55.3442,170.612 L55.3442,170.362 L55.3442,170.112 L55.3433,170.112 L55.3433,170.362 Z M55.3442,170.362 L55.0945,170.374 L55.117,170.869 L55.3667,170.858 L55.6164,170.846 L55.594,170.351 L55.3442,170.362 Z M55.3667,170.858 L55.3923,171.106 C55.399,171.106 55.4049,171.105 55.4087,171.104 C55.4106,171.104 55.4126,171.104 55.4139,171.104 C55.4153,171.103 55.4162,171.103 55.417,171.103 C55.4186,171.103 55.4183,171.103 55.4171,171.103 C55.4159,171.103 55.4129,171.103 55.4086,171.104 L55.4028,170.854 L55.3971,170.604 C55.3774,170.604 55.3606,170.606 55.3523,170.607 C55.3493,170.608 55.3427,170.609 55.3424,170.609 C55.3403,170.609 55.3403,170.609 55.3411,170.609 L55.3667,170.858 Z M55.4028,170.854 L55.4082,171.104 C55.4955,171.102 55.5767,171.157 55.6244,171.29 L55.8599,171.206 L56.0953,171.122 C56.003,170.864 55.7725,170.596 55.3975,170.604 L55.4028,170.854 Z M55.8599,171.206 L55.6201,171.277 L55.6455,171.363 L55.8853,171.292 L56.125,171.221 L56.0996,171.135 L55.8599,171.206 Z M55.8853,171.292 L55.6383,171.331 L55.6412,171.35 L55.8882,171.311 L56.1351,171.272 L56.1322,171.253 L55.8853,171.292 Z M55.8882,171.311 L55.6407,171.346 L55.8077,172.504 L56.0552,172.468 L56.3026,172.432 L56.1356,171.275 L55.8882,171.311 Z M56.0552,172.468 L55.8077,172.504 C55.8077,172.503 55.8078,172.504 55.8078,172.505 C55.8078,172.505 55.8078,172.505 55.8078,172.505 L56.0571,172.524 L56.3064,172.542 C56.3092,172.505 56.3077,172.468 56.3026,172.432 L56.0552,172.468 Z M56.0571,172.524 L55.8079,172.504 L55.6594,174.411 L55.9087,174.431 L56.1579,174.45 L56.3064,172.543 L56.0571,172.524 Z M55.9087,174.431 L55.6595,174.411 L55.6591,174.412 L55.897,174.488 L56.1349,174.565 C56.1461,174.531 56.1546,174.492 56.1579,174.451 L55.9087,174.431 Z M55.897,174.488 L55.6592,174.411 L54.96,176.559 L55.1978,176.637 L55.4355,176.714 L56.1347,174.566 L55.897,174.488 Z M55.1978,176.637 L55.0096,176.801 L60.0819,182.596 L60.27,182.432 L60.4581,182.267 L55.3859,176.472 L55.1978,176.637 Z M60.27,182.432 L60.3387,182.672 L66.7332,180.846 L66.6646,180.606 L66.5959,180.365 L60.2014,182.191 L60.27,182.432 Z M66.6646,180.606 L66.7208,180.849 L66.7462,180.843 L66.6899,180.6 L66.6337,180.356 L66.6083,180.362 L66.6646,180.606 Z M66.6899,180.6 L66.7331,180.846 C67.4064,180.728 67.9768,180.93 68.4192,181.307 L68.5815,181.117 L68.7438,180.927 C68.1992,180.462 67.4809,180.207 66.6468,180.353 L66.6899,180.6 Z M68.5815,181.117 L68.4192,181.307 C68.8616,181.685 69.177,182.239 69.3408,182.824 L69.5815,182.757 L69.8223,182.69 C69.6377,182.03 69.277,181.382 68.7439,180.927 L68.5815,181.117 Z M69.5815,182.757 L69.3408,182.824 C69.5044,183.409 69.517,184.026 69.3544,184.53 L69.5923,184.607 L69.8302,184.683 C70.0293,184.067 70.0063,183.347 69.8223,182.69 L69.5815,182.757 Z M69.5923,184.607 L69.3544,184.53 C69.1921,185.032 68.8543,185.421 68.3192,185.557 L68.3804,185.799 L68.4416,186.041 C69.1781,185.855 69.6269,185.313 69.8302,184.683 L69.5923,184.607 Z M68.3804,185.799 L68.2036,185.976 L68.2046,185.977 L68.3813,185.8 L68.5581,185.623 L68.5571,185.622 L68.3804,185.799 Z M68.3813,185.8 L68.3166,185.558 C65.141,186.41 61.9833,186.772 58.8448,186.716 L58.8403,186.966 L58.8359,187.216 C62.0194,187.272 65.2238,186.906 68.4461,186.041 L68.3813,185.8 Z M58.8403,186.966 L58.8448,186.716 L58.8446,186.716 L58.6978,186.918 L58.5509,187.12 C58.6334,187.18 58.7329,187.214 58.8359,187.216 L58.8403,186.966 Z M58.6978,186.918 L58.845,186.716 C57.771,185.934 56.7848,184.668 55.844,183.146 L55.6313,183.277 L55.4187,183.409 C56.3698,184.947 57.3972,186.28 58.5506,187.12 L58.6978,186.918 Z M55.6313,183.277 L55.844,183.146 C54.9031,181.624 54.0077,179.846 53.1142,178.041 L52.8901,178.151 L52.6661,178.262 C53.5585,180.066 54.4637,181.864 55.4187,183.409 L55.6313,183.277 Z M52.8901,178.151 L53.1142,178.041 L53.1149,178.04 L52.8657,178.061 L52.6166,178.081 C52.6213,178.138 52.6355,178.201 52.6661,178.262 L52.8901,178.151 Z M52.8657,178.061 L53.094,177.959 L52.6224,176.901 L52.394,177.003 L52.1657,177.105 L52.6374,178.162 L52.8657,178.061 Z M52.394,177.003 L52.644,177.003 L52.644,177.002 L52.394,177.002 L52.144,177.002 L52.144,177.003 L52.394,177.003 Z M52.394,177.002 L52.6229,176.901 C52.3174,176.207 52.2619,175.42 52.5118,174.707 L52.2759,174.624 L52.04,174.541 C51.7441,175.385 51.8138,176.304 52.1652,177.103 L52.394,177.002 Z M52.2759,174.624 L52.513,174.703 L52.515,174.697 L52.2778,174.618 L52.0407,174.539 L52.0387,174.545 L52.2759,174.624 Z M52.2778,174.618 L52.5114,174.707 C52.5773,174.535 52.6582,174.361 52.7599,174.188 L52.5444,174.062 L52.3289,173.935 C52.2118,174.134 52.1191,174.333 52.0442,174.529 L52.2778,174.618 Z M52.5444,174.062 L52.794,174.048 L52.6964,172.309 L52.4468,172.323 L52.1972,172.337 L52.2948,174.076 L52.5444,174.062 Z M52.4468,172.323 L52.4468,172.073 L52.4458,172.073 L52.4458,172.323 L52.4458,172.573 L52.4468,172.573 L52.4468,172.323 Z M52.4458,172.323 L52.6929,172.285 C52.6584,172.062 52.7058,171.901 52.7882,171.827 L52.6216,171.641 L52.4549,171.454 C52.1855,171.695 52.154,172.073 52.1987,172.362 L52.4458,172.323 Z M52.6216,171.641 L52.7878,171.827 C52.7992,171.817 52.8163,171.806 52.8414,171.796 L52.7476,171.565 L52.6537,171.333 C52.5884,171.359 52.5187,171.398 52.4553,171.454 L52.6216,171.641 Z M52.7476,171.565 L52.9859,171.489 L52.8355,171.014 L52.5972,171.089 L52.3588,171.164 L52.5092,171.64 L52.7476,171.565 Z M52.5972,171.089 L52.8472,171.089 L52.8472,171.088 L52.5972,171.088 L52.3472,171.088 L52.3472,171.089 L52.5972,171.089 Z M52.5972,171.088 L52.8287,170.994 C52.7348,170.763 52.7821,170.606 52.8762,170.542 L52.7358,170.335 L52.5955,170.128 C52.2045,170.393 52.239,170.872 52.3657,171.182 L52.5972,171.088 Z M52.7358,170.335 L52.8759,170.542 C52.9284,170.507 52.9782,170.501 53.0315,170.514 C53.0912,170.528 53.16,170.568 53.2225,170.632 L53.4019,170.458 L53.5812,170.284 C53.3647,170.061 52.9706,169.875 52.5958,170.128 L52.7358,170.335 Z M53.4019,170.458 L53.2109,170.62 L53.2803,170.702 L53.4712,170.54 L53.6621,170.379 L53.5928,170.297 L53.4019,170.458 Z M53.4712,170.54 L53.2609,170.675 L53.2785,170.703 L53.4888,170.568 L53.6991,170.432 L53.6815,170.405 L53.4712,170.54 Z M53.4888,170.568 L53.2702,170.689 L53.3484,170.83 L53.5669,170.708 L53.7854,170.587 L53.7073,170.446 L53.4888,170.568 Z M53.5669,170.708 L53.8167,170.719 L53.845,170.051 L53.5952,170.04 L53.3454,170.03 L53.3171,170.698 L53.5669,170.708 Z M53.5952,170.04 L53.8452,170.04 L53.8452,170.029 L53.5952,170.029 L53.3452,170.029 L53.3452,170.04 L53.5952,170.04 Z M53.5952,170.029 L53.8444,170.05 C53.868,169.764 54.0169,169.634 54.1573,169.622 L54.1372,169.373 L54.1171,169.124 C53.6431,169.162 53.3815,169.581 53.3461,170.009 L53.5952,170.029 Z" id="Shape" fill="#00402A"></path>
                <path d="M62.696,182.004 L66.7328,180.855 C70.5195,179.207 72.8526,185.3 68.316,185.948 C66.8624,186.161 65.4736,186.225 64.057,186.42 C64.8162,184.892 64.3626,182.698 62.696,182.013 L62.696,182.004 Z" id="Path" stroke="#00402A" stroke-width="0.5" fill="#0792E5" stroke-linejoin="round"></path>
                <path d="M50.7794,200.039 L54.7235,201.058 C56.3068,201.391 57.5937,201.9 59.1121,201.789 L62.2044,202.65 L63.5562,202.909 C64.1024,203.02 64.3709,202.465 63.695,202.113 L60.4175,201.02 L60.5472,200.65 L62.3526,200.965 L63.945,201.409 C64.7598,201.604 64.8709,200.965 64.1209,200.483 L62.2044,199.65 L60.6768,199.234 L60.8156,199.039 L62.4081,199.391 L64.1117,200.104 C65.019,200.326 65.2783,199.789 64.6116,199.326 L62.9636,198.558 L60.9823,197.9 L61.1212,197.613 L62.6951,197.882 L64.7505,198.65 C65.6023,198.845 65.6764,198.28 64.9079,197.771 L62.8896,196.752 L59.6306,196.067 L59.7324,195.91 L60.7601,195.78 L62.0841,195.993 C62.9081,196.15 63.2599,195.595 62.2322,195.178 L60.4638,194.762 C60.4638,194.762 57.9177,195.234 57.3067,195.614 C56.4827,196.123 53.2977,197.187 53.2977,197.187 L52.3256,196.928 C51.0294,196.66 49.4647,199.622 50.7794,200.021 L50.7794,200.039 Z" id="Path" stroke="#00402A" stroke-width="0.5" fill="#FFC7A6" stroke-linejoin="round"></path>
                <path d="M29.6149,168.597 C29.3834,175.134 30.3833,183.179 32.0869,190.725 C32.1795,191.142 32.4295,191.521 32.772,191.78 C38.3734,195.873 44.484,198.484 52.289,200.437 L52.9852,199.894 C54.0681,199.049 53.9977,197.388 52.8462,196.639 C48.2867,193.674 43.3527,190.531 37.7068,187.772 C37.7161,182.707 37.355,177.633 36.6513,172.551 C35.9292,166.236 30.1333,163.329 29.6241,168.606 L29.6149,168.597 Z" id="Path" stroke="#00402A" stroke-width="0.5" fill="#FFC7A6" stroke-linejoin="round"></path>
                <path d="M89.7725,237.397 L89.7725,234.293 L90.7728,234.293 L90.7728,237.397 C90.7728,237.47 90.7253,237.544 90.6277,237.6 C90.4318,237.712 90.1167,237.712 89.9208,237.6 C89.8224,237.544 89.7757,237.47 89.7757,237.397 L89.7725,237.397 Z" id="Path" stroke="#00402A" stroke-width="0.5" fill="#FFF5EC" stroke-linejoin="round"></path>
                <path d="M86.5825,233.177 C86.5825,235.226 88.2576,235.657 90.3236,235.657 C92.3896,235.657 94.0647,235.226 94.0647,233.177 C94.0647,231.127 92.3896,226.051 90.3236,226.051 C88.2576,226.051 86.5825,231.128 86.5825,233.177 Z" id="Path" stroke="#00402A" stroke-width="0.5" fill="#2F6852" stroke-linejoin="round"></path>
                <path d="M49.8417,134.684 C49.8417,135.42 50.4387,136.017 51.175,136.017 C51.9114,136.017 52.5084,135.42 52.5084,134.684 C52.5084,133.947 51.9114,133.35 51.175,133.35 C50.4387,133.35 49.8417,133.947 49.8417,134.684 Z M51.175,96.1665 L50.925,96.1665 L50.925,134.684 L51.175,134.684 L51.425,134.684 L51.425,96.1665 L51.175,96.1665 Z" id="Shape" fill="#00402A"></path>
            </g>
        </g>
    </g>
</svg>