<svg width="66" height="67" viewBox="0 0 66 67" fill="none" xmlns="http://www.w3.org/2000/svg">
<path d="M55.928 47.6741C68.5458 43.1202 66.9756 28.3014 59.3762 16.0063C51.7766 3.71119 38.4784 -3.80486 29.9553 2.56756L57.4281 47.0157L55.928 47.6741Z" fill="#FF9C1A" stroke="#00402A" stroke-width="0.5" stroke-linecap="round" stroke-linejoin="round"/>
<path d="M29.933 32.2806C22.3467 20.0064 22.3571 6.70343 29.9562 2.56732C37.5553 -1.56873 49.8655 5.02845 57.4518 17.3025C65.0381 29.5766 65.0277 42.8796 57.4286 47.0158C49.8296 51.1518 37.5194 44.5546 29.933 32.2806Z" fill="#FFCD52" stroke="#00402A" stroke-width="0.5" stroke-linecap="round" stroke-linejoin="round"/>
<path d="M18.4805 27.1534C17.8664 26.5233 17.2174 25.9287 16.5367 25.3725C15.8887 24.896 15.1495 24.5603 14.3659 24.3865C13.5824 24.2128 12.7715 24.2048 11.9847 24.363C10.7894 24.6822 9.64718 25.1762 8.59446 25.8292L16.8212 29.0708L18.4805 27.1534Z" fill="#6BDAFF" stroke="#00402A" stroke-width="0.5" stroke-linecap="round" stroke-linejoin="round"/>
<path d="M8.59399 25.8317L8.55543 25.8534" stroke="#00402A" stroke-width="0.5" stroke-linecap="round" stroke-linejoin="round"/>
<path d="M6.49734 33.5243L4.10313 32.1336C3.92191 32.0012 3.70899 31.9196 3.48615 31.8972C3.2633 31.8748 3.03854 31.9124 2.83489 32.0062L0.728632 33.2389C0.932285 33.1452 1.15703 33.1075 1.37988 33.1299C1.60272 33.1523 1.81564 33.2339 1.99686 33.3664L4.38994 34.7571C4.61349 34.9222 4.87706 35.0238 5.15302 35.0512C5.42897 35.0786 5.70716 35.0307 5.95844 34.9127L8.0647 33.6799C7.81359 33.7979 7.53559 33.8457 7.25984 33.8183C6.98408 33.7909 6.72072 33.6893 6.49734 33.5243Z" fill="#6BDAFF" stroke="#00402A" stroke-width="0.5" stroke-linecap="round" stroke-linejoin="round"/>
<path d="M25.6104 27.1059C21.6085 24.7802 18.1399 25.4412 16.4661 28.3601C15.7086 27.594 14.8569 26.9284 13.9319 26.3795C13.7384 26.2667 13.5431 26.1619 13.3459 26.0649C9.57704 24.205 6.5588 26.0231 6.35265 30.2763C6.31673 31.1453 6.37913 32.0156 6.53863 32.8704C6.86242 34.6581 5.80704 35.5773 4.38979 34.7528L1.99672 33.3622C1.115 32.849 0.338604 33.1524 0.250095 34.1167C0.245255 34.7401 0.396717 35.3547 0.690468 35.9036C0.984222 36.4524 1.41077 36.9178 1.93063 37.2567L51.4133 66.0173C52.4015 66.5925 53.2059 66.0646 53.1073 64.8409C53.0381 64.2776 52.8466 63.7366 52.5465 63.2561C52.2464 62.7757 51.845 62.3676 51.3707 62.0607L47.5615 59.8478C46.2171 59.0651 45.3208 56.9661 45.8283 55.8135C46.3307 54.5789 46.5567 53.248 46.4905 51.9155C46.2592 48.8479 45.3422 45.8726 43.808 43.2119C42.2738 40.5513 40.1621 38.2741 37.6307 36.5506C37.5568 36.5055 37.4828 36.4627 37.4066 36.4198C36.0975 35.588 34.5786 35.1522 33.0305 35.1645C31.3062 31.8666 28.7463 29.0865 25.6104 27.1059Z" fill="#FFFAF6" stroke="#00402A" stroke-width="0.5" stroke-linecap="round" stroke-linejoin="round"/>
<path d="M27.7167 25.8734C24.8889 24.2301 22.3278 24.0779 20.477 25.1606L18.3707 26.3922C20.2204 25.3106 22.7816 25.4618 25.6105 27.1062C28.7489 29.0869 31.3108 31.8684 33.0362 35.1681L35.1436 33.9354C33.4171 30.636 30.8549 27.8547 27.7167 25.8734Z" fill="#6BDAFF" stroke="#00402A" stroke-width="0.5" stroke-linecap="round" stroke-linejoin="round"/>
<path d="M53.4792 60.8315L49.67 58.6187C48.3256 57.8359 47.4293 55.7381 47.9368 54.5843C48.4398 53.3499 48.6659 52.0189 48.599 50.6864C48.3686 47.6188 47.4521 44.6434 45.918 41.9828C44.3839 39.3222 42.272 37.0454 39.7403 35.3226C39.6656 35.2775 39.591 35.2335 39.5163 35.1906C38.2089 34.3603 36.6926 33.9247 35.1469 33.9353L33.0395 35.1681C34.5875 35.1558 36.1065 35.5915 37.4156 36.4234C37.4884 36.4662 37.5624 36.5091 37.6397 36.5542C40.171 38.2777 42.2827 40.5549 43.8169 43.2155C45.3511 45.8762 46.2681 48.8515 46.4994 51.9191C46.5657 53.2516 46.3396 54.5824 45.8373 55.817C45.3298 56.9697 46.2238 59.0687 47.5705 59.8514L51.3797 62.0643C51.8539 62.3711 52.2554 62.7793 52.5555 63.2597C52.8556 63.7402 53.047 64.2812 53.1162 64.8445C53.1655 65.0844 53.1456 65.3334 53.0591 65.5624C52.9726 65.7914 52.8229 65.9907 52.6277 66.137L54.7351 64.9054C54.9303 64.7588 55.0799 64.5593 55.1664 64.3301C55.253 64.101 55.2728 63.8518 55.2236 63.6117C55.1533 63.0479 54.9605 62.5065 54.6591 62.026C54.3576 61.5455 53.9548 61.1377 53.4792 60.8315Z" fill="#6BDAFF" stroke="#00402A" stroke-width="0.5" stroke-linecap="round" stroke-linejoin="round"/>
</svg>
