<svg width="54" height="99" viewBox="0 0 54 99" fill="none" xmlns="http://www.w3.org/2000/svg">
<path d="M36.5561 32.9643C35.0466 33.342 33.3959 34.042 31.965 35.2436C30.6226 36.3752 29.4165 37.9936 29.0087 40.0645C28.0187 40.8393 26.8053 41.8116 25.7281 42.7164C26.0241 41.9906 26.1592 41.2868 26.2108 40.6812C27.412 39.8523 27.9991 38.7501 28.2153 37.7116C28.4462 36.5604 28.2251 35.4373 27.8345 34.4896C27.046 32.5781 25.6041 31.3619 25.6139 31.3619C25.609 31.3619 24.7726 32.7522 24.4004 34.5435C24.2113 35.4471 24.1363 36.45 24.339 37.5032C24.5097 38.4767 24.9752 39.4686 25.6888 40.5966C25.6127 41.51 25.3437 42.7164 24.538 43.7488C24.0774 44.1558 23.693 44.5236 23.4387 44.8069L23.8268 45.1551C24.1548 44.7872 24.7247 44.2711 25.3928 43.6899C26.2243 42.9555 27.2388 42.9003 28.0765 43.045C29.0517 44.2416 29.9544 45.0901 30.9431 45.6161C31.9552 46.1727 33.0102 46.4302 33.9977 46.5393C35.9616 46.7526 37.6578 46.3603 37.6602 46.3505C37.6578 46.3603 36.8938 44.4893 35.1989 43.0438C34.3527 42.329 33.2743 41.7331 32.0178 41.5835C30.9112 41.4597 29.6252 41.678 28.4044 42.5668C27.9242 42.4626 27.3801 42.4075 26.8225 42.4871C27.767 41.7123 28.7434 40.9337 29.5454 40.3072C31.443 40.1184 33.0274 39.7763 34.4263 39.1658C35.9702 38.5 37.293 37.5866 38.4131 36.6376C40.6436 34.7519 42.0511 32.7154 42.0487 32.7105C42.0536 32.7154 39.5947 32.2091 36.5548 32.9643H36.5561Z" fill="#007F33" stroke="#00402A" stroke-width="0.5" stroke-linejoin="round"/>
<path d="M16.6787 45.4458C18.1489 45.8725 19.6632 46.6523 20.792 47.9825C21.8016 49.1939 22.5422 50.8969 22.4009 53.0523C23.4474 54.054 24.6289 55.5645 25.1214 57.6145L24.3464 57.8033C23.8932 55.9115 22.7719 54.5113 21.7917 53.593C19.8303 53.3797 18.2533 52.9922 16.9599 52.297C15.545 51.5577 14.4433 50.545 13.5652 49.4918C11.8186 47.4014 10.9761 45.1479 10.9834 45.1381C10.9712 45.1479 13.7211 44.6023 16.6787 45.4458Z" fill="#007F33" stroke="#00402A" stroke-width="0.5" stroke-linejoin="round"/>
<path d="M44.8637 36.7523C42.5608 37.3285 40.0393 38.4013 37.8543 40.238C35.797 41.9704 33.9621 44.4335 33.3345 47.5956C31.8274 48.7824 29.9728 50.2659 28.3282 51.6477C28.7815 50.5455 28.9878 49.4579 29.0676 48.5347C30.9001 47.2682 31.798 45.5897 32.1283 44.002C32.4808 42.245 32.1431 40.531 31.5413 39.0818C30.3401 36.1674 28.1416 34.31 28.1588 34.3149C28.1416 34.3149 26.8679 36.4249 26.2992 39.1652C26.0081 40.5408 25.9013 42.0746 26.2096 43.6832C26.4712 45.1729 27.175 46.687 28.2668 48.4096C28.1526 49.8147 27.7399 51.6465 26.5093 53.2207C26.0094 53.667 25.6016 54.0544 25.2479 54.4124L24.2629 49.5315C23.9042 47.5208 23.8551 45.4499 24.0946 43.4098C24.3255 41.3696 24.8352 39.3576 25.5119 37.3923C25.8448 36.409 26.2427 35.4514 26.6309 34.4681C27.0534 33.5093 27.3248 32.3777 27.4341 31.3404C27.4538 31.1921 27.4611 31.0425 27.4759 30.8893L27.4906 30.8942C28.0237 29.022 29.2064 27.6721 30.2222 26.793C32.1934 26.6593 33.7828 26.3467 35.1043 25.7104C36.5462 25.0299 37.6946 24.0613 38.6158 23.0486C40.4532 21.033 41.3879 18.8187 41.3805 18.8089C41.3928 18.8187 38.6698 18.1493 35.6779 18.8739C34.1905 19.2306 32.6467 19.9516 31.4602 21.2316C30.3978 22.4037 29.5847 24.0662 29.64 26.2314C28.9767 26.8077 28.2803 27.596 27.6883 28.5548C27.8468 26.4595 27.934 24.374 27.9868 22.2799C30.0809 19.9908 30.964 17.1611 31.1581 14.5741C31.3546 11.8093 30.7552 9.21128 29.8869 7.0669C28.1416 2.7622 25.3756 0.25 25.3928 0.25C25.3781 0.25 24.1621 3.72588 23.8367 8.0502C23.6721 10.2203 23.7298 12.6075 24.28 15.04C24.7677 17.2935 25.7613 19.5237 27.2241 22.0003C27.1995 23.6481 27.1418 25.3021 27.0448 26.945C26.6173 26.2106 26.0352 25.6049 25.4481 25.1378C25.4235 22.9481 24.565 21.2598 23.4682 20.0533C22.1945 18.6728 20.5315 17.9028 18.9299 17.5117C15.7059 16.7417 12.7766 17.4529 12.795 17.443C12.7852 17.4529 13.7923 19.8363 15.7697 22.0101C16.7621 23.0976 17.9928 24.1398 19.5502 24.8705C21.0916 25.6147 22.9523 25.9666 25.3289 26.0819C26.1678 26.8616 26.8814 27.9675 26.8532 29.3935C26.8139 29.8201 26.7807 30.2419 26.7291 30.6649C26.7291 30.6698 26.7267 30.6698 26.7267 30.6796H26.7291C26.707 30.8623 26.6947 31.0511 26.6714 31.2411C26.5412 32.2931 26.3201 33.2114 25.8902 34.1751C25.4984 35.1388 25.1005 36.1208 24.7296 37.114C24.1904 38.5742 23.7396 40.0724 23.424 41.6026C23.1734 41.3635 22.8946 41.0962 22.5741 40.813C21.6062 39.5612 21.3176 38.1267 21.2586 37.049C22.0889 35.7383 22.6256 34.5821 22.832 33.4395C23.0801 32.1778 22.9929 30.9763 22.773 29.8937C22.3358 27.7444 21.3409 26.0855 21.3299 26.0855C21.3446 26.0806 19.6141 27.5298 18.6585 29.814C18.1832 30.9456 17.9179 32.2919 18.1832 33.6724C18.4313 34.874 19.124 36.1307 20.4591 37.1176C20.4947 37.7834 20.6114 38.5521 20.8939 39.3613C19.6423 38.3094 18.2753 37.2059 17.1638 36.3281C16.6516 33.9299 15.2711 32.0332 13.7076 30.698C11.9991 29.2525 10.0241 28.4089 8.21621 27.9516C4.58069 27.0272 1.6342 27.6292 1.63911 27.6193C1.63666 27.6292 3.31317 30.0715 5.97594 32.3409C7.30856 33.4775 8.8905 34.5797 10.7377 35.384C12.3713 36.1098 14.2222 36.5218 16.4231 36.7547C17.3333 37.4744 18.4522 38.3731 19.5465 39.2767C18.9447 39.2326 18.3699 39.3012 17.854 39.4214C16.4232 38.4087 14.9137 38.1561 13.6142 38.2947C12.1072 38.4626 10.8139 39.1774 9.80184 40.0271C7.76054 41.7497 6.83692 43.9946 6.83447 43.9799C6.83692 43.9897 8.86594 44.4715 11.2204 44.2178C12.402 44.0988 13.6683 43.796 14.8867 43.1302C16.0387 42.5197 17.1024 41.5364 18.2397 40.1656C19.2493 39.9719 20.4849 40.0173 21.4945 40.9209C22.2326 41.5609 22.8529 42.1371 23.2508 42.5638C23.2115 42.8066 23.1636 43.0456 23.1317 43.2884C22.8357 45.4083 22.8381 47.5784 23.1661 49.7081L24.1658 55.9242C24.2334 56.3656 24.2874 56.8131 24.3501 57.2545C23.8772 56.9909 23.3429 56.7873 22.7681 56.6426C20.6445 54.513 17.9511 53.4451 15.4393 53.0429C12.6145 52.6016 9.90746 52.9841 7.63035 53.6829C3.06384 55.088 0.25 57.6897 0.25 57.675C0.254913 57.6848 3.70374 59.2345 8.11058 59.9493C10.3177 60.3012 12.7704 60.4557 15.3165 60.1087C17.7631 59.801 20.2306 58.9317 23.0432 57.5524C23.6193 57.7351 24.1142 57.9889 24.4974 58.3273C24.6583 59.5938 24.538 58.6755 24.6018 59.926C24.662 61.1227 24.6411 62.3487 24.4618 63.4865C25.1386 63.4718 25.8116 63.4375 26.4835 63.3872C26.5338 62.155 26.4171 60.9547 26.3115 59.7924C26.018 57.1699 25.8067 57.2839 25.5034 55.69L25.4333 55.3528C25.9406 54.7962 26.8016 54.0128 27.8161 53.1288C29.0897 52.0069 30.6312 51.9223 31.9146 52.1467C33.3996 53.9735 34.7825 55.2695 36.2883 56.0738C37.8383 56.9222 39.4497 57.3145 40.9531 57.4837C43.9524 57.8074 46.5439 57.2054 46.5464 57.1956C46.5464 57.2115 45.3796 54.3462 42.7831 52.1467C41.4972 51.0543 39.8514 50.1359 37.9341 49.9165C36.2429 49.7277 34.2765 50.0599 32.4133 51.4209C31.68 51.2566 30.8485 51.1732 29.9986 51.2921C31.4393 50.1102 32.9328 48.9234 34.1574 47.9658C37.0547 47.6777 39.4743 47.1615 41.6151 46.2175C43.9671 45.2047 45.99 43.8095 47.6997 42.3652C51.0994 39.4803 53.2549 36.3771 53.25 36.3624C53.2598 36.3771 49.5015 35.5985 44.8613 36.7498L44.8637 36.7523Z" fill="#00A443" stroke="#00402A" stroke-width="0.5" stroke-linejoin="round"/>
<path d="M32.8886 85.6203C32.8506 85.2697 32.7707 84.8835 32.627 84.4813C32.4845 84.0792 32.2757 83.6623 32.0043 83.2504C31.4639 82.4203 30.6705 81.6332 29.8021 80.8129C29.3698 80.401 28.9178 79.9755 28.483 79.5121C28.2656 79.2804 28.0531 79.0388 27.8517 78.7838C27.6466 78.5337 27.4857 78.2676 27.3432 77.9697C27.0632 77.3763 26.8765 76.7118 26.7328 76.024C26.5916 75.3349 26.4945 74.6177 26.4233 73.8845C26.2833 72.4193 26.244 70.8929 26.2342 69.3419V67.0002C26.3054 65.4541 26.4822 63.9436 26.4822 63.3894C26.4822 62.6574 26.2084 62.2136 26.2084 62.2136L25.959 62.335L25.9197 62.2136L25.4604 62.0481C25.4604 62.0481 24.4606 62.9394 24.4606 63.4875C24.4606 64.0355 24.3992 66.4472 24.0909 67.4783C24.0762 67.5114 24.0627 67.5445 24.0467 67.5764C23.6917 68.339 23.1992 69.0415 22.6846 69.7257C22.1688 70.4111 21.6271 71.0842 21.1457 71.8002C20.6642 72.5137 20.2441 73.2776 19.9813 74.0905C19.7185 74.9033 19.6079 75.7481 19.6755 76.5695C19.7443 77.3738 19.8769 78.1316 19.9862 78.8709C20.0697 79.4189 20.1459 79.9535 20.2085 80.4782C20.1643 80.7565 20.0722 81.0238 19.9383 81.2678C19.7479 81.6185 19.4728 81.9115 19.1596 82.1285C18.5271 82.5687 17.7816 82.6998 17.165 82.7256C16.5398 82.7489 16.0191 82.6766 15.6592 82.6165C15.2981 82.554 15.0955 82.5049 15.0955 82.5049C15.0955 82.5049 15.2981 82.5711 15.6604 82.6569C16.0228 82.7403 16.5484 82.847 17.1933 82.8531C17.515 82.8543 17.8651 82.8286 18.2286 82.7452C18.591 82.6631 18.9643 82.5196 19.3082 82.2904C19.6509 82.0635 19.9543 81.7472 20.1655 81.3684C20.2085 81.2923 20.2454 81.2139 20.281 81.1342C20.3449 81.7901 20.3829 82.424 20.3805 83.0346C20.3805 84.3207 20.1962 85.5063 19.7676 86.4541C19.5563 86.9273 19.2874 87.3368 18.9852 87.6691C18.6843 88.0026 18.3539 88.2588 18.0346 88.455C17.3922 88.8449 16.81 89.0043 16.4195 89.0999C16.0252 89.1919 15.8103 89.2164 15.8103 89.2164C15.8103 89.2164 16.0301 89.2004 16.4367 89.1244C16.8395 89.0435 17.4414 88.9037 18.1206 88.52C18.4583 88.3287 18.8096 88.07 19.1326 87.7279C19.4569 87.3871 19.7516 86.9616 19.9838 86.4712C20.4542 85.4855 20.6703 84.2545 20.7035 82.9316C20.7403 81.605 20.5966 80.1754 20.405 78.6857C20.3154 77.9415 20.1999 77.1764 20.1631 76.4126C20.1348 75.6635 20.2663 74.8862 20.5352 74.1518C20.8042 73.4137 21.2144 72.7148 21.6885 72.0417C22.1638 71.3674 22.7018 70.7163 23.2263 70.0297C23.7495 69.3444 24.2629 68.6185 24.6448 67.7995C24.8868 67.2883 25.0612 66.7353 25.1595 66.1701C25.1668 66.1579 25.1717 66.148 25.1717 66.148C25.1693 66.7549 25.141 67.3606 25.0809 67.9614C24.974 69.0538 24.7701 70.1303 24.4938 71.1822C24.2211 72.2342 23.8747 73.2604 23.5382 74.2842C23.2041 75.3079 22.8787 76.3366 22.6957 77.3898C22.6048 77.9158 22.5507 78.4466 22.5458 78.9739C22.5421 79.4962 22.5741 80.016 22.6343 80.5224C22.7534 81.5375 22.988 82.5086 23.2815 83.4257C23.8723 85.2623 24.6792 86.8832 25.324 88.4023C25.6483 89.1612 25.9345 89.8968 26.1396 90.6153C26.3459 91.3313 26.47 92.0314 26.4847 92.6935C26.5007 93.3543 26.4073 93.9735 26.2403 94.5215C26.0745 95.0708 25.8399 95.549 25.5943 95.9597C25.0968 96.7787 24.5748 97.3341 24.2186 97.7032C23.8576 98.0697 23.65 98.25 23.65 98.25C23.65 98.25 23.8686 98.0734 24.2494 97.7117C24.6252 97.3476 25.1754 96.7983 25.7072 95.9683C25.9689 95.5526 26.2219 95.0647 26.4049 94.497C26.5879 93.9293 26.6947 93.2844 26.6861 92.5942C26.68 91.9039 26.5609 91.1756 26.3594 90.4326C26.1592 89.6896 25.8804 88.9319 25.5685 88.1546C25.3142 87.5195 25.0354 86.8685 24.7603 86.199C24.9973 86.3425 25.2381 86.4639 25.4739 86.5816C25.959 86.8206 26.4319 87.0462 26.8753 87.289C27.7621 87.7684 28.5223 88.3287 29.0615 88.9197C29.6068 89.5057 29.9323 90.1004 30.1165 90.5295C30.302 90.9598 30.3683 91.2222 30.3683 91.2222C30.3646 91.2222 30.3241 90.9512 30.1681 90.4964C30.0121 90.044 29.7174 89.4064 29.1843 88.7676C28.6574 88.1252 27.891 87.506 27.003 86.9886C26.5596 86.7262 26.088 86.4847 25.6176 86.2407C25.383 86.1181 25.1484 85.9943 24.9298 85.8582C24.7259 85.7282 24.5245 85.5799 24.4422 85.4156C24.156 84.6873 23.8821 83.9345 23.6537 83.1486C23.3908 82.2425 23.1919 81.2936 23.1071 80.3152C23.0654 79.8284 23.0469 79.327 23.0678 78.8341C23.0899 78.3388 23.1562 77.841 23.257 77.3432C23.4572 76.3464 23.79 75.3545 24.1339 74.3467C24.4803 73.3389 24.8328 72.3078 25.114 71.2423C25.146 71.1222 25.1767 71.002 25.2074 70.8806C25.0354 72.0025 24.8168 73.1047 24.6436 74.1849C24.4692 75.2871 24.3415 76.3771 24.4188 77.4204C24.4569 77.9403 24.5503 78.4467 24.7075 78.9162C24.7861 79.1504 24.8794 79.376 24.9875 79.5881C25.0931 79.8014 25.2221 80.0013 25.3376 80.184C26.2698 81.6712 26.8876 83.0027 27.2634 83.9529C27.6405 84.9031 27.7805 85.472 27.7805 85.472C27.7805 85.472 27.6773 84.8835 27.3481 83.8928C27.019 82.9034 26.4614 81.513 25.5758 79.9572C25.3498 79.5795 25.1693 79.1762 25.0489 78.7286C24.9273 78.2848 24.8659 77.8079 24.8524 77.3138C24.8266 76.3243 24.9887 75.2761 25.1926 74.1984C25.3474 73.3855 25.5255 72.553 25.6851 71.6996C25.7281 72.4978 25.7908 73.2862 25.8829 74.0574C25.9738 74.8052 26.0929 75.5397 26.2636 76.2495C26.4368 76.9582 26.6554 77.6473 26.9907 78.2762C27.0743 78.4332 27.1676 78.5852 27.2695 78.7299C27.3199 78.8034 27.3752 78.8733 27.4304 78.942L27.5938 79.1369C27.8136 79.3932 28.0421 79.6335 28.273 79.8615C28.7336 80.3176 29.2015 80.7271 29.6437 81.1219C30.5305 81.9054 31.3202 82.6459 31.8618 83.4269C32.4109 84.2006 32.6872 85.0012 32.7818 85.6743C32.8788 86.3511 32.8297 86.8942 32.7855 87.2571C32.7388 87.6213 32.6946 87.8137 32.6946 87.8137C32.6946 87.8137 32.7498 87.62 32.8149 87.251C32.8763 86.8819 32.9513 86.329 32.8776 85.6252L32.8886 85.6203Z" fill="#C66D00" stroke="#00402A" stroke-width="0.5" stroke-linejoin="round"/>
</svg>
