<svg width="73" height="72" viewBox="0 0 73 72" fill="none" xmlns="http://www.w3.org/2000/svg">
<path d="M36.2196 70.8228C56.085 70.8228 72.1891 55.0246 72.1891 35.5364C72.1891 16.0483 56.085 0.25 36.2196 0.25C16.3541 0.25 0.25 16.0483 0.25 35.5364C0.25 55.0246 16.3541 70.8228 36.2196 70.8228Z" fill="#3CC2FF" stroke="#00402A" stroke-width="0.5" stroke-miterlimit="10"/>
<path d="M36.2196 70.8228C56.085 70.8228 72.1891 55.0246 72.1891 35.5364C72.1891 16.0483 56.085 0.25 36.2196 0.25C16.3541 0.25 0.25 16.0483 0.25 35.5364C0.25 55.0246 16.3541 70.8228 36.2196 70.8228Z" fill="#6BDAFF" stroke="#00402A" stroke-width="0.5" stroke-miterlimit="10"/>
<path d="M22.436 3.36749L22.3967 3.38369C22.789 3.22775 23.3113 3.02117 23.7036 2.86725C23.3856 2.98471 22.8654 3.19129 22.436 3.36749Z" fill="#26BF64" stroke="#00402A" stroke-width="0.5"/>
<path d="M53.8657 5.04443C53.9586 5.09507 54.0536 5.1457 54.1486 5.19836C54.0536 5.1457 53.9586 5.09304 53.8657 5.04443Z" fill="#26BF64" stroke="#00402A" stroke-width="0.5"/>
<path d="M54.9702 5.65203C54.6853 5.49406 54.4128 5.34217 54.1506 5.19837C54.3797 5.32597 54.6151 5.46166 54.8505 5.60545C53.428 4.8885 52.6703 4.50775 52.2368 4.3032C52.5341 4.42067 52.8334 4.53611 53.1225 4.66978C53.0956 4.65155 53.0605 4.62927 53.0337 4.61104C53.2752 4.73458 53.5622 4.8804 53.8678 5.04445C53.4507 4.81762 53.0523 4.60699 52.6621 4.40851C52.6662 4.41459 52.6889 4.43282 52.9243 4.55433C52.9181 4.55231 52.3256 4.24852 52.3049 4.23434C52.3091 4.23434 52.3235 4.24042 52.34 4.24852C51.8198 3.98928 51.3037 3.7503 50.7566 3.51537C50.6657 3.47689 50.6017 3.45056 50.5171 3.41815C50.5274 3.44651 50.5398 3.48296 50.5501 3.51132C50.9775 3.70169 51.4234 3.84954 51.8425 4.06016C51.6113 3.99738 51.3945 3.89409 51.1695 3.81511C51.3573 3.92245 51.5514 4.01561 51.7475 4.1027C51.6464 4.07232 51.5886 4.07232 51.5101 4.07232C51.5824 4.2708 53.7748 5.19635 53.7955 5.2004C53.8946 5.21862 54.0432 5.24698 54.3013 5.42723C54.3013 5.42723 54.3316 5.53187 54.3921 5.74115C56.8798 6.95226 59.1157 8.45907 61.0769 10.2393C60.823 9.99828 60.5732 9.76537 60.3482 9.56487C58.2073 7.80085 57.6994 7.38365 54.9702 5.65406V5.65203Z" fill="#26BF64" stroke="#00402A" stroke-width="0.5"/>
<path d="M24.069 7.65708C24.1164 7.69354 24.1825 7.68341 24.2321 7.71581C24.2775 7.74417 24.2362 7.81303 24.2899 7.83733C24.3146 7.84948 24.3621 7.84138 24.4302 7.81708C24.5665 7.76645 24.7317 7.67328 24.7874 7.6429C25.3613 7.32291 25.2829 7.28646 25.2354 7.2662C25.2313 7.2662 24.7255 7.22367 24.2486 7.43228C24.2486 7.43228 24.2527 7.42822 24.2548 7.42822C24.2486 7.42822 24.2341 7.42822 24.135 7.48696C24.0855 7.50923 24.0855 7.51126 24.0669 7.53354V7.53962H24.0648L24.0607 7.54367C24.0607 7.54367 24.0669 7.54164 24.069 7.53962C24.0297 7.6267 24.0504 7.64291 24.069 7.65708ZM24.069 7.53962L24.0731 7.53556C24.0731 7.53556 24.0731 7.53556 24.0731 7.53759L24.069 7.53962Z" fill="#26BF64"/>
<path d="M24.069 7.53962C24.0669 7.54164 24.0607 7.54367 24.0607 7.54367L24.0648 7.53962H24.0669V7.53354C24.0855 7.51126 24.0855 7.50923 24.135 7.48696C24.2341 7.42822 24.2486 7.42822 24.2548 7.42822C24.2527 7.42822 24.2486 7.43228 24.2486 7.43228C24.7255 7.22367 25.2313 7.2662 25.2354 7.2662C25.2829 7.28646 25.3613 7.32291 24.7874 7.6429C24.7317 7.67328 24.5665 7.76645 24.4302 7.81708C24.3621 7.84138 24.3146 7.84948 24.2899 7.83733C24.2362 7.81303 24.2775 7.74417 24.2321 7.71581C24.1825 7.68341 24.1164 7.69354 24.069 7.65708C24.0504 7.64291 24.0297 7.6267 24.069 7.53962ZM24.069 7.53962L24.0731 7.53556C24.0731 7.53556 24.0731 7.53556 24.0731 7.53759L24.069 7.53962Z" stroke="#00402A" stroke-width="0.5"/>
<path d="M24.7852 16.7951C24.7852 16.7951 24.7872 16.7991 24.7976 16.8032C24.7893 16.8032 24.7831 16.8032 24.7749 16.8032C24.7749 16.8032 24.7776 16.8012 24.7831 16.7971C24.781 16.7971 24.7769 16.7971 24.7769 16.8012V16.8032C24.7707 16.8133 24.7542 16.8174 24.7439 16.8234C24.7439 16.8234 24.5808 16.9551 24.5684 17.0867C24.5643 17.1151 24.6035 17.1981 24.7356 17.2528C24.8719 17.3095 24.9834 17.2731 25.0639 17.1495C25.0721 17.1374 25.2394 16.872 24.9792 16.8133C24.9194 16.8032 24.7914 16.787 24.7914 16.787C24.7852 16.791 24.7852 16.7931 24.7852 16.7971V16.7951Z" fill="#26BF64" stroke="#00402A" stroke-width="0.5"/>
<path d="M44.7673 1.54071C44.7529 1.53666 44.7384 1.53463 44.7219 1.53058C44.9779 1.58931 45.2442 1.65614 45.5064 1.72905C45.4445 1.71893 45.364 1.70273 45.302 1.6926C48.1779 2.57562 49.1048 2.85916 49.8047 3.12245C49.1564 2.86929 48.4504 2.6141 47.639 2.34271C45.8987 1.81817 45.6324 1.73716 44.7673 1.54071Z" fill="#26BF64" stroke="#00402A" stroke-width="0.5"/>
<path d="M50.6843 3.48096C50.7091 3.49108 50.7339 3.50121 50.7566 3.51134C50.7814 3.52146 50.8061 3.53159 50.835 3.54577C50.7814 3.52349 50.7318 3.50121 50.6843 3.48096Z" fill="#26BF64" stroke="#00402A" stroke-width="0.5"/>
<path d="M42.9466 57.1771C42.5667 57.0435 42.16 56.9949 41.7864 56.8349C41.3921 56.6668 41.101 56.3265 40.6798 56.205C40.5257 56.1604 40.1885 56.1665 39.6682 56.2232C38.5905 56.3427 37.901 55.4577 36.9637 55.2167C36.1895 55.0182 35.8241 55.245 35.7044 55.32C35.5434 54.7792 35.4277 54.3883 34.3129 54.8987C35.308 54.2405 35.1243 53.9671 34.9488 53.7018C34.763 53.4243 34.3666 53.4304 34.1808 53.1529C33.7899 52.5737 33.5442 52.2327 33.4438 52.1301C33.4231 52.1099 33.2373 51.9236 32.9813 51.7089C32.2319 51.0831 31.881 51.0203 31.7117 50.9919C31.6539 50.9818 31.5733 50.9778 31.5155 50.9757C31.179 50.9899 30.8714 51.1843 30.5225 51.1297C30.5039 51.1195 28.1339 49.4588 28.0224 49.2704C28.3596 48.5467 28.4801 48.1113 28.3837 47.9641C28.3176 47.9702 28.2309 47.9803 28.1669 47.9864C27.9536 48.3105 27.8318 48.4894 27.8015 48.5231C27.0521 48.4846 26.3543 47.6057 25.5657 48.3003C25.4563 48.2436 25.32 48.1424 25.2436 48.0472L23.1069 46.8685C22.9431 46.8658 22.5151 47.3174 21.8228 48.2234C21.8228 48.2234 21.4099 47.3667 22.0973 46.6761C21.9962 45.9915 21.286 46.3095 21.0197 46.431C20.7534 46.5505 20.4561 46.5849 20.2021 46.7328C19.6406 47.0609 19.3949 48.3044 18.6042 47.8406C18.1232 47.5591 18.0654 46.6254 17.3036 46.8178C16.4599 47.0298 15.9727 47.0649 15.842 46.9231C15.714 46.7834 15.5674 46.5748 15.4765 46.4067C14.8304 45.2219 16.0298 43.9217 15.2432 42.745C14.7168 41.9572 13.476 42.6822 13.0219 41.7384C15.3196 37.9856 13.0528 38.0565 12.3014 38.1679C11.6448 38.2651 11.9875 39.0448 11.6717 39.4053C10.3724 39.0516 9.60582 38.3947 9.37184 37.4347C9.15507 36.5416 9.7579 33.85 10.1997 33.3477C10.883 33.534 11.2072 32.7341 11.8368 32.7766C12.5697 32.8252 12.609 33.7588 13.2902 33.8743C13.3501 33.8844 13.4306 33.9026 13.4926 33.9067C14.0479 33.9391 14.5413 33.6191 15.0946 33.6333C16.0752 33.6596 16.5769 35.3001 16.5748 35.3163C16.5212 35.8368 17.2375 37.5968 17.7557 37.4712C18.2099 37.3618 18.2553 35.9158 17.9911 34.6966C17.9168 34.3563 17.8156 33.8905 18.4721 33.5948L21.6886 31.8612C21.7526 31.7558 21.6514 31.4662 21.5523 31.1867C21.4223 30.8181 21.4574 30.7797 21.6246 30.5933C21.9879 30.6136 22.1978 30.6068 22.2542 30.5731C22.6011 30.3665 22.5247 29.5949 23.0573 29.7366C23.2803 29.5301 23.2679 29.1311 23.6457 29.0521C24.232 28.9286 24.7089 29.6779 25.3324 29.2567C25.3241 29.3032 25.3489 29.206 25.3758 29.0946C25.2946 28.2899 25.2574 27.8842 25.2643 27.8774C25.768 27.3529 26.536 27.6324 27.1017 27.3002C27.1388 27.3124 27.1884 27.3306 27.2255 27.3448C27.2854 27.6628 27.1161 27.9868 27.2586 28.3007C27.7107 28.4607 30.6216 27.7539 30.6423 27.7438C31.1233 27.4906 30.6175 26.5448 30.6113 26.5367C30.5845 26.4962 30.5432 26.4375 30.4978 26.4192C30.0704 26.2491 30.056 26.9883 29.6203 26.8466C29.4965 26.8061 29.546 26.5549 29.5811 26.3868C29.5997 26.2998 29.5543 26.1742 29.5109 26.0952C29.2405 26.081 29.0423 26.3342 28.7636 26.2896C28.714 25.8805 29.0382 25.4876 28.8234 25.0704C28.7884 25.0036 28.5509 24.7707 28.0245 24.8598C26.9455 25.0448 26.388 25.1237 26.3523 25.0967C26.7053 23.8654 28.9886 24.2198 29.1744 24.4851C29.3458 24.7322 29.0918 25.0238 29.2611 25.2709C30.1344 25.2993 30.2211 24.9833 30.2583 24.8476C30.3037 24.6856 30.378 24.4162 30.857 24.3332C30.9416 24.319 31.0572 24.3231 31.1439 24.3332C31.2451 24.3454 31.3731 24.398 31.4722 24.4122C31.7406 24.4507 31.8004 24.4041 32.0193 24.1206C32.1225 23.9849 32.3083 24.0071 32.3702 24.0942C32.4425 24.1955 32.3702 24.4041 32.2897 24.4993C31.3167 25.6564 31.2843 26.2343 32.1927 26.2329C32.1989 26.2025 32.267 26.2329 32.298 26.2349C32.5849 26.2511 32.6758 26.3079 32.7997 26.3889C32.8967 26.4516 32.9896 26.5104 33.0866 26.5165C33.2786 26.5246 33.4334 26.3524 33.6358 26.4051C33.7989 26.4476 33.9165 26.6035 34.1023 26.5954C34.1787 26.5914 34.2881 26.5306 34.315 26.4597C34.3563 26.3524 34.3088 26.158 34.2551 26.0243C33.9351 25.2101 33.8608 25.1332 33.7947 25.0643C33.7658 25.036 33.7039 24.9833 33.5965 24.959C33.4665 24.9307 33.3302 24.955 33.2002 24.9347C32.9462 24.8942 32.5788 24.7322 32.9731 24.1104C33.3461 23.5204 33.5057 23.1633 33.452 23.0391C33.3302 22.7515 32.9648 22.798 32.7914 22.5793C32.3812 21.8408 32.0468 21.4627 31.7881 21.4452C31.1997 21.4067 31.1233 21.4006 31.1068 20.8902C31.0944 20.5419 31.0345 20.23 30.7352 19.4806C30.3677 18.5571 30.3016 18.389 29.6451 19.0837C29.1951 19.5617 29.096 19.5576 28.7904 19.4665C27.7933 19.1708 28.3197 18.7981 28.4353 18.7252C28.6445 18.5956 28.7457 18.4342 28.7388 18.2412C27.3948 17.0422 27.0335 16.8721 25.9868 16.9409C25.8939 16.947 25.7907 17.0463 25.7309 17.1151L24.6222 18.5146C24.5417 18.948 25.0847 19.2396 24.8968 19.6953C24.7399 20.0781 24.1433 20.5156 23.9162 20.2381C23.7758 20.0659 23.5384 19.7763 23.4186 20.1591C23.2328 20.7444 23.4104 21.3966 23.0718 21.9535C23.047 21.994 22.8179 22.3363 22.3203 21.9677C22.3017 21.5626 22.6733 21.2791 22.6733 20.8801C22.6321 20.868 22.5763 20.8518 22.533 20.8396C22.4607 20.8862 22.3657 20.951 22.2935 20.9996C22.2728 20.9996 22.2728 20.9996 22.2728 20.9996C22.1737 20.5095 22.8179 20.068 22.3719 19.5556C22.0457 19.1829 21.542 19.4098 21.1642 19.2072C20.6543 18.9358 20.549 18.304 20.0618 18.0123C19.9007 17.9151 19.7005 17.9394 19.5353 17.8564C20.1505 14.5126 22.7415 15.179 22.7642 15.2033C22.8261 15.2681 22.8674 15.3855 22.9087 15.4645C22.95 15.4686 23.0078 15.4726 23.0491 15.4767C23.2328 15.3106 23.3567 15.0838 23.5879 14.9643C23.623 14.9845 23.6705 15.0129 23.7056 15.0331C23.6911 15.343 23.3092 15.4524 23.2906 15.7602C23.7593 16.062 24.1618 15.5719 24.6119 15.6569C24.7048 15.8878 24.4054 16.2382 24.7254 16.3718C24.8534 16.4265 25.3303 16.2929 25.4501 16.0093C25.5678 15.7298 24.9133 14.6281 24.9071 14.618C26.3646 14.7476 26.3543 14.2473 26.3399 13.5567C26.695 13.2266 27.1698 13.5729 27.5435 13.3542C27.5517 13.4413 27.56 13.5567 27.562 13.6438C27.7699 13.6775 27.9013 13.7208 27.9564 13.7734C27.9089 14.2797 27.2338 14.2635 27.1326 14.7253C27.6694 15.0007 27.7293 14.9562 28.4684 14.4114C28.5613 14.4539 28.6624 14.5572 28.714 14.6443C28.6913 14.6949 28.6624 14.7617 28.6397 14.8124C28.1339 14.9481 27.7706 15.7643 27.1698 15.343C26.9984 15.2215 26.8643 15.1526 26.5938 15.2984C26.5298 15.3329 26.0694 15.7136 26.1045 16.1835C26.7074 16.4103 27.4031 16.3617 27.946 16.7728L29.4304 17.8098C29.738 17.9151 29.9135 17.6376 30.1592 17.5647C30.3285 17.6883 30.3904 17.8969 30.5432 18.0366C30.5845 18.0346 30.6381 18.0305 30.6794 18.0285C30.6856 18.0204 31.2079 17.2427 30.5143 16.5865C30.155 16.2463 30.3532 16.0336 30.4544 15.9587C30.8549 16.1045 30.9499 16.6878 31.4825 16.6412C31.6415 16.627 32.5147 16.143 32.5767 15.7703C31.9594 15.4686 31.5155 14.8974 30.8425 14.6848C30.7496 14.298 31.179 13.9516 30.9292 13.5527C30.6485 13.1091 30.058 13.1375 29.7174 12.7871C29.385 12.4428 29.3582 11.894 28.9102 11.6266C28.8957 11.6185 27.2875 11.0109 26.7569 11.6752C26.567 11.9142 26.503 11.9183 26.2408 11.9385C26.3791 11.5821 26.7858 11.3978 26.8684 11.0028C26.375 10.4722 24.9092 11.2783 24.8039 12.139C24.744 12.6393 25.6937 12.3982 25.5781 12.8884C25.5781 12.8884 25.2106 13.1091 24.4756 13.5506C24.4571 13.5142 24.4302 13.4676 24.4116 13.4311C24.6208 13.1098 24.7186 12.8796 24.7048 12.7405C24.5293 12.6372 24.3291 12.7486 24.1494 12.6818C24.1845 12.137 24.7894 11.7036 24.4736 11.0899C23.3422 11.1871 23.2328 12.4975 22.3079 12.8418C22.2852 12.8074 22.2522 12.7628 22.2295 12.7304C22.4793 12.3841 22.8364 12.1228 23.0449 11.7441C22.9727 11.7198 22.9727 11.7198 22.9727 11.7198C22.3368 11.4484 22.2728 12.4712 21.6824 12.4124C21.6741 12.4124 20.5861 11.8777 20.4747 11.6894C20.741 11.2378 21.1559 11.4524 21.2943 11.5254C21.4615 11.6124 21.8124 11.6894 22.279 11.2297C22.3059 11.2013 22.341 11.1628 22.3616 11.1284C22.5164 10.8671 22.1552 10.6444 22.3059 10.3851C22.5247 10.0064 23.0408 9.96994 23.2555 9.58716C23.1874 9.54666 23.0883 9.50413 23.0119 9.48185C23.0202 9.44337 23.0284 9.39071 23.0367 9.3502C22.8034 9.17603 22.6981 9.21856 22.3761 9.46159C22.4256 9.38463 22.4813 9.27527 22.5123 9.18818C22.4607 9.1335 22.4153 9.08692 22.374 9.04236C22.4855 9.08489 22.5784 9.16185 22.6899 9.20438C22.8013 9.24692 22.9108 9.1659 23.0222 9.20438C23.0759 9.22261 23.0718 9.26514 23.0697 9.27932C23.2328 9.31982 23.3753 9.2854 24.1433 8.7892C24.5252 8.54212 24.5107 8.48136 24.5045 8.46313C24.4715 8.44491 24.4591 8.43883 24.3063 8.45503C24.2506 8.46111 24.1577 8.47123 24.1577 8.41655C24.1556 8.28086 24.4571 8.13909 24.294 8.0601C24.2258 8.0277 24.0049 8.09656 23.8418 8.14516C23.6911 8.19174 23.528 8.2363 23.4867 8.20187C23.4475 8.16947 23.5095 8.08643 23.5755 8.00542C23.687 7.86973 23.7324 7.81302 23.6602 7.73403C23.656 7.73403 23.6457 7.73808 23.6519 7.72796C23.6519 7.72796 23.6519 7.73201 23.6519 7.73403C23.6519 7.73403 23.656 7.73403 23.6581 7.73403C23.6643 7.73403 23.6705 7.72998 23.6746 7.72593C23.6932 7.70973 23.6932 7.70973 23.6994 7.6915C23.6994 7.68745 23.6953 7.6834 23.6932 7.68138C23.6891 7.68138 23.6849 7.68543 23.6829 7.68745C23.6829 7.68745 23.6829 7.68745 23.6829 7.68543C23.6726 7.69353 23.6643 7.70365 23.656 7.71378C23.6416 7.70365 23.5941 7.58619 23.6065 7.55176C23.623 7.5072 23.7138 7.42416 23.7882 7.35733C23.943 7.21556 24.0256 7.1143 23.9554 7.04544C23.848 6.96038 23.3216 6.93405 23.2555 6.9462C23.144 6.96645 23.0449 7.02519 22.9355 7.04949C22.8406 7.07177 22.7394 7.06772 22.6444 7.09202C22.6052 7.10215 22.5536 7.11835 22.5164 7.13455C22.343 7.20746 22.246 7.30873 22.2563 7.35936C22.2646 7.39581 22.535 7.55581 22.7353 7.56796C22.8344 7.57404 22.8488 7.59024 22.8509 7.59429C22.8633 7.62872 22.853 7.66517 22.6279 7.79682C22.5247 7.85758 22.4937 7.87985 22.4524 7.92846C22.4607 7.92846 22.4731 7.93251 22.4813 7.93454C22.4834 7.94061 22.4875 7.94669 22.4896 7.95276C22.4586 8.01757 22.3967 8.05402 22.3389 8.09453C22.3699 8.0439 22.4008 7.98922 22.438 7.92846C21.8125 7.92036 21.8021 7.86162 21.7278 7.46872C21.4326 7.35733 20.0742 7.93251 19.9544 8.03985C19.9833 8.28086 19.7438 8.42263 19.7211 8.64541C19.9111 8.84793 19.9771 8.91679 20.4891 8.69604L19.3619 9.92538C19.1493 9.48387 19.684 8.49554 18.9903 8.52997C19.022 8.48406 19.1382 8.36457 19.3392 8.17149C19.2607 8.16137 19.1513 8.16339 19.0729 8.17149C19.1059 8.09251 19.1555 7.98719 19.1967 7.91226C19.0626 7.84947 18.9118 7.85352 18.7694 7.82112C18.7694 7.78196 18.8017 7.65302 18.8664 7.43429C18.8499 7.43429 18.6614 7.47007 18.3008 7.54163C18.4226 7.24999 19.4032 6.37507 19.5147 6.27786C19.5085 6.19685 19.4734 6.09153 19.428 6.02267C19.43 6.0166 19.9276 5.21054 21.0321 4.55435C20.9516 4.55637 20.8442 4.5746 20.7658 4.59688C20.7781 4.43081 20.8284 4.30389 20.9165 4.21613C20.9082 4.21613 20.1712 4.58405 18.7054 5.3199C19.013 5.05864 19.3867 4.89459 19.7191 4.66979C18.6868 4.99991 17.3944 5.91533 13.9406 8.35984L13.6495 8.59275L13.6329 8.60693C13.5146 8.70279 13.412 8.7892 13.3253 8.86616C13.4533 8.78718 13.5772 8.70211 13.7052 8.62313C13.5586 8.76692 13.3997 8.89654 13.2469 9.03224C13.9839 9.04236 14.2482 8.33149 14.7973 8.05403C14.5042 8.33554 14.1821 8.58465 13.9117 8.88844C14.0383 8.87764 14.231 8.79798 14.4897 8.64946C14.4753 8.67579 12.5924 11.8231 11.2526 12.9957C10.9037 13.3015 10.4681 13.6823 10.2389 14.458C10.3573 14.412 10.6869 14.0779 11.2278 13.4554C10.296 14.6044 9.65674 15.7042 9.30991 16.7546C9.28514 16.8289 8.45315 18.069 6.81394 20.4751C7.28258 19.9019 6.61988 20.793 6.78091 20.5257C5.66815 22.3343 4.71023 26.5711 5.055 27.359C5.17061 27.6223 5.60828 27.8936 5.84776 27.7701C6.07692 30.6703 5.58351 33.607 6.30401 36.4808L7.52826 39.4499C7.9329 40.0838 8.64102 40.3957 9.14475 40.9243C9.45442 40.8595 9.73107 40.42 10.0676 40.7096C10.6518 41.2098 10.7241 42.022 11.2423 42.5627C11.7377 43.0771 12.514 43.1906 12.9868 43.7374C13.2366 44.027 13.2985 44.2154 13.3708 44.5455C13.476 45.0295 13.7238 46.1616 16.3271 48.2193C16.7999 48.592 17.155 47.4133 17.5596 47.8568C17.5761 47.873 18.9366 49.8659 18.2822 50.9514C17.9002 51.5813 16.7751 51.4577 16.7256 52.4258C16.665 53.6356 17.0965 54.8521 18.02 56.0754C17.9952 56.0693 17.9684 56.0632 17.9436 56.0572C17.859 55.9397 20.26 59.8323 20.26 59.8323C20.805 60.3811 23.6003 61.7867 23.623 61.7968C23.6168 61.8211 23.6086 61.8515 23.6024 61.8758C24.0751 62.4145 24.1123 62.4591 24.199 62.7628C24.3311 63.2287 24.3311 63.7168 24.4447 64.1846C24.5417 64.5856 24.9009 64.8671 24.967 65.2823C24.9739 65.3228 24.861 65.3964 24.6284 65.5031C24.6201 65.6306 24.7482 65.6995 24.7688 65.8149C24.7275 65.8473 24.6759 65.8919 24.6387 65.9284C24.7089 66.1694 25.0062 66.2362 25.0764 66.4792L25.1115 67.579C25.1487 67.6681 25.1734 67.7329 25.7536 68.3C25.927 68.4701 26.1706 68.5551 26.3213 68.7516C26.3977 68.8508 26.2243 68.9582 26.3337 69.0574C26.4224 69.1384 27.0521 69.4807 27.0583 69.4847C28.1793 70.0235 30.1571 70.3637 31.1481 70.4812C30.5907 70.2888 29.9734 70.3354 29.4345 70.068C29.5543 69.9668 29.7132 69.987 29.8516 69.9465C29.8619 69.9242 29.8743 69.8959 29.8825 69.8756C29.6616 69.7237 29.3871 69.7399 29.1476 69.6488C29.1434 69.6265 29.1373 69.5961 29.1352 69.5739C29.2577 69.5333 29.4772 69.4368 29.7938 69.2842C29.7979 69.2599 29.802 69.2275 29.8061 69.2032C29.5625 69.1121 29.3024 69.0594 29.0753 68.9298C29.4242 68.9096 29.7421 69.1465 30.0993 69.0432C30.0374 68.9521 29.9445 68.8832 29.8949 68.782C29.9224 68.7455 30.2707 68.7529 30.9395 68.8043C31.0648 68.8137 31.3655 68.734 31.8417 68.5653C31.8231 68.4215 31.7839 68.2817 31.7426 68.1379C31.5747 68.0353 31.4419 67.9577 31.3442 67.905C31.4866 67.9597 31.5093 67.9658 31.6518 68.0022C31.6477 67.984 31.6931 68.0103 31.7096 68.0144C32.3785 68.1481 32.7646 68.1805 33.1362 67.9921C33.1444 67.9881 33.9 67.5729 33.9227 67.5141C33.9957 67.3197 34.0542 67.2056 34.0982 67.1719C34.2531 67.0524 34.4657 67.0828 34.6247 66.9775C34.9302 66.777 35.2832 66.6575 35.5578 66.4083C35.5743 66.3935 35.542 66.2146 35.4608 65.8716C35.3328 65.3329 38.19 64.9015 38.5389 64.8853C38.8961 64.8671 39.0303 64.861 39.1314 64.8003C39.3461 64.6707 39.3585 64.4033 39.5216 64.2393C39.695 64.0651 39.9036 63.9335 40.0935 63.7795C40.2545 63.6499 40.2979 63.5932 40.3495 63.5142C40.3557 63.5041 40.9399 62.2282 40.8594 61.8798C40.7624 61.4646 41.1402 61.096 41.1443 61.092C41.7327 60.5431 42.4842 60.1907 43.0354 59.5973C43.3017 59.3097 43.6485 58.4004 43.6485 58.4004L43.6527 58.3882C43.6527 58.3882 43.7084 58.2323 43.7229 58.1513C43.8178 57.6389 43.2563 57.2966 42.9466 57.1873V57.1771ZM23.6478 7.72188C23.6478 7.72188 23.6478 7.71783 23.6498 7.7158C23.6498 7.7158 23.6498 7.7158 23.6519 7.7158C23.6519 7.7158 23.6498 7.71986 23.6478 7.71986V7.72188ZM22.2192 8.28896C22.2274 8.31731 22.2419 8.34567 22.2336 8.37605C22.213 8.44896 22.1572 8.50364 22.1242 8.57047C22.118 8.58262 22.1139 8.59275 22.1097 8.60288C22.1118 8.51579 22.149 8.4206 22.2192 8.28896ZM29.5481 70.2057C29.5791 70.2078 29.5811 70.2078 29.5832 70.2057C29.5791 70.2057 29.5729 70.2057 29.5687 70.2057C29.5563 70.2057 29.5419 70.2057 29.5295 70.2037C29.5336 70.2037 29.5357 70.2017 29.5502 70.2037L29.5481 70.2057ZM31.0779 67.4878C31.0737 67.5243 31.0779 67.5547 31.0779 67.5648C31.0655 67.5283 31.0655 67.506 31.0779 67.4858C31.0779 67.4858 31.0779 67.4858 31.0779 67.4878Z" fill="#26BF64" stroke="#00402A" stroke-width="0.5"/>
<path d="M52.6601 4.40652C52.6601 4.40652 52.6663 4.40652 52.6704 4.40652C52.6477 4.39032 52.4991 4.31943 52.497 4.31741C52.4908 4.31538 52.3958 4.2688 52.3401 4.24652C52.4474 4.29918 52.5527 4.35386 52.6601 4.40854V4.40652Z" fill="#26BF64" stroke="#00402A" stroke-width="0.5"/>
<path d="M72.1094 32.8576C72.1424 33.2343 72.1754 33.5989 72.2043 33.929C72.1837 33.5563 72.1507 33.1999 72.1094 32.8576Z" fill="#26BF64" stroke="#00402A" stroke-width="0.5"/>
<path d="M23.2699 11.1729C23.3009 11.1628 23.5817 11.0737 23.8356 10.8854C23.8356 10.8854 24.6614 10.2271 24.3125 10.0752C24.1473 10.0206 23.9615 10.0752 23.8046 9.98411C23.7572 9.95575 23.7303 9.90107 23.6725 9.88487C23.6643 9.88284 23.6498 9.87879 23.6415 9.87677C23.6064 9.86867 23.5466 9.88284 23.5177 9.88892C23.3339 9.92942 22.9437 10.2089 23.0098 10.3588C23.0676 10.4925 23.2266 10.4013 23.3071 10.4823C23.3009 10.5957 23.1048 10.7861 23.0201 10.8611C23.0201 10.8611 23.0243 10.8651 23.0263 10.8651C23.0305 10.8611 23.0366 10.855 23.0387 10.8489C22.9437 11.0271 22.7848 11.3248 23.2617 11.179L23.2699 11.1729Z" fill="#26BF64" stroke="#00402A" stroke-width="0.5"/>
<path d="M63.0238 26.7635C63.3128 26.8142 63.4532 26.5185 63.3128 26.1539C63.1807 25.8137 62.8937 25.6496 62.7409 25.7408C62.6439 25.8116 62.615 25.9716 62.6666 26.162C62.712 26.3261 62.8586 26.6663 62.8586 26.6683C62.8689 26.6866 62.904 26.7433 63.0217 26.7635H63.0238Z" fill="#26BF64" stroke="#00402A" stroke-width="0.5"/>
<path d="M25.5864 8.14111C25.6834 8.15124 25.7288 8.15731 25.7288 8.19579C25.7288 8.22617 25.6937 8.27275 25.6483 8.32946C25.5409 8.46718 25.5409 8.58465 25.6462 8.67984C25.6855 8.71629 25.7742 8.73047 25.9642 8.60085C26.1685 8.4611 26.439 8.18567 26.5092 8.04795C26.6062 7.8515 26.5009 7.76036 26.4431 7.72593C26.4514 7.72998 26.4596 7.732 26.4638 7.732C26.4762 7.72998 26.4638 7.7077 26.4431 7.69757C26.439 7.69555 26.4349 7.69352 26.4307 7.69352C26.4349 7.68542 26.4328 7.6834 26.4307 7.6834C26.4266 7.6834 26.4183 7.68745 26.4163 7.68947C26.4163 7.68947 26.406 7.6996 26.406 7.70365C26.406 7.70365 26.4039 7.70568 26.4018 7.7077C26.4018 7.7077 26.4039 7.71175 26.408 7.71175C26.408 7.71175 26.3977 7.71175 26.3936 7.70973C26.3936 7.67867 26.3901 7.66112 26.3832 7.65707C26.2002 7.59226 26.0467 7.58483 25.9229 7.63479C25.5038 7.80289 25.3283 7.99326 25.3613 8.06617C25.3861 8.12086 25.51 8.13503 25.5843 8.14314L25.5864 8.14111Z" fill="#26BF64" stroke="#00402A" stroke-width="0.5"/>
<path d="M26.1375 8.87626L26.1045 9.28536C26.1169 9.45346 26.2387 9.59321 26.2469 9.76333C26.2552 9.96181 26.1334 10.14 26.1602 10.3405C26.1623 10.3628 26.1809 10.4742 26.2696 10.5512C26.3047 10.5815 26.3522 10.6079 26.4121 10.6281C26.6268 10.7071 26.8622 10.695 27.0789 10.7618C27.4588 10.8813 27.7747 11.1446 28.1669 11.2377C28.4085 11.2965 28.5757 11.1729 28.6355 11.1162C28.6851 11.0696 28.7925 10.9542 28.7161 10.8509C28.714 10.8509 28.7037 10.8509 28.6995 10.8428C28.6913 10.8408 28.6892 10.8367 28.6872 10.8347C28.6913 10.8347 28.6954 10.8388 28.6995 10.8388C28.6995 10.8388 28.6995 10.8408 28.6995 10.8428C28.6995 10.8428 28.7057 10.8469 28.7078 10.8489C28.7181 10.8469 28.7305 10.8448 28.7408 10.8448C28.7408 10.8408 28.7408 10.8327 28.7408 10.8286C28.7305 10.8246 28.7181 10.8205 28.7099 10.8145C28.7037 10.8145 28.7037 10.8145 28.7037 10.8145H28.6995C28.7037 10.8003 28.714 10.7679 28.6851 10.7355L27.1945 10.2109C26.7383 10.0874 26.7115 10.0793 26.8518 9.51827C26.889 9.37448 26.9262 9.22461 26.9076 9.10511C26.9034 9.07879 26.8952 9.04436 26.8869 9.02005C26.856 8.91474 26.7796 8.8317 26.7465 8.72639C26.7218 8.64538 26.7507 8.56031 26.7238 8.48133C26.7197 8.46715 26.7053 8.45298 26.6908 8.4469C26.5091 8.455 26.1478 8.8074 26.1334 8.88031L26.1375 8.87626ZM28.6954 10.8165C28.6954 10.8165 28.6954 10.8185 28.6954 10.8205C28.6954 10.8185 28.6954 10.8145 28.6954 10.8124C28.6954 10.8124 28.6954 10.8145 28.6975 10.8145L28.6954 10.8165ZM28.6934 10.8225C28.6934 10.8225 28.6892 10.8286 28.6892 10.8347C28.6892 10.8307 28.6892 10.8266 28.6934 10.8225Z" fill="#26BF64"/>
<path d="M28.6995 10.8428C28.7037 10.8509 28.714 10.8509 28.7161 10.8509C28.7925 10.9542 28.6851 11.0696 28.6355 11.1162C28.5757 11.1729 28.4085 11.2965 28.1669 11.2377C27.7747 11.1446 27.4588 10.8813 27.0789 10.7618C26.8622 10.695 26.6268 10.7071 26.4121 10.6281C26.3522 10.6079 26.3047 10.5815 26.2696 10.5512C26.1809 10.4742 26.1623 10.3628 26.1602 10.3405C26.1334 10.14 26.2552 9.96181 26.2469 9.76333C26.2387 9.59321 26.1169 9.45346 26.1045 9.28536L26.1375 8.87626L26.1334 8.88031C26.1478 8.8074 26.5091 8.455 26.6908 8.4469C26.7053 8.45298 26.7197 8.46715 26.7238 8.48133C26.7507 8.56031 26.7218 8.64538 26.7465 8.72639C26.7796 8.8317 26.856 8.91474 26.8869 9.02005C26.8952 9.04436 26.9034 9.07879 26.9076 9.10511C26.9262 9.22461 26.889 9.37448 26.8518 9.51827C26.7115 10.0793 26.7383 10.0874 27.1945 10.2109L28.6851 10.7355C28.714 10.7679 28.7037 10.8003 28.6995 10.8144H28.7037C28.7037 10.8144 28.7037 10.8144 28.7099 10.8144C28.7181 10.8205 28.7305 10.8246 28.7408 10.8286C28.7408 10.8327 28.7408 10.8408 28.7408 10.8448C28.7305 10.8448 28.7181 10.8469 28.7078 10.8489C28.7057 10.8469 28.6995 10.8428 28.6995 10.8428ZM28.6995 10.8428C28.6913 10.8408 28.6892 10.8367 28.6872 10.8347C28.6913 10.8347 28.6954 10.8388 28.6995 10.8388C28.6995 10.8388 28.6995 10.8408 28.6995 10.8428ZM28.6954 10.8165C28.6954 10.8165 28.6954 10.8185 28.6954 10.8205C28.6954 10.8185 28.6954 10.8145 28.6954 10.8124C28.6954 10.8124 28.6954 10.8144 28.6975 10.8144L28.6954 10.8165ZM28.6934 10.8225C28.6934 10.8225 28.6892 10.8286 28.6892 10.8347C28.6892 10.8307 28.6892 10.8266 28.6934 10.8225Z" stroke="#00402A" stroke-width="0.5"/>
<path d="M64.5165 26.6825L64.5495 26.7493C64.5846 26.7939 64.6321 26.8303 64.6692 26.8729C64.6692 26.8729 64.6713 26.8769 64.6734 26.8769C64.6878 26.887 64.7085 26.9032 64.725 26.9093C64.8261 26.9437 64.9335 26.9498 65.0326 26.9863C65.1565 27.0308 65.2659 27.1037 65.3918 27.1443C65.4207 27.1544 65.462 27.1645 65.493 27.1605C65.654 27.1463 65.7036 26.966 65.6705 26.7939C65.6623 26.7554 65.6478 26.7048 65.6334 26.6683C65.5467 26.4395 65.3815 26.2916 65.2948 26.2714C65.2122 26.2511 64.9479 26.2876 64.7147 26.4557C64.5908 26.563 64.5743 26.6319 64.5908 26.7351C64.5206 26.6278 64.5144 26.6845 64.5144 26.6845L64.5165 26.6825ZM64.6878 26.8526C64.6878 26.8526 64.6878 26.8567 64.6878 26.8587C64.6858 26.8587 64.6816 26.8587 64.6775 26.8587C64.6775 26.8506 64.6775 26.8445 64.6734 26.8384C64.6796 26.8445 64.6837 26.8486 64.6858 26.8546L64.6878 26.8526Z" fill="#26BF64" stroke="#00402A" stroke-width="0.5"/>
<path d="M64.6737 26.878C64.6737 26.878 64.6711 26.878 64.6711 26.8729C64.6711 26.8729 64.6711 26.8755 64.6737 26.878Z" fill="#26BF64" stroke="#00402A" stroke-width="0.5"/>
<path d="M25.191 9.91931C25.191 9.91931 25.1884 9.92193 25.1858 9.92454C25.1858 9.92454 25.191 9.92193 25.191 9.91931Z" fill="#26BF64" stroke="#00402A" stroke-width="0.5"/>
<path d="M72.2169 34.1862V34.1558C72.0703 32.0394 70.7903 30.2004 70.6747 28.0779C70.6871 28.0881 71.7441 29.8278 72.1095 32.8556C72.0393 32.0596 71.9588 31.207 71.8597 30.5164C71.1784 26.9924 71.1371 26.7818 70.4311 24.641L70.3795 24.4891L70.3753 24.475C70.0058 23.4137 69.2089 21.3115 68.0156 19.1343L66.9978 17.4189C66.9235 17.2812 66.8409 17.1435 66.7522 17.0057C66.1349 16.1207 65.3173 14.9359 64.6546 14.0812C63.9217 13.2266 62.9452 12.0823 62.1607 11.2742C61.9646 11.0757 61.7644 10.8793 61.562 10.6869C61.4031 10.535 61.242 10.3851 61.0789 10.2373C59.1197 8.45704 56.888 6.95833 54.4396 5.78772C54.7306 6.02873 55.0733 6.19683 55.3768 6.41961C55.3686 6.45404 55.3603 6.50062 55.3521 6.53707C55.5461 6.70517 55.7071 6.90365 55.9053 7.06567C55.8888 7.09403 55.864 7.13453 55.8475 7.16289C55.9982 7.42617 57.0036 8.40438 57.0119 8.41248C56.6362 8.28489 56.3719 7.96895 56.0003 7.8373C55.99 7.87578 55.9755 7.92439 55.9652 7.96287C56.3533 8.47932 56.9871 8.64134 57.495 8.98564C57.4165 8.96943 57.3133 8.935 57.2411 8.90057C57.2266 8.93298 57.2101 8.97753 57.1956 9.00994C57.2349 9.07475 57.2885 9.16183 57.3257 9.22867C57.1358 9.02614 56.8158 8.68589 55.9817 8.60691C55.9074 8.76083 55.99 8.91272 55.99 9.06462C55.2323 9.61955 54.3425 8.64741 53.589 9.2631C53.5683 9.35423 53.5539 9.48183 53.5766 9.57094C53.8574 10.6808 54.5242 11.6306 54.9061 12.7C55.2571 13.6823 54.7575 14.7496 55.2282 15.7197C55.2385 15.742 56.7807 17.7004 57.5094 17.3116C57.5865 17.271 57.5879 16.9538 57.5136 16.3597C57.5425 16.3435 57.5817 16.3192 57.6127 16.303C58.2712 16.6493 58.3621 17.6396 59.2684 17.7024C59.4026 17.5688 59.832 16.8761 59.7205 16.6189L58.7646 14.7698C58.7419 14.7354 58.713 14.6888 58.6903 14.6564C58.4158 14.2716 57.7964 14.4458 57.5693 13.9881C57.3608 13.5709 57.559 13.0625 57.2638 12.6656C57.2638 12.6656 57.1213 12.4772 56.9149 12.2706C56.6052 11.9608 56.6011 11.9425 56.5763 11.7987C56.7125 11.6712 56.7229 11.655 56.8178 11.5395C56.9541 11.576 57.2369 11.6529 57.526 12.5805C57.8707 13.6944 59.1879 14.2372 59.2003 14.2412C59.2354 14.223 59.2808 14.1967 59.3138 14.1784C59.3283 12.7304 60.0322 13.4007 60.0384 13.4088C60.2779 13.6438 60.2284 13.7106 59.7618 14.3627C59.481 14.7536 60.3048 14.7921 60.4555 15.1162C60.4348 15.1445 60.4059 15.181 60.3832 15.2073C60.218 15.2154 60.1052 15.2505 60.0446 15.3126C60.1479 16.0133 60.856 16.3738 61.0397 17.028C59.7584 17.9596 58.9663 18.1736 58.6635 17.67C58.3063 17.0746 58.1598 17.1414 58.0049 17.2893C57.3154 17.9495 58.7564 18.4194 58.8741 19.1039C58.8163 19.1505 58.7275 19.2032 58.6573 19.2234C57.6994 19.4968 58.4281 20.6553 57.7159 21.0806C57.6429 21.0374 57.5686 20.9375 57.4929 20.7809C57.4434 20.6938 57.4434 20.6917 57.4413 20.6917C57.4413 20.6917 57.4413 20.6917 57.4413 20.6897C57.4413 20.6897 57.4413 20.6897 57.4413 20.6877C57.4413 20.6877 57.4413 20.6877 57.4413 20.6857C57.4413 20.6857 57.4413 20.6857 57.4413 20.6836C57.4413 20.6836 57.4413 20.6836 57.4413 20.6816C57.4413 20.6816 57.4413 20.6816 57.4413 20.6796C57.4413 20.6796 57.4413 20.6796 57.4413 20.6776C57.4372 20.6776 57.4351 20.6735 57.4351 20.6735C56.8447 20.4001 54.933 19.4502 55.094 18.7414C55.1312 18.5733 55.222 18.1804 54.71 18.0042C54.7038 18.0022 53.5332 18.0548 53.4569 18.1014C53.4218 18.1217 53.4094 18.1824 53.3887 18.2169L52.8809 19.1059C53.0274 19.5292 53.463 19.6832 53.7356 19.9869C53.1038 20.4636 52.7907 20.8146 52.7962 21.0401C52.7962 21.0543 52.9944 22.5469 53.7975 22.6765C54.4065 22.7737 54.7224 21.4958 54.7265 21.4836C54.8132 20.9996 54.3756 20.7484 54.2125 20.3738C54.5056 20.1915 55.3624 20.3191 55.2777 20.7788C55.0947 21.7577 55.0052 22.2512 55.0093 22.2593C55.0403 22.3322 55.1394 22.4031 55.2158 22.4274C55.4945 22.5125 55.8186 22.3585 56.0705 22.5833C56.1056 22.5793 56.1531 22.5732 56.1882 22.5692C56.5598 22.0122 57.7014 22.3444 57.7262 21.4634C57.8769 21.591 57.9327 21.6396 57.9657 21.8542C57.9967 22.0527 57.7737 22.2046 57.559 22.3504C57.5425 22.3606 56.0024 23.4704 56.2233 23.7762C56.3058 23.8917 56.5123 23.9221 56.8653 23.9342C58.393 23.995 58.3951 25.2365 58.36 25.6172C58.3208 26.0344 58.0173 26.0891 57.2823 26.2167C55.6535 26.5023 55.1043 26.5975 55.895 28.1792C57.5879 27.7458 59.161 27.2233 60.5835 26.6258C59.161 27.2233 57.59 27.7458 55.9033 28.1934C56.1778 28.7605 56.1386 28.9245 56.0705 29.2202C56.0024 29.5159 56.0271 29.6637 56.1799 29.8825C56.184 29.8885 56.7662 30.5832 57.0656 30.6359C57.3174 30.6804 57.5239 30.4657 57.7778 30.5204C58.0937 30.5893 58.232 31.1219 58.6263 30.9214C58.6883 30.891 58.7337 30.8465 58.7605 30.8242C58.9443 30.6561 59.0743 30.4394 59.2705 30.2814C59.6242 29.9979 59.8162 29.8392 59.8464 29.8055C59.9703 29.6657 60.2098 29.3174 60.3275 28.9812C60.4864 28.5356 60.2759 28.086 60.3419 27.6384C60.3977 27.2577 60.6743 26.9721 60.7982 26.6197C60.8085 26.5914 60.8188 26.5509 60.8291 26.5225C60.9055 26.1823 60.7693 25.8177 60.9654 25.4937C61.1223 25.2344 61.4609 25.3843 61.6508 25.202C61.8882 24.9732 61.7871 24.558 62.1236 24.3838C62.8338 24.0172 63.1599 24.8395 63.6843 25.0501C64.0931 25.1919 64.5721 25.0886 64.9354 25.3944C65.0964 25.5301 65.2079 25.6942 65.307 25.838C65.3958 25.9676 65.5609 26.2086 65.7591 26.2673C66.1287 26.3767 66.0667 25.9959 65.9326 25.7124C65.8809 25.603 65.7344 25.356 65.5837 25.1676C65.5176 25.0866 65.4515 25.0036 65.4185 24.9185C65.3483 24.7322 65.5052 24.5519 65.4309 24.3656C65.3483 24.161 65.1728 24.0659 65.1068 24.0314C64.0057 23.5643 63.2873 23.2011 62.9514 22.9418C63.429 23.0377 64.1674 23.384 65.1666 23.9808C66.1452 24.6552 65.8562 26.3018 67.2848 26.6299C67.6069 25.8906 67.3674 24.2319 67.004 24.0395C66.6778 23.8674 66.5375 23.7054 66.7811 23.3732C67.3116 23.7884 67.6378 24.4304 68.3005 24.7018C68.3046 24.6998 68.765 24.3899 68.8517 23.754C69.3555 23.9646 69.8282 26.1175 69.8324 26.1397C69.9108 26.6501 69.4195 26.9944 69.4236 27.4825C69.3713 27.2422 69.2915 27.0585 69.1841 26.9316C69.1717 26.9377 67.8505 27.7478 67.9 28.5822C67.9248 29.0116 67.9599 29.5989 67.6419 29.6192C66.9772 29.6637 64.8363 29.7164 65.1398 28.5741C65.2575 28.1306 64.8921 27.4724 64.4007 27.2455C63.835 26.9843 58.4508 31.1503 58.4158 31.2009L57.2514 33.3538C57.0862 34.1598 57.6994 35.0834 56.8695 35.7902C55.8881 36.6232 55.3452 37.3004 55.2406 37.8215C54.8043 39.994 54.69 41.2821 54.8979 41.6858C55.0155 41.9126 55.2612 42.3865 55.1146 43.0427C55.0981 43.1176 55.0713 43.2149 55.0527 43.2878C54.8979 43.8832 54.3528 44.2943 54.2579 44.9161C54.2476 44.9789 54.2476 45.068 54.2723 45.1267L55.1745 47.069C56.3871 47.551 57.0346 47.898 57.1172 48.11C57.5879 49.3312 57.9863 49.6451 58.3352 49.9226C58.6642 50.1832 59.1404 50.0461 59.7639 49.5114C60.3956 48.9707 61.2792 49.155 61.9687 48.7783C62.6996 48.3773 62.8854 47.4882 63.577 47.0507C63.6823 46.9839 63.8247 46.8968 63.9424 46.8604C64.3966 46.7226 64.5721 46.8158 64.6133 46.8482C64.9499 47.1014 64.9127 47.5834 65.243 47.8406C65.3999 47.8028 65.7172 47.5172 66.1947 46.9839C66.6861 46.9839 66.6923 47.235 66.6923 47.2614C66.6593 48.3388 65.532 49.0841 65.7591 50.2385C66.0165 51.5495 66.1046 52.3495 66.0234 52.6385C67.7968 51.5387 68.9942 50.2871 69.6135 48.993C69.6197 48.9788 69.628 48.9646 69.6342 48.9525C69.6755 48.8654 69.7147 48.7763 69.7498 48.6872C70.1131 47.6725 70.6107 46.3237 70.9204 45.2908C71.5191 42.8402 72.1363 40.3045 72.2499 36.6651L72.2292 34.1841L72.2169 34.1862ZM58.0173 10.0914C57.9967 10.134 57.945 10.1481 57.9244 10.1907C57.9058 10.2271 57.9368 10.2676 57.9141 10.3041C57.9079 10.3122 57.8996 10.3243 57.8645 10.3183C57.8645 10.3183 57.6601 10.2656 57.4227 10.1076C57.4971 10.1522 57.6209 10.2251 57.6663 10.0124C57.6746 9.95169 57.6911 9.82815 57.4372 9.40284C57.4392 9.40689 57.4434 9.41094 57.4475 9.41499C57.5218 9.50816 57.6292 9.60537 57.6994 9.67018C57.8563 9.81397 57.9719 9.91929 58.0132 10.0084C58.0276 10.0408 58.0297 10.0692 58.0194 10.0914H58.0173Z" fill="#26BF64" stroke="#00402A" stroke-width="0.5"/>
<path d="M25.1869 9.92334C25.1869 9.92334 25.1843 9.92595 25.1816 9.92856C25.1816 9.92856 25.1843 9.92595 25.1869 9.92334Z" fill="#26BF64" stroke="#00402A" stroke-width="0.5"/>
<path d="M25.6564 10.0449C25.8112 9.92134 25.8855 9.74716 25.7431 9.6702C25.7039 9.65603 25.5862 9.61755 25.2683 9.85045C25.2683 9.85045 25.2703 9.85045 25.2724 9.84843C25.2786 9.84235 25.2827 9.84033 25.2868 9.83627C25.2744 9.84235 25.2621 9.85045 25.2146 9.89298C25.2063 9.90108 25.196 9.90918 25.1877 9.91728C25.1877 9.91728 25.1919 9.91526 25.2001 9.91121C25.2063 9.91728 25.2084 9.92336 25.2084 9.95982C25.2063 10.0631 25.3075 10.1036 25.3529 10.1158C25.3921 10.1279 25.5139 10.1623 25.6605 10.0449H25.6564Z" fill="#26BF64" stroke="#00402A" stroke-width="0.5"/>
<path d="M24.4426 10.9522C24.4736 10.9664 24.5211 10.9745 24.5211 10.9745C24.6202 10.9927 24.7213 10.9907 24.8204 11.0069C24.9154 11.0231 25.0021 11.0656 25.0991 11.0676C25.1322 11.0676 25.223 11.0616 25.3366 10.9745C25.4398 10.8955 25.5451 10.7638 25.5595 10.6909C25.5657 10.6646 25.5781 10.6018 25.5265 10.3952C25.5162 10.3568 25.4976 10.3507 25.4707 10.3426C25.4233 10.3345 25.3716 10.3547 25.3262 10.3223C25.3159 10.3223 25.3097 10.3325 25.3015 10.3345C25.3056 10.3345 25.3056 10.3345 25.3056 10.3345C25.3056 10.3345 25.3015 10.3345 25.3015 10.3365H25.3056C25.3056 10.3365 25.3056 10.3406 25.3056 10.3426C25.2602 10.3588 25.2333 10.3568 25.2147 10.3547C25.1033 10.3466 24.6677 10.4702 24.5108 10.5816C24.3394 10.7011 24.2527 10.8631 24.4426 10.9502V10.9522Z" fill="#26BF64" stroke="#00402A" stroke-width="0.5"/>
<path d="M24.4013 9.55877C24.3951 9.577 24.3827 9.62358 24.4508 9.65598C24.5829 9.72079 24.8369 9.65598 25.0309 9.56485C25.1073 9.52839 25.2085 9.46966 25.2725 9.42308C25.4893 9.26713 25.5512 9.12536 25.5182 9.06055C25.514 9.05245 25.5016 9.02815 25.4624 9.00384L24.8637 8.64537C24.8142 8.62714 24.6862 8.57651 24.3744 8.76486C24.3662 8.77094 23.4991 9.30966 23.561 9.43523C23.5941 9.50409 23.8542 9.417 24.0833 9.25903C24.0895 9.257 24.0895 9.257 24.0895 9.257C24.071 9.26915 24.0173 9.30764 24.0111 9.31169C24.0131 9.31169 24.0173 9.30763 24.0193 9.30763C24.0132 9.31169 24.007 9.31574 24.0008 9.31979C24.0338 9.30156 24.0606 9.27726 24.0937 9.257C24.0978 9.25295 24.0978 9.25295 24.0978 9.25295H24.0937C24.424 9.11118 24.5912 9.2165 24.554 9.32586C24.5231 9.41295 24.4322 9.46561 24.4054 9.55674L24.4013 9.55877ZM24.0792 9.26511C24.0689 9.27118 24.0586 9.27928 24.0482 9.28536C24.0544 9.27928 24.0627 9.27523 24.0689 9.26915C24.073 9.26915 24.0751 9.2651 24.0792 9.26308V9.26511Z" fill="#26BF64" stroke="#00402A" stroke-width="0.5"/>
<path d="M23.7757 16.4265C23.7613 16.4893 23.8294 16.5643 23.9822 16.5784C24.1824 16.5987 24.2712 16.5238 24.3063 16.4752C24.3683 16.3941 24.4323 16.2443 24.168 16.1653H24.1639H24.1597H24.1556H24.1515C24.1515 16.1653 24.1494 16.1653 24.1474 16.1653C24.1474 16.1653 24.1453 16.1653 24.1432 16.1653C24.1432 16.1653 24.1412 16.1653 24.1391 16.1653C24.1391 16.1653 24.137 16.1653 24.135 16.1653C24.135 16.1653 24.1308 16.1653 24.1288 16.1653C24.1288 16.1653 24.1246 16.1653 24.1226 16.1653C24.1226 16.1653 24.1185 16.1653 24.1164 16.1653C24.1164 16.1653 24.1123 16.1653 24.1102 16.1653C24.1102 16.1653 24.1061 16.1653 24.104 16.1653C24.104 16.1653 24.0999 16.1653 24.0978 16.1653C24.0978 16.1653 24.0937 16.1653 24.0916 16.1653C24.0916 16.1653 24.0875 16.1653 24.0854 16.1653C24.0834 16.1653 24.0792 16.1693 24.0772 16.1714C24.0772 16.1714 24.0772 16.1754 24.0772 16.1774C24.0772 16.1774 24.0772 16.1774 24.0772 16.1795C24.0772 16.1795 24.0772 16.1795 24.0751 16.1795C24.0111 16.2301 23.9285 16.2564 23.8666 16.3111C23.7943 16.3759 23.7799 16.4144 23.7737 16.4488L23.7757 16.4265ZM24.1288 16.1673L24.135 16.1714C24.135 16.1714 24.1308 16.1714 24.1267 16.1693L24.1288 16.1673Z" fill="#26BF64"/>
<path d="M24.0772 16.1774C24.0772 16.1754 24.0772 16.1714 24.0772 16.1714C24.0792 16.1693 24.0834 16.1653 24.0854 16.1653C24.0875 16.1653 24.0916 16.1653 24.0916 16.1653C24.0937 16.1653 24.0978 16.1653 24.0978 16.1653C24.0999 16.1653 24.104 16.1653 24.104 16.1653C24.1061 16.1653 24.1102 16.1653 24.1102 16.1653C24.1123 16.1653 24.1164 16.1653 24.1164 16.1653C24.1185 16.1653 24.1226 16.1653 24.1226 16.1653C24.1246 16.1653 24.1288 16.1653 24.1288 16.1653C24.1308 16.1653 24.135 16.1653 24.135 16.1653C24.137 16.1653 24.1391 16.1653 24.1391 16.1653C24.1412 16.1653 24.1432 16.1653 24.1432 16.1653C24.1453 16.1653 24.1474 16.1653 24.1474 16.1653C24.1494 16.1653 24.1515 16.1653 24.1515 16.1653H24.1556H24.1597H24.1639H24.168C24.4323 16.2443 24.3683 16.3941 24.3063 16.4752C24.2712 16.5238 24.1824 16.5987 23.9822 16.5784C23.8294 16.5643 23.7613 16.4893 23.7757 16.4265L23.7737 16.4488C23.7799 16.4144 23.7943 16.3759 23.8666 16.3111C23.9285 16.2564 24.0111 16.2301 24.0751 16.1795C24.0772 16.1795 24.0772 16.1795 24.0772 16.1795C24.0772 16.1774 24.0772 16.1774 24.0772 16.1774ZM24.0772 16.1774C24.0751 16.1774 24.071 16.1774 24.0689 16.1774M24.1288 16.1673L24.135 16.1714C24.135 16.1714 24.1308 16.1714 24.1267 16.1693L24.1288 16.1673Z" stroke="#00402A" stroke-width="0.5"/>
<path d="M50.6409 3.46268C50.3271 3.32901 50.0835 3.22775 49.8069 3.12244C50.0959 3.23585 50.3725 3.34927 50.6409 3.46268Z" fill="#26BF64" stroke="#00402A" stroke-width="0.5"/>
<path d="M50.6848 3.4812C50.6701 3.47504 50.6555 3.46887 50.6409 3.46271" stroke="#00402A" stroke-width="0.5"/>
<path d="M44.722 1.53062C44.4309 1.46379 44.1564 1.40505 43.9189 1.35645C44.1977 1.41518 44.4784 1.47796 44.722 1.53062Z" fill="#26BF64" stroke="#00402A" stroke-width="0.5"/>
<path d="M43.1799 1.20453C43.3637 1.24098 43.5722 1.28351 43.7848 1.32807C43.6444 1.29769 43.5061 1.26731 43.1799 1.20453Z" fill="#26BF64" stroke="#00402A" stroke-width="0.5"/>
<path d="M43.8426 1.34022C43.8674 1.34629 43.8942 1.35034 43.919 1.35642C43.8736 1.34629 43.8281 1.33617 43.7827 1.32806C43.8013 1.33211 43.8219 1.33616 43.8426 1.34022Z" fill="#26BF64" stroke="#00402A" stroke-width="0.5"/>
<path d="M53.0481 5.68645H53.0502L53.0605 5.6905C53.5332 5.90721 53.8821 6.31024 54.3652 6.50872C54.4581 6.5472 54.5242 6.57353 54.5903 6.5715C54.6377 6.5715 54.6563 6.51682 54.6997 6.50872C54.805 6.48846 54.9144 6.5877 55.0155 6.49049C54.9784 6.34264 54.0927 5.87278 53.8347 5.83632C53.7665 5.8262 53.7149 5.81809 53.4651 5.68645C52.9201 5.39886 52.4287 5.02621 51.8961 4.71837C51.7475 4.59078 51.6504 4.41053 51.475 4.30926C51.1962 4.14927 50.5377 3.86978 50.2982 3.79282C50.1434 3.74421 50.0463 3.72396 50.0112 3.73611C50.0154 3.75096 50.025 3.76379 50.0401 3.77459C50.2672 3.92649 50.5625 3.95484 50.7689 4.14521C50.868 4.23635 50.9506 4.34572 51.06 4.42673L51.0951 4.45103C51.424 4.68057 52.0138 5.04916 52.8644 5.55683C53.0068 5.6419 53.0233 5.6581 53.046 5.68038L53.0481 5.68645ZM53.0502 5.68038C53.0502 5.68038 53.0502 5.68038 53.0502 5.6824V5.68038Z" fill="#26BF64" stroke="#00402A" stroke-width="0.5"/>
<path d="M53.0625 5.69659C53.0625 5.69659 53.0625 5.6966 53.0661 5.70015C53.0661 5.70015 53.0661 5.70015 53.0625 5.70015V5.69659Z" fill="#26BF64" stroke="#00402A" stroke-width="0.5"/>
<path d="M60.2264 61.975C60.0302 62.1472 59.8403 62.3153 59.6689 62.4692C59.8589 62.3092 60.0447 62.1431 60.2264 61.975Z" fill="#26BF64" stroke="#00402A" stroke-width="0.5"/>
<path d="M48.2873 15.9627C48.1717 15.5982 47.8662 15.5475 47.5689 15.4989C47.4677 15.4827 47.3005 15.4544 47.189 15.4868C47.0362 15.5293 46.9475 15.6751 46.7947 15.7177C46.7844 15.7177 46.7844 15.7177 46.7844 15.7177H46.7823C46.7603 15.7514 46.7493 15.7723 46.7493 15.7804C46.7493 15.7804 46.7617 15.7804 46.7658 15.7804C46.7658 15.7804 46.2992 15.9242 46.1547 15.9323C46.0742 15.9364 46.0164 15.9141 45.8244 15.8372C45.5746 15.7379 45.3785 15.6589 45.1968 15.6934C44.7529 15.827 45.1142 16.6756 45.6118 16.9308C45.7748 17.0159 45.8739 17.0017 45.9854 16.9875C45.9854 16.9875 45.9854 16.9875 45.9875 16.9875C45.9875 16.9875 45.9875 16.9875 45.9896 16.9875C45.9896 16.9875 45.9896 16.9875 45.9916 16.9875C45.9937 16.9875 45.9916 16.9875 45.9937 16.9875C45.9937 16.9875 45.9937 16.9875 45.9957 16.9875C45.9978 16.9875 45.9957 16.9875 45.9978 16.9875C45.9978 16.9875 45.9978 16.9875 45.9999 16.9875C45.9999 16.9875 45.9999 16.9875 46.0019 16.9875C46.2414 16.9531 46.3405 16.9794 46.5779 17.2184C46.6956 17.3379 46.8546 17.4999 47.156 17.3642C47.3418 17.2812 47.5565 17.0969 47.6329 17.0017C47.7217 16.8903 47.7753 16.7546 47.8827 16.6594C48.0004 16.5541 48.1593 16.4954 48.2481 16.3556C48.2729 16.3151 48.3513 16.1652 48.2873 15.9587V15.9627ZM46.7782 15.7237C46.7782 15.7237 46.7782 15.7258 46.7782 15.7278C46.7782 15.7278 46.7782 15.7258 46.7803 15.7237H46.7782Z" fill="#26BF64" stroke="#00402A" stroke-width="0.5"/>
<path d="M43.4316 11.258C43.3511 10.7031 42.6946 10.4844 42.6286 9.92135C42.5625 9.36034 42.7772 8.79732 42.6224 8.23632C42.612 8.19986 42.5873 8.15328 42.5687 8.11885C42.3726 7.78265 41.8048 7.55785 41.6872 7.76848C41.6727 7.79683 41.6562 7.82316 41.6913 8.05809C41.809 8.89048 41.3857 8.66365 40.434 7.38367C40.017 6.822 39.6075 6.6269 39.2056 6.79837C39.2738 6.29813 38.3138 6.21509 38.3035 6.21509C37.7529 6.38386 37.2533 6.8382 36.8046 7.5781C36.784 7.57203 36.7572 7.56392 36.7386 7.55785C36.678 7.29186 36.6443 7.15414 36.6374 7.14469C36.2225 7.33709 36.4681 7.76848 36.2968 8.04999C36.1234 8.33353 36.0573 8.28897 35.6299 8.00544C35.5701 8.22619 35.5081 8.45302 35.4483 8.68188C35.3285 9.14162 35.2088 9.61755 35.089 10.1077C35.2067 9.61755 35.3265 9.14162 35.4483 8.68188C35.5081 8.45302 35.568 8.22619 35.6299 8.00544C35.5226 7.95278 35.4668 7.9386 35.3389 7.9305C34.9776 7.93657 34.6411 8.1229 34.6369 8.12493C34.4119 8.26265 34.4078 8.56441 34.191 8.71023C34.1414 8.74466 34.0692 8.71023 34.0196 8.68593C33.8937 8.62517 33.7698 8.69201 33.6873 8.75884C33.5531 8.86618 33.4829 8.97149 33.4127 9.10718C33.2868 9.34617 33.198 9.52034 33.0101 9.51629C32.8739 9.51224 32.7947 9.51427 32.7727 9.52237C32.4733 9.63173 32.3846 9.97806 32.0955 10.0996C31.8334 10.211 31.5526 10.0064 31.2925 10.1462C31.2388 10.1745 30.9848 10.3244 31.1789 10.4925C31.2532 10.5553 31.3585 10.5613 31.4287 10.6302C31.4783 10.6788 31.5195 10.7153 31.5381 10.8368C31.5691 11.019 31.3688 11.2702 31.6063 11.3876C31.9139 11.5395 32.0171 11.1345 32.2256 11.0109C32.2779 11.1811 32.324 11.2749 32.3639 11.2925C32.3639 11.2925 32.3846 11.3006 32.3949 11.3026C32.5951 11.3471 32.7913 11.2378 32.9915 11.2945C33.1464 11.339 33.2331 11.495 33.3941 11.5254C33.5985 11.5638 34.1972 11.9811 34.2777 12.2038C34.4222 12.6048 34.2137 13.7694 34.2116 13.7815C34.1745 13.9638 34.1951 14.0023 34.222 14.0529C34.2983 14.1076 34.3438 14.1319 34.4924 14.0286C34.2323 14.5174 34.3025 14.8549 34.703 15.0412C34.725 15.1169 34.6906 15.2073 34.5998 15.3126C34.3252 15.6306 34.3789 16.0519 34.3789 16.0559C34.4243 16.2746 34.5564 16.6129 34.5564 16.6149C34.9088 17.4939 35.1035 17.9421 35.1407 17.9597C34.9776 18.2776 36.2493 19.2457 36.4991 19.1728C36.7936 19.0878 36.9498 19.1283 36.9677 19.2943C36.9822 19.4199 37.009 19.6832 37.3806 19.6629C37.5148 19.6569 38.1796 19.5758 38.1259 18.6908C38.0908 18.1237 38.1775 18.0488 38.3695 18.0204H38.3716C38.8237 18.0306 38.7927 17.8564 38.6709 17.4311C38.5863 17.1354 38.6131 17.1212 39.0508 16.8721C39.472 16.6331 39.7004 16.5116 39.7362 16.5076C39.9984 16.4711 40.2606 16.6959 40.5248 16.5116C40.5455 16.4974 40.5703 16.4772 40.5909 16.461C40.9006 16.2119 40.6363 15.746 40.9666 15.503C41.3155 15.2458 41.7326 15.4524 42.1021 15.3471L43.3491 14.7496C43.3635 14.7334 43.4853 14.5734 43.1302 14.1967C43.508 14.464 43.7867 14.2453 43.7331 13.9679C43.6278 13.4068 42.4386 12.0864 43.2087 12.3497C43.8404 12.5664 43.954 12.6048 43.6587 11.9831C43.5184 11.6894 43.4647 11.5436 43.4255 11.258H43.4316ZM35.0725 13.7309C34.8805 13.6823 34.7525 13.7633 34.6617 13.8403C34.7051 13.7896 34.8392 13.6398 35.0849 13.7349C35.0808 13.7349 35.0767 13.7329 35.0725 13.7309ZM38.9414 6.91381C38.9022 6.96849 38.8588 6.99685 38.8278 7.01508C38.8512 6.99752 38.8898 6.96242 38.9435 6.90976L38.9414 6.91381ZM42.8536 13.9476C42.8206 13.9233 42.7875 13.899 42.7545 13.8747C42.7875 13.8929 42.8329 13.9294 42.8577 13.9496C42.8577 13.9496 42.8556 13.9496 42.8536 13.9476Z" fill="#26BF64"/>
<path d="M35.6299 8.00544C36.0573 8.28897 36.1234 8.33353 36.2968 8.04999C36.4681 7.76848 36.2225 7.33709 36.6374 7.14469C36.6443 7.15414 36.678 7.29186 36.7386 7.55785C36.7572 7.56392 36.784 7.57203 36.8046 7.5781C37.2533 6.8382 37.7529 6.38386 38.3035 6.21509C38.3138 6.21509 39.2738 6.29813 39.2056 6.79837C39.6075 6.6269 40.017 6.822 40.434 7.38367C41.3857 8.66365 41.809 8.89048 41.6913 8.05809C41.6562 7.82316 41.6727 7.79683 41.6871 7.76848C41.8048 7.55785 42.3726 7.78265 42.5687 8.11885C42.5873 8.15328 42.612 8.19986 42.6224 8.23632C42.7772 8.79732 42.5625 9.36034 42.6286 9.92135C42.6946 10.4844 43.3511 10.7031 43.4316 11.258H43.4255C43.4647 11.5436 43.5184 11.6894 43.6587 11.9831C43.954 12.6048 43.8404 12.5664 43.2087 12.3497C42.4386 12.0864 43.6278 13.4068 43.7331 13.9679C43.7867 14.2453 43.508 14.464 43.1302 14.1967C43.4853 14.5734 43.3635 14.7334 43.3491 14.7496L42.1021 15.3471C41.7326 15.4524 41.3155 15.2458 40.9666 15.503C40.6363 15.746 40.9006 16.2119 40.5909 16.461C40.5703 16.4772 40.5455 16.4974 40.5248 16.5116C40.2606 16.6959 39.9984 16.4711 39.7362 16.5076C39.7004 16.5116 39.472 16.6331 39.0508 16.8721C38.6131 17.1212 38.5863 17.1354 38.6709 17.4311C38.7927 17.8564 38.8237 18.0306 38.3716 18.0204H38.3695C38.1775 18.0488 38.0908 18.1237 38.1259 18.6908C38.1796 19.5758 37.5148 19.6569 37.3806 19.6629C37.009 19.6832 36.9822 19.4199 36.9677 19.2943C36.9498 19.1283 36.7936 19.0878 36.4991 19.1728C36.2493 19.2457 34.9776 18.2776 35.1407 17.9597C35.1035 17.9421 34.9088 17.4939 34.5564 16.6149C34.5564 16.6129 34.4243 16.2746 34.3789 16.0559C34.3789 16.0519 34.3252 15.6306 34.5998 15.3126C34.6906 15.2073 34.725 15.1169 34.703 15.0412C34.3025 14.8549 34.2323 14.5174 34.4924 14.0286C34.3438 14.1319 34.2983 14.1076 34.222 14.0529C34.1951 14.0023 34.1745 13.9638 34.2116 13.7815C34.2137 13.7694 34.4222 12.6048 34.2777 12.2038C34.1972 11.9811 33.5985 11.5638 33.3941 11.5254C33.2331 11.495 33.1464 11.339 32.9915 11.2945C32.7913 11.2378 32.5951 11.3471 32.3949 11.3026C32.3846 11.3006 32.3639 11.2925 32.3639 11.2925C32.324 11.2749 32.2779 11.1811 32.2256 11.0109C32.0171 11.1345 31.9139 11.5395 31.6063 11.3876C31.3688 11.2702 31.5691 11.019 31.5381 10.8368C31.5195 10.7153 31.4783 10.6788 31.4287 10.6302C31.3585 10.5613 31.2532 10.5553 31.1789 10.4925C30.9848 10.3244 31.2388 10.1745 31.2925 10.1462C31.5526 10.0064 31.8334 10.211 32.0955 10.0996C32.3846 9.97806 32.4733 9.63173 32.7727 9.52237C32.7947 9.51427 32.8739 9.51224 33.0101 9.51629C33.198 9.52034 33.2868 9.34617 33.4127 9.10718C33.4829 8.97149 33.5531 8.86618 33.6873 8.75884C33.7698 8.69201 33.8937 8.62517 34.0196 8.68593C34.0692 8.71023 34.1414 8.74466 34.191 8.71023C34.4078 8.56441 34.4119 8.26265 34.6369 8.12493C34.6411 8.1229 34.9776 7.93657 35.3389 7.9305C35.4668 7.9386 35.5226 7.95278 35.6299 8.00544ZM35.6299 8.00544C35.5701 8.22619 35.5081 8.45302 35.4483 8.68188M35.6299 8.00544C35.568 8.22619 35.5081 8.45302 35.4483 8.68188M35.4483 8.68188C35.3285 9.14162 35.2088 9.61755 35.089 10.1077M35.4483 8.68188C35.3265 9.14162 35.2067 9.61755 35.089 10.1077M35.089 10.1077C34.9714 10.5978 34.8537 11.1041 34.7381 11.6226M35.0725 13.7309C34.8805 13.6823 34.7525 13.7633 34.6617 13.8403C34.7051 13.7896 34.8392 13.6398 35.0849 13.7349C35.0808 13.7349 35.0767 13.7329 35.0725 13.7309ZM38.9414 6.91381C38.9022 6.96849 38.8588 6.99685 38.8278 7.01508C38.8512 6.99752 38.8898 6.96242 38.9435 6.90976L38.9414 6.91381ZM42.8536 13.9476C42.8206 13.9233 42.7875 13.899 42.7545 13.8747C42.7875 13.8929 42.8329 13.9294 42.8577 13.9496C42.8577 13.9496 42.8556 13.9496 42.8536 13.9476Z" stroke="#00402A" stroke-width="0.5"/>
<path d="M18.9615 37.8479C18.5692 37.862 18.4805 38.178 18.7055 38.3947C18.914 38.5952 19.3372 38.5992 19.4054 38.342C19.4239 38.2752 19.4198 38.0787 19.1989 37.9775C19.1824 37.9775 19.1721 37.9694 19.1679 37.9653V37.9673C19.1597 37.9653 19.1266 37.941 19.1225 37.9187L19.139 37.9289C19.139 37.9289 19.139 37.9268 19.1411 37.9268C19.1411 37.9268 19.1432 37.9268 19.1411 37.9309C19.1411 37.9309 19.1308 37.9208 19.1246 37.9147C19.137 37.9309 19.1535 37.943 19.1659 37.9592C19.1659 37.9592 19.1659 37.9592 19.1679 37.9592C19.1679 37.9592 19.1679 37.9592 19.17 37.9592C19.1783 37.9613 19.1865 37.9633 19.203 37.9714C19.2278 37.9815 19.2464 37.9754 19.2505 37.9734C19.2464 37.9613 19.2154 37.941 19.1741 37.9268C19.1741 37.9289 19.1741 37.9289 19.1721 37.9268C19.1721 37.9268 19.17 37.9268 19.1679 37.9268C19.1679 37.9268 19.1659 37.9268 19.1638 37.9268C19.1638 37.9268 19.1617 37.9268 19.1597 37.9268C19.1597 37.9268 19.1597 37.9268 19.1576 37.9268C19.1617 37.9268 19.1679 37.9268 19.1721 37.9268C19.1721 37.9268 19.0812 37.8539 18.9677 37.8458L18.9615 37.8479Z" fill="#26BF64"/>
<path d="M19.1721 37.9268C19.1741 37.9289 19.1741 37.9289 19.1741 37.9268C19.2154 37.941 19.2464 37.9613 19.2505 37.9734C19.2464 37.9754 19.2278 37.9815 19.203 37.9714C19.1865 37.9633 19.1783 37.9613 19.17 37.9592C19.1679 37.9592 19.1679 37.9592 19.1679 37.9592C19.1659 37.9592 19.1659 37.9592 19.1659 37.9592C19.1535 37.943 19.137 37.9309 19.1246 37.9147C19.1308 37.9208 19.1411 37.9309 19.1411 37.9309C19.1432 37.9268 19.1411 37.9268 19.1411 37.9268C19.139 37.9268 19.139 37.9289 19.139 37.9289L19.1225 37.9187C19.1266 37.941 19.1597 37.9653 19.1679 37.9673V37.9653C19.1721 37.9694 19.1824 37.9775 19.1989 37.9775C19.4198 38.0787 19.4239 38.2752 19.4054 38.342C19.3372 38.5992 18.914 38.5952 18.7055 38.3947C18.4805 38.178 18.5692 37.862 18.9615 37.8479L18.9677 37.8458C19.0812 37.8539 19.1721 37.9268 19.1721 37.9268ZM19.1721 37.9268C19.1721 37.9268 19.17 37.9268 19.1679 37.9268C19.1679 37.9268 19.1659 37.9268 19.1638 37.9268C19.1638 37.9268 19.1617 37.9268 19.1597 37.9268C19.1597 37.9268 19.1597 37.9268 19.1576 37.9268C19.1617 37.9268 19.1679 37.9268 19.1721 37.9268Z" stroke="#00402A" stroke-width="0.5"/>
<path d="M21.1228 42.5607C21.3066 42.6397 21.5027 42.6883 21.6844 42.7753C22.25 43.0508 22.5742 43.1973 22.6568 43.2148C22.6568 43.2148 23.6002 43.3181 23.6415 43.3141C23.6911 43.31 23.8376 43.2979 23.9037 43.1055C23.9966 42.8321 23.7138 41.8802 22.3719 41.6594C21.1497 41.5035 20.5468 42.2954 20.5943 42.4108C20.6005 42.425 20.615 42.4371 20.6253 42.4493C20.6191 42.4493 20.6129 42.4533 20.6067 42.4554C20.6047 42.4554 20.6047 42.4554 20.6047 42.4554C20.6005 42.4554 20.5923 42.4594 20.5881 42.4594C20.6397 42.5019 20.7554 42.4938 20.7739 42.4797C20.7843 42.4776 20.7966 42.4736 20.807 42.4716C20.7966 42.4716 20.7822 42.4716 20.7719 42.4675C20.807 42.4331 20.8916 42.4493 21.0506 42.5262C21.0712 42.5364 21.096 42.5485 21.1166 42.5566L21.1228 42.5607Z" fill="#26BF64" stroke="#00402A" stroke-width="0.5"/>
<path d="M24.7522 43.6786C24.7585 43.6931 24.7606 43.6952 24.7627 43.6952C24.7627 43.6952 24.7627 43.6911 24.7627 43.689C24.7585 43.6869 24.7564 43.6828 24.7522 43.6786Z" fill="#26BF64" stroke="#00402A" stroke-width="0.5"/>
<path d="M25.2849 43.8589C25.4005 43.865 25.5429 43.8569 25.6234 43.7191C25.6399 43.6908 25.6565 43.6462 25.6647 43.6078C25.7267 43.2959 25.481 42.8868 25.0825 42.8463C24.9112 42.8463 24.7935 42.9232 24.7295 43.0751C24.7006 43.146 24.7027 43.2513 24.7027 43.2918C24.7027 43.4235 24.7295 43.5551 24.7357 43.6867C24.7357 43.6867 24.7378 43.6888 24.7398 43.6908C24.7481 43.6867 24.7481 43.6867 24.7502 43.6645C24.7502 43.6645 24.7502 43.6645 24.7502 43.6665C24.777 43.7495 25.1796 43.8528 25.2828 43.8589H25.2849Z" fill="#26BF64" stroke="#00402A" stroke-width="0.5"/>
<path d="M46.7493 15.7865V15.79V15.7865Z" fill="#26BF64" stroke="#00402A" stroke-width="0.5"/>
<path d="M65.9861 52.7093C65.7755 53.2562 65.7198 53.8496 65.4514 54.3782C64.9394 55.3868 64.1136 56.1969 63.5789 57.1933C63.199 57.9001 63.038 58.7001 62.5983 59.3786C62.59 59.3907 61.564 60.7335 60.2241 61.977C60.7051 61.5537 61.2275 61.092 61.6321 60.7011C63.87 58.368 64.157 58.0682 65.6413 56.0774C67.3301 53.5498 67.8999 52.6992 68.7443 50.9149L69.599 48.997C68.9796 50.2912 67.7801 51.5468 65.984 52.7114L65.9861 52.7093Z" fill="#26BF64" stroke="#00402A" stroke-width="0.5"/>
<path d="M18.3483 42.3744C18.2554 42.5425 18.2285 42.9273 18.3008 43.0387C18.402 43.1946 18.6683 43.1764 18.7798 43.1622C18.8995 43.146 19.0296 43.1136 19.0771 42.9354C19.0936 42.8726 19.0977 42.7977 19.106 42.6863C19.1122 42.6721 19.1101 42.6539 19.1142 42.6397C19.1142 42.6397 19.0853 42.3177 18.7405 42.2427C18.4887 42.1962 18.3855 42.3075 18.3483 42.3784V42.3744Z" fill="#26BF64" stroke="#00402A" stroke-width="0.5"/>
<path d="M20.5892 42.4606C20.5892 42.4606 20.5866 42.458 20.584 42.4554C20.584 42.4554 20.584 42.458 20.5892 42.4606Z" fill="#26BF64" stroke="#00402A" stroke-width="0.5"/>
<path d="M20.1485 41.1774C20.2414 41.062 20.2043 40.8048 19.9565 40.5537C19.5725 40.1668 19.0027 40.0656 18.6043 39.701C18.3524 39.4722 18.1976 39.1603 17.9333 38.9415C17.6278 38.6904 16.9403 38.4676 16.8474 38.4433C16.4841 38.3542 15.5571 38.3765 15.5303 38.3826C15.3548 38.421 15.3486 38.4899 15.3176 38.7795C15.3259 38.7896 15.328 38.7896 15.328 38.7896V38.7917C15.328 38.7917 15.328 38.7896 15.328 38.7876V38.7856V38.7815H15.33C15.3486 38.7896 15.363 38.8119 15.3713 38.8301C15.4374 38.9719 15.4869 39.0266 16.0361 39.1157C16.8557 39.2494 17.1612 39.3 17.5431 39.4843C17.8755 39.6463 18.0655 39.9056 18.307 40.2316C19.3558 41.6595 20.1423 41.1734 20.1485 41.1673V41.1774Z" fill="#26BF64" stroke="#00402A" stroke-width="0.5"/>
<path d="M15.3093 38.7714C15.3093 38.7714 15.3093 38.7812 15.3167 38.7836C15.3167 38.7788 15.3118 38.7739 15.3093 38.7714Z" fill="#26BF64" stroke="#00402A" stroke-width="0.5"/>
<path d="M32.0233 68.3506C32.013 68.2858 31.9986 68.2756 31.7446 68.1298C31.7839 68.2756 31.8251 68.4154 31.8664 68.5491C31.9717 68.5045 32.0295 68.4012 32.0233 68.3506Z" fill="#26BF64" stroke="#00402A" stroke-width="0.5"/>
<path d="M36.2196 70.8228C56.085 70.8228 72.1891 55.0246 72.1891 35.5364C72.1891 16.0483 56.085 0.25 36.2196 0.25C16.3541 0.25 0.25 16.0483 0.25 35.5364C0.25 55.0246 16.3541 70.8228 36.2196 70.8228Z" stroke="#00402A" stroke-width="0.5" stroke-miterlimit="10"/>
</svg>
