<svg width="45" height="78" viewBox="0 0 45 78" fill="none" xmlns="http://www.w3.org/2000/svg">
<path d="M27.9895 54.9434V44.3283H31.3394V54.9434C31.3394 55.1974 31.1801 55.4434 30.8517 55.635C30.1969 56.016 29.138 56.016 28.4851 55.635C28.1587 55.4454 27.9975 55.1914 27.9975 54.9434H27.9915H27.9895Z" fill="#FFFEFF" stroke="#00402A" stroke-width="0.5" stroke-miterlimit="10"/>
<path d="M29.6613 56.022C29.2155 56.022 28.7637 55.9232 28.4213 55.7257C28.073 55.522 27.8779 55.2398 27.8779 54.9353V44.3202C27.8779 44.2577 27.9257 44.2154 27.9814 44.2154H31.3313C31.387 44.2154 31.4348 44.2638 31.4348 44.3202V54.9353C31.4348 55.2378 31.2397 55.514 30.8914 55.7257C30.5511 55.9232 30.1052 56.022 29.6514 56.022H29.6574H29.6613Z" fill="#FFF5EC" stroke="#00402A" stroke-width="0.5" stroke-miterlimit="10"/>
<path d="M28.4772 43.6347C27.8224 44.0158 27.8224 44.6368 28.4772 45.0178C29.1321 45.3989 30.191 45.3989 30.8438 45.0178C31.4967 44.6368 31.4987 44.0158 30.8438 43.6347C30.189 43.2537 29.1301 43.2537 28.4772 43.6347Z" fill="#FFFEFF" stroke="#00402A" stroke-width="0.5" stroke-miterlimit="10"/>
<path d="M29.6613 45.413C29.2155 45.413 28.7637 45.3142 28.4213 45.1166C28.073 44.913 27.8779 44.6307 27.8779 44.3263C27.8779 44.0219 28.073 43.7477 28.4213 43.536C29.104 43.1347 30.2107 43.1347 30.8934 43.536C31.2417 43.7396 31.4368 44.0219 31.4368 44.3263C31.4368 44.6307 31.2417 44.9049 30.8934 45.1166C30.5531 45.3142 30.1072 45.413 29.6534 45.413H29.6594H29.6613ZM28.5328 43.7275C28.2541 43.8888 28.0949 44.1005 28.0949 44.3263C28.0949 44.5521 28.2481 44.7557 28.5328 44.9251C29.1518 45.292 30.1689 45.292 30.7959 44.9251C31.0745 44.7638 31.2338 44.5521 31.2338 44.3263C31.2338 44.1005 31.0805 43.8968 30.7959 43.7275C30.1769 43.3605 29.1598 43.3605 28.5328 43.7275Z" fill="#00402A" stroke="#00402A" stroke-width="0.5" stroke-miterlimit="10"/>
<path d="M22.2232 40.3483L28.5249 27.7997H30.7959L37.0976 40.3483C37.8699 41.8867 37.223 43.6206 35.141 44.8343C32.1116 46.6045 27.2032 46.6045 24.1738 44.8343C22.0978 43.6206 21.445 41.8867 22.2172 40.3483H22.2232Z" fill="#00A443" stroke="#00402A" stroke-width="0.5" stroke-miterlimit="10"/>
<path d="M28.8256 27.5034C28.3658 27.7716 28.3658 28.2091 28.8256 28.4833C29.2853 28.7514 30.0377 28.7514 30.4975 28.4833C30.9573 28.2151 30.9573 27.7776 30.4975 27.5034C30.0377 27.2353 29.2853 27.2353 28.8256 27.5034Z" fill="#FFFEFF" stroke="#00402A" stroke-width="0.5" stroke-miterlimit="10"/>
<path d="M29.6615 28.7937C29.341 28.7937 29.0206 28.7232 28.7698 28.576C28.513 28.4288 28.3657 28.2171 28.3657 27.9913C28.3657 27.7655 28.5051 27.5618 28.7698 27.4066C29.2714 27.1183 30.0516 27.1183 30.5532 27.4066C30.81 27.5538 30.9572 27.7655 30.9572 27.9913C30.9572 28.2171 30.8179 28.4207 30.5532 28.576C30.3024 28.7232 29.9819 28.7937 29.6615 28.7937ZM28.8812 27.5941C28.6941 27.707 28.5887 27.8481 28.5887 27.9893C28.5887 28.1304 28.6922 28.2715 28.8812 28.3844C29.3132 28.6385 30.0158 28.6385 30.4477 28.3844C30.6348 28.2715 30.7403 28.1304 30.7403 27.9893C30.7403 27.8481 30.6368 27.707 30.4477 27.5941C30.0158 27.3401 29.3132 27.3401 28.8812 27.5941Z" fill="#00402A" stroke="#00402A" stroke-width="0.5" stroke-miterlimit="10"/>
<path d="M23.9032 31.4813L28.7837 21.7694H30.5452L35.4257 31.4813C36.0248 32.6728 35.5232 34.0136 33.915 34.9592C31.5683 36.3281 27.7666 36.3281 25.4259 34.9592C23.8176 34.0216 23.3081 32.6728 23.9151 31.4813H23.9012H23.9032Z" fill="#00A443" stroke="#00402A" stroke-width="0.5" stroke-miterlimit="10"/>
<path d="M29.0145 21.5376C28.6602 21.7493 28.6602 22.088 29.0145 22.2916C29.3688 22.5033 29.954 22.5033 30.3103 22.2916C30.6646 22.0799 30.6646 21.7412 30.3103 21.5376C29.956 21.3259 29.3708 21.3259 29.0145 21.5376Z" fill="#FFFEFF" stroke="#00402A" stroke-width="0.5" stroke-miterlimit="10"/>
<path d="M29.6615 22.5658C29.4107 22.5658 29.1539 22.5094 28.9589 22.3965C28.7499 22.2775 28.6384 22.1081 28.6384 21.9247C28.6384 21.7412 28.7499 21.5718 28.9589 21.4529C29.349 21.221 29.968 21.221 30.3661 21.4529C30.5751 21.5718 30.6866 21.7412 30.6866 21.9247C30.6866 22.1081 30.5751 22.2775 30.3661 22.3965C30.171 22.5094 29.9203 22.5658 29.6635 22.5658H29.6615ZM29.6615 21.4932C29.4465 21.4932 29.2296 21.5416 29.0703 21.6343C28.931 21.711 28.8554 21.8178 28.8554 21.9166C28.8554 22.0154 28.931 22.1202 29.0703 22.1989C29.3908 22.3884 29.9342 22.3884 30.2606 22.1989C30.3999 22.1223 30.4756 22.0154 30.4756 21.9166C30.4756 21.8178 30.3999 21.713 30.2606 21.6343C30.1014 21.5436 29.8844 21.4932 29.6695 21.4932H29.6635H29.6615Z" fill="#00402A" stroke="#00402A" stroke-width="0.5" stroke-miterlimit="10"/>
<path d="M25.7542 23.2796L29.0683 16.6847H30.2586L33.5726 23.2796C33.9766 24.0901 33.6343 25.0014 32.5416 25.6365C30.9472 26.5679 28.3696 26.5679 26.7753 25.6365C25.6826 24.9953 25.3402 24.084 25.7443 23.2796H25.7503H25.7542Z" fill="#00A443" stroke="#00402A" stroke-width="0.5" stroke-miterlimit="10"/>
<path d="M29.2236 16.5355C28.9808 16.6766 28.9808 16.9085 29.2236 17.0496C29.4665 17.1907 29.8566 17.1907 30.1014 17.0496C30.3442 16.9085 30.3442 16.6766 30.1014 16.5355C29.8586 16.3943 29.4684 16.3943 29.2236 16.5355Z" fill="#00A443" stroke="#00402A" stroke-width="0.5" stroke-miterlimit="10"/>
<path d="M33.5583 76.4143V68.5855H36.0285V76.4143C36.0285 76.5998 35.911 76.7852 35.6702 76.9264C35.1865 77.2086 34.4083 77.2086 33.9246 76.9264C33.6818 76.7852 33.5663 76.5998 33.5663 76.4143H33.5583Z" fill="#FFF5EC" stroke="#00402A" stroke-width="0.5" stroke-miterlimit="10"/>
<path d="M25.6824 65.771C25.6824 70.9404 29.8185 72.0251 34.9199 72.0251C40.0213 72.0251 44.1574 70.9404 44.1574 65.771C44.1574 60.6015 40.0213 47.7989 34.9199 47.7989C29.8185 47.7989 25.6824 60.6035 25.6824 65.771Z" fill="#2F6852" stroke="#00402A" stroke-width="0.5" stroke-miterlimit="10"/>
<path d="M12.9004 38.7638V28.1487H16.2503V38.7638C16.2503 39.0178 16.091 39.2638 15.7626 39.4553C15.1078 39.8364 14.0489 39.8364 13.396 39.4553C13.0696 39.2658 12.9084 39.0118 12.9084 38.7638H12.9024H12.9004Z" fill="#FFFEFF" stroke="#00402A" stroke-width="0.5" stroke-miterlimit="10"/>
<path d="M14.5703 39.8424C14.1244 39.8424 13.6726 39.7436 13.3302 39.546C12.9819 39.3424 12.7869 39.0601 12.7869 38.7557V28.1406C12.7869 28.0781 12.8346 28.0358 12.8904 28.0358H16.2402C16.296 28.0358 16.3437 28.0842 16.3437 28.1406V38.7557C16.3437 39.0581 16.1487 39.3343 15.8004 39.546C15.46 39.7436 15.0141 39.8424 14.5603 39.8424H14.5663H14.5703Z" fill="#FFF5EC" stroke="#00402A" stroke-width="0.5" stroke-miterlimit="10"/>
<path d="M13.3862 27.4571C12.7313 27.8382 12.7313 28.4592 13.3862 28.8402C14.041 29.2213 15.0999 29.2213 15.7528 28.8402C16.4056 28.4592 16.4076 27.8382 15.7528 27.4571C15.0979 27.0761 14.039 27.0761 13.3862 27.4571Z" fill="#FFFEFF" stroke="#00402A" stroke-width="0.5" stroke-miterlimit="10"/>
<path d="M14.5703 29.2333C14.1244 29.2333 13.6726 29.1345 13.3302 28.9369C12.9819 28.7333 12.7869 28.4511 12.7869 28.1466C12.7869 27.8422 12.9819 27.568 13.3302 27.3563C14.013 26.9551 15.1196 26.9551 15.8023 27.3563C16.1507 27.5599 16.3457 27.8422 16.3457 28.1466C16.3457 28.4511 16.1507 28.7252 15.8023 28.9369C15.462 29.1345 15.0161 29.2333 14.5623 29.2333H14.5683H14.5703ZM13.4417 27.5478C13.1631 27.7091 13.0038 27.9208 13.0038 28.1466C13.0038 28.3724 13.1571 28.5761 13.4417 28.7454C14.0607 29.1124 15.0778 29.1124 15.7048 28.7454C15.9835 28.5841 16.1427 28.3724 16.1427 28.1466C16.1427 27.9208 15.9894 27.7172 15.7048 27.5478C15.0858 27.1809 14.0687 27.1809 13.4417 27.5478Z" fill="#00402A" stroke="#00402A" stroke-width="0.5" stroke-miterlimit="10"/>
<path d="M7.1341 24.1688L13.4358 11.6202H15.7068L22.0085 24.1688C22.7808 25.7071 22.1339 27.441 20.0519 28.6547C17.0225 30.4249 12.1141 30.4249 9.0847 28.6547C7.0087 27.441 6.35584 25.7071 7.12812 24.1688H7.1341Z" fill="#003020" stroke="#00402A" stroke-width="0.5" stroke-miterlimit="10"/>
<path d="M13.7345 11.3258C13.2747 11.594 13.2747 12.0315 13.7345 12.3057C14.1943 12.5738 14.9467 12.5738 15.4064 12.3057C15.8662 12.0375 15.8662 11.6 15.4064 11.3258C14.9467 11.0577 14.1943 11.0577 13.7345 11.3258Z" fill="#FFFEFF" stroke="#00402A" stroke-width="0.5" stroke-miterlimit="10"/>
<path d="M14.5704 12.6161C14.25 12.6161 13.9295 12.5455 13.6787 12.3984C13.4219 12.2512 13.2747 12.0395 13.2747 11.8137C13.2747 11.5879 13.414 11.3842 13.6787 11.229C14.1803 10.9407 14.9605 10.9407 15.4621 11.229C15.7189 11.3762 15.8662 11.5879 15.8662 11.8137C15.8662 12.0395 15.7269 12.2431 15.4621 12.3984C15.2113 12.5455 14.8909 12.6161 14.5704 12.6161ZM13.7902 11.4165C13.6031 11.5294 13.4976 11.6705 13.4976 11.8117C13.4976 11.9528 13.6011 12.0939 13.7902 12.2068C14.2221 12.4609 14.9247 12.4609 15.3566 12.2068C15.5437 12.0939 15.6492 11.9528 15.6492 11.8117C15.6492 11.6705 15.5457 11.5294 15.3566 11.4165C14.9247 11.1625 14.2221 11.1625 13.7902 11.4165Z" fill="#00402A" stroke="#00402A" stroke-width="0.5" stroke-miterlimit="10"/>
<path d="M8.81213 15.3036L13.6926 5.5918H15.4541L20.3347 15.3036C20.9338 16.4952 20.4322 17.836 18.8239 18.7815C16.4772 20.1505 12.6755 20.1505 10.3348 18.7815C8.72654 17.844 8.21699 16.4952 8.82407 15.3036H8.81014H8.81213Z" fill="#003020" stroke="#00402A" stroke-width="0.5" stroke-miterlimit="10"/>
<path d="M13.9234 5.35793C13.5691 5.56963 13.5691 5.90834 13.9234 6.11197C14.2777 6.32367 14.8629 6.32367 15.2192 6.11197C15.5735 5.90028 15.5735 5.56156 15.2192 5.35793C14.8649 5.14623 14.2797 5.14623 13.9234 5.35793Z" fill="#FFFEFF" stroke="#00402A" stroke-width="0.5" stroke-miterlimit="10"/>
<path d="M14.5704 6.38819C14.3196 6.38819 14.0629 6.33174 13.8678 6.21884C13.6588 6.09988 13.5474 5.93053 13.5474 5.74705C13.5474 5.56358 13.6588 5.39423 13.8678 5.27527C14.2579 5.04341 14.877 5.04341 15.275 5.27527C15.484 5.39423 15.5955 5.56358 15.5955 5.74705C15.5955 5.93053 15.484 6.09988 15.275 6.21884C15.08 6.33174 14.8292 6.38819 14.5724 6.38819H14.5704ZM14.5704 5.3156C14.3555 5.3156 14.1385 5.36398 13.9793 5.45673C13.84 5.53334 13.7643 5.6402 13.7643 5.73899C13.7643 5.83778 13.84 5.94263 13.9793 6.02126C14.2997 6.21078 14.8431 6.21078 15.1696 6.02126C15.3089 5.94464 15.3845 5.83778 15.3845 5.73899C15.3845 5.6402 15.3089 5.53536 15.1696 5.45673C15.0103 5.366 14.7934 5.3156 14.5784 5.3156H14.5724H14.5704Z" fill="#00402A" stroke="#00402A" stroke-width="0.5" stroke-miterlimit="10"/>
<path d="M10.6632 7.09993L13.9772 0.505066H15.1675L18.4815 7.09993C18.8856 7.91043 18.5432 8.82174 17.4505 9.45683C15.8562 10.3883 13.2786 10.3883 11.6843 9.45683C10.5915 8.81569 10.2492 7.90438 10.6532 7.09993H10.6592H10.6632Z" fill="#003020" stroke="#00402A" stroke-width="0.5" stroke-miterlimit="10"/>
<path d="M14.1326 0.355849C13.8897 0.49698 13.8897 0.728836 14.1326 0.869968C14.3754 1.0111 14.7655 1.0111 15.0103 0.869968C15.2532 0.728836 15.2532 0.49698 15.0103 0.355849C14.7675 0.214717 14.3774 0.214717 14.1326 0.355849Z" fill="#003020" stroke="#00402A" stroke-width="0.5" stroke-miterlimit="10"/>
<path d="M5.6604 72.4171V62.9835H8.63806V72.4171C8.63806 72.6429 8.49475 72.8627 8.20415 73.032C7.62295 73.3707 6.68148 73.3707 6.10028 73.032C5.80968 72.8627 5.66637 72.6369 5.66637 72.4171H5.6604Z" fill="#FFFEFF" stroke="#00402A" stroke-width="0.5" stroke-miterlimit="10"/>
<path d="M7.14516 73.3768C6.74907 73.3768 6.347 73.2881 6.04446 73.1126C5.73595 72.9312 5.56079 72.6792 5.56079 72.411V62.9774C5.56079 62.9209 5.60458 62.8826 5.65434 62.8826H8.632C8.68176 62.8826 8.72555 62.927 8.72555 62.9774V72.411C8.72555 72.6812 8.55239 72.9251 8.24188 73.1126C7.93934 73.2881 7.54325 73.3768 7.14118 73.3768H7.14715H7.14516Z" fill="#FFF5EC" stroke="#00402A" stroke-width="0.5" stroke-miterlimit="10"/>
<path d="M6.09215 62.3685C5.51095 62.7072 5.51095 63.2597 6.09215 63.5964C6.67335 63.9351 7.61482 63.9351 8.19602 63.5964C8.77722 63.2576 8.77722 62.7052 8.19602 62.3685C7.61482 62.0318 6.67335 62.0298 6.09215 62.3685Z" fill="#FFFEFF" stroke="#00402A" stroke-width="0.5" stroke-miterlimit="10"/>
<path d="M7.14516 63.9472C6.74907 63.9472 6.347 63.8585 6.04446 63.6831C5.73595 63.5016 5.56079 63.2496 5.56079 62.9815C5.56079 62.7133 5.73396 62.4674 6.04446 62.2799C6.65154 61.923 7.6348 61.923 8.24188 62.2799C8.5504 62.4613 8.72555 62.7133 8.72555 62.9815C8.72555 63.2496 8.55239 63.4956 8.24188 63.6831C7.93934 63.8585 7.54325 63.9472 7.14118 63.9472H7.14715H7.14516ZM6.14199 62.4492C5.89518 62.5944 5.75187 62.7819 5.75187 62.9815C5.75187 63.1811 5.88722 63.3645 6.14199 63.5137C6.69334 63.8404 7.59699 63.8404 8.15231 63.5137C8.39912 63.3686 8.54243 63.1811 8.54243 62.9815C8.54243 62.7819 8.40709 62.5984 8.15231 62.4492C7.60097 62.1226 6.69732 62.1226 6.14199 62.4492Z" fill="#00402A" stroke="#00402A" stroke-width="0.5" stroke-miterlimit="10"/>
<path d="M0.534986 59.4471L6.13602 48.2957H8.1543L13.7553 59.4471C14.442 60.8141 13.8668 62.3564 12.0157 63.4331C9.32268 65.0057 4.96167 65.0057 2.26864 63.4331C0.423523 62.3544 -0.157679 60.8121 0.529015 59.4471H0.534986Z" fill="#007F33" stroke="#00402A" stroke-width="0.5" stroke-miterlimit="10"/>
<path d="M6.40271 48.0316C5.99467 48.2695 5.99467 48.6586 6.40271 48.9026C6.81074 49.1405 7.47952 49.1405 7.88756 48.9026C8.29559 48.6647 8.29559 48.2755 7.88756 48.0316C7.47952 47.7937 6.81074 47.7937 6.40271 48.0316Z" fill="#FFFEFF" stroke="#00402A" stroke-width="0.5" stroke-miterlimit="10"/>
<path d="M7.14509 49.1788C6.86046 49.1788 6.57583 49.1163 6.3529 48.9852C6.12401 48.8542 5.99463 48.6647 5.99463 48.4651C5.99463 48.2655 6.11804 48.082 6.3529 47.9449C6.79876 47.6889 7.49142 47.6889 7.93728 47.9449C8.16617 48.076 8.29555 48.2655 8.29555 48.4651C8.29555 48.6647 8.17215 48.8481 7.93728 48.9852C7.71435 49.1163 7.42972 49.1788 7.14509 49.1788ZM6.45243 48.1122C6.28523 48.2131 6.19168 48.3381 6.19168 48.4631C6.19168 48.5881 6.28523 48.7131 6.45243 48.8139C6.83658 49.0397 7.46157 49.0397 7.84572 48.8139C8.01291 48.7131 8.10646 48.5881 8.10646 48.4631C8.10646 48.3381 8.01291 48.2131 7.84572 48.1122C7.46157 47.8864 6.83658 47.8864 6.45243 48.1122Z" fill="#00402A" stroke="#00402A" stroke-width="0.5" stroke-miterlimit="10"/>
<path d="M2.02583 51.568L6.36494 42.9368H7.9314L12.2705 51.568C12.8019 52.6264 12.3581 53.818 10.927 54.6587C8.84102 55.8745 5.46328 55.8745 3.38329 54.6587C1.95417 53.824 1.50235 52.6285 2.03976 51.568H2.02782H2.02583Z" fill="#007F33" stroke="#00402A" stroke-width="0.5" stroke-miterlimit="10"/>
<path d="M6.56988 42.7291C6.2534 42.9166 6.2534 43.219 6.56988 43.4004C6.88635 43.5879 7.40585 43.5879 7.72034 43.4004C8.03681 43.2129 8.03681 42.9105 7.72034 42.7291C7.40386 42.5416 6.88436 42.5416 6.56988 42.7291Z" fill="#FFFEFF" stroke="#00402A" stroke-width="0.5" stroke-miterlimit="10"/>
<path d="M7.14522 43.6444C6.92229 43.6444 6.69339 43.594 6.52023 43.4932C6.33512 43.3863 6.2356 43.2371 6.2356 43.0738C6.2356 42.9105 6.33512 42.7613 6.52023 42.6545C6.86656 42.4468 7.4179 42.4468 7.77021 42.6545C7.95532 42.7613 8.05484 42.9105 8.05484 43.0738C8.05484 43.2371 7.95532 43.3863 7.77021 43.4932C7.59704 43.594 7.37412 43.6444 7.14522 43.6444ZM7.14522 42.6908C6.95414 42.6908 6.76107 42.7351 6.61975 42.8158C6.49634 42.8843 6.42867 42.9791 6.42867 43.0658C6.42867 43.1525 6.49634 43.2472 6.61975 43.3158C6.90438 43.4851 7.38805 43.4851 7.67865 43.3158C7.80205 43.2472 7.86973 43.1525 7.86973 43.0658C7.86973 42.9791 7.80205 42.8843 7.67865 42.8158C7.53534 42.7351 7.34426 42.6908 7.15318 42.6908H7.14721H7.14522Z" fill="#00402A" stroke="#00402A" stroke-width="0.5" stroke-miterlimit="10"/>
<path d="M3.67392 44.2775L6.61974 38.4165H7.67864L10.6245 44.2775C10.9827 44.9993 10.6802 45.8078 9.70886 46.3703C8.29169 47.1969 6.00271 47.1969 4.58553 46.3703C3.61421 45.7997 3.31167 44.9912 3.66994 44.2775H3.67591H3.67392Z" fill="#007F33" stroke="#00402A" stroke-width="0.5" stroke-miterlimit="10"/>
<path d="M6.755 38.2834C6.53805 38.4085 6.53805 38.6161 6.755 38.7411C6.97196 38.8661 7.31829 38.8661 7.53525 38.7411C7.7522 38.6161 7.7522 38.4085 7.53525 38.2834C7.31829 38.1584 6.97196 38.1584 6.755 38.2834Z" fill="#007F33" stroke="#00402A" stroke-width="0.5" stroke-miterlimit="10"/>
</svg>
