<svg width="72" height="81" viewBox="0 0 72 81" fill="none" xmlns="http://www.w3.org/2000/svg">
<path d="M20.8817 30.3971H15.9487V75.0033H20.8817V30.3971Z" fill="#00A443" stroke="#FFFEFF" stroke-width="0.5" stroke-linejoin="round"/>
<path d="M38.8383 30.3971H33.9053V75.0033H38.8383V30.3971Z" fill="#00A443" stroke="#FFFEFF" stroke-width="0.5" stroke-linejoin="round"/>
<path d="M38.8384 30.3971H37.4497V75.0033H38.8384V30.3971Z" fill="#26BF64" stroke="#FFFEFF" stroke-width="0.5" stroke-linejoin="round"/>
<path d="M20.8819 30.3971H19.4932V75.0033H20.8819V30.3971Z" fill="#26BF64" stroke="#FFFEFF" stroke-width="0.5" stroke-linejoin="round"/>
<path d="M56.868 30.3971H51.9351V75.0033H56.868V30.3971Z" fill="#00A443" stroke="#FFFEFF" stroke-width="0.5" stroke-linejoin="round"/>
<path d="M56.8682 30.3971H55.4795V75.0033H56.8682V30.3971Z" fill="#26BF64" stroke="#FFFEFF" stroke-width="0.5" stroke-linejoin="round"/>
<path d="M58.5022 29.9878C58.5022 30.1243 58.5022 30.2608 58.4931 30.3973H14.3045C14.2954 30.2608 14.2954 30.1243 14.2954 29.9878C14.2954 17.7238 24.1946 7.78027 36.4003 7.78027C48.606 7.78027 58.5022 17.7268 58.5022 29.9878Z" fill="#00402A" stroke="#FFFEFF" stroke-width="0.5" stroke-linejoin="round"/>
<path d="M60.0593 30.3972H12.6343C12.4425 30.3972 12.2871 30.5534 12.2871 30.746V33.2213C12.2871 33.414 12.4425 33.5701 12.6343 33.5701H60.0593C60.251 33.5701 60.4065 33.414 60.4065 33.2213V30.746C60.4065 30.5534 60.251 30.3972 60.0593 30.3972Z" fill="#00402A" stroke="#FFFEFF" stroke-width="0.5" stroke-linejoin="round"/>
<path d="M44.8324 8.74912C44.8324 8.80174 44.8324 8.85435 44.8299 8.90447H27.9175C27.915 8.85185 27.915 8.79923 27.915 8.74912C27.915 4.05605 31.703 0.25 36.3737 0.25C41.0445 0.25 44.8324 4.05605 44.8324 8.74912Z" fill="#A2BCB1" stroke="#FFFEFF" stroke-width="0.5" stroke-linejoin="round"/>
<path d="M47.3378 8.90466H25.3622C25.2738 8.90466 25.2021 8.97665 25.2021 9.06545V10.2151C25.2021 10.3039 25.2738 10.3759 25.3622 10.3759H47.3378C47.4262 10.3759 47.4978 10.3039 47.4978 10.2151V9.06545C47.4978 8.97665 47.4262 8.90466 47.3378 8.90466Z" fill="#26BF64" stroke="#FFFEFF" stroke-width="0.5" stroke-linejoin="round"/>
<path d="M8.70782 72.5737H62.8108C63.007 72.5737 63.17 72.6872 63.17 72.8284V75.1656H8.35156V72.8284C8.35156 72.6893 8.51155 72.5737 8.7108 72.5737H8.70782Z" fill="#00402A" stroke="#FFFEFF" stroke-width="0.5" stroke-linejoin="round"/>
<path d="M4.51583 74.9923H67.0025C67.2138 74.9923 67.3859 75.1143 67.3859 75.2641V77.582H4.12939V75.2641C4.12939 75.1143 4.30148 74.9923 4.51281 74.9923H4.51583Z" fill="#00402A" stroke="#FFFEFF" stroke-width="0.5" stroke-linejoin="round"/>
<path d="M0.657554 77.4961H70.8577C71.0841 77.4961 71.2653 77.6245 71.2653 77.785V80.0879H0.25V77.785C0.25 77.6245 0.431131 77.4961 0.657554 77.4961Z" fill="#00402A" stroke="#FFFEFF" stroke-width="0.5" stroke-linejoin="round"/>
<path d="M20.8818 33.5702H15.9487V36.4338H20.8818V33.5702Z" fill="#00402A" stroke="#FFFEFF" stroke-width="0.5" stroke-linejoin="round"/>
<path d="M38.8169 33.5702H33.8838V36.4338H38.8169V33.5702Z" fill="#00402A" stroke="#FFFEFF" stroke-width="0.5" stroke-linejoin="round"/>
<path d="M56.8682 33.5702H51.9351V36.4338H56.8682V33.5702Z" fill="#00402A" stroke="#FFFEFF" stroke-width="0.5" stroke-linejoin="round"/>
</svg>
