<svg width="113" height="69" viewBox="0 0 113 69" fill="none" xmlns="http://www.w3.org/2000/svg">
<path d="M86.1704 0.25H48.2139L71.6006 21.8406L109.421 17.1622L86.1704 0.25Z" fill="#FF9C1A" stroke="#FFFEFF" stroke-width="0.5" stroke-linejoin="round"/>
<path d="M71.6107 68.0922H25.1025V19.0004L48.4262 2.8241L71.6107 19.0004V68.0922Z" fill="#00402A" stroke="#FFFEFF" stroke-width="0.5" stroke-linejoin="round"/>
<path d="M71.6007 17.1622L48.3533 0.25L25.1025 17.1622V21.8406L48.3533 4.92842L71.6007 21.8406V17.1622Z" fill="#C66D00" stroke="#FFFEFF" stroke-width="0.5" stroke-linejoin="round"/>
<path d="M109.421 17.1624H71.6006V21.8408H109.421V17.1624Z" fill="#E3850D" stroke="#FFFEFF" stroke-width="0.5" stroke-linejoin="round"/>
<path d="M109.421 21.8406H71.6006V68.092H109.421V21.8406Z" fill="#00402A" stroke="#FFFEFF" stroke-width="0.5" stroke-linejoin="round"/>
<path d="M63.9307 44.8298H32.334V68.0921H63.9307V44.8298Z" fill="#00402A" stroke="#FFFEFF" stroke-width="0.5" stroke-linejoin="round"/>
<path d="M47.8887 28.6968H16.1958L32.3341 44.8298L63.9275 40.3645L47.8887 28.6968Z" fill="#FF9C1A" stroke="#FFFEFF" stroke-width="0.5" stroke-linejoin="round"/>
<path d="M32.3375 68.0921H0.25V41.6332L16.3418 31.7103L32.3375 41.6332V68.0921Z" fill="#00402A" stroke="#FFFEFF" stroke-width="0.5" stroke-linejoin="round"/>
<path d="M32.3342 40.3645L16.2921 28.6968L0.25 40.3645V44.8298L16.2921 33.1621L32.3342 44.8298V40.3645Z" fill="#C66D00" stroke="#FFFEFF" stroke-width="0.5" stroke-linejoin="round"/>
<path d="M63.9307 40.3645H32.334V44.8298H63.9307V40.3645Z" fill="#E3850D" stroke="#FFFEFF" stroke-width="0.5" stroke-linejoin="round"/>
<path d="M21.2756 68.0921V53.0013C21.2756 50.2742 19.0739 48.0598 16.3549 48.0598H16.0366C13.3209 48.0598 11.1191 50.2708 11.1191 53.0013V68.0921H21.2756Z" fill="#FFF5EC" stroke="#FFFEFF" stroke-width="0.5" stroke-linejoin="round"/>
<path d="M21.2756 68.0921V53.0013C21.2756 50.2742 19.4221 48.0598 17.1408 48.0598H16.8722C14.5876 48.0598 12.7373 50.2708 12.7373 53.0013V68.0921H21.2789H21.2756Z" fill="#00402A" stroke="#FFFEFF" stroke-width="0.5" stroke-linejoin="round"/>
<path d="M44.3012 62.1049V53.0045C44.3012 50.2773 46.5029 48.063 49.2186 48.063H49.5369C52.2526 48.063 54.4543 50.274 54.4543 53.0045V62.1049H44.2979H44.3012Z" fill="#FFF5EC" stroke="#FFFEFF" stroke-width="0.5" stroke-linejoin="round"/>
<path d="M44.3012 62.1049V53.0045C44.3012 50.2773 46.1514 48.063 48.436 48.063H48.7046C50.9892 48.063 52.8395 50.274 52.8395 53.0045V62.1049H44.2979H44.3012Z" fill="#00402A" stroke="#FFFEFF" stroke-width="0.5" stroke-linejoin="round"/>
<path d="M87.6392 60.1803V53.0045C87.6392 50.2773 89.8409 48.063 92.5599 48.063H92.8782C95.5972 48.063 97.7989 50.274 97.7989 53.0045V60.1803H87.6425H87.6392Z" fill="#FFF5EC" stroke="#FFFEFF" stroke-width="0.5" stroke-linejoin="round"/>
<path d="M87.6391 60.1803V53.0045C87.6391 50.2773 89.4893 48.063 91.7739 48.063H92.0425C94.3271 48.063 96.1774 50.274 96.1774 53.0045V60.1803H87.6357H87.6391Z" fill="#00402A" stroke="#FFFEFF" stroke-width="0.5" stroke-linejoin="round"/>
<path d="M52.7696 24.6478V19.5732C52.7696 16.846 50.5679 14.635 47.8489 14.635H47.5306C44.8149 14.635 42.6099 16.846 42.6099 19.5732V24.6478H52.7663H52.7696Z" fill="#FFF5EC" stroke="#FFFEFF" stroke-width="0.5" stroke-linejoin="round"/>
<path d="M52.7698 24.6478V19.5732C52.7698 16.846 50.9195 14.635 48.6349 14.635H48.3663C46.0817 14.635 44.2314 16.846 44.2314 19.5732V24.6478H52.7698Z" fill="#00402A" stroke="#FFFEFF" stroke-width="0.5" stroke-linejoin="round"/>
<path d="M87.6392 40.1148V35.0401C87.6392 32.313 89.8409 30.0986 92.5599 30.0986H92.8782C95.5972 30.0986 97.7989 32.3096 97.7989 35.0401V40.1148H87.6425H87.6392Z" fill="#FFF5EC" stroke="#FFFEFF" stroke-width="0.5" stroke-linejoin="round"/>
<path d="M87.6391 40.1148V35.0401C87.6391 32.313 89.4893 30.0986 91.7739 30.0986H92.0425C94.3271 30.0986 96.1774 32.3096 96.1774 35.0401V40.1148H87.6357H87.6391Z" fill="#00402A" stroke="#FFFEFF" stroke-width="0.5" stroke-linejoin="round"/>
<path d="M98.6712 63.983C98.6712 58.2757 94.0622 53.6472 88.3788 53.6472C82.6955 53.6472 78.0864 58.2757 78.0864 63.983H98.6679H98.6712Z" fill="#00A443" stroke="#FFFEFF" stroke-width="0.5" stroke-linejoin="round"/>
<path d="M109.242 63.9829C109.242 60.6164 106.523 57.886 103.171 57.886C99.8186 57.886 97.0996 60.6164 97.0996 63.9829H109.246H109.242Z" fill="#00A443" stroke="#FFFEFF" stroke-width="0.5" stroke-linejoin="round"/>
<path d="M54.4839 64.0098C54.4839 60.3403 57.4483 57.3634 61.1023 57.3634C64.7564 57.3634 67.7208 60.3403 67.7208 64.0098H54.4839Z" fill="#00A443" stroke="#FFFEFF" stroke-width="0.5" stroke-linejoin="round"/>
<path d="M47.6865 64.0097C47.6865 61.842 49.434 60.0872 51.5926 60.0872C53.7512 60.0872 55.4987 61.842 55.4987 64.0097H47.6865Z" fill="#00A443" stroke="#FFFEFF" stroke-width="0.5" stroke-linejoin="round"/>
<path d="M112.753 62.1049H81.6309V68.0919H112.753V62.1049Z" fill="#00402A" stroke="#FFFEFF" stroke-width="0.5" stroke-linejoin="round"/>
<path d="M81.6308 62.1049H76.0005V68.0919H81.6308V62.1049Z" fill="#00402A" stroke="#FFFEFF" stroke-width="0.5" stroke-linejoin="round"/>
<path d="M67.9497 62.1049H44.2612V68.0919H67.9497V62.1049Z" fill="#00402A" stroke="#FFFEFF" stroke-width="0.5" stroke-linejoin="round"/>
<path d="M44.2612 62.1049H38.6309V68.0919H44.2612V62.1049Z" fill="#00402A" stroke="#FFFEFF" stroke-width="0.5" stroke-linejoin="round"/>
</svg>
