<svg width="88" height="81" viewBox="0 0 88 81" fill="none" xmlns="http://www.w3.org/2000/svg">
<path d="M63.5014 0.250366H46.7867C46.7867 34.9476 10.2637 41.4319 10.2637 41.4319H26.9784C26.9784 41.4319 63.5014 34.9488 63.5014 0.250366Z" fill="#00402A" stroke="#FFFEFF" stroke-width="0.5" stroke-linejoin="round"/>
<path d="M70.9293 0.25H63.5006C63.5006 34.9472 26.9775 41.4315 26.9775 41.4315V80.089H87.644V0.251261H70.9293V0.25Z" fill="#00402A" stroke="#FFFEFF" stroke-width="0.5" stroke-linejoin="round"/>
<path d="M26.9798 41.4319H10.2651V80.0894H26.9798V41.4319Z" fill="#00402A" stroke="#FFFEFF" stroke-width="0.5" stroke-linejoin="round"/>
<path d="M41.7017 33.8933C37.5104 36.2855 33.5235 37.775 30.7061 38.651H23.4414C26.0114 37.3985 28.7404 35.838 31.424 33.8933H41.7017Z" fill="#6BDAFF" stroke="#FFFEFF" stroke-width="0.5" stroke-linejoin="round"/>
<path d="M50.412 27.4529C48.4892 29.2835 46.4604 30.8605 44.4228 32.2106H33.6216C35.3488 30.7996 37.042 29.2226 38.6191 27.4529H50.412Z" fill="#6BDAFF" stroke="#FFFEFF" stroke-width="0.5" stroke-linejoin="round"/>
<path d="M55.8152 21.0129C54.681 22.7472 53.4143 24.3242 52.0756 25.7706H40.0342C41.2038 24.3077 42.3027 22.7218 43.2855 21.0129H55.814H55.8152Z" fill="#6BDAFF" stroke="#FFFEFF" stroke-width="0.5" stroke-linejoin="round"/>
<path d="M59.158 14.5734C58.4931 16.2645 57.7223 17.8504 56.8631 19.3311H44.2021C44.9642 17.8415 45.6556 16.2556 46.2397 14.5734H59.158Z" fill="#6BDAFF" stroke="#FFFEFF" stroke-width="0.5" stroke-linejoin="round"/>
<path d="M61.009 8.13342C60.6898 9.79792 60.2734 11.3838 59.7687 12.8911H46.7798C47.2403 11.375 47.6213 9.78905 47.9052 8.13342H61.009Z" fill="#6BDAFF" stroke="#FFFEFF" stroke-width="0.5" stroke-linejoin="round"/>
<path d="M61.7 2.00146C61.6381 3.543 61.5044 5.03256 61.2924 6.4524H48.1533C48.3577 5.02369 48.4814 3.543 48.5343 2.00146H61.7012H61.7Z" fill="#6BDAFF" stroke="#FFFEFF" stroke-width="0.5" stroke-linejoin="round"/>
<path d="M85.8707 2.00146V6.4524H64.8726C65.0669 5.02369 65.1918 3.543 65.2447 2.00146H85.8707Z" fill="#6BDAFF" stroke="#FFFEFF" stroke-width="0.5" stroke-linejoin="round"/>
<path d="M85.8706 8.13342V12.8911H63.4985C63.9502 11.375 64.3312 9.79792 64.6151 8.13342H85.8706Z" fill="#6BDAFF" stroke="#FFFEFF" stroke-width="0.5" stroke-linejoin="round"/>
<path d="M85.8706 14.5734V19.3311H60.9121C61.683 17.8326 62.3655 16.2556 62.9497 14.5734H85.8706Z" fill="#6BDAFF" stroke="#FFFEFF" stroke-width="0.5" stroke-linejoin="round"/>
<path d="M85.8718 21.0129V25.7706H56.7485C57.9181 24.3077 59.0082 22.7218 59.9999 21.0129H85.8718Z" fill="#6BDAFF" stroke="#FFFEFF" stroke-width="0.5" stroke-linejoin="round"/>
<path d="M85.8702 27.4529V32.2106H50.3325C52.0686 30.8085 53.7529 29.2226 55.3212 27.4529H85.8715H85.8702Z" fill="#6BDAFF" stroke="#FFFEFF" stroke-width="0.5" stroke-linejoin="round"/>
<path d="M85.8705 33.8933V38.651H40.1523C42.7211 37.3985 45.459 35.838 48.1438 33.8933H85.8705Z" fill="#6BDAFF" stroke="#FFFEFF" stroke-width="0.5" stroke-linejoin="round"/>
<path d="M85.8717 40.3318V45.0895H28.7505V42.8292C30.3364 42.4438 33.0743 41.6641 36.3786 40.3318H85.8717Z" fill="#6BDAFF" stroke="#FFFEFF" stroke-width="0.5" stroke-linejoin="round"/>
<path d="M85.8717 46.7719H28.7505V51.5296H85.8717V46.7719Z" fill="#6BDAFF" stroke="#FFFEFF" stroke-width="0.5" stroke-linejoin="round"/>
<path d="M85.8717 53.2113H28.7505V57.969H85.8717V53.2113Z" fill="#6BDAFF" stroke="#FFFEFF" stroke-width="0.5" stroke-linejoin="round"/>
<path d="M85.8717 59.6517H28.7505V64.4094H85.8717V59.6517Z" fill="#6BDAFF" stroke="#FFFEFF" stroke-width="0.5" stroke-linejoin="round"/>
<path d="M85.8717 66.0825H28.7505V70.8491H85.8717V66.0825Z" fill="#6BDAFF" stroke="#FFFEFF" stroke-width="0.5" stroke-linejoin="round"/>
<path d="M85.8717 72.5216H28.7505V78.3391H85.8717V72.5216Z" fill="#6BDAFF" stroke="#FFFEFF" stroke-width="0.5" stroke-linejoin="round"/>
<path d="M8.23171 0.25H3.01807V8.83209H8.23171V0.25Z" fill="#00402A" stroke="#FFFEFF" stroke-width="0.5" stroke-linejoin="round"/>
<path d="M8.23169 0.25H7.46191V8.83209H8.23169V0.25Z" fill="#00402A" stroke="#FFFEFF" stroke-width="0.5" stroke-linejoin="round"/>
<path d="M16.574 0.25H8.14795V8.83209H16.574V0.25Z" fill="#00402A" stroke="#FFFEFF" stroke-width="0.5" stroke-linejoin="round"/>
<path d="M8.86029 6.92859H0.250488V80.089H8.86029V6.92859Z" fill="#00402A" stroke="#FFFEFF" stroke-width="0.5" stroke-linejoin="round"/>
<path d="M10.732 8.95898H8.86035V80.0897H10.732V8.95898Z" fill="#00402A" stroke="#FFFEFF" stroke-width="0.5" stroke-linejoin="round"/>
<path d="M18.5735 6.92859H10.7319V80.089H18.5735V6.92859Z" fill="#00402A" stroke="#FFFEFF" stroke-width="0.5" stroke-linejoin="round"/>
<path d="M20.2777 8.95898H18.5732V80.0897H20.2777V8.95898Z" fill="#00402A" stroke="#FFFEFF" stroke-width="0.5" stroke-linejoin="round"/>
<path d="M15.8616 8.78516H14.6558V15.0681H15.8616V8.78516Z" fill="#00402A" stroke="#FFFEFF" stroke-width="0.5" stroke-linejoin="round"/>
<path d="M18.0003 13.0027H16.7944V19.2856H18.0003V13.0027Z" fill="#00402A" stroke="#FFFEFF" stroke-width="0.5" stroke-linejoin="round"/>
<path d="M15.8611 19.056H14.6553V25.339H15.8611V19.056Z" fill="#00402A" stroke="#FFFEFF" stroke-width="0.5" stroke-linejoin="round"/>
<path d="M18.0003 23.2738H16.7944V29.5567H18.0003V23.2738Z" fill="#00402A" stroke="#FFFEFF" stroke-width="0.5" stroke-linejoin="round"/>
<path d="M15.8611 29.3271H14.6553V35.6101H15.8611V29.3271Z" fill="#00402A" stroke="#FFFEFF" stroke-width="0.5" stroke-linejoin="round"/>
<path d="M18.0003 33.5449H16.7944V39.8279H18.0003V33.5449Z" fill="#00402A" stroke="#FFFEFF" stroke-width="0.5" stroke-linejoin="round"/>
<path d="M15.8611 39.5988H14.6553V45.8817H15.8611V39.5988Z" fill="#00402A" stroke="#FFFEFF" stroke-width="0.5" stroke-linejoin="round"/>
<path d="M18.0003 43.816H16.7944V50.099H18.0003V43.816Z" fill="#00402A" stroke="#FFFEFF" stroke-width="0.5" stroke-linejoin="round"/>
<path d="M15.8611 49.8699H14.6553V56.1528H15.8611V49.8699Z" fill="#00402A" stroke="#FFFEFF" stroke-width="0.5" stroke-linejoin="round"/>
<path d="M18.0003 54.0874H16.7944V60.3703H18.0003V54.0874Z" fill="#00402A" stroke="#FFFEFF" stroke-width="0.5" stroke-linejoin="round"/>
<path d="M15.8611 60.141H14.6553V66.4239H15.8611V60.141Z" fill="#00402A" stroke="#FFFEFF" stroke-width="0.5" stroke-linejoin="round"/>
<path d="M18.0003 64.358H16.7944V70.641H18.0003V64.358Z" fill="#00402A" stroke="#FFFEFF" stroke-width="0.5" stroke-linejoin="round"/>
<path d="M15.8611 70.4124H14.6553V76.6953H15.8611V70.4124Z" fill="#00402A" stroke="#FFFEFF" stroke-width="0.5" stroke-linejoin="round"/>
<path d="M5.79083 8.78503H4.58496V15.068H5.79083V8.78503Z" fill="#00402A" stroke="#FFFEFF" stroke-width="0.5" stroke-linejoin="round"/>
<path d="M7.92999 13.0027H6.72412V19.2856H7.92999V13.0027Z" fill="#00402A" stroke="#FFFEFF" stroke-width="0.5" stroke-linejoin="round"/>
<path d="M5.79083 19.056H4.58496V25.339H5.79083V19.056Z" fill="#00402A" stroke="#FFFEFF" stroke-width="0.5" stroke-linejoin="round"/>
<path d="M7.92999 23.2738H6.72412V29.5567H7.92999V23.2738Z" fill="#00402A" stroke="#FFFEFF" stroke-width="0.5" stroke-linejoin="round"/>
<path d="M5.79083 29.3271H4.58496V35.6101H5.79083V29.3271Z" fill="#00402A" stroke="#FFFEFF" stroke-width="0.5" stroke-linejoin="round"/>
<path d="M7.92999 33.5449H6.72412V39.8279H7.92999V33.5449Z" fill="#00402A" stroke="#FFFEFF" stroke-width="0.5" stroke-linejoin="round"/>
<path d="M5.79083 39.5988H4.58496V45.8817H5.79083V39.5988Z" fill="#00402A" stroke="#FFFEFF" stroke-width="0.5" stroke-linejoin="round"/>
<path d="M7.92999 43.8163H6.72412V50.0992H7.92999V43.8163Z" fill="#00402A" stroke="#FFFEFF" stroke-width="0.5" stroke-linejoin="round"/>
<path d="M5.79083 49.8699H4.58496V56.1528H5.79083V49.8699Z" fill="#00402A" stroke="#FFFEFF" stroke-width="0.5" stroke-linejoin="round"/>
<path d="M7.92999 54.0874H6.72412V60.3703H7.92999V54.0874Z" fill="#00402A" stroke="#FFFEFF" stroke-width="0.5" stroke-linejoin="round"/>
<path d="M5.79083 60.141H4.58496V66.4239H5.79083V60.141Z" fill="#00402A" stroke="#FFFEFF" stroke-width="0.5" stroke-linejoin="round"/>
<path d="M7.92999 64.358H6.72412V70.641H7.92999V64.358Z" fill="#00402A" stroke="#FFFEFF" stroke-width="0.5" stroke-linejoin="round"/>
<path d="M5.79083 70.4124H4.58496V76.6953H5.79083V70.4124Z" fill="#00402A" stroke="#FFFEFF" stroke-width="0.5" stroke-linejoin="round"/>
</svg>
