<svg width="85" height="44" viewBox="0 0 85 44" fill="none" xmlns="http://www.w3.org/2000/svg">
<path d="M84.1821 31.5215H80.9261L71.4753 28.6118L75.4971 24.2334H79.3878L81.3883 25.0746L83.6923 27.874L84.1821 31.5215Z" fill="#00402A" stroke="#FFFEFF" stroke-width="0.5" stroke-linejoin="round"/>
<path d="M44.6614 37.665H30.1404V26.688L36.8249 24.2334L41.5296 25.1504L46.5723 29.6046L44.6614 37.665Z" fill="#00402A" stroke="#FFFEFF" stroke-width="0.5" stroke-linejoin="round"/>
<path d="M75.0903 43.25C72.1585 43.25 69.7855 39.6921 69.7855 35.2931C69.7855 30.894 72.1585 27.3362 75.0903 27.3362H78.8706V43.25H75.0903Z" fill="#00402A" stroke="#FFFEFF" stroke-width="0.5" stroke-linejoin="round"/>
<path d="M51.8774 43.25C48.9456 43.25 46.5726 39.6921 46.5726 35.2931C46.5726 30.894 48.9456 27.3362 51.8774 27.3362H55.6577V43.25H51.8774Z" fill="#00402A" stroke="#FFFEFF" stroke-width="0.5" stroke-linejoin="round"/>
<path d="M8.43845 43.25C5.50665 43.25 3.13361 39.6921 3.13361 35.2931C3.13361 30.894 5.50665 27.3362 8.43845 27.3362H12.2188V43.25H8.43845Z" fill="#00402A" stroke="#FFFEFF" stroke-width="0.5" stroke-linejoin="round"/>
<path d="M32.4448 43.25C29.513 43.25 27.1399 39.6921 27.1399 35.2931C27.1399 30.894 29.513 27.3362 32.4448 27.3362H36.2251V43.25H32.4448Z" fill="#00402A" stroke="#FFFEFF" stroke-width="0.5" stroke-linejoin="round"/>
<path d="M78.8704 43.25C75.9407 43.25 73.5656 39.6875 73.5656 35.2931C73.5656 30.8986 75.9407 27.3362 78.8704 27.3362C81.8002 27.3362 84.1753 30.8986 84.1753 35.2931C84.1753 39.6875 81.8002 43.25 78.8704 43.25Z" fill="#00402A" stroke="#FFFEFF" stroke-width="0.5" stroke-linejoin="round"/>
<path d="M78.8703 40.3609C77.0073 40.3609 75.497 38.092 75.497 35.2931C75.497 32.4942 77.0073 30.2252 78.8703 30.2252C80.7334 30.2252 82.2437 32.4942 82.2437 35.2931C82.2437 38.092 80.7334 40.3609 78.8703 40.3609Z" fill="#00402A" stroke="#FFFEFF" stroke-width="0.5" stroke-linejoin="round"/>
<path d="M78.3185 38.4166C77.168 38.4166 76.2352 37.0182 76.2352 35.2931C76.2352 33.5681 77.168 32.1697 78.3185 32.1697C79.4691 32.1697 80.4019 33.5681 80.4019 35.2931C80.4019 37.0182 79.4691 38.4166 78.3185 38.4166Z" fill="#00402A" stroke="#FFFEFF" stroke-width="0.5" stroke-linejoin="round"/>
<path d="M36.2249 43.25C33.2952 43.25 30.9201 39.6875 30.9201 35.2931C30.9201 30.8986 33.2952 27.3362 36.2249 27.3362C39.1547 27.3362 41.5298 30.8986 41.5298 35.2931C41.5298 39.6875 39.1547 43.25 36.2249 43.25Z" fill="#00402A" stroke="#FFFEFF" stroke-width="0.5" stroke-linejoin="round"/>
<path d="M36.2248 40.3609C34.3618 40.3609 32.8515 38.092 32.8515 35.2931C32.8515 32.4942 34.3618 30.2252 36.2248 30.2252C38.0879 30.2252 39.5981 32.4942 39.5981 35.2931C39.5981 38.092 38.0879 40.3609 36.2248 40.3609Z" fill="#00402A" stroke="#FFFEFF" stroke-width="0.5" stroke-linejoin="round"/>
<path d="M35.6662 38.4166C34.5156 38.4166 33.5829 37.0182 33.5829 35.2931C33.5829 33.5681 34.5156 32.1697 35.6662 32.1697C36.8168 32.1697 37.7495 33.5681 37.7495 35.2931C37.7495 37.0182 36.8168 38.4166 35.6662 38.4166Z" fill="#00402A" stroke="#FFFEFF" stroke-width="0.5" stroke-linejoin="round"/>
<path d="M12.2186 43.25C9.28881 43.25 6.91375 39.6875 6.91375 35.2931C6.91375 30.8986 9.28881 27.3362 12.2186 27.3362C15.1484 27.3362 17.5234 30.8986 17.5234 35.2931C17.5234 39.6875 15.1484 43.25 12.2186 43.25Z" fill="#00402A" stroke="#FFFEFF" stroke-width="0.5" stroke-linejoin="round"/>
<path d="M55.6576 43.25C52.7278 43.25 50.3527 39.6875 50.3527 35.2931C50.3527 30.8986 52.7278 27.3362 55.6576 27.3362C58.5873 27.3362 60.9624 30.8986 60.9624 35.2931C60.9624 39.6875 58.5873 43.25 55.6576 43.25Z" fill="#00402A" stroke="#FFFEFF" stroke-width="0.5" stroke-linejoin="round"/>
<mask id="mask0_99_17391" style="mask-type:luminance" maskUnits="userSpaceOnUse" x="0" y="0" width="85" height="38">
<path d="M42.661 37.665H71.5514C71.5514 37.665 71.2823 26.1434 78.8705 26.1434C82.2438 26.1434 84.1754 30.1356 84.1754 31.5215C84.1754 32.9074 85.7206 26.7639 82.2438 22.9165V18.614C82.2438 8.47827 74.021 0.259375 63.8804 0.259375H52.4153C52.4153 0.259375 22.3453 -0.816253 7.34141 20.0757C7.34141 20.0757 4.09227 21.1514 4.09227 24.6816C4.09227 24.6816 0.249879 27.4328 0.249879 32.1628C0.249879 36.8928 3.04372 37.6581 3.04372 37.6581H28.9885C28.9885 37.6581 28.1745 25.8331 36.2249 25.8331C43.5854 25.8331 42.661 37.6581 42.661 37.6581V37.665Z" fill="white" stroke="white" stroke-width="0.5" stroke-linejoin="round"/>
</mask>
<g mask="url(#mask0_99_17391)">
<path d="M71.8827 0.259359C71.8827 0.259359 56.6649 -1.22997 48.1179 5.15484C39.5708 11.5397 31.6791 20.517 31.6791 20.517C31.6791 20.517 23.4769 20.1516 19.9174 24.6334H8.77649C8.77649 24.6334 7.74864 20.3102 4.88581 19.9999L-2.48853 30.9423L-1.26062 40.3472L13.7985 40.885L66.0467 40.3472L84.5205 37.6581L86.8384 29.3151L85.3 8.52652L71.8827 0.259359Z" fill="#5BD38C" stroke="#FFFEFF" stroke-width="0.5" stroke-linejoin="round"/>
<path d="M82.1543 16.7247C76.8977 18.9449 71.6481 25.2263 70.4616 26.957L51.7256 27.2811C47.0899 27.3638 43.2958 23.6129 43.3303 18.9794L76.8564 15.7043L81.9473 15.2423L82.1543 16.7247Z" fill="#00402A" stroke="#FFFEFF" stroke-width="0.5" stroke-linejoin="round"/>
<path d="M3.13352 23.9439C3.13352 23.9439 4.68565 26.1434 12.8257 26.1434C20.9658 26.1434 25.9878 25.4953 25.9878 25.4953C25.9878 25.4953 21.3797 29.1635 23.6837 36.024H0.249996L-1.46769 28.4464L3.12662 23.937L3.13352 23.9439Z" fill="#00402A" stroke="#FFFEFF" stroke-width="0.5" stroke-linejoin="round"/>
<path d="M15.0334 21.6477L31.6792 18.9656L46.5728 4.95483H24.3531L6.01727 14.7872V19.593L15.0334 21.6477Z" fill="#00402A" stroke="#FFFEFF" stroke-width="0.5" stroke-linejoin="round"/>
</g>
<path d="M42.661 37.665H71.5514C71.5514 37.665 71.2823 26.1434 78.8705 26.1434C82.2438 26.1434 84.1754 30.1356 84.1754 31.5215C84.1754 32.9074 85.7206 26.7639 82.2438 22.9165V18.614C82.2438 8.47827 74.021 0.259375 63.8804 0.259375H52.4153C52.4153 0.259375 22.3453 -0.816253 7.34141 20.0757C7.34141 20.0757 4.09227 21.1514 4.09227 24.6816C4.09227 24.6816 0.249879 27.4328 0.249879 32.1628C0.249879 36.8928 3.04372 37.6581 3.04372 37.6581H28.9885C28.9885 37.6581 28.1745 25.8331 36.2249 25.8331C43.5854 25.8331 42.661 37.6581 42.661 37.6581V37.665Z" stroke="#FFFEFF" stroke-width="0.5" stroke-linejoin="round"/>
<path d="M20.2273 25.5021C20.2273 25.5021 22.966 21.0824 31.4717 21.0824C31.4717 21.0824 30.8094 23.9921 27.8569 24.6954C24.9044 25.3918 20.2273 25.5021 20.2273 25.5021Z" fill="#FF9C1A" stroke="#FFFEFF" stroke-width="0.5" stroke-linejoin="round"/>
<path d="M40.433 18.9657L76.8495 15.7112C76.8495 15.7112 77.6152 3.42426 64.5566 3.50011C51.4911 3.57595 40.433 18.9726 40.433 18.9726V18.9657Z" fill="#00402A" stroke="#FFFEFF" stroke-width="0.5" stroke-linejoin="round"/>
<path d="M43.2817 18.9656V33.9624C43.2817 34.6932 43.875 35.2931 44.6131 35.2931H67.2673C67.9916 35.2931 68.5849 34.7139 68.5918 33.9968C68.6194 31.7008 69.2127 26.8812 73.2482 23.6956C78.7048 19.3931 76.8629 15.7112 76.8629 15.7112" fill="#00A443"/>
<path d="M43.2817 18.9656V33.9624C43.2817 34.6932 43.875 35.2931 44.6131 35.2931H67.2673C67.9916 35.2931 68.5849 34.7139 68.5918 33.9968C68.6194 31.7008 69.2127 26.8812 73.2482 23.6956C78.7048 19.3931 76.8629 15.7112 76.8629 15.7112" stroke="#FFFEFF" stroke-width="0.5" stroke-miterlimit="10" stroke-linejoin="round"/>
<path d="M68.7505 31.9421H43.2817V33.9072H68.5849L68.7505 31.9421Z" fill="#00402A" stroke="#FFFEFF" stroke-width="0.5" stroke-miterlimit="10" stroke-linejoin="round"/>
<path d="M58.6445 17.3315V31.9422" stroke="#FFFEFF" stroke-width="0.5" stroke-miterlimit="10" stroke-linejoin="round"/>
<path d="M4.17509 30.2322H17.8477L15.0814 34.5209H7.01032L4.17509 30.2322Z" fill="#00402A" stroke="#FFFEFF" stroke-width="0.5" stroke-linejoin="round"/>
<path d="M18.8822 34.5209C18.3108 34.5209 17.8475 34.0579 17.8475 33.4866C17.8475 32.9154 18.3108 32.4524 18.8822 32.4524C19.4537 32.4524 19.917 32.9154 19.917 33.4866C19.917 34.0579 19.4537 34.5209 18.8822 34.5209Z" fill="#00402A" stroke="#FFFEFF" stroke-width="0.5" stroke-linejoin="round"/>
<path d="M3.13321 34.5209C2.56173 34.5209 2.09846 34.0579 2.09846 33.4866C2.09846 32.9154 2.56173 32.4524 3.13321 32.4524C3.70469 32.4524 4.16797 32.9154 4.16797 33.4866C4.16797 34.0579 3.70469 34.5209 3.13321 34.5209Z" fill="#00402A" stroke="#FFFEFF" stroke-width="0.5" stroke-linejoin="round"/>
<path d="M37.4389 20.517H39.5981C39.8077 20.517 39.9775 20.6868 39.9775 20.8962V21.2685C39.9775 21.478 39.8077 21.6478 39.5981 21.6478H37.4389C37.2294 21.6478 37.0595 21.478 37.0595 21.2685V20.8962C37.0595 20.6868 37.2294 20.517 37.4389 20.517Z" fill="#00402A" stroke="#FFFEFF" stroke-width="0.5" stroke-linejoin="round"/>
<path d="M6.01674 20.8204C6.01674 20.8204 7.76203 22.3029 8.3208 25.2264C8.3208 25.2264 5.60284 24.8678 4.0921 24.0197C4.0921 24.0197 4.0714 21.9236 6.01674 20.8204Z" fill="#FF9C1A" stroke="#FFFEFF" stroke-width="0.5" stroke-linejoin="round"/>
<path d="M27.6364 5.63062C27.6364 5.63062 14.9365 13.0014 10.8389 19.5586C10.8389 19.5586 18.0132 18.5312 25.0771 18.3313C25.0771 16.4627 26.5878 14.9527 28.4573 14.9527H28.9678V11.8155C28.9678 10.6088 29.9473 9.62285 31.1614 9.62285H33.5828L35.1211 5.63062H27.6364Z" fill="#00402A" stroke="#FFFEFF" stroke-width="0.5" stroke-linejoin="round"/>
<path d="M37.4667 5.63062L35.8318 12.5946L42.3853 5.63062H37.4667Z" fill="#00402A" stroke="#FFFEFF" stroke-width="0.5" stroke-linejoin="round"/>
<path d="M59.3826 5.82363V11.581H64.4529V14.4976H68.2953V11.5052H74.1313C74.1313 11.5052 73.2828 4.82385 66.2189 4.82385C62.4524 4.82385 59.3826 5.82363 59.3826 5.82363Z" fill="#00402A" stroke="#FFFEFF" stroke-width="0.5" stroke-linejoin="round"/>
<path d="M53.4637 8.35413L50.8492 9.96757H54.0776L53.4637 8.35413Z" fill="#00402A" stroke="#FFFEFF" stroke-width="0.5" stroke-linejoin="round"/>
<path d="M48.9316 11.0432V14.8838L43.1646 16.7247L48.9316 11.0432Z" fill="#00402A" stroke="#FFFEFF" stroke-width="0.5" stroke-linejoin="round"/>
<path d="M41.971 16.8419L39.3083 18.7381C39.3083 19.2483 39.7222 19.662 40.2326 19.662H40.6396L43.6611 18.4347L41.971 16.8488V16.8419Z" fill="#00402A" stroke="#FFFEFF" stroke-width="0.5" stroke-linejoin="round"/>
<path d="M40.8052 17.1729V18.9656L45.0132 19.4138C45.9307 19.5103 46.7999 18.9794 47.131 18.1175L47.1724 18.0141C47.3794 17.4832 47.3449 16.8833 47.0896 16.38C46.6688 15.5388 45.7307 15.0975 44.8201 15.3044L40.8052 17.1798V17.1729Z" fill="#00402A" stroke="#FFFEFF" stroke-width="0.5" stroke-linejoin="round"/>
</svg>
