<svg width="189" height="82" viewBox="0 0 189 82" fill="none" xmlns="http://www.w3.org/2000/svg">
<path d="M51.9687 74.0348C55.8286 70.1801 55.8286 63.9305 51.9687 60.0759C48.1088 56.2213 41.8508 56.2212 37.9909 60.0759C34.131 63.9305 34.131 70.1801 37.9909 74.0347C41.8508 77.8894 48.1089 77.8894 51.9687 74.0348Z" fill="#00402A" stroke="#FFFEFF" stroke-width="0.5" stroke-linejoin="round"/>
<path d="M49.9222 71.9906C52.6516 69.2649 52.6516 64.8457 49.9222 62.12C47.1928 59.3943 42.7676 59.3943 40.0382 62.12C37.3088 64.8457 37.3088 69.2649 40.0382 71.9906C42.7676 74.7163 47.1928 74.7163 49.9222 71.9906Z" fill="#00402A" stroke="#FFFEFF" stroke-width="0.5" stroke-linejoin="round"/>
<path d="M0.907835 26.552H3.77481C4.13809 26.552 4.43264 26.8461 4.43264 27.2089V35.0334C4.43264 35.3961 4.13809 35.6903 3.77481 35.6903H0.907835C0.544555 35.6903 0.25 35.3961 0.25 35.0334V27.2089C0.25 26.8461 0.544555 26.552 0.907835 26.552Z" fill="#00402A" stroke="#FFFEFF" stroke-width="0.5" stroke-linejoin="round"/>
<path d="M1.5228 28.1127C1.38698 28.1127 1.27734 28.0032 1.27734 27.8676V25.266C1.27734 24.4849 1.91389 23.8475 2.69773 23.8475H10.3184C10.4543 23.8475 10.5639 23.957 10.5639 24.0927C10.5639 24.2283 10.4543 24.3378 10.3184 24.3378H2.69773C2.18553 24.3378 1.76826 24.7545 1.76826 25.266V27.8676C1.76826 28.0032 1.65862 28.1127 1.5228 28.1127Z" fill="#00402A" stroke="#FFFEFF" stroke-width="0.5" stroke-linejoin="round"/>
<path d="M10.752 22.5285L9.50672 23.7721C9.29399 23.9845 9.29399 24.3309 9.50672 24.5434L10.716 25.751C10.8191 25.854 10.9582 25.9112 11.1022 25.9112H12.7206C13.0217 25.9112 13.2672 25.6661 13.2672 25.3654V22.9141C13.2672 22.6134 13.0217 22.3683 12.7206 22.3683H11.1382C10.9926 22.3683 10.8535 22.4255 10.752 22.5285Z" fill="#00402A" stroke="#FFFEFF" stroke-width="0.5" stroke-linejoin="round"/>
<path d="M10.6685 24.0939C10.6685 24.2867 10.5114 24.4453 10.3167 24.4453C10.1219 24.4453 9.96484 24.2884 9.96484 24.0939C9.96484 23.8994 10.1219 23.7426 10.3167 23.7426C10.5114 23.7426 10.6685 23.8994 10.6685 24.0939Z" fill="#00402A" stroke="#FFFEFF" stroke-width="0.5" stroke-linejoin="round"/>
<path d="M56.2133 5.24407L46.21 62.0872V69.4835H9.085C5.38347 69.4835 2.38232 66.4864 2.38232 62.7899C2.38232 62.3225 2.43144 61.8568 2.52799 61.3992L10.813 10.9555C11.3547 7.661 14.2053 5.24243 17.5484 5.24243H56.2116L56.2133 5.24407Z" fill="#A2BCB1" stroke="#FFFEFF" stroke-width="0.5" stroke-linejoin="round"/>
<path d="M4.97559 46.502H47.4041V18.3174H9.60496L4.97559 46.502Z" fill="#00402A" stroke="#FFFEFF" stroke-width="0.5" stroke-linejoin="round"/>
<path d="M188.556 11.9376V62.7915C188.556 66.488 185.555 69.485 181.854 69.485H36.5464C32.8449 69.485 29.8438 66.488 29.8438 62.7915C29.8438 62.3241 29.8928 61.8584 29.9894 61.4008L38.7179 10.5469C39.3758 7.45505 42.1086 5.24402 45.2734 5.24402H181.852C185.554 5.24402 188.555 8.24109 188.555 11.9376H188.556Z" fill="#699282" stroke="#FFFEFF" stroke-width="0.5" stroke-linejoin="round"/>
<path d="M39.4282 59.0262H58.2435V65.2671C58.2435 66.7739 57.0179 67.9979 55.5091 67.9979H42.1626C40.6539 67.9979 39.4282 66.7739 39.4282 65.2671V59.0262Z" fill="#00402A" stroke="#FFFEFF" stroke-width="0.5" stroke-linejoin="round"/>
<path d="M115.341 59.0262H134.157V65.2671C134.157 66.7739 132.931 67.9979 131.422 67.9979H118.076C116.567 67.9979 115.341 66.7739 115.341 65.2671V59.0262Z" fill="#00402A" stroke="#FFFEFF" stroke-width="0.5" stroke-linejoin="round"/>
<path d="M171.667 46.2521C171.804 46.2523 171.917 46.3642 171.917 46.5021V67.0558C171.916 67.1935 171.804 67.3055 171.667 67.3058H171.175C171.037 67.3058 170.926 67.1936 170.925 67.0558V47.1906H62.7261V67.0558C62.7258 67.1935 62.6138 67.3056 62.4761 67.3058H61.9849C61.847 67.3058 61.7351 67.1936 61.7349 67.0558V46.5021C61.7349 46.364 61.8468 46.2521 61.9849 46.2521H171.667Z" fill="#00402A" stroke="#FFFEFF" stroke-width="0.5" stroke-linejoin="round"/>
<path d="M84.3132 46.7474H83.8223V69.4837H84.3132V46.7474Z" fill="#00402A" stroke="#FFFEFF" stroke-width="0.5" stroke-linejoin="round"/>
<path d="M106.151 46.7474H105.66V69.4837H106.151V46.7474Z" fill="#00402A" stroke="#FFFEFF" stroke-width="0.5" stroke-linejoin="round"/>
<path d="M127.99 46.7474H127.5V69.4837H127.99V46.7474Z" fill="#00402A" stroke="#FFFEFF" stroke-width="0.5" stroke-linejoin="round"/>
<path d="M149.828 46.7474H149.337V69.4837H149.828V46.7474Z" fill="#00402A" stroke="#FFFEFF" stroke-width="0.5" stroke-linejoin="round"/>
<path d="M168.158 18.3174H45.4149C43.6264 18.3174 42.08 19.5675 41.7085 21.3161L39.5141 31.6375C39.4421 31.9758 39.4192 32.3125 39.4372 32.6393C39.4306 32.6393 39.4307 63.2899 39.4307 63.2899C39.4307 64.4567 40.3781 65.4028 41.5465 65.4028H56.1301C57.2985 65.4028 58.246 64.4567 58.246 63.2899V36.2083H115.341V63.3111C115.341 64.4665 116.279 65.4028 117.436 65.4028H132.064C133.221 65.4028 134.158 64.4665 134.158 63.3111V36.2083H168.159C170.252 36.2083 171.949 34.5137 171.949 32.4236V22.1021C171.949 20.012 170.252 18.3174 168.159 18.3174H168.158Z" fill="#00402A" stroke="#FFFEFF" stroke-width="0.5" stroke-linejoin="round"/>
<path d="M43.7438 5.24405H118.256L115.778 2.72414C114.222 1.14063 112.095 0.25 109.874 0.25H56.925C55.7861 0.25 54.6586 0.485316 53.6146 0.939617L43.7422 5.24405H43.7438Z" fill="#00402A" stroke="#FFFEFF" stroke-width="0.5" stroke-linejoin="round"/>
<path d="M65.3068 5.24417H146.364L143.887 2.72426C142.33 1.14075 140.203 0.250122 137.983 0.250122H78.488C77.3491 0.250122 76.2216 0.485438 75.1776 0.939739L65.3052 5.24417H65.3068Z" fill="#00402A" stroke="#FFFEFF" stroke-width="0.5" stroke-linejoin="round"/>
<path d="M90.1224 15.4171C90.8849 15.4171 91.5068 14.7978 91.5068 14.0346C91.5068 13.2714 90.8866 12.6521 90.1224 12.6521H88.3273C87.5647 12.6521 86.9429 13.2714 86.9429 14.0346C86.9429 14.7978 87.5631 15.4171 88.3273 15.4171H90.1224Z" fill="#00402A" stroke="#FFFEFF" stroke-width="0.5" stroke-linejoin="round"/>
<path d="M88.3274 14.5995H90.1225C90.4351 14.5995 90.6888 14.3462 90.6888 14.034C90.6888 13.7219 90.4351 13.4686 90.1225 13.4686H88.3274C88.0149 13.4686 87.7612 13.7219 87.7612 14.034C87.7612 14.3462 88.0149 14.5995 88.3274 14.5995Z" fill="#00402A" stroke="#FFFEFF" stroke-width="0.5" stroke-linejoin="round"/>
<path d="M108.685 15.4171C109.448 15.4171 110.07 14.7978 110.07 14.0346C110.07 13.2714 109.45 12.6521 108.685 12.6521H106.89C106.128 12.6521 105.506 13.2714 105.506 14.0346C105.506 14.7978 106.126 15.4171 106.89 15.4171H108.685Z" fill="#00402A" stroke="#FFFEFF" stroke-width="0.5" stroke-linejoin="round"/>
<path d="M106.89 14.5995H108.685C108.998 14.5995 109.251 14.3462 109.251 14.034C109.251 13.7219 108.998 13.4686 108.685 13.4686H106.89C106.577 13.4686 106.324 13.7219 106.324 14.034C106.324 14.3462 106.577 14.5995 106.89 14.5995Z" fill="#00402A" stroke="#FFFEFF" stroke-width="0.5" stroke-linejoin="round"/>
<path d="M127.249 15.4171C128.011 15.4171 128.633 14.7978 128.633 14.0346C128.633 13.2714 128.013 12.6521 127.249 12.6521H125.454C124.691 12.6521 124.069 13.2714 124.069 14.0346C124.069 14.7978 124.69 15.4171 125.454 15.4171H127.249Z" fill="#00402A" stroke="#FFFEFF" stroke-width="0.5" stroke-linejoin="round"/>
<path d="M125.453 14.5995H127.249C127.561 14.5995 127.815 14.3462 127.815 14.034C127.815 13.7219 127.561 13.4686 127.249 13.4686H125.453C125.141 13.4686 124.887 13.7219 124.887 14.034C124.887 14.3462 125.141 14.5995 125.453 14.5995Z" fill="#00402A" stroke="#FFFEFF" stroke-width="0.5" stroke-linejoin="round"/>
<path d="M178.905 64.6593C179.668 64.6593 180.289 64.0383 180.289 63.2768C180.289 62.5153 179.669 61.8943 178.905 61.8943H177.11C176.347 61.8943 175.726 62.5137 175.726 63.2768C175.726 64.04 176.346 64.6593 177.11 64.6593H178.905Z" fill="#00402A" stroke="#FFFEFF" stroke-width="0.5" stroke-linejoin="round"/>
<path d="M177.11 63.8424H178.905C179.218 63.8424 179.471 63.5891 179.471 63.277C179.471 62.9649 179.218 62.7115 178.905 62.7115H177.11C176.798 62.7115 176.544 62.9649 176.544 63.277C176.544 63.5891 176.798 63.8424 177.11 63.8424Z" fill="#00402A" stroke="#FFFEFF" stroke-width="0.5" stroke-linejoin="round"/>
<path d="M170.947 38.809H170.143V44.5881H170.947V38.809Z" fill="#00402A" stroke="#FFFEFF" stroke-width="0.5" stroke-linejoin="round"/>
<path d="M95.0771 38.809H94.2729V44.5881H95.0771V38.809Z" fill="#00402A" stroke="#FFFEFF" stroke-width="0.5" stroke-linejoin="round"/>
<path d="M169.151 38.809H168.347V44.5881H169.151V38.809Z" fill="#00402A" stroke="#FFFEFF" stroke-width="0.5" stroke-linejoin="round"/>
<path d="M93.2807 38.809H92.4766V44.5881H93.2807V38.809Z" fill="#00402A" stroke="#FFFEFF" stroke-width="0.5" stroke-linejoin="round"/>
<path d="M167.359 38.809H166.555V44.5881H167.359V38.809Z" fill="#00402A" stroke="#FFFEFF" stroke-width="0.5" stroke-linejoin="round"/>
<path d="M91.4882 38.809H90.6841V44.5881H91.4882V38.809Z" fill="#00402A" stroke="#FFFEFF" stroke-width="0.5" stroke-linejoin="round"/>
<path d="M165.565 38.809H164.761V44.5881H165.565V38.809Z" fill="#00402A" stroke="#FFFEFF" stroke-width="0.5" stroke-linejoin="round"/>
<path d="M89.6952 38.809H88.8911V44.5881H89.6952V38.809Z" fill="#00402A" stroke="#FFFEFF" stroke-width="0.5" stroke-linejoin="round"/>
<path d="M163.772 38.809H162.968V44.5881H163.772V38.809Z" fill="#00402A" stroke="#FFFEFF" stroke-width="0.5" stroke-linejoin="round"/>
<path d="M87.9023 38.809H87.0981V44.5881H87.9023V38.809Z" fill="#00402A" stroke="#FFFEFF" stroke-width="0.5" stroke-linejoin="round"/>
<path d="M161.979 38.809H161.175V44.5881H161.979V38.809Z" fill="#00402A" stroke="#FFFEFF" stroke-width="0.5" stroke-linejoin="round"/>
<path d="M86.1088 38.809H85.3047V44.5881H86.1088V38.809Z" fill="#00402A" stroke="#FFFEFF" stroke-width="0.5" stroke-linejoin="round"/>
<path d="M160.186 38.809H159.382V44.5881H160.186V38.809Z" fill="#00402A" stroke="#FFFEFF" stroke-width="0.5" stroke-linejoin="round"/>
<path d="M84.3153 38.809H83.5112V44.5881H84.3153V38.809Z" fill="#00402A" stroke="#FFFEFF" stroke-width="0.5" stroke-linejoin="round"/>
<path d="M158.39 38.809H157.585V44.5881H158.39V38.809Z" fill="#00402A" stroke="#FFFEFF" stroke-width="0.5" stroke-linejoin="round"/>
<path d="M82.5195 38.809H81.7153V44.5881H82.5195V38.809Z" fill="#00402A" stroke="#FFFEFF" stroke-width="0.5" stroke-linejoin="round"/>
<path d="M156.597 38.809H155.792V44.5881H156.597V38.809Z" fill="#00402A" stroke="#FFFEFF" stroke-width="0.5" stroke-linejoin="round"/>
<path d="M80.7265 38.809H79.9224V44.5881H80.7265V38.809Z" fill="#00402A" stroke="#FFFEFF" stroke-width="0.5" stroke-linejoin="round"/>
<path d="M154.804 38.809H154V44.5881H154.804V38.809Z" fill="#00402A" stroke="#FFFEFF" stroke-width="0.5" stroke-linejoin="round"/>
<path d="M78.933 38.809H78.1289V44.5881H78.933V38.809Z" fill="#00402A" stroke="#FFFEFF" stroke-width="0.5" stroke-linejoin="round"/>
<path d="M153.01 38.809H152.206V44.5881H153.01V38.809Z" fill="#00402A" stroke="#FFFEFF" stroke-width="0.5" stroke-linejoin="round"/>
<path d="M77.1396 38.809H76.3354V44.5881H77.1396V38.809Z" fill="#00402A" stroke="#FFFEFF" stroke-width="0.5" stroke-linejoin="round"/>
<path d="M151.218 38.809H150.414V44.5881H151.218V38.809Z" fill="#00402A" stroke="#FFFEFF" stroke-width="0.5" stroke-linejoin="round"/>
<path d="M75.3476 38.809H74.5435V44.5881H75.3476V38.809Z" fill="#00402A" stroke="#FFFEFF" stroke-width="0.5" stroke-linejoin="round"/>
<path d="M149.424 38.809H148.62V44.5881H149.424V38.809Z" fill="#00402A" stroke="#FFFEFF" stroke-width="0.5" stroke-linejoin="round"/>
<path d="M73.5541 38.809H72.75V44.5881H73.5541V38.809Z" fill="#00402A" stroke="#FFFEFF" stroke-width="0.5" stroke-linejoin="round"/>
<path d="M147.629 38.809H146.825V44.5881H147.629V38.809Z" fill="#00402A" stroke="#FFFEFF" stroke-width="0.5" stroke-linejoin="round"/>
<path d="M71.7582 38.809H70.9541V44.5881H71.7582V38.809Z" fill="#00402A" stroke="#FFFEFF" stroke-width="0.5" stroke-linejoin="round"/>
<path d="M145.835 38.809H145.031V44.5881H145.835V38.809Z" fill="#00402A" stroke="#FFFEFF" stroke-width="0.5" stroke-linejoin="round"/>
<path d="M69.9648 38.809H69.1606V44.5881H69.9648V38.809Z" fill="#00402A" stroke="#FFFEFF" stroke-width="0.5" stroke-linejoin="round"/>
<path d="M144.042 38.809H143.238V44.5881H144.042V38.809Z" fill="#00402A" stroke="#FFFEFF" stroke-width="0.5" stroke-linejoin="round"/>
<path d="M68.1713 38.809H67.3672V44.5881H68.1713V38.809Z" fill="#00402A" stroke="#FFFEFF" stroke-width="0.5" stroke-linejoin="round"/>
<path d="M142.248 38.809H141.444V44.5881H142.248V38.809Z" fill="#00402A" stroke="#FFFEFF" stroke-width="0.5" stroke-linejoin="round"/>
<path d="M66.3783 38.809H65.5742V44.5881H66.3783V38.809Z" fill="#00402A" stroke="#FFFEFF" stroke-width="0.5" stroke-linejoin="round"/>
<path d="M140.455 38.809H139.651V44.5881H140.455V38.809Z" fill="#00402A" stroke="#FFFEFF" stroke-width="0.5" stroke-linejoin="round"/>
<path d="M64.5849 38.809H63.7808V44.5881H64.5849V38.809Z" fill="#00402A" stroke="#FFFEFF" stroke-width="0.5" stroke-linejoin="round"/>
<path d="M138.659 38.8093H137.855V44.5885H138.659V38.8093Z" fill="#00402A" stroke="#FFFEFF" stroke-width="0.5" stroke-linejoin="round"/>
<path d="M62.789 38.8093H61.9849V44.5885H62.789V38.8093Z" fill="#00402A" stroke="#FFFEFF" stroke-width="0.5" stroke-linejoin="round"/>
<path d="M88.592 69.3072C89.8459 64.0017 86.5556 58.6856 81.2429 57.4334C75.9302 56.1812 70.6069 59.467 69.3529 64.7725C68.099 70.078 71.3893 75.3941 76.7021 76.6464C82.0148 77.8986 87.3381 74.6127 88.592 69.3072Z" fill="#00402A" stroke="#FFFEFF" stroke-width="0.5" stroke-linejoin="round"/>
<path d="M83.9325 71.9912C86.6619 69.2655 86.6619 64.8463 83.9325 62.1206C81.2031 59.3949 76.7779 59.3949 74.0485 62.1206C71.3191 64.8463 71.3191 69.2655 74.0485 71.9912C76.7779 74.7169 81.2031 74.7169 83.9325 71.9912Z" fill="#00402A" stroke="#FFFEFF" stroke-width="0.5" stroke-linejoin="round"/>
<path d="M81.3586 69.4208C82.6665 68.1147 82.6665 65.9971 81.3586 64.691C80.0508 63.385 77.9303 63.385 76.6225 64.691C75.3146 65.9971 75.3146 68.1147 76.6225 69.4208C77.9303 70.7269 80.0508 70.7268 81.3586 69.4208Z" fill="#00402A" stroke="#FFFEFF" stroke-width="0.5" stroke-linejoin="round"/>
<path d="M167.064 69.3076C168.318 64.0021 165.027 58.686 159.715 57.4338C154.402 56.1816 149.079 59.4674 147.825 64.7729C146.571 70.0784 149.861 75.3945 155.174 76.6467C160.486 77.8989 165.81 74.6131 167.064 69.3076Z" fill="#00402A" stroke="#FFFEFF" stroke-width="0.5" stroke-linejoin="round"/>
<path d="M162.408 71.9908C165.137 69.2652 165.137 64.8459 162.408 62.1202C159.678 59.3946 155.253 59.3946 152.524 62.1203C149.794 64.8459 149.794 69.2652 152.524 71.9908C155.253 74.7165 159.678 74.7165 162.408 71.9908Z" fill="#00402A" stroke="#FFFEFF" stroke-width="0.5" stroke-linejoin="round"/>
<path d="M159.652 69.2383C160.859 68.0328 160.859 66.0783 159.652 64.8727C158.444 63.6672 156.487 63.6672 155.28 64.8728C154.073 66.0783 154.073 68.0328 155.28 69.2383C156.487 70.4439 158.444 70.4439 159.652 69.2383Z" fill="#00402A" stroke="#FFFEFF" stroke-width="0.5" stroke-linejoin="round"/>
<path d="M77.6042 18.3175H77.1133V36.2068H77.6042V18.3175Z" fill="#00402A" stroke="#FFFEFF" stroke-width="0.5" stroke-linejoin="round"/>
<path d="M96.4719 18.3175H95.981V36.2068H96.4719V18.3175Z" fill="#00402A" stroke="#FFFEFF" stroke-width="0.5" stroke-linejoin="round"/>
<path d="M58.736 18.3175H58.2451V36.2068H58.736V18.3175Z" fill="#00402A" stroke="#FFFEFF" stroke-width="0.5" stroke-linejoin="round"/>
<path d="M44.3981 18.3174H43.9072V65.4077H44.3981V18.3174Z" fill="#00402A" stroke="#FFFEFF" stroke-width="0.5" stroke-linejoin="round"/>
<path d="M120.317 18.3175H119.826V65.4079H120.317V18.3175Z" fill="#00402A" stroke="#FFFEFF" stroke-width="0.5" stroke-linejoin="round"/>
<path d="M115.341 18.3175H114.85V36.2068H115.341V18.3175Z" fill="#00402A" stroke="#FFFEFF" stroke-width="0.5" stroke-linejoin="round"/>
<path d="M134.647 18.3175H134.156V36.2068H134.647V18.3175Z" fill="#00402A" stroke="#FFFEFF" stroke-width="0.5" stroke-linejoin="round"/>
<path d="M153.078 18.3175H152.587V36.2068H153.078V18.3175Z" fill="#00402A" stroke="#FFFEFF" stroke-width="0.5" stroke-linejoin="round"/>
<path d="M76.3915 11.3854H45.2378C44.6386 11.3854 44.1528 11.8705 44.1528 12.4688V15.5999C44.1528 16.1983 44.6386 16.6834 45.2378 16.6834H76.3915C76.9907 16.6834 77.4765 16.1983 77.4765 15.5999V12.4688C77.4765 11.8705 76.9907 11.3854 76.3915 11.3854Z" fill="#00402A" stroke="#FFFEFF" stroke-width="0.5" stroke-linejoin="round"/>
<path d="M170.861 11.3854H139.707C139.108 11.3854 138.623 11.8705 138.623 12.4688V15.5999C138.623 16.1983 139.108 16.6834 139.707 16.6834H170.861C171.46 16.6834 171.946 16.1983 171.946 15.5999V12.4688C171.946 11.8705 171.46 11.3854 170.861 11.3854Z" fill="#00402A" stroke="#FFFEFF" stroke-width="0.5" stroke-linejoin="round"/>
<path d="M25.3356 26.552H28.2025C28.5658 26.552 28.8604 26.8461 28.8604 27.2089V35.0334C28.8604 35.3961 28.5658 35.6903 28.2025 35.6903H25.3356C24.9723 35.6903 24.6777 35.3961 24.6777 35.0334V27.2089C24.6777 26.8461 24.9723 26.552 25.3356 26.552Z" fill="#00402A" stroke="#FFFEFF" stroke-width="0.5" stroke-linejoin="round"/>
<path d="M25.9505 28.1127C25.8147 28.1127 25.7051 28.0032 25.7051 27.8676V25.266C25.7051 24.4849 26.3416 23.8475 27.1255 23.8475H34.7462C34.882 23.8475 34.9916 23.957 34.9916 24.0927C34.9916 24.2283 34.882 24.3378 34.7462 24.3378H27.1255C26.6133 24.3378 26.196 24.7545 26.196 25.266V27.8676C26.196 28.0032 26.0864 28.1127 25.9505 28.1127Z" fill="#00402A" stroke="#FFFEFF" stroke-width="0.5" stroke-linejoin="round"/>
<path d="M35.1797 22.5285L33.9345 23.7721C33.7217 23.9845 33.7217 24.3309 33.9345 24.5434L35.1437 25.751C35.2468 25.854 35.3859 25.9112 35.5299 25.9112H37.1483C37.4494 25.9112 37.6949 25.6661 37.6949 25.3654V22.9141C37.6949 22.6134 37.4494 22.3683 37.1483 22.3683H35.5659C35.4203 22.3683 35.2812 22.4255 35.1797 22.5285Z" fill="#00402A" stroke="#FFFEFF" stroke-width="0.5" stroke-linejoin="round"/>
<path d="M35.0962 24.0939C35.0962 24.2867 34.9391 24.4453 34.7444 24.4453C34.5497 24.4453 34.3926 24.2884 34.3926 24.0939C34.3926 23.8994 34.5497 23.7426 34.7444 23.7426C34.9391 23.7426 35.0962 23.8994 35.0962 24.0939Z" fill="#00402A" stroke="#FFFEFF" stroke-width="0.5" stroke-linejoin="round"/>
<path d="M26.0998 59.5707H7.69856C7.26164 59.5707 6.9082 59.2177 6.9082 58.7814C6.9082 58.3451 7.26164 57.9921 7.69856 57.9921H26.0998C26.5368 57.9921 26.8902 58.3451 26.8902 58.7814C26.8902 59.2177 26.5368 59.5707 26.0998 59.5707Z" fill="#00402A" stroke="#FFFEFF" stroke-width="0.5" stroke-linejoin="round"/>
<path d="M20.4185 62.0137H8.96041C8.45883 62.0137 8.05225 62.4197 8.05225 62.9206V65.7412C8.05225 66.2421 8.45883 66.6482 8.96041 66.6482H20.4185C20.9201 66.6482 21.3267 66.2421 21.3267 65.7412V62.9206C21.3267 62.4197 20.9201 62.0137 20.4185 62.0137Z" fill="#00402A" stroke="#FFFEFF" stroke-width="0.5" stroke-linejoin="round"/>
<path d="M6.32689 62.0138H2.42734C2.39789 62.272 2.37988 62.5302 2.37988 62.7901C2.37988 63.7183 2.5697 64.604 2.91171 65.4064H6.32526C6.80472 65.4064 7.19255 65.0191 7.19255 64.5403V62.8783C7.19255 62.3995 6.80472 62.0122 6.32526 62.0122L6.32689 62.0138Z" fill="#00402A" stroke="#FFFEFF" stroke-width="0.5" stroke-linejoin="round"/>
<path d="M5.32201 64.7867C5.91759 64.7867 6.40041 64.3045 6.40041 63.7097C6.40041 63.115 5.91759 62.6328 5.32201 62.6328C4.72644 62.6328 4.24365 63.115 4.24365 63.7097C4.24365 64.3045 4.72644 64.7867 5.32201 64.7867Z" fill="#00402A" stroke="#FFFEFF" stroke-width="0.5" stroke-linejoin="round"/>
<path d="M5.45165 63.5645C5.45165 63.808 5.25529 64.0041 5.01147 64.0041C4.76765 64.0041 4.57129 63.808 4.57129 63.5645C4.57129 63.321 4.76765 63.1249 5.01147 63.1249C5.25529 63.1249 5.45165 63.321 5.45165 63.5645Z" fill="#00402A" stroke="#FFFEFF" stroke-width="0.5" stroke-linejoin="round"/>
<path d="M2.82791 62.6348C2.66918 62.6348 2.51864 62.6691 2.38445 62.7312C2.38445 62.7508 2.38281 62.7704 2.38281 62.7916C2.38281 63.4829 2.48756 64.1496 2.68392 64.7772C2.73138 64.7837 2.78045 64.7886 2.82955 64.7886C3.42519 64.7886 3.90795 64.3065 3.90795 63.7117C3.90795 63.1168 3.42519 62.6348 2.82955 62.6348H2.82791Z" fill="#00402A" stroke="#FFFEFF" stroke-width="0.5" stroke-linejoin="round"/>
<path d="M31.3513 62.0137H23.4606C22.9816 62.0137 22.5933 62.4014 22.5933 62.8798V64.5417C22.5933 65.0201 22.9816 65.4078 23.4606 65.4078H31.3513C31.8303 65.4078 32.2186 65.0201 32.2186 64.5417V62.8798C32.2186 62.4014 31.8303 62.0137 31.3513 62.0137Z" fill="#00402A" stroke="#FFFEFF" stroke-width="0.5" stroke-linejoin="round"/>
<path d="M24.5589 64.7867C25.1544 64.7867 25.6373 64.3045 25.6373 63.7097C25.6373 63.115 25.1544 62.6328 24.5589 62.6328C23.9633 62.6328 23.4805 63.115 23.4805 63.7097C23.4805 64.3045 23.9633 64.7867 24.5589 64.7867Z" fill="#00402A" stroke="#FFFEFF" stroke-width="0.5" stroke-linejoin="round"/>
<path d="M24.6895 63.5641C24.6895 63.8076 24.4931 64.0037 24.2493 64.0037C24.0055 64.0037 23.8091 63.8076 23.8091 63.5641C23.8091 63.3206 24.0055 63.1245 24.2493 63.1245C24.4931 63.1245 24.6895 63.3206 24.6895 63.5641Z" fill="#00402A" stroke="#FFFEFF" stroke-width="0.5" stroke-linejoin="round"/>
<path d="M27.3259 64.7867C27.9215 64.7867 28.4043 64.3045 28.4043 63.7097C28.4043 63.115 27.9215 62.6328 27.3259 62.6328C26.7303 62.6328 26.2476 63.115 26.2476 63.7097C26.2476 64.3045 26.7303 64.7867 27.3259 64.7867Z" fill="#00402A" stroke="#FFFEFF" stroke-width="0.5" stroke-linejoin="round"/>
<path d="M26.9871 64.0037C27.2302 64.0037 27.4272 63.8069 27.4272 63.5641C27.4272 63.3213 27.2302 63.1245 26.9871 63.1245C26.7439 63.1245 26.5469 63.3213 26.5469 63.5641C26.5469 63.8069 26.7439 64.0037 26.9871 64.0037Z" fill="#00402A" stroke="#FFFEFF" stroke-width="0.5" stroke-linejoin="round"/>
<path d="M30.8011 63.2031H29.5689C29.4118 63.2031 29.2842 63.0756 29.2842 62.9187C29.2842 62.7619 29.4118 62.6344 29.5689 62.6344H30.8011C30.9582 62.6344 31.0859 62.7619 31.0859 62.9187C31.0859 63.0756 30.9582 63.2031 30.8011 63.2031Z" fill="#00402A" stroke="#FFFEFF" stroke-width="0.5" stroke-linejoin="round"/>
<path d="M30.8011 63.9942H29.5689C29.4118 63.9942 29.2842 63.8668 29.2842 63.7099C29.2842 63.553 29.4118 63.4255 29.5689 63.4255H30.8011C30.9582 63.4255 31.0859 63.553 31.0859 63.7099C31.0859 63.8668 30.9582 63.9942 30.8011 63.9942Z" fill="#00402A" stroke="#FFFEFF" stroke-width="0.5" stroke-linejoin="round"/>
<path d="M30.8011 64.7868H29.5689C29.4118 64.7868 29.2842 64.6594 29.2842 64.5025C29.2842 64.3456 29.4118 64.2181 29.5689 64.2181H30.8011C30.9582 64.2181 31.0859 64.3456 31.0859 64.5025C31.0859 64.6594 30.9582 64.7868 30.8011 64.7868Z" fill="#00402A" stroke="#FFFEFF" stroke-width="0.5" stroke-linejoin="round"/>
<path d="M185.158 55.2498V47.3682C185.158 46.891 185.546 46.5021 186.025 46.5021H188.557V56.1143H186.025C185.547 56.1143 185.158 55.727 185.158 55.2482V55.2498Z" fill="#00402A" stroke="#FFFEFF" stroke-width="0.5" stroke-linejoin="round"/>
</svg>
