<svg width="84" height="60" viewBox="0 0 84 60" fill="none" xmlns="http://www.w3.org/2000/svg">
<path d="M24.7261 53.622C27.8164 50.541 27.8164 45.5455 24.7261 42.4644C21.6359 39.3834 16.6256 39.3833 13.5353 42.4644C10.4451 45.5455 10.4451 50.5409 13.5353 53.622C16.6256 56.7031 21.6359 56.7031 24.7261 53.622Z" fill="#00402A" stroke="#FFFEFF" stroke-width="0.5" stroke-linejoin="round"/>
<path d="M58.3165 53.6225C61.4068 50.5414 61.4068 45.546 58.3165 42.4649C55.2262 39.3838 50.216 39.3838 47.1257 42.4649C44.0355 45.546 44.0354 50.5414 47.1257 53.6225C50.2159 56.7036 55.2263 56.7036 58.3165 53.6225Z" fill="#00402A" stroke="#FFFEFF" stroke-width="0.5" stroke-linejoin="round"/>
<path d="M54.56 51.1273H61.3467L61.3467 4.92109H54.56L54.56 51.1273Z" fill="#00402A" stroke="#FFFEFF" stroke-width="0.5" stroke-linejoin="round"/>
<path d="M61.3466 51.1273H63.3438L63.3437 4.92109H61.3466L61.3466 51.1273Z" fill="#00402A" stroke="#FFFEFF" stroke-width="0.5" stroke-linejoin="round"/>
<path d="M50.4531 51.1273H57.2397L57.2397 4.92109H50.4531L50.4531 51.1273Z" fill="#00402A" stroke="#FFFEFF" stroke-width="0.5" stroke-linejoin="round"/>
<path d="M57.2396 51.1273H59.2368L59.2368 4.92109H57.2396L57.2396 51.1273Z" fill="#00402A" stroke="#FFFEFF" stroke-width="0.5" stroke-linejoin="round"/>
<path d="M61.3184 33.9227H62.3438V18.3003H61.3184V33.9227Z" fill="#00402A" stroke="#FFFEFF" stroke-width="0.5" stroke-linejoin="round"/>
<path d="M62.3465 33.9227H64.105V18.3003H62.3465V33.9227Z" fill="#00402A" stroke="#FFFEFF" stroke-width="0.5" stroke-linejoin="round"/>
<path d="M57.0494 33.9229H58.0747V18.3005H57.0494V33.9229Z" fill="#00402A" stroke="#FFFEFF" stroke-width="0.5" stroke-linejoin="round"/>
<path d="M58.0745 33.9229H59.833V18.3005H58.0745V33.9229Z" fill="#00402A" stroke="#FFFEFF" stroke-width="0.5" stroke-linejoin="round"/>
<path d="M57.049 35.0601L82.3027 35.0601V33.9258L57.049 33.9258V35.0601Z" fill="#FF9C1A" stroke="#FFFEFF" stroke-width="0.5" stroke-linejoin="round"/>
<path d="M83.441 33.9229H77.2764V35.0571H83.441V33.9229Z" fill="#FFCD52" stroke="#FFFEFF" stroke-width="0.5" stroke-linejoin="round"/>
<path d="M56.189 4.92175L63.0122 4.92175V2.91084L56.189 2.91084V4.92175Z" fill="#00402A" stroke="#FFFEFF" stroke-width="0.5" stroke-linejoin="round"/>
<path d="M64.9728 2.91101H63.0093V4.92192H64.9728V2.91101Z" fill="#00402A" stroke="#FFFEFF" stroke-width="0.5" stroke-linejoin="round"/>
<path d="M50.4502 4.92151L58.5347 4.92151V2.9106L50.4502 2.9106V4.92151Z" fill="#00402A" stroke="#FFFEFF" stroke-width="0.5" stroke-linejoin="round"/>
<path d="M60.8635 2.91077H58.5376V4.92168H60.8635V2.91077Z" fill="#00402A" stroke="#FFFEFF" stroke-width="0.5" stroke-linejoin="round"/>
<path d="M32.8654 19.6252C32.739 19.1771 33.1408 18.7093 34.0874 18.194C34.8655 17.7739 35.9329 17.3622 37.0987 17.0373C37.5706 16.9057 41.7083 15.7966 42.0651 17.0681C42.4218 18.3396 38.301 19.5243 37.8319 19.656C36.6661 19.9809 35.5397 20.1797 34.6548 20.2189C34.5481 20.2245 34.4441 20.2273 34.3458 20.2273C33.4638 20.2273 32.9778 20.0285 32.8654 19.6252ZM37.2841 17.6927C35.0087 18.3256 33.7082 19.121 33.5425 19.4375C33.8486 19.6224 35.3739 19.6336 37.6493 19.0006C39.9246 18.3677 41.2252 17.5722 41.3909 17.2558C41.0847 17.0709 39.5594 17.0597 37.2841 17.6927Z" fill="#00402A" stroke="#FFFEFF" stroke-width="0.5" stroke-linejoin="round"/>
<path d="M38.3457 17.432L39.8879 17.6505L41.1014 17.5412C41.1014 17.5412 40.3458 18.1126 38.9328 18.5943H38.6575L38.3457 17.432Z" fill="#00402A" stroke="#FFFEFF" stroke-width="0.5" stroke-linejoin="round"/>
<path d="M41.812 17.8132C41.812 17.8132 40.8597 17.7376 40.4187 17.9589C39.9777 18.1801 39.4805 18.7179 39.4805 18.7179L40.2305 18.8075C40.2305 18.8075 41.1687 18.8075 41.4749 18.4854C41.7811 18.1633 41.8148 17.8132 41.8148 17.8132H41.812Z" fill="#00402A" stroke="#FFFEFF" stroke-width="0.5" stroke-linejoin="round"/>
<path d="M9.99668 28.6882V38.8016H35.8118V51.2648H5.97973C4.03025 51.2648 2.44873 49.688 2.44873 47.7443V31.9259C2.44873 30.1362 3.90383 28.6882 5.69601 28.6882H9.99668Z" fill="#FFCD52" stroke="#FFFEFF" stroke-width="0.5" stroke-linejoin="round"/>
<path d="M17.1199 53.5725C20.2716 50.4302 20.2716 45.3354 17.1199 42.1931C13.9682 39.0508 8.85832 39.0508 5.70663 42.1931C2.55494 45.3354 2.55494 50.4302 5.70663 53.5725C8.85832 56.7149 13.9682 56.7149 17.1199 53.5725Z" fill="#00402A" stroke="#FFFEFF" stroke-width="0.5" stroke-linejoin="round"/>
<path d="M12.3778 55.7531C16.7158 54.7322 19.4024 50.3985 18.3785 46.0734C17.3547 41.7483 13.0081 39.0697 8.67008 40.0905C4.33211 41.1113 1.64543 45.445 2.66928 49.7701C3.69313 54.0952 8.03982 56.7739 12.3778 55.7531Z" fill="#00402A" stroke="#FFFEFF" stroke-width="0.5" stroke-linejoin="round"/>
<path d="M10.5223 43.3473C10.6318 43.3473 10.7414 43.3529 10.8481 43.3613C8.48569 43.5293 6.62328 45.4898 6.62328 47.8872C6.62328 50.2847 8.4885 52.2452 10.8481 52.4132C10.7414 52.4216 10.6318 52.4272 10.5223 52.4272C8.00818 52.4272 5.96875 50.3939 5.96875 47.89C5.96875 45.3862 8.00818 43.3529 10.5223 43.3529V43.3473Z" fill="#00402A" stroke="#FFFEFF" stroke-width="0.5" stroke-linejoin="round"/>
<path d="M6.62305 47.8843C6.62305 45.4869 8.48827 43.5264 10.8479 43.3584C13.2103 43.5264 15.0727 45.4869 15.0727 47.8843C15.0727 50.2818 13.2075 52.2423 10.8479 52.4103C8.48546 52.2423 6.62305 50.2818 6.62305 47.8843Z" fill="#00402A" stroke="#FFFEFF" stroke-width="0.5" stroke-linejoin="round"/>
<path d="M12.0759 1.41509L10.7191 3.75369C10.2472 4.5659 10 5.48734 10 6.42558V38.7991H35.8151L43.1356 35.0993H50.456V20.1015L44.4362 1.49351C44.1974 0.75132 43.5035 0.25 42.7226 0.25H14.1068C13.2697 0.25 12.4972 0.695309 12.0787 1.41789L12.0759 1.41509ZM39.4782 21.6363L34.2702 2.27772C34.2168 2.08447 34.3657 1.89402 34.5651 1.89402H40.9332C41.2591 1.89402 41.5456 2.10407 41.6411 2.41495L47.6047 21.6363H39.4782ZM24.2222 6.97732C24.2222 6.30235 24.4469 5.64698 24.8599 5.11204L26.9891 2.35614C27.2139 2.06486 27.5594 1.89402 27.9274 1.89402H30.2252C30.7814 1.89402 31.2673 2.27211 31.4021 2.80985L38.1214 29.6743H24.2222V6.97732ZM13.5984 6.57682C13.5984 5.64698 13.8821 4.73674 14.413 3.97215L15.5001 2.40655C15.7221 2.08727 16.09 1.89402 16.4805 1.89402H24.2222L22.1604 4.91319C21.8149 5.42012 21.6294 6.01947 21.6294 6.63563V29.6743H13.5984V6.57682Z" fill="#FF9C1A" stroke="#FFFEFF" stroke-width="0.5" stroke-linejoin="round"/>
<path d="M39.478 21.6364L43.1326 35.0994H50.453V21.6364H39.478Z" fill="#00402A" stroke="#FFFEFF" stroke-width="0.5" stroke-linejoin="round"/>
<path d="M17.7976 19.3538L22.8988 19.5218L24.9748 26.8457L34.7137 27.6411V29.6744H17.7976L16.3706 19.5638L17.7976 19.3538Z" fill="#00402A" stroke="#FFFEFF" stroke-width="0.5" stroke-linejoin="round"/>
<path d="M17.7976 19.3538L19.9381 27.2238L29.4243 27.7671V29.6744H17.7976L16.3706 19.5638L17.7976 19.3538Z" fill="#00402A" stroke="#FFFEFF" stroke-width="0.5" stroke-linejoin="round"/>
<path d="M2.44914 38.7988H7.98584L7.98584 33.4523H2.44914L2.44914 38.7988Z" fill="#00402A" stroke="#FFFEFF" stroke-width="0.5" stroke-linejoin="round"/>
<path d="M38.1212 29.6746L40.0959 36.6343L35.8121 38.7993H29.4243V29.6746H38.1212Z" fill="#00402A" stroke="#FFFEFF" stroke-width="0.5" stroke-linejoin="round"/>
<path d="M30.2783 23.3584L34.8824 24.2602C36.0819 24.4955 37.0425 25.3889 37.3628 26.5652L40.096 36.6338L35.8122 27.1506L28.312 23.4872L30.2812 23.3556L30.2783 23.3584Z" fill="#00402A" stroke="#FFFEFF" stroke-width="0.5" stroke-linejoin="round"/>
<path d="M23.891 18.2586L22.9387 19.04C22.9387 19.04 22.1578 17.6984 22.0566 16.9366C22.0566 16.9366 22.3039 19.18 22.4528 20.1659C22.6129 21.233 26.8152 21.1741 26.8152 21.1741C26.8152 21.1741 25.5343 20.5524 23.891 18.2558V18.2586Z" fill="#00402A" stroke="#FFFEFF" stroke-width="0.5" stroke-linejoin="round"/>
<path d="M26.4862 16.598C26.9778 17.4242 28.2615 19.0178 28.2615 19.0178L27.0705 16.78C26.871 16.4075 26.6435 16.0491 26.3851 15.713L24.7783 13.618L26.43 16.5C26.4469 16.5308 26.4637 16.5616 26.4834 16.5924V16.598H26.4862Z" fill="#00402A" stroke="#FFFEFF" stroke-width="0.5" stroke-linejoin="round"/>
<path d="M26.526 5.93295C26.526 5.93295 28.4979 9.03894 26.7057 9.46745C24.9135 9.89596 23.2393 8.19313 23.4613 6.73676C23.6804 5.27758 25.3686 3.83522 26.526 5.93575V5.93295Z" fill="#00402A" stroke="#FFFEFF" stroke-width="0.5" stroke-linejoin="round"/>
<path d="M23.5005 7.4845C23.5005 7.4845 24.2673 9.61864 24.2336 11.4811C24.2336 11.4811 25.714 12.0413 26.5679 11.7668C27.4219 11.4895 25.3488 8.08105 25.3488 8.08105L23.5005 7.4873V7.4845Z" fill="#00402A" stroke="#FFFEFF" stroke-width="0.5" stroke-linejoin="round"/>
<path d="M26.8319 7.63574C26.8319 7.63574 26.1297 7.74217 25.9948 8.04464C25.86 8.34712 25.8516 8.74482 25.8516 8.74482L26.8319 7.91861V7.63574Z" fill="#00402A" stroke="#FFFEFF" stroke-width="0.5" stroke-linejoin="round"/>
<path d="M26.832 7.63585L26.9865 7.51541C27.1158 7.41738 27.2983 7.43979 27.3995 7.56862L27.5034 7.70306L26.832 7.91871V7.63585Z" fill="#00402A" stroke="#FFFEFF" stroke-width="0.5" stroke-linejoin="round"/>
<path d="M24.5001 6.01965L24.4159 7.24357C24.4047 7.3976 24.3372 7.54325 24.222 7.64967C24.222 7.64967 24.1518 7.28558 23.9861 7.29678C23.8204 7.30798 23.4973 7.97736 24.2417 8.23502L24.2108 8.85958C24.2024 9.01922 24.1181 9.16766 23.9833 9.25449C23.9833 9.25449 23.1378 8.15661 23.0029 7.57406C23.0029 7.57406 23.635 6.56579 24.4974 6.01965H24.5001Z" fill="#00402A" stroke="#FFFEFF" stroke-width="0.5" stroke-linejoin="round"/>
<path d="M26.9275 5.58865C26.9275 5.58865 27.1213 6.49608 26.9022 6.60811C26.9022 6.60811 26.4415 5.72869 26.2168 5.46542C26.2168 5.46542 26.6325 5.41501 26.9275 5.58865Z" fill="#00402A" stroke="#FFFEFF" stroke-width="0.5" stroke-linejoin="round"/>
<path d="M23.0061 7.57382C23.0061 7.57382 24.5173 5.1456 26.7674 5.32484C26.7674 5.32484 26.4724 3.65841 24.2982 4.33899C22.124 5.01956 23.0061 7.57382 23.0061 7.57382Z" fill="#00402A" stroke="#FFFEFF" stroke-width="0.5" stroke-linejoin="round"/>
<path d="M24.228 6.21322C24.228 6.21322 25.2421 5.00331 27.2056 5.18816C28.186 5.28058 26.9276 5.58867 26.9276 5.58867C26.9276 5.58867 25.8685 5.30579 24.228 6.21322Z" fill="#00402A" stroke="#FFFEFF" stroke-width="0.5" stroke-linejoin="round"/>
<path d="M23.8908 10.739C23.8908 10.739 26.1072 9.76991 28.0539 11.103L31.2281 14.2791L29.7786 17.0574L29.0399 20.6395H22.2588L22.0565 16.9425C22.0565 16.9425 19.6464 12.7135 23.8908 10.7418V10.739Z" fill="#00402A" stroke="#FFFEFF" stroke-width="0.5" stroke-linejoin="round"/>
<mask id="mask0_99_17301" style="mask-type:luminance" maskUnits="userSpaceOnUse" x="21" y="10" width="11" height="11">
<path d="M23.8908 10.739C23.8908 10.739 26.1072 9.76991 28.0539 11.103L31.2281 14.2791L29.7786 17.0574L29.0399 20.6395H22.2588L22.0565 16.9425C22.0565 16.9425 19.6464 12.7135 23.8908 10.7418V10.739Z" fill="white" stroke="white" stroke-width="0.5" stroke-linejoin="round"/>
</mask>
<g mask="url(#mask0_99_17301)">
<path d="M22.0566 16.9399L23.6072 18.4944L23.8909 18.2591L25.3881 20.0599H24.6353L21.9189 19.0601L22.0566 16.9399Z" fill="#00402A" stroke="#FFFEFF" stroke-width="0.5" stroke-linejoin="round"/>
<path d="M28.1689 11.2543C28.1689 11.2543 29.9162 13.6153 30.2449 16.1639L29.6578 17.6483L28.9162 13.7469L28.1689 11.2543Z" fill="#00402A" stroke="#FFFEFF" stroke-width="0.5" stroke-linejoin="round"/>
</g>
<path d="M30.2787 23.3591C30.1804 18.0153 29.7955 13.8843 28.1747 11.2684C28.0315 11.0387 27.8152 10.8623 27.5624 10.7671L27.4135 10.7111C27.4135 10.7111 28.5174 13.747 28.7309 15.5255L27.3882 15.7608C27.3882 15.7608 24.8769 11.7137 23.5005 10.9071L22.8937 11.2796C22.8937 11.2796 26.7758 14.9121 26.6831 18.3094C26.5904 21.7067 22.1353 18.343 22.1353 18.343L21.7701 23.3087C21.7392 23.7148 21.7645 24.1209 21.8459 24.5186C22.1914 26.255 23.5201 27.6302 25.2505 28.0391L30.8658 29.1006C32.0203 29.319 33.0653 29.9324 33.8181 30.8342L39.0851 37.1526L40.1019 36.6401L37.1103 28.0139C36.5064 26.2746 35.1215 24.9219 33.3658 24.3562L30.2871 23.3647L30.2787 23.3591Z" fill="#00402A" stroke="#FFFEFF" stroke-width="0.5" stroke-linejoin="round"/>
<mask id="mask1_99_17301" style="mask-type:luminance" maskUnits="userSpaceOnUse" x="21" y="10" width="20" height="28">
<path d="M30.2787 23.3591C30.1804 18.0153 29.7955 13.8843 28.1747 11.2684C28.0315 11.0387 27.8152 10.8623 27.5624 10.7671L27.4135 10.7111C27.4135 10.7111 28.5174 13.747 28.7309 15.5255L27.3882 15.7608C27.3882 15.7608 24.8769 11.7137 23.5005 10.9071L22.8937 11.2796C22.8937 11.2796 26.7758 14.9121 26.6831 18.3094C26.5904 21.7067 22.1353 18.343 22.1353 18.343L21.7701 23.3087C21.7392 23.7148 21.7645 24.1209 21.8459 24.5186C22.1914 26.255 23.5201 27.6302 25.2505 28.0391L30.8658 29.1006C32.0203 29.319 33.0653 29.9324 33.8181 30.8342L39.0851 37.1526L40.1019 36.6401L37.1103 28.0139C36.5064 26.2746 35.1215 24.9219 33.3658 24.3562L30.2871 23.3647L30.2787 23.3591Z" fill="white" stroke="white" stroke-width="0.5" stroke-linejoin="round"/>
</mask>
<g mask="url(#mask1_99_17301)">
<path d="M30.2786 23.3589H26.9556C26.9556 23.3589 33.5371 23.793 35.4641 25.5518L35.0624 24.2943L30.2786 23.3589Z" fill="#00402A" stroke="#FFFEFF" stroke-width="0.5" stroke-linejoin="round"/>
</g>
<path d="M23.8906 18.2587L26.3036 16.2114L28.2615 19.0177L35.065 17.4493L35.4667 19.0542L28.8402 21.6728C28.4638 21.8213 28.0509 21.8689 27.6492 21.8044C27.1126 21.7204 26.621 21.4488 26.2699 21.0343L23.8934 18.2559L23.8906 18.2587Z" fill="#00402A" stroke="#FFFEFF" stroke-width="0.5" stroke-linejoin="round"/>
<path d="M31.0399 14.6343L33.7394 16.8805L34.9866 17.1493L35.0624 17.449L31.2281 18.348L29.9416 17.3622L29.877 16.8469L31.0399 14.6343Z" fill="#00402A" stroke="#FFFEFF" stroke-width="0.5" stroke-linejoin="round"/>
<path d="M35.669 40.7426L35.8123 40.6417V38.7989L43.1327 35.0991H50.4531V51.2621H30.2251C30.2251 47.0834 32.2532 43.1624 35.669 40.7426Z" fill="#C66D00" stroke="#FFFEFF" stroke-width="0.5" stroke-linejoin="round"/>
<path d="M47.3914 55.7549C51.7294 54.7341 54.416 50.4004 53.3921 46.0753C52.3683 41.7502 48.0217 39.0715 43.6837 40.0923C39.3457 41.1131 36.6591 45.4469 37.683 49.772C38.7068 54.0971 43.0534 56.7757 47.3914 55.7549Z" fill="#00402A" stroke="#FFFEFF" stroke-width="0.5" stroke-linejoin="round"/>
<path d="M52.1036 50.9618C53.8093 46.8561 51.8538 42.1492 47.7359 40.4486C43.6181 38.748 38.8971 40.6976 37.1915 44.8033C35.4858 48.909 37.4412 53.6159 41.5591 55.3165C45.677 57.0172 50.3979 55.0674 52.1036 50.9618Z" fill="#00402A" stroke="#FFFEFF" stroke-width="0.5" stroke-linejoin="round"/>
<path d="M44.6493 43.347C44.7589 43.347 44.8684 43.3526 44.9752 43.361C42.6128 43.5291 40.7504 45.4896 40.7504 47.887C40.7504 50.2844 42.6156 52.2449 44.9752 52.413C44.8684 52.4214 44.7589 52.427 44.6493 52.427C42.1352 52.427 40.0986 50.3936 40.0986 47.8898C40.0986 45.386 42.1381 43.3526 44.6493 43.3526V43.347Z" fill="#00402A" stroke="#FFFEFF" stroke-width="0.5" stroke-linejoin="round"/>
<path d="M40.7505 47.8841C40.7505 45.4867 42.6157 43.5262 44.9753 43.3582C47.3377 43.5262 49.2001 45.4867 49.2001 47.8841C49.2001 50.2815 47.3349 52.242 44.9753 52.4101C42.6129 52.242 40.7505 50.2815 40.7505 47.8841Z" fill="#00402A" stroke="#FFFEFF" stroke-width="0.5" stroke-linejoin="round"/>
<path d="M43.1325 37.6281H50.4136V35.1578H43.1325V37.6281Z" fill="#00402A" stroke="#FFFEFF" stroke-width="0.5" stroke-linejoin="round"/>
<path d="M13.9409 29.6746H13.2583V38.7993H13.9409V29.6746Z" fill="#00402A" stroke="#FFFEFF" stroke-width="0.5" stroke-linejoin="round"/>
</svg>
