<svg width="80" height="88" viewBox="0 0 80 88" fill="none" xmlns="http://www.w3.org/2000/svg">
<path d="M44.0794 39.3783L1.95506 64.159C1.0154 64.7126 0.25 64.1207 0.25 62.8428V28.5601C0.25 27.2857 1.01882 25.7885 1.95506 25.2384L44.0794 0.457736C45.019 -0.0958854 45.7844 0.496036 45.7844 1.77389V36.0566C45.7844 37.331 45.0156 38.8282 44.0794 39.3783Z" fill="#615D5A" stroke="#00402A" stroke-width="0.5" stroke-miterlimit="10" stroke-linejoin="round"/>
<path d="M44.3122 35.4686L1.72656 60.5208V27.3279L44.3122 2.2757V35.4686Z" fill="#615D5A" stroke="#00402A" stroke-width="0.5" stroke-miterlimit="10" stroke-linejoin="round"/>
<path d="M25.7304 48.94L20.3077 52.1294C20.0275 52.293 19.7986 52.1189 19.7986 51.7359C19.7986 51.3529 20.0275 50.9072 20.3077 50.7436L25.7304 47.5542C26.0106 47.3905 26.2396 47.5646 26.2396 47.9476C26.2396 48.3272 26.0106 48.7763 25.7304 48.94Z" fill="#C66D00" stroke="#00402A" stroke-width="0.5" stroke-miterlimit="10" stroke-linejoin="round"/>
<path d="M42.0671 36.7889L3.87915 59.2576V29.0034L42.0671 6.53821V36.7889Z" fill="#6BDAFF" stroke="#00402A" stroke-width="0.5" stroke-miterlimit="10" stroke-linejoin="round"/>
<path d="M26.2687 43.1513L6.58618 54.7319V39.1385L26.2687 27.5597V43.1513Z" fill="#0792E5"/>
<path d="M33.3999 21.4034L19.0205 29.8639V23.9867L33.3999 15.5276V21.4034Z" fill="#0792E5"/>
<path d="M78.4109 61.246L37.7285 85.1805C36.642 85.8212 34.7285 85.7377 33.4744 84.9995L2.363 66.6952C1.10897 65.957 0.972294 64.8324 2.05889 64.1917L42.7412 40.2571C43.8278 39.6165 45.7413 39.7001 46.9953 40.4382L78.1068 58.7425C79.3608 59.4807 79.4975 60.6053 78.4109 61.246Z" fill="#D8CFC7" stroke="#00402A" stroke-width="0.5" stroke-miterlimit="10" stroke-linejoin="round"/>
<path d="M78.4109 63.0189L37.7285 86.9534C36.642 87.5941 34.7285 87.5106 33.4744 86.7724L2.363 68.4681C1.10897 67.7299 0.972294 66.6053 2.05889 65.9646L42.7412 42.03C43.8278 41.3894 45.7413 41.4729 46.9953 42.2111L78.1068 60.5154C79.3608 61.2536 79.4975 62.3782 78.4109 63.0189Z" fill="#B0A9A3" stroke="#00402A" stroke-width="0.5" stroke-miterlimit="10" stroke-linejoin="round"/>
<path d="M78.4109 61.246L37.7285 85.1805C36.642 85.8212 34.7285 85.7377 33.4744 84.9995L2.363 66.6952C1.10897 65.957 0.972294 64.8324 2.05889 64.1917L42.7412 40.2571C43.8278 39.6165 45.7413 39.7001 46.9953 40.4382L78.1068 58.7425C79.3608 59.4807 79.4975 60.6053 78.4109 61.246Z" fill="#D8CFC7" stroke="#00402A" stroke-width="0.5" stroke-miterlimit="10" stroke-linejoin="round"/>
<path d="M65.5971 53.844L25.2803 77.5626L4.823 65.5257L45.1397 41.8071L65.5971 53.844Z" fill="#FFFEFF" stroke="#00402A" stroke-width="0.5" stroke-miterlimit="10" stroke-linejoin="round"/>
<path d="M63.3351 67.9176L49.0693 76.3089L41.4358 71.8207L55.7016 63.4259L63.3351 67.9176Z" fill="#615D5A" stroke="#00402A" stroke-width="0.5" stroke-miterlimit="10" stroke-linejoin="round"/>
<path d="M6.58618 65.4792L9.40176 63.8218L11.4246 65.0126L8.60902 66.6665L6.58618 65.4792Z" fill="#615D5A" stroke="#00402A" stroke-width="0.5" stroke-miterlimit="10" stroke-linejoin="round"/>
<path d="M9.52808 67.2116L12.3437 65.5542L14.3665 66.745L11.5509 68.4024L9.52808 67.2116Z" fill="#615D5A" stroke="#00402A" stroke-width="0.5" stroke-miterlimit="10" stroke-linejoin="round"/>
<path d="M12.4702 68.9418L16.2699 66.7064L18.2927 67.8972L14.4931 70.1326L12.4702 68.9418Z" fill="#615D5A" stroke="#00402A" stroke-width="0.5" stroke-miterlimit="10" stroke-linejoin="round"/>
<path d="M48.8545 47.5353L50.6894 46.4559L55.6577 49.3772L53.8228 50.4566L48.8545 47.5353Z" fill="#615D5A" stroke="#00402A" stroke-width="0.5" stroke-miterlimit="10" stroke-linejoin="round"/>
<path d="M15.4121 70.6722L19.2118 68.4368L21.2346 69.6276L17.4349 71.863L15.4121 70.6722Z" fill="#615D5A" stroke="#00402A" stroke-width="0.5" stroke-miterlimit="10" stroke-linejoin="round"/>
<path d="M18.3542 72.4038L23.3738 69.4477L25.4 70.6385L20.3771 73.5946L18.3542 72.4038Z" fill="#615D5A" stroke="#00402A" stroke-width="0.5" stroke-miterlimit="10" stroke-linejoin="round"/>
<path d="M49.1345 54.294L56.6348 49.8824L58.6576 51.0732L51.1608 55.4848L49.1345 54.294Z" fill="#615D5A" stroke="#00402A" stroke-width="0.5" stroke-miterlimit="10" stroke-linejoin="round"/>
<path d="M21.2961 74.1318L24.1083 72.4744L26.1346 73.6652L23.319 75.3226L21.2961 74.1318Z" fill="#615D5A" stroke="#00402A" stroke-width="0.5" stroke-miterlimit="10" stroke-linejoin="round"/>
<path d="M10.1055 63.4075L12.921 61.7501L14.9439 62.9409L12.1283 64.5983L10.1055 63.4075Z" fill="#615D5A" stroke="#00402A" stroke-width="0.5" stroke-miterlimit="10" stroke-linejoin="round"/>
<path d="M13.0479 65.1384L15.8634 63.4845L17.8863 64.6718L15.0707 66.3292L13.0479 65.1384Z" fill="#615D5A" stroke="#00402A" stroke-width="0.5" stroke-miterlimit="10" stroke-linejoin="round"/>
<path d="M13.6631 61.3161L16.4752 59.6622L18.4981 60.853L15.6859 62.5069L13.6631 61.3161Z" fill="#615D5A" stroke="#00402A" stroke-width="0.5" stroke-miterlimit="10" stroke-linejoin="round"/>
<path d="M16.6016 63.0467L19.4171 61.3928L21.44 62.5836L18.6278 64.2375L16.6016 63.0467Z" fill="#615D5A" stroke="#00402A" stroke-width="0.5" stroke-miterlimit="10" stroke-linejoin="round"/>
<path d="M17.1787 59.2489L19.9943 57.5915L22.0171 58.7823L19.205 60.4397L17.1787 59.2489Z" fill="#615D5A" stroke="#00402A" stroke-width="0.5" stroke-miterlimit="10" stroke-linejoin="round"/>
<path d="M20.1208 60.9774L22.9364 59.3201L24.9593 60.5109L22.1471 62.1683L20.1208 60.9774Z" fill="#615D5A" stroke="#00402A" stroke-width="0.5" stroke-miterlimit="10" stroke-linejoin="round"/>
<path d="M20.7253 57.1618L23.5409 55.5044L25.5638 56.6952L22.7482 58.3526L20.7253 57.1618Z" fill="#615D5A" stroke="#00402A" stroke-width="0.5" stroke-miterlimit="10" stroke-linejoin="round"/>
<path d="M23.6675 58.8924L26.4831 57.235L28.5059 58.4258L25.6903 60.0832L23.6675 58.8924Z" fill="#615D5A" stroke="#00402A" stroke-width="0.5" stroke-miterlimit="10" stroke-linejoin="round"/>
<path d="M24.2456 55.0895L27.0578 53.4356L29.084 54.6229L26.2684 56.2803L24.2456 55.0895Z" fill="#615D5A" stroke="#00402A" stroke-width="0.5" stroke-miterlimit="10" stroke-linejoin="round"/>
<path d="M27.1873 56.8201L29.9994 55.1662L32.0257 56.3535L29.2101 58.0109L27.1873 56.8201Z" fill="#615D5A" stroke="#00402A" stroke-width="0.5" stroke-miterlimit="10" stroke-linejoin="round"/>
<path d="M27.7983 52.9978L30.6139 51.3439L32.6368 52.5347L29.8246 54.1886L27.7983 52.9978Z" fill="#615D5A" stroke="#00402A" stroke-width="0.5" stroke-miterlimit="10" stroke-linejoin="round"/>
<path d="M30.741 54.7282L33.5565 53.0743L35.5794 54.2651L32.7672 55.919L30.741 54.7282Z" fill="#615D5A" stroke="#00402A" stroke-width="0.5" stroke-miterlimit="10" stroke-linejoin="round"/>
<path d="M17.0662 66.2348L19.8783 64.5809L21.9012 65.7717L19.089 67.4256L17.0662 66.2348Z" fill="#615D5A" stroke="#00402A" stroke-width="0.5" stroke-miterlimit="10" stroke-linejoin="round"/>
<path d="M20.0083 67.9662L22.8205 66.3123L24.8433 67.5031L22.0311 69.157L20.0083 67.9662Z" fill="#615D5A" stroke="#00402A" stroke-width="0.5" stroke-miterlimit="10" stroke-linejoin="round"/>
<path d="M20.6194 64.1465L23.435 62.4891L25.4578 63.6799L22.6422 65.3373L20.6194 64.1465Z" fill="#615D5A" stroke="#00402A" stroke-width="0.5" stroke-miterlimit="10" stroke-linejoin="round"/>
<path d="M23.562 65.878L26.3776 64.2206L28.4004 65.4114L25.5849 67.0688L23.562 65.878Z" fill="#615D5A" stroke="#00402A" stroke-width="0.5" stroke-miterlimit="10" stroke-linejoin="round"/>
<path d="M24.1389 62.0752L26.9545 60.4213L28.9773 61.6086L26.1618 63.266L24.1389 62.0752Z" fill="#615D5A" stroke="#00402A" stroke-width="0.5" stroke-miterlimit="10" stroke-linejoin="round"/>
<path d="M27.0813 63.8066L29.8935 62.1527L31.9197 63.34L29.1041 64.9974L27.0813 63.8066Z" fill="#615D5A" stroke="#00402A" stroke-width="0.5" stroke-miterlimit="10" stroke-linejoin="round"/>
<path d="M27.6863 59.9897L30.4984 58.3323L32.5213 59.5231L29.7091 61.1805L27.6863 59.9897Z" fill="#615D5A" stroke="#00402A" stroke-width="0.5" stroke-miterlimit="10" stroke-linejoin="round"/>
<path d="M30.6279 61.7202L33.4401 60.0628L35.4629 61.2536L32.6508 62.911L30.6279 61.7202Z" fill="#615D5A" stroke="#00402A" stroke-width="0.5" stroke-miterlimit="10" stroke-linejoin="round"/>
<path d="M31.2019 57.9184L34.0175 56.2645L36.0403 57.4553L33.2282 59.1092L31.2019 57.9184Z" fill="#615D5A" stroke="#00402A" stroke-width="0.5" stroke-miterlimit="10" stroke-linejoin="round"/>
<path d="M34.1445 59.648L36.9601 57.9941L38.9829 59.1849L36.1708 60.8388L34.1445 59.648Z" fill="#615D5A" stroke="#00402A" stroke-width="0.5" stroke-miterlimit="10" stroke-linejoin="round"/>
<path d="M34.7593 55.829L37.5749 54.1716L39.5977 55.3625L36.7821 57.0198L34.7593 55.829Z" fill="#615D5A" stroke="#00402A" stroke-width="0.5" stroke-miterlimit="10" stroke-linejoin="round"/>
<path d="M37.7014 57.5596L40.5136 55.9022L42.5398 57.093L39.7243 58.7504L37.7014 57.5596Z" fill="#615D5A" stroke="#00402A" stroke-width="0.5" stroke-miterlimit="10" stroke-linejoin="round"/>
<path d="M38.2888 53.7492L41.1044 52.0953L43.1272 53.2826L40.3151 54.94L38.2888 53.7492Z" fill="#615D5A" stroke="#00402A" stroke-width="0.5" stroke-miterlimit="10" stroke-linejoin="round"/>
<path d="M41.2305 55.4816L44.046 53.8277L46.0689 55.015L43.2533 56.6724L41.2305 55.4816Z" fill="#615D5A" stroke="#00402A" stroke-width="0.5" stroke-miterlimit="10" stroke-linejoin="round"/>
<path d="M24.3479 68.8749L27.1635 67.2175L29.1863 68.4083L26.3707 70.0657L24.3479 68.8749Z" fill="#615D5A" stroke="#00402A" stroke-width="0.5" stroke-miterlimit="10" stroke-linejoin="round"/>
<path d="M27.9011 66.7824L30.7167 65.1285L32.7395 66.3193L29.9274 67.9732L27.9011 66.7824Z" fill="#615D5A" stroke="#00402A" stroke-width="0.5" stroke-miterlimit="10" stroke-linejoin="round"/>
<path d="M31.4207 64.7143L34.2362 63.0569L36.2591 64.2477L33.4469 65.9051L31.4207 64.7143Z" fill="#615D5A" stroke="#00402A" stroke-width="0.5" stroke-miterlimit="10" stroke-linejoin="round"/>
<path d="M34.9675 62.6282L37.7831 60.9708L39.8059 62.1616L36.9904 63.8155L34.9675 62.6282Z" fill="#615D5A" stroke="#00402A" stroke-width="0.5" stroke-miterlimit="10" stroke-linejoin="round"/>
<path d="M38.4868 60.5567L41.299 58.8993L43.3252 60.0901L40.5097 61.7475L38.4868 60.5567Z" fill="#615D5A" stroke="#00402A" stroke-width="0.5" stroke-miterlimit="10" stroke-linejoin="round"/>
<path d="M42.0403 58.4623L44.8559 56.8084L46.8787 57.9992L44.0665 59.6531L42.0403 58.4623Z" fill="#615D5A" stroke="#00402A" stroke-width="0.5" stroke-miterlimit="10" stroke-linejoin="round"/>
<path d="M45.5735 56.3893L48.3856 54.7319L50.4085 55.9228L47.5963 57.5801L45.5735 56.3893Z" fill="#615D5A" stroke="#00402A" stroke-width="0.5" stroke-miterlimit="10" stroke-linejoin="round"/>
<path d="M41.8459 51.6573L44.6581 50.0034L46.6844 51.1942L43.8688 52.8481L41.8459 51.6573Z" fill="#615D5A" stroke="#00402A" stroke-width="0.5" stroke-miterlimit="10" stroke-linejoin="round"/>
<path d="M44.7876 53.3879L47.5998 51.734L49.626 52.9248L46.8104 54.5787L44.7876 53.3879Z" fill="#615D5A" stroke="#00402A" stroke-width="0.5" stroke-miterlimit="10" stroke-linejoin="round"/>
<path d="M45.365 49.5882L48.1771 47.9308L50.2 49.1216L47.3878 50.779L45.365 49.5882Z" fill="#615D5A" stroke="#00402A" stroke-width="0.5" stroke-miterlimit="10" stroke-linejoin="round"/>
<path d="M48.3074 51.3207L51.1195 49.6633L53.1424 50.8542L50.3302 52.5115L48.3074 51.3207Z" fill="#615D5A" stroke="#00402A" stroke-width="0.5" stroke-miterlimit="10" stroke-linejoin="round"/>
<path d="M31.3179 50.9306L34.1334 49.2732L36.1563 50.464L33.3407 52.1214L31.3179 50.9306Z" fill="#615D5A" stroke="#00402A" stroke-width="0.5" stroke-miterlimit="10" stroke-linejoin="round"/>
<path d="M34.2603 52.6602L37.0758 51.0028L39.0987 52.1936L36.2831 53.851L34.2603 52.6602Z" fill="#615D5A" stroke="#00402A" stroke-width="0.5" stroke-miterlimit="10" stroke-linejoin="round"/>
<path d="M34.9199 48.8093L37.7321 47.1554L39.7583 48.3462L36.9428 50.0001L34.9199 48.8093Z" fill="#615D5A" stroke="#00402A" stroke-width="0.5" stroke-miterlimit="10" stroke-linejoin="round"/>
<path d="M37.8616 50.5399L40.6737 48.886L42.6966 50.0768L39.8844 51.7307L37.8616 50.5399Z" fill="#615D5A" stroke="#00402A" stroke-width="0.5" stroke-miterlimit="10" stroke-linejoin="round"/>
<path d="M38.4392 46.7401L41.2514 45.0828L43.2742 46.2736L40.462 47.931L38.4392 46.7401Z" fill="#615D5A" stroke="#00402A" stroke-width="0.5" stroke-miterlimit="10" stroke-linejoin="round"/>
<path d="M41.3816 48.4707L44.1937 46.8134L46.2166 48.0042L43.4044 49.6615L41.3816 48.4707Z" fill="#615D5A" stroke="#00402A" stroke-width="0.5" stroke-miterlimit="10" stroke-linejoin="round"/>
<path d="M41.9929 44.6477L44.8085 42.9938L46.8313 44.1846L44.0158 45.8385L41.9929 44.6477Z" fill="#615D5A" stroke="#00402A" stroke-width="0.5" stroke-miterlimit="10" stroke-linejoin="round"/>
<path d="M44.9346 46.3782L47.7501 44.7243L49.773 45.9151L46.9574 47.569L44.9346 46.3782Z" fill="#615D5A" stroke="#00402A" stroke-width="0.5" stroke-miterlimit="10" stroke-linejoin="round"/>
<path d="M24.8154 72.0616L27.6276 70.4077L29.6504 71.5985L26.8383 73.2524L24.8154 72.0616Z" fill="#615D5A" stroke="#00402A" stroke-width="0.5" stroke-miterlimit="10" stroke-linejoin="round"/>
<path d="M28.3694 69.9687L31.185 68.3148L33.2078 69.5056L30.3922 71.1595L28.3694 69.9687Z" fill="#615D5A" stroke="#00402A" stroke-width="0.5" stroke-miterlimit="10" stroke-linejoin="round"/>
<path d="M46.8149 59.1186L49.6271 57.4647L51.6534 58.6555L48.8378 60.3094L46.8149 59.1186Z" fill="#615D5A" stroke="#00402A" stroke-width="0.5" stroke-miterlimit="10" stroke-linejoin="round"/>
<path d="M50.3337 57.0494L53.1459 55.392L55.1687 56.5828L52.3566 58.2367L50.3337 57.0494Z" fill="#615D5A" stroke="#00402A" stroke-width="0.5" stroke-miterlimit="10" stroke-linejoin="round"/>
<path d="M53.8872 54.9585L56.7028 53.3011L58.7256 54.492L55.91 56.1493L53.8872 54.9585Z" fill="#615D5A" stroke="#00402A" stroke-width="0.5" stroke-miterlimit="10" stroke-linejoin="round"/>
<path d="M57.3691 52.9104L59.515 51.6465L61.5378 52.8373L59.392 54.0978L57.3691 52.9104Z" fill="#615D5A" stroke="#00402A" stroke-width="0.5" stroke-miterlimit="10" stroke-linejoin="round"/>
<path d="M31.9231 67.88L46.1308 59.52L48.1537 60.7108L33.9494 69.0708L31.9231 67.88Z" fill="#615D5A" stroke="#00402A" stroke-width="0.5" stroke-miterlimit="10" stroke-linejoin="round"/>
</svg>
