<svg width="42" height="77" viewBox="0 0 42 77" fill="none" xmlns="http://www.w3.org/2000/svg">
<path d="M11.498 73.2007C10.3842 72.4864 8.06748 71.001 5.73382 67.3061C3.50608 63.7787 2.98515 60.6039 2.79033 59.4091C2.8369 59.753 3.09107 60.0484 3.56961 60.2292C4.19646 64.7969 7.23309 69.6648 10.7865 71.8033C10.7865 72.4601 11.0406 72.9273 11.498 73.2007Z" fill="white" stroke="#00402A" stroke-width="0.5" stroke-linejoin="round"/>
<path d="M10.7863 71.8033L12.0019 72.5353C12.0019 73.1921 12.256 73.6593 12.7134 73.9327L12.5906 73.8581L12.4678 73.7829L12.3449 73.7076L12.2221 73.633L12.0992 73.5578L11.9764 73.4832L11.8536 73.408L11.7308 73.3334L11.608 73.2582L11.4852 73.1829C11.0278 72.9096 10.7737 72.4424 10.7737 71.7856L10.7863 71.8033Z" fill="#E0D7D0" stroke="#00402A" stroke-width="0.5" stroke-linejoin="round"/>
<path d="M12.0022 72.5353L13.2177 73.2666C13.2177 73.9241 13.4718 74.3913 13.9292 74.6646L13.8064 74.5894L13.6836 74.5148L13.5608 74.4396L13.4379 74.365L13.3151 74.2898L13.1923 74.2151L13.0695 74.1399L12.9467 74.0647L12.8238 73.9901L12.701 73.9149C12.2436 73.6415 11.9895 73.1743 11.9895 72.5175L12.0022 72.5353Z" fill="#E0D7D0" stroke="#00402A" stroke-width="0.5" stroke-linejoin="round"/>
<path d="M36.5578 63.2185C36.4646 63.6772 36.3375 64.2856 36.202 64.7351C36.0665 65.1852 35.842 65.776 35.6557 66.2034C35.5244 66.508 35.3338 66.9049 35.1644 67.1868C35.0458 67.3849 34.8976 67.6583 34.7705 67.8527C34.5884 68.1347 34.33 68.5052 34.131 68.7786C33.4576 69.6953 32.5216 70.6126 32.2675 70.8419C31.6364 71.4064 31.4458 71.5782 30.9037 71.9837C30.2091 72.5041 29.6628 72.8392 29.4044 72.9982C30.8953 72.0944 31.9583 70.401 32.3691 68.0068C34.8001 66.5343 36.3037 64.7266 36.562 63.2228L36.5578 63.2185Z" stroke="#00402A" stroke-width="0.5" stroke-linejoin="round"/>
<path d="M1.14278 42.5529L3.56958 60.2291C3.09528 60.0484 2.84117 59.7529 2.78606 59.3782L0.359266 41.702C0.410134 42.0767 0.664239 42.3721 1.14278 42.5529Z" fill="#E0D7D0" stroke="#00402A" stroke-width="0.5" stroke-linejoin="round"/>
<path d="M29.4045 72.9934L27.7019 74.0256C29.1927 73.1212 30.2557 71.4285 30.6666 69.0343L32.3691 68.0026C31.9583 70.3968 30.8952 72.0895 29.4045 72.9934Z" fill="#5BD38C" stroke="#00402A" stroke-width="0.5" stroke-linejoin="round"/>
<path d="M27.6982 74.0256C24.9876 75.5771 22.8785 76.2345 20.1721 76.358C18.7449 76.424 16.5044 76.1813 13.9294 74.6604C13.472 74.387 13.2179 73.9192 13.2179 73.2624C16.7712 75.4009 19.8291 74.1883 20.477 70.3925C22.3406 71.9176 26.8977 71.3092 30.6628 69.0342C30.252 71.4284 29.189 73.1211 27.6982 74.0256Z" fill="white" stroke="#00402A" stroke-width="0.5" stroke-linejoin="round"/>
<path d="M0.359295 41.7019C0.1391 39.6032 -0.445359 34.0212 6.99594 29.2461C8.63498 28.254 10.8542 28.3731 13.3403 29.8678C9.57947 32.1429 6.52158 35.829 6.51734 38.0909C3.11644 36.0494 0.545638 38.1834 1.14281 42.5529C0.664273 42.3721 0.414403 42.0767 0.359295 41.7019Z" fill="white" stroke="#00402A" stroke-width="0.5" stroke-linejoin="round"/>
<path d="M32.3651 68.0026L34.8808 53.298C37.3119 51.8253 38.8154 50.0176 39.0737 48.514L38.9467 49.2504L38.8196 49.9867L38.6926 50.723L38.5655 51.4594L38.4384 52.1957L38.3114 52.932L38.1843 53.6683L38.0573 54.4047L37.9302 55.141L37.8032 55.8773L37.6761 56.6137L37.549 57.3499L37.422 58.0863L37.2949 58.8226L37.1679 59.5589L37.0408 60.2952L36.9138 61.0316L36.7867 61.7679L36.6596 62.5042L36.5326 63.2405C36.2742 64.7486 34.7707 66.5563 32.3397 68.0246L32.3651 68.0026Z" fill="#E0D7D0" stroke="#00402A" stroke-width="0.5" stroke-linejoin="round"/>
<path d="M33.1785 54.3298L34.8811 53.298L32.3653 68.0026L30.6628 69.0343L33.1785 54.3298Z" fill="#5BD38C" stroke="#00402A" stroke-width="0.5" stroke-linejoin="round"/>
<path d="M12.0869 41.4419L6.51334 38.0909C6.51758 35.8247 9.5754 32.143 13.3363 29.8679L18.9099 33.2188C15.149 35.4939 12.0912 39.18 12.0869 41.4419Z" fill="#E0D7D0" stroke="#00402A" stroke-width="0.5" stroke-linejoin="round"/>
<path d="M34.8806 53.298C35.2279 51.2566 34.9611 48.9109 34.2369 46.5741C34.2962 46.4903 34.3724 46.3845 34.4274 46.3007C36.418 42.9983 34.6773 39.8854 30.9164 40.0177C29.5569 38.1703 27.9433 36.5918 26.1857 35.538C28.8539 33.9243 31.1621 33.4481 32.276 34.1183C32.4793 34.2506 32.7503 34.4269 32.9536 34.5592C33.1696 34.7224 33.4661 34.9384 33.6778 35.1104L34.2834 35.6395C34.4655 35.8158 34.7112 36.0495 34.8849 36.2347L35.427 36.8343C35.5837 37.0283 35.7954 37.2796 35.9437 37.4781L36.418 38.1394C36.5535 38.3466 36.7357 38.6156 36.8627 38.8272L37.2735 39.5327C37.3879 39.7488 37.5404 40.0353 37.6505 40.2558L37.9893 40.9965C38.0825 41.2258 38.2095 41.5256 38.2942 41.7549L38.5611 42.5221C38.6288 42.7602 38.7262 43.0733 38.7898 43.3113L38.9719 44.0962C39.0142 44.3475 39.0778 44.6782 39.1116 44.9295L39.1963 45.7276C39.209 46.0009 39.2302 46.3625 39.2302 46.6402L39.2006 47.4339C39.1667 47.7557 39.1201 48.1878 39.0693 48.5097C38.8109 50.0176 37.3074 51.8254 34.8764 53.298H34.8806Z" fill="#E0D7D0" stroke="#00402A" stroke-width="0.5" stroke-linejoin="round"/>
<path d="M34.8807 53.298C34.9315 53.0026 34.9696 52.7028 34.995 52.3942C35.0671 52.3501 35.156 52.2883 35.228 52.2442C43.2623 46.8122 36.6172 35.904 32.0558 34.9428C29.8281 34.4754 27.7062 35.6747 27.0116 36.0715C26.7448 35.882 26.4695 35.7012 26.1942 35.538C28.8624 33.9243 31.1706 33.4481 32.2845 34.1183C32.4878 34.2506 32.7588 34.4269 32.9621 34.5592C33.1781 34.7224 33.4746 34.9384 33.6864 35.1104L34.292 35.6395C34.4741 35.8158 34.7197 36.0495 34.8934 36.2347L35.4355 36.8343C35.5922 37.0283 35.804 37.2796 35.9522 37.4781L36.4266 38.1394C36.5621 38.3466 36.7442 38.6156 36.8713 38.8272L37.2821 39.5327C37.3964 39.7488 37.5489 40.0353 37.659 40.2558L37.9978 40.9965C38.091 41.2258 38.2181 41.5256 38.3028 41.7549L38.5696 42.5221C38.6374 42.7602 38.7348 43.0733 38.7983 43.3113L38.9804 44.0962C39.0228 44.3475 39.0863 44.6782 39.1202 44.9295L39.2049 45.7276C39.2176 46.0009 39.2388 46.3625 39.2388 46.6402L39.2091 47.4339C39.1752 47.7557 39.1287 48.1878 39.0778 48.5097C38.8195 50.0176 37.316 51.8254 34.885 53.298H34.8807Z" fill="white" stroke="#00402A" stroke-width="0.5" stroke-linejoin="round"/>
<path d="M20.4767 70.3924L22.9924 55.6877C24.856 57.2132 29.4131 56.6048 33.1782 54.3297L30.6625 69.0342C26.9015 71.3091 22.3402 71.9176 20.4767 70.3924Z" fill="#E0D7D0" stroke="#00402A" stroke-width="0.5" stroke-linejoin="round"/>
<path d="M17.6602 44.7928L12.0866 41.4418C12.0908 39.1755 15.1486 35.4939 18.9096 33.2188L24.4832 36.5698C20.7222 38.8449 17.6644 42.5309 17.6602 44.7928Z" fill="#E0D7D0" stroke="#00402A" stroke-width="0.5" stroke-linejoin="round"/>
<path d="M29.2141 41.0451L30.9166 40.0134C32.3693 41.9886 33.5255 44.277 34.2371 46.5742L32.5345 47.6059C31.823 45.3087 30.6668 43.0204 29.2141 41.0451Z" fill="#5BD38C" stroke="#00402A" stroke-width="0.5" stroke-linejoin="round"/>
<path d="M33.2925 53.4259L34.9951 52.3942C34.9697 52.7028 34.9316 53.0026 34.8808 53.298L33.1782 54.3297C33.229 54.0343 33.2672 53.7345 33.2925 53.4259Z" fill="#6D9482" stroke="#00402A" stroke-width="0.5" stroke-linejoin="round"/>
<path d="M17.6601 44.7928C21.0567 46.8386 23.6106 52.0502 22.9923 55.6878C22.1537 60.5907 21.3151 65.4892 20.4765 70.3925C19.8243 74.1932 16.7707 75.401 13.2173 73.2624C12.8107 73.0202 12.4084 72.7775 12.0018 72.5304C11.5952 72.2882 11.1929 72.0412 10.7863 71.799C7.23289 69.6647 4.19202 64.7926 3.56941 60.2248C2.76046 54.3297 1.95156 48.4392 1.14261 42.5485C0.545433 38.1791 3.11624 36.0451 6.51714 38.0865C8.37644 39.202 10.2314 40.3219 12.0907 41.4374C13.95 42.5529 15.8051 43.6728 17.6643 44.7883L17.6601 44.7928Z" fill="#5BD38C" stroke="#00402A" stroke-width="0.5" stroke-linejoin="round"/>
<path d="M17.6606 44.7929C17.6648 42.5266 20.7227 38.8449 24.4835 36.5698C30.019 39.8987 34.1865 48.4127 33.1743 54.3298C29.4134 56.6049 24.852 57.2133 22.9885 55.6878C23.6069 52.0503 21.0572 46.8387 17.6563 44.7929H17.6606Z" fill="white" stroke="#00402A" stroke-width="0.5" stroke-linejoin="round"/>
<path d="M22.9926 55.6878C23.611 52.0503 21.0613 46.8387 17.6604 44.7929C17.6647 42.5266 20.7225 38.8449 24.4834 36.5698C26.2368 37.6236 27.8547 39.1977 29.2142 41.0495C29.1549 41.0495 29.0744 41.0583 29.0109 41.0627C22.7724 41.5477 22.7766 46.799 26.0843 49.8457C28.3248 51.9048 31.4504 49.1711 32.5304 47.6103C33.2546 49.9471 33.5214 52.2971 33.1741 54.3342C29.4133 56.6093 24.8519 57.2177 22.9884 55.6922L22.9926 55.6878Z" fill="#E0D7D0" stroke="#00402A" stroke-width="0.5" stroke-linejoin="round"/>
<path d="M22.9925 55.6878C23.6108 52.0503 21.0612 46.8387 17.6603 44.7929C17.6646 42.5266 20.7224 38.8449 24.4833 36.5698C24.7586 36.7373 25.0339 36.9137 25.3007 37.1033C25.2287 37.1474 25.1355 37.2047 25.0635 37.2444C23.7337 38.0821 20.6885 40.3617 21.184 43.3554C21.4932 45.2249 25.4489 52.5706 25.487 52.6323C26.1435 53.7302 26.7831 54.4708 27.9689 54.7531C28.6381 54.9118 30.5016 55.1014 33.2842 53.4259C33.2587 53.7346 33.2207 54.0343 33.1698 54.3298C29.4089 56.6049 24.8475 57.2133 22.9841 55.6878H22.9925Z" fill="white" stroke="#00402A" stroke-width="0.5" stroke-linejoin="round"/>
<path d="M9.35518 37.284C3.85784 33.7567 2.59571 29.3476 2.11712 27.6853C2.71005 29.9516 4.41262 32.1297 7.24602 33.9022C14.6154 38.5185 26.8129 38.6464 34.4914 34.1888C37.6678 32.3458 39.5737 30.0045 40.1963 27.5707C39.8744 28.673 38.8918 32.0372 36.177 34.6606C34.051 36.7196 31.9164 38.254 27.8378 39.537C21.9212 41.3977 14.3231 40.4718 9.35518 37.2796V37.284Z" fill="white" stroke="#00402A" stroke-width="0.5" stroke-linejoin="round"/>
<path d="M28.3838 1.95605C22.9635 -0.297331 17.0266 0.0628294 11.6543 3.05469V3.06055L11.5273 3.13281C9.37215 4.35039 7.51452 6.08025 6.49707 7.28711V7.28613C4.77687 9.32896 3.90015 10.8628 3.08887 12.7402L2.74219 13.5684C1.97981 15.4593 1.51824 17.7413 1.38379 20.3525C1.25471 22.7714 1.68628 24.7543 2.07129 26.5293C2.64822 28.748 4.32902 30.9098 7.16699 32.6895C10.8584 35.0026 15.776 36.199 20.7471 36.251C25.7178 36.303 30.7154 35.2109 34.5645 32.9766V32.9756C37.7439 31.1314 39.624 28.8069 40.2529 26.3574C40.7169 24.1401 41.0752 22.4035 40.8281 19.208C40.6025 16.3243 39.7549 14.1534 39.1885 12.7012C38.6947 11.4355 37.4379 9.2245 36.0879 7.64062C34.1773 5.39909 32.7942 4.46552 31.3174 3.4668C28.8921 1.95025 25.4964 1.98721 21.5996 4.12988L21.2207 4.34375L21.0947 4.12695L20.9697 3.91113C23.6694 2.3421 26.1992 1.72684 28.3838 1.95605Z" fill="white" stroke="#00402A" stroke-width="0.5"/>
<path d="M31.4503 3.25434C25.1821 -0.6257 17.8763 -0.753565 11.4048 2.90601V2.91483C9.21938 4.14939 7.33895 5.89979 6.30556 7.12556C4.31921 9.48444 3.44249 11.1775 2.51079 13.4747C1.73569 15.3971 1.26986 17.7075 1.13433 20.3397C1.00303 22.8 1.44349 24.815 1.82889 26.5919C2.42606 28.8891 4.1583 31.098 7.03403 32.9013C14.5135 37.5882 26.8973 37.7161 34.6902 33.1923C37.9132 31.3228 39.8487 28.9464 40.4967 26.4111C40.9626 24.1845 41.3268 22.4208 41.077 19.1889C40.8483 16.2657 39.9885 14.0655 39.421 12.6105C38.917 11.3186 37.6464 9.08321 36.2784 7.47829C34.3429 5.20758 32.9368 4.25962 31.4503 3.25434ZM31.4503 3.25434C28.8413 1.62296 25.199 1.74641 21.095 4.12734C25.199 1.742 28.8455 1.61855 31.4503 3.25434Z" stroke="#00402A" stroke-width="0.5" stroke-linejoin="round"/>
<path d="M27.7361 27.844C27.7022 28.1041 26.8763 34.2637 19.7569 34.8237C14.9838 34.7884 10.2063 33.5979 6.68687 31.2876C5.65349 30.6085 4.78949 29.8722 4.09069 29.1006C-0.491899 22.8793 2.20172 12.5267 6.74616 13.4703C7.08499 13.5408 7.58614 13.8318 8.24967 14.3432C8.7706 14.9208 9.41435 15.4676 10.1894 15.9746C12.8195 17.703 16.3856 18.5937 19.9517 18.6157C25.6015 19.3256 28.1427 24.5239 27.7403 27.8396L27.7361 27.844Z" fill="#E0D7D0" stroke="#00402A" stroke-width="0.5" stroke-linejoin="round"/>
<path d="M2.12132 27.6941L1.83329 26.5962C2.43471 28.889 4.16695 31.0979 7.03844 32.8969C14.5179 37.5838 26.8975 37.7117 34.6947 33.1879C37.9134 31.3184 39.8489 28.9463 40.48 26.4772L40.1962 27.5795C39.5736 30.0133 37.6678 32.3502 34.4956 34.1888C26.8171 38.6464 14.6195 38.5185 7.25021 33.9021C4.42106 32.1297 2.71425 29.9516 2.12132 27.6941Z" fill="#928881" stroke="#00402A" stroke-width="0.5" stroke-linejoin="round"/>
<path d="M5.50086 21.8212C4.70887 23.8715 3.64163 24.3388 3.06983 22.8794C1.98139 20.1017 3.97198 15.6264 5.53477 16.1864C5.7084 16.2481 5.8185 16.3847 5.90746 16.495C6.64865 17.8045 5.95403 20.6484 5.50086 21.8212Z" fill="#928881" stroke="#00402A" stroke-width="0.5" stroke-linejoin="round"/>
<path d="M20.6335 26.7507C20.3963 29.8943 17.4147 31.2303 15.6528 28.9817C13.7851 26.6007 15.3182 22.1828 17.9991 22.2313C20.0024 22.5575 20.7563 25.1237 20.6335 26.7507Z" fill="#928881" stroke="#00402A" stroke-width="0.5" stroke-linejoin="round"/>
<path d="M11.5827 30.203C11.2524 32.1694 8.60956 31.8564 7.2331 29.6959C6.67831 28.8229 6.55974 27.994 6.62751 27.5487C6.6444 27.5354 6.66136 27.5442 6.67408 27.5487C8.13525 28.5055 9.80815 29.277 11.6082 29.8546C11.6082 29.9208 11.6082 30.031 11.5827 30.203Z" fill="#928881" stroke="#00402A" stroke-width="0.5" stroke-linejoin="round"/>
<path d="M15.8097 2.63714C18.876 0.860256 23.7423 0.908757 26.6816 2.75177C29.6208 4.59479 29.5192 7.53126 26.4572 9.30814C23.3908 11.085 18.5245 11.0365 15.5852 9.19354C12.646 7.35049 12.7477 4.41401 15.8097 2.63714Z" fill="#5BD38C" stroke="#00402A" stroke-width="0.5" stroke-linejoin="round"/>
<path d="M32.7801 27.6633C31.9839 31.1421 34.2455 32.5001 36.7401 30.0443C37.6888 29.1095 38.358 27.9014 38.6587 26.5831C39.4549 23.1042 37.1933 21.7463 34.6987 24.2021C33.75 25.1369 33.0809 26.3449 32.7801 27.6633Z" fill="#5BD38C" stroke="#00402A" stroke-width="0.5" stroke-linejoin="round"/>
</svg>
