<svg width="58" height="82" viewBox="0 0 58 82" fill="none" xmlns="http://www.w3.org/2000/svg">
<path d="M26.7539 69.6987L1.33843 54.0999C0.61281 53.6543 0.250001 52.8751 0.250001 52.095V63.4547C0.249184 64.2356 0.611175 65.0175 1.33843 65.4631L26.7539 81.0619C27.4272 81.4754 28.1789 81.6821 28.9307 81.6821V70.3181C28.1789 70.3181 27.4272 70.1114 26.7539 69.6979V69.6987Z" fill="#DCEBE1" stroke="#00402A" stroke-width="0.5"/>
<path d="M31.1083 81.0627L56.5238 65.4639C57.251 65.0174 57.6138 64.2365 57.6122 63.4555V52.0976C57.6122 52.8768 57.2486 53.6551 56.5238 54.0999L31.1083 69.6987C30.435 70.1122 29.6832 70.3189 28.9307 70.3189V81.683C29.6824 81.683 30.4342 81.4762 31.1083 81.0627Z" fill="#A2BCB1" stroke="#00402A" stroke-width="0.5"/>
<path d="M1.33867 54.0991L26.7541 69.6979C28.1016 70.5249 29.7612 70.5249 31.1086 69.6979L56.524 54.0991C57.2488 53.6543 57.6116 52.8751 57.6125 52.0968C57.6125 51.3167 57.2505 50.5358 56.524 50.0901L31.1086 34.4913C29.7612 33.6643 28.1016 33.6643 26.7541 34.4913L1.33867 50.0901C0.613052 50.5358 0.250244 51.315 0.250244 52.0942C0.250244 52.8734 0.613052 53.6535 1.33867 54.0991Z" fill="#FF9C1A" stroke="#00402A" stroke-width="0.5"/>
<path d="M28.9317 69.7405C28.2632 69.7405 27.6046 69.5528 27.0269 69.1975L1.61149 53.5987C1.09996 53.2851 0.795166 52.7231 0.795166 52.0951C0.795166 51.467 1.10078 50.9058 1.61149 50.5914L27.0269 34.9926C27.6054 34.6373 28.2641 34.4496 28.9317 34.4496C29.5993 34.4496 30.2587 34.6373 30.8364 34.9926L56.2518 50.5914C56.7633 50.9058 57.0681 51.4679 57.0681 52.0968C57.0681 52.724 56.7625 53.2851 56.2518 53.5987L30.8364 69.1975C30.2579 69.5528 29.5993 69.7405 28.9317 69.7405Z" fill="#FFF5EC" stroke="#00402A" stroke-width="0.5"/>
<path d="M1.15796 57.0856V62.6573C1.15796 63.1533 1.40719 63.6119 1.81085 63.8604L26.4075 78.9571C26.843 79.2246 27.3872 78.8902 27.3872 78.356V72.7843C27.3872 72.2883 27.138 71.8296 26.7344 71.5812L2.13771 56.4844C1.70217 56.2169 1.15796 56.5513 1.15796 57.0856Z" fill="#A2BCB1" stroke="#00402A" stroke-width="0.5"/>
<path d="M26.7345 78.4724C26.7165 78.4724 26.6994 78.4672 26.6806 78.4559L2.08391 63.3592C1.84858 63.215 1.70312 62.9465 1.70312 62.6573V57.0856C1.70312 56.9979 1.7783 56.9683 1.81344 56.9683C1.83141 56.9683 1.84858 56.9735 1.86655 56.9848L26.4632 72.0815C26.6985 72.2257 26.844 72.495 26.844 72.7834V78.3551C26.844 78.3768 26.8407 78.4081 26.8121 78.4368C26.7909 78.4585 26.7615 78.4715 26.7337 78.4715L26.7345 78.4724Z" fill="#00A443" stroke="#00402A" stroke-width="0.5"/>
<path d="M25.8453 73.4636V75.915C25.8453 76.2712 25.4825 76.4944 25.1924 76.3163L23.1953 75.0906C22.9256 74.9256 22.7598 74.6198 22.7598 74.2888V71.8374C22.7598 71.4813 23.1226 71.258 23.4127 71.4361L25.4097 72.6618C25.6794 72.8269 25.8453 73.1326 25.8453 73.4636Z" fill="#A2BCB1" stroke="#00402A" stroke-width="0.5"/>
<path d="M7.32968 63.6041V63.0465C7.32968 62.7155 7.1638 62.4097 6.89415 62.2447L3.35431 60.0721C3.06422 59.894 2.70142 60.1164 2.70142 60.4726V61.0303C2.70142 61.3612 2.8673 61.667 3.13695 61.832L6.67679 64.0046C6.96687 64.1827 7.32968 63.9603 7.32968 63.6041Z" fill="#2F6852" stroke="#00402A" stroke-width="0.5"/>
<path d="M10.4184 64.4103C10.8449 64.6717 11.1889 65.3059 11.1873 65.8262C11.1857 66.3466 10.8392 66.5568 10.4135 66.2953C9.98773 66.0338 9.6429 65.3997 9.64454 64.8794C9.64617 64.359 9.99264 64.1488 10.4184 64.4103Z" fill="#FFF5EC" stroke="#00402A" stroke-width="0.5"/>
<path d="M13.5032 66.5481C13.8194 66.7418 14.0743 67.2127 14.0735 67.5984C14.0727 67.9849 13.8153 68.1404 13.4991 67.9467C13.1828 67.753 12.9279 67.2821 12.9287 66.8965C12.9295 66.5108 13.1869 66.3544 13.5032 66.549V66.5481Z" fill="#FF9C1A" stroke="#00402A" stroke-width="0.5"/>
<path d="M16.5905 68.1986C17.017 68.4601 17.361 69.0942 17.3594 69.6145C17.3578 70.1349 17.0113 70.3451 16.5856 70.0836C16.1599 69.8222 15.815 69.188 15.8167 68.6677C15.8183 68.1473 16.1648 67.9371 16.5905 68.1986Z" fill="#DCEBE1" stroke="#00402A" stroke-width="0.5"/>
<path d="M32.4525 76.9575C31.9124 76.9575 31.4719 76.4901 31.4719 75.915V73.4636C31.4719 72.9277 31.7432 72.4282 32.1796 72.1606L54.2349 58.624C54.3845 58.532 54.5536 58.4842 54.7244 58.4842C55.2645 58.4842 55.7049 58.9515 55.7049 59.5266V61.978C55.7049 62.5131 55.4337 63.0126 54.9973 63.281L32.942 76.8176C32.7924 76.9097 32.6233 76.9575 32.4525 76.9575Z" fill="#00A443" stroke="#00402A" stroke-width="0.5"/>
<path d="M32.0171 73.4636V75.915C32.0171 76.2711 32.3799 76.4944 32.67 76.3163L54.7253 62.7797C54.995 62.6147 55.1609 62.3089 55.1609 61.9779V59.5265C55.1609 59.1704 54.7981 58.9471 54.508 59.1252L32.4526 72.6618C32.183 72.8268 32.0171 73.1326 32.0171 73.4636Z" fill="#2F6852" stroke="#00402A" stroke-width="0.5"/>
<path d="M43.5861 66.7783C43.1595 67.0398 42.8155 67.6739 42.8171 68.1943C42.8188 68.7146 43.1652 68.9248 43.591 68.6633C44.0167 68.4019 44.3615 67.7677 44.3599 67.2474C44.3583 66.7271 44.0118 66.5168 43.5861 66.7783Z" fill="#DCEBE1" stroke="#00402A" stroke-width="0.5"/>
<path d="M46.6725 64.8837C46.246 65.1451 45.9019 65.7793 45.9036 66.2996C45.9052 66.8199 46.2517 67.0302 46.6774 66.7687C47.1031 66.5072 47.448 65.8731 47.4463 65.3527C47.4447 64.8324 47.0982 64.6222 46.6725 64.8837Z" fill="#DCEBE1" stroke="#00402A" stroke-width="0.5"/>
<path d="M49.7579 62.99C49.3314 63.2515 48.9874 63.8856 48.989 64.4059C48.9907 64.9263 49.3371 65.1365 49.7629 64.875C50.1886 64.6135 50.5334 63.9794 50.5318 63.4591C50.5301 62.9387 50.1837 62.7285 49.7579 62.99Z" fill="#FFF5EC" stroke="#00402A" stroke-width="0.5"/>
<path d="M37.4152 70.5657C36.9886 70.8271 36.6446 71.4613 36.6462 71.9816C36.6479 72.5019 36.9943 72.7122 37.4201 72.4507C37.8458 72.1892 38.1906 71.5551 38.189 71.0348C38.1874 70.5144 37.8409 70.3042 37.4152 70.5657Z" fill="#FFF5EC" stroke="#00402A" stroke-width="0.5"/>
<path d="M12.0488 53.0974L27.8424 62.791C28.5157 63.2045 29.3459 63.2045 30.0201 62.791L45.8137 53.0974C46.1046 52.9194 46.2762 52.6336 46.3342 52.3269C46.2762 52.0203 46.1038 51.7345 45.8137 51.5564L30.0201 41.8629C29.3467 41.4494 28.5165 41.4494 27.8432 41.8629L12.0496 51.5564C11.7587 51.7345 11.5871 52.0203 11.5291 52.3269C11.5871 52.6336 11.7595 52.9194 12.0496 53.0974H12.0488Z" fill="#2F6852" stroke="#00402A" stroke-width="0.5"/>
<path d="M40.5006 68.672C40.0741 68.9335 39.7301 69.5676 39.7317 70.0879C39.7333 70.6083 40.0798 70.8185 40.5055 70.557C40.9313 70.2955 41.2761 69.6614 41.2745 69.1411C41.2728 68.6207 40.9263 68.4105 40.5006 68.672Z" fill="#DCEBE1" stroke="#00402A" stroke-width="0.5"/>
<path d="M30.2267 51.7571C30.9474 52.1992 30.9515 52.9159 30.2357 53.3581C29.5199 53.8002 28.3563 53.8002 27.6356 53.3581C26.9148 52.9159 26.9116 52.1992 27.6274 51.7571C28.3432 51.3149 29.5068 51.3149 30.2275 51.7571H30.2267Z" fill="#FFF5EC" stroke="#00402A" stroke-width="0.5"/>
<path d="M34.5622 54.7793C35.1195 55.1215 35.1228 55.6758 34.5688 56.018C34.0148 56.3603 33.1143 56.3603 32.557 56.018C31.9997 55.6758 31.9964 55.1215 32.5504 54.7793C33.1045 54.437 34.0049 54.437 34.5622 54.7793Z" fill="#FFF5EC" stroke="#00402A" stroke-width="0.5"/>
<path d="M25.3044 49.0972C25.8617 49.4395 25.865 49.9937 25.311 50.3359C24.7569 50.6782 23.8565 50.6782 23.2992 50.3359C22.7419 49.9937 22.7386 49.4395 23.2926 49.0972C23.8466 48.755 24.7471 48.755 25.3044 49.0972Z" fill="#FFF5EC" stroke="#00402A" stroke-width="0.5"/>
<path d="M12.0489 51.5556L27.8425 41.8621C28.5158 41.4486 29.346 41.4486 30.0194 41.8621L45.813 51.5556C46.1039 51.7337 46.2755 52.0195 46.3335 52.3261C46.4201 51.8666 46.2477 51.3593 45.813 51.0926L30.0194 41.399C29.346 40.9856 28.5158 40.9856 27.8425 41.399L12.0489 51.0926C11.6133 51.3601 11.4417 51.8666 11.5284 52.3261C11.5864 52.0195 11.7588 51.7337 12.0489 51.5556Z" fill="#A2BCB1" stroke="#00402A" stroke-width="0.5"/>
<path d="M26.7539 58.3347L1.33843 42.7359C0.61281 42.2902 0.250001 41.511 0.250001 40.731V52.0906C0.249184 52.8716 0.611175 53.6534 1.33843 54.099L26.7539 69.6978C27.4272 70.1113 28.1789 70.3181 28.9307 70.3181V58.954C28.1789 58.954 27.4272 58.7473 26.7539 58.3338V58.3347Z" fill="#DCEBE1" stroke="#00402A" stroke-width="0.5"/>
<path d="M31.1083 69.6987L56.5238 54.0998C57.251 53.6533 57.6138 52.8724 57.6122 52.0915V40.7335C57.6122 41.5127 57.2486 42.2911 56.5238 42.7358L31.1083 58.3346C30.435 58.7481 29.6832 58.9549 28.9307 58.9549V70.3189C29.6824 70.3189 30.4342 70.1121 31.1083 69.6987Z" fill="#A2BCB1" stroke="#00402A" stroke-width="0.5"/>
<path d="M1.33867 42.7349L26.7541 58.3338C28.1016 59.1607 29.7612 59.1607 31.1086 58.3338L56.524 42.7349C57.2488 42.2902 57.6116 41.511 57.6125 40.7327C57.6125 39.9526 57.2505 39.1716 56.524 38.726L31.1086 23.1272C29.7612 22.3002 28.1016 22.3002 26.7541 23.1272L1.33867 38.726C0.613052 39.1716 0.250244 39.9508 0.250244 40.73C0.250244 41.5092 0.613052 42.2893 1.33867 42.7349Z" fill="#FF9C1A" stroke="#00402A" stroke-width="0.5"/>
<path d="M28.9317 58.3763C28.2632 58.3763 27.6046 58.1887 27.0269 57.8334L1.61149 42.2346C1.09996 41.921 0.795166 41.359 0.795166 40.7309C0.795166 40.1029 1.10078 39.5417 1.61149 39.2272L27.0269 23.6284C27.6054 23.2731 28.2641 23.0855 28.9317 23.0855C29.5993 23.0855 30.2587 23.2731 30.8364 23.6284L56.2518 39.2272C56.7633 39.5417 57.0681 40.1037 57.0681 40.7327C57.0681 41.3598 56.7625 41.921 56.2518 42.2346L30.8364 57.8334C30.2579 58.1887 29.5993 58.3763 28.9317 58.3763Z" fill="#FFF5EC" stroke="#00402A" stroke-width="0.5"/>
<path d="M1.15869 45.7214V51.2931C1.15869 51.7891 1.40792 52.2478 1.81158 52.4962L26.4082 67.5929C26.8438 67.8605 27.388 67.5261 27.388 66.9918V61.4201C27.388 60.9241 27.1388 60.4655 26.7351 60.217L2.13844 45.1203C1.70291 44.8527 1.15869 45.1872 1.15869 45.7214Z" fill="#A2BCB1" stroke="#00402A" stroke-width="0.5"/>
<path d="M26.7345 67.1083C26.7165 67.1083 26.6994 67.103 26.6806 67.0918L2.08391 51.995C1.84858 51.8508 1.70312 51.5824 1.70312 51.2931V45.7215C1.70312 45.6337 1.7783 45.6042 1.81344 45.6042C1.83141 45.6042 1.84858 45.6094 1.86655 45.6207L26.4632 60.7174C26.6985 60.8616 26.844 61.1309 26.844 61.4193V66.991C26.844 67.0127 26.8407 67.044 26.8121 67.0726C26.7909 67.0944 26.7615 67.1074 26.7337 67.1074L26.7345 67.1083Z" fill="#00A443" stroke="#00402A" stroke-width="0.5"/>
<path d="M25.8453 62.0995V64.5509C25.8453 64.907 25.4825 65.1303 25.1924 64.9513L23.1953 63.7256C22.9256 63.5606 22.7598 63.2548 22.7598 62.9239V60.4725C22.7598 60.1163 23.1226 59.893 23.4127 60.0711L25.4097 61.2968C25.6794 61.4619 25.8453 61.7676 25.8453 62.0986V62.0995Z" fill="#A2BCB1" stroke="#00402A" stroke-width="0.5"/>
<path d="M7.32968 52.24V51.6823C7.32968 51.3514 7.1638 51.0456 6.89415 50.8805L3.35431 48.708C3.06422 48.5299 2.70142 48.7523 2.70142 49.1084V49.6661C2.70142 49.9971 2.8673 50.3029 3.13695 50.4679L6.67679 52.6405C6.96687 52.8185 7.32968 52.5962 7.32968 52.2391V52.24Z" fill="#2F6852" stroke="#00402A" stroke-width="0.5"/>
<path d="M10.4184 53.0461C10.8449 53.3076 11.1889 53.9417 11.1873 54.4621C11.1857 54.9824 10.8392 55.1926 10.4135 54.9312C9.98773 54.6697 9.6429 54.0356 9.64454 53.5152C9.64617 52.9949 9.99264 52.7847 10.4184 53.0461Z" fill="#FFF5EC" stroke="#00402A" stroke-width="0.5"/>
<path d="M13.5039 55.184C13.8201 55.3777 14.0751 55.8485 14.0743 56.2342C14.0734 56.6208 13.816 56.7763 13.4998 56.5825C13.1836 56.3888 12.9286 55.918 12.9294 55.5323C12.9303 55.1466 13.1877 54.9903 13.5039 55.1848V55.184Z" fill="#FF9C1A" stroke="#00402A" stroke-width="0.5"/>
<path d="M16.5905 56.8345C17.017 57.0959 17.361 57.7301 17.3594 58.2504C17.3578 58.7707 17.0113 58.981 16.5856 58.7195C16.1599 58.458 15.815 57.8239 15.8167 57.3035C15.8183 56.7832 16.1648 56.573 16.5905 56.8345Z" fill="#DCEBE1" stroke="#00402A" stroke-width="0.5"/>
<path d="M32.4535 65.5933C31.9133 65.5933 31.4729 65.126 31.4729 64.5509V62.0995C31.4729 61.5635 31.7442 61.064 32.1805 60.7965L54.2359 47.2599C54.3854 47.1678 54.5546 47.1201 54.7254 47.1201C55.2655 47.1201 55.7059 47.5874 55.7059 48.1625V50.6139C55.7059 51.149 55.4346 51.6485 54.9983 51.9169L32.9429 65.4535C32.7934 65.5455 32.6242 65.5933 32.4535 65.5933Z" fill="#00A443" stroke="#00402A" stroke-width="0.5"/>
<path d="M32.0171 62.0996V64.551C32.0171 64.9071 32.3799 65.1304 32.67 64.9514L54.7253 51.4148C54.995 51.2498 55.1609 50.944 55.1609 50.6131V48.1616C55.1609 47.8055 54.7981 47.5822 54.508 47.7612L32.4526 61.2978C32.183 61.4628 32.0171 61.7686 32.0171 62.0996Z" fill="#2F6852" stroke="#00402A" stroke-width="0.5"/>
<path d="M43.5861 55.4142C43.1595 55.6756 42.8155 56.3098 42.8171 56.8301C42.8188 57.3504 43.1652 57.5607 43.591 57.2992C44.0167 57.0377 44.3615 56.4036 44.3599 55.8833C44.3583 55.3629 44.0118 55.1527 43.5861 55.4142Z" fill="#DCEBE1" stroke="#00402A" stroke-width="0.5"/>
<path d="M46.6725 53.5195C46.246 53.781 45.9019 54.4151 45.9036 54.9355C45.9052 55.4558 46.2517 55.666 46.6774 55.4046C47.1031 55.1431 47.448 54.5089 47.4463 53.9886C47.4447 53.4683 47.0982 53.258 46.6725 53.5195Z" fill="#DCEBE1" stroke="#00402A" stroke-width="0.5"/>
<path d="M49.7579 51.6258C49.3314 51.8873 48.9874 52.5214 48.989 53.0418C48.9907 53.5621 49.3371 53.7723 49.7629 53.5109C50.1886 53.2494 50.5334 52.6153 50.5318 52.0949C50.5301 51.5746 50.1837 51.3644 49.7579 51.6258Z" fill="#FFF5EC" stroke="#00402A" stroke-width="0.5"/>
<path d="M37.4152 59.2015C36.9886 59.463 36.6446 60.0971 36.6462 60.6175C36.6479 61.1378 36.9943 61.348 37.4201 61.0866C37.8458 60.8251 38.1906 60.191 38.189 59.6706C38.1874 59.1503 37.8409 58.9401 37.4152 59.2015Z" fill="#FFF5EC" stroke="#00402A" stroke-width="0.5"/>
<path d="M12.0488 41.7334L27.8424 51.4269C28.5157 51.8404 29.3459 51.8404 30.0201 51.4269L45.8137 41.7334C46.1046 41.5553 46.2762 41.2695 46.3342 40.9628C46.2762 40.6562 46.1038 40.3704 45.8137 40.1923L30.0201 30.4988C29.3467 30.0853 28.5165 30.0853 27.8432 30.4988L12.0496 40.1923C11.7587 40.3704 11.5871 40.6562 11.5291 40.9628C11.5871 41.2695 11.7595 41.5553 12.0496 41.7334H12.0488Z" fill="#2F6852" stroke="#00402A" stroke-width="0.5"/>
<path d="M40.5006 57.3079C40.0741 57.5693 39.7301 58.2035 39.7317 58.7238C39.7333 59.2441 40.0798 59.4544 40.5055 59.1929C40.9313 58.9314 41.2761 58.2973 41.2745 57.7769C41.2728 57.2566 40.9263 57.0464 40.5006 57.3079Z" fill="#DCEBE1" stroke="#00402A" stroke-width="0.5"/>
<path d="M30.2267 40.3929C30.9474 40.8351 30.9515 41.5517 30.2357 41.9939C29.5199 42.436 28.3563 42.436 27.6356 41.9939C26.9148 41.5517 26.9116 40.8351 27.6274 40.3929C28.3432 39.9507 29.5068 39.9507 30.2275 40.3929H30.2267Z" fill="#FFF5EC" stroke="#00402A" stroke-width="0.5"/>
<path d="M34.5625 43.415C35.1198 43.7573 35.123 44.3115 34.569 44.6537C34.015 44.996 33.1145 44.996 32.5572 44.6537C31.9999 44.3115 31.9967 43.7573 32.5507 43.415C33.1047 43.0728 34.0052 43.0728 34.5625 43.415Z" fill="#FFF5EC" stroke="#00402A" stroke-width="0.5"/>
<path d="M25.3052 37.7331C25.8624 38.0753 25.8657 38.6295 25.3117 38.9718C24.7577 39.3141 23.8572 39.3141 23.2999 38.9718C22.7426 38.6295 22.7393 38.0753 23.2934 37.7331C23.8474 37.3908 24.7479 37.3908 25.3052 37.7331Z" fill="#FFF5EC" stroke="#00402A" stroke-width="0.5"/>
<path d="M12.0489 40.1915L27.8425 30.4979C28.5158 30.0844 29.346 30.0844 30.0194 30.4979L45.813 40.1915C46.1039 40.3695 46.2755 40.6553 46.3335 40.962C46.4201 40.5025 46.2477 39.9952 45.813 39.7285L30.0194 30.0349C29.346 29.6214 28.5158 29.6214 27.8425 30.0349L12.0489 39.7285C11.6133 39.996 11.4417 40.5025 11.5284 40.962C11.5864 40.6553 11.7588 40.3695 12.0489 40.1915Z" fill="#A2BCB1" stroke="#00402A" stroke-width="0.5"/>
<path d="M26.7539 46.9707L1.33843 31.3719C0.61281 30.9263 0.250001 30.1471 0.250001 29.367V40.7267C0.249184 41.5076 0.611175 42.2894 1.33843 42.7351L26.7539 58.3339C27.4272 58.7474 28.1789 58.9541 28.9307 58.9541V47.5901C28.1789 47.5901 27.4272 47.3833 26.7539 46.9699V46.9707Z" fill="#DCEBE1" stroke="#00402A" stroke-width="0.5"/>
<path d="M31.1083 58.3347L56.5238 42.7359C57.251 42.2894 57.6138 41.5084 57.6122 40.7275V29.3696C57.6122 30.1488 57.2486 30.9271 56.5238 31.3719L31.1083 46.9707C30.435 47.3842 29.6824 47.5909 28.9307 47.5909V58.9549C29.6824 58.9549 30.4342 58.7482 31.1083 58.3347Z" fill="#A2BCB1" stroke="#00402A" stroke-width="0.5"/>
<path d="M1.33867 31.371L26.7541 46.9698C28.1016 47.7968 29.7612 47.7968 31.1086 46.9698L56.524 31.371C57.2488 30.9262 57.6116 30.147 57.6125 29.3687C57.6125 28.5886 57.2505 27.8077 56.524 27.3621L31.1086 11.7632C29.7612 10.9363 28.1016 10.9363 26.7541 11.7632L1.33867 27.3621C0.613052 27.8077 0.250244 28.5869 0.250244 29.3661C0.250244 30.1453 0.613052 30.9254 1.33867 31.371Z" fill="#FF9C1A" stroke="#00402A" stroke-width="0.5"/>
<path d="M28.9317 47.0124C28.2632 47.0124 27.6046 46.8248 27.0269 46.4695L1.61149 30.8706C1.09996 30.5571 0.795166 29.995 0.795166 29.367C0.795166 28.7389 1.10078 28.1778 1.61149 27.8633L27.0269 12.2645C27.6054 11.9092 28.2641 11.7216 28.9317 11.7216C29.5993 11.7216 30.2587 11.9092 30.8364 12.2645L56.2518 27.8633C56.7633 28.1778 57.0681 28.7398 57.0681 29.3687C57.0681 29.9959 56.7625 30.5571 56.2518 30.8706L30.8364 46.4695C30.2579 46.8248 29.5993 47.0124 28.9317 47.0124Z" fill="#FFF5EC" stroke="#00402A" stroke-width="0.5"/>
<path d="M1.15869 34.3575V39.9292C1.15869 40.4252 1.40792 40.8839 1.81158 41.1323L26.4082 56.2291C26.8438 56.4966 27.388 56.1622 27.388 55.6279V50.0562C27.388 49.5602 27.1388 49.1016 26.7351 48.8531L2.13844 33.7564C1.70291 33.4889 1.15869 33.8233 1.15869 34.3575Z" fill="#A2BCB1" stroke="#00402A" stroke-width="0.5"/>
<path d="M26.7345 55.7434C26.7165 55.7434 26.6994 55.7382 26.6806 55.7269L2.08391 40.6302C1.84858 40.486 1.70312 40.2176 1.70312 39.9283V34.3566C1.70312 34.2689 1.7783 34.2394 1.81344 34.2394C1.83141 34.2394 1.84858 34.2446 1.86655 34.2559L26.4632 49.3526C26.6985 49.4968 26.844 49.7661 26.844 50.0545V55.6262C26.844 55.6479 26.8407 55.6792 26.8121 55.7078C26.7909 55.7296 26.7615 55.7426 26.7337 55.7426L26.7345 55.7434Z" fill="#00A443" stroke="#00402A" stroke-width="0.5"/>
<path d="M25.8453 50.7355V53.1869C25.8453 53.5431 25.4825 53.7663 25.1924 53.5882L23.1953 52.3625C22.9256 52.1975 22.7598 51.8917 22.7598 51.5608V49.1094C22.7598 48.7532 23.1226 48.5299 23.4127 48.708L25.4097 49.9337C25.6794 50.0988 25.8453 50.4045 25.8453 50.7355Z" fill="#A2BCB1" stroke="#00402A" stroke-width="0.5"/>
<path d="M7.33041 40.8761V40.3184C7.33041 39.9874 7.16454 39.6816 6.89488 39.5166L3.35504 37.344C3.06496 37.1659 2.70215 37.3883 2.70215 37.7445V38.3022C2.70215 38.6331 2.86803 38.9389 3.13768 39.104L6.67752 41.2765C6.96761 41.4546 7.33041 41.2322 7.33041 40.8761Z" fill="#2F6852" stroke="#00402A" stroke-width="0.5"/>
<path d="M10.4184 41.6822C10.8449 41.9437 11.1889 42.5778 11.1873 43.0982C11.1857 43.6185 10.8392 43.8287 10.4135 43.5673C9.98773 43.3058 9.6429 42.6717 9.64454 42.1513C9.64617 41.631 9.99264 41.4208 10.4184 41.6822Z" fill="#FFF5EC" stroke="#00402A" stroke-width="0.5"/>
<path d="M13.5039 43.8201C13.8201 44.0138 14.0751 44.4846 14.0743 44.8703C14.0734 45.2569 13.816 45.4124 13.4998 45.2187C13.1836 45.0249 12.9286 44.5541 12.9294 44.1684C12.9303 43.7827 13.1877 43.6264 13.5039 43.821V43.8201Z" fill="#FF9C1A" stroke="#00402A" stroke-width="0.5"/>
<path d="M16.5905 45.4706C17.017 45.732 17.361 46.3662 17.3594 46.8865C17.3578 47.4068 17.0113 47.6171 16.5856 47.3556C16.1599 47.0941 15.815 46.46 15.8167 45.9397C15.8183 45.4193 16.1648 45.2091 16.5905 45.4706Z" fill="#DCEBE1" stroke="#00402A" stroke-width="0.5"/>
<path d="M32.4535 54.2294C31.9133 54.2294 31.4729 53.7621 31.4729 53.187V50.7356C31.4729 50.1996 31.7442 49.7002 32.1805 49.4326L54.2359 35.896C54.3854 35.8039 54.5546 35.7562 54.7254 35.7562C55.2655 35.7562 55.7059 36.2235 55.7059 36.7986V39.25C55.7059 39.7851 55.4346 40.2846 54.9983 40.553L32.9429 54.0896C32.7934 54.1816 32.6242 54.2294 32.4535 54.2294Z" fill="#00A443" stroke="#00402A" stroke-width="0.5"/>
<path d="M32.0171 50.7355V53.1869C32.0171 53.543 32.3799 53.7663 32.67 53.5873L54.7253 40.0508C54.995 39.8857 55.1609 39.5799 55.1609 39.249V36.7976C55.1609 36.4414 54.7981 36.2182 54.508 36.3971L32.4526 49.9337C32.183 50.0987 32.0171 50.4045 32.0171 50.7355Z" fill="#2F6852" stroke="#00402A" stroke-width="0.5"/>
<path d="M43.587 44.0503C43.1605 44.3118 42.8165 44.9459 42.8181 45.4662C42.8198 45.9866 43.1662 46.1968 43.592 45.9353C44.0177 45.6738 44.3625 45.0397 44.3609 44.5194C44.3592 43.999 44.0128 43.7888 43.587 44.0503Z" fill="#DCEBE1" stroke="#00402A" stroke-width="0.5"/>
<path d="M46.6725 42.1556C46.246 42.4171 45.9019 43.0512 45.9036 43.5716C45.9052 44.0919 46.2517 44.3021 46.6774 44.0407C47.1031 43.7792 47.448 43.145 47.4463 42.6247C47.4447 42.1044 47.0982 41.8942 46.6725 42.1556Z" fill="#DCEBE1" stroke="#00402A" stroke-width="0.5"/>
<path d="M49.7587 40.262C49.3321 40.5234 48.9881 41.1576 48.9898 41.6779C48.9914 42.1982 49.3378 42.4085 49.7636 42.147C50.1893 41.8855 50.5341 41.2514 50.5325 40.731C50.5309 40.2107 50.1844 40.0005 49.7587 40.262Z" fill="#FFF5EC" stroke="#00402A" stroke-width="0.5"/>
<path d="M37.4152 47.8376C36.9886 48.0991 36.6446 48.7332 36.6462 49.2536C36.6479 49.7739 36.9943 49.9841 37.4201 49.7227C37.8458 49.4612 38.1906 48.8271 38.189 48.3067C38.1874 47.7864 37.8409 47.5762 37.4152 47.8376Z" fill="#FFF5EC" stroke="#00402A" stroke-width="0.5"/>
<path d="M12.0488 30.3694L27.8424 40.063C28.5157 40.4765 29.3459 40.4765 30.0201 40.063L45.8137 30.3694C46.1046 30.1913 46.2762 29.9055 46.3342 29.5989C46.2762 29.2922 46.1038 29.0065 45.8137 28.8284L30.0201 19.1348C29.3467 18.7213 28.5165 18.7213 27.8432 19.1348L12.0496 28.8284C11.7587 29.0065 11.5871 29.2922 11.5291 29.5989C11.5871 29.9055 11.7595 30.1913 12.0496 30.3694H12.0488Z" fill="#2F6852" stroke="#00402A" stroke-width="0.5"/>
<path d="M40.5014 45.944C40.0748 46.2054 39.7308 46.8396 39.7324 47.3599C39.7341 47.8802 40.0805 48.0905 40.5063 47.829C40.932 47.5675 41.2768 46.9334 41.2752 46.413C41.2735 45.8927 40.9271 45.6825 40.5014 45.944Z" fill="#DCEBE1" stroke="#00402A" stroke-width="0.5"/>
<path d="M30.2267 29.0289C30.9474 29.4711 30.9515 30.1878 30.2357 30.6299C29.5199 31.0721 28.3563 31.0721 27.6356 30.6299C26.9148 30.1878 26.9116 29.4711 27.6274 29.0289C28.3432 28.5868 29.5068 28.5868 30.2275 29.0289H30.2267Z" fill="#FFF5EC" stroke="#00402A" stroke-width="0.5"/>
<path d="M34.5625 32.0511C35.1198 32.3933 35.123 32.9475 34.569 33.2898C34.015 33.6321 33.1145 33.6321 32.5572 33.2898C31.9999 32.9475 31.9967 32.3933 32.5507 32.0511C33.1047 31.7088 34.0052 31.7088 34.5625 32.0511Z" fill="#FFF5EC" stroke="#00402A" stroke-width="0.5"/>
<path d="M25.3052 26.3691C25.8624 26.7114 25.8657 27.2656 25.3117 27.6079C24.7577 27.9501 23.8572 27.9501 23.2999 27.6079C22.7426 27.2656 22.7393 26.7114 23.2934 26.3691C23.8474 26.0269 24.7479 26.0269 25.3052 26.3691Z" fill="#FFF5EC" stroke="#00402A" stroke-width="0.5"/>
<path d="M12.0489 28.8275L27.8425 19.134C28.5158 18.7205 29.346 18.7205 30.0194 19.134L45.813 28.8275C46.1039 29.0056 46.2755 29.2914 46.3335 29.598C46.4201 29.1385 46.2477 28.6312 45.813 28.3645L30.0194 18.671C29.346 18.2575 28.5158 18.2575 27.8425 18.671L12.0489 28.3645C11.6133 28.6321 11.4417 29.1385 11.5284 29.598C11.5864 29.2914 11.7588 29.0056 12.0489 28.8275Z" fill="#A2BCB1" stroke="#00402A" stroke-width="0.5"/>
<path d="M26.7539 35.6067L1.33843 20.0078C0.61281 19.5622 0.250001 18.783 0.250001 18.0029V29.3626C0.249184 30.1435 0.611175 30.9254 1.33843 31.371L26.7539 46.9698C27.4272 47.3833 28.1789 47.59 28.9307 47.59V36.226C28.1789 36.226 27.4272 36.0193 26.7539 35.6058V35.6067Z" fill="#DCEBE1" stroke="#00402A" stroke-width="0.5"/>
<path d="M31.1083 46.9706L56.5238 31.3718C57.251 30.9253 57.6138 30.1444 57.6122 29.3634V18.0055C57.6122 18.7847 57.2486 19.563 56.5238 20.0078L31.1083 35.6066C30.435 36.0201 29.6832 36.2268 28.9307 36.2268V47.5909C29.6824 47.5909 30.4342 47.3841 31.1083 46.9706Z" fill="#A2BCB1" stroke="#00402A" stroke-width="0.5"/>
<path d="M28.9886 36.5431C28.3062 36.5431 27.6337 36.3501 27.0439 35.9847L1.09422 19.9429C0.571941 19.6204 0.260742 19.0424 0.260742 18.3965C0.260742 17.7507 0.572776 17.1736 1.09422 16.8502L27.0439 0.808341C27.6346 0.442963 28.307 0.25 28.9886 0.25C29.6703 0.25 30.3436 0.442963 30.9334 0.808341L56.8831 16.8502C57.4053 17.1736 57.7165 17.7515 57.7165 18.3983C57.7165 19.0433 57.4045 19.6204 56.8831 19.9429L30.9334 35.9847C30.3427 36.3501 29.6703 36.5431 28.9886 36.5431Z" fill="#FFF5EC" stroke="#00402A" stroke-width="0.5"/>
<path d="M1.15869 22.9935V28.5651C1.15869 29.0612 1.40792 29.5198 1.81158 29.7683L26.4082 44.865C26.8438 45.1325 27.388 44.7981 27.388 44.2639V38.6922C27.388 38.1962 27.1388 37.7375 26.7351 37.4891L2.13844 22.3923C1.70291 22.1248 1.15869 22.4592 1.15869 22.9935Z" fill="#A2BCB1" stroke="#00402A" stroke-width="0.5"/>
<path d="M26.7345 44.3794C26.7165 44.3794 26.6994 44.3742 26.6806 44.3629L2.08391 29.2662C1.84858 29.122 1.70312 28.8536 1.70312 28.5643V22.9926C1.70312 22.9049 1.7783 22.8754 1.81344 22.8754C1.83141 22.8754 1.84858 22.8806 1.86655 22.8919L26.4632 37.9886C26.6985 38.1328 26.844 38.4021 26.844 38.6905V44.2622C26.844 44.2839 26.8407 44.3152 26.8121 44.3438C26.7909 44.3655 26.7615 44.3786 26.7337 44.3786L26.7345 44.3794Z" fill="#00A443" stroke="#00402A" stroke-width="0.5"/>
<path d="M25.8453 39.3715V41.8229C25.8453 42.179 25.4825 42.4023 25.1924 42.2233L23.1953 40.9976C22.9256 40.8326 22.7598 40.5268 22.7598 40.1958V37.7444C22.7598 37.3883 23.1226 37.165 23.4127 37.3431L25.4097 38.5688C25.6794 38.7338 25.8453 39.0396 25.8453 39.3706V39.3715Z" fill="#A2BCB1" stroke="#00402A" stroke-width="0.5"/>
<path d="M7.33041 29.512V28.9543C7.33041 28.6234 7.16454 28.3176 6.89488 28.1526L3.35504 25.98C3.06496 25.8019 2.70215 26.0243 2.70215 26.3805V26.9382C2.70215 27.2691 2.86803 27.5749 3.13768 27.7399L6.67752 29.9125C6.96761 30.0906 7.33041 29.8682 7.33041 29.512Z" fill="#2F6852" stroke="#00402A" stroke-width="0.5"/>
<path d="M10.4184 30.3182C10.8449 30.5796 11.1889 31.2138 11.1873 31.7341C11.1857 32.2544 10.8392 32.4647 10.4135 32.2032C9.98773 31.9417 9.6429 31.3076 9.64454 30.7872C9.64617 30.2669 9.99264 30.0567 10.4184 30.3182Z" fill="#FFF5EC" stroke="#00402A" stroke-width="0.5"/>
<path d="M13.5039 32.455C13.8201 32.6488 14.0751 33.1196 14.0743 33.5053C14.0734 33.8918 13.816 34.0473 13.4998 33.8536C13.1836 33.6599 12.9286 33.1891 12.9294 32.8034C12.9303 32.4177 13.1877 32.2613 13.5039 32.4559V32.455Z" fill="#FF9C1A" stroke="#00402A" stroke-width="0.5"/>
<path d="M16.5905 34.1065C17.017 34.368 17.361 35.0021 17.3594 35.5224C17.3578 36.0428 17.0113 36.253 16.5856 35.9915C16.1599 35.7301 15.815 35.0959 15.8167 34.5756C15.8183 34.0552 16.1648 33.845 16.5905 34.1065Z" fill="#DCEBE1" stroke="#00402A" stroke-width="0.5"/>
<path d="M32.4535 42.8654C31.9133 42.8654 31.4729 42.398 31.4729 41.8229V39.3715C31.4729 38.8356 31.7442 38.3361 32.1805 38.0685L54.2359 24.532C54.3854 24.4399 54.5546 24.3921 54.7254 24.3921C55.2655 24.3921 55.7059 24.8594 55.7059 25.4345V27.8859C55.7059 28.421 55.4346 28.9205 54.9983 29.1889L32.9429 42.7255C32.7934 42.8176 32.6242 42.8654 32.4535 42.8654Z" fill="#00A443" stroke="#00402A" stroke-width="0.5"/>
<path d="M32.0171 39.3715V41.8229C32.0171 42.179 32.3799 42.4023 32.67 42.2233L54.7253 28.6868C54.995 28.5217 55.1609 28.2159 55.1609 27.885V25.4336C55.1609 25.0774 54.7981 24.8542 54.508 25.0322L32.4526 38.5688C32.183 38.7339 32.0171 39.0396 32.0171 39.3706V39.3715Z" fill="#2F6852" stroke="#00402A" stroke-width="0.5"/>
<path d="M43.587 32.6862C43.1605 32.9477 42.8165 33.5818 42.8181 34.1021C42.8198 34.6225 43.1662 34.8327 43.592 34.5712C44.0177 34.3098 44.3625 33.6756 44.3609 33.1553C44.3592 32.635 44.0128 32.4247 43.587 32.6862Z" fill="#DCEBE1" stroke="#00402A" stroke-width="0.5"/>
<path d="M46.6725 30.7916C46.246 31.053 45.9019 31.6872 45.9036 32.2075C45.9052 32.7278 46.2517 32.938 46.6774 32.6766C47.1031 32.4151 47.448 31.781 47.4463 31.2606C47.4447 30.7403 47.0982 30.5301 46.6725 30.7916Z" fill="#DCEBE1" stroke="#00402A" stroke-width="0.5"/>
<path d="M49.7587 28.8979C49.3321 29.1593 48.9881 29.7935 48.9898 30.3138C48.9914 30.8342 49.3378 31.0444 49.7636 30.7829C50.1893 30.5214 50.5341 29.8873 50.5325 29.367C50.5309 28.8466 50.1844 28.6364 49.7587 28.8979Z" fill="#FFF5EC" stroke="#00402A" stroke-width="0.5"/>
<path d="M37.4152 36.4736C36.9886 36.735 36.6446 37.3692 36.6462 37.8895C36.6479 38.4098 36.9943 38.6201 37.4201 38.3586C37.8458 38.0971 38.1906 37.463 38.189 36.9426C38.1874 36.4223 37.8409 36.2121 37.4152 36.4736Z" fill="#FFF5EC" stroke="#00402A" stroke-width="0.5"/>
<path d="M12.0495 19.0053L27.8431 28.6989C28.5164 29.1124 29.3466 29.1124 30.0208 28.6989L45.8144 19.0053C46.1053 18.8273 46.2769 18.5415 46.3349 18.2348C46.2769 17.9282 46.1045 17.6424 45.8144 17.4643L30.0208 7.77075C29.3475 7.35726 28.5173 7.35726 27.8439 7.77075L12.0503 17.4643C11.7594 17.6424 11.5878 17.9282 11.5298 18.2348C11.5878 18.5415 11.7602 18.8273 12.0503 19.0053H12.0495Z" fill="#2F6852" stroke="#00402A" stroke-width="0.5"/>
<path d="M40.5014 34.5799C40.0748 34.8414 39.7308 35.4755 39.7324 35.9958C39.7341 36.5162 40.0805 36.7264 40.5063 36.4649C40.932 36.2034 41.2768 35.5693 41.2752 35.049C41.2735 34.5286 40.9271 34.3184 40.5014 34.5799Z" fill="#DCEBE1" stroke="#00402A" stroke-width="0.5"/>
<path d="M30.2267 17.6649C30.9474 18.1071 30.9515 18.8237 30.2357 19.2659C29.5199 19.7081 28.3563 19.7081 27.6356 19.2659C26.9148 18.8237 26.9116 18.1071 27.6274 17.6649C28.3432 17.2228 29.5068 17.2228 30.2275 17.6649H30.2267Z" fill="#FFF5EC" stroke="#00402A" stroke-width="0.5"/>
<path d="M34.5625 20.6871C35.1198 21.0294 35.123 21.5836 34.569 21.9258C34.015 22.2681 33.1145 22.2681 32.5572 21.9258C31.9999 21.5836 31.9967 21.0294 32.5507 20.6871C33.1047 20.3449 34.0052 20.3449 34.5625 20.6871Z" fill="#FFF5EC" stroke="#00402A" stroke-width="0.5"/>
<path d="M25.3052 15.0051C25.8624 15.3474 25.8657 15.9016 25.3117 16.2438C24.7577 16.5861 23.8572 16.5861 23.2999 16.2438C22.7426 15.9016 22.7393 15.3474 23.2934 15.0051C23.8474 14.6628 24.7479 14.6628 25.3052 15.0051Z" fill="#FFF5EC" stroke="#00402A" stroke-width="0.5"/>
<path d="M12.0496 17.4635L27.8432 7.76995C28.5166 7.35646 29.3468 7.35646 30.0201 7.76995L45.8137 17.4635C46.1046 17.6416 46.2762 17.9274 46.3342 18.234C46.4209 17.7745 46.2484 17.2672 45.8137 17.0005L30.0201 7.30694C29.3468 6.89345 28.5166 6.89345 27.8432 7.30694L12.0496 17.0005C11.6141 17.2681 11.4425 17.7745 11.5291 18.234C11.5871 17.9274 11.7595 17.6416 12.0496 17.4635Z" fill="#A2BCB1" stroke="#00402A" stroke-width="0.5"/>
</svg>
