<svg width="57" height="78" viewBox="0 0 57 78" fill="none" xmlns="http://www.w3.org/2000/svg">
<path d="M10.0105 17.5471C9.66103 17.3371 9.17476 17.3633 8.63785 17.6889L2.73687 20.5455C1.35913 21.37 0.249835 23.3654 0.2549 25.0038C0.2549 25.8177 0.533484 26.3901 0.979224 26.658L2.21514 27.4036C1.7694 27.1358 1.49082 26.5634 1.49082 25.7495C1.48575 24.1111 2.60011 22.1157 3.97279 21.2912L9.87376 18.4346C10.4107 18.1142 10.8919 18.0827 11.2465 18.2928L10.0105 17.5471Z" fill="#FFCD52" stroke="#00402A" stroke-width="0.510008" stroke-miterlimit="10" stroke-linejoin="round"/>
<path d="M3.9677 21.2859L9.86867 18.4293C10.9324 17.7939 11.7985 18.3033 11.8036 19.5688C11.8087 20.8343 10.9476 22.3782 9.88388 23.0188L3.98795 27.225C2.6102 28.0495 1.49079 27.3878 1.49079 25.7495C1.48066 24.1058 2.59502 22.1104 3.9677 21.2859Z" fill="#FF9C1A" stroke="#00402A" stroke-width="0.510008" stroke-miterlimit="10" stroke-linejoin="round"/>
<path d="M29.1975 27.015L28.5745 26.6212C30.8639 22.7563 34.6477 19.5898 37.4082 17.2793C38.3605 16.4811 39.1861 15.7932 39.8294 15.184C42.7976 12.3694 44.3628 9.19768 44.3628 6.01545C44.3628 4.84969 44.0437 4.04099 43.4409 3.67866C42.7166 3.24281 41.5566 3.44236 40.2599 4.21953L39.8952 3.56313C41.4503 2.63367 42.8381 2.43938 43.8056 3.02226C44.3931 3.37409 45.0922 4.17753 45.0922 6.01545C45.0922 9.41823 43.4409 12.7843 40.3207 15.7459C39.6623 16.3708 38.8265 17.0692 37.8641 17.8727C35.144 20.1412 31.4211 23.2604 29.1975 27.015Z" fill="#00402A"/>
<path d="M28.2658 27.3091L27.6428 26.9153C30.064 22.8193 34.7797 18.4556 37.596 15.8457C38.0519 15.4256 38.4469 15.0581 38.7762 14.743C41.79 11.8811 43.2589 9.22398 43.2589 6.61413C43.2589 5.3801 42.879 4.47689 42.1851 4.0568C41.4912 3.64195 40.544 3.75223 39.5106 4.36662L39.146 3.71022C40.4123 2.95404 41.6178 2.84377 42.5498 3.4004C43.4767 3.95703 43.9883 5.09653 43.9883 6.60888C43.9883 9.44452 42.4434 12.2854 39.2726 15.2944C38.9383 15.6094 38.5432 15.977 38.0823 16.4024C35.2964 18.986 30.6313 23.3077 28.2658 27.3091Z" fill="#00402A"/>
<path d="M29.1975 27.015L28.5745 26.6212C30.6461 23.1239 34.3691 20.5088 37.3626 18.4083C38.8113 17.3948 40.0573 16.5179 40.8728 15.7197C45.5531 11.1459 45.933 8.37325 45.933 5.46408C45.933 4.13027 45.5632 3.23233 44.8389 2.79648C43.6131 2.06131 41.6022 2.74396 40.2549 3.55265L39.8902 2.89625C41.4806 1.94578 43.7093 1.24737 45.2036 2.14007C46.171 2.71771 46.6624 3.83621 46.6624 5.46408C46.6624 8.54654 46.2622 11.4925 41.3743 16.2711C40.5183 17.1113 39.2418 17.9987 37.7729 19.0332C34.8401 21.0917 31.183 23.6543 29.1975 27.015Z" fill="#00402A"/>
<path d="M31.0162 5.95766C30.4945 5.64259 29.7702 5.68459 28.9699 6.1677C27.3794 7.11817 26.0929 9.4287 26.0979 11.3191L26.1081 14.7482C26.1131 15.6881 26.4322 16.3498 26.9489 16.6649L28.4938 17.5943C27.9771 17.2845 27.658 16.6229 27.6529 15.6776L27.6428 12.2486C27.6377 10.3529 28.9243 8.04765 30.5148 7.09718C31.3151 6.61932 32.0394 6.57204 32.5612 6.88712L31.0162 5.95766Z" fill="#FFCD52" stroke="#00402A" stroke-width="0.510008" stroke-miterlimit="10" stroke-linejoin="round"/>
<path d="M30.5094 7.09734C32.0999 6.14687 33.3915 6.90829 33.3966 8.80398L33.4068 12.233C33.4118 14.1287 32.1253 16.434 30.5348 17.3844C28.9443 18.3349 27.6527 17.5735 27.6476 15.6778L27.6375 12.2488C27.6375 10.3583 28.9189 8.0478 30.5094 7.09734Z" fill="#FF9C1A" stroke="#00402A" stroke-width="0.510008" stroke-miterlimit="10" stroke-linejoin="round"/>
<path d="M32.834 10.8308C32.3478 10.5367 31.6842 10.5525 30.9447 10.9516C30.889 10.9778 30.8383 11.0093 30.7826 11.0408C29.263 11.9493 27.9967 14.1233 27.9207 16.0032L25.0944 51.4751C25.0285 53.0032 25.5097 54.0849 26.3303 54.5786C27.0141 54.9934 27.703 55.403 28.3868 55.8178C27.5713 55.3242 27.0901 54.2372 27.1509 52.7144L29.9772 17.2425C30.0583 15.3626 31.3246 13.1886 32.8391 12.2801C32.8897 12.2486 32.9455 12.2171 33.0012 12.1909C33.7458 11.797 34.4042 11.776 34.8905 12.0701C34.2067 11.6552 33.5178 11.2404 32.834 10.8308Z" fill="#FFCD52" stroke="#00402A" stroke-width="0.510008" stroke-miterlimit="10" stroke-linejoin="round"/>
<path d="M32.8392 12.2801C32.8899 12.2486 32.9456 12.2171 33.0013 12.1908C34.5918 11.3454 35.8125 12.2328 35.7315 14.1758L35.6403 48.1878C35.5238 50.9605 33.6547 54.1689 31.4159 55.508C31.3399 55.5553 31.2588 55.5973 31.1829 55.6393C28.8427 56.8891 27.0395 55.5763 27.1611 52.7091L29.9875 17.2372C30.0584 15.3626 31.3247 13.1886 32.8392 12.2801Z" fill="#FF9C1A" stroke="#00402A" stroke-width="0.510008" stroke-miterlimit="10" stroke-linejoin="round"/>
<path d="M6.52552 34.225C6.45967 34.1829 6.35836 34.1935 6.23173 34.2722L2.41256 36.5617C2.11878 36.7403 1.95668 37.1079 2.05292 37.3809L2.39231 38.3472C2.42777 38.4417 2.48346 38.5152 2.55944 38.5572L3.0761 38.867C3.00012 38.8198 2.93933 38.7515 2.90894 38.6517L2.57465 37.6855C2.47841 37.4125 2.64051 37.0396 2.93429 36.8663L6.75346 34.5768C6.88009 34.5033 6.98141 34.4928 7.04725 34.5295L6.52552 34.225Z" fill="#B0A9A3" stroke="#00402A" stroke-width="0.510008" stroke-miterlimit="10" stroke-linejoin="round"/>
<path d="M6.74833 34.5821C7.04211 34.4088 7.20422 34.5821 7.11304 34.9707L6.78379 36.3307C6.68755 36.7193 6.3735 37.1814 6.07465 37.3547L3.61295 38.8303C3.31917 39.0089 3.00005 38.9248 2.90381 38.6518L2.56952 37.6856C2.47328 37.4125 2.63538 37.0397 2.92916 36.8664L6.74833 34.5821Z" fill="#615D5A" stroke="#00402A" stroke-width="0.510008" stroke-miterlimit="10" stroke-linejoin="round"/>
<path d="M7.10303 44.3178L6.59144 44.0079L6.5813 41.0883L7.09289 41.3981L7.10303 44.3178Z" fill="#B0A9A3" stroke="#00402A" stroke-width="0.510008" stroke-miterlimit="10" stroke-linejoin="round"/>
<path d="M7.0318 36.6877L6.51514 36.3779L7.4674 40.269L6.58099 41.0882L7.09258 41.398L7.98407 40.5788L7.0318 36.6877Z" fill="#B0A9A3" stroke="#00402A" stroke-width="0.510008" stroke-miterlimit="10" stroke-linejoin="round"/>
<path d="M7.54358 35.5482L7.03198 35.2384L7.4828 35.5062L7.99946 35.816L7.54358 35.5482Z" fill="#FFF5EC" stroke="#00402A" stroke-width="0.510008" stroke-miterlimit="10" stroke-linejoin="round"/>
<path d="M2.89874 43.5721L2.38208 43.2571L3.26342 43.0733L3.77502 43.3831L2.89874 43.5721Z" fill="#B0A9A3" stroke="#00402A" stroke-width="0.510008" stroke-miterlimit="10" stroke-linejoin="round"/>
<path d="M2.8885 44.5016L2.65042 43.9922L2.13379 43.6824L2.37691 44.1918L2.91889 46.2082L3.43556 46.5128L2.8885 44.5016Z" fill="#B0A9A3" stroke="#00402A" stroke-width="0.510008" stroke-miterlimit="10" stroke-linejoin="round"/>
<path d="M7.54355 35.5482L7.99944 35.816L9.01248 39.9487L8.27295 40.6156L7.98423 41.4558L7.45238 44.1077L7.10288 44.3177L7.09274 41.3981L7.98423 40.5789L7.03196 36.6877L3.81555 38.6149L2.89875 43.572L3.77502 43.383L3.78516 46.3079L3.43566 46.5127L2.88861 44.5015L2.65053 43.9922L1.86035 44.2284L2.84808 38.9037L3.29382 38.0898L7.54355 35.5482Z" fill="#615D5A" stroke="#00402A" stroke-width="0.510008" stroke-miterlimit="10" stroke-linejoin="round"/>
<path d="M7.03199 35.2384L2.78226 37.78L2.33148 38.5939L1.34375 43.9186L1.86038 44.2284L2.84811 38.9037L3.29385 38.0898L7.54358 35.5482L7.03199 35.2384Z" fill="#B0A9A3" stroke="#00402A" stroke-width="0.510008" stroke-miterlimit="10" stroke-linejoin="round"/>
<path d="M7.52818 34.8393C7.46233 34.7973 7.36105 34.8078 7.23442 34.8866L3.41522 37.1761C3.12143 37.3547 2.95937 37.7223 3.0556 37.9953L3.3899 38.9615C3.42535 39.0561 3.48108 39.1296 3.55706 39.1768L4.07372 39.4867C3.99774 39.4394 3.93695 39.3711 3.90656 39.2714L3.5672 38.3104C3.47096 38.0373 3.63303 37.6645 3.92681 37.4912L7.74601 35.2017C7.87264 35.1282 7.97392 35.1177 8.03977 35.1544L7.52818 34.8393Z" fill="#B0A9A3" stroke="#00402A" stroke-width="0.510008" stroke-miterlimit="10" stroke-linejoin="round"/>
<path d="M7.75126 35.1912C8.04504 35.0179 8.20715 35.1912 8.11597 35.5797L7.78672 36.9398C7.69048 37.3284 7.37643 37.7905 7.08265 37.9638L4.62095 39.4394C4.32717 39.6179 4.00808 39.5339 3.91184 39.2608L3.57245 38.2999C3.47621 38.0268 3.63831 37.654 3.93209 37.4807L7.75126 35.1912Z" fill="#615D5A" stroke="#00402A" stroke-width="0.510008" stroke-miterlimit="10" stroke-linejoin="round"/>
<path d="M2.57489 35.564L2.56982 34.6818C2.56982 35.0336 2.78762 35.3854 3.22323 35.6532C4.11977 36.2151 5.60895 36.2309 6.54602 35.69C7.02721 35.4117 7.27037 35.0389 7.27037 34.666V35.5482C7.27037 35.921 7.02721 36.2939 6.54602 36.5722C5.60895 37.1131 4.11977 37.0973 3.22323 36.5354C2.79268 36.2676 2.57996 35.9158 2.57489 35.564Z" fill="#B0A9A3" stroke="#00402A" stroke-width="0.510008" stroke-miterlimit="10" stroke-linejoin="round"/>
<path d="M6.47478 22.394C7.31054 22.9191 7.28521 23.7488 6.40893 24.2529C5.53771 24.7571 4.14984 24.7413 3.30901 24.2214C2.47325 23.6963 2.49858 22.8666 3.37486 22.3625C4.25115 21.8584 5.63902 21.8689 6.47478 22.394Z" fill="#FFB536" stroke="#00402A" stroke-width="0.510008" stroke-miterlimit="10" stroke-linejoin="round"/>
<path d="M8.47575 31.6151C8.00975 28.8005 7.54377 25.9858 7.07777 23.1765C7.14362 23.565 6.92075 23.9641 6.41423 24.2582C5.54301 24.7623 4.15514 24.7466 3.31431 24.2267C2.85337 23.9379 2.6558 23.5598 2.71658 23.1922C2.26578 26.0069 1.81498 28.8267 1.36418 31.6414C1.35405 31.7149 1.34897 33.2955 1.35404 34.0149C1.35404 34.5506 1.68329 35.0809 2.34683 35.4958C3.71444 36.3465 5.97353 36.3727 7.40192 35.5483C8.13638 35.1229 8.5011 34.5611 8.5011 33.9939C8.49603 33.2693 8.48588 31.6887 8.47575 31.6151Z" fill="#FF9C1A" stroke="#00402A" stroke-width="0.510008" stroke-miterlimit="10" stroke-linejoin="round"/>
<path d="M56.742 61.132V60.0818L53.5813 58.664L54.2094 62.6496L56.742 61.132Z" fill="#B0A9A3" stroke="#00402A" stroke-width="0.510008" stroke-miterlimit="10" stroke-linejoin="round"/>
<path d="M25.4897 61.132V60.0818L28.6504 58.664L28.0274 62.6496L25.4897 61.132Z" fill="#B0A9A3" stroke="#00402A" stroke-width="0.510008" stroke-miterlimit="10" stroke-linejoin="round"/>
<path d="M51.6212 56.6634C48.7087 54.92 44.8946 54.0483 41.0754 54.0483C37.2613 54.0483 33.4421 54.92 30.5347 56.6634C27.6222 58.4068 26.1685 60.6911 26.1685 62.9753V68.1215C26.1685 70.4058 27.6222 72.6901 30.5347 74.4335C33.4472 76.1769 37.2613 77.0485 41.0805 77.0485C44.8946 77.0485 48.7138 76.1769 51.6212 74.4335C54.5337 72.6901 55.9875 70.4058 55.9875 68.1215V62.9753C55.9875 60.6911 54.5337 58.4068 51.6212 56.6634Z" fill="#615D5A" stroke="#00402A" stroke-width="0.510008" stroke-miterlimit="10" stroke-linejoin="round"/>
<path d="M41.0803 54.0483C37.2662 54.0483 33.447 54.92 30.5396 56.6634C27.6271 58.4068 26.1733 60.6911 26.1733 62.9753C26.1733 65.2596 27.6271 67.5439 30.5396 69.2873C33.4521 71.0307 37.2662 71.9024 41.0854 71.9024C44.8995 71.9024 48.7187 71.0307 51.6261 69.2873C54.5386 67.5439 55.9924 65.2596 55.9924 62.9753C55.9924 60.6911 54.5386 58.4068 51.6261 56.6634C48.7085 54.92 44.8945 54.0483 41.0803 54.0483Z" fill="#B0A9A3" stroke="#00402A" stroke-width="0.510008" stroke-miterlimit="10" stroke-linejoin="round"/>
<path d="M48.6786 54.9515C46.5815 53.6964 43.8311 53.0663 41.0807 53.0663C38.3303 53.0663 35.5799 53.6964 33.4829 54.9515C31.3859 56.2065 30.3323 57.8554 30.3323 59.499V62.97C30.3323 64.6189 31.3808 66.2626 33.4829 67.5176C35.5799 68.7726 38.3303 69.4028 41.0807 69.4028C43.8311 69.4028 46.5815 68.7726 48.6786 67.5176C50.7756 66.2626 51.824 64.6137 51.824 62.97V59.499C51.8291 57.8554 50.7806 56.2065 48.6786 54.9515Z" fill="#FF9C1A" stroke="#00402A" stroke-width="0.510008" stroke-miterlimit="10" stroke-linejoin="round"/>
<path d="M41.0807 53.0663C38.3303 53.0663 35.5799 53.6964 33.4829 54.9515C31.3859 56.2065 30.3323 57.8554 30.3323 59.499C30.3323 61.1479 31.3808 62.7915 33.4829 64.0466C35.5799 65.3016 38.3303 65.9317 41.0807 65.9317C43.8311 65.9317 46.5815 65.3016 48.6786 64.0466C50.7756 62.7915 51.824 61.1426 51.824 59.499C51.824 57.8501 50.7756 56.2065 48.6786 54.9515C46.5815 53.6964 43.8311 53.0663 41.0807 53.0663Z" fill="#FFB536" stroke="#00402A" stroke-width="0.510008" stroke-miterlimit="10" stroke-linejoin="round"/>
<path d="M49.5945 75.5624L49.4983 71.1146L50.0808 71.4665L52.6185 76.4078V77.3741L49.5945 75.5624Z" fill="#615D5A" stroke="#00402A" stroke-width="0.510008" stroke-miterlimit="10" stroke-linejoin="round"/>
<path d="M54.2093 68.9985L53.6268 68.6466C53.0899 69.1245 52.4719 69.5813 51.7678 70.0014C51.0638 70.4215 50.304 70.7944 49.5037 71.1147L50.0862 71.4665L52.6239 76.4079V77.3741L56.747 74.9061V73.9398L54.2093 68.9985Z" fill="#B0A9A3" stroke="#00402A" stroke-width="0.510008" stroke-miterlimit="10" stroke-linejoin="round"/>
<path d="M32.6723 75.4942L32.7635 71.0464L32.181 71.3982L29.6433 76.3396V77.3058L32.6723 75.4942Z" fill="#615D5A" stroke="#00402A" stroke-width="0.510008" stroke-miterlimit="10" stroke-linejoin="round"/>
<path d="M30.4991 69.9332C29.7951 69.5131 29.1721 69.0562 28.6402 68.5784L28.0577 68.9302L25.52 73.8716V74.8378L29.6431 77.3059V76.3396L32.1808 71.3983L32.7633 71.0464C31.963 70.7261 31.2032 70.3585 30.4991 69.9332Z" fill="#B0A9A3" stroke="#00402A" stroke-width="0.510008" stroke-miterlimit="10" stroke-linejoin="round"/>
<path d="M39.5863 63.2799L32.3076 58.9109L36.9322 55.13L44.2058 59.499L39.5863 63.2799Z" fill="#FFB536" stroke="#00402A" stroke-width="0.510008" stroke-miterlimit="10" stroke-linejoin="round"/>
<path d="M42.9392 45.6463C41.2272 44.6171 37.2712 42.3118 35.5946 42.0073C34.6525 41.834 33.604 42.1123 32.5758 42.7267C30.7928 43.7927 29.0605 45.8879 28.012 48.4295C26.5735 51.9215 26.9989 55.1563 28.7464 56.2118L33.8877 59.31C32.1402 58.2545 31.7147 55.0197 33.1532 51.5277C34.2017 48.9861 35.934 46.8909 37.717 45.8249C38.7452 45.2105 39.7937 44.9322 40.7358 45.1055C42.4175 45.4101 46.3734 47.7153 48.0804 48.7446C46.3684 47.7101 44.6513 46.6756 42.9392 45.6463Z" fill="#FFB536" stroke="#00402A" stroke-width="0.510008" stroke-miterlimit="10" stroke-linejoin="round"/>
<path d="M37.7123 45.8249C38.7405 45.2105 39.789 44.9322 40.7311 45.1055C42.8484 45.4888 48.5721 49.0439 48.876 49.2329C50.0056 49.9733 50.2183 52.0528 49.2863 54.3161C48.5974 55.9912 47.4476 57.3618 46.2674 58.0707C45.8724 58.307 45.4722 58.4698 45.0822 58.538C44.6719 58.6115 36.8816 59.9874 34.744 59.6303C32.2975 59.2154 31.4922 55.5396 33.1434 51.5329C34.197 48.9809 35.9293 46.8909 37.7123 45.8249Z" fill="#FF9C1A" stroke="#00402A" stroke-width="0.510008" stroke-miterlimit="10" stroke-linejoin="round"/>
<path d="M32.1707 15.725L32.1605 12.59L31.1323 11.9704L31.1424 15.1054C31.1424 15.7618 31.3704 16.2239 31.73 16.4392L32.7582 17.0588C32.3986 16.8435 32.1758 16.3814 32.1707 15.725Z" fill="#FFCD52" stroke="#00402A" stroke-width="0.510008" stroke-miterlimit="10" stroke-linejoin="round"/>
<path d="M32.1605 12.5953L31.1323 11.9704L35.1541 9.56531L36.1823 10.1849L32.1605 12.5953Z" fill="#FFF5EC" stroke="#00402A" stroke-width="0.510008" stroke-miterlimit="10" stroke-linejoin="round"/>
<path d="M36.1824 10.1849L36.1926 13.3199C36.1976 14.6432 35.3011 16.2553 34.1867 16.917C33.0775 17.5786 32.1759 17.0483 32.1708 15.725L32.1606 12.59L36.1824 10.1849Z" fill="#FF9C1A" stroke="#00402A" stroke-width="0.510008" stroke-miterlimit="10" stroke-linejoin="round"/>
<path d="M41.0856 47.0957C40.3157 46.6283 39.2419 46.6966 38.0617 47.4003C35.7165 48.8023 33.8221 52.2104 33.8272 55.004C33.8322 56.3903 34.3033 57.367 35.0681 57.8292C35.3923 58.0234 35.7216 58.223 36.0457 58.4173C36.0609 58.4278 36.0812 58.4383 36.0964 58.4488C35.3315 57.9919 34.8604 57.0152 34.8554 55.6236C34.8453 52.83 36.7447 49.4272 39.0899 48.0199C40.2701 47.311 41.3389 47.248 42.1139 47.7153C41.7745 47.5105 41.43 47.3057 41.0856 47.0957Z" fill="#FFCD52" stroke="#00402A" stroke-width="0.510008" stroke-miterlimit="10" stroke-linejoin="round"/>
<path d="M39.0951 48.0251C41.4403 46.6231 43.3499 47.7468 43.355 50.5457C43.3651 53.3393 41.4657 56.7421 39.1205 58.1494C36.7752 59.5515 34.8657 58.4278 34.8606 55.6341C34.8555 52.83 36.7499 49.4272 39.0951 48.0251Z" fill="#FF9C1A" stroke="#00402A" stroke-width="0.510008" stroke-miterlimit="10" stroke-linejoin="round"/>
<path d="M39.0948 48.9021C41.0348 47.7416 42.6101 48.6711 42.6151 50.9816C42.6202 53.2921 41.055 56.1015 39.1151 57.262C37.1751 58.4225 35.5998 57.4931 35.5947 55.1826C35.5947 52.8773 37.1599 50.0626 39.0948 48.9021Z" fill="#00402A"/>
<path d="M39.1001 49.527C40.7514 48.5398 42.0886 49.3327 42.0937 51.2966C42.0988 53.2606 40.7666 55.6551 39.1153 56.6424C37.4641 57.6296 36.1268 56.8367 36.1167 54.8727C36.1167 52.9088 37.4489 50.5142 39.1001 49.527Z" fill="#FF9C1A"/>
<path d="M49.5242 53.082L45.2846 55.6236L43.1775 58.8793L44.2057 59.499L46.3129 56.2432L50.5525 53.7017L49.5242 53.082Z" fill="#FFCD52" stroke="#00402A" stroke-width="0.510008" stroke-miterlimit="10" stroke-linejoin="round"/>
<path d="M39.0038 65.2228L31.7251 60.8538L32.3076 58.9109L39.5863 63.2799L39.0038 65.2228Z" fill="#FFCD52" stroke="#00402A" stroke-width="0.510008" stroke-miterlimit="10" stroke-linejoin="round"/>
<path d="M50.5524 53.7017L50.5676 58.3017L39.0037 65.2228L39.5862 63.2799L44.2057 59.499L46.3128 56.2432L50.5524 53.7017Z" fill="#FF9C1A" stroke="#00402A" stroke-width="0.510008" stroke-miterlimit="10" stroke-linejoin="round"/>
<path d="M40.7918 2.32922L37.3272 0.255005L24.9883 7.69069L28.4478 9.76493L29.3393 11.8969L29.3292 15.9929L41.6681 8.55716L41.6833 4.46121L40.7918 2.32922Z" fill="#FFB536" stroke="#00402A" stroke-width="0.510008" stroke-miterlimit="10" stroke-linejoin="round"/>
<path d="M28.4479 9.76491L29.3394 11.8969L29.3292 15.9928L24.0715 12.8526L24.0867 8.75143L24.9883 7.69067L28.4479 9.76491Z" fill="#FFCD52" stroke="#00402A" stroke-width="0.510008" stroke-miterlimit="10" stroke-linejoin="round"/>
<path d="M26.7508 9.70707C26.2798 9.43401 25.8593 9.41299 25.5504 9.60204C23.8029 10.6575 22.0554 11.7078 20.3028 12.7633C20.2217 12.8105 20.1204 12.8945 20.0445 12.9523C19.7963 13.1361 19.6696 13.5562 19.6747 14.0288C19.6899 15.1788 20.475 16.5546 21.4273 17.106C21.9034 17.3791 22.3289 17.4001 22.6328 17.2058C22.6277 17.2058 22.6277 17.211 22.6277 17.211C24.4157 16.1345 26.2088 15.0528 27.9969 13.9763C28.316 13.7872 28.5085 13.3724 28.5034 12.7895C28.4933 11.6343 27.7081 10.2584 26.7508 9.70707Z" fill="#FFB536" stroke="#00402A" stroke-width="0.510008" stroke-miterlimit="10" stroke-linejoin="round"/>
<path d="M21.3869 13.2937C20.9969 13.0679 20.6474 13.0521 20.3891 13.2044C16.1545 15.7565 11.915 18.3086 7.68042 20.8607C7.93368 20.7084 8.28823 20.7241 8.67826 20.9499C9.4735 21.4068 10.1218 22.5515 10.132 23.502C10.137 23.9851 9.97494 24.3264 9.71155 24.4892C13.9461 21.9371 18.1857 19.3851 22.4202 16.833C22.6836 16.6754 22.8457 16.3341 22.8406 15.8457C22.8305 14.8953 22.1771 13.7505 21.3869 13.2937Z" fill="#FFB536" stroke="#00402A" stroke-width="0.510008" stroke-miterlimit="10" stroke-linejoin="round"/>
<path d="M10.1319 23.5072C10.142 24.4577 9.50891 24.862 8.71873 24.4051C7.92349 23.9483 7.27514 22.8035 7.26501 21.853C7.25488 20.9026 7.88802 20.4982 8.6782 20.9551C9.46838 21.4067 10.1218 22.5515 10.1319 23.5072Z" fill="#FFCD52" stroke="#00402A" stroke-width="0.510008" stroke-miterlimit="10" stroke-linejoin="round"/>
<path d="M13.3484 19.217C12.9989 19.007 12.5127 19.0332 11.9757 19.3588L6.07473 22.2155C4.69699 23.0399 3.58773 25.0354 3.59279 26.6738C3.59279 27.4877 3.87137 28.0601 4.31711 28.3279L5.55303 29.0735C5.10729 28.8057 4.82871 28.2333 4.82871 27.4194C4.82364 25.781 5.93797 23.7856 7.31065 22.9611L13.2117 20.1045C13.7486 19.7842 14.2298 19.7527 14.5843 19.9627L13.3484 19.217Z" fill="#FFCD52" stroke="#00402A" stroke-width="0.510008" stroke-miterlimit="10" stroke-linejoin="round"/>
<path d="M7.31052 22.9611L13.2115 20.1045C14.2752 19.4691 15.1414 19.9784 15.1464 21.244C15.1515 22.5095 14.2904 24.0534 13.2267 24.694L7.3308 28.9002C5.95306 29.7247 4.83365 29.063 4.83365 27.4246C4.81845 25.781 5.93278 23.7803 7.31052 22.9611Z" fill="#FF9C1A" stroke="#00402A" stroke-width="0.510008" stroke-miterlimit="10" stroke-linejoin="round"/>
<path d="M9.08326 25.0563C9.08326 26.1696 8.32854 27.5191 7.4016 28.0758C6.47466 28.6324 5.71997 28.1808 5.71997 27.0675C5.71997 25.9543 6.47466 24.6047 7.4016 24.0481C8.3336 23.4967 9.08326 23.9483 9.08326 25.0563Z" fill="#00402A"/>
<path d="M8.71369 25.2821C8.71369 26.1486 8.12611 27.1988 7.40685 27.6347C6.68252 28.0653 6.09497 27.7187 6.09497 26.8522C6.09497 25.9858 6.68252 24.9355 7.40685 24.4997C8.12611 24.0638 8.71369 24.4157 8.71369 25.2821Z" fill="#FF9C1A"/>
<path d="M14.5792 21.6956C14.5792 22.5726 13.9866 23.6438 13.2521 24.0797C12.5177 24.5208 11.925 24.1637 11.925 23.2867C11.925 22.4098 12.5177 21.3385 13.2521 20.9027C13.9866 20.4616 14.5792 20.8187 14.5792 21.6956Z" fill="#00402A"/>
<path d="M14.2446 21.8951C14.2446 22.5515 13.7989 23.3497 13.2518 23.6806C12.7048 24.0114 12.259 23.7436 12.259 23.0872C12.259 22.4308 12.7048 21.6326 13.2518 21.3018C13.7989 20.9709 14.2446 21.2387 14.2446 21.8951Z" fill="#FF9C1A"/>
</svg>
