<svg width="43" height="67" viewBox="0 0 43 67" fill="none" xmlns="http://www.w3.org/2000/svg">
<path d="M28.9963 63.0514C28.9963 64.0987 28.5799 65.1031 27.8388 65.8436C27.0976 66.5841 26.0923 67.0002 25.0441 67.0002H17.9509C16.9027 67.0002 15.8975 66.5841 15.1564 65.8436C14.4152 65.1031 13.9988 64.0987 13.9988 63.0514V51.894H28.9976L28.9963 63.0514Z" fill="#B0A9A3"/>
<path d="M21.4977 51.894H14.0024V63.0514C14.0024 64.0987 14.4188 65.1031 15.16 65.8436C15.9012 66.5841 16.9064 67.0002 17.9545 67.0002H21.4977V51.894Z" fill="#795547"/>
<path d="M21.4977 51.894H14.0024V63.0514C14.0024 64.0987 14.4188 65.1031 15.16 65.8436C15.9012 66.5841 16.9064 67.0002 17.9545 67.0002H21.4977V51.894Z" fill="#D8CFC7"/>
<path d="M28.999 55.5308H14.0002V57.9259H28.999V55.5308Z" fill="#B0A9A3"/>
<path d="M28.9987 55.5308H21.502V57.9259H28.9987V55.5308Z" fill="#89837E"/>
<path d="M28.996 60.6372H13.9972V63.0323H28.996V60.6372Z" fill="#B0A9A3"/>
<path d="M28.9959 60.6372H21.5005V63.0323H28.9959V60.6372Z" fill="#89837E"/>
<path d="M21.4993 1.72668e-07C18.676 -0.000357505 15.8803 0.554979 13.2718 1.63431C10.6633 2.71364 8.2931 4.2958 6.29665 6.29046C4.3002 8.28512 2.71659 10.6532 1.63619 13.2594C0.555797 15.8657 -0.000178965 18.6591 4.3213e-08 21.48C4.3213e-08 37.7953 13.9999 38.1548 13.9999 51.8939H28.9987C28.9987 38.1548 43 37.7953 43 21.48C42.9998 18.659 42.4436 15.8657 41.363 13.2595C40.2824 10.6534 38.6985 8.2854 36.702 6.2908C34.7055 4.29619 32.3354 2.71402 29.7269 1.63464C27.1184 0.555265 24.3227 -0.000178647 21.4993 1.72668e-07Z" fill="#FFCD52"/>
<path d="M21.4993 0V51.8939H28.9946C28.9946 38.1548 42.9959 37.7953 42.9959 21.48C42.9955 15.7835 40.7306 10.3204 36.6993 6.29223C32.668 2.26406 27.2005 0.000722163 21.4993 0Z" fill="#FF9C1A"/>
<path d="M31.5513 19.4865C30.2975 19.4865 30.2975 18.5933 29.0451 18.5933C27.7927 18.5933 27.7913 19.4865 26.5403 19.4865C25.2892 19.4865 25.2879 18.5933 24.0369 18.5933C22.7858 18.5933 22.7858 19.4865 21.5348 19.4865C20.2838 19.4865 20.2824 18.5933 19.03 18.5933C17.7776 18.5933 17.7775 19.4865 16.5265 19.4865C15.2754 19.4865 15.2754 18.5933 14.0244 18.5933C12.7979 18.5933 12.7679 19.4457 11.5932 19.4797V21.2662C12.7679 21.2335 12.7298 20.5254 13.974 20.3743C15.2182 20.2232 15.2809 21.2662 16.532 21.2662C17.783 21.2662 17.7858 20.3743 19.0395 20.3743C20.2933 20.3743 20.2905 21.2662 21.5429 21.2662C22.7953 21.2662 22.7913 20.3743 24.045 20.3743C25.2988 20.3743 25.2974 21.2662 26.5484 21.2662C27.7995 21.2662 27.7995 20.3743 29.0547 20.3743C30.3098 20.3743 30.303 21.2662 31.554 21.2662C31.7842 21.2568 32.0018 21.1588 32.1612 20.9927C32.3206 20.8266 32.4094 20.6052 32.4091 20.375C32.4087 20.1449 32.3192 19.9238 32.1593 19.7582C31.9994 19.5925 31.7814 19.4952 31.5513 19.4865Z" fill="#FFFEFF"/>
<path d="M29.0451 18.5933C27.7913 18.5933 27.7913 19.4865 26.5403 19.4865C25.2892 19.4865 25.2879 18.5933 24.0369 18.5933C22.7858 18.5933 22.7858 19.4838 21.5361 19.4865V21.2662H21.543C22.7913 21.2662 22.7913 20.3743 24.045 20.3743C25.2988 20.3743 25.2974 21.2662 26.5484 21.2662C27.7995 21.2662 27.7995 20.3743 29.0547 20.3743C30.3098 20.3743 30.303 21.2662 31.554 21.2662C31.7842 21.2572 32.0019 21.1595 32.1615 20.9936C32.3212 20.8277 32.4104 20.6065 32.4104 20.3763C32.4104 20.1462 32.3212 19.925 32.1615 19.7591C32.0019 19.5932 31.7842 19.4955 31.554 19.4865C30.2975 19.4865 30.2975 18.5933 29.0451 18.5933Z" fill="white"/>
<path d="M33.0027 18.4816C32.8957 18.4196 32.7775 18.3793 32.6548 18.3631C32.5322 18.3469 32.4076 18.3551 32.2881 18.3872C32.1686 18.4194 32.0567 18.4748 31.9588 18.5504C31.8609 18.626 31.7789 18.7201 31.7176 18.8275L21.4967 36.5058L22.5869 38.389L33.3529 19.7657C33.4145 19.6584 33.4543 19.5401 33.4701 19.4175C33.4858 19.2948 33.4771 19.1703 33.4446 19.051C33.4121 18.9317 33.3562 18.82 33.2804 18.7223C33.2046 18.6246 33.1102 18.5428 33.0027 18.4816Z" fill="white"/>
<path d="M11.2839 18.8275C11.2222 18.7202 11.14 18.6261 11.042 18.5505C10.9439 18.475 10.832 18.4195 10.7124 18.3872C10.5929 18.3549 10.4682 18.3464 10.3454 18.3623C10.2226 18.3781 10.1042 18.418 9.99678 18.4796C9.8894 18.5412 9.79516 18.6233 9.71955 18.7213C9.64393 18.8193 9.58843 18.9311 9.5561 19.0506C9.52377 19.17 9.51528 19.2946 9.53115 19.4173C9.54702 19.54 9.58686 19.6584 9.64851 19.7657L20.4077 38.3917L21.498 36.5058L11.2839 18.8275Z" fill="#FFFEFF"/>
<path d="M20.4117 38.3917L21.502 40.2749L22.5923 38.389L21.502 36.5059L20.4117 38.3917Z" fill="#FFFEFF"/>
<path d="M22.5869 38.389L21.4967 36.5059V40.2749L22.5869 38.389Z" fill="white"/>
<path d="M22.9412 41.0196C22.9412 40.7668 22.8407 40.5243 22.6618 40.3456C22.4829 40.1668 22.2402 40.0664 21.9872 40.0664H21.0332C20.9074 40.0655 20.7826 40.0895 20.6661 40.137C20.5495 40.1845 20.4436 40.2546 20.3543 40.3432C20.265 40.4318 20.1941 40.5372 20.1457 40.6532C20.0973 40.7693 20.0725 40.8938 20.0725 41.0196V51.8937H22.9493L22.9412 41.0196Z" fill="#00A443"/>
</svg>
