<svg width="90" height="68" viewBox="0 0 90 68" fill="none" xmlns="http://www.w3.org/2000/svg">
<path d="M5.45571 0.446777H83.8671C86.8777 0.446777 89.3228 3.00503 89.3228 6.15487V62.1905C89.3228 65.3403 86.8777 67.8986 83.8671 67.8986H5.45571C2.44514 67.8986 0 65.3403 0 62.1905V6.15487C0 3.00503 2.44514 0.446777 5.45571 0.446777Z" fill="#3A3735"/>
<path d="M5.45569 2.35059H83.8688C85.8752 2.35059 87.5048 4.05551 87.5048 6.15482V62.1904C87.5048 64.2897 85.8752 65.9964 83.8671 65.9964H5.45569C3.4492 65.9964 1.81799 64.2915 1.81799 62.1904V6.15482C1.81799 4.05551 3.44753 2.35059 5.45402 2.35059H5.45569Z" fill="#FFFEFF"/>
<path d="M14.5008 0.640437H18.7256C18.7256 0.287935 18.4521 0 18.1135 0H15.1112C14.7743 0 14.5008 0.28619 14.5008 0.640437Z" fill="#3A3735"/>
<path d="M8.91498 0.640437H13.1398C13.1398 0.287935 12.8662 0 12.5277 0H9.52543C9.18851 0 8.91498 0.28619 8.91498 0.640437Z" fill="#3A3735"/>
<path d="M57.1873 65.1552H30.9329C30.676 65.1552 30.4675 64.937 30.4675 64.6666C30.4675 64.3961 30.676 64.1797 30.9329 64.1797H57.1873C57.4442 64.1797 57.6543 64.3978 57.6543 64.6666C57.6543 64.9353 57.4458 65.1552 57.1873 65.1552Z" fill="#615D5A"/>
<path d="M82.2043 10.4305H44.3612C44.2945 10.4305 44.2411 10.3746 44.2411 10.3048C44.2411 10.235 44.2945 10.1792 44.3612 10.1792H82.2043C82.271 10.1792 82.3244 10.235 82.3244 10.3048C82.3244 10.3746 82.271 10.4305 82.2043 10.4305Z" fill="#B4DEF7"/>
<path d="M82.2043 14.9603H44.3612C44.2945 14.9603 44.2411 14.9044 44.2411 14.8346C44.2411 14.7648 44.2945 14.709 44.3612 14.709H82.2043C82.271 14.709 82.3244 14.7648 82.3244 14.8346C82.3244 14.9044 82.271 14.9603 82.2043 14.9603Z" fill="#B4DEF7"/>
<path d="M82.2043 19.4905H44.3612C44.2945 19.4905 44.2411 19.433 44.2411 19.3649C44.2411 19.2968 44.2945 19.2393 44.3612 19.2393H82.2043C82.271 19.2393 82.3244 19.2951 82.3244 19.3649C82.3244 19.4347 82.271 19.4905 82.2043 19.4905Z" fill="#B4DEF7"/>
<path d="M82.2043 24.0208H44.3612C44.2945 24.0208 44.2411 23.9632 44.2411 23.8952C44.2411 23.8271 44.2945 23.7695 44.3612 23.7695H82.2043C82.271 23.7695 82.3244 23.8254 82.3244 23.8952C82.3244 23.965 82.271 24.0208 82.2043 24.0208Z" fill="#B4DEF7"/>
<path d="M82.2043 28.5491H44.3612C44.2945 28.5491 44.2411 28.4933 44.2411 28.4235C44.2411 28.3537 44.2945 28.2979 44.3612 28.2979H82.2043C82.271 28.2979 82.3244 28.3537 82.3244 28.4235C82.3244 28.4933 82.271 28.5491 82.2043 28.5491Z" fill="#B4DEF7"/>
<path d="M46.8747 24.9717H49.2014C49.2898 24.9717 49.3616 25.0467 49.3616 25.1392V28.132C49.3616 28.2245 49.2898 28.2995 49.2014 28.2995H46.8747C46.7863 28.2995 46.7146 28.2245 46.7146 28.132V25.1392C46.7146 25.0467 46.7863 24.9717 46.8747 24.9717Z" fill="#00402A"/>
<path d="M51.9568 20.1431H54.2835C54.3719 20.1431 54.4436 20.2181 54.4436 20.3106V28.1319C54.4436 28.2244 54.3719 28.2995 54.2835 28.2995H51.9568C51.8684 28.2995 51.7966 28.2244 51.7966 28.1319V20.3106C51.7966 20.2181 51.8684 20.1431 51.9568 20.1431Z" fill="#0DA9FF"/>
<path d="M57.0373 16.3232H59.364C59.4524 16.3232 59.5241 16.3983 59.5241 16.4908V28.1321C59.5241 28.2245 59.4524 28.2996 59.364 28.2996H57.0373C56.9489 28.2996 56.8771 28.2245 56.8771 28.1321V16.4908C56.8771 16.3983 56.9489 16.3232 57.0373 16.3232Z" fill="#007F33"/>
<path d="M62.1193 21.9478H64.446C64.5344 21.9478 64.6061 22.0228 64.6061 22.1153V28.1305C64.6061 28.223 64.5344 28.298 64.446 28.298H62.1193C62.0309 28.298 61.9592 28.223 61.9592 28.1305V22.1153C61.9592 22.0228 62.0309 21.9478 62.1193 21.9478Z" fill="#007ACB"/>
<path d="M67.1998 13.3413H69.5265C69.6149 13.3413 69.6866 13.4163 69.6866 13.5088V28.1324C69.6866 28.2249 69.6149 28.3 69.5265 28.3H67.1998C67.1114 28.3 67.0397 28.2249 67.0397 28.1324V13.5088C67.0397 13.4163 67.1114 13.3413 67.1998 13.3413Z" fill="#26BF64"/>
<path d="M72.2819 17.4561H74.6086C74.697 17.4561 74.7687 17.5311 74.7687 17.6236V28.1323C74.7687 28.2248 74.697 28.2999 74.6086 28.2999H72.2819C72.1935 28.2999 72.1218 28.2248 72.1218 28.1323V17.6236C72.1218 17.5311 72.1935 17.4561 72.2819 17.4561Z" fill="#0DA9FF"/>
<path d="M79.689 11.4946H77.3639C77.2755 11.4946 77.2038 11.5696 77.2038 11.6622V28.1303C77.2038 28.2228 77.2755 28.2978 77.3639 28.2978H79.689C79.7774 28.2978 79.8491 28.2228 79.8491 28.1303V11.6622C79.8491 11.5696 79.7774 11.4946 79.689 11.4946Z" fill="#FFCD52"/>
<path d="M44.3613 28.4237C44.3246 28.4237 44.2879 28.4062 44.2645 28.373C44.2245 28.3172 44.2362 28.2387 44.2895 28.1968L58.1298 17.3547C58.1765 17.3181 58.2432 17.3216 58.2866 17.3652L63.4704 22.6737L68.2606 14.1403C68.279 14.1089 68.309 14.0862 68.3424 14.081C68.3774 14.074 68.4124 14.0845 68.4408 14.1072L73.4311 18.3704L81.1952 8.83711C81.2386 8.78301 81.3136 8.77778 81.3653 8.82315C81.417 8.86852 81.422 8.94705 81.3787 9.00114L73.5379 18.6269C73.4962 18.6792 73.4211 18.6862 73.3711 18.6426L68.3974 14.3951L63.6005 22.9407C63.5822 22.9738 63.5488 22.9965 63.5121 23.0018C63.4754 23.007 63.4387 22.993 63.412 22.9669L58.1915 17.6217L44.4346 28.3992C44.413 28.4167 44.3879 28.4237 44.3629 28.4237H44.3613Z" fill="#615D5A"/>
<path d="M44.5997 28.6313C44.4229 28.7692 44.1743 28.7325 44.0426 28.5476C43.9108 28.3643 43.9458 28.1026 44.1226 27.9647C44.2994 27.8269 44.548 27.8635 44.6797 28.0485C44.8115 28.2335 44.7765 28.4935 44.5997 28.6313Z" fill="#615D5A"/>
<path d="M81.5154 9.79868L82.7096 7.17236L80.4196 8.82319L81.5154 9.79868Z" fill="#615D5A"/>
<path d="M78.865 56.814H47.3384C47.1749 56.814 47.0432 56.6762 47.0432 56.5052C47.0432 56.3341 47.1749 56.1963 47.3384 56.1963H78.865C79.0285 56.1963 79.1603 56.3341 79.1603 56.5052C79.1603 56.6762 79.0285 56.814 78.865 56.814Z" fill="#B4DEF7"/>
<path d="M78.865 52.3433H47.3384C47.1749 52.3433 47.0432 52.2055 47.0432 52.0345C47.0432 51.8634 47.1749 51.7256 47.3384 51.7256H78.865C79.0285 51.7256 79.1603 51.8634 79.1603 52.0345C79.1603 52.2055 79.0285 52.3433 78.865 52.3433Z" fill="#B4DEF7"/>
<path d="M78.865 47.8724H47.3384C47.1749 47.8724 47.0432 47.7328 47.0432 47.5618C47.0432 47.3908 47.1749 47.2529 47.3384 47.2529H78.865C79.0285 47.2529 79.1603 47.3908 79.1603 47.5618C79.1603 47.7328 79.0285 47.8724 78.865 47.8724Z" fill="#B4DEF7"/>
<path d="M78.865 43.4017H47.3384C47.1749 43.4017 47.0432 43.2621 47.0432 43.0911C47.0432 42.9201 47.1749 42.7822 47.3384 42.7822H78.865C79.0285 42.7822 79.1603 42.9201 79.1603 43.0911C79.1603 43.2621 79.0285 43.4017 78.865 43.4017Z" fill="#B4DEF7"/>
<path d="M78.865 38.9307H47.3384C47.1749 38.9307 47.0432 38.7929 47.0432 38.6219C47.0432 38.4508 47.1749 38.313 47.3384 38.313H78.865C79.0285 38.313 79.1603 38.4526 79.1603 38.6219C79.1603 38.7911 79.0285 38.9307 78.865 38.9307Z" fill="#B4DEF7"/>
<path d="M60.7834 57.0005H47.3401C47.0799 57.0005 46.8664 56.7788 46.8664 56.5049C46.8664 56.2309 47.0782 56.0093 47.3401 56.0093H60.7834C61.0436 56.0093 61.257 56.2309 61.257 56.5049C61.257 56.7788 61.0452 57.0005 60.7834 57.0005Z" fill="#E3850D"/>
<path d="M60.7834 57.3427C61.2254 57.3427 61.584 56.9675 61.584 56.5051C61.584 56.0427 61.2254 55.6675 60.7834 55.6675C60.3414 55.6675 59.9828 56.0427 59.9828 56.5051C59.9828 56.9675 60.3414 57.3427 60.7834 57.3427Z" fill="#C66D00"/>
<path d="M62.4029 52.5298H47.3384C47.0782 52.5298 46.8647 52.3081 46.8647 52.0342C46.8647 51.7602 47.0765 51.5386 47.3384 51.5386H62.4029C62.6631 51.5386 62.8765 51.7602 62.8765 52.0342C62.8765 52.3081 62.6647 52.5298 62.4029 52.5298Z" fill="#26BF64"/>
<path d="M62.4028 52.872C62.8448 52.872 63.2034 52.4968 63.2034 52.0344C63.2034 51.572 62.8448 51.1968 62.4028 51.1968C61.9608 51.1968 61.6022 51.572 61.6022 52.0344C61.6022 52.4968 61.9608 52.872 62.4028 52.872Z" fill="#61A5A8"/>
<path d="M74.9572 48.0591H47.3384C47.0782 48.0591 46.8647 47.8374 46.8647 47.5635C46.8647 47.2895 47.0765 47.0679 47.3384 47.0679H74.9572C75.2173 47.0679 75.4292 47.2895 75.4292 47.5635C75.4292 47.8374 75.2173 48.0591 74.9572 48.0591Z" fill="#0DA9FF"/>
<path d="M74.9572 48.4008C75.3991 48.4008 75.7577 48.0257 75.7577 47.5632C75.7577 47.1008 75.3991 46.7256 74.9572 46.7256C74.5152 46.7256 74.1566 47.1008 74.1566 47.5632C74.1566 48.0257 74.5152 48.4008 74.9572 48.4008Z" fill="#007ACB"/>
<path d="M69.0178 43.5866H47.3384C47.0782 43.5866 46.8647 43.365 46.8647 43.091C46.8647 42.817 47.0765 42.5972 47.3384 42.5972H69.0178C69.2796 42.5972 69.4914 42.8188 69.4914 43.091C69.4914 43.3632 69.2796 43.5866 69.0178 43.5866Z" fill="#FFCD52"/>
<path d="M69.0178 43.9282C69.4597 43.9282 69.8183 43.553 69.8183 43.0906C69.8183 42.6281 69.4597 42.2529 69.0178 42.2529C68.5758 42.2529 68.2172 42.6281 68.2172 43.0906C68.2172 43.553 68.5758 43.9282 69.0178 43.9282Z" fill="#FF9C1A"/>
<path d="M52.7807 39.1157H47.3384C47.0782 39.1157 46.8647 38.8941 46.8647 38.6201C46.8647 38.3461 47.0765 38.1245 47.3384 38.1245H52.7807C53.0426 38.1245 53.2544 38.3461 53.2544 38.6201C53.2544 38.8941 53.0426 39.1157 52.7807 39.1157Z" fill="#699282"/>
<path d="M52.7808 39.4575C53.2228 39.4575 53.5814 39.0823 53.5814 38.6199C53.5814 38.1574 53.2228 37.7822 52.7808 37.7822C52.3388 37.7822 51.9802 38.1574 51.9802 38.6199C51.9802 39.0823 52.3388 39.4575 52.7808 39.4575Z" fill="#00402A"/>
<path d="M23.6359 12.7305H18.2903V14.9223H23.6359V12.7305Z" fill="#0DA9FF"/>
<path d="M23.6359 15.1523H18.2903V17.3406H23.6359V15.1523Z" fill="#2F627C"/>
<path d="M7.16534 10.8106V12.4998H12.511V10.3115H7.64236C7.37884 10.3115 7.16534 10.5349 7.16534 10.8106Z" fill="#FF9C1A"/>
<path d="M18.0684 12.7305H12.7311V14.9223H18.0684V12.7305Z" fill="#26BF64"/>
<path d="M39.8479 10.3115H34.9793V12.4998H40.3249V10.8106C40.3249 10.5349 40.1114 10.3115 39.8479 10.3115Z" fill="#26BF64"/>
<path d="M34.7591 15.1523H29.4218V17.3406H34.7591V15.1523Z" fill="#FFCD52"/>
<path d="M34.7591 12.7305H29.4218V14.9223H34.7591V12.7305Z" fill="#007ACB"/>
<path d="M29.2016 10.3115H23.856V12.4998H29.2016V10.3115Z" fill="#3A8F92"/>
<path d="M39.8479 10.0811H7.64237C7.25709 10.0811 6.94519 10.4091 6.94519 10.8105V16.8414C6.94519 17.2445 7.25876 17.5709 7.64237 17.5709H39.8479C40.2332 17.5709 40.5467 17.2428 40.5467 16.8414V10.8105C40.5467 10.4074 40.2332 10.0811 39.8479 10.0811ZM12.511 17.3405H7.64237C7.37885 17.3405 7.16535 17.1171 7.16535 16.8414V15.1522H12.511V17.3405ZM12.511 14.9219H7.16535V12.7301H12.511V14.9219ZM12.511 12.4997H7.16535V10.8105C7.16535 10.5348 7.37885 10.3114 7.64237 10.3114H12.511V12.4997ZM18.0684 17.3405H12.7311V15.1522H18.0684V17.3405ZM18.0684 14.9219H12.7311V12.7301H18.0684V14.9219ZM18.0684 12.4997H12.7311V10.3114H18.0684V12.4997ZM23.6359 17.3405H18.2903V15.1522H23.6359V17.3405ZM23.6359 14.9219H18.2903V12.7301H23.6359V14.9219ZM23.6359 12.4997H18.2903V10.3114H23.6359V12.4997ZM29.2017 17.3405H23.856V15.1522H29.2017V17.3405ZM29.2017 14.9219H23.856V12.7301H29.2017V14.9219ZM29.2017 12.4997H23.856V10.3114H29.2017V12.4997ZM34.7591 17.3405H29.4218V15.1522H34.7591V17.3405ZM34.7591 14.9219H29.4218V12.7301H34.7591V14.9219ZM34.7591 12.4997H29.4218V10.3114H34.7591V12.4997ZM40.3266 16.8414C40.3266 17.1171 40.1131 17.3405 39.8496 17.3405H34.981V15.1522H40.3266V16.8414ZM40.3266 14.9219H34.981V12.7301H40.3266V14.9219ZM40.3266 12.4997H34.981V10.3114H39.8496C40.1131 10.3114 40.3266 10.5348 40.3266 10.8105V12.4997Z" fill="#FFB536"/>
<path d="M21.8845 41.6422L10.8813 49.118C6.93507 42.7607 8.66135 34.2588 14.7392 30.13C16.9275 28.6432 19.2759 27.9155 21.8845 27.9155V41.6422Z" fill="#FFCD52"/>
<path d="M21.8845 41.6421L15.7249 53.7615C13.6784 52.622 12.1439 51.1527 10.8813 49.1179L21.8845 41.6421Z" fill="#007ACB"/>
<path d="M21.8846 41.6421L17.8299 54.6969C17.0026 54.4159 16.4923 54.1891 15.725 53.7615L21.8846 41.6421Z" fill="#3A8F92"/>
<path d="M21.8845 41.6421L30.3174 52.1578C26.7648 55.2762 22.2398 56.1959 17.8298 54.6969L21.8845 41.6421Z" fill="#26BF64"/>
<path d="M21.8846 41.6422L34.0486 36.4995C36.2202 42.1221 34.7574 48.2577 30.3175 52.1562L21.8846 41.6405V41.6422Z" fill="#00402A"/>
<path d="M21.8846 41.6422V27.9155C27.392 27.9155 31.9854 31.1578 34.0486 36.4995L21.8846 41.6422Z" fill="#FF9C1A"/>
</svg>
