<svg width="59" height="74" viewBox="0 0 59 74" fill="none" xmlns="http://www.w3.org/2000/svg">
<path d="M57.4302 10.6362V65.3214C57.4302 66.2348 56.6752 66.9821 55.7378 66.9821H3.06524C2.12792 66.9821 1.37286 66.2412 1.37286 65.3214V10.6362C2.51849 10.7704 3.6771 10.8918 4.83574 11.0067C8.86494 11.4092 12.9788 11.7094 17.1251 11.9074C30.5992 12.5525 44.4899 12.131 57.4302 10.6362Z" fill="#E0D7D0"/>
<path d="M57.4302 2.58121V10.6425C44.4899 12.1372 30.6058 12.5652 17.1251 11.9137C12.9788 11.7156 8.86494 11.4154 4.83574 11.013C3.6771 10.898 2.51849 10.7766 1.37286 10.6425V2.58121C1.37286 1.66777 2.12792 0.92041 3.06524 0.92041H55.7378C56.6687 0.92041 57.4302 1.66777 57.4302 2.58121Z" fill="#928881"/>
<path d="M29.3885 12.6867C25.2877 12.6867 21.1804 12.591 17.1056 12.3929C12.9397 12.1949 8.79986 11.8883 4.79019 11.4923C3.63154 11.3773 2.46639 11.2495 1.32076 11.1154C1.05388 11.0835 0.865094 10.8471 0.891131 10.5852C0.923678 10.3233 1.16453 10.1317 1.43141 10.1636C2.57052 10.2978 3.73567 10.4191 4.8878 10.5341C8.87795 10.9301 13.0048 11.2368 17.1512 11.4348C30.6643 12.0863 44.568 11.6455 57.3716 10.1636C57.6385 10.1317 57.8793 10.3233 57.9119 10.5852C57.9445 10.8471 57.7492 11.0835 57.4823 11.1154C48.4865 12.1566 38.944 12.6867 29.382 12.6867H29.3885Z" fill="#EFEFEF"/>
<path d="M55.3342 66.9819H3.48181V72.8587H55.3342V66.9819Z" fill="#928881"/>
<path d="M34.2119 10.01H24.5977C22.8728 10.01 21.2195 9.28821 20.0542 8.03623C19.6963 7.65296 19.3903 7.21221 19.1365 6.73953L16.7021 2.42783C16.5719 2.19787 16.6565 1.90404 16.8908 1.77629C17.1251 1.64853 17.4246 1.73159 17.5547 1.96154L19.9957 6.2796C19.9957 6.2796 19.9957 6.28601 20.0022 6.29239C20.2106 6.69483 20.4709 7.06531 20.7768 7.39108C21.7532 8.44505 23.1462 9.05186 24.5977 9.05186H34.2119C35.6634 9.05186 37.0564 8.44505 38.0327 7.39108C38.3387 7.06531 38.5925 6.69483 38.8074 6.29239C38.8074 6.29239 38.8074 6.286 38.8139 6.2796L41.2548 1.96154C41.385 1.73159 41.6844 1.64853 41.9188 1.77629C42.153 1.90404 42.2376 2.19787 42.1075 2.42783L39.673 6.73953C39.4257 7.21221 39.1198 7.64658 38.7553 8.03623C37.5901 9.28821 35.9368 10.01 34.2119 10.01Z" fill="#EFEFEF"/>
<path d="M47.1615 7.52313C47.4307 6.40381 46.7242 5.28226 45.5836 5.01807C44.443 4.75389 43.3002 5.44712 43.0309 6.56644C42.7618 7.68576 43.4681 8.80731 44.6087 9.07149C45.7494 9.33568 46.8922 8.64245 47.1615 7.52313Z" fill="#EFEFEF"/>
<path d="M45.1147 9.62049C43.6762 9.62049 42.5045 8.4707 42.5045 7.05901C42.5045 5.64733 43.6762 4.49756 45.1147 4.49756C46.5532 4.49756 47.725 5.64733 47.725 7.05901C47.725 8.4707 46.5532 9.62049 45.1147 9.62049ZM45.1147 5.46209C44.2165 5.46209 43.481 6.17752 43.481 7.0654C43.481 7.9533 44.21 8.66873 45.1147 8.66873C46.0195 8.66873 46.7485 7.9533 46.7485 7.0654C46.7485 6.17752 46.0195 5.46209 45.1147 5.46209Z" fill="#00A443"/>
<path d="M49.0464 39.266C49.0464 41.4825 48.6623 43.6159 47.9593 45.5961C47.7901 46.0687 47.6078 46.5287 47.406 46.9822C44.3727 53.7851 37.4534 58.5375 29.4016 58.5375C18.5573 58.5375 9.76324 49.9078 9.76324 39.266C9.76324 28.6241 18.5573 19.9878 29.4016 19.9878C37.4534 19.9878 44.3727 24.7403 47.406 31.5432C47.6078 31.9967 47.7966 32.4566 47.9593 32.9294C48.6623 34.9159 49.0464 37.0429 49.0464 39.2595V39.266Z" fill="#EFEFEF"/>
<path d="M53.3308 6.64663C53.5076 5.91185 53.0438 5.17561 52.295 5.0022C51.5463 4.82877 50.796 5.28385 50.6194 6.01861C50.4426 6.75337 50.9064 7.48961 51.6551 7.66304C52.4038 7.83645 53.154 7.38139 53.3308 6.64663Z" fill="#00A443"/>
<path d="M26.0232 4.40201H25.5871C25.3202 4.40201 25.0989 4.18482 25.0989 3.92293C25.0989 3.66103 25.3202 3.44385 25.5871 3.44385H26.0232C26.2901 3.44385 26.5114 3.66103 26.5114 3.92293C26.5114 4.18482 26.2901 4.40201 26.0232 4.40201Z" fill="#F59B00"/>
<path d="M26.0232 6.82291H25.5871C25.3202 6.82291 25.0989 6.60572 25.0989 6.34383C25.0989 6.08194 25.3202 5.86475 25.5871 5.86475H26.0232C26.2901 5.86475 26.5114 6.08194 26.5114 6.34383C26.5114 6.60572 26.2901 6.82291 26.0232 6.82291Z" fill="#F59B00"/>
<path d="M33.8668 4.40201H28.2624C27.9955 4.40201 27.7743 4.18482 27.7743 3.92293C27.7743 3.66103 27.9955 3.44385 28.2624 3.44385H33.8668C34.1338 3.44385 34.355 3.66103 34.355 3.92293C34.355 4.18482 34.1338 4.40201 33.8668 4.40201Z" fill="#EFEFEF"/>
<path d="M31.0614 6.82291H28.2559C27.989 6.82291 27.7678 6.60572 27.7678 6.34383C27.7678 6.08194 27.989 5.86475 28.2559 5.86475H31.0614C31.3283 5.86475 31.5495 6.08194 31.5495 6.34383C31.5495 6.60572 31.3283 6.82291 31.0614 6.82291Z" fill="#EFEFEF"/>
<path d="M42.2363 42.2249C43.9111 35.2618 39.5165 28.2848 32.421 26.6413C25.3254 24.9979 18.2157 29.3103 16.541 36.2735C14.8662 43.2367 19.2608 50.2136 26.3564 51.8571C33.4519 53.5005 40.5617 49.188 42.2363 42.2249Z" fill="#6BDAFF"/>
<path d="M29.2289 50.0736C23.1765 50.0319 18.3439 45.1742 18.4351 39.2235L40.3526 39.3744C40.2616 45.3251 35.2813 50.1153 29.2289 50.0736Z" fill="#0DA9FF"/>
<path d="M49.0463 39.2657C49.0463 41.4822 48.6622 43.6157 47.9593 45.5959C47.79 46.0686 47.6078 46.5285 47.406 46.982C46.2343 46.1516 45.4792 44.855 45.4792 43.3921V35.1329C45.4792 33.6765 46.2343 32.3797 47.406 31.543C47.6078 31.9966 47.7965 32.4564 47.9593 32.9291C48.6622 34.9156 49.0463 37.0428 49.0463 39.2593V39.2657Z" fill="#00A443"/>
<path d="M49.1896 47.4614C49.1245 47.4614 49.0594 47.4486 48.9943 47.423C48.747 47.3144 48.6363 47.0335 48.747 46.7907C48.9423 46.3564 49.1245 45.8964 49.2872 45.4365C49.9902 43.4563 50.3482 41.3803 50.3482 39.266C50.3482 37.1517 49.9902 35.0693 49.2872 33.0891C49.1245 32.6291 48.9423 32.1757 48.747 31.7349C48.6363 31.4922 48.747 31.2111 48.9943 31.1025C49.2416 30.994 49.528 31.1025 49.6387 31.3516C49.847 31.8116 50.0358 32.2906 50.205 32.7761C50.9406 34.8585 51.3181 37.043 51.3181 39.266C51.3181 41.4889 50.9406 43.6735 50.205 45.7559C50.0358 46.2413 49.8405 46.7204 49.6387 47.1803C49.5606 47.3592 49.3783 47.4678 49.1896 47.4678V47.4614Z" fill="#EFEFEF"/>
</svg>
