<svg width="97" height="90" viewBox="0 0 97 90" fill="none" xmlns="http://www.w3.org/2000/svg">
<path d="M20.1389 6.74487H17.0513V21.2094H20.1389V6.74487Z" fill="#89837E" stroke="#FFFEFF" stroke-width="0.5" stroke-linejoin="round"/>
<path d="M17.8596 5.87329H19.3413C19.5529 5.87329 19.7558 5.95732 19.9053 6.1069C20.0549 6.25648 20.1389 6.45935 20.1389 6.67089V10.3913H17.0513V6.68167C17.0513 6.46727 17.1364 6.26166 17.288 6.11006C17.4396 5.95846 17.6453 5.87329 17.8596 5.87329Z" fill="#B0A9A3" stroke="#FFFEFF" stroke-width="0.5" stroke-linejoin="round"/>
<path d="M31.0354 6.74487H27.9478V21.2094H31.0354V6.74487Z" fill="#89837E" stroke="#FFFEFF" stroke-width="0.5" stroke-linejoin="round"/>
<path d="M28.7561 5.87329H30.2378C30.4494 5.87329 30.6522 5.95732 30.8018 6.1069C30.9514 6.25648 31.0354 6.45935 31.0354 6.67089V10.3913H27.9478V6.68167C27.9478 6.46727 28.0329 6.26166 28.1845 6.11006C28.3361 5.95846 28.5417 5.87329 28.7561 5.87329Z" fill="#B0A9A3" stroke="#FFFEFF" stroke-width="0.5" stroke-linejoin="round"/>
<path d="M23.0449 63.6183V42.9604H25.6132V63.6183" stroke="#FFFEFF" stroke-width="0.5" stroke-linejoin="round"/>
<path d="M12.1152 21.2096V35.9981C12.1228 38.5192 13.1276 40.935 14.9104 42.7177C16.6931 44.5005 19.1088 45.5053 21.63 45.5128H26.4561C28.9773 45.5055 31.3932 44.5007 33.1759 42.7179C34.9587 40.9351 35.9635 38.5193 35.9709 35.9981V21.2096H12.1152Z" fill="#00402A" stroke="#FFFEFF" stroke-width="0.5" stroke-linejoin="round"/>
<path d="M30.9872 40.7133L30.6924 40.596C31.2073 39.2736 31.469 37.8661 31.464 36.447V23.0837H31.781V36.447C31.7859 37.9062 31.5167 39.3534 30.9872 40.7133Z" fill="#00402A" stroke="#FFFEFF" stroke-width="0.5" stroke-linejoin="round"/>
<path d="M17.1 40.7134C16.5703 39.3537 16.301 37.9064 16.3062 36.4471V23.0839H16.6232V36.4471C16.6183 37.8662 16.8798 39.2736 17.3942 40.5961L17.1 40.7134Z" fill="#00402A" stroke="#FFFEFF" stroke-width="0.5" stroke-linejoin="round"/>
<path d="M37.4514 16.9542H10.6355C10.195 16.9542 9.83789 17.3113 9.83789 17.7518V20.4122C9.83789 20.8527 10.195 21.2098 10.6355 21.2098H37.4514C37.8919 21.2098 38.249 20.8527 38.249 20.4122V17.7518C38.249 17.3113 37.8919 16.9542 37.4514 16.9542Z" fill="#00402A" stroke="#FFFEFF" stroke-width="0.5" stroke-linejoin="round"/>
<path d="M35.9709 21.2098H12.1152V21.5268H35.9709V21.2098Z" fill="#00402A" stroke="#FFFEFF" stroke-width="0.5" stroke-linejoin="round"/>
<path d="M21.3308 36.2799C22.1337 36.8163 23.0775 37.1027 24.0431 37.1027C25.3373 37.1008 26.578 36.5859 27.4931 35.6707C28.4083 34.7556 28.9232 33.5149 28.925 32.2207C28.925 31.2552 28.6387 30.3113 28.1023 29.5084C27.5659 28.7056 26.8034 28.0799 25.9113 27.7104C25.0193 27.3409 24.0377 27.2442 23.0907 27.4326C22.1437 27.6209 21.2738 28.0859 20.591 28.7686C19.9083 29.4514 19.4433 30.3213 19.2549 31.2683C19.0666 32.2153 19.1632 33.1969 19.5328 34.0889C19.9023 34.981 20.528 35.7435 21.3308 36.2799Z" fill="#89837E" stroke="#FFFEFF" stroke-width="0.5" stroke-linejoin="round"/>
<path d="M45.1605 75.317C45.8707 75.3725 46.5809 75.4059 47.3139 75.4059C47.7354 75.4059 48.157 75.3952 48.5679 75.3725V59.1675H45.1605V75.317Z" fill="#00402A" stroke="#FFFEFF" stroke-width="0.5" stroke-linejoin="round"/>
<path d="M48.5679 70.9998V60.322H45.1605V68.968L48.5679 70.9998Z" fill="#00402A" stroke="#FFFEFF" stroke-width="0.5" stroke-linejoin="round"/>
<path d="M53.3409 57.6018L28.2757 56.1587V57.6018L36.7668 67.9575H61.8213V66.5144L53.3409 57.6018Z" fill="#00402A" stroke="#FFFEFF" stroke-width="0.5" stroke-linejoin="round"/>
<path d="M53.3409 56.1593H28.2757L36.7668 66.515H61.8213L53.3409 56.1593Z" fill="#00402A" stroke="#FFFEFF" stroke-width="0.5" stroke-linejoin="round"/>
<path d="M50.1883 56.1595H49.2222L57.7026 66.5152H58.668L50.1883 56.1595ZM43.9502 56.1595H42.9878L51.4788 66.5152H52.4336L43.9502 56.1595ZM37.712 56.1595H36.7466L45.2376 66.5152H46.2037L37.712 56.1595ZM31.4745 56.1595H30.5084L38.9994 66.5152H39.9656L31.4745 56.1595Z" fill="#007ACB" stroke="#FFFEFF" stroke-width="0.5" stroke-linejoin="round"/>
<path d="M30.5204 58.8895L31.1281 59.6339H56.1932L55.5712 58.8895H30.5204ZM33.3399 62.3311L33.9475 63.0747H59.0127L58.4051 62.3311H33.3399Z" fill="#007ACB" stroke="#FFFEFF" stroke-width="0.5" stroke-linejoin="round"/>
<path d="M17.1324 75.317C17.8312 75.3725 18.5527 75.4059 19.2743 75.4059C19.6959 75.4059 20.1182 75.3952 20.5283 75.3725V59.1675H17.1324V75.317Z" fill="#00402A" stroke="#FFFEFF" stroke-width="0.5" stroke-linejoin="round"/>
<path d="M20.5283 70.9998V60.322H17.1316V68.968L20.5283 70.9998Z" fill="#00402A" stroke="#FFFEFF" stroke-width="0.5" stroke-linejoin="round"/>
<path d="M25.3014 57.6018L0.249855 56.1587V57.6018L8.73024 67.9575H33.7954V66.5144L25.3014 57.6018Z" fill="#00402A" stroke="#FFFEFF" stroke-width="0.5" stroke-linejoin="round"/>
<path d="M25.3014 56.1593H0.249855L8.73024 66.515H33.7954L25.3014 56.1593Z" fill="#007ACB" stroke="#FFFEFF" stroke-width="0.5" stroke-linejoin="round"/>
<path d="M22.1511 56.1595H21.1849L29.6767 66.5152H30.6421L22.1511 56.1595ZM15.9129 56.1595H14.9475L23.4385 66.5152H24.4039L15.9129 56.1595ZM9.67469 56.1595H8.70703L17.198 66.5152H18.1642L9.67469 56.1595ZM3.43727 56.1595H2.47112L10.9621 66.5152H11.9283L3.43727 56.1595Z" fill="#00402A" stroke="#FFFEFF" stroke-width="0.5" stroke-linejoin="round"/>
<path d="M2.47887 58.8895L3.08651 59.6339H28.1517L27.544 58.8895H2.47887ZM5.29833 62.3311L5.91963 63.0747H30.9727L30.365 62.3311H5.29833Z" fill="#00402A" stroke="#FFFEFF" stroke-width="0.5" stroke-linejoin="round"/>
<path d="M55.129 88.683C55.8399 88.7384 56.5501 88.7719 57.2823 88.7719C57.7046 88.7719 58.1262 88.7612 58.5371 88.7384V72.5334H55.129V88.683Z" fill="#00402A" stroke="#FFFEFF" stroke-width="0.5" stroke-linejoin="round"/>
<path d="M58.5371 84.3654V73.6869H55.1298V82.3336L58.5371 84.3654Z" fill="#00402A" stroke="#FFFEFF" stroke-width="0.5" stroke-linejoin="round"/>
<path d="M63.31 70.9677L38.2448 69.5245V70.9677L46.7381 81.3241H71.7881V79.881L63.31 70.9677Z" fill="#00402A" stroke="#FFFEFF" stroke-width="0.5" stroke-linejoin="round"/>
<path d="M63.31 69.5254H38.2448L46.7381 79.8811H71.7881L63.31 69.5254Z" fill="#007ACB" stroke="#FFFEFF" stroke-width="0.5" stroke-linejoin="round"/>
<path d="M60.1568 69.5255H59.1914L67.6718 79.8813H68.6372L60.1568 69.5255ZM53.9194 69.5255H52.951L61.4427 79.8813H62.3967L53.9194 69.5255ZM47.6812 69.5255H46.7158L55.2068 79.8813H56.1722L47.6812 69.5255ZM41.443 69.5255H40.4776L48.9686 79.8813H49.934L41.443 69.5255Z" fill="#00402A" stroke="#FFFEFF" stroke-width="0.5" stroke-linejoin="round"/>
<path d="M40.4882 72.256L41.0959 72.9995H66.161L65.5397 72.256H40.4882ZM43.3077 75.6967L43.9153 76.4403H68.9805L68.3728 75.6967H43.3077Z" fill="#00402A" stroke="#FFFEFF" stroke-width="0.5" stroke-linejoin="round"/>
<path d="M27.1013 88.683C27.8009 88.7384 28.5225 88.7719 29.244 88.7719C29.6656 88.7719 30.0871 88.7612 30.498 88.7384V72.5334H27.1013V88.683Z" fill="#00402A" stroke="#FFFEFF" stroke-width="0.5" stroke-linejoin="round"/>
<path d="M30.4971 84.3654V73.6869H27.1011V82.3336L30.4971 84.3654Z" fill="#00402A" stroke="#FFFEFF" stroke-width="0.5" stroke-linejoin="round"/>
<path d="M35.2706 70.9677L10.2191 69.5245V70.9677L18.6995 81.3234H43.7646V79.8802L35.2706 70.9677Z" fill="#00402A" stroke="#FFFEFF" stroke-width="0.5" stroke-linejoin="round"/>
<path d="M35.2706 69.5254H10.2191L18.6995 79.8811H43.7646L35.2706 69.5254Z" fill="#00402A" stroke="#FFFEFF" stroke-width="0.5" stroke-linejoin="round"/>
<path d="M32.1152 69.5255H31.1498L39.6408 79.8813H40.6069L32.1152 69.5255ZM25.8777 69.5255H24.9116L33.4064 79.8813H34.3718L25.8777 69.5255ZM19.6395 69.5255H18.6742L27.1652 79.8813H28.1306L19.6395 69.5255ZM13.4014 69.5255H12.4466L20.927 79.8813H21.8924L13.4014 69.5255Z" fill="#007ACB" stroke="#FFFEFF" stroke-width="0.5" stroke-linejoin="round"/>
<path d="M12.4494 72.256L13.057 72.9995H38.1222L37.5145 72.256H12.4494ZM15.2688 75.6967L15.8909 76.4403H40.9424L40.3347 75.6967H15.2688Z" fill="#007ACB" stroke="#FFFEFF" stroke-width="0.5" stroke-linejoin="round"/>
<path d="M78.5375 18.3815L77.9775 86.7165H80.2337L79.6738 18.3815H78.5375Z" fill="#00402A" stroke="#FFFEFF" stroke-width="0.5" stroke-linejoin="round"/>
<path d="M78.7247 18.5462C78.7247 18.5462 70.5361 21.6793 70.2188 22.1144C69.9014 22.5494 62.7646 27.4275 62.7646 27.4275L63.2279 28.1466C63.2279 28.1466 72.2076 24.0663 72.741 23.7971C73.2745 23.528 79.129 19.1244 79.129 19.1244L78.7247 18.5462Z" fill="#00402A" stroke="#FFFEFF" stroke-width="0.5" stroke-linejoin="round"/>
<path d="M79.1619 0.460111C79.1619 0.460111 77.783 9.11529 78.0002 9.60844C78.2173 10.1016 78.8746 18.7168 78.8746 18.7168L79.7293 18.6735C79.7293 18.6735 80.6874 8.85767 80.72 8.25508C80.7526 7.65249 79.8705 0.381725 79.8705 0.381725L79.1619 0.460111Z" fill="#00402A" stroke="#FFFEFF" stroke-width="0.5" stroke-linejoin="round"/>
<path d="M79.5935 19.2018C79.5935 19.2018 86.4032 24.7238 86.9378 24.7819C87.4723 24.8399 95.2663 28.5771 95.2663 28.5771L95.6514 27.8165C95.6514 27.8165 87.6299 22.081 87.1226 21.7493C86.6235 21.4222 79.8788 18.5503 79.8788 18.5503L79.5935 19.2018Z" fill="#00402A" stroke="#FFFEFF" stroke-width="0.5" stroke-linejoin="round"/>
<path d="M95.7033 28.3551C95.5772 28.5671 95.3044 28.642 95.0895 28.5303L94.2965 28.1269L94.8978 27.2592L95.5743 27.7355C95.7707 27.8795 95.8311 28.1495 95.7033 28.3551Z" fill="#FF9C1A" stroke="#FFFEFF" stroke-width="0.5" stroke-linejoin="round"/>
<path d="M79.5537 0.250095C79.8013 0.257236 79.9944 0.463557 80 0.707682L80.0267 1.60107L78.9784 1.48602L79.0793 0.659991C79.0963 0.423336 79.3061 0.242954 79.5537 0.250095Z" fill="#FF9C1A" stroke="#FFFEFF" stroke-width="0.5" stroke-linejoin="round"/>
<path d="M62.7469 27.9101C62.6271 27.6973 62.696 27.426 62.9053 27.2935L63.6526 26.8088L64.1053 27.7627L63.3468 28.1072C63.1306 28.2143 62.8684 28.1293 62.7469 27.9101Z" fill="#FF9C1A" stroke="#FFFEFF" stroke-width="0.5" stroke-linejoin="round"/>
<path d="M79.7804 20.8771C80.6706 20.6329 81.1943 19.7133 80.9501 18.8231C80.7059 17.9329 79.7863 17.4091 78.8961 17.6533C78.0059 17.8975 77.4821 18.8171 77.7263 19.7074C77.9705 20.5976 78.8901 21.1213 79.7804 20.8771Z" fill="#FF9C1A" stroke="#FFFEFF" stroke-width="0.5" stroke-linejoin="round"/>
<path d="M76.1889 62.798L75.3086 63.6783L82.2436 70.6134L83.124 69.7331L76.1889 62.798Z" fill="#00402A" stroke="#FFFEFF" stroke-width="0.5" stroke-linejoin="round"/>
<path d="M76.1904 70.2565L75.3101 71.1368L82.2451 78.0719L83.1254 77.1916L76.1904 70.2565Z" fill="#00402A" stroke="#FFFEFF" stroke-width="0.5" stroke-linejoin="round"/>
<path d="M76.1899 78.1343L75.3096 79.0146L82.2446 85.9497L83.125 85.0694L76.1899 78.1343Z" fill="#00402A" stroke="#FFFEFF" stroke-width="0.5" stroke-linejoin="round"/>
<path d="M76.0199 62.1757H74.7749V88.7718H76.0199V62.1757Z" fill="#00402A" stroke="#FFFEFF" stroke-width="0.5" stroke-linejoin="round"/>
<path d="M83.4301 62.1755H82.1851V88.7717H83.4301V62.1755Z" fill="#00402A" stroke="#FFFEFF" stroke-width="0.5" stroke-linejoin="round"/>
<path d="M83.4301 62.1754H74.7749V63.4204H83.4301V62.1754Z" fill="#00402A" stroke="#FFFEFF" stroke-width="0.5" stroke-linejoin="round"/>
<path d="M83.4301 69.814H74.7749V71.059H83.4301V69.814Z" fill="#00402A" stroke="#FFFEFF" stroke-width="0.5" stroke-linejoin="round"/>
<path d="M83.4301 77.4525H74.7749V78.6975H83.4301V77.4525Z" fill="#00402A" stroke="#FFFEFF" stroke-width="0.5" stroke-linejoin="round"/>
<path d="M83.4301 85.0857H74.7749V88.7717H83.4301V85.0857Z" fill="#00402A" stroke="#FFFEFF" stroke-width="0.5" stroke-linejoin="round"/>
</svg>
