<svg width="125" height="78" viewBox="0 0 125 78" fill="none" xmlns="http://www.w3.org/2000/svg">
<path d="M114.653 8.00391H95.0679V23.738H114.653V8.00391Z" fill="#00402A" stroke="#FFFEFF" stroke-width="0.5" stroke-linejoin="round"/>
<path d="M101.538 8.00391H95.0679V23.738H101.538V8.00391Z" fill="#00402A" stroke="#FFFEFF" stroke-width="0.5" stroke-linejoin="round"/>
<path d="M97.0309 9.51404H96.231V12.472H97.0309V9.51404Z" fill="#00402A" stroke="#FFFEFF" stroke-width="0.5" stroke-linejoin="round"/>
<path d="M99.5514 12.8937H98.7515V15.8516H99.5514V12.8937Z" fill="#00402A" stroke="#FFFEFF" stroke-width="0.5" stroke-linejoin="round"/>
<path d="M114.153 7.55511C113.131 3.36404 109.365 0.25 104.858 0.25C100.351 0.25 96.5858 3.36404 95.5635 7.55511H114.149H114.153Z" fill="#26BF64" stroke="#FFFEFF" stroke-width="0.5" stroke-linejoin="round"/>
<path d="M115.87 4.77283H93.8467V8.00393H115.87V4.77283Z" fill="#00402A" stroke="#FFFEFF" stroke-width="0.5" stroke-linejoin="round"/>
<path d="M115.87 4.77283H102.458V8.00393H115.87V4.77283Z" fill="#00402A" stroke="#FFFEFF" stroke-width="0.5" stroke-linejoin="round"/>
<path d="M39.6215 8.00403H20.0366V23.7381H39.6215V8.00403Z" fill="#00402A" stroke="#FFFEFF" stroke-width="0.5" stroke-linejoin="round"/>
<path d="M26.5064 8.00403H20.0366V23.7381H26.5064V8.00403Z" fill="#00402A" stroke="#FFFEFF" stroke-width="0.5" stroke-linejoin="round"/>
<path d="M22.0035 9.51416H21.2036V12.4721H22.0035V9.51416Z" fill="#00402A" stroke="#FFFEFF" stroke-width="0.5" stroke-linejoin="round"/>
<path d="M24.5241 12.8938H23.7241V15.8517H24.5241V12.8938Z" fill="#00402A" stroke="#FFFEFF" stroke-width="0.5" stroke-linejoin="round"/>
<path d="M39.1221 7.55523C38.0997 3.36416 34.3341 0.250122 29.8271 0.250122C25.3202 0.250122 21.5546 3.36416 20.5322 7.55523H39.1181H39.1221Z" fill="#26BF64" stroke="#FFFEFF" stroke-width="0.5" stroke-linejoin="round"/>
<path d="M40.8431 4.77295H18.8193V8.00406H40.8431V4.77295Z" fill="#00402A" stroke="#FFFEFF" stroke-width="0.5" stroke-linejoin="round"/>
<path d="M40.839 4.77295H27.4546V8.00406H40.839V4.77295Z" fill="#00402A" stroke="#FFFEFF" stroke-width="0.5" stroke-linejoin="round"/>
<path d="M106.217 24.5695H21.5596V40.5572H106.217V24.5695Z" fill="#00402A" stroke="#FFFEFF" stroke-width="0.5" stroke-linejoin="round"/>
<path d="M106.217 37.3651H21.2036V40.5611H106.217V37.3651Z" fill="#00402A" stroke="#FFFEFF" stroke-width="0.5" stroke-linejoin="round"/>
<path d="M106.217 24.5695H21.2036V27.2933H106.217V24.5695Z" fill="#00402A" stroke="#FFFEFF" stroke-width="0.5" stroke-linejoin="round"/>
<path d="M30.6867 28.2531H29.8867V35.4489H30.6867V28.2531Z" fill="#00402A" stroke="#FFFEFF" stroke-width="0.5" stroke-linejoin="round"/>
<path d="M32.8561 28.2531H32.0562V35.4489H32.8561V28.2531Z" fill="#00402A" stroke="#FFFEFF" stroke-width="0.5" stroke-linejoin="round"/>
<path d="M35.026 28.2531H34.2261V35.4489H35.026V28.2531Z" fill="#00402A" stroke="#FFFEFF" stroke-width="0.5" stroke-linejoin="round"/>
<path d="M49.4054 28.2533H48.6055V35.4491H49.4054V28.2533Z" fill="#00402A" stroke="#FFFEFF" stroke-width="0.5" stroke-linejoin="round"/>
<path d="M51.5753 28.2531H50.7754V35.4489H51.5753V28.2531Z" fill="#00402A" stroke="#FFFEFF" stroke-width="0.5" stroke-linejoin="round"/>
<path d="M53.7448 28.2531H52.9448V35.4489H53.7448V28.2531Z" fill="#00402A" stroke="#FFFEFF" stroke-width="0.5" stroke-linejoin="round"/>
<path d="M69.4508 28.2531H68.6509V35.4489H69.4508V28.2531Z" fill="#00402A" stroke="#FFFEFF" stroke-width="0.5" stroke-linejoin="round"/>
<path d="M71.6242 28.2531H70.8242V35.4489H71.6242V28.2531Z" fill="#00402A" stroke="#FFFEFF" stroke-width="0.5" stroke-linejoin="round"/>
<path d="M73.7941 28.2531H72.9941V35.4489H73.7941V28.2531Z" fill="#00402A" stroke="#FFFEFF" stroke-width="0.5" stroke-linejoin="round"/>
<path d="M89.5002 28.2531H88.7002V35.4489H89.5002V28.2531Z" fill="#00402A" stroke="#FFFEFF" stroke-width="0.5" stroke-linejoin="round"/>
<path d="M91.6696 28.2531H90.8696V35.4489H91.6696V28.2531Z" fill="#00402A" stroke="#FFFEFF" stroke-width="0.5" stroke-linejoin="round"/>
<path d="M93.8395 28.2531H93.0396V35.4489H93.8395V28.2531Z" fill="#00402A" stroke="#FFFEFF" stroke-width="0.5" stroke-linejoin="round"/>
<path d="M24.4394 77.5744H0.25L18.7306 24.5695H24.4394V77.5744Z" fill="#A2BCB1" stroke="#FFFEFF" stroke-width="0.5" stroke-linejoin="round"/>
<path d="M27.9433 77.5743H3.75391L22.2384 24.5693H27.9433V77.5743Z" fill="#00402A" stroke="#FFFEFF" stroke-width="0.5" stroke-linejoin="round"/>
<path d="M27.9434 26.0483V24.5693H18.7304L18.2153 26.0483H27.9434Z" fill="#00402A" stroke="#FFFEFF" stroke-width="0.5" stroke-linejoin="round"/>
<path d="M36.6686 77.5745H7.99951L28.0682 40.4792H36.6686V77.5745Z" fill="#6BDAFF" stroke="#FFFEFF" stroke-width="0.5" stroke-linejoin="round"/>
<path d="M26.5425 46.0787C27.5531 44.2563 28.5677 42.43 29.5783 40.6077Z" fill="#00402A"/>
<path d="M26.5425 46.0787C27.5531 44.2563 28.5677 42.43 29.5783 40.6077" stroke="#FFFEFF" stroke-width="0.5" stroke-miterlimit="10" stroke-linejoin="round"/>
<path d="M22.1562 53.9771C23.1669 52.1548 24.1815 50.3285 25.1921 48.5061Z" fill="#00402A"/>
<path d="M22.1562 53.9771C23.1669 52.1548 24.1815 50.3285 25.1921 48.5061" stroke="#FFFEFF" stroke-width="0.5" stroke-miterlimit="10" stroke-linejoin="round"/>
<path d="M15.749 65.5282C16.3109 64.5136 16.8728 63.5029 17.4348 62.4883Z" fill="#00402A"/>
<path d="M15.749 65.5282C16.3109 64.5136 16.8728 63.5029 17.4348 62.4883" stroke="#FFFEFF" stroke-width="0.5" stroke-miterlimit="10" stroke-linejoin="round"/>
<path d="M10.0049 75.8692C11.2458 73.6332 12.4867 71.3972 13.7275 69.1611Z" fill="#00402A"/>
<path d="M10.0049 75.8692C11.2458 73.6332 12.4867 71.3972 13.7275 69.1611" stroke="#FFFEFF" stroke-width="0.5" stroke-miterlimit="10" stroke-linejoin="round"/>
<path d="M28.2827 46.1411C29.3051 44.2954 30.3313 42.4535 31.3537 40.6077Z" fill="#00402A"/>
<path d="M28.2827 46.1411C29.3051 44.2954 30.3313 42.4535 31.3537 40.6077" stroke="#FFFEFF" stroke-width="0.5" stroke-miterlimit="10" stroke-linejoin="round"/>
<path d="M22.4805 56.5956C23.8462 54.1371 25.212 51.6748 26.5777 49.2163Z" fill="#00402A"/>
<path d="M22.4805 56.5956C23.8462 54.1371 25.212 51.6748 26.5777 49.2163" stroke="#FFFEFF" stroke-width="0.5" stroke-miterlimit="10" stroke-linejoin="round"/>
<path d="M17.3608 65.8166C18.8398 63.1513 20.3187 60.4861 21.7976 57.8247Z" fill="#00402A"/>
<path d="M17.3608 65.8166C18.8398 63.1513 20.3187 60.4861 21.7976 57.8247" stroke="#FFFEFF" stroke-width="0.5" stroke-miterlimit="10" stroke-linejoin="round"/>
<path d="M27.3813 50.9609C28.6222 48.7288 29.8592 46.4966 31.1001 44.2606Z" fill="#00402A"/>
<path d="M27.3813 50.9609C28.6222 48.7288 29.8592 46.4966 31.1001 44.2606" stroke="#FFFEFF" stroke-width="0.5" stroke-miterlimit="10" stroke-linejoin="round"/>
<path d="M22.6519 59.487C23.5533 57.8637 24.4547 56.2403 25.3561 54.6169Z" fill="#00402A"/>
<path d="M22.6519 59.487C23.5533 57.8637 24.4547 56.2403 25.3561 54.6169" stroke="#FFFEFF" stroke-width="0.5" stroke-miterlimit="10" stroke-linejoin="round"/>
<path d="M13.5288 75.9195C14.4068 74.3352 15.2848 72.7547 16.1628 71.1704Z" fill="#00402A"/>
<path d="M13.5288 75.9195C14.4068 74.3352 15.2848 72.7547 16.1628 71.1704" stroke="#FFFEFF" stroke-width="0.5" stroke-miterlimit="10" stroke-linejoin="round"/>
<path d="M28.4819 52.1783C29.3833 50.5549 30.2847 48.9316 31.1861 47.3082Z" fill="#00402A"/>
<path d="M28.4819 52.1783C29.3833 50.5549 30.2847 48.9316 31.1861 47.3082" stroke="#FFFEFF" stroke-width="0.5" stroke-miterlimit="10" stroke-linejoin="round"/>
<path d="M23.4131 61.3134C24.654 59.0813 25.8909 56.8492 27.1318 54.6132Z" fill="#00402A"/>
<path d="M23.4131 61.3134C24.654 59.0813 25.8909 56.8492 27.1318 54.6132" stroke="#FFFEFF" stroke-width="0.5" stroke-miterlimit="10" stroke-linejoin="round"/>
<path d="M19.585 68.2051C20.2444 67.0188 20.9039 65.8325 21.5594 64.6462Z" fill="#00402A"/>
<path d="M19.585 68.2051C20.2444 67.0188 20.9039 65.8325 21.5594 64.6462" stroke="#FFFEFF" stroke-width="0.5" stroke-miterlimit="10" stroke-linejoin="round"/>
<path d="M15.3042 75.9199C15.8544 74.9326 16.4007 73.9414 16.9509 72.9541Z" fill="#00402A"/>
<path d="M15.3042 75.9199C15.8544 74.9326 16.4007 73.9414 16.9509 72.9541" stroke="#FFFEFF" stroke-width="0.5" stroke-miterlimit="10" stroke-linejoin="round"/>
<path d="M25.0166 61.6177C25.5902 60.5875 26.1599 59.5573 26.7336 58.5271Z" fill="#00402A"/>
<path d="M25.0166 61.6177C25.5902 60.5875 26.1599 59.5573 26.7336 58.5271" stroke="#FFFEFF" stroke-width="0.5" stroke-miterlimit="10" stroke-linejoin="round"/>
<path d="M17.0796 75.9197C19.1672 72.1618 21.251 68.4039 23.3386 64.6421Z" fill="#00402A"/>
<path d="M17.0796 75.9197C19.1672 72.1618 21.251 68.4039 23.3386 64.6421" stroke="#FFFEFF" stroke-width="0.5" stroke-miterlimit="10" stroke-linejoin="round"/>
<path d="M21.6143 70.9484C23.4405 67.7094 25.2159 64.4432 26.9797 61.1731Z" fill="#00402A"/>
<path d="M21.6143 70.9484C23.4405 67.7094 25.2159 64.4432 26.9797 61.1731" stroke="#FFFEFF" stroke-width="0.5" stroke-miterlimit="10" stroke-linejoin="round"/>
<path d="M44.0908 77.5744H19.9014L38.3819 24.5695H44.0908V77.5744Z" fill="#A2BCB1" stroke="#FFFEFF" stroke-width="0.5" stroke-linejoin="round"/>
<path d="M47.5947 77.5743H23.4053L41.8858 24.5693H47.5947V77.5743Z" fill="#00402A" stroke="#FFFEFF" stroke-width="0.5" stroke-linejoin="round"/>
<path d="M47.5947 26.0483V24.5693H38.3818L37.8667 26.0483H47.5947Z" fill="#00402A" stroke="#FFFEFF" stroke-width="0.5" stroke-linejoin="round"/>
<path d="M56.152 77.5745H27.4829L47.5516 40.4792H56.152V77.5745Z" fill="#6BDAFF" stroke="#FFFEFF" stroke-width="0.5" stroke-linejoin="round"/>
<path d="M45.8545 46.0787C46.8651 44.2563 47.8797 42.43 48.8904 40.6077Z" fill="#00402A"/>
<path d="M45.8545 46.0787C46.8651 44.2563 47.8797 42.43 48.8904 40.6077" stroke="#FFFEFF" stroke-width="0.5" stroke-miterlimit="10" stroke-linejoin="round"/>
<path d="M41.4722 53.9771C42.4828 52.1548 43.4974 50.3285 44.508 48.5061Z" fill="#00402A"/>
<path d="M41.4722 53.9771C42.4828 52.1548 43.4974 50.3285 44.508 48.5061" stroke="#FFFEFF" stroke-width="0.5" stroke-miterlimit="10" stroke-linejoin="round"/>
<path d="M35.061 65.5282C35.6229 64.5136 36.1848 63.5029 36.7468 62.4883Z" fill="#00402A"/>
<path d="M35.061 65.5282C35.6229 64.5136 36.1848 63.5029 36.7468 62.4883" stroke="#FFFEFF" stroke-width="0.5" stroke-miterlimit="10" stroke-linejoin="round"/>
<path d="M29.3208 75.8692C30.5617 73.6332 31.8026 71.3972 33.0435 69.1611Z" fill="#00402A"/>
<path d="M29.3208 75.8692C30.5617 73.6332 31.8026 71.3972 33.0435 69.1611" stroke="#FFFEFF" stroke-width="0.5" stroke-miterlimit="10" stroke-linejoin="round"/>
<path d="M47.5947 46.1411C48.6171 44.2954 49.6434 42.4535 50.6657 40.6077Z" fill="#00402A"/>
<path d="M47.5947 46.1411C48.6171 44.2954 49.6434 42.4535 50.6657 40.6077" stroke="#FFFEFF" stroke-width="0.5" stroke-miterlimit="10" stroke-linejoin="round"/>
<path d="M41.7925 56.5956C43.1582 54.1371 44.524 51.6748 45.8897 49.2163Z" fill="#00402A"/>
<path d="M41.7925 56.5956C43.1582 54.1371 44.524 51.6748 45.8897 49.2163" stroke="#FFFEFF" stroke-width="0.5" stroke-miterlimit="10" stroke-linejoin="round"/>
<path d="M36.6729 65.8166C38.1518 63.1513 39.6307 60.4861 41.1096 57.8247Z" fill="#00402A"/>
<path d="M36.6729 65.8166C38.1518 63.1513 39.6307 60.4861 41.1096 57.8247" stroke="#FFFEFF" stroke-width="0.5" stroke-miterlimit="10" stroke-linejoin="round"/>
<path d="M46.6973 50.9609C47.9381 48.7288 49.1751 46.4966 50.416 44.2606Z" fill="#00402A"/>
<path d="M46.6973 50.9609C47.9381 48.7288 49.1751 46.4966 50.416 44.2606" stroke="#FFFEFF" stroke-width="0.5" stroke-miterlimit="10" stroke-linejoin="round"/>
<path d="M41.9639 59.487C42.8653 57.8637 43.7667 56.2403 44.6681 54.6169Z" fill="#00402A"/>
<path d="M41.9639 59.487C42.8653 57.8637 43.7667 56.2403 44.6681 54.6169" stroke="#FFFEFF" stroke-width="0.5" stroke-miterlimit="10" stroke-linejoin="round"/>
<path d="M32.8447 75.9195C33.7227 74.3352 34.6007 72.7547 35.4787 71.1704Z" fill="#00402A"/>
<path d="M32.8447 75.9195C33.7227 74.3352 34.6007 72.7547 35.4787 71.1704" stroke="#FFFEFF" stroke-width="0.5" stroke-miterlimit="10" stroke-linejoin="round"/>
<path d="M47.7939 52.1783C48.6953 50.5549 49.5967 48.9316 50.4981 47.3082Z" fill="#00402A"/>
<path d="M47.7939 52.1783C48.6953 50.5549 49.5967 48.9316 50.4981 47.3082" stroke="#FFFEFF" stroke-width="0.5" stroke-miterlimit="10" stroke-linejoin="round"/>
<path d="M42.7246 61.3134C43.9655 59.0813 45.2025 56.8492 46.4434 54.6132Z" fill="#00402A"/>
<path d="M42.7246 61.3134C43.9655 59.0813 45.2025 56.8492 46.4434 54.6132" stroke="#FFFEFF" stroke-width="0.5" stroke-miterlimit="10" stroke-linejoin="round"/>
<path d="M38.9009 68.2051C39.5603 67.0188 40.2198 65.8325 40.8754 64.6462Z" fill="#00402A"/>
<path d="M38.9009 68.2051C39.5603 67.0188 40.2198 65.8325 40.8754 64.6462" stroke="#FFFEFF" stroke-width="0.5" stroke-miterlimit="10" stroke-linejoin="round"/>
<path d="M34.6162 75.9199C35.1664 74.9326 35.7127 73.9414 36.2629 72.9541Z" fill="#00402A"/>
<path d="M34.6162 75.9199C35.1664 74.9326 35.7127 73.9414 36.2629 72.9541" stroke="#FFFEFF" stroke-width="0.5" stroke-miterlimit="10" stroke-linejoin="round"/>
<path d="M44.3286 61.6177C44.9022 60.5875 45.4719 59.5573 46.0456 58.5271Z" fill="#00402A"/>
<path d="M44.3286 61.6177C44.9022 60.5875 45.4719 59.5573 46.0456 58.5271" stroke="#FFFEFF" stroke-width="0.5" stroke-miterlimit="10" stroke-linejoin="round"/>
<path d="M36.3916 75.9197C38.4793 72.1618 40.563 68.4039 42.6506 64.6421Z" fill="#00402A"/>
<path d="M36.3916 75.9197C38.4793 72.1618 40.563 68.4039 42.6506 64.6421" stroke="#FFFEFF" stroke-width="0.5" stroke-miterlimit="10" stroke-linejoin="round"/>
<path d="M40.9258 70.9484C42.752 67.7094 44.5275 64.4432 46.2912 61.1731Z" fill="#00402A"/>
<path d="M40.9258 70.9484C42.752 67.7094 44.5275 64.4432 46.2912 61.1731" stroke="#FFFEFF" stroke-width="0.5" stroke-miterlimit="10" stroke-linejoin="round"/>
<path d="M63.6054 77.5744H39.416L57.8966 24.5695H63.6054V77.5744Z" fill="#A2BCB1" stroke="#FFFEFF" stroke-width="0.5" stroke-linejoin="round"/>
<path d="M67.1093 77.5743H42.9199L61.4005 24.5693H67.1093V77.5743Z" fill="#00402A" stroke="#FFFEFF" stroke-width="0.5" stroke-linejoin="round"/>
<path d="M63.6052 24.5693H61.4005H57.8964L57.3423 26.1615H60.8464H63.6052H67.1094V24.5693H63.6052Z" fill="#00402A" stroke="#FFFEFF" stroke-width="0.5" stroke-linejoin="round"/>
<path d="M75.819 77.5745H47.1499L67.2187 40.4792H75.819V77.5745Z" fill="#6BDAFF" stroke="#FFFEFF" stroke-width="0.5" stroke-linejoin="round"/>
<path d="M65.7788 46.0787C66.7895 44.2563 67.804 42.43 68.8147 40.6077Z" fill="#00402A"/>
<path d="M65.7788 46.0787C66.7895 44.2563 67.804 42.43 68.8147 40.6077" stroke="#FFFEFF" stroke-width="0.5" stroke-miterlimit="10" stroke-linejoin="round"/>
<path d="M61.3926 53.9771C62.4032 52.1548 63.4178 50.3285 64.4284 48.5061Z" fill="#00402A"/>
<path d="M61.3926 53.9771C62.4032 52.1548 63.4178 50.3285 64.4284 48.5061" stroke="#FFFEFF" stroke-width="0.5" stroke-miterlimit="10" stroke-linejoin="round"/>
<path d="M54.9814 65.5282C55.5434 64.5136 56.1053 63.5029 56.6672 62.4883Z" fill="#00402A"/>
<path d="M54.9814 65.5282C55.5434 64.5136 56.1053 63.5029 56.6672 62.4883" stroke="#FFFEFF" stroke-width="0.5" stroke-miterlimit="10" stroke-linejoin="round"/>
<path d="M49.2412 75.8692C50.4821 73.6332 51.723 71.3972 52.9639 69.1611Z" fill="#00402A"/>
<path d="M49.2412 75.8692C50.4821 73.6332 51.723 71.3972 52.9639 69.1611" stroke="#FFFEFF" stroke-width="0.5" stroke-miterlimit="10" stroke-linejoin="round"/>
<path d="M67.5151 46.1411C68.5375 44.2954 69.5638 42.4535 70.5861 40.6077Z" fill="#00402A"/>
<path d="M67.5151 46.1411C68.5375 44.2954 69.5638 42.4535 70.5861 40.6077" stroke="#FFFEFF" stroke-width="0.5" stroke-miterlimit="10" stroke-linejoin="round"/>
<path d="M61.7129 56.5956C63.0786 54.1371 64.4444 51.6748 65.8101 49.2163Z" fill="#00402A"/>
<path d="M61.7129 56.5956C63.0786 54.1371 64.4444 51.6748 65.8101 49.2163" stroke="#FFFEFF" stroke-width="0.5" stroke-miterlimit="10" stroke-linejoin="round"/>
<path d="M56.5967 65.8166C58.0756 63.1513 59.5545 60.4861 61.0334 57.8247Z" fill="#00402A"/>
<path d="M56.5967 65.8166C58.0756 63.1513 59.5545 60.4861 61.0334 57.8247" stroke="#FFFEFF" stroke-width="0.5" stroke-miterlimit="10" stroke-linejoin="round"/>
<path d="M66.6177 50.9609C67.8586 48.7288 69.0955 46.4966 70.3364 44.2606Z" fill="#00402A"/>
<path d="M66.6177 50.9609C67.8586 48.7288 69.0955 46.4966 70.3364 44.2606" stroke="#FFFEFF" stroke-width="0.5" stroke-miterlimit="10" stroke-linejoin="round"/>
<path d="M61.8843 59.487C62.7857 57.8637 63.6871 56.2403 64.5885 54.6169Z" fill="#00402A"/>
<path d="M61.8843 59.487C62.7857 57.8637 63.6871 56.2403 64.5885 54.6169" stroke="#FFFEFF" stroke-width="0.5" stroke-miterlimit="10" stroke-linejoin="round"/>
<path d="M52.7651 75.9195C53.6431 74.3352 54.5211 72.7547 55.3991 71.1704Z" fill="#00402A"/>
<path d="M52.7651 75.9195C53.6431 74.3352 54.5211 72.7547 55.3991 71.1704" stroke="#FFFEFF" stroke-width="0.5" stroke-miterlimit="10" stroke-linejoin="round"/>
<path d="M67.7144 52.1783C68.6158 50.5549 69.5171 48.9316 70.4185 47.3082Z" fill="#00402A"/>
<path d="M67.7144 52.1783C68.6158 50.5549 69.5171 48.9316 70.4185 47.3082" stroke="#FFFEFF" stroke-width="0.5" stroke-miterlimit="10" stroke-linejoin="round"/>
<path d="M62.645 61.3134C63.8859 59.0813 65.1229 56.8492 66.3638 54.6132Z" fill="#00402A"/>
<path d="M62.645 61.3134C63.8859 59.0813 65.1229 56.8492 66.3638 54.6132" stroke="#FFFEFF" stroke-width="0.5" stroke-miterlimit="10" stroke-linejoin="round"/>
<path d="M58.8213 68.2051C59.4808 67.0188 60.1402 65.8325 60.7958 64.6462Z" fill="#00402A"/>
<path d="M58.8213 68.2051C59.4808 67.0188 60.1402 65.8325 60.7958 64.6462" stroke="#FFFEFF" stroke-width="0.5" stroke-miterlimit="10" stroke-linejoin="round"/>
<path d="M54.5405 75.9199C55.0907 74.9326 55.637 73.9414 56.1872 72.9541Z" fill="#00402A"/>
<path d="M54.5405 75.9199C55.0907 74.9326 55.637 73.9414 56.1872 72.9541" stroke="#FFFEFF" stroke-width="0.5" stroke-miterlimit="10" stroke-linejoin="round"/>
<path d="M64.249 61.6177L65.966 58.5271Z" fill="#00402A"/>
<path d="M64.249 61.6177L65.966 58.5271" stroke="#FFFEFF" stroke-width="0.5" stroke-miterlimit="10" stroke-linejoin="round"/>
<path d="M56.312 75.9197C58.3997 72.1618 60.4834 68.4039 62.5711 64.6421Z" fill="#00402A"/>
<path d="M56.312 75.9197C58.3997 72.1618 60.4834 68.4039 62.5711 64.6421" stroke="#FFFEFF" stroke-width="0.5" stroke-miterlimit="10" stroke-linejoin="round"/>
<path d="M60.8462 70.9484C62.6724 67.7094 64.4479 64.4432 66.2116 61.1731Z" fill="#00402A"/>
<path d="M60.8462 70.9484C62.6724 67.7094 64.4479 64.4432 66.2116 61.1731" stroke="#FFFEFF" stroke-width="0.5" stroke-miterlimit="10" stroke-linejoin="round"/>
<path d="M83.2524 77.5744H59.063L77.5475 24.5695H83.2524V77.5744Z" fill="#A2BCB1" stroke="#FFFEFF" stroke-width="0.5" stroke-linejoin="round"/>
<path d="M86.7607 77.5743H62.5713L81.0519 24.5693H86.7607V77.5743Z" fill="#00402A" stroke="#FFFEFF" stroke-width="0.5" stroke-linejoin="round"/>
<path d="M86.7603 26.0483V24.5693H77.5473L77.0322 26.0483H86.7603Z" fill="#00402A" stroke="#FFFEFF" stroke-width="0.5" stroke-linejoin="round"/>
<path d="M95.4855 77.5745H66.8164L86.8851 40.4792H95.4855V77.5745Z" fill="#6BDAFF" stroke="#FFFEFF" stroke-width="0.5" stroke-linejoin="round"/>
<path d="M85.3555 46.0787C86.3661 44.2563 87.3807 42.43 88.3913 40.6077Z" fill="#00402A"/>
<path d="M85.3555 46.0787C86.3661 44.2563 87.3807 42.43 88.3913 40.6077" stroke="#FFFEFF" stroke-width="0.5" stroke-miterlimit="10" stroke-linejoin="round"/>
<path d="M80.9692 53.9771C81.9799 52.1548 82.9945 50.3285 84.0051 48.5061Z" fill="#00402A"/>
<path d="M80.9692 53.9771C81.9799 52.1548 82.9945 50.3285 84.0051 48.5061" stroke="#FFFEFF" stroke-width="0.5" stroke-miterlimit="10" stroke-linejoin="round"/>
<path d="M74.562 65.5282C75.1239 64.5136 75.6858 63.5029 76.2477 62.4883Z" fill="#00402A"/>
<path d="M74.562 65.5282C75.1239 64.5136 75.6858 63.5029 76.2477 62.4883" stroke="#FFFEFF" stroke-width="0.5" stroke-miterlimit="10" stroke-linejoin="round"/>
<path d="M68.8218 75.8692C70.0627 73.6332 71.3035 71.3972 72.5444 69.1611Z" fill="#00402A"/>
<path d="M68.8218 75.8692C70.0627 73.6332 71.3035 71.3972 72.5444 69.1611" stroke="#FFFEFF" stroke-width="0.5" stroke-miterlimit="10" stroke-linejoin="round"/>
<path d="M87.0957 46.1411C88.1181 44.2954 89.1443 42.4535 90.1667 40.6077Z" fill="#00402A"/>
<path d="M87.0957 46.1411C88.1181 44.2954 89.1443 42.4535 90.1667 40.6077" stroke="#FFFEFF" stroke-width="0.5" stroke-miterlimit="10" stroke-linejoin="round"/>
<path d="M81.2935 56.5956C82.6592 54.1371 84.025 51.6748 85.3907 49.2163Z" fill="#00402A"/>
<path d="M81.2935 56.5956C82.6592 54.1371 84.025 51.6748 85.3907 49.2163" stroke="#FFFEFF" stroke-width="0.5" stroke-miterlimit="10" stroke-linejoin="round"/>
<path d="M76.1738 65.8166C77.6527 63.1513 79.1317 60.4861 80.6106 57.8247Z" fill="#00402A"/>
<path d="M76.1738 65.8166C77.6527 63.1513 79.1317 60.4861 80.6106 57.8247" stroke="#FFFEFF" stroke-width="0.5" stroke-miterlimit="10" stroke-linejoin="round"/>
<path d="M86.1982 50.9609C87.4391 48.7288 88.6761 46.4966 89.917 44.2606Z" fill="#00402A"/>
<path d="M86.1982 50.9609C87.4391 48.7288 88.6761 46.4966 89.917 44.2606" stroke="#FFFEFF" stroke-width="0.5" stroke-miterlimit="10" stroke-linejoin="round"/>
<path d="M81.4648 59.487C82.3662 57.8637 83.2676 56.2403 84.169 54.6169Z" fill="#00402A"/>
<path d="M81.4648 59.487C82.3662 57.8637 83.2676 56.2403 84.169 54.6169" stroke="#FFFEFF" stroke-width="0.5" stroke-miterlimit="10" stroke-linejoin="round"/>
<path d="M72.3418 75.9195C73.2198 74.3352 74.0978 72.7547 74.9757 71.1704Z" fill="#00402A"/>
<path d="M72.3418 75.9195C73.2198 74.3352 74.0978 72.7547 74.9757 71.1704" stroke="#FFFEFF" stroke-width="0.5" stroke-miterlimit="10" stroke-linejoin="round"/>
<path d="M87.2949 52.1783C88.1963 50.5549 89.0977 48.9316 89.9991 47.3082Z" fill="#00402A"/>
<path d="M87.2949 52.1783C88.1963 50.5549 89.0977 48.9316 89.9991 47.3082" stroke="#FFFEFF" stroke-width="0.5" stroke-miterlimit="10" stroke-linejoin="round"/>
<path d="M82.2256 61.3134C83.4665 59.0813 84.7034 56.8492 85.9443 54.6132Z" fill="#00402A"/>
<path d="M82.2256 61.3134C83.4665 59.0813 84.7034 56.8492 85.9443 54.6132" stroke="#FFFEFF" stroke-width="0.5" stroke-miterlimit="10" stroke-linejoin="round"/>
<path d="M78.4019 68.2051C79.0613 67.0188 79.7208 65.8325 80.3764 64.6462Z" fill="#00402A"/>
<path d="M78.4019 68.2051C79.0613 67.0188 79.7208 65.8325 80.3764 64.6462" stroke="#FFFEFF" stroke-width="0.5" stroke-miterlimit="10" stroke-linejoin="round"/>
<path d="M74.1172 75.9199C74.6674 74.9326 75.2137 73.9414 75.7639 72.9541Z" fill="#00402A"/>
<path d="M74.1172 75.9199C74.6674 74.9326 75.2137 73.9414 75.7639 72.9541" stroke="#FFFEFF" stroke-width="0.5" stroke-miterlimit="10" stroke-linejoin="round"/>
<path d="M83.8296 61.6177C84.4032 60.5875 84.9729 59.5573 85.5465 58.5271Z" fill="#00402A"/>
<path d="M83.8296 61.6177C84.4032 60.5875 84.9729 59.5573 85.5465 58.5271" stroke="#FFFEFF" stroke-width="0.5" stroke-miterlimit="10" stroke-linejoin="round"/>
<path d="M75.8926 75.9197C77.9802 72.1618 80.064 68.4039 82.1516 64.6421Z" fill="#00402A"/>
<path d="M75.8926 75.9197C77.9802 72.1618 80.064 68.4039 82.1516 64.6421" stroke="#FFFEFF" stroke-width="0.5" stroke-miterlimit="10" stroke-linejoin="round"/>
<path d="M80.4272 70.9484C82.2535 67.7094 84.0289 64.4432 85.7927 61.1731Z" fill="#00402A"/>
<path d="M80.4272 70.9484C82.2535 67.7094 84.0289 64.4432 85.7927 61.1731" stroke="#FFFEFF" stroke-width="0.5" stroke-miterlimit="10" stroke-linejoin="round"/>
<path d="M102.904 77.5744H78.7144L97.1949 24.5695H102.904V77.5744Z" fill="#A2BCB1" stroke="#FFFEFF" stroke-width="0.5" stroke-linejoin="round"/>
<path d="M122.602 77.5743H82.2188L100.699 24.5693H122.602V77.5743Z" fill="#00402A" stroke="#FFFEFF" stroke-width="0.5" stroke-linejoin="round"/>
<path d="M106.408 26.0483V24.5693H97.1948L96.6797 26.0483H106.408Z" fill="#00402A" stroke="#FFFEFF" stroke-width="0.5" stroke-linejoin="round"/>
<path d="M102.119 20.5696H17.0796V24.7099H102.119V20.5696Z" fill="#00402A" stroke="#FFFEFF" stroke-width="0.5" stroke-linejoin="round"/>
<path d="M102.131 24.71L124.389 24.71V20.5696L102.131 20.5696V24.71Z" fill="#00402A" stroke="#FFFEFF" stroke-width="0.5" stroke-linejoin="round"/>
</svg>
