<svg width="82" height="88" viewBox="0 0 82 88" fill="none" xmlns="http://www.w3.org/2000/svg">
<g clip-path="url(#clip0_99_16729)">
<rect width="82" height="88" rx="16" fill="#00402A"/>
<path d="M284.832 -0.101074C284.9 -0.0978754 284.966 -0.0809277 285.027 -0.0512695C285.089 -0.0213452 285.143 0.0205941 285.188 0.0717773C285.21 0.0974073 285.23 0.125313 285.246 0.154785L285.286 0.248535L285.287 0.250488C285.326 0.375363 285.315 0.510272 285.257 0.627441C285.199 0.744714 285.098 0.835765 284.975 0.880371L284.971 0.881348C156.418 45.2967 39.3785 11.5823 38.9883 11.4722L38.9824 11.4712C38.8557 11.4322 38.7495 11.3451 38.6846 11.23C38.6197 11.1149 38.6004 10.9793 38.6318 10.8511L38.6377 10.8335C38.6787 10.7083 38.7663 10.6028 38.8828 10.5405C38.999 10.4785 39.1349 10.4635 39.2617 10.4995C39.5866 10.5914 156.368 44.2463 284.632 -0.0688477V-0.0698242C284.695 -0.0938132 284.764 -0.104217 284.832 -0.101074Z" fill="#00402A" stroke="#FFFEFF" stroke-width="0.5"/>
<path d="M8.8042 11.7731C8.83621 11.7776 8.8673 11.7866 8.89795 11.7975L8.89893 11.7965C9.24118 11.9144 119.222 52.4813 247.472 12.9352L247.482 12.9323L247.492 12.9303C247.619 12.9017 247.752 12.9209 247.866 12.984C247.979 13.0471 248.066 13.1496 248.11 13.2721L248.114 13.2828C248.152 13.4074 248.14 13.5421 248.083 13.6588C248.024 13.7757 247.923 13.8662 247.8 13.9108L247.79 13.9147C183.5 33.7299 123.791 33.4682 80.1138 28.2399C58.2745 25.6256 40.4407 21.7698 28.0444 18.5602C21.8466 16.9554 17.0078 15.5121 13.7065 14.4664C12.056 13.9436 10.7895 13.5198 9.93018 13.2252C9.5005 13.0779 9.17209 12.9625 8.94873 12.8834C8.83727 12.8439 8.75164 12.8136 8.69287 12.7926C8.6303 12.7702 8.60688 12.7614 8.60693 12.7614H8.60498C8.47837 12.721 8.37333 12.6321 8.31104 12.5153C8.25133 12.4032 8.23645 12.2736 8.26709 12.151H8.26611C8.26662 12.1486 8.2685 12.1465 8.26904 12.1442C8.26985 12.1411 8.26915 12.1374 8.27002 12.1344H8.27197C8.28726 12.0733 8.31261 12.0154 8.3501 11.9645C8.39105 11.9089 8.44357 11.8625 8.50439 11.8287L8.6001 11.7887C8.63304 11.7789 8.66729 11.7718 8.70166 11.7692L8.8042 11.7731Z" fill="#00402A" stroke="#FFFEFF" stroke-width="0.5"/>
<path d="M284.65 9.84985C284.775 9.81307 284.909 9.82483 285.026 9.88208C285.113 9.92505 285.187 9.99101 285.238 10.0725L285.285 10.1663L285.287 10.175C285.327 10.3009 285.317 10.4371 285.26 10.5559C285.203 10.675 285.102 10.7679 284.978 10.8147L284.971 10.8167C156.428 55.2287 39.3963 21.5236 38.9888 21.4084V21.4075C38.9246 21.3895 38.8644 21.3597 38.812 21.3186C38.7594 21.2772 38.7149 21.2255 38.6821 21.1672C38.6495 21.1091 38.6287 21.045 38.6206 20.9788C38.6125 20.9125 38.6176 20.8449 38.6353 20.7805C38.653 20.7163 38.6832 20.6556 38.7241 20.6028C38.7651 20.55 38.8166 20.5059 38.8745 20.4729C38.9324 20.44 38.9964 20.4187 39.063 20.4104C39.1295 20.4022 39.1968 20.4071 39.2612 20.425H39.2632C39.5872 20.5178 156.373 54.1821 284.639 9.85278L284.65 9.84888V9.84985Z" fill="#00402A" stroke="#FFFEFF" stroke-width="0.5"/>
<path d="M8.8042 21.7085C8.83387 21.7127 8.86258 21.7213 8.89111 21.731L8.89209 21.729C9.22766 21.8339 119.977 61.6512 248.238 22.1128L248.247 22.1099C248.373 22.0762 248.507 22.0922 248.622 22.1538C248.736 22.2153 248.824 22.318 248.866 22.4409H248.864C248.886 22.5033 248.897 22.5691 248.893 22.6353C248.889 22.7022 248.872 22.7676 248.842 22.8276C248.812 22.8879 248.77 22.9421 248.719 22.9858C248.668 23.0295 248.609 23.0626 248.544 23.0825H248.543C184.258 42.9029 124.361 42.8328 80.4946 37.7954C58.5609 35.2767 40.633 31.5156 28.1655 28.3774C21.9318 26.8084 17.0628 25.3954 13.7407 24.3706C12.0797 23.8582 10.8049 23.4427 9.93994 23.1538C9.50761 23.0094 9.1774 22.8965 8.95264 22.8188C8.84034 22.7801 8.75403 22.7497 8.69482 22.729C8.63401 22.7078 8.60964 22.6994 8.60791 22.6987L8.60303 22.6968C8.47727 22.6556 8.37205 22.5674 8.31006 22.4507C8.24824 22.3341 8.23351 22.1977 8.26904 22.0708H8.271C8.28624 22.0093 8.31236 21.9511 8.3501 21.8999C8.39104 21.8444 8.44359 21.7979 8.50439 21.7642L8.59912 21.7241C8.63219 21.7142 8.66617 21.7072 8.70068 21.7046L8.8042 21.7085Z" fill="#00402A" stroke="#FFFEFF" stroke-width="0.5"/>
<path d="M284.832 30.0057C284.9 30.0089 284.966 30.0259 285.027 30.0555C285.089 30.0853 285.143 30.1272 285.188 30.1786C285.21 30.2042 285.23 30.2321 285.246 30.2616L285.286 30.3553L285.287 30.3583C285.325 30.483 285.315 30.6175 285.257 30.7343C285.199 30.851 285.098 30.9412 284.976 30.9862L284.971 30.9882C220.681 53.2003 159.273 55.8712 113.896 52.9784C91.208 51.5319 72.5255 48.6937 59.4932 46.2118C52.9772 44.9708 47.8729 43.8195 44.3867 42.9745C42.6437 42.552 41.3051 42.2063 40.3965 41.9647C39.9422 41.8439 39.5954 41.7488 39.3594 41.6835C39.2414 41.6508 39.151 41.6258 39.0889 41.6083C39.0578 41.5995 39.0335 41.5926 39.0166 41.5878C39.0082 41.5854 39.0018 41.5833 38.9971 41.5819C38.992 41.5805 38.9902 41.58 38.9902 41.58L38.9824 41.578C38.8557 41.539 38.7495 41.4519 38.6846 41.3368C38.6197 41.2217 38.6004 41.0861 38.6318 40.9579L38.6377 40.9403C38.6787 40.8151 38.7663 40.7096 38.8828 40.6473C38.9968 40.5865 39.1292 40.572 39.2539 40.6053L39.2549 40.6044C39.5887 40.6884 156.369 74.353 284.632 30.038V30.037C284.695 30.013 284.764 30.0026 284.832 30.0057Z" fill="#00402A" stroke="#FFFEFF" stroke-width="0.5"/>
<path d="M254.269 40.4803C254.399 40.4395 254.539 40.4518 254.66 40.5145C254.78 40.5773 254.87 40.6854 254.912 40.8143H254.911C254.931 40.8753 254.941 40.9395 254.937 41.0038C254.933 41.0707 254.915 41.1363 254.885 41.1962C254.855 41.2561 254.814 41.3091 254.763 41.3524C254.738 41.3741 254.71 41.3939 254.681 41.41L254.588 41.4491C190.303 61.27 128.896 61.6514 83.52 57.0653C60.8317 54.7722 42.1491 51.2373 29.1157 48.2684C22.5991 46.784 17.4944 45.4401 14.0073 44.4647C12.2638 43.977 10.9242 43.5812 10.0151 43.3055C9.5606 43.1677 9.21333 43.0605 8.97705 42.9862C8.85908 42.9491 8.76884 42.9201 8.70654 42.9003C8.67543 42.8903 8.65122 42.8823 8.63428 42.8768L8.60693 42.869L8.60498 42.868C8.47834 42.8276 8.37332 42.7388 8.31104 42.6219C8.25147 42.5102 8.23672 42.3811 8.26709 42.2587H8.26611C8.26651 42.2568 8.26765 42.2547 8.26807 42.2528C8.26903 42.2491 8.26897 42.2448 8.27002 42.2411H8.27197C8.28724 42.1801 8.31255 42.1221 8.3501 42.0712L8.41943 41.995C8.44536 41.9722 8.47401 41.9523 8.50439 41.9354L8.59912 41.8954C8.63226 41.8854 8.66689 41.8785 8.70166 41.8759L8.8042 41.8798C8.8361 41.8842 8.8674 41.8923 8.89795 41.9032H8.89893C8.89937 41.9033 8.90111 41.9039 8.90479 41.9052C8.90931 41.9066 8.91616 41.9084 8.92432 41.911C8.9408 41.9164 8.96494 41.9246 8.99561 41.9344C9.05691 41.9542 9.14641 41.9825 9.26318 42.0194C9.49722 42.0933 9.84173 42.2005 10.2935 42.3378C11.1976 42.6125 12.5318 43.0077 14.269 43.494C17.7436 44.4667 22.8333 45.8055 29.3325 47.286C42.3316 50.2472 60.9695 53.7738 83.606 56.0604C128.88 60.6338 190.141 60.2495 254.269 40.4813V40.4803Z" fill="#00402A" stroke="#FFFEFF" stroke-width="0.5"/>
<path d="M37.3602 14.8606H38.0918C38.1239 14.8611 38.1558 14.8551 38.1855 14.8429C38.2153 14.8308 38.2423 14.8127 38.265 14.7899C38.2877 14.767 38.3056 14.7398 38.3177 14.7099C38.3298 14.6799 38.3358 14.6479 38.3353 14.6155V11.7549C38.3353 11.7232 38.329 11.6919 38.3166 11.6628C38.3042 11.6337 38.2861 11.6074 38.2633 11.5856C38.2405 11.5637 38.2136 11.5468 38.1841 11.5358C38.1546 11.5248 38.1232 11.52 38.0918 11.5215H37.3602C37.2976 11.5215 37.2373 11.5457 37.192 11.5891C37.1466 11.6326 37.1197 11.6919 37.1167 11.7549V14.6155C37.1163 14.6479 37.1222 14.6799 37.1343 14.7099C37.1463 14.7398 37.1643 14.767 37.187 14.7899C37.2097 14.8127 37.2367 14.8308 37.2665 14.8429C37.2962 14.8551 37.3281 14.8611 37.3602 14.8606Z" fill="#00402A" stroke="#FFFEFF" stroke-width="0.5"/>
<path d="M36.8712 14.7427H38.5778C38.6505 14.7415 38.7198 14.7121 38.7713 14.6605C38.8227 14.6089 38.8523 14.5392 38.8538 14.4661V13.9643C38.8523 13.8911 38.8228 13.8213 38.7714 13.7695C38.7199 13.7177 38.6506 13.688 38.5778 13.6865H36.8712C36.7984 13.688 36.7291 13.7177 36.6777 13.7695C36.6263 13.8213 36.5967 13.8911 36.5952 13.9643V14.4708C36.5979 14.5431 36.628 14.6116 36.6793 14.6622C36.7307 14.7127 36.7993 14.7416 36.8712 14.7427Z" fill="#00402A" stroke="#FFFEFF" stroke-width="0.5"/>
<path d="M36.8712 13.3982H38.5778C38.6506 13.3967 38.7199 13.367 38.7714 13.3153C38.8228 13.2635 38.8523 13.1937 38.8538 13.1205V12.6198C38.8523 12.5466 38.8228 12.4768 38.7714 12.425C38.7199 12.3733 38.6506 12.3435 38.5778 12.342H36.8712C36.7984 12.3435 36.7291 12.3733 36.6777 12.425C36.6263 12.4768 36.5967 12.5466 36.5952 12.6198V13.1205C36.5967 13.1937 36.6263 13.2635 36.6777 13.3153C36.7291 13.367 36.7984 13.3967 36.8712 13.3982Z" fill="#00402A" stroke="#FFFEFF" stroke-width="0.5"/>
<path d="M34.2112 14.8605H34.9533C34.9847 14.8606 35.0158 14.8542 35.0448 14.8417C35.0737 14.8293 35.0997 14.811 35.1214 14.7881C35.1431 14.7652 35.16 14.7381 35.1709 14.7084C35.1819 14.6787 35.1867 14.6471 35.1851 14.6155V11.7548C35.1851 11.6929 35.1607 11.6336 35.1172 11.5898C35.0737 11.546 35.0148 11.5215 34.9533 11.5215H34.2112C34.1497 11.5215 34.0907 11.546 34.0472 11.5898C34.0037 11.6336 33.9793 11.6929 33.9793 11.7548V14.6155C33.9777 14.6471 33.9826 14.6787 33.9935 14.7084C34.0045 14.7381 34.0213 14.7652 34.043 14.7881C34.0647 14.811 34.0908 14.8293 34.1197 14.8417C34.1486 14.8542 34.1797 14.8606 34.2112 14.8605Z" fill="#00402A" stroke="#FFFEFF" stroke-width="0.5"/>
<path d="M33.7335 14.7427H35.4414C35.5123 14.7404 35.5797 14.711 35.6298 14.6605C35.68 14.61 35.7092 14.5422 35.7115 14.4708V13.969C35.7103 13.8959 35.681 13.8261 35.6298 13.7743C35.5785 13.7225 35.5094 13.6927 35.4367 13.6912H33.7289C33.6927 13.691 33.6568 13.6981 33.6233 13.712C33.5898 13.726 33.5594 13.7465 33.5338 13.7723C33.5083 13.7981 33.488 13.8288 33.4744 13.8626C33.4607 13.8963 33.4538 13.9325 33.4541 13.969V14.4708C33.4544 14.5072 33.4619 14.5432 33.4762 14.5767C33.4904 14.6102 33.5111 14.6405 33.5372 14.6658C33.5632 14.6911 33.594 14.7109 33.6277 14.7241C33.6614 14.7374 33.6974 14.7437 33.7335 14.7427Z" fill="#00402A" stroke="#FFFEFF" stroke-width="0.5"/>
<path d="M33.7338 13.3982H35.4416C35.5142 13.3967 35.5834 13.367 35.6347 13.3152C35.6859 13.2634 35.7152 13.1936 35.7164 13.1205V12.6198C35.7152 12.5467 35.6859 12.4769 35.6347 12.4251C35.5834 12.3733 35.5142 12.3435 35.4416 12.342H33.7338C33.6976 12.3419 33.6616 12.3489 33.6282 12.3628C33.5947 12.3768 33.5643 12.3973 33.5387 12.4231C33.5132 12.4489 33.4929 12.4796 33.4792 12.5134C33.4655 12.5471 33.4587 12.5833 33.459 12.6198V13.1205C33.4587 13.157 33.4655 13.1931 33.4792 13.2269C33.4929 13.2606 33.5132 13.2913 33.5387 13.3172C33.5643 13.343 33.5947 13.3635 33.6282 13.3774C33.6616 13.3913 33.6976 13.3984 33.7338 13.3982Z" fill="#00402A" stroke="#FFFEFF" stroke-width="0.5"/>
<path d="M13.8445 14.8606H14.5761C14.6082 14.8611 14.6401 14.8551 14.6698 14.8429C14.6996 14.8308 14.7266 14.8127 14.7493 14.7899C14.772 14.767 14.7899 14.7398 14.802 14.7099C14.814 14.6799 14.82 14.6479 14.8196 14.6155V11.7549C14.8196 11.7232 14.8132 11.6919 14.8009 11.6628C14.7885 11.6337 14.7704 11.6074 14.7476 11.5856C14.7248 11.5637 14.6979 11.5468 14.6684 11.5358C14.6389 11.5248 14.6075 11.52 14.5761 11.5215H13.8445C13.783 11.5215 13.724 11.5461 13.6805 11.5898C13.637 11.6336 13.6126 11.693 13.6126 11.7549V14.6155C13.611 14.6472 13.6158 14.6788 13.6268 14.7084C13.6377 14.7381 13.6546 14.7652 13.6763 14.7882C13.6979 14.8111 13.724 14.8293 13.753 14.8418C13.7819 14.8542 13.813 14.8606 13.8445 14.8606Z" fill="#00402A" stroke="#FFFEFF" stroke-width="0.5"/>
<path d="M13.356 14.7427H15.0627C15.1353 14.7415 15.2047 14.7121 15.2561 14.6605C15.3076 14.6089 15.3372 14.5392 15.3387 14.4661V13.9643C15.3372 13.8911 15.3077 13.8213 15.2562 13.7695C15.2048 13.7177 15.1354 13.688 15.0627 13.6865H13.356C13.2833 13.688 13.214 13.7177 13.1626 13.7695C13.1111 13.8213 13.0816 13.8911 13.0801 13.9643V14.4708C13.0827 14.5431 13.1128 14.6116 13.1642 14.6622C13.2155 14.7127 13.2842 14.7416 13.356 14.7427Z" fill="#00402A" stroke="#FFFEFF" stroke-width="0.5"/>
<path d="M13.356 13.3982H15.0627C15.1354 13.3967 15.2048 13.367 15.2562 13.3153C15.3077 13.2635 15.3372 13.1937 15.3387 13.1205V12.6198C15.3372 12.5466 15.3077 12.4768 15.2562 12.425C15.2048 12.3733 15.1354 12.3435 15.0627 12.342H13.356C13.2833 12.3435 13.214 12.3733 13.1626 12.425C13.1111 12.4768 13.0816 12.5466 13.0801 12.6198V13.1205C13.0816 13.1937 13.1111 13.2635 13.1626 13.3153C13.214 13.367 13.2833 13.3967 13.356 13.3982Z" fill="#00402A" stroke="#FFFEFF" stroke-width="0.5"/>
<path d="M10.7054 14.8606H11.437C11.5013 14.8597 11.5627 14.8336 11.6082 14.7878C11.6537 14.742 11.6796 14.6803 11.6805 14.6155V11.7549C11.6775 11.6919 11.6506 11.6326 11.6052 11.5891C11.5599 11.5457 11.4996 11.5215 11.437 11.5215H10.7054C10.674 11.52 10.6426 11.5248 10.6131 11.5358C10.5836 11.5468 10.5567 11.5637 10.5339 11.5856C10.5111 11.6074 10.493 11.6337 10.4806 11.6628C10.4683 11.6919 10.4619 11.7232 10.4619 11.7549V14.6155C10.4615 14.6479 10.4675 14.6799 10.4795 14.7099C10.4916 14.7398 10.5095 14.767 10.5322 14.7899C10.5549 14.8127 10.5819 14.8308 10.6117 14.8429C10.6414 14.8551 10.6733 14.8611 10.7054 14.8606Z" fill="#00402A" stroke="#FFFEFF" stroke-width="0.5"/>
<path d="M10.2188 14.7427H11.9255C11.9981 14.7415 12.0674 14.7121 12.1189 14.6605C12.1704 14.6089 12.2 14.5392 12.2015 14.4661V13.9643C12.2 13.8911 12.1704 13.8213 12.119 13.7695C12.0676 13.7177 11.9982 13.688 11.9255 13.6865H10.2188C10.1461 13.688 10.0768 13.7177 10.0253 13.7695C9.97392 13.8213 9.94435 13.8911 9.94287 13.9643V14.4708C9.94553 14.5431 9.97564 14.6116 10.027 14.6622C10.0783 14.7127 10.147 14.7416 10.2188 14.7427Z" fill="#00402A" stroke="#FFFEFF" stroke-width="0.5"/>
<path d="M10.2188 13.3982H11.9255C11.9982 13.3967 12.0676 13.367 12.119 13.3153C12.1704 13.2635 12.2 13.1937 12.2015 13.1205V12.6198C12.2 12.5466 12.1704 12.4768 12.119 12.425C12.0676 12.3733 11.9982 12.3435 11.9255 12.342H10.2188C10.1461 12.3435 10.0768 12.3733 10.0253 12.425C9.97392 12.4768 9.94435 12.5466 9.94287 12.6198V13.1205C9.94435 13.1937 9.97392 13.2635 10.0253 13.3153C10.0768 13.367 10.1461 13.3967 10.2188 13.3982Z" fill="#00402A" stroke="#FFFEFF" stroke-width="0.5"/>
<path d="M37.3597 25.1485H38.0913C38.1225 25.1492 38.1536 25.1438 38.1827 25.1325C38.2118 25.1212 38.2385 25.1043 38.2611 25.0826C38.2837 25.0609 38.3018 25.035 38.3145 25.0062C38.3271 24.9775 38.334 24.9465 38.3348 24.915V22.0568C38.3354 22.0245 38.3295 21.9923 38.3175 21.9623C38.3055 21.9323 38.2876 21.905 38.2649 21.8821C38.2421 21.8592 38.215 21.8412 38.1852 21.8291C38.1554 21.817 38.1235 21.8111 38.0913 21.8117H37.3597C37.2953 21.8123 37.2337 21.8384 37.1882 21.8842C37.1426 21.93 37.1168 21.992 37.1162 22.0568V24.9174C37.1183 24.9804 37.1451 25.0401 37.1907 25.0834C37.2363 25.1266 37.297 25.15 37.3597 25.1485Z" fill="#00402A" stroke="#FFFEFF" stroke-width="0.5"/>
<path d="M36.8702 25.0305H38.5769C38.6495 25.0293 38.7188 24.9999 38.7703 24.9483C38.8217 24.8967 38.8513 24.827 38.8528 24.7539V24.2626C38.853 24.226 38.8459 24.1898 38.8321 24.1561C38.8183 24.1223 38.798 24.0916 38.7724 24.0658C38.7467 24.04 38.7162 24.0195 38.6827 24.0056C38.6491 23.9917 38.6132 23.9846 38.5769 23.9847H36.8702C36.8339 23.9846 36.7979 23.9917 36.7644 24.0056C36.7309 24.0195 36.7004 24.04 36.6747 24.0658C36.6491 24.0916 36.6288 24.1223 36.6149 24.1561C36.6011 24.1898 36.5941 24.226 36.5942 24.2626V24.7539C36.5957 24.827 36.6253 24.8967 36.6768 24.9483C36.7283 24.9999 36.7976 25.0293 36.8702 25.0305Z" fill="#00402A" stroke="#FFFEFF" stroke-width="0.5"/>
<path d="M36.8702 23.6909H38.5769C38.6496 23.6894 38.7189 23.6596 38.7704 23.6078C38.8218 23.556 38.8513 23.4863 38.8528 23.4131V22.9229C38.8513 22.8497 38.8218 22.7799 38.7704 22.7281C38.7189 22.6764 38.6496 22.6466 38.5769 22.6451H36.8702C36.7975 22.6466 36.7281 22.6764 36.6767 22.7281C36.6253 22.7799 36.5957 22.8497 36.5942 22.9229V23.4131C36.5957 23.4863 36.6253 23.556 36.6767 23.6078C36.7281 23.6596 36.7975 23.6894 36.8702 23.6909Z" fill="#00402A" stroke="#FFFEFF" stroke-width="0.5"/>
<path d="M34.2102 25.1484H34.9523C35.0138 25.1484 35.0728 25.1238 35.1162 25.08C35.1597 25.0363 35.1841 24.9769 35.1841 24.915V22.0568C35.1857 22.0251 35.1809 21.9936 35.17 21.9639C35.159 21.9342 35.1421 21.907 35.1205 21.8841C35.0988 21.8612 35.0727 21.8429 35.0438 21.8305C35.0149 21.818 34.9837 21.8116 34.9523 21.8116H34.2102C34.1788 21.8116 34.1476 21.818 34.1187 21.8305C34.0898 21.8429 34.0637 21.8612 34.042 21.8841C34.0203 21.907 34.0035 21.9342 33.9925 21.9639C33.9816 21.9936 33.9767 22.0251 33.9783 22.0568V24.9173C33.9789 24.9788 34.0036 25.0376 34.0471 25.0809C34.0905 25.1242 34.1491 25.1484 34.2102 25.1484Z" fill="#00402A" stroke="#FFFEFF" stroke-width="0.5"/>
<path d="M33.7325 25.0306H35.4403C35.5128 25.0294 35.582 24.9999 35.6333 24.9483C35.6846 24.8966 35.7139 24.827 35.7151 24.754V24.2627C35.7154 24.2262 35.7085 24.19 35.6948 24.1563C35.6811 24.1225 35.6609 24.0918 35.6354 24.066C35.6098 24.0402 35.5794 24.0197 35.5459 24.0057C35.5125 23.9918 35.4765 23.9847 35.4403 23.9849H33.7325C33.696 23.9837 33.6596 23.9902 33.6257 24.0037C33.5918 24.0173 33.561 24.0378 33.5352 24.0638C33.5094 24.0898 33.4893 24.1209 33.4759 24.1551C33.4626 24.1893 33.4564 24.226 33.4577 24.2627V24.754C33.4574 24.7904 33.4643 24.8266 33.478 24.8603C33.4917 24.894 33.5119 24.9246 33.5375 24.9503C33.5631 24.9761 33.5934 24.9964 33.6269 25.0102C33.6604 25.024 33.6963 25.0309 33.7325 25.0306Z" fill="#00402A" stroke="#FFFEFF" stroke-width="0.5"/>
<path d="M33.7323 23.6909H35.4402C35.5128 23.6894 35.582 23.6595 35.6332 23.6077C35.6845 23.5559 35.7138 23.4862 35.7149 23.4131V22.9229C35.7138 22.8498 35.6845 22.78 35.6332 22.7282C35.582 22.6764 35.5128 22.6466 35.4402 22.6451H33.7323C33.6961 22.645 33.6602 22.652 33.6267 22.6659C33.5932 22.6799 33.5628 22.7004 33.5372 22.7262C33.5117 22.752 33.4915 22.7827 33.4778 22.8165C33.4641 22.8502 33.4572 22.8864 33.4575 22.9229V23.4131C33.4572 23.4495 33.4641 23.4857 33.4778 23.5195C33.4915 23.5532 33.5117 23.5839 33.5372 23.6097C33.5628 23.6356 33.5932 23.6561 33.6267 23.67C33.6602 23.6839 33.6961 23.691 33.7323 23.6909Z" fill="#00402A" stroke="#FFFEFF" stroke-width="0.5"/>
<path d="M13.8445 25.1485H14.5761C14.6073 25.1492 14.6383 25.1438 14.6675 25.1325C14.6966 25.1212 14.7232 25.1043 14.7459 25.0826C14.7685 25.0609 14.7866 25.035 14.7993 25.0062C14.8119 24.9775 14.8188 24.9465 14.8196 24.915V22.0568C14.8202 22.0245 14.8143 21.9923 14.8023 21.9623C14.7903 21.9323 14.7724 21.905 14.7496 21.8821C14.7269 21.8592 14.6998 21.8412 14.67 21.8291C14.6402 21.817 14.6082 21.8111 14.5761 21.8117H13.8445C13.813 21.8117 13.7819 21.818 13.753 21.8305C13.724 21.843 13.6979 21.8612 13.6763 21.8841C13.6546 21.9071 13.6377 21.9342 13.6268 21.9639C13.6158 21.9936 13.611 22.0252 13.6126 22.0568V24.9174C13.6132 24.9789 13.6379 25.0377 13.6813 25.0809C13.7247 25.1242 13.7834 25.1485 13.8445 25.1485Z" fill="#00402A" stroke="#FFFEFF" stroke-width="0.5"/>
<path d="M13.356 25.0305H15.0627C15.1353 25.0293 15.2047 24.9999 15.2562 24.9483C15.3076 24.8967 15.3372 24.827 15.3387 24.7539V24.2626C15.3388 24.226 15.3318 24.1898 15.318 24.1561C15.3042 24.1223 15.2839 24.0916 15.2582 24.0658C15.2325 24.04 15.2021 24.0195 15.1685 24.0056C15.135 23.9917 15.099 23.9846 15.0627 23.9847H13.356C13.3198 23.9846 13.2838 23.9917 13.2502 24.0056C13.2167 24.0195 13.1862 24.04 13.1606 24.0658C13.1349 24.0916 13.1146 24.1223 13.1008 24.1561C13.087 24.1898 13.0799 24.226 13.0801 24.2626V24.7539C13.0816 24.827 13.1112 24.8967 13.1626 24.9483C13.2141 24.9999 13.2834 25.0293 13.356 25.0305Z" fill="#00402A" stroke="#FFFEFF" stroke-width="0.5"/>
<path d="M13.356 23.6909H15.0627C15.1354 23.6894 15.2048 23.6596 15.2562 23.6078C15.3077 23.556 15.3372 23.4863 15.3387 23.4131V22.9229C15.3372 22.8497 15.3077 22.7799 15.2562 22.7281C15.2048 22.6764 15.1354 22.6466 15.0627 22.6451H13.356C13.2833 22.6466 13.214 22.6764 13.1626 22.7281C13.1111 22.7799 13.0816 22.8497 13.0801 22.9229V23.4131C13.0816 23.4863 13.1111 23.556 13.1626 23.6078C13.214 23.6596 13.2833 23.6894 13.356 23.6909Z" fill="#00402A" stroke="#FFFEFF" stroke-width="0.5"/>
<path d="M10.7054 25.1485H11.4371C11.4996 25.1483 11.5597 25.124 11.6049 25.0806C11.6502 25.0372 11.6773 24.9779 11.6805 24.915V22.0568C11.6799 21.992 11.6541 21.93 11.6086 21.8842C11.563 21.8384 11.5014 21.8123 11.4371 21.8117H10.7054C10.6733 21.8111 10.6414 21.817 10.6115 21.8291C10.5817 21.8412 10.5546 21.8592 10.5319 21.8821C10.5091 21.905 10.4912 21.9323 10.4792 21.9623C10.4672 21.9923 10.4613 22.0245 10.462 22.0568V24.9174C10.4641 24.9804 10.4908 25.0401 10.5364 25.0834C10.582 25.1266 10.6428 25.15 10.7054 25.1485Z" fill="#00402A" stroke="#FFFEFF" stroke-width="0.5"/>
<path d="M10.2188 25.0305H11.9255C11.9981 25.0293 12.0674 24.9999 12.1189 24.9483C12.1704 24.8967 12.2 24.827 12.2015 24.7539V24.2626C12.2016 24.226 12.1946 24.1898 12.1808 24.1561C12.1669 24.1223 12.1467 24.0916 12.121 24.0658C12.0953 24.04 12.0648 24.0195 12.0313 24.0056C11.9978 23.9917 11.9618 23.9846 11.9255 23.9847H10.2188C10.1825 23.9846 10.1466 23.9917 10.113 24.0056C10.0795 24.0195 10.049 24.04 10.0234 24.0658C9.99772 24.0916 9.97739 24.1223 9.96357 24.1561C9.94976 24.1898 9.94272 24.226 9.94287 24.2626V24.7539C9.94436 24.827 9.97396 24.8967 10.0254 24.9483C10.0769 24.9999 10.1462 25.0293 10.2188 25.0305Z" fill="#00402A" stroke="#FFFEFF" stroke-width="0.5"/>
<path d="M10.2188 23.6909H11.9255C11.9982 23.6894 12.0676 23.6596 12.119 23.6078C12.1704 23.556 12.2 23.4863 12.2015 23.4131V22.9229C12.2 22.8497 12.1704 22.7799 12.119 22.7281C12.0676 22.6764 11.9982 22.6466 11.9255 22.6451H10.2188C10.1461 22.6466 10.0768 22.6764 10.0253 22.7281C9.97392 22.7799 9.94435 22.8497 9.94287 22.9229V23.4131C9.94435 23.4863 9.97392 23.556 10.0253 23.6078C10.0768 23.6596 10.1461 23.6894 10.2188 23.6909Z" fill="#00402A" stroke="#FFFEFF" stroke-width="0.5"/>
<path d="M34.0879 45.7354H33.3563C33.3249 45.737 33.2935 45.7321 33.264 45.7211C33.2345 45.7101 33.2076 45.6931 33.1848 45.6713C33.162 45.6495 33.1439 45.6232 33.1315 45.5941C33.1191 45.565 33.1128 45.5336 33.1128 45.502V42.6414C33.1122 42.609 33.1181 42.5768 33.1301 42.5468C33.1421 42.5168 33.16 42.4896 33.1828 42.4667C33.2055 42.4438 33.2326 42.4258 33.2624 42.4137C33.2922 42.4016 33.3242 42.3957 33.3563 42.3963H34.0879C34.1524 42.3969 34.2141 42.4229 34.2598 42.4687C34.3055 42.5145 34.3317 42.5765 34.3326 42.6414V45.502C34.3293 45.565 34.3021 45.6244 34.2565 45.6679C34.211 45.7113 34.1507 45.7355 34.0879 45.7354Z" fill="#00402A" stroke="#FFFEFF" stroke-width="0.5"/>
<path d="M34.5715 45.6188H32.8648C32.7921 45.6173 32.7227 45.5876 32.6713 45.5358C32.6199 45.484 32.5903 45.4142 32.5889 45.341V44.8496C32.5903 44.7764 32.6199 44.7067 32.6713 44.6549C32.7227 44.6031 32.7921 44.5734 32.8648 44.5719H34.5715C34.6442 44.5734 34.7135 44.6031 34.765 44.6549C34.8164 44.7067 34.846 44.7764 34.8475 44.8496V45.341C34.846 45.4142 34.8164 45.484 34.765 45.5358C34.7135 45.5876 34.6442 45.6173 34.5715 45.6188Z" fill="#00402A" stroke="#FFFEFF" stroke-width="0.5"/>
<path d="M34.5715 44.2729H32.8648C32.8286 44.2732 32.7926 44.2663 32.7591 44.2525C32.7256 44.2388 32.6951 44.2184 32.6694 44.1927C32.6437 44.167 32.6234 44.1364 32.6096 44.1026C32.5957 44.0689 32.5887 44.0328 32.5889 43.9963V43.505C32.5904 43.4318 32.6199 43.362 32.6713 43.3102C32.7227 43.2585 32.7921 43.2287 32.8648 43.2272H34.5715C34.6442 43.2287 34.7135 43.2585 34.765 43.3102C34.8164 43.362 34.846 43.4318 34.8475 43.505V43.9963C34.8476 44.0328 34.8405 44.0689 34.8267 44.1026C34.8129 44.1364 34.7926 44.167 34.7669 44.1927C34.7412 44.2184 34.7107 44.2388 34.6772 44.2525C34.6436 44.2663 34.6077 44.2732 34.5715 44.2729Z" fill="#00402A" stroke="#FFFEFF" stroke-width="0.5"/>
<path d="M37.2325 45.7354H36.4905C36.429 45.7354 36.37 45.7108 36.3265 45.667C36.283 45.6232 36.2586 45.5638 36.2586 45.5019V42.6414C36.257 42.6097 36.2619 42.5781 36.2728 42.5484C36.2838 42.5187 36.3006 42.4916 36.3223 42.4687C36.344 42.4458 36.3701 42.4275 36.399 42.415C36.4279 42.4026 36.459 42.3962 36.4905 42.3962H37.2325C37.264 42.3962 37.2951 42.4026 37.324 42.415C37.3529 42.4275 37.379 42.4458 37.4007 42.4687C37.4224 42.4916 37.4392 42.5187 37.4502 42.5484C37.4611 42.5781 37.466 42.6097 37.4644 42.6414V45.5019C37.4644 45.5638 37.44 45.6232 37.3965 45.667C37.353 45.7108 37.294 45.7354 37.2325 45.7354Z" fill="#00402A" stroke="#FFFEFF" stroke-width="0.5"/>
<path d="M37.7102 45.6188H36.0023C35.9297 45.6173 35.8605 45.5875 35.8092 45.5357C35.758 45.4839 35.7287 45.4141 35.7275 45.341V44.8496C35.7287 44.7765 35.758 44.7068 35.8092 44.655C35.8605 44.6032 35.9297 44.5734 36.0023 44.5719H37.7102C37.7828 44.5734 37.852 44.6032 37.9032 44.655C37.9545 44.7068 37.9838 44.7765 37.985 44.8496V45.341C37.9838 45.4141 37.9545 45.4839 37.9032 45.5357C37.852 45.5875 37.7828 45.6173 37.7102 45.6188Z" fill="#00402A" stroke="#FFFEFF" stroke-width="0.5"/>
<path d="M37.7102 44.2729H36.0023C35.9662 44.2732 35.9303 44.2663 35.8968 44.2525C35.8633 44.2387 35.8329 44.2184 35.8073 44.1926C35.7818 44.1669 35.7615 44.1363 35.7478 44.1026C35.7341 44.0689 35.7272 44.0327 35.7275 43.9963V43.505C35.7287 43.4319 35.758 43.3621 35.8092 43.3103C35.8605 43.2585 35.9297 43.2287 36.0023 43.2272H37.7102C37.7828 43.2287 37.852 43.2585 37.9032 43.3103C37.9545 43.3621 37.9838 43.4319 37.985 43.505V43.9963C37.9853 44.0327 37.9784 44.0689 37.9647 44.1026C37.951 44.1363 37.9308 44.1669 37.9052 44.1926C37.8796 44.2184 37.8492 44.2387 37.8157 44.2525C37.7822 44.2663 37.7464 44.2732 37.7102 44.2729Z" fill="#00402A" stroke="#FFFEFF" stroke-width="0.5"/>
<path d="M43.2476 45.7354H42.516C42.4846 45.737 42.4532 45.7321 42.4237 45.7211C42.3942 45.7101 42.3673 45.6931 42.3445 45.6713C42.3217 45.6495 42.3036 45.6232 42.2912 45.5941C42.2788 45.565 42.2725 45.5336 42.2725 45.502V42.6414C42.2719 42.609 42.2777 42.5768 42.2897 42.5468C42.3018 42.5168 42.3197 42.4896 42.3424 42.4667C42.3652 42.4438 42.3922 42.4258 42.4221 42.4137C42.4519 42.4016 42.4838 42.3957 42.516 42.3963H43.2476C43.2791 42.3962 43.3102 42.4026 43.3391 42.4151C43.368 42.4275 43.3941 42.4458 43.4158 42.4687C43.4375 42.4917 43.4543 42.5188 43.4653 42.5484C43.4762 42.5781 43.481 42.6098 43.4795 42.6414V45.502C43.4795 45.5639 43.4551 45.6233 43.4116 45.667C43.3681 45.7108 43.3091 45.7354 43.2476 45.7354Z" fill="#00402A" stroke="#FFFEFF" stroke-width="0.5"/>
<path d="M43.7326 45.6188H42.0248C41.9522 45.6173 41.8829 45.5875 41.8317 45.5357C41.7805 45.4839 41.7512 45.4141 41.75 45.341V44.8496C41.7512 44.7765 41.7805 44.7068 41.8317 44.655C41.8829 44.6032 41.9522 44.5734 42.0248 44.5719H43.7326C43.8052 44.5734 43.8744 44.6032 43.9257 44.655C43.9769 44.7068 44.0062 44.7765 44.0074 44.8496V45.341C44.0062 45.4141 43.9769 45.4839 43.9257 45.5357C43.8744 45.5875 43.8052 45.6173 43.7326 45.6188Z" fill="#00402A" stroke="#FFFEFF" stroke-width="0.5"/>
<path d="M43.7326 44.2729H42.0248C41.9886 44.2732 41.9527 44.2663 41.9192 44.2525C41.8858 44.2387 41.8554 44.2184 41.8298 44.1926C41.8042 44.1669 41.784 44.1363 41.7703 44.1026C41.7566 44.0689 41.7497 44.0327 41.75 43.9963V43.505C41.7512 43.4319 41.7805 43.3621 41.8317 43.3103C41.883 43.2585 41.9522 43.2287 42.0248 43.2272H43.7326C43.8053 43.2287 43.8744 43.2585 43.9257 43.3103C43.9769 43.3621 44.0062 43.4319 44.0074 43.505V43.9963C44.0077 44.0327 44.0008 44.0689 43.9871 44.1026C43.9734 44.1363 43.9532 44.1669 43.9276 44.1926C43.9021 44.2184 43.8716 44.2387 43.8382 44.2525C43.8047 44.2663 43.7688 44.2732 43.7326 44.2729Z" fill="#00402A" stroke="#FFFEFF" stroke-width="0.5"/>
<path d="M14.7134 45.7354H15.445C15.4764 45.737 15.5079 45.7321 15.5374 45.7211C15.5668 45.7101 15.5938 45.6931 15.6165 45.6713C15.6393 45.6495 15.6575 45.6232 15.6698 45.5941C15.6822 45.565 15.6885 45.5336 15.6885 45.502V42.6414C15.6891 42.609 15.6833 42.5768 15.6713 42.5468C15.6593 42.5168 15.6413 42.4896 15.6186 42.4667C15.5959 42.4438 15.5688 42.4258 15.5389 42.4137C15.5091 42.4016 15.4772 42.3957 15.445 42.3963H14.7134C14.6812 42.3957 14.6492 42.4016 14.6193 42.4137C14.5894 42.4257 14.5623 42.4437 14.5395 42.4666C14.5166 42.4895 14.4986 42.5167 14.4865 42.5467C14.4743 42.5768 14.4683 42.609 14.4688 42.6414V45.502C14.4695 45.5335 14.4765 45.5646 14.4892 45.5934C14.5019 45.6222 14.5202 45.6482 14.5429 45.6699C14.5656 45.6916 14.5924 45.7085 14.6217 45.7197C14.6509 45.731 14.6821 45.7364 14.7134 45.7354Z" fill="#00402A" stroke="#FFFEFF" stroke-width="0.5"/>
<path d="M14.2257 45.6188H15.9323C16.0051 45.6173 16.0744 45.5876 16.1258 45.5358C16.1773 45.484 16.2068 45.4142 16.2083 45.341V44.8496C16.2068 44.7764 16.1773 44.7067 16.1258 44.6549C16.0744 44.6031 16.0051 44.5734 15.9323 44.5719H14.2257C14.1529 44.5734 14.0836 44.6031 14.0322 44.6549C13.9808 44.7067 13.9512 44.7764 13.9497 44.8496V45.341C13.9512 45.4142 13.9808 45.484 14.0322 45.5358C14.0836 45.5876 14.1529 45.6173 14.2257 45.6188Z" fill="#00402A" stroke="#FFFEFF" stroke-width="0.5"/>
<path d="M14.2257 44.2729H15.9323C15.9686 44.2732 16.0045 44.2663 16.0381 44.2525C16.0716 44.2388 16.1021 44.2184 16.1278 44.1927C16.1534 44.167 16.1738 44.1364 16.1876 44.1026C16.2014 44.0689 16.2084 44.0328 16.2083 43.9963V43.505C16.2068 43.4318 16.1773 43.362 16.1259 43.3102C16.0744 43.2585 16.0051 43.2287 15.9323 43.2272H14.2257C14.1529 43.2287 14.0836 43.2585 14.0322 43.3102C13.9808 43.362 13.9512 43.4318 13.9497 43.505V43.9963C13.9496 44.0328 13.9566 44.0689 13.9704 44.1026C13.9843 44.1364 14.0046 44.167 14.0303 44.1927C14.0559 44.2184 14.0864 44.2388 14.12 44.2525C14.1535 44.2663 14.1894 44.2732 14.2257 44.2729Z" fill="#00402A" stroke="#FFFEFF" stroke-width="0.5"/>
<path d="M11.5647 45.7354H12.3067C12.3682 45.7354 12.4272 45.7108 12.4707 45.667C12.5142 45.6232 12.5386 45.5638 12.5386 45.5019V42.6414C12.5402 42.6097 12.5354 42.5781 12.5244 42.5484C12.5135 42.5187 12.4966 42.4916 12.4749 42.4687C12.4533 42.4458 12.4272 42.4275 12.3982 42.415C12.3693 42.4026 12.3382 42.3962 12.3067 42.3962H11.5647C11.5332 42.3962 11.5021 42.4026 11.4732 42.415C11.4443 42.4275 11.4182 42.4458 11.3965 42.4687C11.3748 42.4916 11.3579 42.5187 11.347 42.5484C11.3361 42.5781 11.3312 42.6097 11.3328 42.6414V45.5019C11.3328 45.5638 11.3572 45.6232 11.4007 45.667C11.4442 45.7108 11.5032 45.7354 11.5647 45.7354Z" fill="#00402A" stroke="#FFFEFF" stroke-width="0.5"/>
<path d="M11.0868 45.6188H12.7831C12.8575 45.6197 12.9293 45.5911 12.9829 45.5391C13.0365 45.4872 13.0676 45.416 13.0694 45.341V44.8497C13.0676 44.7747 13.0365 44.7036 12.9829 44.6516C12.9293 44.5996 12.8575 44.571 12.7831 44.5719H11.0868C11.0506 44.5718 11.0147 44.5788 10.9812 44.5927C10.9477 44.6066 10.9173 44.6271 10.8917 44.653C10.8662 44.6788 10.846 44.7095 10.8323 44.7433C10.8186 44.7771 10.8117 44.8132 10.812 44.8497V45.341C10.8117 45.3775 10.8186 45.4136 10.8323 45.4474C10.846 45.4812 10.8662 45.5119 10.8917 45.5377C10.9173 45.5636 10.9477 45.584 10.9812 45.5979C11.0147 45.6118 11.0506 45.6189 11.0868 45.6188Z" fill="#00402A" stroke="#FFFEFF" stroke-width="0.5"/>
<path d="M11.0869 44.2729H12.7832C12.8202 44.2745 12.8572 44.2685 12.8919 44.2553C12.9266 44.2421 12.9583 44.222 12.985 44.1962C13.0118 44.1704 13.0331 44.1393 13.0476 44.105C13.0621 44.0706 13.0696 44.0336 13.0696 43.9963V43.505C13.0677 43.4301 13.0367 43.3589 12.983 43.3069C12.9294 43.2549 12.8576 43.2263 12.7832 43.2272H11.0869C11.0507 43.227 11.0148 43.2341 10.9813 43.2481C10.9478 43.262 10.9174 43.2825 10.8919 43.3083C10.8663 43.3342 10.8461 43.3648 10.8324 43.3986C10.8187 43.4324 10.8118 43.4685 10.8121 43.505V43.9963C10.811 44.0329 10.8173 44.0695 10.8308 44.1035C10.8442 44.1376 10.8644 44.1686 10.8901 44.1945C10.9159 44.2204 10.9466 44.2407 10.9805 44.2542C11.0143 44.2677 11.0505 44.2741 11.0869 44.2729Z" fill="#00402A" stroke="#FFFEFF" stroke-width="0.5"/>
<path d="M5.55345 45.7354H6.28507C6.31648 45.737 6.3479 45.7321 6.37738 45.7211C6.40687 45.7101 6.43379 45.6931 6.45657 45.6713C6.47935 45.6495 6.49748 45.6232 6.50986 45.5941C6.52223 45.565 6.52858 45.5336 6.52854 45.502V42.6414C6.52917 42.609 6.52332 42.5768 6.51131 42.5468C6.49929 42.5168 6.48136 42.4896 6.45862 42.4667C6.43588 42.4438 6.4088 42.4258 6.37897 42.4137C6.34915 42.4016 6.31721 42.3957 6.28507 42.3963H5.55345C5.52199 42.3962 5.49086 42.4026 5.46195 42.4151C5.43303 42.4275 5.40693 42.4458 5.38523 42.4687C5.36354 42.4917 5.34672 42.5188 5.33577 42.5484C5.32482 42.5781 5.32001 42.6098 5.32158 42.6414V45.502C5.32158 45.5639 5.34599 45.6233 5.38948 45.667C5.43297 45.7108 5.49195 45.7354 5.55345 45.7354Z" fill="#00402A" stroke="#FFFEFF" stroke-width="0.5"/>
<path d="M5.06483 45.6188H6.77267C6.84528 45.6173 6.91451 45.5875 6.96576 45.5357C7.017 45.4839 7.04627 45.4141 7.04746 45.341V44.8496C7.04627 44.7765 7.017 44.7068 6.96576 44.655C6.91451 44.6032 6.84528 44.5734 6.77267 44.5719H5.06483C4.99222 44.5734 4.92302 44.6032 4.87177 44.655C4.82053 44.7068 4.79122 44.7765 4.79004 44.8496V45.341C4.79122 45.4141 4.82053 45.4839 4.87177 45.5357C4.92302 45.5875 4.99222 45.6173 5.06483 45.6188Z" fill="#00402A" stroke="#FFFEFF" stroke-width="0.5"/>
<path d="M5.06484 44.2729H6.77268C6.80885 44.2732 6.84475 44.2663 6.87823 44.2525C6.91171 44.2387 6.9421 44.2184 6.96768 44.1926C6.99326 44.1669 7.01349 44.1363 7.02719 44.1026C7.04089 44.0689 7.04778 44.0327 7.04747 43.9963V43.505C7.04628 43.4319 7.01701 43.3621 6.96577 43.3103C6.91452 43.2585 6.84529 43.2287 6.77268 43.2272H5.06484C4.99222 43.2287 4.92303 43.2585 4.87178 43.3103C4.82054 43.3621 4.79123 43.4319 4.79005 43.505V43.9963C4.78974 44.0327 4.79662 44.0689 4.81032 44.1026C4.82402 44.1363 4.84426 44.1669 4.86984 44.1926C4.89542 44.2184 4.92584 44.2387 4.95932 44.2525C4.9928 44.2663 5.02866 44.2732 5.06484 44.2729Z" fill="#00402A" stroke="#FFFEFF" stroke-width="0.5"/>
<path d="M14.8721 61.0384L29.0474 46.7693L29.7894 47.5267L15.6245 61.797L14.8721 61.0384Z" fill="#00402A" stroke="#FFFEFF" stroke-width="0.5"/>
<path d="M33.1923 61.8823L18.9961 47.5269L19.7486 46.7799L33.9447 61.1238L33.1923 61.8823Z" fill="#00402A" stroke="#FFFEFF" stroke-width="0.5"/>
<path d="M18.9961 46.7064L29.0473 36.5992L29.7893 37.3567L19.7486 47.4638L18.9961 46.7064Z" fill="#00402A" stroke="#FFFEFF" stroke-width="0.5"/>
<path d="M29.0473 47.465L18.9961 37.3578L19.7486 36.6003L29.7893 46.7075L29.0473 47.465Z" fill="#00402A" stroke="#FFFEFF" stroke-width="0.5"/>
<path d="M18.9961 36.5362L29.0473 26.429L29.7893 27.1865L19.7486 37.2936L18.9961 36.5362Z" fill="#00402A" stroke="#FFFEFF" stroke-width="0.5"/>
<path d="M29.0473 37.2936L18.9961 27.1865L19.7486 26.429L29.7893 36.5362L29.0473 37.2936Z" fill="#00402A" stroke="#FFFEFF" stroke-width="0.5"/>
<path d="M18.9961 26.3648L29.0473 16.2577L29.7893 17.0151L19.7486 27.1224L18.9961 26.3648Z" fill="#00402A" stroke="#FFFEFF" stroke-width="0.5"/>
<path d="M29.0473 27.1235L18.9961 17.0163L19.7486 16.2588L29.7893 26.366L29.0473 27.1235Z" fill="#00402A" stroke="#FFFEFF" stroke-width="0.5"/>
<path d="M18.9961 16.1946L29.0473 6.0874L29.7893 6.84484L19.7486 16.952L18.9961 16.1946Z" fill="#00402A" stroke="#FFFEFF" stroke-width="0.5"/>
<path d="M29.0473 16.952L18.9961 6.84484L19.7486 6.0874L29.7893 16.1946L29.0473 16.952Z" fill="#00402A" stroke="#FFFEFF" stroke-width="0.5"/>
<path d="M29.7262 31.5106L48.683 41.7451L48.4291 42.7488H0.36918L0.115234 41.7451L19.0825 31.5106L19.5811 32.4444L2.47933 41.6762H46.3189L29.2276 32.4444L29.7262 31.5106Z" fill="#00402A" stroke="#FFFEFF" stroke-width="0.5"/>
<path d="M29.6728 14.8502L41.4991 21.232L41.2452 22.2357L7.56232 22.2252L7.31885 21.2215L19.0871 14.8712L19.5857 15.8049L9.67251 21.1514L39.1362 21.1619L29.1812 15.7828L29.6728 14.8502Z" fill="#00402A" stroke="#FFFEFF" stroke-width="0.5"/>
<path d="M29.6412 4.64722L41.4941 11.0512L41.2402 12.0549H7.55616L7.30225 11.0512L19.1552 4.64722L19.6538 5.5972L9.68258 10.987H39.1196L29.1322 5.58673L29.6412 4.64722Z" fill="#00402A" stroke="#FFFEFF" stroke-width="0.5"/>
<path d="M24.3923 82.8215H8.55322L8.74337 82.1387L18.8166 47.0798V1.61621H29.9797V47.0798L40.0517 82.1387L40.243 82.8215H24.3923ZM9.9631 81.7547H38.8331L28.9408 47.3039L28.9095 47.1546V2.68295H19.8867V47.1499L19.8554 47.2992L9.9631 81.7547Z" fill="#00402A" stroke="#FFFEFF" stroke-width="0.5"/>
</g>
<defs>
<clipPath id="clip0_99_16729">
<rect width="82" height="88" rx="16" fill="white"/>
</clipPath>
</defs>
</svg>
