<svg width="70" height="93" viewBox="0 0 70 93" fill="none" xmlns="http://www.w3.org/2000/svg">
<path d="M16.9829 0.549703C16.9197 0.585707 16.8279 0.673989 16.7124 0.85668C16.5993 1.03561 16.4763 1.28453 16.3427 1.61231C15.8058 2.92989 15.1482 5.38822 14.2311 9.26749C13.3213 13.116 12.1612 18.3422 10.6131 25.202L14.9305 29.7765L14.6524 30.1793L10.0344 28.2491C8.70786 35.317 7.35521 42.5321 6.13845 49.0007L17.1434 57.5577L17.2398 57.6327L17.2397 57.7548L17.2326 61.0263L17.2322 61.4405L16.8654 61.2466L6.87804 55.9584L17.0213 64.3366L17.1089 64.4089L17.2164 69.1626L16.7932 68.8068L4.3752 58.3653C3.97164 60.5107 3.60402 62.4695 3.28099 64.1864L7.16686 68.6817L6.86301 69.0676L2.76397 66.9371C2.48751 68.4097 2.26514 69.5897 2.11008 70.4167C2.02687 70.8604 1.96348 71.2027 1.92015 71.4339C1.90522 71.5136 1.89257 71.5801 1.88265 71.633L17.2783 83.2097L30.7592 71.6333C30.7541 71.605 30.7479 71.5726 30.7414 71.536C30.7133 71.379 30.6716 71.1459 30.6172 70.8423C30.5085 70.2351 30.3491 69.3446 30.1465 68.2126C29.7412 65.9483 29.1622 62.7165 28.4694 58.8478C27.0982 51.19 25.2798 41.035 23.4708 30.942L19.0909 32.9332L18.7921 32.5492L22.8547 27.5009C21.5565 20.2559 20.2912 13.1956 19.2303 7.27598L17.0804 7.75246L16.3446 7.91466L16.8377 7.34476L18.8215 5.04931C18.5199 4.00752 18.2555 3.11688 18.0133 2.40089C17.759 1.64916 17.5357 1.11406 17.3295 0.801693C17.2256 0.644305 17.1438 0.570993 17.0892 0.54339C17.0539 0.525585 17.0286 0.523776 16.9829 0.549703Z" fill="#00A443" stroke="#00402A" stroke-width="0.5"/>
<path d="M16.9954 92.0447L17.0146 16.5713" stroke="#00402A" stroke-width="0.5" stroke-miterlimit="10"/>
<path d="M65.6313 87.6455C65.802 88.0148 66.0672 88.2719 66.3931 88.4346C66.889 88.682 67.4878 88.6906 68.0132 88.623C68.9309 88.5075 69.7685 89.2639 69.7495 90.2021C69.7398 90.6931 69.5286 91.1331 69.1597 91.4141C68.7929 91.6934 68.2435 91.8358 67.52 91.6777C66.5852 91.4724 66.0431 91.0766 65.7349 90.624C65.4236 90.1669 65.3284 89.6191 65.3501 89.0723C65.3711 88.5449 65.5004 88.0354 65.6313 87.6455Z" fill="#00402A" stroke="#00402A" stroke-width="0.5"/>
<path d="M45.5601 79.9502C47.5659 79.2733 49.8385 79.6414 51.2876 81.2109C54.0506 84.2057 53.992 87.8449 53.6069 90.0293V90.0303C53.4313 91.0436 52.59 91.744 51.6313 91.7441H37.8091C37.3056 91.0566 37.1198 90.5517 37.1265 90.1914C37.133 89.8443 37.3198 89.5829 37.7065 89.3828C38.105 89.1767 38.6894 89.0534 39.4106 89.0029C40.1267 88.9528 40.9546 88.9756 41.8247 89.0459C43.565 89.1865 45.4519 89.5147 46.9067 89.8086C47.6334 89.9554 48.2515 90.0931 48.687 90.1943C48.9044 90.2449 49.0763 90.2867 49.1938 90.3154C49.2527 90.3298 49.2982 90.3411 49.3286 90.3486C49.3437 90.3524 49.3552 90.3555 49.3628 90.3574C49.3665 90.3584 49.3697 90.3589 49.3716 90.3594H49.3735L49.436 90.1172L49.3745 90.3594L49.5376 89.8896L43.6021 87.2275C42.0456 86.2508 41.2038 85.3827 40.8413 84.6328C40.4882 83.9023 40.5806 83.2666 40.9536 82.6914C41.3377 82.0992 42.0245 81.5662 42.8628 81.1006C43.6966 80.6375 44.657 80.2545 45.5601 79.9512V79.9502Z" fill="#E3850D" stroke="#00402A" stroke-width="0.5"/>
<path d="M47.4355 40.0229C47.6238 39.7371 48.0683 39.7947 48.1758 40.1206L48.1768 40.1216C50.5463 47.24 48.7758 52.0991 47.5371 54.3364L47.2979 54.7485C47.0653 55.1294 46.507 55.1342 46.2461 54.73C44.3576 51.7982 44.2473 48.747 44.8145 46.1099C45.3825 43.4686 46.6277 41.2531 47.4346 40.022L47.4355 40.0229Z" fill="#C66D00" stroke="#00402A" stroke-width="0.5"/>
<path d="M42.9824 69.3389C43.3931 69.103 43.9113 69.0239 44.583 69.2041L44.8809 69.2979C46.7308 69.9995 48.7893 71.6338 49.3604 74.1748L49.3613 74.1777C49.6561 75.4295 49.8019 76.6756 49.9971 77.9365C50.1911 79.1901 50.4328 80.4472 50.9189 81.6777L50.9209 81.6836C51.2762 82.5141 51.7814 83.3201 52.3184 84.1084C52.8615 84.9058 53.4265 85.6706 53.9346 86.458C54.8919 87.9418 55.5692 89.3968 55.3447 90.9453C50.6885 89.484 42.7374 85.5972 40.918 75.8486C41.0408 74.1548 41.2456 72.2012 41.8311 70.8223C42.125 70.1301 42.5022 69.6148 42.9824 69.3389Z" fill="#00402A" stroke="#00402A" stroke-width="0.5"/>
<path d="M45.0186 54.5459C45.2461 54.5492 45.5658 54.5657 45.9316 54.6191C46.6204 54.7199 47.4534 54.948 48.1475 55.4443C46.7293 59.458 46.8118 63.9471 47.8154 67.918L47.8164 67.9219C48.5376 70.5928 50.5478 73.1329 53.0439 74.5059V74.5176L53.1816 74.5869C59.2178 77.5936 65.3227 82.2859 66.5898 88.6914C65.4124 90.3365 63.1369 91.8028 58.6963 91.748C58.6877 91.7469 58.6762 91.7452 58.6621 91.7432C58.6252 91.7378 58.5695 91.7296 58.4971 91.7178C58.3521 91.6942 58.1388 91.6565 57.8672 91.6016C57.3651 91.5 56.665 91.336 55.8311 91.0908C56.1168 89.3199 55.3407 87.706 54.3594 86.1855C53.8492 85.395 53.2626 84.5985 52.7363 83.8262C52.2054 83.047 51.7242 82.2757 51.3887 81.4932C50.9238 80.3164 50.6887 79.1051 50.4961 77.8604C50.3285 76.7776 50.192 75.6599 49.959 74.542L49.8525 74.0625C49.232 71.3065 47.0102 69.5726 45.0586 68.8291V68.8281L45.0537 68.8271L44.7148 68.7207C43.9409 68.5139 43.2841 68.5911 42.7373 68.9053C42.1233 69.2581 41.6894 69.8865 41.375 70.627C40.9984 71.5139 40.7762 72.6094 40.6309 73.709C40.5227 72.4726 40.5065 71.1519 40.6006 69.7402H40.6016V69.7285C40.6018 69.7234 40.602 69.7153 40.6025 69.7051C40.6036 69.6844 40.6061 69.6529 40.6084 69.6123C40.6131 69.5311 40.6202 69.4111 40.6309 69.2568C40.6523 68.9476 40.6866 68.4997 40.7402 67.9492C40.8475 66.848 41.0299 65.3347 41.3291 63.6875C41.6285 62.0395 42.0447 60.2617 42.6182 58.6289C43.1783 57.0341 43.8839 55.5936 44.7656 54.5469C44.8264 54.545 44.9123 54.5443 45.0186 54.5459Z" fill="#E3850D" stroke="#00402A" stroke-width="0.5"/>
<path d="M48.5571 55.7817C49.3186 56.5286 49.826 57.7498 49.4839 59.7837L49.4829 59.7866C49.466 59.8167 49.4434 59.8599 49.4165 59.9146C49.3626 60.024 49.2932 60.1811 49.229 60.3765C49.1009 60.7664 48.99 61.3151 49.0688 61.9419C49.2296 63.2196 50.1603 64.7228 53.0142 65.8657L53.0337 65.8735L53.0552 65.8784H53.0571C53.0585 65.8787 53.061 65.8787 53.064 65.8794C53.07 65.8807 53.079 65.8835 53.0913 65.8862C53.1162 65.8919 53.1541 65.9005 53.2036 65.9126C53.3029 65.9369 53.4502 65.9742 53.6382 66.0278C54.0147 66.1352 54.5563 66.3066 55.2095 66.5591C56.5162 67.0641 58.2691 67.8947 60.0532 69.1968C63.6168 71.7977 67.3116 76.2827 67.8257 83.8394L67.8638 84.3921C67.8677 84.6547 67.8589 84.9989 67.814 85.395C67.726 86.1705 67.5003 87.1359 66.9771 88.0776C65.6084 82.2101 61.1195 79.5532 55.7368 76.8394L54.6118 76.2759C53.4075 75.6358 51.6147 73.9572 50.022 72.0854C49.2284 71.1529 48.4918 70.1811 47.9106 69.2808C47.3996 68.4891 47.0166 67.7654 46.8159 67.1782L46.7417 66.9351C45.7856 63.1469 47.1317 59.6648 48.5571 55.7817Z" fill="#C66D00" stroke="#00402A" stroke-width="0.5"/>
<path d="M35.25 39.9443C35.2344 39.3856 35.8665 39.0575 36.3018 39.376C44.5541 45.4304 46.403 52.3032 46.7783 55.8174L46.835 56.4746C46.8798 57.1644 46.1747 57.6565 45.5195 57.3955C41.0846 55.6312 38.5525 52.2956 37.1094 48.8809C35.6644 45.4616 35.3162 41.9741 35.25 39.9443Z" fill="#C66D00" stroke="#00402A" stroke-width="0.5"/>
<path d="M36.3418 41.7646C36.3754 41.3817 36.8209 41.1717 37.1279 41.3965C44.331 46.6759 45.5681 52.7197 45.7422 55.3721C45.7778 55.8998 45.2366 56.2841 44.7285 56.082C41.1089 54.6416 39.0406 51.9185 37.8613 49.1279C36.6804 46.3332 36.3966 43.4818 36.3438 41.8213L36.3418 41.7646Z" fill="#00402A" stroke="#00402A" stroke-width="0.5"/>
<path d="M56.0005 54.6411C56.1165 54.7485 56.2314 54.8592 56.3442 54.9761L56.353 55.0952C56.108 55.0455 56.0272 54.969 56.0005 54.9175C55.9816 54.881 55.9684 54.8205 55.9839 54.7144C55.9873 54.6912 55.9946 54.6669 56.0005 54.6411Z" fill="#E3850D" stroke="#00402A" stroke-width="0.5"/>
<path d="M53.0034 52.835C53.146 52.8835 53.315 52.9451 53.5034 53.0244C54.0756 53.2653 54.8262 53.6609 55.5864 54.2803C55.5418 54.4043 55.5066 54.524 55.4897 54.6387C55.4649 54.8086 55.4737 54.9853 55.5571 55.1455C55.6374 55.2997 55.7688 55.4064 55.936 55.4814C55.7563 55.4492 55.571 55.3999 55.3804 55.3359C54.9275 55.184 54.5097 54.9852 54.0444 54.8066C53.6028 54.6372 53.1381 54.4952 52.6899 54.5234C52.2217 54.553 51.7949 54.7667 51.439 55.248L51.5054 55.2969L51.4165 55.2764C51.0783 55.9586 51.1118 56.7328 51.3765 57.4434C51.5813 57.9932 51.9286 58.5149 52.3667 58.9492C52.0864 58.9959 51.8058 59.043 51.5337 59.0967L51.1021 59.1895C50.85 59.2481 50.6638 59.3847 50.5503 59.4512C50.436 59.5182 50.3544 59.5495 50.2192 59.5244H50.2202C49.9738 59.4776 49.7165 59.3625 49.439 59.2197L49.438 59.2188L49.2622 59.1211C49.2108 59.0879 49.1651 59.0525 49.1235 59.0088L49.1206 59.0049L49.0708 58.9492C48.9596 58.8086 48.8733 58.5978 48.8052 58.3564C48.4411 57.05 48.8085 55.6854 49.4634 54.8887L49.4644 54.8896C50.0197 54.2157 50.8851 53.6469 51.6538 53.5615L51.9038 53.5332L51.8901 53.415L52.9683 53.8086L53.5161 54.0088L53.2827 53.4736L53.0034 52.835Z" fill="#E3850D" stroke="#00402A" stroke-width="0.5"/>
<path d="M52.7207 55.0229C53.0537 55.0019 53.4323 55.1068 53.8652 55.2729C54.2749 55.4302 54.7653 55.657 55.2217 55.8101C55.6077 55.9395 56.0154 56.0321 56.4268 56.0171C56.4658 56.2275 56.4654 56.4467 56.4297 56.6421V56.6431C56.2653 57.5502 55.6061 58.0141 54.9062 58.3315C54.3422 58.5867 53.6824 58.7285 52.9941 58.8501C52.4752 58.4228 52.0652 57.8638 51.8467 57.2788C51.6191 56.6696 51.6027 56.0515 51.8555 55.5249C52.1242 55.1707 52.4132 55.0425 52.7207 55.0229Z" fill="#E3850D" stroke="#00402A" stroke-width="0.5"/>
<path d="M42.019 72.8281C43.2929 75.5008 43.8222 78.4799 43.5464 81.4365L42.6479 91.0781L41.8042 91.5088C40.6643 87.4188 40.3656 81.856 40.3618 77.2549C40.3599 74.903 40.4337 72.809 40.5083 71.3037C40.5373 70.7187 40.5676 70.2227 40.5923 69.835L42.019 72.8281Z" fill="#E3850D" stroke="#00402A" stroke-width="0.5"/>
<path d="M40.0669 90.4126C40.4756 90.4126 40.7856 90.7232 40.7856 91.0806C40.7856 91.4342 40.4748 91.7485 40.0669 91.7485C39.6582 91.7485 39.3481 91.4379 39.3481 91.0806C39.3482 90.7233 39.6582 90.4127 40.0669 90.4126Z" fill="#E3850D" stroke="#00402A" stroke-width="0.5"/>
<path d="M41.04 90.4126C41.4487 90.4126 41.7588 90.7232 41.7588 91.0806C41.7588 91.4342 41.4479 91.7485 41.04 91.7485C40.6314 91.7485 40.3213 91.4379 40.3213 91.0806C40.3213 90.7233 40.6314 90.4127 41.04 90.4126Z" fill="#E3850D" stroke="#00402A" stroke-width="0.5"/>
<path d="M41.9155 90.4126C42.3242 90.4126 42.6343 90.7232 42.6343 91.0806C42.6343 91.4342 42.3234 91.7485 41.9155 91.7485C41.5069 91.7485 41.1968 91.4379 41.1968 91.0806C41.1968 90.7233 41.5069 90.4127 41.9155 90.4126Z" fill="#E3850D" stroke="#00402A" stroke-width="0.5"/>
<path d="M48.561 51.647C49.0104 51.5302 49.5821 51.5517 50.2095 51.6987C50.8339 51.845 51.4971 52.1121 52.1196 52.4683C53.3767 53.1874 54.4135 54.235 54.687 55.3179C54.9528 56.3703 54.458 57.3253 53.6001 58.1069C52.7426 58.8881 51.5627 59.4534 50.5913 59.7036H50.5903C48.7512 60.1813 46.7514 58.8159 46.1802 56.5542C45.6091 54.2925 46.7194 52.1214 48.5601 51.647H48.561Z" fill="#E3850D" stroke="#00402A" stroke-width="0.5"/>
<path d="M51.6436 52.9878C51.8624 52.8799 52.131 52.9719 52.2412 53.2007C52.3507 53.4283 52.2548 53.7027 52.0312 53.813C51.8124 53.9208 51.5447 53.8289 51.4346 53.6001C51.3252 53.3726 51.4202 53.0981 51.6436 52.9878Z" fill="#E3850D" stroke="#00402A" stroke-width="0.5"/>
<path d="M59.481 79.9521C61.5889 79.2727 63.9759 79.642 65.4956 81.2148C68.3882 84.2093 68.3245 87.8455 67.9224 90.0273C67.7358 91.0349 66.8597 91.7441 65.8394 91.7441H51.3657C50.836 91.0534 50.6426 90.5488 50.6499 90.1914C50.6569 89.8502 50.8496 89.5876 51.2603 89.3848C51.6808 89.1771 52.296 89.0535 53.0522 89.0029C53.8033 88.9527 54.6711 88.9756 55.5825 89.0459C57.4055 89.1866 59.3818 89.5146 60.9048 89.8086C61.6652 89.9554 62.3112 90.0941 62.7671 90.1953C62.9951 90.2459 63.1761 90.2867 63.2993 90.3154C63.3608 90.3298 63.4082 90.3411 63.4399 90.3486C63.4558 90.3524 63.4681 90.3555 63.4761 90.3574C63.4799 90.3583 63.4829 90.3589 63.4849 90.3594L63.4868 90.3604H63.4878L63.645 89.8877L57.4399 87.2285C55.8039 86.249 54.9188 85.3796 54.5386 84.6289C54.3505 84.2575 54.2869 83.9172 54.313 83.6045C54.3392 83.2908 54.4571 82.9882 54.6558 82.6953C55.0578 82.1028 55.7772 81.5689 56.6558 81.1025C57.3109 80.7548 58.0405 80.452 58.7632 80.1943L59.481 79.9521Z" fill="#E3850D" stroke="#00402A" stroke-width="0.5"/>
<path d="M51.7417 74.0811L50.479 90.3867L49.6343 90.8174C48.511 86.767 48.5202 81.9001 48.8228 77.9961C48.9774 76.0002 49.208 74.2619 49.3999 73.0234C49.4958 72.4045 49.5828 71.9102 49.645 71.5713C49.6454 71.5693 49.6456 71.5674 49.646 71.5654L51.7417 74.0811Z" fill="#E3850D" stroke="#00402A" stroke-width="0.5"/>
<path d="M48.0801 90.3496C48.49 90.3496 48.7988 90.6612 48.7988 91.0176C48.7988 91.374 48.49 91.6855 48.0801 91.6855C47.6702 91.6855 47.3613 91.3739 47.3613 91.0176C47.3613 90.6612 47.6702 90.3497 48.0801 90.3496Z" fill="#E3850D" stroke="#00402A" stroke-width="0.5"/>
<path d="M49.0488 90.3496C49.4587 90.3496 49.7676 90.6612 49.7676 91.0176C49.7676 91.374 49.4587 91.6855 49.0488 91.6855C48.639 91.6855 48.3301 91.3739 48.3301 91.0176C48.3301 90.6612 48.639 90.3497 49.0488 90.3496Z" fill="#E3850D" stroke="#00402A" stroke-width="0.5"/>
<path d="M49.9243 90.3496C50.333 90.3496 50.6431 90.6602 50.6431 91.0176C50.6431 91.3712 50.3322 91.6855 49.9243 91.6855C49.5157 91.6855 49.2056 91.3749 49.2056 91.0176C49.2056 90.6603 49.5157 90.3497 49.9243 90.3496Z" fill="#E3850D" stroke="#00402A" stroke-width="0.5"/>
</svg>
