<svg width="86" height="80" viewBox="0 0 86 80" fill="none" xmlns="http://www.w3.org/2000/svg">
<path d="M72.9351 76.6729C72.6622 76.6729 72.4004 76.7576 72.1597 76.915V76.916C71.5926 77.2932 71.1595 78.09 71.0952 79.0586H75.2007C75.1381 78.1172 74.7259 77.3416 74.1792 76.9473C74.1615 76.9405 74.1437 76.9329 74.1274 76.9219C74.0355 76.8595 73.8304 76.7934 73.5737 76.7441C73.3278 76.6969 73.0798 76.6729 72.9351 76.6729Z" fill="#00402A" stroke="#00402A" stroke-width="0.5" stroke-linejoin="round"/>
<path d="M42.3369 76.6729C42.0641 76.6729 41.8023 76.7576 41.5615 76.915V76.916C40.9944 77.2932 40.5614 78.09 40.4971 79.0586H44.6045C44.5593 78.0785 44.246 77.3045 43.7129 76.9316C43.7012 76.9261 43.6885 76.9224 43.6777 76.915C43.6428 76.8913 43.5679 76.8589 43.4482 76.8252C43.3342 76.793 43.1982 76.7652 43.0566 76.7422C42.7718 76.696 42.4845 76.6729 42.3369 76.6729Z" fill="#00402A" stroke="#00402A" stroke-width="0.5" stroke-linejoin="round"/>
<path d="M36.5586 52.6948C39.457 57.6545 41.8211 62.9579 41.8213 68.0962V76.4507H43.6318C46.0512 68.4031 46.1491 60.7738 45.1084 55.7378L36.5586 52.6948Z" fill="#FFB536" stroke="#00402A" stroke-width="0.5" stroke-linejoin="round"/>
<path d="M65.1699 55.8066C65.8799 56.1809 66.421 56.7398 66.8359 57.4023C67.4943 58.4535 67.8383 59.7603 68.0801 60.9668L68.1787 61.4766C68.6819 64.1594 68.9622 65.3887 70.2666 66.7021L70.2949 66.7354C72.2809 69.5924 72.2842 72.4581 72.2842 74.3545V76.458H74.0547C74.0618 76.4256 74.0704 76.3894 74.0791 76.3496C74.122 76.1543 74.1833 75.8724 74.2568 75.5273C74.4039 74.8372 74.5999 73.8934 74.7959 72.8799C75.1901 70.8414 75.5771 68.5543 75.5771 67.4551C75.5771 66.4062 75.1586 65.781 74.6943 65.001C74.2255 64.2132 73.7412 63.308 73.7412 61.7617C73.7413 59.8494 74.689 57.9622 75.8145 55.8066H65.1699Z" fill="#FFB536" stroke="#00402A" stroke-width="0.5" stroke-linejoin="round"/>
<path d="M78.5244 76.6729C78.2516 76.6729 77.9898 76.7576 77.749 76.915V76.916C77.1819 77.2932 76.7489 78.09 76.6846 79.0586H80.79C80.7275 78.1172 80.3152 77.3416 79.7686 76.9473C79.7509 76.9405 79.733 76.9329 79.7168 76.9219C79.6249 76.8595 79.4198 76.7934 79.1631 76.7441C78.9171 76.6969 78.6692 76.6729 78.5244 76.6729Z" fill="#00402A" stroke="#00402A" stroke-width="0.5" stroke-linejoin="round"/>
<path d="M48.0742 76.6655C47.8014 76.6656 47.5396 76.7503 47.2988 76.9077V76.9087C46.7318 77.2859 46.2987 78.0827 46.2344 79.0513H50.3398C50.2773 78.1098 49.865 77.3343 49.3184 76.9399C49.3007 76.9332 49.2828 76.9256 49.2666 76.9146C49.1747 76.8521 48.9696 76.7861 48.7129 76.7368C48.4669 76.6896 48.219 76.6655 48.0742 76.6655Z" fill="#00402A" stroke="#00402A" stroke-width="0.5" stroke-linejoin="round"/>
<path d="M32.4199 21.6606V35.6333H36.292V21.6606H32.4199Z" fill="#FFB536" stroke="#00402A" stroke-width="0.5" stroke-linejoin="round"/>
<path d="M41.6353 16.7593C41.409 16.8941 41.0836 17.0871 40.689 17.3188C39.8998 17.7821 38.8313 18.4017 37.7144 19.0269C36.5979 19.6517 35.4301 20.2833 34.4438 20.77C33.9509 21.0133 33.4997 21.2219 33.1216 21.3755C32.8495 21.486 32.6022 21.5729 32.3989 21.6216C32.2903 22.655 32.1421 23.7656 31.9946 24.9028C31.8381 26.1102 31.6827 27.3497 31.5737 28.5708C31.3552 31.0199 31.3289 33.3656 31.8501 35.2056C32.375 37.0588 33.1268 38.3321 33.7563 39.3628C34.0692 39.8751 34.3609 40.3414 34.5718 40.7847C34.7843 41.2316 34.9243 41.6746 34.9243 42.147V45.3823C34.9243 48.2268 35.2845 50.069 35.8179 51.3267C36.3475 52.5754 37.0541 53.2628 37.7827 53.7905L37.7983 53.8032C37.8766 53.8699 37.9428 53.9191 38.019 53.9575C41.4984 55.6315 43.8522 57.622 45.3335 59.9771C46.8156 62.3334 47.4096 65.0322 47.4097 68.0962V76.4507H49.2202C51.6615 68.3306 51.7401 60.6361 50.6694 55.6021C50.6537 55.5283 50.6718 55.4507 50.7192 55.3921C50.7667 55.3335 50.8382 55.2994 50.9136 55.2993H68.5757C70.4715 55.2993 71.6598 56.1746 72.4243 57.395C73.0827 58.4462 73.4276 59.753 73.6694 60.9595L73.7671 61.4692C74.2703 64.1523 74.5515 65.3813 75.856 66.6948L75.8833 66.728C77.8694 69.5851 77.8726 72.4507 77.8726 74.3472V76.4507H79.6431C79.6502 76.4182 79.6587 76.3821 79.6675 76.3423C79.7103 76.147 79.7717 75.865 79.8452 75.52C79.9923 74.83 80.1883 73.8868 80.3843 72.8735C80.7785 70.8349 81.1655 68.547 81.1655 67.4478C81.1655 66.399 80.7469 65.7746 80.2827 64.9946C79.8138 64.2069 79.3307 63.3016 79.3306 61.7554C79.3306 60.4895 79.7437 59.2414 80.3423 57.9272C80.9365 56.6227 81.7397 55.2002 82.521 53.6304C84.0942 50.4692 85.6596 46.5579 85.6597 41.103C85.6597 41.0897 85.6644 41.0769 85.6665 41.064C85.6524 37.7502 84.0971 35.1508 82.0747 33.3726C80.0362 31.5802 77.5442 30.6411 75.7231 30.6411H62.272C60.9443 30.6411 60.0334 30.4438 59.1899 29.9663C58.36 29.4963 57.611 28.7617 56.5962 27.7397H56.5952C55.3116 26.441 52.1998 24.6304 48.4282 24.6304C47.756 24.6304 47.0801 24.3621 46.4331 23.9155C45.7853 23.4684 45.1525 22.833 44.5591 22.0747C43.4274 20.6284 42.4217 18.7074 41.7241 16.7056C41.6964 16.7221 41.6669 16.7404 41.6353 16.7593Z" fill="#FFB536" stroke="#00402A" stroke-width="0.5" stroke-linejoin="round"/>
<path d="M61.8447 0.638184C61.5084 0.668976 61.2598 0.971175 61.2598 1.37451V1.38135C61.2597 4.17552 60.3269 7.98689 58.7168 11.2886C58.6595 11.406 58.6763 11.6296 58.8066 11.896C58.9331 12.1543 59.1234 12.3625 59.2793 12.4399C59.5993 12.5987 59.9891 12.4681 60.1475 12.1401L60.1484 12.1392L60.4658 11.4604C62.0044 8.03223 62.8125 4.08715 62.5518 1.23486H62.5508C62.5178 0.870983 62.2003 0.605861 61.8447 0.638184Z" fill="#00402A" stroke="#00402A" stroke-width="0.5" stroke-linejoin="round"/>
<path d="M53.271 1.75439C53.0476 1.75439 52.8642 1.92916 52.8481 2.15381C52.8494 2.16409 52.8511 2.17443 52.8511 2.18506C52.8511 5.85769 53.7126 9.29297 54.4644 11.894V11.895C54.5298 12.1258 54.7636 12.2535 54.9878 12.1851L54.9907 12.1841L55.0981 12.1431C55.2096 12.0926 55.3301 12.0133 55.4224 11.9204C55.5536 11.7881 55.5681 11.6946 55.5552 11.6499C54.8318 9.14882 53.6968 5.76274 53.6968 2.18506C53.6967 1.94553 53.5046 1.75447 53.271 1.75439Z" fill="#00402A" stroke="#00402A" stroke-width="0.5" stroke-linejoin="round"/>
<path d="M67.0571 1.54102C67.0943 1.37253 67.1253 1.19783 67.1577 1.02148C67.2189 0.66048 66.9779 0.321731 66.6313 0.266602L66.6284 0.265625C66.3232 0.213055 66.026 0.390882 65.9155 0.677734L65.8804 0.807617C65.748 1.60014 65.4912 2.46616 65.1528 3.35742C65.151 3.3623 65.1491 3.36732 65.147 3.37207C64.5959 4.58219 63.7723 5.59075 62.8843 6.29883C62.0012 7.00292 61.0298 7.42767 60.1802 7.42773C59.7048 7.42773 59.3001 7.19858 58.9683 6.83398C58.6396 6.47281 58.3695 5.96717 58.1489 5.37598C57.7073 4.19229 57.4394 2.59928 57.3228 0.931641C57.3224 0.925919 57.3218 0.919798 57.3218 0.914062C57.3216 0.674588 57.1296 0.483398 56.896 0.483398C56.6624 0.483427 56.4704 0.674606 56.4702 0.914062C56.4702 2.49259 56.6297 4.03517 56.8726 5.4834L56.8735 5.49414C57.0499 6.91826 56.9985 8.15642 56.7515 9.10156C56.5072 10.0362 56.0541 10.7423 55.3794 10.9922C55.054 11.1127 54.7265 11.1317 54.4058 11.0234C54.0894 10.9166 53.8033 10.6937 53.5405 10.374C53.0202 9.74094 52.5475 8.67174 52.0854 7.13281C51.6219 5.61567 51.1504 4.0519 50.7056 2.46777C50.6397 2.23562 50.4042 2.10893 50.186 2.17285H50.1851C49.959 2.2379 49.827 2.47425 49.8931 2.70703C50.446 4.66246 51.0248 6.57333 51.5913 8.4209V8.42285L51.8169 9.18164C52.0789 10.06 52.2296 11.3087 51.8989 12.3545C51.7319 12.8825 51.4386 13.3677 50.9673 13.7197C50.4951 14.0724 49.8653 14.2754 49.0532 14.2754H41.4097C41.0561 14.2756 40.7651 14.5685 40.7651 14.9336C40.7654 15.2985 41.0562 15.5906 41.4097 15.5908H57.0571C60.4744 15.5908 64.1215 13.3853 67.0786 10.4316C70.033 7.48069 72.2402 3.84091 72.813 1.06543V1.06445L72.8276 0.930664C72.8289 0.623133 72.6147 0.348649 72.3101 0.283203C72.2859 0.278002 72.2637 0.268424 72.2427 0.256836C71.921 0.220326 71.6099 0.436756 71.5386 0.777344C71.3194 1.84709 70.831 3.05115 70.1538 4.27734V4.27832C69.3957 5.63333 68.3157 6.95272 67.1694 8.04297C66.0251 9.13141 64.7993 10.0059 63.7417 10.4561C63.637 10.5004 63.5152 10.4681 63.4458 10.3779C63.3766 10.2877 63.377 10.1621 63.4468 10.0723C65.333 7.6519 66.616 3.71485 67.0474 1.62598C67.0481 1.61072 67.0482 1.59792 67.0493 1.59082C67.0508 1.58126 67.0526 1.57234 67.0532 1.56934L67.0513 1.5957C67.0513 1.57759 67.0532 1.55871 67.0571 1.54102Z" fill="#FF9C1A" stroke="#00402A" stroke-width="0.5" stroke-linejoin="round"/>
<path d="M11.2324 0.638184C10.8768 0.605794 10.5583 0.870907 10.5254 1.23486C10.2473 4.2774 11.1852 8.56338 12.9287 12.1392L12.9297 12.1401C13.088 12.4679 13.477 12.5983 13.7969 12.4399C13.9528 12.3626 14.144 12.1544 14.2705 11.896C14.4008 11.6297 14.4177 11.406 14.3604 11.2886H14.3594C12.7492 7.98689 11.8165 4.17552 11.8164 1.38135V1.37451C11.8164 0.971173 11.5688 0.668976 11.2324 0.638184Z" fill="#00402A" stroke="#00402A" stroke-width="0.5" stroke-linejoin="round"/>
<path d="M19.8071 1.75439C19.5734 1.75439 19.3805 1.94548 19.3804 2.18506C19.3804 5.76268 18.2463 9.14883 17.5229 11.6499C17.51 11.6946 17.5244 11.788 17.6558 11.9204C17.7789 12.0444 17.9519 12.1444 18.0874 12.1841L18.0894 12.1851C18.3136 12.2536 18.5483 12.1258 18.6138 11.895V11.894L18.8989 10.8804C19.5673 8.43021 20.2261 5.39851 20.2261 2.18506C20.2261 2.17441 20.2287 2.16411 20.23 2.15381C20.214 1.92925 20.0304 1.75456 19.8071 1.75439Z" fill="#00402A" stroke="#00402A" stroke-width="0.5" stroke-linejoin="round"/>
<path d="M0.835449 0.256836C0.814233 0.268599 0.791476 0.277964 0.76709 0.283203C0.418886 0.358064 0.189244 0.70611 0.26416 1.06445V1.06543C0.83696 3.84094 3.04506 7.48066 5.99951 10.4316C8.95648 13.3851 12.6029 15.5906 16.02 15.5908H31.6675C32.0287 15.5908 32.3186 15.2974 32.3188 14.9336C32.3188 14.5708 32.0235 14.2754 31.6675 14.2754H24.0239C23.212 14.2753 22.582 14.0723 22.1099 13.7197C21.6387 13.3677 21.3462 12.8824 21.1792 12.3545C20.8898 11.4394 20.9687 10.369 21.1685 9.52734L21.2603 9.18164L21.4858 8.42285L21.4868 8.4209C22.0533 6.57339 22.6321 4.66239 23.1851 2.70703C23.2509 2.47445 23.1188 2.23807 22.8931 2.17285H22.8911C22.7002 2.11703 22.496 2.20675 22.4038 2.38574L22.3716 2.46777C22.1491 3.26004 21.9202 4.0473 21.689 4.82617L20.9927 7.13477C20.5308 8.67298 20.0568 9.74112 19.5366 10.374C19.2739 10.6936 18.9877 10.9166 18.6714 11.0234C18.3506 11.1317 18.0232 11.1127 17.6978 10.9922C17.0231 10.7423 16.57 10.0362 16.3257 9.10156C16.1095 8.27464 16.0431 7.22335 16.1479 6.01953L16.2036 5.49414L16.2056 5.4834L16.2925 4.93555C16.4857 3.64872 16.6079 2.29513 16.6079 0.914062C16.6077 0.674589 16.4148 0.483398 16.1812 0.483398C15.9476 0.483537 15.7556 0.674674 15.7554 0.914062C15.7554 0.919805 15.7548 0.925912 15.7544 0.931641C15.6377 2.59933 15.3699 4.19228 14.9282 5.37598C14.7076 5.96717 14.4376 6.47281 14.1089 6.83398C13.7772 7.19837 13.3731 7.42758 12.8979 7.42773C12.0484 7.42773 11.077 7.00284 10.1938 6.29883C9.30579 5.59079 8.48226 4.58214 7.93115 3.37207C7.92898 3.36729 7.92619 3.36233 7.92432 3.35742C7.5859 2.46614 7.32915 1.60015 7.19678 0.807617C7.13552 0.447016 6.79838 0.205811 6.44971 0.265625L6.4458 0.266602C6.09944 0.321876 5.85825 0.660603 5.91943 1.02148C5.95185 1.19783 5.98285 1.37253 6.02002 1.54102C6.02392 1.55871 6.02588 1.57759 6.02588 1.5957L6.02393 1.56934C6.02451 1.5723 6.02631 1.58123 6.02783 1.59082C6.02909 1.59883 6.03217 1.61384 6.03271 1.63184C6.46535 3.7226 7.73999 7.65359 9.63037 10.0713C9.70061 10.1611 9.70079 10.2875 9.63135 10.3779C9.56194 10.4682 9.44028 10.5006 9.33545 10.4561C8.27787 10.0059 7.05207 9.13141 5.90771 8.04297C4.76153 6.95275 3.68241 5.63327 2.92432 4.27832L2.92334 4.27734C2.24614 3.05116 1.75778 1.84708 1.53857 0.777344C1.46728 0.437023 1.15692 0.220703 0.835449 0.256836Z" fill="#FF9C1A" stroke="#00402A" stroke-width="0.5" stroke-linejoin="round"/>
<path d="M36.542 11.8501C35.8356 11.8501 35.0052 11.8899 34.2432 11.981C33.5697 12.0614 32.9702 12.1801 32.5566 12.3354L32.3906 12.4038C31.9724 12.5963 31.5615 12.8697 31.2471 13.4536C30.9269 14.0485 30.6944 14.9891 30.6943 16.5405C30.6943 18.0486 31.2646 19.3002 31.8564 20.4165C32.1484 20.9672 32.4543 21.5011 32.6816 21.9976C32.8715 22.4121 33.0173 22.8251 33.0615 23.2358H40.0225C40.0667 22.8251 40.2125 22.4121 40.4023 21.9976C40.6297 21.5011 40.9356 20.9672 41.2275 20.4165C41.8194 19.3002 42.3896 18.0486 42.3896 16.5405C42.3896 14.9895 42.1558 14.0506 41.835 13.4565C41.5198 12.8732 41.109 12.5991 40.6924 12.4028C40.2793 12.2131 39.6057 12.0728 38.8379 11.981C38.0767 11.89 37.2483 11.8501 36.542 11.8501Z" fill="#FFB536" stroke="#00402A" stroke-width="0.5" stroke-linejoin="round"/>
<path d="M36.542 20.8564C35.7432 20.8565 34.7845 21.0281 34.0352 21.4355C33.2937 21.8387 32.7803 22.4556 32.7803 23.3623C32.7803 24.098 32.9161 24.5672 33.0508 24.9238C33.0852 25.015 33.1205 25.0998 33.1543 25.1826C33.1875 25.264 33.2202 25.346 33.249 25.4258C33.307 25.5863 33.3535 25.7558 33.3535 25.9434C33.3534 26.1094 33.2917 26.3261 33.2217 26.5381C33.1488 26.7586 33.0495 27.0223 32.9561 27.2852C32.7623 27.8303 32.5879 28.3887 32.5879 28.8154C32.5879 29.2541 32.7039 29.9518 33.2373 30.5381C33.7659 31.119 34.7424 31.6328 36.5488 31.6328C38.3581 31.6328 39.334 31.1363 39.8613 30.5654C40.3922 29.9905 40.5098 29.2952 40.5098 28.8154C40.5098 28.3887 40.3344 27.8303 40.1406 27.2852C40.0472 27.0224 39.9488 26.7585 39.876 26.5381C39.8191 26.366 39.7694 26.1907 39.752 26.042C39.7388 26.0117 39.7305 25.9785 39.7305 25.9434C39.7305 25.7558 39.777 25.5863 39.835 25.4258C39.8638 25.3459 39.8974 25.2641 39.9307 25.1826C39.9645 25.0998 39.9988 25.015 40.0332 24.9238C40.1679 24.5672 40.3037 24.0981 40.3037 23.3623C40.3037 22.459 39.7907 21.8416 39.0488 21.4375C38.2994 21.0293 37.3404 20.8564 36.542 20.8564Z" fill="#00402A" stroke="#00402A" stroke-width="0.5" stroke-linejoin="round"/>
<path d="M33.1631 26.4102C33.1291 26.4925 33.0953 26.5838 33.0615 26.6826C33.0747 26.7168 33.0874 26.7503 33.1006 26.7832C33.1275 26.6491 33.1491 26.5236 33.1631 26.4102Z" fill="#FFB536" stroke="#00402A" stroke-width="0.5" stroke-linejoin="round"/>
<path d="M39.915 26.4102C39.9291 26.5236 39.9506 26.6491 39.9775 26.7832C39.9906 26.7505 40.0045 26.7176 40.0176 26.6836C39.9837 26.5843 39.9492 26.4928 39.915 26.4102Z" fill="#FFB536" stroke="#00402A" stroke-width="0.5" stroke-linejoin="round"/>
<path d="M41.1069 17.9521C40.8749 17.9522 40.6746 18.1481 40.6743 18.3955C40.6743 18.6432 40.8747 18.8398 41.1069 18.8398C41.3392 18.8398 41.5396 18.6432 41.5396 18.3955C41.5393 18.148 41.339 17.9521 41.1069 17.9521Z" fill="#00402A" stroke="#00402A" stroke-width="0.5" stroke-linejoin="round"/>
<path d="M32.0283 17.9521C31.7963 17.9522 31.5959 18.1481 31.5957 18.3955C31.5957 18.6432 31.7961 18.8398 32.0283 18.8398C32.2606 18.8398 32.4609 18.6432 32.4609 18.3955C32.4607 18.148 32.2604 17.9521 32.0283 17.9521Z" fill="#00402A" stroke="#00402A" stroke-width="0.5" stroke-linejoin="round"/>
</svg>
