<svg width="93" height="61" viewBox="0 0 93 61" fill="none" xmlns="http://www.w3.org/2000/svg">
<path d="M81.5688 41.9521C83.5219 48.422 86.8113 52.2698 89.3315 54.8252C89.9811 55.4838 90.5903 56.0673 91.0952 56.5713C91.6068 57.0819 92.0185 57.5184 92.3062 57.9102C92.5956 58.3044 92.7375 58.6248 92.7495 58.9043C92.7609 59.1694 92.6571 59.4425 92.3491 59.752C91.7423 60.3601 90.7577 60.5706 89.5054 60.4492C88.2599 60.3284 86.8026 59.8831 85.3198 59.249C82.4163 58.0074 79.4768 56.0685 77.9214 54.5498C77.9385 54.4861 77.9619 54.4017 77.9897 54.2988C78.0583 54.0452 78.1583 53.6777 78.2827 53.2227C78.5317 52.312 78.8797 51.0504 79.2759 49.6465C79.9841 47.1366 80.8454 44.1763 81.5688 41.9521Z" fill="#00402A" stroke="#00402A" stroke-width="0.5"/>
<path d="M73.9971 0.25C80.3458 0.250209 85.4912 5.41875 85.4912 11.7949V39.3896C85.4911 50.5384 74.6091 59.3369 62.9727 59.3369H30.9746C19.3316 59.3369 9.8907 49.8595 9.89062 38.1641C9.89062 37.3212 9.94047 36.4904 10.0342 35.6719L10.0547 35.4893L9.8877 35.415C4.14815 32.8509 0.250096 27.6679 0.25 21.7197V17.8613C7.34112 18.5016 12.8876 23.5183 13.3203 29.6904L13.3369 29.9229H13.8662L13.8828 29.6904C14.3156 23.5182 19.856 18.5015 26.9531 17.8613V21.7197C26.953 26.7767 24.1398 31.2772 19.7773 34.0879L19.6631 34.1611V34.2979C19.6631 36.2394 19.7954 37.8274 20.2861 39.2852C20.7786 40.748 21.626 42.062 23.0273 43.4697L23.2041 43.6484L23.3809 43.4697C27.9295 38.9023 35.4929 33.5946 43.0176 29.1016C50.544 24.6075 57.9985 20.9488 62.3232 19.666L62.5029 19.6133V11.7949C62.5029 5.41862 67.6481 0.25 73.9971 0.25Z" fill="#0DA9FF" stroke="#00402A" stroke-width="0.5"/>
<path d="M55.5205 39.5249C55.9271 39.248 56.4154 39.1838 56.9531 39.3149C58.0467 39.5817 59.3023 40.6528 60.2363 42.2378C62.0918 45.3867 62.5822 50.3982 58.0488 54.4409L58.0381 54.4517C56.5115 55.9843 53.5052 57.9796 50.5381 59.2485C49.0553 59.8826 47.598 60.3289 46.3525 60.4497C45.1001 60.5712 44.1157 60.3597 43.5088 59.7515C43.2008 59.442 43.097 59.1689 43.1084 58.9038C43.1206 58.6245 43.2617 58.3045 43.5508 57.9106C43.8384 57.5188 44.251 57.0815 44.7627 56.5708C45.2676 56.0669 45.877 55.4841 46.5264 54.8257C49.1459 52.1696 52.5976 48.1172 54.5146 41.1753V41.1743C54.7472 40.3261 55.1093 39.805 55.5205 39.5249Z" fill="#00402A" stroke="#00402A" stroke-width="0.5"/>
<path d="M61.2324 16.1665C61.2324 14.9391 61.5281 13.8724 62.1025 13.1187C62.6702 12.3738 63.5267 11.9127 64.71 11.9126C65.4243 11.9126 65.9467 12.0696 66.3867 12.3501C66.8328 12.6345 67.212 13.0561 67.623 13.6167L67.8252 13.8921L68.0264 13.6167C68.8143 12.54 69.9508 11.8491 71.3691 11.8491C72.5677 11.8492 74.0337 12.3405 75.1992 13.144C76.3705 13.9516 77.1777 15.0299 77.1777 16.1733C77.1776 17.8808 76.1862 19.3554 74.7529 20.0542L74.7451 20.0581L74.7373 20.063C73.7884 20.6125 72.419 20.8653 71.2598 20.9761C70.6852 21.031 70.1715 21.0496 69.8018 21.0552C69.6171 21.0579 69.4682 21.0575 69.3662 21.0562C69.3155 21.0555 69.2763 21.0549 69.25 21.0542C69.2368 21.0539 69.2263 21.0534 69.2197 21.0532H69.2109L69.2021 21.0522L69.1934 21.0532H69.1836C69.1771 21.0534 69.1673 21.0539 69.1543 21.0542C69.1279 21.0549 69.0881 21.0555 69.0371 21.0562C68.9349 21.0575 68.7856 21.0579 68.6006 21.0552C68.2303 21.0497 67.7164 21.0306 67.1416 20.9761C65.9815 20.8661 64.6127 20.6152 63.667 20.0688L63.6514 20.061C62.2451 19.3694 61.267 17.9372 61.2295 16.272L61.2324 16.27V16.1665Z" fill="#00402A" stroke="#00402A" stroke-width="0.5"/>
<path d="M67.6035 11.3374C68.7162 11.3374 69.6171 11.5735 70.1758 11.7964C69.7165 12.9745 69.0922 14.0293 67.6035 14.6196C66.1142 14.0292 65.4896 12.974 65.0303 11.7954C65.5918 11.5696 66.4934 11.3374 67.6035 11.3374Z" fill="#007ACB" stroke="#00402A" stroke-width="0.5"/>
<mask id="path-6-inside-1_99_19952" fill="white">
<path d="M72.5689 15.1873C72.5689 15.0483 72.4552 14.9346 72.3226 14.9346C72.1899 14.9346 72.0762 15.0483 72.0762 15.1873C72.0762 15.3263 72.1899 15.44 72.3226 15.44C72.4552 15.44 72.5689 15.3263 72.5689 15.1873Z"/>
</mask>
<path d="M72.5689 15.1873C72.5689 15.0483 72.4552 14.9346 72.3226 14.9346C72.1899 14.9346 72.0762 15.0483 72.0762 15.1873C72.0762 15.3263 72.1899 15.44 72.3226 15.44C72.4552 15.44 72.5689 15.3263 72.5689 15.1873Z" fill="#0DA9FF"/>
<path d="M72.5689 15.1873H73.0689C73.0689 14.7804 72.7395 14.4346 72.3226 14.4346V14.9346V15.4346C72.1709 15.4346 72.0689 15.3162 72.0689 15.1873H72.5689ZM72.3226 14.9346V14.4346C71.9056 14.4346 71.5762 14.7804 71.5762 15.1873H72.0762H72.5762C72.5762 15.3162 72.4742 15.4346 72.3226 15.4346V14.9346ZM72.0762 15.1873H71.5762C71.5762 15.5942 71.9056 15.94 72.3226 15.94V15.44V14.94C72.4742 14.94 72.5762 15.0583 72.5762 15.1873H72.0762ZM72.3226 15.44V15.94C72.7395 15.94 73.0689 15.5942 73.0689 15.1873H72.5689H72.0689C72.0689 15.0583 72.1709 14.94 72.3226 14.94V15.44Z" fill="#00402A" mask="url(#path-6-inside-1_99_19952)"/>
<mask id="path-8-inside-2_99_19952" fill="white">
<path d="M73.9083 15.1873C73.9083 15.0483 73.7946 14.9346 73.6619 14.9346C73.5292 14.9346 73.4155 15.0483 73.4155 15.1873C73.4155 15.3263 73.5292 15.44 73.6619 15.44C73.7946 15.44 73.9083 15.3263 73.9083 15.1873Z"/>
</mask>
<path d="M73.9083 15.1873C73.9083 15.0483 73.7946 14.9346 73.6619 14.9346C73.5292 14.9346 73.4155 15.0483 73.4155 15.1873C73.4155 15.3263 73.5292 15.44 73.6619 15.44C73.7946 15.44 73.9083 15.3263 73.9083 15.1873Z" fill="#0DA9FF"/>
<path d="M73.9083 15.1873H74.4083C74.4083 14.7804 74.0789 14.4346 73.6619 14.4346V14.9346V15.4346C73.5103 15.4346 73.4083 15.3162 73.4083 15.1873H73.9083ZM73.6619 14.9346V14.4346C73.2449 14.4346 72.9155 14.7804 72.9155 15.1873H73.4155H73.9155C73.9155 15.3162 73.8135 15.4346 73.6619 15.4346V14.9346ZM73.4155 15.1873H72.9155C72.9155 15.5942 73.2449 15.94 73.6619 15.94V15.44V14.94C73.8135 14.94 73.9155 15.0583 73.9155 15.1873H73.4155ZM73.6619 15.44V15.94C74.0789 15.94 74.4083 15.5942 74.4083 15.1873H73.9083H73.4083C73.4083 15.0583 73.5103 14.94 73.6619 14.94V15.44Z" fill="#00402A" mask="url(#path-8-inside-2_99_19952)"/>
<mask id="path-10-inside-3_99_19952" fill="white">
<path d="M72.5689 16.5261C72.5689 16.3872 72.4552 16.2734 72.3226 16.2734C72.1899 16.2734 72.0762 16.3872 72.0762 16.5261C72.0762 16.6651 72.1899 16.7788 72.3226 16.7788C72.4552 16.7788 72.5689 16.6651 72.5689 16.5261Z"/>
</mask>
<path d="M72.5689 16.5261C72.5689 16.3872 72.4552 16.2734 72.3226 16.2734C72.1899 16.2734 72.0762 16.3872 72.0762 16.5261C72.0762 16.6651 72.1899 16.7788 72.3226 16.7788C72.4552 16.7788 72.5689 16.6651 72.5689 16.5261Z" fill="#0DA9FF"/>
<path d="M72.5689 16.5261H73.0689C73.0689 16.1192 72.7395 15.7734 72.3226 15.7734V16.2734V16.7734C72.1709 16.7734 72.0689 16.6551 72.0689 16.5261H72.5689ZM72.3226 16.2734V15.7734C71.9056 15.7734 71.5762 16.1192 71.5762 16.5261H72.0762H72.5762C72.5762 16.6551 72.4742 16.7734 72.3226 16.7734V16.2734ZM72.0762 16.5261H71.5762C71.5762 16.933 71.9056 17.2788 72.3226 17.2788V16.7788V16.2788C72.4742 16.2788 72.5762 16.3972 72.5762 16.5261H72.0762ZM72.3226 16.7788V17.2788C72.7395 17.2788 73.0689 16.933 73.0689 16.5261H72.5689H72.0689C72.0689 16.3972 72.1709 16.2788 72.3226 16.2788V16.7788Z" fill="#00402A" mask="url(#path-10-inside-3_99_19952)"/>
<mask id="path-12-inside-4_99_19952" fill="white">
<path d="M73.9083 16.5261C73.9083 16.3872 73.7946 16.2734 73.6619 16.2734C73.5292 16.2734 73.4155 16.3872 73.4155 16.5261C73.4155 16.6651 73.5292 16.7788 73.6619 16.7788C73.7946 16.7788 73.9083 16.6651 73.9083 16.5261Z"/>
</mask>
<path d="M73.9083 16.5261C73.9083 16.3872 73.7946 16.2734 73.6619 16.2734C73.5292 16.2734 73.4155 16.3872 73.4155 16.5261C73.4155 16.6651 73.5292 16.7788 73.6619 16.7788C73.7946 16.7788 73.9083 16.6651 73.9083 16.5261Z" fill="#0DA9FF"/>
<path d="M73.9083 16.5261H74.4083C74.4083 16.1192 74.0789 15.7734 73.6619 15.7734V16.2734V16.7734C73.5103 16.7734 73.4083 16.6551 73.4083 16.5261H73.9083ZM73.6619 16.2734V15.7734C73.2449 15.7734 72.9155 16.1192 72.9155 16.5261H73.4155H73.9155C73.9155 16.6551 73.8135 16.7734 73.6619 16.7734V16.2734ZM73.4155 16.5261H72.9155C72.9155 16.933 73.2449 17.2788 73.6619 17.2788V16.7788V16.2788C73.8135 16.2788 73.9155 16.3972 73.9155 16.5261H73.4155ZM73.6619 16.7788V17.2788C74.0789 17.2788 74.4083 16.933 74.4083 16.5261H73.9083H73.4083C73.4083 16.3972 73.5103 16.2788 73.6619 16.2788V16.7788Z" fill="#00402A" mask="url(#path-12-inside-4_99_19952)"/>
<mask id="path-14-inside-5_99_19952" fill="white">
<path d="M73.2384 15.8572C73.2384 15.7182 73.1247 15.6045 72.992 15.6045C72.8593 15.6045 72.7456 15.7182 72.7456 15.8572C72.7456 15.9962 72.8593 16.1099 72.992 16.1099C73.1247 16.1099 73.2384 15.9962 73.2384 15.8572Z"/>
</mask>
<path d="M73.2384 15.8572C73.2384 15.7182 73.1247 15.6045 72.992 15.6045C72.8593 15.6045 72.7456 15.7182 72.7456 15.8572C72.7456 15.9962 72.8593 16.1099 72.992 16.1099C73.1247 16.1099 73.2384 15.9962 73.2384 15.8572Z" fill="#0DA9FF"/>
<path d="M73.2384 15.8572H73.7384C73.7384 15.4503 73.409 15.1045 72.992 15.1045V15.6045V16.1045C72.8403 16.1045 72.7384 15.9861 72.7384 15.8572H73.2384ZM72.992 15.6045V15.1045C72.575 15.1045 72.2456 15.4503 72.2456 15.8572H72.7456H73.2456C73.2456 15.9861 73.1436 16.1045 72.992 16.1045V15.6045ZM72.7456 15.8572H72.2456C72.2456 16.2641 72.575 16.6099 72.992 16.6099V16.1099V15.6099C73.1436 15.6099 73.2456 15.7283 73.2456 15.8572H72.7456ZM72.992 16.1099V16.6099C73.409 16.6099 73.7384 16.2641 73.7384 15.8572H73.2384H72.7384C72.7384 15.7283 72.8403 15.6099 72.992 15.6099V16.1099Z" fill="#00402A" mask="url(#path-14-inside-5_99_19952)"/>
<mask id="path-16-inside-6_99_19952" fill="white">
<path d="M63.1494 15.1873C63.1494 15.0483 63.2631 14.9346 63.3958 14.9346C63.5285 14.9346 63.6422 15.0483 63.6422 15.1873C63.6422 15.3263 63.5285 15.44 63.3958 15.44C63.2631 15.44 63.1494 15.3263 63.1494 15.1873Z"/>
</mask>
<path d="M63.1494 15.1873C63.1494 15.0483 63.2631 14.9346 63.3958 14.9346C63.5285 14.9346 63.6422 15.0483 63.6422 15.1873C63.6422 15.3263 63.5285 15.44 63.3958 15.44C63.2631 15.44 63.1494 15.3263 63.1494 15.1873Z" fill="#0DA9FF"/>
<path d="M63.1494 15.1873H63.6494C63.6494 15.3162 63.5474 15.4346 63.3958 15.4346V14.9346V14.4346C62.9788 14.4346 62.6494 14.7804 62.6494 15.1873H63.1494ZM63.3958 14.9346V15.4346C63.2442 15.4346 63.1422 15.3162 63.1422 15.1873H63.6422H64.1422C64.1422 14.7804 63.8128 14.4346 63.3958 14.4346V14.9346ZM63.6422 15.1873H63.1422C63.1422 15.0583 63.2442 14.94 63.3958 14.94V15.44V15.94C63.8128 15.94 64.1422 15.5942 64.1422 15.1873H63.6422ZM63.3958 15.44V14.94C63.5474 14.94 63.6494 15.0583 63.6494 15.1873H63.1494H62.6494C62.6494 15.5942 62.9788 15.94 63.3958 15.94V15.44Z" fill="#00402A" mask="url(#path-16-inside-6_99_19952)"/>
<mask id="path-18-inside-7_99_19952" fill="white">
<path d="M61.8101 15.1873C61.8101 15.0483 61.9238 14.9346 62.0564 14.9346C62.1891 14.9346 62.3028 15.0483 62.3028 15.1873C62.3028 15.3263 62.1891 15.44 62.0564 15.44C61.9238 15.44 61.8101 15.3263 61.8101 15.1873Z"/>
</mask>
<path d="M61.8101 15.1873C61.8101 15.0483 61.9238 14.9346 62.0564 14.9346C62.1891 14.9346 62.3028 15.0483 62.3028 15.1873C62.3028 15.3263 62.1891 15.44 62.0564 15.44C61.9238 15.44 61.8101 15.3263 61.8101 15.1873Z" fill="#0DA9FF"/>
<path d="M61.8101 15.1873H62.3101C62.3101 15.3162 62.2081 15.4346 62.0564 15.4346V14.9346V14.4346C61.6395 14.4346 61.3101 14.7804 61.3101 15.1873H61.8101ZM62.0564 14.9346V15.4346C61.9048 15.4346 61.8028 15.3162 61.8028 15.1873H62.3028H62.8028C62.8028 14.7804 62.4734 14.4346 62.0564 14.4346V14.9346ZM62.3028 15.1873H61.8028C61.8028 15.0583 61.9048 14.94 62.0564 14.94V15.44V15.94C62.4734 15.94 62.8028 15.5942 62.8028 15.1873H62.3028ZM62.0564 15.44V14.94C62.2081 14.94 62.3101 15.0583 62.3101 15.1873H61.8101H61.3101C61.3101 15.5942 61.6395 15.94 62.0564 15.94V15.44Z" fill="#00402A" mask="url(#path-18-inside-7_99_19952)"/>
<mask id="path-20-inside-8_99_19952" fill="white">
<path d="M63.1494 16.5261C63.1494 16.3872 63.2631 16.2734 63.3958 16.2734C63.5285 16.2734 63.6422 16.3872 63.6422 16.5261C63.6422 16.6651 63.5285 16.7788 63.3958 16.7788C63.2631 16.7788 63.1494 16.6651 63.1494 16.5261Z"/>
</mask>
<path d="M63.1494 16.5261C63.1494 16.3872 63.2631 16.2734 63.3958 16.2734C63.5285 16.2734 63.6422 16.3872 63.6422 16.5261C63.6422 16.6651 63.5285 16.7788 63.3958 16.7788C63.2631 16.7788 63.1494 16.6651 63.1494 16.5261Z" fill="#0DA9FF"/>
<path d="M63.1494 16.5261H63.6494C63.6494 16.6551 63.5474 16.7734 63.3958 16.7734V16.2734V15.7734C62.9788 15.7734 62.6494 16.1192 62.6494 16.5261H63.1494ZM63.3958 16.2734V16.7734C63.2442 16.7734 63.1422 16.6551 63.1422 16.5261H63.6422H64.1422C64.1422 16.1192 63.8128 15.7734 63.3958 15.7734V16.2734ZM63.6422 16.5261H63.1422C63.1422 16.3972 63.2442 16.2788 63.3958 16.2788V16.7788V17.2788C63.8128 17.2788 64.1422 16.933 64.1422 16.5261H63.6422ZM63.3958 16.7788V16.2788C63.5474 16.2788 63.6494 16.3972 63.6494 16.5261H63.1494H62.6494C62.6494 16.933 62.9788 17.2788 63.3958 17.2788V16.7788Z" fill="#00402A" mask="url(#path-20-inside-8_99_19952)"/>
<mask id="path-22-inside-9_99_19952" fill="white">
<path d="M61.8101 16.5261C61.8101 16.3872 61.9238 16.2734 62.0564 16.2734C62.1891 16.2734 62.3028 16.3872 62.3028 16.5261C62.3028 16.6651 62.1891 16.7788 62.0564 16.7788C61.9238 16.7788 61.8101 16.6651 61.8101 16.5261Z"/>
</mask>
<path d="M61.8101 16.5261C61.8101 16.3872 61.9238 16.2734 62.0564 16.2734C62.1891 16.2734 62.3028 16.3872 62.3028 16.5261C62.3028 16.6651 62.1891 16.7788 62.0564 16.7788C61.9238 16.7788 61.8101 16.6651 61.8101 16.5261Z" fill="#0DA9FF"/>
<path d="M61.8101 16.5261H62.3101C62.3101 16.6551 62.2081 16.7734 62.0564 16.7734V16.2734V15.7734C61.6395 15.7734 61.3101 16.1192 61.3101 16.5261H61.8101ZM62.0564 16.2734V16.7734C61.9048 16.7734 61.8028 16.6551 61.8028 16.5261H62.3028H62.8028C62.8028 16.1192 62.4734 15.7734 62.0564 15.7734V16.2734ZM62.3028 16.5261H61.8028C61.8028 16.3972 61.9048 16.2788 62.0564 16.2788V16.7788V17.2788C62.4734 17.2788 62.8028 16.933 62.8028 16.5261H62.3028ZM62.0564 16.7788V16.2788C62.2081 16.2788 62.3101 16.3972 62.3101 16.5261H61.8101H61.3101C61.3101 16.933 61.6395 17.2788 62.0564 17.2788V16.7788Z" fill="#00402A" mask="url(#path-22-inside-9_99_19952)"/>
<mask id="path-24-inside-10_99_19952" fill="white">
<path d="M62.48 15.8572C62.48 15.7182 62.5937 15.6045 62.7264 15.6045C62.859 15.6045 62.9727 15.7182 62.9727 15.8572C62.9727 15.9962 62.859 16.1099 62.7264 16.1099C62.5937 16.1099 62.48 15.9962 62.48 15.8572Z"/>
</mask>
<path d="M62.48 15.8572C62.48 15.7182 62.5937 15.6045 62.7264 15.6045C62.859 15.6045 62.9727 15.7182 62.9727 15.8572C62.9727 15.9962 62.859 16.1099 62.7264 16.1099C62.5937 16.1099 62.48 15.9962 62.48 15.8572Z" fill="#0DA9FF"/>
<path d="M62.48 15.8572H62.98C62.98 15.9861 62.878 16.1045 62.7264 16.1045V15.6045V15.1045C62.3094 15.1045 61.98 15.4503 61.98 15.8572H62.48ZM62.7264 15.6045V16.1045C62.5747 16.1045 62.4727 15.9861 62.4727 15.8572H62.9727H63.4727C63.4727 15.4503 63.1433 15.1045 62.7264 15.1045V15.6045ZM62.9727 15.8572H62.4727C62.4727 15.7283 62.5747 15.6099 62.7264 15.6099V16.1099V16.6099C63.1433 16.6099 63.4727 16.2641 63.4727 15.8572H62.9727ZM62.7264 16.1099V15.6099C62.878 15.6099 62.98 15.7283 62.98 15.8572H62.48H61.98C61.98 16.2641 62.3094 16.6099 62.7264 16.6099V16.1099Z" fill="#00402A" mask="url(#path-24-inside-10_99_19952)"/>
<path d="M73.9146 7.77441C74.3261 7.77441 74.6625 8.11096 74.6626 8.52246C74.6626 8.93401 74.3261 9.27051 73.9146 9.27051C73.5031 9.27044 73.1665 8.93397 73.1665 8.52246C73.1666 8.111 73.5031 7.77448 73.9146 7.77441Z" fill="#00402A" stroke="#00402A" stroke-width="0.5"/>
<path d="M64.4888 7.77441C64.8982 7.77441 65.2309 8.10889 65.231 8.52246C65.231 8.93504 64.893 9.27051 64.4888 9.27051C64.0826 9.27044 63.7407 8.93295 63.7407 8.52246C63.7408 8.111 64.0773 7.77448 64.4888 7.77441Z" fill="#00402A" stroke="#00402A" stroke-width="0.5"/>
<path d="M36.4453 51.7505C37.5736 51.7505 38.583 52.0234 39.3018 52.4507C40.0258 52.8812 40.4159 53.4401 40.416 54.0083C40.416 54.5765 40.0259 55.1363 39.3018 55.5669C38.583 55.9941 37.5735 56.2661 36.4453 56.2661C35.317 56.2661 34.3076 55.9942 33.5889 55.5669C32.8647 55.1363 32.4756 54.5765 32.4756 54.0083C32.4757 53.4402 32.865 52.8812 33.5889 52.4507C34.3076 52.0233 35.317 51.7505 36.4453 51.7505Z" fill="#00402A" stroke="#00402A" stroke-width="0.5"/>
<path d="M30.7871 46.5332C31.3696 46.5837 31.7597 46.8143 31.918 47.1475C32.0768 47.4818 32.0107 47.9335 31.6855 48.4219C31.3638 48.9051 30.8109 49.3835 30.0957 49.7275C29.3803 50.0716 28.6623 50.2061 28.0859 50.1562C27.5035 50.1058 27.1134 49.8751 26.9551 49.542C26.7962 49.2076 26.8624 48.756 27.1875 48.2676C27.5093 47.7844 28.0622 47.3059 28.7773 46.9619C29.4927 46.6178 30.2108 46.4833 30.7871 46.5332Z" fill="#00402A" stroke="#00402A" stroke-width="0.5"/>
<path d="M38.0928 34.8428C38.438 34.7813 38.6711 34.8585 38.7891 34.9971L38.79 34.998C38.9108 35.1377 38.9512 35.3805 38.8389 35.7129C38.7284 36.0394 38.4814 36.4064 38.1143 36.7236C37.7475 37.0405 37.3485 37.2307 37.0098 37.291C36.6646 37.3525 36.4315 37.2753 36.3135 37.1367C36.1943 36.9967 36.154 36.7524 36.2656 36.4199C36.3754 36.0933 36.6214 35.7262 36.9883 35.4092C37.355 35.0923 37.7541 34.9031 38.0928 34.8428Z" fill="#00402A" stroke="#00402A" stroke-width="0.5"/>
<path d="M43.7515 35.5464C43.9598 35.5093 44.0723 35.5601 44.1206 35.6167C44.17 35.6746 44.2027 35.7949 44.1353 35.9946C44.0698 36.1885 43.921 36.4137 43.6929 36.6108C43.4653 36.8075 43.221 36.9214 43.02 36.9565C42.8129 36.9927 42.699 36.9408 42.6499 36.8833C42.6006 36.8254 42.5679 36.7049 42.6353 36.5054C42.7006 36.3119 42.8495 36.0879 43.0767 35.8911C43.3048 35.6968 43.5497 35.5823 43.7515 35.5464Z" fill="#00402A" stroke="#00402A" stroke-width="0.5"/>
<path d="M82.6768 23.8018C82.7721 23.8018 82.9065 23.8711 83.0312 24.083C83.152 24.2882 83.2353 24.587 83.2354 24.9287C83.2354 25.2705 83.1521 25.5701 83.0312 25.7754C82.9066 25.987 82.772 26.0566 82.6768 26.0566C82.5815 26.0566 82.4469 25.987 82.3223 25.7754C82.2015 25.5701 82.1182 25.2705 82.1182 24.9287C82.1182 24.587 82.2015 24.2882 82.3223 24.083C82.447 23.8711 82.5814 23.8018 82.6768 23.8018Z" fill="#00402A" stroke="#00402A" stroke-width="0.5"/>
<path d="M76.9653 25.4634C77.1601 25.4634 77.3797 25.5977 77.564 25.9106C77.7452 26.2187 77.8657 26.6617 77.8657 27.1655C77.8657 27.6692 77.7452 28.1114 77.564 28.4194C77.3796 28.7328 77.1602 28.8677 76.9653 28.8677C76.7742 28.8675 76.5551 28.7333 76.3696 28.4194C76.1876 28.1112 76.0659 27.6687 76.0659 27.1655C76.0659 26.6617 76.1854 26.2187 76.3667 25.9106C76.5509 25.5976 76.7706 25.4635 76.9653 25.4634Z" fill="#00402A" stroke="#00402A" stroke-width="0.5"/>
<path d="M85.4844 22.481C85.0857 22.3858 84.6991 22.0658 84.3867 21.5366C84.0128 20.903 83.7735 20.0119 83.7734 19.0161V19.0093C83.7735 18.0103 84.013 17.1195 84.3867 16.4868C84.699 15.9584 85.0854 15.6382 85.4844 15.5435V22.481Z" fill="#00402A" stroke="#00402A" stroke-width="0.5"/>
</svg>
